<?xml version="1.0" encoding="UTF-8" standalone="no"?>
<svg
   height="182"
   width="160"
   version="1.1"
   id="svg4"
   sodipodi:docname="back-sitting.svg"
   xml:space="preserve"
   inkscape:version="1.4.2 (ebf0e94, 2025-05-08)"
   xmlns:inkscape="http://www.inkscape.org/namespaces/inkscape"
   xmlns:sodipodi="http://sodipodi.sourceforge.net/DTD/sodipodi-0.dtd"
   xmlns:xlink="http://www.w3.org/1999/xlink"
   xmlns="http://www.w3.org/2000/svg"
   xmlns:svg="http://www.w3.org/2000/svg"><sodipodi:namedview
     id="namedview4"
     pagecolor="#ffffff"
     bordercolor="#000000"
     borderopacity="0.25"
     inkscape:showpageshadow="2"
     inkscape:pageopacity="0.0"
     inkscape:pagecheckerboard="0"
     inkscape:deskcolor="#d1d1d1"
     inkscape:zoom="4.4230769"
     inkscape:cx="80.034783"
     inkscape:cy="91"
     inkscape:window-width="1920"
     inkscape:window-height="1052"
     inkscape:window-x="1920"
     inkscape:window-y="0"
     inkscape:window-maximized="1"
     inkscape:current-layer="svg4" /><defs
     id="defs3"><path
       d="M1.35 0h.2l.55.1.45.35q.45.45.45 1L2.55 2.6q-.45.4-1 .4l-.8-.2-.25-.2-.45-.7v-.15L0 1.45v-.1q.05-.5.5-.9l.25-.2Q1 .05 1.3 0h.05m.45.85L1.55.8Q1.2.75 1 1q-.2.15-.2.45v.15l.15.45H1l.05.05.2.1.3.05.55-.2.15-.6-.05-.3L2.1 1 2.05.95 1.9.85h-.1"
       fill-rule="evenodd"
       id="a" /><use
       height="3"
       transform="translate(.8)"
       width="3"
       xlink:href="#a"
       id="c" /><g
       id="b"><path
         d="M.35-60h3.9l1.2.55 3.85-8.6 3.9 8.6 1.25-.55 3.15 3.05 1.1 1.1-1.1-1.1 1.15 1.1h-.05l-.35.4.1.1q2.1 2.05 2.3 4.55l.05.6q0 1.65-.8 3.1l-.25.45-1.4 1.7.1.1-.3.3-3.25.9v4.7l-3.25.7-3.15.9.65 1.6L12.5-37q1.7-.6 3-.6 1.55 0 2.15.6.8.8.8 2 0 1.1-.75 1.85-1.05 1.05-4.1 1.25l-1.25.05.35 1.5 1.5-.05-.05 2.75-1.5 1.25v5.75H8.1v1.55h6.6q.7 0 1.15.4.55.55.55 1.65 0 1.05-.55 1.6-.45.45-1.15.45H8.1v1.5h-17l-3.25-3.25v-1.7l.45-.4q.75-.6 1.35-1.55l-1.25-1-.7.95.4-10.95 1.75-12.8.4.35.75-.7-1-1.1q-1.5-1.9-1.5-4.15l.05-1q.35-2.3 2.45-4.25l-.75-.75.5-3.95.65.3 3.85-8.6 3.85 8.6L.35-60m10.5 16.4.75-1.55v-1.35h-1.55v1.45h.55l-.55 1.45h.8m3.65-2.9H13v1.45h.55L13-43.6h.75l.75-1.55v-1.35"
         fill="#fff"
         fill-rule="evenodd"
         transform="translate(21.55 71)"
         id="path1" /><path
         d="m.35-60-1.25.55-3.85-8.6-3.85 8.6-.65-.3-.55-.25 5.05-11 5.1 11m-10.1 4.2.75.75q-2.1 1.95-2.45 4.25l-.05 1q0 2.25 1.5 4.15l1 1.1-.75.7-.4-.35-.6-.7q-1.8-2.2-1.8-4.9l.05-1q.35-2.8 2.75-5m-2.55 35.35.7-.95 1.25 1q-.6.95-1.35 1.55l-.45.4q-.55.35-1.25.45h-.35q-.95 0-2.65-1.1l-1.9-.65q-.9 0-1.3.55l-.6.95-1.35-.75 1.2-1.65q.8-.8 1.95-.8 1.1 0 2.25.8 1.65.85 2.55.85.65 0 1.3-.65M8.1-13.5V-15h6.6q.7 0 1.15-.45.55-.55.55-1.6 0-1.1-.55-1.65-.45-.4-1.15-.4H8.1v-1.55h6.65q1.25 0 2.05.8.9.9.9 2.8 0 1.85-.9 2.75-.8.8-2.05.8H8.1m6.1-16.9-1.5.05-.35-1.5 1.25-.05q3.05-.2 4.1-1.25.75-.75.75-1.85 0-1.2-.8-2-.6-.6-2.15-.6-1.3 0-3 .6l-3.35 1.25-.65-1.6 3.15-.9 3.25-.7.75-.05q2.2 0 3.25 1.05Q20-36.9 20-35.1q0 1.85-1 2.85l-.4.35q-1.6 1.2-4.4 1.5m4.25-14.45-.1-.1 1.4-1.7.25-.45q.8-1.45.8-3.1l-.05-.6q-.2-2.5-2.3-4.55l-.1-.1.35-.4h.05l.3-.35q2.55 2.35 2.75 5.4l.05.6q0 1.9-.9 3.55-.7 1.25-1.9 2.4l-.6-.6m-4-15.15-1.25.55-3.9-8.6-3.85 8.6-1.2-.55L9.3-71l5.15 11m.05 13.5v1.35l-.75 1.55H13l.55-1.45H13v-1.45h1.5m-3.65 2.9h-.8l.55-1.45h-.55v-1.45h1.55v1.35l-.75 1.55"
         fill-rule="evenodd"
         transform="translate(21.55 71)"
         id="path2" /><path
         d="M4.25-60H.35m12.3 39.35v-5.75m6.05-29.45-1.1-1.1"
         fill="none"
         stroke="#000"
         stroke-linecap="round"
         stroke-linejoin="round"
         transform="translate(21.55 71)"
         id="path3" /></g><g
       id="shape0"
       transform="matrix(1.0, 0.0, 0.0, 1.0, 18.75, 65.95)"><path
         d="M18.75 -43.05 L11.2 -42.0 10.0 -44.25 18.75 -43.05 10.0 -44.25 Q10.9 -45.4 12.4 -46.55 L18.75 -43.05"
         fill="#ffcc33"
         fill-rule="evenodd"
         stroke="none"
         id="path2-6" /><path
         d="M10.0 -44.25 L11.2 -42.0 18.75 -43.05 10.0 -44.25 Q10.9 -45.4 12.4 -46.55 L18.75 -43.05"
         fill="none"
         stroke="#4f1d17"
         stroke-linecap="round"
         stroke-linejoin="round"
         stroke-width="1.0"
         id="path3-0" /><path
         d="M9.0 -12.25 L9.05 -12.45 9.1 -12.5 Q10.65 -16.6 11.55 -26.95 L12.0 -33.45 12.45 -34.75 12.6 -34.6 12.8 -34.4 12.8 -34.25 12.9 -34.25 Q12.65 -33.4 13.15 -32.55 L13.15 -32.25 13.25 -31.3 Q12.65 -30.4 13.1 -29.15 L13.45 -27.95 13.45 -27.85 13.35 -27.25 13.35 -27.05 13.35 -26.95 Q13.3 -25.6 13.6 -24.25 L13.65 -22.85 Q13.6 -22.6 13.7 -22.4 L13.35 -19.4 Q13.35 -19.15 13.5 -19.0 L13.7 -18.8 Q13.4 -18.45 13.5 -17.85 13.55 -17.5 13.9 -17.4 L14.6 -17.35 15.25 -17.15 15.35 -16.9 Q15.55 -16.15 15.95 -15.55 16.3 -14.0 16.1 -12.45 L11.55 -12.6 10.45 -13.05 Q10.65 -12.65 10.0 -12.25 L9.45 -12.35 9.35 -12.45 9.0 -12.3 9.0 -12.25 M13.35 -39.7 L13.3 -39.5 13.2 -39.65 13.35 -39.7"
         fill="#ffffff"
         fill-rule="evenodd"
         stroke="none"
         id="path4" /><path
         d="M9.0 -12.25 L8.95 -12.25 8.5 -12.1 8.45 -12.05 8.2 -12.0 Q8.05 -10.95 7.0 -10.8 L4.2 -10.7 Q3.0 -10.35 2.2 -10.7 -1.9 -10.6 -5.9 -10.8 L-6.45 -10.85 -8.35 -10.95 -8.7 -11.05 -9.85 -11.0 -9.7 -11.25 -9.4 -11.7 -9.4 -11.75 -9.45 -11.8 -9.5 -11.8 -9.65 -11.7 -9.75 -11.7 -9.75 -11.6 -10.2 -11.1 -10.25 -11.0 Q-10.4 -11.35 -10.8 -11.4 L-11.95 -11.45 Q-13.85 -13.0 -15.2 -15.0 L-15.2 -16.2 Q-15.55 -16.35 -15.9 -16.65 L-16.35 -17.5 Q-16.45 -20.25 -16.0 -22.85 L-16.25 -23.1 -16.4 -23.45 Q-16.6 -24.3 -16.25 -24.95 L-16.15 -25.05 -16.45 -27.05 -17.1 -30.15 Q-17.95 -33.25 -18.15 -36.35 L-18.05 -36.9 Q-17.95 -38.0 -18.2 -38.75 L-18.2 -39.65 -18.05 -40.35 -17.7 -43.4 Q-17.55 -45.0 -18.35 -45.85 L-18.75 -46.75 Q-18.6 -48.0 -18.0 -48.95 L-18.05 -49.3 Q-18.15 -52.05 -16.8 -54.5 L-16.3 -55.35 -16.3 -56.05 -16.1 -56.3 -11.35 -62.65 -10.95 -62.85 -10.0 -62.45 Q-5.65 -65.65 0.75 -65.25 4.35 -65.4 7.65 -63.55 12.6 -60.8 13.7 -55.9 L13.6 -55.55 Q14.25 -52.45 14.2 -49.2 L14.3 -48.8 Q15.0 -45.1 14.0 -41.5 13.65 -40.5 12.95 -39.95 L12.8 -39.9 12.7 -39.85 12.5 -39.9 12.45 -39.85 12.4 -39.8 11.75 -39.7 11.65 -39.7 11.6 -39.7 11.5 -39.7 11.2 -39.65 11.65 -38.65 11.7 -37.0 11.55 -35.5 12.05 -35.0 12.15 -34.85 12.2 -34.85 12.45 -34.75 12.0 -33.45 11.55 -26.95 Q10.65 -16.6 9.1 -12.5 L9.05 -12.45 9.0 -12.25 M12.8 -34.4 L12.9 -34.25 12.8 -34.25 12.8 -34.4 M7.7 -21.1 L7.65 -21.25 7.55 -21.15 7.7 -21.05 7.7 -21.1"
         fill="#0033cc"
         fill-rule="evenodd"
         stroke="none"
         id="path5" /><path
         d="M9.45 -12.35 L9.0 -12.3 9.0 -12.25 8.55 -11.55 M12.8 -34.4 L12.8 -34.25"
         fill="none"
         stroke="#b0b0b0"
         stroke-linecap="round"
         stroke-linejoin="round"
         stroke-width="0.05"
         id="path6" /><path
         d="M13.0 -17.25 L13.6 -17.15 13.8 -17.15 14.35 -17.05 15.4 -16.55 15.8 -15.65 15.95 -15.3 Q15.7 -14.85 16.0 -14.15 L16.0 -13.7 15.85 -13.15 15.8 -13.1 15.1 -12.85 Q15.35 -12.25 14.5 -11.7 L13.8 -11.35 13.2 -11.2 11.7 -11.25 10.1 -11.25 10.05 -11.25 8.9 -11.35 9.0 -11.5 9.9 -11.45 9.85 -11.6 9.45 -11.6 9.3 -11.6 9.25 -11.6 9.25 -12.65 10.0 -13.35 11.65 -15.2 12.25 -15.2 12.25 -15.9 Q12.95 -16.65 13.0 -17.25"
         fill="#ffcc33"
         fill-rule="evenodd"
         stroke="none"
         id="path7" /><path
         d="M13.0 -17.9 L13.45 -17.9 Q14.7 -17.95 15.5 -17.1 16.4 -16.25 16.4 -14.3 16.4 -12.45 15.5 -11.55 14.7 -10.75 13.45 -10.75 L6.85 -10.75 6.85 -12.25 13.4 -12.25 14.25 -12.5 14.55 -12.7 Q15.1 -13.25 15.1 -14.3 15.1 -15.45 14.55 -15.95 L14.45 -16.05 13.4 -16.35 13.0 -16.35 13.0 -17.9"
         fill="#4f1d17"
         fill-rule="evenodd"
         stroke="none"
         id="path8" /><path
         d="M13.7 -55.9 L12.85 -57.7 Q10.8 -61.3 9.3 -62.45 7.65 -63.8 5.7 -64.55 3.75 -65.25 1.7 -65.4 L-2.35 -65.35 -6.2 -64.6 Q-8.1 -64.1 -9.7 -63.05 -11.5 -62.0 -12.95 -60.55 -14.4 -59.15 -15.45 -57.4 -16.55 -55.7 -17.15 -53.85 L-18.05 -50.15 Q-18.3 -48.4 -18.15 -45.6 M2.55 -39.65 Q1.1 -22.65 6.05 -20.75 11.25 -19.15 11.7 -38.8 L11.75 -39.35"
         fill="none"
         stroke="#4f1d17"
         stroke-linecap="round"
         stroke-linejoin="round"
         stroke-width="1.0"
         id="path9" /><path
         d="M-18.15 -45.6 Q-18.25 -34.1 -16.25 -22.65 -16.45 -11.0 -9.15 -11.3 M11.7 -38.8 L12.35 -34.95 13.1 -26.35 13.4 -22.8 Q14.0 -16.2 10.8 -14.2"
         fill="none"
         stroke="#4f1d17"
         stroke-linecap="round"
         stroke-linejoin="round"
         stroke-width="1.0"
         id="path10" /></g><g
       id="sprite0"
       transform="matrix(1.0, 0.0, 0.0, 1.0, 0.5, 0.5)"><use
         height="8.7"
         transform="matrix(1.0, 0.0, 0.0, 1.0, -0.5, -0.5)"
         width="5.0"
         xlink:href="#shape1"
         id="use10" /></g><g
       id="shape1"
       transform="matrix(1.0, 0.0, 0.0, 1.0, 0.5, 0.5)"><path
         d="M0.6 6.6 Q1.15 7.7 2.0 7.7 2.85 7.7 3.4 6.6 4.0 5.45 4.0 3.85 4.0 2.25 3.4 1.15 2.85 0.0 2.0 0.0 1.15 0.0 0.6 1.15 0.0 2.25 0.0 3.85 0.0 5.45 0.6 6.6"
         fill="#ffffff"
         fill-rule="evenodd"
         stroke="none"
         id="path11" /><path
         d="M0.6 6.6 Q1.15 7.7 2.0 7.7 2.85 7.7 3.4 6.6 4.0 5.45 4.0 3.85 4.0 2.25 3.4 1.15 2.85 0.0 2.0 0.0 1.15 0.0 0.6 1.15 0.0 2.25 0.0 3.85 0.0 5.45 0.6 6.6 Z"
         fill="none"
         stroke="#000000"
         stroke-linecap="round"
         stroke-linejoin="round"
         stroke-width="1.0"
         id="path12" /><path
         d="M2.85 2.25 Q2.45 1.55 1.95 1.55 1.5 1.55 1.1 2.25 0.75 2.95 0.75 3.9 0.75 4.85 1.1 5.5 1.5 6.2 1.95 6.2 2.45 6.2 2.85 5.5 L3.2 3.9 Q3.2 2.95 2.85 2.25"
         fill="#000000"
         fill-rule="evenodd"
         stroke="none"
         id="path13" /><path
         d="M2.85 2.25 Q2.45 1.55 1.95 1.55 1.5 1.55 1.1 2.25 0.75 2.95 0.75 3.9 0.75 4.85 1.1 5.5 1.5 6.2 1.95 6.2 2.45 6.2 2.85 5.5 L3.2 3.9 Q3.2 2.95 2.85 2.25 Z"
         fill="none"
         stroke="#000000"
         stroke-linecap="round"
         stroke-linejoin="round"
         stroke-width="1.0"
         id="path14" /></g></defs><g
     transform="matrix(2.0767494,0,0,2.0767494,76.060791,150.85779)"
     id="g2"><use
       height="55.400002"
       transform="translate(-18.75,-65.95)"
       width="38"
       xlink:href="#shape0"
       id="use1" /><use
       height="8.6999998"
       transform="matrix(1,0,0,1.0009,9.55,-54.6505)"
       width="5.5"
       xlink:href="#sprite0"
       id="use2" /></g></svg>
