<?xml version="1.0" encoding="UTF-8" standalone="no"?>
<svg
   height="182"
   width="160"
   version="1.1"
   id="svg4"
   sodipodi:docname="front-sitting.svg"
   xml:space="preserve"
   inkscape:version="1.4.2 (ebf0e94, 2025-05-08)"
   xmlns:inkscape="http://www.inkscape.org/namespaces/inkscape"
   xmlns:sodipodi="http://sodipodi.sourceforge.net/DTD/sodipodi-0.dtd"
   xmlns:xlink="http://www.w3.org/1999/xlink"
   xmlns="http://www.w3.org/2000/svg"
   xmlns:svg="http://www.w3.org/2000/svg"><sodipodi:namedview
     id="namedview4"
     pagecolor="#ffffff"
     bordercolor="#000000"
     borderopacity="0.25"
     inkscape:showpageshadow="2"
     inkscape:pageopacity="0.0"
     inkscape:pagecheckerboard="0"
     inkscape:deskcolor="#d1d1d1"
     inkscape:zoom="4.4230769"
     inkscape:cx="80.034783"
     inkscape:cy="91"
     inkscape:window-width="1920"
     inkscape:window-height="1052"
     inkscape:window-x="1920"
     inkscape:window-y="0"
     inkscape:window-maximized="1"
     inkscape:current-layer="svg4" /><defs
     id="defs3"><path
       d="M1.35 0h.2l.55.1.45.35q.45.45.45 1L2.55 2.6q-.45.4-1 .4l-.8-.2-.25-.2-.45-.7v-.15L0 1.45v-.1q.05-.5.5-.9l.25-.2Q1 .05 1.3 0h.05m.45.85L1.55.8Q1.2.75 1 1q-.2.15-.2.45v.15l.15.45H1l.05.05.2.1.3.05.55-.2.15-.6-.05-.3L2.1 1 2.05.95 1.9.85h-.1"
       fill-rule="evenodd"
       id="a" /><use
       height="3"
       transform="translate(.8)"
       width="3"
       xlink:href="#a"
       id="c" /><g
       id="b"><path
         d="M.35-60h3.9l1.2.55 3.85-8.6 3.9 8.6 1.25-.55 3.15 3.05 1.1 1.1-1.1-1.1 1.15 1.1h-.05l-.35.4.1.1q2.1 2.05 2.3 4.55l.05.6q0 1.65-.8 3.1l-.25.45-1.4 1.7.1.1-.3.3-3.25.9v4.7l-3.25.7-3.15.9.65 1.6L12.5-37q1.7-.6 3-.6 1.55 0 2.15.6.8.8.8 2 0 1.1-.75 1.85-1.05 1.05-4.1 1.25l-1.25.05.35 1.5 1.5-.05-.05 2.75-1.5 1.25v5.75H8.1v1.55h6.6q.7 0 1.15.4.55.55.55 1.65 0 1.05-.55 1.6-.45.45-1.15.45H8.1v1.5h-17l-3.25-3.25v-1.7l.45-.4q.75-.6 1.35-1.55l-1.25-1-.7.95.4-10.95 1.75-12.8.4.35.75-.7-1-1.1q-1.5-1.9-1.5-4.15l.05-1q.35-2.3 2.45-4.25l-.75-.75.5-3.95.65.3 3.85-8.6 3.85 8.6L.35-60m10.5 16.4.75-1.55v-1.35h-1.55v1.45h.55l-.55 1.45h.8m3.65-2.9H13v1.45h.55L13-43.6h.75l.75-1.55v-1.35"
         fill="#fff"
         fill-rule="evenodd"
         transform="translate(21.55 71)"
         id="path1" /><path
         d="m.35-60-1.25.55-3.85-8.6-3.85 8.6-.65-.3-.55-.25 5.05-11 5.1 11m-10.1 4.2.75.75q-2.1 1.95-2.45 4.25l-.05 1q0 2.25 1.5 4.15l1 1.1-.75.7-.4-.35-.6-.7q-1.8-2.2-1.8-4.9l.05-1q.35-2.8 2.75-5m-2.55 35.35.7-.95 1.25 1q-.6.95-1.35 1.55l-.45.4q-.55.35-1.25.45h-.35q-.95 0-2.65-1.1l-1.9-.65q-.9 0-1.3.55l-.6.95-1.35-.75 1.2-1.65q.8-.8 1.95-.8 1.1 0 2.25.8 1.65.85 2.55.85.65 0 1.3-.65M8.1-13.5V-15h6.6q.7 0 1.15-.45.55-.55.55-1.6 0-1.1-.55-1.65-.45-.4-1.15-.4H8.1v-1.55h6.65q1.25 0 2.05.8.9.9.9 2.8 0 1.85-.9 2.75-.8.8-2.05.8H8.1m6.1-16.9-1.5.05-.35-1.5 1.25-.05q3.05-.2 4.1-1.25.75-.75.75-1.85 0-1.2-.8-2-.6-.6-2.15-.6-1.3 0-3 .6l-3.35 1.25-.65-1.6 3.15-.9 3.25-.7.75-.05q2.2 0 3.25 1.05Q20-36.9 20-35.1q0 1.85-1 2.85l-.4.35q-1.6 1.2-4.4 1.5m4.25-14.45-.1-.1 1.4-1.7.25-.45q.8-1.45.8-3.1l-.05-.6q-.2-2.5-2.3-4.55l-.1-.1.35-.4h.05l.3-.35q2.55 2.35 2.75 5.4l.05.6q0 1.9-.9 3.55-.7 1.25-1.9 2.4l-.6-.6m-4-15.15-1.25.55-3.9-8.6-3.85 8.6-1.2-.55L9.3-71l5.15 11m.05 13.5v1.35l-.75 1.55H13l.55-1.45H13v-1.45h1.5m-3.65 2.9h-.8l.55-1.45h-.55v-1.45h1.55v1.35l-.75 1.55"
         fill-rule="evenodd"
         transform="translate(21.55 71)"
         id="path2" /><path
         d="M4.25-60H.35m12.3 39.35v-5.75m6.05-29.45-1.1-1.1"
         fill="none"
         stroke="#000"
         stroke-linecap="round"
         stroke-linejoin="round"
         transform="translate(21.55 71)"
         id="path3" /></g><g
       id="shape0"
       transform="matrix(1.0, 0.0, 0.0, 1.0, 18.75, 65.95)"><path
         d="M18.75 -43.05 L11.2 -42.0 10.0 -44.25 18.75 -43.05 10.0 -44.25 Q10.9 -45.4 12.4 -46.55 L18.75 -43.05"
         fill="#ffcc33"
         fill-rule="evenodd"
         stroke="none"
         id="path2-6" /><path
         d="M10.0 -44.25 L11.2 -42.0 18.75 -43.05 10.0 -44.25 Q10.9 -45.4 12.4 -46.55 L18.75 -43.05"
         fill="none"
         stroke="#4f1d17"
         stroke-linecap="round"
         stroke-linejoin="round"
         stroke-width="1.0"
         id="path3-0" /><path
         d="M9.0 -12.25 L9.05 -12.45 9.1 -12.5 Q10.65 -16.6 11.55 -26.95 L12.0 -33.45 12.45 -34.75 12.6 -34.6 12.8 -34.4 12.8 -34.25 12.9 -34.25 Q12.65 -33.4 13.15 -32.55 L13.15 -32.25 13.25 -31.3 Q12.65 -30.4 13.1 -29.15 L13.45 -27.95 13.45 -27.85 13.35 -27.25 13.35 -27.05 13.35 -26.95 Q13.3 -25.6 13.6 -24.25 L13.65 -22.85 Q13.6 -22.6 13.7 -22.4 L13.35 -19.4 Q13.35 -19.15 13.5 -19.0 L13.7 -18.8 Q13.4 -18.45 13.5 -17.85 13.55 -17.5 13.9 -17.4 L14.6 -17.35 15.25 -17.15 15.35 -16.9 Q15.55 -16.15 15.95 -15.55 16.3 -14.0 16.1 -12.45 L11.55 -12.6 10.45 -13.05 Q10.65 -12.65 10.0 -12.25 L9.45 -12.35 9.35 -12.45 9.0 -12.3 9.0 -12.25 M13.35 -39.7 L13.3 -39.5 13.2 -39.65 13.35 -39.7"
         fill="#ffffff"
         fill-rule="evenodd"
         stroke="none"
         id="path4" /><path
         d="M9.0 -12.25 L8.95 -12.25 8.5 -12.1 8.45 -12.05 8.2 -12.0 Q8.05 -10.95 7.0 -10.8 L4.2 -10.7 Q3.0 -10.35 2.2 -10.7 -1.9 -10.6 -5.9 -10.8 L-6.45 -10.85 -8.35 -10.95 -8.7 -11.05 -9.85 -11.0 -9.7 -11.25 -9.4 -11.7 -9.4 -11.75 -9.45 -11.8 -9.5 -11.8 -9.65 -11.7 -9.75 -11.7 -9.75 -11.6 -10.2 -11.1 -10.25 -11.0 Q-10.4 -11.35 -10.8 -11.4 L-11.95 -11.45 Q-13.85 -13.0 -15.2 -15.0 L-15.2 -16.2 Q-15.55 -16.35 -15.9 -16.65 L-16.35 -17.5 Q-16.45 -20.25 -16.0 -22.85 L-16.25 -23.1 -16.4 -23.45 Q-16.6 -24.3 -16.25 -24.95 L-16.15 -25.05 -16.45 -27.05 -17.1 -30.15 Q-17.95 -33.25 -18.15 -36.35 L-18.05 -36.9 Q-17.95 -38.0 -18.2 -38.75 L-18.2 -39.65 -18.05 -40.35 -17.7 -43.4 Q-17.55 -45.0 -18.35 -45.85 L-18.75 -46.75 Q-18.6 -48.0 -18.0 -48.95 L-18.05 -49.3 Q-18.15 -52.05 -16.8 -54.5 L-16.3 -55.35 -16.3 -56.05 -16.1 -56.3 -11.35 -62.65 -10.95 -62.85 -10.0 -62.45 Q-5.65 -65.65 0.75 -65.25 4.35 -65.4 7.65 -63.55 12.6 -60.8 13.7 -55.9 L13.6 -55.55 Q14.25 -52.45 14.2 -49.2 L14.3 -48.8 Q15.0 -45.1 14.0 -41.5 13.65 -40.5 12.95 -39.95 L12.8 -39.9 12.7 -39.85 12.5 -39.9 12.45 -39.85 12.4 -39.8 11.75 -39.7 11.65 -39.7 11.6 -39.7 11.5 -39.7 11.2 -39.65 11.65 -38.65 11.7 -37.0 11.55 -35.5 12.05 -35.0 12.15 -34.85 12.2 -34.85 12.45 -34.75 12.0 -33.45 11.55 -26.95 Q10.65 -16.6 9.1 -12.5 L9.05 -12.45 9.0 -12.25 M12.8 -34.4 L12.9 -34.25 12.8 -34.25 12.8 -34.4 M7.7 -21.1 L7.65 -21.25 7.55 -21.15 7.7 -21.05 7.7 -21.1"
         fill="#0033cc"
         fill-rule="evenodd"
         stroke="none"
         id="path5" /><path
         d="M9.45 -12.35 L9.0 -12.3 9.0 -12.25 8.55 -11.55 M12.8 -34.4 L12.8 -34.25"
         fill="none"
         stroke="#b0b0b0"
         stroke-linecap="round"
         stroke-linejoin="round"
         stroke-width="0.05"
         id="path6" /><path
         d="M13.0 -17.25 L13.6 -17.15 13.8 -17.15 14.35 -17.05 15.4 -16.55 15.8 -15.65 15.95 -15.3 Q15.7 -14.85 16.0 -14.15 L16.0 -13.7 15.85 -13.15 15.8 -13.1 15.1 -12.85 Q15.35 -12.25 14.5 -11.7 L13.8 -11.35 13.2 -11.2 11.7 -11.25 10.1 -11.25 10.05 -11.25 8.9 -11.35 9.0 -11.5 9.9 -11.45 9.85 -11.6 9.45 -11.6 9.3 -11.6 9.25 -11.6 9.25 -12.65 10.0 -13.35 11.65 -15.2 12.25 -15.2 12.25 -15.9 Q12.95 -16.65 13.0 -17.25"
         fill="#ffcc33"
         fill-rule="evenodd"
         stroke="none"
         id="path7" /><path
         d="M13.0 -17.9 L13.45 -17.9 Q14.7 -17.95 15.5 -17.1 16.4 -16.25 16.4 -14.3 16.4 -12.45 15.5 -11.55 14.7 -10.75 13.45 -10.75 L6.85 -10.75 6.85 -12.25 13.4 -12.25 14.25 -12.5 14.55 -12.7 Q15.1 -13.25 15.1 -14.3 15.1 -15.45 14.55 -15.95 L14.45 -16.05 13.4 -16.35 13.0 -16.35 13.0 -17.9"
         fill="#4f1d17"
         fill-rule="evenodd"
         stroke="none"
         id="path8" /><path
         d="M13.7 -55.9 L12.85 -57.7 Q10.8 -61.3 9.3 -62.45 7.65 -63.8 5.7 -64.55 3.75 -65.25 1.7 -65.4 L-2.35 -65.35 -6.2 -64.6 Q-8.1 -64.1 -9.7 -63.05 -11.5 -62.0 -12.95 -60.55 -14.4 -59.15 -15.45 -57.4 -16.55 -55.7 -17.15 -53.85 L-18.05 -50.15 Q-18.3 -48.4 -18.15 -45.6 M2.55 -39.65 Q1.1 -22.65 6.05 -20.75 11.25 -19.15 11.7 -38.8 L11.75 -39.35"
         fill="none"
         stroke="#4f1d17"
         stroke-linecap="round"
         stroke-linejoin="round"
         stroke-width="1.0"
         id="path9" /><path
         d="M-18.15 -45.6 Q-18.25 -34.1 -16.25 -22.65 -16.45 -11.0 -9.15 -11.3 M11.7 -38.8 L12.35 -34.95 13.1 -26.35 13.4 -22.8 Q14.0 -16.2 10.8 -14.2"
         fill="none"
         stroke="#4f1d17"
         stroke-linecap="round"
         stroke-linejoin="round"
         stroke-width="1.0"
         id="path10" /></g><g
       id="sprite0"
       transform="matrix(1.0, 0.0, 0.0, 1.0, 0.5, 0.5)"><use
         height="8.7"
         transform="matrix(1.0, 0.0, 0.0, 1.0, -0.5, -0.5)"
         width="5.0"
         xlink:href="#shape1"
         id="use10" /></g><g
       id="shape1"
       transform="matrix(1.0, 0.0, 0.0, 1.0, 0.5, 0.5)"><path
         d="M0.6 6.6 Q1.15 7.7 2.0 7.7 2.85 7.7 3.4 6.6 4.0 5.45 4.0 3.85 4.0 2.25 3.4 1.15 2.85 0.0 2.0 0.0 1.15 0.0 0.6 1.15 0.0 2.25 0.0 3.85 0.0 5.45 0.6 6.6"
         fill="#ffffff"
         fill-rule="evenodd"
         stroke="none"
         id="path11" /><path
         d="M0.6 6.6 Q1.15 7.7 2.0 7.7 2.85 7.7 3.4 6.6 4.0 5.45 4.0 3.85 4.0 2.25 3.4 1.15 2.85 0.0 2.0 0.0 1.15 0.0 0.6 1.15 0.0 2.25 0.0 3.85 0.0 5.45 0.6 6.6 Z"
         fill="none"
         stroke="#000000"
         stroke-linecap="round"
         stroke-linejoin="round"
         stroke-width="1.0"
         id="path12" /><path
         d="M2.85 2.25 Q2.45 1.55 1.95 1.55 1.5 1.55 1.1 2.25 0.75 2.95 0.75 3.9 0.75 4.85 1.1 5.5 1.5 6.2 1.95 6.2 2.45 6.2 2.85 5.5 L3.2 3.9 Q3.2 2.95 2.85 2.25"
         fill="#000000"
         fill-rule="evenodd"
         stroke="none"
         id="path13" /><path
         d="M2.85 2.25 Q2.45 1.55 1.95 1.55 1.5 1.55 1.1 2.25 0.75 2.95 0.75 3.9 0.75 4.85 1.1 5.5 1.5 6.2 1.95 6.2 2.45 6.2 2.85 5.5 L3.2 3.9 Q3.2 2.95 2.85 2.25 Z"
         fill="none"
         stroke="#000000"
         stroke-linecap="round"
         stroke-linejoin="round"
         stroke-width="1.0"
         id="path14" /></g><g
       id="shape0-9"
       transform="matrix(1.0, 0.0, 0.0, 1.0, 19.35, 66.0)"><path
         d="M13.3 -14.15 L13.15 -13.9 12.9 -13.6 12.8 -13.55 12.45 -13.2 12.35 -13.1 12.15 -12.85 Q12.7 -12.6 12.15 -12.05 L11.65 -11.75 10.95 -11.65 10.55 -11.2 10.4 -11.05 10.25 -11.15 Q8.05 -10.5 5.75 -10.6 L5.15 -10.5 3.25 -10.65 3.15 -10.6 3.15 -10.65 -0.1 -10.6 -1.95 -10.6 -4.15 -10.75 -4.2 -10.75 -7.05 -11.05 -7.1 -11.05 -7.5 -11.05 -7.35 -11.3 -7.05 -11.75 -7.05 -11.8 -7.1 -11.85 -7.15 -11.85 -7.3 -11.75 -7.4 -11.75 -7.4 -11.65 -7.85 -11.15 -7.9 -11.05 -8.45 -11.45 -9.65 -11.5 Q-11.55 -13.05 -12.9 -15.05 L-12.9 -16.4 Q-12.75 -19.2 -13.75 -21.3 -13.55 -21.4 -13.6 -21.65 L-13.6 -21.7 Q-13.2 -22.1 -13.95 -22.45 L-14.1 -22.4 -14.8 -22.4 -15.9 -22.5 -17.2 -22.95 -17.25 -22.9 -17.9 -24.75 -18.3 -26.4 Q-18.7 -29.5 -18.6 -32.65 -18.5 -35.55 -16.9 -37.15 L-16.35 -40.75 -16.3 -40.9 -16.35 -42.25 Q-15.95 -42.15 -15.8 -42.9 -15.65 -43.65 -16.05 -44.0 -15.95 -44.45 -16.0 -45.0 L-16.0 -45.15 -16.0 -45.85 -16.25 -46.55 -16.2 -46.6 Q-15.4 -47.1 -16.3 -47.5 L-15.7 -49.0 -15.7 -49.35 Q-15.8 -52.1 -14.5 -54.55 L-14.0 -55.4 -13.95 -56.1 -13.8 -56.35 Q-11.2 -59.5 -9.0 -62.7 L-8.6 -62.9 -7.65 -62.5 Q-3.3 -65.7 3.1 -65.3 6.75 -65.45 10.0 -63.6 16.05 -60.25 16.3 -53.8 L16.3 -53.35 16.25 -52.65 Q16.1 -51.25 16.1 -49.85 16.1 -47.3 15.4 -44.9 L15.45 -43.9 15.65 -40.8 15.7 -40.75 16.45 -38.85 17.85 -34.05 Q18.45 -32.15 18.45 -30.35 L18.6 -29.65 Q18.9 -28.05 18.7 -26.65 L17.2 -25.7 17.15 -25.7 16.85 -25.8 16.7 -25.7 16.65 -25.75 15.4 -24.95 Q15.4 -33.5 14.15 -38.8 L14.35 -38.9 Q14.7 -39.2 14.45 -39.55 L14.1 -39.8 13.8 -39.75 13.15 -39.75 10.35 -40.0 Q5.0 -40.65 -4.1 -39.0 L-4.35 -38.85 -4.5 -38.55 Q-6.35 -25.9 -5.5 -18.75 -5.05 -14.9 -2.5 -13.4 -0.1 -11.85 4.35 -12.6 L4.55 -12.55 4.65 -12.55 Q8.35 -12.4 10.7 -13.25 L10.65 -13.25 13.3 -14.15 M15.4 -23.65 L16.05 -23.05 15.5 -20.9 15.5 -22.15 15.4 -22.9 15.4 -23.65 M15.7 -20.05 L15.8 -20.05 15.7 -19.75 15.7 -20.05 M9.4 -12.0 L9.65 -12.05 9.3 -12.05 9.35 -11.95 9.4 -12.0 M1.5 -11.65 L1.3 -11.8 1.1 -11.65 1.5 -11.65 M10.6 -12.05 L10.55 -12.05 10.6 -12.0 10.6 -12.05 M10.2 -12.05 L10.3 -12.05 10.15 -12.05 10.2 -12.05"
         fill="#0033cc"
         fill-rule="evenodd"
         stroke="none"
         id="path3-4" /><path
         d="M13.3 -14.15 L10.65 -13.25 10.7 -13.25 Q8.35 -12.4 4.65 -12.55 L4.55 -12.55 4.35 -12.6 Q-0.1 -11.85 -2.5 -13.4 -5.05 -14.9 -5.5 -18.75 -6.35 -25.9 -4.5 -38.55 L-4.35 -38.85 -4.1 -39.0 Q5.0 -40.65 10.35 -40.0 L13.15 -39.75 13.8 -39.75 14.1 -39.8 14.45 -39.55 Q14.7 -39.2 14.35 -38.9 L14.15 -38.8 Q15.4 -33.5 15.4 -24.95 14.85 -24.35 15.4 -23.65 L15.4 -22.9 15.5 -22.15 15.5 -20.9 15.7 -20.3 15.7 -20.05 15.7 -19.75 15.4 -18.4 15.7 -18.65 14.85 -16.75 14.9 -16.75 15.25 -16.75 15.55 -16.45 15.5 -16.1 Q15.15 -15.25 14.1 -14.55 L14.05 -14.55 13.3 -14.15"
         fill="#ffffff"
         fill-rule="evenodd"
         stroke="none"
         id="path4-3" /><path
         d="M15.85 -56.15 Q15.45 -58.05 14.3 -59.7 13.15 -61.35 11.65 -62.5 10.0 -63.85 8.05 -64.6 6.1 -65.3 4.05 -65.45 2.0 -65.6 0.0 -65.4 L-3.85 -64.65 Q-5.75 -64.15 -7.35 -63.1 -9.15 -62.05 -10.6 -60.6 -12.05 -59.2 -13.15 -57.45 -14.25 -55.75 -14.85 -53.9 L-15.7 -50.2 Q-16.0 -48.4 -15.85 -45.4 M15.7 -41.7 L19.05 -29.45 19.05 -29.1 19.05 -28.4 18.7 -27.2 Q17.75 -25.55 15.85 -25.3 M-15.45 -44.2 L-16.35 -41.25 Q-17.55 -37.45 -18.6 -30.6 -19.75 -23.9 -16.0 -22.9 L-15.85 -22.85 -13.15 -22.9 Q-8.3 -24.5 -6.05 -37.3"
         fill="none"
         stroke="#4f1d17"
         stroke-linecap="round"
         stroke-linejoin="round"
         stroke-width="1.0"
         id="path5-5" /><path
         d="M14.25 -39.0 L14.75 -35.05 15.5 -26.35 15.8 -22.85 Q16.4 -16.25 13.15 -14.25 M-13.15 -22.9 Q-14.2 -11.05 -6.8 -11.35"
         fill="none"
         stroke="#4f1d17"
         stroke-linecap="round"
         stroke-linejoin="round"
         stroke-width="1.0"
         id="path6-1" /><path
         d="M16.75 -43.1 L9.2 -42.05 8.0 -44.3 16.75 -43.1 8.0 -44.3 10.4 -46.6 16.75 -43.1"
         fill="#ffcc33"
         fill-rule="evenodd"
         stroke="none"
         id="path7-7" /><path
         d="M8.0 -44.3 L9.2 -42.05 16.75 -43.1 8.0 -44.3 10.4 -46.6 16.75 -43.1"
         fill="none"
         stroke="#4f1d17"
         stroke-linecap="round"
         stroke-linejoin="round"
         stroke-width="1.0"
         id="path8-4" /><path
         d="M11.5 -16.9 L11.5 -17.15 11.6 -17.15 12.55 -17.15 13.55 -17.25 16.15 -17.2 16.7 -17.1 17.75 -16.6 18.15 -15.7 18.3 -15.35 Q18.05 -14.9 18.35 -14.2 L18.35 -13.75 18.2 -13.2 18.15 -13.15 17.45 -12.9 Q17.7 -12.3 16.85 -11.75 L16.15 -11.4 15.55 -11.25 14.05 -11.3 12.45 -11.3 12.4 -11.3 11.25 -11.4 11.35 -11.55 12.25 -11.5 12.2 -11.65 11.8 -11.65 11.65 -11.65 11.6 -11.65 11.5 -16.9"
         fill="#ffcc33"
         fill-rule="evenodd"
         stroke="none"
         id="path9-3" /><path
         d="M10.55 -17.95 L15.8 -17.95 Q17.05 -18.0 17.85 -17.15 18.75 -16.3 18.75 -14.35 18.75 -12.5 17.85 -11.6 17.05 -10.8 15.8 -10.8 L9.2 -10.8 9.2 -12.3 15.75 -12.3 16.6 -12.55 16.9 -12.75 Q17.45 -13.3 17.45 -14.35 17.45 -15.5 16.9 -16.0 L16.8 -16.1 Q16.35 -16.45 15.75 -16.4 L9.2 -16.4 9.2 -17.95 10.1 -17.95 10.55 -17.95"
         fill="#4f1d17"
         fill-rule="evenodd"
         stroke="none"
         id="path10-1" /></g><g
       id="sprite0-4"
       transform="matrix(1.0, 0.0, 0.0, 1.0, 8.6, 51.2)"><use
         height="9.9"
         transform="matrix(1.0, 0.0, 0.0, 1.0, -8.1, -51.2)"
         width="26.0"
         xlink:href="#shape1-9"
         id="use10-6" /></g><g
       id="shape1-9"
       transform="matrix(1.0, 0.0, 0.0, 1.0, 8.1, 51.2)"><path
         d="M-6.3 -43.1 Q-5.0 -41.8 -3.1 -41.8 -1.25 -41.8 0.05 -43.1 1.35 -44.4 1.35 -46.25 1.35 -48.1 0.05 -49.4 -1.25 -50.7 -3.1 -50.7 -5.0 -50.7 -6.3 -49.4 -7.6 -48.1 -7.6 -46.25 -7.6 -44.4 -6.3 -43.1"
         fill="#ffffff"
         fill-rule="evenodd"
         stroke="none"
         id="path11-4" /><path
         d="M-6.3 -43.1 Q-5.0 -41.8 -3.1 -41.8 -1.25 -41.8 0.05 -43.1 1.35 -44.4 1.35 -46.25 1.35 -48.1 0.05 -49.4 -1.25 -50.7 -3.1 -50.7 -5.0 -50.7 -6.3 -49.4 -7.6 -48.1 -7.6 -46.25 -7.6 -44.4 -6.3 -43.1 Z"
         fill="none"
         stroke="#000000"
         stroke-linecap="round"
         stroke-linejoin="round"
         stroke-width="1.0"
         id="path12-2" /><path
         d="M-1.2 -48.0 Q-2.0 -48.8 -3.1 -48.8 -4.2 -48.8 -5.0 -48.0 -5.8 -47.2 -5.8 -46.1 -5.8 -45.0 -5.0 -44.2 -4.2 -43.4 -3.1 -43.4 -2.0 -43.4 -1.2 -44.2 -0.4 -45.0 -0.4 -46.1 -0.4 -47.2 -1.2 -48.0"
         fill="#000000"
         fill-rule="evenodd"
         stroke="none"
         id="path13-2" /><path
         d="M-1.2 -48.0 Q-2.0 -48.8 -3.1 -48.8 -4.2 -48.8 -5.0 -48.0 -5.8 -47.2 -5.8 -46.1 -5.8 -45.0 -5.0 -44.2 -4.2 -43.4 -3.1 -43.4 -2.0 -43.4 -1.2 -44.2 -0.4 -45.0 -0.4 -46.1 -0.4 -47.2 -1.2 -48.0 Z"
         fill="none"
         stroke="#000000"
         stroke-linecap="round"
         stroke-linejoin="round"
         stroke-width="1.0"
         id="path14-6" /><path
         d="M14.05 -43.3 Q14.6 -42.2 15.45 -42.2 16.25 -42.2 16.85 -43.3 17.4 -44.45 17.4 -46.05 17.4 -47.65 16.85 -48.75 16.25 -49.9 15.45 -49.9 14.6 -49.9 14.05 -48.75 13.45 -47.65 13.45 -46.05 13.45 -44.45 14.05 -43.3"
         fill="#ffffff"
         fill-rule="evenodd"
         stroke="none"
         id="path15" /><path
         d="M14.05 -43.3 Q14.6 -42.2 15.45 -42.2 16.25 -42.2 16.85 -43.3 17.4 -44.45 17.4 -46.05 17.4 -47.65 16.85 -48.75 16.25 -49.9 15.45 -49.9 14.6 -49.9 14.05 -48.75 13.45 -47.65 13.45 -46.05 13.45 -44.45 14.05 -43.3 Z"
         fill="none"
         stroke="#000000"
         stroke-linecap="round"
         stroke-linejoin="round"
         stroke-width="1.0"
         id="path16" /><path
         d="M16.25 -47.65 L15.4 -48.35 Q14.9 -48.35 14.55 -47.65 14.2 -46.95 14.2 -46.0 14.2 -45.05 14.55 -44.4 14.9 -43.7 15.4 -43.7 15.9 -43.7 16.25 -44.4 16.6 -45.05 16.6 -46.0 16.6 -46.95 16.25 -47.65"
         fill="#000000"
         fill-rule="evenodd"
         stroke="none"
         id="path17" /><path
         d="M16.25 -47.65 L15.4 -48.35 Q14.9 -48.35 14.55 -47.65 14.2 -46.95 14.2 -46.0 14.2 -45.05 14.55 -44.4 14.9 -43.7 15.4 -43.7 15.9 -43.7 16.25 -44.4 16.6 -45.05 16.6 -46.0 16.6 -46.95 16.25 -47.65 Z"
         fill="none"
         stroke="#000000"
         stroke-linecap="round"
         stroke-linejoin="round"
         stroke-width="1.0"
         id="path18" /></g><g
       id="shape2"
       transform="matrix(1.0, 0.0, 0.0, 1.0, 4.5, 18.05)"><path
         d="M1.6 -17.05 L1.6 -17.0 2.55 -16.75 Q3.65 -16.3 4.25 -15.2 L4.55 -14.55 Q4.85 -13.7 4.55 -13.15 4.2 -12.55 2.95 -12.3 L2.55 -12.1 2.05 -11.9 2.05 -11.25 1.65 -11.25 -0.8 -11.25 -0.95 -11.25 -1.0 -11.25 -1.05 -11.4 -1.65 -11.4 -1.75 -11.4 -1.85 -11.4 -1.85 -11.55 -1.9 -11.55 -1.95 -11.6 -2.35 -11.9 -2.35 -12.25 -2.15 -12.1 -1.9 -12.0 -1.95 -14.75 -1.9 -14.85 -1.95 -16.9 -1.75 -16.9 -1.7 -16.9 -1.65 -16.9 -1.65 -17.05 0.25 -17.05 0.8 -17.05 1.3 -17.05 1.4 -17.05 1.55 -17.05 1.6 -17.05"
         fill="#ffcc33"
         fill-rule="evenodd"
         stroke="none"
         id="path19" /><path
         d="M-4.5 -16.5 L-4.5 -18.05 2.15 -18.05 Q3.4 -18.05 4.2 -17.25 5.1 -16.3 5.1 -14.4 5.1 -12.55 4.2 -11.65 3.4 -10.85 2.15 -10.85 L-4.5 -10.85 -4.5 -12.35 2.1 -12.35 Q2.8 -12.35 3.25 -12.8 L3.65 -13.4 3.8 -14.4 3.65 -15.4 3.25 -16.1 Q2.8 -16.5 2.1 -16.5 L-4.5 -16.5"
         fill="#4f1d17"
         fill-rule="evenodd"
         stroke="none"
         id="path20" /></g></defs><g
     transform="matrix(2.0715392,0,0,2.0715392,77.252038,150.75116)"
     id="g3"><use
       height="55.5"
       transform="translate(-19.35,-66)"
       width="38.900002"
       xlink:href="#shape0-9"
       id="use1-5" /><use
       height="9.8999996"
       transform="matrix(1,0,0,1.0009,-8.65,-55.3469)"
       width="27"
       xlink:href="#sprite0-4"
       id="use2-0" /><use
       height="7.1999998"
       transform="translate(-4.5,-18.05)"
       width="9.6000004"
       xlink:href="#shape2"
       id="use3-2" /></g></svg>
