<?xml version="1.0" encoding="UTF-8" standalone="no"?>
<svg
   height="182"
   width="160"
   version="1.1"
   id="svg4"
   sodipodi:docname="front-standing.svg"
   xml:space="preserve"
   inkscape:version="1.4.2 (ebf0e94, 2025-05-08)"
   xmlns:inkscape="http://www.inkscape.org/namespaces/inkscape"
   xmlns:sodipodi="http://sodipodi.sourceforge.net/DTD/sodipodi-0.dtd"
   xmlns:xlink="http://www.w3.org/1999/xlink"
   xmlns="http://www.w3.org/2000/svg"
   xmlns:svg="http://www.w3.org/2000/svg"><sodipodi:namedview
     id="namedview4"
     pagecolor="#ffffff"
     bordercolor="#000000"
     borderopacity="0.25"
     inkscape:showpageshadow="2"
     inkscape:pageopacity="0.0"
     inkscape:pagecheckerboard="0"
     inkscape:deskcolor="#d1d1d1"
     showgrid="false"
     inkscape:zoom="4.6318681"
     inkscape:cx="86.358245"
     inkscape:cy="81.716489"
     inkscape:window-width="1920"
     inkscape:window-height="1052"
     inkscape:window-x="1920"
     inkscape:window-y="0"
     inkscape:window-maximized="1"
     inkscape:current-layer="svg4" /><defs
     id="defs3"><path
       d="M1.35 0h.2l.55.1.45.35q.45.45.45 1L2.55 2.6q-.45.4-1 .4l-.8-.2-.25-.2-.45-.7v-.15L0 1.45v-.1q.05-.5.5-.9l.25-.2Q1 .05 1.3 0h.05m.45.85L1.55.8Q1.2.75 1 1q-.2.15-.2.45v.15l.15.45H1l.05.05.2.1.3.05.55-.2.15-.6-.05-.3L2.1 1 2.05.95 1.9.85h-.1"
       fill-rule="evenodd"
       id="a" /><use
       height="3"
       transform="translate(.8)"
       width="3"
       xlink:href="#a"
       id="c" /><g
       id="b"><path
         d="M.25-60h3.9l1.2.55 3.85-8.6 3.85 8.6L14.3-60l3.15 3.05 1.15 1.1-.4.4.1.1q2.1 2.05 2.35 4.55v.6q0 1.65-.8 3.1l-.25.45-1.4 1.7.1.1-.3.3-3.25.9v4.7l-3.25.7-3.1.9.65 1.6 3.3-1.25 3-.6q1.55 0 2.15.6.8.8.8 2 0 1.1-.75 1.85-1.05 1.05-4.05 1.25l-1.3.05.35 1.5 1.5-.05-.05 2.75-1.5 1.25v12.25l-.85 4.6h-1.5V-3q0 .7-.45 1.15-.55.55-1.6.55-1.1 0-1.65-.55-.4-.45-.4-1.15v-6.55H4.5l-2.35-3.5H.4l-3.55 3.5V-3q0 .7-.45 1.15-.55.55-1.6.55-1.1 0-1.65-.55-.4-.45-.4-1.15v-6.55H-8.8l-1.7-1.1-1.75-3.9v-3.9l.45-.4q.75-.6 1.35-1.55l-1.25-1q-.4.65-.7.95l.4-10.95 1.75-12.8.4.35.75-.7-1-1.1q-1.5-1.9-1.5-4.15l.1-1q.35-2.3 2.4-4.25l-.75-.75.5-3.95.65.3 3.85-8.6 3.85 8.6L.25-60m17.2 3.05 1.15 1.1-1.15-1.1M13.1-43.6l.75-1.55v-1.35h-1.5v1.45h.55l-.55 1.45h.75m-2.9 0 .75-1.55v-1.35h-1.5v1.45H10l-.55 1.45h.75"
         fill="#fff"
         fill-rule="evenodd"
         transform="translate(21.65 71)"
         id="path1" /><path
         d="m.25-60-1.25.55-3.85-8.6-3.85 8.6-.65-.3-.55-.25 5.05-11 5.1 11m-10.1 4.2.75.75q-2.05 1.95-2.4 4.25l-.1 1q0 2.25 1.5 4.15l1 1.1-.75.7-.4-.35-.6-.7q-1.8-2.2-1.8-4.9l.1-1q.3-2.8 2.7-5m-2.55 35.35q.3-.3.7-.95l1.25 1q-.6.95-1.35 1.55l-.45.4q-.7.45-1.6.45-.95 0-2.65-1.1-1.15-.65-1.9-.65-.85 0-1.3.55l-.6.95-1.35-.75 1.2-1.65q.85-.8 1.95-.8t2.25.8q1.65.85 2.55.85.65 0 1.3-.65m3.6 10.9h1.55V-3q0 .7.4 1.15.55.55 1.65.55 1.05 0 1.6-.55.45-.45.45-1.15v-6.55h1.5v6.6q0 1.25-.8 2.05-.9.9-2.75.9Q-7.1 0-8-.9q-.8-.8-.8-2.05v-6.6m13.3 0h1.55V-3q0 .7.4 1.15.55.55 1.65.55 1.05 0 1.6-.55.45-.45.45-1.15v-6.55h1.5v6.6q0 1.25-.8 2.05-.9.9-2.75.9-1.9 0-2.8-.9-.8-.8-.8-2.05v-6.6m9.55-20.85-1.5.05-.35-1.5 1.3-.05q3-.2 4.05-1.25.75-.75.75-1.85 0-1.2-.8-2-.6-.6-2.15-.6l-3 .6-3.3 1.25-.65-1.6 3.1-.9 3.25-.7.75-.05q2.2 0 3.25 1.05 1.1 1.05 1.1 2.85 0 1.85-1 2.85l-.4.35q-1.55 1.2-4.4 1.5m4.25-14.45-.1-.1 1.4-1.7.25-.45q.8-1.45.8-3.1v-.6q-.25-2.5-2.35-4.55l-.1-.1.4-.4.3-.35q2.55 2.35 2.8 5.4v.6q0 1.9-.9 3.55-.7 1.25-1.9 2.4l-.6-.6M14.3-60l-1.25.55-3.85-8.6-3.85 8.6-1.2-.55L9.2-71l5.1 11m-4.1 16.4h-.75l.55-1.45h-.55v-1.45h1.5v1.35l-.75 1.55m2.9 0h-.75l.55-1.45h-.55v-1.45h1.5v1.35l-.75 1.55"
         fill-rule="evenodd"
         transform="translate(21.65 71)"
         id="path2" /><path
         d="M4.15-60H.25M12.5-14.15V-26.4m6.1-29.45-1.15-1.1"
         fill="none"
         stroke="#000"
         stroke-linecap="round"
         stroke-linejoin="round"
         transform="translate(21.65 71)"
         id="path3" /></g><g
       id="shape0"
       transform="matrix(1.0, 0.0, 0.0, 1.0, 8.2, 37.2)"><path
         d="M14.55 -29.65 Q16.15 -24.9 14.45 -20.15 L12.7 -19.9 10.75 -20.2 Q11.9 -24.6 9.65 -30.0 10.6 -31.85 12.55 -32.45 L12.9 -32.0 14.55 -29.65"
         fill="url(#gradient0)"
         fill-rule="evenodd"
         stroke="none"
         id="path3-5" /><path
         d="M10.75 -20.2 Q6.15 -21.65 9.65 -30.0 11.9 -24.6 10.75 -20.2"
         fill="url(#gradient1)"
         fill-rule="evenodd"
         stroke="none"
         id="path4" /><path
         d="M14.55 -29.65 Q19.7 -21.6 14.45 -20.15 16.15 -24.9 14.55 -29.65"
         fill="url(#gradient2)"
         fill-rule="evenodd"
         stroke="none"
         id="path5" /><path
         d="M12.7 -19.9 L10.75 -20.2 Q6.15 -21.65 9.65 -30.0 10.6 -31.85 12.55 -32.45 L12.9 -32.0"
         fill="none"
         stroke="#4f1d17"
         stroke-linecap="round"
         stroke-linejoin="round"
         stroke-width="1.0"
         id="path6" /><path
         d="M14.45 -20.15 Q19.7 -21.6 14.55 -29.65 16.15 -24.9 14.45 -20.15 L12.7 -19.9 M12.9 -32.0 L14.55 -29.65 M9.65 -30.0 Q11.9 -24.6 10.75 -20.2"
         fill="none"
         stroke="#4f1d17"
         stroke-linecap="round"
         stroke-linejoin="round"
         stroke-width="1.0"
         id="path7" /><path
         d="M15.2 -34.45 Q15.15 -34.15 15.25 -33.8 L15.15 -33.8 15.1 -33.8 14.65 -33.95 14.5 -33.9 15.1 -34.4 15.2 -34.45 M13.4 -33.15 L13.2 -32.9 12.8 -32.65 12.8 -32.85 13.4 -33.15 M12.75 -32.05 L12.9 -31.75 12.55 -31.45 12.6 -31.65 12.75 -32.05 M12.55 -30.1 L12.8 -29.45 Q13.4 -28.35 13.4 -27.4 13.35 -25.35 13.65 -23.3 L13.8 -21.25 13.4 -21.85 13.4 -23.5 Q13.1 -25.2 13.25 -26.95 13.45 -28.6 12.55 -29.5 L12.55 -30.1 M13.95 -17.45 Q14.6 -16.9 14.45 -15.75 L14.15 -14.5 Q13.85 -13.65 13.45 -13.6 14.2 -15.15 14.0 -17.0 L13.95 -17.45 M13.35 -13.4 L13.2 -12.95 13.15 -13.0 13.35 -13.4 M11.85 -10.55 L11.75 -10.4 11.6 -10.3 11.85 -10.55"
         fill="#ff9933"
         fill-rule="evenodd"
         stroke="none"
         id="path8" /><path
         d="M11.6 -10.3 L11.3 -10.05 9.45 -8.65 Q8.35 -7.95 8.1 -9.15 L8.1 -9.25 8.25 -10.05 8.4 -11.8 8.45 -15.7 8.35 -19.65 8.15 -23.55 8.05 -27.45 7.95 -30.3 7.7 -32.15 Q7.5 -33.75 8.15 -35.25 8.95 -37.2 11.15 -37.2 L13.85 -36.65 14.6 -36.35 14.8 -36.45 15.4 -36.1 15.7 -35.7 Q15.9 -35.15 15.2 -34.45 L15.1 -34.4 14.5 -33.9 13.4 -33.15 12.8 -32.85 12.8 -32.65 Q12.6 -32.45 12.75 -32.05 L12.6 -31.65 12.55 -31.45 12.5 -30.7 12.55 -30.1 12.55 -29.5 Q13.45 -28.6 13.25 -26.95 13.1 -25.2 13.4 -23.5 L13.4 -21.85 13.8 -21.25 Q14.1 -20.6 14.0 -19.65 L13.95 -17.45 14.0 -17.0 Q14.2 -15.15 13.45 -13.6 L13.35 -13.4 13.15 -13.0 13.2 -12.95 13.35 -12.5 Q13.0 -12.25 12.95 -11.75 L12.65 -11.4 11.85 -10.55 11.6 -10.3"
         fill="#ffffff"
         fill-rule="evenodd"
         stroke="none"
         id="path9" /><path
         d="M6.2 -7.8 L6.2 -7.7 5.95 -7.45 5.8 -7.45 5.8 -7.05 5.75 -6.75 5.75 -6.65 5.65 -6.05 Q5.75 -3.85 5.5 -1.75 L5.35 -1.45 Q5.0 -1.2 4.6 -1.1 L4.2 -1.05 4.15 -1.05 2.5 -1.2 Q1.9 -1.35 1.5 -1.7 1.05 -2.1 0.85 -2.65 0.4 -3.8 0.4 -5.05 L0.5 -6.4 0.7 -7.6 0.85 -7.8 0.85 -8.0 1.3 -8.35 3.55 -8.3 5.8 -8.25 Q6.25 -8.25 6.2 -7.8 M-2.55 -8.35 L-2.05 -8.2 Q-1.65 -8.05 -1.85 -7.65 -1.95 -7.35 -2.25 -7.35 L-2.45 -7.35 -2.45 -6.2 -2.45 -5.7 Q-2.15 -4.65 -2.5 -3.45 L-2.55 -3.2 -2.6 -2.65 Q-2.7 -2.0 -3.2 -1.6 L-4.2 -1.0 Q-4.65 -0.45 -5.45 -0.65 -6.1 -0.85 -6.6 -1.3 L-7.5 -2.65 -7.75 -3.5 -7.85 -4.0 Q-8.0 -5.2 -7.75 -6.35 L-7.5 -7.2 -7.1 -8.15 -6.9 -8.35 -6.7 -8.4 -4.0 -8.35 -3.95 -8.35 -2.55 -8.35"
         fill="#ffded2"
         fill-rule="evenodd"
         stroke="none"
         id="path10" /><path
         d="M5.4 -9.55 L6.95 -9.55 6.95 -2.95 Q6.95 -1.7 6.15 -0.9 5.25 0.0 3.35 0.0 1.5 0.0 0.6 -0.9 -0.2 -1.7 -0.2 -2.95 L-0.2 -9.55 1.3 -9.55 1.3 -3.0 Q1.3 -2.3 1.75 -1.85 2.3 -1.3 3.35 -1.3 4.45 -1.3 5.0 -1.85 5.4 -2.3 5.4 -3.0 L5.4 -9.55"
         fill="#4f1d17"
         fill-rule="evenodd"
         stroke="none"
         id="path11" /><path
         d="M-2.6 -9.55 L-1.05 -9.55 -1.05 -2.95 Q-1.05 -1.7 -1.85 -0.9 -2.75 0.0 -4.65 0.0 -6.5 0.0 -7.4 -0.9 -8.2 -1.7 -8.2 -2.95 L-8.2 -9.55 -6.7 -9.55 -6.7 -3.0 Q-6.7 -2.3 -6.25 -1.85 -5.7 -1.3 -4.65 -1.3 -3.55 -1.3 -3.0 -1.85 -2.6 -2.3 -2.6 -3.0 L-2.6 -9.55"
         fill="#4f1d17"
         fill-rule="evenodd"
         stroke="none"
         id="path12" /><path
         d="M8.7 -29.25 L11.55 -27.9 13.45 -26.55 Q14.3 -25.65 14.4 -24.6 14.45 -23.2 13.0 -21.85 11.55 -20.55 9.85 -20.8 8.25 -21.1 6.55 -22.75 L7.15 -23.65 Q9.05 -21.75 10.6 -21.85 11.65 -21.85 12.6 -22.85 13.3 -23.6 13.35 -24.4 13.4 -25.1 12.85 -25.75 12.2 -26.45 10.85 -27.1 L8.2 -28.15 8.7 -29.25"
         fill="#4f1d17"
         fill-rule="evenodd"
         stroke="none"
         id="path13" /><path
         d="M10.1 -36.8 L10.1 -35.45 9.35 -33.9 8.6 -33.9 9.15 -35.35 8.6 -35.35 8.6 -36.8 10.1 -36.8 M13.0 -35.45 L12.25 -33.9 11.5 -33.9 12.05 -35.35 11.5 -35.35 11.5 -36.8 13.0 -36.8 13.0 -35.45"
         fill="#000000"
         fill-rule="evenodd"
         stroke="none"
         id="path14" /></g><radialGradient
       cx="0"
       cy="0"
       gradientTransform="matrix(0.0126, 0.0, 0.0, 0.0126, 12.95, -22.15)"
       gradientUnits="userSpaceOnUse"
       id="gradient0"
       r="819.2"
       spreadMethod="pad"><stop
         offset="0.0"
         stop-color="#f3e2c0"
         id="stop14" /><stop
         offset="1.0"
         stop-color="#ffffff"
         id="stop15" /></radialGradient><radialGradient
       cx="0"
       cy="0"
       gradientTransform="matrix(0.014, 0.0, 0.0, 0.014, 9.85, -18.1)"
       gradientUnits="userSpaceOnUse"
       id="gradient1"
       r="819.2"
       spreadMethod="pad"><stop
         offset="0.0"
         stop-color="#624413"
         id="stop16" /><stop
         offset="1.0"
         stop-color="#ae7c29"
         id="stop17" /></radialGradient><radialGradient
       cx="0"
       cy="0"
       gradientTransform="matrix(0.0139, 0.0, 0.0, 0.0139, 15.75, -18.35)"
       gradientUnits="userSpaceOnUse"
       id="gradient2"
       r="819.2"
       spreadMethod="pad"><stop
         offset="0.0"
         stop-color="#624413"
         id="stop18" /><stop
         offset="1.0"
         stop-color="#ae7c29"
         id="stop19" /></radialGradient><g
       id="sprite0"
       transform="matrix(1.0, 0.0, 0.0, 1.0, 2.65, 2.65)"><use
         height="5.3"
         transform="matrix(1.0, 0.0, 0.0, 1.0, -2.65, -2.65)"
         width="5.3"
         xlink:href="#shape1"
         id="use19" /></g><g
       id="shape1"
       transform="matrix(1.0, 0.0, 0.0, 1.0, 2.65, 2.65)"><path
         d="M-2.15 0.0 Q-2.15 0.9 -1.5 1.5 -0.9 2.15 0.0 2.15 0.9 2.15 1.5 1.5 2.15 0.9 2.15 0.0 2.15 -0.9 1.5 -1.55 0.9 -2.15 0.0 -2.15 -0.9 -2.15 -1.5 -1.55 -2.15 -0.9 -2.15 0.0"
         fill="url(#gradient3)"
         fill-rule="evenodd"
         stroke="none"
         id="path19" /><path
         d="M-2.15 0.0 Q-2.15 0.9 -1.5 1.5 -0.9 2.15 0.0 2.15 0.9 2.15 1.5 1.5 2.15 0.9 2.15 0.0 2.15 -0.9 1.5 -1.55 0.9 -2.15 0.0 -2.15 -0.9 -2.15 -1.5 -1.55 -2.15 -0.9 -2.15 0.0 Z"
         fill="none"
         stroke="#000000"
         stroke-linecap="round"
         stroke-linejoin="round"
         stroke-width="1.0"
         id="path20" /></g><radialGradient
       cx="0"
       cy="0"
       gradientTransform="matrix(-0.004, 0.0, 0.0, 0.0041, -0.85, -0.8)"
       gradientUnits="userSpaceOnUse"
       id="gradient3"
       r="819.2"
       spreadMethod="pad"><stop
         offset="0.00392156862745098"
         stop-color="#ffffff"
         id="stop20" /><stop
         offset="0.29411764705882354"
         stop-color="#000000"
         id="stop21" /></radialGradient><g
       id="shape2"
       transform="matrix(1.0, 0.0, 0.0, 1.0, 17.25, 61.05)"><path
         d="M-11.3 -51.65 L-11.2 -51.65 -11.3 -51.65 M12.95 -37.3 L13.0 -37.3 12.95 -37.3 M6.0 -59.85 L6.25 -60.2 8.65 -60.3 Q10.05 -60.45 11.3 -59.65 12.6 -58.75 14.05 -58.55 15.35 -57.2 15.4 -54.95 15.85 -53.7 15.45 -52.4 L15.3 -51.65 15.2 -51.5 Q14.7 -50.45 13.65 -50.25 13.1 -49.75 12.25 -49.65 L11.5 -49.6 13.9 -44.95 14.95 -43.05 15.25 -43.25 15.45 -43.3 Q16.5 -42.75 16.8 -41.45 L17.0 -40.05 Q17.1 -38.35 16.45 -37.15 L16.65 -36.4 15.7 -35.7 15.4 -36.1 14.8 -36.45 14.6 -36.35 13.85 -36.65 11.15 -37.2 Q8.95 -37.2 8.15 -35.25 7.5 -33.75 7.7 -32.15 L7.95 -30.3 8.05 -27.45 8.15 -23.55 8.35 -19.65 8.45 -15.7 8.4 -11.8 8.25 -10.05 8.1 -9.25 8.1 -9.15 Q8.35 -7.95 9.45 -8.65 L11.3 -10.05 10.9 -9.55 Q9.2 -8.15 6.7 -7.8 L5.85 -7.75 5.6 -6.9 5.6 -6.85 5.45 -6.85 5.0 -6.85 4.75 -6.8 3.7 -6.65 1.45 -6.6 -2.25 -6.65 -10.5 -7.3 -11.0 -7.55 -11.3 -7.85 -11.85 -8.05 -12.0 -8.05 -12.65 -8.3 -13.2 -8.6 Q-16.25 -10.75 -16.3 -14.85 L-16.4 -18.25 -16.25 -19.85 -16.25 -19.9 Q-16.55 -22.2 -15.65 -23.8 -15.9 -30.5 -15.3 -37.15 L-14.9 -38.9 -14.85 -40.25 Q-14.7 -42.7 -13.25 -44.2 -13.45 -45.3 -13.1 -46.65 L-12.4 -48.6 -11.5 -50.05 -12.3 -50.3 Q-13.05 -50.75 -13.3 -51.45 L-13.5 -51.45 -13.55 -51.55 -13.75 -52.25 -13.85 -52.4 -13.8 -52.45 Q-14.5 -54.3 -13.75 -56.2 L-13.8 -56.25 -13.8 -56.3 -13.7 -56.55 -13.65 -56.8 -13.65 -56.85 -13.6 -56.85 -13.6 -56.9 -13.5 -57.0 Q-12.8 -58.3 -11.6 -59.2 L-10.5 -59.85 Q-8.45 -60.65 -6.2 -60.35 -4.45 -59.75 -3.75 -58.15 L-3.05 -56.3 -2.95 -55.45 -2.1 -55.45 -2.2 -54.55 Q-0.55 -55.7 1.8 -55.6 L4.05 -54.85 4.05 -55.0 4.15 -55.6 Q3.95 -56.1 4.3 -56.45 L4.1 -57.2 4.0 -57.85 Q5.1 -58.55 6.0 -59.85 M-8.1 -53.55 L-8.2 -53.5 -8.15 -53.5 -8.1 -53.55"
         fill="#ff9933"
         fill-rule="evenodd"
         stroke="none"
         id="path21" /><path
         d="M12.55 -49.9 Q14.85 -49.85 15.5 -52.1 16.2 -54.9 14.55 -57.35 12.85 -59.85 10.05 -60.25 7.0 -60.7 5.05 -58.6 3.6 -57.1 3.8 -54.95 L0.25 -55.3 -0.8 -55.1 -2.6 -54.5 M12.6 -32.65 L13.65 -33.2 Q15.95 -34.85 16.55 -37.35 17.15 -40.1 15.85 -42.5 L13.3 -47.05 12.55 -48.4 11.95 -49.4 M12.45 -31.75 Q13.25 -29.2 13.4 -26.45 L13.8 -21.15 13.95 -15.5 Q13.75 -12.7 12.25 -10.5 10.75 -8.35 8.15 -7.65 L5.65 -7.25 M-11.35 -50.1 Q-13.7 -50.05 -14.3 -52.3 -15.05 -55.1 -13.35 -57.55 -11.7 -60.05 -8.85 -60.45 -5.85 -60.9 -3.85 -58.8 -2.45 -57.3 -2.6 -55.15 M-11.6 -49.5 L-12.25 -48.4 Q-13.2 -46.65 -13.75 -44.65 L-14.8 -39.25 -15.3 -33.7 Q-15.45 -30.95 -15.75 -28.25 L-16.35 -22.75 -16.75 -17.45 Q-16.85 -14.65 -15.9 -12.0 -15.05 -9.45 -12.9 -7.85 -10.65 -7.0 -8.25 -6.75"
         fill="none"
         stroke="#4f1d17"
         stroke-linecap="round"
         stroke-linejoin="round"
         stroke-width="1.0"
         id="path22" /></g><g
       id="shape0-7"
       transform="matrix(1.0, 0.0, 0.0, 1.0, 8.35, 37.2)"><path
         d="M14.45 -20.15 L12.7 -19.9 10.75 -20.2 Q11.9 -24.6 9.65 -30.0 10.6 -31.85 12.55 -32.45 L12.9 -32.0 14.55 -29.65 Q16.15 -24.9 14.45 -20.15"
         fill="url(#gradient0)"
         fill-rule="evenodd"
         stroke="none"
         id="path3-7"
         style="fill:url(#gradient0-9)" /><path
         d="M10.75 -20.2 Q6.15 -21.65 9.65 -30.0 11.9 -24.6 10.75 -20.2"
         fill="url(#gradient1)"
         fill-rule="evenodd"
         stroke="none"
         id="path4-2"
         style="fill:url(#gradient1-2)" /><path
         d="M14.55 -29.65 Q19.7 -21.6 14.45 -20.15 16.15 -24.9 14.55 -29.65"
         fill="url(#gradient2)"
         fill-rule="evenodd"
         stroke="none"
         id="path5-9"
         style="fill:url(#gradient2-2)" /><path
         d="M12.7 -19.9 L10.75 -20.2 Q6.15 -21.65 9.65 -30.0 10.6 -31.85 12.55 -32.45 L12.9 -32.0"
         fill="none"
         stroke="#4f1d17"
         stroke-linecap="round"
         stroke-linejoin="round"
         stroke-width="1.0"
         id="path6-9" /><path
         d="M14.55 -29.65 Q19.7 -21.6 14.45 -20.15 L12.7 -19.9 M12.9 -32.0 L14.55 -29.65 Q16.15 -24.9 14.45 -20.15 M9.65 -30.0 Q11.9 -24.6 10.75 -20.2"
         fill="none"
         stroke="#4f1d17"
         stroke-linecap="round"
         stroke-linejoin="round"
         stroke-width="1.0"
         id="path7-8" /><path
         d="M15.2 -34.45 Q15.15 -34.15 15.25 -33.8 L15.15 -33.8 15.1 -33.8 14.65 -33.95 14.5 -33.9 15.1 -34.4 15.2 -34.45 M13.4 -33.15 L13.2 -32.9 12.8 -32.65 12.8 -32.85 13.4 -33.15 M12.75 -32.05 L12.9 -31.75 12.55 -31.45 12.6 -31.65 12.75 -32.05 M12.55 -30.1 L12.8 -29.45 Q13.4 -28.35 13.4 -27.4 13.35 -25.35 13.65 -23.3 L13.8 -21.25 13.4 -21.85 13.4 -23.5 Q13.1 -25.2 13.25 -26.95 13.45 -28.6 12.55 -29.5 L12.55 -30.1 M13.95 -17.45 Q14.6 -16.9 14.45 -15.75 L14.15 -14.5 Q13.85 -13.65 13.45 -13.6 14.2 -15.15 14.0 -17.0 L13.95 -17.45 M13.35 -13.4 L13.2 -12.95 13.15 -13.0 13.35 -13.4 M11.6 -10.3 L11.85 -10.55 11.75 -10.4 11.6 -10.3 M-7.1 -1.15 L-7.4 -1.1 -7.55 -1.85 -7.4 -2.45 -6.6 -1.3 -6.25 -1.0 -7.1 -1.15 M-2.25 -3.15 Q-2.05 -1.75 -3.2 -1.25 L-3.15 -1.15 Q-3.5 -0.95 -3.8 -0.85 L-4.3 -0.85 -4.2 -1.0 -3.2 -1.6 Q-2.7 -2.0 -2.6 -2.65 L-2.55 -3.2 -2.5 -3.45 -2.45 -3.65 -2.25 -3.15"
         fill="#ff9933"
         fill-rule="evenodd"
         stroke="none"
         id="path8-1" /><path
         d="M11.3 -10.05 L9.45 -8.65 Q8.35 -7.95 8.1 -9.15 L8.1 -9.25 8.25 -10.05 8.4 -11.8 8.45 -15.7 8.35 -19.65 8.15 -23.55 8.05 -27.45 7.95 -30.3 7.7 -32.15 Q7.5 -33.75 8.15 -35.25 8.95 -37.2 11.15 -37.2 L13.85 -36.65 14.6 -36.35 14.8 -36.45 15.4 -36.1 15.7 -35.7 Q15.9 -35.15 15.2 -34.45 L15.1 -34.4 14.5 -33.9 13.4 -33.15 12.8 -32.85 12.8 -32.65 Q12.6 -32.45 12.75 -32.05 L12.6 -31.65 12.55 -31.45 12.5 -30.7 12.55 -30.1 12.55 -29.5 Q13.45 -28.6 13.25 -26.95 13.1 -25.2 13.4 -23.5 L13.4 -21.85 13.8 -21.25 Q14.1 -20.6 14.0 -19.65 L13.95 -17.45 14.0 -17.0 Q14.2 -15.15 13.45 -13.6 L13.35 -13.4 13.15 -13.0 13.2 -12.95 13.35 -12.5 Q13.0 -12.25 12.95 -11.75 L12.65 -11.4 11.85 -10.55 11.6 -10.3 11.3 -10.05"
         fill="#ffffff"
         fill-rule="evenodd"
         stroke="none"
         id="path9-2" /><path
         d="M13.35 -12.5 L13.95 -12.8 13.95 -12.85 14.2 -12.7 14.3 -12.75 Q15.6 -12.05 15.35 -10.5 L15.35 -10.4 Q15.5 -9.7 14.85 -8.75 L14.25 -8.3 14.05 -8.05 Q13.35 -7.0 12.05 -7.45 L11.75 -7.55 Q11.15 -7.35 10.4 -7.75 10.1 -7.95 10.25 -8.3 L10.9 -9.55 11.3 -10.05 11.6 -10.3 11.75 -10.4 12.95 -11.05 12.95 -11.75 Q13.0 -12.25 13.35 -12.5"
         fill="#ffded2"
         fill-rule="evenodd"
         stroke="none"
         id="path10-4" /><path
         d="M-3.95 -8.35 L-2.55 -8.35 -2.05 -8.2 Q-1.65 -8.05 -1.85 -7.65 -1.95 -7.35 -2.25 -7.35 L-2.45 -7.35 -2.45 -6.25 -2.45 -6.2 -2.45 -5.7 Q-2.2 -4.75 -2.45 -3.65 L-2.5 -3.45 -2.55 -3.2 -2.6 -2.65 Q-2.7 -2.0 -3.2 -1.6 L-4.2 -1.0 -4.3 -0.85 Q-4.75 -0.5 -5.45 -0.65 L-6.25 -1.0 -6.6 -1.3 -7.4 -2.45 -7.5 -2.65 -7.75 -3.5 -7.85 -4.0 -7.8 -5.9 -7.75 -6.35 -7.5 -7.2 -7.1 -8.15 -6.9 -8.35 -6.7 -8.4 -5.7 -8.4 -4.0 -8.35 -3.95 -8.35"
         fill="#ffded2"
         fill-rule="evenodd"
         stroke="none"
         id="path11-2" /><path
         d="M-2.75 -9.6 L-1.2 -9.6 -1.2 -3.0 Q-1.2 -1.75 -2.0 -0.95 -2.9 -0.05 -4.8 -0.05 -6.65 -0.05 -7.55 -0.95 -8.35 -1.75 -8.35 -3.0 L-8.35 -9.6 -6.85 -9.6 -6.85 -3.05 Q-6.85 -2.35 -6.4 -1.9 -5.85 -1.35 -4.8 -1.35 -3.7 -1.35 -3.15 -1.9 -2.75 -2.35 -2.75 -3.05 L-2.75 -9.6"
         fill="#4f1d17"
         fill-rule="evenodd"
         stroke="none"
         id="path12-3" /></g><radialGradient
       cx="0"
       cy="0"
       gradientTransform="matrix(0.0126, 0.0, 0.0, 0.0126, 12.95, -22.15)"
       gradientUnits="userSpaceOnUse"
       id="gradient0-9"
       r="819.2"
       spreadMethod="pad"><stop
         offset="0.0"
         stop-color="#f3e2c0"
         id="stop12" /><stop
         offset="1.0"
         stop-color="#ffffff"
         id="stop13" /></radialGradient><radialGradient
       cx="0"
       cy="0"
       gradientTransform="matrix(0.014, 0.0, 0.0, 0.014, 9.85, -18.1)"
       gradientUnits="userSpaceOnUse"
       id="gradient1-2"
       r="819.2"
       spreadMethod="pad"><stop
         offset="0.0"
         stop-color="#624413"
         id="stop14-4" /><stop
         offset="1.0"
         stop-color="#ae7c29"
         id="stop15-5" /></radialGradient><radialGradient
       cx="0"
       cy="0"
       gradientTransform="matrix(0.0139, 0.0, 0.0, 0.0139, 15.75, -18.35)"
       gradientUnits="userSpaceOnUse"
       id="gradient2-2"
       r="819.2"
       spreadMethod="pad"><stop
         offset="0.0"
         stop-color="#624413"
         id="stop16-5" /><stop
         offset="1.0"
         stop-color="#ae7c29"
         id="stop17-1" /></radialGradient><g
       id="sprite0-6"
       transform="matrix(1.0, 0.0, 0.0, 1.0, 2.65, 2.65)"><use
         height="5.3"
         transform="matrix(1.0, 0.0, 0.0, 1.0, -2.65, -2.65)"
         width="5.3"
         xlink:href="#shape1-8"
         id="use17" /></g><g
       id="shape1-8"
       transform="matrix(1.0, 0.0, 0.0, 1.0, 2.65, 2.65)"><path
         d="M-2.15 0.0 Q-2.15 0.9 -1.5 1.5 -0.9 2.15 0.0 2.15 0.9 2.15 1.5 1.5 2.15 0.9 2.15 0.0 2.15 -0.9 1.5 -1.55 0.9 -2.15 0.0 -2.15 -0.9 -2.15 -1.5 -1.55 -2.15 -0.9 -2.15 0.0"
         fill="url(#gradient3)"
         fill-rule="evenodd"
         stroke="none"
         id="path17"
         style="fill:url(#gradient3-3)" /><path
         d="M-2.15 0.0 Q-2.15 0.9 -1.5 1.5 -0.9 2.15 0.0 2.15 0.9 2.15 1.5 1.5 2.15 0.9 2.15 0.0 2.15 -0.9 1.5 -1.55 0.9 -2.15 0.0 -2.15 -0.9 -2.15 -1.5 -1.55 -2.15 -0.9 -2.15 0.0 Z"
         fill="none"
         stroke="#000000"
         stroke-linecap="round"
         stroke-linejoin="round"
         stroke-width="1.0"
         id="path18" /></g><radialGradient
       cx="0"
       cy="0"
       gradientTransform="matrix(-0.004, 0.0, 0.0, 0.0041, -0.85, -0.8)"
       gradientUnits="userSpaceOnUse"
       id="gradient3-3"
       r="819.2"
       spreadMethod="pad"><stop
         offset="0.00392156862745098"
         stop-color="#ffffff"
         id="stop18-7" /><stop
         offset="0.29411764705882354"
         stop-color="#000000"
         id="stop19-1" /></radialGradient><g
       id="shape2-4"
       transform="matrix(1.0, 0.0, 0.0, 1.0, 17.25, 61.05)"><path
         d="M13.55 -12.4 L13.55 -13.95 Q14.75 -13.9 15.5 -13.15 16.4 -12.25 16.4 -10.35 16.4 -8.5 15.5 -7.6 14.7 -6.8 13.45 -6.8 L6.85 -6.8 6.85 -8.3 13.4 -8.3 Q14.1 -8.3 14.55 -8.75 15.1 -9.3 15.1 -10.35 15.1 -11.45 14.55 -12.0 14.15 -12.35 13.55 -12.4"
         fill="#4f1d17"
         fill-rule="evenodd"
         stroke="none"
         id="path19-3" /><path
         d="M8.7 -29.25 L11.55 -27.9 13.45 -26.55 Q14.3 -25.65 14.4 -24.6 14.45 -23.2 13.0 -21.85 11.55 -20.55 9.85 -20.8 8.25 -21.1 6.55 -22.75 L7.15 -23.65 Q9.05 -21.75 10.6 -21.85 11.65 -21.85 12.6 -22.85 13.3 -23.6 13.35 -24.4 13.4 -25.1 12.85 -25.75 12.2 -26.45 10.85 -27.1 L8.2 -28.15 8.7 -29.25"
         fill="#4f1d17"
         fill-rule="evenodd"
         stroke="none"
         id="path20-7" /><path
         d="M10.1 -36.8 L10.1 -35.45 9.35 -33.9 8.6 -33.9 9.15 -35.35 8.6 -35.35 8.6 -36.8 10.1 -36.8 M13.0 -35.45 L12.25 -33.9 11.5 -33.9 12.05 -35.35 11.5 -35.35 11.5 -36.8 13.0 -36.8 13.0 -35.45"
         fill="#000000"
         fill-rule="evenodd"
         stroke="none"
         id="path21-7" /><path
         d="M-11.3 -51.65 L-11.2 -51.65 -11.3 -51.65 M13.0 -37.3 L12.95 -37.3 13.0 -37.3 M6.25 -60.2 L8.65 -60.3 Q10.05 -60.45 11.3 -59.65 12.6 -58.75 14.05 -58.55 15.35 -57.2 15.4 -54.95 15.85 -53.7 15.45 -52.4 L15.3 -51.65 15.2 -51.5 Q14.7 -50.45 13.65 -50.25 13.1 -49.75 12.25 -49.65 L11.5 -49.6 13.9 -44.95 14.95 -43.05 15.25 -43.25 15.45 -43.3 Q16.5 -42.75 16.8 -41.45 L17.0 -40.05 Q17.1 -38.35 16.45 -37.15 L16.65 -36.4 15.7 -35.7 15.4 -36.1 14.8 -36.45 14.6 -36.35 13.85 -36.65 11.15 -37.2 Q8.95 -37.2 8.15 -35.25 7.5 -33.75 7.7 -32.15 L7.95 -30.3 8.05 -27.45 8.15 -23.55 8.35 -19.65 8.45 -15.7 8.4 -11.8 8.25 -10.05 8.1 -9.25 8.1 -9.15 Q8.35 -7.95 9.45 -8.65 L11.3 -10.05 10.9 -9.55 Q9.2 -8.15 6.7 -7.8 L5.85 -7.75 5.6 -6.9 5.6 -6.85 5.45 -6.85 5.0 -6.85 4.75 -6.8 3.7 -6.65 1.45 -6.6 -2.25 -6.65 -10.5 -7.3 -11.0 -7.55 -11.3 -7.85 -11.85 -8.05 -12.0 -8.05 -12.65 -8.3 -13.2 -8.6 Q-16.25 -10.75 -16.3 -14.85 L-16.4 -18.25 -16.25 -19.85 -16.25 -19.9 Q-16.55 -22.2 -15.65 -23.8 -15.9 -30.5 -15.3 -37.15 L-14.9 -38.9 -14.85 -40.25 Q-14.7 -42.7 -13.25 -44.2 -13.45 -45.3 -13.1 -46.65 L-12.4 -48.6 -11.5 -50.05 -12.3 -50.3 Q-13.05 -50.75 -13.3 -51.45 L-13.5 -51.45 -13.55 -51.55 -13.75 -52.25 -13.85 -52.4 -13.8 -52.45 Q-14.5 -54.3 -13.75 -56.2 L-13.8 -56.25 -13.8 -56.3 -13.7 -56.55 -13.65 -56.8 -13.65 -56.85 -13.6 -56.85 -13.6 -56.9 -13.5 -57.0 Q-12.8 -58.3 -11.6 -59.2 L-10.5 -59.85 Q-8.45 -60.65 -6.2 -60.35 -4.45 -59.75 -3.75 -58.15 L-3.05 -56.3 -2.95 -55.45 -2.1 -55.45 -2.2 -54.55 Q-0.55 -55.7 1.8 -55.6 L4.05 -54.85 4.05 -55.0 4.15 -55.6 Q3.95 -56.1 4.3 -56.45 L4.1 -57.2 4.0 -57.85 Q5.1 -58.55 6.0 -59.85 L6.25 -60.2 M-8.15 -53.5 L-8.1 -53.55 -8.2 -53.5 -8.15 -53.5"
         fill="#ff9933"
         fill-rule="evenodd"
         stroke="none"
         id="path22-4" /><path
         d="M12.55 -49.9 Q14.85 -49.85 15.5 -52.1 16.2 -54.9 14.55 -57.35 12.85 -59.85 10.05 -60.25 7.0 -60.7 5.05 -58.6 3.6 -57.1 3.8 -54.95 L0.25 -55.3 -0.8 -55.1 -2.6 -54.5 M12.6 -32.65 L13.65 -33.2 Q15.95 -34.85 16.55 -37.35 17.15 -40.1 15.85 -42.5 L13.3 -47.05 12.55 -48.4 11.95 -49.4 M12.45 -31.75 Q13.25 -29.2 13.4 -26.45 L13.8 -21.15 13.95 -15.5 Q13.75 -12.7 12.25 -10.5 10.75 -8.35 8.15 -7.65 L5.65 -7.25 M-11.35 -50.1 Q-13.7 -50.05 -14.3 -52.3 -15.05 -55.1 -13.35 -57.55 -11.7 -60.05 -8.85 -60.45 -5.85 -60.9 -3.85 -58.8 -2.45 -57.3 -2.6 -55.15 M-11.6 -49.5 L-12.25 -48.4 Q-13.2 -46.65 -13.75 -44.65 L-14.8 -39.25 -15.3 -33.7 Q-15.45 -30.95 -15.75 -28.25 L-16.35 -22.75 -16.75 -17.45 Q-16.85 -14.65 -15.9 -12.0 -15.05 -9.45 -12.9 -7.85 -10.65 -7.0 -8.25 -6.75"
         fill="none"
         stroke="#4f1d17"
         stroke-linecap="round"
         stroke-linejoin="round"
         stroke-width="1.0"
         id="path23" /></g><g
       id="shape0-2"
       transform="matrix(1.0, 0.0, 0.0, 1.0, 8.35, 37.2)"><path
         d="M14.45 -20.15 L12.7 -19.9 10.75 -20.2 Q11.9 -24.6 9.65 -30.0 10.6 -31.85 12.55 -32.45 L12.9 -32.0 14.55 -29.65 Q16.15 -24.9 14.45 -20.15"
         fill="url(#gradient0)"
         fill-rule="evenodd"
         stroke="none"
         id="path3-4"
         style="fill:url(#gradient0-95)" /><path
         d="M10.75 -20.2 Q6.15 -21.65 9.65 -30.0 11.9 -24.6 10.75 -20.2"
         fill="url(#gradient1)"
         fill-rule="evenodd"
         stroke="none"
         id="path4-1"
         style="fill:url(#gradient1-26)" /><path
         d="M14.55 -29.65 Q19.7 -21.6 14.45 -20.15 16.15 -24.9 14.55 -29.65"
         fill="url(#gradient2)"
         fill-rule="evenodd"
         stroke="none"
         id="path5-2"
         style="fill:url(#gradient2-9)" /><path
         d="M12.7 -19.9 L10.75 -20.2 Q6.15 -21.65 9.65 -30.0 10.6 -31.85 12.55 -32.45 L12.9 -32.0"
         fill="none"
         stroke="#4f1d17"
         stroke-linecap="round"
         stroke-linejoin="round"
         stroke-width="1.0"
         id="path6-2" /><path
         d="M14.55 -29.65 Q19.7 -21.6 14.45 -20.15 L12.7 -19.9 M12.9 -32.0 L14.55 -29.65 Q16.15 -24.9 14.45 -20.15 M9.65 -30.0 Q11.9 -24.6 10.75 -20.2"
         fill="none"
         stroke="#4f1d17"
         stroke-linecap="round"
         stroke-linejoin="round"
         stroke-width="1.0"
         id="path7-3" /><path
         d="M15.2 -34.45 Q15.15 -34.15 15.25 -33.8 L15.15 -33.8 15.1 -33.8 14.65 -33.95 14.5 -33.9 15.1 -34.4 15.2 -34.45 M13.4 -33.15 L13.2 -32.9 12.8 -32.65 12.8 -32.85 13.4 -33.15 M12.75 -32.05 L12.9 -31.75 12.55 -31.45 12.6 -31.65 12.75 -32.05 M12.55 -30.1 L12.8 -29.45 Q13.4 -28.35 13.4 -27.4 13.35 -25.35 13.65 -23.3 L13.8 -21.25 13.4 -21.85 13.4 -23.5 Q13.1 -25.2 13.25 -26.95 13.45 -28.6 12.55 -29.5 L12.55 -30.1 M13.95 -17.45 Q14.6 -16.9 14.45 -15.75 L14.15 -14.5 Q13.85 -13.65 13.45 -13.6 14.2 -15.15 14.0 -17.0 L13.95 -17.45 M13.35 -13.4 L13.2 -12.95 13.15 -13.0 13.35 -13.4 M11.6 -10.3 L11.85 -10.55 11.75 -10.4 11.6 -10.3 M-7.1 -1.15 L-7.4 -1.1 -7.55 -1.85 -7.4 -2.45 -6.6 -1.3 -6.25 -1.0 -7.1 -1.15 M-2.25 -3.15 Q-2.05 -1.75 -3.2 -1.25 L-3.15 -1.15 Q-3.5 -0.95 -3.8 -0.85 L-4.3 -0.85 -4.2 -1.0 -3.2 -1.6 Q-2.7 -2.0 -2.6 -2.65 L-2.55 -3.2 -2.5 -3.45 -2.45 -3.65 -2.25 -3.15"
         fill="#ff9933"
         fill-rule="evenodd"
         stroke="none"
         id="path8-6" /><path
         d="M11.3 -10.05 L9.45 -8.65 Q8.35 -7.95 8.1 -9.15 L8.1 -9.25 8.25 -10.05 8.4 -11.8 8.45 -15.7 8.35 -19.65 8.15 -23.55 8.05 -27.45 7.95 -30.3 7.7 -32.15 Q7.5 -33.75 8.15 -35.25 8.95 -37.2 11.15 -37.2 L13.85 -36.65 14.6 -36.35 14.8 -36.45 15.4 -36.1 15.7 -35.7 Q15.9 -35.15 15.2 -34.45 L15.1 -34.4 14.5 -33.9 13.4 -33.15 12.8 -32.85 12.8 -32.65 Q12.6 -32.45 12.75 -32.05 L12.6 -31.65 12.55 -31.45 12.5 -30.7 12.55 -30.1 12.55 -29.5 Q13.45 -28.6 13.25 -26.95 13.1 -25.2 13.4 -23.5 L13.4 -21.85 13.8 -21.25 Q14.1 -20.6 14.0 -19.65 L13.95 -17.45 14.0 -17.0 Q14.2 -15.15 13.45 -13.6 L13.35 -13.4 13.15 -13.0 13.2 -12.95 13.35 -12.5 Q13.0 -12.25 12.95 -11.75 L12.65 -11.4 11.85 -10.55 11.6 -10.3 11.3 -10.05"
         fill="#ffffff"
         fill-rule="evenodd"
         stroke="none"
         id="path9-8" /><path
         d="M13.35 -12.5 L13.95 -12.8 13.95 -12.85 14.2 -12.7 14.3 -12.75 Q15.6 -12.05 15.35 -10.5 L15.35 -10.4 Q15.5 -9.7 14.85 -8.75 L14.25 -8.3 14.05 -8.05 Q13.35 -7.0 12.05 -7.45 L11.75 -7.55 Q11.15 -7.35 10.4 -7.75 10.1 -7.95 10.25 -8.3 L10.9 -9.55 11.3 -10.05 11.6 -10.3 11.75 -10.4 12.95 -11.05 12.95 -11.75 Q13.0 -12.25 13.35 -12.5"
         fill="#ffded2"
         fill-rule="evenodd"
         stroke="none"
         id="path10-5" /><path
         d="M-3.95 -8.35 L-2.55 -8.35 -2.05 -8.2 Q-1.65 -8.05 -1.85 -7.65 -1.95 -7.35 -2.25 -7.35 L-2.45 -7.35 -2.45 -6.25 -2.45 -6.2 -2.45 -5.7 Q-2.2 -4.75 -2.45 -3.65 L-2.5 -3.45 -2.55 -3.2 -2.6 -2.65 Q-2.7 -2.0 -3.2 -1.6 L-4.2 -1.0 -4.3 -0.85 Q-4.75 -0.5 -5.45 -0.65 L-6.25 -1.0 -6.6 -1.3 -7.4 -2.45 -7.5 -2.65 -7.75 -3.5 -7.85 -4.0 -7.8 -5.9 -7.75 -6.35 -7.5 -7.2 -7.1 -8.15 -6.9 -8.35 -6.7 -8.4 -5.7 -8.4 -4.0 -8.35 -3.95 -8.35"
         fill="#ffded2"
         fill-rule="evenodd"
         stroke="none"
         id="path11-9" /><path
         d="M-2.75 -9.6 L-1.2 -9.6 -1.2 -3.0 Q-1.2 -1.75 -2.0 -0.95 -2.9 -0.05 -4.8 -0.05 -6.65 -0.05 -7.55 -0.95 -8.35 -1.75 -8.35 -3.0 L-8.35 -9.6 -6.85 -9.6 -6.85 -3.05 Q-6.85 -2.35 -6.4 -1.9 -5.85 -1.35 -4.8 -1.35 -3.7 -1.35 -3.15 -1.9 -2.75 -2.35 -2.75 -3.05 L-2.75 -9.6"
         fill="#4f1d17"
         fill-rule="evenodd"
         stroke="none"
         id="path12-7" /></g><radialGradient
       cx="0"
       cy="0"
       gradientTransform="matrix(0.0126, 0.0, 0.0, 0.0126, 12.95, -22.15)"
       gradientUnits="userSpaceOnUse"
       id="gradient0-95"
       r="819.2"
       spreadMethod="pad"><stop
         offset="0.0"
         stop-color="#f3e2c0"
         id="stop12-5" /><stop
         offset="1.0"
         stop-color="#ffffff"
         id="stop13-3" /></radialGradient><radialGradient
       cx="0"
       cy="0"
       gradientTransform="matrix(0.014, 0.0, 0.0, 0.014, 9.85, -18.1)"
       gradientUnits="userSpaceOnUse"
       id="gradient1-26"
       r="819.2"
       spreadMethod="pad"><stop
         offset="0.0"
         stop-color="#624413"
         id="stop14-1" /><stop
         offset="1.0"
         stop-color="#ae7c29"
         id="stop15-1" /></radialGradient><radialGradient
       cx="0"
       cy="0"
       gradientTransform="matrix(0.0139, 0.0, 0.0, 0.0139, 15.75, -18.35)"
       gradientUnits="userSpaceOnUse"
       id="gradient2-9"
       r="819.2"
       spreadMethod="pad"><stop
         offset="0.0"
         stop-color="#624413"
         id="stop16-8" /><stop
         offset="1.0"
         stop-color="#ae7c29"
         id="stop17-2" /></radialGradient><g
       id="sprite0-3"
       transform="matrix(1.0, 0.0, 0.0, 1.0, 2.65, 2.65)"><use
         height="5.3"
         transform="matrix(1.0, 0.0, 0.0, 1.0, -2.65, -2.65)"
         width="5.3"
         xlink:href="#shape1-9"
         id="use17-4" /></g><g
       id="shape1-9"
       transform="matrix(1.0, 0.0, 0.0, 1.0, 2.65, 2.65)"><path
         d="M-2.15 0.0 Q-2.15 0.9 -1.5 1.5 -0.9 2.15 0.0 2.15 0.9 2.15 1.5 1.5 2.15 0.9 2.15 0.0 2.15 -0.9 1.5 -1.55 0.9 -2.15 0.0 -2.15 -0.9 -2.15 -1.5 -1.55 -2.15 -0.9 -2.15 0.0"
         fill="url(#gradient3)"
         fill-rule="evenodd"
         stroke="none"
         id="path17-2"
         style="fill:url(#gradient3-39)" /><path
         d="M-2.15 0.0 Q-2.15 0.9 -1.5 1.5 -0.9 2.15 0.0 2.15 0.9 2.15 1.5 1.5 2.15 0.9 2.15 0.0 2.15 -0.9 1.5 -1.55 0.9 -2.15 0.0 -2.15 -0.9 -2.15 -1.5 -1.55 -2.15 -0.9 -2.15 0.0 Z"
         fill="none"
         stroke="#000000"
         stroke-linecap="round"
         stroke-linejoin="round"
         stroke-width="1.0"
         id="path18-0" /></g><radialGradient
       cx="0"
       cy="0"
       gradientTransform="matrix(-0.004, 0.0, 0.0, 0.0041, -0.85, -0.8)"
       gradientUnits="userSpaceOnUse"
       id="gradient3-39"
       r="819.2"
       spreadMethod="pad"><stop
         offset="0.00392156862745098"
         stop-color="#ffffff"
         id="stop18-1" /><stop
         offset="0.29411764705882354"
         stop-color="#000000"
         id="stop19-5" /></radialGradient><g
       id="shape2-3"
       transform="matrix(1.0, 0.0, 0.0, 1.0, 17.25, 61.05)"><path
         d="M13.55 -12.4 L13.55 -13.95 Q14.75 -13.9 15.5 -13.15 16.4 -12.25 16.4 -10.35 16.4 -8.5 15.5 -7.6 14.7 -6.8 13.45 -6.8 L6.85 -6.8 6.85 -8.3 13.4 -8.3 Q14.1 -8.3 14.55 -8.75 15.1 -9.3 15.1 -10.35 15.1 -11.45 14.55 -12.0 14.15 -12.35 13.55 -12.4"
         fill="#4f1d17"
         fill-rule="evenodd"
         stroke="none"
         id="path19-7" /><path
         d="M8.7 -29.25 L11.55 -27.9 13.45 -26.55 Q14.3 -25.65 14.4 -24.6 14.45 -23.2 13.0 -21.85 11.55 -20.55 9.85 -20.8 8.25 -21.1 6.55 -22.75 L7.15 -23.65 Q9.05 -21.75 10.6 -21.85 11.65 -21.85 12.6 -22.85 13.3 -23.6 13.35 -24.4 13.4 -25.1 12.85 -25.75 12.2 -26.45 10.85 -27.1 L8.2 -28.15 8.7 -29.25"
         fill="#4f1d17"
         fill-rule="evenodd"
         stroke="none"
         id="path20-77" /><path
         d="M10.1 -36.8 L10.1 -35.45 9.35 -33.9 8.6 -33.9 9.15 -35.35 8.6 -35.35 8.6 -36.8 10.1 -36.8 M13.0 -35.45 L12.25 -33.9 11.5 -33.9 12.05 -35.35 11.5 -35.35 11.5 -36.8 13.0 -36.8 13.0 -35.45"
         fill="#000000"
         fill-rule="evenodd"
         stroke="none"
         id="path21-0" /><path
         d="M-11.3 -51.65 L-11.2 -51.65 -11.3 -51.65 M13.0 -37.3 L12.95 -37.3 13.0 -37.3 M6.25 -60.2 L8.65 -60.3 Q10.05 -60.45 11.3 -59.65 12.6 -58.75 14.05 -58.55 15.35 -57.2 15.4 -54.95 15.85 -53.7 15.45 -52.4 L15.3 -51.65 15.2 -51.5 Q14.7 -50.45 13.65 -50.25 13.1 -49.75 12.25 -49.65 L11.5 -49.6 13.9 -44.95 14.95 -43.05 15.25 -43.25 15.45 -43.3 Q16.5 -42.75 16.8 -41.45 L17.0 -40.05 Q17.1 -38.35 16.45 -37.15 L16.65 -36.4 15.7 -35.7 15.4 -36.1 14.8 -36.45 14.6 -36.35 13.85 -36.65 11.15 -37.2 Q8.95 -37.2 8.15 -35.25 7.5 -33.75 7.7 -32.15 L7.95 -30.3 8.05 -27.45 8.15 -23.55 8.35 -19.65 8.45 -15.7 8.4 -11.8 8.25 -10.05 8.1 -9.25 8.1 -9.15 Q8.35 -7.95 9.45 -8.65 L11.3 -10.05 10.9 -9.55 Q9.2 -8.15 6.7 -7.8 L5.85 -7.75 5.6 -6.9 5.6 -6.85 5.45 -6.85 5.0 -6.85 4.75 -6.8 3.7 -6.65 1.45 -6.6 -2.25 -6.65 -10.5 -7.3 -11.0 -7.55 -11.3 -7.85 -11.85 -8.05 -12.0 -8.05 -12.65 -8.3 -13.2 -8.6 Q-16.25 -10.75 -16.3 -14.85 L-16.4 -18.25 -16.25 -19.85 -16.25 -19.9 Q-16.55 -22.2 -15.65 -23.8 -15.9 -30.5 -15.3 -37.15 L-14.9 -38.9 -14.85 -40.25 Q-14.7 -42.7 -13.25 -44.2 -13.45 -45.3 -13.1 -46.65 L-12.4 -48.6 -11.5 -50.05 -12.3 -50.3 Q-13.05 -50.75 -13.3 -51.45 L-13.5 -51.45 -13.55 -51.55 -13.75 -52.25 -13.85 -52.4 -13.8 -52.45 Q-14.5 -54.3 -13.75 -56.2 L-13.8 -56.25 -13.8 -56.3 -13.7 -56.55 -13.65 -56.8 -13.65 -56.85 -13.6 -56.85 -13.6 -56.9 -13.5 -57.0 Q-12.8 -58.3 -11.6 -59.2 L-10.5 -59.85 Q-8.45 -60.65 -6.2 -60.35 -4.45 -59.75 -3.75 -58.15 L-3.05 -56.3 -2.95 -55.45 -2.1 -55.45 -2.2 -54.55 Q-0.55 -55.7 1.8 -55.6 L4.05 -54.85 4.05 -55.0 4.15 -55.6 Q3.95 -56.1 4.3 -56.45 L4.1 -57.2 4.0 -57.85 Q5.1 -58.55 6.0 -59.85 L6.25 -60.2 M-8.15 -53.5 L-8.1 -53.55 -8.2 -53.5 -8.15 -53.5"
         fill="#ff9933"
         fill-rule="evenodd"
         stroke="none"
         id="path22-0" /><path
         d="M12.55 -49.9 Q14.85 -49.85 15.5 -52.1 16.2 -54.9 14.55 -57.35 12.85 -59.85 10.05 -60.25 7.0 -60.7 5.05 -58.6 3.6 -57.1 3.8 -54.95 L0.25 -55.3 -0.8 -55.1 -2.6 -54.5 M12.6 -32.65 L13.65 -33.2 Q15.95 -34.85 16.55 -37.35 17.15 -40.1 15.85 -42.5 L13.3 -47.05 12.55 -48.4 11.95 -49.4 M12.45 -31.75 Q13.25 -29.2 13.4 -26.45 L13.8 -21.15 13.95 -15.5 Q13.75 -12.7 12.25 -10.5 10.75 -8.35 8.15 -7.65 L5.65 -7.25 M-11.35 -50.1 Q-13.7 -50.05 -14.3 -52.3 -15.05 -55.1 -13.35 -57.55 -11.7 -60.05 -8.85 -60.45 -5.85 -60.9 -3.85 -58.8 -2.45 -57.3 -2.6 -55.15 M-11.6 -49.5 L-12.25 -48.4 Q-13.2 -46.65 -13.75 -44.65 L-14.8 -39.25 -15.3 -33.7 Q-15.45 -30.95 -15.75 -28.25 L-16.35 -22.75 -16.75 -17.45 Q-16.85 -14.65 -15.9 -12.0 -15.05 -9.45 -12.9 -7.85 -10.65 -7.0 -8.25 -6.75"
         fill="none"
         stroke="#4f1d17"
         stroke-linecap="round"
         stroke-linejoin="round"
         stroke-width="1.0"
         id="path23-3" /></g><g
       id="shape0-6"
       transform="matrix(1.0, 0.0, 0.0, 1.0, 0.2, 37.15)"><path
         d="M14.45 -20.15 L12.7 -19.9 10.75 -20.2 Q11.9 -24.6 9.65 -30.0 10.6 -31.8 12.55 -32.4 L12.9 -31.95 14.55 -29.65 Q16.15 -24.9 14.45 -20.15"
         fill="url(#gradient0)"
         fill-rule="evenodd"
         stroke="none"
         id="path3-2"
         style="fill:url(#gradient0-90)" /><path
         d="M10.75 -20.2 Q6.15 -21.65 9.65 -30.0 11.9 -24.6 10.75 -20.2"
         fill="url(#gradient1)"
         fill-rule="evenodd"
         stroke="none"
         id="path4-3"
         style="fill:url(#gradient1-1)" /><path
         d="M14.55 -29.65 Q19.7 -21.6 14.45 -20.15 16.15 -24.9 14.55 -29.65"
         fill="url(#gradient2)"
         fill-rule="evenodd"
         stroke="none"
         id="path5-25"
         style="fill:url(#gradient2-1)" /><path
         d="M12.7 -19.9 L10.75 -20.2 Q6.15 -21.65 9.65 -30.0 10.6 -31.8 12.55 -32.4 L12.9 -31.95"
         fill="none"
         stroke="#4f1d17"
         stroke-linecap="round"
         stroke-linejoin="round"
         stroke-width="1.0"
         id="path6-1" /><path
         d="M14.55 -29.65 Q19.7 -21.6 14.45 -20.15 L12.7 -19.9 M12.9 -31.95 L14.55 -29.65 Q16.15 -24.9 14.45 -20.15 M9.65 -30.0 Q11.9 -24.6 10.75 -20.2"
         fill="none"
         stroke="#4f1d17"
         stroke-linecap="round"
         stroke-linejoin="round"
         stroke-width="1.0"
         id="path7-36" /><path
         d="M15.2 -34.4 Q15.15 -34.1 15.25 -33.75 L15.15 -33.75 15.1 -33.75 14.65 -33.9 14.5 -33.85 15.1 -34.35 15.2 -34.4 M13.4 -33.1 L13.2 -32.85 12.8 -32.6 12.8 -32.8 13.4 -33.1 M12.75 -32.0 L12.9 -31.7 12.55 -31.4 12.6 -31.6 12.75 -32.0 M12.55 -30.1 L12.8 -29.45 Q13.4 -28.35 13.4 -27.4 13.35 -25.35 13.65 -23.3 L13.8 -21.25 13.4 -21.85 13.4 -23.5 Q13.1 -25.2 13.25 -26.95 13.45 -28.6 12.55 -29.5 L12.55 -30.1 M13.95 -17.45 Q14.6 -16.9 14.45 -15.75 L14.15 -14.5 Q13.85 -13.65 13.45 -13.6 14.2 -15.15 14.0 -17.0 L13.95 -17.45 M13.35 -13.4 L13.2 -12.95 13.15 -13.0 13.35 -13.4 M11.85 -10.55 L11.75 -10.4 11.6 -10.3 11.85 -10.55"
         fill="#ff9933"
         fill-rule="evenodd"
         stroke="none"
         id="path8-0" /><path
         d="M11.6 -10.3 L11.3 -10.05 9.45 -8.65 Q8.35 -7.95 8.1 -9.15 L8.1 -9.25 8.25 -10.05 8.4 -11.8 8.45 -15.7 8.35 -19.65 8.15 -23.55 8.05 -27.45 7.95 -30.3 7.7 -32.1 Q7.5 -33.7 8.15 -35.2 8.95 -37.15 11.15 -37.15 L13.85 -36.6 14.6 -36.3 14.8 -36.4 15.4 -36.05 15.7 -35.65 Q15.9 -35.1 15.2 -34.4 L15.1 -34.35 14.5 -33.85 13.4 -33.1 12.8 -32.8 12.8 -32.6 Q12.6 -32.4 12.75 -32.0 L12.6 -31.6 12.55 -31.4 12.5 -30.65 12.55 -30.1 12.55 -29.5 Q13.45 -28.6 13.25 -26.95 13.1 -25.2 13.4 -23.5 L13.4 -21.85 13.8 -21.25 Q14.1 -20.6 14.0 -19.65 L13.95 -17.45 14.0 -17.0 Q14.2 -15.15 13.45 -13.6 L13.35 -13.4 13.15 -13.0 13.2 -12.95 13.35 -12.5 Q13.0 -12.25 12.95 -11.75 L12.65 -11.4 11.85 -10.55 11.6 -10.3"
         fill="#ffffff"
         fill-rule="evenodd"
         stroke="none"
         id="path9-4" /><path
         d="M8.7 -29.25 L11.55 -27.9 13.45 -26.55 Q14.3 -25.65 14.4 -24.6 14.45 -23.2 13.0 -21.85 11.55 -20.55 9.85 -20.8 8.25 -21.1 6.55 -22.75 L7.15 -23.65 Q9.05 -21.75 10.6 -21.85 11.65 -21.85 12.6 -22.85 13.3 -23.6 13.35 -24.4 13.4 -25.1 12.85 -25.75 12.2 -26.45 10.85 -27.1 L8.2 -28.15 8.7 -29.25"
         fill="#4f1d17"
         fill-rule="evenodd"
         stroke="none"
         id="path10-8" /><path
         d="M10.1 -36.75 L10.1 -35.4 9.35 -33.85 8.6 -33.85 9.15 -35.3 8.6 -35.3 8.6 -36.75 10.1 -36.75 M13.0 -35.4 L12.25 -33.85 11.5 -33.85 12.05 -35.3 11.5 -35.3 11.5 -36.75 13.0 -36.75 13.0 -35.4"
         fill="#000000"
         fill-rule="evenodd"
         stroke="none"
         id="path11-5" /><path
         d="M6.2 -7.8 L6.2 -7.7 5.95 -7.45 5.8 -7.45 5.8 -7.05 5.75 -6.75 5.75 -6.65 5.65 -6.05 Q5.75 -3.85 5.5 -1.75 L5.35 -1.45 Q5.0 -1.2 4.6 -1.1 L4.2 -1.05 4.15 -1.05 2.5 -1.2 Q1.9 -1.35 1.5 -1.7 1.05 -2.1 0.85 -2.65 0.4 -3.8 0.4 -5.05 L0.5 -6.4 0.7 -7.6 0.85 -7.8 0.85 -8.0 1.3 -8.35 3.55 -8.3 5.8 -8.25 Q6.25 -8.25 6.2 -7.8"
         fill="#ffded2"
         fill-rule="evenodd"
         stroke="none"
         id="path12-8" /><path
         d="M5.4 -9.55 L6.95 -9.55 6.95 -2.95 Q6.95 -1.7 6.15 -0.9 5.25 0.0 3.35 0.0 1.5 0.0 0.6 -0.9 -0.2 -1.7 -0.2 -2.95 L-0.2 -9.55 1.3 -9.55 1.3 -3.0 Q1.3 -2.3 1.75 -1.85 2.3 -1.3 3.35 -1.3 4.45 -1.3 5.0 -1.85 5.4 -2.3 5.4 -3.0 L5.4 -9.55"
         fill="#4f1d17"
         fill-rule="evenodd"
         stroke="none"
         id="path13-0" /></g><radialGradient
       cx="0"
       cy="0"
       gradientTransform="matrix(0.0126, 0.0, 0.0, 0.0126, 12.95, -22.15)"
       gradientUnits="userSpaceOnUse"
       id="gradient0-90"
       r="819.2"
       spreadMethod="pad"><stop
         offset="0.0"
         stop-color="#f3e2c0"
         id="stop13-38" /><stop
         offset="1.0"
         stop-color="#ffffff"
         id="stop14-18" /></radialGradient><radialGradient
       cx="0"
       cy="0"
       gradientTransform="matrix(0.014, 0.0, 0.0, 0.014, 9.85, -18.1)"
       gradientUnits="userSpaceOnUse"
       id="gradient1-1"
       r="819.2"
       spreadMethod="pad"><stop
         offset="0.0"
         stop-color="#624413"
         id="stop15-17" /><stop
         offset="1.0"
         stop-color="#ae7c29"
         id="stop16-1" /></radialGradient><radialGradient
       cx="0"
       cy="0"
       gradientTransform="matrix(0.0139, 0.0, 0.0, 0.0138, 15.75, -18.35)"
       gradientUnits="userSpaceOnUse"
       id="gradient2-1"
       r="819.2"
       spreadMethod="pad"><stop
         offset="0.0"
         stop-color="#624413"
         id="stop17-7" /><stop
         offset="1.0"
         stop-color="#ae7c29"
         id="stop18-4" /></radialGradient><g
       id="sprite0-1"
       transform="matrix(1.0, 0.0, 0.0, 1.0, 2.65, 2.65)"><use
         height="5.3"
         transform="matrix(1.0, 0.0, 0.0, 1.0, -2.65, -2.65)"
         width="5.3"
         xlink:href="#shape1-4"
         id="use18" /></g><g
       id="shape1-4"
       transform="matrix(1.0, 0.0, 0.0, 1.0, 2.65, 2.65)"><path
         d="M-2.15 0.0 Q-2.15 0.9 -1.5 1.5 -0.9 2.15 0.0 2.15 0.9 2.15 1.5 1.5 2.15 0.9 2.15 0.0 2.15 -0.9 1.5 -1.55 0.9 -2.15 0.0 -2.15 -0.9 -2.15 -1.5 -1.55 -2.15 -0.9 -2.15 0.0"
         fill="url(#gradient3)"
         fill-rule="evenodd"
         stroke="none"
         id="path18-1"
         style="fill:url(#gradient3-34)" /><path
         d="M-2.15 0.0 Q-2.15 0.9 -1.5 1.5 -0.9 2.15 0.0 2.15 0.9 2.15 1.5 1.5 2.15 0.9 2.15 0.0 2.15 -0.9 1.5 -1.55 0.9 -2.15 0.0 -2.15 -0.9 -2.15 -1.5 -1.55 -2.15 -0.9 -2.15 0.0 Z"
         fill="none"
         stroke="#000000"
         stroke-linecap="round"
         stroke-linejoin="round"
         stroke-width="1.0"
         id="path19-1" /></g><radialGradient
       cx="0"
       cy="0"
       gradientTransform="matrix(-0.004, 0.0, 0.0, 0.0041, -0.85, -0.8)"
       gradientUnits="userSpaceOnUse"
       id="gradient3-34"
       r="819.2"
       spreadMethod="pad"><stop
         offset="0.00392156862745098"
         stop-color="#ffffff"
         id="stop19-6" /><stop
         offset="0.29411764705882354"
         stop-color="#000000"
         id="stop20-7" /></radialGradient><g
       id="shape2-1"
       transform="matrix(1.0, 0.0, 0.0, 1.0, 17.25, 61.0)"><path
         d="M-11.3 -51.6 L-11.2 -51.6 -11.3 -51.6 M13.0 -37.25 L12.95 -37.25 13.0 -37.25 M6.0 -59.8 L6.25 -60.15 8.65 -60.25 Q10.05 -60.4 11.3 -59.6 12.6 -58.7 14.05 -58.5 15.35 -57.15 15.4 -54.9 15.85 -53.65 15.45 -52.35 L15.3 -51.6 15.2 -51.45 Q14.7 -50.4 13.65 -50.2 13.1 -49.7 12.25 -49.6 L11.5 -49.55 13.9 -44.9 14.95 -43.0 15.25 -43.2 15.45 -43.25 Q16.5 -42.7 16.8 -41.4 L17.05 -40.0 Q17.15 -38.3 16.45 -37.1 L16.65 -36.35 15.7 -35.65 15.4 -36.05 14.8 -36.4 14.6 -36.3 13.85 -36.6 11.15 -37.15 Q8.95 -37.15 8.15 -35.2 7.5 -33.7 7.7 -32.1 L7.95 -30.3 8.05 -27.45 8.15 -23.55 8.35 -19.65 8.45 -15.7 8.4 -11.8 8.25 -10.05 8.1 -9.25 8.1 -9.15 Q8.35 -7.95 9.45 -8.65 L11.3 -10.05 10.9 -9.55 Q9.2 -8.15 6.7 -7.8 L5.85 -7.75 5.6 -6.9 5.6 -6.85 5.45 -6.85 5.0 -6.85 4.75 -6.8 3.7 -6.65 1.45 -6.6 -2.25 -6.65 -10.5 -7.3 -11.0 -7.55 -11.3 -7.85 -11.85 -8.05 -12.0 -8.05 -12.65 -8.3 -13.2 -8.6 Q-16.25 -10.75 -16.3 -14.85 L-16.4 -18.25 -16.25 -19.85 -16.25 -19.9 Q-16.55 -22.2 -15.65 -23.8 -15.9 -30.45 -15.3 -37.1 L-14.9 -38.85 -14.85 -40.2 Q-14.7 -42.65 -13.25 -44.15 -13.45 -45.25 -13.1 -46.6 L-12.4 -48.55 -11.5 -50.0 -12.3 -50.25 Q-13.05 -50.7 -13.3 -51.4 L-13.5 -51.4 -13.55 -51.5 -13.75 -52.2 -13.85 -52.35 -13.8 -52.4 Q-14.5 -54.25 -13.75 -56.15 L-13.8 -56.2 -13.8 -56.25 -13.7 -56.5 -13.65 -56.75 -13.65 -56.8 -13.6 -56.8 -13.6 -56.85 -13.5 -56.95 Q-12.8 -58.25 -11.6 -59.15 L-10.5 -59.8 Q-8.45 -60.6 -6.2 -60.3 -4.45 -59.7 -3.75 -58.1 L-3.05 -56.25 -2.95 -55.4 -2.1 -55.4 -2.2 -54.5 Q-0.55 -55.65 1.8 -55.55 L4.05 -54.8 4.05 -54.95 4.15 -55.55 Q3.95 -56.05 4.3 -56.4 L4.1 -57.15 4.0 -57.8 Q5.1 -58.5 6.0 -59.8 M-8.2 -53.45 L-8.15 -53.45 -8.1 -53.5 -8.2 -53.45"
         fill="#ff9933"
         fill-rule="evenodd"
         stroke="none"
         id="path20-72" /><path
         d="M12.55 -49.85 Q14.85 -49.8 15.5 -52.05 16.2 -54.85 14.55 -57.3 12.85 -59.8 10.05 -60.2 7.0 -60.65 5.05 -58.55 3.6 -57.05 3.8 -54.9 L0.25 -55.25 -0.8 -55.05 -2.6 -54.45 M12.6 -32.6 L13.65 -33.15 Q15.95 -34.8 16.55 -37.3 17.2 -40.05 15.85 -42.45 L13.3 -47.0 12.55 -48.35 11.95 -49.35 M12.45 -31.7 Q13.25 -29.2 13.4 -26.45 L13.8 -21.15 13.95 -15.5 Q13.75 -12.7 12.25 -10.5 10.75 -8.35 8.15 -7.65 L5.65 -7.25 M-11.35 -50.05 Q-13.7 -50.0 -14.3 -52.25 -15.05 -55.05 -13.35 -57.5 -11.7 -60.0 -8.85 -60.4 -5.85 -60.85 -3.85 -58.75 -2.45 -57.25 -2.6 -55.1 M-11.6 -49.45 L-12.25 -48.35 Q-13.2 -46.6 -13.75 -44.6 L-14.8 -39.2 -15.3 -33.65 Q-15.45 -30.9 -15.75 -28.25 L-16.35 -22.75 -16.75 -17.45 Q-16.85 -14.65 -15.9 -12.0 -15.05 -9.45 -12.9 -7.85 -10.65 -7.0 -8.25 -6.75"
         fill="none"
         stroke="#4f1d17"
         stroke-linecap="round"
         stroke-linejoin="round"
         stroke-width="1.0"
         id="path21-79" /></g><g
       id="shape0-67"
       transform="matrix(1.0, 0.0, 0.0, 1.0, 8.2, 37.2)"><path
         d="M14.55 -29.65 Q16.15 -24.9 14.45 -20.15 L12.7 -19.9 10.75 -20.2 Q11.9 -24.6 9.65 -30.0 10.6 -31.85 12.55 -32.45 L12.9 -32.0 14.55 -29.65"
         fill="url(#gradient0)"
         fill-rule="evenodd"
         stroke="none"
         id="path3-3"
         style="fill:url(#gradient0-92)" /><path
         d="M10.75 -20.2 Q6.15 -21.65 9.65 -30.0 11.9 -24.6 10.75 -20.2"
         fill="url(#gradient1)"
         fill-rule="evenodd"
         stroke="none"
         id="path4-7"
         style="fill:url(#gradient1-3)" /><path
         d="M14.55 -29.65 Q19.7 -21.6 14.45 -20.15 16.15 -24.9 14.55 -29.65"
         fill="url(#gradient2)"
         fill-rule="evenodd"
         stroke="none"
         id="path5-23"
         style="fill:url(#gradient2-5)" /><path
         d="M12.7 -19.9 L10.75 -20.2 Q6.15 -21.65 9.65 -30.0 10.6 -31.85 12.55 -32.45 L12.9 -32.0"
         fill="none"
         stroke="#4f1d17"
         stroke-linecap="round"
         stroke-linejoin="round"
         stroke-width="1.0"
         id="path6-0" /><path
         d="M14.45 -20.15 Q19.7 -21.6 14.55 -29.65 16.15 -24.9 14.45 -20.15 L12.7 -19.9 M12.9 -32.0 L14.55 -29.65 M9.65 -30.0 Q11.9 -24.6 10.75 -20.2"
         fill="none"
         stroke="#4f1d17"
         stroke-linecap="round"
         stroke-linejoin="round"
         stroke-width="1.0"
         id="path7-35" /><path
         d="M15.2 -34.45 Q15.15 -34.15 15.25 -33.8 L15.15 -33.8 15.1 -33.8 14.65 -33.95 14.5 -33.9 15.1 -34.4 15.2 -34.45 M13.4 -33.15 L13.2 -32.9 12.8 -32.65 12.8 -32.85 13.4 -33.15 M12.75 -32.05 L12.9 -31.75 12.55 -31.45 12.6 -31.65 12.75 -32.05 M12.55 -30.1 L12.8 -29.45 Q13.4 -28.35 13.4 -27.4 13.35 -25.35 13.65 -23.3 L13.8 -21.25 13.4 -21.85 13.4 -23.5 Q13.1 -25.2 13.25 -26.95 13.45 -28.6 12.55 -29.5 L12.55 -30.1 M13.95 -17.45 Q14.6 -16.9 14.45 -15.75 L14.15 -14.5 Q13.85 -13.65 13.45 -13.6 14.2 -15.15 14.0 -17.0 L13.95 -17.45 M13.35 -13.4 L13.2 -12.95 13.15 -13.0 13.35 -13.4 M11.85 -10.55 L11.75 -10.4 11.6 -10.3 11.85 -10.55"
         fill="#ff9933"
         fill-rule="evenodd"
         stroke="none"
         id="path8-10" /><path
         d="M11.6 -10.3 L11.3 -10.05 9.45 -8.65 Q8.35 -7.95 8.1 -9.15 L8.1 -9.25 8.25 -10.05 8.4 -11.8 8.45 -15.7 8.35 -19.65 8.15 -23.55 8.05 -27.45 7.95 -30.3 7.7 -32.15 Q7.5 -33.75 8.15 -35.25 8.95 -37.2 11.15 -37.2 L13.85 -36.65 14.6 -36.35 14.8 -36.45 15.4 -36.1 15.7 -35.7 Q15.9 -35.15 15.2 -34.45 L15.1 -34.4 14.5 -33.9 13.4 -33.15 12.8 -32.85 12.8 -32.65 Q12.6 -32.45 12.75 -32.05 L12.6 -31.65 12.55 -31.45 12.5 -30.7 12.55 -30.1 12.55 -29.5 Q13.45 -28.6 13.25 -26.95 13.1 -25.2 13.4 -23.5 L13.4 -21.85 13.8 -21.25 Q14.1 -20.6 14.0 -19.65 L13.95 -17.45 14.0 -17.0 Q14.2 -15.15 13.45 -13.6 L13.35 -13.4 13.15 -13.0 13.2 -12.95 13.35 -12.5 Q13.0 -12.25 12.95 -11.75 L12.65 -11.4 11.85 -10.55 11.6 -10.3"
         fill="#ffffff"
         fill-rule="evenodd"
         stroke="none"
         id="path9-84" /><path
         d="M6.2 -7.8 L6.2 -7.7 5.95 -7.45 5.8 -7.45 5.8 -7.05 5.75 -6.75 5.75 -6.65 5.65 -6.05 Q5.75 -3.85 5.5 -1.75 L5.35 -1.45 Q5.0 -1.2 4.6 -1.1 L4.2 -1.05 4.15 -1.05 2.5 -1.2 Q1.9 -1.35 1.5 -1.7 1.05 -2.1 0.85 -2.65 0.4 -3.8 0.4 -5.05 L0.5 -6.4 0.7 -7.6 0.85 -7.8 0.85 -8.0 1.3 -8.35 3.55 -8.3 5.8 -8.25 Q6.25 -8.25 6.2 -7.8 M-2.55 -8.35 L-2.05 -8.2 Q-1.65 -8.05 -1.85 -7.65 -1.95 -7.35 -2.25 -7.35 L-2.45 -7.35 -2.45 -6.2 -2.45 -5.7 Q-2.15 -4.65 -2.5 -3.45 L-2.55 -3.2 -2.6 -2.65 Q-2.7 -2.0 -3.2 -1.6 L-4.2 -1.0 Q-4.65 -0.45 -5.45 -0.65 -6.1 -0.85 -6.6 -1.3 L-7.5 -2.65 -7.75 -3.5 -7.85 -4.0 Q-8.0 -5.2 -7.75 -6.35 L-7.5 -7.2 -7.1 -8.15 -6.9 -8.35 -6.7 -8.4 -4.0 -8.35 -3.95 -8.35 -2.55 -8.35"
         fill="#ffded2"
         fill-rule="evenodd"
         stroke="none"
         id="path10-84" /><path
         d="M5.4 -9.55 L6.95 -9.55 6.95 -2.95 Q6.95 -1.7 6.15 -0.9 5.25 0.0 3.35 0.0 1.5 0.0 0.6 -0.9 -0.2 -1.7 -0.2 -2.95 L-0.2 -9.55 1.3 -9.55 1.3 -3.0 Q1.3 -2.3 1.75 -1.85 2.3 -1.3 3.35 -1.3 4.45 -1.3 5.0 -1.85 5.4 -2.3 5.4 -3.0 L5.4 -9.55"
         fill="#4f1d17"
         fill-rule="evenodd"
         stroke="none"
         id="path11-8" /><path
         d="M-2.6 -9.55 L-1.05 -9.55 -1.05 -2.95 Q-1.05 -1.7 -1.85 -0.9 -2.75 0.0 -4.65 0.0 -6.5 0.0 -7.4 -0.9 -8.2 -1.7 -8.2 -2.95 L-8.2 -9.55 -6.7 -9.55 -6.7 -3.0 Q-6.7 -2.3 -6.25 -1.85 -5.7 -1.3 -4.65 -1.3 -3.55 -1.3 -3.0 -1.85 -2.6 -2.3 -2.6 -3.0 L-2.6 -9.55"
         fill="#4f1d17"
         fill-rule="evenodd"
         stroke="none"
         id="path12-4" /><path
         d="M8.7 -29.25 L11.55 -27.9 13.45 -26.55 Q14.3 -25.65 14.4 -24.6 14.45 -23.2 13.0 -21.85 11.55 -20.55 9.85 -20.8 8.25 -21.1 6.55 -22.75 L7.15 -23.65 Q9.05 -21.75 10.6 -21.85 11.65 -21.85 12.6 -22.85 13.3 -23.6 13.35 -24.4 13.4 -25.1 12.85 -25.75 12.2 -26.45 10.85 -27.1 L8.2 -28.15 8.7 -29.25"
         fill="#4f1d17"
         fill-rule="evenodd"
         stroke="none"
         id="path13-6" /><path
         d="M10.1 -36.8 L10.1 -35.45 9.35 -33.9 8.6 -33.9 9.15 -35.35 8.6 -35.35 8.6 -36.8 10.1 -36.8 M13.0 -35.45 L12.25 -33.9 11.5 -33.9 12.05 -35.35 11.5 -35.35 11.5 -36.8 13.0 -36.8 13.0 -35.45"
         fill="#000000"
         fill-rule="evenodd"
         stroke="none"
         id="path14-1" /></g><radialGradient
       cx="0"
       cy="0"
       gradientTransform="matrix(0.0126, 0.0, 0.0, 0.0126, 12.95, -22.15)"
       gradientUnits="userSpaceOnUse"
       id="gradient0-92"
       r="819.2"
       spreadMethod="pad"><stop
         offset="0.0"
         stop-color="#f3e2c0"
         id="stop14-8" /><stop
         offset="1.0"
         stop-color="#ffffff"
         id="stop15-8" /></radialGradient><radialGradient
       cx="0"
       cy="0"
       gradientTransform="matrix(0.014, 0.0, 0.0, 0.014, 9.85, -18.1)"
       gradientUnits="userSpaceOnUse"
       id="gradient1-3"
       r="819.2"
       spreadMethod="pad"><stop
         offset="0.0"
         stop-color="#624413"
         id="stop16-51" /><stop
         offset="1.0"
         stop-color="#ae7c29"
         id="stop17-0" /></radialGradient><radialGradient
       cx="0"
       cy="0"
       gradientTransform="matrix(0.0139, 0.0, 0.0, 0.0139, 15.75, -18.35)"
       gradientUnits="userSpaceOnUse"
       id="gradient2-5"
       r="819.2"
       spreadMethod="pad"><stop
         offset="0.0"
         stop-color="#624413"
         id="stop18-77" /><stop
         offset="1.0"
         stop-color="#ae7c29"
         id="stop19-14" /></radialGradient><g
       id="sprite0-7"
       transform="matrix(1.0, 0.0, 0.0, 1.0, 2.65, 2.65)"><use
         height="5.3"
         transform="matrix(1.0, 0.0, 0.0, 1.0, -2.65, -2.65)"
         width="5.3"
         xlink:href="#shape1-3"
         id="use19-7" /></g><g
       id="shape1-3"
       transform="matrix(1.0, 0.0, 0.0, 1.0, 2.65, 2.65)"><path
         d="M-2.15 0.0 Q-2.15 0.9 -1.5 1.5 -0.9 2.15 0.0 2.15 0.9 2.15 1.5 1.5 2.15 0.9 2.15 0.0 2.15 -0.9 1.5 -1.55 0.9 -2.15 0.0 -2.15 -0.9 -2.15 -1.5 -1.55 -2.15 -0.9 -2.15 0.0"
         fill="url(#gradient3)"
         fill-rule="evenodd"
         stroke="none"
         id="path19-9"
         style="fill:url(#gradient3-32)" /><path
         d="M-2.15 0.0 Q-2.15 0.9 -1.5 1.5 -0.9 2.15 0.0 2.15 0.9 2.15 1.5 1.5 2.15 0.9 2.15 0.0 2.15 -0.9 1.5 -1.55 0.9 -2.15 0.0 -2.15 -0.9 -2.15 -1.5 -1.55 -2.15 -0.9 -2.15 0.0 Z"
         fill="none"
         stroke="#000000"
         stroke-linecap="round"
         stroke-linejoin="round"
         stroke-width="1.0"
         id="path20-0" /></g><radialGradient
       cx="0"
       cy="0"
       gradientTransform="matrix(-0.004, 0.0, 0.0, 0.0041, -0.85, -0.8)"
       gradientUnits="userSpaceOnUse"
       id="gradient3-32"
       r="819.2"
       spreadMethod="pad"><stop
         offset="0.00392156862745098"
         stop-color="#ffffff"
         id="stop20-77" /><stop
         offset="0.29411764705882354"
         stop-color="#000000"
         id="stop21-3" /></radialGradient><g
       id="shape2-5"
       transform="matrix(1.0, 0.0, 0.0, 1.0, 17.25, 61.05)"><path
         d="M-11.3 -51.65 L-11.2 -51.65 -11.3 -51.65 M12.95 -37.3 L13.0 -37.3 12.95 -37.3 M6.0 -59.85 L6.25 -60.2 8.65 -60.3 Q10.05 -60.45 11.3 -59.65 12.6 -58.75 14.05 -58.55 15.35 -57.2 15.4 -54.95 15.85 -53.7 15.45 -52.4 L15.3 -51.65 15.2 -51.5 Q14.7 -50.45 13.65 -50.25 13.1 -49.75 12.25 -49.65 L11.5 -49.6 13.9 -44.95 14.95 -43.05 15.25 -43.25 15.45 -43.3 Q16.5 -42.75 16.8 -41.45 L17.0 -40.05 Q17.1 -38.35 16.45 -37.15 L16.65 -36.4 15.7 -35.7 15.4 -36.1 14.8 -36.45 14.6 -36.35 13.85 -36.65 11.15 -37.2 Q8.95 -37.2 8.15 -35.25 7.5 -33.75 7.7 -32.15 L7.95 -30.3 8.05 -27.45 8.15 -23.55 8.35 -19.65 8.45 -15.7 8.4 -11.8 8.25 -10.05 8.1 -9.25 8.1 -9.15 Q8.35 -7.95 9.45 -8.65 L11.3 -10.05 10.9 -9.55 Q9.2 -8.15 6.7 -7.8 L5.85 -7.75 5.6 -6.9 5.6 -6.85 5.45 -6.85 5.0 -6.85 4.75 -6.8 3.7 -6.65 1.45 -6.6 -2.25 -6.65 -10.5 -7.3 -11.0 -7.55 -11.3 -7.85 -11.85 -8.05 -12.0 -8.05 -12.65 -8.3 -13.2 -8.6 Q-16.25 -10.75 -16.3 -14.85 L-16.4 -18.25 -16.25 -19.85 -16.25 -19.9 Q-16.55 -22.2 -15.65 -23.8 -15.9 -30.5 -15.3 -37.15 L-14.9 -38.9 -14.85 -40.25 Q-14.7 -42.7 -13.25 -44.2 -13.45 -45.3 -13.1 -46.65 L-12.4 -48.6 -11.5 -50.05 -12.3 -50.3 Q-13.05 -50.75 -13.3 -51.45 L-13.5 -51.45 -13.55 -51.55 -13.75 -52.25 -13.85 -52.4 -13.8 -52.45 Q-14.5 -54.3 -13.75 -56.2 L-13.8 -56.25 -13.8 -56.3 -13.7 -56.55 -13.65 -56.8 -13.65 -56.85 -13.6 -56.85 -13.6 -56.9 -13.5 -57.0 Q-12.8 -58.3 -11.6 -59.2 L-10.5 -59.85 Q-8.45 -60.65 -6.2 -60.35 -4.45 -59.75 -3.75 -58.15 L-3.05 -56.3 -2.95 -55.45 -2.1 -55.45 -2.2 -54.55 Q-0.55 -55.7 1.8 -55.6 L4.05 -54.85 4.05 -55.0 4.15 -55.6 Q3.95 -56.1 4.3 -56.45 L4.1 -57.2 4.0 -57.85 Q5.1 -58.55 6.0 -59.85 M-8.1 -53.55 L-8.2 -53.5 -8.15 -53.5 -8.1 -53.55"
         fill="#ff9933"
         fill-rule="evenodd"
         stroke="none"
         id="path21-3" /><path
         d="M12.55 -49.9 Q14.85 -49.85 15.5 -52.1 16.2 -54.9 14.55 -57.35 12.85 -59.85 10.05 -60.25 7.0 -60.7 5.05 -58.6 3.6 -57.1 3.8 -54.95 L0.25 -55.3 -0.8 -55.1 -2.6 -54.5 M12.6 -32.65 L13.65 -33.2 Q15.95 -34.85 16.55 -37.35 17.15 -40.1 15.85 -42.5 L13.3 -47.05 12.55 -48.4 11.95 -49.4 M12.45 -31.75 Q13.25 -29.2 13.4 -26.45 L13.8 -21.15 13.95 -15.5 Q13.75 -12.7 12.25 -10.5 10.75 -8.35 8.15 -7.65 L5.65 -7.25 M-11.35 -50.1 Q-13.7 -50.05 -14.3 -52.3 -15.05 -55.1 -13.35 -57.55 -11.7 -60.05 -8.85 -60.45 -5.85 -60.9 -3.85 -58.8 -2.45 -57.3 -2.6 -55.15 M-11.6 -49.5 L-12.25 -48.4 Q-13.2 -46.65 -13.75 -44.65 L-14.8 -39.25 -15.3 -33.7 Q-15.45 -30.95 -15.75 -28.25 L-16.35 -22.75 -16.75 -17.45 Q-16.85 -14.65 -15.9 -12.0 -15.05 -9.45 -12.9 -7.85 -10.65 -7.0 -8.25 -6.75"
         fill="none"
         stroke="#4f1d17"
         stroke-linecap="round"
         stroke-linejoin="round"
         stroke-width="1.0"
         id="path22-3" /></g><g
       id="shape0-0"
       transform="matrix(1.0, 0.0, 0.0, 1.0, 17.1, 61.0)"><path
         d="M-7.75 -6.35 L-8.1 -6.55 -8.9 -6.45 Q-9.6 -6.6 -10.2 -7.05 L-10.25 -7.05 -11.15 -7.8 -11.7 -8.0 Q-12.1 -7.95 -12.6 -8.25 -16.1 -10.4 -16.15 -14.8 L-16.25 -18.2 -16.1 -19.8 -16.1 -19.85 Q-16.4 -22.15 -15.5 -23.75 -15.75 -30.45 -15.15 -37.1 L-14.75 -38.85 -14.7 -40.2 Q-14.55 -42.65 -13.1 -44.15 -13.3 -45.25 -12.95 -46.6 L-12.25 -48.55 -11.35 -50.0 -12.15 -50.25 Q-12.9 -50.7 -13.15 -51.4 L-13.35 -51.4 -13.4 -51.5 -13.6 -52.2 -13.7 -52.35 -13.65 -52.4 Q-14.35 -54.25 -13.6 -56.15 L-13.65 -56.2 -13.65 -56.25 -13.55 -56.5 -13.5 -56.75 -13.5 -56.8 -13.45 -56.8 -13.45 -56.85 -13.35 -56.95 Q-12.65 -58.25 -11.45 -59.15 L-10.35 -59.8 Q-8.3 -60.6 -6.05 -60.3 -4.3 -59.7 -3.6 -58.1 L-2.9 -56.25 -2.8 -55.4 -1.95 -55.4 -2.05 -54.5 Q-0.4 -55.65 1.95 -55.55 3.5 -55.2 5.05 -54.4 L5.55 -54.25 5.65 -54.2 5.6 -54.25 5.35 -54.95 5.1 -54.85 Q4.8 -54.75 4.6 -55.05 3.95 -55.85 4.45 -56.4 L4.25 -57.15 4.15 -57.8 Q5.25 -58.5 6.15 -59.8 L6.4 -60.15 8.8 -60.25 Q10.2 -60.4 11.45 -59.6 12.75 -58.7 14.2 -58.5 15.5 -57.15 15.55 -54.9 16.0 -53.65 15.6 -52.35 L15.45 -51.6 15.35 -51.45 Q14.85 -50.4 13.8 -50.2 13.25 -49.7 12.4 -49.6 L11.65 -49.55 14.05 -44.9 15.5 -42.25 15.65 -42.3 Q16.5 -41.75 16.5 -40.65 L16.5 -40.6 Q17.05 -39.65 16.85 -38.2 L16.6 -37.15 16.8 -36.35 Q15.05 -35.35 15.4 -33.75 L15.3 -33.75 15.25 -33.75 14.8 -33.9 14.6 -33.8 14.5 -33.85 14.4 -33.7 14.2 -33.6 14.2 -33.7 Q14.8 -35.3 12.35 -36.15 10.4 -36.85 6.05 -37.05 -6.35 -37.75 -8.75 -35.4 -11.2 -33.15 -11.75 -22.0 -12.25 -12.35 -10.25 -9.25 L-9.55 -8.45 -9.25 -8.35 -6.9 -8.35 -7.1 -8.15 -7.5 -7.2 -7.75 -6.35 M12.7 -31.4 L12.45 -30.75 12.45 -31.2 12.7 -31.4 M12.45 -30.2 Q13.55 -28.6 13.55 -27.35 13.5 -25.3 13.8 -23.25 14.15 -20.6 13.75 -18.05 L13.8 -17.35 13.45 -14.95 Q13.85 -14.05 13.3 -12.7 11.8 -9.15 8.35 -8.05 L6.85 -7.75 6.2 -7.7 6.2 -7.8 Q6.25 -8.25 5.8 -8.25 L3.55 -8.3 7.75 -8.35 7.95 -8.4 8.35 -8.55 Q13.9 -11.2 13.05 -21.2 L12.45 -30.2 M5.95 -7.45 L5.8 -7.05 5.8 -7.45 5.95 -7.45 M5.75 -6.65 L5.8 -4.2 5.75 -3.4 Q6.55 -2.65 5.5 -1.25 4.95 -0.55 4.25 -1.0 L4.2 -1.05 4.6 -1.1 Q5.0 -1.2 5.35 -1.45 L5.5 -1.75 Q5.75 -3.85 5.65 -6.05 L5.75 -6.65 M4.15 -1.05 Q3.85 -0.65 3.35 -0.4 1.75 0.25 1.5 -1.5 L1.5 -1.7 Q1.9 -1.35 2.5 -1.2 L4.15 -1.05 M0.5 -6.4 L-2.45 -6.2 -2.45 -7.35 -2.25 -7.35 Q-1.95 -7.35 -1.85 -7.65 -1.65 -8.05 -2.05 -8.2 L-2.55 -8.35 1.3 -8.35 0.85 -8.0 0.85 -7.8 0.7 -7.6 0.5 -6.4 M-2.55 -3.2 Q-2.05 -2.95 -2.3 -2.4 L-2.85 -1.55 -3.05 -1.2 -3.0 -1.1 -3.95 -0.7 -4.55 -0.5 -4.65 -0.35 -4.7 -0.2 -4.95 -0.25 -6.2 -0.3 Q-6.55 -0.75 -7.05 -0.95 L-7.15 -0.9 -7.4 -1.85 Q-7.85 -2.15 -8.05 -3.0 L-8.1 -3.35 -7.75 -3.5 -7.5 -2.65 -6.6 -1.3 Q-6.1 -0.85 -5.45 -0.65 -4.65 -0.45 -4.2 -1.0 L-3.2 -1.6 Q-2.7 -2.0 -2.6 -2.65 L-2.55 -3.2 M9.1 -58.85 L8.45 -58.7 Q6.9 -58.55 6.35 -57.25 L6.25 -57.15 5.85 -56.3 Q5.75 -55.55 6.35 -55.35 6.45 -55.25 6.65 -55.2 L7.05 -54.9 8.75 -55.15 9.35 -54.95 9.35 -54.9 8.7 -54.45 8.65 -54.35 8.6 -54.25 8.6 -54.1 8.6 -54.05 8.7 -53.95 8.9 -53.9 9.15 -53.95 9.95 -54.0 10.9 -53.65 10.95 -53.55 10.9 -53.4 10.75 -53.25 9.65 -53.5 9.85 -53.35 9.9 -53.35 9.9 -53.3 9.95 -53.25 10.05 -53.25 10.45 -52.95 10.75 -52.7 11.25 -52.4 11.75 -51.85 Q12.05 -51.5 12.35 -51.6 L13.0 -51.65 13.9 -52.55 13.95 -52.7 14.0 -53.0 14.1 -53.5 14.15 -54.2 14.1 -54.3 14.05 -54.85 13.7 -56.1 Q13.35 -57.3 12.15 -58.15 L11.9 -58.25 Q11.35 -58.65 10.65 -58.85 L10.4 -58.95 10.25 -58.95 9.3 -58.85 9.1 -58.85 M13.1 -37.25 L13.15 -37.25 13.1 -37.25 M-11.05 -51.6 Q-10.8 -51.5 -10.45 -51.85 L-9.95 -52.4 -9.45 -52.7 -9.15 -52.95 -8.75 -53.25 -8.65 -53.25 -8.6 -53.3 -8.6 -53.35 -8.55 -53.35 -8.35 -53.5 -8.45 -53.45 -8.75 -53.4 -9.0 -53.35 -9.15 -53.3 -9.45 -53.25 -9.6 -53.4 -9.65 -53.55 -9.6 -53.6 -9.6 -53.65 -8.65 -54.0 -7.85 -53.95 -7.75 -53.9 -7.6 -53.9 -7.4 -53.95 -7.3 -54.05 -7.3 -54.1 -7.25 -54.15 -7.3 -54.25 -7.35 -54.35 -7.4 -54.45 -8.05 -54.9 -8.05 -54.95 -7.45 -55.15 -7.15 -55.2 -6.75 -55.2 -6.7 -55.2 -5.75 -54.9 -5.65 -54.95 -5.55 -55.0 -5.35 -55.2 -5.05 -55.35 Q-4.5 -55.55 -4.55 -56.3 L-4.95 -57.15 -5.05 -57.25 Q-5.65 -58.55 -7.15 -58.7 L-7.8 -58.85 -8.0 -58.85 -8.95 -58.95 -9.1 -58.95 -9.35 -58.85 -10.6 -58.25 -10.85 -58.15 Q-12.05 -57.3 -12.4 -56.1 L-12.7 -55.4 -12.75 -54.85 -12.8 -54.3 -12.85 -54.2 -12.8 -53.5 -12.7 -53.0 -12.65 -52.7 -12.6 -52.55 -11.7 -51.65 -11.15 -51.6 -11.05 -51.6 M-8.0 -53.45 L-7.95 -53.5 -8.05 -53.45 -8.0 -53.45"
         fill="#ff9933"
         fill-rule="evenodd"
         stroke="none"
         id="path3-46" /><path
         d="M-6.9 -8.35 L-9.25 -8.35 -9.55 -8.45 -10.25 -9.25 Q-12.25 -12.35 -11.75 -22.0 -11.2 -33.15 -8.75 -35.4 -6.35 -37.75 6.05 -37.05 10.4 -36.85 12.35 -36.15 14.8 -35.3 14.2 -33.7 L14.2 -33.6 Q13.05 -32.95 13.25 -32.2 L13.25 -31.9 12.7 -31.4 12.45 -31.2 12.45 -30.75 12.45 -30.2 13.05 -21.2 Q13.9 -11.2 8.35 -8.55 L7.95 -8.4 7.75 -8.35 3.55 -8.3 1.3 -8.35 -2.55 -8.35 -3.95 -8.35 -4.0 -8.35 -6.7 -8.4 -6.9 -8.35 M9.1 -58.85 L9.3 -58.85 10.25 -58.95 10.4 -58.95 10.65 -58.85 Q11.35 -58.65 11.9 -58.25 L12.15 -58.15 Q13.35 -57.3 13.7 -56.1 L14.05 -54.85 14.1 -54.3 14.15 -54.2 14.1 -53.5 14.0 -53.0 13.95 -52.7 13.9 -52.55 13.0 -51.65 12.35 -51.6 Q12.05 -51.5 11.75 -51.85 L11.25 -52.4 10.75 -52.7 10.45 -52.95 10.05 -53.25 9.95 -53.25 9.9 -53.3 9.9 -53.35 9.85 -53.35 9.65 -53.5 10.75 -53.25 10.9 -53.4 10.95 -53.55 10.9 -53.65 9.95 -54.0 9.15 -53.95 8.9 -53.9 8.7 -53.95 8.6 -54.05 8.6 -54.1 8.6 -54.25 8.65 -54.35 8.7 -54.45 9.35 -54.9 9.35 -54.95 8.75 -55.15 7.05 -54.9 6.65 -55.2 Q6.45 -55.25 6.35 -55.35 5.75 -55.55 5.85 -56.3 L6.25 -57.15 6.35 -57.25 Q6.9 -58.55 8.45 -58.7 L9.1 -58.85 M-11.15 -51.6 L-11.7 -51.65 -12.6 -52.55 -12.65 -52.7 -12.7 -53.0 -12.8 -53.5 -12.85 -54.2 -12.8 -54.3 -12.75 -54.85 -12.7 -55.4 -12.4 -56.1 Q-12.05 -57.3 -10.85 -58.15 L-10.6 -58.25 -9.35 -58.85 -9.1 -58.95 -8.95 -58.95 -8.0 -58.85 -7.8 -58.85 -7.15 -58.7 Q-5.65 -58.55 -5.05 -57.25 L-4.95 -57.15 -4.55 -56.3 Q-4.5 -55.55 -5.05 -55.35 L-5.35 -55.2 -5.55 -55.0 -5.65 -54.95 -5.75 -54.9 -6.7 -55.2 -6.75 -55.2 -7.15 -55.2 -7.45 -55.15 -8.05 -54.95 -8.05 -54.9 -7.4 -54.45 -7.35 -54.35 -7.3 -54.25 -7.25 -54.15 -7.3 -54.1 -7.3 -54.05 -7.4 -53.95 -7.6 -53.9 -7.75 -53.9 -7.85 -53.95 -8.65 -54.0 -9.6 -53.65 -9.6 -53.6 -9.65 -53.55 -9.6 -53.4 -9.45 -53.25 -9.15 -53.3 -9.0 -53.35 -8.75 -53.4 -8.45 -53.45 -8.35 -53.5 -8.55 -53.35 -8.6 -53.35 -8.6 -53.3 -8.65 -53.25 -8.75 -53.25 -9.15 -52.95 -9.45 -52.7 -9.95 -52.4 -10.45 -51.85 Q-10.8 -51.5 -11.05 -51.6 L-11.15 -51.6"
         fill="#ffffff"
         fill-rule="evenodd"
         stroke="none"
         id="path4-26" /><path
         d="M-7.75 -6.35 L-7.5 -7.2 -7.1 -8.15 -6.9 -8.35 -6.7 -8.4 -4.0 -8.35 -3.95 -8.35 -2.55 -8.35 -2.05 -8.2 Q-1.65 -8.05 -1.85 -7.65 -1.95 -7.35 -2.25 -7.35 L-2.45 -7.35 -2.45 -6.2 -2.45 -5.7 Q-2.15 -4.65 -2.5 -3.45 L-2.55 -3.2 -2.6 -2.65 Q-2.7 -2.0 -3.2 -1.6 L-4.2 -1.0 Q-4.65 -0.45 -5.45 -0.65 -6.1 -0.85 -6.6 -1.3 L-7.5 -2.65 -7.75 -3.5 -7.85 -4.0 Q-8.0 -5.2 -7.75 -6.35 M6.2 -7.7 L5.95 -7.45 5.8 -7.45 5.8 -7.05 5.75 -6.75 5.75 -6.65 5.65 -6.05 Q5.75 -3.85 5.5 -1.75 L5.35 -1.45 Q5.0 -1.2 4.6 -1.1 L4.2 -1.05 4.15 -1.05 2.5 -1.2 Q1.9 -1.35 1.5 -1.7 1.05 -2.1 0.85 -2.65 0.4 -3.8 0.4 -5.05 L0.5 -6.4 0.7 -7.6 0.85 -7.8 0.85 -8.0 1.3 -8.35 3.55 -8.3 5.8 -8.25 Q6.25 -8.25 6.2 -7.8 L6.2 -7.7"
         fill="#ffded2"
         fill-rule="evenodd"
         stroke="none"
         id="path5-7" /><path
         d="M5.2 -54.45 L3.95 -54.9 0.4 -55.25 -0.65 -55.05 -2.45 -54.45 M12.7 -49.85 Q15.0 -49.8 15.65 -52.05 16.35 -54.85 14.7 -57.3 13.0 -59.8 10.2 -60.2 7.15 -60.65 5.2 -58.55 3.75 -57.05 3.95 -54.9 M12.75 -32.6 L13.8 -33.15 Q16.1 -34.8 16.7 -37.3 17.3 -40.05 16.0 -42.45 L13.45 -47.0 12.7 -48.35 11.75 -50.05 10.8 -51.65 M12.6 -31.7 Q13.4 -29.15 13.55 -26.4 L13.95 -21.1 14.1 -15.45 13.55 -12.65 12.4 -10.45 Q10.9 -8.3 8.3 -7.6 L5.8 -7.2 M-11.2 -50.05 Q-13.55 -50.0 -14.15 -52.25 -14.9 -55.05 -13.2 -57.5 -11.55 -60.0 -8.7 -60.4 L-6.2 -60.3 Q-4.8 -59.9 -3.7 -58.75 -2.3 -57.25 -2.45 -55.1 M-11.45 -49.45 L-12.1 -48.35 Q-13.05 -46.6 -13.6 -44.6 L-14.65 -39.2 -15.15 -33.65 Q-15.3 -30.9 -15.6 -28.2 L-16.2 -22.7 -16.6 -17.4 Q-16.7 -14.6 -15.75 -11.95 -14.9 -9.4 -12.75 -7.8 -10.5 -6.95 -8.1 -6.7"
         fill="none"
         stroke="#4f1d17"
         stroke-linecap="round"
         stroke-linejoin="round"
         stroke-width="1.0"
         id="path6-5" /></g><g
       id="sprite0-69"
       transform="matrix(1.0, 0.0, 0.0, 1.0, 10.3, 2.65)"><use
         height="5.3"
         transform="matrix(1.0, 0.0, 0.0, 1.0, -10.3, -2.65)"
         width="5.3"
         xlink:href="#sprite1"
         id="use6" /><use
         height="5.3"
         transform="matrix(1.0, 0.0, 0.0, 1.0, 5.0, -2.65)"
         width="5.3"
         xlink:href="#sprite1"
         id="use7" /></g><g
       id="sprite1"
       transform="matrix(1.0, 0.0, 0.0, 1.0, 2.65, 2.65)"><use
         height="5.3"
         transform="matrix(1.0, 0.0, 0.0, 1.0, -2.65, -2.65)"
         width="5.3"
         xlink:href="#shape1-87"
         id="use8" /></g><g
       id="shape1-87"
       transform="matrix(1.0, 0.0, 0.0, 1.0, 2.65, 2.65)"><path
         d="M-2.15 0.0 Q-2.15 0.9 -1.5 1.5 -0.9 2.15 0.0 2.15 0.9 2.15 1.5 1.5 2.15 0.9 2.15 0.0 2.15 -0.9 1.5 -1.55 0.9 -2.15 0.0 -2.15 -0.9 -2.15 -1.5 -1.55 -2.15 -0.9 -2.15 0.0"
         fill="url(#gradient0)"
         fill-rule="evenodd"
         stroke="none"
         id="path8-2"
         style="fill:url(#gradient0-99)" /><path
         d="M-2.15 0.0 Q-2.15 0.9 -1.5 1.5 -0.9 2.15 0.0 2.15 0.9 2.15 1.5 1.5 2.15 0.9 2.15 0.0 2.15 -0.9 1.5 -1.55 0.9 -2.15 0.0 -2.15 -0.9 -2.15 -1.5 -1.55 -2.15 -0.9 -2.15 0.0 Z"
         fill="none"
         stroke="#000000"
         stroke-linecap="round"
         stroke-linejoin="round"
         stroke-width="1.0"
         id="path9-82" /></g><radialGradient
       cx="0"
       cy="0"
       gradientTransform="matrix(-0.004, 0.0, 0.0, 0.0041, -0.85, -0.8)"
       gradientUnits="userSpaceOnUse"
       id="gradient0-99"
       r="819.2"
       spreadMethod="pad"><stop
         offset="0.00392156862745098"
         stop-color="#ffffff"
         id="stop9" /><stop
         offset="0.29411764705882354"
         stop-color="#000000"
         id="stop10" /></radialGradient><g
       id="shape2-6"
       transform="matrix(1.0, 0.0, 0.0, 1.0, 9.65, 36.85)"><path
         d="M11.05 -34.4 Q8.25 -32.95 6.35 -34.75 3.5 -33.35 0.4 -33.6 L-1.4 -33.7"
         fill="none"
         stroke="#4f1d17"
         stroke-linecap="round"
         stroke-linejoin="round"
         stroke-width="1.0"
         id="path10-0" /><path
         d="M-9.65 -35.5 L-8.9 -33.95 -8.15 -33.95 -8.7 -35.4 -8.15 -35.4 -8.15 -36.85 -9.65 -36.85 -9.65 -35.5 M-6.8 -36.85 L-6.8 -35.5 -6.05 -33.95 -5.3 -33.95 -5.85 -35.4 -5.3 -35.4 -5.3 -36.85 -6.8 -36.85"
         fill="#000000"
         fill-rule="evenodd"
         stroke="none"
         id="path11-27" /><path
         d="M5.4 -9.55 L6.95 -9.55 6.95 -2.95 Q6.95 -1.7 6.15 -0.9 5.25 0.0 3.35 0.0 1.5 0.0 0.6 -0.9 -0.2 -1.7 -0.2 -2.95 L-0.2 -9.55 1.3 -9.55 1.3 -3.0 Q1.3 -2.3 1.75 -1.85 2.3 -1.3 3.35 -1.3 4.45 -1.3 5.0 -1.85 5.4 -2.3 5.4 -3.0 L5.4 -9.55"
         fill="#4f1d17"
         fill-rule="evenodd"
         stroke="none"
         id="path12-6" /><path
         d="M-2.6 -9.55 L-1.05 -9.55 -1.05 -2.95 Q-1.05 -1.7 -1.85 -0.9 -2.75 0.0 -4.65 0.0 -6.5 0.0 -7.4 -0.9 -8.2 -1.7 -8.2 -2.95 L-8.2 -9.55 -6.7 -9.55 -6.7 -3.0 Q-6.7 -2.3 -6.25 -1.85 -5.7 -1.3 -4.65 -1.3 -3.55 -1.3 -3.0 -1.85 -2.6 -2.3 -2.6 -3.0 L-2.6 -9.55"
         fill="#4f1d17"
         fill-rule="evenodd"
         stroke="none"
         id="path13-1" /><path
         d="M0.3 -33.05 Q0.9 -34.25 2.15 -35.0 L2.6 -34.65 4.75 -32.8 Q7.45 -28.6 6.95 -23.6 6.25 -23.2 5.35 -22.9 L4.45 -22.75 Q4.5 -27.45 0.3 -33.05"
         fill="url(#gradient1)"
         fill-rule="evenodd"
         stroke="none"
         id="path14-3"
         style="fill:url(#gradient1-9)" /><path
         d="M4.75 -32.8 Q11.65 -26.25 6.95 -23.6 7.45 -28.6 4.75 -32.8"
         fill="url(#gradient2)"
         fill-rule="evenodd"
         stroke="none"
         id="path15"
         style="fill:url(#gradient2-0)" /><path
         d="M4.45 -22.75 L3.35 -22.75 Q-1.45 -23.0 -0.1 -31.95 L0.3 -33.05 Q4.5 -27.45 4.45 -22.75"
         fill="url(#gradient3)"
         fill-rule="evenodd"
         stroke="none"
         id="path16"
         style="fill:url(#gradient3-7)" /><path
         d="M0.3 -33.05 Q0.9 -34.25 2.15 -35.0 L2.6 -34.65 4.75 -32.8 Q11.65 -26.25 6.95 -23.6 6.25 -23.2 5.35 -22.9 L4.45 -22.75 3.35 -22.75 Q-1.45 -23.0 -0.1 -31.95 L0.3 -33.05 Q4.5 -27.45 4.45 -22.75 M4.75 -32.8 Q7.45 -28.6 6.95 -23.6"
         fill="none"
         stroke="#4f1d17"
         stroke-linecap="round"
         stroke-linejoin="round"
         stroke-width="1.0"
         id="path17-21" /><path
         d="M-1.25 -27.6 L-2.5 -28.1 -2.0 -29.2 0.6 -27.95 0.85 -27.85 0.95 -27.8 1.25 -27.6 2.7 -26.5 2.75 -26.5 Q3.6 -25.6 3.7 -24.55 3.75 -23.15 2.3 -21.8 0.85 -20.5 -0.85 -20.75 -2.45 -21.05 -4.15 -22.7 L-3.55 -23.6 Q-2.25 -22.3 -1.15 -21.95 L-1.1 -21.9 -0.65 -21.8 -0.4 -21.8 -0.1 -21.8 0.2 -21.8 0.35 -21.85 0.75 -21.95 0.8 -21.95 1.25 -22.25 1.3 -22.3 1.35 -22.3 1.5 -22.4 1.5 -22.45 1.9 -22.8 1.95 -22.85 2.0 -22.95 2.15 -23.1 2.25 -23.2 2.25 -23.25 2.5 -23.7 2.65 -24.35 2.65 -24.6 2.25 -25.55 2.15 -25.7 1.95 -25.9 1.75 -26.05 0.45 -26.9 0.25 -27.0 0.15 -27.05 -0.05 -27.15 -0.35 -27.25 -0.5 -27.3 -1.25 -27.6"
         fill="#4f1d17"
         fill-rule="evenodd"
         stroke="none"
         id="path18-5" /><path
         d="M-1.15 -21.95 Q-1.65 -22.25 -1.7 -23.0 L-1.45 -23.35 Q-1.65 -24.05 -1.45 -24.9 L-1.1 -25.8 -1.05 -25.9 -1.3 -26.05 -1.45 -26.65 Q-1.6 -26.9 -1.35 -27.1 L-1.25 -27.6 -0.5 -27.3 -0.35 -27.25 -0.05 -27.15 0.15 -27.05 0.25 -27.0 0.45 -26.9 1.75 -26.05 1.95 -25.9 2.15 -25.7 2.25 -25.55 2.65 -24.6 2.5 -23.7 2.25 -23.25 2.25 -23.2 2.15 -23.1 2.0 -22.95 1.95 -22.85 1.9 -22.8 1.5 -22.45 1.5 -22.4 1.35 -22.3 1.3 -22.3 1.25 -22.25 0.8 -21.95 0.75 -21.95 0.35 -21.85 0.2 -21.8 -0.1 -21.8 -0.4 -21.8 -0.65 -21.8 -1.1 -21.9 -1.15 -21.95 M-1.0 -25.4 L-1.1 -24.65 Q-1.15 -23.95 -0.65 -23.6 -0.45 -23.45 -0.25 -23.6 L0.1 -24.05 -0.4 -24.5 -0.7 -24.85 -1.0 -25.4"
         fill="#ffffff"
         fill-rule="evenodd"
         stroke="none"
         id="path19-99" /><path
         d="M9.2 -27.5 L9.15 -27.5 8.55 -27.25 8.1 -27.1 8.05 -27.05 6.05 -25.7 Q5.45 -25.05 5.55 -24.35 5.55 -23.55 6.3 -22.8 7.2 -21.8 8.3 -21.8 9.4 -21.7 10.8 -22.75 L11.7 -23.6 12.3 -22.7 Q10.6 -21.05 9.05 -20.75 7.3 -20.5 5.85 -21.8 4.4 -23.15 4.5 -24.55 4.55 -25.6 5.45 -26.5 L7.35 -27.85 10.2 -29.2 10.7 -28.1 9.2 -27.5"
         fill="#4f1d17"
         fill-rule="evenodd"
         stroke="none"
         id="path20-1" /><path
         d="M10.8 -22.75 Q9.4 -21.7 8.3 -21.8 7.2 -21.8 6.3 -22.8 5.55 -23.55 5.55 -24.35 5.45 -25.05 6.05 -25.7 L8.05 -27.05 8.1 -27.1 8.55 -27.25 9.15 -27.5 9.2 -27.5 Q11.05 -26.9 11.0 -24.55 L10.85 -23.15 10.8 -22.75"
         fill="#ffffff"
         fill-rule="evenodd"
         stroke="none"
         id="path21-4" /></g><radialGradient
       cx="0"
       cy="0"
       gradientTransform="matrix(0.0122, -0.0031, 0.0031, 0.0122, 5.05, -25.1)"
       gradientUnits="userSpaceOnUse"
       id="gradient1-9"
       r="819.2"
       spreadMethod="pad"><stop
         offset="0.0"
         stop-color="#f3e2c0"
         id="stop21-1" /><stop
         offset="1.0"
         stop-color="#ffffff"
         id="stop22" /></radialGradient><radialGradient
       cx="0"
       cy="0"
       gradientTransform="matrix(0.0134, -0.0034, 0.0034, 0.0134, 8.65, -22.15)"
       gradientUnits="userSpaceOnUse"
       id="gradient2-0"
       r="819.2"
       spreadMethod="pad"><stop
         offset="0.0"
         stop-color="#624413"
         id="stop23" /><stop
         offset="1.0"
         stop-color="#ae7c29"
         id="stop24" /></radialGradient><radialGradient
       cx="0"
       cy="0"
       gradientTransform="matrix(0.0108, -0.0027, 0.0027, 0.0108, 0.6, -30.4)"
       gradientUnits="userSpaceOnUse"
       id="gradient3-7"
       r="819.2"
       spreadMethod="pad"><stop
         offset="0.0"
         stop-color="#624413"
         id="stop25" /><stop
         offset="1.0"
         stop-color="#ae7c29"
         id="stop26" /></radialGradient><g
       id="shape0-21"
       transform="matrix(1.0, 0.0, 0.0, 1.0, 19.3, 61.9)"><path
         d="M-7.85 -7.0 Q-8.0 -7.35 -8.4 -7.4 L-9.6 -7.45 -11.95 -9.8 -12.85 -11.0 -12.85 -12.35 Q-12.7 -15.15 -13.7 -17.25 -13.5 -17.35 -13.55 -17.6 -13.65 -18.55 -14.75 -18.35 L-15.85 -18.45 -17.15 -18.9 -17.2 -18.85 -17.85 -20.7 -18.25 -22.35 Q-18.65 -25.45 -18.55 -28.55 -18.45 -31.45 -16.85 -33.05 L-16.3 -36.65 -16.25 -36.8 -16.3 -38.2 -16.2 -38.3 Q-15.7 -39.15 -16.1 -39.65 -15.85 -40.2 -15.95 -40.9 L-15.95 -41.05 -15.95 -41.75 -16.05 -42.05 -15.95 -42.15 Q-15.3 -43.2 -16.15 -43.75 L-15.65 -44.9 -15.65 -45.25 Q-15.75 -48.0 -14.45 -50.45 L-13.95 -51.3 -13.9 -52.0 -13.75 -52.25 Q-11.15 -55.4 -8.95 -58.6 L-8.55 -58.8 -7.6 -58.4 Q-3.25 -61.6 3.15 -61.2 6.8 -61.35 10.05 -59.5 15.55 -56.45 16.25 -50.9 16.6 -50.0 16.55 -48.85 16.5 -47.8 16.6 -46.7 16.9 -42.5 15.55 -38.8 L15.7 -36.7 15.75 -36.65 16.5 -34.75 17.9 -29.95 Q18.5 -28.05 18.5 -26.3 L18.65 -25.6 Q18.95 -24.0 18.75 -22.6 L17.25 -21.65 17.2 -21.65 16.9 -21.75 16.75 -21.65 16.7 -21.7 Q15.85 -21.3 15.45 -20.9 15.45 -29.4 14.2 -34.7 L14.4 -34.8 Q14.75 -35.1 14.5 -35.45 L14.15 -35.7 13.85 -35.65 13.2 -35.65 10.4 -35.9 Q5.05 -36.55 -4.05 -34.9 L-4.3 -34.75 -4.45 -34.45 Q-6.3 -21.85 -5.45 -14.7 -5.05 -11.4 -3.1 -9.8 L-2.45 -9.35 Q-0.05 -7.8 4.4 -8.55 L4.6 -8.5 4.7 -8.5 Q8.4 -8.35 10.75 -9.2 L10.7 -9.2 12.55 -9.8 13.35 -10.1 13.2 -9.85 13.15 -9.8 12.95 -9.55 12.85 -9.5 12.5 -9.15 12.4 -9.05 Q11.8 -8.35 10.9 -8.1 L10.6 -8.0 9.35 -8.0 9.35 -7.75 9.85 -7.25 4.65 -7.15 4.65 -7.1 4.65 -6.95 4.65 -6.55 4.45 -6.5 Q4.2 -7.0 4.55 -7.4 L4.4 -7.5 4.2 -7.75 4.15 -7.8 4.05 -7.8 4.1 -7.7 Q4.35 -7.15 3.8 -6.95 L3.3 -6.9 Q2.85 -6.75 2.2 -7.25 L2.05 -7.35 1.35 -7.75 0.4 -7.15 -0.3 -7.0 -1.45 -6.8 -1.5 -6.8 -1.45 -6.6 Q-2.3 -6.6 -2.4 -7.4 L-2.45 -7.4 -2.5 -7.15 -2.55 -7.1 -4.55 -7.05 -4.65 -7.1 -7.45 -7.0 -7.3 -7.25 -7.0 -7.7 -7.0 -7.75 -7.05 -7.8 -7.1 -7.8 -7.25 -7.7 -7.35 -7.7 -7.35 -7.6 -7.8 -7.1 -7.85 -7.0 M15.45 -19.6 L16.1 -19.0 15.55 -16.85 15.55 -18.1 15.45 -18.85 15.45 -19.6 M15.75 -16.0 L15.85 -16.0 15.75 -15.7 15.75 -16.0"
         fill="#0033cc"
         fill-rule="evenodd"
         stroke="none"
         id="path2-7" /><path
         d="M13.35 -10.1 L12.55 -9.8 10.7 -9.2 10.75 -9.2 Q8.4 -8.35 4.7 -8.5 L4.6 -8.5 4.4 -8.55 Q-0.05 -7.8 -2.45 -9.35 L-3.1 -9.8 Q-5.05 -11.4 -5.45 -14.7 -6.3 -21.85 -4.45 -34.45 L-4.3 -34.75 -4.05 -34.9 Q5.05 -36.55 10.4 -35.9 L13.2 -35.65 13.85 -35.65 14.15 -35.7 14.5 -35.45 Q14.75 -35.1 14.4 -34.8 L14.2 -34.7 Q15.45 -29.4 15.45 -20.9 14.9 -20.3 15.45 -19.6 L15.45 -18.85 15.55 -18.1 15.55 -16.85 15.75 -16.25 15.75 -16.0 15.75 -15.7 15.45 -14.35 15.75 -14.6 14.9 -12.7 14.95 -12.7 15.3 -12.7 15.6 -12.4 15.55 -12.05 Q15.2 -11.2 14.15 -10.5 L14.1 -10.5 13.35 -10.1"
         fill="#ffffff"
         fill-rule="evenodd"
         stroke="none"
         id="path3-8" /><path
         d="M-7.85 -7.0 L-7.8 -7.1 -7.35 -7.6 -7.25 -7.7 -7.1 -7.8 -7.05 -7.8 -7.0 -7.75 -7.0 -7.7 -7.3 -7.25 -7.45 -7.0 -4.65 -7.1 -4.55 -7.05 -2.55 -7.1 -2.5 -7.1 -2.5 -6.9 -2.5 -6.85 -2.5 -6.75 -2.35 -6.8 -2.35 -4.9 -2.35 -4.35 -2.35 -3.85 -2.35 -3.75 -2.35 -3.6 -2.35 -3.55 -2.45 -3.55 -2.7 -2.6 Q-3.15 -1.5 -4.2 -0.9 L-4.9 -0.6 Q-5.75 -0.3 -6.25 -0.6 -6.9 -0.95 -7.1 -2.2 L-7.35 -2.6 -7.55 -3.1 -8.15 -3.1 -8.15 -3.5 -8.15 -5.95 -8.15 -6.1 -8.15 -6.15 -8.0 -6.15 -8.0 -6.8 -8.0 -6.9 -8.0 -7.0 -7.85 -7.0 M4.4 -7.5 L4.55 -7.4 Q4.2 -7.0 4.45 -6.5 L4.65 -6.55 4.65 -6.95 4.65 -7.1 4.65 -7.15 9.85 -7.25 10.1 -7.25 10.1 -7.15 10.1 -6.2 Q10.4 -5.6 10.2 -5.2 L10.15 -2.6 10.05 -2.05 9.55 -1.0 8.7 -0.6 8.35 -0.45 7.2 -0.4 6.75 -0.4 6.15 -0.55 6.15 -0.6 Q5.95 -0.9 5.9 -1.3 5.25 -1.05 4.75 -1.9 L4.4 -2.6 4.25 -3.2 Q4.1 -4.05 4.3 -4.7 L4.3 -6.3 4.3 -6.35 Q4.15 -7.05 4.4 -7.5"
         fill="#ffcc33"
         fill-rule="evenodd"
         stroke="none"
         id="path4-5" /><path
         d="M15.9 -52.05 Q15.5 -53.95 14.35 -55.6 13.2 -57.25 11.7 -58.4 10.05 -59.75 8.1 -60.5 6.15 -61.2 4.1 -61.35 2.05 -61.5 0.05 -61.3 L-3.8 -60.55 Q-5.7 -60.05 -7.3 -59.0 -9.1 -57.95 -10.55 -56.5 L-13.1 -53.35 Q-14.2 -51.65 -14.8 -49.8 -15.4 -47.95 -15.65 -46.1 -15.95 -44.3 -15.8 -41.3 M15.75 -37.6 L19.1 -25.4 19.1 -25.05 19.1 -24.35 18.75 -23.15 Q17.8 -21.5 15.9 -21.25 M-15.4 -40.1 L-16.3 -37.15 Q-17.5 -33.35 -18.55 -26.55 -19.7 -19.85 -15.95 -18.85 L-15.8 -18.8 -13.1 -18.85 Q-8.25 -20.45 -6.0 -33.2"
         fill="none"
         stroke="#4f1d17"
         stroke-linecap="round"
         stroke-linejoin="round"
         stroke-width="1.0"
         id="path5-74" /><path
         d="M14.3 -34.9 L14.8 -30.95 15.55 -22.3 15.85 -18.8 Q16.45 -12.2 13.2 -10.2 M-13.1 -18.85 Q-14.15 -7.0 -6.75 -7.3"
         fill="none"
         stroke="#4f1d17"
         stroke-linecap="round"
         stroke-linejoin="round"
         stroke-width="1.0"
         id="path6-18" /><path
         d="M8.05 -40.2 L10.45 -42.5 16.8 -39.0 8.05 -40.2 16.8 -39.0 9.25 -37.95 8.05 -40.2"
         fill="#ffcc33"
         fill-rule="evenodd"
         stroke="none"
         id="path7-5" /><path
         d="M16.8 -39.0 L10.45 -42.5 8.05 -40.2 16.8 -39.0 9.25 -37.95 8.05 -40.2"
         fill="none"
         stroke="#4f1d17"
         stroke-linecap="round"
         stroke-linejoin="round"
         stroke-width="1.0"
         id="path8-9" /><path
         d="M4.6 -0.9 Q3.75 -1.7 3.8 -2.95 L3.8 -9.55 5.3 -9.55 5.3 -3.0 5.5 -2.15 5.7 -1.85 5.75 -1.85 Q6.25 -1.3 7.35 -1.3 8.45 -1.3 9.0 -1.85 L9.1 -1.95 9.4 -3.0 9.4 -9.55 10.95 -9.55 10.95 -8.65 10.95 -8.2 10.95 -2.95 Q10.95 -1.7 10.15 -0.9 9.25 0.0 7.35 0.0 5.45 0.0 4.6 -0.9"
         fill="#4f1d17"
         fill-rule="evenodd"
         stroke="none"
         id="path9-7" /><path
         d="M-2.95 -9.6 L-1.4 -9.6 -1.4 -3.0 Q-1.4 -1.75 -2.2 -0.95 -3.15 -0.05 -5.05 -0.05 -6.9 -0.05 -7.8 -0.95 -8.6 -1.75 -8.6 -3.0 L-8.6 -9.6 -7.1 -9.6 -7.1 -3.05 Q-7.1 -2.35 -6.65 -1.9 L-6.05 -1.5 -5.05 -1.35 -4.05 -1.5 -3.35 -1.9 Q-2.95 -2.35 -2.95 -3.05 L-2.95 -9.6"
         fill="#4f1d17"
         fill-rule="evenodd"
         stroke="none"
         id="path10-53" /></g><g
       id="sprite0-8"
       transform="matrix(1.0, 0.0, 0.0, 1.0, 8.6, 51.2)"><use
         height="9.9"
         transform="matrix(1.0, 0.0, 0.0, 1.0, -8.1, -51.2)"
         width="26.0"
         xlink:href="#shape1-83"
         id="use10" /></g><g
       id="shape1-83"
       transform="matrix(1.0, 0.0, 0.0, 1.0, 8.1, 51.2)"><path
         d="M-6.3 -43.1 Q-5.0 -41.8 -3.1 -41.8 -1.25 -41.8 0.05 -43.1 1.35 -44.4 1.35 -46.25 1.35 -48.1 0.05 -49.4 -1.25 -50.7 -3.1 -50.7 -5.0 -50.7 -6.3 -49.4 -7.6 -48.1 -7.6 -46.25 -7.6 -44.4 -6.3 -43.1"
         fill="#ffffff"
         fill-rule="evenodd"
         stroke="none"
         id="path11-1" /><path
         d="M-6.3 -43.1 Q-5.0 -41.8 -3.1 -41.8 -1.25 -41.8 0.05 -43.1 1.35 -44.4 1.35 -46.25 1.35 -48.1 0.05 -49.4 -1.25 -50.7 -3.1 -50.7 -5.0 -50.7 -6.3 -49.4 -7.6 -48.1 -7.6 -46.25 -7.6 -44.4 -6.3 -43.1 Z"
         fill="none"
         stroke="#000000"
         stroke-linecap="round"
         stroke-linejoin="round"
         stroke-width="1.0"
         id="path12-89" /><path
         d="M-1.2 -48.0 Q-2.0 -48.8 -3.1 -48.8 -4.2 -48.8 -5.0 -48.0 -5.8 -47.2 -5.8 -46.1 -5.8 -45.0 -5.0 -44.2 -4.2 -43.4 -3.1 -43.4 -2.0 -43.4 -1.2 -44.2 -0.4 -45.0 -0.4 -46.1 -0.4 -47.2 -1.2 -48.0"
         fill="#000000"
         fill-rule="evenodd"
         stroke="none"
         id="path13-64" /><path
         d="M-1.2 -48.0 Q-2.0 -48.8 -3.1 -48.8 -4.2 -48.8 -5.0 -48.0 -5.8 -47.2 -5.8 -46.1 -5.8 -45.0 -5.0 -44.2 -4.2 -43.4 -3.1 -43.4 -2.0 -43.4 -1.2 -44.2 -0.4 -45.0 -0.4 -46.1 -0.4 -47.2 -1.2 -48.0 Z"
         fill="none"
         stroke="#000000"
         stroke-linecap="round"
         stroke-linejoin="round"
         stroke-width="1.0"
         id="path14-33" /><path
         d="M14.05 -43.3 Q14.6 -42.2 15.45 -42.2 16.25 -42.2 16.85 -43.3 17.4 -44.45 17.4 -46.05 17.4 -47.65 16.85 -48.75 16.25 -49.9 15.45 -49.9 14.6 -49.9 14.05 -48.75 13.45 -47.65 13.45 -46.05 13.45 -44.45 14.05 -43.3"
         fill="#ffffff"
         fill-rule="evenodd"
         stroke="none"
         id="path15-3" /><path
         d="M14.05 -43.3 Q14.6 -42.2 15.45 -42.2 16.25 -42.2 16.85 -43.3 17.4 -44.45 17.4 -46.05 17.4 -47.65 16.85 -48.75 16.25 -49.9 15.45 -49.9 14.6 -49.9 14.05 -48.75 13.45 -47.65 13.45 -46.05 13.45 -44.45 14.05 -43.3 Z"
         fill="none"
         stroke="#000000"
         stroke-linecap="round"
         stroke-linejoin="round"
         stroke-width="1.0"
         id="path16-8" /><path
         d="M16.25 -47.65 L15.4 -48.35 Q14.9 -48.35 14.55 -47.65 14.2 -46.95 14.2 -46.0 14.2 -45.05 14.55 -44.4 14.9 -43.7 15.4 -43.7 15.9 -43.7 16.25 -44.4 16.6 -45.05 16.6 -46.0 16.6 -46.95 16.25 -47.65"
         fill="#000000"
         fill-rule="evenodd"
         stroke="none"
         id="path17-6" /><path
         d="M16.25 -47.65 L15.4 -48.35 Q14.9 -48.35 14.55 -47.65 14.2 -46.95 14.2 -46.0 14.2 -45.05 14.55 -44.4 14.9 -43.7 15.4 -43.7 15.9 -43.7 16.25 -44.4 16.6 -45.05 16.6 -46.0 16.6 -46.95 16.25 -47.65 Z"
         fill="none"
         stroke="#000000"
         stroke-linecap="round"
         stroke-linejoin="round"
         stroke-width="1.0"
         id="path18-04" /></g></defs><g
     transform="matrix(2.0613178,0,0,2.0613178,80.620962,142.217)"
     id="g2"><use
       height="61.900002"
       transform="translate(-19.3,-61.9)"
       width="38.900002"
       xlink:href="#shape0-21"
       id="use1-9" /><use
       height="9.8999996"
       transform="translate(-8.6,-51.25)"
       width="27"
       xlink:href="#sprite0-8"
       id="use2-6" /></g></svg>
