<?xml version="1.0" encoding="UTF-8" standalone="no"?>
<!DOCTYPE svg PUBLIC "-//W3C//DTD SVG 1.1//EN" "http://www.w3.org/Graphics/SVG/1.1/DTD/svg11.dtd">
<svg width="100%" height="100%" viewBox="0 0 66 52" version="1.1" xmlns="http://www.w3.org/2000/svg" xmlns:xlink="http://www.w3.org/1999/xlink" xml:space="preserve" xmlns:serif="http://www.serif.com/" style="fill-rule:evenodd;clip-rule:evenodd;stroke-linecap:square;stroke-miterlimit:2;">
    <g transform="matrix(0.24,0,0,0.24,-289.738508,-248.080562)">
        <g id="pachinko3-squiddy" serif:id="pachinko3 squiddy">
            <g id="Layer2" transform="matrix(1,0,0,1,-709.392566,-384.883201)">
                <g transform="matrix(0.894427,-0.447214,1.118034,0.559017,0,0)">
                    <rect x="-568.125" y="2214.733" width="5.625" height="8.267" style="fill:rgb(220,220,194);"/>
                    <path d="M-562.5,2214.733L-562.5,2223L-568.125,2223L-568.125,2214.733L-562.5,2214.733ZM-562.76,2214.941L-567.865,2214.941L-567.865,2222.792L-562.76,2222.792L-562.76,2214.941Z"/>
                </g>
                <g transform="matrix(0.714286,-0.357143,-0,0.773816,634.644008,991.487748)">
                    <path d="M1886.682,1448.972L1886.682,1461.976L1879.639,1461.976L1879.639,1520.491L1886.682,1520.491L1886.682,1553L1851.464,1553L1851.464,1448.972L1886.682,1448.972Z" style="fill:rgb(220,220,194);"/>
                    <path d="M1886.682,1448.972L1886.682,1461.976L1879.639,1461.976L1879.639,1520.491L1886.682,1520.491L1886.682,1553L1851.464,1553L1851.464,1448.972L1886.682,1448.972ZM1886.391,1449.273L1851.756,1449.273L1851.756,1552.699L1886.391,1552.699L1886.391,1520.792L1879.769,1520.792C1879.679,1520.792 1879.571,1520.738 1879.485,1520.65C1879.399,1520.561 1879.347,1520.45 1879.347,1520.357L1879.347,1461.841C1879.347,1461.739 1879.409,1461.675 1879.508,1461.675L1886.391,1461.675L1886.391,1449.273Z"/>
                </g>
                <g transform="matrix(0.894427,-0.447214,1.118034,0.559017,0,0)">
                    <rect x="-528.75" y="2137.5" width="28.125" height="36" style="fill:rgb(220,220,194);stroke:black;stroke-width:0.15px;"/>
                </g>
                <g transform="matrix(0.440793,-0.220397,0,0.440793,1941.242965,1497.230589)">
                    <path d="M47.662,81.3C47.192,80.974 46.293,80.556 45.351,80.233C43.67,79.658 42.028,79.669 40.564,81.395C40.889,81.69 41.209,81.985 41.761,82.268C41.257,82.848 40.967,83.239 40.601,83.698C43.602,84.871 45.191,83.861 46.238,82.868C46.934,82.206 47.468,81.62 47.678,81.395C47.71,81.358 47.695,81.329 47.662,81.3ZM48.029,80.44C48.296,79.112 48.773,77.667 48.69,76.532C48.549,74.596 47.395,73.958 46.56,73.431L45.538,75.058L43.997,74.058C43.88,74.902 43.801,76.154 44.946,78.188C45.68,79.491 47.236,80.336 47.914,80.512C47.994,80.529 48.002,80.505 48.029,80.44ZM48.78,80.436C48.893,80.033 49.396,78.301 49.81,77.575C51.062,75.378 53.227,75.107 54.078,75.355C54.043,75.856 53.988,76.164 53.967,76.85L55.207,76.909C54.997,78.179 54.682,79.595 52.114,80.259C51.135,80.511 49.271,80.521 48.844,80.52C48.759,80.523 48.774,80.476 48.78,80.436ZM48.666,81.712C48.918,81.549 50.058,80.943 52.442,81.514C54.135,81.919 55.353,83.338 56.08,84.208L54.319,84.848L54.749,86.605C53.575,86.666 52.012,86.802 49.999,84.553C49.301,83.774 48.759,82.203 48.638,81.831C48.605,81.752 48.628,81.738 48.666,81.712ZM47.862,82.412C48.116,82.548 48.986,83.162 49.312,85.287C49.726,88.002 48.135,89.097 47.36,89.803C47.077,89.391 46.828,88.958 46.613,88.507C46.163,88.841 45.699,89.157 45.223,89.454C45.218,89.481 44.404,87.349 46.083,84.458C46.477,83.779 47.489,82.698 47.737,82.436C47.784,82.392 47.823,82.396 47.862,82.412Z" style="fill:rgb(252,225,233);"/>
                </g>
                <g transform="matrix(0.440793,-0.220397,0,0.440793,1947.763077,1489.413979)">
                    <path d="M47.662,81.3C47.192,80.974 46.293,80.556 45.351,80.233C43.67,79.658 42.028,79.669 40.564,81.395C40.889,81.69 41.209,81.985 41.761,82.268C41.257,82.848 40.967,83.239 40.601,83.698C43.602,84.871 45.191,83.861 46.238,82.868C46.934,82.206 47.468,81.62 47.678,81.395C47.71,81.358 47.695,81.329 47.662,81.3ZM48.029,80.44C48.296,79.112 48.773,77.667 48.69,76.532C48.549,74.596 47.395,73.958 46.56,73.431L45.538,75.058L43.997,74.058C43.88,74.902 43.801,76.154 44.946,78.188C45.68,79.491 47.236,80.336 47.914,80.512C47.994,80.529 48.002,80.505 48.029,80.44ZM48.78,80.436C48.893,80.033 49.396,78.301 49.81,77.575C51.062,75.378 53.227,75.107 54.078,75.355C54.043,75.856 53.988,76.164 53.967,76.85L55.207,76.909C54.997,78.179 54.682,79.595 52.114,80.259C51.135,80.511 49.271,80.521 48.844,80.52C48.759,80.523 48.774,80.476 48.78,80.436ZM48.666,81.712C48.918,81.549 50.058,80.943 52.442,81.514C54.135,81.919 55.353,83.338 56.08,84.208L54.319,84.848L54.749,86.605C53.575,86.666 52.012,86.802 49.999,84.553C49.301,83.774 48.759,82.203 48.638,81.831C48.605,81.752 48.628,81.738 48.666,81.712ZM47.862,82.412C48.116,82.548 48.986,83.162 49.312,85.287C49.726,88.002 48.135,89.097 47.36,89.803C47.077,89.391 46.828,88.958 46.613,88.507C46.163,88.841 45.699,89.157 45.223,89.454C45.218,89.481 44.404,87.349 46.083,84.458C46.477,83.779 47.489,82.698 47.737,82.436C47.784,82.392 47.823,82.396 47.862,82.412Z" style="fill:rgb(252,225,233);"/>
                </g>
                <g transform="matrix(0.440793,-0.220397,0,0.440793,1956.722983,1420.808051)">
                    <path d="M47.662,81.3C47.192,80.974 46.293,80.556 45.351,80.233C43.67,79.658 42.028,79.669 40.564,81.395C40.889,81.69 41.209,81.985 41.761,82.268C41.257,82.848 40.967,83.239 40.601,83.698C43.602,84.871 45.191,83.861 46.238,82.868C46.934,82.206 47.468,81.62 47.678,81.395C47.71,81.358 47.695,81.329 47.662,81.3ZM48.029,80.44C48.296,79.112 48.773,77.667 48.69,76.532C48.549,74.596 47.395,73.958 46.56,73.431L45.538,75.058L43.997,74.058C43.88,74.902 43.801,76.154 44.946,78.188C45.68,79.491 47.236,80.336 47.914,80.512C47.994,80.529 48.002,80.505 48.029,80.44ZM48.78,80.436C48.893,80.033 49.396,78.301 49.81,77.575C51.062,75.378 53.227,75.107 54.078,75.355C54.043,75.856 53.988,76.164 53.967,76.85L55.207,76.909C54.997,78.179 54.682,79.595 52.114,80.259C51.135,80.511 49.271,80.521 48.844,80.52C48.759,80.523 48.774,80.476 48.78,80.436ZM48.666,81.712C48.918,81.549 50.058,80.943 52.442,81.514C54.135,81.919 55.353,83.338 56.08,84.208L54.319,84.848L54.749,86.605C53.575,86.666 52.012,86.802 49.999,84.553C49.301,83.774 48.759,82.203 48.638,81.831C48.605,81.752 48.628,81.738 48.666,81.712ZM47.862,82.412C48.116,82.548 48.986,83.162 49.312,85.287C49.726,88.002 48.135,89.097 47.36,89.803C47.077,89.391 46.828,88.958 46.613,88.507C46.163,88.841 45.699,89.157 45.223,89.454C45.218,89.481 44.404,87.349 46.083,84.458C46.477,83.779 47.489,82.698 47.737,82.436C47.784,82.392 47.823,82.396 47.862,82.412Z" style="fill:rgb(252,225,233);"/>
                </g>
                <g transform="matrix(0.440793,-0.220397,0,0.440793,1953.576603,1481.330763)">
                    <path d="M47.662,81.3C47.192,80.974 46.293,80.556 45.351,80.233C43.67,79.658 42.028,79.669 40.564,81.395C40.889,81.69 41.209,81.985 41.761,82.268C41.257,82.848 40.967,83.239 40.601,83.698C43.602,84.871 45.191,83.861 46.238,82.868C46.934,82.206 47.468,81.62 47.678,81.395C47.71,81.358 47.695,81.329 47.662,81.3ZM48.029,80.44C48.296,79.112 48.773,77.667 48.69,76.532C48.549,74.596 47.395,73.958 46.56,73.431L45.538,75.058L43.997,74.058C43.88,74.902 43.801,76.154 44.946,78.188C45.68,79.491 47.236,80.336 47.914,80.512C47.994,80.529 48.002,80.505 48.029,80.44ZM48.78,80.436C48.893,80.033 49.396,78.301 49.81,77.575C51.062,75.378 53.227,75.107 54.078,75.355C54.043,75.856 53.988,76.164 53.967,76.85L55.207,76.909C54.997,78.179 54.682,79.595 52.114,80.259C51.135,80.511 49.271,80.521 48.844,80.52C48.759,80.523 48.774,80.476 48.78,80.436ZM48.666,81.712C48.918,81.549 50.058,80.943 52.442,81.514C54.135,81.919 55.353,83.338 56.08,84.208L54.319,84.848L54.749,86.605C53.575,86.666 52.012,86.802 49.999,84.553C49.301,83.774 48.759,82.203 48.638,81.831C48.605,81.752 48.628,81.738 48.666,81.712ZM47.862,82.412C48.116,82.548 48.986,83.162 49.312,85.287C49.726,88.002 48.135,89.097 47.36,89.803C47.077,89.391 46.828,88.958 46.613,88.507C46.163,88.841 45.699,89.157 45.223,89.454C45.218,89.481 44.404,87.349 46.083,84.458C46.477,83.779 47.489,82.698 47.737,82.436C47.784,82.392 47.823,82.396 47.862,82.412Z" style="fill:rgb(252,225,233);"/>
                </g>
                <g transform="matrix(-0.044532,0.053799,-0.082508,-0.019126,1967.656541,1477.807483)">
                    <g transform="matrix(1,0,0,1,-190,-130.625)">
                        <clipPath id="_clip1">
                            <rect x="0" y="0" width="380" height="261.25"/>
                        </clipPath>
                        <g clip-path="url(#_clip1)">
                            <g transform="matrix(4.166667,0,0,4.166667,0,0)">
                                <path d="M58.35,35.85L58.95,34.5C59.35,34.1 59.8,33.9 60.3,33.9L61.65,34.5L62.1,35.1L62.25,35.85L61.65,37.35L60.3,37.95C59.8,37.95 59.35,37.75 58.95,37.35L58.8,37.05L58.35,35.85M52.95,26.1L53.55,24.75C53.95,24.35 54.4,24.15 54.9,24.15L56.25,24.75L56.85,26.1L56.25,27.6L54.9,28.2C54.4,28.2 53.95,28 53.55,27.6L52.95,26.1" style="fill-rule:nonzero;"/>
                            </g>
                            <g transform="matrix(4.166667,0,0,4.166667,0,0)">
                                <path d="M58.8,37.05L52.8,40.5L49.8,40.2L50.4,41.25L32.25,51.45L30,56.55L30.75,58.8L32.25,60.15L1.5,61.2L12.9,37.2L15.3,38.55L19.35,41.55L23.85,38.7L42.6,27L43.35,28.35L66.15,14.55L68.7,15.15L69,15.15L69.3,14.85C72.5,11.15 74.7,6.7 75.9,1.5L82.8,4.65L89.7,7.65C87.9,15.85 83.7,22.85 77.1,28.65L74.55,27.9L62.1,35.1L61.65,34.5L60.3,33.9C59.8,33.9 59.35,34.1 58.95,34.5L58.35,35.85L58.8,37.05M53.55,27.6C53.95,28 54.4,28.2 54.9,28.2L56.25,27.6L56.85,26.1L56.25,24.75L54.9,24.15C54.4,24.15 53.95,24.35 53.55,24.75L52.95,26.1L53.55,27.6" style="fill:rgb(252,182,196);fill-rule:nonzero;"/>
                            </g>
                            <g transform="matrix(4.166667,0,0,4.166667,0,0)">
                                <path d="M89.7,7.65C87.9,15.85 83.7,22.85 77.1,28.65M49.8,40.2L50.4,41.25L32.25,51.45M32.25,60.15L1.5,61.2L12.9,37.2M23.85,38.7L42.6,27L43.35,28.35M68.7,15.15L69,15.15L69.3,14.85C72.5,11.15 74.7,6.7 75.9,1.5M82.8,4.65C81,12.15 77.85,17.7 73.35,21.3M49.8,40.2L43.35,28.35" style="fill:none;fill-rule:nonzero;stroke:black;stroke-width:3px;stroke-linecap:round;stroke-linejoin:round;stroke-miterlimit:3;"/>
                            </g>
                        </g>
                    </g>
                </g>
            </g>
            <g id="Layer21" serif:id="Layer2" transform="matrix(1,0,0,1,-669.143342,-364.758589)">
                <g transform="matrix(0.894427,-0.447214,1.118034,0.559017,0,0)">
                    <rect x="-568.125" y="2214.733" width="5.625" height="8.267" style="fill:rgb(220,220,194);"/>
                    <path d="M-562.5,2214.733L-562.5,2223L-568.125,2223L-568.125,2214.733L-562.5,2214.733ZM-562.76,2214.941L-567.865,2214.941L-567.865,2222.792L-562.76,2222.792L-562.76,2214.941Z"/>
                </g>
                <g transform="matrix(0.714286,-0.357143,-0,0.773816,634.644008,991.487748)">
                    <path d="M1886.682,1448.972L1886.682,1461.976L1879.639,1461.976L1879.639,1520.491L1886.682,1520.491L1886.682,1553L1851.464,1553L1851.464,1448.972L1886.682,1448.972Z" style="fill:rgb(220,220,194);"/>
                    <path d="M1886.682,1448.972L1886.682,1461.976L1879.639,1461.976L1879.639,1520.491L1886.682,1520.491L1886.682,1553L1851.464,1553L1851.464,1448.972L1886.682,1448.972ZM1886.391,1449.273L1851.756,1449.273L1851.756,1552.699L1886.391,1552.699L1886.391,1520.792L1879.769,1520.792C1879.679,1520.792 1879.571,1520.738 1879.485,1520.65C1879.399,1520.561 1879.347,1520.45 1879.347,1520.357L1879.347,1461.841C1879.347,1461.739 1879.409,1461.675 1879.508,1461.675L1886.391,1461.675L1886.391,1449.273Z"/>
                </g>
                <g transform="matrix(0.894427,-0.447214,1.118034,0.559017,0,0)">
                    <rect x="-528.75" y="2137.5" width="28.125" height="36" style="fill:rgb(220,220,194);stroke:black;stroke-width:0.15px;"/>
                </g>
                <g transform="matrix(0.440793,-0.220397,0,0.440793,1941.242965,1497.230589)">
                    <path d="M47.662,81.3C47.192,80.974 46.293,80.556 45.351,80.233C43.67,79.658 42.028,79.669 40.564,81.395C40.889,81.69 41.209,81.985 41.761,82.268C41.257,82.848 40.967,83.239 40.601,83.698C43.602,84.871 45.191,83.861 46.238,82.868C46.934,82.206 47.468,81.62 47.678,81.395C47.71,81.358 47.695,81.329 47.662,81.3ZM48.029,80.44C48.296,79.112 48.773,77.667 48.69,76.532C48.549,74.596 47.395,73.958 46.56,73.431L45.538,75.058L43.997,74.058C43.88,74.902 43.801,76.154 44.946,78.188C45.68,79.491 47.236,80.336 47.914,80.512C47.994,80.529 48.002,80.505 48.029,80.44ZM48.78,80.436C48.893,80.033 49.396,78.301 49.81,77.575C51.062,75.378 53.227,75.107 54.078,75.355C54.043,75.856 53.988,76.164 53.967,76.85L55.207,76.909C54.997,78.179 54.682,79.595 52.114,80.259C51.135,80.511 49.271,80.521 48.844,80.52C48.759,80.523 48.774,80.476 48.78,80.436ZM48.666,81.712C48.918,81.549 50.058,80.943 52.442,81.514C54.135,81.919 55.353,83.338 56.08,84.208L54.319,84.848L54.749,86.605C53.575,86.666 52.012,86.802 49.999,84.553C49.301,83.774 48.759,82.203 48.638,81.831C48.605,81.752 48.628,81.738 48.666,81.712ZM47.862,82.412C48.116,82.548 48.986,83.162 49.312,85.287C49.726,88.002 48.135,89.097 47.36,89.803C47.077,89.391 46.828,88.958 46.613,88.507C46.163,88.841 45.699,89.157 45.223,89.454C45.218,89.481 44.404,87.349 46.083,84.458C46.477,83.779 47.489,82.698 47.737,82.436C47.784,82.392 47.823,82.396 47.862,82.412Z" style="fill:rgb(252,225,233);"/>
                </g>
                <g transform="matrix(0.440793,-0.220397,0,0.440793,1947.763077,1489.413979)">
                    <path d="M47.662,81.3C47.192,80.974 46.293,80.556 45.351,80.233C43.67,79.658 42.028,79.669 40.564,81.395C40.889,81.69 41.209,81.985 41.761,82.268C41.257,82.848 40.967,83.239 40.601,83.698C43.602,84.871 45.191,83.861 46.238,82.868C46.934,82.206 47.468,81.62 47.678,81.395C47.71,81.358 47.695,81.329 47.662,81.3ZM48.029,80.44C48.296,79.112 48.773,77.667 48.69,76.532C48.549,74.596 47.395,73.958 46.56,73.431L45.538,75.058L43.997,74.058C43.88,74.902 43.801,76.154 44.946,78.188C45.68,79.491 47.236,80.336 47.914,80.512C47.994,80.529 48.002,80.505 48.029,80.44ZM48.78,80.436C48.893,80.033 49.396,78.301 49.81,77.575C51.062,75.378 53.227,75.107 54.078,75.355C54.043,75.856 53.988,76.164 53.967,76.85L55.207,76.909C54.997,78.179 54.682,79.595 52.114,80.259C51.135,80.511 49.271,80.521 48.844,80.52C48.759,80.523 48.774,80.476 48.78,80.436ZM48.666,81.712C48.918,81.549 50.058,80.943 52.442,81.514C54.135,81.919 55.353,83.338 56.08,84.208L54.319,84.848L54.749,86.605C53.575,86.666 52.012,86.802 49.999,84.553C49.301,83.774 48.759,82.203 48.638,81.831C48.605,81.752 48.628,81.738 48.666,81.712ZM47.862,82.412C48.116,82.548 48.986,83.162 49.312,85.287C49.726,88.002 48.135,89.097 47.36,89.803C47.077,89.391 46.828,88.958 46.613,88.507C46.163,88.841 45.699,89.157 45.223,89.454C45.218,89.481 44.404,87.349 46.083,84.458C46.477,83.779 47.489,82.698 47.737,82.436C47.784,82.392 47.823,82.396 47.862,82.412Z" style="fill:rgb(252,225,233);"/>
                </g>
                <g transform="matrix(0.440793,-0.220397,0,0.440793,1956.722983,1420.808051)">
                    <path d="M47.662,81.3C47.192,80.974 46.293,80.556 45.351,80.233C43.67,79.658 42.028,79.669 40.564,81.395C40.889,81.69 41.209,81.985 41.761,82.268C41.257,82.848 40.967,83.239 40.601,83.698C43.602,84.871 45.191,83.861 46.238,82.868C46.934,82.206 47.468,81.62 47.678,81.395C47.71,81.358 47.695,81.329 47.662,81.3ZM48.029,80.44C48.296,79.112 48.773,77.667 48.69,76.532C48.549,74.596 47.395,73.958 46.56,73.431L45.538,75.058L43.997,74.058C43.88,74.902 43.801,76.154 44.946,78.188C45.68,79.491 47.236,80.336 47.914,80.512C47.994,80.529 48.002,80.505 48.029,80.44ZM48.78,80.436C48.893,80.033 49.396,78.301 49.81,77.575C51.062,75.378 53.227,75.107 54.078,75.355C54.043,75.856 53.988,76.164 53.967,76.85L55.207,76.909C54.997,78.179 54.682,79.595 52.114,80.259C51.135,80.511 49.271,80.521 48.844,80.52C48.759,80.523 48.774,80.476 48.78,80.436ZM48.666,81.712C48.918,81.549 50.058,80.943 52.442,81.514C54.135,81.919 55.353,83.338 56.08,84.208L54.319,84.848L54.749,86.605C53.575,86.666 52.012,86.802 49.999,84.553C49.301,83.774 48.759,82.203 48.638,81.831C48.605,81.752 48.628,81.738 48.666,81.712ZM47.862,82.412C48.116,82.548 48.986,83.162 49.312,85.287C49.726,88.002 48.135,89.097 47.36,89.803C47.077,89.391 46.828,88.958 46.613,88.507C46.163,88.841 45.699,89.157 45.223,89.454C45.218,89.481 44.404,87.349 46.083,84.458C46.477,83.779 47.489,82.698 47.737,82.436C47.784,82.392 47.823,82.396 47.862,82.412Z" style="fill:rgb(252,225,233);"/>
                </g>
                <g transform="matrix(0.440793,-0.220397,0,0.440793,1953.576603,1481.330763)">
                    <path d="M47.662,81.3C47.192,80.974 46.293,80.556 45.351,80.233C43.67,79.658 42.028,79.669 40.564,81.395C40.889,81.69 41.209,81.985 41.761,82.268C41.257,82.848 40.967,83.239 40.601,83.698C43.602,84.871 45.191,83.861 46.238,82.868C46.934,82.206 47.468,81.62 47.678,81.395C47.71,81.358 47.695,81.329 47.662,81.3ZM48.029,80.44C48.296,79.112 48.773,77.667 48.69,76.532C48.549,74.596 47.395,73.958 46.56,73.431L45.538,75.058L43.997,74.058C43.88,74.902 43.801,76.154 44.946,78.188C45.68,79.491 47.236,80.336 47.914,80.512C47.994,80.529 48.002,80.505 48.029,80.44ZM48.78,80.436C48.893,80.033 49.396,78.301 49.81,77.575C51.062,75.378 53.227,75.107 54.078,75.355C54.043,75.856 53.988,76.164 53.967,76.85L55.207,76.909C54.997,78.179 54.682,79.595 52.114,80.259C51.135,80.511 49.271,80.521 48.844,80.52C48.759,80.523 48.774,80.476 48.78,80.436ZM48.666,81.712C48.918,81.549 50.058,80.943 52.442,81.514C54.135,81.919 55.353,83.338 56.08,84.208L54.319,84.848L54.749,86.605C53.575,86.666 52.012,86.802 49.999,84.553C49.301,83.774 48.759,82.203 48.638,81.831C48.605,81.752 48.628,81.738 48.666,81.712ZM47.862,82.412C48.116,82.548 48.986,83.162 49.312,85.287C49.726,88.002 48.135,89.097 47.36,89.803C47.077,89.391 46.828,88.958 46.613,88.507C46.163,88.841 45.699,89.157 45.223,89.454C45.218,89.481 44.404,87.349 46.083,84.458C46.477,83.779 47.489,82.698 47.737,82.436C47.784,82.392 47.823,82.396 47.862,82.412Z" style="fill:rgb(252,225,233);"/>
                </g>
                <g transform="matrix(-0.044532,0.053799,-0.082508,-0.019126,1967.656541,1477.807483)">
                    <g transform="matrix(1,0,0,1,-190,-130.625)">
                        <clipPath id="_clip2">
                            <rect x="0" y="0" width="380" height="261.25"/>
                        </clipPath>
                        <g clip-path="url(#_clip2)">
                            <g transform="matrix(4.166667,0,0,4.166667,0,0)">
                                <path d="M58.35,35.85L58.95,34.5C59.35,34.1 59.8,33.9 60.3,33.9L61.65,34.5L62.1,35.1L62.25,35.85L61.65,37.35L60.3,37.95C59.8,37.95 59.35,37.75 58.95,37.35L58.8,37.05L58.35,35.85M52.95,26.1L53.55,24.75C53.95,24.35 54.4,24.15 54.9,24.15L56.25,24.75L56.85,26.1L56.25,27.6L54.9,28.2C54.4,28.2 53.95,28 53.55,27.6L52.95,26.1" style="fill-rule:nonzero;"/>
                            </g>
                            <g transform="matrix(4.166667,0,0,4.166667,0,0)">
                                <path d="M58.8,37.05L52.8,40.5L49.8,40.2L50.4,41.25L32.25,51.45L30,56.55L30.75,58.8L32.25,60.15L1.5,61.2L12.9,37.2L15.3,38.55L19.35,41.55L23.85,38.7L42.6,27L43.35,28.35L66.15,14.55L68.7,15.15L69,15.15L69.3,14.85C72.5,11.15 74.7,6.7 75.9,1.5L82.8,4.65L89.7,7.65C87.9,15.85 83.7,22.85 77.1,28.65L74.55,27.9L62.1,35.1L61.65,34.5L60.3,33.9C59.8,33.9 59.35,34.1 58.95,34.5L58.35,35.85L58.8,37.05M53.55,27.6C53.95,28 54.4,28.2 54.9,28.2L56.25,27.6L56.85,26.1L56.25,24.75L54.9,24.15C54.4,24.15 53.95,24.35 53.55,24.75L52.95,26.1L53.55,27.6" style="fill:rgb(252,182,196);fill-rule:nonzero;"/>
                            </g>
                            <g transform="matrix(4.166667,0,0,4.166667,0,0)">
                                <path d="M89.7,7.65C87.9,15.85 83.7,22.85 77.1,28.65M49.8,40.2L50.4,41.25L32.25,51.45M32.25,60.15L1.5,61.2L12.9,37.2M23.85,38.7L42.6,27L43.35,28.35M68.7,15.15L69,15.15L69.3,14.85C72.5,11.15 74.7,6.7 75.9,1.5M82.8,4.65C81,12.15 77.85,17.7 73.35,21.3M49.8,40.2L43.35,28.35" style="fill:none;fill-rule:nonzero;stroke:black;stroke-width:3px;stroke-linecap:round;stroke-linejoin:round;stroke-miterlimit:3;"/>
                            </g>
                        </g>
                    </g>
                </g>
            </g>
            <g id="Layer22" serif:id="Layer2" transform="matrix(1,0,0,1,-628.894119,-344.633977)">
                <g transform="matrix(0.894427,-0.447214,1.118034,0.559017,0,0)">
                    <rect x="-568.125" y="2214.733" width="5.625" height="8.267" style="fill:rgb(220,220,194);"/>
                    <path d="M-562.5,2214.733L-562.5,2223L-568.125,2223L-568.125,2214.733L-562.5,2214.733ZM-562.76,2214.941L-567.865,2214.941L-567.865,2222.792L-562.76,2222.792L-562.76,2214.941Z"/>
                </g>
                <g transform="matrix(0.714286,-0.357143,-0,0.773816,634.644008,991.487748)">
                    <path d="M1886.682,1448.972L1886.682,1461.976L1879.639,1461.976L1879.639,1520.491L1886.682,1520.491L1886.682,1553L1851.464,1553L1851.464,1448.972L1886.682,1448.972Z" style="fill:rgb(220,220,194);"/>
                    <path d="M1886.682,1448.972L1886.682,1461.976L1879.639,1461.976L1879.639,1520.491L1886.682,1520.491L1886.682,1553L1851.464,1553L1851.464,1448.972L1886.682,1448.972ZM1886.391,1449.273L1851.756,1449.273L1851.756,1552.699L1886.391,1552.699L1886.391,1520.792L1879.769,1520.792C1879.679,1520.792 1879.571,1520.738 1879.485,1520.65C1879.399,1520.561 1879.347,1520.45 1879.347,1520.357L1879.347,1461.841C1879.347,1461.739 1879.409,1461.675 1879.508,1461.675L1886.391,1461.675L1886.391,1449.273Z"/>
                </g>
                <g transform="matrix(0.894427,-0.447214,1.118034,0.559017,0,0)">
                    <rect x="-528.75" y="2137.5" width="28.125" height="36" style="fill:rgb(220,220,194);stroke:black;stroke-width:0.15px;"/>
                </g>
                <g transform="matrix(0.440793,-0.220397,0,0.440793,1941.242965,1497.230589)">
                    <path d="M47.662,81.3C47.192,80.974 46.293,80.556 45.351,80.233C43.67,79.658 42.028,79.669 40.564,81.395C40.889,81.69 41.209,81.985 41.761,82.268C41.257,82.848 40.967,83.239 40.601,83.698C43.602,84.871 45.191,83.861 46.238,82.868C46.934,82.206 47.468,81.62 47.678,81.395C47.71,81.358 47.695,81.329 47.662,81.3ZM48.029,80.44C48.296,79.112 48.773,77.667 48.69,76.532C48.549,74.596 47.395,73.958 46.56,73.431L45.538,75.058L43.997,74.058C43.88,74.902 43.801,76.154 44.946,78.188C45.68,79.491 47.236,80.336 47.914,80.512C47.994,80.529 48.002,80.505 48.029,80.44ZM48.78,80.436C48.893,80.033 49.396,78.301 49.81,77.575C51.062,75.378 53.227,75.107 54.078,75.355C54.043,75.856 53.988,76.164 53.967,76.85L55.207,76.909C54.997,78.179 54.682,79.595 52.114,80.259C51.135,80.511 49.271,80.521 48.844,80.52C48.759,80.523 48.774,80.476 48.78,80.436ZM48.666,81.712C48.918,81.549 50.058,80.943 52.442,81.514C54.135,81.919 55.353,83.338 56.08,84.208L54.319,84.848L54.749,86.605C53.575,86.666 52.012,86.802 49.999,84.553C49.301,83.774 48.759,82.203 48.638,81.831C48.605,81.752 48.628,81.738 48.666,81.712ZM47.862,82.412C48.116,82.548 48.986,83.162 49.312,85.287C49.726,88.002 48.135,89.097 47.36,89.803C47.077,89.391 46.828,88.958 46.613,88.507C46.163,88.841 45.699,89.157 45.223,89.454C45.218,89.481 44.404,87.349 46.083,84.458C46.477,83.779 47.489,82.698 47.737,82.436C47.784,82.392 47.823,82.396 47.862,82.412Z" style="fill:rgb(252,225,233);"/>
                </g>
                <g transform="matrix(0.440793,-0.220397,0,0.440793,1947.763077,1489.413979)">
                    <path d="M47.662,81.3C47.192,80.974 46.293,80.556 45.351,80.233C43.67,79.658 42.028,79.669 40.564,81.395C40.889,81.69 41.209,81.985 41.761,82.268C41.257,82.848 40.967,83.239 40.601,83.698C43.602,84.871 45.191,83.861 46.238,82.868C46.934,82.206 47.468,81.62 47.678,81.395C47.71,81.358 47.695,81.329 47.662,81.3ZM48.029,80.44C48.296,79.112 48.773,77.667 48.69,76.532C48.549,74.596 47.395,73.958 46.56,73.431L45.538,75.058L43.997,74.058C43.88,74.902 43.801,76.154 44.946,78.188C45.68,79.491 47.236,80.336 47.914,80.512C47.994,80.529 48.002,80.505 48.029,80.44ZM48.78,80.436C48.893,80.033 49.396,78.301 49.81,77.575C51.062,75.378 53.227,75.107 54.078,75.355C54.043,75.856 53.988,76.164 53.967,76.85L55.207,76.909C54.997,78.179 54.682,79.595 52.114,80.259C51.135,80.511 49.271,80.521 48.844,80.52C48.759,80.523 48.774,80.476 48.78,80.436ZM48.666,81.712C48.918,81.549 50.058,80.943 52.442,81.514C54.135,81.919 55.353,83.338 56.08,84.208L54.319,84.848L54.749,86.605C53.575,86.666 52.012,86.802 49.999,84.553C49.301,83.774 48.759,82.203 48.638,81.831C48.605,81.752 48.628,81.738 48.666,81.712ZM47.862,82.412C48.116,82.548 48.986,83.162 49.312,85.287C49.726,88.002 48.135,89.097 47.36,89.803C47.077,89.391 46.828,88.958 46.613,88.507C46.163,88.841 45.699,89.157 45.223,89.454C45.218,89.481 44.404,87.349 46.083,84.458C46.477,83.779 47.489,82.698 47.737,82.436C47.784,82.392 47.823,82.396 47.862,82.412Z" style="fill:rgb(252,225,233);"/>
                </g>
                <g transform="matrix(0.440793,-0.220397,0,0.440793,1956.722983,1420.808051)">
                    <path d="M47.662,81.3C47.192,80.974 46.293,80.556 45.351,80.233C43.67,79.658 42.028,79.669 40.564,81.395C40.889,81.69 41.209,81.985 41.761,82.268C41.257,82.848 40.967,83.239 40.601,83.698C43.602,84.871 45.191,83.861 46.238,82.868C46.934,82.206 47.468,81.62 47.678,81.395C47.71,81.358 47.695,81.329 47.662,81.3ZM48.029,80.44C48.296,79.112 48.773,77.667 48.69,76.532C48.549,74.596 47.395,73.958 46.56,73.431L45.538,75.058L43.997,74.058C43.88,74.902 43.801,76.154 44.946,78.188C45.68,79.491 47.236,80.336 47.914,80.512C47.994,80.529 48.002,80.505 48.029,80.44ZM48.78,80.436C48.893,80.033 49.396,78.301 49.81,77.575C51.062,75.378 53.227,75.107 54.078,75.355C54.043,75.856 53.988,76.164 53.967,76.85L55.207,76.909C54.997,78.179 54.682,79.595 52.114,80.259C51.135,80.511 49.271,80.521 48.844,80.52C48.759,80.523 48.774,80.476 48.78,80.436ZM48.666,81.712C48.918,81.549 50.058,80.943 52.442,81.514C54.135,81.919 55.353,83.338 56.08,84.208L54.319,84.848L54.749,86.605C53.575,86.666 52.012,86.802 49.999,84.553C49.301,83.774 48.759,82.203 48.638,81.831C48.605,81.752 48.628,81.738 48.666,81.712ZM47.862,82.412C48.116,82.548 48.986,83.162 49.312,85.287C49.726,88.002 48.135,89.097 47.36,89.803C47.077,89.391 46.828,88.958 46.613,88.507C46.163,88.841 45.699,89.157 45.223,89.454C45.218,89.481 44.404,87.349 46.083,84.458C46.477,83.779 47.489,82.698 47.737,82.436C47.784,82.392 47.823,82.396 47.862,82.412Z" style="fill:rgb(252,225,233);"/>
                </g>
                <g transform="matrix(0.440793,-0.220397,0,0.440793,1953.576603,1481.330763)">
                    <path d="M47.662,81.3C47.192,80.974 46.293,80.556 45.351,80.233C43.67,79.658 42.028,79.669 40.564,81.395C40.889,81.69 41.209,81.985 41.761,82.268C41.257,82.848 40.967,83.239 40.601,83.698C43.602,84.871 45.191,83.861 46.238,82.868C46.934,82.206 47.468,81.62 47.678,81.395C47.71,81.358 47.695,81.329 47.662,81.3ZM48.029,80.44C48.296,79.112 48.773,77.667 48.69,76.532C48.549,74.596 47.395,73.958 46.56,73.431L45.538,75.058L43.997,74.058C43.88,74.902 43.801,76.154 44.946,78.188C45.68,79.491 47.236,80.336 47.914,80.512C47.994,80.529 48.002,80.505 48.029,80.44ZM48.78,80.436C48.893,80.033 49.396,78.301 49.81,77.575C51.062,75.378 53.227,75.107 54.078,75.355C54.043,75.856 53.988,76.164 53.967,76.85L55.207,76.909C54.997,78.179 54.682,79.595 52.114,80.259C51.135,80.511 49.271,80.521 48.844,80.52C48.759,80.523 48.774,80.476 48.78,80.436ZM48.666,81.712C48.918,81.549 50.058,80.943 52.442,81.514C54.135,81.919 55.353,83.338 56.08,84.208L54.319,84.848L54.749,86.605C53.575,86.666 52.012,86.802 49.999,84.553C49.301,83.774 48.759,82.203 48.638,81.831C48.605,81.752 48.628,81.738 48.666,81.712ZM47.862,82.412C48.116,82.548 48.986,83.162 49.312,85.287C49.726,88.002 48.135,89.097 47.36,89.803C47.077,89.391 46.828,88.958 46.613,88.507C46.163,88.841 45.699,89.157 45.223,89.454C45.218,89.481 44.404,87.349 46.083,84.458C46.477,83.779 47.489,82.698 47.737,82.436C47.784,82.392 47.823,82.396 47.862,82.412Z" style="fill:rgb(252,225,233);"/>
                </g>
                <g transform="matrix(-0.044532,0.053799,-0.082508,-0.019126,1967.656541,1477.807483)">
                    <g transform="matrix(1,0,0,1,-190,-130.625)">
                        <clipPath id="_clip3">
                            <rect x="0" y="0" width="380" height="261.25"/>
                        </clipPath>
                        <g clip-path="url(#_clip3)">
                            <g transform="matrix(4.166667,0,0,4.166667,0,0)">
                                <path d="M58.35,35.85L58.95,34.5C59.35,34.1 59.8,33.9 60.3,33.9L61.65,34.5L62.1,35.1L62.25,35.85L61.65,37.35L60.3,37.95C59.8,37.95 59.35,37.75 58.95,37.35L58.8,37.05L58.35,35.85M52.95,26.1L53.55,24.75C53.95,24.35 54.4,24.15 54.9,24.15L56.25,24.75L56.85,26.1L56.25,27.6L54.9,28.2C54.4,28.2 53.95,28 53.55,27.6L52.95,26.1" style="fill-rule:nonzero;"/>
                            </g>
                            <g transform="matrix(4.166667,0,0,4.166667,0,0)">
                                <path d="M58.8,37.05L52.8,40.5L49.8,40.2L50.4,41.25L32.25,51.45L30,56.55L30.75,58.8L32.25,60.15L1.5,61.2L12.9,37.2L15.3,38.55L19.35,41.55L23.85,38.7L42.6,27L43.35,28.35L66.15,14.55L68.7,15.15L69,15.15L69.3,14.85C72.5,11.15 74.7,6.7 75.9,1.5L82.8,4.65L89.7,7.65C87.9,15.85 83.7,22.85 77.1,28.65L74.55,27.9L62.1,35.1L61.65,34.5L60.3,33.9C59.8,33.9 59.35,34.1 58.95,34.5L58.35,35.85L58.8,37.05M53.55,27.6C53.95,28 54.4,28.2 54.9,28.2L56.25,27.6L56.85,26.1L56.25,24.75L54.9,24.15C54.4,24.15 53.95,24.35 53.55,24.75L52.95,26.1L53.55,27.6" style="fill:rgb(252,182,196);fill-rule:nonzero;"/>
                            </g>
                            <g transform="matrix(4.166667,0,0,4.166667,0,0)">
                                <path d="M89.7,7.65C87.9,15.85 83.7,22.85 77.1,28.65M49.8,40.2L50.4,41.25L32.25,51.45M32.25,60.15L1.5,61.2L12.9,37.2M23.85,38.7L42.6,27L43.35,28.35M68.7,15.15L69,15.15L69.3,14.85C72.5,11.15 74.7,6.7 75.9,1.5M82.8,4.65C81,12.15 77.85,17.7 73.35,21.3M49.8,40.2L43.35,28.35" style="fill:none;fill-rule:nonzero;stroke:black;stroke-width:3px;stroke-linecap:round;stroke-linejoin:round;stroke-miterlimit:3;"/>
                            </g>
                        </g>
                    </g>
                </g>
            </g>
            <g id="Layer23" serif:id="Layer2" transform="matrix(1,0,0,1,-588.644895,-324.509365)">
                <g transform="matrix(0.894427,-0.447214,1.118034,0.559017,0,0)">
                    <rect x="-568.125" y="2214.733" width="5.625" height="8.267" style="fill:rgb(220,220,194);"/>
                    <path d="M-562.5,2214.733L-562.5,2223L-568.125,2223L-568.125,2214.733L-562.5,2214.733ZM-562.76,2214.941L-567.865,2214.941L-567.865,2222.792L-562.76,2222.792L-562.76,2214.941Z"/>
                </g>
                <g transform="matrix(0.714286,-0.357143,-0,0.773816,634.644008,991.487748)">
                    <path d="M1886.682,1448.972L1886.682,1461.976L1879.639,1461.976L1879.639,1520.491L1886.682,1520.491L1886.682,1553L1851.464,1553L1851.464,1448.972L1886.682,1448.972Z" style="fill:rgb(220,220,194);"/>
                    <path d="M1886.682,1448.972L1886.682,1461.976L1879.639,1461.976L1879.639,1520.491L1886.682,1520.491L1886.682,1553L1851.464,1553L1851.464,1448.972L1886.682,1448.972ZM1886.391,1449.273L1851.756,1449.273L1851.756,1552.699L1886.391,1552.699L1886.391,1520.792L1879.769,1520.792C1879.679,1520.792 1879.571,1520.738 1879.485,1520.65C1879.399,1520.561 1879.347,1520.45 1879.347,1520.357L1879.347,1461.841C1879.347,1461.739 1879.409,1461.675 1879.508,1461.675L1886.391,1461.675L1886.391,1449.273Z"/>
                </g>
                <g transform="matrix(0.894427,-0.447214,1.118034,0.559017,0,0)">
                    <rect x="-528.75" y="2137.5" width="28.125" height="36" style="fill:rgb(220,220,194);stroke:black;stroke-width:0.15px;"/>
                </g>
                <g transform="matrix(0.440793,-0.220397,0,0.440793,1941.242965,1497.230589)">
                    <path d="M47.662,81.3C47.192,80.974 46.293,80.556 45.351,80.233C43.67,79.658 42.028,79.669 40.564,81.395C40.889,81.69 41.209,81.985 41.761,82.268C41.257,82.848 40.967,83.239 40.601,83.698C43.602,84.871 45.191,83.861 46.238,82.868C46.934,82.206 47.468,81.62 47.678,81.395C47.71,81.358 47.695,81.329 47.662,81.3ZM48.029,80.44C48.296,79.112 48.773,77.667 48.69,76.532C48.549,74.596 47.395,73.958 46.56,73.431L45.538,75.058L43.997,74.058C43.88,74.902 43.801,76.154 44.946,78.188C45.68,79.491 47.236,80.336 47.914,80.512C47.994,80.529 48.002,80.505 48.029,80.44ZM48.78,80.436C48.893,80.033 49.396,78.301 49.81,77.575C51.062,75.378 53.227,75.107 54.078,75.355C54.043,75.856 53.988,76.164 53.967,76.85L55.207,76.909C54.997,78.179 54.682,79.595 52.114,80.259C51.135,80.511 49.271,80.521 48.844,80.52C48.759,80.523 48.774,80.476 48.78,80.436ZM48.666,81.712C48.918,81.549 50.058,80.943 52.442,81.514C54.135,81.919 55.353,83.338 56.08,84.208L54.319,84.848L54.749,86.605C53.575,86.666 52.012,86.802 49.999,84.553C49.301,83.774 48.759,82.203 48.638,81.831C48.605,81.752 48.628,81.738 48.666,81.712ZM47.862,82.412C48.116,82.548 48.986,83.162 49.312,85.287C49.726,88.002 48.135,89.097 47.36,89.803C47.077,89.391 46.828,88.958 46.613,88.507C46.163,88.841 45.699,89.157 45.223,89.454C45.218,89.481 44.404,87.349 46.083,84.458C46.477,83.779 47.489,82.698 47.737,82.436C47.784,82.392 47.823,82.396 47.862,82.412Z" style="fill:rgb(252,225,233);"/>
                </g>
                <g transform="matrix(0.440793,-0.220397,0,0.440793,1947.763077,1489.413979)">
                    <path d="M47.662,81.3C47.192,80.974 46.293,80.556 45.351,80.233C43.67,79.658 42.028,79.669 40.564,81.395C40.889,81.69 41.209,81.985 41.761,82.268C41.257,82.848 40.967,83.239 40.601,83.698C43.602,84.871 45.191,83.861 46.238,82.868C46.934,82.206 47.468,81.62 47.678,81.395C47.71,81.358 47.695,81.329 47.662,81.3ZM48.029,80.44C48.296,79.112 48.773,77.667 48.69,76.532C48.549,74.596 47.395,73.958 46.56,73.431L45.538,75.058L43.997,74.058C43.88,74.902 43.801,76.154 44.946,78.188C45.68,79.491 47.236,80.336 47.914,80.512C47.994,80.529 48.002,80.505 48.029,80.44ZM48.78,80.436C48.893,80.033 49.396,78.301 49.81,77.575C51.062,75.378 53.227,75.107 54.078,75.355C54.043,75.856 53.988,76.164 53.967,76.85L55.207,76.909C54.997,78.179 54.682,79.595 52.114,80.259C51.135,80.511 49.271,80.521 48.844,80.52C48.759,80.523 48.774,80.476 48.78,80.436ZM48.666,81.712C48.918,81.549 50.058,80.943 52.442,81.514C54.135,81.919 55.353,83.338 56.08,84.208L54.319,84.848L54.749,86.605C53.575,86.666 52.012,86.802 49.999,84.553C49.301,83.774 48.759,82.203 48.638,81.831C48.605,81.752 48.628,81.738 48.666,81.712ZM47.862,82.412C48.116,82.548 48.986,83.162 49.312,85.287C49.726,88.002 48.135,89.097 47.36,89.803C47.077,89.391 46.828,88.958 46.613,88.507C46.163,88.841 45.699,89.157 45.223,89.454C45.218,89.481 44.404,87.349 46.083,84.458C46.477,83.779 47.489,82.698 47.737,82.436C47.784,82.392 47.823,82.396 47.862,82.412Z" style="fill:rgb(252,225,233);"/>
                </g>
                <g transform="matrix(0.440793,-0.220397,0,0.440793,1956.722983,1420.808051)">
                    <path d="M47.662,81.3C47.192,80.974 46.293,80.556 45.351,80.233C43.67,79.658 42.028,79.669 40.564,81.395C40.889,81.69 41.209,81.985 41.761,82.268C41.257,82.848 40.967,83.239 40.601,83.698C43.602,84.871 45.191,83.861 46.238,82.868C46.934,82.206 47.468,81.62 47.678,81.395C47.71,81.358 47.695,81.329 47.662,81.3ZM48.029,80.44C48.296,79.112 48.773,77.667 48.69,76.532C48.549,74.596 47.395,73.958 46.56,73.431L45.538,75.058L43.997,74.058C43.88,74.902 43.801,76.154 44.946,78.188C45.68,79.491 47.236,80.336 47.914,80.512C47.994,80.529 48.002,80.505 48.029,80.44ZM48.78,80.436C48.893,80.033 49.396,78.301 49.81,77.575C51.062,75.378 53.227,75.107 54.078,75.355C54.043,75.856 53.988,76.164 53.967,76.85L55.207,76.909C54.997,78.179 54.682,79.595 52.114,80.259C51.135,80.511 49.271,80.521 48.844,80.52C48.759,80.523 48.774,80.476 48.78,80.436ZM48.666,81.712C48.918,81.549 50.058,80.943 52.442,81.514C54.135,81.919 55.353,83.338 56.08,84.208L54.319,84.848L54.749,86.605C53.575,86.666 52.012,86.802 49.999,84.553C49.301,83.774 48.759,82.203 48.638,81.831C48.605,81.752 48.628,81.738 48.666,81.712ZM47.862,82.412C48.116,82.548 48.986,83.162 49.312,85.287C49.726,88.002 48.135,89.097 47.36,89.803C47.077,89.391 46.828,88.958 46.613,88.507C46.163,88.841 45.699,89.157 45.223,89.454C45.218,89.481 44.404,87.349 46.083,84.458C46.477,83.779 47.489,82.698 47.737,82.436C47.784,82.392 47.823,82.396 47.862,82.412Z" style="fill:rgb(252,225,233);"/>
                </g>
                <g transform="matrix(0.440793,-0.220397,0,0.440793,1953.576603,1481.330763)">
                    <path d="M47.662,81.3C47.192,80.974 46.293,80.556 45.351,80.233C43.67,79.658 42.028,79.669 40.564,81.395C40.889,81.69 41.209,81.985 41.761,82.268C41.257,82.848 40.967,83.239 40.601,83.698C43.602,84.871 45.191,83.861 46.238,82.868C46.934,82.206 47.468,81.62 47.678,81.395C47.71,81.358 47.695,81.329 47.662,81.3ZM48.029,80.44C48.296,79.112 48.773,77.667 48.69,76.532C48.549,74.596 47.395,73.958 46.56,73.431L45.538,75.058L43.997,74.058C43.88,74.902 43.801,76.154 44.946,78.188C45.68,79.491 47.236,80.336 47.914,80.512C47.994,80.529 48.002,80.505 48.029,80.44ZM48.78,80.436C48.893,80.033 49.396,78.301 49.81,77.575C51.062,75.378 53.227,75.107 54.078,75.355C54.043,75.856 53.988,76.164 53.967,76.85L55.207,76.909C54.997,78.179 54.682,79.595 52.114,80.259C51.135,80.511 49.271,80.521 48.844,80.52C48.759,80.523 48.774,80.476 48.78,80.436ZM48.666,81.712C48.918,81.549 50.058,80.943 52.442,81.514C54.135,81.919 55.353,83.338 56.08,84.208L54.319,84.848L54.749,86.605C53.575,86.666 52.012,86.802 49.999,84.553C49.301,83.774 48.759,82.203 48.638,81.831C48.605,81.752 48.628,81.738 48.666,81.712ZM47.862,82.412C48.116,82.548 48.986,83.162 49.312,85.287C49.726,88.002 48.135,89.097 47.36,89.803C47.077,89.391 46.828,88.958 46.613,88.507C46.163,88.841 45.699,89.157 45.223,89.454C45.218,89.481 44.404,87.349 46.083,84.458C46.477,83.779 47.489,82.698 47.737,82.436C47.784,82.392 47.823,82.396 47.862,82.412Z" style="fill:rgb(252,225,233);"/>
                </g>
                <g transform="matrix(-0.044532,0.053799,-0.082508,-0.019126,1967.656541,1477.807483)">
                    <g transform="matrix(1,0,0,1,-190,-130.625)">
                        <clipPath id="_clip4">
                            <rect x="0" y="0" width="380" height="261.25"/>
                        </clipPath>
                        <g clip-path="url(#_clip4)">
                            <g transform="matrix(4.166667,0,0,4.166667,0,0)">
                                <path d="M58.35,35.85L58.95,34.5C59.35,34.1 59.8,33.9 60.3,33.9L61.65,34.5L62.1,35.1L62.25,35.85L61.65,37.35L60.3,37.95C59.8,37.95 59.35,37.75 58.95,37.35L58.8,37.05L58.35,35.85M52.95,26.1L53.55,24.75C53.95,24.35 54.4,24.15 54.9,24.15L56.25,24.75L56.85,26.1L56.25,27.6L54.9,28.2C54.4,28.2 53.95,28 53.55,27.6L52.95,26.1" style="fill-rule:nonzero;"/>
                            </g>
                            <g transform="matrix(4.166667,0,0,4.166667,0,0)">
                                <path d="M58.8,37.05L52.8,40.5L49.8,40.2L50.4,41.25L32.25,51.45L30,56.55L30.75,58.8L32.25,60.15L1.5,61.2L12.9,37.2L15.3,38.55L19.35,41.55L23.85,38.7L42.6,27L43.35,28.35L66.15,14.55L68.7,15.15L69,15.15L69.3,14.85C72.5,11.15 74.7,6.7 75.9,1.5L82.8,4.65L89.7,7.65C87.9,15.85 83.7,22.85 77.1,28.65L74.55,27.9L62.1,35.1L61.65,34.5L60.3,33.9C59.8,33.9 59.35,34.1 58.95,34.5L58.35,35.85L58.8,37.05M53.55,27.6C53.95,28 54.4,28.2 54.9,28.2L56.25,27.6L56.85,26.1L56.25,24.75L54.9,24.15C54.4,24.15 53.95,24.35 53.55,24.75L52.95,26.1L53.55,27.6" style="fill:rgb(252,182,196);fill-rule:nonzero;"/>
                            </g>
                            <g transform="matrix(4.166667,0,0,4.166667,0,0)">
                                <path d="M89.7,7.65C87.9,15.85 83.7,22.85 77.1,28.65M49.8,40.2L50.4,41.25L32.25,51.45M32.25,60.15L1.5,61.2L12.9,37.2M23.85,38.7L42.6,27L43.35,28.35M68.7,15.15L69,15.15L69.3,14.85C72.5,11.15 74.7,6.7 75.9,1.5M82.8,4.65C81,12.15 77.85,17.7 73.35,21.3M49.8,40.2L43.35,28.35" style="fill:none;fill-rule:nonzero;stroke:black;stroke-width:3px;stroke-linecap:round;stroke-linejoin:round;stroke-miterlimit:3;"/>
                            </g>
                        </g>
                    </g>
                </g>
            </g>
            <g id="Layer24" serif:id="Layer2" transform="matrix(1,0,0,1,-548.395671,-304.384753)">
                <g transform="matrix(0.894427,-0.447214,1.118034,0.559017,0,0)">
                    <rect x="-568.125" y="2214.733" width="5.625" height="8.267" style="fill:rgb(220,220,194);"/>
                    <path d="M-562.5,2214.733L-562.5,2223L-568.125,2223L-568.125,2214.733L-562.5,2214.733ZM-562.76,2214.941L-567.865,2214.941L-567.865,2222.792L-562.76,2222.792L-562.76,2214.941Z"/>
                </g>
                <g transform="matrix(0.714286,-0.357143,-0,0.773816,634.644008,991.487748)">
                    <path d="M1886.682,1448.972L1886.682,1461.976L1879.639,1461.976L1879.639,1520.491L1886.682,1520.491L1886.682,1553L1851.464,1553L1851.464,1448.972L1886.682,1448.972Z" style="fill:rgb(220,220,194);"/>
                    <path d="M1886.682,1448.972L1886.682,1461.976L1879.639,1461.976L1879.639,1520.491L1886.682,1520.491L1886.682,1553L1851.464,1553L1851.464,1448.972L1886.682,1448.972ZM1886.391,1449.273L1851.756,1449.273L1851.756,1552.699L1886.391,1552.699L1886.391,1520.792L1879.769,1520.792C1879.679,1520.792 1879.571,1520.738 1879.485,1520.65C1879.399,1520.561 1879.347,1520.45 1879.347,1520.357L1879.347,1461.841C1879.347,1461.739 1879.409,1461.675 1879.508,1461.675L1886.391,1461.675L1886.391,1449.273Z"/>
                </g>
                <g transform="matrix(0.894427,-0.447214,1.118034,0.559017,0,0)">
                    <rect x="-528.75" y="2137.5" width="28.125" height="36" style="fill:rgb(220,220,194);stroke:black;stroke-width:0.15px;"/>
                </g>
                <g transform="matrix(0.440793,-0.220397,0,0.440793,1941.242965,1497.230589)">
                    <path d="M47.662,81.3C47.192,80.974 46.293,80.556 45.351,80.233C43.67,79.658 42.028,79.669 40.564,81.395C40.889,81.69 41.209,81.985 41.761,82.268C41.257,82.848 40.967,83.239 40.601,83.698C43.602,84.871 45.191,83.861 46.238,82.868C46.934,82.206 47.468,81.62 47.678,81.395C47.71,81.358 47.695,81.329 47.662,81.3ZM48.029,80.44C48.296,79.112 48.773,77.667 48.69,76.532C48.549,74.596 47.395,73.958 46.56,73.431L45.538,75.058L43.997,74.058C43.88,74.902 43.801,76.154 44.946,78.188C45.68,79.491 47.236,80.336 47.914,80.512C47.994,80.529 48.002,80.505 48.029,80.44ZM48.78,80.436C48.893,80.033 49.396,78.301 49.81,77.575C51.062,75.378 53.227,75.107 54.078,75.355C54.043,75.856 53.988,76.164 53.967,76.85L55.207,76.909C54.997,78.179 54.682,79.595 52.114,80.259C51.135,80.511 49.271,80.521 48.844,80.52C48.759,80.523 48.774,80.476 48.78,80.436ZM48.666,81.712C48.918,81.549 50.058,80.943 52.442,81.514C54.135,81.919 55.353,83.338 56.08,84.208L54.319,84.848L54.749,86.605C53.575,86.666 52.012,86.802 49.999,84.553C49.301,83.774 48.759,82.203 48.638,81.831C48.605,81.752 48.628,81.738 48.666,81.712ZM47.862,82.412C48.116,82.548 48.986,83.162 49.312,85.287C49.726,88.002 48.135,89.097 47.36,89.803C47.077,89.391 46.828,88.958 46.613,88.507C46.163,88.841 45.699,89.157 45.223,89.454C45.218,89.481 44.404,87.349 46.083,84.458C46.477,83.779 47.489,82.698 47.737,82.436C47.784,82.392 47.823,82.396 47.862,82.412Z" style="fill:rgb(252,225,233);"/>
                </g>
                <g transform="matrix(0.440793,-0.220397,0,0.440793,1947.763077,1489.413979)">
                    <path d="M47.662,81.3C47.192,80.974 46.293,80.556 45.351,80.233C43.67,79.658 42.028,79.669 40.564,81.395C40.889,81.69 41.209,81.985 41.761,82.268C41.257,82.848 40.967,83.239 40.601,83.698C43.602,84.871 45.191,83.861 46.238,82.868C46.934,82.206 47.468,81.62 47.678,81.395C47.71,81.358 47.695,81.329 47.662,81.3ZM48.029,80.44C48.296,79.112 48.773,77.667 48.69,76.532C48.549,74.596 47.395,73.958 46.56,73.431L45.538,75.058L43.997,74.058C43.88,74.902 43.801,76.154 44.946,78.188C45.68,79.491 47.236,80.336 47.914,80.512C47.994,80.529 48.002,80.505 48.029,80.44ZM48.78,80.436C48.893,80.033 49.396,78.301 49.81,77.575C51.062,75.378 53.227,75.107 54.078,75.355C54.043,75.856 53.988,76.164 53.967,76.85L55.207,76.909C54.997,78.179 54.682,79.595 52.114,80.259C51.135,80.511 49.271,80.521 48.844,80.52C48.759,80.523 48.774,80.476 48.78,80.436ZM48.666,81.712C48.918,81.549 50.058,80.943 52.442,81.514C54.135,81.919 55.353,83.338 56.08,84.208L54.319,84.848L54.749,86.605C53.575,86.666 52.012,86.802 49.999,84.553C49.301,83.774 48.759,82.203 48.638,81.831C48.605,81.752 48.628,81.738 48.666,81.712ZM47.862,82.412C48.116,82.548 48.986,83.162 49.312,85.287C49.726,88.002 48.135,89.097 47.36,89.803C47.077,89.391 46.828,88.958 46.613,88.507C46.163,88.841 45.699,89.157 45.223,89.454C45.218,89.481 44.404,87.349 46.083,84.458C46.477,83.779 47.489,82.698 47.737,82.436C47.784,82.392 47.823,82.396 47.862,82.412Z" style="fill:rgb(252,225,233);"/>
                </g>
                <g transform="matrix(0.440793,-0.220397,0,0.440793,1956.722983,1420.808051)">
                    <path d="M47.662,81.3C47.192,80.974 46.293,80.556 45.351,80.233C43.67,79.658 42.028,79.669 40.564,81.395C40.889,81.69 41.209,81.985 41.761,82.268C41.257,82.848 40.967,83.239 40.601,83.698C43.602,84.871 45.191,83.861 46.238,82.868C46.934,82.206 47.468,81.62 47.678,81.395C47.71,81.358 47.695,81.329 47.662,81.3ZM48.029,80.44C48.296,79.112 48.773,77.667 48.69,76.532C48.549,74.596 47.395,73.958 46.56,73.431L45.538,75.058L43.997,74.058C43.88,74.902 43.801,76.154 44.946,78.188C45.68,79.491 47.236,80.336 47.914,80.512C47.994,80.529 48.002,80.505 48.029,80.44ZM48.78,80.436C48.893,80.033 49.396,78.301 49.81,77.575C51.062,75.378 53.227,75.107 54.078,75.355C54.043,75.856 53.988,76.164 53.967,76.85L55.207,76.909C54.997,78.179 54.682,79.595 52.114,80.259C51.135,80.511 49.271,80.521 48.844,80.52C48.759,80.523 48.774,80.476 48.78,80.436ZM48.666,81.712C48.918,81.549 50.058,80.943 52.442,81.514C54.135,81.919 55.353,83.338 56.08,84.208L54.319,84.848L54.749,86.605C53.575,86.666 52.012,86.802 49.999,84.553C49.301,83.774 48.759,82.203 48.638,81.831C48.605,81.752 48.628,81.738 48.666,81.712ZM47.862,82.412C48.116,82.548 48.986,83.162 49.312,85.287C49.726,88.002 48.135,89.097 47.36,89.803C47.077,89.391 46.828,88.958 46.613,88.507C46.163,88.841 45.699,89.157 45.223,89.454C45.218,89.481 44.404,87.349 46.083,84.458C46.477,83.779 47.489,82.698 47.737,82.436C47.784,82.392 47.823,82.396 47.862,82.412Z" style="fill:rgb(252,225,233);"/>
                </g>
                <g transform="matrix(0.440793,-0.220397,0,0.440793,1953.576603,1481.330763)">
                    <path d="M47.662,81.3C47.192,80.974 46.293,80.556 45.351,80.233C43.67,79.658 42.028,79.669 40.564,81.395C40.889,81.69 41.209,81.985 41.761,82.268C41.257,82.848 40.967,83.239 40.601,83.698C43.602,84.871 45.191,83.861 46.238,82.868C46.934,82.206 47.468,81.62 47.678,81.395C47.71,81.358 47.695,81.329 47.662,81.3ZM48.029,80.44C48.296,79.112 48.773,77.667 48.69,76.532C48.549,74.596 47.395,73.958 46.56,73.431L45.538,75.058L43.997,74.058C43.88,74.902 43.801,76.154 44.946,78.188C45.68,79.491 47.236,80.336 47.914,80.512C47.994,80.529 48.002,80.505 48.029,80.44ZM48.78,80.436C48.893,80.033 49.396,78.301 49.81,77.575C51.062,75.378 53.227,75.107 54.078,75.355C54.043,75.856 53.988,76.164 53.967,76.85L55.207,76.909C54.997,78.179 54.682,79.595 52.114,80.259C51.135,80.511 49.271,80.521 48.844,80.52C48.759,80.523 48.774,80.476 48.78,80.436ZM48.666,81.712C48.918,81.549 50.058,80.943 52.442,81.514C54.135,81.919 55.353,83.338 56.08,84.208L54.319,84.848L54.749,86.605C53.575,86.666 52.012,86.802 49.999,84.553C49.301,83.774 48.759,82.203 48.638,81.831C48.605,81.752 48.628,81.738 48.666,81.712ZM47.862,82.412C48.116,82.548 48.986,83.162 49.312,85.287C49.726,88.002 48.135,89.097 47.36,89.803C47.077,89.391 46.828,88.958 46.613,88.507C46.163,88.841 45.699,89.157 45.223,89.454C45.218,89.481 44.404,87.349 46.083,84.458C46.477,83.779 47.489,82.698 47.737,82.436C47.784,82.392 47.823,82.396 47.862,82.412Z" style="fill:rgb(252,225,233);"/>
                </g>
                <g transform="matrix(-0.044532,0.053799,-0.082508,-0.019126,1967.656541,1477.807483)">
                    <g transform="matrix(1,0,0,1,-190,-130.625)">
                        <clipPath id="_clip5">
                            <rect x="0" y="0" width="380" height="261.25"/>
                        </clipPath>
                        <g clip-path="url(#_clip5)">
                            <g transform="matrix(4.166667,0,0,4.166667,0,0)">
                                <path d="M58.35,35.85L58.95,34.5C59.35,34.1 59.8,33.9 60.3,33.9L61.65,34.5L62.1,35.1L62.25,35.85L61.65,37.35L60.3,37.95C59.8,37.95 59.35,37.75 58.95,37.35L58.8,37.05L58.35,35.85M52.95,26.1L53.55,24.75C53.95,24.35 54.4,24.15 54.9,24.15L56.25,24.75L56.85,26.1L56.25,27.6L54.9,28.2C54.4,28.2 53.95,28 53.55,27.6L52.95,26.1" style="fill-rule:nonzero;"/>
                            </g>
                            <g transform="matrix(4.166667,0,0,4.166667,0,0)">
                                <path d="M58.8,37.05L52.8,40.5L49.8,40.2L50.4,41.25L32.25,51.45L30,56.55L30.75,58.8L32.25,60.15L1.5,61.2L12.9,37.2L15.3,38.55L19.35,41.55L23.85,38.7L42.6,27L43.35,28.35L66.15,14.55L68.7,15.15L69,15.15L69.3,14.85C72.5,11.15 74.7,6.7 75.9,1.5L82.8,4.65L89.7,7.65C87.9,15.85 83.7,22.85 77.1,28.65L74.55,27.9L62.1,35.1L61.65,34.5L60.3,33.9C59.8,33.9 59.35,34.1 58.95,34.5L58.35,35.85L58.8,37.05M53.55,27.6C53.95,28 54.4,28.2 54.9,28.2L56.25,27.6L56.85,26.1L56.25,24.75L54.9,24.15C54.4,24.15 53.95,24.35 53.55,24.75L52.95,26.1L53.55,27.6" style="fill:rgb(252,182,196);fill-rule:nonzero;"/>
                            </g>
                            <g transform="matrix(4.166667,0,0,4.166667,0,0)">
                                <path d="M89.7,7.65C87.9,15.85 83.7,22.85 77.1,28.65M49.8,40.2L50.4,41.25L32.25,51.45M32.25,60.15L1.5,61.2L12.9,37.2M23.85,38.7L42.6,27L43.35,28.35M68.7,15.15L69,15.15L69.3,14.85C72.5,11.15 74.7,6.7 75.9,1.5M82.8,4.65C81,12.15 77.85,17.7 73.35,21.3M49.8,40.2L43.35,28.35" style="fill:none;fill-rule:nonzero;stroke:black;stroke-width:3px;stroke-linecap:round;stroke-linejoin:round;stroke-miterlimit:3;"/>
                            </g>
                        </g>
                    </g>
                </g>
            </g>
            <g id="Layer25" serif:id="Layer2" transform="matrix(1,0,0,1,-508.146448,-284.260142)">
                <g transform="matrix(0.894427,-0.447214,1.118034,0.559017,0,0)">
                    <rect x="-568.125" y="2214.733" width="5.625" height="8.267" style="fill:rgb(220,220,194);"/>
                    <path d="M-562.5,2214.733L-562.5,2223L-568.125,2223L-568.125,2214.733L-562.5,2214.733ZM-562.76,2214.941L-567.865,2214.941L-567.865,2222.792L-562.76,2222.792L-562.76,2214.941Z"/>
                </g>
                <g transform="matrix(0.714286,-0.357143,-0,0.773816,634.644008,991.487748)">
                    <path d="M1886.682,1448.972L1886.682,1461.976L1879.639,1461.976L1879.639,1520.491L1886.682,1520.491L1886.682,1553L1851.464,1553L1851.464,1448.972L1886.682,1448.972Z" style="fill:rgb(215,194,220);"/>
                    <path d="M1886.682,1448.972L1886.682,1461.976L1879.639,1461.976L1879.639,1520.491L1886.682,1520.491L1886.682,1553L1851.464,1553L1851.464,1448.972L1886.682,1448.972ZM1886.391,1449.273L1851.756,1449.273L1851.756,1552.699L1886.391,1552.699L1886.391,1520.792L1879.769,1520.792C1879.679,1520.792 1879.571,1520.738 1879.485,1520.65C1879.399,1520.561 1879.347,1520.45 1879.347,1520.357L1879.347,1461.841C1879.347,1461.739 1879.409,1461.675 1879.508,1461.675L1886.391,1461.675L1886.391,1449.273Z"/>
                </g>
                <g transform="matrix(0.894427,-0.447214,1.118034,0.559017,0,0)">
                    <rect x="-528.75" y="2137.5" width="28.125" height="36" style="fill:rgb(220,220,194);stroke:black;stroke-width:0.15px;"/>
                </g>
                <g transform="matrix(0.440793,-0.220397,0,0.440793,1941.242965,1497.230589)">
                    <path d="M47.662,81.3C47.192,80.974 46.293,80.556 45.351,80.233C43.67,79.658 42.028,79.669 40.564,81.395C40.889,81.69 41.209,81.985 41.761,82.268C41.257,82.848 40.967,83.239 40.601,83.698C43.602,84.871 45.191,83.861 46.238,82.868C46.934,82.206 47.468,81.62 47.678,81.395C47.71,81.358 47.695,81.329 47.662,81.3ZM48.029,80.44C48.296,79.112 48.773,77.667 48.69,76.532C48.549,74.596 47.395,73.958 46.56,73.431L45.538,75.058L43.997,74.058C43.88,74.902 43.801,76.154 44.946,78.188C45.68,79.491 47.236,80.336 47.914,80.512C47.994,80.529 48.002,80.505 48.029,80.44ZM48.78,80.436C48.893,80.033 49.396,78.301 49.81,77.575C51.062,75.378 53.227,75.107 54.078,75.355C54.043,75.856 53.988,76.164 53.967,76.85L55.207,76.909C54.997,78.179 54.682,79.595 52.114,80.259C51.135,80.511 49.271,80.521 48.844,80.52C48.759,80.523 48.774,80.476 48.78,80.436ZM48.666,81.712C48.918,81.549 50.058,80.943 52.442,81.514C54.135,81.919 55.353,83.338 56.08,84.208L54.319,84.848L54.749,86.605C53.575,86.666 52.012,86.802 49.999,84.553C49.301,83.774 48.759,82.203 48.638,81.831C48.605,81.752 48.628,81.738 48.666,81.712ZM47.862,82.412C48.116,82.548 48.986,83.162 49.312,85.287C49.726,88.002 48.135,89.097 47.36,89.803C47.077,89.391 46.828,88.958 46.613,88.507C46.163,88.841 45.699,89.157 45.223,89.454C45.218,89.481 44.404,87.349 46.083,84.458C46.477,83.779 47.489,82.698 47.737,82.436C47.784,82.392 47.823,82.396 47.862,82.412Z" style="fill:rgb(252,225,233);"/>
                </g>
                <g transform="matrix(0.440793,-0.220397,0,0.440793,1947.763077,1489.413979)">
                    <path d="M47.662,81.3C47.192,80.974 46.293,80.556 45.351,80.233C43.67,79.658 42.028,79.669 40.564,81.395C40.889,81.69 41.209,81.985 41.761,82.268C41.257,82.848 40.967,83.239 40.601,83.698C43.602,84.871 45.191,83.861 46.238,82.868C46.934,82.206 47.468,81.62 47.678,81.395C47.71,81.358 47.695,81.329 47.662,81.3ZM48.029,80.44C48.296,79.112 48.773,77.667 48.69,76.532C48.549,74.596 47.395,73.958 46.56,73.431L45.538,75.058L43.997,74.058C43.88,74.902 43.801,76.154 44.946,78.188C45.68,79.491 47.236,80.336 47.914,80.512C47.994,80.529 48.002,80.505 48.029,80.44ZM48.78,80.436C48.893,80.033 49.396,78.301 49.81,77.575C51.062,75.378 53.227,75.107 54.078,75.355C54.043,75.856 53.988,76.164 53.967,76.85L55.207,76.909C54.997,78.179 54.682,79.595 52.114,80.259C51.135,80.511 49.271,80.521 48.844,80.52C48.759,80.523 48.774,80.476 48.78,80.436ZM48.666,81.712C48.918,81.549 50.058,80.943 52.442,81.514C54.135,81.919 55.353,83.338 56.08,84.208L54.319,84.848L54.749,86.605C53.575,86.666 52.012,86.802 49.999,84.553C49.301,83.774 48.759,82.203 48.638,81.831C48.605,81.752 48.628,81.738 48.666,81.712ZM47.862,82.412C48.116,82.548 48.986,83.162 49.312,85.287C49.726,88.002 48.135,89.097 47.36,89.803C47.077,89.391 46.828,88.958 46.613,88.507C46.163,88.841 45.699,89.157 45.223,89.454C45.218,89.481 44.404,87.349 46.083,84.458C46.477,83.779 47.489,82.698 47.737,82.436C47.784,82.392 47.823,82.396 47.862,82.412Z" style="fill:rgb(252,225,233);"/>
                </g>
                <g transform="matrix(0.440793,-0.220397,0,0.440793,1956.722983,1420.808051)">
                    <path d="M47.662,81.3C47.192,80.974 46.293,80.556 45.351,80.233C43.67,79.658 42.028,79.669 40.564,81.395C40.889,81.69 41.209,81.985 41.761,82.268C41.257,82.848 40.967,83.239 40.601,83.698C43.602,84.871 45.191,83.861 46.238,82.868C46.934,82.206 47.468,81.62 47.678,81.395C47.71,81.358 47.695,81.329 47.662,81.3ZM48.029,80.44C48.296,79.112 48.773,77.667 48.69,76.532C48.549,74.596 47.395,73.958 46.56,73.431L45.538,75.058L43.997,74.058C43.88,74.902 43.801,76.154 44.946,78.188C45.68,79.491 47.236,80.336 47.914,80.512C47.994,80.529 48.002,80.505 48.029,80.44ZM48.78,80.436C48.893,80.033 49.396,78.301 49.81,77.575C51.062,75.378 53.227,75.107 54.078,75.355C54.043,75.856 53.988,76.164 53.967,76.85L55.207,76.909C54.997,78.179 54.682,79.595 52.114,80.259C51.135,80.511 49.271,80.521 48.844,80.52C48.759,80.523 48.774,80.476 48.78,80.436ZM48.666,81.712C48.918,81.549 50.058,80.943 52.442,81.514C54.135,81.919 55.353,83.338 56.08,84.208L54.319,84.848L54.749,86.605C53.575,86.666 52.012,86.802 49.999,84.553C49.301,83.774 48.759,82.203 48.638,81.831C48.605,81.752 48.628,81.738 48.666,81.712ZM47.862,82.412C48.116,82.548 48.986,83.162 49.312,85.287C49.726,88.002 48.135,89.097 47.36,89.803C47.077,89.391 46.828,88.958 46.613,88.507C46.163,88.841 45.699,89.157 45.223,89.454C45.218,89.481 44.404,87.349 46.083,84.458C46.477,83.779 47.489,82.698 47.737,82.436C47.784,82.392 47.823,82.396 47.862,82.412Z" style="fill:rgb(252,225,233);"/>
                </g>
                <g transform="matrix(0.440793,-0.220397,0,0.440793,1953.576603,1481.330763)">
                    <path d="M47.662,81.3C47.192,80.974 46.293,80.556 45.351,80.233C43.67,79.658 42.028,79.669 40.564,81.395C40.889,81.69 41.209,81.985 41.761,82.268C41.257,82.848 40.967,83.239 40.601,83.698C43.602,84.871 45.191,83.861 46.238,82.868C46.934,82.206 47.468,81.62 47.678,81.395C47.71,81.358 47.695,81.329 47.662,81.3ZM48.029,80.44C48.296,79.112 48.773,77.667 48.69,76.532C48.549,74.596 47.395,73.958 46.56,73.431L45.538,75.058L43.997,74.058C43.88,74.902 43.801,76.154 44.946,78.188C45.68,79.491 47.236,80.336 47.914,80.512C47.994,80.529 48.002,80.505 48.029,80.44ZM48.78,80.436C48.893,80.033 49.396,78.301 49.81,77.575C51.062,75.378 53.227,75.107 54.078,75.355C54.043,75.856 53.988,76.164 53.967,76.85L55.207,76.909C54.997,78.179 54.682,79.595 52.114,80.259C51.135,80.511 49.271,80.521 48.844,80.52C48.759,80.523 48.774,80.476 48.78,80.436ZM48.666,81.712C48.918,81.549 50.058,80.943 52.442,81.514C54.135,81.919 55.353,83.338 56.08,84.208L54.319,84.848L54.749,86.605C53.575,86.666 52.012,86.802 49.999,84.553C49.301,83.774 48.759,82.203 48.638,81.831C48.605,81.752 48.628,81.738 48.666,81.712ZM47.862,82.412C48.116,82.548 48.986,83.162 49.312,85.287C49.726,88.002 48.135,89.097 47.36,89.803C47.077,89.391 46.828,88.958 46.613,88.507C46.163,88.841 45.699,89.157 45.223,89.454C45.218,89.481 44.404,87.349 46.083,84.458C46.477,83.779 47.489,82.698 47.737,82.436C47.784,82.392 47.823,82.396 47.862,82.412Z" style="fill:rgb(252,225,233);"/>
                </g>
                <g transform="matrix(-0.044532,0.053799,-0.082508,-0.019126,1967.656541,1477.807483)">
                    <g transform="matrix(1,0,0,1,-190,-130.625)">
                        <clipPath id="_clip6">
                            <rect x="0" y="0" width="380" height="261.25"/>
                        </clipPath>
                        <g clip-path="url(#_clip6)">
                            <g transform="matrix(4.166667,0,0,4.166667,0,0)">
                                <path d="M58.35,35.85L58.95,34.5C59.35,34.1 59.8,33.9 60.3,33.9L61.65,34.5L62.1,35.1L62.25,35.85L61.65,37.35L60.3,37.95C59.8,37.95 59.35,37.75 58.95,37.35L58.8,37.05L58.35,35.85M52.95,26.1L53.55,24.75C53.95,24.35 54.4,24.15 54.9,24.15L56.25,24.75L56.85,26.1L56.25,27.6L54.9,28.2C54.4,28.2 53.95,28 53.55,27.6L52.95,26.1" style="fill-rule:nonzero;"/>
                            </g>
                            <g transform="matrix(4.166667,0,0,4.166667,0,0)">
                                <path d="M58.8,37.05L52.8,40.5L49.8,40.2L50.4,41.25L32.25,51.45L30,56.55L30.75,58.8L32.25,60.15L1.5,61.2L12.9,37.2L15.3,38.55L19.35,41.55L23.85,38.7L42.6,27L43.35,28.35L66.15,14.55L68.7,15.15L69,15.15L69.3,14.85C72.5,11.15 74.7,6.7 75.9,1.5L82.8,4.65L89.7,7.65C87.9,15.85 83.7,22.85 77.1,28.65L74.55,27.9L62.1,35.1L61.65,34.5L60.3,33.9C59.8,33.9 59.35,34.1 58.95,34.5L58.35,35.85L58.8,37.05M53.55,27.6C53.95,28 54.4,28.2 54.9,28.2L56.25,27.6L56.85,26.1L56.25,24.75L54.9,24.15C54.4,24.15 53.95,24.35 53.55,24.75L52.95,26.1L53.55,27.6" style="fill:rgb(252,182,196);fill-rule:nonzero;"/>
                            </g>
                            <g transform="matrix(4.166667,0,0,4.166667,0,0)">
                                <path d="M89.7,7.65C87.9,15.85 83.7,22.85 77.1,28.65M49.8,40.2L50.4,41.25L32.25,51.45M32.25,60.15L1.5,61.2L12.9,37.2M23.85,38.7L42.6,27L43.35,28.35M68.7,15.15L69,15.15L69.3,14.85C72.5,11.15 74.7,6.7 75.9,1.5M82.8,4.65C81,12.15 77.85,17.7 73.35,21.3M49.8,40.2L43.35,28.35" style="fill:none;fill-rule:nonzero;stroke:black;stroke-width:3px;stroke-linecap:round;stroke-linejoin:round;stroke-miterlimit:3;"/>
                            </g>
                        </g>
                    </g>
                </g>
            </g>
        </g>
    </g>
</svg>
