<?xml version="1.0" encoding="UTF-8" standalone="no"?>
<svg
   height="182"
   width="160"
   version="1.1"
   id="svg9"
   sodipodi:docname="Boomer back-standing.svg"
   inkscape:version="1.4.2 (f4327f4, 2025-05-13)"
   xmlns:inkscape="http://www.inkscape.org/namespaces/inkscape"
   xmlns:sodipodi="http://sodipodi.sourceforge.net/DTD/sodipodi-0.dtd"
   xmlns="http://www.w3.org/2000/svg"
   xmlns:svg="http://www.w3.org/2000/svg">
  <defs
     id="defs9">
    <inkscape:path-effect
       effect="bspline"
       id="path-effect10"
       is_visible="true"
       lpeversion="1.3"
       weight="33.333333"
       steps="2"
       helper_size="0"
       apply_no_weight="true"
       apply_with_weight="true"
       only_selected="false"
       uniform="false" />
  </defs>
  <sodipodi:namedview
     id="namedview9"
     pagecolor="#ffffff"
     bordercolor="#999999"
     borderopacity="1"
     inkscape:showpageshadow="2"
     inkscape:pageopacity="0"
     inkscape:pagecheckerboard="0"
     inkscape:deskcolor="#d1d1d1"
     inkscape:zoom="6.0842265"
     inkscape:cx="70.428016"
     inkscape:cy="55.635667"
     inkscape:window-width="2400"
     inkscape:window-height="1271"
     inkscape:window-x="2391"
     inkscape:window-y="-9"
     inkscape:window-maximized="1"
     inkscape:current-layer="svg9" />
  <g
     id="g2"
     transform="translate(-8.1265439,-7.8033791)">
    <path
       style="fill:#b27d34;fill-opacity:1;stroke:#93672b;stroke-width:1.102;stroke-linecap:round;stroke-linejoin:round;stroke-opacity:1"
       id="path9-2"
       sodipodi:type="arc"
       sodipodi:cx="32.069679"
       sodipodi:cy="-111.86487"
       sodipodi:rx="5.3461046"
       sodipodi:ry="5.5785441"
       sodipodi:start="0"
       sodipodi:end="4.8192059"
       sodipodi:arc-type="slice"
       d="m 37.415784,-111.86487 a 5.3461046,5.5785441 0 0 1 -3.432849,5.20907 5.3461046,5.5785441 0 0 1 -5.889935,-1.48064 5.3461046,5.5785441 0 0 1 -0.782911,-6.26885 5.3461046,5.5785441 0 0 1 5.329559,-3.00633 l -0.569969,5.54675 z"
       transform="rotate(129.58355)" />
    <path
       style="fill:#b27d34;fill-opacity:1;stroke:#93672b;stroke-width:1.102;stroke-linecap:round;stroke-linejoin:round;stroke-opacity:1"
       d="m 60.30348,95.823116 c 0.123114,0.845834 0.191496,1.315642 0.402349,1.95109 0.210853,0.635448 0.368306,0.849996 0.740046,1.410378 0.371741,0.560382 0.884521,1.380826 1.059893,1.653676 0.175373,0.27285 0.330332,0.50529 0.524032,0.69899 0.193699,0.1937 0.426139,0.34866 0.542358,0.50362 0.11622,0.15496 0.11622,0.30992 0.15496,0.3874 0.03874,0.0775 0.11622,0.0775 0.1937,0.1937 0.07748,0.11622 0.154959,0.34866 0.387397,0.73606 0.232438,0.38739 0.619838,0.92975 0.813538,1.39463 0.1937,0.46488 0.1937,0.85228 0.232445,1.08473 0.03875,0.23244 0.116215,0.30991 0.193695,0.42613 0.07748,0.11622 0.154959,0.27118 0.232439,0.73605 0.07748,0.46488 0.154959,1.23968 0.232444,1.66583 0.07748,0.42614 0.154955,0.50361 0.193695,0.85227 0.03874,0.34866 0.03874,0.96849 0.07748,1.35589 0.03874,0.3874 0.116219,0.54236 0.154959,1.51086 0.03874,0.9685 0.03874,2.75053 0,4.61005 -0.03874,1.85951 -0.116219,3.7965 -0.154959,5.11366 -0.03874,1.31716 -0.03874,2.01448 -0.07748,2.67305 -0.03874,0.65858 -0.11622,1.27842 -0.15496,2.13069 -0.03874,0.85228 -0.03874,1.937 -0.07748,2.59558 -0.03874,0.65858 -0.116219,0.89102 -0.154959,1.43337 -0.03874,0.54236 -0.03874,1.39464 -0.07748,2.59558 -0.03874,1.20094 -0.116219,2.75053 0.232441,4.14517 0.34866,1.39464 1.123454,2.63431 1.936992,3.25415 0.813539,0.61984 1.665816,0.61984 2.091955,0.58109 0.426139,-0.0387 0.426139,-0.11621 0.581099,-0.15495 0.154959,-0.0387 0.464878,-0.0387 0.813537,-0.23244 0.348659,-0.1937 0.736058,-0.5811 1.007237,-0.85228 0.271179,-0.27118 0.426139,-0.42614 0.503618,-0.65858 0.07748,-0.23244 0.07748,-0.54236 0.15496,-0.92976 0.07748,-0.3874 0.232438,-0.85227 0.309919,-2.16943 0.07748,-1.31716 0.07748,-3.48659 0.07748,-4.99745 0,-1.51085 0,-2.36313 -0.03874,-2.94423 -0.03874,-0.5811 -0.116219,-0.89101 -0.154959,-2.20817 -0.03874,-1.31716 -0.03874,-3.64155 -0.07748,-4.84249 -0.03875,-1.20094 -0.116215,-1.27841 -0.154955,-1.58833 -0.03874,-0.30992 -0.03874,-0.85228 -0.03874,-2.01448 0,-1.16219 0,-2.94423 0,-4.22265 0,-1.27841 0,-2.05321 -0.03875,-2.47936 -0.03874,-0.42614 -0.116214,-0.50361 -0.193694,-0.73605 -0.07748,-0.23244 -0.154959,-0.61983 -0.193699,-0.89101 -0.03874,-0.27118 -0.03874,-0.42614 -0.03874,-0.69732 0,-0.27118 0,-0.65858 -0.1937,-1.3559 -0.1937,-0.69732 -0.581097,-1.70455 -0.746241,-3.59788 -0.165145,-1.89333 -0.122619,-3.962914 -0.16488,-5.80038 -0.04226,-1.837466 -0.159448,-2.492527 -0.289815,-3.221256"
       id="path10"
       inkscape:original-d="m 60.30348,95.823116 c 0.123114,0.845834 0.191496,1.315642 0.317913,2.184171 0.295289,0.402367 0.452742,0.616915 0.742592,1.01187 0.453631,0.725809 2.074379,0.853776 1.162196,1.859513 0.15496,0.23244 0.309919,0.46488 0.464879,0.69732 0.232439,0.15496 0.464879,0.30992 0.697318,0.46488 0,0.15496 0,0.30992 0,0.46488 0.07748,0 0.15496,0 0.232439,0 0.07748,0.23244 0.15496,0.46488 0.23244,0.69732 0.387399,0.54235 0.774797,1.08471 1.162196,1.62707 0,0.3874 0,0.7748 0,1.1622 0.07748,0.0775 0.15496,0.15496 0.23244,0.23244 0.07748,0.15496 0.154959,0.30992 0.232439,0.46488 0.07748,0.77479 0.15496,1.54959 0.232439,2.32439 0.07748,0.0775 0.15496,0.15496 0.23244,0.23244 0,0.61984 0,1.23967 0,1.85951 0.07748,0.15496 0.154959,0.30992 0.232439,0.46488 0,1.78204 0,3.56407 0,5.34611 -0.07748,1.93699 -0.154959,3.87398 -0.232439,5.81098 0,0.69732 0,1.39464 0,2.09195 -0.07748,0.61984 -0.15496,1.23968 -0.23244,1.85952 0,1.08471 0,2.16943 0,3.25415 -0.07748,0.23244 -0.154959,0.46488 -0.232439,0.69732 0,0.85227 0,1.70455 0,2.55683 -0.07748,1.5496 -0.15496,3.09919 -0.232439,4.64879 0.774799,1.23968 1.549595,2.47935 2.324393,3.71903 0.852278,0 1.704555,0 2.556833,0 0,-0.0775 0,-0.15496 0,-0.23244 0.309919,0 0.619838,0 0.929757,0 0.387399,-0.3874 0.774798,-0.7748 1.162197,-1.1622 0.154959,-0.15496 0.309919,-0.30992 0.464878,-0.46488 0,-0.30992 0,-0.61984 0,-0.92976 0.15496,-0.46488 0.30992,-0.92975 0.464879,-1.39463 0,-2.16944 0,-4.33887 0,-6.5083 0,-0.85228 0,-1.70456 0,-2.55684 -0.07748,-0.30992 -0.154959,-0.61983 -0.232439,-0.92975 0,-2.3244 0,-4.64879 0,-6.97318 -0.07748,-0.0775 -0.15496,-0.15496 -0.23244,-0.23244 0,-0.54236 0,-1.08472 0,-1.62708 0,-1.78203 0,-3.56407 0,-5.3461 0,-0.7748 0,-1.5496 0,-2.3244 -0.07748,-0.0775 -0.154959,-0.15496 -0.232439,-0.23244 -0.07748,-0.3874 -0.154959,-0.77479 -0.232439,-1.16219 0,-0.15496 0,-0.30992 0,-0.46488 0,-0.3874 0,-0.7748 0,-1.1622 -0.387399,-1.00724 -0.774798,-2.01447 -1.162197,-3.02171 -0.980857,-2.80075 -0.686721,-4.865162 0.158661,-7.721538 -0.143545,-0.802398 -0.3911,-2.186188 -0.3911,-2.186188"
       inkscape:path-effect="#path-effect10"
       sodipodi:nodetypes="cccccccccccccccccccccccccscccscccsccccsscccscccc" />
  </g>
  <g
     style="clip-rule:evenodd;fill-rule:evenodd;stroke-linecap:round;stroke-linejoin:round"
     id="g9">
    <path
       d="M-15.5-41.55c-1.767-2.067-2.6-4.433-2.5-7.1-.1-3.533 1.683-6.8 5.35-9.8C-8.983-61.817-4.6-63.667.5-64c5.067.333 9.417 2.183 13.05 5.55 3.633 3 5.45 6.267 5.45 9.8 0 2.667-.867 5.033-2.6 7.1h.1-.05L13.9-38.5l-.05-.1-.8.05s3.276 3.995 2.942 3.395c-.766-.3.72 5.06.853 4.093L14.17-27l-.902 1.488-.83 1.929-.188 4.783-1.05 4.1-1.65 4v.05H8.4v5.2c-.033.9-.3 1.65-.8 2.25-.433.5-1 .75-1.7.75-.667 0-1.233-.25-1.7-.75-.533-.6-.8-1.35-.8-2.25v-5.2H2.1v-1.2h-.3V-12l-.9-1.55h-2.45l-1.55 1.7v1.2h-1.2v5.2c-.033.9-.3 1.65-.8 2.25-.467.5-1.033.75-1.7.75s-1.25-.25-1.75-.75c-.5-.6-.75-1.35-.75-2.25v-5.2h-1.2L-12.1-13l.1-.1c-1.2-1.267-1.917-2.65-2.15-4.15l-.1-1.2.05-.95.55-1.85h.1v-.55l.15-.15v-1.35h-.05l-.05-.8v-2.05c-2.635-1.595-3.082-4.106-1.959-7.274l3.059-5.126-.85-.05-.4-.05v-.15l-2.05-2.75h.2m1.75 19.65-.05-.1.05.1"
       style="fill:#fff"
       transform="matrix(2 0 0 2 82.64 144.2)"
       id="path1" />
    <path
       d="M101.74 122.9v10.4c0 2.6-.665 4.666-2 6.2-1.465 1.666-3.233 2.5-5.3 2.5-2 0-3.765-.834-5.3-2.5-1.4-1.534-2.065-3.6-2-6.2v-10.4h2.3v10.4c0 1.8.535 3.3 1.6 4.5.935 1 2.067 1.5 3.4 1.5 1.4 0 2.535-.5 3.4-1.5 1-1.2 1.535-2.7 1.6-4.5v-10.4h2.3m-25.4 0v10.4c0 2.6-.7 4.666-2.1 6.2-1.465 1.666-3.2 2.5-5.2 2.5s-3.765-.834-5.3-2.5c-1.4-1.534-2.1-3.6-2.1-6.2v-10.4h2.4v10.4c0 1.8.5 3.3 1.5 4.5 1 1 2.167 1.5 3.5 1.5 1.335 0 2.467-.5 3.4-1.5 1-1.2 1.535-2.7 1.6-4.5v-10.4h2.3"
       id="path2" />
    <path
       d="M3.1 23.05C1.333 20.983.5 18.617.6 15.95c-.1-3.533 1.683-6.8 5.35-9.8C9.617 2.783 14 .933 19.1.6c5.067.333 9.417 2.183 13.05 5.55 3.633 3 5.45 6.267 5.45 9.8 0 2.667-.867 5.033-2.6 7.1"
       style="fill:none;fill-rule:nonzero;stroke:#000;stroke-width:1.2px"
       transform="matrix(2 0 0 2 45.44 15)"
       id="path3" />
    <path
       d="M107.929 74.147s.772 9.592-.182 25.753"
       style="fill:none;stroke:#000;stroke-width:2.5px;stroke-linecap:square;stroke-miterlimit:1.5"
       transform="matrix(-1 0 0 1 164.353 0)"
       id="path4" />
    <path
       d="m71.369 29.832 7.834.512"
       style="fill:none;stroke:#000;stroke-width:2.5px;stroke-linecap:square;stroke-miterlimit:1.5"
       transform="translate(31)"
       id="path5" />
    <path
       d="M107.75 36h.402l1.107.2.905.7c.604.6.906 1.266.906 2l-.906 2.3c-.603.534-1.273.8-2.012.8l-1.61-.4-.503-.4-.906-1.4v-.3l-.1-.6v-.2c.066-.666.402-1.266 1.006-1.8l.503-.4a2.385 2.385 0 0 1 1.107-.5h.1m.906 1.7-.503-.1c-.469-.066-.84.066-1.107.4-.267.2-.402.5-.402.9v.3l.302.9h.1l.1.1.403.2.604.1 1.107-.4.302-1.2-.1-.6-.202-.3-.1-.1-.303-.2h-.2"
       id="path6" />
    <path
       d="m69.325 46.898 7.198.589m-2.816 11.456 2.944-11.52-.192-5.184"
       style="fill:none;stroke:#000;stroke-width:2.52px;stroke-miterlimit:1.5"
       transform="matrix(-1 0 0 1 188.777 1.835)"
       id="path7" />
    <path
       d="M109.273 68.259s5.824 7.68 5.952 12.608c0 0 .281 7.085-5.084 9.591"
       style="fill:none;stroke:#000;stroke-width:2.5px;stroke-linecap:square;stroke-miterlimit:1.5"
       transform="matrix(-1 0 0 1 165.804 0)"
       id="path9" />
  </g>
  <path
     style="fill:#b3b1ac;fill-opacity:1;stroke:#98968f;stroke-width:1;stroke-linecap:round;stroke-linejoin:round;stroke-dasharray:none;stroke-opacity:1;paint-order:markers fill stroke"
     d="m 95.202979,49.854645 c -9.205152,8.638475 10.297771,17.465995 15.493451,23.110275 2.81888,-1.34487 3.97684,-10.40466 3.97684,-10.40466 0,0 -3.17126,-0.6459 -4.71025,-1.13584 -2.01403,-0.64117 -4.36782,-1.39443 -5.88904,-2.35073 -1.4504,-0.91179 -3.78452,-2.073068 -5.265662,-3.597989 -1.550921,-1.596752 -3.605339,-5.621056 -3.605339,-5.621056 z"
     id="path7-5"
     sodipodi:nodetypes="sscasas" />
  <path
     d="M57.067 67.172s-9.536 8.96-5.824 17.344c0 0 2.56 4.352 6.08 5.696 0 0-1.216 3.84 4.096 6.208 0 0 5.632 1.984 8.512-5.184 0 0 1.152-6.784-4.352-7.68 0 0-4.608-1.408-5.12-4.48"
     style="clip-rule:evenodd;fill-rule:evenodd;stroke-linecap:square;stroke-linejoin:round;fill:#ffffff;stroke:#000;stroke-width:2.5px;stroke-miterlimit:1.5;fill-opacity:1"
     transform="matrix(-1,0,0,1,166.341,1.06)"
     id="path8" />
  <path
     style="fill:none;fill-opacity:1;stroke:#98968f;stroke-width:1.102;stroke-linecap:round;stroke-linejoin:round;stroke-opacity:1"
     d="m 95.613294,47.644408 c 0,0 8.613496,-1.358082 11.157076,1.394636 1.15801,1.253212 0.23244,5.113665 0.23244,5.113665 l 0.23244,0.697318"
     id="path15-1"
     sodipodi:nodetypes="cacc" />
  <path
     style="fill:none;fill-opacity:1;stroke:#98968f;stroke-width:1.29848;stroke-linecap:round;stroke-linejoin:round;stroke-opacity:1"
     d="m 105.86801,26.606495 c -2.14998,-0.04011 -3.58413,-2.624896 -5.71373,-2.58784 -1.518499,0.02642 -2.90435,1.966668 -2.90435,1.966668"
     id="path19-1"
     sodipodi:nodetypes="csc" />
</svg>
