<?xml version="1.0" encoding="UTF-8" standalone="no"?>
<svg
   height="182"
   width="160"
   version="1.1"
   id="svg6"
   sodipodi:docname="Boomer back-sitting.svg"
   inkscape:version="1.4.2 (f4327f4, 2025-05-13)"
   xmlns:inkscape="http://www.inkscape.org/namespaces/inkscape"
   xmlns:sodipodi="http://sodipodi.sourceforge.net/DTD/sodipodi-0.dtd"
   xmlns="http://www.w3.org/2000/svg"
   xmlns:svg="http://www.w3.org/2000/svg">
  <defs
     id="defs6" />
  <sodipodi:namedview
     id="namedview6"
     pagecolor="#ffffff"
     bordercolor="#999999"
     borderopacity="1"
     inkscape:showpageshadow="2"
     inkscape:pageopacity="0"
     inkscape:pagecheckerboard="0"
     inkscape:deskcolor="#d1d1d1"
     inkscape:zoom="8.6043956"
     inkscape:cx="98.379949"
     inkscape:cy="70.603448"
     inkscape:window-width="2400"
     inkscape:window-height="1271"
     inkscape:window-x="2391"
     inkscape:window-y="-9"
     inkscape:window-maximized="1"
     inkscape:current-layer="svg6" />
  <g
     style="clip-rule:evenodd;fill-rule:evenodd;stroke-linecap:round;stroke-linejoin:round"
     id="g6">
    <path
       d="M-15.5-41.55c-1.767-2.067-2.6-4.433-2.5-7.1-.1-3.533 1.683-6.8 5.35-9.8C-8.983-61.817-4.6-63.667.5-64c5.067.333 9.417 2.183 13.05 5.55 3.633 3 5.45 6.267 5.45 9.8 0 2.667-.867 5.033-2.6 7.1h.1-.05L13.9-38.5l-.05-.1-.8.05.65 9.65h.15l.25.75.2.5.2.4-.15.45-.3.75-.2.35c-.4.367-.767.617-1.1.75l-.15.1h-.5c-1.067.2-1.767 0-2.1-.6-.767-.3-1.083-.933-.95-1.9l.4-1.4v-.05l.15-.05-.45-6.45-1.35.1.45 6.3-.5 2c.167 1.1.6 1.9 1.3 2.4-.167.233-.117.283.15.15.733.9 1.75 1.183 3.05.85l.25.05h.2l-.05.45h-.05l-.25 2.95h-.05l-.05.2h-1.9l-1.2 1.55h5.05c.467 0 .85.133 1.15.4.367.367.55.917.55 1.65 0 .7-.183 1.233-.55 1.6-.3.3-.683.45-1.15.45H7.6v1.2l-6.65-.45-.05-.1-11.55.3-1.6-.15c-1.067-1.2-1.7-2.483-1.9-3.85l-.1-1.2.05-.95.55-1.85h.1v-.55l.15-.15v-1.35h-.05l-.05-.8v-2.05l-.2-.65-.15-.45.15-.4.25-.5.25-.75h.1l.7-9.65-.85-.05-.4-.05v-.15l-2.05-2.75h.2M-13.8-22l.05.1-.05-.1m3.75-6.45-.05-.05v.05h.05"
       style="fill:#fff"
       transform="matrix(2 0 0 2 82.64 144.2)"
       id="path1" />
    <path
       d="M3.1 23.05C1.333 20.983.5 18.617.6 15.95c-.1-3.533 1.683-6.8 5.35-9.8C9.617 2.783 14 .933 19.1.6c5.067.333 9.417 2.183 13.05 5.55 3.633 3 5.45 6.267 5.45 9.8 0 2.667-.867 5.033-2.6 7.1"
       style="fill:none;fill-rule:nonzero;stroke:#000;stroke-width:1.2px"
       transform="matrix(2 0 0 2 45.44 15)"
       id="path3" />
    <path
       d="m71.369 29.832 7.834.512"
       style="fill:none;stroke:#000;stroke-width:2.5px;stroke-linecap:square;stroke-miterlimit:1.5"
       transform="translate(31)"
       id="path4" />
    <path
       d="M107.75 36h.402l1.107.2.905.7c.604.6.906 1.266.906 2l-.906 2.3c-.603.534-1.273.8-2.012.8l-1.61-.4-.503-.4-.906-1.4v-.3l-.1-.6v-.2c.066-.666.402-1.266 1.006-1.8l.503-.4a2.385 2.385 0 0 1 1.107-.5h.1m.906 1.7-.503-.1c-.469-.066-.84.066-1.107.4-.267.2-.402.5-.402.9v.3l.302.9h.1l.1.1.403.2.604.1 1.107-.4.302-1.2-.1-.6-.202-.3-.1-.1-.303-.2h-.2"
       id="path5" />
    <path
       d="m69.325 46.898 7.198.589m-2.816 11.456 2.944-11.52-.192-5.184"
       style="fill:none;stroke:#000;stroke-width:2.52px;stroke-miterlimit:1.5"
       transform="matrix(-1 0 0 1 188.777 1.835)"
       id="path6" />
  </g>
  <path
     style="opacity:1;fill:#b3b1ac;fill-opacity:1;stroke:#98968f;stroke-width:1;stroke-linecap:round;stroke-linejoin:round;stroke-dasharray:none;stroke-opacity:1;paint-order:markers fill stroke"
     d="m 95.203265,49.6691 c -9.205152,8.638478 10.297775,17.465992 15.493455,23.11028 2.81888,-1.344879 3.97684,-10.404668 3.97684,-10.404668 0,0 -3.17126,-0.645898 -4.71025,-1.135836 -2.01403,-0.641172 -4.36782,-1.394431 -5.88904,-2.350736 -1.4504,-0.911782 -3.78452,-2.073063 -5.265666,-3.597984 C 97.257683,53.693404 95.203265,49.6691 95.203265,49.6691 Z"
     id="path7"
     sodipodi:nodetypes="sscasas" />
  <path
     d="m 112.04,76.2 0.3,3.9 0.1,-0.1 v 0.2 l 0.4,5.3 v 0.7 h -0.2 v 0.2 l 1.2,2.2 c -0.065,0.334 0.035,0.534 0.3,0.6 0.4,2.134 0,3.766 -1.2,4.9 l -0.3,0.4 c -0.2,-0.066 -0.333,0 -0.4,0.2 l -0.5,0.5 -1.1,1 c -0.865,0.666 -1.733,1.034 -2.6,1.1 h -0.4 l -0.5,-0.1 c -2.6,0.666 -4.633,0.1 -6.1,-1.7 -0.533,0.266 -0.633,0.166 -0.3,-0.3 -1.4,-1 -2.265,-2.6 -2.6,-4.8 l 1,-4 -0.9,-12.6 12.2,-6.6"
     id="path8"
     style="clip-rule:evenodd;fill-rule:evenodd;stroke-linecap:round;stroke-linejoin:round;fill:#ffffff;fill-opacity:1"
     sodipodi:nodetypes="cccccccccccccccccccccccc" />
  <path
     d="m110.44 67.2 1.6 9 .3 3.9.1-.1v.2l.4 5.3v.7h-.2v.2l1.2 2.2c-.065.334.035.534.3.6.4 2.134 0 3.766-1.2 4.9l-.3.4c-.2-.066-.333 0-.4.2l-.5.5-1.1 1c-.865.666-1.733 1.034-2.6 1.1h-.4l-.5-.1c-2.6.666-4.633.1-6.1-1.7-.533.266-.633.166-.3-.3-1.4-1-2.265-2.6-2.6-4.8l1-4-.9-12.6 2.7-.2.9 12.9-.3.1v.1l-.8 2.8c-.265 1.934.367 3.2 1.9 3.8.667 1.2 2.067 1.6 4.2 1.2h1l.3-.2c.667-.266 1.4-.766 2.2-1.5l.4-.7.6-1.5.3-.9-.4-.8-.4-1-.5-1.5h-.3l-1.3-19.3 1.6-.1.1.2m-3.3 37.3h4c1.667 0 3.035.534 4.1 1.6 1.2 1.2 1.8 3.066 1.8 5.6 0 2.466-.6 4.3-1.8 5.5-1.065 1.066-2.433 1.6-4.1 1.6h-13.3v-3h13.2c.935 0 1.7-.3 2.3-.9.735-.734 1.1-1.8 1.1-3.2 0-1.466-.365-2.566-1.1-3.3-.6-.534-1.365-.8-2.3-.8h-10.1l2.4-3.1h3.8M55.64 96l-.9-.8-.4-.5-.4-.2-.4-.4c-1.2-1.134-1.565-2.766-1.1-4.9.2-.066.3-.266.3-.6l1.2-2.4h-.2l-.1-.7h.1l.4-5.3V80l.1.1.2-3.9 1.7-9.2 1.7.1-1.4 19.3h-.2l-.5 1.5-.5 1-.3.8.3.9.4 1.3V96"
     id="path2"
     style="clip-rule:evenodd;fill-rule:evenodd;stroke-linecap:round;stroke-linejoin:round" />
  <path
     style="fill:none;fill-opacity:1;stroke:#98968f;stroke-width:1.102;stroke-linecap:round;stroke-linejoin:round;stroke-opacity:1"
     d="m 95.61358,47.458863 c 0,0 8.6135,-1.358082 11.15708,1.394636 1.15801,1.253212 0.23244,5.113665 0.23244,5.113665 l 0.23244,0.697318"
     id="path15-1"
     sodipodi:nodetypes="cacc" />
  <path
     style="fill:none;fill-opacity:1;stroke:#98968f;stroke-width:1.29848;stroke-linecap:round;stroke-linejoin:round;stroke-opacity:1"
     d="m 105.8683,26.42095 c -2.14998,-0.04011 -3.58413,-2.624896 -5.71373,-2.58784 -1.518503,0.02642 -2.904354,1.966668 -2.904354,1.966668"
     id="path19-1"
     sodipodi:nodetypes="csc" />
</svg>
