<?xml version="1.0" encoding="UTF-8" standalone="no"?>
<svg
   height="182"
   width="160"
   version="1.1"
   id="svg10"
   sodipodi:docname="Boomer front-walking-2.svg"
   inkscape:version="1.4.2 (f4327f4, 2025-05-13)"
   xmlns:inkscape="http://www.inkscape.org/namespaces/inkscape"
   xmlns:sodipodi="http://sodipodi.sourceforge.net/DTD/sodipodi-0.dtd"
   xmlns="http://www.w3.org/2000/svg"
   xmlns:svg="http://www.w3.org/2000/svg">
  <defs
     id="defs10">
    <inkscape:path-effect
       effect="bspline"
       id="path-effect10"
       is_visible="true"
       lpeversion="1.3"
       weight="33.333333"
       steps="2"
       helper_size="0"
       apply_no_weight="true"
       apply_with_weight="true"
       only_selected="false"
       uniform="false" />
  </defs>
  <sodipodi:namedview
     id="namedview10"
     pagecolor="#ffffff"
     bordercolor="#999999"
     borderopacity="1"
     inkscape:showpageshadow="2"
     inkscape:pageopacity="0"
     inkscape:pagecheckerboard="0"
     inkscape:deskcolor="#d1d1d1"
     inkscape:zoom="4.3021978"
     inkscape:cx="80.075351"
     inkscape:cy="91"
     inkscape:window-width="2400"
     inkscape:window-height="1271"
     inkscape:window-x="2391"
     inkscape:window-y="-9"
     inkscape:window-maximized="1"
     inkscape:current-layer="svg10" />
  <g
     style="clip-rule:evenodd;fill-rule:evenodd;stroke-linecap:round;stroke-linejoin:round"
     id="g10">
    <path
       d="M-15.5-41.55c-1.767-2.067-2.6-4.433-2.5-7.1-.1-3.533 1.683-6.8 5.35-9.8C-8.983-61.817-4.6-63.667.5-64c5.067.333 9.417 2.183 13.05 5.55 2.571 2.123 5.883 5.073 5.378 11.364l-3.49 6.714 1.585 4.063s1.276 5.108-1.426 5.282c-3.047.196-2.835.145-2.712 3.39L12.75-25h-.05l-.05 1.5h.05l-.05.5h-.05L9.174-9.785l-.586 6.571-2.936 1.572-2.633-1.845-.117-6.435L.9-13.55h-2.45l-3.117.302L-12.1-13l.1-.1c-1.2-1.267-1.917-2.65-2.15-4.15l-.1-1.2.05-.95.55-1.85h.1v-.55l.15-.15v-4.834c.5.4.743 1.078.958-.018l-1.258-.848-1.448-1.474-.932-3.826 2.83-5.65-.4-.05v-.15l-2.05-2.75h.2m1.75 19.65-.05-.1.05.1"
       style="fill:#fff"
       transform="matrix(2 0 0 2 82.34 144.2)"
       id="path1" />
    <path
       d="M3.1 23.05C1.333 20.983.5 18.617.6 15.95c-.1-3.533 1.683-6.8 5.35-9.8C9.617 2.783 14 .933 19.1.6c5.067.333 9.417 2.183 13.05 5.55 3.633 3 5.45 6.267 5.45 9.8 0 2.667-.867 5.033-2.6 7.1"
       style="fill:none;fill-rule:nonzero;stroke:#000;stroke-width:1.2px"
       transform="matrix(2 0 0 2 45.14 15)"
       id="path2" />
    <path
       d="M101.44 122.9v10.4c0 2.6-.665 4.666-2 6.2-1.465 1.666-3.233 2.5-5.3 2.5-2 0-3.765-.834-5.3-2.5-1.4-1.534-2.065-3.6-2-6.2v-10.4h2.3v10.4c0 1.8.535 3.3 1.6 4.5.935 1 2.067 1.5 3.4 1.5 1.4 0 2.535-.5 3.4-1.5 1-1.2 1.535-2.7 1.6-4.5v-10.4h2.3m-16.4-4.2h-13.5v-3h13.1c.935 0 1.7-.3 2.3-.9.735-.734 1.1-1.8 1.1-3.2 0-1.466-.365-2.566-1.1-3.3-.6-.534-1.365-.8-2.3-.8h-13.1v-3.1h13.2c1.667 0 3.035.534 4.1 1.6 1.2 1.2 1.8 3.066 1.8 5.6 0 2.466-.6 4.3-1.8 5.5l-1.3 1-2.5.6"
       id="path3" />
    <path
       d="m71.369 29.832 7.834.512"
       style="fill:none;stroke:#000;stroke-width:2.5px;stroke-linecap:square;stroke-miterlimit:1.5"
       id="path4" />
    <path
       d="m71.369 29.832 7.834.512"
       style="fill:none;stroke:#000;stroke-width:2.5px;stroke-linecap:square;stroke-miterlimit:1.5"
       transform="translate(33 5)"
       id="path5" />
    <path
       d="M107.75 36h.402l1.107.2.905.7c.604.6.906 1.266.906 2l-.906 2.3c-.603.534-1.273.8-2.012.8l-1.61-.4-.503-.4-.906-1.4v-.3l-.1-.6v-.2c.066-.666.402-1.266 1.006-1.8l.503-.4a2.385 2.385 0 0 1 1.107-.5h.1m.906 1.7-.503-.1c-.469-.066-.84.066-1.107.4-.267.2-.402.5-.402.9v.3l.302.9h.1l.1.1.403.2.604.1 1.107-.4.302-1.2-.1-.6-.202-.3-.1-.1-.303-.2h-.2M75.75 36h.402l1.107.2.905.7c.604.6.906 1.266.906 2l-.906 2.3c-.603.534-1.273.8-2.012.8l-1.61-.4-.503-.4-.906-1.4v-.3l-.1-.6v-.2c.066-.666.402-1.266 1.006-1.8l.503-.4a2.385 2.385 0 0 1 1.107-.5h.1m.906 1.7-.503-.1c-.469-.066-.84.066-1.107.4-.267.2-.402.5-.402.9v.3l.302.9h.1l.1.1.403.2.604.1 1.107-.4.302-1.2-.1-.6-.202-.3-.1-.1-.303-.2h-.2"
       id="path6" />
    <path
       d="m66.987 47.103 12.864.512m-12.8-5.248-.32 4.928 6.976 11.648 6.464-11.392-.128-5.184"
       style="fill:none;stroke:#000;stroke-width:2.52px;stroke-miterlimit:1.5"
       transform="matrix(-1 0 0 1 165.718 2.557)"
       id="path7" />
    <path
       d="M57.067 67.172s-9.536 8.96-5.824 17.344c0 0 2.56 4.352 6.08 5.696 0 0-1.216 3.84 4.096 6.208 0 0 5.632 1.984 8.512-5.184 0 0 1.152-6.784-4.352-7.68 0 0-4.608-1.408-5.12-4.48m47.726 4.159s.012 1.792-.896 18.304"
       style="fill:none;stroke:#000;stroke-width:2.5px;stroke-linecap:square;stroke-miterlimit:1.5"
       id="path8" />
    <path
       d="M93.852 68.201s-7.987.051-10.087 5.581c-2.099 5.529 2.407 8.396 11.725 7.424"
       style="fill:none;stroke:#000;stroke-width:2.5px;stroke-linecap:square;stroke-miterlimit:1.5"
       transform="translate(3.225 .717)"
       id="path9" />
    <path
       d="M110.47 70.086s6-.572 9.858-5.143m-10.572 12.714s8.857.286 13.714-6.286m-15 14s11.143.429 17.286-7.571"
       style="fill:none;stroke:#000;stroke-width:2.5px;stroke-linecap:square;stroke-miterlimit:1.5"
       transform="rotate(-16.366 119.113 61.252)"
       id="path10" />
  </g>
  <g
     id="g1"
     transform="translate(-2.4804602e-4,1.7908829e-4)">
    <path
       style="fill:#b3b1ac;fill-opacity:1;fill-rule:nonzero;stroke:#98968f;stroke-width:1.102;stroke-linecap:round;stroke-linejoin:round;stroke-dasharray:none;stroke-dashoffset:0;stroke-opacity:1;paint-order:normal"
       d="m 52.415071,61.945082 c 0,0 31.912979,18.250475 39.747125,2.091954 7.601705,15.22079 21.849294,-2.091953 21.849294,-2.091953 0,0 -2.23823,10.325355 -4.80586,14.850635 -2.97877,5.249899 -6.0977,12.067067 -11.929769,13.623183 C 89.008375,92.624837 80.274851,86.589798 72.991462,82.098725 64.819469,77.059722 52.415071,61.945082 52.415071,61.945082 Z"
       id="path14"
       sodipodi:nodetypes="cccaaac" />
    <path
       style="fill:none;fill-opacity:1;stroke:#98968f;stroke-width:1.102;stroke-linecap:round;stroke-linejoin:round;stroke-opacity:1"
       d="m 63.920817,55.088123 c 0,0 8.613501,-1.358082 11.157088,1.394636 1.158002,1.253212 0.23244,5.113665 0.23244,5.113665 l 0.232439,0.697318"
       id="path15"
       sodipodi:nodetypes="cacc" />
    <path
       style="fill:none;fill-opacity:1;stroke:#98968f;stroke-width:1.102;stroke-linecap:round;stroke-linejoin:round;stroke-opacity:1"
       d="m 111.80332,54.158365 c 0,0 -5.55941,-1.290965 -7.20562,0.464879 -1.05987,1.130452 0,6.97318 0,6.97318"
       id="path16"
       sodipodi:nodetypes="csc" />
    <path
       style="fill:none;fill-opacity:1;stroke:#98968f;stroke-width:1.29848;stroke-linecap:round;stroke-linejoin:round;stroke-opacity:1"
       d="m 100.31578,25.807137 c 0,0 -3.68853,-3.368067 -5.98871,-2.930975 -1.601748,0.304373 -1.389441,2.408905 -2.994355,2.705516 -2.781852,0.514127 -5.261267,-2.895999 -7.984949,-2.254597 -1.078538,0.253985 -1.663538,2.029137 -1.663538,2.029137"
       id="path18"
       sodipodi:nodetypes="csssc" />
    <path
       style="fill:none;fill-opacity:1;stroke:#98968f;stroke-width:1.29848;stroke-linecap:round;stroke-linejoin:round;stroke-opacity:1"
       d="m 98.319536,28.963573 c 0,0 -1.482753,-1.581337 -2.661649,-1.578217 -1.335427,0.0035 -1.663628,1.72773 -2.994355,1.803677 -2.085115,0.119001 -3.251186,-2.452034 -5.3233,-2.254597 -1.4775,0.140781 -2.994356,2.254597 -2.994356,2.254597"
       id="path19"
       sodipodi:nodetypes="csssc" />
  </g>
  <g
     id="g2"
     transform="translate(-2.4804602e-4,1.7908829e-4)">
    <path
       style="fill:#b27d34;fill-opacity:1;stroke:#93672b;stroke-width:1.102;stroke-linecap:round;stroke-linejoin:round;stroke-opacity:1"
       id="path9-4"
       sodipodi:type="arc"
       sodipodi:cx="32.069679"
       sodipodi:cy="-111.86487"
       sodipodi:rx="5.3461046"
       sodipodi:ry="5.5785441"
       sodipodi:start="0"
       sodipodi:end="4.8192059"
       sodipodi:arc-type="slice"
       d="m 37.415784,-111.86487 a 5.3461046,5.5785441 0 0 1 -3.432849,5.20907 5.3461046,5.5785441 0 0 1 -5.889935,-1.48064 5.3461046,5.5785441 0 0 1 -0.782911,-6.26885 5.3461046,5.5785441 0 0 1 5.329559,-3.00633 l -0.569969,5.54675 z"
       transform="rotate(129.58355)" />
    <path
       style="fill:#b27d34;fill-opacity:1;stroke:#93672b;stroke-width:1.102;stroke-linecap:round;stroke-linejoin:round;stroke-opacity:1"
       d="m 60.30348,95.823116 c 0.123114,0.845834 0.191496,1.315642 0.402349,1.95109 0.210853,0.635448 0.368306,0.849996 0.740046,1.410378 0.371741,0.560382 0.884521,1.380826 1.059893,1.653676 0.175373,0.27285 0.330332,0.50529 0.524032,0.69899 0.193699,0.1937 0.426139,0.34866 0.542358,0.50362 0.11622,0.15496 0.11622,0.30992 0.15496,0.3874 0.03874,0.0775 0.11622,0.0775 0.1937,0.1937 0.07748,0.11622 0.154959,0.34866 0.387397,0.73606 0.232438,0.38739 0.619838,0.92975 0.813538,1.39463 0.1937,0.46488 0.1937,0.85228 0.232445,1.08473 0.03875,0.23244 0.116215,0.30991 0.193695,0.42613 0.07748,0.11622 0.154959,0.27118 0.232439,0.73605 0.07748,0.46488 0.154959,1.23968 0.232444,1.66583 0.07748,0.42614 0.154955,0.50361 0.193695,0.85227 0.03874,0.34866 0.03874,0.96849 0.07748,1.35589 0.03874,0.3874 0.116219,0.54236 0.154959,1.51086 0.03874,0.9685 0.03874,2.75053 0,4.61005 -0.03874,1.85951 -0.116219,3.7965 -0.154959,5.11366 -0.03874,1.31716 -0.03874,2.01448 -0.07748,2.67305 -0.03874,0.65858 -0.11622,1.27842 -0.15496,2.13069 -0.03874,0.85228 -0.03874,1.937 -0.07748,2.59558 -0.03874,0.65858 -0.116219,0.89102 -0.154959,1.43337 -0.03874,0.54236 -0.03874,1.39464 -0.07748,2.59558 -0.03874,1.20094 -0.116219,2.75053 0.232441,4.14517 0.34866,1.39464 1.123454,2.63431 1.936992,3.25415 0.813539,0.61984 1.665816,0.61984 2.091955,0.58109 0.426139,-0.0387 0.426139,-0.11621 0.581099,-0.15495 0.154959,-0.0387 0.464878,-0.0387 0.813537,-0.23244 0.348659,-0.1937 0.736058,-0.5811 1.007237,-0.85228 0.271179,-0.27118 0.426139,-0.42614 0.503618,-0.65858 0.07748,-0.23244 0.07748,-0.54236 0.15496,-0.92976 0.07748,-0.3874 0.232438,-0.85227 0.309919,-2.16943 0.07748,-1.31716 0.07748,-3.48659 0.07748,-4.99745 0,-1.51085 0,-2.36313 -0.03874,-2.94423 -0.03874,-0.5811 -0.116219,-0.89101 -0.154959,-2.20817 -0.03874,-1.31716 -0.03874,-3.64155 -0.07748,-4.84249 -0.03875,-1.20094 -0.116215,-1.27841 -0.154955,-1.58833 -0.03874,-0.30992 -0.03874,-0.85228 -0.03874,-2.01448 0,-1.16219 0,-2.94423 0,-4.22265 0,-1.27841 0,-2.05321 -0.03875,-2.47936 -0.03874,-0.42614 -0.116214,-0.50361 -0.193694,-0.73605 -0.07748,-0.23244 -0.154959,-0.61983 -0.193699,-0.89101 -0.03874,-0.27118 -0.03874,-0.42614 -0.03874,-0.69732 0,-0.27118 0,-0.65858 -0.1937,-1.3559 -0.1937,-0.69732 -0.581097,-1.70455 -0.746241,-3.59788 -0.165145,-1.89333 -0.122619,-3.962914 -0.16488,-5.80038 -0.04226,-1.837466 -0.159448,-2.492527 -0.289815,-3.221256"
       id="path10-8"
       inkscape:original-d="m 60.30348,95.823116 c 0.123114,0.845834 0.191496,1.315642 0.317913,2.184171 0.295289,0.402367 0.452742,0.616915 0.742592,1.01187 0.453631,0.725809 2.074379,0.853776 1.162196,1.859513 0.15496,0.23244 0.309919,0.46488 0.464879,0.69732 0.232439,0.15496 0.464879,0.30992 0.697318,0.46488 0,0.15496 0,0.30992 0,0.46488 0.07748,0 0.15496,0 0.232439,0 0.07748,0.23244 0.15496,0.46488 0.23244,0.69732 0.387399,0.54235 0.774797,1.08471 1.162196,1.62707 0,0.3874 0,0.7748 0,1.1622 0.07748,0.0775 0.15496,0.15496 0.23244,0.23244 0.07748,0.15496 0.154959,0.30992 0.232439,0.46488 0.07748,0.77479 0.15496,1.54959 0.232439,2.32439 0.07748,0.0775 0.15496,0.15496 0.23244,0.23244 0,0.61984 0,1.23967 0,1.85951 0.07748,0.15496 0.154959,0.30992 0.232439,0.46488 0,1.78204 0,3.56407 0,5.34611 -0.07748,1.93699 -0.154959,3.87398 -0.232439,5.81098 0,0.69732 0,1.39464 0,2.09195 -0.07748,0.61984 -0.15496,1.23968 -0.23244,1.85952 0,1.08471 0,2.16943 0,3.25415 -0.07748,0.23244 -0.154959,0.46488 -0.232439,0.69732 0,0.85227 0,1.70455 0,2.55683 -0.07748,1.5496 -0.15496,3.09919 -0.232439,4.64879 0.774799,1.23968 1.549595,2.47935 2.324393,3.71903 0.852278,0 1.704555,0 2.556833,0 0,-0.0775 0,-0.15496 0,-0.23244 0.309919,0 0.619838,0 0.929757,0 0.387399,-0.3874 0.774798,-0.7748 1.162197,-1.1622 0.154959,-0.15496 0.309919,-0.30992 0.464878,-0.46488 0,-0.30992 0,-0.61984 0,-0.92976 0.15496,-0.46488 0.30992,-0.92975 0.464879,-1.39463 0,-2.16944 0,-4.33887 0,-6.5083 0,-0.85228 0,-1.70456 0,-2.55684 -0.07748,-0.30992 -0.154959,-0.61983 -0.232439,-0.92975 0,-2.3244 0,-4.64879 0,-6.97318 -0.07748,-0.0775 -0.15496,-0.15496 -0.23244,-0.23244 0,-0.54236 0,-1.08472 0,-1.62708 0,-1.78203 0,-3.56407 0,-5.3461 0,-0.7748 0,-1.5496 0,-2.3244 -0.07748,-0.0775 -0.154959,-0.15496 -0.232439,-0.23244 -0.07748,-0.3874 -0.154959,-0.77479 -0.232439,-1.16219 0,-0.15496 0,-0.30992 0,-0.46488 0,-0.3874 0,-0.7748 0,-1.1622 -0.387399,-1.00724 -0.774798,-2.01447 -1.162197,-3.02171 -0.980857,-2.80075 -0.686721,-4.865162 0.158661,-7.721538 -0.143545,-0.802398 -0.3911,-2.186188 -0.3911,-2.186188"
       inkscape:path-effect="#path-effect10"
       sodipodi:nodetypes="cccccccccccccccccccccccccscccscccsccccsscccscccc" />
  </g>
</svg>
