<?xml version="1.0" encoding="UTF-8" standalone="no"?>
<svg
   height="182"
   width="160"
   version="1.1"
   id="svg8"
   sodipodi:docname="front-sitting.svg"
   inkscape:version="1.4.2 (f4327f4, 2025-05-13)"
   xmlns:inkscape="http://www.inkscape.org/namespaces/inkscape"
   xmlns:sodipodi="http://sodipodi.sourceforge.net/DTD/sodipodi-0.dtd"
   xmlns="http://www.w3.org/2000/svg"
   xmlns:svg="http://www.w3.org/2000/svg">
  <defs
     id="defs8" />
  <sodipodi:namedview
     id="namedview8"
     pagecolor="#ffffff"
     bordercolor="#999999"
     borderopacity="1"
     inkscape:showpageshadow="2"
     inkscape:pageopacity="0"
     inkscape:pagecheckerboard="0"
     inkscape:deskcolor="#d1d1d1"
     inkscape:zoom="4.3021978"
     inkscape:cx="80.075351"
     inkscape:cy="91"
     inkscape:window-width="1902"
     inkscape:window-height="983"
     inkscape:window-x="2400"
     inkscape:window-y="0"
     inkscape:window-maximized="1"
     inkscape:current-layer="svg8" />
  <g
     style="clip-rule:evenodd;fill-rule:evenodd;stroke-linecap:round;stroke-linejoin:round"
     id="g8">
    <path
       d="M-15.5-41.55c-1.767-2.067-2.6-4.433-2.5-7.1-.1-3.533 1.683-6.8 5.35-9.8C-8.983-61.817-4.6-63.667.5-64c5.067.333 9.417 2.183 13.05 5.55 3.633 3 5.45 6.267 5.45 9.8 0 2.667-.867 5.033-2.6 7.1h.1-.05l-2.6 3.1v.8l-.2-.95 2.373 5.118.421 3.225L14.3-27.25l-.15.45-1.135.429L12.75-25h-.05l-.05 1.5h.05l-.05.5h-.05l-.05.45h.05l-.25 2.65h-1.8l-.75 1.55h5.4l1.15.4c.367.367.55.917.55 1.65 0 .7-.183 1.233-.55 1.6-.3.3-.683.45-1.15.45H8.6v1.45l-4.5-.25.65-.5c.6-.6.9-1.517.9-2.75 0-1.267-.3-2.2-.9-2.8-.533-.533-1.217-.8-2.05-.8h-6.6v1.55h6.55c.467 0 .85.133 1.15.4.367.367.55.917.55 1.65 0 .7-.183 1.233-.55 1.6-.3.3-.683.45-1.15.45H-3.9v1.4l-6.55-.35-1.95-.4c-.967-1.133-1.55-2.35-1.75-3.65l-.1-1.2.05-.95.55-1.85h.1v-.55l.15-.15V-24c-.012-1.546.027-3.151.027-3.151l-.666-.692-1.977-2.875.535-3.788 3.081-4.044-.85-.05-.4-.05v-.15l-2.05-2.75h.2M-13.8-22l.05.1-.05-.1"
       style="fill:#fff"
       transform="matrix(2 0 0 2 82.34 144.2)"
       id="path1" />
    <path
       d="M107.04 104.4h5.8c1.667 0 3.035.534 4.1 1.6 1.2 1.2 1.8 3.066 1.8 5.6 0 2.466-.6 4.3-1.8 5.5-1.065 1.066-2.433 1.6-4.1 1.6h-13.3v-3h13.2c.935 0 1.7-.3 2.3-.9.735-.734 1.1-1.8 1.1-3.2 0-1.466-.365-2.566-1.1-3.3l-2.3-.8h-10.8l1.5-3.1h3.6m-16.5 13.7-2.6.6h-13.4v-3h13.1c.935 0 1.7-.3 2.3-.9.735-.734 1.1-1.8 1.1-3.2 0-1.466-.365-2.566-1.1-3.3-.6-.534-1.365-.8-2.3-.8h-13.1v-3.1h13.2c1.667 0 3.035.534 4.1 1.6 1.2 1.2 1.8 3.066 1.8 5.6 0 2.466-.6 4.3-1.8 5.5l-1.3 1"
       id="path2" />
    <path
       d="M3.1 23.05C1.333 20.983.5 18.617.6 15.95c-.1-3.533 1.683-6.8 5.35-9.8C9.617 2.783 14 .933 19.1.6c5.067.333 9.417 2.183 13.05 5.55 3.633 3 5.45 6.267 5.45 9.8 0 2.667-.867 5.033-2.6 7.1"
       style="fill:none;fill-rule:nonzero;stroke:#000;stroke-width:1.2px"
       transform="matrix(2 0 0 2 45.14 15)"
       id="path3" />
    <path
       d="m71.369 29.832 7.834.512"
       style="fill:none;stroke:#000;stroke-width:2.5px;stroke-linecap:square;stroke-miterlimit:1.5"
       id="path4" />
    <path
       d="m71.369 29.832 7.834.512"
       style="fill:none;stroke:#000;stroke-width:2.5px;stroke-linecap:square;stroke-miterlimit:1.5"
       transform="translate(33 5)"
       id="path5" />
    <path
       d="M107.75 36h.402l1.107.2.905.7c.604.6.906 1.266.906 2l-.906 2.3c-.603.534-1.273.8-2.012.8l-1.61-.4-.503-.4-.906-1.4v-.3l-.1-.6v-.2c.066-.666.402-1.266 1.006-1.8l.503-.4a2.385 2.385 0 0 1 1.107-.5h.1m.906 1.7-.503-.1c-.469-.066-.84.066-1.107.4-.267.2-.402.5-.402.9v.3l.302.9h.1l.1.1.403.2.604.1 1.107-.4.302-1.2-.1-.6-.202-.3-.1-.1-.303-.2h-.2M75.75 36h.402l1.107.2.905.7c.604.6.906 1.266.906 2l-.906 2.3c-.603.534-1.273.8-2.012.8l-1.61-.4-.503-.4-.906-1.4v-.3l-.1-.6v-.2c.066-.666.402-1.266 1.006-1.8l.503-.4a2.385 2.385 0 0 1 1.107-.5h.1m.906 1.7-.503-.1c-.469-.066-.84.066-1.107.4-.267.2-.402.5-.402.9v.3l.302.9h.1l.1.1.403.2.604.1 1.107-.4.302-1.2-.1-.6-.202-.3-.1-.1-.303-.2h-.2"
       id="path6" />
    <path
       d="m66.987 47.103 12.864.512m-12.8-5.248-.32 4.928 6.976 11.648 6.464-11.392-.128-5.184"
       style="fill:none;stroke:#000;stroke-width:2.52px;stroke-miterlimit:1.5"
       transform="matrix(-1 0 0 1 165.718 2.557)"
       id="path7" />
    <path
       d="M57.067 67.172s-9.536 8.96-5.824 17.344c0 0 2.56 4.352 6.08 5.696 0 0-1.216 3.84 4.096 6.208 0 0 5.632 1.984 8.512-5.184 0 0 1.152-6.784-4.352-7.68 0 0-4.608-1.408-5.12-4.48m48.814-10.817s5.824 7.68 5.952 12.608c0 0 .576 6.528-6.656 9.984m-.64-16.704s.576 8.576-.64 27.392"
       style="fill:none;stroke:#000;stroke-width:2.5px;stroke-linecap:square;stroke-miterlimit:1.5"
       id="path8" />
  </g>
  <g
     id="g1"
     transform="translate(-2.4804602e-4,1.7908829e-4)">
    <path
       style="fill:#b3b1ac;fill-opacity:1;fill-rule:nonzero;stroke:#98968f;stroke-width:1.102;stroke-linecap:round;stroke-linejoin:round;stroke-dasharray:none;stroke-dashoffset:0;stroke-opacity:1;paint-order:normal"
       d="m 52.415071,61.945082 c 0,0 31.912979,18.250475 39.747125,2.091954 7.601705,15.22079 21.849294,-2.091953 21.849294,-2.091953 0,0 -2.23823,10.325355 -4.80586,14.850635 -2.97877,5.249899 -6.0977,12.067067 -11.929769,13.623183 C 89.008375,92.624837 80.274851,86.589798 72.991462,82.098725 64.819469,77.059722 52.415071,61.945082 52.415071,61.945082 Z"
       id="path14"
       sodipodi:nodetypes="cccaaac" />
    <path
       style="fill:none;fill-opacity:1;stroke:#98968f;stroke-width:1.102;stroke-linecap:round;stroke-linejoin:round;stroke-opacity:1"
       d="m 63.920817,55.088123 c 0,0 8.613501,-1.358082 11.157088,1.394636 1.158002,1.253212 0.23244,5.113665 0.23244,5.113665 l 0.232439,0.697318"
       id="path15"
       sodipodi:nodetypes="cacc" />
    <path
       style="fill:none;fill-opacity:1;stroke:#98968f;stroke-width:1.102;stroke-linecap:round;stroke-linejoin:round;stroke-opacity:1"
       d="m 111.80332,54.158365 c 0,0 -5.55941,-1.290965 -7.20562,0.464879 -1.05987,1.130452 0,6.97318 0,6.97318"
       id="path16"
       sodipodi:nodetypes="csc" />
    <path
       style="fill:none;fill-opacity:1;stroke:#98968f;stroke-width:1.29848;stroke-linecap:round;stroke-linejoin:round;stroke-opacity:1"
       d="m 100.31578,25.807137 c 0,0 -3.68853,-3.368067 -5.98871,-2.930975 -1.601748,0.304373 -1.389441,2.408905 -2.994355,2.705516 -2.781852,0.514127 -5.261267,-2.895999 -7.984949,-2.254597 -1.078538,0.253985 -1.663538,2.029137 -1.663538,2.029137"
       id="path18"
       sodipodi:nodetypes="csssc" />
    <path
       style="fill:none;fill-opacity:1;stroke:#98968f;stroke-width:1.29848;stroke-linecap:round;stroke-linejoin:round;stroke-opacity:1"
       d="m 98.319536,28.963573 c 0,0 -1.482753,-1.581337 -2.661649,-1.578217 -1.335427,0.0035 -1.663628,1.72773 -2.994355,1.803677 -2.085115,0.119001 -3.251186,-2.452034 -5.3233,-2.254597 -1.4775,0.140781 -2.994356,2.254597 -2.994356,2.254597"
       id="path19"
       sodipodi:nodetypes="csssc" />
  </g>
</svg>
