<?xml version="1.0" encoding="UTF-8" standalone="no"?>
<svg xmlns:xlink="http://www.w3.org/1999/xlink" height="60.9px" width="42.0px" xmlns="http://www.w3.org/2000/svg">
  <g transform="matrix(1.0, 0.0, 0.0, 1.0, 20.75, 70.45)">
    <use height="60.9" transform="matrix(1.0, 0.0, 0.0, 1.0, -20.75, -70.45)" width="42.0" xlink:href="#shape0"/>
    <use height="3.05" transform="matrix(-0.9976, 0.0, 0.0, 0.9756, 5.1873, -57.0674)" width="21.45" xlink:href="#sprite0"/>
    <use height="7.1" transform="matrix(1.0, 0.0, 0.0, 1.0, -20.2, -17.45)" width="9.6" xlink:href="#shape2"/>
  </g>
  <defs>
    <g id="shape0" transform="matrix(1.0, 0.0, 0.0, 1.0, 20.75, 70.45)">
      <path d="M17.15 -27.45 L17.15 -27.3 17.3 -25.8 17.15 -27.45 M17.3 -19.95 Q16.75 -18.25 15.4 -17.0 L14.95 -16.65 15.25 -16.8 Q17.1 -17.95 17.3 -19.95 M14.7 -24.85 L14.6 -26.05 Q14.45 -27.95 14.45 -29.95 L14.45 -30.0 Q14.15 -27.85 14.4 -25.7 L14.6 -25.05 14.7 -24.85" fill="#e7e0dc" fill-rule="evenodd" stroke="none"/>
      <path d="M17.95 -38.75 L19.35 -39.0 19.6 -38.95 19.1 -39.1 17.95 -38.75 M19.65 -35.5 L19.5 -35.25 19.65 -35.45 19.65 -35.5" fill="#58463f" fill-rule="evenodd" stroke="none"/>
      <path d="M17.95 -38.75 L17.8 -38.65 17.5 -38.35 16.75 -37.6 16.75 -37.5 16.7 -37.45 16.7 -37.4 16.55 -37.3 16.5 -37.05 16.4 -36.85 16.35 -36.8 16.25 -36.7 16.25 -36.4 16.25 -36.35 16.05 -36.0 15.9 -35.55 15.0 -32.55 14.95 -32.35 14.65 -31.05 14.45 -30.0 14.45 -29.95 Q14.45 -27.95 14.6 -26.05 L14.7 -24.85 14.85 -24.05 14.9 -23.65 14.75 -22.9 14.75 -22.7 14.45 -22.0 14.1 -21.2 14.05 -21.05 Q13.6 -19.7 12.4 -18.95 L12.35 -19.05 12.3 -19.1 12.05 -19.15 11.9 -18.85 Q12.05 -17.75 11.55 -17.1 11.05 -16.55 11.1 -16.3 11.15 -16.05 10.65 -15.7 10.2 -14.7 10.4 -14.65 L12.2 -15.3 14.95 -16.65 15.4 -17.0 Q16.75 -18.25 17.3 -19.95 L17.35 -20.15 17.3 -25.4 17.3 -25.8 17.15 -27.3 17.15 -27.45 Q16.9 -29.15 17.4 -30.8 L17.6 -31.5 17.75 -32.1 18.35 -34.2 18.45 -34.2 18.5 -34.3 18.75 -34.3 19.05 -34.65 19.4 -35.2 19.5 -35.25 19.65 -35.5 19.7 -35.8 20.1 -36.35 20.15 -36.45 20.55 -37.4 20.5 -38.45 20.45 -38.5 19.6 -38.95 19.35 -39.0 17.95 -38.75" fill="#fefbf5" fill-rule="evenodd" stroke="none"/>
      <path d="M17.95 -38.75 L19.35 -39.0 19.6 -38.95 Q21.1 -38.85 20.65 -37.6 L20.55 -37.4 20.15 -36.45 19.65 -35.5 19.5 -35.25 19.0 -34.55 Q18.2 -33.4 17.75 -32.1 L17.6 -31.5 M17.15 -27.45 L17.15 -27.3 17.3 -25.8 M17.3 -19.95 Q16.75 -18.25 15.4 -17.0 L14.95 -16.65 12.2 -15.3 10.4 -14.65 M14.7 -24.85 L14.6 -26.05 Q14.45 -27.95 14.45 -29.95 L14.45 -30.0 Q14.55 -31.95 15.0 -33.7 15.55 -35.55 16.4 -37.25 17.0 -38.35 17.95 -38.75 M17.15 -27.45 Q17.15 -29.25 17.5 -31.05 L17.6 -31.5 M14.7 -24.85 Q14.75 -23.5 14.4 -22.25 13.95 -20.45 12.35 -19.05 M17.3 -19.95 L17.4 -20.2 Q17.95 -22.05 17.55 -23.95 L17.3 -25.8" fill="none" stroke="#4f1d17" stroke-linecap="round" stroke-linejoin="round" stroke-width="1.0"/>
      <path d="M14.05 -51.35 L14.0 -49.85 13.6 -48.35 Q13.3 -47.9 13.35 -47.55 L12.95 -47.15 Q11.45 -46.8 10.85 -45.85 L10.4 -44.75 10.35 -43.9 10.5 -42.8 10.55 -42.75 10.75 -41.85 11.4 -39.4 11.5 -39.05 11.95 -37.9 Q12.2 -37.35 12.6 -36.9 L13.0 -36.4 12.7 -34.1 12.6 -33.4 12.3 -31.25 12.2 -30.25 12.1 -29.75 Q11.8 -27.5 9.75 -28.15 L6.4 -29.3 Q4.55 -29.9 3.0 -28.8 1.35 -27.75 0.7 -25.8 0.15 -24.1 0.4 -22.1 L0.45 -22.05 0.4 -22.05 Q0.7 -20.1 1.8 -18.7 2.8 -17.5 4.5 -16.7 5.95 -16.05 7.8 -15.55 L10.6 -15.3 9.55 -14.1 8.65 -12.85 Q7.3 -12.1 6.6 -10.95 L6.15 -10.2 6.0 -9.8 4.65 -9.8 4.2 -9.65 3.3 -9.65 -0.05 -9.8 -0.55 -10.15 -2.9 -10.3 -3.6 -10.7 -3.75 -10.65 -4.5 -10.15 -4.65 -10.15 -5.75 -10.05 -6.2 -9.9 -10.3 -10.1 -10.9 -10.1 -10.9 -10.15 -10.9 -10.2 -11.2 -10.3 -11.35 -10.5 -11.25 -10.8 -11.5 -10.85 -12.0 -11.15 -12.2 -11.3 -17.3 -11.35 Q-19.35 -11.35 -19.6 -13.35 -19.8 -15.05 -18.8 -16.35 L-18.8 -16.4 Q-18.2 -17.35 -17.05 -17.3 L-16.9 -17.3 -14.85 -17.25 -14.85 -17.3 -14.8 -17.25 -12.3 -17.2 -12.15 -18.45 -12.0 -19.3 Q-11.85 -19.9 -12.1 -20.45 -12.75 -22.15 -14.2 -21.05 -16.0 -19.7 -17.85 -20.65 L-18.1 -21.95 -18.1 -22.4 -18.3 -22.65 -18.3 -22.9 -18.35 -23.35 -18.35 -24.95 -18.35 -25.65 -18.55 -26.6 -18.7 -26.8 -18.05 -30.2 Q-17.2 -35.85 -17.4 -41.8 L-17.5 -43.3 -17.25 -44.4 -17.25 -44.45 -17.3 -45.85 Q-17.55 -47.15 -18.6 -48.2 -19.0 -50.9 -20.55 -53.05 L-20.5 -53.25 Q-19.95 -54.75 -20.05 -56.0 L-19.8 -56.1 -19.55 -55.9 -19.35 -55.65 -19.3 -55.55 -17.3 -55.3 -14.35 -54.75 Q-12.55 -54.55 -10.75 -54.75 -8.8 -55.0 -7.15 -55.55 -5.7 -56.05 -4.65 -57.0 L-4.4 -57.25 Q-3.15 -58.55 -2.8 -60.25 L-2.35 -59.4 Q-1.35 -57.7 0.15 -56.45 1.6 -55.25 3.25 -54.4 4.8 -53.55 6.5 -53.05 L9.9 -52.2 10.25 -52.1 10.35 -52.2 10.35 -52.1 13.25 -51.5 14.05 -51.35 M12.35 -19.0 L12.35 -18.95 12.3 -19.0 12.35 -19.0 M1.25 -32.45 Q1.65 -32.9 1.65 -33.4 L1.0 -32.45 0.55 -32.15 Q-0.55 -31.55 -1.85 -31.7 L-2.5 -31.85 -3.0 -32.2 -3.05 -32.2 -4.2 -32.45 -4.4 -32.5 -4.75 -32.7 -5.2 -32.95 Q-6.2 -33.75 -6.15 -34.85 -6.25 -33.6 -5.2 -32.75 L-4.75 -32.5 -4.65 -32.45 -4.4 -32.3 -3.05 -32.0 -3.0 -32.0 -2.5 -31.65 -1.85 -31.5 Q-0.55 -31.35 0.55 -31.95 L1.25 -32.45 M-6.05 -35.65 L-6.1 -35.65 -6.15 -35.05 -6.05 -35.65" fill="#fefbf5" fill-rule="evenodd" stroke="none"/>
      <path d="M12.35 -18.95 L11.9 -17.1 11.55 -16.15 11.5 -16.1 10.85 -15.55 10.6 -15.3 7.8 -15.55 Q5.95 -16.05 4.5 -16.7 2.8 -17.5 1.8 -18.7 0.7 -20.1 0.4 -22.05 L0.45 -22.05 1.7 -22.45 Q3.6 -22.95 5.6 -22.5 7.45 -22.1 8.95 -21.05 L12.3 -19.0 12.35 -18.95 M-19.8 -56.1 L-18.75 -56.85 -17.95 -57.55 -17.95 -57.85 -17.85 -58.1 -17.7 -58.2 -17.7 -58.25 -17.65 -58.5 Q-16.95 -59.65 -15.75 -60.05 L-15.7 -60.1 -15.1 -60.25 -15.15 -60.9 Q-14.9 -61.9 -15.4 -62.6 -15.1 -63.5 -15.35 -64.3 L-15.0 -65.1 -14.95 -65.65 -14.9 -65.75 -14.8 -65.75 -14.75 -66.05 -14.75 -66.55 -14.65 -67.4 Q-14.65 -68.6 -15.0 -70.05 L-12.45 -69.65 -11.4 -68.85 -9.7 -67.95 -9.55 -67.85 -9.45 -67.65 Q-8.2 -65.2 -6.3 -63.9 L-5.75 -63.1 -5.75 -63.05 Q-5.9 -62.8 -5.65 -62.6 L-5.6 -62.55 Q-4.7 -61.85 -3.5 -61.9 L-3.15 -61.05 -2.8 -60.25 Q-3.15 -58.55 -4.4 -57.25 L-4.65 -57.0 Q-5.7 -56.05 -7.15 -55.55 -8.8 -55.0 -10.75 -54.75 -12.55 -54.55 -14.35 -54.75 L-17.3 -55.3 -19.3 -55.55 -19.35 -55.65 -19.55 -55.9 -19.8 -56.1 M-14.85 -17.25 L-14.85 -17.3 -14.85 -17.25 M-14.8 -17.25 L-13.45 -18.25 -12.15 -18.45 -12.3 -17.2 -14.8 -17.25" fill="#fce6a5" fill-rule="evenodd" stroke="none"/>
      <path d="M-3.5 -61.9 L-3.1 -61.95 -2.7 -61.7 -2.35 -61.6 -1.4 -61.7 Q-0.4 -61.3 0.7 -62.1 0.75 -62.7 1.2 -62.95 L2.3 -64.5 3.05 -65.2 3.35 -65.8 4.45 -66.55 4.7 -66.8 Q6.2 -68.2 8.15 -68.7 9.05 -68.5 9.4 -67.8 9.25 -68.5 8.65 -68.8 L9.05 -69.05 9.65 -67.9 9.8 -67.35 10.25 -64.9 9.95 -63.85 Q9.75 -62.85 9.9 -61.55 L10.1 -60.5 10.1 -60.4 10.05 -60.35 9.9 -60.15 9.75 -59.75 9.7 -59.7 9.55 -59.3 Q9.5 -59.05 9.75 -58.8 L10.85 -57.45 11.85 -55.9 12.1 -55.55 12.0 -55.45 12.1 -55.35 12.8 -54.25 13.8 -53.05 13.9 -52.7 13.95 -52.5 14.1 -52.1 14.05 -51.35 13.25 -51.5 10.35 -52.1 10.35 -52.2 10.25 -52.1 9.9 -52.2 6.5 -53.05 Q4.8 -53.55 3.25 -54.4 1.6 -55.25 0.15 -56.45 -1.35 -57.7 -2.35 -59.4 L-2.8 -60.25 -3.15 -61.05 -3.5 -61.9 M13.0 -36.4 L13.1 -36.3 13.05 -34.25 13.1 -32.45 13.25 -30.8 13.25 -30.75 13.35 -30.05 13.65 -27.3 13.2 -25.95 13.05 -25.2 12.85 -23.15 12.85 -22.9 12.35 -19.0 12.3 -19.0 8.95 -21.05 Q7.45 -22.1 5.6 -22.5 3.6 -22.95 1.7 -22.45 L0.45 -22.05 0.4 -22.1 Q0.15 -24.1 0.7 -25.8 1.35 -27.75 3.0 -28.8 4.55 -29.9 6.4 -29.3 L9.75 -28.15 Q11.8 -27.5 12.1 -29.75 L12.2 -30.25 12.3 -31.25 12.6 -33.4 12.7 -34.1 13.0 -36.4 M-17.05 -17.3 L-17.05 -17.55 -17.05 -18.25 Q-17.4 -18.3 -17.55 -18.95 L-17.7 -19.9 -17.7 -20.15 -17.85 -20.65 Q-16.0 -19.7 -14.2 -21.05 -12.75 -22.15 -12.1 -20.45 -11.85 -19.9 -12.0 -19.3 L-12.15 -18.45 -13.45 -18.25 -14.8 -17.25 -14.85 -17.3 -14.85 -17.25 -16.9 -17.3 -17.05 -17.3" fill="#3d3d3d" fill-rule="evenodd" stroke="none"/>
      <path d="M3.1 -10.3 L-3.5 -10.3 Q-4.75 -10.3 -5.6 -11.1 -6.5 -12.0 -6.5 -13.85 -6.5 -15.8 -5.6 -16.7 -4.75 -17.5 -3.5 -17.5 L3.1 -17.5 3.1 -15.95 -3.45 -15.95 -4.65 -15.5 Q-5.2 -15.0 -5.2 -13.85 -5.2 -12.8 -4.65 -12.25 -4.15 -11.8 -3.45 -11.8 L3.1 -11.8 3.1 -10.3" fill="#4f1d17" fill-rule="evenodd" stroke="none"/>
      <path d="M-5.05 -61.75 L-4.05 -61.8 -2.8 -61.85 -1.65 -61.85 0.45 -61.55 Q1.05 -63.05 2.6 -64.7 L5.5 -67.25 8.1 -68.7 Q9.4 -69.35 9.6 -67.65 L9.95 -64.05 Q10.1 -62.15 9.55 -59.2 M9.95 -43.85 L10.5 -42.8 12.25 -38.35 12.6 -36.9 13.05 -34.25 13.25 -30.8 13.25 -30.75 13.05 -25.2 12.85 -22.9 12.8 -22.45 Q12.35 -18.4 10.85 -15.55 L10.65 -15.1 Q9.15 -12.55 6.6 -10.95 L5.75 -10.35 M-5.3 -61.8 Q-6.3 -64.1 -7.8 -65.75 L-10.7 -68.3 -13.3 -69.75 Q-14.65 -70.4 -14.8 -68.7 L-15.15 -65.1 Q-15.35 -63.2 -14.75 -60.25 M-17.25 -44.55 L-17.1 -36.0 Q-17.2 -33.1 -17.65 -30.3 L-17.95 -28.5 -18.35 -25.8 Q-18.55 -23.45 -18.15 -21.05 -17.85 -19.1 -17.05 -17.25" fill="none" stroke="#4f1d17" stroke-linecap="round" stroke-linejoin="round" stroke-width="1.0"/>
      <path d="M-17.95 -46.85 Q-20.75 -49.45 -20.75 -52.8 -20.75 -56.2 -17.95 -58.8 L-17.2 -58.05 Q-19.7 -55.7 -19.7 -52.8 -19.7 -49.95 -17.2 -47.55 L-17.95 -46.85" fill="#4f1d17" fill-rule="evenodd" stroke="none"/>
      <path d="M11.5 -44.95 L10.75 -45.65 Q13.25 -48.05 13.25 -50.9 13.25 -53.8 10.75 -56.15 L11.5 -56.9 Q14.3 -54.3 14.3 -50.9 14.3 -47.55 11.5 -44.95" fill="#4f1d17" fill-rule="evenodd" stroke="none"/>
      <path d="M-9.25 -54.0 L-8.15 -54.6 Q-5.95 -52.05 -5.9 -49.5 -5.95 -48.0 -6.55 -47.35 -7.2 -46.75 -8.15 -46.7 -9.15 -46.75 -9.85 -47.4 -10.25 -47.75 -10.25 -48.05 L-10.7 -47.25 Q-11.35 -46.75 -12.35 -46.7 -13.6 -46.75 -14.4 -47.5 -15.6 -48.75 -15.6 -51.25 -15.6 -53.0 -14.95 -54.6 L-13.75 -54.25 Q-14.2 -52.85 -14.2 -51.25 -14.2 -49.25 -13.4 -48.4 -12.95 -48.0 -12.3 -47.95 L-11.4 -48.25 Q-11.1 -48.6 -11.05 -49.05 L-11.5 -50.0 -11.8 -51.65 Q-11.8 -52.95 -11.25 -52.95 -10.8 -52.95 -10.35 -52.1 L-9.85 -50.6 -9.85 -49.25 -9.2 -48.35 Q-8.75 -47.95 -8.15 -47.9 -7.75 -47.95 -7.45 -48.15 -7.2 -48.5 -7.15 -49.5 -7.2 -51.6 -9.25 -54.0" fill="#4f1d17" fill-rule="evenodd" stroke="none"/>
      <path d="M-12.35 -38.1 L-15.8 -38.65 -15.55 -40.35 -12.45 -39.6 Q-9.8 -38.9 -8.6 -38.25 -6.7 -37.15 -6.3 -35.7 -5.9 -34.25 -6.8 -32.7 -7.75 -31.1 -9.1 -30.75 -11.65 -30.1 -15.45 -32.25 L-15.05 -33.7 Q-11.5 -31.7 -9.75 -32.15 -8.75 -32.45 -8.2 -33.4 -7.6 -34.45 -7.9 -35.5 -8.1 -36.35 -9.45 -37.1 L-12.35 -38.1" fill="#4f1d17" fill-rule="evenodd" stroke="none"/>
      <path d="M-0.7 -38.15 L2.8 -38.7 2.55 -40.45 -0.6 -39.65 Q-3.3 -39.0 -4.45 -38.3 -6.35 -37.2 -6.75 -35.75 -7.15 -34.3 -6.3 -32.7 -5.35 -31.15 -4.0 -30.75 -1.4 -30.1 2.4 -32.25 L2.0 -33.75 Q-1.6 -31.75 -3.3 -32.2 -4.35 -32.45 -4.9 -33.4 -5.45 -34.45 -5.2 -35.55 -4.95 -36.4 -3.65 -37.15 L-0.7 -38.15" fill="#4f1d17" fill-rule="evenodd" stroke="none"/>
      <path d="M7.75 -47.3 L6.25 -47.3 6.25 -45.85 6.8 -45.85 6.25 -44.4 7.0 -44.4 7.75 -45.95 7.75 -47.3 M4.85 -47.3 L3.35 -47.3 3.35 -45.85 3.9 -45.85 3.35 -44.4 4.1 -44.4 4.85 -45.95 4.85 -47.3" fill="#000000" fill-rule="evenodd" stroke="none"/>
    </g>
    <g id="sprite0" transform="matrix(1.0, 0.0, 0.0, 1.0, 5.2, 50.55)">
      <use height="3.05" transform="matrix(1.0, 0.0, 0.0, 1.0, -5.2, -50.55)" width="21.45" xlink:href="#shape1"/>
    </g>
    <g id="shape1" transform="matrix(1.0, 0.0, 0.0, 1.0, 5.2, 50.55)">
      <path d="M15.75 -50.05 L15.35 -49.8 14.15 -48.95 13.55 -48.5 M0.6 -48.0 Q-1.9 -49.5 -4.7 -49.6" fill="none" stroke="#643b36" stroke-linecap="round" stroke-linejoin="round" stroke-width="1.0"/>
    </g>
    <g id="shape2" transform="matrix(1.0, 0.0, 0.0, 1.0, 20.2, 17.45)">
      <path d="M-10.6 -10.35 L-10.6 -11.85 -17.2 -11.85 Q-17.9 -11.85 -18.35 -12.3 -18.9 -12.85 -18.9 -13.9 -18.9 -14.95 -18.35 -15.5 L-17.2 -15.9 -10.6 -15.9 -10.6 -17.45 -17.25 -17.45 Q-18.5 -17.45 -19.3 -16.65 -20.2 -15.75 -20.2 -13.9 -20.2 -12.05 -19.3 -11.15 -18.5 -10.35 -17.25 -10.35 L-10.6 -10.35" fill="#4f1d17" fill-rule="evenodd" stroke="none"/>
    </g>
  </defs>
</svg>
