<?xml version="1.0" encoding="UTF-8" standalone="no"?>
<svg
   width="160"
   height="180"
   viewBox="0 0 160 180"
   version="1.1"
   xml:space="preserve"
   style="clip-rule:evenodd;fill-rule:evenodd;stroke-linecap:square;stroke-linejoin:round;stroke-miterlimit:1.5"
   id="svg11"
   sodipodi:docname="back-sitting.svg"
   inkscape:version="1.4.4 (dcaf3e7, 2026-05-05)"
   xmlns:inkscape="http://www.inkscape.org/namespaces/inkscape"
   xmlns:sodipodi="http://sodipodi.sourceforge.net/DTD/sodipodi-0.dtd"
   xmlns="http://www.w3.org/2000/svg"
   xmlns:svg="http://www.w3.org/2000/svg"><defs
   id="defs11" /><sodipodi:namedview
   id="namedview11"
   pagecolor="#505050"
   bordercolor="#ffffff"
   borderopacity="1"
   inkscape:showpageshadow="0"
   inkscape:pageopacity="0"
   inkscape:pagecheckerboard="1"
   inkscape:deskcolor="#505050"
   inkscape:zoom="1.6015571"
   inkscape:cx="43.395268"
   inkscape:cy="87.727125"
   inkscape:window-width="930"
   inkscape:window-height="926"
   inkscape:window-x="0"
   inkscape:window-y="30"
   inkscape:window-maximized="0"
   inkscape:current-layer="layer3" />
    
    
    
    
    
    
    
    
    
    
    
<g
   inkscape:groupmode="layer"
   id="layer3"
   inkscape:label="Layer 1"
   transform="matrix(0.777822,0,0,0.777822,17.774131,-8.8877161e-4)"><g
     transform="matrix(0.01096315,-0.13570886,0.13570886,0.01096315,-23.710598,160.92919)"
     id="g1"
     style="clip-rule:evenodd;fill-rule:evenodd;stroke-linecap:square;stroke-linejoin:round;stroke-miterlimit:1.5">
        <path
   d="m 590,749.792 c 29.389,25.169 88.167,75.507 86,110.208 -2.167,34.701 -73.027,85.305 -99,98 -31.982,15.632 -57.187,-10.222 -32,-32 12.971,-11.215 65.5,-43.167 69,-64 3.5,-20.833 -30.833,-47.611 -48,-61"
   style="fill:#ffffff;stroke:#000000;stroke-width:18.75px"
   id="path1" />
    </g><g
     transform="matrix(0.13615096,0,0,0.13615096,11.605959,-12.354249)"
     id="g2"
     style="clip-rule:evenodd;fill-rule:evenodd;stroke-linecap:square;stroke-linejoin:round;stroke-miterlimit:1.5">
        <path
   d="m 289,539 c -1.454,24.944 -60.634,98.295 -93,113 -13.504,6.135 -47.033,13.878 -76.454,24.256 C 85.753,688.175 72.963,691.201 79,715 c 3.89,15.336 23.311,16.716 55.376,11.886 C 177.075,720.454 229.783,704.784 254.985,684 293.894,651.913 348.066,575.996 345,543"
   style="fill:#ffffff;stroke:#000000;stroke-width:18.75px"
   id="path2" />
    </g><g
     transform="matrix(-0.13615096,0,0,0.13615096,148.39432,-12.204235)"
     id="g3"
     style="clip-rule:evenodd;fill-rule:evenodd;stroke-linecap:square;stroke-linejoin:round;stroke-miterlimit:1.5">
        <path
   d="m 289,539 c -1.454,24.944 -60.634,98.295 -93,113 -13.504,6.135 -47.033,13.878 -76.454,24.256 C 85.753,688.175 72.963,691.201 79,715 c 3.89,15.336 23.311,16.716 55.376,11.886 C 177.075,720.454 229.783,704.784 254.985,684 293.894,651.913 348.066,575.996 345,543"
   style="fill:#ffffff;stroke:#000000;stroke-width:18.75px"
   id="path3" />
    </g><g
     transform="matrix(0.13615096,0,0,0.13615096,13.793756,-12.354249)"
     id="g4"
     style="clip-rule:evenodd;fill-rule:evenodd;stroke-linecap:square;stroke-linejoin:round;stroke-miterlimit:1.5">
        <path
   d="m 311,240 -37.802,38 -52.227,86 4.029,45 28,61 36,36 30,39 338,24 33,-59 60,-66 13,-63 L 731,301 706,268.959 669,243 Z"
   style="fill:#ffffff"
   id="path4" />
    </g><g
     transform="matrix(-0.0680755,0.11791018,-0.11791018,-0.0680755,114.97291,-17.050324)"
     id="g5"
     style="clip-rule:evenodd;fill-rule:evenodd;stroke-linecap:square;stroke-linejoin:round;stroke-miterlimit:1.5">
        <path
   d="m 276.448,-78.351 -88.5,132.546 162.019,-5.207 38.025,65.861 L 298,247 460.019,241.793"
   style="fill:#ffffff;stroke:#000000;stroke-width:18.75px"
   id="path5" />
    </g><g
     transform="matrix(0.13615096,0,0,0.13615096,66.651792,-13.035004)"
     id="g6"
     style="clip-rule:evenodd;fill-rule:evenodd;stroke-linecap:square;stroke-linejoin:round;stroke-miterlimit:1.5">
        <circle
   cx="304.5"
   cy="348.5"
   r="36.5"
   style="fill:#0a0000"
   id="circle5" />
    </g><g
     transform="matrix(0.13615096,0,0,0.13615096,13.793756,-12.354249)"
     id="g7"
     style="clip-rule:evenodd;fill-rule:evenodd;stroke-linecap:square;stroke-linejoin:round;stroke-miterlimit:1.5">
        <path
   d="M 280.449,268.959 C 205.275,349.955 194.173,422.352 289,513"
   style="fill:#0a0000;fill-opacity:0;stroke:#000000;stroke-width:18.75px;stroke-linejoin:miter"
   id="path6" />
    </g><g
     transform="matrix(-0.13615096,0,0,0.13615096,147.89845,-12.354249)"
     id="g8"
     style="clip-rule:evenodd;fill-rule:evenodd;stroke-linecap:square;stroke-linejoin:round;stroke-miterlimit:1.5">
        <path
   d="M 280.449,268.959 C 205.275,349.955 194.173,422.352 289,513"
   style="fill:#0a0000;fill-opacity:0;stroke:#000000;stroke-width:18.75px;stroke-linejoin:miter"
   id="path7" />
    </g><g
     transform="matrix(0.13615096,0,0,0.13615096,13.793756,-12.354249)"
     id="g9"
     style="clip-rule:evenodd;fill-rule:evenodd;stroke-linecap:square;stroke-linejoin:round;stroke-miterlimit:1.5">
        <path
   d="m 319,539 c -49.379,77.538 -51.473,161.233 -70.802,245 L 594,794 c 11.058,-72.06 18.058,-159.806 63,-225.303"
   style="fill:#ffffff"
   id="path8" />
    </g><g
     transform="matrix(0.13615096,0,0,0.13615096,13.793756,-12.354249)"
     id="g10"
     style="clip-rule:evenodd;fill-rule:evenodd;stroke-linecap:square;stroke-linejoin:round;stroke-miterlimit:1.5">
        <path
   d="m 282,540 0.311,-10.197 6.689,-3.701 8.739,-8.716 L 321,544 Z"
   style="fill:#ffffff"
   id="path9" />
    </g><g
     transform="matrix(-0.13615096,0,0,0.13615096,146.26865,-11.931933)"
     id="g11"
     style="clip-rule:evenodd;fill-rule:evenodd;stroke-linecap:square;stroke-linejoin:round;stroke-miterlimit:1.5">
        <path
   d="m 282.674,539 0.637,-22.197 6.689,-6.905 7.739,7.488 L 321,544 Z"
   style="fill:#ffffff"
   id="path10" />
    </g></g></svg>
