<?xml version="1.0" encoding="UTF-8" standalone="no"?>
<svg
   height="182"
   width="160"
   version="1.1"
   id="svg7"
   sodipodi:docname="Pedobear-back-walking-1-alt.svg"
   inkscape:version="1.4.4 (dcaf3e7, 2026-05-05)"
   xmlns:inkscape="http://www.inkscape.org/namespaces/inkscape"
   xmlns:sodipodi="http://sodipodi.sourceforge.net/DTD/sodipodi-0.dtd"
   xmlns:xlink="http://www.w3.org/1999/xlink"
   xmlns="http://www.w3.org/2000/svg"
   xmlns:svg="http://www.w3.org/2000/svg">
  <sodipodi:namedview
     id="namedview7"
     pagecolor="#505050"
     bordercolor="#ffffff"
     borderopacity="1"
     inkscape:showpageshadow="0"
     inkscape:pageopacity="0"
     inkscape:pagecheckerboard="1"
     inkscape:deskcolor="#505050"
     inkscape:zoom="4.6434237"
     inkscape:cx="75.590776"
     inkscape:cy="66.868764"
     inkscape:window-width="1083"
     inkscape:window-height="1214"
     inkscape:window-x="324"
     inkscape:window-y="193"
     inkscape:window-maximized="0"
     inkscape:current-layer="g7" />
  <defs
     id="defs3">
    <g
       id="a">
      <path
         d="m15.4-40.35 4.15 1.2v-.05l2.55.95v-.05l.3.2v.1h.1l1.25-.1q.2.15.3 0 1.55.35 2 1.5l.15.25v.25l.15.3.2.7q.2.9-.15 1.6l-.1.2q-.35 1.9-2 2.4.05.45-.2.1l-2.7.2-1.65-1.25-5.85-2.1h-.05l.45-1.3 6.05 2.2-.05.15h.05v.05q.7.6 1.15.9l2.1-.1q1.05-.1 1.4-1.65l.2-.45-.25-1.5-.25-.35-.55-.55-.4-.3h-.95l-.8-.1-.05.1-8.5-3.05.7-.75 1.25.3M12.3-19.9h2.4q1.25 0 2.05.8.9.9.9 2.8 0 1.85-.9 2.75-.8.8-2.05.8H8.05v-1.5h6.6q.7 0 1.15-.45.55-.55.55-1.6 0-1.1-.55-1.65-.45-.4-1.15-.4h-5.4L10-19.9h2.3m-15.5 9.25v5.2q0 1.95-1.05 3.1-1.1 1.25-2.6 1.25T-9.5-2.35q-1.05-1.15-1.05-3.1v-5.2h1.2v5.2q0 1.35.75 2.25.75.75 1.75.75t1.7-.75q.75-.9.8-2.25v-5.2h1.15m-9.6-23-1 .4v-.1l-4.15 1.5-1.6 1.25-2.7-.2q-.3.35-.2-.1-1.7-.5-2-2.4l-.15-.2q-.35-.7-.15-1.6l.25-.7.15-.3v-.25l.1-.25q.45-1.15 2.05-1.5.05.15.3 0l1.2.1h.1v-.1l.3-.2.05.05 2.55-.95v.05l3.05-.95.7 1.05-6.2 2.2-.05-.1-.75.1h-1l-.35.3-.6.55-.2.35-.25 1.5.15.45q.35 1.55 1.45 1.65l2.1.1 1.1-.9v-.05h.05l-.05-.15 4.95-1.8v-.05l.9-.35-.1 1.6"
         fill-rule="evenodd"
         transform="translate(24.8 64.6)"
         id="path1" />
      <path
         d="m15.4-40.35-1.25-.3-.7.75 8.5 3.05.05-.1.8.1h.95l.4.3.55.55.25.35.25 1.5-.2.45q-.35 1.55-1.4 1.65l-2.1.1q-.45-.3-1.15-.9v-.05h-.05l.05-.15-6.05-2.2-.45 1.3h.05l-1.3 10.5h.05l-.05.4v.05h-.05l-.25 3.1H10l-.75 1.55h5.4q.7 0 1.15.4.55.55.55 1.65 0 1.05-.55 1.6-.45.45-1.15.45h-3.5v-.45l-.15.45H8.05v1.45l-7.2-.7v-.05H-1.6l-1.55 1.7v1.2h-1.2v5.2q-.05 1.35-.8 2.25-.7.75-1.7.75T-8.6-3.2q-.75-.9-.75-2.25v-5.2h-1.2l-1.6-2.35.1-.1q-1.8-1.9-2.15-4.15l-.1-1.2.05-.95.55-1.85h.1v-.55l.15-.15v-1.35h-.05l-.05-.8v-2.05l-.2-.65-.15-.45.15-.4.25-.5.25-.75h.1l.35-4.75.1-1.6-.9.35v.05l-4.95 1.8.05.15h-.05v.05l-1.1.9-2.1-.1q-1.1-.1-1.45-1.65l-.15-.45.25-1.5.2-.35.6-.55.35-.3h1l.75-.1.05.1 6.2-2.2-.7-1.05-1.1-1.45h.2q-2.65-3.1-2.5-7.1-.15-5.3 5.35-9.8Q-7.2-63.5.45-64q7.6.5 13.05 5.55 5.45 4.5 5.45 9.8 0 4-2.6 7.1h.1-.05l-1 1.2m-28.1 5.1.05-.3-.05.3M-13.85-22l.05.1-.05-.1m3.75-6.45-.05-.05v.05h.05"
         fill="#fff"
         fill-rule="evenodd"
         transform="translate(24.8 64.6)"
         id="path2" />
      <path
         d="M9.25 23.05q-2.65-3.1-2.5-7.1-.15-5.3 5.35-9.8Q17.6 1.1 25.25.6q7.6.5 13.05 5.55 5.45 4.5 5.45 9.8 0 4-2.6 7.1"
         fill="none"
         stroke="#000"
         stroke-linecap="round"
         stroke-linejoin="round"
         stroke-width="1.2"
         id="path3" />
    </g>
  </defs>
  <g
     transform="matrix(2 0 0 2 82.741 144.2)"
     id="g7"
     inkscape:label="bear-back-walking-1">
    <use
       height="63.5"
       transform="translate(-24.8 -64.6)"
       width="51.4"
       xlink:href="#a"
       id="use3" />
    <path
       style="fill:#633a1e;stroke-width:0;stroke-linecap:round;stroke-linejoin:round;paint-order:stroke fill markers"
       d="m 83.053805,17.324551 c -12.774611,0.664663 -24.675138,8.014354 -32.015403,18.3234 -5.081169,7.30397 -4.438597,17.837864 1.144124,24.675333 0.91634,0.892659 -0.766069,1.877207 0.209544,2.795039 0.629156,0.983356 1.423693,1.855445 1.996361,2.876042 -5.014819,1.754171 -9.979711,4.007992 -15.334885,4.41382 -4.062703,1.415251 -4.173105,8.487798 -0.02745,9.807067 2.032084,0.07498 4.614048,1.258324 5.944227,-0.860936 3.51241,-2.650127 8.054732,-3.351843 11.984186,-5.211158 -0.407051,4.944244 -0.201846,10.091201 -1.922719,14.813369 -0.979452,4.848969 1.373739,10.061442 -0.635996,14.840143 -1.635467,5.04759 0.607943,10.33826 3.684764,14.33001 1.302418,1.6109 1.980965,4.23302 4.099836,4.92596 2.281044,-0.54498 1.40043,1.91833 1.545807,3.45782 0.319303,3.85161 -1.044528,8.62256 2.119542,11.64075 2.384828,2.64453 6.852383,1.06775 7.875647,-2.10415 1.082947,-4.20474 0.425071,-8.66426 0.750475,-12.96429 1.020848,0.1846 2.725211,0.091 2.337121,-1.40455 0.08214,-1.77915 1.834399,-3.22903 3.059482,-4.07959 6.35242,-0.042 12.698924,0.61603 18.99354,1.41108 -0.0012,-2.39128 0.403597,-3.84828 3.311872,-3.12508 3.76428,-0.0405 7.56084,0.0803 11.30534,-0.0589 1.62926,-1.11232 2.40175,-2.95416 2.05594,-4.8965 0.1147,-2.02343 -1.81479,-4.21651 -3.91104,-3.67138 h -10.00724 c 0.57452,-2.19736 1.87995,-3.22519 4.16812,-2.68457 2.5174,0.78915 1.83387,-2.02817 2.14931,-3.59706 1.06442,-8.738749 1.85053,-17.56429 3.21984,-26.232528 1.07272,-0.96705 2.74035,0.402578 3.97063,0.598508 3.55041,1.382496 7.45917,2.322831 10.31051,4.993579 1.98599,0.43547 4.38423,0.251088 6.15578,-0.842193 2.48667,-2.513133 2.16591,-7.472908 -1.24388,-9.05191 -2.47032,-0.226789 -4.95015,-0.58379 -7.28288,-1.540707 -4.2937,-1.509983 -8.83641,-3.011382 -12.92909,-4.702771 0.62294,-1.417252 2.02875,-0.672416 3.14249,-0.655411 1.33886,-0.02135 1.56729,-1.467027 1.39183,-2.489759 1.47729,-3.089533 3.88781,-5.841092 4.39842,-9.365889 0.92696,-5.195234 0.55131,-10.865279 -2.53742,-15.325634 C 112.47003,30.112112 106.44156,25.279166 99.98471,21.668073 94.785419,19.014709 88.917211,17.302384 83.053805,17.324551 Z"
       id="path8"
       sodipodi:nodetypes="cccccccccccccccccccccccccccccccccccccccc"
       transform="matrix(0.5,0,0,0.5,-41.3705,-72.1)" />
    <path
       d="m -3.8740213,-15.121499 a 1.3,1.462 0 0 1 -1.84,0 1.3,1.462 0 0 1 0,-2.068 1.3,1.462 0 0 1 1.84,0"
       fill="#ffffff"
       fill-rule="evenodd"
       stroke="#999999"
       stroke-width="0.325"
       id="path6-0"
       style="display:inline;fill:#633a1e;fill-opacity:1;stroke:#000000;stroke-opacity:1" />
    <g
       id="g1"
       style="display:inline;fill:#ffffff"
       transform="matrix(0.70603455,0,0,0.72979205,67.41458,-95.71811)"
       inkscape:label="alt-eyes-open-1">
      <ellipse
         style="display:inline;fill:#ffffff;fill-opacity:1;stroke:#000000;stroke-opacity:1"
         id="path30-1"
         cx="-77.297791"
         cy="62.24789"
         rx="4.7022099"
         ry="4.2478905" />
      <ellipse
         style="display:inline;fill:#010101;fill-opacity:1;stroke:none;stroke-width:0.346339;stroke-opacity:1"
         id="path30-3"
         cx="-77.341522"
         cy="62.216805"
         rx="1.5656675"
         ry="1.5303086" />
    </g>
    <g
       id="gikopoipoi_eyes_closed-1-6"
       style="display:none;fill:#ffffff"
       fill="none"
       stroke="#000000"
       stroke-linecap="round"
       stroke-linejoin="round"
       transform="matrix(0.5,0,0,0.5,-109.1351,-72.222836)">
      <path
         d="m 240.98225,43.772716 h 6.3"
         stroke-width="3"
         id="path5-5" />
    </g>
    <g
       id="g45-6"
       inkscape:label="right ear hidden"
       style="display:inline;fill:#633a1e;fill-opacity:1"
       transform="translate(-61.320351,23.13137)">
      <ellipse
         style="display:inline;fill:#633a1e;fill-opacity:1;stroke:#000000;stroke-width:1.132;stroke-linecap:round;stroke-linejoin:round;stroke-dasharray:none;stroke-opacity:1;paint-order:stroke fill markers"
         id="path42-28-8"
         cx="-73.940025"
         cy="-84.93589"
         rx="4.5991869"
         ry="4.2152939"
         transform="scale(-1,1)" />
    </g>
    <g
       id="g47-8"
       inkscape:label="left ear not hidden"
       style="display:inline"
       transform="translate(-0.5504595,0.921015)">
      <ellipse
         style="fill:#633a1e;fill-opacity:1;stroke:#000000;stroke-width:1.132;stroke-linecap:round;stroke-linejoin:round;stroke-dasharray:none;stroke-opacity:1;paint-order:stroke fill markers"
         id="ellipse43-8"
         cx="-11.567329"
         cy="-62.046028"
         rx="4.5991869"
         ry="4.2152939" />
    </g>
    <g
       id="g37-0"
       inkscape:label="left neck beard"
       transform="matrix(-0.5,0,0,0.5,38.85465,-74.67232)"
       style="display:inline">
      <path
         style="display:inline;fill:#633a1e;fill-opacity:1;stroke:none;stroke-width:0.836085;stroke-opacity:1"
         d="m 45.584543,62.760055 c 0,0 -1.632243,3.876268 -2.895996,5.560807 -0.828026,1.103731 -2.353942,2.917739 -3.58816,3.985989 -0.929065,0.80414 -1.744718,1.028283 -1.683296,1.087727 0.384529,0.372129 1.644419,0.106843 1.644419,0.106843 0,0 2.383221,-0.838326 3.23084,-1.041585 0.847619,-0.203257 1.807636,-0.290112 1.807636,-0.290112 0,0 -1.530698,1.18462 -2.043268,2.143592 -0.512572,0.95897 -1.40683,3.856294 -0.758095,3.48789 0.648735,-0.368405 1.894664,-0.599037 2.665585,-0.971781 0.770922,-0.372743 1.297366,-1.570305 1.375531,-1.169047 0.07813,0.401257 -0.03488,0.483121 -0.329355,0.934744 -0.294515,0.451624 -1.23389,1.432583 -0.99776,1.542433 0.236131,0.109852 2.014892,0.105403 2.991395,-0.224224 0.976502,-0.329638 1.296457,-0.540016 1.296457,-0.540016 l 0.652215,3.058567 c 0,0 2.298912,-2.98421 3.274505,-3.522767 0.975592,-0.538556 0.928912,2.510471 1.406254,2.576471 0.477343,0.06599 2.770594,-2.550745 2.770594,-2.550745"
         id="path35-1-0"
         sodipodi:nodetypes="csssczczzzzzzzcczzc" />
      <path
         style="display:inline;fill:none;fill-opacity:1;stroke:#000000;stroke-width:1.064;stroke-dasharray:none;stroke-opacity:1"
         d="m 44.325891,64.268602 c 0,0 -1.240323,3.793487 -2.338913,5.387829 -0.719808,1.044628 -1.63667,1.885747 -2.709585,2.896795 -0.807645,0.761082 -1.516701,0.973225 -1.463304,1.029482 0.334276,0.352207 1.429508,0.101125 1.429508,0.101125 0,0 2.071752,-0.793438 2.808593,-0.985813 0.736843,-0.192373 1.571394,-0.274578 1.571394,-0.274578 0,0 -1.330647,1.121188 -1.776229,2.028812 -0.445584,0.907622 -1.222968,3.649807 -0.659017,3.30113 0.563948,-0.348677 1.647045,-0.56696 2.317214,-0.919745 0.670166,-0.352785 1.635326,-1.521871 1.703277,-1.1421 0.06792,0.379773 -0.06306,0.599847 -0.319054,1.027287 -0.256026,0.427441 -1.547405,1.248929 -1.342135,1.352897 0.205269,0.103969 2.248374,0.26385 3.097255,-0.04812 0.848883,-0.311989 1.811193,-1.478234 1.811193,-1.478234 l 0.882864,3.389576 c 0,0 1.861803,-2.47888 2.709893,-2.988601 0.848089,-0.509717 1.264198,2.007078 1.679155,2.069543 0.414959,0.06246 1.999696,-1.872984 1.999696,-1.872984"
         id="path35-14"
         sodipodi:nodetypes="csssczczzzzzzzcczzc" />
    </g>
    <path
       style="display:inline;fill:none;fill-opacity:1;stroke:#000000;stroke-width:1.02051;stroke-dasharray:none;stroke-opacity:1"
       d="m 47.55228,53.52653 c 0,0 -0.83686,11.865766 -1.86376,14.006074 -1.0269,2.140306 -3.88499,4.372988 -3.88499,4.372988 0,0 1.15266,0.747904 2.2015,0.756864 1.04883,0.009 3.75549,-1.219392 3.75549,-1.219392 0,0 -0.0712,1.429038 0.43166,2.396736 0.50287,0.967696 2.89217,2.943358 2.89217,2.943358 0,0 0.19204,-2.095402 0.73145,-2.999562 0.53941,-0.90416 2.50605,-2.424628 2.50605,-2.424628 0,0 1.57921,1.844702 2.16196,2.804796 0.58275,0.960096 1.33453,2.955778 1.33453,2.955778 l 0.77311,-5.463104"
       id="path36-5-7"
       sodipodi:nodetypes="czczczczczcc"
       transform="matrix(0.5,0,0,0.5,-41.3705,-72.1)" />
    <g
       id="g38-5"
       inkscape:label="right neck beard"
       transform="matrix(-0.5,0,0,0.5,41.21339,-74.156325)"
       style="display:inline">
      <path
         style="display:inline;fill:#633a1e;fill-opacity:1;stroke:none;stroke-width:1.008;stroke-dasharray:none;stroke-opacity:1"
         d="m 115.98804,57.708215 c 0,0 1.23261,4.367146 1.35778,5.806283 0.12517,1.439137 1.19693,6.196015 2.03928,7.998375 0.84235,1.80236 3.69684,2.990436 3.35254,4.28952 -0.3443,1.299084 -0.6889,0.835443 -1.71137,0.844427 -1.02247,0.009 -2.76005,-1.757647 -3.66109,-1.220365 -0.90104,0.537282 0.0694,1.430178 -0.42081,2.398647 -0.49022,0.968469 -1.68465,2.929818 -2.83677,2.61697 -1.15212,-0.312848 -0.16991,-1.768336 -0.69576,-2.673218 -0.52585,-0.904882 -1.28716,-2.510365 -2.44305,-2.426562 -1.15589,0.0838 -1.53952,1.846172 -2.10762,2.807034 -0.5681,0.960862 -0.23667,2.604412 -1.46535,2.620748 -1.22871,0.01634 -0.51415,-5.064907 -0.51415,-5.064907"
         id="path36-4-2"
         sodipodi:nodetypes="czzzzzzzzzzzc" />
      <path
         style="display:inline;fill:none;fill-opacity:1;stroke:#000000;stroke-width:1.008;stroke-dasharray:none;stroke-opacity:1"
         d="m 117.19912,60.309239 c 0,0 1.07576,9.025438 2.07685,11.167453 1.00108,2.142015 3.78733,4.376479 3.78733,4.376479 0,0 -1.12369,0.7485 -2.14616,0.757468 -1.02247,0.009 -3.66109,-1.220365 -3.66109,-1.220365 0,0 0.0694,1.430178 -0.42081,2.398647 -0.49023,0.968469 -2.81947,2.945707 -2.81947,2.945707 0,0 -0.18721,-2.097073 -0.71306,-3.001955 -0.52585,-0.904882 -2.44305,-2.426562 -2.44305,-2.426562 0,0 -1.53952,1.846172 -2.10762,2.807034 -0.5681,0.960861 -1.30098,2.958136 -1.30098,2.958136 l -0.93664,-5.399138"
         id="path36-0"
         sodipodi:nodetypes="czczczczczcc" />
    </g>
    <path
       style="display:inline;fill:#633a1e;fill-opacity:1;stroke-width:0;stroke-linecap:round;stroke-linejoin:round;paint-order:stroke fill markers"
       d="m 54.47313,31.557341 c 2.91124,-4.40039 8.605535,-8.303322 14.350416,-10.703496 l 2.997668,3.553354 -12.300024,9.909093 z"
       id="path7"
       sodipodi:nodetypes="ccccc"
       transform="matrix(0.5,0,0,0.5,-41.3705,-72.1)" />
    <path
       style="display:inline;fill:#633a1e;fill-opacity:1;stroke-width:0;stroke-linecap:round;stroke-linejoin:round;paint-order:stroke fill markers"
       d="m 111.68176,30.645276 c -2.91124,-4.40039 -8.54695,-7.797758 -14.291824,-10.197932 l -3.30192,3.208006 12.300014,9.909092 z"
       id="path7-0"
       sodipodi:nodetypes="ccccc"
       transform="matrix(0.5,0,0,0.5,-41.3705,-72.1)" />
  </g>
</svg>
