<?xml version="1.0" encoding="UTF-8" standalone="no"?>
<svg
   height="182"
   width="160"
   version="1.1"
   id="svg8"
   sodipodi:docname="front-walking-2.svg"
   inkscape:version="1.4.4 (dcaf3e7, 2026-05-05)"
   xmlns:inkscape="http://www.inkscape.org/namespaces/inkscape"
   xmlns:sodipodi="http://sodipodi.sourceforge.net/DTD/sodipodi-0.dtd"
   xmlns:xlink="http://www.w3.org/1999/xlink"
   xmlns="http://www.w3.org/2000/svg"
   xmlns:svg="http://www.w3.org/2000/svg">
  <sodipodi:namedview
     id="namedview8"
     pagecolor="#505050"
     bordercolor="#ffffff"
     borderopacity="1"
     inkscape:showpageshadow="0"
     inkscape:pageopacity="0"
     inkscape:pagecheckerboard="1"
     inkscape:deskcolor="#505050"
     inkscape:zoom="12.308627"
     inkscape:cx="63.573297"
     inkscape:cy="120.64709"
     inkscape:window-width="1390"
     inkscape:window-height="1175"
     inkscape:window-x="0"
     inkscape:window-y="30"
     inkscape:window-maximized="0"
     inkscape:current-layer="g37-0"
     showguides="true">
    <sodipodi:guide
       position="99.991496,29.71278"
       orientation="0,1"
       id="guide1"
       inkscape:locked="false"
       inkscape:label=""
       inkscape:color="rgb(0,134,229)" />
  </sodipodi:namedview>
  <defs
     id="defs4">
    <g
       id="a">
      <path
         d="M-15.5-41.55q-2.65-3.1-2.5-7.1v-.75q.25-4.9 5.35-9.05Q-7.15-63.5.5-64q7.6.5 13.05 5.55Q18.6-54.3 19-49.4v.75q0 4-2.6 7.1h.1-.05l-1.1 1.3v.15l-1 .9 6.55 2.35.05-.1.8.1h.95l.4.3.55.55.25.35.25 1.5-.2.45q-.35 1.55-1.4 1.65l-2.1.1-1.15-.9v-.05h-.05l.05-.15-4.95-1.8v-.05l-1.3-.5.05.55-.3.9.35.1v.05l-.15-.05-.25 8.85h-.05l-.05 1.5h.05v.1l-.05.4h-.05l-.35 4.2-1.05 4.1-1.65 4v.05H8.4v5.2Q8.35-4.1 7.6-3.2q-.65.75-1.7.75-1 0-1.7-.75-.8-.9-.8-2.25v-5.2H2.1v-1.2h-.3V-12l-.45-.75 1.25-.3.65-.5q.9-.9.9-2.75 0-1.9-.9-2.8-.8-.8-2.05-.8h-6.6v1.55h6.55q.7 0 1.15.4.55.55.55 1.65 0 1.05-.55 1.6-.45.45-1.15.45H-5.4v1.4h-4.75l-2.15-.65q-1.55-1.75-1.85-3.75l-.1-1.2V-19l.05-.4.55-1.85h.1v-.55l.15-.15v-1.35l.15-2.4v-.05l.5-7.75h-.05l-1.45-.45-.45-1.3-6.1 2.2.05.15h-.05v.05l-1.1.9-2.1-.1q-1.1-.1-1.45-1.65l-.15-.45.25-1.5.2-.35.6-.55.35-.3h1l.75-.1.05.1 9.05-3.25-.25-.8-1.35.35-.75-1h.2m1.75 19.65-.05-.1.05.1m3.65-6.6v.05h.05l-.05-.05"
         fill="#fff"
         fill-rule="evenodd"
         transform="translate(27.05 64.6)"
         id="path1" />
      <path
         d="m15.35-40.1 3.15.95v-.05l2.55.95v-.05l.3.2v.1h.1l1.25-.1q.2.15.3 0 1.55.35 2 1.5l.15.25v.25l.15.3.2.7q.2.9-.15 1.6l-.1.2q-.35 1.9-2 2.4.05.45-.2.1l-2.7.2q-.65-.35-1.65-1.25l-4.15-1.5v.1l-1.4-.55v-.05l-.35-.1.3-.9-.05-.55 1.3.5v.05l4.95 1.8-.05.15h.05v.05l1.15.9 2.1-.1q1.05-.1 1.4-1.65l.2-.45-.25-1.5-.25-.35-.55-.55-.4-.3h-.95l-.8-.1-.05.1-6.55-2.35 1-.9m-5.8 29.45v5.2q0 1.95-1 3.1Q7.45-1.1 5.9-1.1q-1.5 0-2.65-1.25-1.05-1.15-1-3.1v-5.2H3.4v5.2q0 1.35.8 2.25.7.75 1.7.75 1.05 0 1.7-.75.75-.9.8-2.25v-5.2h1.15m-8.2-2.1H-5.4v-1.5h6.55q.7 0 1.15-.45.55-.55.55-1.6 0-1.1-.55-1.65-.45-.4-1.15-.4H-5.4v-1.55h6.6q1.25 0 2.05.8.9.9.9 2.8 0 1.85-.9 2.75l-.65.5-1.25.3m-15.6-21.2-5.95 2.1-1.6 1.25q-1.6.45-2.7-.2-.3.35-.2-.1-1.7-.5-2-2.4l-.15-.2q-.35-.7-.15-1.6l.25-.7.15-.3v-.25l.1-.25q.45-1.15 2.05-1.5.05.15.3 0l1.2.1h.15l-.05-.1.3-.2.05.05 2.55-.95v.05l1.8-.65 3.2-.75 1.35-.35.25.8-9.05 3.25-.05-.1-.75.1h-1l-.35.3-.6.55-.2.35-.25 1.5.15.45q.35 1.55 1.45 1.65l2.1.1 1.1-.9v-.05h.05l-.05-.15 6.1-2.2.45 1.3"
         fill-rule="evenodd"
         transform="translate(27.05 64.6)"
         id="path2" />
      <path
         d="M11.55 23.05q-2.65-3.1-2.5-7.1v-.75q.25-4.9 5.35-9.05Q19.9 1.1 27.55.6q7.6.5 13.05 5.55 5.05 4.15 5.45 9.05v.75q0 4-2.6 7.1"
         fill="none"
         stroke="#000"
         stroke-linecap="round"
         stroke-linejoin="round"
         stroke-width="1.2"
         id="path3" />
      <path
         d="M5.4-44.05q.15.45.45.75l.7.25.95-.6q.4-.65.4-1.65 0-1.35-.9-3.25h1.05q.9 1.6.9 3.15 0 1.55-.65 2.4-.6.8-1.6.8-1.35 0-1.9-1.4-.6 1.4-1.9 1.4-1.05 0-1.65-.85Q.6-43.9.6-45.4q0-1.55.95-3.15h1q-.85 1.9-.85 3.25 0 1 .35 1.65.4.6.95.6.4 0 .7-.3l.45-.7.1-1.15V-47H5.3v1.8l.1 1.15"
         fill-rule="evenodd"
         transform="translate(27.05 64.6)"
         id="path4" />
    </g>
  </defs>
  <g
     transform="matrix(2,0,0,2,82.341,154.91337)"
     id="g7"
     inkscape:label="bear-front-walking-2">
    <use
       height="63.5"
       transform="translate(-27.05,-64.6)"
       width="52.599998"
       xlink:href="#a"
       id="use4" />
    <rect
       style="display:inline;fill:#633a1e;fill-opacity:1;stroke:none;stroke-width:0.5;stroke-opacity:1"
       id="rect29-5"
       width="10.291471"
       height="7.4626627"
       x="93.611725"
       y="-46.829201"
       transform="translate(-93.64164,-2.06701)" />
    <path
       style="display:inline;fill:#633a1e;fill-opacity:1;stroke:none;stroke-width:0;stroke-linecap:round;stroke-linejoin:round;stroke-dasharray:none;paint-order:stroke fill markers"
       d="m 83.120636,17.27228 c -4.642801,0.253167 -9.256589,1.333766 -13.553619,3.097737 -1.036702,0.639916 -0.444043,2.077597 -0.639076,3.053609 -0.251233,3.650795 -3.16112,6.802558 -6.557575,7.923673 -2.552854,0.771667 -5.369723,0.722149 -7.849188,-0.326111 -1.224657,0.917726 -2.151675,2.316324 -3.1065,3.54966 -2.49333,3.36302 -4.14469,7.454935 -4.01631,11.689861 0.0735,2.337447 0.09077,5.648641 1.154974,7.810419 3.853905,4.655424 7.103769,8.783718 10.797526,13.568958 -0.50669,0.992038 -1.368998,1.952999 -2.422043,2.34255 -0.773681,-0.337334 -0.699326,-1.687122 -1.537915,-1.911283 -1.176412,0.8628 -2.004739,2.125335 -2.94407,3.230122 -0.420083,-0.956475 -0.320565,-2.191468 -1.020269,-2.992267 -0.608295,-0.129089 -0.952382,0.727899 -1.594249,0.698852 -1.054785,0.183771 -2.276659,0.369477 -3.267365,-0.09358 -0.09289,-0.281911 0.247766,-0.992673 -0.357094,-0.81152 -0.684956,0.113651 -1.416479,0.767073 -2.102506,0.539866 -0.433605,-0.842475 -1.500341,-0.02111 -2.136286,0.08166 -2.090767,0.767514 -4.197905,1.672008 -6.477324,1.5447 -1.023205,-0.05145 -2.008796,0.05169 -2.659425,0.939025 -0.760325,0.595774 -1.444608,1.338093 -1.47859,2.360776 -0.225802,1.232659 -0.652325,2.501622 0.02361,3.673522 0.352726,1.321246 1.149315,2.764416 2.660836,2.92185 1.529943,0.247755 3.113376,0.296627 4.646606,0.27854 0.822747,-0.654561 1.621448,-1.399607 2.35726,-2.120345 3.862211,-1.531438 7.805775,-2.994239 11.725271,-4.321746 0.465974,0.801535 0.539131,1.800437 1.017139,2.567885 0.825424,0.379626 1.879986,0.355914 2.611389,0.88945 0.293193,1.84277 -0.18276,3.737794 -0.194625,5.609592 -0.400453,5.756922 -0.725004,11.56036 -1.049415,17.297015 -0.448327,0.88046 -0.456342,1.97429 -0.843023,2.90764 -0.414372,1.31113 -0.91539,2.61371 -0.64376,4.01118 -0.02388,3.25911 0.977747,6.52442 3.063757,9.05766 0.447154,1.00039 1.38224,1.33701 2.385835,1.54182 1.614052,0.4925 3.209807,1.12025 4.929806,0.89349 2.520367,-0.0525 5.089123,0.10439 7.579724,-0.077 0.206796,-0.86663 -0.201801,-2.19682 0.202489,-2.80739 4.546428,-0.0752 9.107333,0.14686 13.645317,-0.14513 1.950755,-0.36229 2.856228,-2.50034 2.696514,-4.31142 0.08411,-1.67651 -0.733204,-3.61554 -2.532521,-3.97718 -4.083368,-0.29454 -8.193324,-0.0631 -12.286419,-0.13833 -1.122942,0.12889 -2.104601,0.12057 -1.651215,-1.28135 -0.244745,-1.24123 0.250775,-1.72566 1.484679,-1.4551 4.285027,0.0597 8.616877,-0.27761 12.8692,0.19642 2.501876,0.39867 4.123182,2.88618 4.296397,5.286 0.308035,2.65156 -0.03481,5.92993 -2.486827,7.5262 -0.840769,0.63066 -1.961787,0.54485 -2.850808,1.02372 -0.168472,0.69662 0.594568,1.27897 0.766455,1.93037 0.221521,0.21505 0.684556,0.032 0.542683,0.51671 0.179336,0.62721 -0.390447,1.86595 0.368986,2.03991 0.805252,0.19645 2.575723,-0.57284 2.204027,0.80119 0.105791,3.75035 -0.236844,7.54137 0.309366,11.26539 0.48743,2.35667 2.663001,4.57965 5.214989,4.22549 2.226377,0.0906 3.913823,-1.79855 4.523611,-3.78094 0.595288,-2.34536 0.274431,-4.81753 0.411574,-7.21385 0.01908,-1.76388 0.03817,-3.52777 0.05725,-5.29165 0.785991,-0.23555 2.192211,0.4131 2.451291,-0.65367 1.68553,-4.01112 3.42191,-8.02824 4.33793,-12.30155 1.28128,-4.47199 1.3751,-9.15702 1.75082,-13.762903 0.27503,-6.570934 0.29111,-13.159229 0.76851,-19.715073 0.31996,-0.411626 -0.29261,-0.374223 -0.45036,-0.534232 0.11224,-0.806975 0.44324,-1.602082 0.46006,-2.440197 3.94777,1.681033 8.10564,2.917443 12.00318,4.661941 0.71555,0.830874 1.62638,1.517388 2.50811,2.141628 1.88538,-0.248827 4.03465,0.180597 5.72415,-0.879749 1.11971,-0.967903 1.36938,-2.551559 1.85964,-3.867633 -0.25019,-1.602425 -0.40209,-3.473638 -1.86038,-4.494311 -0.62462,-0.649404 -1.3378,-1.147051 -2.28516,-0.976296 -1.79284,0.0058 -3.5943,-0.160459 -5.23351,-0.964003 -0.96265,-0.778955 -1.56519,0.445093 -2.23524,0.975332 -0.67543,0.579583 -1.42674,1.485186 -2.12992,1.832002 -0.25718,-1.517186 -0.24165,-3.285127 -1.55169,-4.354609 -0.45281,-0.370923 -1.1441,-1.47481 -1.73977,-0.695722 -1.39612,1.608677 -2.28327,3.586205 -3.0461,5.555771 -0.72461,-1.472924 -1.7057,-2.860876 -2.25743,-4.398736 0.50582,-0.135104 0.89922,-0.393014 1.08036,-0.930136 3.37904,-6.078622 6.50514,-12.299305 9.70445,-18.470314 0.56211,-5.0662 -1.14727,-10.198142 -4.17715,-14.239638 -0.50252,-0.588241 -0.88707,-1.421844 -1.57516,-1.76106 -1.21458,0.631004 -2.61287,0.674788 -3.8717,1.122296 -0.22708,0.589963 0.71737,0.886172 0.89007,1.422117 1.20922,1.785212 0.58575,4.410851 -1.3251,5.394596 -2.28659,1.382037 -5.83442,0.565525 -6.74097,-2.104071 -0.74731,-2.002766 0.61975,-4.160913 2.46179,-4.973969 0.6154,-0.42569 -0.38541,-0.77799 -0.71732,-0.962057 -3.1233,-1.528188 -5.577485,-4.883571 -5.258453,-8.461035 -0.101395,-0.946225 0.377679,-1.991879 0.04037,-2.889615 -1.510249,-1.032362 -3.356359,-1.51556 -5.064729,-2.14726 C 90.434383,18.147758 86.800148,17.28366 83.120636,17.27228 Z M 68.637822,33.394722 c 2.373663,-0.100373 4.838509,2.078 4.389661,4.591211 -0.333961,2.147113 -2.500694,3.604192 -4.612181,3.424161 -2.291426,0.01492 -4.591157,-2.090431 -4.19124,-4.476978 0.173529,-2.0529 2.465988,-3.587447 4.41376,-3.538394 z m 10.665255,11.515271 c 0.393943,0.08507 -0.08192,0.635937 -0.354591,0.568033 -1.794757,0.528745 -3.901506,1.338267 -4.647231,3.207276 -0.06323,1.501748 -0.358954,3.346895 0.778346,4.540823 1.603762,1.320294 3.869898,0.876313 5.774848,0.744546 2.3419,-0.347271 4.670016,-0.821113 7.007309,-1.172997 0.601141,-0.393273 -0.298328,-0.666292 -0.653787,-0.647213 -1.377077,-0.688659 -2.936817,-1.795893 -3.150941,-3.437305 0.03481,-1.160246 1.451472,-1.556211 2.373222,-1.829913 1.833349,-0.406396 4.137538,-0.192988 5.380198,1.359837 0.754528,1.129794 -0.369961,2.329712 -1.224324,2.933744 -0.603454,0.612586 -1.672793,0.689693 -2.119405,1.433072 0.312353,0.675532 1.362896,0.395156 1.943205,0.734218 2.54244,0.701035 4.949534,2.10852 7.670797,1.961357 1.122811,0.194544 2.219777,-0.285121 2.881267,-1.207089 1.06732,-0.974356 1.61481,-2.494705 1.11531,-3.891128 -0.33599,-1.384982 -1.65887,-2.192527 -2.203283,-3.441059 0.224043,-0.305333 0.712013,0.208013 0.906973,0.395589 1.35978,1.416467 2.77048,3.5508 1.84337,5.552329 -0.62499,1.346382 -1.75928,2.312378 -2.803234,3.306172 -0.483865,0.972891 -0.868798,2.045241 -1.787348,2.722178 -0.790623,0.825397 -1.978573,0.801057 -3.022625,0.894457 -0.811141,0.582613 -1.088523,1.693752 -1.907841,2.310628 -2.324685,2.275434 -5.732809,3.346928 -8.881662,2.393877 -2.232976,-0.560953 -3.787008,-2.636546 -4.558349,-4.718901 -0.60239,-1.509084 -0.753754,-3.190828 -1.325412,-4.682285 -0.854139,-0.332112 -1.903684,-0.112 -2.705277,-0.650655 -1.966617,-0.929623 -2.306374,-3.446484 -2.005486,-5.372375 0.690243,-2.440942 3.29557,-3.787733 5.675951,-4.007216 z M 120.69408,78.19768 c -0.008,-0.0185 0.017,-0.06711 0,0 z"
       id="path24"
       transform="matrix(0.5,0,0,0.5,-41.1705,-72.1)"
       sodipodi:nodetypes="ccccccccccccccccccccccccccccccccccccccccccccccccccccccccccccccccccccccccccccccccccccccccccccccccccccccccccccccccccccccccccccc" />
    <path
       style="display:inline;fill:#633a1e;fill-opacity:1;stroke:none;stroke-width:0;stroke-linecap:round;stroke-linejoin:round;stroke-dasharray:none;paint-order:stroke fill markers"
       d="m 87.596362,53.571326 c -1.819417,0.0733 -3.69396,0.253039 -5.41525,0.847825 -0.73921,0.643972 -0.06819,1.77997 -0.07331,2.582889 0.160417,1.804824 0.998972,3.632378 2.676566,4.486387 1.619176,1.030989 3.689728,0.481032 5.077247,-0.684457 1.251285,-0.830493 1.982271,-2.189671 3.033892,-3.203519 0.333574,0.269596 -0.222114,0.833735 -0.353338,1.116036 -1.493424,1.964488 -3.626803,4.151825 -6.322468,3.764678 -2.139502,-0.368161 -4.082751,-2.072348 -4.362504,-4.274499 -0.333407,-1.117419 -0.31727,-2.284795 -0.511073,-3.407887 -0.59499,-0.472072 -1.48722,-0.01496 -2.172923,0 -0.361052,0.540314 0.163074,1.394263 0.206332,2.044817 0.547963,2.510115 1.520787,5.260027 3.922941,6.556114 2.051057,1.028105 4.594759,0.932222 6.687457,0.06166 2.897143,-1.095284 4.406634,-4.024409 5.493179,-6.727204 0.305534,-0.457131 0.220128,-1.068876 -0.412802,-1.145769 -2.082295,-0.695418 -4.096945,-1.774733 -6.304074,-1.995158 -0.389566,-0.02058 -0.779846,-0.02207 -1.169867,-0.02191 z"
       id="path25"
       transform="matrix(0.5,0,0,0.5,-41.1705,-72.1)" />
    <g
       id="g37-0"
       inkscape:label="left neck beard"
       transform="matrix(0.5,0,0,0.5,-39.547958,-76.751037)"
       style="display:inline">
      <path
         style="display:inline;fill:#633a1e;fill-opacity:1;stroke:none;stroke-width:0.836085;stroke-opacity:1"
         d="m 45.584543,62.760055 c 0,0 -1.632243,3.876268 -2.895996,5.560807 -0.828026,1.103731 -2.353942,2.917739 -3.58816,3.985989 -0.929065,0.80414 -1.744718,1.028283 -1.683296,1.087727 0.384529,0.372129 1.644419,0.106843 1.644419,0.106843 0,0 2.383221,-0.838326 3.23084,-1.041585 0.847619,-0.203257 1.807636,-0.290112 1.807636,-0.290112 0,0 -1.530698,1.18462 -2.043268,2.143592 -0.512572,0.95897 -1.40683,3.856294 -0.758095,3.48789 0.648735,-0.368405 1.894664,-0.599037 2.665585,-0.971781 0.770922,-0.372743 1.297366,-1.570305 1.375531,-1.169047 0.07813,0.401257 -0.03488,0.483121 -0.329355,0.934744 -0.294515,0.451624 -1.23389,1.432583 -0.99776,1.542433 0.236131,0.109852 2.014892,0.105403 2.991395,-0.224224 0.976502,-0.329638 1.296457,-0.540016 1.296457,-0.540016 l 0.652215,3.058567 c 0,0 2.298912,-2.98421 3.274505,-3.522767 0.975592,-0.538556 0.928912,2.510471 1.406254,2.576471 0.477343,0.06599 2.770594,-2.550745 2.770594,-2.550745"
         id="path35-1-0"
         sodipodi:nodetypes="csssczczzzzzzzcczzc" />
      <path
         style="display:inline;fill:none;fill-opacity:1;stroke:#000000;stroke-width:2.164;stroke-dasharray:none;stroke-opacity:1"
         d="m 44.249678,63.208211 c 0,0 -0.754481,3.978119 -1.853071,5.572461 -0.719808,1.044628 -2.046299,2.761506 -3.119214,3.772554 -0.807645,0.761082 -1.516701,0.973225 -1.463304,1.029482 0.334276,0.352207 1.429508,0.101125 1.429508,0.101125 0,0 2.071752,-0.793438 2.808593,-0.985813 0.736843,-0.192373 1.571394,-0.274578 1.571394,-0.274578 0,0 -1.330647,1.121188 -1.776229,2.028812 -0.445584,0.907622 -1.222968,3.649807 -0.659017,3.30113 0.563948,-0.348677 1.647045,-0.56696 2.317214,-0.919745 0.670166,-0.352785 1.635326,-1.521871 1.703277,-1.1421 0.06792,0.379773 -0.06306,0.599847 -0.319054,1.027287 -0.256026,0.427441 -1.547405,1.248929 -1.342135,1.352897 0.205269,0.103969 2.248374,0.26385 3.097255,-0.04812 0.848883,-0.311989 1.811193,-1.478234 1.811193,-1.478234 l 0.882864,3.389576 c 0,0 1.861803,-2.47888 2.709893,-2.988601 0.848089,-0.509717 1.264198,2.007078 1.679155,2.069543 0.414959,0.06246 1.999696,-1.872984 1.999696,-1.872984"
         id="path35-14"
         sodipodi:nodetypes="csssczczzzzzzzcczzc" />
    </g>
    <g
       id="g38-5"
       inkscape:label="right neck beard"
       transform="matrix(0.5,0,0,0.5,-39.547958,-76.751037)"
       style="display:inline">
      <path
         style="display:inline;fill:#633a1e;fill-opacity:1;stroke:none;stroke-width:1.008;stroke-dasharray:none;stroke-opacity:1"
         d="m 115.98804,57.708215 c 0,0 1.23261,4.367146 1.35778,5.806283 0.12517,1.439137 1.19693,6.196015 2.03928,7.998375 0.84235,1.80236 3.69684,2.990436 3.35254,4.28952 -0.3443,1.299084 -0.6889,0.835443 -1.71137,0.844427 -1.02247,0.009 -2.76005,-1.757647 -3.66109,-1.220365 -0.90104,0.537282 0.0694,1.430178 -0.42081,2.398647 -0.49022,0.968469 -1.68465,2.929818 -2.83677,2.61697 -1.15212,-0.312848 -0.16991,-1.768336 -0.69576,-2.673218 -0.52585,-0.904882 -1.28716,-2.510365 -2.44305,-2.426562 -1.15589,0.0838 -1.53952,1.846172 -2.10762,2.807034 -0.5681,0.960862 -0.23667,2.604412 -1.46535,2.620748 -1.22871,0.01634 -1.60306,-3.407868 -1.60306,-3.407868"
         id="path36-4-2"
         sodipodi:nodetypes="czzzzzzzzzzzc" />
      <path
         style="display:inline;fill:none;fill-opacity:1;stroke:#000000;stroke-width:1.008;stroke-dasharray:none;stroke-opacity:1"
         d="m 117.19912,60.309239 c 0,0 1.07576,9.025438 2.07685,11.167453 1.00108,2.142015 3.78733,4.376479 3.78733,4.376479 0,0 -1.12369,0.7485 -2.14616,0.757468 -1.02247,0.009 -3.66109,-1.220365 -3.66109,-1.220365 0,0 0.0694,1.430178 -0.42081,2.398647 -0.49023,0.968469 -2.81947,2.945707 -2.81947,2.945707 0,0 -0.18721,-2.097073 -0.71306,-3.001955 -0.52585,-0.904882 -2.44305,-2.426562 -2.44305,-2.426562 0,0 -1.53952,1.846172 -2.10762,2.807034 -0.5681,0.960861 -1.30098,2.958136 -1.30098,2.958136 l -1.76743,-3.745256"
         id="path36-0"
         sodipodi:nodetypes="czczczczczcc" />
    </g>
    <g
       id="g45-6"
       inkscape:label="right ear hidden"
       style="display:inline"
       transform="translate(-60.920334,21.883985)">
      <ellipse
         style="display:inline;fill:#8a5430;fill-opacity:1;stroke:#000000;stroke-width:1.132;stroke-linecap:round;stroke-linejoin:round;stroke-dasharray:none;stroke-opacity:1;paint-order:stroke fill markers"
         id="path42-28-8"
         cx="-74.222687"
         cy="-81.743843"
         rx="4.5991869"
         ry="4.2152939"
         transform="scale(-1,1)" />
      <ellipse
         style="display:inline;fill:#d4ab6a;fill-opacity:1;stroke:none;stroke-width:0.566615;stroke-linecap:round;stroke-linejoin:round;stroke-dasharray:none;stroke-opacity:1;paint-order:stroke fill markers"
         id="path42-2-9-2"
         cx="-74.465546"
         cy="-82.283035"
         rx="2.2033491"
         ry="2.2045014"
         transform="scale(-1,1)" />
    </g>
    <g
       id="g47-8"
       inkscape:label="left ear not hidden"
       style="display:inline"
       transform="translate(-0.150441,-0.32637)">
      <ellipse
         style="fill:#633a1e;fill-opacity:1;stroke:#000000;stroke-width:1.132;stroke-linecap:round;stroke-linejoin:round;stroke-dasharray:none;stroke-opacity:1;paint-order:stroke fill markers"
         id="ellipse43-8"
         cx="-11.567329"
         cy="-60.479271"
         rx="4.5991869"
         ry="4.2152939" />
      <ellipse
         style="display:inline;fill:#d4ab6a;fill-opacity:1;stroke:none;stroke-width:0.566615;stroke-linecap:round;stroke-linejoin:round;stroke-dasharray:none;stroke-opacity:1;paint-order:stroke fill markers"
         id="ellipse44-5"
         cx="-11.570079"
         cy="-60.457626"
         rx="2.2033491"
         ry="2.2045014" />
    </g>
    <path
       style="display:inline;fill:#8a5430;fill-opacity:1;stroke:none;stroke-width:0.532;stroke-dasharray:none;stroke-opacity:1;paint-order:stroke fill markers"
       d="m 100.15959,-59.133316 c -1.132782,0.03332 -2.278367,0.230191 -3.343117,0.618271 -2.25132,0.820562 -4.98179,2.426421 -6.25207,3.54789 -1.27028,1.121469 -2.175465,2.259573 -2.669895,3.856516 -0.49443,1.596943 -0.636775,4.033406 0.02695,5.339792 0.663725,1.306387 1.86858,1.472846 2.77777,2.049617 0.90919,0.576771 1.315065,2.872197 1.956645,3.711271 0.64158,0.839074 0.654525,1.147666 0.654525,1.147666 0,0 0.81311,0.297119 1.25266,1.124053 0.43955,0.826935 -2.802267,2.850599 -3.64783,4.621736 -1.095706,2.295093 -1.700726,4.898158 -1.684835,7.441339 0.01437,2.299912 0.202769,4.888946 1.607645,6.709969 0.484317,0.62778 0.142523,0.883499 2.096816,1.123121 0.421562,0.05169 1.102813,-0.01595 2.409061,0.04348 0.316834,0.01442 0.860696,0.222535 1.300126,0.544096 0.225837,0.165261 0.447789,0.419406 0.5858,0.654281 0.203003,0.345482 0.385018,0.855825 0.437542,1.076154 0.0739,0.310001 0.110082,0.683598 0.131795,0.975508 0.01419,0.19075 -0.01027,0.369637 -0.0095,0.534545 0.0013,0.282086 -0.04772,0.515968 -0.05936,0.682772 -0.01254,0.179642 0.01828,0.281484 0.201967,0.281951 2.573525,0.0065 -2.221003,6.956337 -0.148772,9.2318628 0.721513,0.7922968 2.347177,0.8903673 3.205167,0.248369 1.3632,-1.0200163 1.04245,-5.4781976 1.05823,-4.9968713 9.9e-4,0.030321 -0.009,0.076358 1.13732,-0.012982 0.17725,-0.013813 0.96446,-1.8080365 1.64238,-3.8550905 0.0495,-0.07418 0.10174,-0.207008 0.12857,-0.288743 0.52247,-1.60539 0.89083,-3.248196 0.9371,-3.969461 0.0403,-0.6288 0.30764,-1.936464 0.31652,-1.979906 0.0267,-0.130359 0.0557,-1.320035 0.1495,-2.085777 0.007,-0.06069 0.007,-0.191175 0.0123,-0.246206 0.0243,-0.229388 0.0162,-0.38265 0.062,-0.576406 0.006,-0.480173 0.0118,-0.796508 0.0353,-1.264383 8.9e-4,-0.01765 0.0109,-0.19647 0.0112,-0.22979 0.003,-0.553256 0.0351,-0.980497 0.0456,-1.503123 0.0155,-0.771302 -0.006,-1.450111 0.0337,-1.866681 0.0762,-0.789382 0.0653,-1.950402 0.13243,-3.08604 0.0456,-0.771368 0.1025,-1.5263 0.1348,-2.148642 6.7e-4,-0.01285 0.0291,-0.09934 0.0341,-0.108348 0.0635,-0.113276 -0.25885,-0.158562 -0.25751,-0.165165 0.0975,-0.479638 0.15601,-0.508445 0.13967,-0.824539 -0.01,-0.18385 0.0515,-0.404137 0.0488,-0.569922 -0.008,-0.519584 0.32931,-0.937897 0.50954,-1.707321 l -0.57557,-0.980267 1.09179,1.583785 1.74149,-2.7615 1.28123,1.131966 0.24879,1.629534 1.4305,-1.181723 0.26123,-1.505142 1.67929,0.659277 1.16928,-0.29854 -1.62953,-2.052466 c 0,0 -1.33452,-3.961236 -1.46959,-5.610884 -0.069,-0.843019 -0.21127,-1.536182 -0.2445,-2.194362 -0.031,-0.613597 -0.19684,-1.301166 -0.35926,-2.102484 -0.32631,-1.609946 -1.6588,-4.031208 -2.14058,-4.533513 -0.25191,-0.262652 -0.98545,-1.016971 -1.72882,-1.713369 -0.67828,-0.635422 -1.36892,-1.218438 -1.6256,-1.419496 -0.53797,-0.42141 -1.58036,-1.336395 -3.32972,-2.362804 -0.356,-0.300586 -1.95409,-0.395945 -2.9419,-0.366896 z"
       id="path37-8"
       sodipodi:nodetypes="aazzzzzczaaasssssssssaassssssssssssssssssscccccccccccsssssszaa"
       inkscape:label="shadow"
       transform="translate(-93.64164,-2.06701)" />
    <path
       style="display:inline;fill:#8a5430;fill-opacity:1;stroke-width:0.532;paint-order:stroke fill markers"
       d="m 107.10099,-34.620425 c 1.26352,1.249444 2.32186,1.923039 3.67947,2.878742 0.52792,0.371635 1.64499,0.582293 2.1213,0.906392 0.30053,0.204492 0.71939,0.917069 1.22796,1.030496 0.61795,0.137824 1.7886,-0.113258 2.41059,-0.230196 0.68978,-0.129681 1.02056,-1.244008 1.08516,-1.451164 0.0923,-0.133931 0.12796,-0.324471 0.19194,-0.486706 0.0533,-0.451927 -0.0729,-0.915817 -0.17138,-1.377857 -0.009,-0.173579 -0.0899,-0.335777 -0.19879,-0.493561 -0.21935,-0.2544 -0.49673,-0.495904 -0.76091,-0.740341 -0.24844,-0.390852 -0.60591,-0.282516 -0.93914,-0.274374 l -1.27503,-0.07523 -5.20295,-1.768593 z"
       id="path19"
       sodipodi:nodetypes="cssssccccccccc"
       transform="translate(-93.64164,-2.06701)" />
    <g
       id="g34-3"
       inkscape:label="gikopoipoi_eyes_open-1"
       style="display:inline"
       transform="matrix(0.5,0,0,0.5,-40.101705,-79.067963)">
      <ellipse
         style="fill:#010101;fill-opacity:1;stroke:none;stroke-opacity:1"
         id="path30-4"
         cx="66.496071"
         cy="51.354408"
         rx="4.7022099"
         ry="4.2478905" />
      <ellipse
         style="fill:#010101;fill-opacity:1;stroke:none;stroke-opacity:1"
         id="path30-8-6"
         cx="104.5814"
         cy="51.395931"
         rx="4.7022099"
         ry="4.2478905" />
    </g>
    <g
       id="gikopoipoi_eyes_closed-1-6"
       style="display:none;fill:#ffffff"
       fill="none"
       stroke="#000000"
       stroke-linecap="round"
       stroke-linejoin="round"
       transform="matrix(0.5,0,0,0.5,-43.421487,-68.191339)">
      <path
         d="m 108.07719,29.67568 h 6.3"
         stroke-width="3"
         id="path5-5" />
      <path
         d="m 69.907726,29.85796 h 6.3"
         stroke-width="3"
         style="display:inline"
         id="path6-1" />
    </g>
    <g
       id="g18-2"
       inkscape:label="mouth"
       transform="matrix(0.5,0,0,0.5,-10.512863,-64.195481)">
      <path
         style="fill:#f2b8b7;fill-opacity:1;stroke:none;stroke-opacity:1"
         d="m 20.783912,38.42115 c -0.87865,0.227524 0.0616,4.363143 0.92066,5.748293 0.85908,1.38516 1.87745,1.490546 3.07587,1.794656 1.19842,0.3041 1.694,0.483254 2.75742,-0.09834 1.06342,-0.58158 2.5414,-1.406095 3.1689,-2.556575 0.6275,-1.15048 0.983546,-3.758579 0.287936,-4.672025 -0.69561,-0.913446 -2.204246,-0.870333 -4.137936,-1.083563 -1.93369,-0.21323 -5.1942,0.640026 -6.07285,0.86755 z"
         id="path16-8"
         sodipodi:nodetypes="zzzzzzzzz" />
      <path
         style="fill:#d4aa6a;fill-opacity:1;stroke:none;stroke-opacity:1"
         d="m 17.308522,29.033562 c -2.50996,0.906739 -4.13022,1.91469 -4.79248,3.594356 -0.66225,1.679666 -0.60638,3.393715 0.84867,4.767514 1.45505,1.373799 4.81875,0.908351 7.11383,0.848667 2.29509,-0.05968 4.03306,-1.344099 6.51477,-1.123236 2.48172,0.220863 5.5434,2.940278 7.83769,2.845532 2.29429,-0.09475 4.36539,-0.75776 5.35849,-2.000873 0.9931,-1.243113 0.91757,-2.955332 0.43242,-4.28925 -0.48515,-1.333918 -0.78427,-2.814666 -2.96257,-3.875522 -2.17829,-1.060856 -6.85778,-1.705712 -10.31337,-1.576227 -3.45559,0.129485 -7.52749,-0.0977 -10.03745,0.809039 z"
         id="path18-0"
         sodipodi:nodetypes="zzzzzzzzzzz" />
      <path
         style="baseline-shift:baseline;display:inline;overflow:visible;opacity:1;vector-effect:none;enable-background:accumulate;stop-color:#000000;stop-opacity:1"
         d="m 17.742187,28.847656 c 0,0 -1.438175,0.207432 -2.878906,0.960938 -1.440731,0.753506 -2.966747,2.151147 -2.904297,4.40039 0.05832,2.100635 0.60471,3.411575 1.595704,4.142578 0.990993,0.731004 2.271355,0.834262 3.693359,0.871094 1.498932,0.03883 3.210261,-0.344418 4.9375,-0.693359 1.727238,-0.348941 3.466208,-0.663967 4.929687,-0.556641 1.463702,0.107343 2.941359,0.653497 4.369141,1.205078 1.427782,0.551581 2.799527,1.116936 4.138672,1.164063 1.185962,0.04173 2.030334,0.157961 2.904297,-0.166016 0.873962,-0.323976 1.623691,-1.053794 2.658203,-2.5 0.579308,-0.809853 0.741481,-1.703599 0.644531,-2.523437 -0.09695,-0.819839 -0.432854,-1.5737 -0.824219,-2.21875 -0.782729,-1.2901 -1.820312,-2.181641 -1.820312,-2.181641 0,0 -0.45847,-0.325933 -0.753646,-0.0011 -0.344393,0.379002 0.09935,0.756953 0.09935,0.756953 0,0 0.936273,0.816586 1.621094,1.945313 0.34241,0.564364 0.612377,1.19766 0.685547,1.816406 0.07317,0.618746 -0.03025,1.216674 -0.464844,1.824219 -0.993298,1.388591 -1.60747,1.927343 -2.19336,2.144531 -0.585889,0.217189 -1.298506,0.146552 -2.521484,0.103516 -1.069795,-0.03765 -2.380465,-0.541725 -3.814453,-1.095703 -1.433988,-0.553979 -2.995998,-1.149871 -4.654297,-1.271485 -1.658521,-0.12163 -3.463913,0.223254 -5.201172,0.574219 -1.737259,0.350965 -3.412445,0.707563 -4.714844,0.673828 -1.379336,-0.03573 -2.443408,-0.173007 -3.124999,-0.675781 -0.681592,-0.502774 -1.135417,-1.419027 -1.189454,-3.365234 -0.04991,-1.7976 1.102439,-2.826814 2.367188,-3.488282 1.264749,-0.661467 2.560547,-0.857422 2.560547,-0.857422 0,0 0.538572,-0.07608 0.461863,-0.66711 -0.0588,-0.453083 -0.606395,-0.321171 -0.606395,-0.321171 z"
         id="path13-8"
         sodipodi:nodetypes="csssssssssssscscsssssssssssscsc" />
      <path
         style="fill:none;stroke:#000000;stroke-opacity:1"
         d="m 17.341802,38.472274 c 0,0 0.66225,4.834642 1.95516,6.799418 1.29291,1.964776 2.395301,2.805189 4.699021,3.250148 2.30372,0.444959 5.065232,-0.341213 7.218272,-2.142394 2.15304,-1.801181 3.703707,-6.690181 3.703707,-6.690181"
         id="path14-3"
         sodipodi:nodetypes="czzzc" />
      <path
         style="baseline-shift:baseline;display:inline;overflow:visible;opacity:1;vector-effect:none;enable-background:accumulate;stop-color:#000000;stop-opacity:1"
         d="m 20.738281,38.373047 -0.998047,0.04883 c 0,0 0.05449,1.120206 0.232422,2.419922 0.177931,1.299715 0.423462,2.751863 1.03711,3.634765 1.052141,1.513799 3.058743,2.906566 5.410156,2.46875 1.282709,-0.238831 2.906622,-1.401047 3.743342,-2.344068 0.836719,-0.943021 1.780786,-2.325153 1.780786,-2.325153 0,0 0.287737,-0.304575 -0.192384,-0.650392 -0.418473,-0.301414 -0.65332,0.115234 -0.65332,0.115234 0,0 -0.92461,1.469625 -1.683129,2.196247 -0.845178,0.809637 -2.352008,1.871749 -3.178889,2.025709 -1.867767,0.347764 -3.530351,-0.796417 -4.40625,-2.056641 -0.350372,-0.504108 -0.695993,-1.95066 -0.867187,-3.201172 -0.171195,-1.250512 -0.22461,-2.332031 -0.22461,-2.332031 z"
         id="path15-8"
         sodipodi:nodetypes="ccsssscscssssc" />
      <path
         style="fill:#000000;fill-opacity:1;stroke:none;stroke-opacity:1"
         d="m 22.606022,33.467755 c 0.0764,0.72729 1.67843,2.325776 2.70885,2.840106 1.03043,0.514331 1.64756,0.395275 2.59362,0.09717 0.94606,-0.298105 2.27219,-1.453667 2.67584,-2.025563 0.40365,-0.571896 0.58461,-1.337443 0.007,-2.197474 -0.57711,-0.86003 -2.3591,-1.462213 -3.72226,-1.509829 -1.36315,-0.04762 -2.5247,0.297802 -3.48846,0.908787 -0.96376,0.610985 -0.85149,1.159513 -0.77509,1.886803 z"
         id="path17-0"
         sodipodi:nodetypes="zzzzzzzz" />
    </g>
    <path
       style="display:inline;fill:none;fill-opacity:1;stroke:#000000;stroke-width:1.0605;stroke-dasharray:none;stroke-opacity:1"
       d="m 112.68607,-47.655208 c 0,0 0.68079,7.711161 1.19424,8.781315 0.51345,1.070153 1.94249,2.186494 1.94249,2.186494 0,0 -0.57633,0.373952 -1.10075,0.378432 -0.52441,0.0045 -1.87774,-0.609696 -1.87774,-0.609696 0,0 0.0356,0.714519 -0.21583,1.198368 -0.25144,0.483848 -1.44609,1.471679 -1.44609,1.471679 0,0 -0.096,-1.047701 -0.36572,-1.499781 -0.26971,-0.45208 -1.25303,-1.212314 -1.25303,-1.212314 0,0 -0.7896,0.922351 -1.08098,1.402398 -0.29137,0.480048 -0.66726,1.477889 -0.66726,1.477889 l -1.08273,-1.977689"
       id="path36-5-7"
       sodipodi:nodetypes="czczczczczcc"
       transform="translate(-93.64164,-2.06701)" />
  </g>
</svg>
