<?xml version="1.0" encoding="UTF-8" standalone="no"?>
<svg
   height="182"
   width="160"
   xml:space="preserve"
   version="1.1"
   id="svg6"
   sodipodi:docname="Pedobear-front-standing.svg"
   inkscape:version="1.4.4 (dcaf3e7, 2026-05-05)"
   xmlns:inkscape="http://www.inkscape.org/namespaces/inkscape"
   xmlns:sodipodi="http://sodipodi.sourceforge.net/DTD/sodipodi-0.dtd"
   xmlns:xlink="http://www.w3.org/1999/xlink"
   xmlns="http://www.w3.org/2000/svg"
   xmlns:svg="http://www.w3.org/2000/svg"><sodipodi:namedview
     id="namedview6"
     pagecolor="#505050"
     bordercolor="#ffffff"
     borderopacity="1"
     inkscape:showpageshadow="0"
     inkscape:pageopacity="0"
     inkscape:pagecheckerboard="1"
     inkscape:deskcolor="#505050"
     inkscape:zoom="10.815134"
     inkscape:cx="89.411746"
     inkscape:cy="44.798336"
     inkscape:window-width="1318"
     inkscape:window-height="1084"
     inkscape:window-x="32"
     inkscape:window-y="164"
     inkscape:window-maximized="0"
     inkscape:current-layer="g7"
     showguides="false" /><defs
     id="defs4"><inkscape:path-effect
       effect="fillet_chamfer"
       id="path-effect34"
       is_visible="true"
       lpeversion="1"
       nodesatellites_param="F,0,0,1,0,0,0,1 @ F,0,0,1,0,0,0,1 @ F,0,0,1,0,0,0,1 @ F,0,0,1,0,0,0,1"
       radius="0"
       unit="px"
       method="auto"
       mode="F"
       chamfer_steps="1"
       flexible="false"
       use_knot_distance="true"
       apply_no_radius="true"
       apply_with_radius="true"
       only_selected="false"
       hide_knots="false" /><inkscape:path-effect
       effect="fillet_chamfer"
       id="path-effect33"
       is_visible="true"
       lpeversion="1"
       nodesatellites_param="F,0,0,1,0,0,0,1 @ F,0,0,1,0,0,0,1 @ F,0,0,1,0,0,0,1 @ F,0,0,1,0,0,0,1"
       radius="0"
       unit="px"
       method="auto"
       mode="F"
       chamfer_steps="1"
       flexible="false"
       use_knot_distance="true"
       apply_no_radius="true"
       apply_with_radius="true"
       only_selected="false"
       hide_knots="false" /><inkscape:path-effect
       effect="fillet_chamfer"
       id="path-effect32"
       is_visible="true"
       lpeversion="1"
       nodesatellites_param="F,0,0,1,0,0,0,1 @ F,0,0,1,0,0,0,1 @ F,0,0,1,0,0,0,1 @ F,0,0,1,0,0,0,1"
       radius="0"
       unit="px"
       method="auto"
       mode="F"
       chamfer_steps="1"
       flexible="false"
       use_knot_distance="true"
       apply_no_radius="true"
       apply_with_radius="true"
       only_selected="false"
       hide_knots="false" /><inkscape:path-effect
       effect="fillet_chamfer"
       id="path-effect31"
       is_visible="true"
       lpeversion="1"
       nodesatellites_param="F,0,0,1,0,0,0,1 @ F,0,0,1,0,0,0,1 @ F,0,0,1,0,0,0,1 @ F,0,0,1,0,0,0,1"
       radius="0"
       unit="px"
       method="auto"
       mode="F"
       chamfer_steps="1"
       flexible="false"
       use_knot_distance="true"
       apply_no_radius="true"
       apply_with_radius="true"
       only_selected="false"
       hide_knots="false" /><inkscape:path-effect
       effect="fillet_chamfer"
       id="path-effect30"
       is_visible="true"
       lpeversion="1"
       nodesatellites_param="F,0,0,1,0,0,0,1 @ F,0,0,1,0,0,0,1 @ F,0,0,1,0,0,0,1 @ F,0,0,1,0,0,0,1"
       radius="0"
       unit="px"
       method="auto"
       mode="F"
       chamfer_steps="1"
       flexible="false"
       use_knot_distance="true"
       apply_no_radius="true"
       apply_with_radius="true"
       only_selected="false"
       hide_knots="false" /><inkscape:path-effect
       effect="powerstroke"
       message=""
       id="path-effect8"
       is_visible="true"
       lpeversion="1.3"
       scale_width="1"
       interpolator_type="CentripetalCatmullRom"
       interpolator_beta="0.75"
       start_linecap_type="round"
       end_linecap_type="round"
       offset_points="19.548954,2.3378004 | 89.800045,0.34602373 | 93.398697,0.53444611 | 95.965425,0.4567513 | 112.45336,0.26947043 | 130.51929,2.3378004 | 165.81772,2.1047516"
       linejoin_type="spiro"
       miter_limit="4"
       not_jump="true"
       sort_points="true" /><inkscape:path-effect
       effect="simplify"
       id="path-effect7"
       is_visible="true"
       lpeversion="1.3"
       threshold="0.012"
       steps="1"
       smooth_angles="0"
       helper_size="0"
       simplify_individual_paths="false"
       simplify_just_coalesce="false"
       step="1" /><g
       id="c"><path
         d="M.4-60h3.9l1.2.55 3.9-8.6 3.85 8.6L14.5-60l3.15 3.05 1.15 1.05-.05.05-.4.4.1.1q2.1 2.05 2.35 4.55v.6q0 1.65-.8 3.1l-.25.45-1.4 1.7.15.15-.3.25-3.25.9v4.7l-3.25.7-3.1.9.65 1.6 3.3-1.25 3-.6q1.55 0 2.15.6.8.8.8 2 0 1.1-.75 1.85-1.05 1.05-4.1 1.25l-1.25.05.35 1.5 1.5-.05-.05 2.75-1.5 1.25v12.25l-.85 4.6h-1.5V-3q0 .7-.45 1.15-.55.55-1.6.55-1.15 0-1.65-.55Q6.2-2.3 6.25-3v-6.55h-1.6l-2.35-3.5H.55L-3-9.55V-3q0 .7-.45 1.15-.55.55-1.6.55-1.1 0-1.65-.55-.45-.45-.4-1.15v-6.55h-1.55l-1.7-1.1-1.75-3.9v-3.9l.45-.4q.75-.6 1.35-1.55l-1.25-1-.7.95.4-10.95 1.75-12.8.4.35.75-.7-1-1.1q-1.55-1.9-1.5-4.15l.05-1q.35-2.3 2.45-4.25l-.75-.75.5-3.95.65.3 3.85-8.6 3.85 8.6L.4-60m10.1 14.7v1.9h1.3v-3.25h-1.15v-9.45h-6.2v3.85l-.05 1.1-.45 2.45-1 2.05H2v3.3h1.35v-1.95h7.15m-6.05-1.35.5-.9.9-3.55v-.05l.05-.35v-3.25h3.4v8.1H4.45m14.3-9.2-1.1-1.1 1.1 1.1M5.5-37.95Q4.45-39 2.25-39l-4 .75-3.1.9.65 1.6L-.9-37l3-.6q1.55 0 2.15.6.8.8.8 2 0 1.1-.75 1.85Q3.25-32.1.25-31.9l-1.3.05.35 1.5q3.95-.05 5.9-1.55l.45-.35q1-1 1-2.85-.05-1.8-1.15-2.85M-7.15-43.6l.75-1.55v-1.35h-1.5v1.45h.55l-.55 1.45h.75M-5-45.05h.55L-5-43.6h.75l.75-1.55v-1.35H-5v1.45"
         fill="#fff"
         fill-rule="evenodd"
         transform="translate(21.55 71)"
         id="path1" /><path
         d="m4.3-60 5.1-11 5.1 11-1.25.55-3.85-8.6-3.9 8.6L4.3-60m14.5 4.1.25-.3q2.55 2.35 2.8 5.4v.6q0 1.9-.9 3.55-.7 1.25-1.9 2.4l-.55-.55-.15-.15 1.4-1.7.25-.45q.8-1.45.8-3.1v-.6q-.25-2.5-2.35-4.55l-.1-.1.4-.4.05-.05m-3.85 16.95.75-.05q2.2 0 3.25 1.05 1.1 1.05 1.1 2.85 0 1.85-1 2.85l-.4.35q-1.55 1.2-4.4 1.5l-1.5.05-.35-1.5 1.25-.05q3.05-.2 4.1-1.25.75-.75.75-1.85 0-1.2-.8-2-.6-.6-2.15-.6l-3 .6-3.3 1.25-.65-1.6 3.1-.9 3.25-.7m-3.1 29.4v6.6q0 1.25-.8 2.05-.9.9-2.75.9-1.95 0-2.85-.9-.8-.8-.8-2.05v-6.6h1.6V-3q-.05.7.4 1.15.5.55 1.65.55 1.05 0 1.6-.55.45-.45.45-1.15v-6.55h1.5M-3-9.55h1.5v6.6q0 1.25-.8 2.05-.9.9-2.75.9-1.9 0-2.8-.9-.85-.8-.8-2.05v-6.6h1.55V-3q-.05.7.4 1.15.55.55 1.65.55 1.05 0 1.6-.55Q-3-2.3-3-3v-6.55m-9.1-8.9q-.7.45-1.6.45-1 0-2.7-1.1l-1.9-.65q-.85 0-1.3.55l-.6.95-1.35-.75 1.2-1.65q.85-.8 1.95-.8t2.3.8q1.65.85 2.55.85.6 0 1.3-.65l.7-.95 1.25 1q-.6.95-1.35 1.55l-.45.4m2-25.75-.6-.7q-1.85-2.2-1.8-4.9l.05-1q.35-2.8 2.75-5l.75.75q-2.1 1.95-2.45 4.25l-.05 1q-.05 2.25 1.5 4.15l1 1.1-.75.7-.4-.35m.9-15.55-.55-.25 5.05-11L.4-60l-1.25.55-3.85-8.6-3.85 8.6-.65-.3M2-43.4v-3.25h.95l1-2.05.45-2.45.05-1.1v-3.85h6.2v9.45h1.15v3.25h-1.3v-1.95H3.35v1.95H2m7.3-11.35v-.05H5.85v3.25l-.05.35v.05l-.9 3.55-.5.9-.05.05H9.3v-8.1m-3.8 16.8q1.1 1.05 1.15 2.85 0 1.85-1 2.85l-.45.35q-1.95 1.5-5.9 1.55l-.35-1.5 1.3-.05q3-.2 4.05-1.25.75-.75.75-1.85 0-1.2-.8-2-.6-.6-2.15-.6l-3 .6-3.3 1.25-.65-1.6 3.1-.9 4-.75q2.2 0 3.25 1.05M-5-45.05v-1.45h1.5v1.35l-.75 1.55H-5l.55-1.45H-5m-2.15 1.45h-.75l.55-1.45h-.55v-1.45h1.5v1.35l-.75 1.55"
         fill-rule="evenodd"
         transform="translate(21.55 71)"
         id="path2" /><path
         d="M.4-60h3.9m8.4 33.6v9.45m0 0v2.8m4.95-42.8 1.1 1.1"
         fill="none"
         stroke="#000"
         stroke-linecap="round"
         stroke-linejoin="round"
         transform="translate(21.55 71)"
         id="path3" /></g><g
       id="d"
       transform="translate(.8)"><use
         height="3"
         transform="matrix(1.005 0 0 1 -.804 0)"
         width="4.65"
         xlink:href="#a"
         id="use3" /><use
         height="3"
         transform="matrix(1.005 0 0 1 16.096 0)"
         width="4.65"
         xlink:href="#a"
         id="use4" /></g><path
       d="M1.35 0h.2l.55.1.45.35q.45.45.45 1L2.55 2.6q-.45.4-1 .4l-.8-.2-.25-.2-.45-.7v-.15L0 1.45v-.1q.05-.5.5-.9l.25-.2Q1 .05 1.3 0h.05m.45.85L1.55.8Q1.2.75 1 1q-.2.15-.2.45v.15l.15.45H1l.05.05.2.1.3.05.55-.2.15-.6-.05-.3L2.1 1 2.05.95 1.9.85h-.1"
       fill-rule="evenodd"
       id="b" /><use
       height="3"
       transform="translate(.8)"
       width="3"
       xlink:href="#b"
       id="a" /><g
       id="a-4"><path
         d="M-15.5-41.55q-2.65-3.1-2.5-7.1-.15-5.3 5.35-9.8Q-7.15-63.5.5-64q7.6.5 13.05 5.55 5.45 4.5 5.45 9.8 0 4-2.6 7.1h.1-.05l-2.6 3.1v.8l-.2-.95-.8.05.65 9.65h.15l.25.75.2.5.2.4-.15.45-.3.75-.2.35-.9.7h-.05l-.05 1.5h.05l-.05.5h-.05l-.35 4.2-1.05 4.1-1.65 4v.05H8.4v5.2Q8.35-4.1 7.6-3.2q-.65.75-1.7.75-1 0-1.7-.75-.8-.9-.8-2.25v-5.2H2.1v-1.2h-.3V-12l-.9-1.55h-2.45l-1.55 1.7v1.2h-1.2v5.2q-.05 1.35-.8 2.25-.7.75-1.7.75t-1.75-.75q-.75-.9-.75-2.25v-5.2h-1.2L-12.1-13l.1-.1q-1.8-1.9-2.15-4.15l-.1-1.2.05-.95.55-1.85h.1v-.55l.15-.15V-24q.75.6 1.55.55l.25-.05q1.9.5 3-.85.4.2.2-.15 1-.75 1.25-2.4-.05-.7-.45-2l.45-6.3-1.35-.1-.5 6.45.15.05v.05h.05l.4 1.4q.15 1.45-.95 1.9-.55.9-2.1.6h-.5q-.6-.2-1.3-.85l-.2-.35-.25-.75-.15-.45.15-.4.25-.5.25-.75h.1l.7-9.65-.85-.05-.4-.05v-.15l-2.05-2.75h.2m1.75 19.65-.05-.1.05.1m3.65-6.55h.05l-.05-.05v.05"
         fill="#fff"
         fill-rule="evenodd"
         transform="translate(18.6 64.6)"
         id="path1-8" /><path
         d="m13.85-37.65.8 5.6.05-.05v.1l.2 2.65v.35h-.1v.1q.25.7.6 1.1-.05.25.15.3.3 1.6-.6 2.45l-.15.2q-.15-.05-.2.1l-.25.25-.55.5q-.55.4-1.1.5h-.05l.05-1.5h.05l.9-.7.2-.35.3-.75.15-.45-.2-.4-.2-.5-.25-.75h-.15l-.65-9.65.8-.05.2.95m-4.3 27v5.2q0 1.95-1 3.1Q7.45-1.1 5.9-1.1q-1.5 0-2.65-1.25-1.05-1.15-1-3.1v-5.2H3.4v5.2q0 1.35.8 2.25.7.75 1.7.75 1.05 0 1.7-.75.75-.9.8-2.25v-5.2h1.15m-12.7 0v5.2q0 1.95-1.05 3.1Q-5.3-1.1-6.8-1.1t-2.65-1.25q-1.05-1.15-1.05-3.1v-5.2h1.2v5.2q0 1.35.75 2.25.75.75 1.75.75t1.7-.75q.75-.9.8-2.25v-5.2h1.15M-13.4-24l-.55-.5-.2-.25-.2-.1-.2-.2q-.9-.85-.55-2.45.15-.05.15-.3l.55-1.1.05-.1h-.1l-.05-.35h.05l.2-2.65v-.1l.05.05.95-6.55.85.05-.7 9.65h-.1l-.25.75-.25.5-.15.4.15.45.25.75.2.35q.7.65 1.3.85h.5q1.55.3 2.1-.6 1.1-.45.95-1.9l-.4-1.4h-.05v-.05l-.15-.05.5-6.45 1.35.1-.45 6.3q.4 1.3.45 2-.25 1.65-1.25 2.4.2.35-.2.15-1.1 1.35-3 .85l-.25.05q-.8.05-1.55-.55"
         fill-rule="evenodd"
         transform="translate(18.6 64.6)"
         id="path2-1" /><path
         d="M3.1 23.05q-2.65-3.1-2.5-7.1-.15-5.3 5.35-9.8Q11.45 1.1 19.1.6q7.6.5 13.05 5.55 5.45 4.5 5.45 9.8 0 4-2.6 7.1"
         fill="none"
         stroke="#000"
         stroke-linecap="round"
         stroke-linejoin="round"
         stroke-width="1.2"
         id="path3-3" /><path
         d="M5.4-44.05q.15.45.45.75l.7.25.95-.6q.4-.65.4-1.65 0-1.35-.9-3.25h1.05q.9 1.6.9 3.15 0 1.55-.65 2.4-.6.8-1.6.8-1.35 0-1.9-1.4-.6 1.4-1.9 1.4-1.05 0-1.65-.85Q.6-43.9.6-45.4q0-1.55.95-3.15h1q-.85 1.9-.85 3.25 0 1 .35 1.65.4.6.95.6.4 0 .7-.3l.45-.7.1-1.15V-47H5.3v1.8l.1 1.15"
         fill-rule="evenodd"
         transform="translate(18.6 64.6)"
         id="path4" /></g></defs><g
     id="g35"
     inkscape:label="bear"><g
       id="g29"
       transform="translate(-2.3386899,10.261217)"
       style="display:inline"
       inkscape:label="body"><g
         transform="matrix(2,0,0,2,82.341,144.2)"
         id="g7"
         inkscape:label="face parts"><use
           height="63.5"
           transform="translate(-18.6,-64.6)"
           width="38.200001"
           xlink:href="#a-4"
           id="use4-4" /><g
           id="g46"
           inkscape:label="right ear not hidden"
           style="display:none"><ellipse
             style="display:inline;fill:#8a5430;fill-opacity:1;stroke:#000000;stroke-width:1.132;stroke-linecap:round;stroke-linejoin:round;stroke-dasharray:none;stroke-opacity:1;paint-order:stroke fill markers"
             id="path42-28-7"
             cx="-15.467918"
             cy="-59.75267"
             rx="4.5991869"
             ry="4.2152939"
             transform="matrix(-1,0,0,1,-4.9999997e-8,1.5e-6)" /><ellipse
             style="display:inline;fill:#d4ab6a;fill-opacity:1;stroke:none;stroke-width:0.566615;stroke-linecap:round;stroke-linejoin:round;stroke-dasharray:none;stroke-opacity:1;paint-order:stroke fill markers"
             id="path42-2-9-8"
             cx="-15.617105"
             cy="-59.964024"
             rx="2.2033491"
             ry="2.2045014"
             transform="scale(-1,1)" /></g><g
           id="g45"
           inkscape:label="right ear hidden"
           style="display:inline"><ellipse
             style="display:inline;fill:#8a5430;fill-opacity:1;stroke:#000000;stroke-width:1.132;stroke-linecap:round;stroke-linejoin:round;stroke-dasharray:none;stroke-opacity:1;paint-order:stroke fill markers"
             id="path42-28"
             cx="-12.34819"
             cy="-60.000504"
             rx="4.5991869"
             ry="4.2152939"
             transform="scale(-1,1)" /><ellipse
             style="display:inline;fill:#d4ab6a;fill-opacity:1;stroke:none;stroke-width:0.566615;stroke-linecap:round;stroke-linejoin:round;stroke-dasharray:none;stroke-opacity:1;paint-order:stroke fill markers"
             id="path42-2-9"
             cx="-12.591044"
             cy="-60.539696"
             rx="2.2033491"
             ry="2.2045014"
             transform="scale(-1,1)" /></g><g
           id="g44"
           inkscape:label="left ear hidden"
           style="display:inline"><ellipse
             style="fill:#633a1e;fill-opacity:1;stroke:#000000;stroke-width:2.264;stroke-linecap:round;stroke-linejoin:round;stroke-dasharray:none;stroke-opacity:1;paint-order:stroke fill markers"
             id="path42"
             cx="58.938843"
             cy="32.668526"
             rx="9.1983738"
             ry="8.4305878"
             transform="matrix(0.5,0,0,0.5,-40.001155,-77.230608)" /><ellipse
             style="display:inline;fill:#d4ab6a;fill-opacity:1;stroke:none;stroke-width:0.566615;stroke-linecap:round;stroke-linejoin:round;stroke-dasharray:none;stroke-opacity:1;paint-order:stroke fill markers"
             id="path42-2"
             cx="-10.774588"
             cy="-61.435532"
             rx="2.2033491"
             ry="2.2045014" /></g><path
           style="fill:#633a1e;fill-opacity:1;stroke:none;stroke-width:0.10951;stroke-opacity:1"
           d="m 80.773369,27.562052 c -3.416738,0.154809 -6.863562,0.763156 -10.115984,1.844963 -6.696471,2.227353 -13.182823,6.28687 -18.087987,11.47578 -3.455122,3.654988 -6.607735,8.068576 -7.354868,13.174871 -0.101829,2.401754 -0.160159,4.823767 0.09026,7.218241 0.572658,3.455903 2.211533,6.672324 4.438144,9.355393 0.522805,0.564716 0.216976,1.3906 -0.33131,1.806058 0.01777,0.623691 0.739785,1.095527 1.036098,1.656886 0.777034,1.022641 1.547578,2.092548 2.247273,3.147646 0.740295,0.262643 1.555052,0.172026 2.32516,0.28896 -0.415883,6.354791 -0.877384,12.727302 -1.462984,19.070759 -0.504386,1.082864 -0.919295,2.214125 -1.389937,3.304377 0.50643,1.389334 0.7062,3.145524 2.100715,3.982544 1.343656,1.16595 3.224649,1.1706 4.902147,1.09483 1.330217,-0.036 2.120415,-1.19956 3.119418,-1.8935 1.321919,-1.05235 1.176164,-2.95608 0.751676,-4.411481 -0.184661,-0.710075 -0.406154,-1.45081 -0.799159,-2.055381 0.101943,-3.470527 0.483612,-6.931703 0.737091,-10.396526 0.06321,-0.720541 0.121848,-1.44374 0.202085,-2.164385 0.775953,0.01451 1.568445,0.06084 2.343982,0.140309 -0.252875,4.122981 -0.590793,8.253665 -0.859396,12.37868 0.270477,1.393228 0.833676,2.751091 0.849343,4.171854 -0.192906,1.70766 -1.032095,3.30293 -2.217147,4.53012 -0.156897,0.23296 -0.134769,0.48258 -0.470122,0.45857 -0.845719,0.45509 -1.437845,1.33458 -2.419056,1.56843 -1.549034,0.45927 -3.177058,0.0558 -4.757477,0.0518 -0.843442,-0.0276 -1.561604,-0.4839 -2.263774,-0.89191 -0.499394,0.0943 -0.204777,0.80197 -0.302914,1.16417 -0.06847,0.97648 0.111469,2.01067 -0.129351,2.95379 -0.369954,0.49975 -0.05677,1.20266 -0.463278,1.69398 -0.819645,2.13124 -1.345813,4.42759 -1.020877,6.7181 0.24497,3.34896 1.79199,6.48786 4.035393,8.95101 0.340717,0.48514 0.467965,1.08485 0.856296,1.55923 0.842983,1.2791 1.658486,2.61708 2.593604,3.80874 0.759393,0.0878 1.558768,0.0171 2.333376,0.0444 0.04818,3.83711 -0.104864,7.68109 0.102024,11.51393 0.150246,1.29117 0.729563,2.57639 1.651692,3.49681 1.818169,1.7609 5.067235,1.7578 6.767093,-0.16552 1.212902,-1.33919 1.738789,-3.16617 1.695906,-4.95063 0.07341,-3.29734 0.02456,-6.59605 0.03914,-9.89395 0.782419,-0.0451 1.604554,0.0905 2.36152,-0.0704 0.164533,-0.82401 -0.08632,-1.76516 0.12161,-2.55569 0.969889,-1.06029 1.93975,-2.12062 2.909589,-3.18096 1.609282,0.0189 3.218563,0.0377 4.827846,0.0565 0.618489,1.057 1.27574,2.12777 1.767344,3.23482 0.22298,0.20609 0.709979,-0.0529 0.534288,0.43504 0.0428,0.67341 -0.08897,1.3852 0.07037,2.03299 0.835328,0.11297 1.708293,0.0147 2.557868,0.0477 0.04621,3.87322 -0.101117,7.75356 0.102879,11.62237 0.345726,2.26297 2.083928,4.46212 4.478142,4.6655 1.841555,0.26057 3.740689,-0.70081 4.612461,-2.34569 0.705481,-1.16721 1.074128,-2.51717 0.996284,-3.88417 0.04822,-3.35244 0.05022,-6.70536 0.077,-10.05801 0.729498,-0.0491 1.501796,0.0965 2.205383,-0.0704 1.156872,-2.82654 2.396792,-5.63178 3.463772,-8.49095 0.66035,-2.66612 1.42287,-5.31424 2.02118,-7.9913 0.38894,-4.07753 0.75205,-8.15917 0.93164,-12.25147 1.02351,-0.75974 2.18108,-1.53685 2.53552,-2.84354 0.16905,-0.6529 0.65748,-1.31245 0.56418,-1.974913 -0.61006,-0.99341 -0.79405,-2.196137 -1.41919,-3.169354 -0.31892,-0.201933 -0.0733,-0.754157 -0.19159,-1.08267 -0.39222,-5.988746 -0.81646,-11.975375 -1.20188,-17.964562 0.44052,0.08355 1.34815,-0.458864 1.38416,0.192831 0.0367,0.367439 0.31278,1.668041 0.6275,0.859295 -0.0966,-0.701894 0.10056,-1.293957 0.6511,-1.7539 1.18901,-1.467705 2.49105,-2.876494 3.61024,-4.380648 -0.17334,-0.492753 -0.60876,-1.11817 -0.19521,-1.643452 1.9567,-2.391142 3.51313,-5.193107 4.29712,-8.212825 1.14174,-4.350173 0.9315,-9.109319 -0.98445,-13.214735 -2.00368,-4.733309 -5.74069,-8.419907 -9.60002,-11.687157 -3.83646,-3.367636 -8.239129,-6.122692 -13.072792,-7.805186 -3.801376,-1.28357 -7.787098,-2.25204 -11.816157,-2.317032 z m 3.330212,29.911594 c 0.25003,0.06503 1.00839,-0.180695 0.663367,0.289874 -1.159895,2.745349 -2.043317,5.934264 -1.04601,8.869386 0.367267,1.21422 1.69811,2.262513 2.98115,1.740181 0.912867,-0.421371 1.377494,-1.402614 1.848621,-2.224419 0.03526,-1.833078 0.07049,-3.666156 0.10566,-5.499235 0.53995,0.08424 1.406342,-0.157958 1.763066,0.10951 0.05758,2.051554 -0.156287,4.189998 0.489799,6.169769 0.260108,0.729875 0.881586,1.228639 1.628658,1.39674 0.747452,0.492092 1.342835,-0.386758 1.981319,-0.68407 1.168744,-0.613732 1.293318,-2.102292 1.414859,-3.270324 0.110364,-2.398021 -0.786372,-4.68156 -1.659118,-6.868109 0.58535,0.0216 1.316352,-0.106324 1.798528,0.11989 1.604717,2.971562 2.298825,6.674789 0.937294,9.853423 -0.660856,1.283512 -1.942115,2.512283 -3.491693,2.35469 -1.405665,0.187593 -2.769979,-0.649825 -3.40251,-1.887349 -0.177213,-0.746379 -0.807807,-0.870409 -1.004197,-0.05668 -0.656072,1.191985 -1.92339,2.035486 -3.313187,1.975402 -1.995444,0.184978 -3.5236,-1.632081 -4.049854,-3.38192 -0.730265,-2.703663 -0.310679,-5.691135 1.015319,-8.159983 0.274964,-0.779979 0.498451,-0.972858 1.338929,-0.846776 z"
           id="path29"
           transform="matrix(0.5,0,0,0.5,-40.001155,-77.230608)"
           sodipodi:nodetypes="csaccccccccccccccccccccccccccccccccccccccccccccccccccccccccccccccccccccccccccccccccccccccccccc" /><rect
           style="fill:#633a1e;fill-opacity:1;stroke:none;stroke-width:0.5;stroke-opacity:1"
           id="rect29"
           width="10.291471"
           height="7.4626627"
           x="0.087086581"
           y="-49.373592" /><g
           id="g47"
           inkscape:label="left ear not hidden"
           style="display:none"><ellipse
             style="fill:#633a1e;fill-opacity:1;stroke:#000000;stroke-width:1.132;stroke-linecap:round;stroke-linejoin:round;stroke-dasharray:none;stroke-opacity:1;paint-order:stroke fill markers"
             id="ellipse43"
             cx="-11.567329"
             cy="-60.479271"
             rx="4.5991869"
             ry="4.2152939" /><ellipse
             style="display:inline;fill:#d4ab6a;fill-opacity:1;stroke:none;stroke-width:0.566615;stroke-linecap:round;stroke-linejoin:round;stroke-dasharray:none;stroke-opacity:1;paint-order:stroke fill markers"
             id="ellipse44"
             cx="-11.570079"
             cy="-60.457626"
             rx="2.2033491"
             ry="2.2045014" /></g></g><g
         id="g37"
         inkscape:label="left neck beard"
         transform="translate(2.3386899,-10.261217)"><path
           style="display:inline;fill:#633a1e;fill-opacity:1;stroke:none;stroke-width:0.836085;stroke-opacity:1"
           d="m 45.584543,62.760055 c 0,0 -1.632243,3.876268 -2.895996,5.560807 -0.828026,1.103731 -2.353942,2.917739 -3.58816,3.985989 -0.929065,0.80414 -1.744718,1.028283 -1.683296,1.087727 0.384529,0.372129 1.644419,0.106843 1.644419,0.106843 0,0 2.383221,-0.838326 3.23084,-1.041585 0.847619,-0.203257 1.807636,-0.290112 1.807636,-0.290112 0,0 -1.530698,1.18462 -2.043268,2.143592 -0.512572,0.95897 -1.40683,3.856294 -0.758095,3.48789 0.648735,-0.368405 1.894664,-0.599037 2.665585,-0.971781 0.770922,-0.372743 1.297366,-1.570305 1.375531,-1.169047 0.07813,0.401257 -0.03488,0.483121 -0.329355,0.934744 -0.294515,0.451624 -1.23389,1.432583 -0.99776,1.542433 0.236131,0.109852 2.014892,0.105403 2.991395,-0.224224 0.976502,-0.329638 1.296457,-0.540016 1.296457,-0.540016 l 0.652215,3.058567 c 0,0 2.298912,-2.98421 3.274505,-3.522767 0.975592,-0.538556 0.928912,2.510471 1.406254,2.576471 0.477343,0.06599 2.770594,-2.550745 2.770594,-2.550745"
           id="path35-1"
           sodipodi:nodetypes="csssczczzzzzzzcczzc" /><path
           style="display:inline;fill:none;fill-opacity:1;stroke:#000000;stroke-width:1.064;stroke-dasharray:none;stroke-opacity:1"
           d="m 45.073228,62.593009 c 0,0 -1.578031,4.593321 -2.676621,6.187663 -0.719808,1.044628 -2.046299,2.761506 -3.119214,3.772554 -0.807645,0.761082 -1.516701,0.973225 -1.463304,1.029482 0.334276,0.352207 1.429508,0.101125 1.429508,0.101125 0,0 2.071752,-0.793438 2.808593,-0.985813 0.736843,-0.192373 1.571394,-0.274578 1.571394,-0.274578 0,0 -1.330647,1.121188 -1.776229,2.028812 -0.445584,0.907622 -1.222968,3.649807 -0.659017,3.30113 0.563948,-0.348677 1.647045,-0.56696 2.317214,-0.919745 0.670166,-0.352785 1.635326,-1.521871 1.703277,-1.1421 0.06792,0.379773 -0.06306,0.599847 -0.319054,1.027287 -0.256026,0.427441 -1.547405,1.248929 -1.342135,1.352897 0.205269,0.103969 2.248374,0.26385 3.097255,-0.04812 0.848883,-0.311989 1.811193,-1.478234 1.811193,-1.478234 l 0.882864,3.389576 c 0,0 1.861803,-2.47888 2.709893,-2.988601 0.848089,-0.509717 1.264198,2.007078 1.679155,2.069543 0.414959,0.06246 1.999696,-1.872984 1.999696,-1.872984"
           id="path35"
           sodipodi:nodetypes="csssczczzzzzzzcczzc" /></g><g
         id="g38"
         inkscape:label="right neck beard"
         transform="translate(2.3386899,-10.261217)"><path
           style="display:inline;fill:#633a1e;fill-opacity:1;stroke:none;stroke-width:1.008;stroke-dasharray:none;stroke-opacity:1"
           d="m 115.98804,57.708215 c 0,0 1.23261,4.367146 1.35778,5.806283 0.12517,1.439137 1.19693,6.196015 2.03928,7.998375 0.84235,1.80236 3.69684,2.990436 3.35254,4.28952 -0.3443,1.299084 -0.6889,0.835443 -1.71137,0.844427 -1.02247,0.009 -2.76005,-1.757647 -3.66109,-1.220365 -0.90104,0.537282 0.0694,1.430178 -0.42081,2.398647 -0.49022,0.968469 -1.68465,2.929818 -2.83677,2.61697 -1.15212,-0.312848 -0.16991,-1.768336 -0.69576,-2.673218 -0.52585,-0.904882 -1.28716,-2.510365 -2.44305,-2.426562 -1.15589,0.0838 -1.53952,1.846172 -2.10762,2.807034 -0.5681,0.960862 -0.23667,2.604412 -1.46535,2.620748 -1.22871,0.01634 -1.60306,-3.407868 -1.60306,-3.407868"
           id="path36-4"
           sodipodi:nodetypes="czzzzzzzzzzzc" /><path
           style="display:inline;fill:none;fill-opacity:1;stroke:#000000;stroke-width:1.008;stroke-dasharray:none;stroke-opacity:1"
           d="m 117.19912,60.309239 c 0,0 1.07576,9.025438 2.07685,11.167453 1.00108,2.142015 3.78733,4.376479 3.78733,4.376479 0,0 -1.12369,0.7485 -2.14616,0.757468 -1.02247,0.009 -3.66109,-1.220365 -3.66109,-1.220365 0,0 0.0694,1.430178 -0.42081,2.398647 -0.49023,0.968469 -2.81947,2.945707 -2.81947,2.945707 0,0 -0.18721,-2.097073 -0.71306,-3.001955 -0.52585,-0.904882 -2.44305,-2.426562 -2.44305,-2.426562 0,0 -1.53952,1.846172 -2.10762,2.807034 -0.5681,0.960861 -1.30098,2.958136 -1.30098,2.958136 l -1.76743,-3.745256"
           id="path36"
           sodipodi:nodetypes="czczczczczcc" /></g><path
         style="display:inline;fill:#8a5430;fill-opacity:1;stroke:none;stroke-width:1.064;stroke-dasharray:none;stroke-opacity:1;paint-order:stroke fill markers"
         d="m 91.859876,31.113377 c -2.265559,0.06663 -4.556735,0.460381 -6.686235,1.236542 -4.502641,1.641124 -9.963579,4.852841 -12.504139,7.095779 -2.54056,2.242938 -4.35093,4.519147 -5.33979,7.713033 -0.98886,3.193886 -1.27355,8.066811 0.0539,10.679584 1.32745,2.612773 3.73716,2.945692 5.55554,4.099234 1.81838,1.153542 2.630132,5.744393 3.913292,7.422541 1.28316,1.678148 1.01769,4.297253 1.01769,4.297253 0,0 2.001273,2.400191 2.880371,4.05406 0.879098,1.653869 -5.706907,2.878975 -7.379353,5.435598 -2.784504,4.256597 -3.656361,9.804302 -3.36967,14.882677 0.243599,4.315062 2.204908,8.445512 4.26824,12.243112 2.172053,3.9977 5.015767,7.70688 8.368,10.78291 2.254795,2.06901 5.156666,3.29719 7.70892,4.98565 2.719173,1.79889 2.572513,8.08184 8.101072,5.48104 1.719496,-0.8089 3.135486,-3.42877 4.159276,-6.67549 0.18949,-0.60093 0.32028,-1.22711 0.48614,-1.86316 0.23052,-0.88399 0.5405,-2.05182 0.81876,-3.09148 0.27153,-1.01449 0.64394,-1.98159 0.74359,-3.022 0.15274,-1.59462 0.57084,-6.31336 0.7755,-9.45884 l 0.0917,-1.40447 3.39898,-4.08802 0.48059,-2.183203 -1.58413,-3.630337 -1.67531,-16.834245 -1.15115,-1.960534 2.18358,3.16757 3.48298,-5.523 2.56247,2.263932 0.49757,3.259068 2.86101,-2.363446 0.52245,-3.010284 3.35858,1.318554 2.33856,-0.597081 -3.25906,-4.104932 c 0,0 -2.26746,-7.995488 -2.5376,-11.294783 -0.13805,-1.686038 -0.04,-2.998525 -0.0874,-4.315709 -0.0454,-1.260325 -0.23123,-2.525668 -0.57249,-4.095444 -0.69792,-3.210378 -4.26681,-8.171939 -5.23036,-9.17655 -0.50383,-0.525304 -1.97091,-2.033941 -3.45765,-3.426738 -1.35656,-1.270843 -2.73784,-2.436875 -3.25119,-2.838991 -1.07595,-0.84282 -3.16073,-2.672791 -6.659441,-4.725608 -0.711999,-0.601172 -3.908189,-0.79189 -5.883793,-0.733792 z"
         id="path37"
         sodipodi:nodetypes="aazzzzzczaaaaasssssccccccccccccccccssssssza"
         inkscape:label="shadow"
         transform="translate(2.3386899,-10.261217)" /><path
         style="display:inline;fill:none;fill-opacity:1;stroke:#000000;stroke-width:1.02051;stroke-dasharray:none;stroke-opacity:1"
         d="m 119.84927,50.146507 c 0,0 0.91652,9.018243 1.94342,11.15855 1.0269,2.140308 3.88499,4.37299 3.88499,4.37299 0,0 -1.15266,0.747903 -2.2015,0.756864 -1.04883,0.009 -3.75549,-1.219392 -3.75549,-1.219392 0,0 0.0712,1.429038 -0.43166,2.396735 -0.50287,0.967697 -2.89217,2.943359 -2.89217,2.943359 0,0 -0.19204,-2.095402 -0.73145,-2.999562 -0.53941,-0.904161 -2.50605,-2.424628 -2.50605,-2.424628 0,0 -1.57921,1.8447 -2.16196,2.804796 -0.58275,0.960095 -1.33453,2.955778 -1.33453,2.955778 l -1.813,-3.74227"
         id="path36-5"
         sodipodi:nodetypes="czczczczczcc" /><g
         id="g41"
         inkscape:label="breard 2"
         transform="translate(2.3386899,-10.261217)"
         style="display:none"><path
           style="display:inline;fill:#633a1e;fill-opacity:1;stroke:none;stroke-width:0.612065;stroke-opacity:1"
           d="m 49.277534,69.443065 c 0,0 -1.15462,2.936661 -2.048577,4.212869 -0.585731,0.836186 -1.665138,2.210479 -2.538202,3.019786 -0.657204,0.609216 -1.234183,0.779027 -1.190734,0.824062 0.272009,0.281925 1.163233,0.08094 1.163233,0.08094 0,0 1.685849,-0.635116 2.28544,-0.789105 0.599591,-0.153987 1.278691,-0.219789 1.278691,-0.219789 0,0 -1.08279,0.897469 -1.445373,1.623986 -0.362584,0.726516 -0.995167,2.921529 -0.536263,2.642426 0.458904,-0.279103 1.340252,-0.45383 1.885589,-0.736221 0.545336,-0.28239 0.917734,-1.189664 0.973026,-0.88567 0.05527,0.303992 -0.02467,0.366012 -0.23298,0.708162 -0.208334,0.34215 -0.872832,1.085325 -0.705798,1.168547 0.167035,0.08322 1.4253,0.07985 2.116061,-0.169872 0.690761,-0.249734 0.917091,-0.409116 0.917091,-0.409116 l 0.461366,2.317171 c 0,0 1.62621,-2.260838 2.316328,-2.668849 0.690117,-0.40801 0.657096,1.901933 0.994759,1.951935 0.337665,0.04999 1.95987,-1.932445 1.95987,-1.932445"
           id="path35-1-4"
           sodipodi:nodetypes="csssczczzzzzzzcczzc" /><path
           style="display:inline;fill:none;fill-opacity:1;stroke:#000000;stroke-width:0.778913;stroke-dasharray:none;stroke-opacity:1"
           d="m 48.915839,69.316511 c 0,0 -1.116272,3.479901 -1.893395,4.687775 -0.50918,0.79141 -1.447516,2.092117 -2.206478,2.858087 -0.571314,0.576596 -1.072888,0.737316 -1.035116,0.779936 0.236461,0.266832 1.011209,0.07661 1.011209,0.07661 0,0 1.465522,-0.601109 1.98675,-0.746853 0.52123,-0.145741 1.111577,-0.20802 1.111577,-0.20802 0,0 -0.941276,0.849412 -1.256473,1.537029 -0.315199,0.687614 -0.865107,2.765094 -0.466178,2.500936 0.398927,-0.264157 1.165091,-0.429529 1.639157,-0.696799 0.474064,-0.26727 1.156802,-1.152969 1.204869,-0.865255 0.04804,0.287716 -0.04461,0.454444 -0.225693,0.778273 -0.181109,0.323829 -1.094608,0.946189 -0.949403,1.024955 0.145203,0.07877 1.59046,0.199893 2.190944,-0.03646 0.600485,-0.236363 1.281206,-1.11991 1.281206,-1.11991 l 0.624523,2.567943 c 0,0 1.317007,-1.878 1.916931,-2.264164 0.599924,-0.386162 0.894272,1.520562 1.187805,1.567886 0.293535,0.04732 1.414551,-1.418973 1.414551,-1.418973"
           id="path35-6"
           sodipodi:nodetypes="csssczczzzzzzzcczzc" /><path
           style="display:inline;fill:#633a1e;fill-opacity:1;stroke:none;stroke-width:0.654237;stroke-dasharray:none;stroke-opacity:1"
           d="m 113.92617,67.170852 c 0,0 0.96201,2.357195 1.0597,3.133978 0.0977,0.776784 0.93416,3.344339 1.59158,4.317174 0.65742,0.972835 2.88524,1.614107 2.61653,2.315296 -0.26871,0.701189 -0.53766,0.450936 -1.33566,0.455785 -0.798,0.0049 -2.15411,-0.948701 -2.85734,-0.6587 -0.70323,0.290001 0.0542,0.771948 -0.32843,1.294685 -0.3826,0.522737 -1.3148,1.581388 -2.21399,1.412526 -0.89918,-0.168862 -0.13261,-0.95447 -0.54301,-1.442886 -0.41041,-0.488416 -1.00458,-1.354986 -1.90671,-1.309753 -0.90213,0.04523 -1.20154,0.996483 -1.64492,1.515115 -0.44338,0.518631 -0.18471,1.405748 -1.14365,1.414565 -0.95896,0.0088 -1.25112,-1.839418 -1.25112,-1.839418"
           id="path36-4-6"
           sodipodi:nodetypes="czzzzzzzzzzzc" /><path
           style="display:inline;fill:none;fill-opacity:1;stroke:#000000;stroke-width:0.654237;stroke-dasharray:none;stroke-opacity:1"
           d="m 114.87137,68.574771 c 0,0 0.83959,4.871538 1.62091,6.027704 0.7813,1.156166 2.95586,2.362233 2.95586,2.362233 0,0 -0.87699,0.404007 -1.67499,0.408848 -0.798,0.0049 -2.85734,-0.6587 -2.85734,-0.6587 0,0 0.0542,0.771948 -0.32843,1.294685 -0.38261,0.522737 -2.20049,1.589964 -2.20049,1.589964 0,0 -0.14611,-1.131908 -0.55652,-1.620324 -0.4104,-0.488416 -1.9067,-1.309753 -1.9067,-1.309753 0,0 -1.20154,0.996484 -1.64492,1.515115 -0.44338,0.518631 -1.01537,1.596673 -1.01537,1.596673 -0.57416,-0.763581 -1.06854,-1.452471 -1.08816,-2.275466"
           id="path36-9"
           sodipodi:nodetypes="czczczczczcc" /></g></g><g
       id="g39"
       inkscape:label="arm stuff"
       style="display:inline"><path
         style="display:none;fill:#000000;fill-opacity:1;stroke:none;stroke-width:1.064;stroke-dasharray:none;stroke-opacity:1;paint-order:stroke fill markers"
         d="m 105.58214,104.55512 c 0,0 1.72513,-1.37966 2.24168,-2.23013 0.14777,-0.24328 0.25792,-0.55505 0.37334,-0.88178 0.28808,-0.81545 0.48649,-1.703708 0.48649,-1.703708 0,0 -0.16608,-0.247484 -0.23536,-0.379108 -0.51522,-0.978928 -1.21707,-2.389886 -1.33311,-3.039178 -0.11604,-0.649292 -1.13804,-17.093361 -1.13804,-17.093361 l -0.79336,-1.708374 0.58596,-0.278264 1.02184,1.891793 1.87799,17.17803 1.76751,3.024106 -1.85036,5.302554 -3.08485,1.75419 z"
         id="path38"
         sodipodi:nodetypes="csscazccccccccc" /><path
         style="display:inline;fill:none;fill-opacity:1;stroke:#000000;stroke-width:1.008;stroke-dasharray:none;stroke-opacity:1"
         d="m 119.92526,49.959437 c 0,0 0.61654,9.031729 1.61763,11.173744 1.00108,2.142015 3.78733,4.376479 3.78733,4.376479 0,0 -1.12369,0.7485 -2.14616,0.757468 -1.02247,0.009 -3.66109,-1.220365 -3.66109,-1.220365 0,0 0.0694,1.430178 -0.42081,2.398647 -0.49023,0.968469 -2.81947,2.945707 -2.81947,2.945707 0,0 -0.18721,-2.097073 -0.71306,-3.001955 -0.52585,-0.904882 -2.44305,-2.426562 -2.44305,-2.426562 0,0 -1.53952,1.846172 -2.10762,2.807034 -0.5681,0.960861 -1.30098,2.958136 -1.30098,2.958136 l -1.76743,-3.745256"
         id="path36-6"
         sodipodi:nodetypes="czczczczczcc"
         transform="translate(-2.3386899,10.261217)" /></g><g
       id="g34"
       inkscape:label="gikopoipoi_eyes_open-1"
       style="display:inline"><ellipse
         style="fill:#010101;fill-opacity:1;stroke:none;stroke-opacity:1"
         id="path30"
         cx="66.496071"
         cy="51.354408"
         rx="4.7022099"
         ry="4.2478905" /><ellipse
         style="fill:#010101;fill-opacity:1;stroke:none;stroke-opacity:1"
         id="path30-8"
         cx="104.5814"
         cy="51.395931"
         rx="4.7022099"
         ry="4.2478905" /></g><g
       id="gikopoipoi_eyes_closed-1"
       style="display:none;fill:#ffffff"
       fill="none"
       stroke="#000000"
       stroke-linecap="round"
       stroke-linejoin="round"
       transform="translate(-6.5564373,21.656555)"><path
         d="m 108.07719,29.67568 h 6.3"
         stroke-width="3"
         id="path5" /><path
         d="m 69.907726,29.85796 h 6.3"
         stroke-width="3"
         style="display:inline"
         id="path6" /></g><g
       id="g18"
       inkscape:label="mouth"
       transform="translate(59.177684,29.744965)"><path
         style="fill:#f2b8b7;fill-opacity:1;stroke:none;stroke-opacity:1"
         d="m 20.783912,38.42115 c -0.87865,0.227524 0.0616,4.363143 0.92066,5.748293 0.85908,1.38516 1.87745,1.490546 3.07587,1.794656 1.19842,0.3041 1.694,0.483254 2.75742,-0.09834 1.06342,-0.58158 2.5414,-1.406095 3.1689,-2.556575 0.6275,-1.15048 0.983546,-3.758579 0.287936,-4.672025 -0.69561,-0.913446 -2.204246,-0.870333 -4.137936,-1.083563 -1.93369,-0.21323 -5.1942,0.640026 -6.07285,0.86755 z"
         id="path16"
         sodipodi:nodetypes="zzzzzzzzz" /><path
         style="fill:#d4aa6a;fill-opacity:1;stroke:none;stroke-opacity:1"
         d="m 17.308522,29.033562 c -2.50996,0.906739 -4.13022,1.91469 -4.79248,3.594356 -0.66225,1.679666 -0.60638,3.393715 0.84867,4.767514 1.45505,1.373799 4.81875,0.908351 7.11383,0.848667 2.29509,-0.05968 4.03306,-1.344099 6.51477,-1.123236 2.48172,0.220863 5.5434,2.940278 7.83769,2.845532 2.29429,-0.09475 4.36539,-0.75776 5.35849,-2.000873 0.9931,-1.243113 0.91757,-2.955332 0.43242,-4.28925 -0.48515,-1.333918 -0.78427,-2.814666 -2.96257,-3.875522 -2.17829,-1.060856 -6.85778,-1.705712 -10.31337,-1.576227 -3.45559,0.129485 -7.52749,-0.0977 -10.03745,0.809039 z"
         id="path18"
         sodipodi:nodetypes="zzzzzzzzzzz" /><path
         style="baseline-shift:baseline;display:inline;overflow:visible;opacity:1;vector-effect:none;enable-background:accumulate;stop-color:#000000;stop-opacity:1"
         d="m 17.742187,28.847656 c 0,0 -1.438175,0.207432 -2.878906,0.960938 -1.440731,0.753506 -2.966747,2.151147 -2.904297,4.40039 0.05832,2.100635 0.60471,3.411575 1.595704,4.142578 0.990993,0.731004 2.271355,0.834262 3.693359,0.871094 1.498932,0.03883 3.210261,-0.344418 4.9375,-0.693359 1.727238,-0.348941 3.466208,-0.663967 4.929687,-0.556641 1.463702,0.107343 2.941359,0.653497 4.369141,1.205078 1.427782,0.551581 2.799527,1.116936 4.138672,1.164063 1.185962,0.04173 2.030334,0.157961 2.904297,-0.166016 0.873962,-0.323976 1.623691,-1.053794 2.658203,-2.5 0.579308,-0.809853 0.741481,-1.703599 0.644531,-2.523437 -0.09695,-0.819839 -0.432854,-1.5737 -0.824219,-2.21875 -0.782729,-1.2901 -1.820312,-2.181641 -1.820312,-2.181641 0,0 -0.45847,-0.325933 -0.753646,-0.0011 -0.344393,0.379002 0.09935,0.756953 0.09935,0.756953 0,0 0.936273,0.816586 1.621094,1.945313 0.34241,0.564364 0.612377,1.19766 0.685547,1.816406 0.07317,0.618746 -0.03025,1.216674 -0.464844,1.824219 -0.993298,1.388591 -1.60747,1.927343 -2.19336,2.144531 -0.585889,0.217189 -1.298506,0.146552 -2.521484,0.103516 -1.069795,-0.03765 -2.380465,-0.541725 -3.814453,-1.095703 -1.433988,-0.553979 -2.995998,-1.149871 -4.654297,-1.271485 -1.658521,-0.12163 -3.463913,0.223254 -5.201172,0.574219 -1.737259,0.350965 -3.412445,0.707563 -4.714844,0.673828 -1.379336,-0.03573 -2.443408,-0.173007 -3.124999,-0.675781 -0.681592,-0.502774 -1.135417,-1.419027 -1.189454,-3.365234 -0.04991,-1.7976 1.102439,-2.826814 2.367188,-3.488282 1.264749,-0.661467 2.560547,-0.857422 2.560547,-0.857422 0,0 0.538572,-0.07608 0.461863,-0.66711 -0.0588,-0.453083 -0.606395,-0.321171 -0.606395,-0.321171 z"
         id="path13"
         sodipodi:nodetypes="csssssssssssscscsssssssssssscsc" /><path
         style="fill:none;stroke:#000000;stroke-opacity:1"
         d="m 17.341802,38.472274 c 0,0 0.66225,4.834642 1.95516,6.799418 1.29291,1.964776 2.395301,2.805189 4.699021,3.250148 2.30372,0.444959 5.065232,-0.341213 7.218272,-2.142394 2.15304,-1.801181 3.703707,-6.690181 3.703707,-6.690181"
         id="path14"
         sodipodi:nodetypes="czzzc" /><path
         style="baseline-shift:baseline;display:inline;overflow:visible;opacity:1;vector-effect:none;enable-background:accumulate;stop-color:#000000;stop-opacity:1"
         d="m 20.738281,38.373047 -0.998047,0.04883 c 0,0 0.05449,1.120206 0.232422,2.419922 0.177931,1.299715 0.423462,2.751863 1.03711,3.634765 1.052141,1.513799 3.058743,2.906566 5.410156,2.46875 1.282709,-0.238831 2.906622,-1.401047 3.743342,-2.344068 0.836719,-0.943021 1.780786,-2.325153 1.780786,-2.325153 0,0 0.287737,-0.304575 -0.192384,-0.650392 -0.418473,-0.301414 -0.65332,0.115234 -0.65332,0.115234 0,0 -0.92461,1.469625 -1.683129,2.196247 -0.845178,0.809637 -2.352008,1.871749 -3.178889,2.025709 -1.867767,0.347764 -3.530351,-0.796417 -4.40625,-2.056641 -0.350372,-0.504108 -0.695993,-1.95066 -0.867187,-3.201172 -0.171195,-1.250512 -0.22461,-2.332031 -0.22461,-2.332031 z"
         id="path15"
         sodipodi:nodetypes="ccsssscscssssc" /><path
         style="fill:#000000;fill-opacity:1;stroke:none;stroke-opacity:1"
         d="m 22.606022,33.467755 c 0.0764,0.72729 1.67843,2.325776 2.70885,2.840106 1.03043,0.514331 1.64756,0.395275 2.59362,0.09717 0.94606,-0.298105 2.27219,-1.453667 2.67584,-2.025563 0.40365,-0.571896 0.58461,-1.337443 0.007,-2.197474 -0.57711,-0.86003 -2.3591,-1.462213 -3.72226,-1.509829 -1.36315,-0.04762 -2.5247,0.297802 -3.48846,0.908787 -0.96376,0.610985 -0.85149,1.159513 -0.77509,1.886803 z"
         id="path17"
         sodipodi:nodetypes="zzzzzzzz" /></g><g
       id="g43"
       inkscape:label="ears"
       style="display:none"><path
         style="display:inline;fill:#633a1e;fill-opacity:1;stroke:none;stroke-width:1.064;stroke-linecap:round;stroke-linejoin:round;stroke-dasharray:none;stroke-opacity:1;paint-order:stroke fill markers"
         d="M 81.124906,27.569327 C 67.008875,28.101223 56.622989,34.866444 48.227111,46.17863 l 18.810657,0.0036 4.046034,-7.861572 9.12688,-5.352636 z"
         id="path41-9"
         sodipodi:nodetypes="cccccc" /><path
         style="fill:none;fill-opacity:1;stroke:#000000;stroke-width:2.2;stroke-linecap:round;stroke-linejoin:round;stroke-dasharray:none;stroke-opacity:1;paint-order:stroke fill markers"
         d="m 47.072329,46.052469 c 9.23514,-11.975597 18.9357,-18.54591 31.995858,-19.45609"
         id="path41"
         sodipodi:nodetypes="cc" /><path
         style="fill:none;fill-opacity:1;stroke:#000000;stroke-width:2.2;stroke-linecap:round;stroke-linejoin:round;stroke-dasharray:none;stroke-opacity:1;paint-order:stroke fill markers"
         d="M 116.29558,48.781321 C 111.79038,40.951263 106.99936,37.47385 101.42592,33.465027 97.250636,30.461859 92.836029,28.792341 88.038439,27.28662"
         id="path43"
         sodipodi:nodetypes="csc" /></g></g></svg>
