<?xml version="1.0" encoding="UTF-8" standalone="no"?>
<svg
   height="182"
   width="160"
   version="1.1"
   id="svg2"
   sodipodi:docname="back-standing.svg"
   inkscape:version="1.4.4 (dcaf3e7, 2026-05-05)"
   xmlns:inkscape="http://www.inkscape.org/namespaces/inkscape"
   xmlns:sodipodi="http://sodipodi.sourceforge.net/DTD/sodipodi-0.dtd"
   xmlns="http://www.w3.org/2000/svg"
   xmlns:svg="http://www.w3.org/2000/svg">
  <sodipodi:namedview
     id="namedview2"
     pagecolor="#505050"
     bordercolor="#ffffff"
     borderopacity="1"
     inkscape:showpageshadow="0"
     inkscape:pageopacity="0"
     inkscape:pagecheckerboard="1"
     inkscape:deskcolor="#505050"
     inkscape:zoom="31.707676"
     inkscape:cx="56.595128"
     inkscape:cy="92.643182"
     inkscape:window-width="930"
     inkscape:window-height="1006"
     inkscape:window-x="0"
     inkscape:window-y="30"
     inkscape:window-maximized="0"
     inkscape:current-layer="svg2"
     showguides="true">
    <sodipodi:guide
       position="79.711017,88.80295"
       orientation="0,1"
       id="guide1"
       inkscape:locked="false"
       inkscape:label=""
       inkscape:color="rgb(0,134,229)" />
  </sodipodi:namedview>
  <defs
     id="defs1">
    <filter
       id="a"
       x="0"
       width="1"
       y="0"
       height="1"
       color-interpolation-filters="sRGB">
      <feGaussianBlur
         id="feGaussianBlur1" />
    </filter>
  </defs>
  <g
     id="g1"
     transform="translate(16.943311,-22.597266)">
    <path
       d="m 51.71,77.88857 -0.722837,1.176734 -2.066533,2.822863 -0.686346,3.260264 0.718339,2.279486 1.668123,3.076806 0.07798,0.346921 -0.272438,0.749832 -0.446899,1.486665 -2.122521,2.044538 -1.952559,2.560922 -0.249944,1.748106 0.811317,1.529653 1.684619,0.56237 2.029543,-5e-4 1.599139,-0.67534 -0.03399,1.20822 0.164963,2.29948 0.270439,0.80532 0.314429,0.73334 0.229948,0.40791 -0.470393,0.98027 0.05499,5.46277 1.036766,1.72111 2.026042,0.75033 1.632632,-0.63435 0.946786,-1.51966 0.419906,-6.42605 -0.689844,-0.30993 3.05431,-0.71134 5.830184,-0.0115 2.6584,0.70734 -0.497387,0.54988 0.132969,4.4255 0.144968,1.70011 0.861805,1.64563 1.766601,0.35192 1.424678,-0.18795 1.390187,-1.52316 0.52988,-2.89435 -0.198455,-3.63418 -0.591367,-0.4149 0.766327,-5.43178 1.732109,0.69784 2.417955,-0.33142 1.024768,-1.399684 0.241446,-1.888573 -0.861306,-2.152014 -1.223723,-1.245719 -2.6624,-2.871852 -0.08298,-1.217726 1.41718,-0.482391 1.988052,-3.203277 0.06648,-3.157787 -0.484391,-1.841085 -1.126745,-2.053036 -0.991277,-0.824815 -1.409681,-0.695842 -4.262039,-9.012966 -0.540378,0.508885 -4.032089,8.306625 -5.908667,0.08698 -4.286532,-8.682041 -0.597366,0.628358 z"
       fill="#ffffff"
       id="path1"
       style="stroke-width:0.499887" />
    <path
       d="m 71.051634,81.65722 h -0.874802 l 1.319702,-2.114523 h 1.41968 z m 3.345245,-3.034815 1.19873,-0.556875 -5.082353,-10.94253 -4.870901,10.493131 -4.900393,0.0025 -4.851405,-10.474136 -4.988375,10.822557 1.184733,0.585368 3.796643,-8.515077 3.933112,8.628051 6.803965,-0.105976 3.889121,-8.597559 z m 2.015545,0.04499 1.580644,1.819589 0.894797,1.522656 0.435902,1.318703 0.08598,0.895298 0.02399,1.389686 -0.206453,1.203729 c 0,0 -0.295433,0.823314 -0.48489,1.216725 -0.145968,0.304432 -0.313929,0.599865 -0.500887,0.880801 -0.337924,0.508385 -0.724837,0.983278 -1.116748,1.450673 -0.230449,0.274938 -0.725837,0.796321 -0.725837,0.796321 l -0.858306,-0.662851 1.099252,-1.114748 0.779824,-1.030268 0.57787,-1.155239 0.296433,-1.044764 0.106975,-1.123247 -0.09348,-1.37319 -0.388912,-1.349695 -0.514883,-0.896798 -0.685345,-0.840311 -1.183734,-1.255716 z m -25.513241,12.600656 0.895798,-0.595866 -1.252717,-1.36969 -0.937288,-1.484666 -0.369917,-1.043763 -0.168462,-0.850308 -0.03499,-1.092754 0.06698,-1.285209 0.254443,-1.106751 0.584868,-1.131245 0.644855,-0.799819 0.689844,-0.843809 0.568371,-0.562374 -0.817814,-0.66185 -0.700843,0.765827 -0.810816,0.943787 -0.551876,0.904795 -0.619861,1.324701 -0.357918,1.19723 -0.05899,0.921793 -0.01,1.009771 0.06598,0.71184 0.359918,1.264214 0.429903,0.970781 0.678847,1.030768 c 0,0 0.507385,0.689844 0.778824,1.01977 0.214951,0.26194 0.672348,0.762328 0.672348,0.762328 z m -0.472893,0.333426 0.835811,0.979779 -1.784097,1.583642 -1.262215,1.230722 -0.804318,0.829314 -0.709841,0.8828 -0.420904,0.80132 -0.170962,0.670348 -0.03249,0.622859 0.08648,0.409907 0.26344,0.464892 0.351421,0.4754 0.453398,0.32892 0.778324,0.21795 c 0,0 0.571371,0.11498 0.663351,0.11498 0.09198,0 0.754829,-0.13247 0.754829,-0.13247 l 0.702341,-0.25745 0.724337,-0.4304 0.903296,-1.025266 -0.04799,1.635626 -0.891299,0.72784 -0.857307,0.38241 -0.66035,0.13247 -1.076258,0.047 -0.933789,-0.15496 c 0,0 -0.685845,-0.31843 -0.770826,-0.34143 -0.08498,-0.023 -0.717337,-0.64685 -0.717337,-0.64685 L 45.322942,100.398 45.0655,99.69016 l -5e-4,-0.686345 0.08598,-0.809817 0.224949,-0.660351 0.436901,-0.762827 0.545877,-0.8898 0.872803,-0.979779 1.043765,-1.112249 0.954284,-0.97178 z m 24.340006,0.777824 0.834812,-1.037767 2.319476,2.341973 1.498662,1.664125 0.79682,1.145741 0.66235,1.224223 0.169962,0.966783 -0.07798,0.976279 -0.366417,0.756332 -0.506385,0.70134 -0.803819,0.56187 -0.678846,0.30393 -1.06826,0.21645 -0.817315,-0.029 -0.944787,-0.31093 -0.904796,-0.60086 -1.144242,-0.94879 -0.737332,-0.778319 0.8838,-0.895298 0.772825,1.054762 0.741333,0.700845 0.874303,0.48289 0.684845,0.17846 0.771826,-0.01 0.723837,-0.19496 0.636856,-0.37991 0.410907,-0.42091 0.416406,-0.713336 0.123972,-0.559873 -0.13297,-0.815316 L 79.600708,97.2742 78.998844,96.360905 78.359488,95.63607 77.644649,94.88124 76.622381,93.983442 75.452644,92.994166 Z m -0.57787,13.960849 v 5.55874 l -0.210452,0.9018 -0.429403,0.78282 -0.474893,0.4629 -0.640855,0.35292 -0.548376,0.0775 -0.725837,-0.0315 -0.729834,-0.27344 -0.569872,-0.49389 -0.326927,-0.68184 -0.26394,-0.8833 -0.04349,-0.68235 v -5.10935 h -1.194731 v 5.56025 l 0.08998,0.84281 0.302931,0.8653 0.428404,0.77233 0.546877,0.56237 0.57687,0.47689 0.724836,0.28144 0.874803,0.14597 0.753829,-0.038 0.62286,-0.21845 0.630858,-0.35142 0.817815,-0.70984 0.53138,-0.85081 0.304431,-0.94279 0.13247,-0.99777 v -5.38079 z m -16.506273,-0.003 v 5.38878 l -0.205955,0.99278 -0.454896,0.90529 -0.638856,0.62486 -0.692344,0.24095 -1.192231,-0.0115 -0.605363,-0.29543 -0.571871,-0.58437 -0.396411,-0.85981 -0.198956,-0.73283 v -5.69372 h -1.204227 v 5.50876 l 0.115474,0.82681 0.194956,0.66835 0.335424,0.77832 0.452897,0.53788 0.586369,0.55238 0.537878,0.26494 0.66235,0.30443 0.760329,0.092 0.777824,-0.11997 0.756829,-0.25095 0.910795,-0.67085 0.600364,-0.73333 0.428904,-1.03677 0.241945,-1.14224 v -5.56574 z"
       id="path2"
       style="stroke-width:0.499887" />
    <circle
       cx="106.129"
       cy="76.681999"
       r="2.118"
       opacity="0.99"
       filter="url(#a)"
       id="gikopoipoi_eyes_open"
       style="display:inline"
       transform="matrix(0.49988717,0,0,0.49988718,22.537584,44.885019)" />
    <path
       d="m 74.291903,83.55929 c 1.005773,0.298933 2.08403,0.161963 2.622409,-0.234447"
       stroke-width="3"
       id="gikopoipoi_eyes_closed"
       style="display:none;stroke-width:1.07279;stroke-dasharray:none"
       fill="none"
       stroke="#000000"
       stroke-linecap="round"
       stroke-linejoin="round" />
  </g>
</svg>
