<?xml version="1.0" encoding="UTF-8" standalone="no"?>
<svg
   height="182"
   width="160"
   version="1.1"
   id="svg2"
   sodipodi:docname="back-walking-2.svg"
   inkscape:version="1.4.4 (dcaf3e7, 2026-05-05)"
   xmlns:inkscape="http://www.inkscape.org/namespaces/inkscape"
   xmlns:sodipodi="http://sodipodi.sourceforge.net/DTD/sodipodi-0.dtd"
   xmlns="http://www.w3.org/2000/svg"
   xmlns:svg="http://www.w3.org/2000/svg">
  <sodipodi:namedview
     id="namedview2"
     pagecolor="#505050"
     bordercolor="#ffffff"
     borderopacity="1"
     inkscape:showpageshadow="0"
     inkscape:pageopacity="0"
     inkscape:pagecheckerboard="1"
     inkscape:deskcolor="#505050"
     inkscape:zoom="1.5009292"
     inkscape:cx="108.59939"
     inkscape:cy="61.961617"
     inkscape:window-width="1013"
     inkscape:window-height="817"
     inkscape:window-x="1"
     inkscape:window-y="30"
     inkscape:window-maximized="0"
     inkscape:current-layer="svg2" />
  <defs
     id="defs1">
    <filter
       id="a"
       x="0"
       width="1"
       y="0"
       height="1"
       color-interpolation-filters="sRGB">
      <feGaussianBlur
         id="feGaussianBlur1" />
    </filter>
  </defs>
  <g
     id="g2"
     transform="matrix(0.49988192,0,0,0.49988192,39.474821,22.247253)">
    <path
       d="m 58.358,66.022 -1.446,2.354 -4.134,5.647 -1.373,6.522 1.437,4.56 3.337,6.155 0.156,0.694 -0.545,1.5 -0.894,2.974 -4.246,4.09 -3.906,5.123 -0.5,3.497 1.623,3.06 3.37,1.125 4.06,-10e-4 3.199,-1.351 -0.068,2.417 0.33,4.6 0.541,1.611 0.629,1.467 0.46,0.816 -0.941,1.961 0.11,10.928 2.074,3.443 4.053,1.501 3.266,-1.269 1.894,-3.04 0.84,-12.855 -1.38,-0.62 6.11,-1.423 11.663,-0.023 5.318,1.415 0.126,2.003 5.294,5.763 2.362,1.747 2.652,1.17 3.257,-0.05 1.821,-0.879 1.996,-2.827 -0.372,-4.017 -2.743,-4.132 -3.759,-3.731 0.829,-5.876 3.465,1.396 4.837,-0.663 2.05,-2.8 0.483,-3.778 -1.723,-4.305 -2.448,-2.492 -5.326,-5.745 -0.166,-2.436 2.835,-0.965 3.977,-6.408 0.133,-6.317 -0.969,-3.683 -2.254,-4.107 -1.983,-1.65 -2.82,-1.392 -8.526,-18.03 -1.081,1.018 -8.066,16.617 -11.82,0.173 -8.575,-17.368 -1.195,1.258 z"
       fill="#ffffff"
       id="path1" />
    <path
       d="M 97.05,73.561 H 95.3 l 2.64,-4.23 h 2.84 z m 6.692,-6.071 2.398,-1.114 -10.167,-21.89 -9.744,20.991 -9.803,0.005 -9.705,-20.953 -9.979,21.65 2.37,1.171 7.595,-17.034 7.868,17.26 13.611,-0.212 7.78,-17.199 z m 4.032,0.09 3.162,3.64 1.79,3.046 0.872,2.638 0.172,1.791 0.048,2.78 -0.413,2.408 c 0,0 -0.591,1.647 -0.97,2.434 -0.292,0.609 -0.628,1.2 -1.002,1.762 -0.676,1.017 -1.45,1.967 -2.234,2.902 -0.461,0.55 -1.452,1.593 -1.452,1.593 l -1.717,-1.326 2.199,-2.23 1.56,-2.061 1.156,-2.311 0.593,-2.09 0.214,-2.247 -0.187,-2.747 -0.778,-2.7 -1.03,-1.794 -1.371,-1.681 -2.368,-2.512 z m -51.038,25.207 1.792,-1.192 -2.506,-2.74 -1.875,-2.97 -0.74,-2.088 L 53.07,82.096 53,79.91 l 0.134,-2.571 0.509,-2.214 1.17,-2.263 1.29,-1.6 1.38,-1.688 1.137,-1.125 -1.636,-1.324 -1.402,1.532 -1.622,1.888 -1.104,1.81 -1.24,2.65 -0.716,2.395 -0.118,1.844 -0.02,2.02 0.132,1.424 0.72,2.529 0.86,1.942 1.358,2.062 c 0,0 1.015,1.38 1.558,2.04 0.43,0.524 1.345,1.525 1.345,1.525 z m -0.946,0.667 1.672,1.96 -3.569,3.168 -2.525,2.462 -1.609,1.659 -1.42,1.766 -0.842,1.603 -0.342,1.341 -0.065,1.246 0.173,0.82 0.527,0.93 0.703,0.951 0.907,0.658 1.557,0.436 c 0,0 1.143,0.23 1.327,0.23 0.184,0 1.51,-0.265 1.51,-0.265 l 1.405,-0.515 1.449,-0.861 1.807,-2.051 -0.096,3.272 -1.783,1.456 -1.715,0.765 -1.321,0.265 -2.153,0.094 -1.868,-0.31 c 0,0 -1.372,-0.637 -1.542,-0.683 -0.17,-0.046 -1.435,-1.294 -1.435,-1.294 l -0.961,-1.506 -0.515,-1.416 -0.001,-1.373 0.172,-1.62 0.45,-1.321 0.874,-1.526 1.092,-1.78 1.746,-1.96 2.088,-2.225 1.909,-1.944 z m 48.691,1.556 1.67,-2.076 4.64,4.685 2.998,3.329 1.594,2.292 1.325,2.449 0.34,1.934 -0.156,1.953 -0.733,1.513 -1.013,1.403 -1.608,1.124 -1.358,0.608 -2.137,0.433 -1.635,-0.058 -1.89,-0.622 -1.81,-1.202 -2.289,-1.898 -1.475,-1.557 1.768,-1.791 1.546,2.11 1.483,1.402 1.749,0.966 1.37,0.357 1.544,-0.02 1.448,-0.39 1.274,-0.76 0.822,-0.842 0.833,-1.427 0.248,-1.12 -0.266,-1.631 -0.611,-1.372 -1.204,-1.827 -1.279,-1.45 -1.43,-1.51 -2.045,-1.796 -2.34,-1.979 z m -0.67,24.294 4.46,4.46 0.977,1.573 0.5,1.714 -0.017,1.327 -0.407,1.405 -0.666,0.886 -1.072,0.982 -1.419,0.645 -1.505,0.109 -1.427,-0.503 -1.622,-0.876 -1.027,-0.904 -7.227,-7.227 -1.69,1.69 7.865,7.865 1.32,1.065 1.651,0.796 1.7,0.486 1.568,0.022 1.49,-0.141 1.424,-0.628 1.444,-1.032 1.013,-1.119 0.572,-1.19 0.395,-1.39 0.152,-2.16 -0.45,-1.955 -0.904,-1.764 -1.223,-1.6 -5.457,-5.456 z m -33.506,3.628 v 10.78 l -0.412,1.986 -0.91,1.811 -1.278,1.25 -1.385,0.482 -2.385,-0.023 -1.211,-0.591 -1.144,-1.169 -0.793,-1.72 -0.398,-1.466 v -11.39 H 57.98 v 11.02 l 0.231,1.654 0.39,1.337 0.671,1.557 0.906,1.076 1.173,1.105 1.076,0.53 1.325,0.609 1.521,0.184 1.556,-0.24 1.514,-0.502 1.822,-1.342 1.201,-1.467 0.858,-2.074 0.484,-2.285 V 122.91 Z"
       id="path2" />
    <path
       d="m 103.532,77.366 c 2.012,0.598 4.169,0.324 5.246,-0.469"
       stroke-width="3"
       id="gikopoipoi_eyes_closed"
       style="display:none;stroke-width:2.14607;stroke-dasharray:none"
       fill="none"
       stroke="#000000"
       stroke-linecap="round"
       stroke-linejoin="round" />
    <circle
       cx="106.129"
       cy="76.681999"
       r="2.118"
       opacity="0.99"
       filter="url(#a)"
       id="gikopoipoi_eyes_open"
       style="display:inline" />
  </g>
</svg>
