<?xml version="1.0" encoding="UTF-8" standalone="no"?>
<svg
   height="182"
   width="160"
   version="1.1"
   id="svg2"
   sodipodi:docname="back-walking-1.svg"
   inkscape:version="1.4.4 (dcaf3e7, 2026-05-05)"
   xmlns:inkscape="http://www.inkscape.org/namespaces/inkscape"
   xmlns:sodipodi="http://sodipodi.sourceforge.net/DTD/sodipodi-0.dtd"
   xmlns="http://www.w3.org/2000/svg"
   xmlns:svg="http://www.w3.org/2000/svg">
  <sodipodi:namedview
     id="namedview2"
     pagecolor="#505050"
     bordercolor="#ffffff"
     borderopacity="1"
     inkscape:showpageshadow="0"
     inkscape:pageopacity="0"
     inkscape:pagecheckerboard="1"
     inkscape:deskcolor="#505050"
     inkscape:zoom="1.4622774"
     inkscape:cx="59.496235"
     inkscape:cy="60.522032"
     inkscape:window-width="930"
     inkscape:window-height="908"
     inkscape:window-x="1"
     inkscape:window-y="30"
     inkscape:window-maximized="0"
     inkscape:current-layer="svg2"
     showguides="true">
    <sodipodi:guide
       position="89.055931,88.80295"
       orientation="0,1"
       id="guide1"
       inkscape:locked="false"
       inkscape:label=""
       inkscape:color="rgb(0,134,229)" />
  </sodipodi:namedview>
  <defs
     id="defs1">
    <filter
       id="a"
       x="0"
       width="1"
       y="0"
       height="1"
       color-interpolation-filters="sRGB">
      <feGaussianBlur
         id="feGaussianBlur1" />
    </filter>
  </defs>
  <g
     id="g2"
     transform="matrix(0.49988192,0,0,0.49988192,39.481321,22.255865)">
    <path
       d="m 58.358,66.022 -1.446,2.354 -4.134,5.647 -1.373,6.522 1.437,4.56 3.337,6.155 0.156,0.694 -0.545,1.5 -0.894,2.974 -4.246,4.09 -3.906,5.123 -0.5,3.497 1.623,3.06 3.37,1.125 4.06,-10e-4 3.199,-1.351 -0.068,2.417 0.33,4.6 0.541,1.611 0.629,1.467 0.46,0.816 -0.941,1.961 7.738,7.369 2.665,1.377 3.303,0.168 3.13,-1.804 1.558,-3.458 -0.594,-3.384 -2.23,-2.668 1.397,-0.935 11.663,-0.023 5.318,1.415 -0.995,1.1 0.266,8.853 0.29,3.401 1.724,3.292 3.534,0.704 2.85,-0.376 2.781,-3.047 1.06,-5.79 -0.397,-7.27 -1.183,-0.83 1.533,-10.866 3.465,1.396 4.837,-0.663 2.05,-2.8 0.483,-3.778 -1.723,-4.305 -2.448,-2.492 -5.326,-5.745 -0.166,-2.436 2.835,-0.965 3.977,-6.408 0.133,-6.317 -0.969,-3.683 -2.254,-4.107 -1.983,-1.65 -2.82,-1.392 -8.526,-18.03 -1.081,1.018 -8.066,16.617 -11.82,0.174 -8.575,-17.368 -1.195,1.257 z"
       fill="#ffffff"
       id="path1" />
    <path
       d="M 97.05,73.561 H 95.3 l 2.64,-4.23 h 2.84 z m 6.692,-6.071 2.398,-1.114 -10.167,-21.89 -9.744,20.991 -9.803,0.005 -9.705,-20.953 -9.979,21.65 2.37,1.171 7.595,-17.034 7.868,17.26 13.611,-0.212 7.78,-17.199 z m 4.032,0.09 3.162,3.64 1.79,3.046 0.872,2.638 0.172,1.791 0.048,2.78 -0.413,2.408 c 0,0 -0.591,1.647 -0.97,2.434 -0.292,0.609 -0.628,1.2 -1.002,1.762 -0.676,1.017 -1.45,1.967 -2.234,2.902 -0.461,0.55 -1.452,1.593 -1.452,1.593 l -1.717,-1.326 2.199,-2.23 1.56,-2.061 1.156,-2.311 0.593,-2.09 0.214,-2.247 -0.187,-2.747 -0.778,-2.7 -1.03,-1.794 -1.371,-1.681 -2.368,-2.512 z m -51.038,25.207 1.792,-1.192 -2.506,-2.74 -1.875,-2.97 -0.74,-2.088 L 53.07,82.096 53,79.91 l 0.134,-2.571 0.509,-2.214 1.17,-2.263 1.29,-1.6 1.38,-1.688 1.137,-1.125 -1.636,-1.324 -1.402,1.532 -1.622,1.888 -1.104,1.81 -1.24,2.65 -0.716,2.395 -0.118,1.844 -0.02,2.02 0.132,1.424 0.72,2.529 0.86,1.942 1.358,2.062 c 0,0 1.015,1.38 1.558,2.04 0.43,0.524 1.345,1.525 1.345,1.525 z m -0.946,0.667 1.672,1.96 -3.569,3.168 -2.525,2.462 -1.609,1.659 -1.42,1.766 -0.842,1.603 -0.342,1.341 -0.065,1.246 0.173,0.82 0.527,0.93 0.703,0.951 0.907,0.658 1.557,0.436 c 0,0 1.143,0.23 1.327,0.23 0.184,0 1.51,-0.265 1.51,-0.265 l 1.405,-0.515 1.449,-0.861 1.807,-2.051 -0.096,3.272 -1.783,1.456 -1.715,0.765 -1.321,0.265 -2.153,0.094 -1.868,-0.31 c 0,0 -1.372,-0.637 -1.542,-0.683 -0.17,-0.046 -1.435,-1.294 -1.435,-1.294 l -0.961,-1.506 -0.515,-1.416 -0.001,-1.373 0.172,-1.62 0.45,-1.321 0.874,-1.526 1.092,-1.78 1.746,-1.96 2.088,-2.225 1.909,-1.944 z m 48.691,1.556 1.67,-2.076 4.64,4.685 2.998,3.329 1.594,2.292 1.325,2.449 0.34,1.934 -0.156,1.953 -0.733,1.513 -1.013,1.403 -1.608,1.124 -1.358,0.608 -2.137,0.433 -1.635,-0.058 -1.89,-0.622 -1.81,-1.202 -2.289,-1.898 -1.475,-1.557 1.768,-1.791 1.546,2.11 1.483,1.402 1.749,0.966 1.37,0.357 1.544,-0.02 1.448,-0.39 1.274,-0.76 0.822,-0.842 0.833,-1.427 0.248,-1.12 -0.266,-1.631 -0.611,-1.372 -1.204,-1.827 -1.279,-1.45 -1.43,-1.51 -2.045,-1.796 -2.34,-1.979 z m -1.156,27.928 v 11.12 l -0.421,1.804 -0.859,1.566 -0.95,0.926 -1.282,0.706 -1.097,0.155 -1.452,-0.063 -1.46,-0.547 -1.14,-0.988 -0.654,-1.364 -0.528,-1.767 -0.087,-1.365 V 122.9 h -2.39 v 11.123 l 0.18,1.686 0.606,1.731 0.857,1.545 1.094,1.125 1.154,0.954 1.45,0.563 1.75,0.292 1.508,-0.076 1.246,-0.437 1.262,-0.703 1.636,-1.42 1.063,-1.702 0.609,-1.886 0.265,-1.996 v -10.764 z m -29.725,-0.809 1.385,1.384 1.113,1.696 0.637,1.925 -0.02,1.786 -0.638,1.32 -1.703,1.67 -1.274,0.439 -1.635,-0.017 -1.777,-0.656 -1.318,-0.755 -8.055,-8.054 -1.702,1.703 7.792,7.792 1.333,1.006 1.22,0.67 1.577,0.626 1.4,0.12 1.612,-0.047 1.135,-0.387 1.368,-0.506 1.206,-0.946 0.93,-1.27 0.716,-1.425 0.34,-2.237 -0.189,-1.887 -0.859,-2.073 -1.273,-1.958 -0.555,-0.555 z"
       id="path2" />
    <circle
       cx="106.129"
       cy="76.681999"
       r="2.118"
       opacity="0.99"
       filter="url(#a)"
       id="gikopoipoi_eyes_open"
       style="display:inline" />
    <path
       d="m 103.532,77.366 c 2.012,0.598 4.169,0.324 5.246,-0.469"
       stroke-width="3"
       id="gikopoipoi_eyes_closed"
       style="display:none;stroke-width:2.14607;stroke-dasharray:none"
       fill="none"
       stroke="#000000"
       stroke-linecap="round"
       stroke-linejoin="round" />
  </g>
</svg>
