<?xml version="1.0" encoding="UTF-8" standalone="no"?>
<svg
   height="182"
   width="160"
   version="1.1"
   id="svg4"
   sodipodi:docname="front-standing (2).svg"
   inkscape:version="1.4.4 (dcaf3e7, 2026-05-05)"
   xmlns:inkscape="http://www.inkscape.org/namespaces/inkscape"
   xmlns:sodipodi="http://sodipodi.sourceforge.net/DTD/sodipodi-0.dtd"
   xmlns="http://www.w3.org/2000/svg"
   xmlns:svg="http://www.w3.org/2000/svg">
  <defs
     id="defs4" />
  <sodipodi:namedview
     id="namedview4"
     pagecolor="#505050"
     bordercolor="#ffffff"
     borderopacity="1"
     inkscape:showpageshadow="0"
     inkscape:pageopacity="0"
     inkscape:pagecheckerboard="1"
     inkscape:deskcolor="#505050"
     inkscape:zoom="1.7529999"
     inkscape:cx="58.185971"
     inkscape:cy="122.36167"
     inkscape:window-width="1045"
     inkscape:window-height="1222"
     inkscape:window-x="0"
     inkscape:window-y="193"
     inkscape:window-maximized="0"
     inkscape:current-layer="svg4" />
  <g
     id="g4"
     transform="matrix(0.49988192,0,0,0.49988192,22.537821,44.885753)">
    <path
       d="m 58.358,66.2 -1.446,2.355 -4.134,5.646 -1.373,6.523 1.437,4.559 3.337,6.156 0.156,0.694 -0.545,1.5 -0.894,2.974 -4.246,4.09 -3.906,5.122 -0.5,3.498 1.623,3.06 3.37,1.125 4.06,-10e-4 3.199,-1.351 -0.068,2.416 0.33,4.422 0.541,1.611 0.629,1.467 0.46,0.816 -0.941,1.961 0.11,10.928 2.074,3.443 4.053,1.501 3.266,-1.269 1.894,-3.04 0.84,-12.855 -1.38,-0.62 6.11,-1.423 11.663,-0.023 5.318,1.415 -0.995,1.1 0.266,8.853 0.29,3.401 1.724,3.292 3.534,0.704 2.85,-0.376 2.781,-3.047 1.06,-5.79 -0.397,-7.27 -1.183,-0.83 1.533,-10.687 3.465,1.396 4.837,-0.663 2.05,-2.8 0.483,-3.778 -1.723,-4.305 -2.448,-2.492 -5.326,-5.745 -0.166,-2.437 2.835,-0.964 3.977,-6.408 0.133,-6.317 -0.969,-3.683 -2.254,-4.107 -1.983,-1.65 -2.82,-1.393 -8.526,-18.03 -1.081,1.018 -8.066,16.618 -11.82,0.173 -8.575,-17.368 -1.195,1.258 z"
       fill="#ffffff"
       id="path1" />
    <path
       d="m 58.919,75.731 h -1.75 l 2.64,-4.23 h 2.84 z m 22.953,1.969 -1.138,2.637 -0.482,2.744 -0.03,2.498 0.654,1.998 1.138,0.857 1.58,0.063 c 0,0 0.89,-0.906 0.968,-1.061 0.078,-0.156 0.594,-1.155 0.594,-1.155 0,0 0.078,-2.2 0.078,-2.385 l 0.013,-3.183 h 2.275 l -0.031,2.722 -0.042,2.619 0.19,0.95 0.59,0.871 0.739,0.517 1.075,0.125 1.295,-0.485 0.827,-1.17 0.453,-1.946 c 0,0 -0.077,-1.516 -0.077,-1.685 0,-0.17 -0.281,-1.824 -0.281,-1.824 0,0 -0.732,-2.06 -0.793,-2.212 a 82.04,82.04 0 0 0 -0.784,-1.598 l 2.17,0.003 c 0,0 0.659,1.39 0.765,1.557 0.106,0.168 0.59,1.684 0.59,1.684 l 0.264,1.589 0.14,1.95 -0.139,1.834 -0.513,1.48 -0.81,1.276 -1.092,0.897 -0.99,0.4 -1.39,0.107 -1.214,-0.25 -0.934,-0.672 -0.795,-1.107 -0.466,-0.779 -0.965,1.588 -0.967,0.796 -1.635,0.422 -1.872,-0.201 -1.62,-1.42 c 0,0 -0.907,-1.294 -1,-1.98 -0.093,-0.687 -0.25,-2.203 -0.25,-2.203 l 0.079,-2.118 c 0,0 0.314,-1.797 0.405,-1.934 0.092,-0.136 0.802,-1.8 0.802,-1.8 l 0.67,-1.089 z m 27.975,-0.993 h -1.688 l -3.633,-4.08 h 2.876 z m -6.105,-9.219 2.398,-1.112 -10.167,-21.891 -9.744,20.991 -9.803,0.005 -9.705,-20.953 -9.979,21.65 2.37,1.171 7.595,-17.034 7.868,17.26 13.611,-0.212 7.78,-17.199 z"
       style="display:inline"
       id="path2" />
    <path
       d="m 107.774,67.578 3.162,3.641 1.79,3.046 0.872,2.638 0.172,1.791 0.048,2.78 -0.413,2.408 c 0,0 -0.591,1.647 -0.97,2.434 -0.292,0.61 -0.628,1.2 -1.002,1.762 -0.676,1.017 -1.45,1.967 -2.234,2.902 -0.461,0.551 -1.452,1.594 -1.452,1.594 l -1.717,-1.327 2.199,-2.23 1.56,-2.061 1.156,-2.31 0.593,-2.09 0.214,-2.248 -0.187,-2.747 -0.778,-2.7 -1.03,-1.794 -1.371,-1.681 -2.368,-2.512 z m -51.038,25.208 1.792,-1.191 -2.506,-2.741 -1.875,-2.97 -0.74,-2.088 -0.337,-1.7 -0.07,-2.188 0.134,-2.571 0.509,-2.214 1.17,-2.263 1.29,-1.6 1.38,-1.688 1.137,-1.125 -1.636,-1.324 -1.402,1.532 -1.622,1.888 -1.104,1.81 -1.24,2.65 -0.716,2.397 -0.118,1.844 -0.02,2.021 0.132,1.423 0.72,2.529 0.86,1.942 1.358,2.063 c 0,0 1.015,1.379 1.558,2.04 0.43,0.524 1.345,1.524 1.345,1.524 z m -0.946,0.667 1.672,1.96 -3.569,3.168 -2.525,2.463 -1.609,1.658 -1.42,1.766 -0.842,1.603 -0.342,1.341 -0.065,1.246 0.173,0.82 0.527,0.93 0.703,0.951 0.907,0.658 1.557,0.436 c 0,0 1.143,0.23 1.327,0.23 0.184,0 1.51,-0.264 1.51,-0.264 l 1.405,-0.516 1.449,-0.861 1.604,-1.6 1.418,-1.988 c 0,0 1.049,-1.7 1.122,-1.84 0.074,-0.14 0.354,-0.624 0.354,-0.624 l 1.897,2.024 -1.343,2.022 -1.376,1.719 -1.14,0.966 -2.608,1.998 -1.715,0.765 -1.321,0.265 -2.153,0.095 -1.868,-0.311 c 0,0 -1.372,-0.636 -1.542,-0.682 -0.17,-0.046 -1.435,-1.295 -1.435,-1.295 l -0.961,-1.506 -0.515,-1.416 -0.001,-1.372 0.172,-1.62 0.45,-1.322 0.874,-1.526 1.092,-1.78 1.746,-1.96 2.088,-2.225 1.909,-1.944 z m 48.691,1.555 1.67,-2.075 4.64,4.685 2.998,3.329 1.594,2.292 1.325,2.449 0.34,1.934 -0.156,1.954 -0.733,1.512 -1.013,1.403 -1.608,1.124 -1.358,0.608 -2.137,0.433 -1.635,-0.057 -1.89,-0.623 -1.81,-1.201 -2.289,-1.9 -1.475,-1.556 1.768,-1.79 1.546,2.11 1.483,1.401 1.749,0.966 1.37,0.357 1.544,-0.02 1.448,-0.389 1.274,-0.76 0.822,-0.843 0.833,-1.427 0.248,-1.12 -0.266,-1.631 -0.611,-1.371 -1.204,-1.828 -1.279,-1.45 -1.43,-1.51 -2.045,-1.796 -2.34,-1.979 z m -1.156,27.93 v 11.12 l -0.421,1.804 -0.859,1.566 -0.95,0.926 -1.282,0.706 -1.097,0.155 -1.452,-0.063 -1.46,-0.547 -1.14,-0.988 -0.654,-1.364 -0.528,-1.767 -0.087,-1.365 V 122.9 h -2.39 v 11.123 l 0.18,1.686 0.606,1.731 0.857,1.545 1.094,1.125 1.154,0.954 1.45,0.563 1.75,0.292 1.508,-0.076 1.246,-0.437 1.262,-0.703 1.636,-1.42 1.063,-1.702 0.609,-1.886 0.265,-1.996 v -10.764 z m -33.02,-0.006 v 10.78 l -0.412,1.986 -0.91,1.811 -1.278,1.25 -1.385,0.482 -2.385,-0.023 -1.211,-0.591 -1.144,-1.169 -0.793,-1.72 -0.398,-1.466 v -11.39 H 57.98 v 11.02 l 0.231,1.654 0.39,1.337 0.671,1.557 0.906,1.076 1.173,1.105 1.076,0.53 1.325,0.609 1.521,0.184 1.556,-0.24 1.514,-0.502 1.822,-1.342 1.201,-1.467 0.858,-2.074 0.484,-2.285 V 122.91 Z"
       id="path3" />
    <g
       id="gikopoipoi_eyes_open"
       style="display:inline">
      <circle
         cx="68.024002"
         cy="78.851997"
         r="2.118"
         style="display:inline"
         id="circle3" />
      <circle
         cx="101.399"
         cy="78.901001"
         r="2.118"
         style="display:inline"
         id="circle4" />
    </g>
    <path
       d="m 98.759,79.333 c 1.238,0.875 4.142,0.764 5.267,-0.024 M 65.49,79.284 c 1.238,0.875 4.142,0.764 5.267,-0.024"
       style="display:none;stroke-width:2.14607;stroke-dasharray:none"
       id="gikopoipoi_eyes_closed"
       stroke-width="3"
       fill="none"
       stroke="#000000"
       stroke-linecap="round"
       stroke-linejoin="round" />
  </g>
</svg>
