<?xml version="1.0" encoding="UTF-8" standalone="no"?><!DOCTYPE svg PUBLIC "-//W3C//DTD SVG 1.1//EN" "http://www.w3.org/Graphics/SVG/1.1/DTD/svg11.dtd"><svg width="362px" height="302px" viewBox="0 0 362 302" version="1.1" xmlns="http://www.w3.org/2000/svg" xmlns:xlink="http://www.w3.org/1999/xlink" xml:space="preserve" xmlns:serif="http://www.serif.com/" style="fill-rule:evenodd;clip-rule:evenodd;stroke-linecap:round;stroke-linejoin:round;"><clipPath id="_clip1"><rect id="bar_giko.svg" x="0" y="0" width="362" height="302"/></clipPath><g clip-path="url(#_clip1)"><g><path d="M200.529,180.576l-200.029,-100.076l0,120l200.029,100.076l0,-120" style="fill:#bcbcbc;"/><path d="M0.5,80.5l200.029,100.076l160,-80l-160,80l0,120l160,-80l0,-120l-200.029,-100.076l-160,80" style="fill:#d5d5d5;"/><path d="M200.529,180.576l-200.029,-100.076l160,-80m40.029,180.076l0,120l-200.029,-100.076l0,-120" style="fill:none;fill-rule:nonzero;stroke:#666;stroke-width:1px;"/><path d="M160.5,0.5l200.029,100.076l-160,80m0,120l160,-80l0,-120" style="fill:none;fill-rule:nonzero;stroke:#666;stroke-width:1px;"/><path d="M161.869,19.691l155.551,78.212l-117.797,58.899l-155.552,-77.824l117.798,-59.287Z" style="fill:#ebebeb;"/><clipPath id="_clip2"><path d="M161.869,19.691l155.551,78.212l-117.797,58.899l-155.552,-77.824l117.798,-59.287Z"/></clipPath><g clip-path="url(#_clip2)"><path d="M161.869,12.327l-0,39.002l162.13,75.596l-0,-38.679l-162.13,-75.919Z" style="fill:#bcbcbc;"/><path d="M161.869,30.477l155.551,78.212l-117.797,58.899l-155.552,-77.824l117.798,-59.287Z" style="fill:#d5d5d5;"/></g><path d="M161.869,19.691l155.551,78.212l-117.797,58.899l-155.552,-77.824l117.798,-59.287Z" style="fill:none;stroke:#666;stroke-width:1px;stroke-miterlimit:1.5;"/><g id="b"><path d="M90.95,235.3l4.2,2.15l0.05,-0.05l-4.25,-2.1" style="fill:#bfbfbf;"/><path d="M105.15,236.65l-1.6,-0.8l1.55,0.8l0.05,-0" style="fill:#acacac;"/><path d="M111.3,234.1l-0.55,-0.3l0.55,0.3" style="fill:#9a9a9a;"/><path d="M95.15,237.45l-4.2,-2.15l-10.45,5.2l40,20l0,-10.4l-25.35,-12.65" style="fill:#bcbcbc;"/><path d="M111.3,234.1l-0.55,-0.3l-5.6,2.85l-0.05,-0l15.4,7.7l-0,-5.65l-9.2,-4.6" style="fill:#868686;"/><path d="M95.2,237.4l-0.05,0.05l25.35,12.65l0,-5.75l-15.4,-7.7l-1.55,-0.8l-2.6,-1.3l-5.75,2.85" style="fill:#a7a7a7;"/><path d="M120.5,238.7l0,-5.6l-5.6,2.8l5.6,2.8" style="fill:#717171;"/><path d="M90.95,235.3l4.25,2.1l5.75,-2.85l4.2,2.1l5.6,-2.85l0.55,0.3l3.6,1.8l5.6,-2.8l0,-52.6l-40,-20l0,80l10.45,-5.2m23.2,-7.35l0.05,-0l-0.05,-0" style="fill:url(#_Linear3);"/><path d="M114.15,227.95l0.05,-0m0,-0l-0.05,-0" style="fill:none;fill-rule:nonzero;stroke:#000;stroke-width:0.05px;"/><path d="M120.5,250.1l0,10.4l-40,-20m40,9.6l0,-69.6l-40,-20l0,80" style="fill:none;fill-rule:nonzero;stroke:#666;stroke-width:1px;"/><path d="M95.15,237.45l-4.2,-2.15m4.25,2.1l-0.05,0.05l25.35,12.65m-40,-9.6l10.45,-5.2m20.35,-1.2l-0.55,-0.3l-5.6,2.85m-1.6,-0.8l-2.6,-1.3l-5.75,2.85m8.35,-1.55l1.55,0.8l15.4,7.7m-15.4,-7.7l0.05,-0m9.75,-0.75l5.6,2.8m-5.6,-2.8l5.6,-2.8m-9.2,1l3.6,1.8" style="fill:none;fill-rule:nonzero;stroke:#666;stroke-width:0.05px;"/></g></g></g><defs><linearGradient id="_Linear3" x1="0" y1="0" x2="1" y2="0" gradientUnits="userSpaceOnUse" gradientTransform="matrix(-36.7002,0,0,36.7002,119.25,195.62)"><stop offset="0" style="stop-color:#505050;stop-opacity:1"/><stop offset="1" style="stop-color:#bcbcbc;stop-opacity:1"/></linearGradient></defs></svg>