<?xml version="1.0" encoding="UTF-8" standalone="no"?><!DOCTYPE svg PUBLIC "-//W3C//DTD SVG 1.1//EN" "http://www.w3.org/Graphics/SVG/1.1/DTD/svg11.dtd"><svg width="381px" height="321px" viewBox="0 0 381 321" version="1.1" xmlns="http://www.w3.org/2000/svg" xmlns:xlink="http://www.w3.org/1999/xlink" xml:space="preserve" xmlns:serif="http://www.serif.com/" style="fill-rule:evenodd;clip-rule:evenodd;stroke-linecap:round;stroke-linejoin:round;"><g><g id="a"><g id="b"><path d="M327.35,117.1l13.15,-6.6l40,20l-80,40l0,20l-40,-20l0,-20l45.2,-22.6l-0.2,2.6c0,4.167 1.467,7.717 4.4,10.65c2.933,2.9 6.467,4.35 10.6,4.35c4.167,0 7.717,-1.45 10.65,-4.35c2.9,-2.933 4.35,-6.483 4.35,-10.65c0,-4.133 -1.45,-7.667 -4.35,-10.6c-1.2,-1.167 -2.467,-2.1 -3.8,-2.8m33.15,-36.6l-200,100l0,140l-160,-80l0,-140l200,-100l160,80m-40,100l20,-10l0,60l-20,-10l0,-40m-60,-30l40,20l-40,-20m-100,30l-160,-80l160,80" style="fill:#fffff0;"/><path d="M327.35,117.1c-2.067,-1.067 -4.35,-1.6 -6.85,-1.6c-4.133,-0 -7.667,1.467 -10.6,4.4c-2.3,2.3 -3.7,4.967 -4.2,8l-45.2,22.6l0,120l-100,50l0,-140l200,-100l0,40l-20,-10l-13.15,6.6m-76.85,63.4l0,-5l-80,40l0,60l80,-40l0,-55m110,-20l-20,10l20,-10l0,60l-20,10l0,-60l-40,20l0,-20l80,-40l0,20l-20,10" style="fill:#ffffe1;"/><path d="M250.5,175.5l0,5l-80,40l0,-5l80,-40m0,55l0,5l-80,40l0,-5l80,-40" style="fill:#c96318;"/><path d="M250.5,180.5l0,50l-80,40l0,-50l80,-40" style="fill:#38551c;"/><path d="M305.7,127.9c0.5,-3.033 1.9,-5.7 4.2,-8c2.933,-2.933 6.467,-4.4 10.6,-4.4c2.5,0 4.783,0.533 6.85,1.6c1.333,0.7 2.6,1.633 3.8,2.8c2.9,2.933 4.35,6.467 4.35,10.6c0,4.167 -1.45,7.717 -4.35,10.65c-2.933,2.9 -6.483,4.35 -10.65,4.35c-4.133,0 -7.667,-1.45 -10.6,-4.35c-2.933,-2.933 -4.4,-6.483 -4.4,-10.65l0.2,-2.6" style="fill:url(#_Radial1);"/><path d="M260.5,270.5l0,-90l60,30l0,10l20,10l-80,40" style="fill:url(#_Linear2);"/><path d="M260.5,180.5l0,-10l40,20l20,-10l0,30l-60,-30" style="fill:url(#_Linear3);"/><path d="M305.7,127.9c0.5,-3.033 1.9,-5.7 4.2,-8c2.933,-2.933 6.467,-4.4 10.6,-4.4c2.5,0 4.783,0.533 6.85,1.6l13.15,-6.6l40,20l-80,40l0,20l40,-20l0,60m-80,40l0,-120l45.2,-22.6l-0.2,2.6c0,4.167 1.467,7.717 4.4,10.65c2.933,2.9 6.467,4.35 10.6,4.35c4.167,0 7.717,-1.45 10.65,-4.35c2.9,-2.933 4.35,-6.483 4.35,-10.65c0,-4.133 -1.45,-7.667 -4.35,-10.6c-1.2,-1.167 -2.467,-2.1 -3.8,-2.8m-76.85,58.4l0,60m90,-65l40,-20l0,-20m-120,40l40,20m0,-20l-40,-20m-10,30l-80,40m80,10l-80,40" style="fill:none;fill-rule:nonzero;stroke:#666;stroke-width:1px;"/><path d="M360.5,120.5l0,-40l-200,100l0,140l100,-50m-10,-35l-80,40l0,-60l80,-40m90,55l20,-10l0,-60m-40,50l0,-30m-60,0l60,30l0,10l20,10l-80,40m100,-190l-160,-80l-200,100l160,80m0,140l-160,-80l0,-140" style="fill:none;fill-rule:nonzero;stroke:#666;stroke-width:1px;"/><path d="M245.55,188l0,40l-30,15l0,-40l30,-15" style="fill:#fff;"/><path d="M245.55,188l0,40m0,0l-30,15l0,-40l30,-15l0,40Z" style="fill:none;fill-rule:nonzero;stroke:#666;stroke-width:1px;"/></g><g id="c"><path id="g" d="M180.925,179.71l-4.782,7.1l4.852,4.891l-1.916,0.929l-4.079,-4.141l-1.599,2.393l0,4.501l-1.635,0.792l0,-12.024l1.635,-0.793l0,5.485l5.467,-8.136l2.057,-0.997"/><path id="h" d="M187.629,176.32c1.418,-0.688 2.619,-0.778 3.604,-0.271c1.125,0.58 1.687,1.854 1.687,3.823c0,1.969 -0.562,3.789 -1.687,5.459c-0.985,1.462 -2.186,2.537 -3.604,3.224c-1.407,0.682 -2.602,0.769 -3.587,0.262c-1.125,-0.579 -1.687,-1.854 -1.687,-3.823c0,-1.969 0.562,-3.788 1.687,-5.459c0.985,-1.462 2.18,-2.534 3.587,-3.215m-2.373,3.541c-0.797,1.183 -1.196,2.619 -1.196,4.307c0,1.687 0.399,2.736 1.196,3.147c0.703,0.362 1.494,0.33 2.373,-0.096c0.891,-0.432 1.687,-1.17 2.391,-2.214c0.797,-1.183 1.195,-2.618 1.195,-4.306c0,-1.688 -0.398,-2.737 -1.195,-3.148c-0.704,-0.362 -1.5,-0.327 -2.391,0.105c-0.879,0.426 -1.67,1.161 -2.373,2.205"/><path id="i" d="M201.906,171.297c-0.282,-0.145 -0.633,-0.115 -1.055,0.089l-3.921,1.901l0,3.727l3.78,-1.832c0.469,-0.228 0.867,-0.585 1.196,-1.072c0.375,-0.557 0.562,-1.14 0.562,-1.75c0,-0.515 -0.187,-0.87 -0.562,-1.063m2.197,0.341c0,0.75 -0.258,1.508 -0.773,2.274c-0.282,0.417 -0.633,0.799 -1.055,1.144c0.562,-0.085 1.008,-0.043 1.336,0.126c0.562,0.289 0.844,0.856 0.844,1.7c0,1.032 -0.352,2.069 -1.055,3.113c-0.563,0.836 -1.412,1.529 -2.549,2.08l-5.556,2.693l0,-12.025l5.626,-2.727c0.949,-0.46 1.729,-0.533 2.338,-0.219c0.563,0.29 0.844,0.903 0.844,1.841m-7.173,6.712l0,4.29l3.569,-1.731c0.703,-0.341 1.242,-0.789 1.617,-1.346c0.422,-0.627 0.633,-1.245 0.633,-1.854c0,-0.656 -0.187,-1.081 -0.562,-1.274c-0.422,-0.218 -0.985,-0.156 -1.688,0.185l-3.569,1.73"/><path id="j" d="M212.017,164.496l4.781,9.848l-1.705,0.826l-1.477,-2.94l-4.623,2.241l-1.477,4.373l-1.705,0.826l4.782,-14.483l1.424,-0.691m-0.703,2.662l-1.829,5.738l3.639,-1.764l-1.81,-3.974"/><path id="k" d="M227.334,157.211l0,12.025l-1.775,0.861l-5.608,-6.775l0,9.493l-1.635,0.793l0,-12.025l1.775,-0.861l5.608,6.775l0,-9.493l1.635,-0.793"/></g></g><g><clipPath id="_clip4"><path d="M79.341,155.828l63.298,31.395l0,100.058l-63.298,-31.396l-0,-100.057Z"/></clipPath><g clip-path="url(#_clip4)"><path id="Artboard1" d="M142.621,187.215l-63.28,-31.387l0,100.054l63.28,31.387l0,-100.054Z" style="fill:none;"/><g><g id="background"><g><g transform="matrix(0.895856,0.444345,0,1.00154,8.42203,-36.3082)"><text x="80.869px" y="243.208px" style="font-family:'ArialMT', 'Arial', sans-serif;font-size:3.565px;fill:#fff;fill-opacity:0;">Art by Punp,</text></g><g transform="matrix(0.895856,0.444345,0,1.00154,8.42203,-36.3161)"><text x="80.869px" y="248.322px" style="font-family:'ArialMT', 'Arial', sans-serif;font-size:3.565px;fill:#fff;fill-opacity:0;">Map coding by Hammerkoopa</text></g></g><path d="M142.621,187.243l-63.28,-31.387l0,100.054l63.28,31.387l0,-100.054Z" style="fill:#00d4fe;"/><path d="M73.302,161.173c0,0 14.267,-1.05 36.768,18.237c22.085,18.931 35.433,17.575 35.433,17.575l0,53.972l-72.202,-35.812l0,-53.972l0.001,0Z" style="fill:#00dbff;"/><path d="M73.302,175.47c0,0 14.267,-1.05 36.768,18.237c22.085,18.931 35.433,17.575 35.433,17.575l0,53.972l-72.202,-35.812l0,-53.972l0.001,0Z" style="fill:#01e6fe;"/><path d="M73.302,191.114c0,0 14.267,-1.05 36.768,18.237c22.085,18.93 35.433,17.575 35.433,17.575l0,53.972l-72.202,-35.813l0,-53.971l0.001,0Z" style="fill:#04f2fe;"/><path d="M73.302,206.471c0,0 14.267,-1.05 36.768,18.237c22.085,18.931 35.433,17.575 35.433,17.575l0,53.972l-72.202,-35.812l0,-53.972l0.001,0Z" style="fill:#0cfeef;"/><path d="M77.519,243.739l9.076,-15.072c-2.003,-0.825 -2.397,-2.035 -4.192,-2.651c-1.976,-0.677 -1.719,1.014 -4.163,0.001l-0.721,17.722Z" style="fill:#00d4fe;"/></g><path d="M85.029,228.54c1.564,-8.144 2.695,-13.351 4.266,-18.717l1.054,2.02c0.732,-0.403 0.962,-1.616 0.748,-3.543c4.152,3.176 8.208,7.899 12.254,12.793c0.554,-3.704 -1.337,-7.548 -9.607,-13.279l13.138,4.059l-4.132,-4.509l-8.569,-1.7l11.572,-2.988l-4.434,-2.479l-5.684,1.469l2.19,-2.385l-1.802,-0.491l2.087,-0.097l-2.332,-1.826l3.805,-0.847l-1.363,-1.533l0.205,-3.101l-3.964,-1.295l-2.523,3.181l1.081,-6.179l-3.003,-2.027l-0.601,9.372l0,-4.969l-2.28,-3.933l-0.963,7.159l1.802,4.252l-1.201,0.478l-3.604,-11.054l-4.118,-4.773l3.637,8.966l-1.441,-0.849l3.964,6.13l-8.049,-8.29l4.926,6.606l-1.682,-0.431l3.363,3.28l-1.681,0.643l3.844,2.041l1.682,4.057c-2.818,-2.037 -5.577,-2.894 -8.289,-2.768l-4.205,4.227l4.084,-0.66l-0.826,2.491l2.268,-2.179l0.601,2.85l0.961,-3.284l0.24,3.208l2.282,-1.688c1.349,0.507 2.247,0.498 3.07,2.391c-1.61,5.579 -4.099,12.264 -5.394,18.586l2.623,1.615Z" style="fill:#00d4fe;"/><g><g><path d="M82.032,166.206c-0.121,-0.215 -0.234,-0.417 -0.341,-0.608c-0.107,-0.191 -0.202,-0.367 -0.284,-0.528c-0.082,-0.162 -0.149,-0.307 -0.199,-0.435c-0.051,-0.129 -0.08,-0.239 -0.088,-0.331c-0.005,-0.047 0.008,-0.091 0.037,-0.133c0.029,-0.042 0.065,-0.078 0.107,-0.108c0.042,-0.03 0.086,-0.052 0.132,-0.065c0.047,-0.013 0.087,-0.014 0.12,-0.001c0.079,0.03 0.152,0.113 0.219,0.251c0.029,0.063 0.073,0.156 0.131,0.278c0.059,0.123 0.127,0.263 0.204,0.42c0.078,0.157 0.163,0.326 0.257,0.507c0.093,0.181 0.189,0.361 0.286,0.542c0.098,0.181 0.195,0.357 0.292,0.526c0.096,0.169 0.188,0.322 0.276,0.456c0.087,0.135 0.167,0.247 0.239,0.335c0.073,0.089 0.133,0.142 0.181,0.16c0.064,0.024 0.118,-0.005 0.161,-0.087c0.044,-0.083 0.081,-0.199 0.111,-0.349c0.03,-0.149 0.054,-0.324 0.07,-0.522c0.016,-0.198 0.029,-0.401 0.037,-0.609c0.008,-0.208 0.013,-0.41 0.014,-0.606c0.002,-0.197 0.003,-0.37 0.002,-0.518c0,-0.08 0.014,-0.135 0.043,-0.165c0.029,-0.029 0.07,-0.034 0.123,-0.014c0.046,0.017 0.098,0.048 0.154,0.092c0.057,0.044 0.112,0.095 0.163,0.153c0.052,0.058 0.096,0.12 0.133,0.184c0.036,0.065 0.057,0.128 0.063,0.19c0.008,0.095 0.011,0.204 0.008,0.327c-0.003,0.123 -0.008,0.251 -0.017,0.386c-0.008,0.134 -0.019,0.27 -0.032,0.408c-0.013,0.137 -0.027,0.267 -0.042,0.387c-0.01,0.086 -0.023,0.192 -0.04,0.318c-0.018,0.126 -0.042,0.257 -0.072,0.393c-0.031,0.136 -0.069,0.269 -0.114,0.399c-0.046,0.13 -0.102,0.242 -0.168,0.334c-0.066,0.093 -0.144,0.159 -0.232,0.199c-0.089,0.039 -0.193,0.036 -0.311,-0.009c-0.086,-0.033 -0.177,-0.094 -0.274,-0.184c-0.097,-0.09 -0.196,-0.198 -0.296,-0.323c-0.1,-0.125 -0.2,-0.261 -0.3,-0.41c-0.101,-0.148 -0.196,-0.297 -0.288,-0.446c-0.092,-0.149 -0.178,-0.293 -0.258,-0.431c-0.08,-0.138 -0.149,-0.259 -0.207,-0.363Z" style="fill:#5fffff;fill-rule:nonzero;"/><path d="M85.288,165.395c-0.004,-0.046 0.002,-0.086 0.019,-0.118c0.016,-0.032 0.04,-0.056 0.073,-0.073c0.032,-0.016 0.071,-0.024 0.117,-0.024c0.045,0 0.095,0.01 0.147,0.03c0.103,0.039 0.181,0.087 0.232,0.144c0.052,0.057 0.087,0.129 0.105,0.215c0.068,0.356 0.128,0.69 0.18,1.004c0.052,0.314 0.098,0.611 0.138,0.893c0.039,0.282 0.074,0.55 0.103,0.806c0.029,0.255 0.054,0.501 0.074,0.737c0.012,0.128 -0.019,0.209 -0.091,0.244c-0.072,0.034 -0.183,0.023 -0.332,-0.034c-0.068,-0.025 -0.123,-0.064 -0.165,-0.116c-0.041,-0.052 -0.066,-0.114 -0.072,-0.186c-0.039,-0.441 -0.087,-0.859 -0.144,-1.254c-0.057,-0.395 -0.114,-0.748 -0.169,-1.059c-0.055,-0.311 -0.103,-0.572 -0.144,-0.782c-0.04,-0.211 -0.064,-0.353 -0.071,-0.427Z" style="fill:#5fffff;fill-rule:nonzero;"/><path d="M87.682,168.255c0.014,0.154 0.059,0.309 0.135,0.466c0.077,0.157 0.172,0.304 0.286,0.443c0.114,0.139 0.242,0.262 0.383,0.369c0.141,0.107 0.282,0.188 0.425,0.242c0.044,0.017 0.089,0.029 0.134,0.038c0.045,0.008 0.086,0.008 0.121,-0.001c0.035,-0.009 0.063,-0.027 0.084,-0.055c0.021,-0.028 0.029,-0.07 0.024,-0.127c-0.01,-0.108 -0.052,-0.227 -0.126,-0.356c-0.074,-0.13 -0.168,-0.267 -0.283,-0.411c-0.114,-0.144 -0.244,-0.294 -0.389,-0.45c-0.145,-0.155 -0.293,-0.311 -0.442,-0.467c-0.15,-0.156 -0.297,-0.312 -0.443,-0.468c-0.145,-0.156 -0.275,-0.306 -0.389,-0.45c-0.115,-0.144 -0.209,-0.281 -0.283,-0.412c-0.075,-0.131 -0.116,-0.251 -0.126,-0.359c-0.009,-0.102 0.005,-0.189 0.042,-0.261c0.037,-0.071 0.09,-0.129 0.158,-0.172c0.069,-0.044 0.15,-0.075 0.243,-0.094c0.094,-0.019 0.193,-0.027 0.297,-0.024c0.104,0.002 0.21,0.014 0.317,0.036c0.107,0.022 0.21,0.052 0.308,0.09c0.073,0.027 0.153,0.06 0.24,0.096c0.087,0.037 0.169,0.08 0.246,0.128c0.078,0.048 0.143,0.101 0.197,0.158c0.054,0.058 0.084,0.123 0.091,0.195c0.002,0.023 0.001,0.05 -0.003,0.083c-0.003,0.032 -0.017,0.082 -0.04,0.15c-0.025,0.062 -0.055,0.105 -0.093,0.126c-0.037,0.022 -0.087,0.021 -0.151,-0.003c-0.09,-0.035 -0.186,-0.083 -0.288,-0.145c-0.102,-0.063 -0.204,-0.113 -0.305,-0.151c-0.054,-0.021 -0.11,-0.039 -0.165,-0.054c-0.055,-0.015 -0.105,-0.023 -0.15,-0.024c-0.045,0 -0.08,0.01 -0.105,0.031c-0.026,0.021 -0.037,0.056 -0.032,0.105c0.004,0.049 0.039,0.115 0.105,0.2c0.065,0.084 0.152,0.183 0.258,0.295c0.106,0.113 0.227,0.237 0.362,0.374c0.136,0.137 0.274,0.282 0.416,0.434c0.141,0.151 0.281,0.309 0.418,0.471c0.138,0.163 0.262,0.327 0.373,0.492c0.111,0.165 0.203,0.329 0.276,0.494c0.073,0.164 0.116,0.321 0.129,0.473c0.017,0.185 -0.005,0.334 -0.065,0.447c-0.06,0.114 -0.143,0.196 -0.249,0.248c-0.105,0.052 -0.225,0.075 -0.359,0.07c-0.134,-0.005 -0.267,-0.033 -0.399,-0.083c-0.134,-0.051 -0.271,-0.121 -0.411,-0.211c-0.141,-0.089 -0.278,-0.192 -0.411,-0.308c-0.133,-0.117 -0.26,-0.244 -0.379,-0.383c-0.119,-0.138 -0.225,-0.282 -0.317,-0.433c-0.091,-0.15 -0.167,-0.303 -0.227,-0.46c-0.059,-0.156 -0.095,-0.31 -0.109,-0.462c-0.005,-0.064 -0.007,-0.127 -0.005,-0.19c0.001,-0.062 0.01,-0.115 0.025,-0.157c0.016,-0.043 0.04,-0.073 0.072,-0.092c0.032,-0.019 0.076,-0.018 0.131,0.003c0.017,0.007 0.037,0.016 0.059,0.028c0.023,0.013 0.062,0.039 0.119,0.081c0.065,0.047 0.125,0.105 0.179,0.174c0.054,0.069 0.084,0.143 0.091,0.223Z" style="fill:#5fffff;fill-rule:nonzero;"/><path d="M90.036,167.201c-0.004,-0.047 0.002,-0.086 0.018,-0.118c0.016,-0.032 0.04,-0.057 0.073,-0.073c0.032,-0.016 0.072,-0.024 0.117,-0.024c0.046,0 0.095,0.01 0.148,0.03c0.103,0.039 0.18,0.087 0.232,0.144c0.051,0.057 0.086,0.129 0.105,0.215c0.067,0.356 0.127,0.69 0.179,1.004c0.052,0.314 0.098,0.611 0.138,0.893c0.04,0.282 0.074,0.55 0.103,0.805c0.029,0.256 0.054,0.501 0.075,0.738c0.011,0.128 -0.019,0.209 -0.092,0.244c-0.072,0.034 -0.183,0.023 -0.332,-0.034c-0.068,-0.025 -0.123,-0.064 -0.164,-0.116c-0.042,-0.052 -0.066,-0.114 -0.073,-0.186c-0.039,-0.441 -0.087,-0.859 -0.144,-1.254c-0.057,-0.395 -0.113,-0.748 -0.168,-1.059c-0.055,-0.312 -0.103,-0.572 -0.144,-0.782c-0.041,-0.211 -0.065,-0.353 -0.071,-0.427Z" style="fill:#5fffff;fill-rule:nonzero;"/><path d="M92.204,168.409c-0.018,-0.007 -0.051,-0.015 -0.099,-0.025c-0.049,-0.01 -0.105,-0.021 -0.17,-0.033c-0.065,-0.012 -0.133,-0.024 -0.204,-0.035c-0.071,-0.011 -0.137,-0.022 -0.2,-0.033c-0.062,-0.011 -0.117,-0.022 -0.163,-0.031c-0.047,-0.009 -0.077,-0.016 -0.093,-0.022c-0.147,-0.056 -0.228,-0.174 -0.244,-0.353c-0.005,-0.049 -0.005,-0.096 -0.001,-0.14c0.003,-0.045 0.013,-0.083 0.029,-0.115c0.016,-0.033 0.04,-0.057 0.07,-0.072c0.031,-0.016 0.071,-0.019 0.12,-0.01c0.253,0.051 0.504,0.1 0.754,0.145c0.25,0.046 0.502,0.089 0.756,0.131c0.056,0.009 0.107,0.017 0.152,0.023c0.045,0.006 0.095,0.009 0.15,0.01c0.06,0.003 0.125,0.009 0.196,0.017c0.071,0.008 0.142,0.019 0.214,0.031c0.072,0.013 0.143,0.027 0.211,0.043c0.068,0.016 0.131,0.035 0.188,0.057c0.07,0.027 0.125,0.073 0.166,0.14c0.041,0.066 0.066,0.147 0.074,0.242c0.005,0.048 0.005,0.094 0.003,0.136c-0.003,0.043 -0.011,0.079 -0.026,0.108c-0.014,0.029 -0.036,0.049 -0.064,0.061c-0.029,0.011 -0.067,0.01 -0.115,-0.003c-0.123,-0.027 -0.255,-0.053 -0.395,-0.078c-0.14,-0.024 -0.261,-0.039 -0.363,-0.043c-0.043,-0.001 -0.074,0.011 -0.093,0.038c-0.018,0.026 -0.029,0.063 -0.031,0.112c-0.002,0.046 -0.002,0.094 0.002,0.144c0.003,0.05 0.007,0.098 0.011,0.144c0.009,0.108 0.023,0.217 0.04,0.327c0.017,0.111 0.034,0.222 0.05,0.332c0.052,0.377 0.115,0.754 0.187,1.132c0.073,0.377 0.15,0.759 0.231,1.147c0.005,0.015 0.009,0.028 0.01,0.041c0.001,0.013 0.002,0.026 0.003,0.039c0.013,0.141 -0.047,0.215 -0.177,0.222l-0.144,-0.002c-0.038,0 -0.076,-0.007 -0.113,-0.021c-0.057,-0.021 -0.105,-0.06 -0.144,-0.116c-0.039,-0.056 -0.067,-0.127 -0.086,-0.213c-0.1,-0.465 -0.193,-0.925 -0.277,-1.38c-0.085,-0.455 -0.154,-0.907 -0.206,-1.356c-0.011,-0.073 -0.021,-0.153 -0.031,-0.238c-0.01,-0.086 -0.018,-0.174 -0.026,-0.263c-0.011,-0.126 -0.062,-0.206 -0.152,-0.24Z" style="fill:#5fffff;fill-rule:nonzero;"/><path d="M96.621,171.655c0.013,0.154 0.058,0.309 0.135,0.466c0.076,0.157 0.171,0.305 0.285,0.443c0.115,0.139 0.242,0.262 0.383,0.369c0.141,0.107 0.283,0.188 0.425,0.242c0.044,0.017 0.089,0.029 0.134,0.038c0.045,0.008 0.086,0.008 0.121,-0.001c0.035,-0.009 0.063,-0.027 0.084,-0.055c0.021,-0.028 0.029,-0.07 0.024,-0.127c-0.01,-0.108 -0.051,-0.226 -0.125,-0.356c-0.074,-0.13 -0.169,-0.267 -0.283,-0.411c-0.115,-0.144 -0.245,-0.294 -0.39,-0.45c-0.145,-0.155 -0.293,-0.311 -0.442,-0.467c-0.15,-0.156 -0.297,-0.312 -0.442,-0.468c-0.146,-0.156 -0.276,-0.305 -0.39,-0.449c-0.115,-0.144 -0.209,-0.282 -0.283,-0.413c-0.074,-0.131 -0.116,-0.251 -0.126,-0.359c-0.009,-0.102 0.005,-0.189 0.042,-0.261c0.038,-0.071 0.09,-0.128 0.159,-0.172c0.068,-0.043 0.149,-0.075 0.243,-0.093c0.093,-0.019 0.192,-0.028 0.297,-0.025c0.104,0.002 0.209,0.014 0.316,0.037c0.107,0.022 0.21,0.051 0.309,0.089c0.072,0.028 0.152,0.06 0.239,0.097c0.087,0.036 0.169,0.079 0.247,0.127c0.077,0.048 0.143,0.101 0.197,0.159c0.053,0.057 0.084,0.122 0.09,0.194c0.002,0.023 0.001,0.051 -0.002,0.083c-0.004,0.032 -0.017,0.082 -0.041,0.15c-0.024,0.062 -0.055,0.105 -0.092,0.126c-0.038,0.022 -0.088,0.021 -0.152,-0.003c-0.09,-0.034 -0.186,-0.083 -0.288,-0.145c-0.102,-0.062 -0.203,-0.113 -0.304,-0.151c-0.055,-0.021 -0.11,-0.039 -0.166,-0.054c-0.055,-0.015 -0.105,-0.023 -0.15,-0.023c-0.044,-0.001 -0.079,0.009 -0.105,0.03c-0.026,0.021 -0.037,0.056 -0.032,0.105c0.004,0.049 0.039,0.115 0.105,0.2c0.066,0.085 0.152,0.183 0.258,0.295c0.107,0.113 0.228,0.238 0.363,0.375c0.135,0.137 0.273,0.281 0.415,0.433c0.142,0.152 0.281,0.309 0.419,0.472c0.137,0.162 0.261,0.326 0.372,0.491c0.112,0.165 0.204,0.33 0.276,0.494c0.073,0.164 0.116,0.322 0.13,0.473c0.016,0.185 -0.006,0.334 -0.066,0.448c-0.06,0.113 -0.143,0.196 -0.248,0.247c-0.106,0.052 -0.226,0.075 -0.36,0.07c-0.134,-0.005 -0.267,-0.033 -0.399,-0.083c-0.133,-0.051 -0.271,-0.121 -0.411,-0.21c-0.141,-0.09 -0.277,-0.193 -0.411,-0.309c-0.133,-0.117 -0.259,-0.244 -0.379,-0.382c-0.119,-0.139 -0.225,-0.283 -0.316,-0.433c-0.092,-0.151 -0.168,-0.304 -0.227,-0.461c-0.06,-0.156 -0.096,-0.31 -0.109,-0.461c-0.006,-0.065 -0.008,-0.128 -0.006,-0.19c0.002,-0.063 0.01,-0.115 0.026,-0.158c0.015,-0.043 0.039,-0.073 0.071,-0.092c0.032,-0.019 0.076,-0.018 0.131,0.003c0.017,0.007 0.037,0.016 0.06,0.029c0.022,0.012 0.061,0.039 0.118,0.08c0.066,0.047 0.125,0.105 0.179,0.174c0.054,0.069 0.085,0.143 0.092,0.223Z" style="fill:#5fffff;fill-rule:nonzero;"/><path d="M98.985,171.018c0.006,-0.085 0.037,-0.138 0.094,-0.159c0.058,-0.022 0.158,-0.006 0.301,0.049c0.076,0.029 0.138,0.075 0.185,0.137c0.047,0.063 0.074,0.135 0.081,0.217c0.002,0.013 0.001,0.024 0,0.034c-0.001,0.009 -0.001,0.02 0,0.033c-0.009,0.158 -0.014,0.323 -0.013,0.497c0,0.174 0.009,0.353 0.025,0.538c0.021,0.239 0.059,0.471 0.114,0.696c0.055,0.226 0.136,0.435 0.243,0.628c0.107,0.194 0.246,0.367 0.415,0.519c0.17,0.152 0.379,0.276 0.629,0.371c0.141,0.054 0.262,0.072 0.365,0.053c0.102,-0.018 0.184,-0.065 0.246,-0.142c0.063,-0.077 0.105,-0.179 0.129,-0.306c0.024,-0.128 0.029,-0.273 0.014,-0.438c-0.015,-0.164 -0.044,-0.331 -0.087,-0.502c-0.044,-0.17 -0.097,-0.342 -0.161,-0.516c-0.063,-0.174 -0.133,-0.349 -0.211,-0.525c-0.079,-0.176 -0.161,-0.355 -0.247,-0.537c-0.037,-0.081 -0.057,-0.149 -0.062,-0.206c-0.009,-0.1 0.028,-0.167 0.112,-0.203l0.126,-0.052c0.055,-0.024 0.109,-0.026 0.162,-0.006c0.081,0.031 0.154,0.115 0.219,0.251c0.099,0.204 0.194,0.408 0.287,0.613c0.092,0.205 0.175,0.411 0.25,0.618c0.074,0.207 0.137,0.415 0.189,0.624c0.051,0.21 0.086,0.418 0.104,0.626c0.026,0.29 0.008,0.539 -0.053,0.746c-0.061,0.208 -0.16,0.368 -0.296,0.481c-0.137,0.113 -0.307,0.176 -0.51,0.189c-0.204,0.013 -0.435,-0.03 -0.694,-0.128c-0.281,-0.107 -0.536,-0.259 -0.764,-0.456c-0.229,-0.198 -0.426,-0.425 -0.593,-0.684c-0.167,-0.258 -0.302,-0.539 -0.403,-0.845c-0.101,-0.305 -0.166,-0.619 -0.194,-0.942c-0.02,-0.226 -0.029,-0.448 -0.026,-0.667c0.003,-0.218 0.011,-0.42 0.024,-0.606Z" style="fill:#5fffff;fill-rule:nonzero;"/><path d="M103.701,174.014c0.01,0.107 0.024,0.221 0.043,0.339c0.019,0.119 0.039,0.239 0.062,0.359c0.022,0.12 0.043,0.24 0.062,0.36c0.019,0.12 0.033,0.237 0.043,0.35c0.012,0.125 -0.017,0.213 -0.084,0.263c-0.068,0.05 -0.165,0.051 -0.29,0.003c-0.061,-0.023 -0.121,-0.067 -0.178,-0.131c-0.058,-0.064 -0.094,-0.145 -0.109,-0.242c-0.022,-0.125 -0.044,-0.264 -0.067,-0.418c-0.024,-0.154 -0.046,-0.313 -0.068,-0.476c-0.022,-0.163 -0.043,-0.328 -0.064,-0.493c-0.021,-0.165 -0.04,-0.324 -0.058,-0.476c-0.018,-0.152 -0.033,-0.292 -0.047,-0.419c-0.013,-0.128 -0.024,-0.236 -0.032,-0.323c-0.006,-0.077 -0.008,-0.149 -0.006,-0.214c0.003,-0.066 0.016,-0.12 0.04,-0.16c0.024,-0.041 0.06,-0.067 0.106,-0.079c0.047,-0.012 0.112,-0.002 0.195,0.03c0.064,0.024 0.138,0.077 0.221,0.16c0.084,0.083 0.175,0.186 0.274,0.311c0.099,0.124 0.206,0.264 0.319,0.42c0.114,0.156 0.231,0.32 0.352,0.49c0.121,0.17 0.245,0.343 0.372,0.519c0.127,0.176 0.255,0.345 0.384,0.508c0.057,0.074 0.123,0.16 0.196,0.257c0.073,0.098 0.148,0.192 0.225,0.283c0.077,0.091 0.153,0.173 0.229,0.245c0.075,0.072 0.146,0.121 0.211,0.146c0.062,0.023 0.099,0.007 0.112,-0.049c0.013,-0.056 0.014,-0.153 0.002,-0.291c-0.01,-0.103 -0.028,-0.233 -0.056,-0.39c-0.027,-0.156 -0.062,-0.326 -0.103,-0.508c-0.042,-0.182 -0.09,-0.367 -0.145,-0.555c-0.055,-0.188 -0.114,-0.364 -0.177,-0.527c-0.014,-0.035 -0.027,-0.069 -0.039,-0.102c-0.013,-0.033 -0.021,-0.068 -0.024,-0.104c-0.005,-0.059 0.007,-0.105 0.036,-0.139c0.029,-0.034 0.065,-0.057 0.108,-0.07c0.043,-0.014 0.09,-0.019 0.139,-0.017c0.049,0.003 0.09,0.011 0.122,0.023c0.073,0.028 0.142,0.098 0.207,0.211c0.065,0.112 0.125,0.249 0.181,0.411c0.056,0.161 0.106,0.338 0.15,0.529c0.045,0.192 0.084,0.383 0.119,0.572c0.035,0.189 0.063,0.368 0.086,0.537c0.022,0.168 0.038,0.307 0.048,0.418c0.018,0.208 0.027,0.388 0.027,0.54c-0,0.153 -0.018,0.274 -0.054,0.365c-0.035,0.09 -0.093,0.147 -0.174,0.17c-0.081,0.022 -0.192,0.006 -0.335,-0.048c-0.114,-0.043 -0.236,-0.116 -0.366,-0.219c-0.13,-0.103 -0.264,-0.226 -0.4,-0.368c-0.137,-0.143 -0.276,-0.299 -0.417,-0.469c-0.141,-0.171 -0.28,-0.345 -0.417,-0.523c-0.137,-0.179 -0.27,-0.356 -0.399,-0.531c-0.129,-0.176 -0.248,-0.339 -0.359,-0.491c-0.046,-0.064 -0.087,-0.103 -0.122,-0.117c-0.031,-0.011 -0.053,-0.006 -0.067,0.018c-0.014,0.023 -0.018,0.06 -0.014,0.112Z" style="fill:#5fffff;fill-rule:nonzero;"/><path d="M108.103,175.688c0.009,0.108 0.024,0.221 0.043,0.34c0.019,0.119 0.039,0.238 0.061,0.358c0.023,0.12 0.043,0.24 0.063,0.36c0.019,0.121 0.033,0.237 0.043,0.35c0.011,0.126 -0.017,0.214 -0.085,0.263c-0.067,0.05 -0.164,0.051 -0.289,0.004c-0.061,-0.023 -0.121,-0.067 -0.179,-0.131c-0.057,-0.064 -0.093,-0.145 -0.108,-0.243c-0.022,-0.124 -0.044,-0.264 -0.068,-0.418c-0.023,-0.153 -0.045,-0.312 -0.067,-0.475c-0.022,-0.164 -0.043,-0.328 -0.064,-0.494c-0.021,-0.165 -0.041,-0.324 -0.058,-0.475c-0.018,-0.152 -0.034,-0.292 -0.047,-0.42c-0.014,-0.128 -0.024,-0.235 -0.032,-0.323c-0.007,-0.077 -0.009,-0.148 -0.006,-0.214c0.003,-0.066 0.016,-0.119 0.04,-0.16c0.024,-0.04 0.059,-0.066 0.106,-0.078c0.047,-0.012 0.112,-0.003 0.195,0.029c0.064,0.024 0.137,0.078 0.221,0.161c0.084,0.082 0.175,0.186 0.274,0.31c0.099,0.125 0.205,0.265 0.319,0.421c0.113,0.156 0.231,0.319 0.352,0.489c0.121,0.17 0.245,0.343 0.372,0.519c0.127,0.176 0.254,0.346 0.383,0.509c0.058,0.074 0.123,0.159 0.197,0.257c0.073,0.097 0.148,0.191 0.225,0.283c0.077,0.091 0.153,0.173 0.228,0.245c0.076,0.072 0.146,0.12 0.212,0.145c0.062,0.024 0.099,0.007 0.112,-0.048c0.013,-0.056 0.013,-0.153 0.001,-0.292c-0.009,-0.103 -0.027,-0.232 -0.055,-0.389c-0.028,-0.157 -0.062,-0.326 -0.104,-0.508c-0.041,-0.182 -0.089,-0.367 -0.144,-0.556c-0.055,-0.188 -0.114,-0.363 -0.177,-0.526c-0.014,-0.035 -0.027,-0.069 -0.04,-0.103c-0.012,-0.033 -0.02,-0.068 -0.023,-0.104c-0.005,-0.059 0.007,-0.105 0.035,-0.139c0.029,-0.033 0.065,-0.057 0.109,-0.07c0.043,-0.013 0.089,-0.019 0.138,-0.016c0.049,0.002 0.09,0.01 0.123,0.022c0.073,0.028 0.141,0.098 0.207,0.211c0.065,0.113 0.125,0.25 0.181,0.411c0.055,0.161 0.105,0.338 0.15,0.53c0.044,0.191 0.084,0.382 0.119,0.571c0.035,0.19 0.063,0.369 0.085,0.537c0.023,0.168 0.039,0.308 0.049,0.418c0.018,0.208 0.027,0.388 0.027,0.541c-0.001,0.152 -0.019,0.273 -0.054,0.364c-0.035,0.091 -0.094,0.147 -0.174,0.17c-0.081,0.023 -0.193,0.007 -0.335,-0.047c-0.114,-0.044 -0.237,-0.117 -0.367,-0.22c-0.13,-0.102 -0.263,-0.225 -0.4,-0.368c-0.136,-0.142 -0.275,-0.299 -0.416,-0.469c-0.142,-0.17 -0.281,-0.344 -0.417,-0.523c-0.137,-0.178 -0.27,-0.355 -0.399,-0.531c-0.129,-0.176 -0.249,-0.339 -0.36,-0.49c-0.046,-0.065 -0.086,-0.104 -0.121,-0.117c-0.031,-0.012 -0.053,-0.006 -0.067,0.017c-0.014,0.023 -0.019,0.061 -0.014,0.112Z" style="fill:#5fffff;fill-rule:nonzero;"/><path d="M110.954,175.448c-0.082,-0.096 -0.128,-0.19 -0.136,-0.282c-0.003,-0.036 -0.001,-0.069 0.007,-0.1c0.008,-0.03 0.025,-0.058 0.05,-0.083l0.084,-0.091c0.05,-0.06 0.113,-0.076 0.19,-0.046c0.026,0.01 0.055,0.026 0.086,0.049c0.03,0.023 0.062,0.054 0.095,0.094c0.332,0.386 0.652,0.778 0.962,1.175c0.309,0.396 0.612,0.816 0.908,1.258c0.046,0.062 0.084,0.099 0.115,0.111c0.059,0.023 0.091,-0.01 0.096,-0.097l0.17,-1.241c0.02,-0.139 0.08,-0.189 0.181,-0.151c0.022,0.008 0.046,0.021 0.072,0.039c0.026,0.017 0.053,0.041 0.081,0.071l0.122,0.117c0.113,0.111 0.175,0.225 0.186,0.343c0.003,0.038 -0,0.078 -0.009,0.119c-0.046,0.293 -0.091,0.602 -0.135,0.929c-0.045,0.326 -0.09,0.661 -0.136,1.005c-0.046,0.343 -0.094,0.69 -0.143,1.041c-0.05,0.35 -0.102,0.696 -0.157,1.038c-0.021,0.143 -0.09,0.192 -0.206,0.148c-0.033,-0.013 -0.07,-0.034 -0.111,-0.064l-0.112,-0.08c-0.07,-0.047 -0.122,-0.099 -0.157,-0.157c-0.035,-0.058 -0.055,-0.12 -0.061,-0.187c-0.001,-0.015 -0.002,-0.033 -0.003,-0.053c-0.001,-0.02 0.001,-0.039 0.006,-0.057c0.043,-0.279 0.086,-0.555 0.127,-0.83c0.042,-0.274 0.081,-0.551 0.118,-0.829c0.003,-0.016 0.004,-0.031 0.006,-0.043c0.001,-0.012 -0,-0.025 -0.001,-0.041c-0.003,-0.03 -0.011,-0.062 -0.026,-0.095c-0.014,-0.033 -0.033,-0.067 -0.055,-0.103c-0.345,-0.518 -0.701,-1.017 -1.069,-1.497c-0.368,-0.479 -0.75,-0.949 -1.145,-1.41Z" style="fill:#5fffff;fill-rule:nonzero;"/></g><g><path d="M81.622,169.092c-0.011,-0.216 0.084,-0.303 0.285,-0.262l0.187,0.041c0.02,0.003 0.039,0.007 0.055,0.014c0.016,0.007 0.031,0.014 0.046,0.02c0.179,0.078 0.291,0.242 0.335,0.491c0.017,0.12 0.039,0.271 0.065,0.454c0.026,0.182 0.059,0.384 0.097,0.605c0.038,0.221 0.081,0.454 0.129,0.698c0.048,0.245 0.101,0.488 0.158,0.729c0.058,0.241 0.121,0.473 0.19,0.697c0.068,0.224 0.143,0.428 0.224,0.611c0.081,0.184 0.167,0.339 0.258,0.466c0.091,0.126 0.188,0.212 0.291,0.257c0.073,0.031 0.146,0.038 0.218,0.02c0.073,-0.018 0.144,-0.052 0.213,-0.103c0.07,-0.051 0.136,-0.113 0.198,-0.188c0.063,-0.076 0.119,-0.155 0.17,-0.238c0.05,-0.084 0.096,-0.166 0.136,-0.245c0.041,-0.08 0.073,-0.151 0.096,-0.213c0.014,-0.057 0.02,-0.112 0.017,-0.166c-0.001,-0.027 -0.004,-0.054 -0.008,-0.082c-0.004,-0.029 -0.01,-0.059 -0.017,-0.092c-0.066,-0.233 -0.119,-0.46 -0.159,-0.682c-0.039,-0.221 -0.065,-0.453 -0.077,-0.695c-0.007,-0.142 -0.004,-0.277 0.01,-0.406c0.014,-0.129 0.043,-0.24 0.087,-0.333c0.024,-0.049 0.061,-0.084 0.112,-0.105c0.05,-0.021 0.107,-0.031 0.169,-0.031c0.061,0.001 0.127,0.01 0.195,0.028c0.069,0.018 0.132,0.04 0.191,0.066c0.065,0.028 0.124,0.067 0.178,0.119c0.055,0.051 0.104,0.12 0.148,0.205c0.089,0.164 0.154,0.335 0.196,0.515c0.042,0.179 0.067,0.353 0.075,0.522c0.009,0.181 0.004,0.361 -0.017,0.538c-0.02,0.178 -0.046,0.352 -0.077,0.523c-0.019,0.038 -0.026,0.086 -0.024,0.143c0.002,0.027 0.007,0.057 0.016,0.091c0.008,0.033 0.02,0.071 0.033,0.113c0.061,0.181 0.131,0.369 0.211,0.563c0.08,0.195 0.17,0.378 0.271,0.55c0.1,0.172 0.211,0.326 0.333,0.461c0.122,0.135 0.257,0.235 0.407,0.3c0.132,0.057 0.248,0.045 0.348,-0.037c0.099,-0.083 0.18,-0.206 0.243,-0.37c0.062,-0.164 0.107,-0.353 0.134,-0.567c0.026,-0.214 0.035,-0.425 0.025,-0.634c-0.011,-0.222 -0.029,-0.444 -0.055,-0.666c-0.025,-0.222 -0.054,-0.429 -0.086,-0.621c-0.007,-0.019 -0.011,-0.037 -0.011,-0.054c-0.001,-0.017 -0.002,-0.034 -0.003,-0.051c-0.009,-0.192 0.074,-0.284 0.25,-0.277l0.194,0.01c0.055,0.004 0.106,0.016 0.153,0.037c0.156,0.067 0.255,0.219 0.298,0.455c0.043,0.223 0.079,0.443 0.108,0.66c0.03,0.217 0.049,0.43 0.06,0.638c0.021,0.445 -0.004,0.842 -0.076,1.193c-0.072,0.351 -0.182,0.637 -0.331,0.858c-0.149,0.22 -0.331,0.366 -0.546,0.438c-0.215,0.072 -0.456,0.05 -0.723,-0.066c-0.262,-0.114 -0.529,-0.318 -0.802,-0.612c-0.274,-0.295 -0.527,-0.686 -0.761,-1.172c-0.045,-0.106 -0.094,-0.17 -0.147,-0.193c-0.05,-0.021 -0.094,0.003 -0.13,0.072c-0.093,0.164 -0.197,0.308 -0.312,0.431c-0.114,0.124 -0.238,0.219 -0.369,0.288c-0.132,0.068 -0.271,0.105 -0.418,0.11c-0.146,0.006 -0.296,-0.024 -0.448,-0.09c-0.247,-0.107 -0.468,-0.278 -0.662,-0.512c-0.194,-0.234 -0.365,-0.508 -0.515,-0.823c-0.149,-0.315 -0.278,-0.659 -0.389,-1.031c-0.11,-0.373 -0.205,-0.752 -0.286,-1.138c-0.081,-0.385 -0.15,-0.767 -0.207,-1.145c-0.058,-0.377 -0.109,-0.729 -0.153,-1.054l-0.004,-0.076Z" style="fill:#5fffff;fill-rule:nonzero;"/><path d="M89.597,175.947c-0.05,-0.021 -0.089,-0.066 -0.116,-0.134c-0.028,-0.068 -0.045,-0.154 -0.05,-0.259c-0.001,-0.017 -0.001,-0.036 -0.003,-0.058c-0.001,-0.022 -0,-0.063 0.003,-0.125c-0.003,-0.238 0.094,-0.334 0.292,-0.288l0.101,0.033c0.067,0.02 0.119,0.018 0.155,-0.004c0.036,-0.022 0.062,-0.065 0.076,-0.128c0.04,-0.17 0.081,-0.342 0.121,-0.516c0.04,-0.173 0.084,-0.344 0.13,-0.512c0.024,-0.095 0.049,-0.197 0.074,-0.306c0.025,-0.11 0.052,-0.217 0.083,-0.323c0.031,-0.105 0.068,-0.206 0.11,-0.303c0.043,-0.097 0.093,-0.18 0.15,-0.251c0.024,-0.029 0.059,-0.055 0.104,-0.079c0.045,-0.023 0.096,-0.04 0.155,-0.049c0.058,-0.009 0.122,-0.01 0.19,-0.002c0.067,0.008 0.135,0.027 0.203,0.056c0.088,0.038 0.176,0.108 0.265,0.209c0.119,0.14 0.237,0.299 0.355,0.475c0.118,0.176 0.251,0.394 0.399,0.652c0.147,0.259 0.319,0.568 0.515,0.928c0.196,0.36 0.432,0.794 0.707,1.302c0.04,0.067 0.083,0.122 0.127,0.166c0.043,0.044 0.095,0.078 0.153,0.104l0.252,0.109c0.102,0.044 0.184,0.107 0.244,0.187c0.06,0.08 0.092,0.169 0.097,0.267c0.001,0.02 0.002,0.043 0.001,0.07c-0,0.026 -0.004,0.051 -0.011,0.074l-0.07,0.246c-0.005,0.025 -0.008,0.046 -0.01,0.065c-0.002,0.019 -0.002,0.039 -0.001,0.059c0.003,0.071 0.027,0.152 0.072,0.244l0.508,0.941c0.057,0.114 0.088,0.212 0.092,0.292c0.006,0.122 -0.049,0.202 -0.165,0.24l-0.161,0.064c-0.04,0.013 -0.077,0.019 -0.113,0.02c-0.036,0.001 -0.073,-0.007 -0.112,-0.023c-0.052,-0.023 -0.102,-0.062 -0.15,-0.117c-0.047,-0.055 -0.093,-0.122 -0.137,-0.201c-0.152,-0.29 -0.305,-0.577 -0.458,-0.86c-0.154,-0.284 -0.309,-0.568 -0.467,-0.85c-0.073,-0.137 -0.165,-0.23 -0.277,-0.278c-0.357,-0.139 -0.711,-0.27 -1.061,-0.393c-0.349,-0.124 -0.699,-0.241 -1.05,-0.354c-0.126,-0.041 -0.201,0.002 -0.227,0.129l-0.157,0.748c-0.042,0.199 -0.154,0.259 -0.336,0.18l-0.071,-0.03l-0.137,-0.08c-0.101,-0.053 -0.178,-0.121 -0.233,-0.204c-0.054,-0.083 -0.084,-0.173 -0.088,-0.271c-0.001,-0.02 -0.001,-0.041 0.001,-0.064c0.002,-0.022 0.005,-0.045 0.009,-0.07c0.012,-0.061 0.024,-0.123 0.036,-0.187c0.013,-0.063 0.027,-0.125 0.041,-0.185c0.005,-0.024 0.008,-0.047 0.01,-0.067c0.002,-0.021 0.002,-0.041 0.001,-0.061c-0.005,-0.105 -0.043,-0.172 -0.113,-0.203l-0.058,-0.025Zm1.967,-1.757c-0.031,-0.043 -0.058,-0.08 -0.083,-0.11c-0.024,-0.03 -0.05,-0.051 -0.076,-0.063c-0.074,-0.032 -0.122,0.005 -0.146,0.11c-0.049,0.173 -0.096,0.345 -0.141,0.515c-0.044,0.17 -0.09,0.344 -0.136,0.522c-0.005,0.014 -0.007,0.028 -0.006,0.041c-0,0.014 0.001,0.029 0.002,0.046c0.006,0.124 0.066,0.211 0.181,0.261l0.044,0.019c0.175,0.049 0.35,0.105 0.526,0.166c0.175,0.061 0.351,0.125 0.527,0.191c0.058,0.019 0.104,0.021 0.136,0.007c0.032,-0.014 0.047,-0.044 0.045,-0.091c-0.002,-0.044 -0.022,-0.104 -0.06,-0.18c-0.133,-0.242 -0.266,-0.481 -0.4,-0.719c-0.134,-0.238 -0.272,-0.476 -0.413,-0.715Z" style="fill:#5fffff;fill-rule:nonzero;"/><path d="M96.217,180.135c-0.085,-0.02 -0.16,-0.034 -0.227,-0.041c-0.066,-0.008 -0.149,-0.033 -0.249,-0.076c-0.109,-0.047 -0.194,-0.119 -0.257,-0.215c-0.062,-0.096 -0.095,-0.188 -0.099,-0.276c-0.004,-0.07 0.002,-0.158 0.017,-0.262c0.015,-0.103 0.02,-0.213 0.014,-0.327c-0.042,-0.443 -0.09,-0.885 -0.145,-1.326c-0.054,-0.44 -0.106,-0.844 -0.156,-1.212c-0.05,-0.367 -0.092,-0.681 -0.128,-0.942c-0.036,-0.261 -0.056,-0.437 -0.061,-0.528c-0.003,-0.061 0.008,-0.111 0.032,-0.152c0.024,-0.041 0.058,-0.071 0.103,-0.091c0.045,-0.02 0.099,-0.028 0.161,-0.022c0.062,0.005 0.128,0.023 0.199,0.054c0.138,0.06 0.24,0.128 0.307,0.205c0.067,0.077 0.111,0.172 0.131,0.286c0.118,0.76 0.21,1.45 0.276,2.07c0.066,0.62 0.12,1.197 0.16,1.732c0.004,0.078 0.025,0.145 0.064,0.201c0.039,0.056 0.088,0.097 0.146,0.123c0.118,0.051 0.237,0.095 0.356,0.132c0.12,0.037 0.24,0.073 0.359,0.108c0.12,0.036 0.239,0.071 0.357,0.108c0.118,0.036 0.233,0.079 0.345,0.127c0.073,0.032 0.133,0.068 0.18,0.108c0.046,0.039 0.083,0.082 0.11,0.126c0.026,0.045 0.044,0.09 0.054,0.135c0.009,0.045 0.015,0.088 0.017,0.128c0.003,0.064 0,0.126 -0.008,0.185c-0.009,0.058 -0.027,0.108 -0.054,0.147c-0.026,0.039 -0.064,0.066 -0.112,0.08c-0.048,0.014 -0.111,0.007 -0.187,-0.019c-0.359,-0.116 -0.687,-0.229 -0.985,-0.338c-0.297,-0.109 -0.537,-0.185 -0.72,-0.228Z" style="fill:#5fffff;fill-rule:nonzero;"/><path d="M99.428,177.443c-0.058,0.002 -0.114,-0.009 -0.17,-0.034c-0.141,-0.061 -0.243,-0.199 -0.305,-0.414c-0.017,-0.056 -0.029,-0.103 -0.035,-0.138c-0.006,-0.036 -0.01,-0.067 -0.011,-0.094c-0.008,-0.158 0.064,-0.242 0.216,-0.252c0.302,-0.008 0.611,0.014 0.927,0.065c0.316,0.051 0.637,0.147 0.963,0.289c0.153,0.066 0.304,0.15 0.454,0.251c0.15,0.101 0.286,0.223 0.408,0.365c0.122,0.141 0.224,0.304 0.305,0.487c0.081,0.184 0.127,0.39 0.138,0.619c0.008,0.161 -0.013,0.304 -0.063,0.427c-0.05,0.123 -0.119,0.232 -0.206,0.326c-0.088,0.094 -0.189,0.175 -0.303,0.244c-0.115,0.069 -0.233,0.127 -0.354,0.173c-0.122,0.046 -0.242,0.084 -0.361,0.113c-0.12,0.029 -0.228,0.052 -0.325,0.07c-0.082,0.02 -0.122,0.06 -0.119,0.121c0.004,0.071 0.052,0.146 0.145,0.226c0.32,0.264 0.648,0.523 0.983,0.777c0.334,0.253 0.674,0.522 1.018,0.807c0.162,0.136 0.247,0.274 0.254,0.416c0.003,0.067 -0.011,0.128 -0.041,0.182c-0.03,0.055 -0.065,0.102 -0.103,0.141c-0.078,0.108 -0.18,0.134 -0.307,0.08c-0.044,-0.019 -0.099,-0.053 -0.164,-0.101c-0.195,-0.167 -0.405,-0.343 -0.628,-0.529c-0.223,-0.186 -0.451,-0.373 -0.683,-0.561c-0.232,-0.187 -0.46,-0.37 -0.685,-0.548c-0.224,-0.178 -0.432,-0.342 -0.623,-0.49c-0.069,-0.05 -0.115,-0.08 -0.139,-0.09c-0.023,-0.01 -0.041,-0.012 -0.054,-0.006c-0.012,0.006 -0.018,0.028 -0.016,0.065c0,0.01 0.003,0.023 0.006,0.039c0.004,0.017 0.006,0.033 0.007,0.05c0.011,0.055 0.026,0.126 0.043,0.214c0.017,0.088 0.034,0.179 0.052,0.272c0.018,0.094 0.033,0.182 0.045,0.265c0.013,0.082 0.021,0.149 0.023,0.2c0.009,0.188 -0.074,0.281 -0.249,0.277l-0.195,-0.015c-0.029,-0.003 -0.055,-0.007 -0.079,-0.012c-0.023,-0.005 -0.048,-0.013 -0.074,-0.025c-0.162,-0.07 -0.261,-0.225 -0.299,-0.465c-0.101,-0.643 -0.221,-1.287 -0.36,-1.931c-0.139,-0.643 -0.294,-1.292 -0.464,-1.945c-0.01,-0.038 -0.017,-0.069 -0.02,-0.095c-0.003,-0.026 -0.004,-0.049 -0.005,-0.069c-0.009,-0.179 0.069,-0.264 0.233,-0.255c0.061,0.003 0.11,0.006 0.149,0.01c0.039,0.004 0.071,0.007 0.096,0.009c0.024,0.003 0.043,0.005 0.056,0.007c0.013,0.003 0.026,0.006 0.037,0.012c0.159,0.068 0.267,0.216 0.324,0.441c0.075,0.29 0.145,0.569 0.211,0.838c0.067,0.269 0.128,0.533 0.184,0.791c0.029,0.128 0.074,0.206 0.136,0.232c0.018,0.008 0.038,0.013 0.061,0.015c0.023,0.001 0.051,0.001 0.082,-0.002c0.091,-0.017 0.202,-0.038 0.331,-0.064c0.13,-0.026 0.265,-0.059 0.405,-0.099c0.141,-0.04 0.279,-0.086 0.416,-0.139c0.137,-0.052 0.259,-0.111 0.367,-0.177c0.107,-0.065 0.194,-0.138 0.259,-0.219c0.065,-0.08 0.095,-0.17 0.09,-0.267c-0.003,-0.061 -0.014,-0.12 -0.032,-0.177c-0.019,-0.058 -0.051,-0.115 -0.097,-0.171c-0.046,-0.056 -0.107,-0.11 -0.183,-0.163c-0.076,-0.053 -0.171,-0.104 -0.286,-0.153c-0.111,-0.049 -0.228,-0.088 -0.348,-0.119c-0.121,-0.031 -0.241,-0.054 -0.36,-0.07c-0.118,-0.015 -0.235,-0.024 -0.35,-0.028c-0.116,-0.004 -0.225,-0.003 -0.328,0.001Z" style="fill:#5fffff;fill-rule:nonzero;"/><path d="M102.937,178.643c0.012,-0.111 0.058,-0.177 0.137,-0.201c0.08,-0.023 0.215,0.007 0.406,0.09c0.103,0.044 0.184,0.109 0.244,0.195c0.061,0.085 0.094,0.182 0.099,0.289c0.001,0.017 0,0.032 -0.002,0.044c-0.003,0.012 -0.003,0.026 -0.003,0.043c-0.021,0.205 -0.036,0.421 -0.046,0.648c-0.009,0.226 -0.007,0.461 0.005,0.703c0.015,0.313 0.054,0.619 0.116,0.918c0.062,0.299 0.161,0.579 0.296,0.84c0.135,0.261 0.313,0.498 0.535,0.711c0.222,0.213 0.5,0.392 0.835,0.537c0.188,0.082 0.352,0.115 0.492,0.1c0.14,-0.015 0.255,-0.07 0.344,-0.165c0.089,-0.095 0.153,-0.225 0.192,-0.389c0.039,-0.164 0.054,-0.354 0.043,-0.569c-0.01,-0.216 -0.04,-0.436 -0.09,-0.662c-0.05,-0.226 -0.113,-0.455 -0.189,-0.687c-0.076,-0.233 -0.163,-0.467 -0.259,-0.703c-0.096,-0.236 -0.198,-0.476 -0.305,-0.72c-0.046,-0.109 -0.07,-0.201 -0.074,-0.275c-0.006,-0.131 0.049,-0.216 0.165,-0.255l0.174,-0.058c0.076,-0.026 0.149,-0.024 0.22,0.007c0.109,0.047 0.203,0.162 0.284,0.345c0.123,0.274 0.241,0.549 0.356,0.824c0.114,0.275 0.216,0.551 0.305,0.827c0.09,0.276 0.164,0.553 0.222,0.83c0.058,0.277 0.094,0.552 0.107,0.825c0.019,0.38 -0.019,0.703 -0.114,0.969c-0.095,0.265 -0.238,0.466 -0.43,0.602c-0.191,0.136 -0.426,0.204 -0.704,0.204c-0.277,0 -0.589,-0.075 -0.936,-0.225c-0.376,-0.163 -0.714,-0.383 -1.014,-0.659c-0.299,-0.277 -0.555,-0.591 -0.768,-0.941c-0.213,-0.351 -0.38,-0.73 -0.5,-1.136c-0.121,-0.407 -0.191,-0.822 -0.212,-1.246c-0.015,-0.296 -0.014,-0.587 0.002,-0.871c0.017,-0.285 0.039,-0.548 0.067,-0.789Z" style="fill:#5fffff;fill-rule:nonzero;"/><path d="M109.082,183.346c0.01,0.202 0.062,0.408 0.158,0.619c0.095,0.211 0.216,0.412 0.363,0.603c0.148,0.19 0.314,0.361 0.5,0.513c0.186,0.151 0.374,0.268 0.565,0.351c0.059,0.025 0.119,0.045 0.18,0.06c0.061,0.015 0.116,0.018 0.164,0.01c0.049,-0.009 0.088,-0.031 0.118,-0.065c0.03,-0.035 0.043,-0.09 0.039,-0.164c-0.007,-0.141 -0.057,-0.3 -0.15,-0.475c-0.094,-0.176 -0.214,-0.362 -0.362,-0.56c-0.148,-0.197 -0.316,-0.404 -0.505,-0.619c-0.189,-0.215 -0.38,-0.431 -0.575,-0.647c-0.195,-0.216 -0.386,-0.432 -0.575,-0.647c-0.189,-0.215 -0.357,-0.422 -0.505,-0.619c-0.148,-0.197 -0.268,-0.385 -0.362,-0.562c-0.093,-0.177 -0.144,-0.337 -0.151,-0.478c-0.006,-0.135 0.018,-0.247 0.072,-0.337c0.055,-0.09 0.13,-0.161 0.225,-0.212c0.095,-0.051 0.207,-0.085 0.336,-0.101c0.128,-0.017 0.263,-0.02 0.405,-0.008c0.141,0.012 0.284,0.037 0.428,0.075c0.145,0.037 0.283,0.085 0.415,0.142c0.097,0.042 0.204,0.091 0.32,0.146c0.116,0.056 0.226,0.118 0.328,0.187c0.103,0.069 0.189,0.144 0.259,0.223c0.07,0.08 0.108,0.167 0.112,0.261c0.002,0.031 -0.001,0.067 -0.007,0.108c-0.007,0.042 -0.028,0.106 -0.064,0.193c-0.037,0.079 -0.081,0.132 -0.133,0.157c-0.052,0.025 -0.12,0.02 -0.206,-0.017c-0.12,-0.052 -0.248,-0.123 -0.383,-0.213c-0.135,-0.09 -0.271,-0.164 -0.406,-0.223c-0.073,-0.032 -0.147,-0.06 -0.222,-0.084c-0.074,-0.024 -0.142,-0.038 -0.202,-0.043c-0.061,-0.005 -0.109,0.005 -0.145,0.031c-0.037,0.025 -0.053,0.07 -0.05,0.134c0.003,0.064 0.047,0.154 0.132,0.27c0.085,0.116 0.196,0.251 0.335,0.407c0.138,0.155 0.295,0.328 0.472,0.518c0.176,0.19 0.356,0.39 0.54,0.6c0.184,0.21 0.365,0.427 0.543,0.65c0.178,0.224 0.338,0.448 0.48,0.673c0.141,0.224 0.257,0.447 0.347,0.667c0.09,0.22 0.14,0.429 0.15,0.628c0.011,0.242 -0.027,0.435 -0.114,0.578c-0.088,0.143 -0.206,0.244 -0.352,0.303c-0.147,0.058 -0.311,0.078 -0.493,0.06c-0.182,-0.018 -0.362,-0.065 -0.538,-0.141c-0.179,-0.078 -0.362,-0.181 -0.548,-0.309c-0.186,-0.129 -0.366,-0.274 -0.541,-0.437c-0.175,-0.163 -0.339,-0.34 -0.494,-0.531c-0.155,-0.19 -0.29,-0.387 -0.406,-0.591c-0.117,-0.204 -0.211,-0.41 -0.283,-0.619c-0.072,-0.209 -0.113,-0.413 -0.123,-0.612c-0.004,-0.084 -0.003,-0.167 0.003,-0.248c0.006,-0.081 0.021,-0.149 0.044,-0.203c0.023,-0.055 0.057,-0.093 0.102,-0.114c0.045,-0.022 0.104,-0.017 0.178,0.015c0.023,0.01 0.05,0.024 0.08,0.042c0.029,0.018 0.081,0.056 0.156,0.115c0.087,0.067 0.165,0.148 0.234,0.242c0.07,0.094 0.107,0.193 0.112,0.298Z" style="fill:#5fffff;fill-rule:nonzero;"/><path d="M112.517,185.13c-0.083,-0.035 -0.152,-0.104 -0.209,-0.206c-0.057,-0.102 -0.089,-0.229 -0.096,-0.38c-0.007,-0.135 0.041,-0.213 0.144,-0.235c0.102,-0.021 0.279,0.009 0.53,0.092c0.082,0.025 0.19,0.058 0.322,0.097c0.133,0.04 0.269,0.08 0.407,0.122c0.139,0.042 0.27,0.084 0.395,0.124c0.124,0.041 0.221,0.076 0.292,0.107c0.109,0.047 0.195,0.121 0.259,0.221c0.064,0.1 0.1,0.244 0.109,0.433c0.01,0.195 -0.153,0.24 -0.489,0.134c-0.044,-0.013 -0.109,-0.032 -0.195,-0.057c-0.086,-0.026 -0.183,-0.054 -0.291,-0.084c-0.108,-0.031 -0.221,-0.063 -0.339,-0.098c-0.118,-0.035 -0.231,-0.069 -0.339,-0.102c-0.108,-0.034 -0.207,-0.065 -0.296,-0.094c-0.089,-0.029 -0.157,-0.053 -0.204,-0.074Z" style="fill:#5fffff;fill-rule:nonzero;"/><path d="M115.175,183.395c-0.003,-0.06 0.007,-0.111 0.031,-0.151c0.024,-0.041 0.059,-0.071 0.104,-0.089c0.045,-0.018 0.098,-0.026 0.16,-0.022c0.062,0.004 0.129,0.021 0.199,0.052c0.138,0.059 0.241,0.129 0.308,0.207c0.067,0.079 0.111,0.175 0.131,0.289c0.072,0.469 0.134,0.911 0.188,1.324c0.053,0.414 0.099,0.806 0.137,1.177c0.038,0.371 0.07,0.724 0.095,1.059c0.025,0.336 0.045,0.658 0.06,0.968c0.009,0.168 -0.037,0.272 -0.137,0.311c-0.101,0.039 -0.251,0.015 -0.45,-0.071c-0.092,-0.04 -0.164,-0.095 -0.218,-0.166c-0.054,-0.071 -0.083,-0.154 -0.087,-0.248c-0.029,-0.579 -0.071,-1.129 -0.126,-1.649c-0.056,-0.52 -0.113,-0.985 -0.17,-1.395c-0.058,-0.411 -0.108,-0.755 -0.152,-1.033c-0.044,-0.277 -0.068,-0.465 -0.073,-0.563Z" style="fill:#5fffff;fill-rule:nonzero;"/><path d="M118.271,187.327c0.01,0.202 0.062,0.408 0.157,0.619c0.095,0.211 0.217,0.412 0.364,0.602c0.147,0.191 0.314,0.362 0.5,0.513c0.185,0.152 0.374,0.269 0.565,0.351c0.059,0.026 0.118,0.046 0.18,0.061c0.061,0.015 0.116,0.018 0.164,0.009c0.048,-0.008 0.088,-0.03 0.118,-0.065c0.029,-0.035 0.043,-0.089 0.039,-0.163c-0.007,-0.141 -0.057,-0.3 -0.151,-0.475c-0.093,-0.176 -0.214,-0.363 -0.361,-0.56c-0.148,-0.197 -0.316,-0.404 -0.505,-0.619c-0.189,-0.215 -0.381,-0.431 -0.575,-0.647c-0.195,-0.216 -0.387,-0.432 -0.576,-0.647c-0.188,-0.215 -0.357,-0.422 -0.504,-0.619c-0.148,-0.198 -0.269,-0.385 -0.362,-0.562c-0.094,-0.178 -0.144,-0.337 -0.151,-0.478c-0.007,-0.135 0.017,-0.247 0.072,-0.337c0.055,-0.09 0.129,-0.161 0.225,-0.212c0.095,-0.051 0.207,-0.085 0.336,-0.102c0.128,-0.016 0.263,-0.019 0.405,-0.007c0.141,0.012 0.284,0.037 0.428,0.074c0.144,0.038 0.283,0.086 0.415,0.143c0.097,0.042 0.203,0.091 0.32,0.146c0.116,0.055 0.225,0.118 0.328,0.187c0.103,0.069 0.189,0.143 0.259,0.223c0.07,0.08 0.107,0.167 0.112,0.261c0.002,0.031 -0.001,0.066 -0.008,0.108c-0.006,0.042 -0.028,0.106 -0.064,0.192c-0.036,0.08 -0.08,0.133 -0.132,0.158c-0.052,0.025 -0.121,0.019 -0.206,-0.017c-0.12,-0.053 -0.248,-0.124 -0.383,-0.214c-0.136,-0.09 -0.271,-0.164 -0.406,-0.222c-0.073,-0.032 -0.147,-0.06 -0.222,-0.084c-0.074,-0.024 -0.142,-0.039 -0.203,-0.043c-0.06,-0.005 -0.109,0.005 -0.145,0.031c-0.036,0.025 -0.052,0.07 -0.049,0.134c0.003,0.064 0.047,0.154 0.132,0.27c0.084,0.115 0.196,0.251 0.334,0.407c0.139,0.155 0.296,0.328 0.472,0.518c0.176,0.19 0.357,0.39 0.541,0.6c0.184,0.21 0.365,0.427 0.543,0.65c0.178,0.224 0.337,0.448 0.479,0.672c0.142,0.225 0.258,0.447 0.348,0.668c0.09,0.22 0.14,0.429 0.149,0.628c0.012,0.242 -0.026,0.435 -0.114,0.578c-0.088,0.143 -0.205,0.244 -0.352,0.302c-0.146,0.059 -0.311,0.079 -0.493,0.061c-0.182,-0.018 -0.361,-0.065 -0.537,-0.141c-0.179,-0.078 -0.362,-0.181 -0.548,-0.309c-0.186,-0.129 -0.366,-0.274 -0.541,-0.438c-0.175,-0.163 -0.34,-0.339 -0.494,-0.53c-0.155,-0.19 -0.29,-0.387 -0.407,-0.591c-0.116,-0.204 -0.21,-0.41 -0.282,-0.619c-0.072,-0.209 -0.113,-0.413 -0.123,-0.612c-0.004,-0.084 -0.003,-0.167 0.003,-0.248c0.006,-0.082 0.021,-0.149 0.044,-0.204c0.023,-0.054 0.057,-0.092 0.102,-0.114c0.045,-0.021 0.104,-0.016 0.178,0.016c0.023,0.01 0.05,0.024 0.079,0.042c0.03,0.017 0.082,0.056 0.157,0.114c0.087,0.068 0.165,0.148 0.234,0.243c0.069,0.094 0.107,0.193 0.112,0.298Z" style="fill:#5fffff;fill-rule:nonzero;"/><path d="M122.836,191.667c-0.085,-0.02 -0.16,-0.034 -0.227,-0.041c-0.066,-0.008 -0.149,-0.033 -0.249,-0.076c-0.109,-0.048 -0.194,-0.119 -0.257,-0.215c-0.062,-0.096 -0.095,-0.188 -0.099,-0.276c-0.004,-0.071 0.002,-0.158 0.017,-0.262c0.015,-0.104 0.02,-0.213 0.014,-0.327c-0.042,-0.443 -0.09,-0.885 -0.145,-1.326c-0.054,-0.44 -0.106,-0.844 -0.156,-1.212c-0.05,-0.367 -0.092,-0.681 -0.128,-0.942c-0.036,-0.261 -0.056,-0.437 -0.061,-0.528c-0.003,-0.061 0.008,-0.111 0.032,-0.152c0.024,-0.041 0.058,-0.071 0.103,-0.091c0.045,-0.02 0.099,-0.028 0.161,-0.022c0.062,0.005 0.128,0.023 0.199,0.054c0.138,0.06 0.24,0.128 0.307,0.205c0.067,0.077 0.111,0.172 0.131,0.286c0.118,0.76 0.21,1.449 0.276,2.07c0.066,0.62 0.12,1.197 0.16,1.732c0.004,0.078 0.025,0.145 0.064,0.201c0.039,0.056 0.088,0.097 0.146,0.123c0.118,0.05 0.237,0.094 0.356,0.132c0.12,0.037 0.24,0.073 0.359,0.108c0.12,0.035 0.239,0.071 0.357,0.108c0.118,0.036 0.233,0.079 0.345,0.127c0.073,0.032 0.133,0.068 0.18,0.108c0.046,0.039 0.083,0.082 0.11,0.126c0.026,0.045 0.044,0.089 0.054,0.135c0.009,0.045 0.015,0.088 0.017,0.128c0.003,0.064 0,0.126 -0.008,0.185c-0.009,0.058 -0.027,0.108 -0.054,0.147c-0.026,0.039 -0.064,0.066 -0.112,0.08c-0.048,0.013 -0.111,0.007 -0.187,-0.019c-0.359,-0.116 -0.687,-0.229 -0.985,-0.338c-0.297,-0.109 -0.537,-0.185 -0.72,-0.228Z" style="fill:#5fffff;fill-rule:nonzero;"/><path d="M124.846,191.218c-0.05,-0.022 -0.089,-0.067 -0.117,-0.135c-0.028,-0.068 -0.044,-0.154 -0.049,-0.258c-0.001,-0.017 -0.002,-0.036 -0.003,-0.058c-0.001,-0.022 0,-0.064 0.002,-0.125c-0.003,-0.239 0.095,-0.335 0.292,-0.289l0.101,0.034c0.067,0.019 0.119,0.018 0.155,-0.005c0.037,-0.022 0.062,-0.064 0.076,-0.127c0.041,-0.171 0.081,-0.343 0.121,-0.516c0.041,-0.174 0.084,-0.345 0.131,-0.512c0.024,-0.095 0.048,-0.198 0.073,-0.307c0.025,-0.11 0.053,-0.217 0.083,-0.322c0.031,-0.105 0.068,-0.207 0.111,-0.303c0.042,-0.097 0.092,-0.181 0.149,-0.252c0.025,-0.029 0.059,-0.055 0.104,-0.078c0.045,-0.024 0.097,-0.04 0.155,-0.049c0.059,-0.01 0.122,-0.01 0.19,-0.002c0.068,0.008 0.136,0.026 0.203,0.056c0.088,0.038 0.177,0.107 0.265,0.208c0.119,0.141 0.237,0.299 0.355,0.476c0.118,0.176 0.251,0.393 0.399,0.652c0.148,0.258 0.32,0.567 0.516,0.927c0.196,0.36 0.431,0.794 0.706,1.302c0.041,0.067 0.083,0.123 0.127,0.166c0.044,0.044 0.095,0.079 0.154,0.104l0.251,0.109c0.103,0.045 0.184,0.107 0.244,0.187c0.06,0.081 0.093,0.17 0.097,0.267c0.001,0.021 0.002,0.044 0.002,0.07c0,0.026 -0.004,0.051 -0.012,0.074l-0.07,0.247c-0.004,0.024 -0.007,0.046 -0.009,0.065c-0.002,0.019 -0.003,0.038 -0.002,0.058c0.004,0.071 0.028,0.152 0.073,0.244l0.507,0.942c0.058,0.114 0.088,0.211 0.092,0.292c0.006,0.121 -0.049,0.201 -0.165,0.24l-0.161,0.063c-0.039,0.013 -0.077,0.02 -0.113,0.021c-0.036,-0 -0.073,-0.007 -0.111,-0.024c-0.053,-0.023 -0.103,-0.062 -0.15,-0.117c-0.048,-0.055 -0.093,-0.122 -0.137,-0.2c-0.153,-0.29 -0.306,-0.577 -0.459,-0.861c-0.153,-0.284 -0.309,-0.567 -0.466,-0.85c-0.073,-0.137 -0.166,-0.229 -0.277,-0.278c-0.358,-0.138 -0.711,-0.269 -1.061,-0.393c-0.35,-0.123 -0.7,-0.241 -1.051,-0.353c-0.125,-0.042 -0.201,0.001 -0.226,0.129l-0.158,0.747c-0.042,0.199 -0.154,0.26 -0.336,0.181l-0.07,-0.031l-0.138,-0.079c-0.1,-0.054 -0.178,-0.122 -0.232,-0.205c-0.055,-0.083 -0.084,-0.173 -0.089,-0.27c-0.001,-0.021 -0.001,-0.042 0.001,-0.064c0.002,-0.022 0.005,-0.046 0.01,-0.07c0.011,-0.061 0.023,-0.123 0.036,-0.187c0.013,-0.064 0.026,-0.126 0.04,-0.185c0.005,-0.025 0.008,-0.047 0.01,-0.068c0.002,-0.02 0.002,-0.041 0.001,-0.061c-0.005,-0.104 -0.043,-0.172 -0.113,-0.202l-0.057,-0.025Zm1.967,-1.758c-0.031,-0.043 -0.059,-0.079 -0.083,-0.11c-0.025,-0.03 -0.05,-0.051 -0.077,-0.062c-0.073,-0.032 -0.122,0.004 -0.145,0.109c-0.049,0.174 -0.096,0.345 -0.141,0.515c-0.045,0.17 -0.09,0.344 -0.136,0.522c-0.005,0.014 -0.008,0.028 -0.007,0.042c0.001,0.013 0.001,0.028 0.002,0.045c0.006,0.125 0.067,0.212 0.181,0.261l0.044,0.019c0.175,0.05 0.351,0.105 0.526,0.166c0.176,0.062 0.351,0.125 0.527,0.192c0.059,0.018 0.104,0.021 0.136,0.007c0.033,-0.014 0.048,-0.045 0.046,-0.092c-0.003,-0.044 -0.023,-0.103 -0.061,-0.179c-0.133,-0.242 -0.266,-0.482 -0.4,-0.72c-0.134,-0.237 -0.271,-0.476 -0.412,-0.715Z" style="fill:#5fffff;fill-rule:nonzero;"/><path d="M131.188,192.478c0.007,0.141 0.02,0.29 0.039,0.447c0.019,0.156 0.041,0.314 0.064,0.472c0.024,0.159 0.045,0.317 0.064,0.475c0.02,0.159 0.033,0.312 0.04,0.46c0.008,0.165 -0.035,0.277 -0.13,0.337c-0.095,0.059 -0.226,0.052 -0.393,-0.02c-0.083,-0.036 -0.161,-0.098 -0.236,-0.186c-0.075,-0.089 -0.12,-0.197 -0.135,-0.325c-0.022,-0.165 -0.045,-0.349 -0.068,-0.551c-0.022,-0.203 -0.044,-0.412 -0.065,-0.627c-0.02,-0.214 -0.04,-0.431 -0.06,-0.648c-0.019,-0.218 -0.036,-0.426 -0.052,-0.626c-0.015,-0.199 -0.029,-0.383 -0.04,-0.551c-0.011,-0.168 -0.019,-0.309 -0.025,-0.424c-0.005,-0.101 -0.004,-0.194 0.004,-0.28c0.007,-0.086 0.028,-0.154 0.063,-0.205c0.035,-0.05 0.084,-0.082 0.148,-0.093c0.065,-0.012 0.152,0.006 0.264,0.054c0.085,0.037 0.183,0.113 0.292,0.228c0.109,0.115 0.227,0.258 0.355,0.428c0.128,0.171 0.264,0.363 0.41,0.576c0.146,0.213 0.296,0.435 0.451,0.667c0.155,0.232 0.314,0.468 0.477,0.709c0.163,0.24 0.327,0.472 0.493,0.695c0.074,0.101 0.158,0.219 0.253,0.352c0.094,0.133 0.191,0.262 0.29,0.388c0.1,0.125 0.199,0.238 0.297,0.338c0.099,0.101 0.192,0.17 0.28,0.208c0.082,0.036 0.134,0.018 0.155,-0.054c0.021,-0.072 0.027,-0.198 0.018,-0.38c-0.007,-0.135 -0.024,-0.306 -0.053,-0.512c-0.029,-0.207 -0.066,-0.431 -0.113,-0.672c-0.046,-0.241 -0.101,-0.486 -0.165,-0.737c-0.064,-0.25 -0.135,-0.484 -0.212,-0.701c-0.016,-0.047 -0.032,-0.093 -0.047,-0.137c-0.015,-0.045 -0.024,-0.091 -0.026,-0.138c-0.004,-0.077 0.014,-0.137 0.056,-0.178c0.041,-0.042 0.091,-0.069 0.151,-0.083c0.06,-0.013 0.123,-0.017 0.189,-0.009c0.067,0.007 0.122,0.02 0.166,0.04c0.097,0.041 0.187,0.139 0.269,0.291c0.082,0.153 0.156,0.337 0.223,0.552c0.067,0.215 0.125,0.449 0.175,0.703c0.05,0.254 0.093,0.506 0.13,0.756c0.036,0.25 0.065,0.485 0.086,0.707c0.021,0.222 0.035,0.405 0.042,0.55c0.013,0.272 0.016,0.508 0.007,0.707c-0.009,0.198 -0.04,0.355 -0.094,0.471c-0.053,0.115 -0.135,0.184 -0.246,0.207c-0.111,0.023 -0.262,-0.007 -0.453,-0.09c-0.153,-0.066 -0.315,-0.172 -0.486,-0.317c-0.171,-0.145 -0.345,-0.316 -0.523,-0.513c-0.178,-0.198 -0.359,-0.413 -0.541,-0.647c-0.183,-0.234 -0.362,-0.473 -0.538,-0.717c-0.176,-0.245 -0.346,-0.487 -0.512,-0.727c-0.166,-0.239 -0.32,-0.463 -0.462,-0.669c-0.059,-0.088 -0.112,-0.143 -0.159,-0.163c-0.041,-0.018 -0.072,-0.012 -0.092,0.017c-0.02,0.029 -0.028,0.077 -0.025,0.145Z" style="fill:#5fffff;fill-rule:nonzero;"/><path d="M135.582,193.077c-0.037,-0.01 -0.069,-0.019 -0.096,-0.027c-0.026,-0.008 -0.048,-0.016 -0.066,-0.024c-0.1,-0.05 -0.172,-0.113 -0.216,-0.19c-0.044,-0.077 -0.069,-0.184 -0.076,-0.322c-0.014,-0.273 0.093,-0.395 0.318,-0.366c0.2,0.034 0.416,0.089 0.647,0.164c0.231,0.075 0.489,0.175 0.774,0.298c0.382,0.165 0.763,0.372 1.145,0.62c0.382,0.247 0.747,0.519 1.097,0.813c0.349,0.295 0.676,0.606 0.979,0.934c0.304,0.328 0.57,0.655 0.797,0.983c0.227,0.327 0.408,0.646 0.543,0.956c0.134,0.311 0.208,0.596 0.221,0.855c0.013,0.262 -0.052,0.479 -0.195,0.649c-0.142,0.171 -0.34,0.291 -0.593,0.359c-0.252,0.069 -0.548,0.082 -0.886,0.041c-0.339,-0.041 -0.696,-0.143 -1.072,-0.306c-0.3,-0.13 -0.614,-0.298 -0.944,-0.503c-0.329,-0.205 -0.694,-0.464 -1.094,-0.776c-0.185,-0.136 -0.283,-0.303 -0.292,-0.502c-0.003,-0.044 0.004,-0.08 0.02,-0.11c0.016,-0.029 0.033,-0.056 0.05,-0.082c0.017,-0.025 0.034,-0.05 0.05,-0.074c0.016,-0.025 0.024,-0.054 0.022,-0.087c-0.01,-0.192 -0.028,-0.401 -0.055,-0.627c-0.026,-0.226 -0.059,-0.454 -0.098,-0.685c-0.038,-0.231 -0.081,-0.454 -0.128,-0.671c-0.046,-0.216 -0.092,-0.41 -0.138,-0.581c-0.046,-0.172 -0.091,-0.312 -0.135,-0.422c-0.044,-0.11 -0.083,-0.172 -0.115,-0.186c-0.05,-0.021 -0.11,-0.041 -0.182,-0.059c-0.071,-0.017 -0.165,-0.042 -0.282,-0.072Zm1.693,0.654c-0.085,-0.037 -0.126,-0.022 -0.123,0.046c0.001,0.017 0.007,0.047 0.018,0.091c0.011,0.044 0.027,0.114 0.049,0.209c0.033,0.153 0.066,0.315 0.097,0.487c0.032,0.172 0.064,0.363 0.097,0.574c0.034,0.21 0.067,0.444 0.101,0.701c0.035,0.257 0.071,0.545 0.11,0.865c0.005,0.052 0.047,0.117 0.126,0.196c0.078,0.078 0.182,0.163 0.31,0.253c0.128,0.09 0.274,0.181 0.438,0.274c0.164,0.092 0.333,0.176 0.506,0.251c0.229,0.099 0.448,0.163 0.655,0.192c0.207,0.029 0.388,0.026 0.543,-0.009c0.155,-0.035 0.277,-0.101 0.365,-0.198c0.089,-0.097 0.13,-0.219 0.122,-0.367c-0.012,-0.246 -0.108,-0.521 -0.288,-0.827c-0.18,-0.305 -0.424,-0.618 -0.73,-0.936c-0.306,-0.319 -0.663,-0.634 -1.073,-0.945c-0.409,-0.31 -0.85,-0.596 -1.323,-0.857Z" style="fill:#5fffff;fill-rule:nonzero;"/></g><g><path d="M113.684,191.65c-0.048,-0.021 -0.093,-0.049 -0.136,-0.085c-0.043,-0.035 -0.081,-0.074 -0.114,-0.117c-0.033,-0.043 -0.059,-0.088 -0.079,-0.136c-0.019,-0.047 -0.03,-0.094 -0.032,-0.139c-0.004,-0.08 0.021,-0.132 0.074,-0.157c0.053,-0.026 0.125,-0.019 0.216,0.021c0.043,0.018 0.085,0.046 0.127,0.081c0.041,0.036 0.078,0.075 0.11,0.119c0.032,0.043 0.058,0.089 0.078,0.137c0.02,0.048 0.032,0.093 0.034,0.137c0.004,0.083 -0.019,0.137 -0.069,0.161c-0.05,0.024 -0.119,0.016 -0.209,-0.022Z" style="fill:#5fffff;fill-rule:nonzero;"/><path d="M114.585,189.843c-0.002,-0.029 0.008,-0.052 0.028,-0.07c0.02,-0.018 0.047,-0.031 0.08,-0.038c0.034,-0.006 0.073,-0.007 0.116,-0.002c0.043,0.004 0.087,0.016 0.132,0.036c0.024,0.01 0.046,0.027 0.064,0.05c0.018,0.023 0.035,0.058 0.05,0.107c0.015,0.048 0.03,0.113 0.045,0.194c0.014,0.082 0.03,0.186 0.046,0.314c0.008,0.041 0.016,0.072 0.023,0.095c0.006,0.022 0.015,0.036 0.025,0.04c0.014,0.006 0.028,-0.017 0.04,-0.069c0.101,-0.348 0.266,-0.472 0.494,-0.373c0.106,0.046 0.205,0.125 0.295,0.239c0.091,0.113 0.178,0.272 0.262,0.476c0.083,0.205 0.166,0.461 0.248,0.771c0.081,0.309 0.166,0.683 0.254,1.122c0.004,0.022 0.008,0.042 0.01,0.06c0.003,0.018 0.004,0.034 0.005,0.049c0.002,0.044 -0.005,0.078 -0.021,0.101c-0.015,0.024 -0.037,0.04 -0.064,0.048c-0.027,0.007 -0.058,0.009 -0.092,0.004c-0.034,-0.004 -0.069,-0.014 -0.104,-0.029c-0.069,-0.03 -0.12,-0.061 -0.151,-0.091c-0.032,-0.03 -0.053,-0.071 -0.063,-0.122c-0.062,-0.309 -0.122,-0.585 -0.178,-0.829c-0.057,-0.243 -0.111,-0.451 -0.162,-0.623c-0.051,-0.171 -0.1,-0.306 -0.147,-0.404c-0.047,-0.099 -0.092,-0.157 -0.135,-0.176c-0.043,-0.018 -0.082,-0.005 -0.116,0.04c-0.034,0.046 -0.066,0.127 -0.094,0.242c-0.028,0.116 -0.054,0.268 -0.076,0.455c-0.023,0.187 -0.042,0.413 -0.058,0.679c-0.005,0.072 -0.035,0.119 -0.09,0.139c-0.056,0.02 -0.129,0.011 -0.218,-0.027c-0.06,-0.026 -0.106,-0.06 -0.139,-0.102c-0.032,-0.042 -0.052,-0.089 -0.057,-0.139c-0.035,-0.401 -0.067,-0.733 -0.097,-0.996c-0.029,-0.262 -0.056,-0.474 -0.078,-0.635c-0.023,-0.161 -0.041,-0.282 -0.054,-0.362c-0.014,-0.08 -0.022,-0.138 -0.023,-0.174Z" style="fill:#5fffff;fill-rule:nonzero;"/><path d="M119.153,193.459c0.045,-0.027 0.091,-0.03 0.138,-0.01c0.026,0.012 0.051,0.03 0.073,0.054c0.022,0.025 0.047,0.059 0.075,0.102c0.027,0.055 0.047,0.098 0.059,0.13c0.012,0.032 0.019,0.062 0.02,0.088c0.003,0.057 -0.019,0.1 -0.067,0.13c-0.075,0.042 -0.158,0.072 -0.248,0.092c-0.09,0.019 -0.184,0.028 -0.283,0.026c-0.099,-0.002 -0.201,-0.015 -0.308,-0.04c-0.106,-0.025 -0.213,-0.06 -0.319,-0.106c-0.134,-0.058 -0.26,-0.132 -0.38,-0.222c-0.119,-0.09 -0.227,-0.191 -0.322,-0.302c-0.095,-0.112 -0.177,-0.233 -0.245,-0.361c-0.068,-0.129 -0.118,-0.263 -0.151,-0.401c-0.017,-0.06 -0.033,-0.1 -0.046,-0.122c-0.013,-0.021 -0.034,-0.038 -0.062,-0.05c-0.061,-0.027 -0.109,-0.064 -0.144,-0.113c-0.035,-0.048 -0.054,-0.105 -0.057,-0.169c-0.001,-0.027 0,-0.043 0.003,-0.049l0.002,-0.055c0.005,-0.065 0.018,-0.107 0.041,-0.127c0.023,-0.02 0.059,-0.019 0.111,0.003l0.037,0.017c0.069,0.03 0.117,0.014 0.141,-0.048c0.045,-0.109 0.104,-0.2 0.179,-0.273c0.074,-0.074 0.159,-0.128 0.254,-0.162c0.096,-0.033 0.199,-0.047 0.31,-0.041c0.112,0.007 0.226,0.036 0.344,0.086c0.122,0.053 0.238,0.124 0.346,0.211c0.109,0.087 0.205,0.183 0.288,0.29c0.083,0.106 0.15,0.218 0.2,0.334c0.05,0.117 0.078,0.231 0.083,0.343c0.004,0.077 -0.005,0.143 -0.029,0.196c-0.023,0.053 -0.058,0.093 -0.106,0.12c-0.047,0.026 -0.105,0.04 -0.174,0.04c-0.069,0 -0.148,-0.015 -0.237,-0.044l-0.856,-0.274c-0.033,-0.014 -0.06,-0.016 -0.079,-0.006c-0.02,0.01 -0.029,0.031 -0.028,0.063c0.003,0.049 0.021,0.104 0.056,0.163c0.034,0.06 0.079,0.119 0.135,0.177c0.055,0.058 0.119,0.113 0.19,0.164c0.071,0.052 0.144,0.094 0.219,0.126c0.071,0.031 0.144,0.054 0.218,0.071c0.075,0.016 0.148,0.025 0.22,0.027c0.072,0.002 0.142,-0.004 0.21,-0.017c0.067,-0.012 0.13,-0.033 0.189,-0.061Zm-0.59,-0.974c0.025,0.005 0.045,0.001 0.063,-0.013c0.017,-0.014 0.025,-0.037 0.023,-0.069c-0.001,-0.029 -0.012,-0.059 -0.031,-0.092c-0.02,-0.032 -0.046,-0.065 -0.078,-0.099c-0.032,-0.033 -0.07,-0.065 -0.112,-0.094c-0.042,-0.03 -0.086,-0.054 -0.132,-0.074c-0.068,-0.03 -0.137,-0.048 -0.207,-0.056c-0.07,-0.009 -0.133,-0.007 -0.189,0.005c-0.056,0.012 -0.101,0.032 -0.136,0.061c-0.034,0.029 -0.05,0.065 -0.048,0.109c0.002,0.044 0.027,0.075 0.073,0.095c0.028,0.013 0.073,0.029 0.136,0.048c0.062,0.02 0.132,0.041 0.207,0.064c0.076,0.022 0.152,0.044 0.229,0.064c0.077,0.02 0.145,0.037 0.202,0.051Z" style="fill:#5fffff;fill-rule:nonzero;"/><path d="M119.681,193.373c-0.002,-0.032 0,-0.067 0.004,-0.104c0.005,-0.037 0.006,-0.079 0.004,-0.126c-0.002,-0.032 -0.015,-0.062 -0.04,-0.09c-0.025,-0.027 -0.052,-0.058 -0.083,-0.092c-0.031,-0.033 -0.059,-0.072 -0.085,-0.114c-0.025,-0.043 -0.04,-0.095 -0.043,-0.155c-0.002,-0.044 0.006,-0.083 0.025,-0.118c0.019,-0.034 0.047,-0.061 0.085,-0.08c0.093,-0.041 0.191,-0.072 0.293,-0.093c0.102,-0.021 0.204,-0.031 0.307,-0.031c0.103,0 0.205,0.01 0.306,0.03c0.102,0.019 0.2,0.05 0.294,0.091c0.159,0.069 0.31,0.167 0.453,0.295c0.143,0.128 0.269,0.272 0.379,0.434c0.109,0.161 0.197,0.333 0.265,0.516c0.069,0.183 0.107,0.363 0.116,0.541c0.008,0.175 -0.016,0.326 -0.072,0.455c-0.056,0.129 -0.135,0.229 -0.236,0.3c-0.102,0.071 -0.224,0.11 -0.365,0.116c-0.142,0.007 -0.293,-0.025 -0.453,-0.094c-0.157,-0.068 -0.305,-0.162 -0.442,-0.281c-0.137,-0.118 -0.257,-0.253 -0.36,-0.402c-0.102,-0.149 -0.185,-0.31 -0.247,-0.48c-0.062,-0.171 -0.097,-0.343 -0.105,-0.518Zm1.183,1.192c0.07,0.03 0.141,0.045 0.214,0.045c0.073,0 0.139,-0.017 0.198,-0.052c0.059,-0.034 0.106,-0.088 0.143,-0.159c0.036,-0.072 0.051,-0.163 0.046,-0.275c-0.006,-0.114 -0.029,-0.228 -0.071,-0.343c-0.041,-0.114 -0.095,-0.221 -0.162,-0.322c-0.068,-0.101 -0.146,-0.191 -0.235,-0.27c-0.089,-0.079 -0.184,-0.141 -0.285,-0.185c-0.183,-0.079 -0.321,-0.086 -0.414,-0.019c-0.092,0.067 -0.133,0.213 -0.121,0.439c0.006,0.123 0.027,0.244 0.065,0.363c0.037,0.12 0.087,0.23 0.148,0.332c0.062,0.102 0.133,0.192 0.214,0.27c0.081,0.077 0.168,0.136 0.26,0.176Z" style="fill:#5fffff;fill-rule:nonzero;"/><path d="M123.095,193.48c0.086,0.037 0.171,0.087 0.253,0.151c0.083,0.064 0.156,0.133 0.22,0.208c0.065,0.075 0.118,0.152 0.159,0.23c0.041,0.078 0.063,0.15 0.066,0.214c0.002,0.042 -0.003,0.079 -0.016,0.111c-0.013,0.033 -0.032,0.058 -0.055,0.077c-0.023,0.019 -0.05,0.03 -0.081,0.035c-0.03,0.004 -0.063,-0.001 -0.098,-0.016c-0.038,-0.017 -0.073,-0.049 -0.107,-0.095c-0.033,-0.047 -0.068,-0.099 -0.106,-0.155c-0.037,-0.056 -0.079,-0.11 -0.124,-0.162c-0.046,-0.053 -0.099,-0.092 -0.16,-0.119c-0.06,-0.025 -0.113,-0.033 -0.159,-0.021c-0.047,0.011 -0.085,0.039 -0.114,0.083c-0.029,0.044 -0.051,0.101 -0.064,0.172c-0.014,0.072 -0.018,0.154 -0.014,0.247c0.013,0.265 0.067,0.487 0.161,0.664c0.095,0.177 0.224,0.301 0.388,0.373c0.078,0.033 0.144,0.048 0.198,0.043c0.054,-0.004 0.101,-0.014 0.142,-0.03c0.04,-0.016 0.077,-0.03 0.111,-0.044c0.033,-0.013 0.068,-0.012 0.104,0.004c0.02,0.008 0.04,0.024 0.061,0.047c0.02,0.023 0.039,0.048 0.056,0.077c0.017,0.029 0.031,0.059 0.043,0.09c0.012,0.031 0.019,0.06 0.02,0.086c0.003,0.063 -0.02,0.116 -0.071,0.159c-0.051,0.043 -0.117,0.073 -0.198,0.091c-0.082,0.017 -0.174,0.021 -0.276,0.01c-0.102,-0.011 -0.201,-0.037 -0.299,-0.08c-0.131,-0.056 -0.252,-0.137 -0.364,-0.242c-0.112,-0.105 -0.211,-0.227 -0.295,-0.365c-0.085,-0.137 -0.152,-0.288 -0.203,-0.451c-0.051,-0.163 -0.081,-0.332 -0.089,-0.506c-0.01,-0.19 0.006,-0.354 0.047,-0.492c0.041,-0.138 0.102,-0.247 0.183,-0.326c0.082,-0.079 0.18,-0.125 0.296,-0.139c0.116,-0.014 0.244,0.01 0.385,0.071Z" style="fill:#5fffff;fill-rule:nonzero;"/><path d="M124.292,193.455c-0.048,-0.021 -0.094,-0.048 -0.137,-0.083c-0.043,-0.034 -0.08,-0.073 -0.112,-0.115c-0.032,-0.043 -0.058,-0.088 -0.078,-0.136c-0.021,-0.047 -0.032,-0.095 -0.034,-0.142c-0.004,-0.08 0.021,-0.133 0.074,-0.158c0.053,-0.025 0.125,-0.018 0.218,0.022c0.043,0.019 0.085,0.046 0.126,0.081c0.04,0.035 0.077,0.075 0.109,0.119c0.032,0.043 0.058,0.089 0.078,0.138c0.02,0.049 0.031,0.095 0.034,0.138c0.004,0.082 -0.019,0.135 -0.069,0.158c-0.05,0.024 -0.12,0.017 -0.209,-0.022Zm-0.298,0.721c-0.003,-0.067 0.02,-0.11 0.068,-0.131c0.048,-0.021 0.114,-0.014 0.197,0.022c0.149,0.065 0.231,0.158 0.247,0.28c0.01,0.084 0.022,0.179 0.034,0.285c0.013,0.106 0.026,0.217 0.039,0.335c0.013,0.118 0.025,0.24 0.037,0.365c0.012,0.124 0.023,0.247 0.034,0.368c0.011,0.121 0.02,0.237 0.029,0.348c0.009,0.111 0.015,0.213 0.02,0.304c0.004,0.095 -0.021,0.153 -0.078,0.175c-0.056,0.022 -0.141,0.008 -0.253,-0.04c-0.052,-0.023 -0.092,-0.054 -0.123,-0.094c-0.03,-0.04 -0.047,-0.086 -0.049,-0.139c-0.013,-0.262 -0.03,-0.51 -0.052,-0.743c-0.022,-0.233 -0.044,-0.441 -0.065,-0.625c-0.021,-0.184 -0.04,-0.337 -0.057,-0.46c-0.016,-0.123 -0.025,-0.207 -0.028,-0.25Z" style="fill:#5fffff;fill-rule:nonzero;"/><path d="M125.234,193.487c-0.005,-0.1 0.016,-0.16 0.064,-0.179c0.048,-0.02 0.129,-0.004 0.243,0.045c0.041,0.018 0.077,0.038 0.106,0.059c0.029,0.021 0.055,0.047 0.077,0.079c0.022,0.031 0.04,0.069 0.054,0.111c0.014,0.042 0.027,0.094 0.038,0.154c0.028,0.185 0.059,0.377 0.092,0.575c0.033,0.198 0.068,0.398 0.104,0.599c0.014,0.089 0.055,0.149 0.123,0.178c0.018,0.008 0.048,0.019 0.09,0.032c0.042,0.014 0.092,0.03 0.149,0.048c0.058,0.019 0.12,0.039 0.187,0.06c0.066,0.022 0.133,0.044 0.2,0.066c0.066,0.023 0.13,0.044 0.19,0.066c0.06,0.021 0.114,0.042 0.16,0.062c0.036,0.016 0.066,0.037 0.088,0.062c0.022,0.025 0.04,0.054 0.054,0.085c0.014,0.031 0.023,0.063 0.029,0.096c0.006,0.033 0.009,0.065 0.011,0.098c0.001,0.028 -0.002,0.056 -0.01,0.082c-0.007,0.026 -0.018,0.048 -0.033,0.065c-0.014,0.017 -0.033,0.028 -0.055,0.033c-0.023,0.005 -0.049,0.001 -0.079,-0.012c-0.144,-0.062 -0.289,-0.12 -0.435,-0.173c-0.146,-0.053 -0.291,-0.102 -0.436,-0.148c-0.074,-0.021 -0.109,0.005 -0.105,0.079c-0,0.006 0.001,0.013 0.003,0.023c0.002,0.009 0.004,0.016 0.004,0.022c0.028,0.174 0.054,0.336 0.078,0.488c0.025,0.152 0.046,0.286 0.064,0.405c0.018,0.118 0.033,0.216 0.044,0.294c0.011,0.078 0.017,0.13 0.018,0.154c0.003,0.069 0.001,0.124 -0.009,0.165c-0.009,0.041 -0.026,0.071 -0.051,0.089c-0.025,0.018 -0.06,0.024 -0.103,0.017c-0.043,-0.007 -0.098,-0.024 -0.164,-0.053c-0.063,-0.027 -0.11,-0.065 -0.142,-0.112c-0.031,-0.047 -0.05,-0.106 -0.057,-0.178c-0.021,-0.228 -0.047,-0.46 -0.08,-0.696c-0.033,-0.236 -0.069,-0.472 -0.108,-0.71c-0.019,-0.088 -0.058,-0.145 -0.118,-0.171c-0.005,-0.002 -0.01,-0.004 -0.017,-0.005c-0.006,-0.001 -0.012,-0.002 -0.017,-0.004c-0.101,-0.018 -0.197,-0.034 -0.287,-0.047c-0.089,-0.012 -0.173,-0.021 -0.251,-0.025c-0.044,-0.002 -0.083,-0.008 -0.118,-0.016c-0.034,-0.009 -0.065,-0.019 -0.093,-0.031c-0.038,-0.017 -0.068,-0.048 -0.088,-0.095c-0.02,-0.047 -0.031,-0.099 -0.034,-0.158c-0.001,-0.021 -0.001,-0.045 0.001,-0.071c0.002,-0.026 0.007,-0.051 0.015,-0.074c0.008,-0.024 0.02,-0.043 0.036,-0.06c0.016,-0.016 0.039,-0.025 0.068,-0.027c0.068,-0.002 0.159,0.004 0.273,0.019c0.114,0.015 0.243,0.039 0.387,0.072c0.033,0.005 0.058,0 0.076,-0.013c0.018,-0.014 0.026,-0.042 0.024,-0.086c-0.001,-0.009 -0.001,-0.019 -0.002,-0.03c-0,-0.01 -0.002,-0.022 -0.006,-0.035c-0.035,-0.186 -0.068,-0.355 -0.099,-0.509c-0.031,-0.153 -0.058,-0.285 -0.08,-0.395c-0.023,-0.11 -0.04,-0.197 -0.053,-0.26c-0.013,-0.063 -0.02,-0.099 -0.02,-0.109Z" style="fill:#5fffff;fill-rule:nonzero;"/><path d="M127.47,194.832c-0.048,-0.021 -0.094,-0.049 -0.137,-0.083c-0.043,-0.034 -0.08,-0.073 -0.112,-0.116c-0.033,-0.042 -0.059,-0.087 -0.079,-0.135c-0.02,-0.048 -0.031,-0.095 -0.033,-0.143c-0.004,-0.079 0.02,-0.132 0.073,-0.157c0.053,-0.025 0.126,-0.018 0.219,0.022c0.043,0.019 0.085,0.046 0.125,0.081c0.041,0.035 0.077,0.075 0.109,0.118c0.032,0.044 0.059,0.09 0.079,0.139c0.02,0.048 0.031,0.094 0.033,0.138c0.004,0.082 -0.019,0.134 -0.069,0.158c-0.049,0.024 -0.119,0.017 -0.208,-0.022Zm-0.298,0.72c-0.003,-0.066 0.019,-0.11 0.068,-0.131c0.048,-0.02 0.114,-0.013 0.196,0.023c0.149,0.064 0.232,0.158 0.247,0.28c0.011,0.084 0.023,0.179 0.035,0.285c0.013,0.105 0.025,0.217 0.038,0.335c0.013,0.118 0.026,0.239 0.038,0.364c0.011,0.125 0.023,0.248 0.033,0.369c0.011,0.12 0.021,0.236 0.03,0.348c0.008,0.111 0.015,0.212 0.019,0.303c0.005,0.095 -0.021,0.154 -0.077,0.176c-0.057,0.021 -0.141,0.008 -0.254,-0.041c-0.051,-0.022 -0.092,-0.053 -0.122,-0.093c-0.03,-0.04 -0.047,-0.087 -0.05,-0.14c-0.012,-0.262 -0.03,-0.509 -0.052,-0.742c-0.022,-0.233 -0.043,-0.442 -0.064,-0.625c-0.021,-0.184 -0.04,-0.337 -0.057,-0.461c-0.016,-0.123 -0.026,-0.206 -0.028,-0.25Z" style="fill:#5fffff;fill-rule:nonzero;"/><path d="M130.424,198.342c0.046,-0.027 0.092,-0.03 0.138,-0.01c0.027,0.012 0.051,0.03 0.073,0.054c0.022,0.025 0.048,0.059 0.076,0.102c0.027,0.055 0.046,0.098 0.058,0.13c0.012,0.032 0.019,0.062 0.02,0.088c0.003,0.057 -0.019,0.101 -0.066,0.13c-0.076,0.042 -0.159,0.072 -0.248,0.092c-0.09,0.019 -0.184,0.028 -0.283,0.026c-0.099,-0.002 -0.202,-0.015 -0.309,-0.04c-0.106,-0.025 -0.212,-0.06 -0.318,-0.106c-0.134,-0.058 -0.261,-0.132 -0.38,-0.222c-0.12,-0.09 -0.227,-0.191 -0.323,-0.302c-0.095,-0.112 -0.177,-0.233 -0.245,-0.361c-0.067,-0.129 -0.118,-0.263 -0.15,-0.401c-0.018,-0.06 -0.033,-0.1 -0.046,-0.122c-0.014,-0.021 -0.034,-0.038 -0.062,-0.05c-0.062,-0.027 -0.11,-0.064 -0.145,-0.113c-0.034,-0.048 -0.053,-0.105 -0.056,-0.169c-0.002,-0.027 -0.001,-0.043 0.002,-0.049l0.002,-0.055c0.005,-0.065 0.019,-0.107 0.041,-0.127c0.023,-0.02 0.06,-0.019 0.111,0.003l0.037,0.017c0.07,0.03 0.117,0.014 0.141,-0.048c0.045,-0.109 0.105,-0.2 0.179,-0.273c0.074,-0.074 0.159,-0.128 0.254,-0.162c0.096,-0.033 0.199,-0.047 0.311,-0.041c0.111,0.007 0.225,0.036 0.343,0.086c0.122,0.054 0.238,0.124 0.347,0.211c0.109,0.087 0.204,0.183 0.287,0.29c0.083,0.106 0.15,0.218 0.2,0.334c0.05,0.117 0.078,0.231 0.084,0.343c0.004,0.077 -0.006,0.143 -0.029,0.196c-0.024,0.053 -0.059,0.093 -0.106,0.12c-0.048,0.027 -0.106,0.04 -0.175,0.04c-0.068,0 -0.147,-0.015 -0.236,-0.044l-0.857,-0.274c-0.033,-0.014 -0.059,-0.016 -0.079,-0.006c-0.02,0.01 -0.029,0.031 -0.027,0.063c0.002,0.049 0.021,0.104 0.055,0.163c0.035,0.06 0.08,0.119 0.135,0.177c0.056,0.058 0.119,0.113 0.19,0.165c0.072,0.051 0.145,0.093 0.219,0.125c0.071,0.031 0.144,0.054 0.219,0.071c0.074,0.016 0.148,0.025 0.22,0.027c0.072,0.002 0.142,-0.004 0.209,-0.016c0.067,-0.013 0.13,-0.034 0.189,-0.062Zm-0.59,-0.974c0.025,0.005 0.046,0.001 0.063,-0.013c0.017,-0.014 0.025,-0.037 0.023,-0.069c-0.001,-0.029 -0.012,-0.059 -0.031,-0.092c-0.019,-0.032 -0.045,-0.065 -0.078,-0.099c-0.032,-0.033 -0.069,-0.065 -0.111,-0.094c-0.042,-0.029 -0.086,-0.054 -0.133,-0.074c-0.068,-0.03 -0.136,-0.048 -0.207,-0.056c-0.07,-0.009 -0.133,-0.007 -0.189,0.005c-0.056,0.012 -0.101,0.032 -0.135,0.061c-0.035,0.029 -0.051,0.065 -0.048,0.109c0.002,0.044 0.026,0.075 0.072,0.095c0.028,0.013 0.074,0.029 0.136,0.048c0.063,0.02 0.132,0.041 0.207,0.064c0.076,0.022 0.153,0.044 0.23,0.064c0.077,0.02 0.144,0.037 0.201,0.051Z" style="fill:#5fffff;fill-rule:nonzero;"/><path d="M131.463,196.985c0.111,0.048 0.226,0.114 0.345,0.198c0.119,0.084 0.229,0.174 0.329,0.268c0.1,0.095 0.184,0.188 0.25,0.279c0.066,0.092 0.1,0.168 0.103,0.229c0.002,0.03 -0.008,0.059 -0.03,0.086c-0.021,0.027 -0.047,0.05 -0.079,0.069c-0.031,0.019 -0.066,0.03 -0.104,0.035c-0.038,0.005 -0.071,0.001 -0.101,-0.012c-0.04,-0.017 -0.085,-0.055 -0.136,-0.114c-0.051,-0.059 -0.106,-0.125 -0.167,-0.196c-0.061,-0.072 -0.128,-0.142 -0.199,-0.21c-0.071,-0.068 -0.148,-0.12 -0.229,-0.155c-0.053,-0.023 -0.095,-0.027 -0.128,-0.013c-0.032,0.015 -0.047,0.049 -0.045,0.102c0.003,0.048 0.025,0.104 0.067,0.17c0.042,0.065 0.097,0.138 0.165,0.217c0.068,0.08 0.144,0.166 0.23,0.259c0.085,0.092 0.173,0.19 0.263,0.292c0.09,0.102 0.179,0.209 0.265,0.321c0.087,0.111 0.165,0.226 0.234,0.344c0.07,0.117 0.128,0.237 0.172,0.359c0.045,0.123 0.071,0.246 0.077,0.369c0.005,0.106 -0.007,0.196 -0.036,0.269c-0.028,0.073 -0.072,0.127 -0.13,0.163c-0.058,0.036 -0.129,0.053 -0.212,0.051c-0.082,-0.003 -0.174,-0.026 -0.275,-0.07c-0.128,-0.055 -0.246,-0.128 -0.356,-0.219c-0.11,-0.092 -0.205,-0.193 -0.287,-0.304c-0.082,-0.112 -0.147,-0.231 -0.196,-0.358c-0.049,-0.127 -0.077,-0.255 -0.083,-0.384c-0.008,-0.167 0.012,-0.277 0.06,-0.33c0.048,-0.054 0.129,-0.056 0.242,-0.007c0.069,0.03 0.125,0.069 0.168,0.117c0.043,0.049 0.065,0.095 0.068,0.138c0.001,0.023 -0.001,0.045 -0.007,0.066c-0.005,0.02 -0.011,0.042 -0.017,0.064c-0.007,0.023 -0.012,0.047 -0.016,0.073c-0.005,0.026 -0.006,0.053 -0.005,0.081c0.003,0.05 0.015,0.101 0.037,0.156c0.022,0.054 0.051,0.106 0.087,0.155c0.035,0.05 0.076,0.095 0.122,0.135c0.045,0.041 0.093,0.072 0.143,0.093c0.132,0.057 0.195,0.024 0.189,-0.102c-0.005,-0.098 -0.043,-0.206 -0.115,-0.324c-0.073,-0.118 -0.162,-0.241 -0.269,-0.37c-0.107,-0.128 -0.221,-0.261 -0.344,-0.398c-0.122,-0.136 -0.237,-0.273 -0.344,-0.411c-0.107,-0.137 -0.198,-0.273 -0.271,-0.408c-0.073,-0.134 -0.112,-0.263 -0.118,-0.387c-0.005,-0.102 0.009,-0.188 0.042,-0.257c0.033,-0.069 0.08,-0.121 0.142,-0.154c0.061,-0.034 0.135,-0.049 0.22,-0.046c0.085,0.004 0.178,0.027 0.279,0.071Z" style="fill:#5fffff;fill-rule:nonzero;"/><path d="M133.464,200.218c-0.048,-0.02 -0.094,-0.048 -0.137,-0.084c-0.043,-0.035 -0.081,-0.074 -0.114,-0.117c-0.033,-0.043 -0.059,-0.089 -0.078,-0.136c-0.019,-0.047 -0.03,-0.094 -0.032,-0.139c-0.004,-0.08 0.02,-0.132 0.073,-0.158c0.053,-0.025 0.125,-0.018 0.216,0.022c0.043,0.018 0.086,0.045 0.127,0.081c0.041,0.036 0.078,0.075 0.11,0.119c0.032,0.043 0.059,0.089 0.079,0.137c0.02,0.047 0.031,0.093 0.033,0.137c0.004,0.083 -0.019,0.137 -0.069,0.161c-0.049,0.024 -0.119,0.016 -0.208,-0.023Z" style="fill:#5fffff;fill-rule:nonzero;"/><path d="M134.42,199.759c-0.001,-0.033 -0,-0.067 0.005,-0.104c0.005,-0.037 0.006,-0.079 0.004,-0.127c-0.002,-0.032 -0.015,-0.062 -0.04,-0.089c-0.025,-0.028 -0.053,-0.058 -0.084,-0.092c-0.03,-0.034 -0.059,-0.072 -0.084,-0.115c-0.026,-0.042 -0.04,-0.094 -0.043,-0.155c-0.002,-0.043 0.006,-0.082 0.025,-0.117c0.018,-0.035 0.046,-0.061 0.084,-0.08c0.094,-0.041 0.192,-0.072 0.293,-0.093c0.102,-0.021 0.205,-0.032 0.308,-0.032c0.102,-0 0.205,0.01 0.306,0.03c0.101,0.02 0.199,0.05 0.294,0.091c0.158,0.069 0.31,0.167 0.453,0.295c0.143,0.128 0.269,0.273 0.378,0.434c0.109,0.162 0.198,0.334 0.266,0.517c0.068,0.182 0.107,0.363 0.115,0.541c0.009,0.174 -0.015,0.326 -0.071,0.455c-0.056,0.129 -0.135,0.229 -0.237,0.3c-0.102,0.071 -0.223,0.109 -0.365,0.116c-0.141,0.006 -0.292,-0.025 -0.453,-0.095c-0.157,-0.068 -0.304,-0.161 -0.441,-0.28c-0.137,-0.119 -0.257,-0.253 -0.36,-0.403c-0.103,-0.149 -0.185,-0.309 -0.247,-0.48c-0.062,-0.17 -0.097,-0.343 -0.106,-0.517Zm1.184,1.192c0.069,0.03 0.141,0.045 0.213,0.045c0.073,-0 0.139,-0.017 0.198,-0.052c0.059,-0.035 0.107,-0.088 0.143,-0.16c0.036,-0.071 0.052,-0.163 0.046,-0.275c-0.005,-0.114 -0.029,-0.228 -0.07,-0.342c-0.041,-0.114 -0.095,-0.222 -0.163,-0.323c-0.067,-0.1 -0.145,-0.19 -0.234,-0.27c-0.089,-0.079 -0.184,-0.14 -0.285,-0.184c-0.184,-0.08 -0.322,-0.086 -0.414,-0.019c-0.092,0.066 -0.133,0.213 -0.122,0.438c0.006,0.123 0.028,0.245 0.065,0.364c0.038,0.119 0.087,0.23 0.149,0.332c0.062,0.102 0.133,0.191 0.214,0.269c0.08,0.078 0.167,0.137 0.26,0.177Z" style="fill:#5fffff;fill-rule:nonzero;"/><path d="M138.315,200.288c-0.061,-0.027 -0.114,-0.032 -0.159,-0.015c-0.044,0.017 -0.081,0.051 -0.111,0.102c-0.03,0.051 -0.054,0.116 -0.071,0.195c-0.017,0.079 -0.03,0.168 -0.038,0.266c-0.008,0.099 -0.012,0.204 -0.011,0.316c0,0.111 0.003,0.225 0.009,0.341c0.008,0.151 0.02,0.303 0.038,0.455c0.018,0.151 0.03,0.29 0.036,0.415c0.004,0.081 -0.019,0.134 -0.07,0.157c-0.05,0.024 -0.125,0.015 -0.222,-0.028c-0.018,-0.008 -0.039,-0.019 -0.063,-0.032c-0.023,-0.014 -0.045,-0.031 -0.066,-0.052c-0.022,-0.02 -0.041,-0.044 -0.057,-0.07c-0.017,-0.027 -0.027,-0.058 -0.03,-0.093c-0.023,-0.173 -0.053,-0.353 -0.09,-0.54c-0.037,-0.186 -0.08,-0.375 -0.131,-0.567c-0.051,-0.192 -0.11,-0.386 -0.177,-0.582c-0.067,-0.196 -0.143,-0.393 -0.227,-0.589c-0.014,-0.034 -0.027,-0.065 -0.037,-0.094c-0.01,-0.028 -0.016,-0.054 -0.017,-0.077c-0.002,-0.028 0.008,-0.054 0.029,-0.078c0.02,-0.023 0.047,-0.042 0.08,-0.056c0.032,-0.013 0.068,-0.02 0.108,-0.021c0.04,0 0.078,0.008 0.116,0.024c0.063,0.027 0.121,0.101 0.174,0.222c0.053,0.12 0.105,0.298 0.158,0.534c0.01,0.042 0.018,0.071 0.023,0.088c0.006,0.018 0.013,0.028 0.021,0.032c0.019,0.008 0.029,-0.02 0.03,-0.082c0.011,-0.171 0.038,-0.312 0.079,-0.421c0.042,-0.109 0.097,-0.19 0.165,-0.243c0.067,-0.054 0.147,-0.08 0.239,-0.079c0.091,0.001 0.193,0.025 0.306,0.074c0.064,0.028 0.13,0.063 0.197,0.105c0.067,0.042 0.127,0.088 0.182,0.137c0.054,0.05 0.099,0.1 0.133,0.153c0.035,0.052 0.054,0.102 0.056,0.149c0.002,0.034 -0.002,0.072 -0.012,0.113c-0.01,0.041 -0.024,0.079 -0.042,0.113c-0.018,0.034 -0.039,0.06 -0.063,0.078c-0.024,0.019 -0.05,0.022 -0.076,0.011c-0.03,-0.013 -0.059,-0.036 -0.089,-0.068c-0.029,-0.032 -0.06,-0.067 -0.093,-0.103c-0.034,-0.037 -0.069,-0.073 -0.105,-0.108c-0.037,-0.036 -0.077,-0.063 -0.122,-0.082Z" style="fill:#5fffff;fill-rule:nonzero;"/><path d="M140.078,200.962c0.08,0.035 0.155,0.075 0.227,0.12c0.072,0.045 0.137,0.088 0.196,0.129c0.059,0.041 0.109,0.078 0.151,0.11c0.042,0.032 0.072,0.052 0.091,0.06c0.014,0.007 0.028,0.004 0.04,-0.009c0.013,-0.012 0.028,-0.024 0.047,-0.036c0.019,-0.013 0.045,-0.021 0.077,-0.024c0.032,-0.004 0.075,0.006 0.13,0.03c0.063,0.027 0.114,0.067 0.152,0.12c0.038,0.052 0.058,0.106 0.061,0.161c0.034,0.694 0.042,1.275 0.025,1.741c-0.018,0.467 -0.066,0.832 -0.143,1.095c-0.078,0.264 -0.187,0.432 -0.328,0.504c-0.141,0.073 -0.316,0.064 -0.526,-0.027c-0.096,-0.042 -0.197,-0.11 -0.303,-0.204c-0.106,-0.094 -0.204,-0.198 -0.294,-0.312c-0.089,-0.114 -0.164,-0.23 -0.224,-0.347c-0.06,-0.117 -0.092,-0.218 -0.097,-0.303c-0.001,-0.029 0.011,-0.056 0.035,-0.083c0.025,-0.026 0.055,-0.049 0.092,-0.068c0.036,-0.02 0.074,-0.033 0.114,-0.04c0.04,-0.007 0.075,-0.004 0.105,0.009c0.032,0.014 0.059,0.04 0.082,0.079c0.023,0.039 0.045,0.084 0.066,0.136c0.021,0.052 0.043,0.108 0.065,0.169c0.023,0.06 0.05,0.119 0.082,0.176c0.032,0.056 0.07,0.108 0.115,0.156c0.044,0.049 0.099,0.086 0.163,0.114c0.361,0.157 0.542,-0.383 0.543,-1.619c-0.003,-0.057 -0.018,-0.091 -0.047,-0.103c-0.023,-0.01 -0.04,-0.005 -0.052,0.016c-0.144,0.173 -0.317,0.275 -0.519,0.306c-0.201,0.03 -0.429,-0.01 -0.682,-0.119c-0.118,-0.051 -0.227,-0.119 -0.328,-0.202c-0.102,-0.084 -0.19,-0.178 -0.266,-0.282c-0.075,-0.105 -0.136,-0.216 -0.18,-0.335c-0.045,-0.118 -0.07,-0.238 -0.076,-0.36c-0.006,-0.119 0.007,-0.229 0.038,-0.33c0.032,-0.1 0.079,-0.188 0.141,-0.262c0.062,-0.074 0.137,-0.135 0.225,-0.182c0.089,-0.047 0.186,-0.079 0.292,-0.095c0.106,-0.016 0.219,-0.015 0.339,0.002c0.12,0.018 0.244,0.054 0.371,0.109Zm-0.505,1.447c0.227,0.098 0.431,0.106 0.611,0.024c0.181,-0.083 0.331,-0.251 0.449,-0.506c0.003,-0.01 0.005,-0.018 0.006,-0.024c0.002,-0.006 0.002,-0.013 0.002,-0.02c-0.001,-0.019 -0.019,-0.047 -0.055,-0.083c-0.036,-0.036 -0.082,-0.073 -0.139,-0.113c-0.057,-0.039 -0.122,-0.08 -0.195,-0.122c-0.072,-0.041 -0.145,-0.078 -0.218,-0.109c-0.117,-0.051 -0.23,-0.078 -0.337,-0.079c-0.107,-0.002 -0.2,0.017 -0.281,0.056c-0.081,0.039 -0.144,0.096 -0.191,0.171c-0.047,0.074 -0.067,0.163 -0.062,0.268c0.005,0.112 0.046,0.216 0.121,0.314c0.075,0.097 0.172,0.172 0.289,0.223Z" style="fill:#5fffff;fill-rule:nonzero;"/></g></g><g id="walrus"><path d="M78.135,246.694c2.182,-11.015 10.63,-23.914 17.291,-28.801c5.613,-4.118 5.754,-15.74 10.469,-20.226c7.047,-6.704 25.41,1.341 31.814,20.149c6.678,19.616 36.862,86.415 25.863,94.585c-11,8.171 -77.619,-34.61 -91.858,-45.561c-7.07,-5.438 4.982,-12.883 6.421,-20.146Z" style="fill:#f4a6c4;"/><g><g><clipPath id="_clip5"><path d="M78.135,246.694c2.182,-11.015 10.63,-23.914 17.291,-28.801c5.613,-4.118 5.754,-15.74 10.469,-20.226c7.047,-6.704 25.41,1.341 31.814,20.149c6.678,19.616 36.862,86.415 25.863,94.585c-11,8.171 -77.619,-34.61 -91.858,-45.561c-7.07,-5.438 4.982,-12.883 6.421,-20.146Z"/></clipPath><g clip-path="url(#_clip5)"><path d="M78.135,252.929c-0.597,-1.302 11.295,-27.083 19.695,-32.553c7.217,-4.699 4.974,-24.369 18.15,-19.123c10.036,3.995 13.565,27.247 11.184,33.673c1.978,1.276 3.57,-16.789 3.57,-16.789c6.523,4.17 19.957,45.66 18.807,40.474c-1.457,-6.571 19.577,-35.488 6.393,-51.067c-13.185,-15.58 -72.535,-49.973 -85.501,-42.409c-12.967,7.565 7.925,88.28 7.702,87.794Z" style="fill:#ffebff;"/></g></g></g><path d="M128.328,210.721c0.693,0.344 1.256,1.855 1.256,3.372c0.981,1.953 -0.291,5.235 -0.351,5.527c0.057,0.236 0.4,-4.056 0.108,-4.023c-0.229,0.567 -0.598,0.827 -1.013,0.621c-0.693,-0.344 -1.256,-1.854 -1.256,-3.371c0,-1.517 0.563,-2.469 1.256,-2.126Z" style="fill:#f4a6c4;"/><path d="M105.589,199.197c0.522,0.482 0.639,1.618 0.261,2.533c-0.378,0.916 -1.109,1.268 -1.631,0.785c-0.522,-0.482 -0.639,-1.618 -0.261,-2.534c0.378,-0.915 1.108,-1.267 1.631,-0.784Z" style="fill:#f4a6c4;"/><g><g><clipPath id="_clip6"><path d="M105.589,199.197c0.522,0.482 0.639,1.618 0.261,2.533c-0.378,0.916 -1.109,1.268 -1.631,0.785c-0.522,-0.482 -0.639,-1.618 -0.261,-2.534c0.378,-0.915 1.108,-1.267 1.631,-0.784Z"/></clipPath><g clip-path="url(#_clip6)"><path d="M103.234,200.595c1.163,0.127 2.328,0.465 3.498,1.021c-0,0 -0.94,-1.331 -2.089,-1.468c-1.15,-0.136 -1.409,0.447 -1.409,0.447Z" style="fill:#ffebff;"/></g></g></g><path d="M135.843,233.184c3.245,16.034 -28.096,10.224 -30.939,-3.265c1.525,8.347 10.824,14.958 20.506,14.71c14.635,-0.375 10.293,-12.133 10.433,-11.445Z" style="fill:#cf87b8;"/><path d="M140.842,245.352c-3.54,5.601 -8.088,8.932 -13.333,10.693c0,0 5.997,-1.798 8.219,-3.581c2.095,-1.68 5.114,-7.112 5.114,-7.112Z" style="fill:#cf87b8;"/><path d="M139.039,270.594c-28.391,-7.583 -32,-17.954 -35.748,-25.03c-0,0 1.754,8.377 11.578,15.748c11.451,8.592 24.17,9.282 24.17,9.282Z" style="fill:#cf87b8;"/><path d="M125.966,232.34c-5.874,1.862 -10.504,0.54 -18.01,-3.434c-0,0 7.715,5.058 10.96,5.514c3.463,0.486 7.05,-2.08 7.05,-2.08Z" style="fill:#cf87b8;"/><path d="M80.025,243.786c5.906,6.517 11.811,14.963 17.717,24.204c0,0 -7.575,-12.32 -10.527,-16.354c-2.192,-2.994 -7.19,-7.85 -7.19,-7.85Z" style="fill:#cf87b8;"/><path d="M113.825,240.639c0.949,2.216 2.27,4.565 3.858,7.009c-0.999,-2.135 -1.878,-4.233 -2.397,-6.219l-1.461,-0.79Z" style="fill:#cf87b8;"/><path d="M104.035,221.531c-8.188,-13.104 -4.76,-21.644 8.225,-16.26c0.193,-1.259 -0.257,-1.789 -1.362,-2.467c-0.107,-0.068 -0.192,-0.204 -0.207,-0.331c-0.015,-0.127 0.043,-0.215 0.142,-0.214c2.612,0.015 4.6,0.905 6.281,3.325c0.095,0.135 0.128,0.298 0.084,0.404c-0.045,0.106 -0.158,0.132 -0.281,0.065c-1.212,-0.683 -2.02,-0.683 -2.154,0.456c11.106,6.565 14.292,14.861 9.682,24.742c-0.171,0.371 -0.539,0.513 -0.975,0.378c-0.436,-0.135 -0.878,-0.529 -1.172,-1.043c-3.197,-5.593 -6.374,-10.992 -9.431,-15.124c-2.214,-1.556 -2.834,-0.983 -8.832,6.069Z" style="fill:#cf87b8;"/><path d="M105.911,220.217c3.464,-7.612 7.698,-6.21 13.987,7.317c0,0 -2.296,-10.434 -7.712,-13.566c-4.408,-2.549 -6.275,6.249 -6.275,6.249Z" style="fill:#cf87b8;"/><path d="M108.688,196.819c6.78,-1.098 18.419,8.851 20.544,14.071c-1.985,-4.457 -6.122,-8.689 -9.398,-10.631c0.337,-0.936 0.994,-1.356 1.731,-1.647c-0.936,0.046 -1.871,0.293 -2.806,1.008c-4.281,-2.448 -7.66,-3.944 -10.071,-2.801Z" style="fill:#f4a6c4;"/><path d="M106.848,218.675l-3.197,1.478c-1.391,8.195 -3.072,16.138 -4.914,23.942c-0.132,0.56 0.191,1.354 0.74,1.818c0.549,0.464 1.137,0.441 1.348,-0.053c2.873,-6.766 5.302,-14 7.05,-21.953l-1.027,-5.232Z" style="fill:#fdfefe;"/><path d="M118.948,224.805l4.11,5.867c-0,0 -0.993,14.535 -1.73,25.332c-0.024,0.353 -0.299,0.498 -0.626,0.33c-0.328,-0.169 -0.595,-0.591 -0.609,-0.964c-0.472,-12.611 -1.145,-30.565 -1.145,-30.565Z" style="fill:#fdfefe;"/><path d="M126.486,211.949c1.386,0.788 2.693,1.759 3.92,2.914c0,0 -0.639,-1.677 -2.005,-2.466c-1.367,-0.79 -1.915,-0.448 -1.915,-0.448Z" style="fill:#ffebff;"/></g></g></g></g></g><defs><radialGradient id="_Radial1" cx="0" cy="0" r="1" gradientUnits="userSpaceOnUse" gradientTransform="matrix(20.9715,0,0,20.9715,317.45,125.5)"><stop offset="0" style="stop-color:#fe9292;stop-opacity:1"/><stop offset="1" style="stop-color:#f00;stop-opacity:1"/></radialGradient><linearGradient id="_Linear2" x1="0" y1="0" x2="1" y2="0" gradientUnits="userSpaceOnUse" gradientTransform="matrix(25.8867,54.0672,-54.0672,25.8867,274.725,191.572)"><stop offset="0" style="stop-color:#6f6f6f;stop-opacity:1"/><stop offset="1" style="stop-color:#bcbcbc;stop-opacity:1"/></linearGradient><linearGradient id="_Linear3" x1="0" y1="0" x2="1" y2="0" gradientUnits="userSpaceOnUse" gradientTransform="matrix(50.9542,26.0506,-26.0506,50.9542,269.053,168.585)"><stop offset="0" style="stop-color:#767676;stop-opacity:1"/><stop offset="1" style="stop-color:#fffff0;stop-opacity:1"/></linearGradient></defs></svg>