<?xml version="1.0" encoding="UTF-8" standalone="no"?><!DOCTYPE svg PUBLIC "-//W3C//DTD SVG 1.1//EN" "http://www.w3.org/Graphics/SVG/1.1/DTD/svg11.dtd"><svg width="475.7px" height="375.1px" viewBox="0 0 470 376" version="1.1" xmlns="http://www.w3.org/2000/svg" xmlns:xlink="http://www.w3.org/1999/xlink" xml:space="preserve" xmlns:serif="http://www.serif.com/" style="fill-rule:evenodd;clip-rule:evenodd;stroke-linecap:round;stroke-linejoin:round;stroke-miterlimit:1.5;"><g><g id="column"><path d="M127.938,320.165l64.168,0l7.948,20.016l-40.032,20.016l-40.032,-20.016l7.948,-20.016Z" style="fill:#c6c6b7;"/><path d="M160.055,336.223l32.051,-16.058l7.948,20.016l-40.032,20.016l0.033,-23.974Z" style="fill:#c6c6b7;"/><path d="M160.022,336.207l-32.084,-16.042l-7.948,20.016l40.032,20.016l0,-23.99Z" style="fill:#cdcdc2;"/><path d="M160.022,304.123l32.084,16.042l-32.084,16.042l-32.084,-16.042l32.084,-16.042Z" style="fill:#d5d5c9;"/><path d="M137.174,320.165l-0,-160.107l45.581,0l0,160.107c0,6.282 -10.212,11.383 -22.79,11.383c-12.579,-0 -22.791,-5.101 -22.791,-11.383Z" style="fill:url(#_Linear1);"/><clipPath id="_clip2"><path d="M137.174,320.165l-0,-160.107l45.581,0l0,160.107c0,6.282 -10.212,11.383 -22.79,11.383c-12.579,-0 -22.791,-5.101 -22.791,-11.383Z"/></clipPath><g clip-path="url(#_clip2)"><rect x="140.651" y="161.425" width="1.678" height="173.526" style="fill:url(#_Linear3);"/><rect x="146.844" y="165.37" width="2.605" height="173.526" style="fill:url(#_Linear4);"/><rect x="178.332" y="163.578" width="1.678" height="173.526" style="fill:url(#_Linear5);"/><rect x="171.211" y="163.578" width="2.605" height="173.526" style="fill:url(#_Linear6);"/><rect x="158.394" y="167.14" width="3.14" height="173.526" style="fill:url(#_Linear7);"/></g><path d="M119.99,140.021l80.064,0l-7.948,20.016l-32.084,16.042l-32.084,-16.042l-7.948,-20.016Z" style="fill:#c6c6b7;"/><path d="M160.064,160.058l39.99,-20.037l-7.948,20.016l-32.084,16.042l0.042,-16.021Z" style="fill:#c3c3b1;"/><path d="M160.022,160.037l-40.032,-20.016l7.968,20.116l32.064,15.942l0,-16.042Z" style="fill:#cdcdc2;"/><path d="M160.022,120.005l40.032,20.016l-40.032,20.016l-40.032,-20.016l40.032,-20.016Z" style="fill:#d5d5c9;"/></g><g id="arch"><path d="M40.012,100.03l40.012,-20.006l0,-40.012l-40.012,20.006l0,40.012Z" style="fill:url(#_Linear8);"/><path d="M160.048,160.048l40.012,-20.006l0,-60.018l-160.048,-80.024l-40.012,20.006l0,60.018l40.012,20.006l0,-0.001c0,-8.57 4.438,-16.53 11.728,-21.035c7.29,-4.506 16.393,-4.915 24.059,-1.083c2.787,1.394 5.601,2.801 8.389,4.195c21.957,10.979 35.795,33.454 35.711,58.004c0,0 0,0 0,0l40.149,19.938Z" style="fill:#c6c6b7;"/><clipPath id="_clip9"><path d="M160.048,160.048l40.012,-20.006l0,-60.018l-160.048,-80.024l-40.012,20.006l0,60.018l40.012,20.006l0,-0.001c0,-8.57 4.438,-16.53 11.728,-21.035c7.29,-4.506 16.393,-4.915 24.059,-1.083c2.787,1.394 5.601,2.801 8.389,4.195c21.957,10.979 35.795,33.454 35.711,58.004c0,0 0,0 0,0l40.149,19.938Z"/></clipPath><g clip-path="url(#_clip9)"><path d="M160.048,160.048l0,-60.018l40.012,-20.006l0,60.018l-40.012,20.006Z" style="fill:#cdcdc2;"/><path d="M120.036,60.018l-40.149,60.086" style="fill:none;stroke:#b2b4a5;stroke-width:2px;"/><path d="M40.012,20.006l39.875,99.962" style="fill:none;stroke:#b2b4a5;stroke-width:2px;"/><path d="M80.024,120.036l-80.024,-100.03" style="fill:none;stroke:#b2b4a5;stroke-width:2px;"/><path d="M160.048,100.098l-80.161,20.006" style="fill:none;stroke:#b2b4a5;stroke-width:2px;"/><path d="M160.048,100.098l-160.048,-80.024l40.012,-20.006l160.048,80.024l-40.012,20.006Z" style="fill:#d5d5c9;"/><clipPath id="_clip10"><path d="M160.048,100.098l-160.048,-80.024l40.012,-20.006l160.048,80.024l-40.012,20.006Z"/></clipPath><g clip-path="url(#_clip10)"><path d="M109.815,74.982l40.012,-20.006" style="fill:none;stroke:#c6c6b7;stroke-width:2px;"/><path d="M50.187,45.099l40.012,-20.006" style="fill:none;stroke:#c6c6b7;stroke-width:2px;"/><path d="M-0.068,20.04l40.012,-20.006" style="fill:none;stroke:#b2b4a5;stroke-width:2px;"/></g><path d="M159.98,100.064l40.012,-20.006" style="fill:none;stroke:#b2b4a5;stroke-width:2px;"/></g></g><g id="potted_palm--short-king-" serif:id="potted_palm (short king)"><g id="pot"><path d="M385.519,262.613l-0,0l-6.311,-18.069l49.223,-0l-6.31,18.069l-0,0l-0,0.012c-0,4.998 -8.201,9.056 -18.301,9.056c-10.101,0 -18.301,-4.058 -18.301,-9.056l-0,-0.012Z" style="fill:#c3c3b1;"/><clipPath id="_clip11"><path d="M385.519,262.613l-0,0l-6.311,-18.069l49.223,-0l-6.31,18.069l-0,0l-0,0.012c-0,4.998 -8.201,9.056 -18.301,9.056c-10.101,0 -18.301,-4.058 -18.301,-9.056l-0,-0.012Z"/></clipPath><g clip-path="url(#_clip11)"><ellipse cx="403.82" cy="246.251" rx="26.31" ry="13.019" style="fill:#a4a289;"/></g><path d="M430.13,242.724c-0,7.185 -11.789,13.019 -26.31,13.019c-14.521,0 -26.31,-5.834 -26.31,-13.019l-0,-5.048l2.054,-0c3.989,-4.682 13.352,-7.971 24.256,-7.971c10.903,0 20.267,3.289 24.255,7.971l2.055,-0l-0,5.048Z" style="fill:#c3c3b1;"/><ellipse cx="403.82" cy="237.676" rx="26.31" ry="13.019" style="fill:#cdcdc2;"/><ellipse cx="403.82" cy="237.676" rx="19.608" ry="8.651" style="fill:#a4a289;"/><clipPath id="_clip12"><ellipse cx="403.82" cy="237.676" rx="19.608" ry="8.651"/></clipPath><g clip-path="url(#_clip12)"><ellipse cx="403.82" cy="241.883" rx="19.608" ry="8.651" style="fill:#6d4323;"/></g></g><path d="M404.798,176.733c0.675,-0.78 1.358,-1.542 2.051,-2.285c-0.006,2.055 -0.241,4.089 -0.919,6.082l1.638,-2.027c-0.185,1.878 -0.619,3.732 -1.475,5.549c0.798,-1.054 1.64,-1.706 2.5,-2.191c-1.595,2.732 -3.349,5.596 -5.554,8.836c2.551,-2.471 4.795,-4.123 6.785,-5.096c-1.332,1.42 -3.23,2.751 -3.825,5.366c0.606,-0.423 2.044,-0.254 2.765,-0.384c-4.327,4.076 -7.263,8.066 -9.745,12.029c3.941,-4.784 6.175,-5.742 10.278,-8.595c-3.458,3.341 -6.527,7.257 -8.867,12.25c3.883,-3.831 7.742,-6.714 11.583,-8.859c-3.951,3.056 -7.284,7.046 -10.045,11.901c3.635,-3.735 7.479,-6.253 11.408,-8.27c-3.695,3.37 -7.024,7.351 -9.936,12.032c2.997,-3.062 6.419,-5.3 10.087,-7.061c-3.863,3.064 -6.834,6.804 -9.009,11.149c3.015,-3.26 6.278,-5.34 9.608,-7.104c-4.753,4.68 -8.594,10.145 -11.881,16.086c-5.175,-4.835 -10.381,-8.979 -15.668,-11.344c4.098,0.921 8.201,2.339 12.309,4.387c-4.28,-2.684 -8.402,-5.041 -12.112,-6.545l-0.652,-6.106c3.103,0.383 6.294,1.695 9.57,3.896c-3.519,-3.724 -7.043,-6.36 -10.573,-7.493c2.627,0.213 5.521,1.249 8.676,3.088c-2.833,-3.446 -5.755,-5.903 -8.761,-7.449c2.583,0.62 5.35,1.766 8.38,3.666c-2.77,-2.966 -5.703,-5.163 -8.87,-6.25c2.271,0.093 4.89,0.844 8.413,3.307l-0.294,-2.083c-3.057,-2.407 -7.985,-5.117 -10.738,-5.919c4.278,0.665 7.327,2.166 10.804,3.87c-4.793,-3.176 -9.614,-6.061 -14.53,-7.894c4.146,0.817 8.164,2.412 12.055,4.784c-2.934,-3.13 -6.11,-5.637 -9.34,-8.004c3.211,1.894 6.466,3.902 10.136,6.971c-2.818,-4.199 -6.119,-7.79 -10.047,-10.59c3.122,1.679 6.027,3.649 8.623,6.03c-3.78,-4.441 -6.108,-7.003 -10.805,-10.257c3.278,1.632 6.859,4.059 11.697,8.722c-3.185,-4.633 -6.833,-8.32 -11.128,-10.688c3.561,1.316 6.746,3.536 10.562,7.608l-10.997,-12.121l11.118,9.478c-2.408,-4.126 -7.511,-9.067 -11.242,-11.524c3.425,1.675 7.078,4.254 10.588,8.079c-2.234,-5.938 -5.815,-8.711 -8.715,-11.919c1.777,1.488 3.654,2.852 5.685,4.025c-2.327,-1.622 -3.971,-3.653 -5.4,-5.813c2.166,2.308 4.564,4.585 7.244,6.827c-2.089,-2.819 -4.028,-5.685 -5.126,-8.81c1.293,1.467 1.114,1.826 3.121,3.204c-1.059,-1.306 -1.387,-2.925 -1.942,-4.185l1.746,1.724c-1.203,-1.842 -1.182,-3.824 -1.439,-5.082l2.846,5.943c-0.432,-3.273 -0.283,-5.061 0.09,-6.279c0.887,2.99 1.095,6.872 1.043,11.098c0.829,-4.137 1.901,-7.94 3.759,-10.66l-0.592,6.475c0.723,-2.281 1.545,-3.636 2.446,-4.251c-0.347,4.826 -1.771,10.314 -3.521,16.003c1.926,-5.944 3.95,-10.299 6.009,-14.083c-0.896,5.849 -2.554,11.687 -5.595,17.506c3.705,-4.707 6.185,-10.285 8.028,-16.317c-0.085,6.809 -2.041,13.087 -7.551,19.565l0.094,1.496c3.537,-4.578 7.11,-8.652 9.474,-16.645c0.422,1.389 0.466,2.744 0.216,4.071l0.752,-1.673c0.863,2.928 1.024,6.022 0.848,9.194l-8.44,13.196c2.791,-4.028 5.62,-7.978 8.605,-11.623c-0.629,1.124 -1.202,2.142 -1.752,3.139c-1.156,2.096 -2.214,4.1 -3.499,6.802c3.304,-2.606 5.752,-8.321 6.945,-11.955Zm-1.027,6.626c-1.889,2.393 -3.287,4.089 -4.586,5.72c-1.3,1.631 -2.503,3.196 -4.002,5.329c4,-2.18 7.569,-8.679 8.588,-11.049Zm-2.992,-6.147c-2.947,4.946 -6.326,8.364 -9.325,12.63c3.575,-2.757 5.751,-5.479 9.157,-10.703l0.168,-1.927Zm-0.215,-5.514c-2.737,5.077 -5.783,9.542 -8.997,13.674c2.712,-2.581 5.686,-6.161 9.091,-11.384l-0.094,-2.29Z" style="fill:#125557;"/><path d="M405.783,165.133c-0.61,-0.831 -1.231,-1.645 -1.862,-2.441c-0.158,2.049 -0.086,4.095 0.431,6.137l-1.471,-2.151c0.034,1.886 0.319,3.769 1.028,5.648c-0.712,-1.114 -1.499,-1.831 -2.317,-2.382c1.371,2.849 2.891,5.844 4.831,9.249c-2.346,-2.666 -4.451,-4.492 -6.357,-5.62c1.215,1.522 3.001,2.999 3.385,5.654c-0.57,-0.47 -2.017,-0.416 -2.725,-0.603c3.988,4.407 6.596,8.618 8.754,12.766c-3.547,-5.082 -5.698,-6.215 -9.56,-9.386c3.181,3.606 5.928,7.754 7.862,12.917c-3.565,-4.128 -7.182,-7.309 -10.84,-9.752c3.695,3.36 6.699,7.603 9.065,12.662c-3.326,-4.012 -6.957,-6.828 -10.713,-9.151c3.414,3.653 6.416,7.886 8.945,12.784c-2.743,-3.29 -5.976,-5.794 -9.492,-7.841c3.606,3.362 6.27,7.326 8.091,11.83c-2.745,-3.489 -5.832,-5.822 -9.01,-7.846c4.364,5.044 7.757,10.797 10.56,16.981c5.544,-4.408 11.064,-8.125 16.523,-10.062c-4.159,0.592 -8.362,1.679 -12.62,3.394c4.48,-2.335 8.777,-4.356 12.595,-5.561l1.137,-6.034c-3.123,0.134 -6.409,1.189 -9.85,3.122c3.805,-3.432 7.528,-5.78 11.137,-6.628c-2.635,0.003 -5.603,0.806 -8.894,2.388c3.098,-3.21 6.207,-5.426 9.327,-6.728c-2.625,0.412 -5.474,1.334 -8.646,2.987c2.998,-2.736 6.096,-4.693 9.34,-5.524c-2.272,-0.088 -4.942,0.452 -8.65,2.627l0.459,-2.053c3.24,-2.156 8.368,-4.466 11.176,-5.046c-4.317,0.322 -7.476,1.576 -11.079,2.998c5.032,-2.784 10.067,-5.277 15.114,-6.712c-4.198,0.484 -8.331,1.754 -12.398,3.809c3.174,-2.886 6.54,-5.133 9.948,-7.235c-3.351,1.632 -6.756,3.375 -10.659,6.141c3.144,-3.96 6.72,-7.278 10.86,-9.756c-3.247,1.425 -6.299,3.158 -9.077,5.325c4.122,-4.126 6.647,-6.495 11.589,-9.365c-3.398,1.366 -7.161,3.501 -12.356,7.764c3.544,-4.365 7.475,-7.75 11.945,-9.769c-3.654,1.029 -7.006,2.988 -11.135,6.743l11.928,-11.207l-11.838,8.563c2.73,-3.921 8.21,-8.44 12.126,-10.592c-3.548,1.397 -7.395,3.677 -11.199,7.21c2.701,-5.741 6.491,-8.22 9.638,-11.188c-1.89,1.342 -3.869,2.552 -5.988,3.56c2.448,-1.431 4.249,-3.325 5.847,-5.364c-2.344,2.127 -4.915,4.207 -7.766,6.229c2.307,-2.645 4.468,-5.347 5.813,-8.375c-1.406,1.36 -1.257,1.732 -3.367,2.946c1.16,-1.218 1.615,-2.806 2.269,-4.017l-1.878,1.579c1.346,-1.74 1.484,-3.718 1.84,-4.951l-3.311,5.698c0.692,-3.229 0.686,-5.023 0.411,-6.267c-1.123,2.91 -1.64,6.764 -1.925,10.98c-0.496,-4.189 -1.261,-8.065 -2.896,-10.925l0.074,6.501c-0.539,-2.331 -1.251,-3.747 -2.1,-4.431c-0.038,4.837 0.942,10.421 2.233,16.231c-1.445,-6.078 -3.115,-10.58 -4.866,-14.516c0.426,5.902 1.614,11.854 4.181,17.896c-3.318,-4.987 -5.345,-10.744 -6.701,-16.904c-0.458,6.793 0.991,13.207 5.966,20.104l-0.212,1.483c-3.161,-4.844 -6.398,-9.19 -8.117,-17.345c-0.531,1.35 -0.683,2.697 -0.54,4.04l-0.616,-1.728c-1.094,2.851 -1.501,5.922 -1.579,9.098l7.361,13.825c-2.461,-4.236 -4.966,-8.4 -7.651,-12.27c0.538,1.171 1.027,2.231 1.496,3.269c0.985,2.181 1.88,4.262 2.946,7.058c-3.086,-2.86 -5.071,-8.753 -5.97,-12.47Zm0.495,6.687c1.693,2.536 2.951,4.338 4.116,6.067c1.166,1.729 2.239,3.385 3.564,5.63c-3.814,-2.492 -6.853,-9.253 -7.68,-11.697Zm3.473,-5.89c2.544,5.166 5.639,8.842 8.288,13.332c-3.343,-3.032 -5.296,-5.919 -8.274,-11.397l-0.014,-1.935Zm0.654,-5.479c2.323,5.279 5.004,9.973 7.878,14.347c-2.498,-2.789 -5.177,-6.594 -8.154,-12.072l0.276,-2.275Z" style="fill:#125557;"/><g id="leaf"><path d="M397.514,215.57c4.966,-2.176 6.566,-2.502 12.265,-1.875c-4.774,-1.569 -6.95,-1.562 -12.124,0.36c4.426,-2.496 6.538,-3.193 12.417,-4.177c-5.604,-0.409 -7.573,0.423 -12.603,2.401c0.639,-1.175 14.06,-5.526 14.326,-4.918c-5.603,0.019 -10.762,0.924 -15.301,3.06c4.398,-2.936 9.147,-4.386 14.085,-5.042c-5.169,-0.092 -10.282,0.719 -15.301,3.06c4.351,-2.831 9.248,-4.343 14.383,-5.28c-5.192,0.251 -10.226,1.056 -14.908,3.101c3.507,-3.145 8.233,-4.704 13.336,-5.771c-5.7,0.338 -10.991,1.283 -15.517,3.363c3.86,-2.933 8.516,-4.527 13.418,-5.706c-5.382,0.255 -10.728,1.097 -15.975,3.543c3.41,-3.17 7.79,-5.057 12.509,-6.495c-5.245,0.493 -10.396,1.755 -15.374,4.427c2.241,-3.332 6.843,-5.588 11.056,-7.24c-5.086,0.739 -9.733,2.531 -13.88,5.519c1.59,-3.105 6.205,-5.689 9.234,-7.304c-4.324,1.147 -8.397,2.934 -11.93,6.097c1.441,-3.127 5.963,-6.561 9.74,-8.647c-4.012,1.012 -7.642,2.785 -10.589,5.914c0.447,-3.376 3.148,-6.562 6.603,-9.685c-4.348,1.977 -7.489,5.759 -10.449,9.485c0.872,-4.065 2.358,-8.425 5.345,-11.091c-3.877,1.367 -6.035,4.993 -8.971,9.513c-0.409,-4.168 0.745,-7.608 2.318,-10.854c-4.076,1.69 -4.557,5.555 -6.34,9.804c-0.066,-3.998 0.716,-7.324 1.998,-10.253c-2.382,2.349 -4.24,5.245 -5.139,9.142c-0.818,-4.033 -0.378,-7.569 0.665,-10.868c-2.122,2.446 -3.765,5.525 -4.142,10.281c-2.126,-3.405 -3.152,-6.673 -3.341,-9.838c-0.747,2.978 -0.985,6.051 0.105,9.375c-2.076,-3.309 -4.822,-6.02 -8.822,-7.613c2.77,2.302 4.702,4.837 6.002,7.547c-3.197,-3.293 -7.606,-5.24 -12.603,-6.534c4.061,1.855 8.224,4.24 10.461,7.704c-5.557,-1.625 -10.526,-1.78 -15.137,-1.035c5.182,0.812 11.419,1.061 14.648,2.887c-5.548,0.379 -11.528,2.633 -15.894,4.875l17.924,-3.653c-6.493,1.494 -12.16,4.005 -17.065,7.453c5.974,-2.697 12.049,-4.807 18.231,-6.298c-4.458,2.344 -7.097,5.474 -8.676,9.059c4.464,-3.861 9.91,-8.228 14.161,-9.013c-3.639,1.855 -5.436,5.722 -6.06,8.451c2.435,-3.759 5.377,-6.745 9.875,-7.363c-2.983,1.603 -3.801,4.1 -4.04,6.834c1.634,-2.755 3.866,-5.003 7.613,-5.968c-2.022,1.915 -2.961,3.091 -3.105,6.784c2.127,-3.518 3.942,-4.32 7.574,-5.343c-2.529,1.784 -3.947,4.011 -4.423,6.612c1.739,-2.349 4.11,-4.245 7.386,-5.492c-1.826,1.616 -2.366,2.819 -2.505,6.365c0.996,-2.74 3.084,-3.964 6.222,-4.427c-2.129,1.52 -2.775,3.479 -3.263,5.484c1.754,-1.942 3.739,-3.358 6.693,-3.423c-2.772,1.106 -4.897,3.311 -6.774,5.937c2.687,-2.013 5.564,-4.057 8.547,-3.403c-3.01,0.794 -4.418,1.917 -6.701,4.476c2.711,-1.823 5.474,-2.788 8.326,-2.3c-2.788,0.727 -4.867,2.161 -6.518,4.02c2.773,-1.459 5.536,-2.335 8.28,-2.08c-2.465,0.663 -3.838,2.052 -5.595,4.434c2.583,-1.533 4.592,-2.175 7.737,-1.379c-2.793,0.47 -4.306,2.146 -5.538,4.086c2.04,-1.614 4.549,-2.731 7.875,-2.98c-2.865,0.646 -4.659,2.685 -5.927,5.406c1.605,-1.892 3.473,-3.369 6.114,-3.63c-1.94,0.613 -3.123,2.255 -4.042,4.256c1.799,-2.002 4.156,-3.39 7.1,-4.137Z" style="fill:url(#_Radial13);"/><path d="M402.342,224.533c-10.275,-24.869 -26.498,-33.216 -45.64,-33.448c21.443,1.878 37.007,12.24 44.158,34.741c0.899,0.342 1.897,-0.291 1.482,-1.293Z" style="fill:#196a4d;"/></g><g id="leaf1" serif:id="leaf"><path d="M408.671,213.463c-4.796,-2.53 -6.368,-2.972 -12.097,-2.76c4.875,-1.218 7.045,-1.054 12.065,1.238c-4.232,-2.81 -6.288,-3.658 -12.08,-5.066c5.619,-0.002 7.523,0.971 12.396,3.308c-0.553,-1.218 -13.622,-6.531 -13.932,-5.943c5.587,0.425 10.666,1.701 15.038,4.161c-4.172,-3.247 -8.804,-5.037 -13.68,-6.05c5.161,0.283 10.202,1.463 15.038,4.162c-4.134,-3.14 -8.908,-5.003 -13.961,-6.309c5.159,0.627 10.122,1.794 14.642,4.174c-3.268,-3.391 -7.868,-5.289 -12.881,-6.724c5.661,0.751 10.869,2.077 15.232,4.48c-3.637,-3.205 -8.164,-5.132 -12.968,-6.664c5.349,0.644 10.619,1.872 15.676,4.692c-3.172,-3.409 -7.403,-5.608 -12.005,-7.384c5.196,0.871 10.241,2.503 15.012,5.53c-1.992,-3.486 -6.419,-6.07 -10.5,-8.023c5.018,1.106 9.523,3.229 13.442,6.511c-1.361,-3.212 -5.776,-6.125 -8.679,-7.955c4.23,1.457 8.162,3.535 11.455,6.946c-1.21,-3.223 -5.47,-6.976 -9.085,-9.33c3.928,1.3 7.418,3.332 10.131,6.666c-0.201,-3.399 -2.663,-6.773 -5.882,-10.138c4.193,2.287 7.051,6.287 9.732,10.218c-0.574,-4.118 -1.74,-8.574 -4.524,-11.449c3.767,1.644 5.656,5.416 8.256,10.137c0.71,-4.127 -0.191,-7.641 -1.523,-10.993c3.942,1.981 4.14,5.871 5.61,10.238c0.356,-3.983 -0.182,-7.356 -1.247,-10.371c2.204,2.516 3.847,5.539 4.46,9.491c1.109,-3.963 0.928,-7.522 0.127,-10.887c1.938,2.593 3.354,5.783 3.384,10.553c2.368,-3.241 3.629,-6.426 4.047,-9.569c0.529,3.024 0.543,6.107 -0.786,9.342c2.311,-3.149 5.247,-5.654 9.352,-6.953c-2.93,2.095 -5.041,4.483 -6.535,7.092c3.428,-3.052 7.967,-4.675 13.045,-5.603c-4.185,1.556 -8.511,3.632 -10.994,6.926c5.661,-1.219 10.629,-1.013 15.173,0.065c-5.227,0.434 -11.466,0.23 -14.819,1.817c5.506,0.78 11.306,3.462 15.497,6.014l-17.611,-4.942c6.368,1.961 11.837,4.876 16.479,8.67c-5.763,-3.122 -11.669,-5.668 -17.726,-7.603c4.277,2.661 6.68,5.974 7.995,9.665c-4.172,-4.175 -9.286,-8.926 -13.468,-10.017c3.494,2.114 5.005,6.102 5.429,8.868c-2.155,-3.926 -4.873,-7.117 -9.313,-8.059c2.858,1.815 3.492,4.364 3.532,7.109c-1.429,-2.867 -3.492,-5.271 -7.159,-6.504c1.877,2.056 2.729,3.297 2.603,6.991c-1.865,-3.663 -3.617,-4.595 -7.165,-5.879c2.393,1.963 3.645,4.287 3.931,6.916c-1.564,-2.469 -3.791,-4.532 -6.967,-6.013c1.703,1.743 2.155,2.982 2.035,6.529c-0.794,-2.805 -2.787,-4.177 -5.883,-4.866c2.012,1.67 2.514,3.671 2.855,5.706c-1.608,-2.065 -3.485,-3.62 -6.426,-3.899c2.684,1.304 4.643,3.657 6.324,6.412c-2.533,-2.202 -5.254,-4.449 -8.277,-4.013c2.944,1.009 4.267,2.232 6.358,4.949c-2.571,-2.015 -5.257,-3.177 -8.137,-2.897c2.729,0.927 4.697,2.508 6.209,4.482c-2.659,-1.656 -5.351,-2.731 -8.107,-2.676c2.41,0.841 3.678,2.326 5.258,4.829c-2.465,-1.716 -4.421,-2.502 -7.617,-1.937c2.752,0.672 4.139,2.453 5.227,4.478c-1.918,-1.759 -4.339,-3.055 -7.637,-3.544c2.809,0.852 4.451,3.015 5.518,5.822c-1.463,-2.004 -3.22,-3.612 -5.834,-4.064c1.89,0.752 2.951,2.475 3.722,4.538c-1.649,-2.127 -3.899,-3.683 -6.78,-4.641Z" style="fill:url(#_Radial14);"/><path d="M403.203,222.052c12.056,-24.059 28.842,-31.207 47.951,-30.05c-21.523,0.318 -37.799,9.524 -46.566,31.447c-0.922,0.276 -1.871,-0.427 -1.385,-1.397Z" style="fill:#196a4d;"/></g><path id="spike" d="M409.715,221.397c3.558,1.074 6.999,2.396 10.368,3.871c0.143,0.065 0.212,0.229 0.157,0.376c-0.054,0.148 -0.213,0.228 -0.364,0.184c-3.423,-1.001 -6.827,-1.8 -10.452,-2.326c-0.252,-0.036 -0.478,-0.175 -0.624,-0.384c-0.146,-0.209 -0.199,-0.469 -0.146,-0.718c0.157,-0.461 0.431,-0.803 1.061,-1.003Z" style="fill:#8c671d;"/><ellipse id="head" cx="403.543" cy="222.425" rx="7.245" ry="8.103" style="fill:url(#_Radial15);"/><g id="palm"><g id="stem"><path d="M399.846,227.093l3.697,-2.124l3.696,2.124l2.483,-1.182l0.579,2.942l0,0.025c-0.023,2.133 -3.043,3.859 -6.758,3.859c-3.731,0 -6.759,-1.74 -6.759,-3.884l0.579,-2.942l2.483,1.182Z" style="fill:url(#_Radial16);"/><path d="M399.846,230.978l3.697,-2.125l3.696,2.125l2.483,-1.182l0.579,2.941l0,0.026c-0.023,2.132 -3.043,3.859 -6.758,3.859c-3.731,-0 -6.759,-1.741 -6.759,-3.885l0.579,-2.941l2.483,1.182Z" style="fill:url(#_Radial17);"/><path d="M399.846,234.862l3.697,-2.125l3.696,2.125l2.483,-1.182l0.579,2.942l0,0.025c-0.023,2.132 -3.043,3.859 -6.758,3.859c-3.731,-0 -6.759,-1.741 -6.759,-3.884l0.579,-2.942l2.483,1.182Z" style="fill:url(#_Radial18);"/></g><g id="spikes"><path id="spike1" serif:id="spike" d="M396.919,223.228c-4.077,4.498 -7.731,9.278 -11.146,14.217c-0.086,0.131 -0.056,0.305 0.068,0.401c0.124,0.095 0.301,0.078 0.405,-0.038c3.97,-4.422 8.044,-8.478 12.75,-12.311c0.4,-0.324 0.491,-0.897 0.212,-1.329c-0.507,-0.814 -1.142,-1.213 -2.289,-0.94Z" style="fill:#8c671d;"/><path id="spike2" serif:id="spike" d="M397.487,219.284c-2.934,-0.783 -5.891,-1.356 -8.864,-1.795c-0.155,-0.02 -0.3,0.083 -0.331,0.236c-0.032,0.153 0.06,0.305 0.211,0.348c2.764,0.783 5.445,1.697 8.158,2.87c0.268,0.117 0.576,0.098 0.828,-0.051c0.251,-0.149 0.416,-0.41 0.442,-0.701c-0.071,-0.296 -0.168,-0.586 -0.444,-0.907Z" style="fill:#8c671d;"/><path id="spike3" serif:id="spike" d="M408.557,218.699c3.852,-1.293 7.759,-2.283 11.699,-3.089c0.154,-0.028 0.304,0.068 0.343,0.219c0.04,0.151 -0.044,0.308 -0.192,0.358c-3.709,1.269 -7.262,2.706 -10.841,4.54c-0.218,0.112 -0.471,0.133 -0.704,0.058c-0.232,-0.075 -0.426,-0.24 -0.536,-0.458c-0.221,-0.53 -0.225,-1.023 0.231,-1.628Z" style="fill:#8c671d;"/><path id="spike4" serif:id="spike" d="M409.554,223.401c3.704,4.168 7.025,8.585 10.124,13.146c0.086,0.132 0.055,0.306 -0.07,0.401c-0.124,0.095 -0.301,0.077 -0.405,-0.04c-3.62,-4.096 -7.347,-7.864 -11.651,-11.435c-0.363,-0.3 -0.442,-0.824 -0.183,-1.217c0.511,-0.749 1.109,-1.122 2.185,-0.855Z" style="fill:#8c671d;"/></g></g><path id="stem_mask" d="M396.92,219.135c1.129,-2.835 3.671,-4.813 6.623,-4.813c2.652,0 4.973,1.597 6.236,3.978c3.613,-1.151 7.271,-2.047 10.956,-2.787c0.139,-0.026 0.273,0.06 0.309,0.196c0.036,0.136 -0.04,0.276 -0.173,0.321c-3.545,1.196 -6.942,2.535 -10.349,4.216c0.119,0.475 0.2,0.968 0.239,1.474c3.346,1.062 6.59,2.338 9.771,3.746c0.128,0.059 0.189,0.206 0.14,0.338c-0.05,0.131 -0.193,0.202 -0.328,0.162c-3.177,-0.945 -6.328,-1.719 -9.645,-2.266c-0.04,0.281 -0.093,0.557 -0.158,0.828c3.419,3.959 6.512,8.132 9.414,12.428c0.076,0.118 0.048,0.274 -0.064,0.358c-0.113,0.084 -0.271,0.068 -0.363,-0.037c-3.002,-3.418 -6.068,-6.608 -9.467,-9.643l0.24,1.219l0,0.025c-0.005,0.5 -0.175,0.978 -0.481,1.416l0.481,2.443l0,0.026c-0.005,0.499 -0.175,0.977 -0.481,1.415l0.481,2.444l0,0.025c-0.005,0.499 -0.175,0.977 -0.481,1.415l0.481,2.444l0,0.025c-0.005,0.5 -0.175,0.977 -0.481,1.416l0.481,2.443l0,0.025c-0.005,0.5 -0.175,0.977 -0.481,1.416l0.481,2.443l0,0.025c-0.004,0.368 -0.097,0.724 -0.268,1.061l0.546,2.773l-0,0.026c-0.006,0.52 -0.183,1.017 -0.501,1.474l0.501,2.543l-0,0.027c-0.006,0.52 -0.183,1.017 -0.501,1.473l0.501,2.544l-0,0.026c-0.006,0.521 -0.183,1.018 -0.501,1.474l0.501,2.544l-0,0.026c-0.005,0.426 -0.124,0.836 -0.342,1.221l0.551,2.797l-0,0.027c-0.006,0.536 -0.188,1.047 -0.516,1.517l0.516,2.62l-0,0.027c-0.005,0.412 -0.114,0.811 -0.314,1.187l0.581,2.949l-0,0.028c-0.006,0.556 -0.196,1.087 -0.535,1.574l0.535,2.716l-0,0.028c-0.026,2.369 -3.383,4.289 -7.512,4.289c-4.147,-0 -7.513,-1.935 -7.513,-4.317l0.535,-2.716c-0.345,-0.496 -0.535,-1.036 -0.535,-1.602l0.581,-2.949c-0.204,-0.384 -0.314,-0.792 -0.314,-1.214l0.516,-2.62c-0.333,-0.477 -0.516,-0.999 -0.516,-1.544l0.551,-2.797c-0.222,-0.392 -0.342,-0.812 -0.342,-1.247l0.501,-2.544c-0.323,-0.464 -0.501,-0.97 -0.501,-1.5l0.501,-2.544c-0.323,-0.464 -0.501,-0.97 -0.501,-1.5l0.501,-2.543c-0.323,-0.464 -0.501,-0.97 -0.501,-1.5l0.546,-2.773c-0.175,-0.345 -0.268,-0.709 -0.268,-1.086l0.481,-2.443c-0.311,-0.446 -0.481,-0.932 -0.481,-1.441l0.481,-2.443c-0.311,-0.446 -0.481,-0.932 -0.481,-1.441l0.481,-2.444c-0.311,-0.445 -0.481,-0.931 -0.481,-1.44l0.481,-2.444c-0.311,-0.445 -0.481,-0.932 -0.481,-1.441l0.481,-2.443c-0.311,-0.446 -0.481,-0.932 -0.481,-1.441l0.355,-1.804c-4.064,3.481 -7.68,7.158 -11.224,11.129c-0.094,0.106 -0.253,0.12 -0.364,0.034c-0.112,-0.087 -0.137,-0.245 -0.058,-0.361c3.35,-4.873 6.928,-9.595 10.909,-14.048c-0.069,-0.448 -0.105,-0.908 -0.105,-1.378c0,-0.54 0.047,-1.068 0.138,-1.579c-2.787,-1.191 -5.543,-2.112 -8.395,-2.903c-0.135,-0.038 -0.218,-0.172 -0.191,-0.309c0.026,-0.137 0.154,-0.23 0.293,-0.215c2.943,0.421 5.872,0.968 8.778,1.716Z" style="fill:none;"/><clipPath id="_clip19"><path d="M396.92,219.135c1.129,-2.835 3.671,-4.813 6.623,-4.813c2.652,0 4.973,1.597 6.236,3.978c3.613,-1.151 7.271,-2.047 10.956,-2.787c0.139,-0.026 0.273,0.06 0.309,0.196c0.036,0.136 -0.04,0.276 -0.173,0.321c-3.545,1.196 -6.942,2.535 -10.349,4.216c0.119,0.475 0.2,0.968 0.239,1.474c3.346,1.062 6.59,2.338 9.771,3.746c0.128,0.059 0.189,0.206 0.14,0.338c-0.05,0.131 -0.193,0.202 -0.328,0.162c-3.177,-0.945 -6.328,-1.719 -9.645,-2.266c-0.04,0.281 -0.093,0.557 -0.158,0.828c3.419,3.959 6.512,8.132 9.414,12.428c0.076,0.118 0.048,0.274 -0.064,0.358c-0.113,0.084 -0.271,0.068 -0.363,-0.037c-3.002,-3.418 -6.068,-6.608 -9.467,-9.643l0.24,1.219l0,0.025c-0.005,0.5 -0.175,0.978 -0.481,1.416l0.481,2.443l0,0.026c-0.005,0.499 -0.175,0.977 -0.481,1.415l0.481,2.444l0,0.025c-0.005,0.499 -0.175,0.977 -0.481,1.415l0.481,2.444l0,0.025c-0.005,0.5 -0.175,0.977 -0.481,1.416l0.481,2.443l0,0.025c-0.005,0.5 -0.175,0.977 -0.481,1.416l0.481,2.443l0,0.025c-0.004,0.368 -0.097,0.724 -0.268,1.061l0.546,2.773l-0,0.026c-0.006,0.52 -0.183,1.017 -0.501,1.474l0.501,2.543l-0,0.027c-0.006,0.52 -0.183,1.017 -0.501,1.473l0.501,2.544l-0,0.026c-0.006,0.521 -0.183,1.018 -0.501,1.474l0.501,2.544l-0,0.026c-0.005,0.426 -0.124,0.836 -0.342,1.221l0.551,2.797l-0,0.027c-0.006,0.536 -0.188,1.047 -0.516,1.517l0.516,2.62l-0,0.027c-0.005,0.412 -0.114,0.811 -0.314,1.187l0.581,2.949l-0,0.028c-0.006,0.556 -0.196,1.087 -0.535,1.574l0.535,2.716l-0,0.028c-0.026,2.369 -3.383,4.289 -7.512,4.289c-4.147,-0 -7.513,-1.935 -7.513,-4.317l0.535,-2.716c-0.345,-0.496 -0.535,-1.036 -0.535,-1.602l0.581,-2.949c-0.204,-0.384 -0.314,-0.792 -0.314,-1.214l0.516,-2.62c-0.333,-0.477 -0.516,-0.999 -0.516,-1.544l0.551,-2.797c-0.222,-0.392 -0.342,-0.812 -0.342,-1.247l0.501,-2.544c-0.323,-0.464 -0.501,-0.97 -0.501,-1.5l0.501,-2.544c-0.323,-0.464 -0.501,-0.97 -0.501,-1.5l0.501,-2.543c-0.323,-0.464 -0.501,-0.97 -0.501,-1.5l0.546,-2.773c-0.175,-0.345 -0.268,-0.709 -0.268,-1.086l0.481,-2.443c-0.311,-0.446 -0.481,-0.932 -0.481,-1.441l0.481,-2.443c-0.311,-0.446 -0.481,-0.932 -0.481,-1.441l0.481,-2.444c-0.311,-0.445 -0.481,-0.931 -0.481,-1.44l0.481,-2.444c-0.311,-0.445 -0.481,-0.932 -0.481,-1.441l0.481,-2.443c-0.311,-0.446 -0.481,-0.932 -0.481,-1.441l0.355,-1.804c-4.064,3.481 -7.68,7.158 -11.224,11.129c-0.094,0.106 -0.253,0.12 -0.364,0.034c-0.112,-0.087 -0.137,-0.245 -0.058,-0.361c3.35,-4.873 6.928,-9.595 10.909,-14.048c-0.069,-0.448 -0.105,-0.908 -0.105,-1.378c0,-0.54 0.047,-1.068 0.138,-1.579c-2.787,-1.191 -5.543,-2.112 -8.395,-2.903c-0.135,-0.038 -0.218,-0.172 -0.191,-0.309c0.026,-0.137 0.154,-0.23 0.293,-0.215c2.943,0.421 5.872,0.968 8.778,1.716Z"/></clipPath><g clip-path="url(#_clip19)"><path d="M383.539,232.417l9.959,7.674l-4.695,-7.674l7.825,7.674l-1.422,-6.395l4.553,7.816l-0.996,-9.095l5.833,10.232l-2.134,-10.232l5.406,12.079l-3.272,-12.079l7.683,7.674l-4.411,-10.233l10.386,10.233l-2.988,-10.233l6.972,7.39l-0,-52.061l-38.699,-0l0,47.23Z" style="fill:url(#_Linear20);"/></g><g id="leaf2" serif:id="leaf"><path d="M408.923,208.94c-5.08,-1.402 -6.657,-1.464 -11.986,0.184c4.297,-2.468 6.372,-2.84 11.608,-1.739c-4.615,-1.83 -6.738,-2.188 -12.498,-2.189c5.274,-1.403 7.284,-0.88 12.393,0.305c-0.797,-1.113 -14.28,-3.309 -14.437,-2.628c5.342,-0.957 10.402,-0.914 15.068,0.522c-4.659,-2.294 -9.416,-2.977 -14.225,-2.8c4.91,-0.997 9.911,-1.043 15.068,0.522c-4.598,-2.193 -9.506,-2.916 -14.548,-2.997c4.987,-0.643 9.912,-0.682 14.7,0.634c-3.844,-2.667 -8.596,-3.468 -13.629,-3.691c5.485,-0.641 10.678,-0.579 15.322,0.801c-4.146,-2.385 -8.837,-3.234 -13.696,-3.609c5.168,-0.673 10.397,-0.727 15.787,0.908c-3.756,-2.71 -8.23,-3.913 -12.956,-4.589c5.076,-0.401 10.185,0.016 15.355,1.934c-2.666,-3.083 -7.412,-4.633 -11.69,-5.62c4.964,-0.116 9.678,0.941 14.107,3.333c-2.012,-2.959 -6.822,-4.849 -9.965,-6.004c4.303,0.442 8.469,1.595 12.341,4.276c-1.873,-3.008 -6.73,-5.8 -10.662,-7.316c3.985,0.356 7.726,1.571 11.035,4.319c-0.966,-3.441 -4.048,-6.292 -7.84,-8.944c4.459,1.302 8.056,4.697 11.471,8.065c-1.479,-4.085 -3.592,-8.371 -6.863,-10.629c3.912,0.749 6.547,4.151 10.067,8.351c-0.276,-4.415 -1.926,-7.8 -3.942,-10.909c4.153,1.05 5.229,4.996 7.606,9.114c-0.576,-4.179 -1.852,-7.51 -3.541,-10.34c2.645,2.034 4.878,4.729 6.356,8.634c0.135,-4.346 -0.848,-7.956 -2.369,-11.212c2.412,2.179 4.47,5.102 5.589,9.994c1.482,-3.92 1.937,-7.506 1.611,-10.838c1.188,2.974 1.906,6.137 1.398,9.791c1.45,-3.811 3.633,-7.116 7.19,-9.474c-2.272,2.883 -3.707,5.862 -4.513,8.914c2.52,-3.99 6.41,-6.789 10.964,-9.009c-3.573,2.642 -7.159,5.854 -8.737,9.855c5.035,-2.663 9.746,-3.691 14.258,-3.718c-4.808,1.75 -10.71,3.097 -13.496,5.563c5.347,-0.572 11.405,0.734 15.923,2.31l-17.662,-0.682c6.426,0.425 12.226,2.055 17.451,4.794c-6.123,-1.77 -12.249,-2.911 -18.377,-3.387c4.622,1.667 7.636,4.469 9.713,7.931c-4.87,-3.246 -10.756,-6.85 -14.932,-6.926c3.763,1.299 6.094,5.017 7.124,7.752c-2.921,-3.494 -6.201,-6.094 -10.585,-5.953c3.098,1.151 4.276,3.611 4.941,6.42c-1.997,-2.588 -4.483,-4.542 -8.208,-4.894c2.233,1.644 3.316,2.705 4.042,6.53c-2.588,-3.296 -4.445,-3.816 -8.069,-4.249c2.694,1.419 4.401,3.492 5.27,6.121c-2.032,-2.145 -4.594,-3.708 -7.915,-4.437c1.998,1.366 2.705,2.526 3.404,6.198c-1.387,-2.683 -3.572,-3.594 -6.636,-3.529c2.271,1.212 3.199,3.142 3.985,5.147c-1.981,-1.719 -4.099,-2.848 -6.924,-2.401c2.818,0.67 5.195,2.597 7.402,5.007c-2.881,-1.63 -5.948,-3.258 -8.686,-2.057c2.994,0.303 4.515,1.228 7.099,3.497c-2.874,-1.427 -5.661,-1.951 -8.301,-0.945c2.774,0.271 4.983,1.404 6.854,3.054c-2.876,-1.037 -5.648,-1.469 -8.222,-0.725c2.454,0.262 3.984,1.471 6.039,3.647c-2.706,-1.147 -4.722,-1.467 -7.593,-0.089c2.737,0.003 4.446,1.487 5.93,3.295c-2.202,-1.328 -4.771,-2.055 -7.979,-1.734c2.832,0.174 4.867,1.986 6.511,4.602c-1.832,-1.693 -3.848,-2.907 -6.406,-2.718c1.946,0.301 3.336,1.806 4.531,3.732c-2.033,-1.773 -4.502,-2.81 -7.425,-3.075Z" style="fill:url(#_Radial21);"/><path d="M405.753,219.125c5.819,-27.716 19.943,-39.245 38.145,-42.825c-20.131,5.697 -33.306,19.212 -36.526,43.914c-0.802,0.514 -1.853,0.028 -1.619,-1.089Z" style="fill:#196a4d;"/></g><g id="leaf3" serif:id="leaf"><path d="M398.242,211.149c5.08,-1.402 6.657,-1.464 11.986,0.184c-4.297,-2.468 -6.372,-2.84 -11.609,-1.739c4.615,-1.83 6.739,-2.188 12.498,-2.189c-5.274,-1.404 -7.283,-0.88 -12.392,0.305c0.797,-1.113 14.28,-3.309 14.436,-2.628c-5.342,-0.957 -10.401,-0.914 -15.068,0.522c4.659,-2.295 9.416,-2.978 14.226,-2.8c-4.91,-0.998 -9.911,-1.044 -15.068,0.522c4.598,-2.193 9.505,-2.916 14.548,-2.997c-4.987,-0.643 -9.913,-0.682 -14.7,0.634c3.844,-2.667 8.596,-3.468 13.629,-3.691c-5.486,-0.641 -10.678,-0.579 -15.323,0.8c4.147,-2.384 8.837,-3.234 13.697,-3.608c-5.169,-0.673 -10.397,-0.727 -15.788,0.907c3.756,-2.709 8.231,-3.913 12.957,-4.588c-5.076,-0.401 -10.186,0.016 -15.356,1.934c2.667,-3.083 7.413,-4.633 11.691,-5.62c-4.964,-0.116 -9.678,0.941 -14.107,3.333c2.011,-2.959 6.822,-4.849 9.965,-6.004c-4.303,0.441 -8.469,1.594 -12.341,4.276c1.873,-3.008 6.73,-5.8 10.662,-7.316c-3.985,0.355 -7.726,1.571 -11.035,4.319c0.966,-3.442 4.048,-6.292 7.839,-8.944c-4.459,1.302 -8.055,4.697 -11.471,8.065c1.48,-4.086 3.593,-8.371 6.864,-10.629c-3.912,0.748 -6.548,4.151 -10.067,8.351c0.276,-4.416 1.925,-7.8 3.942,-10.91c-4.153,1.051 -5.229,4.997 -7.607,9.114c0.577,-4.178 1.853,-7.509 3.542,-10.339c-2.645,2.034 -4.878,4.729 -6.357,8.634c-0.135,-4.347 0.849,-7.956 2.369,-11.213c-2.412,2.18 -4.469,5.103 -5.588,9.994c-1.482,-3.919 -1.938,-7.505 -1.612,-10.837c-1.188,2.974 -1.905,6.136 -1.397,9.791c-1.45,-3.811 -3.633,-7.116 -7.191,-9.474c2.273,2.882 3.708,5.862 4.514,8.913c-2.52,-3.99 -6.41,-6.788 -10.965,-9.008c3.574,2.642 7.159,5.853 8.737,9.855c-5.035,-2.663 -9.745,-3.691 -14.258,-3.718c4.808,1.75 10.711,3.097 13.496,5.563c-5.347,-0.573 -11.404,0.734 -15.922,2.31l17.662,-0.682c-6.426,0.425 -12.227,2.055 -17.451,4.793c6.123,-1.769 12.249,-2.91 18.377,-3.386c-4.623,1.667 -7.636,4.468 -9.713,7.931c4.869,-3.246 10.756,-6.85 14.932,-6.926c-3.763,1.299 -6.094,5.017 -7.124,7.752c2.921,-3.494 6.201,-6.094 10.585,-5.953c-3.098,1.151 -4.276,3.61 -4.941,6.419c1.997,-2.587 4.483,-4.541 8.207,-4.893c-2.232,1.643 -3.315,2.705 -4.042,6.53c2.589,-3.297 4.446,-3.816 8.07,-4.249c-2.694,1.419 -4.401,3.492 -5.271,6.121c2.033,-2.145 4.595,-3.708 7.915,-4.437c-1.997,1.366 -2.704,2.525 -3.403,6.198c1.387,-2.683 3.572,-3.594 6.635,-3.53c-2.271,1.213 -3.199,3.143 -3.984,5.148c1.981,-1.719 4.099,-2.848 6.924,-2.401c-2.818,0.669 -5.195,2.597 -7.403,5.007c2.881,-1.63 5.949,-3.259 8.687,-2.057c-2.994,0.303 -4.515,1.228 -7.099,3.497c2.874,-1.427 5.661,-1.952 8.301,-0.945c-2.774,0.271 -4.983,1.404 -6.854,3.054c2.875,-1.037 5.648,-1.469 8.222,-0.725c-2.454,0.262 -3.984,1.47 -6.04,3.647c2.707,-1.148 4.723,-1.467 7.594,-0.089c-2.737,0.003 -4.446,1.487 -5.93,3.294c2.202,-1.327 4.771,-2.054 7.979,-1.733c-2.833,0.174 -4.868,1.986 -6.511,4.602c1.832,-1.693 3.848,-2.907 6.405,-2.718c-1.945,0.301 -3.335,1.805 -4.531,3.731c2.034,-1.773 4.502,-2.809 7.426,-3.074Z" style="fill:url(#_Radial22);"/><path d="M401.412,221.334c-5.819,-27.716 -19.943,-39.245 -38.146,-42.825c20.132,5.697 33.307,19.212 36.526,43.914c0.802,0.513 1.854,0.028 1.62,-1.089Z" style="fill:#196a4d;"/></g><path id="leaf4" serif:id="leaf" d="M408.186,218.279c-0.241,0.466 0.649,1.295 1.363,0.032c2.952,-8.138 31.09,-22.686 53.745,-14.097c-1.299,-0.848 -2.644,-1.426 -4.079,-1.674l3.149,0.302c-1.51,-0.844 -3.392,-1.87 -5.379,-1.935l1.629,-0.235c-2.677,-1.036 -7.198,-1.234 -8.995,-1.23c-5.004,-1.239 -8.472,-0.571 -12.019,-0c-13.621,-1.071 -23.189,6.776 -29.414,18.837Z" style="fill:url(#_Radial23);"/><path id="leaf5" serif:id="leaf" d="M398.011,219.601c0.24,0.466 -0.65,1.295 -1.364,0.032c-2.952,-8.138 -31.09,-22.686 -53.745,-14.097c1.299,-0.848 2.644,-1.426 4.079,-1.674l-3.149,0.302c1.51,-0.844 3.392,-1.87 5.38,-1.935l-1.63,-0.235c2.677,-1.036 7.198,-1.234 8.995,-1.23c5.004,-1.239 8.473,-0.571 12.019,-0c13.622,-1.071 23.19,6.776 29.415,18.837Z" style="fill:url(#_Radial24);"/></g><g id="fence"><path d="M370.092,265.022l19.983,10.01l-199.989,100.021l-20.014,-10.022l200.02,-100.009Z" style="fill:#fa697e;"/><g id="short-column" serif:id="short column"><path d="M347.414,271.928l25.647,-0l3.176,8.018l-16,8.018l-16,-8.018l3.177,-8.018Z" style="fill:#c6c6b7;"/><path d="M360.25,278.36l12.811,-6.432l3.176,8.018l-16,8.018l0.013,-9.604Z" style="fill:#c6c6b7;"/><path d="M360.237,278.354l-12.823,-6.426l-3.177,8.018l16,8.018l0,-9.61Z" style="fill:#cdcdc2;"/><path d="M360.237,265.502l12.824,6.426l-12.824,6.426l-12.823,-6.426l12.823,-6.426Z" style="fill:#d5d5c9;"/><path d="M351.105,271.928l0,-27.634l18.218,-0l0,27.634c0,2.516 -4.082,4.559 -9.109,4.559c-5.027,0 -9.109,-2.043 -9.109,-4.559Z" style="fill:url(#_Linear25);"/><clipPath id="_clip26"><path d="M351.105,271.928l0,-27.634l18.218,-0l0,27.634c0,2.516 -4.082,4.559 -9.109,4.559c-5.027,0 -9.109,-2.043 -9.109,-4.559Z"/></clipPath><g clip-path="url(#_clip26)"><rect x="352.495" y="208.339" width="0.671" height="69.512" style="fill:url(#_Linear27);"/><rect x="354.97" y="209.919" width="1.041" height="69.512" style="fill:url(#_Linear28);"/><rect x="367.555" y="209.202" width="0.671" height="69.512" style="fill:url(#_Linear29);"/><rect x="364.709" y="209.202" width="1.041" height="69.512" style="fill:url(#_Linear30);"/><rect x="359.587" y="210.629" width="1.255" height="69.512" style="fill:url(#_Linear31);"/></g><path d="M344.237,237.517l32,-0l-3.176,8.018l-12.824,6.426l-12.823,-6.426l-3.177,-8.018Z" style="fill:#c6c6b7;"/><path d="M360.254,245.543l15.983,-8.026l-3.176,8.018l-12.824,6.426l0.017,-6.418Z" style="fill:#c3c3b1;"/><path d="M360.237,245.535l-16,-8.018l3.185,8.058l12.815,6.386l0,-6.426Z" style="fill:#cdcdc2;"/><path d="M360.237,229.499l16,8.018l-16,8.018l-16,-8.018l16,-8.018Z" style="fill:#d5d5c9;"/></g><g id="short-column1" serif:id="short column"><path d="M307.411,291.929l25.646,0l3.177,8.019l-16,8.018l-16,-8.018l3.177,-8.019Z" style="fill:#c6c6b7;"/><path d="M320.247,298.362l12.81,-6.433l3.177,8.019l-16,8.018l0.013,-9.604Z" style="fill:#c6c6b7;"/><path d="M320.234,298.356l-12.823,-6.427l-3.177,8.019l16,8.018l0,-9.61Z" style="fill:#cdcdc2;"/><path d="M320.234,285.503l12.823,6.426l-12.823,6.427l-12.823,-6.427l12.823,-6.426Z" style="fill:#d5d5c9;"/><path d="M311.102,291.929l-0,-27.634l18.218,0l-0,27.634c-0,2.517 -4.082,4.56 -9.109,4.56c-5.027,0 -9.109,-2.043 -9.109,-4.56Z" style="fill:url(#_Linear32);"/><clipPath id="_clip33"><path d="M311.102,291.929l-0,-27.634l18.218,0l-0,27.634c-0,2.517 -4.082,4.56 -9.109,4.56c-5.027,0 -9.109,-2.043 -9.109,-4.56Z"/></clipPath><g clip-path="url(#_clip33)"><rect x="312.492" y="228.341" width="0.671" height="69.512" style="fill:url(#_Linear34);"/><rect x="314.967" y="229.921" width="1.041" height="69.512" style="fill:url(#_Linear35);"/><rect x="327.552" y="229.203" width="0.671" height="69.512" style="fill:url(#_Linear36);"/><rect x="324.706" y="229.203" width="1.041" height="69.512" style="fill:url(#_Linear37);"/><rect x="319.583" y="230.63" width="1.255" height="69.512" style="fill:url(#_Linear38);"/></g><path d="M304.234,257.518l32,0l-3.177,8.019l-12.823,6.426l-12.823,-6.426l-3.177,-8.019Z" style="fill:#c6c6b7;"/><path d="M320.251,265.545l15.983,-8.027l-3.177,8.019l-12.823,6.426l0.017,-6.418Z" style="fill:#c3c3b1;"/><path d="M320.234,265.537l-16,-8.019l3.184,8.059l12.816,6.386l0,-6.426Z" style="fill:#cdcdc2;"/><path d="M320.234,249.5l16,8.018l-16,8.019l-16,-8.019l16,-8.018Z" style="fill:#d5d5c9;"/></g><g id="short-column2" serif:id="short column"><path d="M267.407,311.931l25.647,0l3.177,8.018l-16,8.018l-16,-8.018l3.176,-8.018Z" style="fill:#c6c6b7;"/><path d="M280.244,318.364l12.81,-6.433l3.177,8.018l-16,8.018l0.013,-9.603Z" style="fill:#c6c6b7;"/><path d="M280.231,318.357l-12.824,-6.426l-3.176,8.018l16,8.018l-0,-9.61Z" style="fill:#cdcdc2;"/><path d="M280.231,305.505l12.823,6.426l-12.823,6.426l-12.824,-6.426l12.824,-6.426Z" style="fill:#d5d5c9;"/><path d="M271.099,311.931l-0,-27.634l18.218,0l-0,27.634c-0,2.517 -4.082,4.56 -9.109,4.56c-5.028,-0 -9.109,-2.043 -9.109,-4.56Z" style="fill:url(#_Linear39);"/><clipPath id="_clip40"><path d="M271.099,311.931l-0,-27.634l18.218,0l-0,27.634c-0,2.517 -4.082,4.56 -9.109,4.56c-5.028,-0 -9.109,-2.043 -9.109,-4.56Z"/></clipPath><g clip-path="url(#_clip40)"><rect x="272.488" y="248.342" width="0.671" height="69.512" style="fill:url(#_Linear41);"/><rect x="274.964" y="249.923" width="1.041" height="69.512" style="fill:url(#_Linear42);"/><rect x="287.549" y="249.205" width="0.671" height="69.512" style="fill:url(#_Linear43);"/><rect x="284.703" y="249.205" width="1.041" height="69.512" style="fill:url(#_Linear44);"/><rect x="279.58" y="250.632" width="1.255" height="69.512" style="fill:url(#_Linear45);"/></g><path d="M264.231,277.52l32,0l-3.177,8.018l-12.823,6.426l-12.824,-6.426l-3.176,-8.018Z" style="fill:#c6c6b7;"/><path d="M280.248,285.547l15.983,-8.027l-3.177,8.018l-12.823,6.426l0.017,-6.417Z" style="fill:#c3c3b1;"/><path d="M280.231,285.538l-16,-8.018l3.184,8.058l12.816,6.386l-0,-6.426Z" style="fill:#cdcdc2;"/><path d="M280.231,269.502l16,8.018l-16,8.018l-16,-8.018l16,-8.018Z" style="fill:#d5d5c9;"/></g><g id="short-column3" serif:id="short column"><path d="M227.404,331.933l25.647,-0l3.176,8.018l-16,8.018l-16,-8.018l3.177,-8.018Z" style="fill:#c6c6b7;"/><path d="M240.24,338.365l12.811,-6.432l3.176,8.018l-16,8.018l0.013,-9.604Z" style="fill:#c6c6b7;"/><path d="M240.227,338.359l-12.823,-6.426l-3.177,8.018l16,8.018l0,-9.61Z" style="fill:#cdcdc2;"/><path d="M240.227,325.507l12.824,6.426l-12.824,6.426l-12.823,-6.426l12.823,-6.426Z" style="fill:#d5d5c9;"/><path d="M231.095,331.933l0,-27.634l18.218,-0l0,27.634c0,2.516 -4.081,4.559 -9.109,4.559c-5.027,0 -9.109,-2.043 -9.109,-4.559Z" style="fill:url(#_Linear46);"/><clipPath id="_clip47"><path d="M231.095,331.933l0,-27.634l18.218,-0l0,27.634c0,2.516 -4.081,4.559 -9.109,4.559c-5.027,0 -9.109,-2.043 -9.109,-4.559Z"/></clipPath><g clip-path="url(#_clip47)"><rect x="232.485" y="268.344" width="0.671" height="69.512" style="fill:url(#_Linear48);"/><rect x="234.96" y="269.924" width="1.041" height="69.512" style="fill:url(#_Linear49);"/><rect x="247.545" y="269.206" width="0.671" height="69.512" style="fill:url(#_Linear50);"/><rect x="244.699" y="269.206" width="1.041" height="69.512" style="fill:url(#_Linear51);"/><rect x="239.577" y="270.634" width="1.255" height="69.512" style="fill:url(#_Linear52);"/></g><path d="M224.227,297.522l32,-0l-3.176,8.018l-12.824,6.426l-12.823,-6.426l-3.177,-8.018Z" style="fill:#c6c6b7;"/><path d="M240.244,305.548l15.983,-8.026l-3.176,8.018l-12.824,6.426l0.017,-6.418Z" style="fill:#c3c3b1;"/><path d="M240.227,305.54l-16,-8.018l3.185,8.058l12.815,6.386l0,-6.426Z" style="fill:#cdcdc2;"/><path d="M240.227,289.504l16,8.018l-16,8.018l-16,-8.018l16,-8.018Z" style="fill:#d5d5c9;"/></g><g id="short-column4" serif:id="short column"><path d="M187.401,351.934l25.647,0l3.176,8.018l-16,8.019l-16,-8.019l3.177,-8.018Z" style="fill:#c6c6b7;"/><path d="M200.237,358.367l12.811,-6.433l3.176,8.018l-16,8.019l0.013,-9.604Z" style="fill:#c6c6b7;"/><path d="M200.224,358.361l-12.823,-6.427l-3.177,8.018l16,8.019l0,-9.61Z" style="fill:#cdcdc2;"/><path d="M200.224,345.508l12.824,6.426l-12.824,6.427l-12.823,-6.427l12.823,-6.426Z" style="fill:#d5d5c9;"/><path d="M191.092,351.934l0,-27.634l18.218,0l0,27.634c0,2.517 -4.082,4.56 -9.109,4.56c-5.027,-0 -9.109,-2.043 -9.109,-4.56Z" style="fill:url(#_Linear53);"/><clipPath id="_clip54"><path d="M191.092,351.934l0,-27.634l18.218,0l0,27.634c0,2.517 -4.082,4.56 -9.109,4.56c-5.027,-0 -9.109,-2.043 -9.109,-4.56Z"/></clipPath><g clip-path="url(#_clip54)"><rect x="192.482" y="288.346" width="0.671" height="69.512" style="fill:url(#_Linear55);"/><rect x="194.957" y="289.926" width="1.041" height="69.512" style="fill:url(#_Linear56);"/><rect x="207.542" y="289.208" width="0.671" height="69.512" style="fill:url(#_Linear57);"/><rect x="204.696" y="289.208" width="1.041" height="69.512" style="fill:url(#_Linear58);"/><rect x="199.574" y="290.635" width="1.255" height="69.512" style="fill:url(#_Linear59);"/></g><path d="M184.224,317.523l32,0l-3.176,8.018l-12.824,6.427l-12.823,-6.427l-3.177,-8.018Z" style="fill:#c6c6b7;"/><path d="M200.241,325.55l15.983,-8.027l-3.176,8.018l-12.824,6.427l0.017,-6.418Z" style="fill:#c3c3b1;"/><path d="M200.224,325.541l-16,-8.018l3.185,8.058l12.815,6.387l0,-6.427Z" style="fill:#cdcdc2;"/><path d="M200.224,309.505l16,8.018l-16,8.018l-16,-8.018l16,-8.018Z" style="fill:#d5d5c9;"/></g><g id="top-slab"><path d="M368.246,215.955c3.436,-1.72 6.225,0.471 6.225,4.891c-0,4.419 -2.789,9.404 -6.225,11.124c-3.435,1.721 -6.224,-0.47 -6.224,-4.89c0,-4.419 2.789,-9.404 6.224,-11.125Z" style="fill:url(#_Linear60);"/><path d="M392.187,225.787l-20.575,-10.245l-4.9,11.654l20.5,10.25l4.975,-11.659Z" style="fill:url(#_Linear61);"/><path d="M389.947,230.813l-20.575,-10.245l-4.9,11.654l20.5,10.25l4.975,-11.659Z" style="fill:url(#_Linear62);"/><path d="M166.913,316.462c3.435,-1.721 6.224,0.47 6.224,4.89c-0,4.419 -2.789,9.404 -6.224,11.125c-3.436,1.72 -6.225,-0.471 -6.225,-4.89c0,-4.42 2.789,-9.405 6.225,-11.125Z" style="fill:url(#_Linear63);"/><path d="M388.213,225.946l0,8l-199.989,100.022l-20.014,-10.022l0,-7.959l200.02,-100.025l19.983,9.984Z" style="fill:#cdcdc2;"/><path d="M388.213,225.946l0,8l-199.989,100.022l0.04,-7.994l199.949,-100.028Z" style="fill:#b2b4a5;"/><path d="M368.23,215.962l19.983,10.01l-199.989,100.022l-20.014,-10.022l200.02,-100.01Z" style="fill:#d5d5c9;"/><path d="M388.252,225.958c3.435,-1.72 6.224,0.471 6.224,4.89c-0,4.42 -2.789,9.405 -6.224,11.125c-3.436,1.721 -6.225,-0.47 -6.225,-4.89c0,-4.419 2.789,-9.404 6.225,-11.125Z" style="fill:#b2b4a5;"/><clipPath id="_clip64"><path d="M388.252,225.958c3.435,-1.72 6.224,0.471 6.224,4.89c-0,4.42 -2.789,9.405 -6.224,11.125c-3.436,1.721 -6.225,-0.47 -6.225,-4.89c0,-4.419 2.789,-9.404 6.225,-11.125Z"/></clipPath><g clip-path="url(#_clip64)"><path d="M381.947,239.539c0.471,-8.876 7.318,-8.889 8.387,-7.11c1.241,2.068 0.539,5.109 -1.355,6.697c-2.407,2.018 -5.17,0.993 -3.918,-2.388c1,-2.701 3.655,-2.311 2.973,0.166" style="fill:none;stroke:#a4a289;stroke-width:1px;"/></g><path d="M188.764,326.202l-20.525,-10.222l-5.638,16.477l20.5,10.25l5.663,-16.505Z" style="fill:url(#_Linear65);"/><path d="M186.918,326.464c3.435,-1.72 6.224,0.471 6.224,4.89c0,4.42 -2.789,9.405 -6.224,11.125c-3.435,1.721 -6.224,-0.47 -6.224,-4.89c-0,-4.419 2.789,-9.404 6.224,-11.125Z" style="fill:#b2b4a5;"/><clipPath id="_clip66"><path d="M186.918,326.464c3.435,-1.72 6.224,0.471 6.224,4.89c0,4.42 -2.789,9.405 -6.224,11.125c-3.435,1.721 -6.224,-0.47 -6.224,-4.89c-0,-4.419 2.789,-9.404 6.224,-11.125Z"/></clipPath><g clip-path="url(#_clip66)"><path d="M193.303,334.158c-0.792,-6.002 -5.681,-5.446 -7.794,-1.549c-1.048,1.931 -2.623,6.211 0.356,7.291c1.994,0.722 5.483,-4.029 4.878,-5.959c-0.687,-2.196 -4.191,0.967 -3.624,2.172" style="fill:none;stroke:#a4a289;stroke-width:1px;"/></g></g></g><g id="marking"><g><path d="M349.938,241.002l-11.585,-5.786l-11.585,5.786l11.585,5.785l11.585,-5.785Zm-11.585,-4.552l9.114,4.552c-0,-0 -9.114,4.551 -9.114,4.551c0,0 -9.113,-4.551 -9.113,-4.551l9.113,-4.552Z" style="fill:#b2b4a5;"/><rect x="337.726" y="237.726" width="1.105" height="6.37" style="fill:#b2b4a5;"/><path d="M343.783,240.359l-11.009,-0l0,1.104l11.009,-0l0,-1.104Z" style="fill:#b2b4a5;"/></g><g><path d="M363.056,234.443l-11.585,-5.786l-11.585,5.786l11.585,5.786l11.585,-5.786Zm-11.585,-4.552l9.113,4.552c0,-0 -9.113,4.551 -9.113,4.551c-0,0 -9.114,-4.551 -9.114,-4.551l9.114,-4.552Z" style="fill:#b2b4a5;"/><path d="M358.83,234.443l-7.359,-3.675l-7.359,3.675l7.359,3.675l7.359,-3.675Zm-7.359,-2.441l4.887,2.441c0,-0 -4.887,2.441 -4.887,2.441c-0,-0 -4.887,-2.441 -4.887,-2.441l4.887,-2.441Z" style="fill:#b2b4a5;"/></g><g><path d="M376.016,227.963l-11.585,-5.786l-11.585,5.786l11.585,5.786l11.585,-5.786Zm-11.585,-4.552l9.113,4.552c0,-0 -9.113,4.551 -9.113,4.551c-0,0 -9.114,-4.551 -9.114,-4.551l9.114,-4.552Z" style="fill:#b2b4a5;"/><path d="M363.327,230.961l1.258,0.629l7.353,-3.707l-1.235,-0.618l-7.376,3.696Z" style="fill:#b2b4a5;"/></g></g></g><defs><linearGradient id="_Linear1" x1="0" y1="0" x2="1" y2="0" gradientUnits="userSpaceOnUse" gradientTransform="matrix(45.5811,0,0,188.392,137.174,242.908)"><stop offset="0" style="stop-color:#cdcdc2;stop-opacity:1"/><stop offset="1" style="stop-color:#b9b9a7;stop-opacity:1"/></linearGradient><linearGradient id="_Linear3" x1="0" y1="0" x2="1" y2="0" gradientUnits="userSpaceOnUse" gradientTransform="matrix(70.2762,0,0,70.1968,129.778,240.183)"><stop offset="0" style="stop-color:#c6c6b7;stop-opacity:1"/><stop offset="1" style="stop-color:#979a87;stop-opacity:1"/></linearGradient><linearGradient id="_Linear4" x1="0" y1="0" x2="1" y2="0" gradientUnits="userSpaceOnUse" gradientTransform="matrix(70.2762,0,0,70.1968,129.778,240.183)"><stop offset="0" style="stop-color:#c6c6b7;stop-opacity:1"/><stop offset="1" style="stop-color:#979a87;stop-opacity:1"/></linearGradient><linearGradient id="_Linear5" x1="0" y1="0" x2="1" y2="0" gradientUnits="userSpaceOnUse" gradientTransform="matrix(70.2762,6.31089e-30,0,70.1968,129.778,240.183)"><stop offset="0" style="stop-color:#c6c6b7;stop-opacity:1"/><stop offset="1" style="stop-color:#979a87;stop-opacity:1"/></linearGradient><linearGradient id="_Linear6" x1="0" y1="0" x2="1" y2="0" gradientUnits="userSpaceOnUse" gradientTransform="matrix(70.2762,6.31089e-30,0,70.1968,129.778,240.183)"><stop offset="0" style="stop-color:#c6c6b7;stop-opacity:1"/><stop offset="1" style="stop-color:#979a87;stop-opacity:1"/></linearGradient><linearGradient id="_Linear7" x1="0" y1="0" x2="1" y2="0" gradientUnits="userSpaceOnUse" gradientTransform="matrix(70.2762,6.31089e-30,0,70.1968,129.778,240.183)"><stop offset="0" style="stop-color:#c6c6b7;stop-opacity:1"/><stop offset="1" style="stop-color:#979a87;stop-opacity:1"/></linearGradient><linearGradient id="_Linear8" x1="0" y1="0" x2="1" y2="0" gradientUnits="userSpaceOnUse" gradientTransform="matrix(1.40102e-15,-22.8804,-22.8804,-1.40102e-15,61.9543,89.0061)"><stop offset="0" style="stop-color:#c3c3b1;stop-opacity:1"/><stop offset="1" style="stop-color:#a4a289;stop-opacity:1"/></linearGradient><radialGradient id="_Radial13" cx="0" cy="0" r="1" gradientUnits="userSpaceOnUse" gradientTransform="matrix(-13.918,19.4207,-44.1316,-25.9398,372.944,207.565)"><stop offset="0" style="stop-color:#196a4d;stop-opacity:1"/><stop offset="0.3" style="stop-color:#18664f;stop-opacity:1"/><stop offset="0.5" style="stop-color:#125557;stop-opacity:1"/><stop offset="0.7" style="stop-color:#18664f;stop-opacity:1"/><stop offset="1" style="stop-color:#196a4d;stop-opacity:1"/></radialGradient><radialGradient id="_Radial14" cx="0" cy="0" r="1" gradientUnits="userSpaceOnUse" gradientTransform="matrix(12.4697,20.3788,45.9005,-22.671,433.757,207.26)"><stop offset="0" style="stop-color:#196a4d;stop-opacity:1"/><stop offset="0.3" style="stop-color:#18664f;stop-opacity:1"/><stop offset="0.5" style="stop-color:#125557;stop-opacity:1"/><stop offset="0.7" style="stop-color:#18664f;stop-opacity:1"/><stop offset="1" style="stop-color:#196a4d;stop-opacity:1"/></radialGradient><radialGradient id="_Radial15" cx="0" cy="0" r="1" gradientUnits="userSpaceOnUse" gradientTransform="matrix(6.65055e-16,21.1114,-21.3757,0,403.543,211.343)"><stop offset="0" style="stop-color:#8c671d;stop-opacity:1"/><stop offset="0.56" style="stop-color:#825c19;stop-opacity:1"/><stop offset="1" style="stop-color:#583209;stop-opacity:1"/></radialGradient><radialGradient id="_Radial16" cx="0" cy="0" r="1" gradientUnits="userSpaceOnUse" gradientTransform="matrix(6.20394e-16,10.1204,-19.9403,0,403.543,223.541)"><stop offset="0" style="stop-color:#8c671d;stop-opacity:1"/><stop offset="0.56" style="stop-color:#825c19;stop-opacity:1"/><stop offset="1" style="stop-color:#583209;stop-opacity:1"/></radialGradient><radialGradient id="_Radial17" cx="0" cy="0" r="1" gradientUnits="userSpaceOnUse" gradientTransform="matrix(6.20394e-16,10.1204,-19.9403,0,403.543,227.425)"><stop offset="0" style="stop-color:#8c671d;stop-opacity:1"/><stop offset="0.56" style="stop-color:#825c19;stop-opacity:1"/><stop offset="1" style="stop-color:#583209;stop-opacity:1"/></radialGradient><radialGradient id="_Radial18" cx="0" cy="0" r="1" gradientUnits="userSpaceOnUse" gradientTransform="matrix(6.20394e-16,10.1204,-19.9403,0,403.543,231.309)"><stop offset="0" style="stop-color:#8c671d;stop-opacity:1"/><stop offset="0.56" style="stop-color:#825c19;stop-opacity:1"/><stop offset="1" style="stop-color:#583209;stop-opacity:1"/></radialGradient><linearGradient id="_Linear20" x1="0" y1="0" x2="1" y2="0.000314905" gradientUnits="userSpaceOnUse" gradientTransform="matrix(-13.5753,-54.363,91.6412,-22.8327,413.646,254.909)"><stop offset="0" style="stop-color:#8c671d;stop-opacity:0.2"/><stop offset="0.55" style="stop-color:#67420f;stop-opacity:0.76"/><stop offset="1" style="stop-color:#583209;stop-opacity:1"/></linearGradient><radialGradient id="_Radial21" cx="0" cy="0" r="1" gradientUnits="userSpaceOnUse" gradientTransform="matrix(16.3636,17.8177,37.9065,-34.7345,431.054,196.311)"><stop offset="0" style="stop-color:#27a040;stop-opacity:1"/><stop offset="0.3" style="stop-color:#249a41;stop-opacity:1"/><stop offset="0.5" style="stop-color:#157f44;stop-opacity:1"/><stop offset="0.7" style="stop-color:#249a41;stop-opacity:1"/><stop offset="1" style="stop-color:#27a040;stop-opacity:1"/></radialGradient><radialGradient id="_Radial22" cx="0" cy="0" r="1" gradientUnits="userSpaceOnUse" gradientTransform="matrix(-16.3636,17.8177,-37.9065,-34.7345,376.11,198.52)"><stop offset="0" style="stop-color:#27a040;stop-opacity:1"/><stop offset="0.3" style="stop-color:#249a41;stop-opacity:1"/><stop offset="0.5" style="stop-color:#157f44;stop-opacity:1"/><stop offset="0.7" style="stop-color:#249a41;stop-opacity:1"/><stop offset="1" style="stop-color:#27a040;stop-opacity:1"/></radialGradient><radialGradient id="_Radial23" cx="0" cy="0" r="1" gradientUnits="userSpaceOnUse" gradientTransform="matrix(44.4786,-15.0366,5.53058,16.3227,429.402,218.048)"><stop offset="0" style="stop-color:#27a040;stop-opacity:1"/><stop offset="0.5" style="stop-color:#196a4d;stop-opacity:1"/><stop offset="1" style="stop-color:#27a040;stop-opacity:1"/></radialGradient><radialGradient id="_Radial24" cx="0" cy="0" r="1" gradientUnits="userSpaceOnUse" gradientTransform="matrix(-44.4786,-15.0366,-5.53058,16.3227,376.794,219.37)"><stop offset="0" style="stop-color:#27a040;stop-opacity:1"/><stop offset="0.5" style="stop-color:#196a4d;stop-opacity:1"/><stop offset="1" style="stop-color:#27a040;stop-opacity:1"/></radialGradient><linearGradient id="_Linear25" x1="0" y1="0" x2="1" y2="0" gradientUnits="userSpaceOnUse" gradientTransform="matrix(18.2179,0,0,75.4669,351.105,240.98)"><stop offset="0" style="stop-color:#cdcdc2;stop-opacity:1"/><stop offset="1" style="stop-color:#b9b9a7;stop-opacity:1"/></linearGradient><linearGradient id="_Linear27" x1="0" y1="0" x2="1" y2="0" gradientUnits="userSpaceOnUse" gradientTransform="matrix(28.088,0,0,28.1197,348.149,239.888)"><stop offset="0" style="stop-color:#c6c6b7;stop-opacity:1"/><stop offset="1" style="stop-color:#979a87;stop-opacity:1"/></linearGradient><linearGradient id="_Linear28" x1="0" y1="0" x2="1" y2="0" gradientUnits="userSpaceOnUse" gradientTransform="matrix(28.088,0,0,28.1197,348.149,239.888)"><stop offset="0" style="stop-color:#c6c6b7;stop-opacity:1"/><stop offset="1" style="stop-color:#979a87;stop-opacity:1"/></linearGradient><linearGradient id="_Linear29" x1="0" y1="0" x2="1" y2="0" gradientUnits="userSpaceOnUse" gradientTransform="matrix(28.088,2.76101e-30,3.9443e-31,28.1197,348.149,239.888)"><stop offset="0" style="stop-color:#c6c6b7;stop-opacity:1"/><stop offset="1" style="stop-color:#979a87;stop-opacity:1"/></linearGradient><linearGradient id="_Linear30" x1="0" y1="0" x2="1" y2="0" gradientUnits="userSpaceOnUse" gradientTransform="matrix(28.088,2.36658e-30,0,28.1197,348.149,239.888)"><stop offset="0" style="stop-color:#c6c6b7;stop-opacity:1"/><stop offset="1" style="stop-color:#979a87;stop-opacity:1"/></linearGradient><linearGradient id="_Linear31" x1="0" y1="0" x2="1" y2="0" gradientUnits="userSpaceOnUse" gradientTransform="matrix(28.088,2.36658e-30,0,28.1197,348.149,239.888)"><stop offset="0" style="stop-color:#c6c6b7;stop-opacity:1"/><stop offset="1" style="stop-color:#979a87;stop-opacity:1"/></linearGradient><linearGradient id="_Linear32" x1="0" y1="0" x2="1" y2="0" gradientUnits="userSpaceOnUse" gradientTransform="matrix(18.2179,0,0,75.4669,311.102,260.981)"><stop offset="0" style="stop-color:#cdcdc2;stop-opacity:1"/><stop offset="1" style="stop-color:#b9b9a7;stop-opacity:1"/></linearGradient><linearGradient id="_Linear34" x1="0" y1="0" x2="1" y2="0" gradientUnits="userSpaceOnUse" gradientTransform="matrix(28.088,0,0,28.1197,308.146,259.89)"><stop offset="0" style="stop-color:#c6c6b7;stop-opacity:1"/><stop offset="1" style="stop-color:#979a87;stop-opacity:1"/></linearGradient><linearGradient id="_Linear35" x1="0" y1="0" x2="1" y2="0" gradientUnits="userSpaceOnUse" gradientTransform="matrix(28.088,0,0,28.1197,308.146,259.89)"><stop offset="0" style="stop-color:#c6c6b7;stop-opacity:1"/><stop offset="1" style="stop-color:#979a87;stop-opacity:1"/></linearGradient><linearGradient id="_Linear36" x1="0" y1="0" x2="1" y2="0" gradientUnits="userSpaceOnUse" gradientTransform="matrix(28.088,2.76101e-30,3.9443e-31,28.1197,308.146,259.89)"><stop offset="0" style="stop-color:#c6c6b7;stop-opacity:1"/><stop offset="1" style="stop-color:#979a87;stop-opacity:1"/></linearGradient><linearGradient id="_Linear37" x1="0" y1="0" x2="1" y2="0" gradientUnits="userSpaceOnUse" gradientTransform="matrix(28.088,2.36658e-30,0,28.1197,308.146,259.89)"><stop offset="0" style="stop-color:#c6c6b7;stop-opacity:1"/><stop offset="1" style="stop-color:#979a87;stop-opacity:1"/></linearGradient><linearGradient id="_Linear38" x1="0" y1="0" x2="1" y2="0" gradientUnits="userSpaceOnUse" gradientTransform="matrix(28.088,2.36658e-30,0,28.1197,308.146,259.89)"><stop offset="0" style="stop-color:#c6c6b7;stop-opacity:1"/><stop offset="1" style="stop-color:#979a87;stop-opacity:1"/></linearGradient><linearGradient id="_Linear39" x1="0" y1="0" x2="1" y2="0" gradientUnits="userSpaceOnUse" gradientTransform="matrix(18.2179,0,0,75.4669,271.099,280.983)"><stop offset="0" style="stop-color:#cdcdc2;stop-opacity:1"/><stop offset="1" style="stop-color:#b9b9a7;stop-opacity:1"/></linearGradient><linearGradient id="_Linear41" x1="0" y1="0" x2="1" y2="0" gradientUnits="userSpaceOnUse" gradientTransform="matrix(28.088,0,0,28.1197,268.143,279.892)"><stop offset="0" style="stop-color:#c6c6b7;stop-opacity:1"/><stop offset="1" style="stop-color:#979a87;stop-opacity:1"/></linearGradient><linearGradient id="_Linear42" x1="0" y1="0" x2="1" y2="0" gradientUnits="userSpaceOnUse" gradientTransform="matrix(28.088,0,0,28.1197,268.143,279.892)"><stop offset="0" style="stop-color:#c6c6b7;stop-opacity:1"/><stop offset="1" style="stop-color:#979a87;stop-opacity:1"/></linearGradient><linearGradient id="_Linear43" x1="0" y1="0" x2="1" y2="0" gradientUnits="userSpaceOnUse" gradientTransform="matrix(28.088,2.76101e-30,3.9443e-31,28.1197,268.143,279.892)"><stop offset="0" style="stop-color:#c6c6b7;stop-opacity:1"/><stop offset="1" style="stop-color:#979a87;stop-opacity:1"/></linearGradient><linearGradient id="_Linear44" x1="0" y1="0" x2="1" y2="0" gradientUnits="userSpaceOnUse" gradientTransform="matrix(28.088,2.36658e-30,0,28.1197,268.143,279.892)"><stop offset="0" style="stop-color:#c6c6b7;stop-opacity:1"/><stop offset="1" style="stop-color:#979a87;stop-opacity:1"/></linearGradient><linearGradient id="_Linear45" x1="0" y1="0" x2="1" y2="0" gradientUnits="userSpaceOnUse" gradientTransform="matrix(28.088,2.36658e-30,0,28.1197,268.143,279.892)"><stop offset="0" style="stop-color:#c6c6b7;stop-opacity:1"/><stop offset="1" style="stop-color:#979a87;stop-opacity:1"/></linearGradient><linearGradient id="_Linear46" x1="0" y1="0" x2="1" y2="0" gradientUnits="userSpaceOnUse" gradientTransform="matrix(18.2179,0,0,75.4669,231.095,300.985)"><stop offset="0" style="stop-color:#cdcdc2;stop-opacity:1"/><stop offset="1" style="stop-color:#b9b9a7;stop-opacity:1"/></linearGradient><linearGradient id="_Linear48" x1="0" y1="0" x2="1" y2="0" gradientUnits="userSpaceOnUse" gradientTransform="matrix(28.088,0,0,28.1197,228.139,299.893)"><stop offset="0" style="stop-color:#c6c6b7;stop-opacity:1"/><stop offset="1" style="stop-color:#979a87;stop-opacity:1"/></linearGradient><linearGradient id="_Linear49" x1="0" y1="0" x2="1" y2="0" gradientUnits="userSpaceOnUse" gradientTransform="matrix(28.088,0,0,28.1197,228.139,299.893)"><stop offset="0" style="stop-color:#c6c6b7;stop-opacity:1"/><stop offset="1" style="stop-color:#979a87;stop-opacity:1"/></linearGradient><linearGradient id="_Linear50" x1="0" y1="0" x2="1" y2="0" gradientUnits="userSpaceOnUse" gradientTransform="matrix(28.088,2.76101e-30,3.9443e-31,28.1197,228.139,299.893)"><stop offset="0" style="stop-color:#c6c6b7;stop-opacity:1"/><stop offset="1" style="stop-color:#979a87;stop-opacity:1"/></linearGradient><linearGradient id="_Linear51" x1="0" y1="0" x2="1" y2="0" gradientUnits="userSpaceOnUse" gradientTransform="matrix(28.088,2.36658e-30,0,28.1197,228.139,299.893)"><stop offset="0" style="stop-color:#c6c6b7;stop-opacity:1"/><stop offset="1" style="stop-color:#979a87;stop-opacity:1"/></linearGradient><linearGradient id="_Linear52" x1="0" y1="0" x2="1" y2="0" gradientUnits="userSpaceOnUse" gradientTransform="matrix(28.088,2.36658e-30,0,28.1197,228.139,299.893)"><stop offset="0" style="stop-color:#c6c6b7;stop-opacity:1"/><stop offset="1" style="stop-color:#979a87;stop-opacity:1"/></linearGradient><linearGradient id="_Linear53" x1="0" y1="0" x2="1" y2="0" gradientUnits="userSpaceOnUse" gradientTransform="matrix(18.2179,0,0,75.4669,191.092,320.986)"><stop offset="0" style="stop-color:#cdcdc2;stop-opacity:1"/><stop offset="1" style="stop-color:#b9b9a7;stop-opacity:1"/></linearGradient><linearGradient id="_Linear55" x1="0" y1="0" x2="1" y2="0" gradientUnits="userSpaceOnUse" gradientTransform="matrix(28.088,0,0,28.1197,188.136,319.895)"><stop offset="0" style="stop-color:#c6c6b7;stop-opacity:1"/><stop offset="1" style="stop-color:#979a87;stop-opacity:1"/></linearGradient><linearGradient id="_Linear56" x1="0" y1="0" x2="1" y2="0" gradientUnits="userSpaceOnUse" gradientTransform="matrix(28.088,0,0,28.1197,188.136,319.895)"><stop offset="0" style="stop-color:#c6c6b7;stop-opacity:1"/><stop offset="1" style="stop-color:#979a87;stop-opacity:1"/></linearGradient><linearGradient id="_Linear57" x1="0" y1="0" x2="1" y2="0" gradientUnits="userSpaceOnUse" gradientTransform="matrix(28.088,2.76101e-30,3.9443e-31,28.1197,188.136,319.895)"><stop offset="0" style="stop-color:#c6c6b7;stop-opacity:1"/><stop offset="1" style="stop-color:#979a87;stop-opacity:1"/></linearGradient><linearGradient id="_Linear58" x1="0" y1="0" x2="1" y2="0" gradientUnits="userSpaceOnUse" gradientTransform="matrix(28.088,2.36658e-30,0,28.1197,188.136,319.895)"><stop offset="0" style="stop-color:#c6c6b7;stop-opacity:1"/><stop offset="1" style="stop-color:#979a87;stop-opacity:1"/></linearGradient><linearGradient id="_Linear59" x1="0" y1="0" x2="1" y2="0" gradientUnits="userSpaceOnUse" gradientTransform="matrix(28.088,2.36658e-30,0,28.1197,188.136,319.895)"><stop offset="0" style="stop-color:#c6c6b7;stop-opacity:1"/><stop offset="1" style="stop-color:#979a87;stop-opacity:1"/></linearGradient><linearGradient id="_Linear60" x1="0" y1="0" x2="1" y2="0" gradientUnits="userSpaceOnUse" gradientTransform="matrix(1.49578,-2.76481,2.76481,1.49578,376.223,219.966)"><stop offset="0" style="stop-color:#d5d5c9;stop-opacity:1"/><stop offset="1" style="stop-color:#c3c3b1;stop-opacity:1"/></linearGradient><linearGradient id="_Linear61" x1="0" y1="0" x2="1" y2="0" gradientUnits="userSpaceOnUse" gradientTransform="matrix(1.49578,-2.76481,2.76481,1.49578,376.223,219.966)"><stop offset="0" style="stop-color:#d5d5c9;stop-opacity:1"/><stop offset="1" style="stop-color:#c3c3b1;stop-opacity:1"/></linearGradient><linearGradient id="_Linear62" x1="0" y1="0" x2="1" y2="0" gradientUnits="userSpaceOnUse" gradientTransform="matrix(1.49578,-2.76481,2.76481,1.49578,373.983,224.992)"><stop offset="0" style="stop-color:#d5d5c9;stop-opacity:1"/><stop offset="1" style="stop-color:#c3c3b1;stop-opacity:1"/></linearGradient><linearGradient id="_Linear63" x1="0" y1="0" x2="1" y2="0" gradientUnits="userSpaceOnUse" gradientTransform="matrix(6.02,-16.3128,16.3128,6.02,168.761,335.537)"><stop offset="0" style="stop-color:#c3c3b1;stop-opacity:1"/><stop offset="1" style="stop-color:#d5d5c9;stop-opacity:1"/></linearGradient><linearGradient id="_Linear65" x1="0" y1="0" x2="1" y2="0" gradientUnits="userSpaceOnUse" gradientTransform="matrix(6.02,-16.3128,16.3128,6.02,168.761,335.537)"><stop offset="0" style="stop-color:#c3c3b1;stop-opacity:1"/><stop offset="1" style="stop-color:#d5d5c9;stop-opacity:1"/></linearGradient></defs></svg>