<?xml version="1.0" encoding="UTF-8" standalone="no"?><!DOCTYPE svg PUBLIC "-//W3C//DTD SVG 1.1//EN" "http://www.w3.org/Graphics/SVG/1.1/DTD/svg11.dtd"><svg width="313px" height="296.9px" viewBox="0 0 307 297" version="1.1" xmlns="http://www.w3.org/2000/svg" xmlns:xlink="http://www.w3.org/1999/xlink" xml:space="preserve" xmlns:serif="http://www.serif.com/" style="fill-rule:evenodd;clip-rule:evenodd;stroke-linecap:round;stroke-linejoin:round;stroke-miterlimit:1.5;"><g><g id="potted_palm"><g id="pot"><path d="M222.831,158.381l-0,-0l-6.311,-18.07l49.223,0l-6.31,18.07l-0,-0l0,0.012c0,4.998 -8.2,9.056 -18.301,9.056c-10.101,-0 -18.301,-4.058 -18.301,-9.056l-0,-0.012Z" style="fill:#c3c3b1;"/><clipPath id="_clip1"><path d="M222.831,158.381l-0,-0l-6.311,-18.07l49.223,0l-6.31,18.07l-0,-0l0,0.012c0,4.998 -8.2,9.056 -18.301,9.056c-10.101,-0 -18.301,-4.058 -18.301,-9.056l-0,-0.012Z"/></clipPath><g clip-path="url(#_clip1)"><ellipse cx="241.132" cy="142.018" rx="26.31" ry="13.019" style="fill:#a4a289;"/></g><path d="M267.442,138.491c-0,7.186 -11.789,13.02 -26.31,13.02c-14.521,-0 -26.31,-5.834 -26.31,-13.02l0,-5.048l2.054,0c3.989,-4.681 13.352,-7.971 24.256,-7.971c10.904,0 20.267,3.29 24.256,7.971l2.054,0l-0,5.048Z" style="fill:#c3c3b1;"/><ellipse cx="241.132" cy="133.443" rx="26.31" ry="13.019" style="fill:#cdcdc2;"/><ellipse cx="241.132" cy="133.443" rx="19.608" ry="8.651" style="fill:#a4a289;"/><clipPath id="_clip2"><ellipse cx="241.132" cy="133.443" rx="19.608" ry="8.651"/></clipPath><g clip-path="url(#_clip2)"><ellipse cx="241.132" cy="137.65" rx="19.608" ry="8.651" style="fill:#6d4323;"/></g></g><path d="M242.111,31.496c0.674,-0.78 1.357,-1.542 2.051,-2.285c-0.007,2.054 -0.241,4.089 -0.919,6.082l1.637,-2.027c-0.185,1.878 -0.619,3.732 -1.475,5.549c0.799,-1.054 1.64,-1.706 2.5,-2.191c-1.594,2.732 -3.348,5.596 -5.554,8.836c2.551,-2.471 4.795,-4.123 6.786,-5.096c-1.333,1.42 -3.231,2.75 -3.826,5.366c0.606,-0.423 2.044,-0.254 2.765,-0.384c-4.327,4.076 -7.263,8.066 -9.745,12.028c3.941,-4.783 6.175,-5.741 10.278,-8.594c-3.458,3.341 -6.527,7.257 -8.867,12.25c3.883,-3.831 7.742,-6.714 11.584,-8.859c-3.951,3.056 -7.285,7.046 -10.046,11.901c3.635,-3.735 7.479,-6.253 11.408,-8.27c-3.694,3.37 -7.024,7.351 -9.936,12.031c2.997,-3.061 6.419,-5.299 10.087,-7.06c-3.862,3.064 -6.834,6.804 -9.008,11.149c3.014,-3.26 6.277,-5.34 9.607,-7.104c-4.752,4.68 -8.593,10.145 -11.881,16.086c-5.175,-4.835 -10.38,-8.98 -15.668,-11.344c4.099,0.921 8.201,2.339 12.309,4.387c-4.279,-2.684 -8.401,-5.041 -12.112,-6.545l-0.652,-6.106c3.103,0.382 6.295,1.695 9.57,3.896c-3.519,-3.724 -7.042,-6.36 -10.573,-7.494c2.627,0.214 5.521,1.25 8.676,3.089c-2.832,-3.446 -5.755,-5.903 -8.761,-7.449c2.583,0.619 5.35,1.766 8.38,3.666c-2.77,-2.966 -5.702,-5.164 -8.87,-6.25c2.272,0.093 4.89,0.844 8.413,3.306l-0.294,-2.082c-3.057,-2.407 -7.984,-5.118 -10.737,-5.919c4.277,0.665 7.326,2.165 10.804,3.87c-4.794,-3.176 -9.614,-6.061 -14.531,-7.894c4.146,0.817 8.165,2.412 12.056,4.784c-2.935,-3.13 -6.11,-5.637 -9.341,-8.004c3.211,1.894 6.466,3.902 10.137,6.97c-2.819,-4.198 -6.119,-7.79 -10.048,-10.589c3.123,1.679 6.027,3.649 8.623,6.03c-3.78,-4.441 -6.108,-7.003 -10.805,-10.257c3.278,1.631 6.859,4.059 11.697,8.722c-3.184,-4.633 -6.833,-8.32 -11.128,-10.688c3.561,1.316 6.746,3.536 10.563,7.608l-10.997,-12.121l11.117,9.478c-2.408,-4.126 -7.51,-9.067 -11.242,-11.524c3.426,1.675 7.078,4.254 10.589,8.079c-2.235,-5.938 -5.815,-8.711 -8.716,-11.919c1.777,1.488 3.654,2.851 5.685,4.025c-2.326,-1.622 -3.97,-3.653 -5.4,-5.813c2.166,2.307 4.564,4.585 7.244,6.827c-2.088,-2.82 -4.028,-5.685 -5.126,-8.81c1.293,1.467 1.115,1.826 3.121,3.204c-1.059,-1.306 -1.386,-2.925 -1.942,-4.185l1.746,1.724c-1.202,-1.842 -1.182,-3.824 -1.439,-5.082l2.846,5.943c-0.432,-3.273 -0.282,-5.061 0.09,-6.279c0.887,2.99 1.096,6.872 1.043,11.098c0.829,-4.137 1.901,-7.94 3.759,-10.66l-0.592,6.475c0.723,-2.281 1.545,-3.636 2.446,-4.251c-0.347,4.826 -1.77,10.313 -3.52,16.002c1.925,-5.943 3.949,-10.298 6.008,-14.082c-0.896,5.849 -2.554,11.687 -5.595,17.506c3.705,-4.707 6.185,-10.285 8.028,-16.317c-0.085,6.808 -2.041,13.087 -7.551,19.565l0.094,1.496c3.537,-4.578 7.11,-8.652 9.475,-16.645c0.421,1.389 0.465,2.743 0.215,4.071l0.752,-1.673c0.863,2.928 1.024,6.021 0.849,9.194l-8.44,13.196c2.79,-4.028 5.619,-7.978 8.604,-11.623c-0.629,1.124 -1.201,2.142 -1.751,3.139c-1.157,2.096 -2.215,4.099 -3.5,6.802c3.304,-2.606 5.753,-8.321 6.946,-11.955Zm-1.027,6.626c-1.89,2.393 -3.287,4.089 -4.587,5.72c-1.3,1.63 -2.502,3.196 -4.001,5.329c3.999,-2.181 7.569,-8.679 8.588,-11.049Zm-2.992,-6.148c-2.948,4.947 -6.327,8.365 -9.325,12.631c3.574,-2.757 5.751,-5.479 9.156,-10.703l0.169,-1.928Zm-0.216,-5.513c-2.736,5.077 -5.782,9.542 -8.997,13.674c2.712,-2.581 5.687,-6.161 9.092,-11.384l-0.095,-2.29Z" style="fill:#125557;"/><path d="M243.095,19.896c-0.61,-0.831 -1.23,-1.645 -1.862,-2.441c-0.158,2.049 -0.086,4.095 0.431,6.136l-1.471,-2.15c0.035,1.886 0.32,3.769 1.028,5.648c-0.712,-1.114 -1.499,-1.831 -2.317,-2.383c1.371,2.85 2.891,5.845 4.831,9.25c-2.345,-2.667 -4.451,-4.492 -6.357,-5.62c1.215,1.522 3.001,2.999 3.386,5.653c-0.571,-0.469 -2.018,-0.415 -2.726,-0.603c3.988,4.408 6.596,8.619 8.754,12.766c-3.547,-5.082 -5.697,-6.214 -9.56,-9.385c3.181,3.606 5.928,7.754 7.862,12.917c-3.565,-4.128 -7.182,-7.309 -10.84,-9.752c3.695,3.36 6.699,7.603 9.065,12.662c-3.326,-4.012 -6.957,-6.828 -10.713,-9.151c3.414,3.653 6.416,7.886 8.946,12.783c-2.744,-3.29 -5.976,-5.793 -9.493,-7.84c3.606,3.362 6.27,7.326 8.091,11.83c-2.745,-3.489 -5.832,-5.822 -9.01,-7.846c4.364,5.044 7.757,10.797 10.56,16.981c5.544,-4.408 11.064,-8.126 16.523,-10.062c-4.159,0.592 -8.361,1.679 -12.62,3.394c4.48,-2.335 8.777,-4.356 12.595,-5.561l1.138,-6.034c-3.124,0.134 -6.41,1.189 -9.851,3.122c3.805,-3.432 7.528,-5.78 11.137,-6.629c-2.635,0.004 -5.602,0.807 -8.894,2.389c3.098,-3.21 6.207,-5.427 9.327,-6.729c-2.624,0.413 -5.474,1.335 -8.646,2.988c2.998,-2.736 6.096,-4.693 9.341,-5.524c-2.272,-0.088 -4.943,0.452 -8.651,2.626l0.459,-2.052c3.24,-2.156 8.368,-4.466 11.176,-5.046c-4.317,0.322 -7.476,1.576 -11.078,2.998c5.032,-2.784 10.067,-5.277 15.114,-6.713c-4.198,0.485 -8.331,1.755 -12.399,3.81c3.175,-2.887 6.54,-5.133 9.949,-7.235c-3.351,1.632 -6.757,3.375 -10.66,6.141c3.144,-3.961 6.721,-7.278 10.86,-9.756c-3.247,1.425 -6.299,3.158 -9.077,5.325c4.123,-4.126 6.647,-6.495 11.589,-9.365c-3.398,1.366 -7.16,3.5 -12.355,7.764c3.544,-4.365 7.475,-7.75 11.944,-9.769c-3.654,1.028 -7.006,2.988 -11.135,6.743l11.929,-11.207l-11.838,8.563c2.729,-3.921 8.209,-8.44 12.125,-10.593c-3.548,1.398 -7.394,3.678 -11.199,7.211c2.701,-5.741 6.491,-8.22 9.638,-11.188c-1.89,1.342 -3.869,2.552 -5.987,3.56c2.448,-1.431 4.248,-3.325 5.846,-5.365c-2.343,2.128 -4.915,4.208 -7.765,6.23c2.306,-2.645 4.468,-5.347 5.812,-8.375c-1.406,1.36 -1.257,1.732 -3.367,2.946c1.16,-1.218 1.616,-2.806 2.27,-4.017l-1.878,1.579c1.345,-1.74 1.483,-3.718 1.84,-4.951l-3.311,5.697c0.691,-3.228 0.685,-5.022 0.411,-6.266c-1.123,2.91 -1.641,6.764 -1.925,10.98c-0.497,-4.189 -1.262,-8.066 -2.897,-10.925l0.074,6.501c-0.539,-2.331 -1.25,-3.747 -2.1,-4.431c-0.038,4.837 0.943,10.421 2.234,16.231c-1.446,-6.078 -3.116,-10.58 -4.867,-14.516c0.426,5.902 1.614,11.853 4.181,17.895c-3.318,-4.986 -5.345,-10.744 -6.701,-16.903c-0.458,6.793 0.991,13.207 5.966,20.103l-0.212,1.484c-3.161,-4.845 -6.398,-9.19 -8.117,-17.346c-0.531,1.351 -0.683,2.698 -0.54,4.041l-0.616,-1.728c-1.093,2.851 -1.501,5.921 -1.579,9.097l7.361,13.826c-2.461,-4.236 -4.966,-8.4 -7.65,-12.27c0.537,1.171 1.026,2.231 1.495,3.268c0.986,2.182 1.881,4.263 2.946,7.059c-3.086,-2.86 -5.07,-8.753 -5.97,-12.47Zm0.495,6.687c1.693,2.536 2.951,4.337 4.117,6.066c1.165,1.73 2.239,3.386 3.563,5.631c-3.813,-2.492 -6.853,-9.253 -7.68,-11.697Zm3.473,-5.89c2.544,5.166 5.64,8.841 8.288,13.332c-3.343,-3.032 -5.296,-5.919 -8.273,-11.397l-0.015,-1.935Zm0.654,-5.479c2.324,5.279 5.004,9.972 7.879,14.347c-2.498,-2.789 -5.177,-6.594 -8.155,-12.072l0.276,-2.275Z" style="fill:#125557;"/><g id="leaf"><path d="M234.826,70.333c4.966,-2.176 6.566,-2.502 12.265,-1.875c-4.773,-1.569 -6.949,-1.562 -12.123,0.36c4.425,-2.496 6.537,-3.193 12.416,-4.177c-5.603,-0.409 -7.573,0.422 -12.603,2.401c0.64,-1.175 14.06,-5.526 14.326,-4.918c-5.603,0.019 -10.761,0.924 -15.3,3.06c4.397,-2.936 9.146,-4.386 14.084,-5.042c-5.168,-0.092 -10.281,0.719 -15.301,3.06c4.351,-2.831 9.248,-4.344 14.383,-5.28c-5.192,0.251 -10.226,1.055 -14.907,3.101c3.506,-3.145 8.232,-4.704 13.335,-5.771c-5.7,0.338 -10.991,1.283 -15.517,3.363c3.86,-2.933 8.516,-4.527 13.418,-5.706c-5.381,0.255 -10.727,1.097 -15.975,3.543c3.411,-3.17 7.79,-5.057 12.509,-6.495c-5.245,0.493 -10.395,1.755 -15.373,4.427c2.24,-3.332 6.842,-5.588 11.055,-7.24c-5.086,0.739 -9.733,2.531 -13.88,5.519c1.59,-3.105 6.206,-5.69 9.234,-7.304c-4.324,1.146 -8.397,2.934 -11.93,6.097c1.441,-3.127 5.963,-6.562 9.74,-8.647c-4.012,1.012 -7.641,2.785 -10.589,5.914c0.447,-3.376 3.148,-6.562 6.603,-9.685c-4.348,1.976 -7.489,5.759 -10.448,9.485c0.871,-4.065 2.357,-8.425 5.344,-11.091c-3.877,1.367 -6.035,4.992 -8.971,9.513c-0.409,-4.168 0.745,-7.608 2.318,-10.854c-4.076,1.69 -4.557,5.555 -6.34,9.804c-0.065,-3.998 0.716,-7.324 1.998,-10.254c-2.382,2.35 -4.24,5.246 -5.138,9.143c-0.818,-4.033 -0.379,-7.57 0.664,-10.868c-2.121,2.446 -3.765,5.525 -4.142,10.28c-2.126,-3.404 -3.152,-6.672 -3.34,-9.837c-0.748,2.978 -0.986,6.051 0.104,9.375c-2.076,-3.309 -4.822,-6.02 -8.822,-7.613c2.771,2.302 4.702,4.837 6.002,7.547c-3.197,-3.293 -7.605,-5.24 -12.603,-6.534c4.061,1.855 8.225,4.239 10.461,7.704c-5.556,-1.625 -10.526,-1.78 -15.137,-1.035c5.182,0.812 11.419,1.061 14.648,2.887c-5.548,0.379 -11.528,2.632 -15.894,4.874l17.925,-3.652c-6.494,1.494 -12.161,4.005 -17.066,7.453c5.974,-2.697 12.05,-4.807 18.231,-6.298c-4.458,2.344 -7.096,5.474 -8.675,9.059c4.463,-3.861 9.909,-8.228 14.16,-9.013c-3.638,1.855 -5.436,5.722 -6.059,8.451c2.434,-3.759 5.377,-6.745 9.874,-7.363c-2.982,1.603 -3.8,4.099 -4.04,6.834c1.634,-2.755 3.866,-5.003 7.613,-5.968c-2.021,1.915 -2.961,3.091 -3.104,6.784c2.126,-3.518 3.941,-4.32 7.573,-5.343c-2.529,1.784 -3.947,4.011 -4.423,6.612c1.739,-2.349 4.11,-4.245 7.386,-5.492c-1.826,1.616 -2.366,2.819 -2.505,6.365c0.996,-2.74 3.084,-3.964 6.222,-4.427c-2.129,1.52 -2.774,3.479 -3.263,5.484c1.754,-1.942 3.74,-3.358 6.693,-3.423c-2.771,1.106 -4.896,3.311 -6.774,5.937c2.687,-2.013 5.564,-4.057 8.547,-3.403c-3.01,0.793 -4.417,1.917 -6.7,4.476c2.71,-1.823 5.473,-2.788 8.326,-2.3c-2.789,0.727 -4.868,2.161 -6.519,4.02c2.773,-1.459 5.536,-2.335 8.28,-2.08c-2.464,0.663 -3.837,2.052 -5.595,4.434c2.583,-1.533 4.592,-2.175 7.738,-1.379c-2.794,0.47 -4.307,2.146 -5.539,4.086c2.041,-1.614 4.549,-2.731 7.875,-2.98c-2.864,0.646 -4.658,2.685 -5.927,5.406c1.605,-1.892 3.474,-3.369 6.114,-3.63c-1.939,0.613 -3.123,2.255 -4.042,4.256c1.799,-2.002 4.156,-3.39 7.1,-4.137Z" style="fill:url(#_Radial3);"/><path d="M239.655,79.296c-10.276,-24.87 -26.498,-33.216 -45.641,-33.448c21.443,1.878 37.007,12.24 44.158,34.741c0.899,0.342 1.897,-0.291 1.483,-1.293Z" style="fill:#196a4d;"/></g><g id="leaf1" serif:id="leaf"><path d="M245.983,68.226c-4.795,-2.53 -6.367,-2.972 -12.097,-2.76c4.875,-1.219 7.045,-1.054 12.065,1.238c-4.232,-2.81 -6.287,-3.658 -12.08,-5.066c5.619,-0.002 7.523,0.971 12.396,3.308c-0.553,-1.218 -13.622,-6.531 -13.931,-5.943c5.587,0.425 10.666,1.701 15.038,4.161c-4.173,-3.247 -8.804,-5.038 -13.681,-6.05c5.161,0.283 10.202,1.463 15.038,4.162c-4.134,-3.14 -8.908,-5.003 -13.961,-6.31c5.16,0.628 10.122,1.795 14.642,4.174c-3.268,-3.391 -7.868,-5.288 -12.881,-6.723c5.661,0.751 10.87,2.077 15.232,4.48c-3.636,-3.205 -8.164,-5.132 -12.968,-6.664c5.349,0.644 10.62,1.872 15.676,4.692c-3.171,-3.409 -7.402,-5.608 -12.004,-7.385c5.195,0.872 10.24,2.504 15.011,5.53c-1.992,-3.485 -6.418,-6.069 -10.5,-8.022c5.019,1.106 9.523,3.229 13.442,6.511c-1.36,-3.213 -5.776,-6.125 -8.679,-7.955c4.23,1.457 8.162,3.535 11.456,6.946c-1.211,-3.223 -5.471,-6.976 -9.086,-9.33c3.928,1.3 7.419,3.332 10.131,6.666c-0.2,-3.399 -2.662,-6.773 -5.882,-10.138c4.193,2.286 7.051,6.287 9.732,10.217c-0.574,-4.117 -1.739,-8.573 -4.524,-11.448c3.767,1.644 5.656,5.416 8.256,10.137c0.711,-4.127 -0.191,-7.642 -1.523,-10.993c3.942,1.981 4.141,5.871 5.61,10.238c0.356,-3.983 -0.182,-7.356 -1.247,-10.371c2.205,2.516 3.847,5.539 4.46,9.49c1.109,-3.962 0.928,-7.521 0.127,-10.886c1.939,2.593 3.354,5.783 3.385,10.553c2.367,-3.241 3.628,-6.427 4.046,-9.569c0.529,3.024 0.543,6.107 -0.786,9.342c2.311,-3.149 5.247,-5.654 9.352,-6.953c-2.93,2.095 -5.04,4.483 -6.534,7.092c3.427,-3.053 7.966,-4.675 13.044,-5.603c-4.185,1.556 -8.511,3.632 -10.993,6.926c5.66,-1.219 10.628,-1.013 15.172,0.065c-5.227,0.434 -11.465,0.23 -14.819,1.817c5.506,0.78 11.306,3.461 15.498,6.014l-17.612,-4.942c6.368,1.961 11.837,4.876 16.479,8.67c-5.763,-3.123 -11.668,-5.668 -17.726,-7.603c4.277,2.661 6.681,5.974 7.995,9.664c-4.171,-4.174 -9.286,-8.925 -13.468,-10.016c3.494,2.114 5.006,6.102 5.429,8.868c-2.155,-3.926 -4.872,-7.117 -9.313,-8.059c2.858,1.815 3.492,4.364 3.533,7.109c-1.43,-2.867 -3.493,-5.271 -7.16,-6.505c1.877,2.057 2.729,3.298 2.604,6.992c-1.866,-3.664 -3.618,-4.595 -7.165,-5.879c2.392,1.963 3.645,4.287 3.93,6.916c-1.564,-2.469 -3.791,-4.532 -6.967,-6.013c1.703,1.743 2.155,2.982 2.035,6.529c-0.793,-2.805 -2.787,-4.177 -5.883,-4.866c2.013,1.67 2.514,3.671 2.855,5.706c-1.608,-2.065 -3.485,-3.62 -6.426,-3.899c2.684,1.304 4.643,3.656 6.324,6.412c-2.533,-2.203 -5.253,-4.449 -8.276,-4.014c2.944,1.01 4.266,2.233 6.357,4.95c-2.571,-2.015 -5.257,-3.178 -8.137,-2.897c2.729,0.927 4.698,2.508 6.209,4.482c-2.659,-1.656 -5.351,-2.731 -8.107,-2.676c2.41,0.841 3.678,2.326 5.259,4.829c-2.466,-1.716 -4.422,-2.503 -7.618,-1.937c2.753,0.672 4.139,2.453 5.227,4.478c-1.917,-1.759 -4.338,-3.055 -7.637,-3.544c2.81,0.852 4.451,3.015 5.518,5.822c-1.463,-2.004 -3.219,-3.613 -5.834,-4.064c1.89,0.752 2.951,2.475 3.722,4.538c-1.648,-2.127 -3.899,-3.683 -6.78,-4.641Z" style="fill:url(#_Radial4);"/><path d="M240.515,76.815c12.057,-24.059 28.843,-31.207 47.952,-30.05c-21.524,0.318 -37.799,9.524 -46.567,31.447c-0.922,0.276 -1.871,-0.427 -1.385,-1.397Z" style="fill:#196a4d;"/></g><path id="spike" d="M247.027,76.16c3.559,1.074 7,2.396 10.368,3.871c0.143,0.065 0.212,0.229 0.158,0.376c-0.055,0.148 -0.214,0.228 -0.365,0.184c-3.423,-1.001 -6.827,-1.8 -10.452,-2.326c-0.252,-0.036 -0.478,-0.175 -0.624,-0.384c-0.146,-0.209 -0.199,-0.469 -0.146,-0.718c0.158,-0.461 0.431,-0.803 1.061,-1.003Z" style="fill:#8c671d;"/><ellipse id="head" cx="240.855" cy="77.188" rx="7.245" ry="8.103" style="fill:url(#_Radial5);"/><g id="palm"><g id="stem"><path d="M237.158,81.856l3.697,-2.124l3.696,2.124l2.484,-1.182l0.579,2.942l-0,0.025c-0.024,2.132 -3.043,3.859 -6.759,3.859c-3.731,0 -6.759,-1.74 -6.759,-3.884l0.579,-2.942l2.483,1.182Z" style="fill:url(#_Radial6);"/><path d="M237.158,85.741l3.697,-2.125l3.696,2.125l2.484,-1.183l0.579,2.942l-0,0.025c-0.024,2.133 -3.043,3.86 -6.759,3.86c-3.731,-0 -6.759,-1.741 -6.759,-3.885l0.579,-2.942l2.483,1.183Z" style="fill:url(#_Radial7);"/><path d="M237.158,89.625l3.697,-2.125l3.696,2.125l2.484,-1.182l0.579,2.942l-0,0.025c-0.024,2.132 -3.043,3.859 -6.759,3.859c-3.731,-0 -6.759,-1.741 -6.759,-3.884l0.579,-2.942l2.483,1.182Z" style="fill:url(#_Radial8);"/><path d="M237.158,93.509l3.697,-2.124l3.696,2.124l2.484,-1.182l0.579,2.942l-0,0.025c-0.024,2.132 -3.043,3.859 -6.759,3.859c-3.731,-0 -6.759,-1.741 -6.759,-3.884l0.579,-2.942l2.483,1.182Z" style="fill:url(#_Radial9);"/><path d="M237.158,97.393l3.697,-2.124l3.696,2.124l2.484,-1.182l0.579,2.942l-0,0.025c-0.024,2.132 -3.043,3.859 -6.759,3.859c-3.731,0 -6.759,-1.74 -6.759,-3.884l0.579,-2.942l2.483,1.182Z" style="fill:url(#_Radial10);"/><path d="M237.158,101.277l3.697,-2.124l3.696,2.124l2.484,-1.182l0.579,2.942l-0,0.025c-0.024,2.132 -3.043,3.859 -6.759,3.859c-3.731,0 -6.759,-1.74 -6.759,-3.884l0.579,-2.942l2.483,1.182Z" style="fill:url(#_Radial11);"/><path d="M237.006,105.063l3.849,-2.211l3.848,2.211l2.585,-1.23l0.603,3.063l0,0.026c-0.024,2.22 -3.168,4.017 -7.036,4.017c-3.884,0 -7.037,-1.812 -7.037,-4.043l0.603,-3.063l2.585,1.23Z" style="fill:url(#_Radial12);"/><path d="M237.006,109.107l3.849,-2.211l3.848,2.211l2.585,-1.23l0.603,3.062l0,0.027c-0.024,2.219 -3.168,4.017 -7.036,4.017c-3.884,0 -7.037,-1.812 -7.037,-4.044l0.603,-3.062l2.585,1.23Z" style="fill:url(#_Radial13);"/><path d="M237.006,113.151l3.849,-2.212l3.848,2.212l2.585,-1.231l0.603,3.063l0,0.026c-0.024,2.22 -3.168,4.018 -7.036,4.018c-3.884,-0 -7.037,-1.812 -7.037,-4.044l0.603,-3.063l2.585,1.231Z" style="fill:url(#_Radial14);"/><path d="M237.006,117.195l3.849,-2.212l3.848,2.212l2.585,-1.231l0.603,3.063l0,0.026c-0.024,2.22 -3.168,4.018 -7.036,4.018c-3.884,-0 -7.037,-1.812 -7.037,-4.044l0.603,-3.063l2.585,1.231Z" style="fill:url(#_Radial15);"/><path d="M236.892,121.184l3.963,-2.277l3.963,2.277l2.661,-1.267l0.621,3.154l0,0.027c-0.025,2.285 -3.262,4.137 -7.245,4.137c-3.999,-0 -7.246,-1.866 -7.246,-4.164l0.621,-3.154l2.662,1.267Z" style="fill:url(#_Radial16);"/><path d="M236.474,125.149l4.381,-2.517l4.38,2.517l2.943,-1.401l0.686,3.487l-0,0.029c-0.028,2.527 -3.606,4.573 -8.009,4.573c-4.421,0 -8.009,-2.062 -8.009,-4.602l0.686,-3.487l2.942,1.401Z" style="fill:url(#_Radial17);"/><path d="M236.126,129.147l4.729,-2.718l4.729,2.718l3.176,-1.512l0.741,3.763l0,0.032c-0.03,2.728 -3.893,4.937 -8.646,4.937c-4.772,0 -8.647,-2.226 -8.647,-4.969l0.741,-3.763l3.177,1.512Z" style="fill:url(#_Radial18);"/><path d="M235.728,133.385l5.127,-2.813l5.126,2.813l3.444,-1.565l0.803,3.895l-0,0.034c-0.033,2.823 -4.22,5.11 -9.373,5.11c-5.173,-0 -9.374,-2.305 -9.374,-5.144l0.804,-3.895l3.443,1.565Z" style="fill:url(#_Radial19);"/></g><g id="spikes"><path id="spike1" serif:id="spike" d="M234.231,77.99c-4.077,4.499 -7.731,9.278 -11.146,14.218c-0.085,0.131 -0.056,0.305 0.069,0.4c0.124,0.096 0.3,0.079 0.404,-0.037c3.97,-4.422 8.044,-8.478 12.75,-12.311c0.4,-0.324 0.492,-0.897 0.213,-1.329c-0.508,-0.815 -1.143,-1.213 -2.29,-0.941Z" style="fill:#8c671d;"/><path id="spike2" serif:id="spike" d="M234.799,74.046c-2.934,-0.782 -5.891,-1.355 -8.864,-1.794c-0.155,-0.02 -0.299,0.083 -0.331,0.236c-0.032,0.153 0.06,0.305 0.211,0.348c2.765,0.783 5.445,1.697 8.158,2.87c0.268,0.117 0.576,0.098 0.828,-0.051c0.251,-0.149 0.416,-0.41 0.442,-0.701c-0.071,-0.296 -0.168,-0.586 -0.444,-0.908Z" style="fill:#8c671d;"/><path id="spike3" serif:id="spike" d="M245.869,73.462c3.853,-1.293 7.76,-2.283 11.699,-3.089c0.154,-0.028 0.304,0.067 0.343,0.219c0.04,0.151 -0.044,0.308 -0.192,0.358c-3.709,1.269 -7.262,2.706 -10.841,4.54c-0.218,0.112 -0.471,0.133 -0.703,0.058c-0.233,-0.076 -0.426,-0.24 -0.537,-0.458c-0.221,-0.53 -0.225,-1.023 0.231,-1.628Z" style="fill:#8c671d;"/><path id="spike4" serif:id="spike" d="M246.866,78.164c3.705,4.168 7.025,8.585 10.125,13.146c0.085,0.132 0.054,0.306 -0.07,0.401c-0.125,0.095 -0.302,0.077 -0.406,-0.04c-3.62,-4.096 -7.347,-7.864 -11.651,-11.435c-0.363,-0.3 -0.442,-0.824 -0.183,-1.217c0.511,-0.749 1.109,-1.122 2.185,-0.855Z" style="fill:#8c671d;"/></g></g><path id="stem_mask" d="M234.232,73.898c1.129,-2.835 3.671,-4.813 6.623,-4.813c2.652,0 4.973,1.597 6.236,3.978c3.613,-1.151 7.271,-2.047 10.957,-2.787c0.138,-0.026 0.273,0.06 0.308,0.196c0.036,0.135 -0.04,0.276 -0.173,0.321c-3.545,1.195 -6.942,2.535 -10.348,4.216c0.118,0.475 0.199,0.968 0.238,1.474c3.346,1.062 6.59,2.337 9.772,3.746c0.128,0.059 0.188,0.206 0.139,0.338c-0.05,0.131 -0.193,0.202 -0.327,0.162c-3.178,-0.946 -6.329,-1.72 -9.646,-2.266c-0.04,0.281 -0.093,0.557 -0.158,0.828c3.419,3.959 6.512,8.131 9.415,12.428c0.075,0.118 0.047,0.274 -0.065,0.358c-0.112,0.084 -0.27,0.068 -0.363,-0.037c-3.001,-3.419 -6.067,-6.608 -9.466,-9.644l0.24,1.22l-0,0.025c-0.006,0.5 -0.176,0.978 -0.481,1.416l0.481,2.443l-0,0.025c-0.006,0.5 -0.176,0.978 -0.481,1.416l0.481,2.444l-0,0.025c-0.006,0.499 -0.176,0.977 -0.481,1.415l0.481,2.444l-0,0.025c-0.006,0.5 -0.176,0.977 -0.481,1.415l0.481,2.444l-0,0.025c-0.006,0.5 -0.176,0.977 -0.481,1.416l0.481,2.443l-0,0.025c-0.005,0.368 -0.098,0.724 -0.268,1.061l0.545,2.773l0,0.026c-0.006,0.52 -0.183,1.017 -0.5,1.474l0.5,2.543l0,0.027c-0.006,0.52 -0.183,1.017 -0.5,1.473l0.5,2.544l0,0.026c-0.006,0.521 -0.183,1.018 -0.5,1.474l0.5,2.544l0,0.026c-0.004,0.426 -0.124,0.836 -0.341,1.221l0.55,2.797l0,0.027c-0.006,0.535 -0.188,1.047 -0.515,1.517l0.515,2.62l0,0.026c-0.004,0.413 -0.114,0.812 -0.313,1.188l0.58,2.949l-0,0.028c-0.006,0.556 -0.195,1.086 -0.535,1.574l0.535,2.715l-0,0.028c-0.026,2.37 -3.382,4.29 -7.512,4.29c-4.146,-0 -7.513,-1.935 -7.513,-4.318l0.535,-2.715c-0.345,-0.496 -0.535,-1.036 -0.535,-1.602l0.581,-2.949c-0.204,-0.384 -0.314,-0.792 -0.314,-1.214l0.516,-2.62c-0.333,-0.477 -0.516,-0.999 -0.516,-1.544l0.551,-2.797c-0.222,-0.393 -0.342,-0.812 -0.342,-1.247l0.501,-2.544c-0.323,-0.464 -0.501,-0.97 -0.501,-1.5l0.501,-2.544c-0.323,-0.464 -0.501,-0.97 -0.501,-1.5l0.501,-2.543c-0.323,-0.464 -0.501,-0.971 -0.501,-1.5l0.546,-2.773c-0.175,-0.345 -0.268,-0.709 -0.268,-1.086l0.481,-2.443c-0.31,-0.446 -0.481,-0.932 -0.481,-1.441l0.481,-2.444c-0.31,-0.445 -0.481,-0.931 -0.481,-1.44l0.481,-2.444c-0.31,-0.445 -0.481,-0.932 -0.481,-1.44l0.481,-2.444c-0.31,-0.446 -0.481,-0.932 -0.481,-1.441l0.481,-2.443c-0.31,-0.446 -0.481,-0.932 -0.481,-1.441l0.355,-1.804c-4.064,3.481 -7.68,7.158 -11.224,11.129c-0.093,0.106 -0.253,0.12 -0.364,0.034c-0.112,-0.087 -0.137,-0.245 -0.058,-0.361c3.35,-4.873 6.928,-9.595 10.909,-14.048c-0.069,-0.448 -0.105,-0.909 -0.105,-1.378c0,-0.54 0.048,-1.068 0.138,-1.579c-2.787,-1.191 -5.543,-2.112 -8.395,-2.903c-0.134,-0.038 -0.218,-0.172 -0.191,-0.309c0.027,-0.137 0.154,-0.231 0.293,-0.215c2.943,0.421 5.872,0.968 8.778,1.716Z" style="fill:none;"/><clipPath id="_clip20"><path id="stem_mask1" serif:id="stem_mask" d="M234.232,73.898c1.129,-2.835 3.671,-4.813 6.623,-4.813c2.652,0 4.973,1.597 6.236,3.978c3.613,-1.151 7.271,-2.047 10.957,-2.787c0.138,-0.026 0.273,0.06 0.308,0.196c0.036,0.135 -0.04,0.276 -0.173,0.321c-3.545,1.195 -6.942,2.535 -10.348,4.216c0.118,0.475 0.199,0.968 0.238,1.474c3.346,1.062 6.59,2.337 9.772,3.746c0.128,0.059 0.188,0.206 0.139,0.338c-0.05,0.131 -0.193,0.202 -0.327,0.162c-3.178,-0.946 -6.329,-1.72 -9.646,-2.266c-0.04,0.281 -0.093,0.557 -0.158,0.828c3.419,3.959 6.512,8.131 9.415,12.428c0.075,0.118 0.047,0.274 -0.065,0.358c-0.112,0.084 -0.27,0.068 -0.363,-0.037c-3.001,-3.419 -6.067,-6.608 -9.466,-9.644l0.24,1.22l-0,0.025c-0.006,0.5 -0.176,0.978 -0.481,1.416l0.481,2.443l-0,0.025c-0.006,0.5 -0.176,0.978 -0.481,1.416l0.481,2.444l-0,0.025c-0.006,0.499 -0.176,0.977 -0.481,1.415l0.481,2.444l-0,0.025c-0.006,0.5 -0.176,0.977 -0.481,1.415l0.481,2.444l-0,0.025c-0.006,0.5 -0.176,0.977 -0.481,1.416l0.481,2.443l-0,0.025c-0.005,0.368 -0.098,0.724 -0.268,1.061l0.545,2.773l0,0.026c-0.006,0.52 -0.183,1.017 -0.5,1.474l0.5,2.543l0,0.027c-0.006,0.52 -0.183,1.017 -0.5,1.473l0.5,2.544l0,0.026c-0.006,0.521 -0.183,1.018 -0.5,1.474l0.5,2.544l0,0.026c-0.004,0.426 -0.124,0.836 -0.341,1.221l0.55,2.797l0,0.027c-0.006,0.535 -0.188,1.047 -0.515,1.517l0.515,2.62l0,0.026c-0.004,0.413 -0.114,0.812 -0.313,1.188l0.58,2.949l-0,0.028c-0.006,0.556 -0.195,1.086 -0.535,1.574l0.535,2.715l-0,0.028c-0.026,2.37 -3.382,4.29 -7.512,4.29c-4.146,-0 -7.513,-1.935 -7.513,-4.318l0.535,-2.715c-0.345,-0.496 -0.535,-1.036 -0.535,-1.602l0.581,-2.949c-0.204,-0.384 -0.314,-0.792 -0.314,-1.214l0.516,-2.62c-0.333,-0.477 -0.516,-0.999 -0.516,-1.544l0.551,-2.797c-0.222,-0.393 -0.342,-0.812 -0.342,-1.247l0.501,-2.544c-0.323,-0.464 -0.501,-0.97 -0.501,-1.5l0.501,-2.544c-0.323,-0.464 -0.501,-0.97 -0.501,-1.5l0.501,-2.543c-0.323,-0.464 -0.501,-0.971 -0.501,-1.5l0.546,-2.773c-0.175,-0.345 -0.268,-0.709 -0.268,-1.086l0.481,-2.443c-0.31,-0.446 -0.481,-0.932 -0.481,-1.441l0.481,-2.444c-0.31,-0.445 -0.481,-0.931 -0.481,-1.44l0.481,-2.444c-0.31,-0.445 -0.481,-0.932 -0.481,-1.44l0.481,-2.444c-0.31,-0.446 -0.481,-0.932 -0.481,-1.441l0.481,-2.443c-0.31,-0.446 -0.481,-0.932 -0.481,-1.441l0.355,-1.804c-4.064,3.481 -7.68,7.158 -11.224,11.129c-0.093,0.106 -0.253,0.12 -0.364,0.034c-0.112,-0.087 -0.137,-0.245 -0.058,-0.361c3.35,-4.873 6.928,-9.595 10.909,-14.048c-0.069,-0.448 -0.105,-0.909 -0.105,-1.378c0,-0.54 0.048,-1.068 0.138,-1.579c-2.787,-1.191 -5.543,-2.112 -8.395,-2.903c-0.134,-0.038 -0.218,-0.172 -0.191,-0.309c0.027,-0.137 0.154,-0.231 0.293,-0.215c2.943,0.421 5.872,0.968 8.778,1.716Z"/></clipPath><g clip-path="url(#_clip20)"><path d="M220.851,92.958l9.96,7.674l-4.695,-7.674l7.825,7.674l-1.423,-6.395l4.553,7.816l-0.996,-9.095l5.833,10.232l-2.134,-10.232l5.406,12.079l-3.272,-12.079l7.683,7.674l-4.411,-10.232l10.386,10.232l-2.987,-10.232l6.971,7.39l0,-57.841l-38.699,0l0,53.009Z" style="fill:url(#_Linear21);"/></g><g id="leaf2" serif:id="leaf"><path d="M246.235,63.703c-5.08,-1.402 -6.657,-1.464 -11.986,0.184c4.297,-2.468 6.372,-2.84 11.609,-1.739c-4.615,-1.83 -6.739,-2.188 -12.498,-2.189c5.274,-1.403 7.283,-0.88 12.392,0.305c-0.797,-1.113 -14.28,-3.309 -14.436,-2.628c5.342,-0.957 10.401,-0.914 15.068,0.522c-4.659,-2.294 -9.416,-2.977 -14.226,-2.8c4.91,-0.997 9.911,-1.044 15.068,0.522c-4.598,-2.193 -9.505,-2.916 -14.548,-2.997c4.987,-0.643 9.913,-0.682 14.7,0.634c-3.844,-2.667 -8.596,-3.468 -13.629,-3.691c5.486,-0.641 10.678,-0.579 15.323,0.801c-4.147,-2.385 -8.837,-3.235 -13.697,-3.609c5.169,-0.673 10.397,-0.727 15.788,0.908c-3.756,-2.71 -8.231,-3.913 -12.957,-4.589c5.076,-0.401 10.186,0.016 15.356,1.934c-2.667,-3.083 -7.413,-4.633 -11.691,-5.62c4.964,-0.116 9.678,0.941 14.107,3.333c-2.011,-2.959 -6.822,-4.849 -9.965,-6.004c4.303,0.441 8.469,1.594 12.341,4.276c-1.873,-3.008 -6.73,-5.8 -10.662,-7.316c3.985,0.355 7.726,1.571 11.035,4.319c-0.966,-3.441 -4.048,-6.292 -7.839,-8.944c4.459,1.302 8.055,4.697 11.471,8.065c-1.48,-4.086 -3.593,-8.371 -6.864,-10.629c3.912,0.748 6.548,4.151 10.067,8.351c-0.276,-4.416 -1.925,-7.8 -3.942,-10.909c4.153,1.05 5.229,4.996 7.607,9.114c-0.577,-4.179 -1.853,-7.51 -3.542,-10.34c2.645,2.034 4.878,4.729 6.357,8.634c0.135,-4.346 -0.849,-7.956 -2.369,-11.212c2.412,2.179 4.469,5.102 5.588,9.993c1.482,-3.919 1.938,-7.505 1.612,-10.837c1.188,2.974 1.905,6.137 1.397,9.791c1.45,-3.811 3.633,-7.116 7.191,-9.474c-2.273,2.883 -3.708,5.862 -4.514,8.914c2.52,-3.99 6.41,-6.789 10.965,-9.009c-3.574,2.642 -7.159,5.853 -8.737,9.855c5.035,-2.663 9.745,-3.691 14.258,-3.718c-4.808,1.75 -10.711,3.097 -13.496,5.563c5.347,-0.573 11.404,0.734 15.922,2.31l-17.662,-0.682c6.426,0.425 12.227,2.055 17.451,4.794c-6.123,-1.77 -12.249,-2.911 -18.377,-3.387c4.623,1.667 7.636,4.469 9.713,7.931c-4.869,-3.246 -10.756,-6.85 -14.932,-6.926c3.763,1.299 6.094,5.017 7.124,7.752c-2.921,-3.494 -6.201,-6.094 -10.585,-5.953c3.098,1.151 4.276,3.61 4.941,6.42c-1.997,-2.588 -4.483,-4.542 -8.207,-4.894c2.232,1.643 3.315,2.705 4.042,6.53c-2.589,-3.296 -4.446,-3.816 -8.07,-4.249c2.694,1.419 4.401,3.492 5.271,6.121c-2.033,-2.145 -4.595,-3.708 -7.915,-4.437c1.997,1.366 2.704,2.526 3.403,6.198c-1.387,-2.683 -3.572,-3.594 -6.635,-3.53c2.271,1.213 3.199,3.143 3.984,5.148c-1.981,-1.719 -4.099,-2.848 -6.924,-2.401c2.818,0.669 5.195,2.597 7.403,5.007c-2.881,-1.63 -5.949,-3.258 -8.687,-2.057c2.994,0.303 4.515,1.228 7.099,3.497c-2.874,-1.427 -5.661,-1.951 -8.301,-0.945c2.774,0.271 4.983,1.404 6.854,3.054c-2.875,-1.037 -5.648,-1.469 -8.222,-0.725c2.454,0.262 3.984,1.47 6.04,3.647c-2.707,-1.147 -4.723,-1.467 -7.594,-0.089c2.737,0.003 4.446,1.487 5.93,3.294c-2.202,-1.327 -4.771,-2.054 -7.979,-1.733c2.833,0.174 4.868,1.986 6.511,4.602c-1.832,-1.693 -3.848,-2.907 -6.405,-2.718c1.945,0.301 3.335,1.806 4.531,3.731c-2.034,-1.773 -4.502,-2.809 -7.426,-3.074Z" style="fill:url(#_Radial22);"/><path d="M243.065,73.888c5.819,-27.716 19.943,-39.245 38.146,-42.825c-20.132,5.697 -33.307,19.212 -36.526,43.914c-0.802,0.514 -1.854,0.028 -1.62,-1.089Z" style="fill:#196a4d;"/></g><g id="leaf3" serif:id="leaf"><path d="M235.554,65.912c5.08,-1.402 6.657,-1.464 11.986,0.184c-4.297,-2.468 -6.372,-2.84 -11.608,-1.739c4.615,-1.83 6.738,-2.188 12.498,-2.189c-5.274,-1.404 -7.284,-0.88 -12.393,0.305c0.797,-1.113 14.28,-3.309 14.437,-2.629c-5.342,-0.956 -10.402,-0.913 -15.068,0.523c4.659,-2.295 9.416,-2.978 14.225,-2.801c-4.91,-0.997 -9.911,-1.043 -15.068,0.523c4.598,-2.193 9.506,-2.916 14.548,-2.997c-4.987,-0.643 -9.912,-0.683 -14.7,0.633c3.844,-2.667 8.596,-3.467 13.629,-3.69c-5.485,-0.641 -10.678,-0.579 -15.322,0.8c4.146,-2.384 8.837,-3.234 13.696,-3.608c-5.168,-0.673 -10.397,-0.727 -15.787,0.907c3.756,-2.71 8.23,-3.913 12.956,-4.589c-5.076,-0.401 -10.185,0.017 -15.355,1.935c2.666,-3.083 7.412,-4.633 11.69,-5.62c-4.964,-0.116 -9.678,0.941 -14.107,3.333c2.012,-2.96 6.822,-4.849 9.965,-6.004c-4.303,0.441 -8.469,1.594 -12.341,4.275c1.873,-3.007 6.73,-5.799 10.662,-7.315c-3.985,0.355 -7.726,1.571 -11.035,4.319c0.966,-3.442 4.048,-6.292 7.84,-8.944c-4.459,1.301 -8.056,4.697 -11.471,8.065c1.479,-4.086 3.592,-8.371 6.863,-10.629c-3.912,0.748 -6.547,4.151 -10.067,8.351c0.276,-4.416 1.926,-7.8 3.942,-10.91c-4.153,1.051 -5.229,4.997 -7.606,9.114c0.576,-4.178 1.852,-7.509 3.541,-10.339c-2.645,2.034 -4.878,4.729 -6.356,8.634c-0.135,-4.347 0.848,-7.957 2.369,-11.213c-2.412,2.18 -4.47,5.103 -5.589,9.994c-1.482,-3.919 -1.937,-7.505 -1.611,-10.837c-1.188,2.974 -1.906,6.136 -1.398,9.791c-1.45,-3.811 -3.633,-7.116 -7.19,-9.474c2.272,2.882 3.707,5.861 4.513,8.913c-2.52,-3.99 -6.41,-6.788 -10.964,-9.008c3.573,2.642 7.159,5.853 8.737,9.855c-5.035,-2.663 -9.746,-3.691 -14.258,-3.718c4.808,1.75 10.71,3.097 13.496,5.563c-5.347,-0.573 -11.405,0.734 -15.923,2.31l17.662,-0.682c-6.426,0.425 -12.226,2.055 -17.451,4.793c6.123,-1.769 12.249,-2.91 18.377,-3.386c-4.622,1.666 -7.636,4.468 -9.713,7.931c4.87,-3.247 10.756,-6.85 14.932,-6.927c-3.763,1.3 -6.094,5.018 -7.124,7.753c2.921,-3.494 6.201,-6.094 10.585,-5.953c-3.098,1.151 -4.276,3.61 -4.941,6.419c1.997,-2.587 4.483,-4.541 8.208,-4.893c-2.233,1.643 -3.316,2.705 -4.042,6.53c2.588,-3.297 4.445,-3.816 8.069,-4.249c-2.694,1.419 -4.401,3.492 -5.27,6.121c2.032,-2.146 4.594,-3.708 7.915,-4.437c-1.998,1.366 -2.705,2.525 -3.404,6.198c1.387,-2.683 3.572,-3.594 6.636,-3.53c-2.271,1.213 -3.199,3.143 -3.985,5.148c1.981,-1.719 4.099,-2.848 6.924,-2.402c-2.818,0.67 -5.195,2.598 -7.402,5.008c2.881,-1.63 5.948,-3.259 8.686,-2.057c-2.994,0.302 -4.515,1.228 -7.099,3.497c2.874,-1.427 5.661,-1.952 8.301,-0.945c-2.774,0.271 -4.983,1.403 -6.854,3.054c2.876,-1.037 5.648,-1.469 8.222,-0.725c-2.454,0.261 -3.984,1.47 -6.039,3.647c2.706,-1.148 4.722,-1.467 7.593,-0.089c-2.737,0.003 -4.446,1.487 -5.93,3.294c2.202,-1.327 4.771,-2.054 7.979,-1.733c-2.832,0.174 -4.867,1.986 -6.511,4.602c1.832,-1.693 3.848,-2.907 6.406,-2.718c-1.946,0.301 -3.336,1.805 -4.531,3.731c2.033,-1.773 4.502,-2.809 7.425,-3.074Z" style="fill:url(#_Radial23);"/><path d="M238.724,76.097c-5.819,-27.716 -19.943,-39.245 -38.145,-42.825c20.131,5.697 33.306,19.212 36.526,43.914c0.802,0.513 1.853,0.028 1.619,-1.089Z" style="fill:#196a4d;"/></g><path id="leaf4" serif:id="leaf" d="M245.498,73.042c-0.241,0.466 0.649,1.295 1.363,0.032c2.952,-8.138 31.091,-22.686 53.745,-14.097c-1.299,-0.848 -2.644,-1.426 -4.079,-1.674l3.149,0.302c-1.51,-0.844 -3.392,-1.87 -5.379,-1.935l1.629,-0.235c-2.676,-1.036 -7.198,-1.234 -8.994,-1.23c-5.005,-1.239 -8.473,-0.571 -12.02,-0c-13.621,-1.071 -23.189,6.776 -29.414,18.837Z" style="fill:url(#_Radial24);"/><path id="leaf5" serif:id="leaf" d="M235.323,74.364c0.24,0.465 -0.649,1.295 -1.364,0.032c-2.952,-8.138 -31.09,-22.686 -53.744,-14.097c1.298,-0.848 2.644,-1.427 4.078,-1.674l-3.149,0.302c1.51,-0.845 3.393,-1.871 5.38,-1.935l-1.63,-0.235c2.677,-1.036 7.198,-1.234 8.995,-1.23c5.005,-1.239 8.473,-0.571 12.019,-0c13.622,-1.071 23.19,6.776 29.415,18.837Z" style="fill:url(#_Radial25);"/></g><g id="fence"><path d="M209.403,161.343l19.984,10.01l-199.989,100.022l-20.014,-10.022l200.019,-100.01Z" style="fill:#fa697e;"/><g id="short-column" serif:id="short column"><path d="M186.725,168.249l25.647,0l3.177,8.018l-16,8.018l-16,-8.018l3.176,-8.018Z" style="fill:#c6c6b7;"/><path d="M199.562,174.682l12.81,-6.433l3.177,8.018l-16,8.018l0.013,-9.603Z" style="fill:#c6c6b7;"/><path d="M199.549,174.675l-12.824,-6.426l-3.176,8.018l16,8.018l-0,-9.61Z" style="fill:#cdcdc2;"/><path d="M199.549,161.823l12.823,6.426l-12.823,6.426l-12.824,-6.426l12.824,-6.426Z" style="fill:#d5d5c9;"/><path d="M190.417,168.249l-0,-27.634l18.218,0l-0,27.634c-0,2.517 -4.082,4.56 -9.109,4.56c-5.028,-0 -9.109,-2.043 -9.109,-4.56Z" style="fill:url(#_Linear26);"/><clipPath id="_clip27"><path d="M190.417,168.249l-0,-27.634l18.218,0l-0,27.634c-0,2.517 -4.082,4.56 -9.109,4.56c-5.028,-0 -9.109,-2.043 -9.109,-4.56Z"/></clipPath><g clip-path="url(#_clip27)"><rect x="191.806" y="104.661" width="0.671" height="69.512" style="fill:url(#_Linear28);"/><rect x="194.282" y="106.241" width="1.041" height="69.512" style="fill:url(#_Linear29);"/><rect x="206.867" y="105.523" width="0.671" height="69.512" style="fill:url(#_Linear30);"/><rect x="204.021" y="105.523" width="1.041" height="69.512" style="fill:url(#_Linear31);"/><rect x="198.898" y="106.95" width="1.255" height="69.512" style="fill:url(#_Linear32);"/></g><path d="M183.549,133.838l32,0l-3.177,8.018l-12.823,6.426l-12.824,-6.426l-3.176,-8.018Z" style="fill:#c6c6b7;"/><path d="M199.566,141.865l15.983,-8.027l-3.177,8.018l-12.823,6.426l0.017,-6.417Z" style="fill:#c3c3b1;"/><path d="M199.549,141.856l-16,-8.018l3.184,8.058l12.816,6.386l-0,-6.426Z" style="fill:#cdcdc2;"/><path d="M199.549,125.82l16,8.018l-16,8.018l-16,-8.018l16,-8.018Z" style="fill:#d5d5c9;"/></g><g id="short-column1" serif:id="short column"><path d="M146.722,188.251l25.647,-0l3.177,8.018l-16,8.018l-16,-8.018l3.176,-8.018Z" style="fill:#c6c6b7;"/><path d="M159.558,194.683l12.811,-6.432l3.177,8.018l-16,8.018l0.012,-9.604Z" style="fill:#c6c6b7;"/><path d="M159.546,194.677l-12.824,-6.426l-3.176,8.018l16,8.018l-0,-9.61Z" style="fill:#cdcdc2;"/><path d="M159.546,181.825l12.823,6.426l-12.823,6.426l-12.824,-6.426l12.824,-6.426Z" style="fill:#d5d5c9;"/><path d="M150.414,188.251l-0,-27.634l18.217,-0l0,27.634c0,2.516 -4.081,4.559 -9.109,4.559c-5.027,0 -9.108,-2.043 -9.108,-4.559Z" style="fill:url(#_Linear33);"/><clipPath id="_clip34"><path d="M150.414,188.251l-0,-27.634l18.217,-0l0,27.634c0,2.516 -4.081,4.559 -9.109,4.559c-5.027,0 -9.108,-2.043 -9.108,-4.559Z"/></clipPath><g clip-path="url(#_clip34)"><rect x="151.803" y="124.662" width="0.671" height="69.512" style="fill:url(#_Linear35);"/><rect x="154.279" y="126.242" width="1.041" height="69.512" style="fill:url(#_Linear36);"/><rect x="166.863" y="125.525" width="0.671" height="69.512" style="fill:url(#_Linear37);"/><rect x="164.018" y="125.525" width="1.041" height="69.512" style="fill:url(#_Linear38);"/><rect x="158.895" y="126.952" width="1.255" height="69.512" style="fill:url(#_Linear39);"/></g><path d="M143.546,153.84l32,-0l-3.177,8.018l-12.823,6.426l-12.824,-6.426l-3.176,-8.018Z" style="fill:#c6c6b7;"/><path d="M159.562,161.866l15.984,-8.026l-3.177,8.018l-12.823,6.426l0.016,-6.418Z" style="fill:#c3c3b1;"/><path d="M159.546,161.858l-16,-8.018l3.184,8.058l12.816,6.386l-0,-6.426Z" style="fill:#cdcdc2;"/><path d="M159.546,145.822l16,8.018l-16,8.018l-16,-8.018l16,-8.018Z" style="fill:#d5d5c9;"/></g><g id="short-column2" serif:id="short column"><path d="M106.719,208.252l25.647,0l3.176,8.019l-16,8.018l-16,-8.018l3.177,-8.019Z" style="fill:#c6c6b7;"/><path d="M119.555,214.685l12.811,-6.433l3.176,8.019l-16,8.018l0.013,-9.604Z" style="fill:#c6c6b7;"/><path d="M119.542,214.679l-12.823,-6.427l-3.177,8.019l16,8.018l0,-9.61Z" style="fill:#cdcdc2;"/><path d="M119.542,201.826l12.824,6.426l-12.824,6.427l-12.823,-6.427l12.823,-6.426Z" style="fill:#d5d5c9;"/><path d="M110.41,208.252l0,-27.633l18.218,-0l0,27.633c0,2.517 -4.081,4.56 -9.109,4.56c-5.027,0 -9.109,-2.043 -9.109,-4.56Z" style="fill:url(#_Linear40);"/><clipPath id="_clip41"><path d="M110.41,208.252l0,-27.633l18.218,-0l0,27.633c0,2.517 -4.081,4.56 -9.109,4.56c-5.027,0 -9.109,-2.043 -9.109,-4.56Z"/></clipPath><g clip-path="url(#_clip41)"><rect x="111.8" y="144.664" width="0.671" height="69.512" style="fill:url(#_Linear42);"/><rect x="114.275" y="146.244" width="1.041" height="69.512" style="fill:url(#_Linear43);"/><rect x="126.86" y="145.526" width="0.671" height="69.512" style="fill:url(#_Linear44);"/><rect x="124.014" y="145.526" width="1.041" height="69.512" style="fill:url(#_Linear45);"/><rect x="118.892" y="146.953" width="1.255" height="69.512" style="fill:url(#_Linear46);"/></g><path d="M103.542,173.841l32,0l-3.176,8.019l-12.824,6.426l-12.823,-6.426l-3.177,-8.019Z" style="fill:#c6c6b7;"/><path d="M119.559,181.868l15.983,-8.027l-3.176,8.019l-12.824,6.426l0.017,-6.418Z" style="fill:#c3c3b1;"/><path d="M119.542,181.86l-16,-8.019l3.185,8.059l12.815,6.386l0,-6.426Z" style="fill:#cdcdc2;"/><path d="M119.542,165.823l16,8.018l-16,8.019l-16,-8.019l16,-8.018Z" style="fill:#d5d5c9;"/></g><g id="short-column3" serif:id="short column"><path d="M66.716,228.254l25.646,0l3.177,8.018l-16,8.018l-16,-8.018l3.177,-8.018Z" style="fill:#c6c6b7;"/><path d="M79.552,234.687l12.81,-6.433l3.177,8.018l-16,8.018l0.013,-9.603Z" style="fill:#c6c6b7;"/><path d="M79.539,234.68l-12.823,-6.426l-3.177,8.018l16,8.018l0,-9.61Z" style="fill:#cdcdc2;"/><path d="M79.539,221.828l12.823,6.426l-12.823,6.426l-12.823,-6.426l12.823,-6.426Z" style="fill:#d5d5c9;"/><path d="M70.407,228.254l0,-27.634l18.218,0l-0,27.634c-0,2.517 -4.082,4.56 -9.109,4.56c-5.027,-0 -9.109,-2.043 -9.109,-4.56Z" style="fill:url(#_Linear47);"/><clipPath id="_clip48"><path d="M70.407,228.254l0,-27.634l18.218,0l-0,27.634c-0,2.517 -4.082,4.56 -9.109,4.56c-5.027,-0 -9.109,-2.043 -9.109,-4.56Z"/></clipPath><g clip-path="url(#_clip48)"><rect x="71.797" y="164.665" width="0.671" height="69.512" style="fill:url(#_Linear49);"/><rect x="74.272" y="166.246" width="1.041" height="69.512" style="fill:url(#_Linear50);"/><rect x="86.857" y="165.528" width="0.671" height="69.512" style="fill:url(#_Linear51);"/><rect x="84.011" y="165.528" width="1.041" height="69.512" style="fill:url(#_Linear52);"/><rect x="78.888" y="166.955" width="1.255" height="69.512" style="fill:url(#_Linear53);"/></g><path d="M63.539,193.843l32,0l-3.177,8.018l-12.823,6.426l-12.823,-6.426l-3.177,-8.018Z" style="fill:#c6c6b7;"/><path d="M79.556,201.87l15.983,-8.027l-3.177,8.018l-12.823,6.426l0.017,-6.417Z" style="fill:#c3c3b1;"/><path d="M79.539,201.861l-16,-8.018l3.185,8.058l12.815,6.386l0,-6.426Z" style="fill:#cdcdc2;"/><path d="M79.539,185.825l16,8.018l-16,8.018l-16,-8.018l16,-8.018Z" style="fill:#d5d5c9;"/></g><g id="short-column4" serif:id="short column"><path d="M26.712,248.256l25.647,-0l3.177,8.018l-16,8.018l-16,-8.018l3.176,-8.018Z" style="fill:#c6c6b7;"/><path d="M39.549,254.688l12.81,-6.432l3.177,8.018l-16,8.018l0.013,-9.604Z" style="fill:#c6c6b7;"/><path d="M39.536,254.682l-12.824,-6.426l-3.176,8.018l16,8.018l-0,-9.61Z" style="fill:#cdcdc2;"/><path d="M39.536,241.83l12.823,6.426l-12.823,6.426l-12.824,-6.426l12.824,-6.426Z" style="fill:#d5d5c9;"/><path d="M30.404,248.256l-0,-27.634l18.218,-0l-0,27.634c-0,2.516 -4.082,4.559 -9.109,4.559c-5.028,0 -9.109,-2.043 -9.109,-4.559Z" style="fill:url(#_Linear54);"/><clipPath id="_clip55"><path d="M30.404,248.256l-0,-27.634l18.218,-0l-0,27.634c-0,2.516 -4.082,4.559 -9.109,4.559c-5.028,0 -9.109,-2.043 -9.109,-4.559Z"/></clipPath><g clip-path="url(#_clip55)"><rect x="31.793" y="184.667" width="0.671" height="69.512" style="fill:url(#_Linear56);"/><rect x="34.269" y="186.247" width="1.041" height="69.512" style="fill:url(#_Linear57);"/><rect x="46.854" y="185.529" width="0.671" height="69.512" style="fill:url(#_Linear58);"/><rect x="44.008" y="185.529" width="1.041" height="69.512" style="fill:url(#_Linear59);"/><rect x="38.885" y="186.957" width="1.255" height="69.512" style="fill:url(#_Linear60);"/></g><path d="M23.536,213.845l32,-0l-3.177,8.018l-12.823,6.426l-12.824,-6.426l-3.176,-8.018Z" style="fill:#c6c6b7;"/><path d="M39.553,221.871l15.983,-8.026l-3.177,8.018l-12.823,6.426l0.017,-6.418Z" style="fill:#c3c3b1;"/><path d="M39.536,221.863l-16,-8.018l3.184,8.058l12.816,6.386l-0,-6.426Z" style="fill:#cdcdc2;"/><path d="M39.536,205.827l16,8.018l-16,8.018l-16,-8.018l16,-8.018Z" style="fill:#d5d5c9;"/></g><g id="top-slab"><path d="M207.558,112.277c3.435,-1.721 6.224,0.47 6.224,4.89c0,4.419 -2.789,9.404 -6.224,11.125c-3.435,1.72 -6.224,-0.471 -6.224,-4.89c-0,-4.42 2.789,-9.405 6.224,-11.125Z" style="fill:url(#_Linear61);"/><path d="M231.499,122.109l-20.575,-10.246l-4.9,11.655l20.5,10.25l4.975,-11.659Z" style="fill:url(#_Linear62);"/><path d="M229.259,127.134l-20.575,-10.245l-4.901,11.654l20.5,10.25l4.976,-11.659Z" style="fill:url(#_Linear63);"/><path d="M6.224,212.783c3.436,-1.72 6.225,0.471 6.225,4.89c-0,4.42 -2.789,9.405 -6.225,11.125c-3.435,1.721 -6.224,-0.47 -6.224,-4.89c-0,-4.419 2.789,-9.404 6.224,-11.125Z" style="fill:url(#_Linear64);"/><path d="M227.525,122.267l-0,8.001l-199.989,100.021l-20.014,-10.021l-0,-7.96l200.019,-100.024l19.984,9.983Z" style="fill:#cdcdc2;"/><path d="M227.525,122.267l-0,8.001l-199.989,100.021l0.039,-7.994l199.95,-100.028Z" style="fill:#b2b4a5;"/><path d="M207.541,112.284l19.984,10.009l-199.989,100.022l-20.014,-10.022l200.019,-100.009Z" style="fill:#d5d5c9;"/><path d="M227.563,122.28c3.436,-1.721 6.225,0.47 6.225,4.89c-0,4.419 -2.789,9.404 -6.225,11.125c-3.435,1.72 -6.224,-0.471 -6.224,-4.89c0,-4.42 2.789,-9.405 6.224,-11.125Z" style="fill:#b2b4a5;"/><clipPath id="_clip65"><path d="M227.563,122.28c3.436,-1.721 6.225,0.47 6.225,4.89c-0,4.419 -2.789,9.404 -6.225,11.125c-3.435,1.72 -6.224,-0.471 -6.224,-4.89c0,-4.42 2.789,-9.405 6.224,-11.125Z"/></clipPath><g clip-path="url(#_clip65)"><path d="M221.259,135.86c0.47,-8.876 7.318,-8.889 8.386,-7.109c1.242,2.067 0.54,5.109 -1.354,6.696c-2.408,2.018 -5.17,0.994 -3.919,-2.387c1.001,-2.702 3.656,-2.311 2.973,0.165" style="fill:none;stroke:#a4a289;stroke-width:1px;"/></g><path d="M28.075,222.524l-20.524,-10.223l-5.638,16.478l20.5,10.25l5.662,-16.505Z" style="fill:url(#_Linear66);"/><path d="M26.23,222.786c3.435,-1.721 6.224,0.47 6.224,4.89c-0,4.419 -2.789,9.404 -6.224,11.125c-3.436,1.72 -6.225,-0.471 -6.225,-4.89c0,-4.42 2.789,-9.405 6.225,-11.125Z" style="fill:#b2b4a5;"/><clipPath id="_clip67"><path d="M26.23,222.786c3.435,-1.721 6.224,0.47 6.224,4.89c-0,4.419 -2.789,9.404 -6.224,11.125c-3.436,1.72 -6.225,-0.471 -6.225,-4.89c0,-4.42 2.789,-9.405 6.225,-11.125Z"/></clipPath><g clip-path="url(#_clip67)"><path d="M32.614,230.48c-0.792,-6.003 -5.68,-5.447 -7.793,-1.55c-1.048,1.932 -2.623,6.211 0.356,7.291c1.993,0.723 5.482,-4.028 4.878,-5.959c-0.687,-2.196 -4.192,0.968 -3.625,2.172" style="fill:none;stroke:#a4a289;stroke-width:1px;"/></g></g></g><g id="apple_sig"><ellipse cx="53.564" cy="198.601" rx="8.91" ry="2.464" style="fill:url(#_Radial68);"/><path d="M47.326,184.283l-1.439,2.963l-0.658,2.649l0.398,2.619l1.819,4.52l3.589,3.46l3.109,-0.797l2.547,0.449l1.872,-1.534l2.922,-6.996l0.449,-2.469l-0.711,-2.619l-2.36,-2.806l-1.76,-0.561l-3.971,-0.524l-3.864,0.86l-1.942,0.786Z"/><g id="name"><path id="P" d="M56.315,194.167l0,-3.741l1.619,1.617l-0.956,0.955" style="fill:none;stroke:#000;stroke-width:0.5px;stroke-linecap:square;stroke-linejoin:miter;stroke-miterlimit:5;"/><path id="N" d="M55.281,194.167l-0,-3.741l-1.405,-0l0,3.741" style="fill:none;stroke:#000;stroke-width:0.5px;stroke-linecap:square;stroke-linejoin:miter;stroke-miterlimit:5;"/><path id="U" d="M51.437,190.426l0,3.741l1.405,-0l-0,-3.741" style="fill:none;stroke:#000;stroke-width:0.5px;stroke-linecap:square;stroke-linejoin:miter;stroke-miterlimit:5;"/><path id="P1" serif:id="P" d="M49.229,194.167l0,-3.741l1.619,1.617l-0.956,0.955" style="fill:none;stroke:#000;stroke-width:0.5px;stroke-linecap:square;stroke-linejoin:miter;stroke-miterlimit:5;"/></g><path d="M47.631,184.647l-1.318,2.724l-0.779,2.634l0.569,2.664l1.708,4.22l3.356,3.262l2.907,-0.778l2.427,0.539l1.738,-1.497l2.906,-6.614l0.45,-2.574l-0.659,-2.485l-2.398,-2.604l-1.618,-0.568l-3.775,-0.419l-3.626,0.778l-1.888,0.718Z" style="fill:url(#_Radial69);stroke:#bbb;stroke-width:0.5px;"/><path d="M45.534,190.005l2.696,2.903l6.113,0.718l5.843,-1.346l1.409,-3.053" style="fill:none;stroke:#bbb;stroke-width:0.5px;"/><path d="M46.313,187.371l2.337,2.664l5.633,0.658l5.274,-1.167l1.379,-2.784" style="fill:none;stroke:#bbb;stroke-width:0.5px;"/><path d="M49.519,183.929l-0.779,1.915l1.468,1.826l3.836,0.419l3.625,-0.808l0.779,-1.916l-1.528,-1.795" style="fill:none;stroke:#bbb;stroke-width:0.5px;"/><path d="M48.74,185.844l-2.427,1.527" style="fill:none;stroke:#bbb;stroke-width:0.5px;"/><path d="M50.208,187.67l-1.468,2.375l-0.51,2.863l0.36,2.395l0.982,3.298" style="fill:none;stroke:#bbb;stroke-width:0.5px;"/><path d="M46.103,192.669l2.487,2.634l5.693,0.688l5.573,-1.257" style="fill:none;stroke:#bbb;stroke-width:0.5px;"/><path d="M54.044,188.089l0.239,2.604l0.06,2.933l-0.06,2.365l-0.209,3.382" style="fill:none;stroke:#bbb;stroke-width:0.5px;"/><path d="M49.572,198.601l4.502,0.772l4.165,-0.958" style="fill:none;stroke:#bbb;stroke-width:0.5px;"/><path d="M57.669,187.281l1.888,2.245l0.629,2.754l-0.33,2.454" style="fill:none;stroke:#bbb;stroke-width:0.5px;"/><path d="M48.609,185.888l3.83,1.913l-3.743,-2.087l-0.087,0.174Z" style="fill:#bbb;"/><path d="M56.837,183.525l-1.701,2.341l0.158,0.114l1.701,-2.34l-0.158,-0.115Z" style="fill:#bbb;"/><path d="M54.612,187.805l3.788,-2.386l2.494,1.487l0.096,-0.17l-2.544,-1.515c-0.032,-0.018 -0.07,-0.017 -0.101,0.002l-3.733,2.582Z" style="fill:#bbb;"/><path d="M49.45,184.033l3.523,3.775l-3.379,-3.906l-0.144,0.131Z" style="fill:#bbb;"/><path d="M52.366,182.193l-1.067,1.489l1.606,1.833l0.749,2.245l0.663,-3.251l-1.951,-2.316Z"/><path d="M59.442,185.794l-2.793,-1.097l-2.486,1.584l-0.336,1.594l0.797,-1.048l4.818,-1.033Z"/><path d="M51.766,183.629l0.66,-0.808l1.438,1.856l-0.21,3.083l-0.479,-2.454l-1.409,-1.677Z" style="fill:url(#_Radial70);stroke:#bbb;stroke-width:0.5px;stroke-linecap:square;"/><path d="M53.894,187.76l0.419,-1.167l2.338,-1.497l1.917,0.629l-4.225,0.883" style="fill:url(#_Radial71);stroke:#bbb;stroke-width:0.5px;stroke-linecap:square;stroke-linejoin:miter;stroke-miterlimit:5;"/></g><g id="column"><path d="M47.759,256.776l64.131,-0l7.944,20.004l-40.009,20.005l-40.009,-20.005l7.943,-20.004Z" style="fill:#c6c6b7;"/><path d="M79.857,272.825l32.033,-16.049l7.944,20.004l-40.009,20.005l0.032,-23.96Z" style="fill:#c6c6b7;"/><path d="M79.825,272.808l-32.066,-16.032l-7.943,20.004l40.009,20.005l-0,-23.977Z" style="fill:#cdcdc2;"/><path d="M79.825,240.743l32.065,16.033l-32.065,16.032l-32.066,-16.032l32.066,-16.033Z" style="fill:#d5d5c9;"/><path d="M56.989,256.776l0,-160.015l45.555,-0l0,160.015c0,6.278 -10.206,11.376 -22.777,11.376c-12.571,-0 -22.778,-5.098 -22.778,-11.376Z" style="fill:url(#_Linear72);"/><clipPath id="_clip73"><path d="M56.989,256.776l0,-160.015l45.555,-0l0,160.015c0,6.278 -10.206,11.376 -22.777,11.376c-12.571,-0 -22.778,-5.098 -22.778,-11.376Z"/></clipPath><g clip-path="url(#_clip73)"><rect x="60.464" y="98.127" width="1.677" height="173.426" style="fill:url(#_Linear74);"/><rect x="66.654" y="102.069" width="2.603" height="173.426" style="fill:url(#_Linear75);"/><rect x="98.124" y="100.279" width="1.677" height="173.426" style="fill:url(#_Linear76);"/><rect x="91.007" y="100.279" width="2.603" height="173.426" style="fill:url(#_Linear77);"/><rect x="78.198" y="103.839" width="3.138" height="173.426" style="fill:url(#_Linear78);"/></g><path d="M39.816,76.735l80.018,0l-7.944,20.005l-32.065,16.033l-32.066,-16.033l-7.943,-20.005Z" style="fill:#c6c6b7;"/><path d="M79.867,96.761l39.967,-20.026l-7.944,20.005l-32.065,16.033l0.042,-16.012Z" style="fill:#c3c3b1;"/><path d="M79.825,96.74l-40.009,-20.005l7.963,20.105l32.046,15.933l-0,-16.033Z" style="fill:#cdcdc2;"/><path d="M79.825,56.731l40.009,20.004l-40.009,20.005l-40.009,-20.005l40.009,-20.004Z" style="fill:#d5d5c9;"/></g><g id="graffiti"><path d="M75.759,277.124l-0.094,-3.434l2.307,2.557l-2.664,-0.907" style="fill:none;stroke:#b2b4a5;stroke-width:0.22px;stroke-linecap:square;stroke-linejoin:miter;stroke-miterlimit:5;"/><path d="M73.402,275.321l0.628,-2.518l1.008,4.276" style="fill:none;stroke:#b2b4a5;stroke-width:0.22px;stroke-linecap:square;stroke-linejoin:miter;stroke-miterlimit:5;"/><path d="M71.528,273.221l0.523,2.091l0.908,-1.664" style="fill:none;stroke:#b2b4a5;stroke-width:0.22px;stroke-linecap:square;stroke-linejoin:miter;stroke-miterlimit:5;"/><path d="M70.567,274.571l-0.806,-4.375l2.898,2.254l-2.898,0.345" style="fill:none;stroke:#b2b4a5;stroke-width:0.22px;stroke-linecap:square;stroke-linejoin:miter;stroke-miterlimit:5;"/></g></g><defs><radialGradient id="_Radial3" cx="0" cy="0" r="1" gradientUnits="userSpaceOnUse" gradientTransform="matrix(-13.918,19.4207,-44.1316,-25.9398,210.257,62.3277)"><stop offset="0" style="stop-color:#196a4d;stop-opacity:1"/><stop offset="0.3" style="stop-color:#18664f;stop-opacity:1"/><stop offset="0.5" style="stop-color:#125557;stop-opacity:1"/><stop offset="0.7" style="stop-color:#18664f;stop-opacity:1"/><stop offset="1" style="stop-color:#196a4d;stop-opacity:1"/></radialGradient><radialGradient id="_Radial4" cx="0" cy="0" r="1" gradientUnits="userSpaceOnUse" gradientTransform="matrix(12.4697,20.3788,45.9005,-22.671,271.069,62.0233)"><stop offset="0" style="stop-color:#196a4d;stop-opacity:1"/><stop offset="0.3" style="stop-color:#18664f;stop-opacity:1"/><stop offset="0.5" style="stop-color:#125557;stop-opacity:1"/><stop offset="0.7" style="stop-color:#18664f;stop-opacity:1"/><stop offset="1" style="stop-color:#196a4d;stop-opacity:1"/></radialGradient><radialGradient id="_Radial5" cx="0" cy="0" r="1" gradientUnits="userSpaceOnUse" gradientTransform="matrix(6.65055e-16,21.1114,-21.3757,0,240.855,66.1055)"><stop offset="0" style="stop-color:#8c671d;stop-opacity:1"/><stop offset="0.56" style="stop-color:#825c19;stop-opacity:1"/><stop offset="1" style="stop-color:#583209;stop-opacity:1"/></radialGradient><radialGradient id="_Radial6" cx="0" cy="0" r="1" gradientUnits="userSpaceOnUse" gradientTransform="matrix(6.20394e-16,10.1204,-19.9403,0,240.855,78.3035)"><stop offset="0" style="stop-color:#8c671d;stop-opacity:1"/><stop offset="0.56" style="stop-color:#825c19;stop-opacity:1"/><stop offset="1" style="stop-color:#583209;stop-opacity:1"/></radialGradient><radialGradient id="_Radial7" cx="0" cy="0" r="1" gradientUnits="userSpaceOnUse" gradientTransform="matrix(6.20394e-16,10.1204,-19.9403,0,240.855,82.1877)"><stop offset="0" style="stop-color:#8c671d;stop-opacity:1"/><stop offset="0.56" style="stop-color:#825c19;stop-opacity:1"/><stop offset="1" style="stop-color:#583209;stop-opacity:1"/></radialGradient><radialGradient id="_Radial8" cx="0" cy="0" r="1" gradientUnits="userSpaceOnUse" gradientTransform="matrix(6.20394e-16,10.1204,-19.9403,0,240.855,86.0719)"><stop offset="0" style="stop-color:#8c671d;stop-opacity:1"/><stop offset="0.56" style="stop-color:#825c19;stop-opacity:1"/><stop offset="1" style="stop-color:#583209;stop-opacity:1"/></radialGradient><radialGradient id="_Radial9" cx="0" cy="0" r="1" gradientUnits="userSpaceOnUse" gradientTransform="matrix(6.20394e-16,10.1204,-19.9403,0,240.855,89.956)"><stop offset="0" style="stop-color:#8c671d;stop-opacity:1"/><stop offset="0.56" style="stop-color:#825c19;stop-opacity:1"/><stop offset="1" style="stop-color:#583209;stop-opacity:1"/></radialGradient><radialGradient id="_Radial10" cx="0" cy="0" r="1" gradientUnits="userSpaceOnUse" gradientTransform="matrix(6.20394e-16,10.1204,-19.9403,0,240.855,93.8402)"><stop offset="0" style="stop-color:#8c671d;stop-opacity:1"/><stop offset="0.56" style="stop-color:#825c19;stop-opacity:1"/><stop offset="1" style="stop-color:#583209;stop-opacity:1"/></radialGradient><radialGradient id="_Radial11" cx="0" cy="0" r="1" gradientUnits="userSpaceOnUse" gradientTransform="matrix(6.20394e-16,10.1204,-19.9403,0,240.855,97.7244)"><stop offset="0" style="stop-color:#8c671d;stop-opacity:1"/><stop offset="0.56" style="stop-color:#825c19;stop-opacity:1"/><stop offset="1" style="stop-color:#583209;stop-opacity:1"/></radialGradient><radialGradient id="_Radial12" cx="0" cy="0" r="1" gradientUnits="userSpaceOnUse" gradientTransform="matrix(6.45888e-16,10.5362,-20.7596,0,240.855,101.365)"><stop offset="0" style="stop-color:#8c671d;stop-opacity:1"/><stop offset="0.56" style="stop-color:#825c19;stop-opacity:1"/><stop offset="1" style="stop-color:#583209;stop-opacity:1"/></radialGradient><radialGradient id="_Radial13" cx="0" cy="0" r="1" gradientUnits="userSpaceOnUse" gradientTransform="matrix(6.45888e-16,10.5362,-20.7596,0,240.855,105.408)"><stop offset="0" style="stop-color:#8c671d;stop-opacity:1"/><stop offset="0.56" style="stop-color:#825c19;stop-opacity:1"/><stop offset="1" style="stop-color:#583209;stop-opacity:1"/></radialGradient><radialGradient id="_Radial14" cx="0" cy="0" r="1" gradientUnits="userSpaceOnUse" gradientTransform="matrix(6.45888e-16,10.5362,-20.7596,0,240.855,109.452)"><stop offset="0" style="stop-color:#8c671d;stop-opacity:1"/><stop offset="0.56" style="stop-color:#825c19;stop-opacity:1"/><stop offset="1" style="stop-color:#583209;stop-opacity:1"/></radialGradient><radialGradient id="_Radial15" cx="0" cy="0" r="1" gradientUnits="userSpaceOnUse" gradientTransform="matrix(6.45888e-16,10.5362,-20.7596,0,240.855,113.496)"><stop offset="0" style="stop-color:#8c671d;stop-opacity:1"/><stop offset="0.56" style="stop-color:#825c19;stop-opacity:1"/><stop offset="1" style="stop-color:#583209;stop-opacity:1"/></radialGradient><radialGradient id="_Radial16" cx="0" cy="0" r="1" gradientUnits="userSpaceOnUse" gradientTransform="matrix(6.65055e-16,10.8489,-21.3757,0,240.855,117.376)"><stop offset="0" style="stop-color:#8c671d;stop-opacity:1"/><stop offset="0.56" style="stop-color:#825c19;stop-opacity:1"/><stop offset="1" style="stop-color:#583209;stop-opacity:1"/></radialGradient><radialGradient id="_Radial17" cx="0" cy="0" r="1" gradientUnits="userSpaceOnUse" gradientTransform="matrix(7.35166e-16,11.9926,-23.6292,0,240.855,120.939)"><stop offset="0" style="stop-color:#8c671d;stop-opacity:1"/><stop offset="0.56" style="stop-color:#825c19;stop-opacity:1"/><stop offset="1" style="stop-color:#583209;stop-opacity:1"/></radialGradient><radialGradient id="_Radial18" cx="0" cy="0" r="1" gradientUnits="userSpaceOnUse" gradientTransform="matrix(7.93665e-16,12.9469,-25.5094,0,240.855,124.602)"><stop offset="0" style="stop-color:#8c671d;stop-opacity:1"/><stop offset="0.56" style="stop-color:#825c19;stop-opacity:1"/><stop offset="1" style="stop-color:#583209;stop-opacity:1"/></radialGradient><radialGradient id="_Radial19" cx="0" cy="0" r="1" gradientUnits="userSpaceOnUse" gradientTransform="matrix(8.6037e-16,13.4011,-27.6534,0,240.855,128.681)"><stop offset="0" style="stop-color:#8c671d;stop-opacity:1"/><stop offset="0.56" style="stop-color:#825c19;stop-opacity:1"/><stop offset="1" style="stop-color:#583209;stop-opacity:1"/></radialGradient><linearGradient id="_Linear21" x1="0" y1="0" x2="1" y2="0.000314905" gradientUnits="userSpaceOnUse" gradientTransform="matrix(-13.5753,-54.363,91.6412,-22.8327,250.959,109.672)"><stop offset="0" style="stop-color:#8c671d;stop-opacity:0.2"/><stop offset="0.55" style="stop-color:#67420f;stop-opacity:0.76"/><stop offset="1" style="stop-color:#583209;stop-opacity:1"/></linearGradient><radialGradient id="_Radial22" cx="0" cy="0" r="1" gradientUnits="userSpaceOnUse" gradientTransform="matrix(16.3636,17.8177,37.9065,-34.7345,268.367,51.0743)"><stop offset="0" style="stop-color:#27a040;stop-opacity:1"/><stop offset="0.3" style="stop-color:#249a41;stop-opacity:1"/><stop offset="0.5" style="stop-color:#157f44;stop-opacity:1"/><stop offset="0.7" style="stop-color:#249a41;stop-opacity:1"/><stop offset="1" style="stop-color:#27a040;stop-opacity:1"/></radialGradient><radialGradient id="_Radial23" cx="0" cy="0" r="1" gradientUnits="userSpaceOnUse" gradientTransform="matrix(-16.3636,17.8177,-37.9065,-34.7345,213.423,53.2831)"><stop offset="0" style="stop-color:#27a040;stop-opacity:1"/><stop offset="0.3" style="stop-color:#249a41;stop-opacity:1"/><stop offset="0.5" style="stop-color:#157f44;stop-opacity:1"/><stop offset="0.7" style="stop-color:#249a41;stop-opacity:1"/><stop offset="1" style="stop-color:#27a040;stop-opacity:1"/></radialGradient><radialGradient id="_Radial24" cx="0" cy="0" r="1" gradientUnits="userSpaceOnUse" gradientTransform="matrix(44.4786,-15.0366,5.53058,16.3227,266.715,72.8106)"><stop offset="0" style="stop-color:#27a040;stop-opacity:1"/><stop offset="0.5" style="stop-color:#196a4d;stop-opacity:1"/><stop offset="1" style="stop-color:#27a040;stop-opacity:1"/></radialGradient><radialGradient id="_Radial25" cx="0" cy="0" r="1" gradientUnits="userSpaceOnUse" gradientTransform="matrix(-44.4786,-15.0366,-5.53058,16.3227,214.106,74.1325)"><stop offset="0" style="stop-color:#27a040;stop-opacity:1"/><stop offset="0.5" style="stop-color:#196a4d;stop-opacity:1"/><stop offset="1" style="stop-color:#27a040;stop-opacity:1"/></radialGradient><linearGradient id="_Linear26" x1="0" y1="0" x2="1" y2="0" gradientUnits="userSpaceOnUse" gradientTransform="matrix(18.2179,0,0,75.4669,190.417,137.301)"><stop offset="0" style="stop-color:#cdcdc2;stop-opacity:1"/><stop offset="1" style="stop-color:#b9b9a7;stop-opacity:1"/></linearGradient><linearGradient id="_Linear28" x1="0" y1="0" x2="1" y2="0" gradientUnits="userSpaceOnUse" gradientTransform="matrix(28.088,0,0,28.1197,187.461,136.21)"><stop offset="0" style="stop-color:#c6c6b7;stop-opacity:1"/><stop offset="1" style="stop-color:#979a87;stop-opacity:1"/></linearGradient><linearGradient id="_Linear29" x1="0" y1="0" x2="1" y2="0" gradientUnits="userSpaceOnUse" gradientTransform="matrix(28.088,0,0,28.1197,187.461,136.21)"><stop offset="0" style="stop-color:#c6c6b7;stop-opacity:1"/><stop offset="1" style="stop-color:#979a87;stop-opacity:1"/></linearGradient><linearGradient id="_Linear30" x1="0" y1="0" x2="1" y2="0" gradientUnits="userSpaceOnUse" gradientTransform="matrix(28.088,2.76101e-30,3.9443e-31,28.1197,187.461,136.21)"><stop offset="0" style="stop-color:#c6c6b7;stop-opacity:1"/><stop offset="1" style="stop-color:#979a87;stop-opacity:1"/></linearGradient><linearGradient id="_Linear31" x1="0" y1="0" x2="1" y2="0" gradientUnits="userSpaceOnUse" gradientTransform="matrix(28.088,2.36658e-30,0,28.1197,187.461,136.21)"><stop offset="0" style="stop-color:#c6c6b7;stop-opacity:1"/><stop offset="1" style="stop-color:#979a87;stop-opacity:1"/></linearGradient><linearGradient id="_Linear32" x1="0" y1="0" x2="1" y2="0" gradientUnits="userSpaceOnUse" gradientTransform="matrix(28.088,2.36658e-30,0,28.1197,187.461,136.21)"><stop offset="0" style="stop-color:#c6c6b7;stop-opacity:1"/><stop offset="1" style="stop-color:#979a87;stop-opacity:1"/></linearGradient><linearGradient id="_Linear33" x1="0" y1="0" x2="1" y2="0" gradientUnits="userSpaceOnUse" gradientTransform="matrix(18.2179,0,0,75.4669,150.414,157.303)"><stop offset="0" style="stop-color:#cdcdc2;stop-opacity:1"/><stop offset="1" style="stop-color:#b9b9a7;stop-opacity:1"/></linearGradient><linearGradient id="_Linear35" x1="0" y1="0" x2="1" y2="0" gradientUnits="userSpaceOnUse" gradientTransform="matrix(28.088,0,0,28.1197,147.458,156.211)"><stop offset="0" style="stop-color:#c6c6b7;stop-opacity:1"/><stop offset="1" style="stop-color:#979a87;stop-opacity:1"/></linearGradient><linearGradient id="_Linear36" x1="0" y1="0" x2="1" y2="0" gradientUnits="userSpaceOnUse" gradientTransform="matrix(28.088,0,0,28.1197,147.458,156.211)"><stop offset="0" style="stop-color:#c6c6b7;stop-opacity:1"/><stop offset="1" style="stop-color:#979a87;stop-opacity:1"/></linearGradient><linearGradient id="_Linear37" x1="0" y1="0" x2="1" y2="0" gradientUnits="userSpaceOnUse" gradientTransform="matrix(28.088,2.76101e-30,3.9443e-31,28.1197,147.458,156.211)"><stop offset="0" style="stop-color:#c6c6b7;stop-opacity:1"/><stop offset="1" style="stop-color:#979a87;stop-opacity:1"/></linearGradient><linearGradient id="_Linear38" x1="0" y1="0" x2="1" y2="0" gradientUnits="userSpaceOnUse" gradientTransform="matrix(28.088,2.36658e-30,0,28.1197,147.458,156.211)"><stop offset="0" style="stop-color:#c6c6b7;stop-opacity:1"/><stop offset="1" style="stop-color:#979a87;stop-opacity:1"/></linearGradient><linearGradient id="_Linear39" x1="0" y1="0" x2="1" y2="0" gradientUnits="userSpaceOnUse" gradientTransform="matrix(28.088,2.36658e-30,0,28.1197,147.458,156.211)"><stop offset="0" style="stop-color:#c6c6b7;stop-opacity:1"/><stop offset="1" style="stop-color:#979a87;stop-opacity:1"/></linearGradient><linearGradient id="_Linear40" x1="0" y1="0" x2="1" y2="0" gradientUnits="userSpaceOnUse" gradientTransform="matrix(18.2179,0,0,75.4669,110.41,177.304)"><stop offset="0" style="stop-color:#cdcdc2;stop-opacity:1"/><stop offset="1" style="stop-color:#b9b9a7;stop-opacity:1"/></linearGradient><linearGradient id="_Linear42" x1="0" y1="0" x2="1" y2="0" gradientUnits="userSpaceOnUse" gradientTransform="matrix(28.088,0,0,28.1197,107.454,176.213)"><stop offset="0" style="stop-color:#c6c6b7;stop-opacity:1"/><stop offset="1" style="stop-color:#979a87;stop-opacity:1"/></linearGradient><linearGradient id="_Linear43" x1="0" y1="0" x2="1" y2="0" gradientUnits="userSpaceOnUse" gradientTransform="matrix(28.088,0,0,28.1197,107.454,176.213)"><stop offset="0" style="stop-color:#c6c6b7;stop-opacity:1"/><stop offset="1" style="stop-color:#979a87;stop-opacity:1"/></linearGradient><linearGradient id="_Linear44" x1="0" y1="0" x2="1" y2="0" gradientUnits="userSpaceOnUse" gradientTransform="matrix(28.088,2.76101e-30,3.9443e-31,28.1197,107.454,176.213)"><stop offset="0" style="stop-color:#c6c6b7;stop-opacity:1"/><stop offset="1" style="stop-color:#979a87;stop-opacity:1"/></linearGradient><linearGradient id="_Linear45" x1="0" y1="0" x2="1" y2="0" gradientUnits="userSpaceOnUse" gradientTransform="matrix(28.088,2.36658e-30,0,28.1197,107.454,176.213)"><stop offset="0" style="stop-color:#c6c6b7;stop-opacity:1"/><stop offset="1" style="stop-color:#979a87;stop-opacity:1"/></linearGradient><linearGradient id="_Linear46" x1="0" y1="0" x2="1" y2="0" gradientUnits="userSpaceOnUse" gradientTransform="matrix(28.088,2.36658e-30,0,28.1197,107.454,176.213)"><stop offset="0" style="stop-color:#c6c6b7;stop-opacity:1"/><stop offset="1" style="stop-color:#979a87;stop-opacity:1"/></linearGradient><linearGradient id="_Linear47" x1="0" y1="0" x2="1" y2="0" gradientUnits="userSpaceOnUse" gradientTransform="matrix(18.2179,0,0,75.4669,70.407,197.306)"><stop offset="0" style="stop-color:#cdcdc2;stop-opacity:1"/><stop offset="1" style="stop-color:#b9b9a7;stop-opacity:1"/></linearGradient><linearGradient id="_Linear49" x1="0" y1="0" x2="1" y2="0" gradientUnits="userSpaceOnUse" gradientTransform="matrix(28.088,0,0,28.1197,67.451,196.215)"><stop offset="0" style="stop-color:#c6c6b7;stop-opacity:1"/><stop offset="1" style="stop-color:#979a87;stop-opacity:1"/></linearGradient><linearGradient id="_Linear50" x1="0" y1="0" x2="1" y2="0" gradientUnits="userSpaceOnUse" gradientTransform="matrix(28.088,0,0,28.1197,67.451,196.215)"><stop offset="0" style="stop-color:#c6c6b7;stop-opacity:1"/><stop offset="1" style="stop-color:#979a87;stop-opacity:1"/></linearGradient><linearGradient id="_Linear51" x1="0" y1="0" x2="1" y2="0" gradientUnits="userSpaceOnUse" gradientTransform="matrix(28.088,2.76101e-30,3.9443e-31,28.1197,67.451,196.215)"><stop offset="0" style="stop-color:#c6c6b7;stop-opacity:1"/><stop offset="1" style="stop-color:#979a87;stop-opacity:1"/></linearGradient><linearGradient id="_Linear52" x1="0" y1="0" x2="1" y2="0" gradientUnits="userSpaceOnUse" gradientTransform="matrix(28.088,2.36658e-30,0,28.1197,67.451,196.215)"><stop offset="0" style="stop-color:#c6c6b7;stop-opacity:1"/><stop offset="1" style="stop-color:#979a87;stop-opacity:1"/></linearGradient><linearGradient id="_Linear53" x1="0" y1="0" x2="1" y2="0" gradientUnits="userSpaceOnUse" gradientTransform="matrix(28.088,2.36658e-30,0,28.1197,67.451,196.215)"><stop offset="0" style="stop-color:#c6c6b7;stop-opacity:1"/><stop offset="1" style="stop-color:#979a87;stop-opacity:1"/></linearGradient><linearGradient id="_Linear54" x1="0" y1="0" x2="1" y2="0" gradientUnits="userSpaceOnUse" gradientTransform="matrix(18.2179,0,0,75.4669,30.4037,217.308)"><stop offset="0" style="stop-color:#cdcdc2;stop-opacity:1"/><stop offset="1" style="stop-color:#b9b9a7;stop-opacity:1"/></linearGradient><linearGradient id="_Linear56" x1="0" y1="0" x2="1" y2="0" gradientUnits="userSpaceOnUse" gradientTransform="matrix(28.088,0,0,28.1197,27.4478,216.216)"><stop offset="0" style="stop-color:#c6c6b7;stop-opacity:1"/><stop offset="1" style="stop-color:#979a87;stop-opacity:1"/></linearGradient><linearGradient id="_Linear57" x1="0" y1="0" x2="1" y2="0" gradientUnits="userSpaceOnUse" gradientTransform="matrix(28.088,0,0,28.1197,27.4478,216.216)"><stop offset="0" style="stop-color:#c6c6b7;stop-opacity:1"/><stop offset="1" style="stop-color:#979a87;stop-opacity:1"/></linearGradient><linearGradient id="_Linear58" x1="0" y1="0" x2="1" y2="0" gradientUnits="userSpaceOnUse" gradientTransform="matrix(28.088,2.76101e-30,3.9443e-31,28.1197,27.4478,216.216)"><stop offset="0" style="stop-color:#c6c6b7;stop-opacity:1"/><stop offset="1" style="stop-color:#979a87;stop-opacity:1"/></linearGradient><linearGradient id="_Linear59" x1="0" y1="0" x2="1" y2="0" gradientUnits="userSpaceOnUse" gradientTransform="matrix(28.088,2.36658e-30,0,28.1197,27.4478,216.216)"><stop offset="0" style="stop-color:#c6c6b7;stop-opacity:1"/><stop offset="1" style="stop-color:#979a87;stop-opacity:1"/></linearGradient><linearGradient id="_Linear60" x1="0" y1="0" x2="1" y2="0" gradientUnits="userSpaceOnUse" gradientTransform="matrix(28.088,2.36658e-30,0,28.1197,27.4478,216.216)"><stop offset="0" style="stop-color:#c6c6b7;stop-opacity:1"/><stop offset="1" style="stop-color:#979a87;stop-opacity:1"/></linearGradient><linearGradient id="_Linear61" x1="0" y1="0" x2="1" y2="0" gradientUnits="userSpaceOnUse" gradientTransform="matrix(1.49578,-2.76481,2.76481,1.49578,215.535,116.288)"><stop offset="0" style="stop-color:#d5d5c9;stop-opacity:1"/><stop offset="1" style="stop-color:#c3c3b1;stop-opacity:1"/></linearGradient><linearGradient id="_Linear62" x1="0" y1="0" x2="1" y2="0" gradientUnits="userSpaceOnUse" gradientTransform="matrix(1.49578,-2.76481,2.76481,1.49578,215.535,116.288)"><stop offset="0" style="stop-color:#d5d5c9;stop-opacity:1"/><stop offset="1" style="stop-color:#c3c3b1;stop-opacity:1"/></linearGradient><linearGradient id="_Linear63" x1="0" y1="0" x2="1" y2="0" gradientUnits="userSpaceOnUse" gradientTransform="matrix(1.49578,-2.76481,2.76481,1.49578,213.294,121.313)"><stop offset="0" style="stop-color:#d5d5c9;stop-opacity:1"/><stop offset="1" style="stop-color:#c3c3b1;stop-opacity:1"/></linearGradient><linearGradient id="_Linear64" x1="0" y1="0" x2="1" y2="0" gradientUnits="userSpaceOnUse" gradientTransform="matrix(6.02,-16.3128,16.3128,6.02,8.07292,231.859)"><stop offset="0" style="stop-color:#c3c3b1;stop-opacity:1"/><stop offset="1" style="stop-color:#d5d5c9;stop-opacity:1"/></linearGradient><linearGradient id="_Linear66" x1="0" y1="0" x2="1" y2="0" gradientUnits="userSpaceOnUse" gradientTransform="matrix(6.02,-16.3128,16.3128,6.02,8.07292,231.859)"><stop offset="0" style="stop-color:#c3c3b1;stop-opacity:1"/><stop offset="1" style="stop-color:#d5d5c9;stop-opacity:1"/></linearGradient><radialGradient id="_Radial68" cx="0" cy="0" r="1" gradientUnits="userSpaceOnUse" gradientTransform="matrix(8.91002,0,0,2.46358,53.5642,198.601)"><stop offset="0" style="stop-color:#443d3f;stop-opacity:1"/><stop offset="0.5" style="stop-color:#433d3e;stop-opacity:1"/><stop offset="0.63" style="stop-color:#433d3e;stop-opacity:1"/><stop offset="1" style="stop-color:#443d3f;stop-opacity:0"/></radialGradient><radialGradient id="_Radial69" cx="0" cy="0" r="1" gradientUnits="userSpaceOnUse" gradientTransform="matrix(-14.2657,1.59399,-2.46387,-22.0011,54.0436,188.089)"><stop offset="0" style="stop-color:#f77c99;stop-opacity:1"/><stop offset="0.64" style="stop-color:#df748d;stop-opacity:1"/><stop offset="0.83" style="stop-color:#a25e6e;stop-opacity:1"/><stop offset="1" style="stop-color:#5c444a;stop-opacity:1"/></radialGradient><radialGradient id="_Radial70" cx="0" cy="0" r="1" gradientUnits="userSpaceOnUse" gradientTransform="matrix(-8.09606,-7.69136,7.70006,-8.08692,59.9018,180.981)"><stop offset="0" style="stop-color:#f77c99;stop-opacity:1"/><stop offset="0.64" style="stop-color:#df748d;stop-opacity:1"/><stop offset="0.83" style="stop-color:#a25e6e;stop-opacity:1"/><stop offset="1" style="stop-color:#5c444a;stop-opacity:1"/></radialGradient><radialGradient id="_Radial71" cx="0" cy="0" r="1" gradientUnits="userSpaceOnUse" gradientTransform="matrix(-8.09606,-7.69136,7.70006,-8.08692,59.9018,180.981)"><stop offset="0" style="stop-color:#f77c99;stop-opacity:1"/><stop offset="0.64" style="stop-color:#df748d;stop-opacity:1"/><stop offset="0.83" style="stop-color:#a25e6e;stop-opacity:1"/><stop offset="1" style="stop-color:#5c444a;stop-opacity:1"/></radialGradient><linearGradient id="_Linear72" x1="0" y1="0" x2="1" y2="0" gradientUnits="userSpaceOnUse" gradientTransform="matrix(45.5548,0,0,188.284,56.9895,179.563)"><stop offset="0" style="stop-color:#cdcdc2;stop-opacity:1"/><stop offset="1" style="stop-color:#b9b9a7;stop-opacity:1"/></linearGradient><linearGradient id="_Linear74" x1="0" y1="0" x2="1" y2="0" gradientUnits="userSpaceOnUse" gradientTransform="matrix(70.2357,0,0,70.1564,49.5979,176.839)"><stop offset="0" style="stop-color:#c6c6b7;stop-opacity:1"/><stop offset="1" style="stop-color:#979a87;stop-opacity:1"/></linearGradient><linearGradient id="_Linear75" x1="0" y1="0" x2="1" y2="0" gradientUnits="userSpaceOnUse" gradientTransform="matrix(70.2357,0,0,70.1564,49.5979,176.839)"><stop offset="0" style="stop-color:#c6c6b7;stop-opacity:1"/><stop offset="1" style="stop-color:#979a87;stop-opacity:1"/></linearGradient><linearGradient id="_Linear76" x1="0" y1="0" x2="1" y2="0" gradientUnits="userSpaceOnUse" gradientTransform="matrix(70.2357,6.31089e-30,0,70.1564,49.5979,176.839)"><stop offset="0" style="stop-color:#c6c6b7;stop-opacity:1"/><stop offset="1" style="stop-color:#979a87;stop-opacity:1"/></linearGradient><linearGradient id="_Linear77" x1="0" y1="0" x2="1" y2="0" gradientUnits="userSpaceOnUse" gradientTransform="matrix(70.2357,7.88861e-30,-1.57772e-30,70.1564,49.5979,176.839)"><stop offset="0" style="stop-color:#c6c6b7;stop-opacity:1"/><stop offset="1" style="stop-color:#979a87;stop-opacity:1"/></linearGradient><linearGradient id="_Linear78" x1="0" y1="0" x2="1" y2="0" gradientUnits="userSpaceOnUse" gradientTransform="matrix(70.2357,6.31089e-30,-1.57772e-30,70.1564,49.5979,176.839)"><stop offset="0" style="stop-color:#c6c6b7;stop-opacity:1"/><stop offset="1" style="stop-color:#979a87;stop-opacity:1"/></linearGradient></defs></svg>