<?xml version="1.0" encoding="UTF-8" standalone="no"?><!DOCTYPE svg PUBLIC "-//W3C//DTD SVG 1.1//EN" "http://www.w3.org/Graphics/SVG/1.1/DTD/svg11.dtd"><svg width="1250px" height="800px" viewBox="0 0 1250 800" version="1.1" xmlns="http://www.w3.org/2000/svg" xmlns:xlink="http://www.w3.org/1999/xlink" xml:space="preserve" xmlns:serif="http://www.serif.com/" style="fill-rule:evenodd;clip-rule:evenodd;stroke-linecap:round;stroke-linejoin:round;stroke-miterlimit:1.5;"><g><path d="M79.498,240.995L559.812,0.838L1206.48,-0.5L1206.48,800L79.498,800L79.498,240.995Z" style="fill:#ababab;"/><path d="M79.498,240.995L559.812,0.838L1206.48,-0.5L1206.48,800L79.498,800L79.498,240.995Z" style="fill:none;stroke:#000;stroke-width:1px;"/></g><g id="board"><path d="M643.455,684.021L549.222,614.107L545.995,611.719L683.704,663.612L643.455,684.021Z" style="fill:#fff;"/><path d="M805.203,603.898L707.778,531.863L845.452,583.773L805.203,603.898Z" style="fill:#fff;"/><path d="M965.449,522.74L866.743,451.345L1005.7,502.615L965.449,522.74Z" style="fill:#fff;"/><path d="M603.206,381.868L701.382,453.669L562.957,401.992L603.206,381.868Z" style="fill:#fff;"/><path d="M442.209,462.366L540.385,534.026L401.676,482.633L442.209,462.366Z" style="fill:#fff;"/><path d="M281.212,542.865L380.229,615.139L241.714,563.649L281.212,542.865Z" style="fill:#fff;"/><g><path d="M723.953,644.522L626.528,572.487L764.203,624.398L723.953,644.522Z"/><path d="M884.95,564.024L787.525,491.989L925.2,543.899L884.95,564.024Z"/><path d="M562.957,725.021L522.707,745.146L199.963,583.489L240.963,564.024L379.478,614.479L281.212,543.899L321.461,522.74L461.299,573.569L361.71,503.65L401.96,482.491L539.634,535.436L442.209,463.401L482.458,443.276L619.926,494.255L521.957,422.492L562.957,403.027L700.631,453.903L603.206,382.903L643.455,362.778L781.129,413.654L682.953,341.994L723.953,321.494L1045.95,482.491L1005.7,503.65L867.183,452.16L965.449,523.775L925.2,543.899L787.525,491.989L884.95,564.024L844.701,584.149L707.027,532.238L804.452,604.273L764.203,624.398L626.528,572.487L723.953,644.522L683.704,664.647L546.03,612.737L643.455,684.772L603.206,704.896L465.532,652.986L562.957,725.021Z" style="fill:#2c8c30;"/><path d="M682.953,341.994L781.129,413.796L642.704,362.118L682.953,341.994Z"/><path d="M521.957,422.492L620.132,494.152L481.707,442.617L521.957,422.492Z"/><path d="M360.96,502.991L461.441,573.64L321.461,522.74L360.96,502.991Z"/><g id="Layer1"><path d="M240.963,564.024L379.478,614.479L281.212,543.899L240.963,564.024Z" style="fill:none;stroke:#000;stroke-width:1px;"/><path d="M321.461,522.74L461.441,573.498L360.96,502.991L321.461,522.74Z" style="fill:none;stroke:#000;stroke-width:1px;"/><path d="M401.209,482.866L539.634,534.401L442.209,463.401L401.209,482.866Z" style="fill:none;stroke:#000;stroke-width:1px;"/><path d="M482.458,443.276L620.132,494.294L522.707,423.152L482.458,443.276Z" style="fill:none;stroke:#000;stroke-width:1px;"/><path d="M562.206,402.368L700.631,454.045L602.455,382.243L562.206,402.368Z" style="fill:none;stroke:#000;stroke-width:1px;"/><path d="M643.455,362.778L781.129,413.654L682.953,341.994L643.455,362.778Z" style="fill:none;stroke:#000;stroke-width:1px;"/><path d="M1004.95,502.991L865.992,451.721L964.698,523.115L1004.95,502.991Z" style="fill:none;stroke:#000;stroke-width:1px;"/><path d="M925.2,543.899L787.525,491.989L884.95,564.024L925.2,543.899Z" style="fill:none;stroke:#000;stroke-width:1px;"/><path d="M844.701,584.149L707.027,532.238L804.452,604.273L844.701,584.149Z" style="fill:none;stroke:#000;stroke-width:1px;"/><path d="M764.203,624.398L626.528,572.487L723.953,644.522L764.203,624.398Z" style="fill:none;stroke:#000;stroke-width:1px;"/><path d="M683.704,664.647L545.244,612.095L643.455,684.772L683.704,664.647Z" style="fill:none;stroke:#000;stroke-width:1px;"/><path d="M602.455,704.237L562.206,724.361L464.263,652.585L602.455,704.237Z"/><path d="M602.455,704.237L464.263,652.585L562.206,724.361L602.455,704.237Z" style="fill:none;stroke:#000;stroke-width:1px;"/><path d="M723.953,321.494L1045.95,482.491L522.707,745.146L200.714,584.149L723.953,321.494Z" style="fill:none;stroke:#000;stroke-width:1px;"/></g></g></g><g><g><path d="M200.714,583.114L160.464,562.989L160.464,522.74L200.714,542.865L200.714,583.114Z" style="fill:#893e00;"/><path d="M723.953,281.245L723.953,321.494L200.714,583.114L200.714,542.865L723.953,281.245Z" style="fill:#a96c39;"/><path d="M723.953,281.245L200.714,542.865L160.464,522.74L683.704,261.12L723.953,281.245Z" style="fill:#ffb06f;"/><g id="Layer2"><path d="M200.714,583.114L200.714,542.865L723.953,281.245L723.953,321.494L200.714,583.114Z" style="fill:none;stroke:#000;stroke-width:1px;"/><path d="M160.464,562.989L160.464,522.74M683.704,261.12L160.464,522.74L200.714,542.865L200.714,583.114" style="fill:none;stroke:#000;stroke-width:1px;"/></g></g><path d="M724.704,241.371L723.953,281.245L683.704,261.12L724.704,241.371Z" style="fill:#ffb06f;"/><path d="M683.704,261.12L723.953,240.995L723.953,281.245" style="fill:none;stroke:#000;stroke-width:1px;"/></g><g id="the-bar" serif:id="the bar"><g id="the-bar1" serif:id="the bar"><path d="M1045.95,483.241L1045.95,281.245L1166.69,220.871L1166.69,422.117L1045.95,483.241Z" style="fill:#a23ddc;"/><path d="M1166.69,220.871L1045.95,281.245L723.953,120.248L844.701,59.874L1166.69,220.871Z" style="fill:#ff1cef;"/><g id="Layer3"><path d="M1045.95,482.491L723.953,321.494L723.953,120.248L1046.7,281.904L1045.95,482.491Z" style="fill:#9b00f4;"/><clipPath id="_clip1"><path d="M1045.95,482.491L723.953,321.494L723.953,120.248L1046.7,281.904L1045.95,482.491Z"/></clipPath><g clip-path="url(#_clip1)"><path d="M884.95,401.992L844.701,381.868L844.701,301.369L884.95,321.494L884.95,401.992Z"/></g><path d="M1045.95,482.491L1045.95,281.245L723.953,120.248L723.953,321.494L1045.95,482.491Z" style="fill:none;stroke:#000;stroke-width:1px;"/><path d="M844.701,381.868L844.701,301.369L884.95,321.494L884.95,401.992" style="fill:none;stroke:#000;stroke-width:1px;"/><path d="M844.701,381.868L884.95,361.743L884.95,401.992L844.701,381.868Z" style="fill:#595959;stroke:#000;stroke-width:1px;"/><path d="M1166.69,422.117L1166.69,220.871L1045.95,281.245L1045.95,482.491" style="fill:none;stroke:#000;stroke-width:1px;"/><path d="M1166.69,220.871L844.701,59.874L723.953,120.248L1045.95,281.245" style="fill:none;stroke:#000;stroke-width:1px;"/><g transform="matrix(0.936931,0.349514,-0.349514,0.936931,-15.9773,-137.25)"><g transform="matrix(47.0295,0,0,47.0295,1082.97,86.1756)"></g><text x="905.211px" y="86.176px" style="font-family:'ComicSansMS', 'Comic Sans MS', cursive;font-size:47.03px;">the bar</text></g></g></g><path d="M1166.69,422.117L1166.69,462.366L1045.95,522.74L1045.95,482.491" style="fill:#a23ddc;stroke:#000;stroke-width:1px;"/></g><path d="M522.707,180.622L643.455,240.996L441.925,341.761L321.461,281.245L522.707,180.622Z" style="fill:#58c05d;"/><path d="M522.992,180.48L643.739,240.853L442.209,341.619L321.746,281.103L522.992,180.48Z" style="fill:none;stroke:#000;stroke-width:1px;"/><path d="M482.803,236.32C488.926,236.294 495.048,237.344 500.614,239.818C502.848,240.811 505.951,242.172 508.32,244.038C511.096,246.226 513.018,249.041 513.677,252.333C515.257,260.236 510.662,266.648 505.215,271.381C504.905,273.29 504.413,275.162 503.728,276.921C501.339,283.057 496.84,287.681 490.838,289.182C489.297,289.567 487.399,289.575 485.415,289.354C485.37,289.377 485.324,289.4 485.278,289.423C481.083,291.52 473.204,290.932 468.839,290.138C463.586,289.183 455.144,286.212 451.636,281.62C450.329,279.91 449.446,277.822 449.008,275.507C448.709,274.994 448.449,274.469 448.232,273.941C448.215,273.898 448.197,273.854 448.18,273.811C447.388,273.383 446.574,272.874 445.722,272.266C442.013,269.617 440.086,267.112 438.912,264.575C437.429,261.373 437.292,257.874 437.292,252.632C437.292,250.72 437.656,247.633 438.594,245.261C439.331,243.398 440.41,241.862 441.628,240.764C453.351,230.193 469.398,230.049 482.803,236.32Z" style="fill:#d9ffca;"/><path d="M488.898,208.983C487.987,208.983 487.248,208.243 487.248,207.333C487.248,206.422 487.987,205.683 488.898,205.683C490.209,205.683 491.764,206.515 493.262,207.818C494.96,209.295 496.67,211.353 497.972,212.395C502.251,215.818 506.87,218.383 512.183,218.383C513.093,218.383 513.833,219.123 513.833,220.033C513.833,220.944 513.093,221.683 512.183,221.683C506.119,221.683 500.795,218.879 495.911,214.971C494.582,213.908 492.829,211.815 491.096,210.308C490.617,209.891 490.144,209.524 489.681,209.265C489.404,209.111 489.149,208.983 488.898,208.983Z"/><path d="M502.49,201.891C502.489,201.87 502.489,201.85 502.489,201.829C502.489,200.918 503.228,200.179 504.139,200.179C505.296,200.179 507.321,199.872 509.12,199.811C510.657,199.759 512.056,199.921 512.92,200.353C516.158,201.972 519.368,204.443 521.047,207.226C522.004,208.814 522.485,210.507 522.33,212.224C522.176,213.93 521.401,215.689 519.7,217.39C519.339,217.75 518.464,218.116 517.307,218.078C515.76,218.026 513.527,217.47 513.138,217.276C511.354,216.383 508.599,215.429 506.321,214.098C504.525,213.049 503.023,211.754 502.24,210.187C501.725,209.158 500.845,206.259 501.127,204.319C501.283,203.243 501.748,202.403 502.49,201.891ZM505.334,203.417C505.238,203.906 504.921,204.342 504.453,204.575C504.425,204.71 504.363,205.045 504.366,205.271C504.382,206.547 504.887,208.102 505.191,208.711C505.714,209.758 506.786,210.548 507.985,211.249C510.173,212.527 512.817,213.436 514.552,214.293C514.691,214.328 515.816,214.609 516.619,214.71C516.95,214.752 517.396,214.766 517.64,214.77C518.503,213.824 518.958,212.877 519.044,211.928C519.137,210.894 518.797,209.887 518.221,208.931C516.832,206.628 514.124,204.644 511.445,203.305C510.944,203.054 510.121,203.079 509.231,203.109C507.914,203.154 506.478,203.324 505.334,203.417Z"/><path d="M521.12,191.408C521.422,191.075 521.858,190.865 522.343,190.865C527.801,190.865 532.049,191.844 534.941,194.735C536.775,196.569 537.169,199.259 536.589,201.723C536.017,204.153 534.489,206.28 532.818,207.115C530.012,208.518 527.34,208.057 525.033,206.619C521.966,204.707 519.6,200.933 518.661,198.117C518.073,196.352 518.514,193.915 519.491,192.61C519.948,191.999 520.51,191.595 521.12,191.408ZM523.018,194.17C522.783,194.38 522.487,194.523 522.16,194.571C522.089,194.683 521.935,194.933 521.872,195.118C521.663,195.725 521.594,196.48 521.792,197.074C522.415,198.945 523.813,201.36 525.678,202.995C527.267,204.387 529.23,205.22 531.343,204.163C532.304,203.682 533.047,202.366 533.376,200.967C533.697,199.604 533.622,198.084 532.607,197.069C530.387,194.849 527.119,194.228 523.018,194.17Z"/><g id="beer" opacity="0.82"><path d="M219.232,350.728C219.232,350.728 63.26,289.861 219.232,229.98L219.232,244.018C219.232,244.018 111.65,290.503 219.232,336.606L219.232,350.728Z" style="fill:#fff;"/><path d="M380.229,170.981C284.663,213.275 219.232,171.362 219.232,171.362C290.731,137.451 380.229,170.981 380.229,170.981Z" style="fill:#fff;"/><path d="M219.232,189.731L219.232,171.362C219.232,171.362 284.663,213.275 380.229,170.981L380.229,189.731C380.229,189.731 298.089,241.677 219.232,189.731Z" style="fill:#fff;"/><g id="beer1" serif:id="beer"><path d="M380.229,390.977C380.229,390.977 302.852,448.3 219.232,390.977L219.232,189.731C298.089,241.677 380.229,189.731 380.229,189.731L380.229,390.977Z" style="fill:#c9a10c;"/><g><path d="M380.229,390.977L380.229,189.731C380.229,189.731 298.089,241.677 219.232,189.731" style="fill:none;stroke:#000;stroke-width:1px;"/><path d="M219.232,390.977L219.232,189.731" style="fill:none;stroke:#000;stroke-width:1px;"/><path d="M380.229,390.977C380.229,390.977 302.852,448.3 219.232,390.977" style="fill:none;stroke:#000;stroke-width:1px;"/></g><path d="M219.232,189.731L219.232,171.362C219.232,171.362 284.663,213.275 380.229,170.981" style="fill:none;stroke:#000;stroke-width:1px;"/><path d="M380.229,189.731L380.229,170.981" style="fill:none;stroke:#000;stroke-width:1px;"/><path d="M380.229,170.981C380.229,170.981 290.731,137.451 219.232,171.362" style="fill:none;stroke:#000;stroke-width:1px;"/><path d="M219.232,390.977C219.232,390.977 274.757,339.684 380.229,390.977" style="fill:none;stroke:#000;stroke-width:1px;"/><path d="M219.232,350.728C219.232,350.728 63.26,289.861 219.232,229.98" style="fill:none;stroke:#000;stroke-width:1px;"/><path d="M219.232,244.018C219.232,244.018 111.65,290.503 219.232,336.606" style="fill:none;stroke:#000;stroke-width:1px;"/></g></g><g><path d="M160.464,562.151L161.215,602.863L522.707,784.36L1045.95,522.74L1045.95,482.491L522.707,744.111" style="fill:#893e00;"/><clipPath id="_clip2"><path d="M160.464,562.151L161.215,602.863L522.707,784.36L1045.95,522.74L1045.95,482.491L522.707,744.111"/></clipPath><g clip-path="url(#_clip2)"><path d="M522.707,784.36L522.707,744.111L1045.95,482.491L1045.95,522.74L522.707,784.36Z" style="fill:#a96c39;"/></g><path d="M160.464,562.151L161.215,602.863L522.707,784.36L1045.95,522.74L1045.95,482.491L522.707,744.111" style="fill:none;stroke:#000;stroke-width:1px;"/><path d="M200.714,583.114L522.707,744.111" style="fill:none;stroke:#000;stroke-width:1px;"/><path d="M522.707,784.36L522.707,744.111" style="fill:none;stroke:#000;stroke-width:1px;"/></g></svg>
