<?xml version="1.0" encoding="UTF-8" standalone="no"?>
<svg xmlns:xlink="http://www.w3.org/1999/xlink" height="60.95px" width="36.55px" xmlns="http://www.w3.org/2000/svg">
  <g transform="matrix(1.0, 0.0, 0.0, 1.0, 17.3, 70.45)">
    <use height="60.95" transform="matrix(1.0, 0.0, 0.0, 1.0, -17.3, -70.45)" width="34.95" xlink:href="#shape0"/>
    <use height="2.5" transform="matrix(0.9986, 0.0, 0.0, 1.0, 9.9542, -56.5)" width="6.0" xlink:href="#sprite0"/>
    <use height="27.35" transform="matrix(1.0, 0.0, 0.0, 1.0, -16.15, -41.5)" width="35.4" xlink:href="#shape2"/>
  </g>
  <defs>
    <g id="shape0" transform="matrix(1.0, 0.0, 0.0, 1.0, 17.3, 70.45)">
      <path d="M11.7 -66.1 L11.75 -65.8 11.7 -65.85 11.7 -66.1 M-12.9 -60.15 L-13.05 -60.35 -13.1 -60.4 -13.1 -60.5 -12.9 -61.55 -12.75 -60.35 -12.9 -60.15 M-12.95 -63.9 L-13.25 -64.95 -12.8 -67.35 Q-12.65 -68.35 -12.05 -69.05 L-11.7 -68.8 Q-12.25 -68.5 -12.4 -67.8 L-12.65 -66.7 -12.75 -65.65 -12.95 -63.9 M-7.5 -66.6 L-6.35 -65.85 -6.05 -65.2 -7.5 -66.6" fill="#e7e0dc" fill-rule="evenodd" stroke="none"/>
      <path d="M16.85 -56.05 L17.0 -56.0 Q16.9 -54.7 17.5 -53.05 15.95 -50.9 15.55 -48.2 13.55 -46.15 14.45 -43.3 L14.35 -41.8 Q14.05 -34.15 15.6 -27.0 L15.45 -25.3 15.4 -22.9 15.2 -22.6 15.05 -20.65 15.0 -20.35 14.45 -19.95 Q13.8 -19.4 13.0 -19.2 12.2 -18.85 11.35 -19.4 L10.25 -20.4 Q9.7 -21.1 9.4 -21.95 9.05 -22.75 9.0 -23.6 L8.9 -25.5 8.9 -27.45 8.9 -29.4 8.9 -31.35 Q8.9 -31.9 8.55 -31.55 9.0 -32.85 8.5 -33.95 8.0 -35.1 9.0 -35.45 9.95 -35.8 10.2 -36.6 10.45 -37.45 10.15 -38.45 L9.55 -40.35 8.75 -41.95 7.7 -43.1 6.35 -44.15 4.8 -44.85 Q3.95 -45.2 1.7 -43.2 -0.6 -41.2 -2.7 -38.55 -3.75 -37.25 -5.0 -36.95 L-6.2 -36.9 -7.45 -37.25 -7.6 -37.35 -7.9 -37.5 -8.75 -38.2 Q-9.65 -39.6 -4.25 -41.45 2.5 -43.8 -1.4 -44.55 L-6.3 -45.3 -8.15 -45.25 -9.95 -45.1 -11.6 -44.65 -13.35 -43.95 Q-13.3 -46.5 -15.95 -47.15 L-16.35 -47.55 -16.6 -48.35 -17.0 -49.85 -17.1 -52.1 -16.8 -53.05 -15.3 -55.05 -15.25 -53.95 Q-15.1 -52.1 -14.25 -50.45 -13.4 -48.8 -11.55 -47.95 -10.0 -47.25 -8.0 -47.1 L-4.3 -47.0 -0.45 -47.25 3.3 -47.8 6.6 -48.75 6.9 -48.9 6.55 -48.7 10.4 -50.3 Q12.25 -51.0 13.7 -51.85 15.4 -52.9 16.15 -54.25 L16.85 -56.05 M14.0 -17.15 L14.35 -17.25 14.4 -17.25 14.3 -17.15 13.9 -17.1 14.0 -17.15 M13.95 -16.6 L14.3 -16.75 Q16.7 -15.8 15.45 -13.65 L15.15 -13.2 15.1 -13.15 Q14.65 -12.45 13.8 -12.2 L13.55 -12.1 13.1 -11.95 12.65 -11.8 Q11.1 -11.05 11.05 -12.5 L11.1 -12.75 10.25 -12.3 Q10.35 -11.8 9.65 -11.2 L9.25 -11.25 Q7.2 -9.85 4.8 -9.65 L3.0 -9.8 2.25 -10.0 0.5 -10.0 -0.1 -10.0 -1.8 -10.05 -2.8 -9.7 Q-5.7 -9.15 -8.1 -10.25 L-9.2 -10.25 Q-9.95 -11.85 -11.7 -12.8 -12.8 -14.65 -14.5 -16.05 L-14.55 -16.1 -14.55 -16.15 -15.15 -18.1 -13.85 -16.8 Q-12.1 -15.3 -10.0 -14.45 -7.95 -13.55 -5.65 -13.2 L-1.9 -12.9 -1.15 -12.95 -0.9 -12.95 1.95 -13.45 2.2 -13.45 4.1 -13.45 6.05 -13.45 7.9 -13.45 9.75 -13.5 11.35 -13.65 12.5 -15.3 13.95 -16.6" fill="#fefbf5" fill-rule="evenodd" stroke="none"/>
      <path d="M11.7 -66.1 L11.7 -65.85 11.75 -65.8 11.85 -65.75 11.9 -65.65 11.95 -65.15 12.3 -64.35 Q12.05 -63.5 12.35 -62.6 11.8 -61.9 12.1 -60.95 L12.05 -60.3 12.65 -60.1 12.7 -60.05 Q13.9 -59.7 14.6 -58.5 L14.65 -58.25 14.65 -58.2 14.8 -58.1 14.9 -57.85 14.9 -57.6 15.7 -56.85 16.85 -56.05 16.15 -54.25 Q15.4 -52.9 13.7 -51.85 12.25 -51.0 10.4 -50.3 L6.55 -48.7 6.9 -48.9 6.6 -48.75 Q7.7 -50.1 6.75 -50.5 L4.0 -51.75 Q2.2 -52.65 1.15 -54.25 0.1 -55.85 -0.25 -57.65 -0.65 -59.45 -0.6 -61.4 L-0.6 -61.65 Q-0.25 -61.75 0.05 -61.95 1.5 -61.75 2.6 -62.55 L2.65 -62.6 2.7 -63.1 2.75 -63.1 3.3 -63.95 Q5.15 -65.25 6.4 -67.65 L6.5 -67.85 6.65 -67.95 8.35 -68.85 9.4 -69.7 11.95 -70.1 Q11.6 -68.65 11.6 -67.4 L11.7 -66.55 11.7 -66.1 M14.3 -17.15 L13.95 -16.6 12.5 -15.3 11.35 -13.65 9.75 -13.5 7.9 -13.45 6.05 -13.45 4.1 -13.45 2.2 -13.45 1.95 -13.45 -0.9 -12.95 -1.15 -12.95 -1.9 -12.9 -5.65 -13.2 Q-7.95 -13.55 -10.0 -14.45 -12.1 -15.3 -13.85 -16.8 L-15.15 -18.1 Q-15.8 -20.55 -15.85 -23.15 L-16.15 -25.8 -15.3 -24.55 -12.65 -21.1 Q-11.15 -19.35 -9.0 -18.0 L-5.45 -15.85 Q-3.85 -14.8 -2.8 -14.8 L-0.65 -15.0 2.15 -14.95 5.25 -15.2 Q9.65 -15.9 13.9 -17.1 L14.3 -17.15 M-13.75 -41.8 L-13.55 -42.75 -13.35 -43.95 -11.6 -44.65 -9.95 -45.1 -8.15 -45.25 -6.3 -45.3 -1.4 -44.55 Q2.5 -43.8 -4.25 -41.45 -9.65 -39.6 -8.75 -38.2 L-10.15 -39.1 -11.7 -40.0 -13.0 -41.05 -13.75 -41.8 M-5.0 -36.95 Q-3.75 -37.25 -2.7 -38.55 -0.6 -41.2 1.7 -43.2 3.95 -45.2 4.8 -44.85 L6.35 -44.15 7.7 -43.1 8.75 -41.95 9.55 -40.35 10.15 -38.45 Q10.45 -37.45 10.2 -36.6 9.95 -35.8 9.0 -35.45 8.0 -35.1 8.5 -33.95 9.0 -32.85 8.55 -31.55 6.6 -32.15 6.15 -32.7 5.7 -33.3 5.6 -34.0 5.5 -34.7 5.0 -35.25 4.45 -35.85 -0.25 -29.85 -4.95 -23.85 -8.15 -26.75 -11.35 -29.7 -10.1 -31.3 -8.9 -32.95 -6.05 -31.35 -3.25 -29.75 -3.45 -33.35 L-3.8 -37.0 -5.0 -36.95" fill="#fce6a5" fill-rule="evenodd" stroke="none"/>
      <path d="M15.0 -20.35 L14.7 -19.5 14.3 -18.8 14.3 -18.1 14.0 -17.35 14.0 -17.15 13.9 -17.1 Q9.65 -15.9 5.25 -15.2 L2.15 -14.95 -0.65 -15.0 -2.8 -14.8 Q-3.85 -14.8 -5.45 -15.85 L-9.0 -18.0 Q-11.15 -19.35 -12.65 -21.1 L-15.3 -24.55 -16.15 -25.8 -16.65 -27.3 -16.35 -30.05 Q-15.9 -33.3 -16.1 -36.3 -15.05 -37.35 -14.5 -39.05 L-14.4 -39.4 -13.75 -41.8 -13.0 -41.05 -11.7 -40.0 -10.15 -39.1 -8.75 -38.2 -7.9 -37.5 -7.6 -37.35 -7.45 -37.25 -6.2 -36.9 -5.0 -36.95 -3.8 -37.0 -3.45 -33.35 Q-3.25 -29.75 -6.05 -31.35 -8.9 -32.95 -10.1 -31.3 -11.35 -29.7 -8.15 -26.75 -4.95 -23.85 -0.25 -29.85 4.45 -35.85 5.0 -35.25 5.5 -34.7 5.6 -34.0 5.7 -33.3 6.15 -32.7 6.6 -32.15 8.55 -31.55 8.9 -31.9 8.9 -31.35 L8.9 -29.4 8.9 -27.45 8.9 -25.5 9.0 -23.6 Q9.05 -22.75 9.4 -21.95 9.7 -21.1 10.25 -20.4 L11.35 -19.4 Q12.2 -18.85 13.0 -19.2 13.8 -19.4 14.45 -19.95 L15.0 -20.35 M-15.3 -55.05 L-15.1 -55.35 -15.0 -55.5 -15.1 -55.6 -14.85 -55.9 -13.85 -57.45 -12.75 -58.8 -12.55 -59.3 -12.7 -59.7 -12.75 -59.8 -12.9 -60.15 -12.75 -60.35 -12.9 -61.55 Q-12.8 -62.85 -12.95 -63.9 L-12.75 -65.65 -12.65 -66.7 -12.4 -67.8 Q-12.1 -68.55 -11.15 -68.7 -9.25 -68.2 -7.75 -66.8 L-7.5 -66.6 -6.05 -65.2 -5.35 -64.5 Q-4.6 -63.8 -4.2 -62.95 -3.8 -62.7 -3.7 -62.15 -2.65 -61.3 -1.65 -61.7 L-0.6 -61.65 -0.6 -61.4 Q-0.65 -59.45 -0.25 -57.65 0.1 -55.85 1.15 -54.25 2.2 -52.65 4.0 -51.75 L6.75 -50.5 Q7.7 -50.1 6.6 -48.75 L3.3 -47.8 -0.45 -47.25 -4.3 -47.0 -8.0 -47.1 Q-10.0 -47.25 -11.55 -47.95 -13.4 -48.8 -14.25 -50.45 -15.1 -52.1 -15.25 -53.95 L-15.3 -55.05" fill="#3d3d3d" fill-rule="evenodd" stroke="none"/>
      <path d="M14.05 -16.4 L14.05 -18.0 Q15.05 -17.9 15.75 -17.2 16.65 -16.35 16.65 -14.45 16.65 -12.65 15.75 -11.7 14.9 -10.95 13.65 -10.9 L7.05 -10.9 7.05 -12.4 13.6 -12.4 Q14.3 -12.45 14.8 -12.85 15.35 -13.45 15.35 -14.45 15.35 -15.55 14.8 -16.05 L14.05 -16.4" fill="#4f1d17" fill-rule="evenodd" stroke="none"/>
      <path d="M2.05 -61.75 L1.05 -61.8 -0.2 -61.85 -0.6 -61.85 -1.35 -61.85 -3.5 -61.55 Q-4.1 -63.1 -5.65 -64.75 -7.2 -66.4 -8.5 -67.25 L-11.15 -68.75 Q-12.45 -69.35 -12.6 -67.7 L-12.95 -64.1 Q-13.15 -62.2 -12.55 -59.2 M2.3 -61.8 Q3.25 -64.15 4.8 -65.8 6.3 -67.45 7.65 -68.3 L10.25 -69.8 Q11.55 -70.4 11.75 -68.75 L12.1 -65.15 Q12.25 -63.25 11.7 -60.25 M14.2 -44.4 L14.15 -42.6 14.05 -35.8 Q14.15 -31.95 14.9 -28.3 15.65 -24.7 15.1 -20.85 14.45 -17.1 12.2 -13.95 11.2 -12.7 9.9 -11.9 L8.75 -11.35 M-12.9 -43.95 L-13.25 -43.25 -13.6 -42.6 -15.25 -38.3 Q-16.25 -34.65 -16.25 -30.7 L-15.8 -22.4 Q-15.35 -18.05 -13.65 -15.05 -12.0 -12.1 -8.85 -10.5" fill="none" stroke="#4f1d17" stroke-linecap="round" stroke-linejoin="round" stroke-width="1.0"/>
      <path d="M14.85 -46.85 Q17.65 -49.45 17.65 -52.8 17.65 -56.2 14.85 -58.8 L14.1 -58.05 Q16.6 -55.7 16.6 -52.8 16.6 -49.95 14.1 -47.55 L14.85 -46.85" fill="#4f1d17" fill-rule="evenodd" stroke="none"/>
      <path d="M-14.5 -44.95 L-13.75 -45.65 Q-16.25 -48.05 -16.25 -50.9 -16.25 -53.8 -13.75 -56.15 L-14.5 -56.9 Q-17.3 -54.3 -17.3 -50.9 -17.3 -47.55 -14.5 -44.95" fill="#4f1d17" fill-rule="evenodd" stroke="none"/>
      <path d="M13.25 -45.95 L12.5 -44.4 11.75 -44.4 12.3 -45.85 11.75 -45.85 11.75 -47.3 13.25 -47.3 13.25 -45.95 M10.35 -45.95 L9.6 -44.4 8.85 -44.4 9.4 -45.85 8.85 -45.85 8.85 -47.3 10.35 -47.3 10.35 -45.95" fill="#000000" fill-rule="evenodd" stroke="none"/>
    </g>
    <g id="sprite0" transform="matrix(1.0, 0.0, 0.0, 1.0, 3.0, 1.25)">
      <use height="2.5" transform="matrix(1.0, 0.0, 0.0, 1.0, -2.4, -1.25)" width="4.8" xlink:href="#shape1"/>
    </g>
    <g id="shape1" transform="matrix(1.0, 0.0, 0.0, 1.0, 2.4, 1.25)">
      <path d="M1.9 0.75 Q0.05 -0.4 -1.9 -0.75" fill="none" stroke="#4f1d17" stroke-linecap="round" stroke-linejoin="round" stroke-width="1.0"/>
    </g>
    <g id="shape2" transform="matrix(1.0, 0.0, 0.0, 1.0, 16.15, 41.5)">
      <path d="M-12.1 -27.45 L-12.1 -27.3 -12.2 -25.8 -12.1 -27.45 M-12.25 -19.95 Q-11.7 -18.2 -10.35 -17.0 L-9.85 -16.6 -10.2 -16.8 Q-12.0 -17.95 -12.25 -19.95 M-9.6 -24.85 L-9.55 -26.05 Q-9.35 -27.95 -9.4 -29.95 L-9.4 -30.0 Q-9.05 -27.85 -9.35 -25.7 L-9.55 -25.05 -9.6 -24.85" fill="#e7e0dc" fill-rule="evenodd" stroke="none"/>
      <path d="M-12.9 -38.75 L-14.25 -39.0 -14.5 -38.95 -14.0 -39.1 -12.9 -38.75 M-14.6 -35.5 L-14.45 -35.25 -14.55 -35.45 -14.6 -35.5" fill="#58463f" fill-rule="evenodd" stroke="none"/>
      <path d="M-12.9 -38.75 L-12.7 -38.65 -12.4 -38.35 -11.7 -37.6 -11.7 -37.5 -11.65 -37.45 -11.65 -37.4 -11.5 -37.3 -11.45 -37.05 -11.35 -36.85 -11.3 -36.8 -11.2 -36.7 -11.2 -36.4 -11.2 -36.35 -11.0 -36.0 -10.8 -35.55 -9.95 -32.55 -9.9 -32.35 -9.6 -31.05 -9.4 -30.0 -9.4 -29.95 Q-9.35 -27.95 -9.55 -26.05 L-9.6 -24.85 -9.65 -24.85 -9.8 -24.05 -9.85 -23.65 -9.7 -22.9 -9.7 -22.7 -9.4 -22.0 -9.05 -21.2 -9.0 -21.05 -8.7 -20.35 -8.75 -20.35 -9.05 -20.0 -9.1 -19.15 Q-9.15 -18.25 -8.7 -17.5 L-9.75 -17.9 Q-10.15 -17.85 -10.25 -17.45 L-10.15 -17.2 -9.35 -16.75 -9.25 -16.3 -9.2 -16.25 -9.85 -16.6 -10.35 -17.0 Q-11.7 -18.2 -12.25 -19.95 L-12.25 -20.15 -12.2 -25.4 -12.2 -25.8 -12.1 -27.3 -12.1 -27.45 Q-11.85 -29.15 -12.3 -30.8 L-12.5 -31.5 -12.7 -32.1 -13.25 -34.2 -13.35 -34.2 -13.45 -34.3 -13.65 -34.3 -13.95 -34.65 -14.3 -35.2 -14.45 -35.25 -14.6 -35.5 -14.6 -35.8 -15.0 -36.35 -15.1 -36.45 -15.5 -37.4 -15.4 -38.45 -15.35 -38.5 -14.5 -38.95 -14.25 -39.0 -12.9 -38.75 M-5.25 -14.8 Q-5.25 -14.65 -5.35 -14.65 L-5.55 -14.7 -5.25 -14.8 M-6.65 -15.1 L-7.15 -15.3 -7.55 -15.45 -7.35 -15.5 Q-6.95 -15.4 -6.65 -15.1" fill="#fefbf5" fill-rule="evenodd" stroke="none"/>
      <path d="M-9.2 -16.25 L-9.25 -16.3 -9.35 -16.75 -10.15 -17.2 -10.25 -17.45 Q-10.15 -17.85 -9.75 -17.9 L-8.7 -17.5 -8.55 -17.3 -7.1 -16.2 -7.0 -16.1 -6.7 -16.0 -5.55 -15.9 -5.45 -15.95 -4.95 -15.25 Q-4.9 -15.15 -5.0 -15.05 L-5.25 -14.8 -5.55 -14.7 -6.65 -15.1 Q-6.95 -15.4 -7.35 -15.5 L-7.55 -15.45 -8.0 -15.65 -9.2 -16.25 M-7.55 -15.45 L-7.75 -15.55 -8.0 -15.65 -7.75 -15.55 -7.55 -15.45" fill="#fce6a5" fill-rule="evenodd" stroke="none"/>
      <path d="M-8.7 -17.5 Q-9.15 -18.25 -9.1 -19.15 L-9.05 -19.85 -8.75 -20.2 -8.7 -20.2 -8.55 -20.25 -8.45 -20.2 -7.7 -19.25 -7.6 -19.2 -7.6 -19.15 -7.55 -19.15 -7.5 -19.2 -7.3 -19.25 -7.2 -19.2 Q-6.2 -18.9 -6.25 -18.3 L-6.1 -18.05 -5.75 -17.1 -5.35 -17.0 -5.15 -16.7 Q-5.2 -16.2 -5.45 -15.95 L-5.55 -15.9 -6.7 -16.0 -7.0 -16.1 -7.1 -16.2 -8.55 -17.3 -8.7 -17.5" fill="#3d3d3d" fill-rule="evenodd" stroke="none"/>
      <path d="M-12.9 -38.75 L-14.25 -39.0 -14.5 -38.95 Q-16.05 -38.85 -15.55 -37.6 L-15.5 -37.4 -15.1 -36.45 -14.6 -35.5 -14.45 -35.25 -13.9 -34.55 Q-13.1 -33.4 -12.7 -32.1 L-12.5 -31.5 -12.4 -31.05 Q-12.05 -29.25 -12.1 -27.45 L-12.1 -27.3 -12.2 -25.8 -12.45 -23.95 Q-12.85 -22.05 -12.3 -20.2 L-12.25 -19.95 Q-11.7 -18.2 -10.35 -17.0 L-9.85 -16.6 -9.2 -16.25 M-9.6 -24.85 L-9.55 -26.05 Q-9.35 -27.95 -9.4 -29.95 L-9.4 -30.0 Q-9.45 -31.95 -9.95 -33.7 -10.45 -35.55 -11.35 -37.25 -11.95 -38.35 -12.9 -38.75 M-9.6 -24.85 Q-9.65 -23.5 -9.35 -22.25 -9.1 -21.25 -8.45 -20.35 L-7.7 -19.25 M-5.35 -14.65 L-5.55 -14.7 -6.65 -15.1 -7.15 -15.3 -7.55 -15.45 M-8.0 -15.65 L-9.2 -16.25 M-8.0 -15.65 L-7.75 -15.55 -7.55 -15.45" fill="none" stroke="#4f1d17" stroke-linecap="round" stroke-linejoin="round" stroke-width="1.0"/>
      <path d="M13.0 -40.55 L14.35 -40.75 14.95 -40.95 15.3 -40.95 Q15.9 -41.0 16.45 -40.55 17.1 -40.0 17.25 -39.1 L17.3 -38.7 17.8 -38.5 Q18.55 -38.0 18.7 -37.15 18.85 -36.3 18.25 -35.55 L18.0 -35.2 18.25 -34.35 Q18.4 -33.5 17.9 -32.8 L17.3 -32.3 16.9 -32.05 16.55 -31.95 16.5 -31.95 15.65 -31.95 15.1 -32.15 14.95 -32.0 Q14.5 -31.75 14.1 -31.65 L12.9 -31.85 Q12.2 -32.2 11.7 -32.9 L11.65 -33.0 11.6 -33.15 11.3 -33.9 11.25 -34.0 11.2 -34.1 11.2 -34.15 11.05 -34.6 10.95 -35.1 10.9 -35.15 Q10.75 -35.3 10.85 -35.6 L10.9 -35.85 11.05 -37.55 Q11.35 -38.75 11.9 -39.55 L11.95 -39.6 12.05 -39.75 12.2 -39.9 12.25 -39.95 12.3 -40.0 12.5 -40.2 12.6 -40.3 13.0 -40.55" fill="#fefbf5" fill-rule="evenodd" stroke="none"/>
      <path d="M13.0 -40.55 L14.35 -40.75 14.95 -40.95 15.3 -40.95 Q15.9 -41.0 16.45 -40.55 17.1 -40.0 17.25 -39.1 L17.3 -38.7 17.8 -38.5 Q18.55 -38.0 18.7 -37.15 18.85 -36.3 18.25 -35.55 L18.0 -35.2 18.25 -34.35 Q18.4 -33.5 17.9 -32.8 L17.3 -32.3 16.9 -32.05 16.55 -31.95 16.5 -31.95 15.65 -31.95 15.1 -32.15 14.95 -32.0 Q14.5 -31.75 14.1 -31.65 L12.9 -31.85 Q12.2 -32.2 11.7 -32.9" fill="none" stroke="#4f1d17" stroke-linecap="round" stroke-linejoin="round" stroke-width="1.0"/>
    </g>
  </defs>
</svg>
