<?xml version="1.0" encoding="UTF-8" standalone="no"?>
<svg xmlns:xlink="http://www.w3.org/1999/xlink" height="67.2px" width="42.0px" xmlns="http://www.w3.org/2000/svg">
  <g transform="matrix(1.0, 0.0, 0.0, 1.0, 20.75, 67.25)">
    <use height="66.15" transform="matrix(1.0, 0.0, 0.0, 1.0, -20.75, -67.25)" width="42.0" xlink:href="#shape0"/>
    <use height="3.05" transform="matrix(-0.9976, 0.0, 0.0, 0.9756, 5.1873, -53.8674)" width="21.45" xlink:href="#sprite0"/>
    <use height="9.6" transform="matrix(1.0, 0.0, 0.0, 1.0, -11.75, -9.65)" width="7.1" xlink:href="#shape2"/>
  </g>
  <defs>
    <g id="shape0" transform="matrix(1.0, 0.0, 0.0, 1.0, 20.75, 67.25)">
      <path d="M17.15 -24.25 L17.15 -24.1 17.3 -22.6 17.15 -24.25 M17.3 -16.75 Q16.75 -15.05 15.4 -13.8 L14.95 -13.45 15.25 -13.6 Q17.1 -14.75 17.3 -16.75 M14.7 -21.65 L14.6 -22.85 Q14.45 -24.75 14.45 -26.75 L14.45 -26.8 Q14.15 -24.65 14.4 -22.5 L14.6 -21.85 14.7 -21.65" fill="#e7e0dc" fill-rule="evenodd" stroke="none"/>
      <path d="M17.95 -35.55 L19.35 -35.8 19.6 -35.75 19.1 -35.9 17.95 -35.55 M19.65 -32.3 L19.5 -32.05 19.65 -32.25 19.65 -32.3" fill="#58463f" fill-rule="evenodd" stroke="none"/>
      <path d="M17.95 -35.55 L17.8 -35.45 17.5 -35.15 16.75 -34.4 16.75 -34.3 16.7 -34.25 16.7 -34.2 16.55 -34.1 16.5 -33.85 16.4 -33.65 16.35 -33.6 16.25 -33.5 16.25 -33.2 16.25 -33.15 16.05 -32.8 15.9 -32.35 15.0 -29.35 14.95 -29.15 14.65 -27.85 14.45 -26.8 14.45 -26.75 Q14.45 -24.75 14.6 -22.85 L14.7 -21.65 14.85 -20.85 14.9 -20.45 14.75 -19.7 14.75 -19.5 14.45 -18.8 14.1 -18.0 14.05 -17.85 Q13.6 -16.5 12.4 -15.75 L12.35 -15.85 12.3 -15.9 12.05 -15.95 11.9 -15.65 Q12.05 -14.55 11.55 -13.9 11.05 -13.35 11.1 -13.1 11.15 -12.85 10.65 -12.5 10.2 -11.5 10.4 -11.45 L12.2 -12.1 14.95 -13.45 15.4 -13.8 Q16.75 -15.05 17.3 -16.75 L17.35 -16.95 17.3 -22.2 17.3 -22.6 17.15 -24.1 17.15 -24.25 Q16.9 -25.95 17.4 -27.6 L17.6 -28.3 17.75 -28.9 18.35 -31.0 18.45 -31.0 18.5 -31.1 18.75 -31.1 19.05 -31.45 19.4 -32.0 19.5 -32.05 19.65 -32.3 19.7 -32.6 20.1 -33.15 20.15 -33.25 20.55 -34.2 20.5 -35.25 20.45 -35.3 19.6 -35.75 19.35 -35.8 17.95 -35.55" fill="#fefbf5" fill-rule="evenodd" stroke="none"/>
      <path d="M17.95 -35.55 L19.35 -35.8 19.6 -35.75 Q21.1 -35.65 20.65 -34.4 L20.55 -34.2 20.15 -33.25 19.65 -32.3 19.5 -32.05 19.0 -31.35 Q18.2 -30.2 17.75 -28.9 L17.6 -28.3 M17.15 -24.25 L17.15 -24.1 17.3 -22.6 M17.3 -16.75 Q16.75 -15.05 15.4 -13.8 L14.95 -13.45 12.2 -12.1 10.4 -11.45 M14.7 -21.65 L14.6 -22.85 Q14.45 -24.75 14.45 -26.75 L14.45 -26.8 Q14.55 -28.75 15.0 -30.5 15.55 -32.35 16.4 -34.05 17.0 -35.15 17.95 -35.55 M17.15 -24.25 Q17.15 -26.05 17.5 -27.85 L17.6 -28.3 M14.7 -21.65 Q14.75 -20.3 14.4 -19.05 13.95 -17.25 12.35 -15.85 M17.3 -16.75 L17.4 -17.0 Q17.95 -18.85 17.55 -20.75 L17.3 -22.6" fill="none" stroke="#4f1d17" stroke-linecap="round" stroke-linejoin="round" stroke-width="1.0"/>
      <path d="M14.05 -48.15 L14.0 -46.65 13.6 -45.15 Q13.3 -44.7 13.35 -44.35 L12.95 -43.95 Q11.45 -43.6 10.85 -42.65 L10.4 -41.55 10.35 -40.7 10.5 -39.6 10.55 -39.55 10.75 -38.65 11.4 -36.2 11.5 -35.85 11.95 -34.7 Q12.2 -34.15 12.6 -33.7 L13.0 -33.2 12.7 -30.9 12.6 -30.2 12.3 -28.05 12.2 -27.05 12.1 -26.55 Q11.8 -24.3 9.75 -24.95 L6.4 -26.1 Q4.55 -26.7 3.0 -25.6 1.35 -24.55 0.7 -22.6 0.15 -20.9 0.4 -18.9 L0.45 -18.85 0.4 -18.85 Q0.7 -16.9 1.8 -15.5 2.8 -14.3 4.5 -13.5 5.95 -12.85 7.8 -12.35 L10.6 -12.1 9.55 -10.9 8.65 -9.65 Q7.3 -8.9 6.6 -7.75 L6.15 -7.0 6.0 -6.6 0.6 -6.6 0.6 -6.65 0.5 -6.65 Q0.15 -6.65 0.1 -6.95 L-2.9 -7.1 -3.6 -7.5 -3.75 -7.45 Q-4.05 -7.0 -4.85 -6.95 L-5.1 -7.0 -5.4 -4.35 -5.9 -2.6 Q-6.25 -1.9 -6.95 -1.65 L-7.4 -1.45 -9.8 -1.55 -10.3 -2.15 Q-10.8 -3.75 -10.8 -5.45 L-10.9 -6.95 -10.9 -7.5 -11.5 -7.65 -12.0 -7.95 -12.4 -8.45 -12.45 -8.5 -12.5 -8.6 -12.75 -8.8 -12.95 -8.75 -13.15 -8.75 -13.2 -8.8 -12.7 -9.7 Q-12.3 -10.9 -12.35 -12.3 -12.45 -13.9 -12.15 -15.25 L-12.0 -16.1 Q-11.85 -16.7 -12.1 -17.25 -12.75 -18.95 -14.2 -17.85 -16.0 -16.5 -17.85 -17.45 L-18.1 -18.75 -18.1 -19.2 -18.3 -19.45 -18.3 -19.7 -18.35 -20.15 -18.35 -21.75 -18.35 -22.45 -18.55 -23.4 -18.7 -23.6 -18.05 -27.0 Q-17.2 -32.65 -17.4 -38.6 L-17.5 -40.1 -17.25 -41.2 -17.25 -41.25 -17.3 -42.65 Q-17.55 -43.95 -18.6 -45.0 -19.0 -47.7 -20.55 -49.85 L-20.5 -50.05 Q-19.95 -51.55 -20.05 -52.8 L-19.8 -52.9 -19.55 -52.7 -19.35 -52.45 -19.3 -52.35 -17.3 -52.1 -14.35 -51.55 Q-12.55 -51.35 -10.75 -51.55 -8.8 -51.8 -7.15 -52.35 -5.7 -52.85 -4.65 -53.8 L-4.4 -54.05 Q-3.15 -55.35 -2.8 -57.05 L-2.35 -56.2 Q-1.35 -54.5 0.15 -53.25 1.6 -52.05 3.25 -51.2 4.8 -50.35 6.5 -49.85 L9.9 -49.0 10.25 -48.9 10.35 -49.0 10.35 -48.9 13.25 -48.3 14.05 -48.15 M12.35 -15.8 L12.35 -15.75 12.3 -15.8 12.35 -15.8 M1.25 -29.25 Q1.65 -29.7 1.65 -30.2 L1.0 -29.25 0.55 -28.95 Q-0.55 -28.35 -1.85 -28.5 L-2.5 -28.65 -3.0 -29.0 -3.05 -29.0 -4.2 -29.25 -4.4 -29.3 -4.75 -29.5 -5.2 -29.75 Q-6.2 -30.55 -6.15 -31.65 -6.25 -30.4 -5.2 -29.55 L-4.75 -29.3 -4.65 -29.25 -4.4 -29.1 -3.05 -28.8 -3.0 -28.8 -2.5 -28.45 -1.85 -28.3 Q-0.55 -28.15 0.55 -28.75 L1.25 -29.25 M-6.05 -32.45 L-6.1 -32.45 -6.15 -31.85 -6.05 -32.45 M-14.85 -14.0 L-14.85 -14.1 -14.8 -14.05 -14.85 -14.0" fill="#fefbf5" fill-rule="evenodd" stroke="none"/>
      <path d="M12.35 -15.75 L11.9 -13.9 11.55 -12.95 11.5 -12.9 10.85 -12.35 10.6 -12.1 7.8 -12.35 Q5.95 -12.85 4.5 -13.5 2.8 -14.3 1.8 -15.5 0.7 -16.9 0.4 -18.85 L0.45 -18.85 1.7 -19.25 Q3.6 -19.75 5.6 -19.3 7.45 -18.9 8.95 -17.85 L12.3 -15.8 12.35 -15.75 M-13.2 -8.8 L-13.35 -9.05 Q-13.8 -9.6 -14.6 -9.65 -15.15 -10.65 -16.05 -11.4 L-16.1 -11.5 -16.3 -12.45 -14.85 -14.0 -14.85 -14.1 -14.85 -14.0 -14.8 -14.05 -13.45 -15.05 -12.15 -15.25 Q-12.45 -13.9 -12.35 -12.3 -12.3 -10.9 -12.7 -9.7 L-13.2 -8.8 M-19.8 -52.9 L-18.75 -53.65 -17.95 -54.35 -17.95 -54.65 -17.85 -54.9 -17.7 -55.0 -17.7 -55.05 -17.65 -55.3 Q-16.95 -56.45 -15.75 -56.85 L-15.7 -56.9 -15.1 -57.05 -15.15 -57.7 Q-14.9 -58.7 -15.4 -59.4 -15.1 -60.3 -15.35 -61.1 L-15.0 -61.9 -14.95 -62.45 -14.9 -62.55 -14.8 -62.55 -14.75 -62.85 -14.75 -63.35 -14.65 -64.2 Q-14.65 -65.4 -15.0 -66.85 L-12.45 -66.45 -11.4 -65.65 -9.7 -64.75 -9.55 -64.65 -9.45 -64.45 Q-8.2 -62.0 -6.3 -60.7 L-5.75 -59.9 -5.75 -59.85 Q-5.9 -59.6 -5.65 -59.4 L-5.6 -59.35 Q-4.7 -58.65 -3.5 -58.7 L-3.15 -57.85 -2.8 -57.05 Q-3.15 -55.35 -4.4 -54.05 L-4.65 -53.8 Q-5.7 -52.85 -7.15 -52.35 -8.8 -51.8 -10.75 -51.55 -12.55 -51.35 -14.35 -51.55 L-17.3 -52.1 -19.3 -52.35 -19.35 -52.45 -19.55 -52.7 -19.8 -52.9" fill="#fce6a5" fill-rule="evenodd" stroke="none"/>
      <path d="M-3.5 -58.7 L-3.1 -58.75 -2.7 -58.5 -2.35 -58.4 -1.4 -58.5 Q-0.4 -58.1 0.7 -58.9 0.75 -59.5 1.2 -59.75 L2.3 -61.3 3.05 -62.0 3.35 -62.6 4.45 -63.35 4.7 -63.6 Q6.2 -65.0 8.15 -65.5 9.05 -65.3 9.4 -64.6 9.25 -65.3 8.65 -65.6 L9.05 -65.85 9.65 -64.7 9.8 -64.15 10.25 -61.7 9.95 -60.65 Q9.75 -59.65 9.9 -58.35 L10.1 -57.3 10.1 -57.2 10.05 -57.15 9.9 -56.95 9.75 -56.55 9.7 -56.5 9.55 -56.1 Q9.5 -55.85 9.75 -55.6 L10.85 -54.25 11.85 -52.7 12.1 -52.35 12.0 -52.25 12.1 -52.15 12.8 -51.05 13.8 -49.85 13.9 -49.5 13.95 -49.3 14.1 -48.9 14.05 -48.15 13.25 -48.3 10.35 -48.9 10.35 -49.0 10.25 -48.9 9.9 -49.0 6.5 -49.85 Q4.8 -50.35 3.25 -51.2 1.6 -52.05 0.15 -53.25 -1.35 -54.5 -2.35 -56.2 L-2.8 -57.05 -3.15 -57.85 -3.5 -58.7 M13.0 -33.2 L13.1 -33.1 13.05 -31.05 13.1 -29.25 13.25 -27.6 13.25 -27.55 13.35 -26.85 13.65 -24.1 13.2 -22.75 13.05 -22.0 12.85 -19.95 12.85 -19.7 12.35 -15.8 12.3 -15.8 8.95 -17.85 Q7.45 -18.9 5.6 -19.3 3.6 -19.75 1.7 -19.25 L0.45 -18.85 0.4 -18.9 Q0.15 -20.9 0.7 -22.6 1.35 -24.55 3.0 -25.6 4.55 -26.7 6.4 -26.1 L9.75 -24.95 Q11.8 -24.3 12.1 -26.55 L12.2 -27.05 12.3 -28.05 12.6 -30.2 12.7 -30.9 13.0 -33.2 M-16.3 -12.45 L-16.3 -12.5 -17.0 -13.6 -17.05 -13.9 -17.05 -14.1 -17.05 -14.35 -17.05 -15.05 Q-17.4 -15.1 -17.55 -15.75 L-17.7 -16.7 -17.7 -16.95 -17.85 -17.45 Q-16.0 -16.5 -14.2 -17.85 -12.75 -18.95 -12.1 -17.25 -11.85 -16.7 -12.0 -16.1 L-12.15 -15.25 -13.45 -15.05 -14.8 -14.05 -14.85 -14.1 -14.85 -14.0 -16.3 -12.45" fill="#3d3d3d" fill-rule="evenodd" stroke="none"/>
      <path d="M3.1 -7.1 L-3.5 -7.1 Q-4.75 -7.1 -5.6 -7.9 -6.5 -8.8 -6.5 -10.65 -6.5 -12.6 -5.6 -13.5 -4.75 -14.3 -3.5 -14.3 L3.1 -14.3 3.1 -12.75 -3.45 -12.75 -4.65 -12.3 Q-5.2 -11.8 -5.2 -10.65 -5.2 -9.6 -4.65 -9.05 -4.15 -8.6 -3.45 -8.6 L3.1 -8.6 3.1 -7.1" fill="#4f1d17" fill-rule="evenodd" stroke="none"/>
      <path d="M-5.05 -58.55 L-4.05 -58.6 -2.8 -58.65 -1.65 -58.65 0.45 -58.35 Q1.05 -59.85 2.6 -61.5 L5.5 -64.05 8.1 -65.5 Q9.4 -66.15 9.6 -64.45 L9.95 -60.85 Q10.1 -58.95 9.55 -56.0 M9.95 -40.65 L10.5 -39.6 12.25 -35.15 12.6 -33.7 13.05 -31.05 13.25 -27.6 13.25 -27.55 13.05 -22.0 12.85 -19.7 12.8 -19.25 Q12.35 -15.2 10.85 -12.35 L10.65 -11.9 Q9.15 -9.35 6.6 -7.75 L5.75 -7.15 M-5.3 -58.6 Q-6.3 -60.9 -7.8 -62.55 L-10.7 -65.1 -13.3 -66.55 Q-14.65 -67.2 -14.8 -65.5 L-15.15 -61.9 Q-15.35 -60.0 -14.75 -57.05 M-17.25 -41.35 L-17.1 -32.8 Q-17.2 -29.9 -17.65 -27.1 L-17.95 -25.3 -18.35 -22.6 Q-18.55 -20.25 -18.15 -17.85 -17.85 -15.9 -17.05 -14.05 -16.35 -12.45 -15.25 -10.95 -14.3 -9.7 -12.95 -8.9 L-12.45 -8.65 -11.8 -8.35" fill="none" stroke="#4f1d17" stroke-linecap="round" stroke-linejoin="round" stroke-width="1.0"/>
      <path d="M-17.95 -43.65 Q-20.75 -46.25 -20.75 -49.6 -20.75 -53.0 -17.95 -55.6 L-17.2 -54.85 Q-19.7 -52.5 -19.7 -49.6 -19.7 -46.75 -17.2 -44.35 L-17.95 -43.65" fill="#4f1d17" fill-rule="evenodd" stroke="none"/>
      <path d="M11.5 -41.75 L10.75 -42.45 Q13.25 -44.85 13.25 -47.7 13.25 -50.6 10.75 -52.95 L11.5 -53.7 Q14.3 -51.1 14.3 -47.7 14.3 -44.35 11.5 -41.75" fill="#4f1d17" fill-rule="evenodd" stroke="none"/>
      <path d="M-9.25 -50.8 L-8.15 -51.4 Q-5.95 -48.85 -5.9 -46.3 -5.95 -44.8 -6.55 -44.15 -7.2 -43.55 -8.15 -43.5 -9.15 -43.55 -9.85 -44.2 -10.25 -44.55 -10.25 -44.85 L-10.7 -44.05 Q-11.35 -43.55 -12.35 -43.5 -13.6 -43.55 -14.4 -44.3 -15.6 -45.55 -15.6 -48.05 -15.6 -49.8 -14.95 -51.4 L-13.75 -51.05 Q-14.2 -49.65 -14.2 -48.05 -14.2 -46.05 -13.4 -45.2 -12.95 -44.8 -12.3 -44.75 L-11.4 -45.05 Q-11.1 -45.4 -11.05 -45.85 L-11.5 -46.8 -11.8 -48.45 Q-11.8 -49.75 -11.25 -49.75 -10.8 -49.75 -10.35 -48.9 L-9.85 -47.4 -9.85 -46.05 -9.2 -45.15 Q-8.75 -44.75 -8.15 -44.7 -7.75 -44.75 -7.45 -44.95 -7.2 -45.3 -7.15 -46.3 -7.2 -48.4 -9.25 -50.8" fill="#4f1d17" fill-rule="evenodd" stroke="none"/>
      <path d="M-12.35 -34.9 L-15.8 -35.45 -15.55 -37.15 -12.45 -36.4 Q-9.8 -35.7 -8.6 -35.05 -6.7 -33.95 -6.3 -32.5 -5.9 -31.05 -6.8 -29.5 -7.75 -27.9 -9.1 -27.55 -11.65 -26.9 -15.45 -29.05 L-15.05 -30.5 Q-11.5 -28.5 -9.75 -28.95 -8.75 -29.25 -8.2 -30.2 -7.6 -31.25 -7.9 -32.3 -8.1 -33.15 -9.45 -33.9 L-12.35 -34.9" fill="#4f1d17" fill-rule="evenodd" stroke="none"/>
      <path d="M-0.7 -34.95 L2.8 -35.5 2.55 -37.25 -0.6 -36.45 Q-3.3 -35.8 -4.45 -35.1 -6.35 -34.0 -6.75 -32.55 -7.15 -31.1 -6.3 -29.5 -5.35 -27.95 -4.0 -27.55 -1.4 -26.9 2.4 -29.05 L2.0 -30.55 Q-1.6 -28.55 -3.3 -29.0 -4.35 -29.25 -4.9 -30.2 -5.45 -31.25 -5.2 -32.35 -4.95 -33.2 -3.65 -33.95 L-0.7 -34.95" fill="#4f1d17" fill-rule="evenodd" stroke="none"/>
      <path d="M7.75 -44.1 L6.25 -44.1 6.25 -42.65 6.8 -42.65 6.25 -41.2 7.0 -41.2 7.75 -42.75 7.75 -44.1 M4.85 -44.1 L3.35 -44.1 3.35 -42.65 3.9 -42.65 3.35 -41.2 4.1 -41.2 4.85 -42.75 4.85 -44.1" fill="#000000" fill-rule="evenodd" stroke="none"/>
    </g>
    <g id="sprite0" transform="matrix(1.0, 0.0, 0.0, 1.0, 5.2, 50.55)">
      <use height="3.05" transform="matrix(1.0, 0.0, 0.0, 1.0, -5.2, -50.55)" width="21.45" xlink:href="#shape1"/>
    </g>
    <g id="shape1" transform="matrix(1.0, 0.0, 0.0, 1.0, 5.2, 50.55)">
      <path d="M15.75 -50.05 L15.35 -49.8 14.15 -48.95 13.55 -48.5 M0.6 -48.0 Q-1.9 -49.5 -4.7 -49.6" fill="none" stroke="#643b36" stroke-linecap="round" stroke-linejoin="round" stroke-width="1.0"/>
    </g>
    <g id="shape2" transform="matrix(1.0, 0.0, 0.0, 1.0, 11.75, 9.65)">
      <path d="M-4.65 -9.65 L-6.15 -9.65 -6.15 -3.05 Q-6.15 -2.35 -6.6 -1.9 -7.15 -1.35 -8.2 -1.35 -9.25 -1.35 -9.8 -1.9 -10.2 -2.35 -10.2 -3.05 L-10.2 -9.65 -11.75 -9.65 -11.75 -3.0 Q-11.75 -1.75 -10.95 -0.95 -10.05 -0.05 -8.2 -0.05 -6.35 -0.05 -5.45 -0.95 -4.65 -1.75 -4.65 -3.0 L-4.65 -9.65" fill="#4f1d17" fill-rule="evenodd" stroke="none"/>
    </g>
  </defs>
</svg>
