<?xml version="1.0" encoding="UTF-8" standalone="no"?>
<svg
   width="160"
   height="182"
   xml:space="preserve"
   style="fill-rule:evenodd;clip-rule:evenodd;stroke-linejoin:round;stroke-miterlimit:1.5"
   version="1.1"
   id="svg1178"
   sodipodi:docname="back-walking-2.svg"
   inkscape:version="1.2.2 (b0a8486541, 2022-12-01)"
   xmlns:inkscape="http://www.inkscape.org/namespaces/inkscape"
   xmlns:sodipodi="http://sodipodi.sourceforge.net/DTD/sodipodi-0.dtd"
   xmlns="http://www.w3.org/2000/svg"
   xmlns:svg="http://www.w3.org/2000/svg"><defs
     id="defs1182" /><sodipodi:namedview
     id="namedview1180"
     pagecolor="#ffffff"
     bordercolor="#000000"
     borderopacity="0.25"
     inkscape:showpageshadow="2"
     inkscape:pageopacity="0.0"
     inkscape:pagecheckerboard="true"
     inkscape:deskcolor="#d1d1d1"
     showgrid="false"
     inkscape:zoom="16.000001"
     inkscape:cx="73.281247"
     inkscape:cy="102.6875"
     inkscape:window-width="1920"
     inkscape:window-height="1051"
     inkscape:window-x="0"
     inkscape:window-y="0"
     inkscape:window-maximized="1"
     inkscape:current-layer="svg1178" /><path
     d="m 80.141,22 h 7.8 l 2.4,1.1 7.7,-17.2 7.7,17.2 2.5,-1.1 6.3,6.1 2.3,2.2 -0.8,0.8 0.2,0.2 c 2.8,2.733 4.367,5.767 4.7,9.1 v 1.2 c 0,2.2 -0.533,4.267 -1.6,6.2 l -0.5,0.9 -2.8,3.4 0.2,0.2 -0.6,0.6 -6.5,1.8 v 9.4 l -6.5,1.4 -6.2,1.8 1.3,3.2 6.6,-2.5 c 2.267,-0.8 4.267,-1.2 6,-1.2 2.067,0 3.5,0.4 4.3,1.2 1.067,1.067 1.6,2.4 1.6,4 0,1.467 -0.5,2.7 -1.5,3.7 -1.4,1.4 -4.1,2.233 -8.1,2.5 l -2.6,0.1 0.7,3 3,-0.1 -0.1,5.5 -3,2.5 v 24.5 l -1.7,9.2 h -3 V 136 c 0,0.933 -0.3,1.7 -0.9,2.3 -0.733,0.733 -1.8,1.1 -3.2,1.1 -1.467,0 -2.567,-0.367 -3.3,-1.1 -0.533,-0.6 -0.8,-1.367 -0.8,-2.3 v -13.1 h -3.1 l -1.794027,-21.75428 -9.49764,-0.30791 c -4.487468,11.06468 -6.239229,14.36392 -16.103625,5.27914 l -3.501703,-5.7237 c 1,-0.799998 0.196995,2.07375 0.996995,0.80675 L 56.896818,99.090625 57.885255,100.74066 55.641,79.2 l 3.5,-25.6 0.8,0.7 1.5,-1.4 -2,-2.2 c -2,-2.533 -3,-5.3 -3,-8.3 l 0.2,-2 c 0.467,-3.067 2.067,-5.9 4.8,-8.5 l -1.5,-1.5 1,-7.9 1.3,0.6 7.7,-17.2 7.7,17.2 2.5,-1.1"
     style="fill:#ffffff"
     id="path1154"
     sodipodi:nodetypes="cccccccccccscccccccccccsssscccccccccssscsccccccccccccccccccccccc" /><path
     style="fill:#333"
     d="m 59.141,53.6 -1.2,-1.4 c -2.4,-2.933 -3.6,-6.2 -3.6,-9.8 l 0.2,-2 c 0.4,-3.733 2.2,-7.067 5.4,-10 l 1.5,1.5 c -2.733,2.6 -4.333,5.433 -4.8,8.5 l -0.2,2 c 0,3 1,5.767 3,8.3 l 2,2.2 -1.5,1.4 -0.8,-0.7"
     id="path18955" /><path
     style="fill:#333"
     d="m 109.141,64.1 1.5,-0.1 c 2.933,0 5.1,0.7 6.5,2.1 1.467,1.4 2.2,3.3 2.2,5.7 0,2.467 -0.667,4.367 -2,5.7 l -0.8,0.7 c -2.067,1.6 -5,2.6 -8.8,3 l -3,0.1 -0.7,-3 2.6,-0.1 c 4,-0.267 6.7,-1.1 8.1,-2.5 1,-1 1.5,-2.233 1.5,-3.7 0,-1.6 -0.533,-2.933 -1.6,-4 -0.8,-0.8 -2.233,-1.2 -4.3,-1.2 -1.733,0 -3.733,0.4 -6,1.2 l -6.6,2.5 -1.3,-3.2 6.2,-1.8 6.5,-1.4"
     id="path18949" /><path
     style="fill:#333"
     d="m 116.841,30.3 0.6,-0.7 c 3.4,3.133 5.3,6.733 5.7,10.8 v 1.2 c 0,2.533 -0.633,4.9 -1.9,7.1 -0.933,1.667 -2.2,3.267 -3.8,4.8 l -1.4,-1.4 2.8,-3.4 0.5,-0.9 c 1.067,-1.933 1.6,-4 1.6,-6.2 v -1.2 c -0.333,-3.333 -1.9,-6.367 -4.7,-9.1 l -0.2,-0.2 0.8,-0.8"
     id="path18947" /><path
     d="m108.146 41.6-4.005 4 3.704 3.6m-3.704-3.6v-.1 5m0-4.9-3.704 3.6m-.301-7.6 4.005 3.9v-5.9"
     style="fill:none;fill-rule:nonzero;stroke:#fea5c0;stroke-width:2px;stroke-linecap:round;stroke-miterlimit:4"
     id="path1160" /><path
     d="M37.576 104.715c1.548-3.136 3.8-4.764 7.256-3.812l4.191 2.555c.794.356 1.562.6 2.297.699"
     style="fill:none;stroke:#333333;stroke-width:3px"
     id="path1164" /><path
     d="M58.959 52.541c.875 14.77-1.577 24.273-4.118 33.634l56.209.106c-1.467-5.018-1.974-12.754-1.753-22.551l-5.234-9.43-7.234-1.759h-37.87Z"
     style="fill:#ececec;stroke:#000;stroke-width:2px;stroke-linecap:round"
     id="path1168" /><path
     d="m62.808 53.363 1.5 10.137h26.075l1.733-10.029"
     style="fill:none;stroke:#f6f1ed;stroke-width:2px"
     id="path1172" /><path
     d="m104.141 53.822-7.312-1.281c4.482 2.565 8.641 6.209 12.468 10.959l-5.156-9.678Z"
     style="fill:#ececec;stroke:#000;stroke-width:2px;stroke-linecap:round"
     id="path1174" /><circle
     id="gikopoipoi_eyes_open"
     cx="111.054"
     cy="31.6"
     r="2.266"
     style="fill:none;stroke:#000;stroke-width:1.5px" /><path
     d="M107.798 31.7h6.3"
     stroke-width="3"
     id="gikopoipoi_eyes_closed"
     style="display:none"
     fill="none"
     stroke="#000"
     stroke-linecap="round"
     stroke-linejoin="round" /><g
     id="g6084"
     style="fill-rule:evenodd;clip-rule:evenodd;stroke-linejoin:round;stroke-miterlimit:1.5;stroke-linecap:round"
     transform="translate(2.002914e-4,3.7129203e-4)"><rect
       style="clip-rule:evenodd;display:inline;fill:#1a1a1a;fill-rule:evenodd;stroke:#000000;stroke-width:0;stroke-linecap:round;stroke-linejoin:round"
       id="rect5952"
       width="8.9279642"
       height="12.531975"
       x="-120.17287"
       y="72.736252"
       transform="rotate(-90)" /><path
       style="clip-rule:evenodd;display:inline;fill:#000000;fill-rule:evenodd;stroke-linecap:round;stroke-linejoin:round"
       d="m 68.741,122.9 v -3 h 13.1 c 0.934,0 1.7,-0.3 2.3,-0.9 l 0.8,-1.1 0.1,-0.5 0.2,-1.6 v -0.2 c -0.066,-1.4 -0.434,-2.434 -1.1,-3.1 -0.6,-0.534 -1.366,-0.8 -2.3,-0.8 h -13.1 v -3.1 h 13.2 c 1.666,0 3.034,0.534 4.1,1.6 1.134,1.134 1.734,2.834 1.8,5.1 v 0.5 c 0,1.8 -0.334,3.3 -1,4.5 l -0.1,0.2 -0.7,0.8 c -1,1.066 -2.3,1.6 -3.9,1.6 h -13.4"
       id="path10945" /><rect
       style="clip-rule:evenodd;display:inline;fill:#1a1a1a;fill-rule:evenodd;stroke:#000000;stroke-width:0;stroke-linecap:round;stroke-linejoin:round"
       id="rect5952-3"
       width="8.9279642"
       height="10.606449"
       x="91.190346"
       y="129.03207"
       inkscape:label="rect5952-3" /><path
       style="fill:#000000"
       d="m 103.041,122.9 v 13.2 c 0,1.667 -0.533,3.033 -1.6,4.1 -1.2,1.2 -3.033,1.8 -5.5,1.8 -2.6,0 -4.5,-0.6 -5.7,-1.8 -1.067,-1.067 -1.6,-2.433 -1.6,-4.1 v -13.2 h 3.2 V 136 c -0.067,0.933 0.2,1.7 0.8,2.3 0.667,0.733 1.767,1.1 3.3,1.1 1.4,0 2.467,-0.367 3.2,-1.1 0.6,-0.6 0.9,-1.367 0.9,-2.3 v -13.1 h 3"
       id="path12046" /></g><g
     id="g4320"
     style="fill-rule:evenodd;clip-rule:evenodd;stroke-linejoin:round;stroke-miterlimit:1.5;display:inline;stroke-linecap:round"
     transform="translate(2.002914e-4,3.7129203e-4)"><path
       style="clip-rule:evenodd;fill:#483737;fill-opacity:1;fill-rule:evenodd;stroke:#000000;stroke-width:2;stroke-linecap:round;stroke-linejoin:round;stroke-dasharray:none;stroke-opacity:1"
       d="m 55.561725,105.11668 11.683623,16.76278 0.78747,0.0255 3.44606,-0.0447 6.728972,-21.48728 9.876049,-0.464097 1.614978,28.583317 12.353603,0.15902 2.18401,-30.562608 z"
       id="path12039"
       sodipodi:nodetypes="cccccccccc" /><path
       style="clip-rule:evenodd;display:inline;fill:#241c1c;fill-rule:evenodd;stroke:#000000;stroke-width:0;stroke-linecap:round;stroke-linejoin:round"
       d="m 57.986263,106.81143 c -0.545742,-0.78707 10.567525,15.76369 16.929385,0.49601 1.706626,-4.09569 -4.155334,13.60843 -4.155334,13.60843 l -2.995536,-0.002 z"
       id="path4315-3"
       sodipodi:nodetypes="ssccs" /><path
       style="fill:#241c1c;stroke:#000000;stroke-width:0"
       d="m 89.46708,106.74003 c 1.725458,29.95486 12.26161,11.04651 13.24114,0 0.11115,-1.2535 -1.57696,20.90797 -1.57696,20.90797 l -10.481624,-0.14058 c 0,0 -1.261541,-22.1386 -1.182556,-20.76739 z"
       id="path4315"
       sodipodi:nodetypes="ssccs" /></g><path
     style="clip-rule:evenodd;display:inline;fill:#333333;fill-opacity:1;fill-rule:evenodd;stroke:#000000;stroke-width:2;stroke-linecap:round;stroke-linejoin:round;stroke-dasharray:none;stroke-opacity:1"
     d="m 112.31088,93.310218 -2.75971,12.471372 -20.758491,-0.0812 -7.1244,-4.81975 -4.87667,4.8653 -15.267565,-0.005 -7.64725,-11.960042 z"
     id="path11939"
     sodipodi:nodetypes="cccccccc" /><g
     id="g11813"
     style="clip-rule:evenodd;fill-rule:evenodd;stroke-linecap:round;stroke-linejoin:round"
     transform="matrix(-1,0,0,1,165.5888,-1.3011551e-4)"><path
       style="clip-rule:evenodd;fill:#ffffff;fill-opacity:1;fill-rule:evenodd;stroke:#000000;stroke-width:2;stroke-linecap:round;stroke-linejoin:round;stroke-dasharray:none;stroke-opacity:1"
       d="M 53.387355,93.098356 111.86083,93.40148 110.17156,86.260005 54.833838,86.17913 Z"
       id="path10768"
       sodipodi:nodetypes="ccccc" /><path
       style="fill:#f2f2f2;fill-opacity:1;stroke:#000000;stroke-width:2;stroke-dasharray:none;stroke-opacity:1"
       d="m 65.750897,86.234133 c -0.03349,0.399803 -0.846974,6.8839 -0.846974,6.8839 z"
       id="path11776"
       sodipodi:nodetypes="ccc" /><path
       style="fill:#f2f2f2;fill-opacity:1;stroke:#000000;stroke-width:2;stroke-dasharray:none;stroke-opacity:1"
       d="m 105.23149,86.378699 1.18247,7.005554 z"
       id="path11780" /></g><g
     id="g885"
     style="clip-rule:evenodd;display:inline;fill-rule:evenodd;stroke-linejoin:round;stroke-miterlimit:1.5"><ellipse
       style="clip-rule:evenodd;fill:#d38d5f;fill-rule:evenodd;stroke:#000000;stroke-width:1.41913;stroke-linejoin:round;stroke-miterlimit:1.5;stroke-dasharray:none"
       id="path4138"
       ry="9.2917862"
       rx="26.870848"
       cy="63.341377"
       cx="83.144928" /><path
       style="clip-rule:evenodd;fill:#a05a2c;fill-rule:evenodd;stroke:#000000;stroke-width:1.3;stroke-linejoin:round;stroke-miterlimit:1.5;stroke-dasharray:none"
       d="m 51.132319,110.22096 c 25.45194,4.22112 41.89439,4.46104 65.421321,-0.99483 -1.74343,-12.897594 -0.24069,-2.47688 -6.55315,-46.428776 -13.943256,21.59473 -51.719095,9.388392 -53.210901,-2.191987 z"
       id="path4026"
       sodipodi:nodetypes="ccccc" /><path
       style="fill:#784421;stroke:#000000;stroke-width:0;stroke-dasharray:none"
       d="m 51.789676,109.67928 c 25.90451,4.18706 40.618464,4.46754 64.039694,-0.9557 l -1.22954,-9.212356 C 105.9169,109.71718 61.996766,111.99371 53.017597,99.402665 Z"
       id="path26544"
       sodipodi:nodetypes="ccccc" /><path
       style="fill:#ffffff;stroke:#000000;stroke-width:0;stroke-dasharray:none"
       d="m 52.057926,107.46608 -0.26545,2.22256 c 27.413333,4.48944 41.259745,4.14986 64.040784,-0.95968 l -0.2899,-2.10198 c -21.667068,4.61567 -34.1078,5.38505 -63.485434,0.8391 z"
       id="path5162"
       sodipodi:nodetypes="ccccc" /><path
       style="clip-rule:evenodd;fill:#000000;fill-rule:evenodd;stroke:#000000;stroke-width:0;stroke-linejoin:round;stroke-miterlimit:1.5;stroke-dasharray:none"
       d="m 51.913499,108.13067 -0.12141,0.87322 c 25.595179,4.09593 40.798515,4.54022 63.992751,-0.87108 l -0.13431,-0.84816 c -22.869753,5.05175 -37.56147,5.11132 -63.737031,0.84602 z"
       id="path5162-3"
       sodipodi:nodetypes="ccccc" /></g><g
     id="g3117"><path
       style="clip-rule:evenodd;display:inline;fill:#552200;fill-rule:evenodd;stroke:#000000;stroke-width:1.3;stroke-linejoin:round;stroke-miterlimit:1.5;stroke-dasharray:none"
       d="m 57.618827,60.280625 0.498415,22.670435 1.95878,5.095638 0.432269,-8.379651 2.536671,-11.300264 h 2.155048 l 1.653705,24.839143 4.345865,-23.865366 3.116466,0.220572 -1.083211,24.876356 5.40618,-25.454948 1.362224,17.190923 -1.260802,9.054573 3.629641,-8.549183 0.736729,-20.643135 h 1.56399 l 1.543634,25.693798 2.840749,-25.65701 2.403959,0.139741 1.589469,14.761156 -1.074309,9.047996 3.350514,-6.284755 0.586862,-18.756466 7.397295,15.884466 -0.1717,-17.817152 z"
       id="path2204" /><path
       style="clip-rule:evenodd;display:inline;fill:#803300;fill-rule:evenodd;stroke:#000000;stroke-width:1.3;stroke-linejoin:round;stroke-miterlimit:1.5;stroke-dasharray:none"
       d="m 114.42417,22.195318 c -7.48666,-27.4039148 -55.002141,-30.1352106 -62.783348,3.436904 -1.740593,14.361468 0.634468,24.85375 -1.068943,39.9463 -0.249677,11.148801 3.026388,12.565996 6.072143,22.307969 -0.903596,-8.778386 1.362339,-16.633255 4.410262,-25.270174 l 1.770263,16.879417 -1.408729,7.537285 1.205055,3.826538 3.875748,-12.638534 1.024025,-12.170525 3.407569,26.158356 c 1.503518,-7.882314 0.93486,-15.862967 5.984757,-22.206078 L 76.32061,95.3784 81.436432,68.187911 82.978325,93.191558 86.4142,71.809448 87.053513,65.984664 c 2.638625,7.892697 2.132717,16.299487 2.497284,24.523033 l 3.403244,-26.430885 3.609909,14.172806 -0.890053,10.068485 3.420663,-3.371784 c 2.29162,-10.204876 1.11617,-19.491103 -0.45754,-29.585205 l 1.51763,9.092762 c 2.14732,6.200071 2.82639,6.9158 8.40624,9.4752 -4.9914,-7.965504 -2.45835,-15.13888 -5.72122,-23.449867 -2.08895,-4.152412 -1.62482,-7.941604 -1.38932,-12.426704 1.30357,-5.633143 9.37114,-7.893282 13.00532,-12.121396 z"
       id="path18503"
       sodipodi:nodetypes="ccccccccccccccccccccccccccccc" /><path
       style="clip-rule:evenodd;fill:#552200;fill-rule:evenodd;stroke:#552200;stroke-width:1.3;stroke-linejoin:round;stroke-miterlimit:1.5;stroke-dasharray:none"
       d="M 61.348544,61.35437 C 62.509354,29.420249 76.003443,11.198196 101.98466,11.698703 110.70027,20.006322 74.08061,26.535407 61.348544,61.35437 Z"
       id="path1206"
       sodipodi:nodetypes="ccc" /><path
       style="clip-rule:evenodd;display:inline;fill:#552200;fill-rule:evenodd;stroke:#000000;stroke-width:0;stroke-linejoin:round;stroke-miterlimit:1.5;stroke-dasharray:none"
       d="M 52.038296,31.025717 C 51.428913,10.627143 72.713136,-3.5390919 94.454118,3.4121008 55.659203,8.7910182 65.026038,26.923796 52.038296,31.025717 Z"
       id="path2534"
       sodipodi:nodetypes="ccc"
       inkscape:label="path2534" /></g><g
     id="g7273"
     style="clip-rule:evenodd;display:inline;fill-rule:evenodd;stroke-linejoin:round;stroke-miterlimit:1.5"><path
       style="fill-rule:evenodd;clip-rule:evenodd;stroke-linejoin:round;stroke-miterlimit:1.5;fill:#ffffff;stroke:#000000;stroke-width:0;stroke-dasharray:none"
       d="M 65.387723,16.403211 74.128822,15.621376 69.94227,5.9010271 Z"
       id="path3016"
       sodipodi:nodetypes="cccc" /><path
       style="fill:#333333"
       d="m 64.093714,15.801409 -1.1,-0.5 L 69.941,0 l 6.684125,14.523961 -2.5,1.1 L 69.941,5.9 l -4.547286,10.501409 -1.3,-0.6"
       id="path18957"
       sodipodi:nodetypes="cccccccc" /><path
       style="fill-rule:evenodd;clip-rule:evenodd;stroke-linejoin:round;stroke-miterlimit:1.5;fill:#ffffff;stroke:#000000;stroke-width:0;stroke-dasharray:none"
       d="M 94.199988,15.545772 103.48132,18.791793 98.042984,5.9041733 Z"
       id="path3072" /><path
       style="fill:#333333"
       d="M 91.798641,14.440916 98.041,0 l 7.93797,17.698454 -2.5,1.1 L 98.041,5.9 l -3.842359,9.640916 -2.4,-1.1"
       id="path1156"
       sodipodi:nodetypes="ccccccc" /></g></svg>
