<?xml version="1.0" encoding="UTF-8" standalone="no"?>
<svg
   width="160"
   height="182"
   xml:space="preserve"
   style="fill-rule:evenodd;clip-rule:evenodd;stroke-linecap:round;stroke-linejoin:round"
   version="1.1"
   id="svg606"
   sodipodi:docname="front-standing.svg"
   inkscape:version="1.2.2 (b0a8486541, 2022-12-01)"
   xmlns:inkscape="http://www.inkscape.org/namespaces/inkscape"
   xmlns:sodipodi="http://sodipodi.sourceforge.net/DTD/sodipodi-0.dtd"
   xmlns="http://www.w3.org/2000/svg"
   xmlns:svg="http://www.w3.org/2000/svg"><sodipodi:namedview
     id="namedview608"
     pagecolor="#ffffff"
     bordercolor="#000000"
     borderopacity="0.25"
     inkscape:showpageshadow="2"
     inkscape:pageopacity="0"
     inkscape:pagecheckerboard="true"
     inkscape:deskcolor="#d1d1d1"
     showgrid="false"
     inkscape:zoom="16.000001"
     inkscape:cx="91.593746"
     inkscape:cy="20.562499"
     inkscape:window-width="1920"
     inkscape:window-height="1051"
     inkscape:window-x="0"
     inkscape:window-y="0"
     inkscape:window-maximized="1"
     inkscape:current-layer="svg606"
     showguides="false" /><path
     style="clip-rule:evenodd;fill:#552200;fill-rule:evenodd;stroke:#000000;stroke-width:1.3;stroke-linecap:round;stroke-linejoin:round;stroke-dasharray:none"
     d="m 51.60656,63.674446 1.554987,23.701312 60.853963,-21.29453 7.86929,-21.811106 -67.981762,1.709172 z"
     id="path2248"
     inkscape:label="path2248"
     sodipodi:nodetypes="cccccc" /><path
     d="M 83.751686,18.256664 87.100717,19.55425 90.341,23.1 l 7.8,-17.2 7.99376,12.584647 3.09492,2.815171 6.03026,6.107353 1.58106,2.892829 -0.0505,0.764158 0.0158,0.221632 c 2.8,2.733 3.80165,5.78121 4.13465,9.11421 v 1.2 c 0,2.2 -0.533,4.267 -1.6,6.2 l -0.5,0.9 -2.8,3.4 0.3,0.3 -0.6,0.5 -6.5,1.8 v 9.4 l -1.4,17.1 -0.1,5.5 -3,2.5 v 24.5 l -1.7,9.2 h -3 V 136 c 0,0.933 -0.3,1.7 -0.9,2.3 -0.733,0.733 -1.8,1.1 -3.2,1.1 -1.533,0 -2.633,-0.367 -3.3,-1.1 -0.6,-0.6 -0.867,-1.367 -0.8,-2.3 v -13.1 h -3.2 L 89.303149,100.40299 77.973155,100.90102 74.788,123.163 73.341,136 c 0,0.933 -0.3,1.7 -0.9,2.3 -0.733,0.733 -1.8,1.1 -3.2,1.1 -1.467,0 -2.567,-0.367 -3.3,-1.1 -0.6,-0.6 -0.867,-1.367 -0.8,-2.3 v -13.1 h -3.1 l -6.9,-17.8 0.9,-0.8 c 1,-0.8 1.9,-1.833 2.7,-3.1 l -2.5,-2 -1.4,1.9 0.8,-21.9 3.5,-25.6 0.8,0.7 1.5,-1.4 -2,-2.2 c -2.067,-2.533 -3.067,-5.3 -3,-8.3 l 0.1,-2 c 0.467,-3.067 2.1,-5.9 4.9,-8.5 l -1.5,-1.5 1,-7.9 1.3,0.6 7.7,-17.2"
     style="fill:#ffffff"
     id="path565"
     sodipodi:nodetypes="cccccccccccscccccccccccccsssccccccccssscccccccccccccccccccc" /><path
     style="fill:#333"
     d="m 55.141,105.1 c -0.933,0.6 -2,0.9 -3.2,0.9 -1.333,0 -3.133,-0.733 -5.4,-2.2 -1.533,-0.867 -2.8,-1.3 -3.8,-1.3 -1.133,0 -2,0.367 -2.6,1.1 l -1.2,1.9 -2.7,-1.5 2.4,-3.3 c 1.133,-1.067 2.433,-1.6 3.9,-1.6 1.467,0 3,0.533 4.6,1.6 2.2,1.133 3.9,1.7 5.1,1.7 0.8,0 1.667,-0.433 2.6,-1.3 l 1.4,-1.9 2.5,2 c -0.8,1.267 -1.7,2.3 -2.7,3.1 l -0.9,0.8"
     id="path12050" /><path
     d="m70.941 40.6-4 4 3.7 3.6m-3.7-3.6v-.1 5m0-4.9-3.7 3.6m-.3-7.6 4 3.9v-5.9"
     style="fill:none;fill-rule:nonzero;stroke:#fea5c0;stroke-width:2px"
     id="path571" /><path
     d="M58.959 52.541c.875 14.77-1.577 24.273-4.118 33.634h55.365l-.909-33.028-6.282-.076-9.78 12.309L80 52.794l-21.041-.253Z"
     style="fill:#ececec;stroke:#000;stroke-width:2px;stroke-miterlimit:1.5"
     id="path577" /><g
     id="g6084"
     style="fill-rule:evenodd;clip-rule:evenodd;stroke-linecap:round;stroke-linejoin:round"><rect
       style="fill-rule:evenodd;clip-rule:evenodd;stroke-linecap:round;stroke-linejoin:round;fill:#1a1a1a;stroke:#000000;stroke-width:0"
       id="rect5952"
       width="8.9279642"
       height="10.606449"
       x="64.732033"
       y="129.03795" /><path
       style="fill:#000000"
       d="m 73.341,122.9 h 3 v 13.2 c 0,1.667 -0.533,3.033 -1.6,4.1 -1.2,1.2 -3.033,1.8 -5.5,1.8 -2.533,0 -4.4,-0.6 -5.6,-1.8 -1.133,-1.067 -1.667,-2.433 -1.6,-4.1 v -13.2 h 3.1 V 136 c -0.067,0.933 0.2,1.7 0.8,2.3 0.733,0.733 1.833,1.1 3.3,1.1 1.4,0 2.467,-0.367 3.2,-1.1 0.6,-0.6 0.9,-1.367 0.9,-2.3 v -13.1"
       id="path12048" /><rect
       style="fill-rule:evenodd;clip-rule:evenodd;stroke-linecap:round;stroke-linejoin:round;fill:#1a1a1a;stroke:#000000;stroke-width:0"
       id="rect5952-3"
       width="8.9279642"
       height="10.606449"
       x="91.190346"
       y="129.03207"
       inkscape:label="rect5952-3" /><path
       style="fill:#000000"
       d="m 103.041,122.9 v 13.2 c 0,1.667 -0.533,3.033 -1.6,4.1 -1.2,1.2 -3.033,1.8 -5.5,1.8 -2.6,0 -4.5,-0.6 -5.7,-1.8 -1.067,-1.067 -1.6,-2.433 -1.6,-4.1 v -13.2 h 3.2 V 136 c -0.067,0.933 0.2,1.7 0.8,2.3 0.667,0.733 1.767,1.1 3.3,1.1 1.4,0 2.467,-0.367 3.2,-1.1 0.6,-0.6 0.9,-1.367 0.9,-2.3 v -13.1 h 3"
       id="path12046" /></g><rect
     style="clip-rule:evenodd;fill:#784421;fill-rule:evenodd;stroke:#000000;stroke-width:1.1186;stroke-linecap:round;stroke-linejoin:round;stroke-dasharray:none"
     id="rect3597"
     width="28.322695"
     height="18.640316"
     x="73.557213"
     y="89.844154"
     transform="rotate(2.5816999)" /><g
     id="g4320"
     style="fill-rule:evenodd;clip-rule:evenodd;stroke-linecap:round;stroke-linejoin:round"><path
       style="fill-rule:evenodd;clip-rule:evenodd;stroke-linecap:round;stroke-linejoin:round;fill:#483737;fill-opacity:1;stroke:#000000;stroke-width:2;stroke-dasharray:none;stroke-opacity:1"
       d="m 54.949237,100.41647 8.306873,27.96069 12.06061,-0.129 3.181664,-27.9194 9.585515,-0.419907 1.614978,28.583317 12.353603,0.15902 2.08525,-27.55016 z"
       id="path12039"
       sodipodi:nodetypes="ccccccccc" /><path
       style="fill:#241c1c;stroke:#000000;stroke-width:0"
       d="m 58.931184,110.2907 c 5.070933,17.14553 15.441903,17.07562 17.098546,2.79516 0.331743,-2.85966 -1.608154,14.17389 -1.608154,14.17389 l -10.424591,0.10929 c 0,0 -5.978451,-20.16414 -5.065801,-17.07834 z"
       id="path4210"
       sodipodi:nodetypes="ssccs" /><path
       style="fill:#241c1c;stroke:#000000;stroke-width:0"
       d="m 89.46708,106.74003 c 1.725458,29.95486 12.26161,11.04651 13.24114,0 0.11115,-1.2535 -1.57696,20.90797 -1.57696,20.90797 l -10.481624,-0.14058 c 0,0 -1.261541,-22.1386 -1.182556,-20.76739 z"
       id="path4315"
       sodipodi:nodetypes="ssccs" /></g><path
     style="fill-rule:evenodd;clip-rule:evenodd;stroke-linecap:round;stroke-linejoin:round;fill:#333333;fill-opacity:1;stroke:#000000;stroke-width:2;stroke-dasharray:none;stroke-opacity:1"
     d="m 53.277927,93.310347 2.759703,12.471373 20.758497,-0.0812 7.124396,-4.81975 4.876668,4.8653 15.267559,-0.005 7.64725,-11.960046 z"
     id="path11939"
     sodipodi:nodetypes="cccccccc" /><g
     id="g11813"
     style="fill-rule:evenodd;clip-rule:evenodd;stroke-linecap:round;stroke-linejoin:round"><path
       style="fill-rule:evenodd;clip-rule:evenodd;stroke-linecap:round;stroke-linejoin:round;fill:#ffffff;fill-opacity:1;stroke:#000000;stroke-width:2;stroke-dasharray:none;stroke-opacity:1"
       d="M 53.387355,93.098356 111.86083,93.40148 110.17156,86.260005 54.833838,86.17913 Z"
       id="path10768"
       sodipodi:nodetypes="ccccc" /><path
       style="fill:#f2f2f2;fill-opacity:1;stroke:#000000;stroke-width:2;stroke-dasharray:none;stroke-opacity:1"
       d="m 65.750897,86.234133 c -0.03349,0.399803 -0.846974,6.8839 -0.846974,6.8839 z"
       id="path11776"
       sodipodi:nodetypes="ccc" /><path
       style="fill:#f2f2f2;fill-opacity:1;stroke:#000000;stroke-width:2;stroke-dasharray:none;stroke-opacity:1"
       d="m 105.23149,86.378699 1.18247,7.005554 z"
       id="path11780" /><path
       style="fill:#d4aa00;fill-opacity:1;stroke:#000000;stroke-width:2;stroke-dasharray:none;stroke-opacity:1"
       d="m 86.002239,86.24749 -0.932602,7.011433 9.996277,-0.0086 -0.583901,-6.930167 z"
       id="path11807"
       sodipodi:nodetypes="ccccc" /><path
       style="fill-rule:evenodd;clip-rule:evenodd;stroke-linecap:round;stroke-linejoin:round;fill:#ffcc00;stroke:#000000;stroke-width:0;stroke-dasharray:none"
       d="m 86.185158,92.279144 7.370213,-4.958641 0.41658,4.926668 z"
       id="path1190" /></g><g
     id="g4224"
     style="clip-rule:evenodd;display:inline;fill-rule:evenodd;stroke-linecap:round;stroke-linejoin:round"><path
       style="clip-rule:evenodd;fill:#a05a2c;fill-opacity:1;fill-rule:evenodd;stroke:#000000;stroke-width:1.3;stroke-linecap:round;stroke-linejoin:round;stroke-dasharray:none;stroke-opacity:1"
       d="m 98.897302,68.940837 10.664278,-7.935498 10.73601,48.552451 -18.71801,4.11645 -1.36795,-31.230419 C 98.097751,77.77925 97.541026,73.509609 98.897302,68.940837 Z"
       id="path12394"
       sodipodi:nodetypes="cccccc" /><path
       style="clip-rule:evenodd;fill:#a05a2c;fill-opacity:1;fill-rule:evenodd;stroke:#000000;stroke-width:1.3;stroke-linecap:round;stroke-linejoin:round;stroke-dasharray:none;stroke-opacity:1"
       d="m 59.068077,56.830303 c 11.676486,3.533731 13.975278,2.386323 17.290165,11.160228 l -1.960605,5.496123 4.345981,7.463972 -0.103693,31.894144 -29.574743,-4.80834 z"
       id="path12384"
       sodipodi:nodetypes="ccccccc" /><path
       style="fill:#784421;stroke:#000000;stroke-width:0"
       d="m 54.768341,82.265379 c 0,0 23.193161,48.761641 23.279997,12.795107 0.01014,-4.202092 -0.04118,17.023814 -0.04118,17.023814 l -28.176587,-4.58247 z"
       id="path3374"
       sodipodi:nodetypes="csccc" /><path
       style="fill:#784421;stroke:#000000;stroke-width:0"
       d="m 101.40341,94.816835 c 1.42234,30.299855 14.22423,-3.340511 14.22423,-3.340511 l 3.89597,17.585386 -17.33444,3.81611 c 0,0 -1.06232,-23.952445 -0.78576,-18.060985 z"
       id="path3430"
       sodipodi:nodetypes="scccs" /></g><g
     id="g22587"
     style="clip-rule:evenodd;fill-rule:evenodd;stroke-linecap:round;stroke-linejoin:round"
     transform="translate(-0.09852433,0.01403761)"><path
       style="clip-rule:evenodd;display:inline;fill:none;fill-rule:evenodd;stroke:#1a1a1a;stroke-width:1.8;stroke-linecap:butt;stroke-linejoin:bevel;stroke-dasharray:none;paint-order:normal"
       d="m 69.995047,69.126162 c -2.649114,2.882614 -2.011788,10.812214 3.749271,13.205988"
       id="path14673"
       sodipodi:nodetypes="cc" /><rect
       style="fill:none;stroke:#666666;stroke-width:0.400022;stroke-linecap:butt;stroke-linejoin:miter;stroke-dasharray:none;paint-order:normal"
       id="rect16775"
       width="1.9711097"
       height="2.5576339"
       x="46.442162"
       y="90.578979"
       transform="matrix(0.96393677,-0.26613135,0.25167949,0.96781064,0,0)" /></g><path
     style="fill-rule:nonzero;clip-rule:evenodd;stroke-linecap:round;stroke-linejoin:round;fill:none;stroke:#333;stroke-width:2px"
     d="m 105.341,40 h -19 l -2.2,-2"
     id="path538" /><g
     id="gikopoipoi_eyes_open"><circle
       cx="76.815"
       cy="30"
       r="2.266"
       style="fill:none;stroke:#000;stroke-width:1.5px;stroke-linecap:butt;stroke-miterlimit:1.5"
       id="circle593" /><circle
       cx="110.808"
       cy="30"
       r="2.266"
       style="fill:none;stroke:#000;stroke-width:1.5px;stroke-linecap:butt;stroke-miterlimit:1.5"
       id="circle595" /></g><path
     d="m 107.46,30.1 h 6.3 m -40.141,0 h 6.3"
     style="display:none;fill:none;fill-rule:nonzero;stroke:#000000;stroke-width:3px"
     id="gikopoipoi_eyes_closed" /><defs
     id="defs604"><inkscape:path-effect
       effect="bspline"
       id="path-effect14669"
       is_visible="true"
       lpeversion="1"
       weight="33.333333"
       steps="2"
       helper_size="0"
       apply_no_weight="true"
       apply_with_weight="true"
       only_selected="false" /><inkscape:path-effect
       effect="spiro"
       id="path-effect14479"
       is_visible="true"
       lpeversion="1" /><inkscape:path-effect
       effect="spiro"
       id="path-effect13267"
       is_visible="true"
       lpeversion="1" /><inkscape:path-effect
       effect="spiro"
       id="path-effect13263"
       is_visible="true"
       lpeversion="1" /><radialGradient
       id="a"
       cx="0"
       cy="0"
       r="1"
       gradientUnits="userSpaceOnUse"
       gradientTransform="matrix(7.43072 -4.12727 2.09827 8.5577 109.529 61.373)"><stop
         offset="0"
         style="stop-color:#d8c1a9;stop-opacity:1"
         id="stop599" /><stop
         offset="1"
         style="stop-color:#fffcec;stop-opacity:1"
         id="stop601" /></radialGradient></defs><g
     id="g12890"
     style="clip-rule:evenodd;display:inline;fill-rule:evenodd;stroke-linecap:round;stroke-linejoin:round"><path
       d="m 80,52.794 -20.959,-0.253 9.293,1.751 25.51,18.358 z"
       style="fill:#ececec;fill-opacity:1;stroke:#000000;stroke-width:2px;stroke-miterlimit:1.5"
       id="path579" /><path
       d="m 103.134,52.541 h 8.52 L 93.844,72.65 Z"
       style="clip-rule:evenodd;fill:#ececec;fill-opacity:1;fill-rule:evenodd;stroke:#000000;stroke-width:2px;stroke-linecap:round;stroke-linejoin:round;stroke-miterlimit:1.5"
       id="path581" /><path
       style="fill:#000000;stroke:#161650;stroke-width:0.8;stroke-linecap:butt;stroke-dasharray:none"
       d="M 69.372893,53.389439 89.892164,68.156484"
       id="path8506"
       sodipodi:nodetypes="cc" /><path
       style="clip-rule:evenodd;fill:#000000;fill-rule:evenodd;stroke:#161650;stroke-width:0.8;stroke-linecap:butt;stroke-linejoin:round;stroke-dasharray:none"
       d="M 109.16983,53.283127 97.31997,66.712272"
       id="path8506-3"
       sodipodi:nodetypes="cc" /></g><g
     id="g11769"
     style="display:inline"><path
       style="fill:#aa0000;fill-opacity:1;stroke:#000000;stroke-width:2.54;stroke-opacity:1"
       d="m 90.208757,66.409175 6.586877,-0.313378 -1.141163,3.858115 -3.752841,-0.162097 z"
       id="path6541" /><path
       style="fill:#aa0000;fill-opacity:1;stroke:#000000;stroke-width:2.54;stroke-opacity:1"
       d="m 92.820838,70.747638 -3.763909,29.496392 4.347838,6.65067 3.994368,-6.34656 -2.846637,-29.746285 z"
       id="path6543" /><path
       style="fill:#800000;fill-opacity:1;stroke:#000000;stroke-width:0;stroke-dasharray:none;stroke-opacity:1"
       d="m 94.58559,84.449882 c -1.857076,-1.669271 -2.125976,-0.913109 -2.125976,-0.913109 l -2.075666,16.506237 3.024708,4.62277 2.661242,-4.43673 z"
       id="path7013"
       sodipodi:nodetypes="cccccc" /></g><g
     id="g5727"
     style="display:inline"><path
       style="clip-rule:evenodd;display:inline;fill:#803300;fill-rule:evenodd;stroke:#000000;stroke-width:1.3;stroke-linecap:round;stroke-linejoin:round;stroke-dasharray:none"
       d="m 46.005245,80.398118 4.381122,-49.987824 c 19.531297,-51.95569 65.329663,-23.7290143 71.468763,-2.117597 -0.29574,17.702316 2.85693,28.780602 -3.45853,44.589411 l 1.4192,24.697998 c -10.43008,-26.178177 -6.88531,-25.400165 0.93244,-52.086809 l -14.25494,24.225575 7.42328,-24.803878 c 3.75019,-18.795563 6.21847,-12.397843 -7.79038,-26.684324 -3.57612,5.954245 -3.12815,12.770453 -10.303865,15.753708 -7.516178,-4.04207 -7.97202,-13.901114 -15.853517,-14.348814 l -6.506592,5.785717 C 67.728619,31.155399 62.938629,35.465427 63.975574,46.604863 L 65.493317,72.70271 58.597087,59.896669 55.092702,49.032363 Z"
       id="path528"
       sodipodi:nodetypes="ccccccccccccccccc" /><path
       style="fill:#552200;stroke:#000000;stroke-width:0"
       d="m 47.230669,73.819815 3.7945,-43.262138 c 4.823695,13.87723 -1.190001,28.91543 -3.7945,43.262138 z"
       id="path4265"
       sodipodi:nodetypes="ccc" /></g><path
     d="M 67.753299,69.243872 C 71.914299,68.063872 78.564,66.352 82.375,65.522 c 8.29,0.345 11.631,6.594 7.427,10.785 -3.888,2.291 -7.923,3.407 -12.162,2.893 -3.854,-3.25 -4.22,-7.352 -0.265,-12.511 m 20.561,2.085 c 4.161,-1.18 8.157,-2.195 11.968,-3.024 8.29,0.344 11.631,6.593 7.427,10.784 -3.888,2.291 -7.923,3.407 -12.162,2.893 -3.854,-3.25 -4.22,-7.352 -0.265,-12.51"
     style="clip-rule:evenodd;display:inline;fill:#ffffff;fill-rule:evenodd;stroke:#000000;stroke-width:2.5px;stroke-linecap:butt;stroke-linejoin:round;stroke-miterlimit:1.5"
     id="path587"
     sodipodi:nodetypes="cccccccccc" /><g
     id="g5733"
     style="fill-rule:evenodd;clip-rule:evenodd;stroke-linecap:round;stroke-linejoin:round"><path
       style="clip-rule:evenodd;fill:#333333;fill-rule:evenodd;stroke-linecap:round;stroke-linejoin:round"
       d="M 89.258028,16.328738 98.141,0 l 7.97947,16.092992 -2.5,1.1 L 98.141,5.9 l -6.482972,11.528738 -2.4,-1.1"
       id="path567"
       inkscape:label="path567"
       sodipodi:nodetypes="ccccccc" /><path
       style="clip-rule:evenodd;fill:#333333;fill-rule:evenodd;stroke-linecap:round;stroke-linejoin:round"
       d="m 60.941,22.5 -1.1,-0.5 10.1,-22 7.934909,16.824069 -2.5,1.1 L 69.941,5.9 l -7.7,17.2 -1.3,-0.6"
       id="path12054"
       sodipodi:nodetypes="cccccccc" /><path
       style="fill:#ffffff;stroke:#000000;stroke-width:0;stroke-dasharray:none"
       d="M 62.241739,23.094333 75.379452,17.921142 69.939094,5.8947489 Z"
       id="path2779"
       sodipodi:nodetypes="cccc" /><path
       style="fill:#ffffff;stroke:#000000;stroke-width:0;stroke-dasharray:none"
       d="M 91.66391,17.432021 103.61933,17.190753 98.141518,5.8789237 Z"
       id="path2781"
       sodipodi:nodetypes="cccc" /></g><g
     id="g1885"><path
       style="fill:#ffffff;stroke:#000000;stroke-width:0"
       d="m 50.233046,105.44292 27.780873,4.42373 -0.0058,2.2184 -28.180095,-4.57831 z"
       id="path899" /><path
       style="fill:#ffffff;stroke:#000000;stroke-width:0"
       d="m 102.08795,110.62221 16.97499,-3.63056 0.46327,2.08053 -17.33983,3.81034 z"
       id="path1674"
       sodipodi:nodetypes="ccccc" /><path
       style="fill:#000000;stroke:#000000;stroke-width:0"
       d="m 50.097803,106.04227 27.929743,4.44213 9.27e-4,0.95558 -28.089229,-4.55473 z"
       id="path1855"
       sodipodi:nodetypes="ccccc" /><path
       style="fill:#000000;stroke:#000000;stroke-width:0"
       d="m 102.10082,111.32907 0.0123,0.86527 17.30188,-3.77674 -0.16797,-0.79747 z"
       id="path1902"
       sodipodi:nodetypes="ccccc" /><path
       style="fill:#ffffff;stroke:#000000;stroke-width:0"
       d="m 74.599683,68.695549 -2.94475,0.77416 c -2.205516,4.573629 -0.489964,9.70368 2.645956,11.796457 L 77.19008,80.384901 C 72.994384,77.293134 72.432369,72.755659 74.599683,68.695549 Z"
       id="path4878"
       sodipodi:nodetypes="ccccc" /><path
       style="clip-rule:evenodd;fill:#000000;fill-rule:evenodd;stroke:#000000;stroke-width:0;stroke-linecap:round;stroke-linejoin:round"
       d="m 73.658004,68.931287 -1.202429,0.297149 c -2.385502,5.452887 -0.07102,9.854678 2.622029,11.805768 l 1.114831,-0.345481 C 72.239282,77.006874 71.845616,73.451445 73.658004,68.931287 Z"
       id="path4878-6"
       sodipodi:nodetypes="ccccc" /><path
       style="clip-rule:evenodd;fill:#ffffff;fill-rule:evenodd;stroke:#000000;stroke-width:0;stroke-linecap:round;stroke-linejoin:round"
       d="m 103.2467,68.63371 -2.94476,0.77416 c -2.205509,4.573629 -0.489958,9.70368 2.64596,11.796457 l 2.82198,-0.483044 C 101.57419,77.629516 101.07937,72.69382 103.2467,68.63371 Z"
       id="path4878-3"
       sodipodi:nodetypes="ccccc" /><path
       style="clip-rule:evenodd;fill:#000000;fill-rule:evenodd;stroke:#000000;stroke-width:0;stroke-linecap:round;stroke-linejoin:round"
       d="m 102.30502,68.869448 -1.20244,0.297149 c -2.385493,5.452887 -0.0536,9.956849 2.63945,11.907939 l 1.16665,-0.202371 c -4.10041,-3.681849 -4.41605,-7.482559 -2.60366,-12.002717 z"
       id="path4878-6-6"
       sodipodi:nodetypes="ccccc" /></g></svg>
