<?xml version="1.0" encoding="UTF-8" standalone="no"?>
<svg xmlns:xlink="http://www.w3.org/1999/xlink" height="67.25px" width="42.0px" xmlns="http://www.w3.org/2000/svg">
  <g transform="matrix(1.0, 0.0, 0.0, 1.0, 21.25, 67.25)">
    <use height="67.25" transform="matrix(1.0, 0.0, 0.0, 1.0, -21.25, -67.25)" width="42.0" xlink:href="#shape0"/>
    <use height="3.05" transform="matrix(0.9976, 0.0, 0.0, 0.9756, -5.1873, -53.8674)" width="21.45" xlink:href="#sprite0"/>
    <use height="9.6" transform="matrix(1.0, 0.0, 0.0, 1.0, 4.65, -9.65)" width="7.1" xlink:href="#shape2"/>
  </g>
  <defs>
    <g id="shape0" transform="matrix(1.0, 0.0, 0.0, 1.0, 21.25, 67.25)">
      <path d="M-17.15 -24.25 L-17.15 -24.1 -17.3 -22.6 -17.15 -24.25 M-17.3 -16.75 Q-16.75 -15.05 -15.4 -13.8 L-14.95 -13.45 -15.25 -13.6 Q-17.1 -14.75 -17.3 -16.75 M-14.7 -21.65 L-14.6 -22.85 Q-14.45 -24.75 -14.45 -26.75 L-14.45 -26.8 Q-14.15 -24.65 -14.4 -22.5 L-14.6 -21.85 -14.7 -21.65" fill="#e7e0dc" fill-rule="evenodd" stroke="none"/>
      <path d="M-17.95 -35.55 L-19.35 -35.8 -19.6 -35.75 -19.1 -35.9 -17.95 -35.55 M-19.65 -32.3 L-19.5 -32.05 -19.65 -32.25 -19.65 -32.3" fill="#58463f" fill-rule="evenodd" stroke="none"/>
      <path d="M-17.95 -35.55 L-17.8 -35.45 -17.5 -35.15 -16.75 -34.4 -16.75 -34.3 -16.7 -34.25 -16.7 -34.2 -16.55 -34.1 -16.5 -33.85 -16.4 -33.65 -16.35 -33.6 -16.25 -33.5 -16.25 -33.2 -16.25 -33.15 -16.05 -32.8 -15.9 -32.35 -15.0 -29.35 -14.95 -29.15 -14.65 -27.85 -14.45 -26.8 -14.45 -26.75 Q-14.45 -24.75 -14.6 -22.85 L-14.7 -21.65 -14.85 -20.85 -14.9 -20.45 -14.75 -19.7 -14.75 -19.5 -14.45 -18.8 -14.1 -18.0 -14.05 -17.85 Q-13.6 -16.5 -12.4 -15.75 L-12.35 -15.85 -12.3 -15.9 -12.05 -15.95 -11.9 -15.65 Q-12.05 -14.55 -11.55 -13.9 -11.05 -13.35 -11.1 -13.1 -11.15 -12.85 -10.65 -12.5 -10.2 -11.5 -10.4 -11.45 L-12.2 -12.1 -14.95 -13.45 -15.4 -13.8 Q-16.75 -15.05 -17.3 -16.75 L-17.35 -16.95 -17.3 -22.2 -17.3 -22.6 -17.15 -24.1 -17.15 -24.25 Q-16.9 -25.95 -17.4 -27.6 L-17.6 -28.3 -17.75 -28.9 -18.35 -31.0 -18.45 -31.0 -18.5 -31.1 -18.75 -31.1 -19.05 -31.45 -19.4 -32.0 -19.5 -32.05 -19.65 -32.3 -19.7 -32.6 -20.1 -33.15 -20.15 -33.25 -20.55 -34.2 -20.5 -35.25 -20.45 -35.3 -19.6 -35.75 -19.35 -35.8 -17.95 -35.55" fill="#fefbf5" fill-rule="evenodd" stroke="none"/>
      <path d="M-17.95 -35.55 L-19.35 -35.8 -19.6 -35.75 Q-21.1 -35.65 -20.65 -34.4 L-20.55 -34.2 -20.15 -33.25 M-19.65 -32.3 L-19.5 -32.05 M-17.75 -28.9 L-17.6 -28.3 M-17.15 -24.25 L-17.15 -24.1 -17.3 -22.6 M-17.3 -16.75 Q-16.75 -15.05 -15.4 -13.8 L-14.95 -13.45 -12.2 -12.1 -10.4 -11.45 M-14.7 -21.65 L-14.6 -22.85 Q-14.45 -24.75 -14.45 -26.75 L-14.45 -26.8 Q-14.55 -28.75 -15.0 -30.5 -15.55 -32.35 -16.4 -34.05 -17.0 -35.15 -17.95 -35.55 M-17.75 -28.9 Q-18.2 -30.2 -19.0 -31.35 L-19.5 -32.05 M-19.65 -32.3 L-20.15 -33.25 M-17.15 -24.25 Q-17.15 -26.05 -17.5 -27.85 L-17.6 -28.3 M-14.7 -21.65 Q-14.75 -20.3 -14.4 -19.05 -13.95 -17.25 -12.35 -15.85 M-17.3 -16.75 L-17.4 -17.0 Q-17.95 -18.85 -17.55 -20.75 L-17.3 -22.6" fill="none" stroke="#4f1d17" stroke-linecap="round" stroke-linejoin="round" stroke-width="1.0"/>
      <path d="M4.65 -56.05 Q6.05 -54.65 7.9 -53.65 11.0 -51.95 14.95 -52.0 L19.3 -52.35 19.35 -52.45 19.85 -52.9 20.05 -52.8 Q19.95 -51.5 20.6 -49.85 19.0 -47.7 18.6 -45.0 17.0 -43.4 17.3 -41.25 L17.3 -41.2 17.55 -40.1 17.4 -38.6 Q17.2 -32.65 18.1 -27.0 L17.65 -26.95 17.2 -26.8 Q14.75 -25.15 14.7 -20.65 L14.7 -17.9 15.3 -18.1 14.7 -17.6 14.6 -14.95 14.85 -14.1 14.9 -14.0 14.9 -14.1 17.05 -14.1 17.05 -13.9 17.05 -13.6 Q16.2 -12.8 16.1 -11.5 L16.05 -11.4 Q15.15 -10.65 14.6 -9.65 13.8 -9.6 13.35 -9.05 L13.2 -8.75 13.0 -8.75 12.75 -8.8 12.5 -8.6 12.45 -8.5 12.45 -8.45 12.0 -7.95 11.5 -7.65 10.9 -7.5 10.9 -6.95 10.8 -5.45 Q10.8 -3.75 10.3 -2.15 L9.8 -1.55 7.4 -1.45 6.95 -1.65 Q6.25 -1.9 5.9 -2.6 L5.4 -4.35 5.1 -7.0 4.85 -6.95 Q4.05 -7.0 3.8 -7.45 L3.35 -7.75 Q2.5 -7.95 2.15 -8.6 L0.8 -7.45 Q0.1 -6.9 -0.25 -7.25 -1.0 -6.2 -0.7 -4.45 L-0.6 -4.2 -0.8 -3.5 -0.95 -2.7 -1.05 -1.85 -2.9 -0.1 -4.2 -1.2 -5.15 -1.85 -5.85 -2.25 -5.75 -2.6 -6.0 -3.5 -6.1 -5.0 -6.1 -5.95 -5.95 -6.6 -6.15 -7.0 -5.7 -7.15 Q-3.45 -7.85 -2.45 -9.85 L-1.55 -11.65 0.7 -16.05 Q0.95 -16.5 0.45 -17.0 -0.8 -18.3 -3.55 -16.15 -6.3 -14.0 -10.95 -14.65 -10.1 -16.95 -7.85 -18.3 -5.3 -19.85 -5.6 -23.95 -5.7 -25.75 -6.25 -27.45 L-6.65 -28.45 Q-8.15 -32.15 -7.2 -35.75 -6.9 -36.85 -7.05 -38.25 -7.35 -40.8 -9.5 -41.4 L-10.4 -41.55 Q-10.7 -43.4 -12.95 -43.95 L-13.3 -44.35 -13.55 -45.15 -13.95 -46.65 -14.05 -48.9 -13.75 -49.85 -12.8 -51.05 -10.35 -49.0 Q-8.0 -47.3 -3.7 -47.75 -0.2 -48.15 2.4 -49.8 5.05 -51.5 4.65 -56.05 M6.1 -32.45 L6.2 -31.85 6.15 -32.45 6.1 -32.45 M3.1 -28.8 L4.4 -29.1 4.7 -29.25 4.8 -29.3 5.2 -29.55 Q6.25 -30.4 6.2 -31.65 6.2 -30.55 5.2 -29.75 L4.8 -29.5 4.4 -29.3 4.25 -29.25 3.1 -29.0 3.05 -29.0 2.55 -28.65 1.85 -28.5 Q0.55 -28.35 -0.55 -28.95 L-1.0 -29.25 -1.6 -30.2 Q-1.65 -29.7 -1.2 -29.25 L-0.55 -28.75 Q0.55 -28.15 1.85 -28.3 L2.55 -28.45 3.05 -28.8 3.1 -28.8" fill="#fefbf5" fill-rule="evenodd" stroke="none"/>
      <path d="M2.7 -58.5 L3.1 -57.95 4.65 -56.05 Q5.05 -51.5 2.4 -49.8 -0.2 -48.15 -3.7 -47.75 -8.0 -47.3 -10.35 -49.0 L-12.8 -51.05 -12.05 -52.15 -12.0 -52.25 -12.1 -52.35 -11.8 -52.7 -10.85 -54.25 -9.7 -55.6 -9.55 -56.1 -9.65 -56.5 -9.7 -56.55 -9.85 -56.95 -10.0 -57.15 -10.1 -57.2 -10.05 -57.3 -9.9 -58.35 Q-9.75 -59.65 -9.95 -60.65 L-10.25 -61.7 -9.75 -64.15 -9.65 -64.7 -9.0 -65.85 -8.65 -65.6 Q-9.25 -65.3 -9.4 -64.6 -9.05 -65.3 -8.1 -65.5 -6.2 -65.0 -4.7 -63.6 L-4.45 -63.35 -3.3 -62.6 -3.0 -62.0 -2.3 -61.3 Q-1.55 -60.6 -1.15 -59.75 -0.75 -59.5 -0.65 -58.9 0.4 -58.1 1.4 -58.5 2.1 -58.25 2.7 -58.5 M18.35 -20.15 L18.3 -19.7 18.3 -19.45 18.15 -19.2 18.1 -18.75 17.85 -17.45 17.7 -16.95 17.7 -16.7 17.55 -15.75 Q17.4 -15.1 17.05 -15.05 L17.05 -14.35 17.05 -14.1 14.9 -14.1 14.9 -14.0 14.85 -14.1 14.6 -14.95 14.7 -17.6 15.3 -18.1 Q16.35 -19.75 18.35 -20.15 M-6.15 -7.0 L-6.55 -7.75 Q-7.3 -8.9 -8.65 -9.65 L-9.55 -10.9 -8.0 -12.3 Q-4.45 -14.25 -2.15 -11.95 L-2.05 -11.95 Q-1.7 -11.9 -1.55 -11.65 L-2.45 -9.85 Q-3.45 -7.85 -5.7 -7.15 L-6.15 -7.0 M-11.9 -34.7 L-11.45 -35.85 -11.35 -36.2 -10.7 -38.65 -10.5 -39.55 -10.5 -39.6 -10.35 -40.7 -10.4 -41.55 -9.5 -41.4 Q-7.35 -40.8 -7.05 -38.25 -6.9 -36.85 -7.2 -35.75 -8.15 -32.15 -6.65 -28.45 L-6.25 -27.45 Q-7.85 -28.25 -8.45 -30.05 -9.55 -33.45 -11.9 -34.7" fill="#fce6a5" fill-rule="evenodd" stroke="none"/>
      <path d="M2.7 -58.5 L3.1 -58.75 Q4.55 -58.55 5.65 -59.35 L5.7 -59.4 Q5.9 -59.6 5.75 -59.85 L5.8 -59.9 6.35 -60.7 Q8.2 -62.0 9.5 -64.45 L9.6 -64.65 9.75 -64.75 11.45 -65.65 12.5 -66.45 15.0 -66.85 Q14.65 -65.4 14.65 -64.2 L14.75 -63.35 14.8 -62.85 14.85 -62.55 14.9 -62.55 14.95 -62.45 15.05 -61.9 15.4 -61.1 Q15.1 -60.3 15.4 -59.4 14.9 -58.7 15.15 -57.7 L15.15 -57.05 15.7 -56.9 15.75 -56.85 Q16.95 -56.45 17.65 -55.3 L17.7 -55.05 17.7 -55.0 17.85 -54.9 17.95 -54.65 17.95 -54.35 18.75 -53.65 19.85 -52.9 19.35 -52.45 19.3 -52.35 14.95 -52.0 Q11.0 -51.95 7.9 -53.65 6.05 -54.65 4.65 -56.05 L3.1 -57.95 2.7 -58.5 M18.1 -27.0 L18.7 -23.6 18.55 -23.4 18.35 -22.45 18.35 -21.75 18.35 -20.15 Q16.35 -19.75 15.3 -18.1 L14.7 -17.9 14.7 -20.65 Q14.75 -25.15 17.2 -26.8 L17.65 -26.95 18.1 -27.0 M-9.55 -10.9 L-10.85 -12.35 -11.45 -12.9 -11.55 -12.95 -11.85 -13.9 Q-12.75 -16.65 -12.8 -19.7 L-12.8 -19.95 -13.0 -22.0 -13.15 -22.75 -13.6 -24.1 -13.3 -26.85 -13.2 -27.55 -13.2 -27.6 -13.05 -29.25 -13.0 -31.05 -13.1 -33.1 -12.55 -33.7 -11.9 -34.7 Q-9.55 -33.45 -8.45 -30.05 -7.85 -28.25 -6.25 -27.45 -5.7 -25.75 -5.6 -23.95 -5.3 -19.85 -7.85 -18.3 -10.1 -16.95 -10.95 -14.65 -6.3 -14.0 -3.55 -16.15 -0.8 -18.3 0.45 -17.0 0.95 -16.5 0.7 -16.05 L-1.55 -11.65 Q-1.7 -11.9 -2.05 -11.95 L-2.15 -11.95 Q-4.45 -14.25 -8.0 -12.3 L-9.55 -10.9" fill="#3d3d3d" fill-rule="evenodd" stroke="none"/>
      <path d="M-7.05 -9.6 L-7.05 -2.95 Q-7.05 -1.75 -6.25 -0.9 -5.35 -0.05 -3.45 0.0 -1.55 -0.05 -0.65 -0.9 0.15 -1.75 0.15 -2.95 L0.15 -9.6 -1.4 -9.6 -1.4 -3.0 Q-1.4 -2.3 -1.8 -1.85 -2.35 -1.35 -3.45 -1.3 -4.55 -1.35 -5.1 -1.85 -5.55 -2.3 -5.55 -3.0 L-5.55 -9.6 -7.05 -9.6" fill="#4f1d17" fill-rule="evenodd" stroke="none"/>
      <path d="M5.35 -58.6 Q6.3 -60.9 7.85 -62.55 L10.7 -65.1 13.35 -66.55 Q14.65 -67.2 14.8 -65.5 L15.15 -61.9 Q15.35 -60.0 14.75 -57.05 M5.1 -58.55 L4.1 -58.6 2.85 -58.65 1.7 -58.65 -0.45 -58.35 Q-1.05 -59.85 -2.6 -61.5 -4.15 -63.2 -5.45 -64.05 -6.8 -64.9 -8.1 -65.5 -9.4 -66.15 -9.55 -64.45 L-9.9 -60.85 Q-10.1 -58.95 -9.5 -56.0 M17.3 -41.35 Q17.05 -36.5 17.15 -32.8 17.2 -29.9 17.65 -27.1 L18.0 -25.3 18.35 -22.6 Q18.55 -20.25 18.15 -17.85 17.85 -15.9 17.05 -14.05 16.35 -12.45 15.25 -10.95 14.3 -9.7 13.0 -8.9 L12.45 -8.65 11.85 -8.35 M-9.95 -40.65 L-10.5 -39.6 Q-11.6 -37.45 -12.2 -35.15 L-12.55 -33.7 -13.0 -31.05 -13.2 -27.6 -13.2 -27.55 -13.0 -22.0 -12.8 -19.7 -12.75 -19.25 Q-12.35 -15.2 -10.85 -12.35 L-10.6 -11.9 Q-9.15 -9.35 -6.55 -7.75 L-5.7 -7.15" fill="none" stroke="#4f1d17" stroke-linecap="round" stroke-linejoin="round" stroke-width="1.0"/>
      <path d="M17.95 -43.65 Q20.75 -46.25 20.75 -49.6 20.75 -53.0 17.95 -55.6 L17.2 -54.85 Q19.7 -52.5 19.7 -49.6 19.7 -46.75 17.2 -44.35 L17.95 -43.65" fill="#4f1d17" fill-rule="evenodd" stroke="none"/>
      <path d="M-11.5 -41.75 L-10.75 -42.45 Q-13.25 -44.85 -13.25 -47.7 -13.25 -50.6 -10.75 -52.95 L-11.5 -53.7 Q-14.3 -51.1 -14.3 -47.7 -14.3 -44.35 -11.5 -41.75" fill="#4f1d17" fill-rule="evenodd" stroke="none"/>
      <path d="M9.25 -50.8 L8.15 -51.4 Q5.95 -48.85 5.9 -46.3 5.95 -44.8 6.55 -44.15 7.2 -43.55 8.15 -43.5 9.15 -43.55 9.85 -44.2 10.25 -44.55 10.25 -44.85 L10.7 -44.05 Q11.35 -43.55 12.35 -43.5 13.6 -43.55 14.4 -44.3 15.6 -45.55 15.6 -48.05 15.6 -49.8 14.95 -51.4 L13.75 -51.05 Q14.2 -49.65 14.2 -48.05 14.2 -46.05 13.4 -45.2 12.95 -44.8 12.3 -44.75 L11.4 -45.05 Q11.1 -45.4 11.05 -45.85 L11.5 -46.8 11.8 -48.45 Q11.8 -49.75 11.25 -49.75 10.8 -49.75 10.35 -48.9 L9.85 -47.4 9.85 -46.05 9.2 -45.15 Q8.75 -44.75 8.15 -44.7 7.75 -44.75 7.45 -44.95 7.2 -45.3 7.15 -46.3 7.2 -48.4 9.25 -50.8" fill="#4f1d17" fill-rule="evenodd" stroke="none"/>
      <path d="M12.35 -34.9 L15.8 -35.45 15.55 -37.15 12.45 -36.4 Q9.8 -35.7 8.6 -35.05 6.7 -33.95 6.3 -32.5 5.9 -31.05 6.8 -29.5 7.75 -27.9 9.1 -27.55 11.65 -26.9 15.45 -29.05 L15.05 -30.5 Q11.5 -28.5 9.75 -28.95 8.75 -29.25 8.2 -30.2 7.6 -31.25 7.9 -32.3 8.1 -33.15 9.45 -33.9 L12.35 -34.9" fill="#4f1d17" fill-rule="evenodd" stroke="none"/>
      <path d="M0.7 -34.95 L-2.8 -35.5 -2.55 -37.25 0.6 -36.45 Q3.3 -35.8 4.45 -35.1 6.35 -34.0 6.75 -32.55 7.15 -31.1 6.3 -29.5 5.35 -27.95 4.0 -27.55 1.4 -26.9 -2.4 -29.05 L-2.0 -30.55 Q1.6 -28.55 3.3 -29.0 4.35 -29.25 4.9 -30.2 5.45 -31.25 5.2 -32.35 4.95 -33.2 3.65 -33.95 L0.7 -34.95" fill="#4f1d17" fill-rule="evenodd" stroke="none"/>
      <path d="M-7.75 -44.1 L-6.25 -44.1 -6.25 -42.65 -6.8 -42.65 -6.25 -41.2 -7.0 -41.2 -7.75 -42.75 -7.75 -44.1 M-4.85 -44.1 L-3.35 -44.1 -3.35 -42.65 -3.9 -42.65 -3.35 -41.2 -4.1 -41.2 -4.85 -42.75 -4.85 -44.1" fill="#000000" fill-rule="evenodd" stroke="none"/>
    </g>
    <g id="sprite0" transform="matrix(1.0, 0.0, 0.0, 1.0, 5.2, 50.55)">
      <use height="3.05" transform="matrix(1.0, 0.0, 0.0, 1.0, -5.2, -50.55)" width="21.45" xlink:href="#shape1"/>
    </g>
    <g id="shape1" transform="matrix(1.0, 0.0, 0.0, 1.0, 5.2, 50.55)">
      <path d="M15.75 -50.05 L15.35 -49.8 14.15 -48.95 13.55 -48.5 M0.6 -48.0 Q-1.9 -49.5 -4.7 -49.6" fill="none" stroke="#643b36" stroke-linecap="round" stroke-linejoin="round" stroke-width="1.0"/>
    </g>
    <g id="shape2" transform="matrix(1.0, 0.0, 0.0, 1.0, -4.65, 9.65)">
      <path d="M4.65 -9.65 L6.15 -9.65 6.15 -3.05 Q6.15 -2.35 6.6 -1.9 7.15 -1.35 8.2 -1.35 9.25 -1.35 9.8 -1.9 10.2 -2.35 10.2 -3.05 L10.2 -9.65 11.75 -9.65 11.75 -3.0 Q11.75 -1.75 10.95 -0.95 10.05 -0.05 8.2 -0.05 6.35 -0.05 5.45 -0.95 4.65 -1.75 4.65 -3.0 L4.65 -9.65" fill="#4f1d17" fill-rule="evenodd" stroke="none"/>
    </g>
  </defs>
</svg>
