<?xml version="1.0" encoding="UTF-8" standalone="no"?>
<svg
   height="184"
   width="160"
   version="1.1"
   id="svg89"
   sodipodi:docname="front-standing.svg"
   xml:space="preserve"
   inkscape:version="1.2.2 (b0a8486541, 2022-12-01)"
   xmlns:inkscape="http://www.inkscape.org/namespaces/inkscape"
   xmlns:sodipodi="http://sodipodi.sourceforge.net/DTD/sodipodi-0.dtd"
   xmlns:xlink="http://www.w3.org/1999/xlink"
   xmlns="http://www.w3.org/2000/svg"
   xmlns:svg="http://www.w3.org/2000/svg"><sodipodi:namedview
     id="namedview91"
     pagecolor="#ffffff"
     bordercolor="#000000"
     borderopacity="0.25"
     inkscape:showpageshadow="2"
     inkscape:pageopacity="0.0"
     inkscape:pagecheckerboard="true"
     inkscape:deskcolor="#d1d1d1"
     showgrid="false"
     inkscape:zoom="6.6944567"
     inkscape:cx="81.186573"
     inkscape:cy="111.43548"
     inkscape:window-width="1920"
     inkscape:window-height="1051"
     inkscape:window-x="0"
     inkscape:window-y="0"
     inkscape:window-maximized="1"
     inkscape:current-layer="svg89" /><defs
     id="defs79"><g
       id="l"><path
         d="m11.55-26.5-.1-.1h-.05l-.35-.05.1-.2v-.05l.15-.3v-.15l.1-.5.15 1.35M-2.1-15.9v.5h-.5l-.3-.05h-.3l-.2-.05-3.55-.05-.65-.25 1.75.1h1.15l2.05-.15.55-.05m13.75-9.3-.05.05.05-.1v.05"
         fill="#fff"
         fill-rule="evenodd"
         transform="translate(16.85 27.85)"
         id="path2" /><path
         d="m11.15-26.85-.1.2.35.05h.05l.1.1.05.45v.9l.05-.05.65 2.95.35 1.45v.1l.2.65v.1l.05.15.05.1v.15l.1.35.1.45.1.35v.05l.45 1.6.95 3.3L16-8.95l1.35 5.45q-.6 1.15-1.4 1.7l-1.1.4-.4.15q-.85-6.35-3.15-18.4L11.25-16l-.1 15.7L7.8.25l-.05-1.1-.65-8.3-.35.1-.55-6.1-.25 14.3L5.9.4l-.85.05h-.3L3 .5 2.9-.85 2-17.5l-.45 4.1L.6-.85.55.5h-1.9L-2.9.45v-1.3l.35-11.75-.3.05q.05-2.3-.05-2.85v-.05l.3.05h.5v-.5l.1-1.3v-.15l.05-.25v-.05l.05-.1v-.05l.05-.05v-.2l.1-.25v-.65l-.1-.1-.25-1.2v-.45l-.05-1.15v-.35l-.15-.7-.15-.55.2-.55-.05-.1v-.35l.05-.1v-.05l-.05-.1v-.15l.05-.15q-.25 0-.35-.15l-.05-.15v-.35l.05-.05.1-.2v-.1l.05-.15v-.05h.05v-.2l.1-.05-.2-.35 1.65.3 5.85.25 6.15-.6M-11.1-16.4l.65.15 2.35.4.5.05.65.25 3.55.05.2.05-.25.65Q-3.95-8-5.6-.85l-.15.65-2.15-.65-1.95-1.2q-2.45-1.9-2.45-3.35-.05-1.1 1.1-9.75l.05-.5v-.45l.05-.3"
         fill="#e11e1e"
         fill-rule="evenodd"
         transform="translate(16.85 27.85)"
         id="path4" /><path
         d="M11.6-25.15v-.9l-.05-.45h.05l.05.05v.1l.05.1v.9l-.05.05v.05l-.05-.1.05.1-.05.1"
         fill="#333"
         fill-rule="evenodd"
         transform="translate(16.85 27.85)"
         id="path6" /><path
         d="m-2.85-12.55.3-.05L-2.9-.85v1.3L-3.65.4l.1-1.25q.6-8.1.7-11.7m4.4-.85L2-17.5 2.9-.85 3 .5h-.65l-.1-1.35-.7-12.55m5.2 4.35.35-.1.65 8.3.05 1.1-.35.05-.1-1.15-.6-8.2m4.5-6.95.05-3.65q2.3 12.05 3.15 18.4l-.7.25-2.5-15"
         fill="#7d0202"
         fill-rule="evenodd"
         transform="translate(16.85 27.85)"
         id="path8" /><path
         d="M-2.9-15.45v.05q.1.55.05 2.85-.1 3.6-.7 11.7L-3.65.4-5.8.3-6.9.2-8 .1h-.3l-.35-.1-4.9-.85-2.55-.95-.25-.1.8-4.45v-.05l.05-.1 2.2-10.7.5.2h.05l1.65.6-.05.3v.45l-.05.5q-1.15 8.65-1.1 9.75 0 1.45 2.45 3.35l1.95 1.2 2.15.65.15-.65Q-3.95-8-3.45-14.8l.25-.65h.3M.55.5.6-.85l.95-12.55.7 12.55.1 1.35H.55M5.9.4l.05-1.25.25-14.3.55 6.1.6 8.2.1 1.15L5.9.4m5.25-.7.1-15.7 2.5 15-.4.15-2.2.55"
         fill="#d70404"
         fill-rule="evenodd"
         transform="translate(16.85 27.85)"
         id="path10" /><path
         d="m-2.5-26.8.2.35-.1.05v.2h-.05v.05l-.05.15v.1l-.1.2-.05.05v.35l.05.15q.1.15.35.15l-.05.15v.15l.05.1v.05l-.05.1v.35l.05.1-.2.55.15.55.15.7v.35l.05 1.15v.45l.25 1.2.1.1v.65l-.1.25v.2l-.05.05v.05l-.05.1v.05l-.05.25v.15l-.1 1.3-.85-11 .45.1"
         fill="#b40303"
         fill-rule="evenodd"
         transform="translate(16.85 27.85)"
         id="path12" /><path
         d="M11.65-25.25v.05m0-.05-.05-.1"
         fill="none"
         stroke="#000"
         stroke-linecap="round"
         stroke-linejoin="round"
         transform="translate(16.85 27.85)"
         id="path14" /><path
         d="m11.15-26.85-6.15.6-5.85-.25-1.65-.3M-2.9.45l1.55.05h1.9M3 .5 4.75.45h.3L5.9.4M7.8.25l3.35-.55m3.3-.95.4-.15 1.1-.4q.8-.55 1.4-1.7L16-8.95l-1.35-4.5-.95-3.3-.45-1.6v-.05l-.1-.35-.1-.45-.1-.35v-.15l-.05-.1-.05-.15v-.1l-.2-.65v-.1l-.35-1.45-.65-2.95m-.05.05v-.9l-.05-.45M7.45.3 7.8.25m6.65-1.5-.7.25-.4.15-2.2.55m-8.8.8H3M7.45.3 5.9.4M2.35.5H.55M-2.1-15.9l-.85-11 .45.1m-5.1 11 1.75.1h1.15l2.05-.15.55-.05m-9-.5.65.15 2.35.4.5.05m-5.15-1.2h-.05l-.5-.2-2.2 10.7-.05.1v.05l-.8 4.45.25.1 2.55.95 4.9.85.35.1h.3l1.1.1 1.1.1 2.15.1m.75.05L-3.65.4"
         fill="none"
         stroke="#2e2e2e"
         stroke-linecap="round"
         stroke-linejoin="round"
         transform="translate(16.85 27.85)"
         id="path16" /></g><g
       id="m"
       transform="translate(.5)"><use
         height="35.8"
         transform="translate(6.35)"
         width="34.35"
         xlink:href="#a"
         id="use19" /><use
         height="31.7"
         transform="translate(-.5 23.7)"
         width="47.3"
         xlink:href="#b"
         id="use21" /></g><g
       id="a"><use
         height="35.8"
         width="34.35"
         xlink:href="#c"
         id="use24" /><use
         height="6.45"
         transform="translate(5.35 16.65)"
         width="5"
         xlink:href="#d"
         id="use26" /><use
         height="5.95"
         transform="translate(18.25 17.2)"
         width="7.3"
         xlink:href="#e"
         id="use28" /><use
         height="3.1"
         transform="translate(14.1 12.45)"
         width="15.65"
         xlink:href="#f"
         id="use30" /></g><g
       id="c"><path
         d="m27.2 9.3.05.1-1.05.5-3.3-7.35-3.3 7.35-.85-.4-.2-.1L22.9 0l4.3 9.3m-15.3.2.05.1-.05.05-1 .45-3.3-7.35v.1L4.3 10.1l-1.05-.5L7.6.2l4.3 9.3"
         fill-rule="evenodd"
         id="path33" /><path
         d="m18.75 9.5.85.4 3.3-7.35 3.3 7.35 1.05-.5-.05-.1 2.9 2.8 1.15 1.1-.4.4.1.1q2.1 2.05 2.35 4.55v.6q0 1.65-.8 3.1l-.25.45-1.4 1.7.1.1-.3.3-3.25.9v3.4h-4.95l-7.2 7-7.85-7h-.15l-1.9-3.1-2.2-.8.4-.4-1-1.1-.55-.8q-.9-1.5-.95-3.2v-.15l.1-1q.35-2.3 2.4-4.25l-.75-.75 1.5-3.15 3.3-7.25 3.25 7.3 1.05-.5.05-.05-.05-.1.6-.25V9.1l.05.1q.2-.05.35-.15h4.7l1.15.55v-.1m11.35 2.6 1.15 1.1-1.15-1.1M18.55 9.8h.05l.05-.05h-.2l.1.05m-15.2-.45-.05.15v-.15h.05"
         fill="#fff"
         fill-rule="evenodd"
         id="path35" /><path
         d="m2.8 13.25.75.75q-2.05 1.95-2.4 4.25l-.1 1v.15q.05 1.7.95 3.2l.55.8 1 1.1-.4.4-.35.3-.4-.35-.25-.3-.35-.4Q.05 22.05 0 19.4v-.15l.1-1q.3-2.8 2.7-5M30.95 24.2l-.1-.1 1.4-1.7.25-.45q.8-1.45.8-3.1v-.6q-.25-2.5-2.35-4.55l-.1-.1.4-.4.3-.35q2.55 2.35 2.8 5.4v.6q0 1.9-.9 3.55l-1.9 2.4-.6-.6"
         fill="#333"
         fill-rule="evenodd"
         id="path37" /><path
         d="m31.25 13.2-1.15-1.1"
         fill="none"
         stroke="#333"
         stroke-linecap="round"
         stroke-linejoin="round"
         id="path39" /></g><g
       id="f"
       transform="translate(.8 -.15)"><use
         height="3.1"
         transform="matrix(1.005 0 0 1 -.804 .15)"
         width="4.65"
         xlink:href="#g"
         id="use42" /><use
         height="3.1"
         transform="matrix(1.005 0 0 1 10.196 .15)"
         width="4.65"
         xlink:href="#g"
         id="use44" /></g><g
       id="k"><path
         d="m40.95 10.35 5.35 14L44.5 26l-.75-1.3q-1.05.95-2.4 1.7l.45 1.35-2.25 1.1-.15-.35-.2-1.1-2.85.8.2 1.35.1.35-.4.1-.3.05-.6.1-.45-1.6v-.05l-.1-.35-.1-.45-.1-.35v-.15l-.05-.1-.05-.15v-.1l-.2-.75-.35-1.45-.65-2.95-.05.05.05-.1v-.05l.05-.05v-.9l-.05-.1v-.1l-.05-.05h-.05l-.1-.1h-.05l-.35-.05.1-.2V20l.15-.3v-.15l.1-.5-.05-.3v-.1.1l-.5-.55-.05-.45v-.15l-.05-.1v-.2l-.05-.1v-.6l.15-.2.25-.3.05-.1v-.6l-.1-.1V15v.25l-.1-.1-.15-.1.05.15-4.65.6h-1.5l-7.6-.6v-1.7q-.05-1.8 4.65-4.25-4.7 2.45-4.65 4.25v1.7l-.25-.05.05.05.2.25.1.25h-.1v.15l-.05.05v.05l-.05.05-.2.35-.1.65.2.9.15 2.1.85 11v.5h-.5l-.3-.05h-.3l-.2-.05-3.55-.05-.65-.25 1.75.1h.1q-.05-.85-.6-1.65h-.05l-.95-.05-1.8-.2-.55 1.05-.65-.05-.1.35-.65-.15-1.65-.6.7-1.4q-1.05-.45-1.85-1.1-.75.75-1 1.3l-1.25-.95.15-.25-.1-.05-.85-.65 1.2-.9-1.55-1.3-.3-.25-1.15.95-.5-.5-.3-.25-.05-.05-.8-.85.15-.25.9-.75-1.45-1.9-.25-.1q2.2-5.7 5.1-11.1l2.35.35h.05l4.1.7h.3L7.45 6.4l.2-.35 1.4-2.3 1.25-1.9v-.1.1h.55l2.4 1.5 3.6 1.85q5 2.95 6.55 4.05V9.2q5-3 7.45-4.2l6.2-3.45v.25l.25.1.35.1v.05l2.15 5.4-1.5.7q-.1 0-.15.1L38 8.3q-1.2.6-3 1.55 0 .9 4.3.95 1.4 0 1.65-.45m-3.9-8.55.05.05-.05-.05M32.8 16.45v-.05l-.05-.3.05.3v.05l.2 2.2v-1.5l-.2-.7m.4 3.95-.15-1.35.15 1.35m.1 1.3v-.05.05M10.95 4.4l.25-.55-.25.5v.05M7.9 10.7h-.05.05m.15-.45v.15-.15M17.9 8.5l.55 7.85-.55-7.85M19.55 31l-.55.05-2.05.15H15.9h1.05l2.05-.15.55-.05"
         fill="#fff"
         fill-rule="evenodd"
         transform="translate(.5)"
         id="path47" /><path
         d="m44.5 26-2 1.4-.2.1-.2.1-.3.15-.45-1.35q1.35-.75 2.4-1.7l.75 1.3m-4.95 2.85-.55.25-.25.1h-.05l-2.05.7-.1-.35-.2-1.35 2.85-.8.2 1.1.15.35M8.9 29.9h-.05l-.5-.2-.45-.3-1.05-.6-.1-.1q.25-.55 1-1.3.8.65 1.85 1.1l-.7 1.4m-7.65-6.25L0 22.25v-.05l.4-1.1.2-.45.25.1 1.45 1.9-.9.75-.15.25M2.9 25.3l1.15-.95.3.25 1.55 1.3-1.2.9-1.8-1.5m9.05 5.05.55-1.05 1.8.2.95.05h.05q.55.8.6 1.65h-.1l-1.75-.1-.45-.15-.4-.1-.7-.15v-.05l-.05-.05v-.05h-.05v-.05l-.1-.05-.25-.1h-.1"
         fill="#a70303"
         fill-rule="evenodd"
         transform="translate(.5)"
         id="path49" /><path
         d="M10.85 1.85h.2l-.15-.1-.2-.1-.3-.1-.1-.05q8.5 2.25 13.15 6.3 2-1.95 5.6-3.75 6.8-3.4 7.8-3.4l.2.65v.25L30.85 5Q28.4 6.2 23.4 9.2v.05q-1.55-1.1-6.55-4.05l-3.6-1.85-2.4-1.5m12.2 6.35.4-.4-.4.4m9.9 22.8h-.05v-.1l.05.1"
         fill="#d70404"
         fill-rule="evenodd"
         transform="translate(.5)"
         id="path51" /><path
         d="m37.3 1.9.15-.05.1.05.1.1-.35-.1m-4.6 13.35V15v.3-.05m.1 1.2.2.7v1.5l-.2-2.2M10.95 4.4v-.05l.25-.5-.25.55m-2.9 5.85v.15-.15"
         fill="#6a6a6a"
         fill-rule="evenodd"
         transform="translate(.5)"
         id="path53" /><path
         d="m32.8 20.05-6.15.6-5.85-.25-1.65-.3-.05-.4-.05-.65q-.2-.4-.05-.65l-.2-.15-.35-1.9.2-.35.05-.05v-.05l.05-.05v-.15h.1l-.1-.25-.2-.25-.05-.05.25.05 7.6.6h1.5l4.65-.6-.05-.15.15.1.1.1.05.85-.25.3-.15.2v.6l.05.1v.2l.05.1v.15l.05.45.5.55.05.3-.1.5v.15l-.15.3v.05M5.7 9.55l.9-1.65.1-.1v-.05l.05-.05.05-.1v-.25h.05l.05-.1V7.2l.1-.05.45-.75 5.05 4.2h-.3l-4.1-.7h-.05L5.7 9.55m34.1-2.1.2.45.15.25v.1l.05.1.75 2q-.25.45-1.65.45-4.3-.05-4.3-.95 1.8-.95 3-1.55l.15-.05q.05-.1.15-.1l1.5-.7m-19 12.95q1.1-2.6 2.85-3.2l4.2-1.4-4.2 1.4q-1.75.6-2.85 3.2"
         fill="#e11e1e"
         fill-rule="evenodd"
         transform="translate(.5)"
         id="path55" /><path
         d="m32.7 15.3.1.1v.6l-.05.1-.05-.85v.05m-14.15 2.6-.2-.9.1-.65.1 1.55"
         fill="#df0202"
         fill-rule="evenodd"
         transform="translate(.5)"
         id="path57" /><path
         d="M33.25 21.75v-.9l-.05-.45h.05l.05.05v.1l.05.1v.9l-.05.05v.05l-.05-.1.05.1-.05.1"
         fill="#333"
         fill-rule="evenodd"
         transform="translate(.5)"
         id="path59" /><path
         d="m7.75.1-.1-.1h.15l-.05.1"
         fill-rule="evenodd"
         transform="translate(.5)"
         id="path61" /><path
         d="m19.15 20.1-.45-.1-.15-2.1-.1-1.55.35 1.9.2.15q-.15.25.05.65l.05.65.05.4"
         fill="#b40303"
         fill-rule="evenodd"
         transform="translate(.5)"
         id="path63" /><path
         d="m40.95 10.35 5.35 14L44.5 26l-2 1.4-.2.1-.2.1-.3.15-2.25 1.1-.55.25-.25.1h-.05l-2.05.7-.4.1-.3.05-.6.1-.45-1.6v-.05l-.1-.35-.1-.45-.1-.35v-.15l-.05-.1-.05-.15v-.1l-.2-.75-.35-1.45-.65-2.95m-.05.05v-.9l-.05-.45m-.4-.35-6.15.6-5.85-.25-1.65-.3-.45-.1.85 11m-5.5.1-.5-.05-2.35-.4-.65-.15-1.65-.6h-.05l-.5-.2-.45-.3-1.05-.6-.1-.1-1.25-.95-2.6-2.45-.5-.5-.3-.25m-.05-.05-.8-.85L0 22.25m0-.05.4-1.1.2-.45q2.2-5.7 5.1-11.1M7.45 6.4l.2-.35 1.4-2.3 1.25-1.9m0-.1v.1m27.35.2 2.15 5.4m1.15 2.9q-.25.45-1.65.45-4.3-.05-4.3-.95 1.8-.95 3-1.55l.15-.05q.05-.1.15-.1l1.5-.7m-2.75-5.9L30.85 5Q28.4 6.2 23.4 9.2v.05q-4.7 2.45-4.65 4.25v1.7l7.6.6h1.5l4.65-.6m.2.05V15m.05 1.1.05.3v.05l.2 2.2v.1l.05.3.15 1.35m-5.35-4.6-4.2 1.4q-1.75.6-2.85 3.2m11.9-5.15.05.85M23.4 9.25q-1.55-1.1-6.55-4.05l-3.6-1.85-2.4-1.5M7.45 6.4l5.05 4.2h-.3l-4.1-.7h-.05L5.7 9.55m12.8 5.6.25.05m-.3 1.15L17.9 8.5m.55 7.85.1 1.55.15 2.1m-4.65 11.1 1.75.1h1.15l2.05-.15.55-.05"
         fill="none"
         stroke="#2e2e2e"
         stroke-linecap="round"
         stroke-linejoin="round"
         transform="translate(.5)"
         id="path65" /><path
         d="M10.8 1.5q8.5 2.25 13.15 6.3 2-1.95 5.6-3.75 6.8-3.4 7.8-3.4l.2.65m-13.6 6.5-.4.4"
         fill="none"
         stroke="#8b0101"
         stroke-linecap="round"
         stroke-linejoin="round"
         stroke-width=".5"
         id="path67" /><path
         d="M33.3 21.65v.05m0-.05-.05-.1"
         fill="none"
         stroke="#000"
         stroke-linecap="round"
         stroke-linejoin="round"
         transform="translate(.5)"
         id="path69" /></g><use
       height="6.45"
       width="5"
       xlink:href="#h"
       id="d" /><use
       height="6.45"
       width="5"
       xlink:href="#i"
       id="h" /><use
       height="3.1"
       transform="translate(1.1)"
       width="1.85"
       xlink:href="#j"
       id="g" /><use
       height="31.7"
       width="47.3"
       xlink:href="#k"
       id="b" /><path
       d="m2-1.7-2 2 1.85 1.8M0 .3V.25v2.5M0 .3l-1.85 1.8M-2-1.7 0 .25V-2.7"
       fill="none"
       stroke="#fea5c0"
       stroke-linecap="round"
       stroke-linejoin="round"
       transform="translate(2.5 3.2)"
       id="i" /><path
       d="M25.05 17.2q.5 1.25.5 2.5 0 1.95-.95 2.85-.55.6-1.5.6-.8 0-1.25-.45l-.35-.55-.3.45q-.5.55-1.3.55-.75 0-1.15-.5-.5-.5-.5-1.6 0-1.9 1.65-3.85l.85.45q-1.6 1.85-1.6 3.4 0 .75.25 1l.5.2q.5 0 .8-.35l.55-.7v-1l.35-1.15q.3-.6.65-.6.45 0 .45.95l-.25 1.25-.35.75.3.55.7.25q.45 0 .75-.35.65-.6.65-2.15 0-1.2-.35-2.25l.9-.25"
       fill-rule="evenodd"
       transform="translate(-18.25 -17.2)"
       id="e" /><path
       d="M1.45.15h.7l-.9 1.4H2v1.7H.3v-1.6L1.45.15"
       fill-rule="evenodd"
       transform="translate(-.3 -.15)"
       id="j" /><path
       d="M1.35 0h.2l.55.1.45.35q.45.45.45 1L2.55 2.6q-.45.4-1 .4l-.8-.2-.25-.2-.45-.7v-.15L0 1.45v-.1q.05-.5.5-.9l.25-.2Q1 .05 1.3 0h.05m.45.85L1.55.8Q1.2.75 1 1q-.2.15-.2.45v.15l.15.45H1l.05.05.2.1.3.05.55-.2.15-.6-.05-.3L2.1 1 2.05.95 1.9.85h-.1"
       fill-rule="evenodd"
       id="d-3" /><path
       d="M10.25-2.6H.75l-1.1-1"
       fill="none"
       stroke="#333"
       stroke-linecap="round"
       stroke-linejoin="round"
       transform="translate(.85 4.1)"
       id="b-6" /><path
       d="m2-1.7-2 2 1.85 1.8M0 .3V.25v2.5M0 .3l-1.85 1.8M-2-1.7 0 .25V-2.7"
       fill="none"
       stroke="#fea5c0"
       stroke-linecap="round"
       stroke-linejoin="round"
       transform="translate(2.5 3.2)"
       id="e-7" /><g
       id="f-5"><path
         d="M.25-60h3.9l1.2.55 3.9-8.6 3.85 8.6 1.25-.55 3.15 3.05 1.1 1.1-.4.4.1.1q2.1 2.05 2.35 4.55v.6q0 1.65-.8 3.1l-.25.45-1.4 1.7.15.15-.3.25-3.25.9v4.7l-3.25.7-3.1.9.65 1.6L12.4-37q1.7-.6 3-.6 1.55 0 2.15.6.8.8.8 2 0 1.1-.75 1.85-1.05 1.05-4.1 1.25l-1.25.05.35 1.5 1.5-.05-.05 2.75-1.5 1.25v12.25l-.85 4.6h-1.5V-3q0 .7-.45 1.15-.55.55-1.6.55Q7-1.3 6.5-1.85 6.05-2.3 6.1-3v-6.55H4.5l-2.35-3.5H.4l-3.55 3.5V-3q0 .7-.45 1.15-.55.55-1.6.55-1.1 0-1.65-.55-.45-.45-.4-1.15v-6.55H-8.8l-1.7-1.1-1.75-3.9v-3.9l.45-.4q.75-.6 1.35-1.55l-1.25-1-.7.95.4-10.95 1.75-12.8.4.35.75-.7-1-1.1q-1.55-1.9-1.5-4.15l.05-1q.35-2.3 2.45-4.25l-.75-.75.5-3.95.65.3 3.85-8.6 3.85 8.6L.25-60m5.1 22.05Q4.3-39 2.1-39q-1.35 0-4 .75l-3.1.9.65 1.6 3.3-1.25q1.7-.6 3-.6 1.55 0 2.15.6.8.8.8 2 0 1.1-.75 1.85Q3.1-32.1.1-31.9l-1.3.05.35 1.5q3.95-.05 5.9-1.55l.45-.35q1-1 1-2.85-.05-1.8-1.15-2.85"
         fill="#fff"
         fill-rule="evenodd"
         transform="translate(21.7 71)"
         id="path497" /><path
         d="m4.15-60 5.1-11 5.1 11-1.25.55-3.85-8.6-3.9 8.6-1.2-.55m14.5 4.1.25-.3q2.55 2.35 2.8 5.4v.6q0 1.9-.9 3.55-.7 1.25-1.9 2.4l-.55-.55-.15-.15 1.4-1.7.25-.45q.8-1.45.8-3.1v-.6q-.25-2.5-2.35-4.55l-.1-.1.4-.4.05-.05M14.8-38.95l.75-.05q2.2 0 3.25 1.05 1.1 1.05 1.1 2.85 0 1.85-1 2.85l-.4.35q-1.55 1.2-4.4 1.5l-1.5.05-.35-1.5 1.25-.05q3.05-.2 4.1-1.25.75-.75.75-1.85 0-1.2-.8-2-.6-.6-2.15-.6-1.3 0-3 .6l-3.3 1.25-.65-1.6 3.1-.9 3.25-.7m-3.1 29.4v6.6q0 1.25-.8 2.05-.9.9-2.75.9Q6.2 0 5.3-.9q-.8-.8-.8-2.05v-6.6h1.6V-3q-.05.7.4 1.15.5.55 1.65.55 1.05 0 1.6-.55.45-.45.45-1.15v-6.55h1.5m-14.85 0h1.5v6.6q0 1.25-.8 2.05-.9.9-2.75.9Q-7.1 0-8-.9q-.85-.8-.8-2.05v-6.6h1.55V-3q-.05.7.4 1.15.55.55 1.65.55 1.05 0 1.6-.55.45-.45.45-1.15v-6.55m-9.1-8.9q-.7.45-1.6.45-1 0-2.7-1.1-1.15-.65-1.9-.65-.85 0-1.3.55l-.6.95-1.35-.75 1.2-1.65q.85-.8 1.95-.8t2.3.8q1.65.85 2.55.85.6 0 1.3-.65l.7-.95 1.25 1q-.6.95-1.35 1.55l-.45.4m2-25.75-.6-.7q-1.85-2.2-1.8-4.9l.05-1q.35-2.8 2.75-5l.75.75q-2.1 1.95-2.45 4.25l-.05 1q-.05 2.25 1.5 4.15l1 1.1-.75.7-.4-.35m.9-15.55L-9.9-60l5.05-11 5.1 11-1.25.55-3.85-8.6-3.85 8.6-.65-.3m14.7 21.8q1.1 1.05 1.15 2.85 0 1.85-1 2.85l-.45.35q-1.95 1.5-5.9 1.55l-.35-1.5 1.3-.05q3-.2 4.05-1.25.75-.75.75-1.85 0-1.2-.8-2-.6-.6-2.15-.6-1.3 0-3 .6l-3.3 1.25-.65-1.6 3.1-.9Q.75-39 2.1-39q2.2 0 3.25 1.05"
         fill="#333"
         fill-rule="evenodd"
         transform="translate(21.7 71)"
         id="path499" /><path
         d="m17.5-56.95 1.15 1.05-.05.05-1.1-1.1"
         fill="red"
         fill-rule="evenodd"
         transform="translate(21.7 71)"
         id="path501" /><path
         d="M.25-60h3.9m8.4 33.6v12.25m6.05-41.7-1.1-1.1"
         fill="none"
         stroke="#333"
         stroke-linecap="round"
         stroke-linejoin="round"
         transform="translate(21.7 71)"
         id="path503" /></g><g
       id="g-3"
       transform="translate(.8)"><use
         height="3"
         transform="matrix(1.005 0 0 1 -.804 0)"
         width="4.65"
         xlink:href="#a-6"
         id="use506" /><use
         height="3"
         transform="matrix(1.005 0 0 1 16.096 0)"
         width="4.65"
         xlink:href="#a-6"
         id="use508" /></g><g
       id="h-5"
       transform="translate(11.45 4.1)"><use
         height="2"
         transform="translate(-.85 -4.1)"
         width="11.6"
         xlink:href="#b-6"
         id="use511" /><use
         height="6.45"
         transform="translate(-11.45 -3.8)"
         width="5"
         xlink:href="#c-2"
         id="use513" /></g><use
       height="3"
       width="3"
       xlink:href="#d-3"
       id="a-6"
       transform="translate(.8)" /><use
       height="6.45"
       width="5"
       xlink:href="#e-7"
       id="c-2" /><g
       id="l-3"><path
         d="m11.55-26.5-.1-.1h-.05l-.35-.05.1-.2v-.05l.15-.3v-.15l.1-.5.15 1.35M-2.1-15.9v.5h-.5l-.3-.05h-.3l-.2-.05-3.55-.05-.65-.25 1.75.1h1.15l2.05-.15.55-.05m13.75-9.3-.05.05.05-.1v.05"
         fill="#fff"
         fill-rule="evenodd"
         transform="translate(16.85 27.85)"
         id="path2-7" /><path
         d="m11.15-26.85-.1.2.35.05h.05l.1.1.05.45v.9l.05-.05.65 2.95.35 1.45v.1l.2.65v.1l.05.15.05.1v.15l.1.35.1.45.1.35v.05l.45 1.6.95 3.3L16-8.95l1.35 5.45q-.6 1.15-1.4 1.7l-1.1.4-.4.15q-.85-6.35-3.15-18.4L11.25-16l-.1 15.7L7.8.25l-.05-1.1-.65-8.3-.35.1-.55-6.1-.25 14.3L5.9.4l-.85.05h-.3L3 .5 2.9-.85 2-17.5l-.45 4.1L.6-.85.55.5h-1.9L-2.9.45v-1.3l.35-11.75-.3.05q.05-2.3-.05-2.85v-.05l.3.05h.5v-.5l.1-1.3v-.15l.05-.25v-.05l.05-.1v-.05l.05-.05v-.2l.1-.25v-.65l-.1-.1-.25-1.2v-.45l-.05-1.15v-.35l-.15-.7-.15-.55.2-.55-.05-.1v-.35l.05-.1v-.05l-.05-.1v-.15l.05-.15q-.25 0-.35-.15l-.05-.15v-.35l.05-.05.1-.2v-.1l.05-.15v-.05h.05v-.2l.1-.05-.2-.35 1.65.3 5.85.25 6.15-.6M-11.1-16.4l.65.15 2.35.4.5.05.65.25 3.55.05.2.05-.25.65Q-3.95-8-5.6-.85l-.15.65-2.15-.65-1.95-1.2q-2.45-1.9-2.45-3.35-.05-1.1 1.1-9.75l.05-.5v-.45l.05-.3"
         fill="#e11e1e"
         fill-rule="evenodd"
         transform="translate(16.85 27.85)"
         id="path4-4" /><path
         d="M11.6-25.15v-.9l-.05-.45h.05l.05.05v.1l.05.1v.9l-.05.05v.05l-.05-.1.05.1-.05.1"
         fill="#333"
         fill-rule="evenodd"
         transform="translate(16.85 27.85)"
         id="path6-5" /><path
         d="m-2.85-12.55.3-.05L-2.9-.85v1.3L-3.65.4l.1-1.25q.6-8.1.7-11.7m4.4-.85L2-17.5 2.9-.85 3 .5h-.65l-.1-1.35-.7-12.55m5.2 4.35.35-.1.65 8.3.05 1.1-.35.05-.1-1.15-.6-8.2m4.5-6.95.05-3.65q2.3 12.05 3.15 18.4l-.7.25-2.5-15"
         fill="#7d0202"
         fill-rule="evenodd"
         transform="translate(16.85 27.85)"
         id="path8-2" /><path
         d="M-2.9-15.45v.05q.1.55.05 2.85-.1 3.6-.7 11.7L-3.65.4-5.8.3-6.9.2-8 .1h-.3l-.35-.1-4.9-.85-2.55-.95-.25-.1.8-4.45v-.05l.05-.1 2.2-10.7.5.2h.05l1.65.6-.05.3v.45l-.05.5q-1.15 8.65-1.1 9.75 0 1.45 2.45 3.35l1.95 1.2 2.15.65.15-.65Q-3.95-8-3.45-14.8l.25-.65h.3M.55.5.6-.85l.95-12.55.7 12.55.1 1.35H.55M5.9.4l.05-1.25.25-14.3.55 6.1.6 8.2.1 1.15L5.9.4m5.25-.7.1-15.7 2.5 15-.4.15-2.2.55"
         fill="#d70404"
         fill-rule="evenodd"
         transform="translate(16.85 27.85)"
         id="path10-5" /><path
         d="m-2.5-26.8.2.35-.1.05v.2h-.05v.05l-.05.15v.1l-.1.2-.05.05v.35l.05.15q.1.15.35.15l-.05.15v.15l.05.1v.05l-.05.1v.35l.05.1-.2.55.15.55.15.7v.35l.05 1.15v.45l.25 1.2.1.1v.65l-.1.25v.2l-.05.05v.05l-.05.1v.05l-.05.25v.15l-.1 1.3-.85-11 .45.1"
         fill="#b40303"
         fill-rule="evenodd"
         transform="translate(16.85 27.85)"
         id="path12-4" /><path
         d="M11.65-25.25v.05m0-.05-.05-.1"
         fill="none"
         stroke="#000"
         stroke-linecap="round"
         stroke-linejoin="round"
         transform="translate(16.85 27.85)"
         id="path14-7" /><path
         d="m11.15-26.85-6.15.6-5.85-.25-1.65-.3M-2.9.45l1.55.05h1.9M3 .5 4.75.45h.3L5.9.4M7.8.25l3.35-.55m3.3-.95.4-.15 1.1-.4q.8-.55 1.4-1.7L16-8.95l-1.35-4.5-.95-3.3-.45-1.6v-.05l-.1-.35-.1-.45-.1-.35v-.15l-.05-.1-.05-.15v-.1l-.2-.65v-.1l-.35-1.45-.65-2.95m-.05.05v-.9l-.05-.45M7.45.3 7.8.25m6.65-1.5-.7.25-.4.15-2.2.55m-8.8.8H3M7.45.3 5.9.4M2.35.5H.55M-2.1-15.9l-.85-11 .45.1m-5.1 11 1.75.1h1.15l2.05-.15.55-.05m-9-.5.65.15 2.35.4.5.05m-5.15-1.2h-.05l-.5-.2-2.2 10.7-.05.1v.05l-.8 4.45.25.1 2.55.95 4.9.85.35.1h.3l1.1.1 1.1.1 2.15.1m.75.05L-3.65.4"
         fill="none"
         stroke="#2e2e2e"
         stroke-linecap="round"
         stroke-linejoin="round"
         transform="translate(16.85 27.85)"
         id="path16-4" /></g><g
       id="m-4"
       transform="translate(.5)"><use
         height="35.8"
         transform="translate(6.35)"
         width="34.35"
         xlink:href="#a-7"
         id="use19-3" /><use
         height="31.7"
         transform="translate(-.5 23.7)"
         width="47.3"
         xlink:href="#b-2"
         id="use21-0" /></g><g
       id="a-7"><use
         height="35.8"
         width="34.35"
         xlink:href="#c-4"
         id="use24-8" /><use
         height="6.45"
         transform="translate(5.35 16.65)"
         width="5"
         xlink:href="#d-7"
         id="use26-6" /><use
         height="5.95"
         transform="translate(18.25 17.2)"
         width="7.3"
         xlink:href="#e-6"
         id="use28-8" /><use
         height="3.1"
         transform="translate(14.1 12.45)"
         width="15.65"
         xlink:href="#f-2"
         id="use30-8" /></g><g
       id="c-4"><path
         d="m27.2 9.3.05.1-1.05.5-3.3-7.35-3.3 7.35-.85-.4-.2-.1L22.9 0l4.3 9.3m-15.3.2.05.1-.05.05-1 .45-3.3-7.35v.1L4.3 10.1l-1.05-.5L7.6.2l4.3 9.3"
         fill-rule="evenodd"
         id="path33-3" /><path
         d="m18.75 9.5.85.4 3.3-7.35 3.3 7.35 1.05-.5-.05-.1 2.9 2.8 1.15 1.1-.4.4.1.1q2.1 2.05 2.35 4.55v.6q0 1.65-.8 3.1l-.25.45-1.4 1.7.1.1-.3.3-3.25.9v3.4h-4.95l-7.2 7-7.85-7h-.15l-1.9-3.1-2.2-.8.4-.4-1-1.1-.55-.8q-.9-1.5-.95-3.2v-.15l.1-1q.35-2.3 2.4-4.25l-.75-.75 1.5-3.15 3.3-7.25 3.25 7.3 1.05-.5.05-.05-.05-.1.6-.25V9.1l.05.1q.2-.05.35-.15h4.7l1.15.55v-.1m11.35 2.6 1.15 1.1-1.15-1.1M18.55 9.8h.05l.05-.05h-.2l.1.05m-15.2-.45-.05.15v-.15h.05"
         fill="#fff"
         fill-rule="evenodd"
         id="path35-1" /><path
         d="m2.8 13.25.75.75q-2.05 1.95-2.4 4.25l-.1 1v.15q.05 1.7.95 3.2l.55.8 1 1.1-.4.4-.35.3-.4-.35-.25-.3-.35-.4Q.05 22.05 0 19.4v-.15l.1-1q.3-2.8 2.7-5M30.95 24.2l-.1-.1 1.4-1.7.25-.45q.8-1.45.8-3.1v-.6q-.25-2.5-2.35-4.55l-.1-.1.4-.4.3-.35q2.55 2.35 2.8 5.4v.6q0 1.9-.9 3.55l-1.9 2.4-.6-.6"
         fill="#333"
         fill-rule="evenodd"
         id="path37-4" /><path
         d="m31.25 13.2-1.15-1.1"
         fill="none"
         stroke="#333"
         stroke-linecap="round"
         stroke-linejoin="round"
         id="path39-9" /></g><g
       id="f-2"
       transform="translate(.8 -.15)"><use
         height="3.1"
         transform="matrix(1.005 0 0 1 -.804 .15)"
         width="4.65"
         xlink:href="#g-7"
         id="use42-0" /><use
         height="3.1"
         transform="matrix(1.005 0 0 1 10.196 .15)"
         width="4.65"
         xlink:href="#g-7"
         id="use44-6" /></g><g
       id="k-8"><path
         d="m40.95 10.35 5.35 14L44.5 26l-.75-1.3q-1.05.95-2.4 1.7l.45 1.35-2.25 1.1-.15-.35-.2-1.1-2.85.8.2 1.35.1.35-.4.1-.3.05-.6.1-.45-1.6v-.05l-.1-.35-.1-.45-.1-.35v-.15l-.05-.1-.05-.15v-.1l-.2-.75-.35-1.45-.65-2.95-.05.05.05-.1v-.05l.05-.05v-.9l-.05-.1v-.1l-.05-.05h-.05l-.1-.1h-.05l-.35-.05.1-.2V20l.15-.3v-.15l.1-.5-.05-.3v-.1.1l-.5-.55-.05-.45v-.15l-.05-.1v-.2l-.05-.1v-.6l.15-.2.25-.3.05-.1v-.6l-.1-.1V15v.25l-.1-.1-.15-.1.05.15-4.65.6h-1.5l-7.6-.6v-1.7q-.05-1.8 4.65-4.25-4.7 2.45-4.65 4.25v1.7l-.25-.05.05.05.2.25.1.25h-.1v.15l-.05.05v.05l-.05.05-.2.35-.1.65.2.9.15 2.1.85 11v.5h-.5l-.3-.05h-.3l-.2-.05-3.55-.05-.65-.25 1.75.1h.1q-.05-.85-.6-1.65h-.05l-.95-.05-1.8-.2-.55 1.05-.65-.05-.1.35-.65-.15-1.65-.6.7-1.4q-1.05-.45-1.85-1.1-.75.75-1 1.3l-1.25-.95.15-.25-.1-.05-.85-.65 1.2-.9-1.55-1.3-.3-.25-1.15.95-.5-.5-.3-.25-.05-.05-.8-.85.15-.25.9-.75-1.45-1.9-.25-.1q2.2-5.7 5.1-11.1l2.35.35h.05l4.1.7h.3L7.45 6.4l.2-.35 1.4-2.3 1.25-1.9v-.1.1h.55l2.4 1.5 3.6 1.85q5 2.95 6.55 4.05V9.2q5-3 7.45-4.2l6.2-3.45v.25l.25.1.35.1v.05l2.15 5.4-1.5.7q-.1 0-.15.1L38 8.3q-1.2.6-3 1.55 0 .9 4.3.95 1.4 0 1.65-.45m-3.9-8.55.05.05-.05-.05M32.8 16.45v-.05l-.05-.3.05.3v.05l.2 2.2v-1.5l-.2-.7m.4 3.95-.15-1.35.15 1.35m.1 1.3v-.05.05M10.95 4.4l.25-.55-.25.5v.05M7.9 10.7h-.05.05m.15-.45v.15-.15M17.9 8.5l.55 7.85-.55-7.85M19.55 31l-.55.05-2.05.15H15.9h1.05l2.05-.15.55-.05"
         fill="#fff"
         fill-rule="evenodd"
         transform="translate(.5)"
         id="path47-9" /><path
         d="m44.5 26-2 1.4-.2.1-.2.1-.3.15-.45-1.35q1.35-.75 2.4-1.7l.75 1.3m-4.95 2.85-.55.25-.25.1h-.05l-2.05.7-.1-.35-.2-1.35 2.85-.8.2 1.1.15.35M8.9 29.9h-.05l-.5-.2-.45-.3-1.05-.6-.1-.1q.25-.55 1-1.3.8.65 1.85 1.1l-.7 1.4m-7.65-6.25L0 22.25v-.05l.4-1.1.2-.45.25.1 1.45 1.9-.9.75-.15.25M2.9 25.3l1.15-.95.3.25 1.55 1.3-1.2.9-1.8-1.5m9.05 5.05.55-1.05 1.8.2.95.05h.05q.55.8.6 1.65h-.1l-1.75-.1-.45-.15-.4-.1-.7-.15v-.05l-.05-.05v-.05h-.05v-.05l-.1-.05-.25-.1h-.1"
         fill="#a70303"
         fill-rule="evenodd"
         transform="translate(.5)"
         id="path49-2" /><path
         d="M10.85 1.85h.2l-.15-.1-.2-.1-.3-.1-.1-.05q8.5 2.25 13.15 6.3 2-1.95 5.6-3.75 6.8-3.4 7.8-3.4l.2.65v.25L30.85 5Q28.4 6.2 23.4 9.2v.05q-1.55-1.1-6.55-4.05l-3.6-1.85-2.4-1.5m12.2 6.35.4-.4-.4.4m9.9 22.8h-.05v-.1l.05.1"
         fill="#d70404"
         fill-rule="evenodd"
         transform="translate(.5)"
         id="path51-6" /><path
         d="m37.3 1.9.15-.05.1.05.1.1-.35-.1m-4.6 13.35V15v.3-.05m.1 1.2.2.7v1.5l-.2-2.2M10.95 4.4v-.05l.25-.5-.25.55m-2.9 5.85v.15-.15"
         fill="#6a6a6a"
         fill-rule="evenodd"
         transform="translate(.5)"
         id="path53-6" /><path
         d="m32.8 20.05-6.15.6-5.85-.25-1.65-.3-.05-.4-.05-.65q-.2-.4-.05-.65l-.2-.15-.35-1.9.2-.35.05-.05v-.05l.05-.05v-.15h.1l-.1-.25-.2-.25-.05-.05.25.05 7.6.6h1.5l4.65-.6-.05-.15.15.1.1.1.05.85-.25.3-.15.2v.6l.05.1v.2l.05.1v.15l.05.45.5.55.05.3-.1.5v.15l-.15.3v.05M5.7 9.55l.9-1.65.1-.1v-.05l.05-.05.05-.1v-.25h.05l.05-.1V7.2l.1-.05.45-.75 5.05 4.2h-.3l-4.1-.7h-.05L5.7 9.55m34.1-2.1.2.45.15.25v.1l.05.1.75 2q-.25.45-1.65.45-4.3-.05-4.3-.95 1.8-.95 3-1.55l.15-.05q.05-.1.15-.1l1.5-.7m-19 12.95q1.1-2.6 2.85-3.2l4.2-1.4-4.2 1.4q-1.75.6-2.85 3.2"
         fill="#e11e1e"
         fill-rule="evenodd"
         transform="translate(.5)"
         id="path55-4" /><path
         d="m32.7 15.3.1.1v.6l-.05.1-.05-.85v.05m-14.15 2.6-.2-.9.1-.65.1 1.55"
         fill="#df0202"
         fill-rule="evenodd"
         transform="translate(.5)"
         id="path57-9" /><path
         d="M33.25 21.75v-.9l-.05-.45h.05l.05.05v.1l.05.1v.9l-.05.05v.05l-.05-.1.05.1-.05.1"
         fill="#333"
         fill-rule="evenodd"
         transform="translate(.5)"
         id="path59-5" /><path
         d="m7.75.1-.1-.1h.15l-.05.1"
         fill-rule="evenodd"
         transform="translate(.5)"
         id="path61-0" /><path
         d="m19.15 20.1-.45-.1-.15-2.1-.1-1.55.35 1.9.2.15q-.15.25.05.65l.05.65.05.4"
         fill="#b40303"
         fill-rule="evenodd"
         transform="translate(.5)"
         id="path63-4" /><path
         d="m40.95 10.35 5.35 14L44.5 26l-2 1.4-.2.1-.2.1-.3.15-2.25 1.1-.55.25-.25.1h-.05l-2.05.7-.4.1-.3.05-.6.1-.45-1.6v-.05l-.1-.35-.1-.45-.1-.35v-.15l-.05-.1-.05-.15v-.1l-.2-.75-.35-1.45-.65-2.95m-.05.05v-.9l-.05-.45m-.4-.35-6.15.6-5.85-.25-1.65-.3-.45-.1.85 11m-5.5.1-.5-.05-2.35-.4-.65-.15-1.65-.6h-.05l-.5-.2-.45-.3-1.05-.6-.1-.1-1.25-.95-2.6-2.45-.5-.5-.3-.25m-.05-.05-.8-.85L0 22.25m0-.05.4-1.1.2-.45q2.2-5.7 5.1-11.1M7.45 6.4l.2-.35 1.4-2.3 1.25-1.9m0-.1v.1m27.35.2 2.15 5.4m1.15 2.9q-.25.45-1.65.45-4.3-.05-4.3-.95 1.8-.95 3-1.55l.15-.05q.05-.1.15-.1l1.5-.7m-2.75-5.9L30.85 5Q28.4 6.2 23.4 9.2v.05q-4.7 2.45-4.65 4.25v1.7l7.6.6h1.5l4.65-.6m.2.05V15m.05 1.1.05.3v.05l.2 2.2v.1l.05.3.15 1.35m-5.35-4.6-4.2 1.4q-1.75.6-2.85 3.2m11.9-5.15.05.85M23.4 9.25q-1.55-1.1-6.55-4.05l-3.6-1.85-2.4-1.5M7.45 6.4l5.05 4.2h-.3l-4.1-.7h-.05L5.7 9.55m12.8 5.6.25.05m-.3 1.15L17.9 8.5m.55 7.85.1 1.55.15 2.1m-4.65 11.1 1.75.1h1.15l2.05-.15.55-.05"
         fill="none"
         stroke="#2e2e2e"
         stroke-linecap="round"
         stroke-linejoin="round"
         transform="translate(.5)"
         id="path65-8" /><path
         d="M10.8 1.5q8.5 2.25 13.15 6.3 2-1.95 5.6-3.75 6.8-3.4 7.8-3.4l.2.65m-13.6 6.5-.4.4"
         fill="none"
         stroke="#8b0101"
         stroke-linecap="round"
         stroke-linejoin="round"
         stroke-width=".5"
         id="path67-7" /><path
         d="M33.3 21.65v.05m0-.05-.05-.1"
         fill="none"
         stroke="#000"
         stroke-linecap="round"
         stroke-linejoin="round"
         transform="translate(.5)"
         id="path69-1" /></g><use
       height="6.45"
       width="5"
       xlink:href="#h-2"
       id="d-7" /><use
       height="6.45"
       width="5"
       xlink:href="#i-2"
       id="h-2" /><use
       height="3.1"
       transform="translate(1.1)"
       width="1.85"
       xlink:href="#j-1"
       id="g-7" /><use
       height="31.7"
       width="47.3"
       xlink:href="#k-8"
       id="b-2" /><path
       d="m2-1.7-2 2 1.85 1.8M0 .3V.25v2.5M0 .3l-1.85 1.8M-2-1.7 0 .25V-2.7"
       fill="none"
       stroke="#fea5c0"
       stroke-linecap="round"
       stroke-linejoin="round"
       transform="translate(2.5 3.2)"
       id="i-2" /><path
       d="M25.05 17.2q.5 1.25.5 2.5 0 1.95-.95 2.85-.55.6-1.5.6-.8 0-1.25-.45l-.35-.55-.3.45q-.5.55-1.3.55-.75 0-1.15-.5-.5-.5-.5-1.6 0-1.9 1.65-3.85l.85.45q-1.6 1.85-1.6 3.4 0 .75.25 1l.5.2q.5 0 .8-.35l.55-.7v-1l.35-1.15q.3-.6.65-.6.45 0 .45.95l-.25 1.25-.35.75.3.55.7.25q.45 0 .75-.35.65-.6.65-2.15 0-1.2-.35-2.25l.9-.25"
       fill-rule="evenodd"
       transform="translate(-18.25 -17.2)"
       id="e-6" /><path
       d="M1.45.15h.7l-.9 1.4H2v1.7H.3v-1.6L1.45.15"
       fill-rule="evenodd"
       transform="translate(-.3 -.15)"
       id="j-1" /><path
       d="M1.35 0h.2l.55.1.45.35q.45.45.45 1L2.55 2.6q-.45.4-1 .4l-.8-.2-.25-.2-.45-.7v-.15L0 1.45v-.1q.05-.5.5-.9l.25-.2Q1 .05 1.3 0h.05m.45.85L1.55.8Q1.2.75 1 1q-.2.15-.2.45v.15l.15.45H1l.05.05.2.1.3.05.55-.2.15-.6-.05-.3L2.1 1 2.05.95 1.9.85h-.1"
       fill-rule="evenodd"
       id="d-3-0" /><path
       d="M10.25-2.6H.75l-1.1-1"
       fill="none"
       stroke="#333"
       stroke-linecap="round"
       stroke-linejoin="round"
       transform="translate(.85 4.1)"
       id="b-6-6" /><path
       d="m2-1.7-2 2 1.85 1.8M0 .3V.25v2.5M0 .3l-1.85 1.8M-2-1.7 0 .25V-2.7"
       fill="none"
       stroke="#fea5c0"
       stroke-linecap="round"
       stroke-linejoin="round"
       transform="translate(2.5 3.2)"
       id="e-7-1" /><g
       id="f-5-5"><path
         d="M.25-60h3.9l1.2.55 3.9-8.6 3.85 8.6 1.25-.55 3.15 3.05 1.1 1.1-.4.4.1.1q2.1 2.05 2.35 4.55v.6q0 1.65-.8 3.1l-.25.45-1.4 1.7.15.15-.3.25-3.25.9v4.7l-3.25.7-3.1.9.65 1.6L12.4-37q1.7-.6 3-.6 1.55 0 2.15.6.8.8.8 2 0 1.1-.75 1.85-1.05 1.05-4.1 1.25l-1.25.05.35 1.5 1.5-.05-.05 2.75-1.5 1.25v12.25l-.85 4.6h-1.5V-3q0 .7-.45 1.15-.55.55-1.6.55Q7-1.3 6.5-1.85 6.05-2.3 6.1-3v-6.55H4.5l-2.35-3.5H.4l-3.55 3.5V-3q0 .7-.45 1.15-.55.55-1.6.55-1.1 0-1.65-.55-.45-.45-.4-1.15v-6.55H-8.8l-1.7-1.1-1.75-3.9v-3.9l.45-.4q.75-.6 1.35-1.55l-1.25-1-.7.95.4-10.95 1.75-12.8.4.35.75-.7-1-1.1q-1.55-1.9-1.5-4.15l.05-1q.35-2.3 2.45-4.25l-.75-.75.5-3.95.65.3 3.85-8.6 3.85 8.6L.25-60m5.1 22.05Q4.3-39 2.1-39q-1.35 0-4 .75l-3.1.9.65 1.6 3.3-1.25q1.7-.6 3-.6 1.55 0 2.15.6.8.8.8 2 0 1.1-.75 1.85Q3.1-32.1.1-31.9l-1.3.05.35 1.5q3.95-.05 5.9-1.55l.45-.35q1-1 1-2.85-.05-1.8-1.15-2.85"
         fill="#fff"
         fill-rule="evenodd"
         transform="translate(21.7 71)"
         id="path497-9" /><path
         d="m4.15-60 5.1-11 5.1 11-1.25.55-3.85-8.6-3.9 8.6-1.2-.55m14.5 4.1.25-.3q2.55 2.35 2.8 5.4v.6q0 1.9-.9 3.55-.7 1.25-1.9 2.4l-.55-.55-.15-.15 1.4-1.7.25-.45q.8-1.45.8-3.1v-.6q-.25-2.5-2.35-4.55l-.1-.1.4-.4.05-.05M14.8-38.95l.75-.05q2.2 0 3.25 1.05 1.1 1.05 1.1 2.85 0 1.85-1 2.85l-.4.35q-1.55 1.2-4.4 1.5l-1.5.05-.35-1.5 1.25-.05q3.05-.2 4.1-1.25.75-.75.75-1.85 0-1.2-.8-2-.6-.6-2.15-.6-1.3 0-3 .6l-3.3 1.25-.65-1.6 3.1-.9 3.25-.7m-3.1 29.4v6.6q0 1.25-.8 2.05-.9.9-2.75.9Q6.2 0 5.3-.9q-.8-.8-.8-2.05v-6.6h1.6V-3q-.05.7.4 1.15.5.55 1.65.55 1.05 0 1.6-.55.45-.45.45-1.15v-6.55h1.5m-14.85 0h1.5v6.6q0 1.25-.8 2.05-.9.9-2.75.9Q-7.1 0-8-.9q-.85-.8-.8-2.05v-6.6h1.55V-3q-.05.7.4 1.15.55.55 1.65.55 1.05 0 1.6-.55.45-.45.45-1.15v-6.55m-9.1-8.9q-.7.45-1.6.45-1 0-2.7-1.1-1.15-.65-1.9-.65-.85 0-1.3.55l-.6.95-1.35-.75 1.2-1.65q.85-.8 1.95-.8t2.3.8q1.65.85 2.55.85.6 0 1.3-.65l.7-.95 1.25 1q-.6.95-1.35 1.55l-.45.4m2-25.75-.6-.7q-1.85-2.2-1.8-4.9l.05-1q.35-2.8 2.75-5l.75.75q-2.1 1.95-2.45 4.25l-.05 1q-.05 2.25 1.5 4.15l1 1.1-.75.7-.4-.35m.9-15.55L-9.9-60l5.05-11 5.1 11-1.25.55-3.85-8.6-3.85 8.6-.65-.3m14.7 21.8q1.1 1.05 1.15 2.85 0 1.85-1 2.85l-.45.35q-1.95 1.5-5.9 1.55l-.35-1.5 1.3-.05q3-.2 4.05-1.25.75-.75.75-1.85 0-1.2-.8-2-.6-.6-2.15-.6-1.3 0-3 .6l-3.3 1.25-.65-1.6 3.1-.9Q.75-39 2.1-39q2.2 0 3.25 1.05"
         fill="#333"
         fill-rule="evenodd"
         transform="translate(21.7 71)"
         id="path499-4" /><path
         d="m17.5-56.95 1.15 1.05-.05.05-1.1-1.1"
         fill="red"
         fill-rule="evenodd"
         transform="translate(21.7 71)"
         id="path501-9" /><path
         d="M.25-60h3.9m8.4 33.6v12.25m6.05-41.7-1.1-1.1"
         fill="none"
         stroke="#333"
         stroke-linecap="round"
         stroke-linejoin="round"
         transform="translate(21.7 71)"
         id="path503-0" /></g><g
       id="g-3-9"
       transform="translate(.8)"><use
         height="3"
         transform="matrix(1.005 0 0 1 -.804 0)"
         width="4.65"
         xlink:href="#a-6-5"
         id="use506-1" /><use
         height="3"
         transform="matrix(1.005 0 0 1 16.096 0)"
         width="4.65"
         xlink:href="#a-6-5"
         id="use508-7" /></g><g
       id="h-5-7"
       transform="translate(11.45 4.1)"><use
         height="2"
         transform="translate(-.85 -4.1)"
         width="11.6"
         xlink:href="#b-6-6"
         id="use511-1" /><use
         height="6.45"
         transform="translate(-11.45 -3.8)"
         width="5"
         xlink:href="#c-2-9"
         id="use513-1" /></g><use
       height="3"
       width="3"
       xlink:href="#d-3-0"
       id="a-6-5"
       transform="translate(.8)" /><use
       height="6.45"
       width="5"
       xlink:href="#e-7-1"
       id="c-2-9" /><g
       id="l-5"><path
         d="m11.55-26.5-.1-.1h-.05l-.35-.05.1-.2v-.05l.15-.3v-.15l.1-.5.15 1.35M-2.1-15.9v.5h-.5l-.3-.05h-.3l-.2-.05-3.55-.05-.65-.25 1.75.1h1.15l2.05-.15.55-.05m13.75-9.3-.05.05.05-.1v.05"
         fill="#fff"
         fill-rule="evenodd"
         transform="translate(16.85 27.85)"
         id="path2-3" /><path
         d="m11.15-26.85-.1.2.35.05h.05l.1.1.05.45v.9l.05-.05.65 2.95.35 1.45v.1l.2.65v.1l.05.15.05.1v.15l.1.35.1.45.1.35v.05l.45 1.6.95 3.3L16-8.95l1.35 5.45q-.6 1.15-1.4 1.7l-1.1.4-.4.15q-.85-6.35-3.15-18.4L11.25-16l-.1 15.7L7.8.25l-.05-1.1-.65-8.3-.35.1-.55-6.1-.25 14.3L5.9.4l-.85.05h-.3L3 .5 2.9-.85 2-17.5l-.45 4.1L.6-.85.55.5h-1.9L-2.9.45v-1.3l.35-11.75-.3.05q.05-2.3-.05-2.85v-.05l.3.05h.5v-.5l.1-1.3v-.15l.05-.25v-.05l.05-.1v-.05l.05-.05v-.2l.1-.25v-.65l-.1-.1-.25-1.2v-.45l-.05-1.15v-.35l-.15-.7-.15-.55.2-.55-.05-.1v-.35l.05-.1v-.05l-.05-.1v-.15l.05-.15q-.25 0-.35-.15l-.05-.15v-.35l.05-.05.1-.2v-.1l.05-.15v-.05h.05v-.2l.1-.05-.2-.35 1.65.3 5.85.25 6.15-.6M-11.1-16.4l.65.15 2.35.4.5.05.65.25 3.55.05.2.05-.25.65Q-3.95-8-5.6-.85l-.15.65-2.15-.65-1.95-1.2q-2.45-1.9-2.45-3.35-.05-1.1 1.1-9.75l.05-.5v-.45l.05-.3"
         fill="#e11e1e"
         fill-rule="evenodd"
         transform="translate(16.85 27.85)"
         id="path4-5" /><path
         d="M11.6-25.15v-.9l-.05-.45h.05l.05.05v.1l.05.1v.9l-.05.05v.05l-.05-.1.05.1-.05.1"
         fill="#333"
         fill-rule="evenodd"
         transform="translate(16.85 27.85)"
         id="path6-6" /><path
         d="m-2.85-12.55.3-.05L-2.9-.85v1.3L-3.65.4l.1-1.25q.6-8.1.7-11.7m4.4-.85L2-17.5 2.9-.85 3 .5h-.65l-.1-1.35-.7-12.55m5.2 4.35.35-.1.65 8.3.05 1.1-.35.05-.1-1.15-.6-8.2m4.5-6.95.05-3.65q2.3 12.05 3.15 18.4l-.7.25-2.5-15"
         fill="#7d0202"
         fill-rule="evenodd"
         transform="translate(16.85 27.85)"
         id="path8-29" /><path
         d="M-2.9-15.45v.05q.1.55.05 2.85-.1 3.6-.7 11.7L-3.65.4-5.8.3-6.9.2-8 .1h-.3l-.35-.1-4.9-.85-2.55-.95-.25-.1.8-4.45v-.05l.05-.1 2.2-10.7.5.2h.05l1.65.6-.05.3v.45l-.05.5q-1.15 8.65-1.1 9.75 0 1.45 2.45 3.35l1.95 1.2 2.15.65.15-.65Q-3.95-8-3.45-14.8l.25-.65h.3M.55.5.6-.85l.95-12.55.7 12.55.1 1.35H.55M5.9.4l.05-1.25.25-14.3.55 6.1.6 8.2.1 1.15L5.9.4m5.25-.7.1-15.7 2.5 15-.4.15-2.2.55"
         fill="#d70404"
         fill-rule="evenodd"
         transform="translate(16.85 27.85)"
         id="path10-1" /><path
         d="m-2.5-26.8.2.35-.1.05v.2h-.05v.05l-.05.15v.1l-.1.2-.05.05v.35l.05.15q.1.15.35.15l-.05.15v.15l.05.1v.05l-.05.1v.35l.05.1-.2.55.15.55.15.7v.35l.05 1.15v.45l.25 1.2.1.1v.65l-.1.25v.2l-.05.05v.05l-.05.1v.05l-.05.25v.15l-.1 1.3-.85-11 .45.1"
         fill="#b40303"
         fill-rule="evenodd"
         transform="translate(16.85 27.85)"
         id="path12-2" /><path
         d="M11.65-25.25v.05m0-.05-.05-.1"
         fill="none"
         stroke="#000"
         stroke-linecap="round"
         stroke-linejoin="round"
         transform="translate(16.85 27.85)"
         id="path14-70" /><path
         d="m11.15-26.85-6.15.6-5.85-.25-1.65-.3M-2.9.45l1.55.05h1.9M3 .5 4.75.45h.3L5.9.4M7.8.25l3.35-.55m3.3-.95.4-.15 1.1-.4q.8-.55 1.4-1.7L16-8.95l-1.35-4.5-.95-3.3-.45-1.6v-.05l-.1-.35-.1-.45-.1-.35v-.15l-.05-.1-.05-.15v-.1l-.2-.65v-.1l-.35-1.45-.65-2.95m-.05.05v-.9l-.05-.45M7.45.3 7.8.25m6.65-1.5-.7.25-.4.15-2.2.55m-8.8.8H3M7.45.3 5.9.4M2.35.5H.55M-2.1-15.9l-.85-11 .45.1m-5.1 11 1.75.1h1.15l2.05-.15.55-.05m-9-.5.65.15 2.35.4.5.05m-5.15-1.2h-.05l-.5-.2-2.2 10.7-.05.1v.05l-.8 4.45.25.1 2.55.95 4.9.85.35.1h.3l1.1.1 1.1.1 2.15.1m.75.05L-3.65.4"
         fill="none"
         stroke="#2e2e2e"
         stroke-linecap="round"
         stroke-linejoin="round"
         transform="translate(16.85 27.85)"
         id="path16-9" /></g><g
       id="m-3"
       transform="translate(.5)"><use
         height="35.8"
         transform="translate(6.35)"
         width="34.35"
         xlink:href="#a-2"
         id="use19-6" /><use
         height="31.7"
         transform="translate(-.5 23.7)"
         width="47.3"
         xlink:href="#b-63"
         id="use21-06" /></g><g
       id="a-2"><use
         height="35.8"
         width="34.35"
         xlink:href="#c-20"
         id="use24-6" /><use
         height="6.45"
         transform="translate(5.35 16.65)"
         width="5"
         xlink:href="#d-36"
         id="use26-1" /><use
         height="5.95"
         transform="translate(18.25 17.2)"
         width="7.3"
         xlink:href="#e-61"
         id="use28-87" /><use
         height="3.1"
         transform="translate(14.1 12.45)"
         width="15.65"
         xlink:href="#f-9"
         id="use30-9" /></g><g
       id="c-20"><path
         d="m27.2 9.3.05.1-1.05.5-3.3-7.35-3.3 7.35-.85-.4-.2-.1L22.9 0l4.3 9.3m-15.3.2.05.1-.05.05-1 .45-3.3-7.35v.1L4.3 10.1l-1.05-.5L7.6.2l4.3 9.3"
         fill-rule="evenodd"
         id="path33-2" /><path
         d="m18.75 9.5.85.4 3.3-7.35 3.3 7.35 1.05-.5-.05-.1 2.9 2.8 1.15 1.1-.4.4.1.1q2.1 2.05 2.35 4.55v.6q0 1.65-.8 3.1l-.25.45-1.4 1.7.1.1-.3.3-3.25.9v3.4h-4.95l-7.2 7-7.85-7h-.15l-1.9-3.1-2.2-.8.4-.4-1-1.1-.55-.8q-.9-1.5-.95-3.2v-.15l.1-1q.35-2.3 2.4-4.25l-.75-.75 1.5-3.15 3.3-7.25 3.25 7.3 1.05-.5.05-.05-.05-.1.6-.25V9.1l.05.1q.2-.05.35-.15h4.7l1.15.55v-.1m11.35 2.6 1.15 1.1-1.15-1.1M18.55 9.8h.05l.05-.05h-.2l.1.05m-15.2-.45-.05.15v-.15h.05"
         fill="#fff"
         fill-rule="evenodd"
         id="path35-3" /><path
         d="m2.8 13.25.75.75q-2.05 1.95-2.4 4.25l-.1 1v.15q.05 1.7.95 3.2l.55.8 1 1.1-.4.4-.35.3-.4-.35-.25-.3-.35-.4Q.05 22.05 0 19.4v-.15l.1-1q.3-2.8 2.7-5M30.95 24.2l-.1-.1 1.4-1.7.25-.45q.8-1.45.8-3.1v-.6q-.25-2.5-2.35-4.55l-.1-.1.4-.4.3-.35q2.55 2.35 2.8 5.4v.6q0 1.9-.9 3.55l-1.9 2.4-.6-.6"
         fill="#333"
         fill-rule="evenodd"
         id="path37-7" /><path
         d="m31.25 13.2-1.15-1.1"
         fill="none"
         stroke="#333"
         stroke-linecap="round"
         stroke-linejoin="round"
         id="path39-5" /></g><g
       id="f-9"
       transform="translate(.8 -.15)"><use
         height="3.1"
         transform="matrix(1.005 0 0 1 -.804 .15)"
         width="4.65"
         xlink:href="#g-0"
         id="use42-2" /><use
         height="3.1"
         transform="matrix(1.005 0 0 1 10.196 .15)"
         width="4.65"
         xlink:href="#g-0"
         id="use44-2" /></g><g
       id="k-89"><path
         d="m40.95 10.35 5.35 14L44.5 26l-.75-1.3q-1.05.95-2.4 1.7l.45 1.35-2.25 1.1-.15-.35-.2-1.1-2.85.8.2 1.35.1.35-.4.1-.3.05-.6.1-.45-1.6v-.05l-.1-.35-.1-.45-.1-.35v-.15l-.05-.1-.05-.15v-.1l-.2-.75-.35-1.45-.65-2.95-.05.05.05-.1v-.05l.05-.05v-.9l-.05-.1v-.1l-.05-.05h-.05l-.1-.1h-.05l-.35-.05.1-.2V20l.15-.3v-.15l.1-.5-.05-.3v-.1.1l-.5-.55-.05-.45v-.15l-.05-.1v-.2l-.05-.1v-.6l.15-.2.25-.3.05-.1v-.6l-.1-.1V15v.25l-.1-.1-.15-.1.05.15-4.65.6h-1.5l-7.6-.6v-1.7q-.05-1.8 4.65-4.25-4.7 2.45-4.65 4.25v1.7l-.25-.05.05.05.2.25.1.25h-.1v.15l-.05.05v.05l-.05.05-.2.35-.1.65.2.9.15 2.1.85 11v.5h-.5l-.3-.05h-.3l-.2-.05-3.55-.05-.65-.25 1.75.1h.1q-.05-.85-.6-1.65h-.05l-.95-.05-1.8-.2-.55 1.05-.65-.05-.1.35-.65-.15-1.65-.6.7-1.4q-1.05-.45-1.85-1.1-.75.75-1 1.3l-1.25-.95.15-.25-.1-.05-.85-.65 1.2-.9-1.55-1.3-.3-.25-1.15.95-.5-.5-.3-.25-.05-.05-.8-.85.15-.25.9-.75-1.45-1.9-.25-.1q2.2-5.7 5.1-11.1l2.35.35h.05l4.1.7h.3L7.45 6.4l.2-.35 1.4-2.3 1.25-1.9v-.1.1h.55l2.4 1.5 3.6 1.85q5 2.95 6.55 4.05V9.2q5-3 7.45-4.2l6.2-3.45v.25l.25.1.35.1v.05l2.15 5.4-1.5.7q-.1 0-.15.1L38 8.3q-1.2.6-3 1.55 0 .9 4.3.95 1.4 0 1.65-.45m-3.9-8.55.05.05-.05-.05M32.8 16.45v-.05l-.05-.3.05.3v.05l.2 2.2v-1.5l-.2-.7m.4 3.95-.15-1.35.15 1.35m.1 1.3v-.05.05M10.95 4.4l.25-.55-.25.5v.05M7.9 10.7h-.05.05m.15-.45v.15-.15M17.9 8.5l.55 7.85-.55-7.85M19.55 31l-.55.05-2.05.15H15.9h1.05l2.05-.15.55-.05"
         fill="#fff"
         fill-rule="evenodd"
         transform="translate(.5)"
         id="path47-7" /><path
         d="m44.5 26-2 1.4-.2.1-.2.1-.3.15-.45-1.35q1.35-.75 2.4-1.7l.75 1.3m-4.95 2.85-.55.25-.25.1h-.05l-2.05.7-.1-.35-.2-1.35 2.85-.8.2 1.1.15.35M8.9 29.9h-.05l-.5-.2-.45-.3-1.05-.6-.1-.1q.25-.55 1-1.3.8.65 1.85 1.1l-.7 1.4m-7.65-6.25L0 22.25v-.05l.4-1.1.2-.45.25.1 1.45 1.9-.9.75-.15.25M2.9 25.3l1.15-.95.3.25 1.55 1.3-1.2.9-1.8-1.5m9.05 5.05.55-1.05 1.8.2.95.05h.05q.55.8.6 1.65h-.1l-1.75-.1-.45-.15-.4-.1-.7-.15v-.05l-.05-.05v-.05h-.05v-.05l-.1-.05-.25-.1h-.1"
         fill="#a70303"
         fill-rule="evenodd"
         transform="translate(.5)"
         id="path49-3" /><path
         d="M10.85 1.85h.2l-.15-.1-.2-.1-.3-.1-.1-.05q8.5 2.25 13.15 6.3 2-1.95 5.6-3.75 6.8-3.4 7.8-3.4l.2.65v.25L30.85 5Q28.4 6.2 23.4 9.2v.05q-1.55-1.1-6.55-4.05l-3.6-1.85-2.4-1.5m12.2 6.35.4-.4-.4.4m9.9 22.8h-.05v-.1l.05.1"
         fill="#d70404"
         fill-rule="evenodd"
         transform="translate(.5)"
         id="path51-61" /><path
         d="m37.3 1.9.15-.05.1.05.1.1-.35-.1m-4.6 13.35V15v.3-.05m.1 1.2.2.7v1.5l-.2-2.2M10.95 4.4v-.05l.25-.5-.25.55m-2.9 5.85v.15-.15"
         fill="#6a6a6a"
         fill-rule="evenodd"
         transform="translate(.5)"
         id="path53-2" /><path
         d="m32.8 20.05-6.15.6-5.85-.25-1.65-.3-.05-.4-.05-.65q-.2-.4-.05-.65l-.2-.15-.35-1.9.2-.35.05-.05v-.05l.05-.05v-.15h.1l-.1-.25-.2-.25-.05-.05.25.05 7.6.6h1.5l4.65-.6-.05-.15.15.1.1.1.05.85-.25.3-.15.2v.6l.05.1v.2l.05.1v.15l.05.45.5.55.05.3-.1.5v.15l-.15.3v.05M5.7 9.55l.9-1.65.1-.1v-.05l.05-.05.05-.1v-.25h.05l.05-.1V7.2l.1-.05.45-.75 5.05 4.2h-.3l-4.1-.7h-.05L5.7 9.55m34.1-2.1.2.45.15.25v.1l.05.1.75 2q-.25.45-1.65.45-4.3-.05-4.3-.95 1.8-.95 3-1.55l.15-.05q.05-.1.15-.1l1.5-.7m-19 12.95q1.1-2.6 2.85-3.2l4.2-1.4-4.2 1.4q-1.75.6-2.85 3.2"
         fill="#e11e1e"
         fill-rule="evenodd"
         transform="translate(.5)"
         id="path55-9" /><path
         d="m32.7 15.3.1.1v.6l-.05.1-.05-.85v.05m-14.15 2.6-.2-.9.1-.65.1 1.55"
         fill="#df0202"
         fill-rule="evenodd"
         transform="translate(.5)"
         id="path57-3" /><path
         d="M33.25 21.75v-.9l-.05-.45h.05l.05.05v.1l.05.1v.9l-.05.05v.05l-.05-.1.05.1-.05.1"
         fill="#333"
         fill-rule="evenodd"
         transform="translate(.5)"
         id="path59-1" /><path
         d="m7.75.1-.1-.1h.15l-.05.1"
         fill-rule="evenodd"
         transform="translate(.5)"
         id="path61-9" /><path
         d="m19.15 20.1-.45-.1-.15-2.1-.1-1.55.35 1.9.2.15q-.15.25.05.65l.05.65.05.4"
         fill="#b40303"
         fill-rule="evenodd"
         transform="translate(.5)"
         id="path63-47" /><path
         d="m40.95 10.35 5.35 14L44.5 26l-2 1.4-.2.1-.2.1-.3.15-2.25 1.1-.55.25-.25.1h-.05l-2.05.7-.4.1-.3.05-.6.1-.45-1.6v-.05l-.1-.35-.1-.45-.1-.35v-.15l-.05-.1-.05-.15v-.1l-.2-.75-.35-1.45-.65-2.95m-.05.05v-.9l-.05-.45m-.4-.35-6.15.6-5.85-.25-1.65-.3-.45-.1.85 11m-5.5.1-.5-.05-2.35-.4-.65-.15-1.65-.6h-.05l-.5-.2-.45-.3-1.05-.6-.1-.1-1.25-.95-2.6-2.45-.5-.5-.3-.25m-.05-.05-.8-.85L0 22.25m0-.05.4-1.1.2-.45q2.2-5.7 5.1-11.1M7.45 6.4l.2-.35 1.4-2.3 1.25-1.9m0-.1v.1m27.35.2 2.15 5.4m1.15 2.9q-.25.45-1.65.45-4.3-.05-4.3-.95 1.8-.95 3-1.55l.15-.05q.05-.1.15-.1l1.5-.7m-2.75-5.9L30.85 5Q28.4 6.2 23.4 9.2v.05q-4.7 2.45-4.65 4.25v1.7l7.6.6h1.5l4.65-.6m.2.05V15m.05 1.1.05.3v.05l.2 2.2v.1l.05.3.15 1.35m-5.35-4.6-4.2 1.4q-1.75.6-2.85 3.2m11.9-5.15.05.85M23.4 9.25q-1.55-1.1-6.55-4.05l-3.6-1.85-2.4-1.5M7.45 6.4l5.05 4.2h-.3l-4.1-.7h-.05L5.7 9.55m12.8 5.6.25.05m-.3 1.15L17.9 8.5m.55 7.85.1 1.55.15 2.1m-4.65 11.1 1.75.1h1.15l2.05-.15.55-.05"
         fill="none"
         stroke="#2e2e2e"
         stroke-linecap="round"
         stroke-linejoin="round"
         transform="translate(.5)"
         id="path65-84" /><path
         d="M10.8 1.5q8.5 2.25 13.15 6.3 2-1.95 5.6-3.75 6.8-3.4 7.8-3.4l.2.65m-13.6 6.5-.4.4"
         fill="none"
         stroke="#8b0101"
         stroke-linecap="round"
         stroke-linejoin="round"
         stroke-width=".5"
         id="path67-5" /><path
         d="M33.3 21.65v.05m0-.05-.05-.1"
         fill="none"
         stroke="#000"
         stroke-linecap="round"
         stroke-linejoin="round"
         transform="translate(.5)"
         id="path69-0" /></g><use
       height="6.45"
       width="5"
       xlink:href="#h-1"
       id="d-36" /><use
       height="6.45"
       width="5"
       xlink:href="#i-20"
       id="h-1" /><use
       height="3.1"
       transform="translate(1.1)"
       width="1.85"
       xlink:href="#j-5"
       id="g-0" /><use
       height="31.7"
       width="47.3"
       xlink:href="#k-89"
       id="b-63" /><path
       d="m2-1.7-2 2 1.85 1.8M0 .3V.25v2.5M0 .3l-1.85 1.8M-2-1.7 0 .25V-2.7"
       fill="none"
       stroke="#fea5c0"
       stroke-linecap="round"
       stroke-linejoin="round"
       transform="translate(2.5 3.2)"
       id="i-20" /><path
       d="M25.05 17.2q.5 1.25.5 2.5 0 1.95-.95 2.85-.55.6-1.5.6-.8 0-1.25-.45l-.35-.55-.3.45q-.5.55-1.3.55-.75 0-1.15-.5-.5-.5-.5-1.6 0-1.9 1.65-3.85l.85.45q-1.6 1.85-1.6 3.4 0 .75.25 1l.5.2q.5 0 .8-.35l.55-.7v-1l.35-1.15q.3-.6.65-.6.45 0 .45.95l-.25 1.25-.35.75.3.55.7.25q.45 0 .75-.35.65-.6.65-2.15 0-1.2-.35-2.25l.9-.25"
       fill-rule="evenodd"
       transform="translate(-18.25 -17.2)"
       id="e-61" /><path
       d="M1.45.15h.7l-.9 1.4H2v1.7H.3v-1.6L1.45.15"
       fill-rule="evenodd"
       transform="translate(-.3 -.15)"
       id="j-5" /><path
       d="M1.35 0h.2l.55.1.45.35q.45.45.45 1L2.55 2.6q-.45.4-1 .4l-.8-.2-.25-.2-.45-.7v-.15L0 1.45v-.1q.05-.5.5-.9l.25-.2Q1 .05 1.3 0h.05m.45.85L1.55.8Q1.2.75 1 1q-.2.15-.2.45v.15l.15.45H1l.05.05.2.1.3.05.55-.2.15-.6-.05-.3L2.1 1 2.05.95 1.9.85h-.1"
       fill-rule="evenodd"
       id="d-3-5" /><path
       d="M10.25-2.6H.75l-1.1-1"
       fill="none"
       stroke="#333"
       stroke-linecap="round"
       stroke-linejoin="round"
       transform="translate(.85 4.1)"
       id="b-6-4" /><path
       d="m2-1.7-2 2 1.85 1.8M0 .3V.25v2.5M0 .3l-1.85 1.8M-2-1.7 0 .25V-2.7"
       fill="none"
       stroke="#fea5c0"
       stroke-linecap="round"
       stroke-linejoin="round"
       transform="translate(2.5 3.2)"
       id="e-7-7" /><g
       id="f-5-6"><path
         d="M.25-60h3.9l1.2.55 3.9-8.6 3.85 8.6 1.25-.55 3.15 3.05 1.1 1.1-.4.4.1.1q2.1 2.05 2.35 4.55v.6q0 1.65-.8 3.1l-.25.45-1.4 1.7.15.15-.3.25-3.25.9v4.7l-3.25.7-3.1.9.65 1.6L12.4-37q1.7-.6 3-.6 1.55 0 2.15.6.8.8.8 2 0 1.1-.75 1.85-1.05 1.05-4.1 1.25l-1.25.05.35 1.5 1.5-.05-.05 2.75-1.5 1.25v12.25l-.85 4.6h-1.5V-3q0 .7-.45 1.15-.55.55-1.6.55Q7-1.3 6.5-1.85 6.05-2.3 6.1-3v-6.55H4.5l-2.35-3.5H.4l-3.55 3.5V-3q0 .7-.45 1.15-.55.55-1.6.55-1.1 0-1.65-.55-.45-.45-.4-1.15v-6.55H-8.8l-1.7-1.1-1.75-3.9v-3.9l.45-.4q.75-.6 1.35-1.55l-1.25-1-.7.95.4-10.95 1.75-12.8.4.35.75-.7-1-1.1q-1.55-1.9-1.5-4.15l.05-1q.35-2.3 2.45-4.25l-.75-.75.5-3.95.65.3 3.85-8.6 3.85 8.6L.25-60m5.1 22.05Q4.3-39 2.1-39q-1.35 0-4 .75l-3.1.9.65 1.6 3.3-1.25q1.7-.6 3-.6 1.55 0 2.15.6.8.8.8 2 0 1.1-.75 1.85Q3.1-32.1.1-31.9l-1.3.05.35 1.5q3.95-.05 5.9-1.55l.45-.35q1-1 1-2.85-.05-1.8-1.15-2.85"
         fill="#fff"
         fill-rule="evenodd"
         transform="translate(21.7 71)"
         id="path497-5" /><path
         d="m4.15-60 5.1-11 5.1 11-1.25.55-3.85-8.6-3.9 8.6-1.2-.55m14.5 4.1.25-.3q2.55 2.35 2.8 5.4v.6q0 1.9-.9 3.55-.7 1.25-1.9 2.4l-.55-.55-.15-.15 1.4-1.7.25-.45q.8-1.45.8-3.1v-.6q-.25-2.5-2.35-4.55l-.1-.1.4-.4.05-.05M14.8-38.95l.75-.05q2.2 0 3.25 1.05 1.1 1.05 1.1 2.85 0 1.85-1 2.85l-.4.35q-1.55 1.2-4.4 1.5l-1.5.05-.35-1.5 1.25-.05q3.05-.2 4.1-1.25.75-.75.75-1.85 0-1.2-.8-2-.6-.6-2.15-.6-1.3 0-3 .6l-3.3 1.25-.65-1.6 3.1-.9 3.25-.7m-3.1 29.4v6.6q0 1.25-.8 2.05-.9.9-2.75.9Q6.2 0 5.3-.9q-.8-.8-.8-2.05v-6.6h1.6V-3q-.05.7.4 1.15.5.55 1.65.55 1.05 0 1.6-.55.45-.45.45-1.15v-6.55h1.5m-14.85 0h1.5v6.6q0 1.25-.8 2.05-.9.9-2.75.9Q-7.1 0-8-.9q-.85-.8-.8-2.05v-6.6h1.55V-3q-.05.7.4 1.15.55.55 1.65.55 1.05 0 1.6-.55.45-.45.45-1.15v-6.55m-9.1-8.9q-.7.45-1.6.45-1 0-2.7-1.1-1.15-.65-1.9-.65-.85 0-1.3.55l-.6.95-1.35-.75 1.2-1.65q.85-.8 1.95-.8t2.3.8q1.65.85 2.55.85.6 0 1.3-.65l.7-.95 1.25 1q-.6.95-1.35 1.55l-.45.4m2-25.75-.6-.7q-1.85-2.2-1.8-4.9l.05-1q.35-2.8 2.75-5l.75.75q-2.1 1.95-2.45 4.25l-.05 1q-.05 2.25 1.5 4.15l1 1.1-.75.7-.4-.35m.9-15.55L-9.9-60l5.05-11 5.1 11-1.25.55-3.85-8.6-3.85 8.6-.65-.3m14.7 21.8q1.1 1.05 1.15 2.85 0 1.85-1 2.85l-.45.35q-1.95 1.5-5.9 1.55l-.35-1.5 1.3-.05q3-.2 4.05-1.25.75-.75.75-1.85 0-1.2-.8-2-.6-.6-2.15-.6-1.3 0-3 .6l-3.3 1.25-.65-1.6 3.1-.9Q.75-39 2.1-39q2.2 0 3.25 1.05"
         fill="#333"
         fill-rule="evenodd"
         transform="translate(21.7 71)"
         id="path499-6" /><path
         d="m17.5-56.95 1.15 1.05-.05.05-1.1-1.1"
         fill="red"
         fill-rule="evenodd"
         transform="translate(21.7 71)"
         id="path501-93" /><path
         d="M.25-60h3.9m8.4 33.6v12.25m6.05-41.7-1.1-1.1"
         fill="none"
         stroke="#333"
         stroke-linecap="round"
         stroke-linejoin="round"
         transform="translate(21.7 71)"
         id="path503-7" /></g><g
       id="g-3-4"
       transform="translate(.8)"><use
         height="3"
         transform="matrix(1.005 0 0 1 -.804 0)"
         width="4.65"
         xlink:href="#a-6-4"
         id="use506-5" /><use
         height="3"
         transform="matrix(1.005 0 0 1 16.096 0)"
         width="4.65"
         xlink:href="#a-6-4"
         id="use508-2" /></g><g
       id="h-5-5"
       transform="translate(11.45 4.1)"><use
         height="2"
         transform="translate(-.85 -4.1)"
         width="11.6"
         xlink:href="#b-6-4"
         id="use511-4" /><use
         height="6.45"
         transform="translate(-11.45 -3.8)"
         width="5"
         xlink:href="#c-2-4"
         id="use513-7" /></g><use
       height="3"
       width="3"
       xlink:href="#d-3-5"
       id="a-6-4"
       transform="translate(.8)" /><use
       height="6.45"
       width="5"
       xlink:href="#e-7-7"
       id="c-2-4" /><g
       id="c-3"><path
         d="M.4-60h3.9l1.2.55 3.9-8.6 3.85 8.6L14.5-60l3.15 3.05 1.15 1.05-.05.05-.4.4.1.1q2.1 2.05 2.35 4.55v.6q0 1.65-.8 3.1l-.25.45-1.4 1.7.15.15-.3.25-3.25.9v4.7l-3.25.7-3.1.9.65 1.6 3.3-1.25 3-.6q1.55 0 2.15.6.8.8.8 2 0 1.1-.75 1.85-1.05 1.05-4.1 1.25l-1.25.05.35 1.5 1.5-.05-.05 2.75-1.5 1.25v12.25l-.85 4.6h-1.5V-3q0 .7-.45 1.15-.55.55-1.6.55-1.15 0-1.65-.55Q6.2-2.3 6.25-3v-6.55h-1.6l-2.35-3.5H.55L-3-9.55V-3q0 .7-.45 1.15-.55.55-1.6.55-1.1 0-1.65-.55-.45-.45-.4-1.15v-6.55h-1.55l-1.7-1.1-1.75-3.9v-3.9l.45-.4q.75-.6 1.35-1.55l-1.25-1-.7.95.4-10.95 1.75-12.8.4.35.75-.7-1-1.1q-1.55-1.9-1.5-4.15l.05-1q.35-2.3 2.45-4.25l-.75-.75.5-3.95.65.3 3.85-8.6 3.85 8.6L.4-60m10.1 14.7v1.9h1.3v-3.25h-1.15v-9.45h-6.2v3.85l-.05 1.1-.45 2.45-1 2.05H2v3.3h1.35v-1.95h7.15m-6.05-1.35.5-.9.9-3.55v-.05l.05-.35v-3.25h3.4v8.1H4.45m14.3-9.2-1.1-1.1 1.1 1.1M5.5-37.95Q4.45-39 2.25-39l-4 .75-3.1.9.65 1.6L-.9-37l3-.6q1.55 0 2.15.6.8.8.8 2 0 1.1-.75 1.85Q3.25-32.1.25-31.9l-1.3.05.35 1.5q3.95-.05 5.9-1.55l.45-.35q1-1 1-2.85-.05-1.8-1.15-2.85M-7.15-43.6l.75-1.55v-1.35h-1.5v1.45h.55l-.55 1.45h.75M-5-45.05h.55L-5-43.6h.75l.75-1.55v-1.35H-5v1.45"
         fill="#fff"
         fill-rule="evenodd"
         transform="translate(21.55 71)"
         id="path2-6" /><path
         d="m4.3-60 5.1-11 5.1 11-1.25.55-3.85-8.6-3.9 8.6L4.3-60m14.5 4.1.25-.3q2.55 2.35 2.8 5.4v.6q0 1.9-.9 3.55-.7 1.25-1.9 2.4l-.55-.55-.15-.15 1.4-1.7.25-.45q.8-1.45.8-3.1v-.6q-.25-2.5-2.35-4.55l-.1-.1.4-.4.05-.05m-3.85 16.95.75-.05q2.2 0 3.25 1.05 1.1 1.05 1.1 2.85 0 1.85-1 2.85l-.4.35q-1.55 1.2-4.4 1.5l-1.5.05-.35-1.5 1.25-.05q3.05-.2 4.1-1.25.75-.75.75-1.85 0-1.2-.8-2-.6-.6-2.15-.6l-3 .6-3.3 1.25-.65-1.6 3.1-.9 3.25-.7m-3.1 29.4v6.6q0 1.25-.8 2.05-.9.9-2.75.9-1.95 0-2.85-.9-.8-.8-.8-2.05v-6.6h1.6V-3q-.05.7.4 1.15.5.55 1.65.55 1.05 0 1.6-.55.45-.45.45-1.15v-6.55h1.5M-3-9.55h1.5v6.6q0 1.25-.8 2.05-.9.9-2.75.9-1.9 0-2.8-.9-.85-.8-.8-2.05v-6.6h1.55V-3q-.05.7.4 1.15.55.55 1.65.55 1.05 0 1.6-.55Q-3-2.3-3-3v-6.55m-9.1-8.9q-.7.45-1.6.45-1 0-2.7-1.1l-1.9-.65q-.85 0-1.3.55l-.6.95-1.35-.75 1.2-1.65q.85-.8 1.95-.8t2.3.8q1.65.85 2.55.85.6 0 1.3-.65l.7-.95 1.25 1q-.6.95-1.35 1.55l-.45.4m2-25.75-.6-.7q-1.85-2.2-1.8-4.9l.05-1q.35-2.8 2.75-5l.75.75q-2.1 1.95-2.45 4.25l-.05 1q-.05 2.25 1.5 4.15l1 1.1-.75.7-.4-.35m.9-15.55-.55-.25 5.05-11L.4-60l-1.25.55-3.85-8.6-3.85 8.6-.65-.3M2-43.4v-3.25h.95l1-2.05.45-2.45.05-1.1v-3.85h6.2v9.45h1.15v3.25h-1.3v-1.95H3.35v1.95H2m7.3-11.35v-.05H5.85v3.25l-.05.35v.05l-.9 3.55-.5.9-.05.05H9.3v-8.1m-3.8 16.8q1.1 1.05 1.15 2.85 0 1.85-1 2.85l-.45.35q-1.95 1.5-5.9 1.55l-.35-1.5 1.3-.05q3-.2 4.05-1.25.75-.75.75-1.85 0-1.2-.8-2-.6-.6-2.15-.6l-3 .6-3.3 1.25-.65-1.6 3.1-.9 4-.75q2.2 0 3.25 1.05M-5-45.05v-1.45h1.5v1.35l-.75 1.55H-5l.55-1.45H-5m-2.15 1.45h-.75l.55-1.45h-.55v-1.45h1.5v1.35l-.75 1.55"
         fill-rule="evenodd"
         transform="translate(21.55 71)"
         id="path4-7" /><path
         d="M.4-60h3.9m8.4 33.6v9.45m0 0v2.8m4.95-42.8 1.1 1.1"
         fill="none"
         stroke="#000"
         stroke-linecap="round"
         stroke-linejoin="round"
         transform="translate(21.55 71)"
         id="path6-53" /></g><g
       id="d-5"
       transform="translate(.8)"><use
         height="3"
         transform="matrix(1.005 0 0 1 -.804 0)"
         width="4.65"
         xlink:href="#a-9"
         id="use9" /><use
         height="3"
         transform="matrix(1.005 0 0 1 16.096 0)"
         width="4.65"
         xlink:href="#a-9"
         id="use11" /></g><path
       d="M1.35 0h.2l.55.1.45.35q.45.45.45 1L2.55 2.6q-.45.4-1 .4l-.8-.2-.25-.2-.45-.7v-.15L0 1.45v-.1q.05-.5.5-.9l.25-.2Q1 .05 1.3 0h.05m.45.85L1.55.8Q1.2.75 1 1q-.2.15-.2.45v.15l.15.45H1l.05.05.2.1.3.05.55-.2.15-.6-.05-.3L2.1 1 2.05.95 1.9.85h-.1"
       fill-rule="evenodd"
       id="b-62" /><use
       height="3"
       transform="translate(.8)"
       width="3"
       xlink:href="#b-62"
       id="a-9" /></defs><path
     d="m56.422 107.78-5.332 30.469 17.072 2.763 16.135 1.044 11.231-.205 10.615-2.198 7.133-3.164 1.375-2.286-10.876-40.87-.511-5.357-29.284-.184 1.682 21.414-8.876.593z"
     fill="#e11e1e"
     fill-rule="evenodd"
     id="path81"
     style="fill:#808080" /><g
     transform="matrix(2 0 0 2 79.837 141.03)"
     id="g87"><g
       id="use83"
       transform="translate(-16.85,-27.85)"><path
         d="m -2.9,-15.45 v 0.05 q 0.1,0.55 0.05,2.85 -0.1,3.6 -0.7,11.7 L -3.65,0.4 -5.8,0.3 -6.9,0.2 -8,0.1 H -8.3 L -8.65,0 l -4.9,-0.85 -2.55,-0.95 -0.25,-0.1 0.8,-4.45 V -6.4 l 0.05,-0.1 2.2,-10.7 0.5,0.2 h 0.05 l 1.65,0.6 -0.05,0.3 v 0.45 l -0.05,0.5 q -1.15,8.65 -1.1,9.75 0,1.45 2.45,3.35 l 1.95,1.2 2.15,0.65 0.15,-0.65 Q -3.95,-8 -3.45,-14.8 l 0.25,-0.65 h 0.3 M 0.55,0.5 0.6,-0.85 1.55,-13.4 2.25,-0.85 2.35,0.5 h -1.8 m 5.35,-0.1 0.05,-1.25 0.25,-14.3 0.55,6.1 0.6,8.2 0.1,1.15 -1.55,0.1 m 5.25,-0.7 0.1,-15.7 2.5,15 -0.4,0.15 -2.2,0.55"
         fill="#d70404"
         fill-rule="evenodd"
         transform="translate(16.85,27.85)"
         id="path327"
         style="fill:#666666" /><path
         d="M 11.15,-26.85 5,-26.25 -0.85,-26.5 -2.5,-26.8 M -2.9,0.45 -1.35,0.5 h 1.9 M 3,0.5 4.75,0.45 h 0.3 L 5.9,0.4 M 7.8,0.25 11.15,-0.3 m 3.3,-0.95 0.4,-0.15 1.1,-0.4 q 0.8,-0.55 1.4,-1.7 L 16,-8.95 l -1.35,-4.5 -0.95,-3.3 -0.45,-1.6 v -0.05 l -0.1,-0.35 -0.1,-0.45 -0.1,-0.35 v -0.15 l -0.05,-0.1 -0.05,-0.15 v -0.1 l -0.2,-0.65 v -0.1 l -0.35,-1.45 -0.65,-2.95 m -0.05,0.05 v -0.9 L 11.55,-26.5 M 7.45,0.3 7.8,0.25 m 6.65,-1.5 -0.7,0.25 -0.4,0.15 -2.2,0.55 M 2.35,0.5 H 3 M 7.45,0.3 5.9,0.4 M 2.35,0.5 h -1.8 m -2.65,-16.4 -0.85,-11 0.45,0.1 m -5.1,11 1.75,0.1 h 1.15 l 2.05,-0.15 0.55,-0.05 m -9,-0.5 0.65,0.15 2.35,0.4 0.5,0.05 m -5.15,-1.2 h -0.05 l -0.5,-0.2 -2.2,10.7 -0.05,0.1 v 0.05 l -0.8,4.45 0.25,0.1 2.55,0.95 4.9,0.85 0.35,0.1 H -8 l 1.1,0.1 1.1,0.1 2.15,0.1 M -2.9,0.45 -3.65,0.4"
         fill="none"
         stroke="#2e2e2e"
         stroke-linecap="round"
         stroke-linejoin="round"
         transform="translate(16.85,27.85)"
         id="path333" /></g><g
       id="use85"
       transform="matrix(1,0,0,0.9993,-21.6,-70.5)"><g
         id="use197"
         transform="translate(6.35)"><use
           height="35.799999"
           width="34.349998"
           xlink:href="#c"
           id="use203" /></g><g
         id="use199"
         transform="translate(-0.5,23.7)"><path
           d="m 10.85,1.85 h 0.2 L 10.9,1.75 10.7,1.65 10.4,1.55 10.3,1.5 q 8.5,2.25 13.15,6.3 2,-1.95 5.6,-3.75 6.8,-3.4 7.8,-3.4 l 0.2,0.65 V 1.55 L 30.85,5 Q 28.4,6.2 23.4,9.2 V 9.25 Q 21.85,8.15 16.85,5.2 l -3.6,-1.85 -2.4,-1.5 m 12.2,6.35 0.4,-0.4 -0.4,0.4 M 32.95,31 H 32.9 v -0.1 l 0.05,0.1"
           fill="#d70404"
           fill-rule="evenodd"
           transform="translate(0.5)"
           id="path239"
           style="fill:#4d4d4d" /><path
           d="m 10.8,1.5 q 8.5,2.25 13.15,6.3 2,-1.95 5.6,-3.75 6.8,-3.4 7.8,-3.4 l 0.2,0.65 m -13.6,6.5 -0.4,0.4"
           fill="none"
           stroke="#8b0101"
           stroke-linecap="round"
           stroke-linejoin="round"
           stroke-width="0.5"
           id="path255"
           style="stroke:#2e2e2e;stroke-opacity:1" /></g></g></g><g
     id="g1215"
     transform="translate(8.7839417e-5,0.00931281)"><path
       style="opacity:1;fill:#666666;fill-opacity:1;stroke:#2e2e2e;stroke-width:0.945211;stroke-opacity:1"
       d="M 10.374264,25.523082 0.054368,45.9056 c 0,0 8.236277,11.699279 19.513498,8.684689 -0.56728,-10.83416 -0.56728,-10.83416 -0.56728,-10.83416 14.218044,-0.05269 14.218044,-0.05269 14.218044,-0.05269 1.26235,7.591668 1.686045,8.644475 1.686045,8.644475 0,0 2.434615,3.837256 11.614545,-4.150799 C 37.28588,25.162524 37.28588,25.162524 37.28588,25.162524 23.427512,32.755533 23.427512,32.755533 23.427512,32.755533 10.530866,25.606521 10.374264,25.523082 10.374264,25.523082 Z"
       id="path3845"
       transform="matrix(2,0,0,1.9986,36.637,0.03)" /><path
       style="opacity:1;fill:#a05a2c;fill-opacity:1;stroke:#2e2e2e;stroke-width:0.942207;stroke-opacity:1"
       d="m 19.098077,45.491584 14.412665,-0.511493 -0.752883,-6.896182 c 0,0 -13.90913,-1.081171 -13.659782,7.407675 z"
       id="path3853"
       transform="matrix(2,0,0,1.9986,36.637,0.03)" /><path
       style="fill:#a05a2c;fill-opacity:1;stroke:#2e2e2e;stroke-width:0.957216;stroke-opacity:1"
       d="m 11.588579,-33.14583 -14.2872534,0.348658 0.082962,5.595409 c 0,0 -0.1489036,-5.610701 14.2042914,-5.944067 z"
       id="path1235"
       transform="matrix(2,0,0,2,79.837,141.03)" /><path
       style="fill:#808080;fill-opacity:1;stroke:#808080;stroke-width:0;stroke-dasharray:none;stroke-opacity:1"
       d="M 107.24918,104.32632 104.5497,90.862159 103.02584,74.82789 c 0,0 0.54181,-11.789443 5.14955,-8.061684 4.60775,3.727752 8.1528,37.464754 8.1528,37.464754 0,0 -6.51607,3.03974 -9.07901,0.0954 z"
       id="path839" /><path
       style="fill:#808080;fill-opacity:1;stroke:#808080;stroke-width:0;stroke-dasharray:none;stroke-opacity:1"
       d="m 57.773358,107.18612 4.087314,-31.326897 c 0,0 11.215129,-21.656916 9.421065,-0.992745 -1.794064,20.66417 1.721463,33.894282 1.721463,33.894282 0,0 -6.240994,1.46567 -15.229842,-1.57464 z"
       id="path242" /></g><g
     id="g1181"
     transform="matrix(0.93578974,0,0,0.93578974,0.53898413,-2.266323)"><path
       d="m 2,-43.4 v -3.25 h 0.95 l 1,-2.05 0.45,-2.45 0.05,-1.1 v -3.85 h 6.2 v 9.45 h 1.15 v 3.25 h -1.3 v -1.95 H 3.35 v 1.95 H 2 M 9.3,-54.75 V -54.8 H 5.85 v 3.25 L 5.8,-51.2 v 0.05 l -0.9,3.55 -0.5,0.9 -0.05,0.05 H 9.3 v -8.1 m -14.3,9.7 v -1.45 h 1.5 v 1.35 l -0.75,1.55 H -5 l 0.55,-1.45 H -5 m -2.15,1.45 H -7.9 l 0.55,-1.45 H -7.9 v -1.45 h 1.5 v 1.35 l -0.75,1.55"
       fill-rule="evenodd"
       transform="matrix(2,0,0,2,79.341,142)"
       id="path134"
       sodipodi:nodetypes="ccccccccccccccccccccccccccccccccccccccccccc" /><use
       height="3"
       transform="matrix(2.0024,0,0,2,72.141,27)"
       width="21.549999"
       xlink:href="#d-5"
       id="use20" /></g></svg>
