<?xml version="1.0" encoding="UTF-8" standalone="no"?>
<svg
   height="182"
   width="160"
   version="1.1"
   id="svg6"
   sodipodi:docname="front-walking-1.svg"
   inkscape:version="1.4.2 (ebf0e94, 2025-05-08)"
   xml:space="preserve"
   xmlns:inkscape="http://www.inkscape.org/namespaces/inkscape"
   xmlns:sodipodi="http://sodipodi.sourceforge.net/DTD/sodipodi-0.dtd"
   xmlns:xlink="http://www.w3.org/1999/xlink"
   xmlns="http://www.w3.org/2000/svg"
   xmlns:svg="http://www.w3.org/2000/svg"><sodipodi:namedview
     id="namedview6"
     pagecolor="#ffffff"
     bordercolor="#000000"
     borderopacity="0.25"
     inkscape:showpageshadow="2"
     inkscape:pageopacity="0.0"
     inkscape:pagecheckerboard="0"
     inkscape:deskcolor="#d1d1d1"
     inkscape:zoom="4.6318681"
     inkscape:cx="80.097272"
     inkscape:cy="73.728352"
     inkscape:window-width="1920"
     inkscape:window-height="1052"
     inkscape:window-x="1920"
     inkscape:window-y="0"
     inkscape:window-maximized="1"
     inkscape:current-layer="svg6" /><defs
     id="defs4"><g
       id="c"><path
         d="M.4-60h3.9l1.2.55 3.9-8.6 3.85 8.6L14.5-60l3.15 3.05 1.15 1.05-.05.05-.4.4.1.1q2.1 2.05 2.35 4.55v.6q0 1.65-.8 3.1l-.25.45-1.4 1.7.15.15-.3.25-3.25.9v4.7l-3.25.7-3.1.9.65 1.6 3.3-1.25 3-.6q1.55 0 2.15.6.8.8.8 2 0 1.1-.75 1.85-1.05 1.05-4.1 1.25l-1.25.05.35 1.5 1.5-.05-.05 2.75-1.5 1.25v12.25l-.85 4.6h-1.5V-3q0 .7-.45 1.15-.55.55-1.6.55-1.15 0-1.65-.55Q6.2-2.3 6.25-3v-6.55h-1.6l-2.35-3.5H.55L-3-9.55V-3q0 .7-.45 1.15-.55.55-1.6.55-1.1 0-1.65-.55-.45-.45-.4-1.15v-6.55h-1.55l-1.7-1.1-1.75-3.9v-3.9l.45-.4q.75-.6 1.35-1.55l-1.25-1-.7.95.4-10.95 1.75-12.8.4.35.75-.7-1-1.1q-1.55-1.9-1.5-4.15l.05-1q.35-2.3 2.45-4.25l-.75-.75.5-3.95.65.3 3.85-8.6 3.85 8.6L.4-60m10.1 14.7v1.9h1.3v-3.25h-1.15v-9.45h-6.2v3.85l-.05 1.1-.45 2.45-1 2.05H2v3.3h1.35v-1.95h7.15m-6.05-1.35.5-.9.9-3.55v-.05l.05-.35v-3.25h3.4v8.1H4.45m14.3-9.2-1.1-1.1 1.1 1.1M5.5-37.95Q4.45-39 2.25-39l-4 .75-3.1.9.65 1.6L-.9-37l3-.6q1.55 0 2.15.6.8.8.8 2 0 1.1-.75 1.85Q3.25-32.1.25-31.9l-1.3.05.35 1.5q3.95-.05 5.9-1.55l.45-.35q1-1 1-2.85-.05-1.8-1.15-2.85M-7.15-43.6l.75-1.55v-1.35h-1.5v1.45h.55l-.55 1.45h.75M-5-45.05h.55L-5-43.6h.75l.75-1.55v-1.35H-5v1.45"
         fill="#fff"
         fill-rule="evenodd"
         transform="translate(21.55 71)"
         id="path1" /><path
         d="m4.3-60 5.1-11 5.1 11-1.25.55-3.85-8.6-3.9 8.6L4.3-60m14.5 4.1.25-.3q2.55 2.35 2.8 5.4v.6q0 1.9-.9 3.55-.7 1.25-1.9 2.4l-.55-.55-.15-.15 1.4-1.7.25-.45q.8-1.45.8-3.1v-.6q-.25-2.5-2.35-4.55l-.1-.1.4-.4.05-.05m-3.85 16.95.75-.05q2.2 0 3.25 1.05 1.1 1.05 1.1 2.85 0 1.85-1 2.85l-.4.35q-1.55 1.2-4.4 1.5l-1.5.05-.35-1.5 1.25-.05q3.05-.2 4.1-1.25.75-.75.75-1.85 0-1.2-.8-2-.6-.6-2.15-.6l-3 .6-3.3 1.25-.65-1.6 3.1-.9 3.25-.7m-3.1 29.4v6.6q0 1.25-.8 2.05-.9.9-2.75.9-1.95 0-2.85-.9-.8-.8-.8-2.05v-6.6h1.6V-3q-.05.7.4 1.15.5.55 1.65.55 1.05 0 1.6-.55.45-.45.45-1.15v-6.55h1.5M-3-9.55h1.5v6.6q0 1.25-.8 2.05-.9.9-2.75.9-1.9 0-2.8-.9-.85-.8-.8-2.05v-6.6h1.55V-3q-.05.7.4 1.15.55.55 1.65.55 1.05 0 1.6-.55Q-3-2.3-3-3v-6.55m-9.1-8.9q-.7.45-1.6.45-1 0-2.7-1.1l-1.9-.65q-.85 0-1.3.55l-.6.95-1.35-.75 1.2-1.65q.85-.8 1.95-.8t2.3.8q1.65.85 2.55.85.6 0 1.3-.65l.7-.95 1.25 1q-.6.95-1.35 1.55l-.45.4m2-25.75-.6-.7q-1.85-2.2-1.8-4.9l.05-1q.35-2.8 2.75-5l.75.75q-2.1 1.95-2.45 4.25l-.05 1q-.05 2.25 1.5 4.15l1 1.1-.75.7-.4-.35m.9-15.55-.55-.25 5.05-11L.4-60l-1.25.55-3.85-8.6-3.85 8.6-.65-.3M2-43.4v-3.25h.95l1-2.05.45-2.45.05-1.1v-3.85h6.2v9.45h1.15v3.25h-1.3v-1.95H3.35v1.95H2m7.3-11.35v-.05H5.85v3.25l-.05.35v.05l-.9 3.55-.5.9-.05.05H9.3v-8.1m-3.8 16.8q1.1 1.05 1.15 2.85 0 1.85-1 2.85l-.45.35q-1.95 1.5-5.9 1.55l-.35-1.5 1.3-.05q3-.2 4.05-1.25.75-.75.75-1.85 0-1.2-.8-2-.6-.6-2.15-.6l-3 .6-3.3 1.25-.65-1.6 3.1-.9 4-.75q2.2 0 3.25 1.05M-5-45.05v-1.45h1.5v1.35l-.75 1.55H-5l.55-1.45H-5m-2.15 1.45h-.75l.55-1.45h-.55v-1.45h1.5v1.35l-.75 1.55"
         fill-rule="evenodd"
         transform="translate(21.55 71)"
         id="path2" /><path
         d="M.4-60h3.9m8.4 33.6v9.45m0 0v2.8m4.95-42.8 1.1 1.1"
         fill="none"
         stroke="#000"
         stroke-linecap="round"
         stroke-linejoin="round"
         transform="translate(21.55 71)"
         id="path3" /></g><g
       id="d"
       transform="translate(.8)"><use
         height="3"
         transform="matrix(1.005 0 0 1 -.804 0)"
         width="4.65"
         xlink:href="#a"
         id="use3" /><use
         height="3"
         transform="matrix(1.005 0 0 1 16.096 0)"
         width="4.65"
         xlink:href="#a"
         id="use4" /></g><path
       d="M1.35 0h.2l.55.1.45.35q.45.45.45 1L2.55 2.6q-.45.4-1 .4l-.8-.2-.25-.2-.45-.7v-.15L0 1.45v-.1q.05-.5.5-.9l.25-.2Q1 .05 1.3 0h.05m.45.85L1.55.8Q1.2.75 1 1q-.2.15-.2.45v.15l.15.45H1l.05.05.2.1.3.05.55-.2.15-.6-.05-.3L2.1 1 2.05.95 1.9.85h-.1"
       fill-rule="evenodd"
       id="b" /><use
       height="3"
       transform="translate(.8)"
       width="3"
       xlink:href="#b"
       id="a" /><radialGradient
       cx="0"
       cy="0"
       gradientTransform="matrix(0.0501, 0.0, 0.0, 0.0501, -1.4, -41.2)"
       gradientUnits="userSpaceOnUse"
       id="gradient0-920"
       r="819.2"
       spreadMethod="pad"><stop
         offset="0.0"
         stop-color="#a4a4a4"
         id="stop15-2" /><stop
         offset="1.0"
         stop-color="#646464"
         id="stop16-3" /></radialGradient><radialGradient
       cx="0"
       cy="0"
       gradientTransform="matrix(0.0501, 0.0, 0.0, 0.0501, -1.4, -41.2)"
       gradientUnits="userSpaceOnUse"
       id="gradient1-7"
       r="819.2"
       spreadMethod="pad"><stop
         offset="0.0"
         stop-color="#a4a4a4"
         id="stop17-5" /><stop
         offset="1.0"
         stop-color="#646464"
         id="stop18-9" /></radialGradient><g
       id="shape0"
       transform="matrix(1.0, 0.0, 0.0, 1.0, 21.25, 67.25)"><path
         d="M6.15 -32.45 L6.1 -32.45 6.2 -31.85 6.15 -32.45 M11.45 -65.65 L12.5 -66.45 15.0 -66.85 Q14.65 -65.4 14.65 -64.2 L14.75 -63.35 14.8 -62.85 14.85 -62.55 14.9 -62.55 14.95 -62.45 15.05 -61.9 15.4 -61.1 Q15.1 -60.3 15.4 -59.4 14.9 -58.7 15.15 -57.7 L15.15 -57.05 15.7 -56.9 15.75 -56.85 Q16.95 -56.45 17.65 -55.3 L17.7 -55.05 17.7 -55.0 17.85 -54.9 17.95 -54.65 17.95 -54.35 18.75 -53.65 20.05 -52.8 Q19.95 -51.5 20.6 -49.85 19.0 -47.7 18.6 -45.0 16.6 -42.95 17.55 -40.1 L17.4 -38.6 Q17.15 -30.8 18.7 -23.6 L18.55 -23.4 Q18.3 -22.65 18.35 -21.75 L18.3 -19.7 18.3 -19.45 18.15 -19.2 18.1 -18.75 17.85 -17.45 17.7 -16.95 17.7 -16.7 17.55 -15.75 Q17.4 -15.1 17.05 -15.05 L17.05 -14.35 17.05 -13.55 18.35 -13.5 19.0 -13.15 19.45 -12.3 Q19.95 -12.0 19.85 -11.2 L19.6 -10.2 Q19.7 -9.25 18.95 -9.15 18.4 -8.75 17.55 -8.8 L16.9 -8.75 Q14.8 -8.6 12.75 -8.8 L12.5 -8.6 12.45 -8.45 12.0 -7.95 11.5 -7.65 10.6 -7.45 5.3 -7.3 4.5 -7.4 4.4 -7.4 3.8 -7.6 3.8 -7.5 3.05 -8.25 2.35 -8.65 Q-1.3 -8.0 -0.7 -4.45 L-0.6 -4.2 -0.8 -3.5 -0.95 -2.7 -1.05 -1.85 -2.9 -0.1 -4.2 -1.2 -5.15 -1.85 -5.85 -2.25 -5.75 -2.6 -6.0 -3.5 -6.1 -5.0 -6.1 -5.95 -5.95 -6.6 Q-6.7 -8.5 -8.65 -9.65 -9.75 -11.45 -11.45 -12.9 L-11.55 -12.95 Q-12.75 -16.25 -12.8 -19.95 -12.85 -21.45 -13.15 -22.75 L-13.6 -24.1 -13.3 -26.85 -13.05 -29.25 Q-12.95 -31.25 -13.1 -33.1 -12.0 -34.15 -11.45 -35.85 L-11.35 -36.2 -10.7 -38.65 -10.5 -39.55 -10.35 -40.7 Q-10.25 -43.3 -12.95 -43.95 L-13.3 -44.35 -13.55 -45.15 -13.95 -46.65 -14.05 -48.9 -13.75 -49.85 -12.05 -52.15 -12.0 -52.25 -12.1 -52.35 -11.8 -52.7 -10.85 -54.25 -9.7 -55.6 -9.55 -56.1 -9.65 -56.5 -9.7 -56.55 -9.85 -56.95 -10.0 -57.15 -10.1 -57.2 -10.05 -57.3 -9.9 -58.35 Q-9.75 -59.65 -9.95 -60.65 L-10.25 -61.7 -9.75 -64.15 Q-9.65 -65.1 -9.0 -65.85 L-8.65 -65.6 Q-9.25 -65.3 -9.4 -64.6 -9.05 -65.3 -8.1 -65.5 -6.2 -65.0 -4.7 -63.6 L-4.45 -63.35 -3.3 -62.6 -3.0 -62.0 -2.3 -61.3 Q-1.55 -60.6 -1.15 -59.75 -0.75 -59.5 -0.65 -58.9 0.4 -58.1 1.4 -58.5 2.3 -58.15 3.1 -58.75 4.55 -58.55 5.65 -59.35 L5.7 -59.4 Q5.9 -59.6 5.75 -59.85 L5.8 -59.9 6.35 -60.7 Q8.2 -62.0 9.5 -64.45 L9.6 -64.65 9.75 -64.75 11.45 -65.65 M3.05 -29.0 L2.55 -28.65 1.85 -28.5 Q0.55 -28.35 -0.55 -28.95 L-1.0 -29.25 -1.6 -30.2 Q-1.65 -29.7 -1.2 -29.25 L-0.55 -28.75 Q0.55 -28.15 1.85 -28.3 L2.55 -28.45 3.05 -28.8 3.1 -28.8 4.4 -29.1 4.7 -29.25 4.8 -29.3 5.2 -29.55 Q6.25 -30.4 6.2 -31.65 6.2 -30.55 5.2 -29.75 L4.8 -29.5 4.4 -29.3 4.25 -29.25 3.1 -29.0 3.05 -29.0"
         fill="url(#gradient0)"
         fill-rule="evenodd"
         stroke="none"
         id="path2-8" /><path
         d="M-17.15 -24.25 L-17.15 -24.1 -17.3 -22.6 -17.15 -24.25 M-17.3 -16.75 Q-16.75 -15.05 -15.4 -13.8 L-14.95 -13.45 -15.25 -13.6 Q-17.1 -14.75 -17.3 -16.75 M-14.7 -21.65 L-14.6 -22.85 Q-14.45 -24.75 -14.45 -26.75 L-14.45 -26.8 Q-14.15 -24.65 -14.4 -22.5 L-14.6 -21.85 -14.7 -21.65"
         fill="#e7e0dc"
         fill-rule="evenodd"
         stroke="none"
         id="path3-4" /><path
         d="M-17.95 -35.55 L-19.35 -35.8 -19.6 -35.75 -19.1 -35.9 -17.95 -35.55 M-19.65 -32.3 L-19.5 -32.05 -19.65 -32.25 -19.65 -32.3"
         fill="#58463f"
         fill-rule="evenodd"
         stroke="none"
         id="path4" /><path
         d="M-17.95 -35.55 L-17.8 -35.45 -17.5 -35.15 -16.75 -34.4 -16.75 -34.3 -16.7 -34.25 -16.7 -34.2 -16.55 -34.1 -16.5 -33.85 -16.4 -33.65 -16.35 -33.6 -16.25 -33.5 -16.25 -33.2 -16.25 -33.15 -16.05 -32.8 -15.9 -32.35 -15.0 -29.35 -14.95 -29.15 -14.65 -27.85 -14.45 -26.8 -14.45 -26.75 Q-14.45 -24.75 -14.6 -22.85 L-14.7 -21.65 -14.85 -20.85 -14.9 -20.45 -14.75 -19.7 -14.75 -19.5 -14.45 -18.8 -14.1 -18.0 -14.05 -17.85 Q-13.6 -16.5 -12.4 -15.75 L-12.35 -15.85 -12.3 -15.9 -12.05 -15.95 -11.9 -15.65 Q-12.05 -14.55 -11.55 -13.9 -11.05 -13.35 -11.1 -13.1 -11.15 -12.85 -10.65 -12.5 -10.2 -11.5 -10.4 -11.45 L-12.2 -12.1 -14.95 -13.45 -15.4 -13.8 Q-16.75 -15.05 -17.3 -16.75 L-17.35 -16.95 -17.3 -22.2 -17.3 -22.6 -17.15 -24.1 -17.15 -24.25 Q-16.9 -25.95 -17.4 -27.6 L-17.6 -28.3 -17.75 -28.9 -18.35 -31.0 -18.45 -31.0 -18.5 -31.1 -18.75 -31.1 -19.05 -31.45 -19.4 -32.0 -19.5 -32.05 -19.65 -32.3 -19.7 -32.6 -20.1 -33.15 -20.15 -33.25 -20.55 -34.2 -20.5 -35.25 -20.45 -35.3 -19.6 -35.75 -19.35 -35.8 -17.95 -35.55"
         fill="url(#gradient1)"
         fill-rule="evenodd"
         stroke="none"
         id="path5" /><path
         d="M-17.95 -35.55 L-19.35 -35.8 -19.6 -35.75 Q-21.1 -35.65 -20.65 -34.4 L-20.55 -34.2 -20.15 -33.25 -19.65 -32.3 -19.5 -32.05 -19.0 -31.35 Q-18.2 -30.2 -17.75 -28.9 L-17.6 -28.3 M-17.15 -24.25 L-17.15 -24.1 -17.3 -22.6 M-17.3 -16.75 Q-16.75 -15.05 -15.4 -13.8 L-14.95 -13.45 -12.2 -12.1 -10.4 -11.45 M-14.7 -21.65 L-14.6 -22.85 Q-14.45 -24.75 -14.45 -26.75 L-14.45 -26.8 Q-14.55 -28.75 -15.0 -30.5 -15.55 -32.35 -16.4 -34.05 -17.0 -35.15 -17.95 -35.55 M-17.15 -24.25 Q-17.15 -26.05 -17.5 -27.85 L-17.6 -28.3 M-14.7 -21.65 Q-14.75 -20.3 -14.4 -19.05 -13.95 -17.25 -12.35 -15.85 M-17.3 -16.75 L-17.4 -17.0 Q-17.95 -18.85 -17.55 -20.75 L-17.3 -22.6"
         fill="none"
         stroke="#4f1d17"
         stroke-linecap="round"
         stroke-linejoin="round"
         stroke-width="1.0"
         id="path6-5" /><path
         d="M-7.05 -9.6 L-7.05 -2.95 Q-7.05 -1.75 -6.25 -0.9 -5.35 -0.05 -3.45 0.0 -1.55 -0.05 -0.65 -0.9 0.15 -1.75 0.15 -2.95 L0.15 -9.6 -1.4 -9.6 -1.4 -3.0 Q-1.4 -2.3 -1.8 -1.85 -2.35 -1.35 -3.45 -1.3 -4.55 -1.35 -5.1 -1.85 -5.55 -2.3 -5.55 -3.0 L-5.55 -9.6 -7.05 -9.6"
         fill="#4f1d17"
         fill-rule="evenodd"
         stroke="none"
         id="path7-0" /><path
         d="M11.05 -7.55 L11.05 -9.05 17.65 -9.05 Q18.35 -9.05 18.8 -9.5 19.35 -10.05 19.35 -11.1 19.35 -12.15 18.8 -12.7 18.35 -13.1 17.65 -13.1 L11.05 -13.1 11.05 -14.65 17.7 -14.65 Q18.95 -14.65 19.75 -13.85 20.65 -12.95 20.65 -11.1 20.65 -9.25 19.75 -8.35 18.95 -7.55 17.7 -7.55 L11.05 -7.55"
         fill="#4f1d17"
         fill-rule="evenodd"
         stroke="none"
         id="path8-3" /><path
         d="M5.35 -58.6 Q6.3 -60.9 7.85 -62.55 L10.7 -65.1 13.35 -66.55 Q14.65 -67.2 14.8 -65.5 L15.15 -61.9 Q15.35 -60.0 14.75 -57.05 M5.1 -58.55 L4.1 -58.6 2.85 -58.65 1.7 -58.65 -0.45 -58.35 Q-1.05 -59.85 -2.6 -61.5 -4.15 -63.2 -5.45 -64.05 -6.8 -64.9 -8.1 -65.5 -9.4 -66.15 -9.55 -64.45 L-9.9 -60.85 Q-10.1 -58.95 -9.5 -56.0 M17.3 -41.2 Q17.05 -36.35 17.15 -32.6 17.2 -28.75 18.0 -25.1 18.75 -21.5 18.15 -17.65 17.85 -15.9 17.2 -14.25 M-8.8 -42.45 Q-11.2 -38.9 -12.2 -35.1 -13.2 -31.45 -13.2 -27.5 -13.25 -23.65 -12.75 -19.2 -12.3 -14.85 -10.6 -11.9 -8.95 -8.95 -5.8 -7.3"
         fill="none"
         stroke="#4f1d17"
         stroke-linecap="round"
         stroke-linejoin="round"
         stroke-width="1.0"
         id="path9-6" /><path
         d="M17.95 -43.65 Q20.75 -46.25 20.75 -49.6 20.75 -53.0 17.95 -55.6 L17.2 -54.85 Q19.7 -52.5 19.7 -49.6 19.7 -46.75 17.2 -44.35 L17.95 -43.65"
         fill="#4f1d17"
         fill-rule="evenodd"
         stroke="none"
         id="path10-1" /><path
         d="M-11.5 -41.75 L-10.75 -42.45 Q-13.25 -44.85 -13.25 -47.7 -13.25 -50.6 -10.75 -52.95 L-11.5 -53.7 Q-14.3 -51.1 -14.3 -47.7 -14.3 -44.35 -11.5 -41.75"
         fill="#4f1d17"
         fill-rule="evenodd"
         stroke="none"
         id="path11-0" /><path
         d="M9.25 -50.8 L8.15 -51.4 Q5.95 -48.85 5.9 -46.3 5.95 -44.8 6.55 -44.15 7.2 -43.55 8.15 -43.5 9.15 -43.55 9.85 -44.2 10.25 -44.55 10.25 -44.85 L10.7 -44.05 Q11.35 -43.55 12.35 -43.5 13.6 -43.55 14.4 -44.3 15.6 -45.55 15.6 -48.05 15.6 -49.8 14.95 -51.4 L13.75 -51.05 Q14.2 -49.65 14.2 -48.05 14.2 -46.05 13.4 -45.2 12.95 -44.8 12.3 -44.75 L11.4 -45.05 Q11.1 -45.4 11.05 -45.85 L11.5 -46.8 11.8 -48.45 Q11.8 -49.75 11.25 -49.75 10.8 -49.75 10.35 -48.9 L9.85 -47.4 9.85 -46.05 9.2 -45.15 Q8.75 -44.75 8.15 -44.7 7.75 -44.75 7.45 -44.95 7.2 -45.3 7.15 -46.3 7.2 -48.4 9.25 -50.8"
         fill="#4f1d17"
         fill-rule="evenodd"
         stroke="none"
         id="path12-6" /><path
         d="M12.35 -34.9 L15.8 -35.45 15.55 -37.15 12.45 -36.4 Q9.8 -35.7 8.6 -35.05 6.7 -33.95 6.3 -32.5 5.9 -31.05 6.8 -29.5 7.75 -27.9 9.1 -27.55 11.65 -26.9 15.45 -29.05 L15.05 -30.5 Q11.5 -28.5 9.75 -28.95 8.75 -29.25 8.2 -30.2 7.6 -31.25 7.9 -32.3 8.1 -33.15 9.45 -33.9 L12.35 -34.9"
         fill="#4f1d17"
         fill-rule="evenodd"
         stroke="none"
         id="path13-3" /><path
         d="M0.7 -34.95 L-2.8 -35.5 -2.55 -37.25 0.6 -36.45 Q3.3 -35.8 4.45 -35.1 6.35 -34.0 6.75 -32.55 7.15 -31.1 6.3 -29.5 5.35 -27.95 4.0 -27.55 1.4 -26.9 -2.4 -29.05 L-2.0 -30.55 Q1.6 -28.55 3.3 -29.0 4.35 -29.25 4.9 -30.2 5.45 -31.25 5.2 -32.35 4.95 -33.2 3.65 -33.95 L0.7 -34.95"
         fill="#4f1d17"
         fill-rule="evenodd"
         stroke="none"
         id="path14-2" /><path
         d="M-7.75 -44.1 L-6.25 -44.1 -6.25 -42.65 -6.8 -42.65 -6.25 -41.2 -7.0 -41.2 -7.75 -42.75 -7.75 -44.1 M-4.85 -44.1 L-3.35 -44.1 -3.35 -42.65 -3.9 -42.65 -3.35 -41.2 -4.1 -41.2 -4.85 -42.75 -4.85 -44.1"
         fill="#e7e0dc"
         fill-rule="evenodd"
         stroke="none"
         id="path15-0" /></g><radialGradient
       cx="0"
       cy="0"
       gradientTransform="matrix(0.0507, 0.0, 0.0, 0.0507, 3.0, -41.25)"
       gradientUnits="userSpaceOnUse"
       id="gradient0"
       r="819.2"
       spreadMethod="pad"><stop
         offset="0.0"
         stop-color="#a4a4a4"
         id="stop15" /><stop
         offset="1.0"
         stop-color="#646464"
         id="stop16" /></radialGradient><radialGradient
       cx="0"
       cy="0"
       gradientTransform="matrix(0.0291, 0.0, 0.0, 0.0291, -18.05, -34.05)"
       gradientUnits="userSpaceOnUse"
       id="gradient1"
       r="819.2"
       spreadMethod="pad"><stop
         offset="0.0"
         stop-color="#a4a4a4"
         id="stop17" /><stop
         offset="1.0"
         stop-color="#646464"
         id="stop18" /></radialGradient><g
       id="sprite0"
       transform="matrix(1.0, 0.0, 0.0, 1.0, 5.2, 50.55)"><use
         height="3.05"
         transform="matrix(1.0, 0.0, 0.0, 1.0, -5.2, -50.55)"
         width="21.45"
         xlink:href="#shape1"
         id="use18" /></g><g
       id="shape1"
       transform="matrix(1.0, 0.0, 0.0, 1.0, 5.2, 50.55)"><path
         d="M15.75 -50.05 L15.35 -49.8 14.15 -48.95 13.55 -48.5 M0.6 -48.0 Q-1.9 -49.5 -4.7 -49.6"
         fill="none"
         stroke="#643b36"
         stroke-linecap="round"
         stroke-linejoin="round"
         stroke-width="1.0"
         id="path18-6" /></g><g
       id="shape0-6"
       transform="matrix(1.0, 0.0, 0.0, 1.0, 21.25, 67.25)"><path
         d="M5.7 -59.4 L5.9 -59.35 Q11.35 -60.05 14.75 -57.05 L14.75 -57.15 14.65 -57.25 14.6 -57.3 14.8 -58.3 14.7 -59.75 14.8 -59.85 15.0 -61.7 15.0 -61.9 15.05 -61.9 15.4 -61.1 Q15.1 -60.3 15.4 -59.4 14.9 -58.7 15.15 -57.7 L15.15 -57.05 15.7 -56.9 15.75 -56.85 Q16.95 -56.45 17.65 -55.3 L17.7 -55.05 17.7 -55.0 17.85 -54.9 17.95 -54.65 17.95 -54.35 18.75 -53.65 20.05 -52.8 Q19.95 -51.5 20.6 -49.85 19.0 -47.7 18.6 -45.0 16.6 -42.95 17.55 -40.1 L17.4 -38.6 Q17.15 -30.8 18.7 -23.6 L18.55 -23.4 Q18.3 -22.65 18.35 -21.75 L18.3 -19.7 18.3 -19.45 18.15 -19.2 18.1 -18.75 17.85 -17.45 17.7 -16.95 17.7 -16.7 17.55 -15.75 Q17.4 -15.1 17.05 -15.05 L17.05 -14.35 17.05 -13.55 12.3 -13.6 12.2 -13.6 11.8 -13.9 Q11.2 -13.65 11.05 -12.9 10.7 -11.35 11.1 -9.8 L11.05 -9.55 Q10.95 -8.85 11.45 -8.65 11.75 -8.1 12.4 -8.4 L12.45 -8.45 12.0 -7.95 11.5 -7.65 10.6 -7.45 5.3 -7.3 4.5 -7.4 4.4 -7.4 3.8 -7.6 3.8 -7.5 3.05 -8.25 2.35 -8.65 Q-1.3 -8.0 -0.7 -4.45 L-0.6 -4.2 -0.8 -3.5 -0.8 -3.65 -0.9 -5.3 -1.15 -6.3 -1.1 -6.4 -0.95 -6.55 -1.05 -7.2 -0.95 -7.75 Q-0.6 -8.2 -0.9 -8.65 L-0.95 -8.7 -1.25 -9.35 Q-1.9 -10.1 -2.8 -10.35 -4.8 -10.65 -5.65 -9.25 L-5.9 -8.8 -6.1 -8.6 -6.1 -8.5 -6.05 -8.35 -6.1 -8.3 -6.1 -8.2 -5.55 -7.5 -5.95 -6.6 Q-6.7 -8.5 -8.65 -9.65 -9.75 -11.45 -11.45 -12.9 L-11.55 -12.95 Q-12.75 -16.25 -12.8 -19.95 -12.9 -22.25 -13.6 -24.1 L-13.3 -26.85 Q-12.85 -30.1 -13.1 -33.1 -12.0 -34.15 -11.45 -35.85 L-11.35 -36.2 -10.5 -39.55 Q-9.7 -43.15 -12.95 -43.95 L-13.3 -44.35 -13.55 -45.15 -13.95 -46.65 -14.05 -48.9 -13.75 -49.85 -12.05 -52.15 -12.0 -52.25 -12.1 -52.35 -11.8 -52.7 -10.85 -54.25 -9.7 -55.6 -9.55 -56.1 -9.4 -56.0 Q-5.8 -59.5 -0.65 -58.35 L-0.65 -58.7 -0.65 -58.9 Q0.4 -58.1 1.4 -58.5 2.3 -58.15 3.1 -58.75 4.55 -58.55 5.65 -59.35 L5.7 -59.4 M14.85 -62.55 L14.8 -62.6 14.8 -62.85 14.85 -62.55 M6.2 -31.85 L6.1 -32.65 Q5.85 -33.4 5.15 -33.7 4.0 -35.05 2.35 -35.65 L2.3 -35.6 1.55 -35.3 1.5 -35.3 1.2 -35.1 1.05 -35.25 0.7 -35.35 0.6 -35.2 0.5 -35.55 0.45 -35.65 0.2 -35.8 0.0 -35.6 -0.35 -35.7 Q-1.9 -34.25 -1.9 -32.35 L-1.9 -32.15 -1.65 -30.35 -1.6 -30.2 Q-1.7 -29.4 -0.55 -28.75 0.55 -28.15 1.85 -28.3 L2.55 -28.45 3.05 -28.8 3.1 -28.8 4.4 -29.1 4.8 -29.3 Q6.3 -30.2 6.2 -31.65 L6.2 -31.75 6.2 -31.85 M9.05 -34.05 Q6.7 -32.75 7.75 -30.35 8.15 -29.35 8.8 -29.05 9.6 -28.0 11.05 -28.6 L11.1 -28.6 11.35 -28.7 Q12.75 -28.8 13.3 -29.65 14.0 -28.4 14.85 -29.85 L15.1 -30.55 Q15.5 -33.15 14.35 -35.4 14.25 -35.6 14.0 -35.6 L13.75 -35.65 13.55 -35.6 13.45 -35.55 13.2 -35.65 12.9 -35.1 12.85 -35.15 12.85 -35.25 12.55 -35.5 12.35 -35.6 10.35 -34.55 9.85 -35.0 Q9.2 -34.7 9.05 -34.05 M12.5 -8.6 L12.45 -8.8 12.65 -8.75 12.75 -8.8 12.5 -8.6 M-9.4 -64.6 L-9.6 -63.5 -9.7 -62.45 -9.95 -60.65 -10.25 -61.7 -9.75 -64.15 Q-9.65 -65.1 -9.0 -65.85 L-8.65 -65.6 Q-9.25 -65.3 -9.4 -64.6 M-9.9 -58.35 L-9.7 -57.15 -9.85 -56.95 -10.0 -57.15 -10.1 -57.2 -10.05 -57.3 -9.9 -58.35 M-4.45 -63.35 L-3.3 -62.6 -3.0 -62.0 -4.45 -63.35 M-5.15 -1.85 L-5.85 -2.25 -5.75 -2.6 -5.35 -2.1 -5.15 -1.85 M-4.2 -1.2 L-2.75 -1.25 -2.35 -1.4 -1.7 -1.85 Q-1.2 -2.2 -0.95 -2.7 L-1.05 -1.85 -2.9 -0.1 -4.2 -1.2"
         fill="#e7e0dc"
         fill-rule="evenodd"
         stroke="none"
         id="path3-1" /><path
         d="M5.7 -59.4 Q5.9 -59.6 5.75 -59.85 L5.8 -59.9 6.35 -60.7 Q8.2 -62.0 9.5 -64.45 L9.6 -64.65 9.75 -64.75 11.45 -65.65 12.5 -66.45 15.0 -66.85 Q14.65 -65.4 14.65 -64.2 L14.75 -63.35 14.8 -62.85 14.8 -62.6 14.85 -62.55 14.9 -62.55 14.95 -62.45 15.05 -61.9 15.0 -61.9 15.0 -61.7 14.8 -59.85 14.7 -59.75 14.8 -58.3 14.6 -57.3 14.65 -57.25 14.75 -57.15 14.75 -57.05 Q11.35 -60.05 5.9 -59.35 L5.7 -59.4 M-0.65 -58.9 L-0.65 -58.7 -0.65 -58.35 Q-5.8 -59.5 -9.4 -56.0 L-9.55 -56.1 -9.65 -56.5 -9.7 -56.55 -9.85 -56.95 -9.7 -57.15 -9.9 -58.35 Q-9.75 -59.65 -9.95 -60.65 L-9.7 -62.45 -9.6 -63.5 -9.4 -64.6 Q-9.05 -65.3 -8.1 -65.5 -6.2 -65.0 -4.7 -63.6 L-4.45 -63.35 -3.0 -62.0 -2.3 -61.3 Q-1.55 -60.6 -1.15 -59.75 -0.75 -59.5 -0.65 -58.9 M-5.95 -6.6 L-5.55 -7.5 -6.1 -8.2 -6.1 -8.3 -6.05 -8.35 -6.1 -8.5 -6.1 -8.6 -5.9 -8.8 -5.65 -9.25 Q-4.8 -10.65 -2.8 -10.35 -1.9 -10.1 -1.25 -9.35 L-0.95 -8.7 -0.9 -8.65 Q-0.6 -8.2 -0.95 -7.75 L-1.05 -7.2 -0.95 -6.55 -1.1 -6.4 -1.15 -6.3 -0.9 -5.3 -0.8 -3.65 -0.8 -3.5 -0.95 -2.7 Q-1.2 -2.2 -1.7 -1.85 L-2.35 -1.4 -2.75 -1.25 -4.2 -1.2 -5.15 -1.85 -5.35 -2.1 -5.75 -2.6 -6.0 -3.5 -6.1 -5.0 -6.1 -5.95 -5.95 -6.6 M12.45 -8.45 L12.4 -8.4 Q11.75 -8.1 11.45 -8.65 10.95 -8.85 11.05 -9.55 L11.1 -9.8 Q10.7 -11.35 11.05 -12.9 11.2 -13.65 11.8 -13.9 L12.2 -13.6 12.3 -13.6 17.05 -13.55 18.35 -13.5 19.0 -13.15 19.45 -12.3 Q19.95 -12.0 19.85 -11.2 L19.6 -10.2 Q19.7 -9.25 18.95 -9.15 18.4 -8.75 17.55 -8.8 L16.9 -8.75 Q14.8 -8.6 12.75 -8.8 L12.65 -8.75 12.45 -8.8 12.5 -8.6 12.45 -8.45 M-1.9 -32.35 Q-1.8 -34.15 -0.35 -35.5 L0.0 -35.4 0.2 -35.6 0.45 -35.45 0.5 -35.35 0.6 -35.0 0.7 -35.15 1.05 -35.05 1.2 -34.9 1.5 -35.1 1.55 -35.1 2.3 -35.4 2.35 -35.45 Q4.0 -34.85 5.15 -33.5 5.85 -33.2 6.1 -32.45 L6.2 -31.85 6.2 -31.75 6.2 -31.65 Q6.2 -30.3 4.8 -29.5 L4.4 -29.3 3.1 -29.0 3.05 -29.0 2.55 -28.65 1.85 -28.5 Q0.55 -28.35 -0.55 -28.95 -1.55 -29.5 -1.6 -30.2 L-1.65 -30.35 -1.6 -30.5 -1.9 -32.15 -1.9 -32.35 M9.05 -34.05 Q9.2 -34.7 9.85 -35.0 L10.35 -34.55 12.35 -35.6 12.55 -35.5 12.85 -35.25 12.85 -35.15 12.9 -35.1 13.2 -35.65 13.45 -35.55 13.55 -35.6 13.75 -35.65 14.0 -35.6 Q14.25 -35.6 14.35 -35.4 15.5 -33.15 15.1 -30.55 L14.85 -29.85 Q14.0 -28.4 13.3 -29.65 12.75 -28.8 11.35 -28.7 L11.1 -28.6 11.05 -28.6 Q9.6 -28.0 8.8 -29.05 8.15 -29.35 7.75 -30.35 6.7 -32.75 9.05 -34.05"
         fill="#58463f"
         fill-rule="evenodd"
         stroke="none"
         id="path4-8" /><path
         d="M-14.45 -26.8 Q-14.15 -24.65 -14.4 -22.5 L-14.6 -21.85 -14.7 -21.65 -14.6 -22.85 Q-14.45 -24.75 -14.45 -26.75 L-14.45 -26.8 -14.45 -26.75 Q-14.45 -24.75 -14.6 -22.85 L-14.7 -21.65 -14.85 -20.85 -14.9 -20.45 -14.75 -19.7 -14.75 -19.5 -14.45 -18.8 -14.1 -18.0 -14.05 -17.85 Q-13.6 -16.45 -12.4 -15.7 L-12.35 -15.85 -12.3 -15.9 -12.05 -15.95 -11.9 -15.65 Q-12.05 -14.5 -11.55 -13.9 -11.05 -13.3 -11.1 -13.05 L-10.65 -12.45 Q-10.2 -11.45 -10.4 -11.45 L-12.2 -12.1 -14.95 -13.4 -15.25 -13.6 Q-17.1 -14.75 -17.3 -16.75 L-17.35 -16.95 -17.3 -22.2 -17.3 -22.6 -17.15 -24.1 -17.15 -24.25 Q-16.9 -25.95 -17.4 -27.6 L-17.6 -28.3 -17.75 -28.9 -18.35 -31.0 -18.45 -31.0 -18.5 -31.1 -18.35 -31.15 -18.3 -31.2 Q-17.55 -31.2 -16.8 -31.6 L-16.7 -31.7 -16.55 -31.75 -16.5 -31.8 -16.45 -31.85 -16.45 -31.9 -16.0 -32.3 -15.95 -32.35 -15.9 -32.35 -15.0 -29.35 -14.95 -29.15 -14.65 -27.85 -14.45 -26.8 M-17.3 -22.6 L-17.15 -24.25 -17.15 -24.1 -17.3 -22.6 M-14.95 -13.4 L-15.4 -13.8 Q-16.75 -15.0 -17.3 -16.75 -16.75 -15.0 -15.4 -13.8 L-14.95 -13.4"
         fill="#e7e0dc"
         fill-rule="evenodd"
         stroke="none"
         id="path5-7" /><path
         d="M-19.6 -35.75 L-19.1 -35.9 -17.95 -35.55 -19.35 -35.8 -19.6 -35.75 -19.35 -35.8 -17.95 -35.55 -17.8 -35.45 -17.5 -35.15 -16.75 -34.4 -16.75 -34.3 -16.7 -34.25 -16.7 -34.2 -16.55 -34.1 -16.5 -33.85 -16.4 -33.65 -16.35 -33.6 -16.25 -33.5 -16.25 -33.2 -16.25 -33.15 -16.05 -32.8 -15.9 -32.35 -15.95 -32.35 -16.0 -32.3 -16.45 -31.9 -16.45 -31.85 -16.5 -31.8 -16.55 -31.75 -16.7 -31.7 -16.8 -31.6 Q-17.55 -31.2 -18.3 -31.2 L-18.35 -31.15 -18.5 -31.1 -18.75 -31.1 -19.05 -31.45 -19.4 -32.0 -19.5 -32.05 -19.65 -32.25 -19.65 -32.3 -19.7 -32.6 -20.1 -33.15 -20.15 -33.25 -20.55 -34.2 -20.5 -35.25 -20.45 -35.3 -19.6 -35.75 M-19.5 -32.05 L-19.65 -32.3 -19.5 -32.05"
         fill="#58463f"
         fill-rule="evenodd"
         stroke="none"
         id="path6" /><path
         d="M-20.55 -34.2 L-20.65 -34.4 Q-21.1 -35.65 -19.6 -35.75 L-19.35 -35.8 -17.95 -35.55 Q-17.0 -35.15 -16.4 -34.05 -15.55 -32.35 -15.0 -30.5 -14.55 -28.75 -14.45 -26.8 L-14.45 -26.75 Q-14.45 -24.75 -14.6 -22.85 L-14.7 -21.65 Q-14.75 -20.3 -14.4 -19.05 -13.95 -17.25 -12.35 -15.85 M-10.4 -11.45 L-12.2 -12.1 -14.95 -13.4 M-17.3 -16.75 L-17.4 -17.0 Q-17.95 -18.85 -17.55 -20.75 L-17.3 -22.6 M-17.15 -24.25 Q-17.15 -26.05 -17.5 -27.85 L-17.6 -28.3 -17.75 -28.9 Q-18.2 -30.2 -19.0 -31.35 L-19.5 -32.05 M-19.65 -32.3 L-20.15 -33.25 -20.55 -34.2 M-19.65 -32.3 L-19.5 -32.05 M-17.3 -16.75 Q-16.75 -15.0 -15.4 -13.8 L-14.95 -13.4 M-17.15 -24.25 L-17.15 -24.1 -17.3 -22.6"
         fill="none"
         stroke="#4f1d17"
         stroke-linecap="round"
         stroke-linejoin="round"
         stroke-width="1.0"
         id="path7" /><path
         d="M-7.05 -9.6 L-7.05 -2.95 Q-7.05 -1.75 -6.25 -0.9 -5.35 -0.05 -3.45 0.0 -1.55 -0.05 -0.65 -0.9 0.15 -1.75 0.15 -2.95 L0.15 -9.6 -1.4 -9.6 -1.4 -3.0 Q-1.4 -2.3 -1.8 -1.85 -2.35 -1.35 -3.45 -1.3 -4.55 -1.35 -5.1 -1.85 -5.55 -2.3 -5.55 -3.0 L-5.55 -9.6 -7.05 -9.6"
         fill="#4f1d17"
         fill-rule="evenodd"
         stroke="none"
         id="path8" /><path
         d="M11.05 -7.55 L11.05 -9.05 17.65 -9.05 Q18.35 -9.05 18.8 -9.5 19.35 -10.05 19.35 -11.1 19.35 -12.15 18.8 -12.7 18.35 -13.1 17.65 -13.1 L11.05 -13.1 11.05 -14.65 17.7 -14.65 Q18.95 -14.65 19.75 -13.85 20.65 -12.95 20.65 -11.1 20.65 -9.25 19.75 -8.35 18.95 -7.55 17.7 -7.55 L11.05 -7.55"
         fill="#4f1d17"
         fill-rule="evenodd"
         stroke="none"
         id="path9" /><path
         d="M5.35 -58.6 Q6.3 -60.9 7.85 -62.55 L10.7 -65.1 13.35 -66.55 Q14.65 -67.2 14.8 -65.5 L15.15 -61.9 Q15.35 -60.0 14.75 -57.05 M5.1 -58.55 L4.1 -58.6 2.85 -58.65 1.7 -58.65 -0.45 -58.35 Q-1.05 -59.85 -2.6 -61.5 -4.15 -63.2 -5.45 -64.05 -6.8 -64.9 -8.1 -65.5 -9.4 -66.15 -9.55 -64.45 L-9.9 -60.85 Q-10.1 -58.95 -9.5 -56.0 M17.3 -41.2 Q17.05 -36.35 17.15 -32.6 17.2 -28.75 18.0 -25.1 18.75 -21.5 18.15 -17.65 17.85 -15.9 17.2 -14.25 M-10.3 -39.95 Q-11.55 -37.6 -12.2 -35.1 -13.2 -31.45 -13.2 -27.5 -13.25 -23.65 -12.75 -19.2 -12.3 -14.85 -10.6 -11.9 -8.95 -8.95 -5.8 -7.3"
         fill="none"
         stroke="#4f1d17"
         stroke-linecap="round"
         stroke-linejoin="round"
         stroke-width="1.0"
         id="path10" /><path
         d="M17.95 -43.65 Q20.75 -46.25 20.75 -49.6 20.75 -53.0 17.95 -55.6 L17.2 -54.85 Q19.7 -52.5 19.7 -49.6 19.7 -46.75 17.2 -44.35 L17.95 -43.65"
         fill="#4f1d17"
         fill-rule="evenodd"
         stroke="none"
         id="path11" /><path
         d="M-11.5 -41.75 L-10.75 -42.45 Q-13.25 -44.85 -13.25 -47.7 -13.25 -50.6 -10.75 -52.95 L-11.5 -53.7 Q-14.3 -51.1 -14.3 -47.7 -14.3 -44.35 -11.5 -41.75"
         fill="#4f1d17"
         fill-rule="evenodd"
         stroke="none"
         id="path12" /><path
         d="M9.25 -50.8 L8.15 -51.4 Q5.95 -48.85 5.9 -46.3 5.95 -44.8 6.55 -44.15 7.2 -43.55 8.15 -43.5 9.15 -43.55 9.85 -44.2 10.25 -44.55 10.25 -44.85 L10.7 -44.05 Q11.35 -43.55 12.35 -43.5 13.6 -43.55 14.4 -44.3 15.6 -45.55 15.6 -48.05 15.6 -49.8 14.95 -51.4 L13.75 -51.05 Q14.2 -49.65 14.2 -48.05 14.2 -46.05 13.4 -45.2 12.95 -44.8 12.3 -44.75 L11.4 -45.05 Q11.1 -45.4 11.05 -45.85 L11.5 -46.8 11.8 -48.45 Q11.8 -49.75 11.25 -49.75 10.8 -49.75 10.35 -48.9 L9.85 -47.4 9.85 -46.05 9.2 -45.15 Q8.75 -44.75 8.15 -44.7 7.75 -44.75 7.45 -44.95 7.2 -45.3 7.15 -46.3 7.2 -48.4 9.25 -50.8"
         fill="#4f1d17"
         fill-rule="evenodd"
         stroke="none"
         id="path13" /><path
         d="M12.35 -34.9 L15.8 -35.45 15.55 -37.15 12.45 -36.4 Q9.8 -35.7 8.6 -35.05 6.7 -33.95 6.3 -32.5 5.9 -31.05 6.8 -29.5 7.75 -27.9 9.1 -27.55 11.65 -26.9 15.45 -29.05 L15.05 -30.5 Q11.5 -28.5 9.75 -28.95 8.75 -29.25 8.2 -30.2 7.6 -31.25 7.9 -32.3 8.1 -33.15 9.45 -33.9 L12.35 -34.9"
         fill="#4f1d17"
         fill-rule="evenodd"
         stroke="none"
         id="path14" /><path
         d="M0.7 -34.95 L-2.8 -35.5 -2.55 -37.25 0.6 -36.45 Q3.3 -35.8 4.45 -35.1 6.35 -34.0 6.75 -32.55 7.15 -31.1 6.3 -29.5 5.35 -27.95 4.0 -27.55 1.4 -26.9 -2.4 -29.05 L-2.0 -30.55 Q1.6 -28.55 3.3 -29.0 4.35 -29.25 4.9 -30.2 5.45 -31.25 5.2 -32.35 4.95 -33.2 3.65 -33.95 L0.7 -34.95"
         fill="#4f1d17"
         fill-rule="evenodd"
         stroke="none"
         id="path15" /><path
         d="M-7.75 -42.75 L-7.0 -41.2 -6.25 -41.2 -6.8 -42.65 -6.25 -42.65 -6.25 -44.1 -7.75 -44.1 -7.75 -42.75 M-4.85 -44.1 L-4.85 -42.75 -4.1 -41.2 -3.35 -41.2 -3.9 -42.65 -3.35 -42.65 -3.35 -44.1 -4.85 -44.1"
         fill="#000000"
         fill-rule="evenodd"
         stroke="none"
         id="path16" /></g><g
       id="sprite0-9"
       transform="matrix(1.0, 0.0, 0.0, 1.0, 5.2, 50.55)"><use
         height="3.05"
         transform="matrix(1.0, 0.0, 0.0, 1.0, -5.2, -50.55)"
         width="21.45"
         xlink:href="#shape1-2"
         id="use16" /></g><g
       id="shape1-2"
       transform="matrix(1.0, 0.0, 0.0, 1.0, 5.2, 50.55)"><path
         d="M15.75 -50.05 L15.35 -49.8 14.15 -48.95 13.55 -48.5 M0.6 -48.0 Q-1.9 -49.5 -4.7 -49.6"
         fill="none"
         stroke="#643b36"
         stroke-linecap="round"
         stroke-linejoin="round"
         stroke-width="1.0"
         id="path17" /></g><g
       id="shape2"
       transform="matrix(1.0, 0.0, 0.0, 1.0, 3.55, 58.85)"><path
         d="M7.9 -58.85 Q12.65 -58.85 16.0 -56.25 19.35 -53.7 19.35 -50.0 19.35 -46.35 16.0 -43.75 12.65 -41.15 7.9 -41.15 3.15 -41.15 -0.2 -43.75 -3.55 -46.35 -3.55 -50.0 -3.55 -53.7 -0.2 -56.25 3.15 -58.85 7.9 -58.85"
         fill="url(#gradient0)"
         fill-rule="evenodd"
         stroke="none"
         id="path18"
         style="fill:url(#gradient0-0)" /></g><radialGradient
       cx="0"
       cy="0"
       gradientTransform="matrix(-0.0146, 0.0, 0.0, 0.0138, 7.9, -50.0)"
       gradientUnits="userSpaceOnUse"
       id="gradient0-0"
       r="819.2"
       spreadMethod="pad"><stop
         offset="0.0"
         stop-color="#504134"
         id="stop18-2" /><stop
         offset="1.0"
         stop-color="#4b3429"
         stop-opacity="0.0"
         id="stop19" /></radialGradient></defs><g
     transform="matrix(2.1123456,0,0,2.1123456,81.127136,142)"
     id="g3"><use
       height="67.25"
       transform="translate(-21.25,-67.25)"
       width="42"
       xlink:href="#shape0-6"
       id="use1-0" /><use
       height="3.05"
       transform="matrix(0.9976,0,0,0.9756,-5.1873,-53.8674)"
       width="21.450001"
       xlink:href="#sprite0-9"
       id="use2-6" /><use
       height="17.700001"
       transform="translate(-3.55,-58.85)"
       width="22.9"
       xlink:href="#shape2"
       id="use3-2" /></g></svg>
