<?xml version="1.0" encoding="UTF-8" standalone="no"?>
<svg
   height="182"
   width="160"
   version="1.1"
   id="svg4"
   sodipodi:docname="back-standing.svg"
   xml:space="preserve"
   inkscape:version="1.4.2 (ebf0e94, 2025-05-08)"
   xmlns:inkscape="http://www.inkscape.org/namespaces/inkscape"
   xmlns:sodipodi="http://sodipodi.sourceforge.net/DTD/sodipodi-0.dtd"
   xmlns:xlink="http://www.w3.org/1999/xlink"
   xmlns="http://www.w3.org/2000/svg"
   xmlns:svg="http://www.w3.org/2000/svg"><sodipodi:namedview
     id="namedview4"
     pagecolor="#ffffff"
     bordercolor="#000000"
     borderopacity="0.25"
     inkscape:showpageshadow="2"
     inkscape:pageopacity="0.0"
     inkscape:pagecheckerboard="0"
     inkscape:deskcolor="#d1d1d1"
     inkscape:zoom="4.6318681"
     inkscape:cx="80.097272"
     inkscape:cy="91.000001"
     inkscape:window-width="1920"
     inkscape:window-height="1052"
     inkscape:window-x="1920"
     inkscape:window-y="0"
     inkscape:window-maximized="1"
     inkscape:current-layer="svg4" /><defs
     id="defs3"><path
       d="M1.35 0h.2l.55.1.45.35q.45.45.45 1L2.55 2.6q-.45.4-1 .4l-.8-.2-.25-.2-.45-.7v-.15L0 1.45v-.1q.05-.5.5-.9l.25-.2Q1 .05 1.3 0h.05m.45.85L1.55.8Q1.2.75 1 1q-.2.15-.2.45v.15l.15.45H1l.05.05.2.1.3.05.55-.2.15-.6-.05-.3L2.1 1 2.05.95 1.9.85h-.1"
       fill-rule="evenodd"
       id="a" /><use
       height="3"
       transform="translate(.8)"
       width="3"
       xlink:href="#a"
       id="c" /><g
       id="b"><path
         d="M.25-60h3.9l1.2.55 3.85-8.6 3.85 8.6L14.3-60l3.15 3.05 1.15 1.1-.4.4.1.1q2.1 2.05 2.35 4.55v.6q0 1.65-.8 3.1l-.25.45-1.4 1.7.1.1-.3.3-3.25.9v4.7l-3.25.7-3.1.9.65 1.6 3.3-1.25 3-.6q1.55 0 2.15.6.8.8.8 2 0 1.1-.75 1.85-1.05 1.05-4.05 1.25l-1.3.05.35 1.5 1.5-.05-.05 2.75-1.5 1.25v12.25l-.85 4.6h-1.5V-3q0 .7-.45 1.15-.55.55-1.6.55-1.1 0-1.65-.55-.4-.45-.4-1.15v-6.55H4.5l-2.35-3.5H.4l-3.55 3.5V-3q0 .7-.45 1.15-.55.55-1.6.55-1.1 0-1.65-.55-.4-.45-.4-1.15v-6.55H-8.8l-1.7-1.1-1.75-3.9v-3.9l.45-.4q.75-.6 1.35-1.55l-1.25-1q-.4.65-.7.95l.4-10.95 1.75-12.8.4.35.75-.7-1-1.1q-1.5-1.9-1.5-4.15l.1-1q.35-2.3 2.4-4.25l-.75-.75.5-3.95.65.3 3.85-8.6 3.85 8.6L.25-60m17.2 3.05 1.15 1.1-1.15-1.1M13.1-43.6l.75-1.55v-1.35h-1.5v1.45h.55l-.55 1.45h.75m-2.9 0 .75-1.55v-1.35h-1.5v1.45H10l-.55 1.45h.75"
         fill="#fff"
         fill-rule="evenodd"
         transform="translate(21.65 71)"
         id="path1" /><path
         d="m.25-60-1.25.55-3.85-8.6-3.85 8.6-.65-.3-.55-.25 5.05-11 5.1 11m-10.1 4.2.75.75q-2.05 1.95-2.4 4.25l-.1 1q0 2.25 1.5 4.15l1 1.1-.75.7-.4-.35-.6-.7q-1.8-2.2-1.8-4.9l.1-1q.3-2.8 2.7-5m-2.55 35.35q.3-.3.7-.95l1.25 1q-.6.95-1.35 1.55l-.45.4q-.7.45-1.6.45-.95 0-2.65-1.1-1.15-.65-1.9-.65-.85 0-1.3.55l-.6.95-1.35-.75 1.2-1.65q.85-.8 1.95-.8t2.25.8q1.65.85 2.55.85.65 0 1.3-.65m3.6 10.9h1.55V-3q0 .7.4 1.15.55.55 1.65.55 1.05 0 1.6-.55.45-.45.45-1.15v-6.55h1.5v6.6q0 1.25-.8 2.05-.9.9-2.75.9Q-7.1 0-8-.9q-.8-.8-.8-2.05v-6.6m13.3 0h1.55V-3q0 .7.4 1.15.55.55 1.65.55 1.05 0 1.6-.55.45-.45.45-1.15v-6.55h1.5v6.6q0 1.25-.8 2.05-.9.9-2.75.9-1.9 0-2.8-.9-.8-.8-.8-2.05v-6.6m9.55-20.85-1.5.05-.35-1.5 1.3-.05q3-.2 4.05-1.25.75-.75.75-1.85 0-1.2-.8-2-.6-.6-2.15-.6l-3 .6-3.3 1.25-.65-1.6 3.1-.9 3.25-.7.75-.05q2.2 0 3.25 1.05 1.1 1.05 1.1 2.85 0 1.85-1 2.85l-.4.35q-1.55 1.2-4.4 1.5m4.25-14.45-.1-.1 1.4-1.7.25-.45q.8-1.45.8-3.1v-.6q-.25-2.5-2.35-4.55l-.1-.1.4-.4.3-.35q2.55 2.35 2.8 5.4v.6q0 1.9-.9 3.55-.7 1.25-1.9 2.4l-.6-.6M14.3-60l-1.25.55-3.85-8.6-3.85 8.6-1.2-.55L9.2-71l5.1 11m-4.1 16.4h-.75l.55-1.45h-.55v-1.45h1.5v1.35l-.75 1.55m2.9 0h-.75l.55-1.45h-.55v-1.45h1.5v1.35l-.75 1.55"
         fill-rule="evenodd"
         transform="translate(21.65 71)"
         id="path2" /><path
         d="M4.15-60H.25M12.5-14.15V-26.4m6.1-29.45-1.15-1.1"
         fill="none"
         stroke="#000"
         stroke-linecap="round"
         stroke-linejoin="round"
         transform="translate(21.65 71)"
         id="path3" /></g><g
       id="shape0"
       transform="matrix(1.0, 0.0, 0.0, 1.0, 17.4, 67.3)"><path
         d="M11.65 -62.95 L11.7 -62.65 11.65 -62.7 11.65 -62.95 M6.85 -1.75 Q6.45 -1.35 5.7 -1.0 L5.5 -1.1 5.55 -1.15 6.5 -1.7 6.6 -1.8 6.65 -1.75 6.85 -1.75 M3.8 -1.35 L2.85 -0.45 2.75 -1.4 2.8 -2.2 3.15 -1.85 3.8 -1.35 M-5.2 -1.0 L-6.0 -0.1 -7.3 -1.25 Q-6.7 -1.05 -6.0 -1.25 -5.65 -1.05 -5.2 -1.0 M-8.25 -1.9 L-8.95 -2.3 -8.85 -2.65 -8.45 -2.15 -8.25 -1.9 M-12.95 -57.0 L-13.1 -57.2 -13.15 -57.25 -13.15 -57.35 -12.95 -58.4 -12.8 -57.2 -12.95 -57.0 M-13.0 -60.75 L-13.3 -61.8 -12.85 -64.2 -12.1 -65.9 -11.75 -65.65 Q-12.3 -65.35 -12.45 -64.65 L-12.7 -63.55 -12.8 -62.5 -13.0 -60.75 M-7.55 -63.45 L-6.4 -62.7 -6.1 -62.05 -7.55 -63.45"
         fill="#e7e0dc"
         fill-rule="evenodd"
         stroke="none"
         id="path3-3" /><path
         d="M11.65 -62.95 L11.65 -62.7 11.7 -62.65 11.8 -62.6 11.85 -62.5 11.9 -62.0 12.25 -61.2 Q12.0 -60.35 12.3 -59.45 11.75 -58.75 12.05 -57.8 L12.0 -57.15 12.6 -56.95 12.65 -56.9 Q13.85 -56.55 14.55 -55.35 L14.6 -55.1 14.6 -55.05 14.75 -54.95 14.85 -54.7 14.85 -54.45 15.65 -53.7 Q16.2 -53.2 16.95 -52.85 16.85 -51.55 17.45 -49.9 15.9 -47.75 15.5 -45.05 13.5 -43.0 14.4 -40.15 L14.3 -38.65 Q14.0 -31.0 15.55 -23.85 15.35 -23.05 15.4 -22.15 L15.35 -19.75 15.15 -19.45 15.0 -17.5 14.65 -16.35 14.25 -15.65 14.25 -14.95 13.95 -14.2 13.8 -12.85 Q11.9 -11.95 11.75 -9.9 L11.7 -9.85 Q6.5 -7.75 8.7 -4.55 L8.3 -3.3 7.55 -3.1 7.55 -2.95 7.45 -2.8 7.4 -2.7 7.35 -2.65 7.35 -2.4 7.35 -2.25 7.35 -2.1 7.3 -2.0 7.25 -1.95 7.15 -1.85 6.85 -1.75 6.65 -1.75 6.6 -1.8 6.5 -1.7 5.55 -1.15 5.5 -1.1 5.45 -1.05 4.9 -1.0 3.8 -1.35 3.15 -1.85 2.8 -2.2 Q2.25 -2.95 2.75 -3.55 2.5 -5.15 1.6 -6.45 L1.65 -6.65 Q1.85 -6.95 1.2 -7.25 L1.05 -7.2 0.45 -7.35 Q-0.35 -7.75 -0.6 -8.45 L-0.8 -8.2 Q-1.55 -7.35 -2.6 -7.1 -2.9 -7.05 -3.0 -7.35 L-3.0 -7.65 Q-4.15 -6.55 -3.8 -4.45 L-3.7 -4.2 -3.9 -3.5 -4.05 -2.7 Q-3.15 -2.5 -3.7 -1.45 -3.85 -1.15 -4.2 -1.1 L-5.2 -1.0 Q-5.65 -1.05 -6.0 -1.25 -6.7 -1.05 -7.3 -1.25 L-8.25 -1.9 -8.45 -2.15 -8.85 -2.65 -9.1 -3.5 -9.2 -5.0 -9.2 -5.95 -9.05 -6.65 Q-9.8 -8.55 -11.75 -9.65 -12.85 -11.5 -14.55 -12.9 L-14.6 -12.95 Q-15.85 -16.3 -15.9 -20.0 -15.95 -22.3 -16.7 -24.15 L-16.4 -26.9 Q-15.95 -30.15 -16.15 -33.15 -15.1 -34.2 -14.55 -35.9 L-14.45 -36.25 -13.6 -39.6 Q-12.75 -43.2 -16.0 -44.0 L-16.4 -44.4 -16.65 -45.2 -17.05 -46.7 -17.15 -48.95 -16.85 -49.9 -15.15 -52.2 -15.05 -52.35 -15.15 -52.45 -14.9 -52.75 -13.9 -54.3 -12.8 -55.65 -12.6 -56.15 -12.75 -56.55 -12.8 -56.65 -12.95 -57.0 -12.8 -57.2 -12.95 -58.4 -13.0 -60.75 -12.8 -62.5 -12.7 -63.55 -12.45 -64.65 Q-12.15 -65.4 -11.2 -65.55 -9.3 -65.05 -7.8 -63.65 L-7.55 -63.45 -6.1 -62.05 -5.4 -61.35 Q-4.65 -60.65 -4.25 -59.8 -3.85 -59.55 -3.75 -59.0 -2.7 -58.15 -1.7 -58.55 -0.8 -58.25 0.0 -58.8 1.45 -58.6 2.55 -59.4 L2.6 -59.45 Q2.8 -59.7 2.65 -59.95 L2.7 -59.95 3.25 -60.8 Q5.1 -62.1 6.35 -64.5 L6.45 -64.7 6.6 -64.8 8.3 -65.7 9.35 -66.55 11.9 -66.95 Q11.55 -65.5 11.55 -64.25 L11.65 -63.4 11.65 -62.95"
         fill="url(#gradient0)"
         fill-rule="evenodd"
         stroke="none"
         id="path4" /><path
         d="M-10.05 -9.6 L-10.05 -2.95 Q-10.05 -1.75 -9.25 -0.9 -8.35 -0.05 -6.45 0.0 -4.55 -0.05 -3.65 -0.9 -2.85 -1.75 -2.85 -2.95 L-2.85 -9.6 -4.4 -9.6 -4.4 -3.0 Q-4.4 -2.3 -4.8 -1.85 -5.35 -1.35 -6.45 -1.3 -7.5 -1.35 -8.1 -1.85 -8.55 -2.3 -8.55 -3.0 L-8.55 -9.6 -10.05 -9.6"
         fill="#4f1d17"
         fill-rule="evenodd"
         stroke="none"
         id="path5" /><path
         d="M1.55 -9.65 L3.05 -9.65 3.05 -3.05 Q3.05 -2.35 3.5 -1.9 4.05 -1.35 5.1 -1.35 6.15 -1.35 6.7 -1.9 7.1 -2.35 7.1 -3.05 L7.1 -9.65 8.65 -9.65 8.65 -3.0 Q8.65 -1.75 7.85 -0.95 6.95 -0.05 5.1 -0.05 3.25 -0.05 2.35 -0.95 1.55 -1.75 1.55 -3.0 L1.55 -9.65"
         fill="#4f1d17"
         fill-rule="evenodd"
         stroke="none"
         id="path6" /><path
         d="M2.0 -58.6 L1.0 -58.65 -0.25 -58.7 -1.4 -58.7 -3.55 -58.4 Q-4.15 -59.95 -5.7 -61.6 -7.25 -63.25 -8.55 -64.1 -9.9 -65.0 -11.2 -65.6 -12.5 -66.2 -12.65 -64.55 L-13.0 -60.95 Q-13.2 -59.05 -12.6 -56.05 M2.25 -58.65 Q3.2 -61.0 4.75 -62.65 L7.6 -65.15 10.2 -66.65 Q11.5 -67.25 11.7 -65.6 L12.05 -62.0 Q12.2 -60.1 11.65 -57.1 M14.15 -41.25 Q13.9 -36.4 14.0 -32.65 14.1 -28.8 14.85 -25.15 15.6 -21.55 15.05 -17.7 14.4 -13.95 12.15 -10.8 L9.85 -8.75 8.7 -8.2 M-13.25 -40.2 Q-14.6 -37.75 -15.3 -35.15 -16.3 -31.5 -16.3 -27.55 L-15.85 -19.25 Q-15.4 -14.9 -13.7 -11.9 -12.05 -8.95 -8.9 -7.35"
         fill="none"
         stroke="#4f1d17"
         stroke-linecap="round"
         stroke-linejoin="round"
         stroke-width="1.0"
         id="path7" /><path
         d="M14.8 -43.7 Q17.6 -46.3 17.6 -49.65 17.6 -53.05 14.8 -55.65 L14.1 -54.9 Q16.55 -52.55 16.55 -49.65 16.55 -46.8 14.1 -44.4 L14.8 -43.7"
         fill="#4f1d17"
         fill-rule="evenodd"
         stroke="none"
         id="path8" /><path
         d="M-14.6 -41.8 L-13.85 -42.5 Q-16.35 -44.9 -16.35 -47.75 -16.35 -50.65 -13.85 -53.0 L-14.6 -53.75 Q-17.4 -51.15 -17.4 -47.75 -17.4 -44.4 -14.6 -41.8"
         fill="#4f1d17"
         fill-rule="evenodd"
         stroke="none"
         id="path9" /><path
         d="M10.3 -42.8 L9.55 -41.25 8.8 -41.25 9.35 -42.7 8.8 -42.7 8.8 -44.15 10.3 -44.15 10.3 -42.8 M13.2 -42.8 L12.45 -41.25 11.7 -41.25 12.25 -42.7 11.7 -42.7 11.7 -44.15 13.2 -44.15 13.2 -42.8"
         fill="#e7e0dc"
         fill-rule="evenodd"
         stroke="none"
         id="path10" /></g><radialGradient
       cx="0"
       cy="0"
       gradientTransform="matrix(0.0501, 0.0, 0.0, 0.0501, -1.4, -41.2)"
       gradientUnits="userSpaceOnUse"
       id="gradient0"
       r="819.2"
       spreadMethod="pad"><stop
         offset="0.0"
         stop-color="#a4a4a4"
         id="stop10" /><stop
         offset="1.0"
         stop-color="#646464"
         id="stop11" /></radialGradient><g
       id="sprite0"
       transform="matrix(1.0, 0.0, 0.0, 1.0, 3.0, 1.25)"><use
         height="2.5"
         transform="matrix(1.0, 0.0, 0.0, 1.0, -2.4, -1.25)"
         width="4.8"
         xlink:href="#shape1"
         id="use11" /></g><g
       id="shape1"
       transform="matrix(1.0, 0.0, 0.0, 1.0, 2.4, 1.25)"><path
         d="M1.9 0.75 Q0.05 -0.4 -1.9 -0.75"
         fill="none"
         stroke="#4f1d17"
         stroke-linecap="round"
         stroke-linejoin="round"
         stroke-width="1.0"
         id="path11" /></g><g
       id="shape2"
       transform="matrix(1.0, 0.0, 0.0, 1.0, 16.2, 38.35)"><path
         d="M-12.15 -24.3 L-12.15 -24.15 -12.25 -22.65 -12.15 -24.3 M-12.3 -16.8 Q-11.75 -15.05 -10.4 -13.85 L-9.9 -13.45 -10.25 -13.65 Q-12.05 -14.8 -12.3 -16.8 M-9.65 -21.7 L-9.6 -22.9 Q-9.4 -24.8 -9.45 -26.8 L-9.45 -26.85 Q-9.1 -24.7 -9.4 -22.55 L-9.6 -21.9 -9.65 -21.7"
         fill="#e7e0dc"
         fill-rule="evenodd"
         stroke="none"
         id="path12" /><path
         d="M-12.95 -35.6 L-14.3 -35.85 -14.55 -35.8 -14.05 -35.95 -12.95 -35.6 M-14.65 -32.35 L-14.5 -32.1 -14.6 -32.3 -14.65 -32.35"
         fill="#58463f"
         fill-rule="evenodd"
         stroke="none"
         id="path13" /><path
         d="M-12.95 -35.6 L-12.75 -35.5 -12.45 -35.2 -11.75 -34.45 -11.75 -34.35 -11.7 -34.3 -11.7 -34.25 -11.55 -34.15 -11.5 -33.9 -11.4 -33.7 -11.35 -33.65 -11.25 -33.55 -11.25 -33.25 -11.25 -33.2 -11.05 -32.85 -10.85 -32.4 Q-10.3 -30.95 -10.0 -29.4 L-9.95 -29.2 -9.65 -27.9 -9.45 -26.85 -9.45 -26.8 Q-9.4 -24.8 -9.6 -22.9 L-9.65 -21.7 -9.7 -21.7 -9.85 -20.9 -9.9 -20.5 -9.75 -19.75 -9.75 -19.55 -9.45 -18.85 -9.1 -18.05 -9.05 -17.9 Q-8.6 -16.5 -7.35 -15.75 L-7.35 -15.9 -7.3 -15.95 -7.05 -16.0 -6.9 -15.7 Q-7.0 -14.55 -6.5 -13.95 L-6.05 -13.1 -5.65 -12.5 Q-5.15 -11.5 -5.4 -11.5 L-7.2 -12.15 Q-8.75 -12.8 -9.9 -13.45 L-10.4 -13.85 Q-11.75 -15.05 -12.3 -16.8 L-12.3 -17.0 -12.25 -22.25 -12.25 -22.65 -12.15 -24.15 -12.15 -24.3 Q-11.9 -26.0 -12.35 -27.65 L-12.55 -28.35 -12.75 -28.95 -13.3 -31.05 -13.4 -31.05 -13.5 -31.15 -13.7 -31.15 -14.0 -31.5 -14.35 -32.05 -14.5 -32.1 -14.65 -32.35 -14.65 -32.65 -15.05 -33.2 -15.15 -33.3 -15.55 -34.25 -15.45 -35.3 -15.4 -35.35 -14.55 -35.8 -14.3 -35.85 -12.95 -35.6"
         fill="url(#gradient1)"
         fill-rule="evenodd"
         stroke="none"
         id="path14" /><path
         d="M-12.95 -35.6 L-14.3 -35.85 -14.55 -35.8 Q-16.1 -35.7 -15.6 -34.45 L-15.55 -34.25 -15.15 -33.3 -14.65 -32.35 -14.5 -32.1 -13.95 -31.4 Q-13.15 -30.25 -12.75 -28.95 L-12.55 -28.35 -12.45 -27.9 Q-12.1 -26.1 -12.15 -24.3 L-12.15 -24.15 -12.25 -22.65 -12.5 -20.8 Q-12.9 -18.9 -12.35 -17.05 L-12.3 -16.8 Q-11.75 -15.05 -10.4 -13.85 L-9.9 -13.45 Q-8.75 -12.8 -7.2 -12.15 L-5.4 -11.5 M-9.65 -21.7 L-9.6 -22.9 Q-9.4 -24.8 -9.45 -26.8 L-9.45 -26.85 Q-9.5 -28.8 -10.0 -30.55 -10.5 -32.4 -11.4 -34.1 -12.0 -35.2 -12.95 -35.6 M-9.65 -21.7 Q-9.7 -20.35 -9.4 -19.1 -8.95 -17.3 -7.35 -15.9"
         fill="none"
         stroke="#4f1d17"
         stroke-linecap="round"
         stroke-linejoin="round"
         stroke-width="1.0"
         id="path15" /><path
         d="M11.65 -29.75 L11.6 -29.85 11.55 -30.0 11.25 -30.75 11.2 -30.85 11.15 -30.95 11.15 -31.0 11.0 -31.45 10.9 -31.95 10.85 -32.0 Q10.7 -32.15 10.8 -32.45 L10.85 -32.7 11.0 -34.4 Q11.3 -35.6 11.85 -36.4 L11.9 -36.45 12.0 -36.6 12.15 -36.75 12.2 -36.8 12.25 -36.85 12.45 -37.05 12.55 -37.15 12.95 -37.4 14.3 -37.6 14.9 -37.8 15.25 -37.8 16.4 -37.4 Q17.05 -36.85 17.2 -35.95 L17.25 -35.55 17.75 -35.35 Q18.55 -34.85 18.7 -34.0 18.85 -33.15 18.25 -32.4 L17.95 -32.05 18.25 -31.2 Q18.4 -30.35 17.85 -29.65 L17.25 -29.15 16.85 -28.9 16.5 -28.8 16.45 -28.8 15.6 -28.8 15.05 -29.0 14.9 -28.85 14.05 -28.5 12.85 -28.7 Q12.15 -29.05 11.65 -29.75"
         fill="url(#gradient2)"
         fill-rule="evenodd"
         stroke="none"
         id="path16" /><path
         d="M12.95 -37.4 L14.3 -37.6 14.9 -37.8 15.25 -37.8 16.4 -37.4 Q17.05 -36.85 17.2 -35.95 L17.25 -35.55 17.75 -35.35 Q18.55 -34.85 18.7 -34.0 18.85 -33.15 18.25 -32.4 L17.95 -32.05 18.25 -31.2 Q18.4 -30.35 17.85 -29.65 L17.25 -29.15 16.85 -28.9 16.5 -28.8 16.45 -28.8 15.6 -28.8 15.05 -29.0 14.9 -28.85 14.05 -28.5 12.85 -28.7 Q12.15 -29.05 11.65 -29.75"
         fill="none"
         stroke="#4f1d17"
         stroke-linecap="round"
         stroke-linejoin="round"
         stroke-width="1.0"
         id="path17" /></g><radialGradient
       cx="0"
       cy="0"
       gradientTransform="matrix(0.0303, 0.0, 0.0, 0.0303, -12.9, -34.6)"
       gradientUnits="userSpaceOnUse"
       id="gradient1"
       r="819.2"
       spreadMethod="pad"><stop
         offset="0.0"
         stop-color="#a4a4a4"
         id="stop17" /><stop
         offset="1.0"
         stop-color="#646464"
         id="stop18" /></radialGradient><radialGradient
       cx="0"
       cy="0"
       gradientTransform="matrix(0.0112, 0.0, 0.0, 0.0112, 15.45, -37.05)"
       gradientUnits="userSpaceOnUse"
       id="gradient2"
       r="819.2"
       spreadMethod="pad"><stop
         offset="0.0"
         stop-color="#a4a4a4"
         id="stop19" /><stop
         offset="1.0"
         stop-color="#646464"
         id="stop20" /></radialGradient><g
       id="shape0-9"
       transform="matrix(1.0, 0.0, 0.0, 1.0, 17.4, 67.3)"><path
         d="M2.6 -59.45 L2.8 -59.4 Q8.25 -60.15 11.65 -57.1 L11.65 -57.2 11.55 -57.3 11.5 -57.4 11.7 -58.35 11.6 -59.85 11.7 -59.9 11.9 -61.75 11.9 -61.95 11.9 -62.0 12.25 -61.2 Q12.0 -60.35 12.3 -59.45 11.75 -58.75 12.05 -57.8 L12.0 -57.15 12.6 -56.95 12.65 -56.9 Q13.85 -56.55 14.55 -55.35 L14.6 -55.1 14.6 -55.05 14.75 -54.95 14.85 -54.7 14.85 -54.45 15.65 -53.7 Q16.2 -53.2 16.95 -52.85 16.85 -51.55 17.45 -49.9 15.9 -47.75 15.5 -45.05 13.5 -43.0 14.4 -40.15 L14.3 -38.65 Q14.0 -31.0 15.55 -23.85 15.35 -23.05 15.4 -22.15 L15.35 -19.75 15.15 -19.45 15.0 -17.5 14.65 -16.35 14.25 -15.65 14.25 -14.95 13.95 -14.2 13.8 -12.85 Q11.9 -11.95 11.75 -9.9 L11.7 -9.85 Q6.5 -7.75 8.7 -4.55 L8.3 -3.3 7.55 -3.1 7.45 -3.85 Q8.1 -5.55 7.55 -7.15 L7.65 -7.75 Q7.9 -8.1 7.7 -8.4 7.85 -9.1 7.35 -9.6 L7.3 -9.85 6.3 -10.45 Q4.2 -10.8 3.05 -9.45 L2.45 -8.65 2.45 -8.6 2.45 -8.5 2.5 -8.35 2.55 -8.25 2.6 -8.2 2.8 -8.05 2.4 -7.4 2.35 -7.35 2.9 -6.75 3.0 -6.5 Q2.6 -5.65 2.7 -4.5 L2.8 -3.65 2.75 -3.55 Q2.5 -5.15 1.6 -6.45 L1.65 -6.65 Q1.85 -6.95 1.2 -7.25 L1.05 -7.2 0.45 -7.35 Q-0.35 -7.75 -0.6 -8.45 L-0.8 -8.2 Q-1.55 -7.35 -2.6 -7.1 -2.9 -7.05 -3.0 -7.35 L-3.0 -7.65 Q-4.15 -6.55 -3.8 -4.45 L-3.7 -4.2 -3.9 -3.5 -3.9 -3.65 -4.0 -5.3 -4.25 -6.3 -4.2 -6.4 -4.05 -6.55 -4.15 -7.2 -4.15 -7.25 -4.05 -7.75 Q-3.7 -8.25 -4.0 -8.65 L-4.05 -8.75 -4.35 -9.35 -5.9 -10.35 Q-7.9 -10.65 -8.75 -9.3 L-9.0 -8.8 -9.2 -8.6 -9.2 -8.5 -9.15 -8.35 -9.2 -8.3 -9.2 -8.2 -8.65 -7.5 -9.05 -6.65 Q-9.8 -8.55 -11.75 -9.65 -12.85 -11.5 -14.55 -12.9 L-14.6 -12.95 Q-15.85 -16.3 -15.9 -20.0 -15.95 -22.3 -16.7 -24.15 L-16.4 -26.9 Q-15.95 -30.15 -16.15 -33.15 -15.1 -34.2 -14.55 -35.9 L-14.45 -36.25 -13.6 -39.6 Q-12.75 -43.2 -16.0 -44.0 L-16.4 -44.4 -16.65 -45.2 -17.05 -46.7 -17.15 -48.95 -16.85 -49.9 -15.15 -52.2 -15.05 -52.35 -15.15 -52.45 -14.9 -52.75 -13.9 -54.3 -12.8 -55.65 -12.6 -56.15 -12.5 -56.1 Q-8.9 -59.6 -3.75 -58.4 L-3.75 -58.45 -3.75 -58.75 -3.75 -59.0 Q-2.7 -58.15 -1.7 -58.55 -0.8 -58.25 0.0 -58.8 1.45 -58.6 2.55 -59.4 L2.6 -59.45 M11.7 -62.65 L11.65 -62.7 11.65 -62.95 11.7 -62.65 M3.8 -1.35 L2.85 -0.45 2.75 -1.4 2.8 -2.2 3.15 -1.85 3.8 -1.35 M5.5 -1.1 L5.55 -1.15 6.5 -1.7 6.6 -1.8 6.65 -1.75 6.85 -1.75 Q6.45 -1.35 5.7 -1.0 L5.5 -1.1 M-7.55 -63.45 L-6.4 -62.7 -6.1 -62.05 -7.55 -63.45 M-12.45 -64.65 L-12.7 -63.55 -12.8 -62.5 -13.0 -60.75 -13.3 -61.8 -12.85 -64.2 -12.1 -65.9 -11.75 -65.65 Q-12.3 -65.35 -12.45 -64.65 M-12.95 -58.4 L-12.8 -57.2 -12.95 -57.0 -13.1 -57.2 -13.15 -57.25 -13.15 -57.35 -12.95 -58.4 M-0.55 -28.85 L-0.5 -28.8 -0.55 -28.85 M-8.85 -2.65 L-8.45 -2.15 -8.25 -1.9 -8.95 -2.3 -8.85 -2.65 M-7.3 -1.25 Q-6.7 -1.05 -6.0 -1.25 -5.65 -1.05 -5.2 -1.0 L-6.0 -0.1 -7.3 -1.25"
         fill="#e7e0dc"
         fill-rule="evenodd"
         stroke="none"
         id="path3-2" /><path
         d="M-0.55 -28.85 L-0.5 -28.8 -0.55 -28.85"
         fill="#6a544a"
         fill-rule="evenodd"
         stroke="none"
         id="path4-2" /><path
         d="M2.6 -59.45 Q2.8 -59.7 2.65 -59.95 L2.7 -59.95 3.25 -60.8 Q5.1 -62.1 6.35 -64.5 L6.45 -64.7 6.6 -64.8 8.3 -65.7 9.35 -66.55 11.9 -66.95 Q11.55 -65.5 11.55 -64.25 L11.65 -63.4 11.65 -62.95 11.65 -62.7 11.7 -62.65 11.8 -62.6 11.85 -62.5 11.9 -62.0 11.9 -61.95 11.9 -61.75 11.7 -59.9 11.6 -59.85 11.7 -58.35 11.5 -57.4 11.55 -57.3 11.65 -57.2 11.65 -57.1 Q8.25 -60.15 2.8 -59.4 L2.6 -59.45 M-3.75 -59.0 L-3.75 -58.75 -3.75 -58.45 -3.75 -58.4 Q-8.9 -59.6 -12.5 -56.1 L-12.6 -56.15 -12.75 -56.55 -12.8 -56.65 -12.95 -57.0 -12.8 -57.2 -12.95 -58.4 -13.0 -60.75 -12.8 -62.5 -12.7 -63.55 -12.45 -64.65 Q-12.15 -65.4 -11.2 -65.55 -9.3 -65.05 -7.8 -63.65 L-7.55 -63.45 -6.1 -62.05 -5.4 -61.35 Q-4.65 -60.65 -4.25 -59.8 -3.85 -59.55 -3.75 -59.0 M-9.05 -6.65 L-8.65 -7.5 -9.2 -8.2 -9.2 -8.3 -9.15 -8.35 -9.2 -8.5 -9.2 -8.6 -9.0 -8.8 -8.75 -9.3 Q-7.9 -10.65 -5.9 -10.35 L-4.35 -9.35 -4.05 -8.75 -4.0 -8.65 Q-3.7 -8.25 -4.05 -7.75 L-4.15 -7.25 -4.15 -7.2 -4.05 -6.55 -4.2 -6.4 -4.25 -6.3 -4.0 -5.3 -3.9 -3.65 -3.9 -3.5 -4.05 -2.7 Q-3.15 -2.5 -3.7 -1.45 -3.85 -1.15 -4.2 -1.1 L-5.2 -1.0 Q-5.65 -1.05 -6.0 -1.25 -6.7 -1.05 -7.3 -1.25 L-8.25 -1.9 -8.45 -2.15 -8.85 -2.65 -9.1 -3.5 -9.2 -5.0 -9.2 -5.95 -9.05 -6.65 M2.75 -3.55 L2.8 -3.65 2.7 -4.5 Q2.6 -5.65 3.0 -6.5 L2.9 -6.75 2.35 -7.35 2.4 -7.4 2.8 -8.05 2.6 -8.2 2.55 -8.25 2.5 -8.35 2.45 -8.5 2.45 -8.6 2.45 -8.65 3.05 -9.45 Q4.2 -10.8 6.3 -10.45 L7.3 -9.85 7.35 -9.6 Q7.85 -9.1 7.7 -8.4 7.9 -8.1 7.65 -7.75 L7.55 -7.15 Q8.1 -5.55 7.45 -3.85 L7.55 -3.1 7.55 -2.95 7.45 -2.8 7.4 -2.7 7.35 -2.65 7.35 -2.4 7.35 -2.25 7.35 -2.1 7.3 -2.0 7.25 -1.95 7.15 -1.85 6.85 -1.75 6.65 -1.75 6.6 -1.8 6.5 -1.7 5.55 -1.15 5.5 -1.1 5.45 -1.05 4.9 -1.0 3.8 -1.35 3.15 -1.85 2.8 -2.2 Q2.25 -2.95 2.75 -3.55"
         fill="#58463f"
         fill-rule="evenodd"
         stroke="none"
         id="path5-8" /><path
         d="M-10.05 -9.6 L-10.05 -2.95 Q-10.05 -1.75 -9.25 -0.9 -8.35 -0.05 -6.45 0.0 -4.55 -0.05 -3.65 -0.9 -2.85 -1.75 -2.85 -2.95 L-2.85 -9.6 -4.4 -9.6 -4.4 -3.0 Q-4.4 -2.3 -4.8 -1.85 -5.35 -1.35 -6.45 -1.3 -7.5 -1.35 -8.1 -1.85 -8.55 -2.3 -8.55 -3.0 L-8.55 -9.6 -10.05 -9.6"
         fill="#4f1d17"
         fill-rule="evenodd"
         stroke="none"
         id="path6-9" /><path
         d="M1.55 -9.65 L3.05 -9.65 3.05 -3.05 Q3.05 -2.35 3.5 -1.9 4.05 -1.35 5.1 -1.35 6.15 -1.35 6.7 -1.9 7.1 -2.35 7.1 -3.05 L7.1 -9.65 8.65 -9.65 8.65 -3.0 Q8.65 -1.75 7.85 -0.95 6.95 -0.05 5.1 -0.05 3.25 -0.05 2.35 -0.95 1.55 -1.75 1.55 -3.0 L1.55 -9.65"
         fill="#4f1d17"
         fill-rule="evenodd"
         stroke="none"
         id="path7-7" /><path
         d="M14.6 -55.45 Q17.3 -53.7 17.65 -49.6 17.7 -48.15 17.25 -46.9 L15.35 -44.15 Q13.8 -43.05 14.4 -41.4 11.75 -42.05 9.7 -43.65 6.3 -46.25 6.35 -49.9 6.3 -53.6 9.7 -56.2 L11.05 -57.1 11.5 -57.35 11.65 -57.4 Q13.55 -56.8 14.55 -55.5 L14.6 -55.45"
         fill="url(#gradient0)"
         fill-rule="evenodd"
         stroke="none"
         id="path8-3"
         style="fill:url(#gradient0-3)" /><path
         d="M2.25 -58.65 Q3.2 -61.0 4.75 -62.65 L7.6 -65.15 10.2 -66.65 Q11.5 -67.25 11.7 -65.6 L12.05 -62.0 Q12.2 -60.1 11.65 -57.1 M2.0 -58.6 L1.0 -58.65 -0.25 -58.7 -1.4 -58.7 -3.55 -58.4 Q-4.15 -59.95 -5.7 -61.6 -7.25 -63.25 -8.55 -64.1 -9.9 -65.0 -11.2 -65.6 -12.5 -66.2 -12.65 -64.55 L-13.0 -60.95 Q-13.2 -59.05 -12.6 -56.05 M14.15 -41.25 Q13.9 -36.4 14.0 -32.65 14.1 -28.8 14.85 -25.15 15.6 -21.55 15.05 -17.7 14.4 -13.95 12.15 -10.8 L9.85 -8.75 8.7 -8.2 M-13.0 -40.65 Q-14.55 -37.95 -15.3 -35.15 -16.3 -31.5 -16.3 -27.55 L-15.85 -19.25 Q-15.4 -14.9 -13.7 -11.9 -12.05 -8.95 -8.9 -7.35"
         fill="none"
         stroke="#4f1d17"
         stroke-linecap="round"
         stroke-linejoin="round"
         stroke-width="1.0"
         id="path9-6" /><path
         d="M14.8 -43.7 Q17.6 -46.3 17.6 -49.65 17.6 -53.05 14.8 -55.65 L14.1 -54.9 Q16.55 -52.55 16.55 -49.65 16.55 -46.8 14.1 -44.4 L14.8 -43.7"
         fill="#4f1d17"
         fill-rule="evenodd"
         stroke="none"
         id="path10-1" /><path
         d="M-14.6 -41.8 L-13.85 -42.5 Q-16.35 -44.9 -16.35 -47.75 -16.35 -50.65 -13.85 -53.0 L-14.6 -53.75 Q-17.4 -51.15 -17.4 -47.75 -17.4 -44.4 -14.6 -41.8"
         fill="#4f1d17"
         fill-rule="evenodd"
         stroke="none"
         id="path11-2" /><path
         d="M13.15 -42.85 L12.4 -41.3 11.7 -41.3 12.2 -42.75 11.7 -42.75 11.7 -44.2 13.15 -44.2 13.15 -42.85 M10.3 -44.2 L10.3 -42.85 9.55 -41.3 8.8 -41.3 9.35 -42.75 8.8 -42.75 8.8 -44.2 10.3 -44.2"
         fill="#000000"
         fill-rule="evenodd"
         stroke="none"
         id="path12-9" /></g><radialGradient
       cx="0"
       cy="0"
       gradientTransform="matrix(-0.0145, 0.0, 0.0, 0.0138, 17.75, -49.9)"
       gradientUnits="userSpaceOnUse"
       id="gradient0-3"
       r="819.2"
       spreadMethod="pad"><stop
         offset="0.0"
         stop-color="#504134"
         id="stop12" /><stop
         offset="1.0"
         stop-color="#4b3429"
         stop-opacity="0.0"
         id="stop13" /></radialGradient><g
       id="sprite0-1"
       transform="matrix(1.0, 0.0, 0.0, 1.0, 3.0, 1.25)"><use
         height="2.5"
         transform="matrix(1.0, 0.0, 0.0, 1.0, -2.4, -1.25)"
         width="4.8"
         xlink:href="#shape1-9"
         id="use13" /></g><g
       id="shape1-9"
       transform="matrix(1.0, 0.0, 0.0, 1.0, 2.4, 1.25)"><path
         d="M1.9 0.75 Q0.05 -0.4 -1.9 -0.75"
         fill="none"
         stroke="#4f1d17"
         stroke-linecap="round"
         stroke-linejoin="round"
         stroke-width="1.0"
         id="path13-4" /></g><g
       id="shape2-7"
       transform="matrix(1.0, 0.0, 0.0, 1.0, 16.2, 38.35)"><path
         d="M-9.5 -26.85 L-9.7 -27.9 -10.0 -29.2 -10.05 -29.4 -10.9 -32.4 -11.0 -32.4 -11.05 -32.35 -11.5 -31.95 -11.5 -31.9 -11.55 -31.85 -11.6 -31.8 -11.75 -31.75 -11.85 -31.65 Q-12.55 -31.25 -13.25 -31.25 L-13.3 -31.2 -13.5 -31.15 -13.4 -31.05 -13.3 -31.05 -12.75 -28.95 -12.6 -28.35 -12.4 -27.65 Q-11.9 -26.0 -12.2 -24.3 L-12.3 -22.65 -12.3 -22.25 -12.35 -17.0 -12.35 -16.8 Q-12.1 -14.8 -10.3 -13.65 L-9.95 -13.45 -7.25 -12.15 Q-5.65 -11.5 -5.45 -11.5 -5.2 -11.5 -5.7 -12.5 L-6.1 -13.1 -6.55 -13.95 Q-7.05 -14.55 -6.95 -15.7 L-7.1 -16.0 -7.35 -15.95 -7.4 -15.9 -7.4 -15.75 Q-8.6 -16.5 -9.1 -17.9 L-9.15 -18.05 -9.5 -18.85 -9.8 -19.55 -9.8 -19.75 -9.95 -20.5 -9.9 -20.9 -9.75 -21.7 -9.7 -21.7 -9.65 -21.9 -9.45 -22.55 Q-9.15 -24.7 -9.5 -26.85 L-9.5 -26.8 Q-9.45 -24.8 -9.65 -22.9 L-9.7 -21.7 -9.65 -22.9 Q-9.45 -24.8 -9.5 -26.8 L-9.5 -26.85 M-12.3 -22.65 L-12.2 -24.15 -12.2 -24.3 -12.2 -24.15 -12.3 -22.65 M-9.95 -13.45 L-10.45 -13.85 Q-11.75 -15.05 -12.35 -16.8 -11.75 -15.05 -10.45 -13.85 L-9.95 -13.45"
         fill="#e7e0dc"
         fill-rule="evenodd"
         stroke="none"
         id="path14-8" /><path
         d="M-10.9 -32.4 L-11.1 -32.85 -11.3 -33.2 -11.3 -33.25 -11.3 -33.55 -11.4 -33.65 -11.45 -33.7 -11.55 -33.9 -11.6 -34.15 -11.75 -34.25 -11.75 -34.3 -11.8 -34.35 -11.8 -34.45 -12.5 -35.2 -12.75 -35.5 -12.95 -35.6 -14.3 -35.85 -14.55 -35.8 -14.3 -35.85 -12.95 -35.6 -14.05 -35.95 -14.55 -35.8 -15.4 -35.35 -15.45 -35.3 -15.55 -34.25 -15.15 -33.3 -15.05 -33.2 -14.65 -32.65 -14.65 -32.35 -14.6 -32.3 -14.5 -32.1 -14.35 -32.05 -14.0 -31.5 -13.7 -31.15 -13.5 -31.15 -13.3 -31.2 -13.25 -31.25 Q-12.55 -31.25 -11.85 -31.65 L-11.75 -31.75 -11.6 -31.8 -11.55 -31.85 -11.5 -31.9 -11.5 -31.95 -11.05 -32.35 -11.0 -32.4 -10.9 -32.4 M-14.65 -32.35 L-14.5 -32.1 -14.65 -32.35"
         fill="#58463f"
         fill-rule="evenodd"
         stroke="none"
         id="path15-4" /><path
         d="M-12.95 -35.6 Q-12.0 -35.2 -11.45 -34.1 -10.55 -32.4 -10.05 -30.55 -9.55 -28.8 -9.5 -26.85 L-9.5 -26.8 Q-9.45 -24.8 -9.65 -22.9 L-9.7 -21.7 M-14.5 -32.1 L-14.65 -32.35 M-15.15 -33.3 L-15.55 -34.25 M-14.55 -35.8 L-14.3 -35.85 -12.95 -35.6 M-14.55 -35.8 Q-16.05 -35.7 -15.6 -34.45 L-15.55 -34.25 M-14.5 -32.1 L-13.95 -31.4 Q-13.15 -30.25 -12.75 -28.95 L-12.6 -28.35 -12.5 -27.9 Q-12.15 -26.1 -12.2 -24.3 L-12.2 -24.15 -12.3 -22.65 -12.55 -20.8 Q-12.9 -18.9 -12.4 -17.05 L-12.35 -16.8 Q-11.75 -15.05 -10.45 -13.85 L-9.95 -13.45 -7.25 -12.15 Q-5.65 -11.5 -5.45 -11.5 M-7.4 -15.9 Q-8.95 -17.3 -9.45 -19.1 -9.75 -20.35 -9.7 -21.7 M-15.15 -33.3 L-14.65 -32.35"
         fill="none"
         stroke="#4f1d17"
         stroke-linecap="round"
         stroke-linejoin="round"
         stroke-width="1.0"
         id="path16-5" /><path
         d="M12.95 -37.4 L14.3 -37.6 14.9 -37.8 15.25 -37.8 16.4 -37.4 Q17.05 -36.85 17.2 -35.95 L17.25 -35.55 17.75 -35.35 Q18.55 -34.85 18.7 -34.0 18.85 -33.15 18.25 -32.4 L17.95 -32.05 18.25 -31.2 Q18.4 -30.35 17.85 -29.65 L17.25 -29.15 16.85 -28.9 16.5 -28.8 16.45 -28.8 15.6 -28.8 15.05 -29.0 14.9 -28.85 14.05 -28.5 12.85 -28.7 Q12.15 -29.05 11.65 -29.75 L11.7 -29.8 11.7 -29.85 11.85 -30.05 12.05 -30.4 12.2 -30.7 12.35 -31.05 12.75 -32.1 12.8 -32.25 13.1 -34.15 13.15 -34.15 Q13.25 -35.6 12.95 -37.3 L12.95 -37.4"
         fill="#58463f"
         fill-rule="evenodd"
         stroke="none"
         id="path17-0" /><path
         d="M11.65 -29.75 L11.6 -29.85 11.55 -30.0 11.25 -30.75 11.2 -30.85 11.15 -30.95 11.15 -31.0 11.0 -31.45 10.9 -31.95 10.85 -32.0 Q10.7 -32.15 10.8 -32.45 L10.85 -32.7 11.0 -34.4 Q11.3 -35.6 11.85 -36.4 L11.9 -36.45 12.0 -36.6 12.15 -36.75 12.2 -36.8 12.25 -36.85 12.45 -37.05 12.55 -37.15 12.95 -37.4 12.95 -37.3 Q13.25 -35.6 13.15 -34.15 L13.1 -34.15 12.8 -32.25 12.75 -32.1 12.35 -31.05 12.2 -30.7 12.05 -30.4 11.85 -30.05 11.7 -29.85 11.7 -29.8 11.65 -29.75"
         fill="#e7e0dc"
         fill-rule="evenodd"
         stroke="none"
         id="path18" /><path
         d="M12.95 -37.4 L14.3 -37.6 14.9 -37.8 15.25 -37.8 16.4 -37.4 Q17.05 -36.85 17.2 -35.95 L17.25 -35.55 17.75 -35.35 Q18.55 -34.85 18.7 -34.0 18.85 -33.15 18.25 -32.4 L17.95 -32.05 18.25 -31.2 Q18.4 -30.35 17.85 -29.65 L17.25 -29.15 16.85 -28.9 16.5 -28.8 16.45 -28.8 15.6 -28.8 15.05 -29.0 14.9 -28.85 14.05 -28.5 12.85 -28.7 Q12.15 -29.05 11.65 -29.75 M12.95 -37.4 L12.95 -37.3 M11.7 -29.8 L11.65 -29.75"
         fill="none"
         stroke="#4f1d17"
         stroke-linecap="round"
         stroke-linejoin="round"
         stroke-width="1.0"
         id="path19" /></g><g
       id="shape0-97"
       transform="matrix(1.0, 0.0, 0.0, 1.0, 17.4, 67.3)"><path
         d="M11.7 -62.65 L11.65 -62.7 11.65 -62.95 11.7 -62.65 M6.85 -1.75 Q6.45 -1.35 5.7 -1.0 L5.5 -1.1 5.55 -1.15 6.5 -1.7 6.6 -1.8 6.65 -1.75 6.85 -1.75 M3.8 -1.35 L2.85 -0.45 2.75 -1.4 2.8 -2.2 3.15 -1.85 3.8 -1.35 M-5.2 -1.0 L-6.0 -0.1 -7.3 -1.25 Q-6.7 -1.05 -6.0 -1.25 -5.65 -1.05 -5.2 -1.0 M-8.25 -1.9 L-8.95 -2.3 -8.85 -2.65 -8.45 -2.15 -8.25 -1.9 M-12.95 -57.0 L-13.1 -57.2 -13.15 -57.25 -13.15 -57.35 -12.95 -58.4 -12.8 -57.2 -12.95 -57.0 M-13.0 -60.75 L-13.3 -61.8 -12.85 -64.2 -12.1 -65.9 -11.75 -65.65 Q-12.3 -65.35 -12.45 -64.65 L-12.7 -63.55 -12.8 -62.5 -13.0 -60.75 M-7.55 -63.45 L-6.4 -62.7 -6.1 -62.05 -7.55 -63.45"
         fill="#e7e0dc"
         fill-rule="evenodd"
         stroke="none"
         id="path3-7" /><path
         d="M6.55 -45.6 L6.85 -45.75 6.5 -45.55 10.35 -47.15 Q12.2 -47.85 13.65 -48.7 15.35 -49.75 16.1 -51.1 L16.8 -52.9 16.95 -52.85 Q16.85 -51.55 17.45 -49.9 15.9 -47.75 15.5 -45.05 13.5 -43.0 14.4 -40.15 L14.3 -38.65 Q14.0 -31.0 15.55 -23.85 15.35 -23.05 15.4 -22.15 L15.35 -19.75 15.15 -19.45 15.0 -17.5 14.95 -17.2 14.4 -16.8 Q13.75 -16.25 12.95 -16.05 12.15 -15.7 11.3 -16.25 10.65 -16.65 10.2 -17.25 9.65 -17.95 10.8 -19.3 11.95 -20.65 11.75 -21.65 L11.65 -22.2 11.55 -23.55 Q11.55 -24.8 11.35 -24.95 11.15 -25.1 10.45 -26.8 9.7 -28.5 8.95 -29.15 L8.45 -30.8 Q7.95 -31.95 8.95 -32.3 9.9 -32.65 10.15 -33.45 10.4 -34.3 10.1 -35.3 L9.5 -37.2 8.7 -38.8 7.65 -39.95 6.3 -41.0 4.75 -41.7 Q3.9 -42.05 1.65 -40.05 -0.65 -38.05 -2.75 -35.4 -3.8 -34.1 -5.05 -33.8 L-6.25 -33.75 Q-7.05 -33.8 -7.5 -34.1 L-7.65 -34.2 -7.95 -34.35 -8.8 -35.05 Q-9.7 -36.45 -4.3 -38.3 2.45 -40.65 -1.45 -41.4 L-6.35 -42.15 -8.2 -42.1 -10.0 -41.95 -11.65 -41.5 -13.4 -40.8 Q-13.35 -43.35 -16.0 -44.0 L-16.4 -44.4 -16.65 -45.2 -17.05 -46.7 -17.15 -48.95 -16.85 -49.9 -15.35 -51.9 -15.3 -50.8 Q-15.15 -48.95 -14.3 -47.3 -13.45 -45.65 -11.6 -44.8 -10.05 -44.1 -8.05 -43.95 L-4.35 -43.85 -0.5 -44.1 3.25 -44.65 6.55 -45.6 M13.95 -14.0 L14.3 -14.1 14.35 -14.1 14.25 -14.0 13.85 -13.95 13.95 -14.0 M12.15 -10.65 L11.8 -10.4 11.75 -9.9 11.7 -9.85 9.8 -8.9 Q6.95 -7.05 8.7 -4.55 L8.3 -3.3 7.55 -3.1 7.55 -2.95 7.45 -2.8 7.4 -2.7 7.35 -2.65 7.35 -2.4 7.35 -2.25 7.35 -2.1 7.3 -2.0 7.25 -1.95 7.15 -1.85 6.85 -1.75 6.65 -1.75 6.6 -1.8 6.5 -1.7 5.55 -1.15 5.5 -1.1 5.45 -1.05 4.9 -1.0 3.8 -1.35 3.15 -1.85 2.8 -2.2 Q2.25 -2.95 2.75 -3.55 2.5 -5.15 1.6 -6.45 L1.65 -6.65 Q1.85 -6.95 1.2 -7.25 L1.05 -7.2 0.45 -7.35 Q-0.35 -7.75 -0.6 -8.45 L-0.8 -8.2 Q-1.55 -7.35 -2.6 -7.1 -2.9 -7.05 -3.0 -7.35 L-3.0 -7.65 Q-4.15 -6.55 -3.8 -4.45 L-3.7 -4.2 -3.9 -3.5 -4.05 -2.7 Q-3.15 -2.5 -3.7 -1.45 -3.85 -1.15 -4.2 -1.1 L-5.2 -1.0 Q-5.65 -1.05 -6.0 -1.25 -6.7 -1.05 -7.3 -1.25 L-8.25 -1.9 -8.45 -2.15 -8.85 -2.65 -9.1 -3.5 -9.2 -5.0 -9.2 -5.95 -9.05 -6.65 Q-9.8 -8.55 -11.75 -9.65 -12.85 -11.5 -14.55 -12.9 L-14.6 -12.95 -14.6 -13.0 -15.2 -14.95 -13.9 -13.65 Q-12.15 -12.15 -10.05 -11.3 -8.0 -10.4 -5.7 -10.05 L-1.95 -9.75 -1.2 -9.8 -0.95 -9.8 1.9 -10.3 2.15 -10.3 4.05 -10.3 6.0 -10.3 7.85 -10.3 9.7 -10.35 11.55 -10.55 12.15 -10.65"
         fill="#fefbf5"
         fill-rule="evenodd"
         stroke="none"
         id="path4-6" /><path
         d="M11.65 -62.95 L11.65 -62.7 11.7 -62.65 11.8 -62.6 11.85 -62.5 11.9 -62.0 12.25 -61.2 Q12.0 -60.35 12.3 -59.45 11.75 -58.75 12.05 -57.8 L12.0 -57.15 12.6 -56.95 12.65 -56.9 Q13.85 -56.55 14.55 -55.35 L14.6 -55.1 14.6 -55.05 14.75 -54.95 14.85 -54.7 14.85 -54.45 15.65 -53.7 Q16.15 -53.25 16.8 -52.9 L16.1 -51.1 Q15.35 -49.75 13.65 -48.7 12.2 -47.85 10.35 -47.15 L6.5 -45.55 6.85 -45.75 6.55 -45.6 Q7.65 -46.95 6.7 -47.35 L3.95 -48.6 Q2.15 -49.5 1.1 -51.1 0.05 -52.7 -0.3 -54.5 -0.7 -56.3 -0.65 -58.25 L-0.65 -58.5 0.0 -58.8 Q1.45 -58.6 2.55 -59.4 L2.6 -59.45 Q2.8 -59.7 2.65 -59.95 L2.7 -59.95 3.25 -60.8 Q5.1 -62.1 6.35 -64.5 L6.45 -64.7 6.6 -64.8 8.3 -65.7 9.35 -66.55 11.9 -66.95 Q11.55 -65.5 11.55 -64.25 L11.65 -63.4 11.65 -62.95 M14.25 -14.0 Q13.35 -12.7 12.85 -11.2 L12.15 -10.65 11.55 -10.55 9.7 -10.35 7.85 -10.3 6.0 -10.3 4.05 -10.3 2.15 -10.3 1.9 -10.3 -0.95 -9.8 -1.2 -9.8 -1.95 -9.75 -5.7 -10.05 Q-8.0 -10.4 -10.05 -11.3 -12.15 -12.15 -13.9 -13.65 L-15.2 -14.95 Q-15.85 -17.4 -15.9 -20.0 L-16.2 -22.65 -15.35 -21.4 -12.7 -17.95 Q-11.2 -16.2 -9.05 -14.85 L-5.5 -12.7 Q-3.9 -11.65 -2.85 -11.65 L-0.7 -11.85 2.1 -11.8 5.2 -12.05 Q9.6 -12.75 13.85 -13.95 L14.25 -14.0 M-13.8 -38.65 L-13.6 -39.6 -13.4 -40.8 -11.65 -41.5 -10.0 -41.95 -8.2 -42.1 -6.35 -42.15 -1.45 -41.4 Q2.45 -40.65 -4.3 -38.3 -9.7 -36.45 -8.8 -35.05 L-10.2 -35.95 -11.75 -36.85 -13.05 -37.9 -13.8 -38.65 M-5.05 -33.8 Q-3.8 -34.1 -2.75 -35.4 -0.65 -38.05 1.65 -40.05 3.9 -42.05 4.75 -41.7 L6.3 -41.0 7.65 -39.95 8.7 -38.8 9.5 -37.2 10.1 -35.3 Q10.4 -34.3 10.15 -33.45 9.9 -32.65 8.95 -32.3 7.95 -31.95 8.45 -30.8 L8.95 -29.15 Q6.55 -29.0 6.1 -29.55 5.65 -30.15 5.55 -30.85 5.45 -31.55 4.95 -32.1 4.4 -32.7 -0.3 -26.7 -5.0 -20.7 -8.2 -23.6 -11.4 -26.55 -10.15 -28.15 -8.95 -29.8 -6.1 -28.2 -3.3 -26.6 -3.5 -30.2 L-3.85 -33.85 -5.05 -33.8"
         fill="#fce6a5"
         fill-rule="evenodd"
         stroke="none"
         id="path5-4" /><path
         d="M-0.65 -58.5 L-0.65 -58.25 Q-0.7 -56.3 -0.3 -54.5 0.05 -52.7 1.1 -51.1 2.15 -49.5 3.95 -48.6 L6.7 -47.35 Q7.65 -46.95 6.55 -45.6 L3.25 -44.65 -0.5 -44.1 -4.35 -43.85 -8.05 -43.95 Q-10.05 -44.1 -11.6 -44.8 -13.45 -45.65 -14.3 -47.3 -15.15 -48.95 -15.3 -50.8 L-15.35 -51.9 -15.15 -52.2 -15.05 -52.35 -15.15 -52.45 -14.9 -52.75 -13.9 -54.3 -12.8 -55.65 -12.6 -56.15 -12.75 -56.55 -12.8 -56.65 -12.95 -57.0 -12.8 -57.2 -12.95 -58.4 -13.0 -60.75 -12.8 -62.5 -12.7 -63.55 -12.45 -64.65 Q-12.15 -65.4 -11.2 -65.55 -9.3 -65.05 -7.8 -63.65 L-7.55 -63.45 -6.1 -62.05 -5.4 -61.35 Q-4.65 -60.65 -4.25 -59.8 -3.85 -59.55 -3.75 -59.0 -2.7 -58.15 -1.7 -58.55 L-0.65 -58.5 M14.95 -17.2 L14.65 -16.35 14.25 -15.65 14.25 -14.95 13.95 -14.2 13.95 -14.0 13.85 -13.95 Q9.6 -12.75 5.2 -12.05 L2.1 -11.8 -0.7 -11.85 -2.85 -11.65 Q-3.9 -11.65 -5.5 -12.7 L-9.05 -14.85 Q-11.2 -16.2 -12.7 -17.95 L-15.35 -21.4 -16.2 -22.65 -16.7 -24.15 -16.4 -26.9 Q-15.95 -30.15 -16.15 -33.15 -15.1 -34.2 -14.55 -35.9 L-14.45 -36.25 -13.8 -38.65 -13.05 -37.9 -11.75 -36.85 -10.2 -35.95 -8.8 -35.05 -7.95 -34.35 -7.65 -34.2 -7.5 -34.1 Q-7.05 -33.8 -6.25 -33.75 L-5.05 -33.8 -3.85 -33.85 -3.5 -30.2 Q-3.3 -26.6 -6.1 -28.2 -8.95 -29.8 -10.15 -28.15 -11.4 -26.55 -8.2 -23.6 -5.0 -20.7 -0.3 -26.7 4.4 -32.7 4.95 -32.1 5.45 -31.55 5.55 -30.85 5.65 -30.15 6.1 -29.55 6.55 -29.0 8.95 -29.15 9.7 -28.5 10.45 -26.8 11.15 -25.1 11.35 -24.95 11.55 -24.8 11.55 -23.55 L11.65 -22.2 11.75 -21.65 Q11.95 -20.65 10.8 -19.3 9.65 -17.95 10.2 -17.25 10.65 -16.65 11.3 -16.25 12.15 -15.7 12.95 -16.05 13.75 -16.25 14.4 -16.8 L14.95 -17.2"
         fill="#3d3d3d"
         fill-rule="evenodd"
         stroke="none"
         id="path6-3" /><path
         d="M-10.05 -9.6 L-10.05 -2.95 Q-10.05 -1.75 -9.25 -0.9 -8.35 -0.05 -6.45 0.0 -4.55 -0.05 -3.65 -0.9 -2.85 -1.75 -2.85 -2.95 L-2.85 -9.6 -4.4 -9.6 -4.4 -3.0 Q-4.4 -2.3 -4.8 -1.85 -5.35 -1.35 -6.45 -1.3 -7.5 -1.35 -8.1 -1.85 -8.55 -2.3 -8.55 -3.0 L-8.55 -9.6 -10.05 -9.6"
         fill="#4f1d17"
         fill-rule="evenodd"
         stroke="none"
         id="path7-0" /><path
         d="M1.55 -9.65 L3.05 -9.65 3.05 -3.05 Q3.05 -2.35 3.5 -1.9 4.05 -1.35 5.1 -1.35 6.15 -1.35 6.7 -1.9 7.1 -2.35 7.1 -3.05 L7.1 -9.65 8.65 -9.65 8.65 -3.0 Q8.65 -1.75 7.85 -0.95 6.95 -0.05 5.1 -0.05 3.25 -0.05 2.35 -0.95 1.55 -1.75 1.55 -3.0 L1.55 -9.65"
         fill="#4f1d17"
         fill-rule="evenodd"
         stroke="none"
         id="path8-30" /><path
         d="M2.25 -58.65 Q3.2 -61.0 4.75 -62.65 L7.6 -65.15 10.2 -66.65 Q11.5 -67.25 11.7 -65.6 L12.05 -62.0 Q12.2 -60.1 11.65 -57.1 M2.0 -58.6 L1.0 -58.65 -0.25 -58.7 -0.65 -58.7 -1.4 -58.7 -3.55 -58.4 Q-4.15 -59.95 -5.7 -61.6 -7.25 -63.25 -8.55 -64.1 -9.9 -65.0 -11.2 -65.6 -12.5 -66.2 -12.65 -64.55 L-13.0 -60.95 Q-13.2 -59.05 -12.6 -56.05 M14.15 -41.25 L14.1 -39.45 14.0 -32.65 Q14.1 -28.8 14.85 -25.15 15.6 -21.55 15.05 -17.7 14.4 -13.95 12.15 -10.8 L9.85 -8.75 8.7 -8.2 M-12.95 -40.8 L-13.3 -40.1 -13.65 -39.45 -15.3 -35.15 Q-16.3 -31.5 -16.3 -27.55 L-15.85 -19.25 Q-15.4 -14.9 -13.7 -11.9 -12.05 -8.95 -8.9 -7.35"
         fill="none"
         stroke="#4f1d17"
         stroke-linecap="round"
         stroke-linejoin="round"
         stroke-width="1.0"
         id="path9-9" /><path
         d="M14.8 -43.7 Q17.6 -46.3 17.6 -49.65 17.6 -53.05 14.8 -55.65 L14.1 -54.9 Q16.55 -52.55 16.55 -49.65 16.55 -46.8 14.1 -44.4 L14.8 -43.7"
         fill="#4f1d17"
         fill-rule="evenodd"
         stroke="none"
         id="path10-2" /><path
         d="M-14.6 -41.8 L-13.85 -42.5 Q-16.35 -44.9 -16.35 -47.75 -16.35 -50.65 -13.85 -53.0 L-14.6 -53.75 Q-17.4 -51.15 -17.4 -47.75 -17.4 -44.4 -14.6 -41.8"
         fill="#4f1d17"
         fill-rule="evenodd"
         stroke="none"
         id="path11-5" /><path
         d="M10.3 -42.8 L9.55 -41.25 8.8 -41.25 9.35 -42.7 8.8 -42.7 8.8 -44.15 10.3 -44.15 10.3 -42.8 M13.2 -42.8 L12.45 -41.25 11.7 -41.25 12.25 -42.7 11.7 -42.7 11.7 -44.15 13.2 -44.15 13.2 -42.8"
         fill="#000000"
         fill-rule="evenodd"
         stroke="none"
         id="path12-4" /></g><g
       id="sprite0-0"
       transform="matrix(1.0, 0.0, 0.0, 1.0, 3.0, 1.25)"><use
         height="2.5"
         transform="matrix(1.0, 0.0, 0.0, 1.0, -2.4, -1.25)"
         width="4.8"
         xlink:href="#shape1-5"
         id="use12" /></g><g
       id="shape1-5"
       transform="matrix(1.0, 0.0, 0.0, 1.0, 2.4, 1.25)"><path
         d="M1.9 0.75 Q0.05 -0.4 -1.9 -0.75"
         fill="none"
         stroke="#4f1d17"
         stroke-linecap="round"
         stroke-linejoin="round"
         stroke-width="1.0"
         id="path13-9" /></g><g
       id="shape2-4"
       transform="matrix(1.0, 0.0, 0.0, 1.0, 16.2, 38.35)"><path
         d="M-12.15 -24.3 L-12.15 -24.15 -12.25 -22.65 -12.15 -24.3 M-12.3 -16.8 Q-11.75 -15.05 -10.4 -13.85 L-9.9 -13.45 -10.25 -13.65 Q-12.05 -14.8 -12.3 -16.8 M-9.65 -21.7 L-9.6 -22.9 Q-9.4 -24.8 -9.45 -26.8 L-9.45 -26.85 Q-9.1 -24.7 -9.4 -22.55 L-9.6 -21.9 -9.65 -21.7"
         fill="#e7e0dc"
         fill-rule="evenodd"
         stroke="none"
         id="path14-6" /><path
         d="M-12.95 -35.6 L-14.3 -35.85 -14.55 -35.8 -14.05 -35.95 -12.95 -35.6 M-14.65 -32.35 L-14.5 -32.1 -14.6 -32.3 -14.65 -32.35"
         fill="#58463f"
         fill-rule="evenodd"
         stroke="none"
         id="path15-9" /><path
         d="M-12.95 -35.6 L-12.75 -35.5 -12.45 -35.2 -11.75 -34.45 -11.75 -34.35 -11.7 -34.3 -11.7 -34.25 -11.55 -34.15 -11.5 -33.9 -11.4 -33.7 -11.35 -33.65 -11.25 -33.55 -11.25 -33.25 -11.25 -33.2 -11.05 -32.85 -10.85 -32.4 Q-10.3 -30.95 -10.0 -29.4 L-9.95 -29.2 -9.65 -27.9 -9.45 -26.85 -9.45 -26.8 Q-9.4 -24.8 -9.6 -22.9 L-9.65 -21.7 -9.7 -21.7 -9.85 -20.9 -9.9 -20.5 -9.75 -19.75 -9.75 -19.55 -9.45 -18.85 -9.1 -18.05 -9.05 -17.9 -8.75 -17.2 -8.8 -17.2 -9.1 -16.85 -9.15 -16.0 Q-9.2 -15.1 -8.75 -14.35 L-9.8 -14.75 Q-10.2 -14.7 -10.3 -14.3 L-10.2 -14.05 -9.4 -13.6 -9.3 -13.15 -9.25 -13.1 -9.9 -13.45 -10.4 -13.85 Q-11.75 -15.05 -12.3 -16.8 L-12.3 -17.0 -12.25 -22.25 -12.25 -22.65 -12.15 -24.15 -12.15 -24.3 Q-11.9 -26.0 -12.35 -27.65 L-12.55 -28.35 -12.75 -28.95 -13.3 -31.05 -13.4 -31.05 -13.5 -31.15 -13.7 -31.15 -14.0 -31.5 -14.35 -32.05 -14.5 -32.1 -14.65 -32.35 -14.65 -32.65 -15.05 -33.2 -15.15 -33.3 -15.55 -34.25 -15.45 -35.3 -15.4 -35.35 -14.55 -35.8 -14.3 -35.85 -12.95 -35.6 M-5.3 -11.65 Q-5.3 -11.5 -5.4 -11.5 L-5.6 -11.55 -5.3 -11.65 M-6.7 -11.95 L-7.2 -12.15 -7.6 -12.3 -7.4 -12.35 Q-7.0 -12.25 -6.7 -11.95"
         fill="#fefbf5"
         fill-rule="evenodd"
         stroke="none"
         id="path16-2" /><path
         d="M-9.25 -13.1 L-9.3 -13.15 -9.4 -13.6 -10.2 -14.05 -10.3 -14.3 Q-10.2 -14.7 -9.8 -14.75 L-8.75 -14.35 -8.6 -14.15 -7.15 -13.05 -7.05 -12.95 -6.75 -12.85 -5.6 -12.75 -5.5 -12.8 -5.0 -12.1 -5.05 -11.9 -5.3 -11.65 -5.6 -11.55 -6.7 -11.95 Q-7.0 -12.25 -7.4 -12.35 L-7.6 -12.3 -8.05 -12.5 -9.25 -13.1 M-7.6 -12.3 L-7.8 -12.4 -8.05 -12.5 -7.8 -12.4 -7.6 -12.3"
         fill="#fce6a5"
         fill-rule="evenodd"
         stroke="none"
         id="path17-2" /><path
         d="M-8.75 -14.35 Q-9.2 -15.1 -9.15 -16.0 L-9.1 -16.7 -8.8 -17.05 -8.75 -17.05 -8.6 -17.1 -8.5 -17.05 -7.75 -16.1 -7.65 -16.05 -7.65 -16.0 -7.6 -16.0 -7.55 -16.05 -7.35 -16.1 -7.25 -16.05 Q-6.25 -15.75 -6.3 -15.15 L-6.15 -14.9 -5.8 -13.95 -5.4 -13.85 -5.2 -13.55 -5.5 -12.8 -5.6 -12.75 -6.75 -12.85 -7.05 -12.95 -7.15 -13.05 -8.6 -14.15 -8.75 -14.35"
         fill="#3d3d3d"
         fill-rule="evenodd"
         stroke="none"
         id="path18-4" /><path
         d="M-12.95 -35.6 L-14.3 -35.85 -14.55 -35.8 Q-16.1 -35.7 -15.6 -34.45 L-15.55 -34.25 -15.15 -33.3 -14.65 -32.35 -14.5 -32.1 -13.95 -31.4 Q-13.15 -30.25 -12.75 -28.95 L-12.55 -28.35 -12.45 -27.9 Q-12.1 -26.1 -12.15 -24.3 L-12.15 -24.15 -12.25 -22.65 -12.5 -20.8 Q-12.9 -18.9 -12.35 -17.05 L-12.3 -16.8 Q-11.75 -15.05 -10.4 -13.85 L-9.9 -13.45 -9.25 -13.1 M-9.65 -21.7 L-9.6 -22.9 Q-9.4 -24.8 -9.45 -26.8 L-9.45 -26.85 Q-9.5 -28.8 -10.0 -30.55 -10.5 -32.4 -11.4 -34.1 -12.0 -35.2 -12.95 -35.6 M-9.65 -21.7 Q-9.7 -20.35 -9.4 -19.1 -9.15 -18.1 -8.5 -17.2 L-7.75 -16.1 M-5.4 -11.5 L-5.6 -11.55 -6.7 -11.95 -7.2 -12.15 -7.6 -12.3 M-8.05 -12.5 L-9.25 -13.1 M-8.05 -12.5 L-7.8 -12.4 -7.6 -12.3"
         fill="none"
         stroke="#4f1d17"
         stroke-linecap="round"
         stroke-linejoin="round"
         stroke-width="1.0"
         id="path19-7" /><path
         d="M11.65 -29.75 L11.6 -29.85 11.55 -30.0 11.25 -30.75 11.2 -30.85 11.15 -30.95 11.15 -31.0 11.0 -31.45 10.9 -31.95 10.85 -32.0 Q10.7 -32.15 10.8 -32.45 L10.85 -32.7 11.0 -34.4 Q11.3 -35.6 11.85 -36.4 L11.9 -36.45 12.0 -36.6 12.15 -36.75 12.2 -36.8 12.25 -36.85 12.45 -37.05 12.55 -37.15 12.95 -37.4 14.3 -37.6 14.9 -37.8 15.25 -37.8 16.4 -37.4 Q17.05 -36.85 17.2 -35.95 L17.25 -35.55 17.75 -35.35 Q18.55 -34.85 18.7 -34.0 18.85 -33.15 18.25 -32.4 L17.95 -32.05 18.25 -31.2 Q18.4 -30.35 17.85 -29.65 L17.25 -29.15 16.85 -28.9 16.5 -28.8 16.45 -28.8 15.6 -28.8 15.05 -29.0 14.9 -28.85 14.05 -28.5 12.85 -28.7 Q12.15 -29.05 11.65 -29.75"
         fill="#fefbf5"
         fill-rule="evenodd"
         stroke="none"
         id="path20" /><path
         d="M12.95 -37.4 L14.3 -37.6 14.9 -37.8 15.25 -37.8 16.4 -37.4 Q17.05 -36.85 17.2 -35.95 L17.25 -35.55 17.75 -35.35 Q18.55 -34.85 18.7 -34.0 18.85 -33.15 18.25 -32.4 L17.95 -32.05 18.25 -31.2 Q18.4 -30.35 17.85 -29.65 L17.25 -29.15 16.85 -28.9 16.5 -28.8 16.45 -28.8 15.6 -28.8 15.05 -29.0 14.9 -28.85 14.05 -28.5 12.85 -28.7 Q12.15 -29.05 11.65 -29.75"
         fill="none"
         stroke="#4f1d17"
         stroke-linecap="round"
         stroke-linejoin="round"
         stroke-width="1.0"
         id="path21" /></g></defs><g
     transform="matrix(2.1098133,0,0,2.1098133,73.051751,142)"
     id="g3"><use
       height="67.300003"
       transform="translate(-17.4,-67.3)"
       width="35"
       xlink:href="#shape0-97"
       id="use1" /><use
       height="2.5"
       transform="translate(9.9,-53.35)"
       width="6"
       xlink:href="#sprite0-0"
       id="use2" /><use
       height="27.35"
       transform="translate(-16.2,-38.35)"
       width="35.450001"
       xlink:href="#shape2-4"
       id="use3-8" /></g></svg>
