<?xml version="1.0" encoding="UTF-8" standalone="no"?>
<svg
   height="195"
   width="160"
   version="1.1"
   id="svg21"
   sodipodi:docname="back-walking-1.svg"
   inkscape:version="1.3 (0e150ed6c4, 2023-07-21)"
   xmlns:inkscape="http://www.inkscape.org/namespaces/inkscape"
   xmlns:sodipodi="http://sodipodi.sourceforge.net/DTD/sodipodi-0.dtd"
   xmlns:xlink="http://www.w3.org/1999/xlink"
   xmlns="http://www.w3.org/2000/svg"
   xmlns:svg="http://www.w3.org/2000/svg">
  <sodipodi:namedview
     id="namedview21"
     pagecolor="#ffffff"
     bordercolor="#000000"
     borderopacity="0.25"
     inkscape:showpageshadow="2"
     inkscape:pageopacity="0.0"
     inkscape:pagecheckerboard="0"
     inkscape:deskcolor="#d1d1d1"
     inkscape:zoom="6.0564103"
     inkscape:cx="79.997883"
     inkscape:cy="97.5"
     inkscape:window-width="2560"
     inkscape:window-height="1377"
     inkscape:window-x="-8"
     inkscape:window-y="-8"
     inkscape:window-maximized="1"
     inkscape:current-layer="svg21" />
  <defs
     id="defs10">
    <linearGradient
       gradientTransform="matrix(-.0157 -.0091 .0025 -.0044 -107.85 7.65)"
       gradientUnits="userSpaceOnUse"
       id="a"
       spreadMethod="pad"
       x1="-819.2"
       x2="819.2">
      <stop
         offset=".204"
         stop-color="#ccc"
         id="stop1" />
      <stop
         offset=".804"
         stop-color="#e7e7e7"
         id="stop2" />
      <stop
         offset="1"
         stop-color="#fff"
         id="stop3" />
    </linearGradient>
    <linearGradient
       gradientTransform="matrix(.0283 0 0 .0102 -104.45 -.65)"
       gradientUnits="userSpaceOnUse"
       id="b"
       spreadMethod="pad"
       x1="-819.2"
       x2="819.2">
      <stop
         offset=".004"
         stop-color="#fff"
         id="stop4" />
      <stop
         offset=".18"
         stop-color="#d10101"
         id="stop5" />
      <stop
         offset=".557"
         stop-color="#fe3636"
         id="stop6" />
      <stop
         offset=".906"
         stop-color="#fff"
         id="stop7" />
    </linearGradient>
    <linearGradient
       xlink:href="#a"
       id="d"
       gradientUnits="userSpaceOnUse"
       gradientTransform="matrix(-.0157 -.0091 .0025 -.0044 -107.85 7.65)"
       x1="-819.2"
       x2="819.2"
       spreadMethod="pad" />
    <linearGradient
       xlink:href="#b"
       id="e"
       gradientUnits="userSpaceOnUse"
       gradientTransform="matrix(.0283 0 0 .0102 -104.45 -.65)"
       x1="-819.2"
       x2="819.2"
       spreadMethod="pad" />
    <radialGradient
       cx="0"
       cy="0"
       gradientTransform="translate(2.6 -.2) scale(.0086)"
       gradientUnits="userSpaceOnUse"
       id="c"
       r="819.2"
       spreadMethod="pad">
      <stop
         offset=".204"
         stop-color="#ccc"
         id="stop8" />
      <stop
         offset=".757"
         stop-color="#e7e7e7"
         id="stop9" />
      <stop
         offset="1"
         stop-color="#fff"
         id="stop10" />
    </radialGradient>
    <radialGradient
       xlink:href="#c"
       id="f"
       gradientUnits="userSpaceOnUse"
       gradientTransform="translate(2.6 -.2) scale(.0086)"
       cx="0"
       cy="0"
       r="819.2"
       spreadMethod="pad" />
  </defs>
  <g
     transform="matrix(2,0,0,2,79.441,155)"
     id="g21"
     style="display:inline">
    <path
       d="m 4.25,-60 1.2,0.55 3.85,-8.6 3.9,8.6 1.25,-0.55 3.15,3.05 1.1,1.1 -0.35,0.4 0.1,0.1 c 1.4,1.367 2.167,2.883 2.3,4.55 l 0.05,0.6 c 0,1.1 -0.267,2.133 -0.8,3.1 l -0.25,0.45 -1.4,1.7 0.1,0.1 -0.3,0.3 -3.25,0.9 v 4.7 l -3.25,0.7 -3.15,0.9 0.65,1.6 3.35,-1.25 c 1.133,-0.4 2.133,-0.6 3,-0.6 1.033,0 1.75,0.2 2.15,0.6 0.533,0.533 0.8,1.2 0.8,2 0,0.733 -0.25,1.35 -0.75,1.85 -0.7,0.7 -2.067,1.117 -4.1,1.25 l -1.25,0.05 0.35,1.5 1.5,-0.05 -0.05,2.75 -1.5,1.25 v 6.75 H 8.1 v 1.55 h 6.6 c 0.467,0 0.85,0.133 1.15,0.4 0.367,0.367 0.55,0.917 0.55,1.65 0,0.7 -0.183,1.233 -0.55,1.6 -0.3,0.3 -0.683,0.45 -1.15,0.45 H 8.1 v 0.95 H 0.5 l -3.55,3.5 V -3 c 0,0.467 -0.15,0.85 -0.45,1.15 -0.367,0.367 -0.9,0.55 -1.6,0.55 -0.733,0 -1.283,-0.183 -1.65,-0.55 -0.267,-0.3 -0.4,-0.683 -0.4,-1.15 V -9.55 H -8.7 l -1.7,-1.1 -1.75,-3.9 v -3.9 l 0.45,-0.4 c 0.5,-0.4 0.95,-0.917 1.35,-1.55 l -1.25,-1 -0.7,0.95 0.4,-10.95 1.75,-12.8 0.4,0.35 0.75,-0.7 -1,-1.1 c -1,-1.267 -1.5,-2.65 -1.5,-4.15 l 0.05,-1 c 0.233,-1.533 1.05,-2.95 2.45,-4.25 l -0.75,-0.75 0.5,-3.95 0.65,0.3 3.85,-8.6 3.85,8.6 1.25,-0.55 h 3.9"
       fill="#ffffff"
       fill-rule="evenodd"
       id="path10" />
    <path
       d="m 14.45,-60 -1.25,0.55 -3.9,-8.6 -3.85,8.6 L 4.25,-60 8.7220999,-69.2663 14.45,-60 m -14.1,0 -1.25,0.55 -3.85,-8.6 -3.85,8.6 -0.65,-0.3 -0.55,-0.25 5.05,-11 5.1,11 m -10.1,4.2 0.75,0.75 c -1.4,1.3 -2.217,2.717 -2.45,4.25 l -0.05,1 c 0,1.5 0.5,2.883 1.5,4.15 l 1,1.1 -0.75,0.7 -0.4,-0.35 -0.6,-0.7 c -1.2,-1.467 -1.8,-3.1 -1.8,-4.9 l 0.05,-1 c 0.233,-1.867 1.15,-3.533 2.75,-5 m -2.55,35.35 0.7,-0.95 1.25,1 c -0.4,0.633 -0.85,1.15 -1.35,1.55 l -0.45,0.4 c -0.467,0.3 -1,0.45 -1.6,0.45 -0.633,0 -1.517,-0.367 -2.65,-1.1 l -1.9,-0.65 c -0.6,0 -1.033,0.183 -1.3,0.55 l -0.6,0.95 -1.35,-0.75 1.2,-1.65 c 0.511705,-0.524404 1.217438,-0.813936 1.95,-0.8 0.733,0 1.483,0.267 2.25,0.8 1.1,0.567 1.95,0.85 2.55,0.85 0.433,0 0.867,-0.217 1.3,-0.65 m 3.6,10.9 h 1.55 V -3 c 0,0.467 0.133,0.85 0.4,1.15 0.367,0.367 0.917,0.55 1.65,0.55 0.7,0 1.233,-0.183 1.6,-0.55 0.3,-0.3 0.45,-0.683 0.45,-1.15 v -6.55 h 1.5 v 6.6 c 0,0.833 -0.267,1.517 -0.8,2.05 C -2.95,-0.3 -3.867,0 -5.1,0 -6.367,0 -7.3,-0.3 -7.9,-0.9 -8.433,-1.433 -8.7,-2.117 -8.7,-2.95 v -6.6 m 16.8,-3.5 V -14 h 6.6 c 0.467,0 0.85,-0.15 1.15,-0.45 0.367,-0.367 0.55,-0.9 0.55,-1.6 0,-0.733 -0.183,-1.283 -0.55,-1.65 -0.3,-0.267 -0.683,-0.4 -1.15,-0.4 H 8.1 v -1.55 h 6.65 c 0.833,0 1.517,0.267 2.05,0.8 0.6,0.6 0.9,1.533 0.9,2.8 0,1.233 -0.3,2.15 -0.9,2.75 l -0.3,0.25 c -0.5,0.367 -1.083,0.55 -1.75,0.55 H 8.1 v -0.55 m 6.1,-17.35 -1.5,0.05 -0.35,-1.5 1.25,-0.05 c 2.033,-0.133 3.4,-0.55 4.1,-1.25 0.5,-0.5 0.75,-1.117 0.75,-1.85 0,-0.8 -0.267,-1.467 -0.8,-2 -0.4,-0.4 -1.117,-0.6 -2.15,-0.6 -0.867,0 -1.867,0.2 -3,0.6 l -3.35,1.25 -0.65,-1.6 3.15,-0.9 3.25,-0.7 0.75,-0.05 c 1.467,0 2.55,0.35 3.25,1.05 0.733,0.7 1.1,1.65 1.1,2.85 0,1.233 -0.333,2.183 -1,2.85 l -0.4,0.35 c -1.067,0.8 -2.533,1.3 -4.4,1.5 m 4.25,-14.45 -0.1,-0.1 1.4,-1.7 0.25,-0.45 c 0.533,-0.967 0.8,-2 0.8,-3.1 l -0.05,-0.6 c -0.133,-1.667 -0.9,-3.183 -2.3,-4.55 l -0.1,-0.1 0.35,-0.4 h 0.05 l 0.3,-0.35 c 1.7,1.567 2.617,3.367 2.75,5.4 l 0.05,0.6 c 0,1.267 -0.3,2.45 -0.9,3.55 -0.467,0.833 -1.1,1.633 -1.9,2.4 l -0.6,-0.6"
       fill="#000000"
       fill-rule="evenodd"
       id="path11"
       style="display:inline"
       sodipodi:nodetypes="ccccccccccccccccccccccccccccccccsccccccccscccscsssccssssscccssscsccsssccsccccccsssscccccccsccccccccccccccccccc" />
    <path
       d="m 18.7,-55.85 -1.1,-1.1 1.15,1.1 H 18.7"
       fill="#ff0000"
       fill-rule="evenodd"
       id="path12"
       style="display:inline" />
    <path
       d="m 4.25,-60 h -3.9 m 12.3,40.35 v -6.75 m 6.05,-29.45 -1.1,-1.1"
       fill="none"
       stroke="#000000"
       stroke-linecap="round"
       stroke-linejoin="round"
       id="path13"
       style="display:inline" />
    <path
       d="m 14.402,-50.2 -2.002,2 1.852,1.8 M 12.4,-48.2 v -0.05 2.5 m 0,-2.45 -1.852,1.8 m -0.15,-3.8 2.002,1.95 v -2.95"
       fill="none"
       stroke="#fea5c0"
       stroke-linecap="round"
       stroke-linejoin="round"
       style="display:inline;stroke-width:1.0006"
       id="path14" />
    <path
       d="m -122.15,3.55 29.2,4.2 q 0.95,1.6 -0.55,4.05 -14.6,-4 -29.2,-4.25 l 0.5,-4 h 0.05 -0.05 0.05"
       fill="url(#a)"
       fill-rule="evenodd"
       transform="matrix(-1.001,0,0,0.9977,-105.445,-66.35)"
       style="display:inline;fill:url(#d)"
       id="path15" />
    <path
       d="m -122.15,3.55 q 7.55,-9.05 21.65,-12.55 5.75,1.3 13.75,8.8 h -9.2 l 3,7.95 -29.2,-4.2"
       fill="url(#b)"
       fill-rule="evenodd"
       transform="matrix(-1.001,0,0,0.9977,-105.445,-66.35)"
       style="display:inline;fill:url(#e)"
       id="path16" />
    <path
       d="m -122.15,3.55 29.2,4.2 q 0.95,1.6 -0.55,4.05 -14.6,-4 -29.2,-4.25 l 0.5,-4 h 0.05 m 0,0 h -0.05"
       fill="none"
       stroke="#ffffff"
       stroke-linecap="round"
       stroke-linejoin="round"
       transform="matrix(-1.001,0,0,0.9977,-105.445,-66.35)"
       id="path17"
       style="display:inline" />
    <path
       d="m -92.95,7.75 -3,-7.95 h 9.2 q -8,-7.5 -13.75,-8.8 -14.1,3.5 -21.65,12.55 z"
       fill="none"
       stroke="#ff0000"
       stroke-linecap="round"
       stroke-linejoin="round"
       transform="matrix(-1.001,0,0,0.9977,-105.445,-66.35)"
       id="path18"
       style="display:inline" />
    <g
       fill-rule="evenodd"
       id="g20"
       style="display:inline">
      <path
         d="M 4.9,-4.95 Q 7,-2.9 7,0 7,2.9 4.9,4.9 2.9,7 0,7 -2.9,7 -4.95,4.9 -7,2.9 -7,0 -7,-2.9 -4.95,-4.95 -2.9,-7 0,-7 q 2.9,0 4.9,2.05"
         fill="url(#c)"
         transform="matrix(-1.001,0,0,0.9977,-19.76,-68.993)"
         style="fill:url(#f)"
         id="path19" />
      <path
         d="m -20.21,-76.476 q -0.5,-0.2 -0.8,0.3 -0.301,0.498 0.15,0.747 l 0.6,-0.05 h 0.1 q 0.45,0.3 0.75,-0.249 0.301,-0.598 -0.15,-0.748 l -0.5,0.05 -0.15,-0.05 m -1.351,0.15 q -0.5,-0.25 -0.851,0.349 -0.3,0.598 0.15,0.898 0.4,0.299 0.8,-0.35 0.351,-0.648 -0.1,-0.897 m -1.551,0.848 q -0.45,-0.35 -0.8,0.2 -0.401,0.498 0.15,0.797 0.55,0.3 0.8,-0.2 0.3,-0.498 -0.15,-0.797 m -3.904,3.292 q -0.25,0.499 0.2,0.698 0.45,0.3 0.751,-0.249 0.3,-0.599 -0.15,-0.748 -0.45,-0.15 -0.8,0.299 m 2.151,-1.097 q 0.3,-0.55 -0.2,-0.849 -0.45,-0.349 -0.85,0.25 -0.351,0.499 0.2,0.848 0.6,0.35 0.85,-0.25 m -1.401,3.443 q 0.35,-0.599 -0.1,-0.848 -0.45,-0.3 -0.751,0.299 -0.35,0.549 0.05,0.898 0.45,0.25 0.8,-0.35 m 0.251,2.345 q 0.35,-0.648 -0.25,-1.097 -0.55,-0.4 -1.051,0.299 -0.5,0.649 0.25,1.048 0.7,0.399 1.051,-0.25 m -0.65,0.798 q -0.2,0.35 0.15,0.55 0.3,0.199 0.45,-0.15 0.2,-0.3 -0.1,-0.5 l -0.5,0.1 m 1.601,1.397 q -0.55,-0.2 -0.8,0.3 -0.351,0.498 0.15,0.748 0.45,0.299 0.8,-0.3 0.3,-0.598 -0.15,-0.748 m 3.754,3.542 q 0.55,0.3 0.85,-0.2 0.2,-0.548 -0.2,-0.848 -0.5,-0.299 -0.85,0.2 -0.35,0.499 0.2,0.848 m -1.902,-0.35 q 0.65,0.4 0.95,-0.199 0.351,-0.598 -0.2,-0.997 -0.5,-0.35 -0.95,0.249 -0.45,0.648 0.2,0.948 m -0.65,-1.247 q 0.2,-0.35 -0.05,-0.55 -0.301,-0.149 -0.501,0.2 -0.2,0.35 0.1,0.55 0.25,0.149 0.45,-0.2 m 5.906,-12.073 q 0.3,0.2 0.5,-0.1 l -0.15,-0.548 -0.45,0.15 q -0.25,0.299 0.1,0.498 m 1.652,0.749 q 0.5,0.3 0.8,-0.2 0.25,-0.449 -0.15,-0.798 -0.45,-0.25 -0.8,0.2 -0.4,0.498 0.15,0.798 m 0.65,0.399 q -0.35,0.598 0.15,0.948 0.451,0.349 0.801,-0.35 0.4,-0.648 -0.1,-0.947 -0.45,-0.25 -0.85,0.349 m 1.4,1.596 q 0.301,0.2 0.501,-0.2 0.15,-0.398 -0.1,-0.448 -0.35,-0.1 -0.5,0.2 -0.2,0.249 0.1,0.448 m 0.65,1.148 q -0.45,0.648 0.25,0.997 0.701,0.4 1.002,-0.25 0.3,-0.648 -0.25,-0.997 -0.551,-0.35 -1.001,0.25 m 0.35,1.646 q -0.45,0.598 0.2,0.948 0.6,0.349 0.951,-0.2 0.3,-0.599 -0.2,-0.998 -0.55,-0.349 -0.951,0.25 m 0.8,2.594 q 0.351,-0.649 -0.1,-0.948 -0.5,-0.25 -0.85,0.35 -0.3,0.598 0.15,0.947 0.4,0.25 0.8,-0.35 m -2.452,2.445 q -0.35,0.549 0.2,0.848 0.551,0.3 0.851,-0.2 0.2,-0.548 -0.2,-0.847 -0.5,-0.3 -0.85,0.2 m 0.7,-0.45 q 0.6,0.35 0.95,-0.399 0.401,-0.748 -0.2,-0.948 -0.6,-0.2 -0.95,0.4 -0.4,0.548 0.2,0.947 m -1.051,1.347 q -0.6,-0.449 -1.101,0.25 -0.5,0.698 0.2,1.147 0.75,0.399 1.101,-0.3 0.4,-0.648 -0.2,-1.097 m -4.104,2.245 q 0.3,0.15 0.45,-0.2 0.2,-0.349 -0.1,-0.399 -0.25,-0.15 -0.45,0.15 -0.2,0.25 0.1,0.449 m 2.002,0 q 0.45,0.25 0.75,-0.3 0.35,-0.598 -0.05,-0.848 -0.45,-0.249 -0.8,0.3 -0.3,0.549 0.1,0.848"
         fill="#ffffff"
         id="path20" />
    </g>
    <path
       d="m 15.595,-56.7 h 0.201 l 0.554,0.1 0.453,0.35 q 0.453,0.45 0.453,1 l -0.453,1.15 q -0.453,0.4 -1.006,0.4 l -0.805,-0.2 -0.252,-0.2 -0.452,-0.7 v -0.15 l -0.051,-0.3 v -0.1 q 0.05,-0.5 0.503,-0.9 l 0.252,-0.2 q 0.251,-0.2 0.553,-0.25 h 0.05 m 0.453,0.85 -0.251,-0.05 q -0.352,-0.05 -0.554,0.2 -0.201,0.15 -0.201,0.45 v 0.15 l 0.151,0.45 h 0.05 l 0.05,0.05 0.202,0.1 0.302,0.05 0.553,-0.2 0.151,-0.6 -0.05,-0.3 -0.101,-0.15 -0.05,-0.05 -0.151,-0.1 h -0.101"
       fill-rule="evenodd"
       id="gikopoipoi_eyes_open"
       style="display:inline;stroke-width:1.0031" />
    <path
       d="m 14.175,-55.15 h 3.15"
       stroke-width="1.5"
       id="gikopoipoi_eyes_closed"
       style="display:none"
       fill="none"
       stroke="#000000"
       stroke-linecap="round"
       stroke-linejoin="round" />
  </g>
  <path
     d="m 116.7888,78.274379 -5.84,-2.24 -4.24,1.28 -0.88,3.04 -1.52,2.16 -3.92,1.68 -4.479999,0.96 -3.84,0.72 -6.72,1.28 -6.24,4.079999 -4.88,5.12 -5.04,3.6 -5.92,2.640002 -5.36,-0.64 -2.48,-2.880002 -1.52,-3.52 -1.04,-3.28 3.12,-3.52 3.04,-0.48 -0.16,-3.599999 -0.72,-3.04 2.96,-2.32 -0.96,-2.08 0.88,-4.72 -0.88,-3.44 1.52,-1.68 20,0.16 6.56,-0.16 6.8,-0.16 11.439999,-0.16 7.6,-0.32 h 3.52 l 0.56,2.32 -1.04,2.08 v 1.92 l 1.04,2 0.16,2.16 z"
     fill="#c90000"
     id="path4"
     style="display:inline" />
  <path
     d="m 106.7628,77.714379 c 0,0 0.48,6.08 -11.119999,7.12 m -11.12,-10.16 c 0,0 -7.92,-0.56 -10.56,2 0,0 -5.04,2.32 -9.76,8.24 0,0 -3.627,4.959999 -12.88,3.199999 m 31.946,-16.399999 c 0,0 -9.04,-1.2 -14.16,3.04 0,0 -7.92,7.28 -12.64,6.08"
     fill="none"
     stroke="#000000"
     stroke-width="2.1"
     stroke-linecap="butt"
     stroke-miterlimit="1.5"
     id="path5"
     style="display:inline" />
  <path
     d="m 55.412801,83.812379 c -0.194,-0.353 -0.35,-0.153 -0.37,0.091 a 0.628,0.628 0 0 0 0.575,0.678 l 0.051,0.002 c 0,0 0.384,0.102 0.92,0.194 0.297,0.051 0.633,0.116 0.975,0.139 0.989,0.066 1.974,-0.015 1.974,-0.015 a 0.63,0.63 0 0 0 0.102,-1.253 c 0,0 -0.959,-0.24 -1.945,-0.335 -0.342,-0.033 -0.684,-0.023 -0.985,-0.021 -0.407,0.002 -0.733,0.024 -0.891,0.031 -0.343,0.014 -0.426,0.236 -0.406,0.489 z m -4.626,8.604999 c 0,0 0.507,0.133 1.205,0.276 0.369,0.075 0.787,0.168 1.213,0.219 1.228,0.146 2.462,0.145 2.462,0.145 a 0.6283733,0.6283733 0 1 0 0.164,-1.246 c 0,0 -1.193,-0.319 -2.417,-0.494 -0.424,-0.061 -0.852,-0.079 -1.228,-0.102 a 24.856,24.856 0 0 0 -1.235,-0.044 0.63,0.63 0 0 0 -0.164,1.246 z m 1.132,2.91 c -0.188,-0.376 -0.358,-0.184 -0.392,0.06 a 0.628,0.628 0 0 0 0.535,0.71 l 0.087,0.006 c 0,0 0.373,0.129 0.897,0.249 0.301,0.069 0.643,0.155 0.992,0.199 1.009,0.126 2.024,0.106 2.024,0.106 a 0.63,0.63 0 0 0 0.174,-1.245 c 0,0 -0.97,-0.299 -1.975,-0.454 -0.348,-0.054 -0.699,-0.065 -1.008,-0.082 -0.417,-0.022 -0.753,-0.02 -0.915,-0.023 -0.347,-0.007 -0.434,0.215 -0.419,0.474 z m 0.992,3.222 c -0.201,-0.341 -0.345,-0.132 -0.35,0.113 a 0.629,0.629 0 0 0 0.616,0.641 h 0.012 c 0,0 0.423,0.075 1.006,0.136 0.31,0.033 0.663,0.077 1.018,0.079 1.028,0.006 2.044,-0.135 2.044,-0.135 a 0.63,0.63 0 0 0 0.025,-1.257 c 0,0 -1.01,-0.181 -2.037,-0.216 -0.355,-0.012 -0.709,0.019 -1.021,0.039 -0.421,0.028 -0.757,0.07 -0.92,0.086 -0.344,0.034 -0.421,0.261 -0.393,0.514 z"
     id="path6"
     style="display:inline" />
  <path
     d="m 61.028801,67.394379 c 0,0 -2.48,2.72 0.24,4.72 0,0 -2.64,4.56 -1.28,6.64 0,0 2.16,0.32 4.16,-0.24"
     fill="none"
     stroke="#000000"
     stroke-width="2.1"
     stroke-linecap="butt"
     stroke-miterlimit="1.5"
     id="path7"
     style="display:inline" />
  <path
     d="m 60.296801,67.794379 c 0,0 26.603,-0.16 57.039999,-1.44 0,0 1.877,1.84 -0.763,5.44 0,0 2.96,3.12 1.04,6.56 0,0 -4.72,-3.36 -10.96,-1.04 0,0 -0.08,-8.24 -14.079999,-9.28 0,0 -6.64,-0.64 -9.44,3.76 l 1.12,2.8 c 0,0 1.28,-1.28 3.44,-1.04 2.16,0.24 7.014,3.054 7.92,5.04 0.907,1.987 2.8,6.88 -2.16,6.8 0,0 -9.6,0 -15.76,6.959999 0,0 -10.028,13.360002 -20.64,9.120002"
     fill="none"
     stroke="#000000"
     stroke-width="2.1"
     stroke-linecap="butt"
     stroke-miterlimit="1.5"
     id="path8"
     style="display:inline" />
</svg>
