<?xml version="1.0" encoding="UTF-8" standalone="no"?>
<svg
   height="195"
   width="160"
   version="1.1"
   id="svg20"
   sodipodi:docname="back-walking-2.svg"
   inkscape:version="1.3 (0e150ed6c4, 2023-07-21)"
   xmlns:inkscape="http://www.inkscape.org/namespaces/inkscape"
   xmlns:sodipodi="http://sodipodi.sourceforge.net/DTD/sodipodi-0.dtd"
   xmlns:xlink="http://www.w3.org/1999/xlink"
   xmlns="http://www.w3.org/2000/svg"
   xmlns:svg="http://www.w3.org/2000/svg">
  <sodipodi:namedview
     id="namedview20"
     pagecolor="#909090"
     bordercolor="#000000"
     borderopacity="0.25"
     inkscape:showpageshadow="2"
     inkscape:pageopacity="0.0"
     inkscape:pagecheckerboard="0"
     inkscape:deskcolor="#d1d1d1"
     inkscape:zoom="6.0564103"
     inkscape:cx="79.997883"
     inkscape:cy="97.499999"
     inkscape:window-width="2560"
     inkscape:window-height="1377"
     inkscape:window-x="-8"
     inkscape:window-y="-8"
     inkscape:window-maximized="1"
     inkscape:current-layer="svg20" />
  <defs
     id="defs10">
    <linearGradient
       gradientTransform="matrix(-.0157 -.0091 .0025 -.0044 -107.85 7.65)"
       gradientUnits="userSpaceOnUse"
       id="a"
       spreadMethod="pad"
       x1="-819.2"
       x2="819.2">
      <stop
         offset=".204"
         stop-color="#ccc"
         id="stop1" />
      <stop
         offset=".804"
         stop-color="#e7e7e7"
         id="stop2" />
      <stop
         offset="1"
         stop-color="#fff"
         id="stop3" />
    </linearGradient>
    <linearGradient
       gradientTransform="matrix(.0283 0 0 .0102 -104.45 -.65)"
       gradientUnits="userSpaceOnUse"
       id="b"
       spreadMethod="pad"
       x1="-819.2"
       x2="819.2">
      <stop
         offset=".004"
         stop-color="#fff"
         id="stop4" />
      <stop
         offset=".18"
         stop-color="#d10101"
         id="stop5" />
      <stop
         offset=".557"
         stop-color="#fe3636"
         id="stop6" />
      <stop
         offset=".906"
         stop-color="#fff"
         id="stop7" />
    </linearGradient>
    <linearGradient
       xlink:href="#a"
       id="d"
       gradientUnits="userSpaceOnUse"
       gradientTransform="matrix(-.0157 -.0091 .0025 -.0044 -107.85 7.65)"
       x1="-819.2"
       x2="819.2"
       spreadMethod="pad" />
    <linearGradient
       xlink:href="#b"
       id="e"
       gradientUnits="userSpaceOnUse"
       gradientTransform="matrix(.0283 0 0 .0102 -104.45 -.65)"
       x1="-819.2"
       x2="819.2"
       spreadMethod="pad" />
    <radialGradient
       cx="0"
       cy="0"
       gradientTransform="translate(2.6 -.2) scale(.0086)"
       gradientUnits="userSpaceOnUse"
       id="c"
       r="819.2"
       spreadMethod="pad">
      <stop
         offset=".204"
         stop-color="#ccc"
         id="stop8" />
      <stop
         offset=".757"
         stop-color="#e7e7e7"
         id="stop9" />
      <stop
         offset="1"
         stop-color="#fff"
         id="stop10" />
    </radialGradient>
    <radialGradient
       xlink:href="#c"
       id="f"
       gradientUnits="userSpaceOnUse"
       gradientTransform="translate(2.6 -.2) scale(.0086)"
       cx="0"
       cy="0"
       r="819.2"
       spreadMethod="pad" />
  </defs>
  <path
     d="m 87.94,35 2.4,1.1 7.7,-17.2 7.8,17.2 2.5,-1.1 6.3,6.1 2.2,2.2 -0.7,0.8 0.2,0.2 c 2.8,2.733 4.334,5.767 4.6,9.1 l 0.1,1.2 c 0,2.2 -0.533,4.267 -1.6,6.2 l -0.5,0.9 -2.8,3.4 0.2,0.2 -0.6,0.6 -6.5,1.8 v 9.4 l -6.5,1.4 -6.3,1.8 1.3,3.2 6.7,-2.5 c 2.267,-0.8 4.267,-1.2 6,-1.2 2.067,0 3.5,0.4 4.3,1.2 1.067,1.067 1.6,2.4 1.6,4 0,1.467 -0.5,2.7 -1.5,3.7 -1.4,1.4 -4.133,2.234 -8.2,2.5 l -2.5,0.1 0.7,3 3,-0.1 -0.1,5.5 -3,2.5 v 24.5 l -1.7,9.2 h -3.1 V 149 c 0,0.934 -0.3,1.701 -0.9,2.301 -0.733,0.733 -1.8,1.1 -3.2,1.1 -1.467,0 -2.567,-0.367 -3.3,-1.1 -0.533,-0.6 -0.8,-1.367 -0.8,-2.3 v -13.1 h -3.1 l -4.7,-7 h -3.5 l -2.3,-1 h -16.5 l -6.5,-6.5 V 118 l 0.9,-0.8 2.7,-3 v -0.1 l -2.5,-2 -1.4,1.9 0.8,-21.8 3.5,-25.6 0.8,0.7 1.5,-1.4 -2,-2.2 c -2,-2.534 -3,-5.301 -3,-8.301 l 0.1,-2 c 0.466,-3.067 2.1,-5.9 4.9,-8.5 l -1.5,-1.5 1,-7.9 1.3,0.6 7.7,-17.2 7.7,17.2 2.5,-1.1 h 7.8"
     fill="#ffffff"
     fill-rule="evenodd"
     id="path10"
     style="display:inline" />
  <path
     d="m 108.34,35 -2.5,1.1 -7.8,-17.2 -7.7,17.2 L 87.94,35 95.893514,16.137172 108.34,35 m -28.2,0 -2.5,1.1 -7.7,-17.2 -7.7,17.2 -1.3,-0.6 -1.1,-0.5 10.1,-22 10.2,22 m -20.2,8.4 1.5,1.5 c -2.8,2.6 -4.434,5.433 -4.9,8.5 l -0.1,2 c 0,3 1,5.767 3,8.3 l 2,2.2 -1.5,1.4 -0.8,-0.7 -1.2,-1.4 c -2.4,-2.933 -3.6,-6.2 -3.6,-9.8 l 0.1,-2 c 0.466,-3.733 2.3,-7.067 5.5,-10 m -5.1,70.6 1.4,-1.9 2.5,2 v 0.1 l -2.7,3 -0.9,0.8 v 0.1 c -0.934,0.6 -2,0.9 -3.2,0.9 -1.267,0 -3.034,-0.733 -5.3,-2.2 l -3.8,-1.3 c -1.2,0 -2.067,0.367 -2.6,1.1 l -1.2,1.9 -2.7,-1.5 v -0.1 l 2.4,-3.3 c 1.066,-1.066 2.366,-1.6 3.9,-1.6 1.466,0 2.966,0.534 4.5,1.6 2.2,1.134 3.9,1.7 5.1,1.7 0.866,0 1.733,-0.433 2.6,-1.3 m 33.8,21.9 h 3.1 V 149 c 0,0.934 0.267,1.701 0.8,2.301 0.733,0.733 1.833,1.1 3.3,1.1 1.4,0 2.467,-0.367 3.2,-1.1 0.6,-0.6 0.9,-1.367 0.9,-2.3 v -13.1 h 3.1 v 13.2 c 0,1.667 -0.533,3.033 -1.6,4.1 -1.266,1.2 -3.133,1.8 -5.6,1.8 -2.533,0 -4.4,-0.6 -5.6,-1.8 -1.067,-1.067 -1.6,-2.433 -1.6,-4.1 v -13.2 m 19.2,-41.7 -3,0.1 -0.7,-3 2.5,-0.1 c 4.067,-0.267 6.8,-1.1 8.2,-2.5 1,-1 1.5,-2.234 1.5,-3.7 0,-1.6 -0.533,-2.934 -1.6,-4 -0.8,-0.8 -2.233,-1.2 -4.3,-1.2 -1.733,0 -3.733,0.4 -6,1.2 l -6.7,2.5 -1.3,-3.2 6.3,-1.8 6.5,-1.4 1.5,-0.1 c 2.934,0 5.1,0.7 6.5,2.1 1.467,1.4 2.2,3.3 2.2,5.7 0,2.466 -0.666,4.366 -2,5.7 l -0.8,0.7 c -2.133,1.6 -5.066,2.6 -8.8,3 m 8.5,-28.9 -0.2,-0.2 2.8,-3.4 0.5,-0.9 c 1.05688,-1.895348 1.60791,-4.030912 1.6,-6.201 l -0.1,-1.2 c -0.266,-3.333 -1.8,-6.367 -4.6,-9.1 l -0.2,-0.2 0.7,-0.8 h 0.1 l 0.6,-0.7 c 3.4,3.133 5.234,6.733 5.5,10.8 l 0.1,1.2 c 0,2.533 -0.6,4.9 -1.8,7.1 -0.933,1.667 -2.2,3.267 -3.8,4.8 l -1.2,-1.2"
     fill="#000000"
     fill-rule="evenodd"
     id="path11"
     style="display:inline"
     sodipodi:nodetypes="ccccccccccccccccccccccccccccccccccscccccccscscccscsssccscssscccccsscscccccccsccccccccccccccccccc" />
  <path
     d="m116.84 43.3-2.2-2.2 2.3 2.2h-.1"
     fill="red"
     fill-rule="evenodd"
     id="path12" />
  <path
     d="M87.94 35h-7.8m24.6 91.7v-24.5m12.1-58.9-2.2-2.2"
     fill="none"
     stroke="#000"
     stroke-linecap="round"
     stroke-linejoin="round"
     stroke-width="2"
     id="path13" />
  <path
     d="m14.402-50.2-2.002 2 1.852 1.8M12.4-48.2v-.05 2.5m0-2.45-1.852 1.8m-.15-3.8 2.002 1.95v-2.95"
     fill="none"
     stroke="#fea5c0"
     stroke-linecap="round"
     stroke-linejoin="round"
     style="stroke-width:1.0006"
     transform="translate(79.44 155.001) scale(2.00002)"
     id="path14" />
  <path
     d="m-122.15 3.55 29.2 4.2q.95 1.6-.55 4.05-14.6-4-29.2-4.25l.5-4h.05-.05.05"
     fill="url(#a)"
     fill-rule="evenodd"
     transform="matrix(-2.002 0 0 1.9954 -131.453 22.3)"
     style="fill:url(#d)"
     id="path15" />
  <path
     d="M-122.15 3.55Q-114.6-5.5-100.5-9q5.75 1.3 13.75 8.8h-9.2l3 7.95-29.2-4.2"
     fill="url(#b)"
     fill-rule="evenodd"
     transform="matrix(-2.002 0 0 1.9954 -131.453 22.3)"
     style="fill:url(#e)"
     id="path16" />
  <path
     d="m-122.15 3.55 29.2 4.2q.95 1.6-.55 4.05-14.6-4-29.2-4.25l.5-4h.05m0 0h-.05"
     fill="none"
     stroke="#fff"
     stroke-linecap="round"
     stroke-linejoin="round"
     transform="matrix(-2.002 0 0 1.9954 -131.453 22.3)"
     id="path17" />
  <path
     d="m-92.95 7.75-3-7.95h9.2q-8-7.5-13.75-8.8-14.1 3.5-21.65 12.55z"
     fill="none"
     stroke="red"
     stroke-linecap="round"
     stroke-linejoin="round"
     transform="matrix(-2.002 0 0 1.9954 -131.453 22.3)"
     id="path18" />
  <g
     fill-rule="evenodd"
     id="g20"
     style="display:inline">
    <path
       d="M 4.9,-4.95 Q 7,-2.9 7,0 7,2.9 4.9,4.9 2.9,7 0,7 -2.9,7 -4.95,4.9 -7,2.9 -7,0 -7,-2.9 -4.95,-4.95 -2.9,-7 0,-7 q 2.9,0 4.9,2.05"
       fill="url(#c)"
       transform="matrix(-2.002,0,0,1.9954,39.92,17.013)"
       style="fill:url(#f)"
       id="path19" />
    <path
       d="m 39.02,2.047 q -1.002,-0.399 -1.602,0.599 -0.6,0.998 0.3,1.496 l 1.201,-0.1 h 0.2 q 0.902,0.6 1.502,-0.498 0.6,-1.197 -0.3,-1.497 l -1.001,0.1 -0.3,-0.1 m -2.703,0.3 q -1.001,-0.5 -1.702,0.698 -0.6,1.197 0.3,1.796 0.801,0.598 1.602,-0.699 0.7,-1.297 -0.2,-1.795 m -3.103,1.696 q -0.901,-0.699 -1.602,0.399 -0.8,0.997 0.3,1.596 1.101,0.599 1.602,-0.399 0.6,-0.998 -0.3,-1.596 m -7.808,6.585 q -0.5,0.997 0.4,1.396 0.901,0.599 1.502,-0.499 0.6,-1.197 -0.3,-1.496 -0.902,-0.3 -1.602,0.599 M 29.71,8.433 q 0.6,-1.098 -0.4,-1.697 -0.901,-0.698 -1.702,0.5 -0.7,0.997 0.4,1.695 1.202,0.699 1.702,-0.498 m -2.803,6.884 q 0.701,-1.197 -0.2,-1.696 -0.9,-0.599 -1.501,0.598 -0.701,1.098 0.1,1.796 0.9,0.499 1.601,-0.698 m 0.5,4.689 q 0.701,-1.297 -0.5,-2.195 -1.1,-0.798 -2.102,0.599 -1,1.297 0.5,2.095 1.402,0.798 2.103,-0.499 m -1.302,1.596 q -0.4,0.699 0.3,1.098 0.601,0.399 0.902,-0.3 0.4,-0.598 -0.2,-0.997 l -1.002,0.2 m 3.204,2.793 q -1.101,-0.4 -1.602,0.599 -0.7,0.997 0.3,1.496 0.901,0.599 1.602,-0.598 0.6,-1.198 -0.3,-1.497 m 7.507,7.084 q 1.101,0.598 1.702,-0.4 0.4,-1.097 -0.4,-1.696 -1.001,-0.598 -1.702,0.4 -0.7,0.997 0.4,1.696 m -3.804,-0.699 q 1.302,0.798 1.902,-0.399 0.701,-1.197 -0.4,-1.995 -1.001,-0.699 -1.902,0.499 -0.9,1.297 0.4,1.895 m -1.3,-2.494 q 0.4,-0.698 -0.101,-1.097 -0.6,-0.3 -1.001,0.399 -0.4,0.698 0.2,1.097 0.5,0.3 0.901,-0.399 M 43.524,4.142 q 0.6,0.4 1.001,-0.2 l -0.3,-1.097 -0.901,0.3 q -0.5,0.598 0.2,0.997 m 3.303,1.497 q 1.001,0.599 1.602,-0.4 0.5,-0.897 -0.3,-1.595 -0.901,-0.5 -1.602,0.399 -0.8,0.997 0.3,1.596 m 1.302,0.798 q -0.701,1.197 0.3,1.896 0.9,0.698 1.602,-0.699 0.8,-1.297 -0.2,-1.895 -0.902,-0.5 -1.702,0.698 m 2.803,3.193 q 0.6,0.399 1,-0.4 0.3,-0.797 -0.2,-0.897 -0.7,-0.2 -1,0.399 -0.401,0.499 0.2,0.898 m 1.3,2.295 q -0.9,1.297 0.501,1.995 1.402,0.798 2.002,-0.499 0.601,-1.297 -0.5,-1.995 -1.101,-0.699 -2.002,0.499 m 0.7,3.292 q -0.9,1.197 0.4,1.896 1.202,0.698 1.903,-0.4 0.6,-1.197 -0.4,-1.995 -1.102,-0.698 -1.902,0.499 m 1.601,5.188 q 0.7,-1.297 -0.2,-1.896 -1.001,-0.498 -1.702,0.699 -0.6,1.197 0.3,1.896 0.801,0.498 1.602,-0.699 m -4.905,4.889 q -0.7,1.097 0.4,1.696 1.102,0.599 1.702,-0.4 0.4,-1.097 -0.4,-1.695 -1.001,-0.599 -1.702,0.399 m 1.402,-0.898 q 1.2,0.698 1.902,-0.798 0.8,-1.497 -0.4,-1.896 -1.202,-0.399 -1.903,0.798 -0.8,1.098 0.4,1.896 M 48.93,27.09 q -1.2,-0.898 -2.202,0.499 -1,1.396 0.4,2.294 1.502,0.799 2.203,-0.598 0.8,-1.297 -0.4,-2.195 m -8.209,4.49 q 0.6,0.299 0.901,-0.4 0.4,-0.698 -0.2,-0.798 -0.5,-0.3 -0.901,0.3 -0.4,0.498 0.2,0.897 m 4.004,0 q 0.901,0.5 1.502,-0.598 0.7,-1.197 -0.1,-1.696 -0.901,-0.5 -1.602,0.598 -0.6,1.098 0.2,1.696"
       fill="#ffffff"
       id="path20" />
  </g>
  <path
     d="m 110.632,41.6 h 0.402 l 1.107,0.2 0.906,0.7 q 0.905,0.9 0.905,2 l -0.905,2.3 q -0.906,0.8 -2.013,0.8 l -1.61,-0.4 -0.503,-0.4 -0.905,-1.4 v -0.3 l -0.101,-0.6 v -0.2 q 0.1,-1 1.006,-1.8 l 0.503,-0.4 q 0.503,-0.4 1.107,-0.5 h 0.1 m 0.906,1.7 -0.503,-0.1 q -0.704,-0.1 -1.107,0.4 -0.402,0.3 -0.402,0.9 v 0.3 l 0.302,0.9 h 0.1 l 0.101,0.1 0.402,0.2 0.604,0.1 1.107,-0.4 0.302,-1.2 -0.1,-0.6 -0.202,-0.3 -0.1,-0.1 -0.302,-0.2 h -0.202"
     fill-rule="evenodd"
     id="gikopoipoi_eyes_open"
     style="display:inline;stroke-width:2.00619" />
  <path
     d="m 107.791,44.7 h 6.3"
     stroke-width="3"
     id="gikopoipoi_eyes_closed"
     style="display:none"
     fill="none"
     stroke="#000000"
     stroke-linecap="round"
     stroke-linejoin="round" />
  <path
     d="m 59.524569,67.793835 30.667,-0.667 25.667001,-0.778 0.333,2.889 -0.778,2.333 0.889,3.111 -0.111,3 -1.556,0.445 c 0,0 -1.444,-2.222 -9.222,-1 l -3.333,5.332999 -5.111001,1.445 -3.223,1.222 -6.333,0.222 -4.889,2.111 -5.444,3.111 -6.889,2 -6.667,0.445 -6.444,-1 -4.111,-3 -2.223,-2.778 1.667,-2.667 2.445,-2.554999 2,-2.334 1.444,-1.444 1,-4.667 -0.778,-3.333 z"
     fill="#c90000"
     id="path4"
     style="display:inline" />
  <path
     d="m 62.230569,73.425835 -0.001,-0.029 c -0.003,-0.037 0.009,-0.069 -0.003,-0.069 -0.142,0.005 -0.098,0.048 0.004,0.098 0.006,0.132 10e-4,0.35 0.057,0.641 0.028,0.149 0.063,0.307 0.136,0.453 0.073,0.148 0.18,0.268 0.279,0.384 0.204,0.241 0.381,0.386 0.471,0.476 0.27,0.269 0.462,0.311 0.462,0.311 -0.302,-0.033 -0.032,0.063 0.194,-0.044 a 0.453,0.453 0 0 0 0.216,-0.603 l -0.003,0.004 a 0.703,0.703 0 0 0 -0.004,-0.078 c -0.012,-0.126 -0.013,-0.355 -0.07,-0.665 -0.027,-0.151 -0.052,-0.309 -0.12,-0.46 a 1.726,1.726 0 0 0 -0.264,-0.392 c -0.205,-0.245 -0.388,-0.383 -0.482,-0.47 -0.158,-0.147 -0.265,-0.074 -0.336,0.063 0.034,-0.375 -0.157,-0.408 -0.325,-0.329 a 0.454,0.454 0 0 0 -0.215,0.604 l 0.409,0.259 c 0,0 -0.261,-0.083 -0.405,-0.154 z m -11.204,8.602 c 0,0 0.146,0.545999 0.44,1.236999 0.107,0.252 0.228,0.52 0.384,0.771 0.156,0.251 0.345,0.476 0.52,0.687 0.476,0.576 0.878,0.972 0.878,0.972 a 0.45319008,0.45319008 0 0 0 0.775,-0.47 c 0,0 -0.165,-0.539 -0.455,-1.228 -0.107,-0.252 -0.218,-0.524 -0.369,-0.779 a 5.63,5.63 0 0 0 -0.506,-0.696 10.295,10.295 0 0 0 -0.892,-0.962999 0.453,0.453 0 1 0 -0.775,0.469 z"
     id="path5"
     style="display:inline" />
  <path
     d="m 82.969569,70.570835 c 0,0 -5.112,-2.222 -10.445,0.778 0,0 -3.444,2.333 -7.333,1.444"
     fill="none"
     stroke="#000000"
     stroke-width="2.1"
     stroke-linecap="butt"
     stroke-miterlimit="1.5"
     id="path6"
     style="display:inline" />
  <path
     d="m 53.780569,79.982835 c 0,0 0.111,0.62 0.36,1.411 0.09,0.29 0.195,0.6 0.335,0.896999 0.14,0.297 0.317,0.572 0.48,0.829 0.442,0.698 0.825,1.197 0.825,1.197 a 0.45279245,0.45279245 0 1 0 0.822,-0.38 c 0,0 -0.13,-0.615 -0.375,-1.404 -0.09,-0.29 -0.185,-0.602999 -0.32,-0.902999 a 6.951,6.951 0 0 0 -0.465,-0.837 c -0.441,-0.702 -0.84,-1.189 -0.84,-1.189 a 0.453,0.453 0 1 0 -0.822,0.379 z m 2.13,-1.962 c 0,0 0.116,0.512 0.372,1.166 0.092,0.237 0.198,0.489 0.338,0.725 0.141,0.237 0.315,0.447 0.476,0.644 0.441,0.542 0.814,0.909 0.814,0.909 a 0.454,0.454 0 0 0 0.784,-0.455 c 0,0 -0.135,-0.506 -0.386,-1.157 -0.092,-0.238 -0.188,-0.493 -0.324,-0.733 a 4.782,4.782 0 0 0 -0.462,-0.653 c -0.441,-0.546 -0.828,-0.901 -0.828,-0.901 a 0.45323311,0.45323311 0 0 0 -0.784,0.455 z"
     id="path7"
     style="display:inline" />
  <path
     d="m 105.18157,77.595835 c 0,0 0.48,6.079999 -11.120001,7.119999 m -34.614,-17.439999 c 0,0 -2.48,2.72 0.24,4.72 0,0 -2.084,3.894 -0.724,5.974 0,0 2.06,1.17 4.571,1.645 2.126,0.403 4.672,0.149 5.59,-0.108 2,-0.56 5.141,-4.904 13.548,-5.031"
     fill="none"
     stroke="#000000"
     stroke-width="2.1"
     stroke-linecap="butt"
     stroke-miterlimit="1.5"
     id="path8"
     style="display:inline" />
  <path
     d="m 58.715569,67.675835 c 0,0 26.603,-0.16 57.040001,-1.44 0,0 1.877,1.84 -0.763,5.44 0,0 2.96,3.12 1.04,6.56 0,0 -4.72,-3.36 -10.96,-1.04 0,0 -0.08,-8.24 -14.080001,-9.28 0,0 -6.64,-0.64 -9.44,3.76 l 1.12,2.8 c 0,0 1.28,-1.28 3.44,-1.04 2.16,0.24 7.014,3.054 7.92,5.04 0.907,1.987 2.8,6.879999 -2.16,6.799999 0,0 -5.053,-1.042 -10.94,2.777 -4.822,3.128 -13.91,6.055 -21.159,4.364 -4.906,-1.145 -8.91,-6.572 -10.412,-7.172"
     fill="none"
     stroke="#000000"
     stroke-width="2.1"
     stroke-linecap="butt"
     stroke-miterlimit="1.5"
     id="path9"
     style="display:inline" />
</svg>
