<?xml version="1.0" encoding="UTF-8" standalone="no"?>
<svg
   height="195"
   width="160"
   version="1.1"
   id="svg20"
   sodipodi:docname="back-sitting.svg"
   inkscape:version="1.3 (0e150ed6c4, 2023-07-21)"
   xmlns:inkscape="http://www.inkscape.org/namespaces/inkscape"
   xmlns:sodipodi="http://sodipodi.sourceforge.net/DTD/sodipodi-0.dtd"
   xmlns:xlink="http://www.w3.org/1999/xlink"
   xmlns="http://www.w3.org/2000/svg"
   xmlns:svg="http://www.w3.org/2000/svg">
  <sodipodi:namedview
     id="namedview20"
     pagecolor="#959595"
     bordercolor="#000000"
     borderopacity="0.25"
     inkscape:showpageshadow="2"
     inkscape:pageopacity="0.0"
     inkscape:pagecheckerboard="0"
     inkscape:deskcolor="#d1d1d1"
     inkscape:zoom="6.0564103"
     inkscape:cx="79.997883"
     inkscape:cy="84.290855"
     inkscape:window-width="2560"
     inkscape:window-height="1377"
     inkscape:window-x="-8"
     inkscape:window-y="-8"
     inkscape:window-maximized="1"
     inkscape:current-layer="svg20" />
  <defs
     id="defs18">
    <g
       id="h">
      <path
         d="M4.25-60 9.3-71l5.1 11-1.25.55-3.85-8.6-3.85 8.6-1.2-.55m14.45 4.15.3-.35q2.55 2.35 2.85 5.4v.6q0 1.9-.95 3.55-.7 1.25-1.9 2.4l-.6-.6-.1-.1 1.4-1.7.25-.45q.8-1.45.8-3.1v-.6q-.25-2.5-2.35-4.55l-.1-.1.4-.4m-3.85 16.9.75-.05q2.2 0 3.25 1.05 1.1 1.05 1.1 2.85 0 1.85-1 2.85l-.4.35q-1.55 1.2-4.4 1.5l-1.5.05-.35-1.5 1.3-.05q3-.2 4.05-1.25.75-.75.75-1.85 0-1.2-.8-2-.6-.6-2.15-.6-1.3 0-3 .6l-3.3 1.25-.65-1.6 3.1-.9 3.25-.7m-2.25 18.3h2.1q1.25 0 2.05.8.9.9.9 2.8 0 1.85-.9 2.75-.8.8-2.05.8H8.1V-15h6.55q.7 0 1.15-.45.55-.55.55-1.6 0-1.1-.55-1.65-.45-.4-1.15-.4H8.1v-1.55h4.5m-24.75 2.2-1.2.45h-.4q-.95 0-2.65-1.1l-1.9-.65q-.85 0-1.3.55l-.6.95-1.4-.75 1.25-1.65q.85-.8 1.95-.8t2.25.8q1.65.85 2.55.85.65 0 1.3-.65l.7-.95 1.25 1q-.6.95-1.35 1.55l-.45.4m2-25.75-.6-.7q-1.8-2.2-1.8-4.9l.1-1q.3-2.8 2.7-5l.75.75q-2.05 1.95-2.4 4.25l-.1 1q0 2.25 1.5 4.15l1 1.1-.75.7-.4-.35m.9-15.55L-9.8-60l5.05-11 5.1 11-1.25.55-3.85-8.6-3.85 8.6-.65-.3"
         fill="#000"
         fill-rule="evenodd"
         transform="translate(21.6 71)"
         id="path1" />
      <path
         d="M.35-60h3.9l1.2.55 3.85-8.6 3.85 8.6L14.4-60l3.15 3.05 1.15 1.1-.4.4.1.1q2.1 2.05 2.35 4.55v.6q0 1.65-.8 3.1l-.25.45-1.4 1.7.1.1-.3.3-3.25.9v4.7l-3.25.7-3.1.9.65 1.6 3.3-1.25q1.7-.6 3-.6 1.55 0 2.15.6.8.8.8 2 0 1.1-.75 1.85-1.05 1.05-4.05 1.25l-1.3.05.35 1.5 1.5-.05-.05 2.75-1.5 1.25v5.75H8.1v1.55h6.55q.7 0 1.15.4.55.55.55 1.65 0 1.05-.55 1.6-.45.45-1.15.45H8.1v1.5h-17l-3.25-3.25v-1.7l.45-.4q.75-.6 1.35-1.55l-1.25-1-.7.95.4-10.95 1.75-12.8.4.35.75-.7-1-1.1q-1.5-1.9-1.5-4.15l.1-1q.35-2.3 2.4-4.25l-.75-.75.5-3.95.65.3 3.85-8.6 3.85 8.6L.35-60"
         fill="#fff"
         fill-rule="evenodd"
         transform="translate(21.6 71)"
         id="path2" />
      <path
         d="M.35-60h3.9m13.3 3.05 1.15 1.1M12.6-26.4v5.75"
         fill="none"
         stroke="#000"
         stroke-linecap="round"
         stroke-linejoin="round"
         transform="translate(21.6 71)"
         id="path3" />
    </g>
    <g
       id="j"
       transform="translate(123.2 10.2)">
      <use
         height="21.8"
         transform="translate(-123.2 -9.5)"
         width="36.95"
         xlink:href="#a"
         id="use3" />
      <use
         height="14.9"
         transform="translate(-93.35 -10.2)"
         width="15.5"
         xlink:href="#b"
         id="use4" />
    </g>
    <g
       id="a">
      <path
         d="m-122.15 3.55 29.2 4.2q.95 1.6-.55 4.05-14.6-4-29.2-4.25l.5-4h.05-.05.05"
         fill="url(#c)"
         fill-rule="evenodd"
         transform="translate(123.2 9.5)"
         id="path4" />
      <path
         d="M-122.15 3.55Q-114.6-5.5-100.5-9q5.75 1.3 13.75 8.8h-9.2l3 7.95-29.2-4.2"
         fill="url(#d)"
         fill-rule="evenodd"
         transform="translate(123.2 9.5)"
         id="path5" />
      <path
         d="m-122.15 3.55 29.2 4.2q.95 1.6-.55 4.05-14.6-4-29.2-4.25l.5-4h.05m0 0h-.05"
         fill="none"
         stroke="#fff"
         stroke-linecap="round"
         stroke-linejoin="round"
         transform="translate(123.2 9.5)"
         id="path6" />
      <path
         d="m-92.95 7.75-3-7.95h9.2q-8-7.5-13.75-8.8-14.1 3.5-21.65 12.55z"
         fill="none"
         stroke="red"
         stroke-linecap="round"
         stroke-linejoin="round"
         transform="translate(123.2 9.5)"
         id="path7" />
    </g>
    <g
       id="g"
       fill-rule="evenodd">
      <path
         d="M4.9-4.95Q7-2.9 7 0q0 2.9-2.1 4.9Q2.9 7 0 7q-2.9 0-4.95-2.1Q-7 2.9-7 0q0-2.9 2.05-4.95Q-2.9-7 0-7q2.9 0 4.9 2.05"
         fill="url(#e)"
         transform="translate(7.75 7.55)"
         id="path8" />
      <path
         d="M.45-7.5q.5-.2.8.3.3.5-.15.75L.5-6.5H.4q-.45.3-.75-.25-.3-.6.15-.75l.5.05.15-.05m1.35.15q.5-.25.85.35.3.6-.15.9-.4.3-.8-.35-.35-.65.1-.9m1.55.85q.45-.35.8.2.4.5-.15.8-.55.3-.8-.2-.3-.5.15-.8m3.9 3.3q.25.5-.2.7-.45.3-.75-.25-.3-.6.15-.75.45-.15.8.3M5.1-4.3q-.3-.55.2-.85.45-.35.85.25.35.5-.2.85-.6.35-.85-.25M6.5-.85q-.35-.6.1-.85.45-.3.75.3.35.55-.05.9-.45.25-.8-.35M6.25 1.5Q5.9.85 6.5.4q.55-.4 1.05.3.5.65-.25 1.05-.7.4-1.05-.25m.65.8q.2.35-.15.55-.3.2-.45-.15-.2-.3.1-.5l.5.1M5.3 3.7q.55-.2.8.3.35.5-.15.75-.45.3-.8-.3-.3-.6.15-.75M1.55 7.25q-.55.3-.85-.2-.2-.55.2-.85.5-.3.85.2t-.2.85m1.9-.35q-.65.4-.95-.2-.35-.6.2-1 .5-.35.95.25.45.65-.2.95m.65-1.25q-.2-.35.05-.55.3-.15.5.2t-.1.55q-.25.15-.45-.2m-5.9-12.1q-.3.2-.5-.1l.15-.55.45.15q.25.3-.1.5m-1.65.75q-.5.3-.8-.2-.25-.45.15-.8.45-.25.8.2.4.5-.15.8m-.65.4q.35.6-.15.95-.45.35-.8-.35-.4-.65.1-.95.45-.25.85.35m-1.4 1.6q-.3.2-.5-.2-.15-.4.1-.45.35-.1.5.2.2.25-.1.45m-.65 1.15q.45.65-.25 1-.7.4-1-.25-.3-.65.25-1t1 .25M-6.5-.9q.45.6-.2.95-.6.35-.95-.2-.3-.6.2-1 .55-.35.95.25m-.8 2.6q-.35-.65.1-.95.5-.25.85.35.3.6-.15.95-.4.25-.8-.35m2.45 2.45q.35.55-.2.85-.55.3-.85-.2-.2-.55.2-.85.5-.3.85.2m-.7-.45q-.6.35-.95-.4-.4-.75.2-.95.6-.2.95.4.4.55-.2.95m1.05 1.35q.6-.45 1.1.25.5.7-.2 1.15-.75.4-1.1-.3-.4-.65.2-1.1M-.4 7.3q-.3.15-.45-.2-.2-.35.1-.4.25-.15.45.15.2.25-.1.45m-2 0q-.45.25-.75-.3-.35-.6.05-.85.45-.25.8.3.3.55-.1.85"
         fill="#fff"
         transform="translate(7.75 7.55)"
         id="path9" />
    </g>
    <linearGradient
       gradientTransform="matrix(-.0157 -.0091 .0025 -.0044 -107.85 7.65)"
       gradientUnits="userSpaceOnUse"
       id="c"
       spreadMethod="pad"
       x1="-819.2"
       x2="819.2">
      <stop
         offset=".204"
         stop-color="#ccc"
         id="stop9" />
      <stop
         offset=".804"
         stop-color="#e7e7e7"
         id="stop10" />
      <stop
         offset="1"
         stop-color="#fff"
         id="stop11" />
    </linearGradient>
    <linearGradient
       gradientTransform="matrix(.0283 0 0 .0102 -104.45 -.65)"
       gradientUnits="userSpaceOnUse"
       id="d"
       spreadMethod="pad"
       x1="-819.2"
       x2="819.2">
      <stop
         offset=".004"
         stop-color="#fff"
         id="stop12" />
      <stop
         offset=".18"
         stop-color="#d10101"
         id="stop13" />
      <stop
         offset=".557"
         stop-color="#fe3636"
         id="stop14" />
      <stop
         offset=".906"
         stop-color="#fff"
         id="stop15" />
    </linearGradient>
    <use
       height="6.45"
       width="5"
       xlink:href="#f"
       id="i" />
    <use
       height="14.9"
       width="15.5"
       xlink:href="#g"
       id="b" />
    <radialGradient
       cx="0"
       cy="0"
       gradientTransform="translate(2.6 -.2) scale(.0086)"
       gradientUnits="userSpaceOnUse"
       id="e"
       r="819.2"
       spreadMethod="pad">
      <stop
         offset=".204"
         stop-color="#ccc"
         id="stop16" />
      <stop
         offset=".757"
         stop-color="#e7e7e7"
         id="stop17" />
      <stop
         offset="1"
         stop-color="#fff"
         id="stop18" />
    </radialGradient>
    <path
       d="m2-1.7-2 2 1.85 1.8M0 .3V.25v2.5M0 .3l-1.85 1.8M-2-1.7 0 .25V-2.7"
       fill="none"
       stroke="#fea5c0"
       stroke-linecap="round"
       stroke-linejoin="round"
       transform="translate(2.5 3.2)"
       id="f" />
  </defs>
  <g
     transform="matrix(2 0 0 2 79.441 155)"
     id="g20">
    <g
       id="use18"
       transform="translate(-21.6,-71)"
       style="display:inline">
      <path
         d="M 4.25,-60 8.9697714,-69.2663 14.4,-60 l -1.25,0.55 -3.85,-8.6 -3.85,8.6 -1.2,-0.55 m 14.45,4.15 0.3,-0.35 c 1.7,1.566667 2.65,3.366667 2.85,5.4 v 0.6 c 0,1.266667 -0.316667,2.45 -0.95,3.55 -0.466667,0.833333 -1.1,1.633333 -1.9,2.4 l -0.6,-0.6 -0.1,-0.1 1.4,-1.7 0.25,-0.45 c 0.533333,-0.966667 0.8,-2 0.8,-3.1 v -0.6 c -0.166667,-1.666667 -0.95,-3.183333 -2.35,-4.55 l -0.1,-0.1 0.4,-0.4 m -3.85,16.9 0.75,-0.05 c 1.466667,0 2.55,0.35 3.25,1.05 0.733333,0.7 1.1,1.65 1.1,2.85 0,1.233333 -0.333333,2.183333 -1,2.85 l -0.4,0.35 c -1.033333,0.8 -2.5,1.3 -4.4,1.5 l -1.5,0.05 -0.35,-1.5 1.3,-0.05 c 2,-0.133333 3.35,-0.55 4.05,-1.25 0.5,-0.5 0.75,-1.116667 0.75,-1.85 0,-0.8 -0.266667,-1.466667 -0.8,-2 -0.4,-0.4 -1.116667,-0.6 -2.15,-0.6 -0.866667,0 -1.866667,0.2 -3,0.6 l -3.3,1.25 -0.65,-1.6 3.1,-0.9 3.25,-0.7 m -2.25,18.3 h 2.1 c 0.833333,0 1.516667,0.266667 2.05,0.8 0.6,0.6 0.9,1.533333 0.9,2.8 0,1.233333 -0.3,2.15 -0.9,2.75 -0.533333,0.533333 -1.216667,0.8 -2.05,0.8 H 8.1 V -15 h 6.55 c 0.466667,0 0.85,-0.15 1.15,-0.45 0.366667,-0.366667 0.55,-0.9 0.55,-1.6 0,-0.733333 -0.183333,-1.283333 -0.55,-1.65 -0.3,-0.266667 -0.683333,-0.4 -1.15,-0.4 H 8.1 v -1.55 h 4.5 m -24.75,2.2 -1.2,0.45 h -0.4 c -0.633333,0 -1.516667,-0.366667 -2.65,-1.1 l -1.9,-0.65 c -0.566667,0 -1,0.183333 -1.3,0.55 l -0.6,0.95 -1.4,-0.75 1.25,-1.65 c 0.566667,-0.533333 1.216667,-0.8 1.95,-0.8 0.733333,0 1.483333,0.266667 2.25,0.8 1.1,0.566667 1.95,0.85 2.55,0.85 0.433333,0 0.866667,-0.216667 1.3,-0.65 l 0.7,-0.95 1.25,1 c -0.4,0.633333 -0.85,1.15 -1.35,1.55 l -0.45,0.4 m 2,-25.75 -0.6,-0.7 c -1.2,-1.466667 -1.8,-3.1 -1.8,-4.9 l 0.1,-1 c 0.2,-1.866667 1.1,-3.533333 2.7,-5 l 0.75,0.75 c -1.366667,1.3 -2.166667,2.716667 -2.4,4.25 l -0.1,1 c 0,1.5 0.5,2.883333 1.5,4.15 l 1,1.1 -0.75,0.7 -0.4,-0.35 m 0.9,-15.55 -0.55,-0.25 5.05,-11 5.1,11 -1.25,0.55 -3.85,-8.6 -3.85,8.6 -0.65,-0.3"
         fill="#000000"
         fill-rule="evenodd"
         transform="translate(21.6,71)"
         id="path20"
         style="display:inline"
         sodipodi:nodetypes="ccccccccccsccccccscccccccsccccccssssccccccsssssccssscscccccsccccccscsccccccccccccccccccccccccc" />
      <path
         d="m 0.35,-60 h 3.9 l 1.2,0.55 3.85,-8.6 3.85,8.6 1.25,-0.55 3.15,3.05 1.15,1.1 -0.4,0.4 0.1,0.1 q 2.1,2.05 2.35,4.55 v 0.6 q 0,1.65 -0.8,3.1 l -0.25,0.45 -1.4,1.7 0.1,0.1 -0.3,0.3 -3.25,0.9 v 4.7 l -3.25,0.7 -3.1,0.9 0.65,1.6 3.3,-1.25 q 1.7,-0.6 3,-0.6 1.55,0 2.15,0.6 0.8,0.8 0.8,2 0,1.1 -0.75,1.85 -1.05,1.05 -4.05,1.25 l -1.3,0.05 0.35,1.5 1.5,-0.05 -0.05,2.75 -1.5,1.25 v 5.75 H 8.1 v 1.55 h 6.55 q 0.7,0 1.15,0.4 0.55,0.55 0.55,1.65 0,1.05 -0.55,1.6 Q 15.35,-15 14.65,-15 H 8.1 v 1.5 h -17 l -3.25,-3.25 v -1.7 l 0.45,-0.4 q 0.75,-0.6 1.35,-1.55 l -1.25,-1 -0.7,0.95 0.4,-10.95 1.75,-12.8 0.4,0.35 0.75,-0.7 -1,-1.1 q -1.5,-1.9 -1.5,-4.15 l 0.1,-1 q 0.35,-2.3 2.4,-4.25 l -0.75,-0.75 0.5,-3.95 0.65,0.3 3.85,-8.6 3.85,8.6 1.25,-0.55"
         fill="#ffffff"
         fill-rule="evenodd"
         transform="translate(21.6,71)"
         id="path21" />
      <path
         style="color:#000000;fill:#000000;stroke-linecap:round;stroke-linejoin:round;-inkscape-stroke:none"
         d="m 0.34960938,-60.5 a 0.5,0.5 0 0 0 -0.5,0.5 0.5,0.5 0 0 0 0.5,0.5 H 4.25 a 0.5,0.5 0 0 0 0.5,-0.5 0.5,0.5 0 0 0 -0.5,-0.5 z m 17.18945262,3.050781 a 0.5,0.5 0 0 0 -0.349609,0.154297 0.5,0.5 0 0 0 0.01563,0.707031 l 1.148438,1.09961 a 0.5,0.5 0 0 0 0.707031,-0.01563 0.5,0.5 0 0 0 -0.01563,-0.707031 l -1.148438,-1.09961 a 0.5,0.5 0 0 0 -0.357422,-0.138672 z m -4.939453,30.548828 a 0.5,0.5 0 0 0 -0.5,0.5 v 5.75 a 0.5,0.5 0 0 0 0.5,0.5 0.5,0.5 0 0 0 0.5,-0.5 v -5.75 a 0.5,0.5 0 0 0 -0.5,-0.5 z"
         id="path22"
         transform="translate(21.6,71)" />
    </g>
    <use
       height="6.45"
       transform="matrix(1.0012 0 0 1 8.597 -51.25)"
       width="5"
       xlink:href="#i"
       id="use19" />
    <use
       height="22.5"
       transform="matrix(-1 0 0 .9984 17.6 -76.534)"
       width="45.35"
       xlink:href="#j"
       id="use20" />
  </g>
  <path
     d="m 58.165895,68.613112 27,0.888 H 102.0549 l 14.88899,-0.222 0.444,3.111 -1.111,2.778 0.556,6.333 c 0,0 0.018,-0.318 -1.483,-1.917 -0.542,-0.577 -2.037,-1.36 -2.517,-1.638 -1.537,-0.889 -5.556,-0.445 -5.556,-0.445 l -5.99999,1.334 0.222,1.333 0.556,3.667 -2.889,3.222 -2.333005,25.222008 -2.556,0.334 -1.889,1.333 -2.333,9.555 -4.778,-0.666 -4.111,-0.111 -3.444,-1.556 -1.223,-3.555 c 0,0 4,-10.223 5.778,-32.445008 l -0.222,-2.444 -10.444,0.666 -9.445,-0.777 -4.667,-1.667 -0.333,-2.889 2,-4.222 -1.778,-2.222 z"
     fill="#c90000"
     id="path4-2"
     style="display:inline" />
  <path
     d="m 97.054895,112.27911 c 0,0 1.667005,-5.889 1.444005,-27.110998"
     fill="none"
     stroke="#000000"
     stroke-width="2.1"
     stroke-linecap="square"
     stroke-miterlimit="1.5"
     id="path5-5"
     style="display:inline" />
  <path
     d="m 90.813895,108.80212 0.011,-0.023 c 0.021,-0.044 0.058,-0.08 0.043,-0.088 -0.196,-0.098 -0.166,-0.021 -0.054,0.111 -0.08,0.163 -0.239,0.466 -0.406,0.86 a 9.773,9.773 0 0 0 -0.38,1.006 c -0.063,0.209 -0.103,0.423 -0.143,0.628 -0.157,0.82 -0.234,1.497 -0.234,1.497 a 0.538,0.538 0 0 0 1.03,0.306 c 0,0 0.305,-0.609 0.621,-1.381 0.08,-0.194 0.163,-0.396 0.224,-0.605 0.106,-0.359 0.174,-0.726 0.232,-1.05 0.069,-0.39 0.103,-0.712 0.125,-0.9 0.134,-0.074 0.198,-0.14401 0.019,-0.164 -0.016,-0.002 -0.005,0.048 -0.011,0.097 l -0.008,0.067 c -0.183,0.101 -0.495,0.209 -0.495,0.209 0.6,-0.668 0.438,-0.968 0.153,-1.052 a 0.537,0.537 0 0 0 -0.668,0.362 l 0.515,0.69 c 0,0 -0.394,-0.357 -0.574,-0.56999 z"
     id="path6-1"
     style="display:inline" />
  <path
     d="m 92.276895,114.05711 c 0,0 -0.222,3.444 -2.555,9.333"
     fill="none"
     stroke="#000000"
     stroke-width="2.1"
     stroke-linecap="square"
     stroke-miterlimit="1.5"
     id="path7-2"
     style="display:inline" />
  <path
     d="m 87.169895,108.47212 0.004,-0.005 c 0.029,-0.041 0.071,-0.071 0.058,-0.08 -0.185,-0.134 -0.162,-0.06 -0.062,0.085 -0.102,0.14499 -0.316,0.42799 -0.554,0.805 -0.177,0.281 -0.376,0.6 -0.542,0.939 a 6.481,6.481 0 0 0 -0.245,0.601 c -0.291,0.789 -0.48,1.45 -0.48,1.45 a 0.538,0.538 0 0 0 0.967,0.46899 c 0,0 0.402,-0.55599 0.843,-1.27299 0.11,-0.18001 0.225,-0.366 0.321,-0.565 0.164,-0.34 0.292,-0.693 0.403,-1.006 0.133,-0.374 0.219,-0.687 0.272,-0.871 0.132,-0.055 0.206,-0.117 0.047,-0.163 -0.016,-0.005 -0.013,0.047 -0.028,0.095 l -0.019,0.068 c -0.169,0.07 -0.433,0.129 -0.433,0.129 0.612,-0.569 0.501,-0.891 0.234,-1.021 a 0.538,0.538 0 0 0 -0.718,0.249 l 0.484,0.772 c 0,0 -0.384,-0.437 -0.552,-0.678 z"
     id="path8-3"
     style="display:inline" />
  <path
     d="m 85.276895,85.420112 -2.889,-2.778 c 0,0 -1,20.807008 -6.333,35.444008"
     fill="none"
     stroke="#000000"
     stroke-width="2.1"
     stroke-linecap="square"
     stroke-miterlimit="1.5"
     id="path9-6"
     style="display:inline" />
  <path
     d="m 86.065895,119.45311 c 0.031,-0.041 0.076,-0.072 0.062,-0.082 -0.182,-0.139 -0.161,-0.065 -0.062,0.082 -0.109,0.14701 -0.343,0.44 -0.606,0.831 -0.194,0.288 -0.411,0.615 -0.596,0.964 -0.108,0.20301 -0.195,0.416 -0.279,0.62001 -0.335,0.812 -0.561,1.494 -0.561,1.494 a 0.538,0.538 0 0 0 0.951,0.501 c 0,0 0.435,-0.571 0.917,-1.305 0.121,-0.18501 0.247,-0.377 0.354,-0.58101 0.183,-0.349 0.331,-0.714 0.459,-1.036 0.156,-0.38899 0.26,-0.715 0.323,-0.904 0.132,-0.051 0.208,-0.11199 0.054,-0.16299 -0.016,-0.005 -0.016,0.049 -0.033,0.098 l -0.021,0.065 a 3.2,3.2 0 0 1 -0.417,0.113 c 0.613,-0.549 0.513,-0.87399 0.25,-1.013 a 0.538,0.538 0 0 0 -0.726,0.225 l 0.476,0.788 c 0,0 -0.38,-0.451 -0.545,-0.697 z"
     id="path10"
     style="display:inline" />
  <path
     d="m 115.57189,69.531112 c 0,0 -33.372995,0.222 -57.555995,-1.111 0,0 -2.517,2.111 0.817,5.111 0,0 -3.667,6.222 -0.667,8 0,0 4.333,2 24.667,1.444 0,0 -6.778,-6 0.333,-11.889 0,0 8.333,-2.555 14.222,3.778 0,0 8.667005,7.445 2.000008,12.222 0,0 -0.777003,-8.777 -13.889008,-7.444 0,0 1.667,19.888995 -1.888,30.444008"
     fill="none"
     stroke="#000000"
     stroke-width="2.1"
     stroke-linecap="square"
     stroke-miterlimit="1.5"
     id="path11"
     style="display:inline" />
  <path
     d="m 82.316895,119.27711 c 0.033,-0.033 0.072,-0.055 0.061,-0.066 -0.17,-0.161 -0.152,-0.088 -0.061,0.066 l -0.008,0.008 c -0.121,0.131 -0.378,0.39 -0.673,0.743 -0.217,0.259 -0.461,0.554 -0.676,0.873 a 6.57,6.57 0 0 0 -0.331,0.574 23.587,23.587 0 0 0 -0.688,1.395 0.538,0.538 0 0 0 0.894,0.596 c 0,0 0.482,-0.508 1.024,-1.171 0.136,-0.167 0.278,-0.34 0.402,-0.527 0.212,-0.32 0.391,-0.659 0.546,-0.959 0.188,-0.362 0.32,-0.667 0.399,-0.845 0.128,-0.039 0.208,-0.092 0.069,-0.154 -0.015,-0.007 -0.02,0.046 -0.041,0.091 l -0.028,0.063 c -0.152,0.047 -0.373,0.075 -0.373,0.075 0.611,-0.486 0.545,-0.82 0.298,-0.985 a 0.538,0.538 0 0 0 -0.745,0.149 l 0.447,0.836 c 0,0 -0.362,-0.499 -0.516,-0.762 z"
     id="path12"
     style="display:inline" />
  <path
     d="m 116.26822,81.79769 c 0,0 1.92237,0 0.11297,-7.27017 0,0 1.8094,-3.10149 0.11296,-5.026088"
     fill="none"
     stroke="#000000"
     stroke-width="2.07815"
     stroke-miterlimit="1.5"
     id="path13"
     style="display:inline" />
  <path
     d="m 78.763895,118.60511 c 0.031,-0.031 0.069,-0.051 0.059,-0.061 -0.168,-0.164 -0.149,-0.093 -0.059,0.061 l -0.005,0.005 c -0.112,0.118 -0.35,0.349 -0.623,0.668 -0.2,0.23301 -0.425,0.499 -0.62,0.79001 -0.114,0.169 -0.208,0.34999 -0.298,0.523 -0.362,0.69299 -0.61,1.27899 -0.61,1.27899 a 0.53722991,0.53722991 0 1 0 0.894,0.59601 c 0,0 0.445,-0.454 0.946,-1.05501 0.125,-0.15 0.256,-0.306 0.368,-0.476 a 8.58,8.58 0 0 0 0.491,-0.876 c 0.165,-0.325 0.278,-0.6 0.348,-0.765 0.127,-0.04 0.205,-0.092 0.065,-0.152 -0.014,-0.006 -0.017,0.042 -0.036,0.084 l -0.029,0.068 a 2.633,2.633 0 0 1 -0.378,0.078 c 0.612,-0.486 0.545,-0.81999 0.298,-0.984 a 0.537,0.537 0 0 0 -0.745,0.149 l 0.447,0.835 c 0,0 -0.36,-0.504 -0.513,-0.767 z m 15.156,-8.82599 0.017,-0.046 c 0.013,-0.037 0.039,-0.068 0.027,-0.072 -0.198,-0.073 -0.162,0.001 -0.044,0.118 -0.051,0.141 -0.143,0.378 -0.23,0.685 -0.07,0.249 -0.147,0.531 -0.187,0.823 -0.024,0.17 -0.024,0.341 -0.025,0.506 -0.004,0.661 0.044,1.193 0.044,1.193 a 0.539,0.539 0 0 0 1.066,0.142 c 0,0 0.185,-0.501 0.355,-1.14 0.042,-0.159 0.087,-0.324 0.109,-0.494 0.037,-0.292 0.037,-0.585 0.034,-0.844 -0.003,-0.305 -0.028,-0.55 -0.041,-0.701 0.129,-0.091 0.179,-0.163 -0.012,-0.146 -0.013,10e-4 0.003,0.038 0.006,0.077 l 0.006,0.069 c -0.188,0.135 -0.546,0.312 -0.546,0.312 0.572,-0.76 0.365,-1.031 0.071,-1.07 a 0.537,0.537 0 0 0 -0.603,0.462 l 0.532,0.60801 c 0,0 -0.392,-0.29601 -0.579,-0.482 z"
     id="path14"
     style="display:inline" />
  <path
     d="M110.632 41.6h.402l1.107.2.906.7q.905.9.905 2l-.905 2.3q-.906.8-2.013.8l-1.61-.4-.503-.4-.905-1.4v-.3l-.101-.6v-.2q.1-1 1.006-1.8l.503-.4q.503-.4 1.107-.5h.1m.906 1.7-.503-.1q-.704-.1-1.107.4-.402.3-.402.9v.3l.302.9h.1l.101.1.402.2.604.1 1.107-.4.302-1.2-.1-.6-.202-.3-.1-.1-.302-.2h-.202"
     fill-rule="evenodd"
     id="gikopoipoi_eyes_open"
     style="stroke-width:2.00619" />
  <path
     d="M107.791 44.7h6.3"
     stroke-width="3"
     id="gikopoipoi_eyes_closed"
     style="display:none"
     fill="none"
     stroke="#000"
     stroke-linecap="round"
     stroke-linejoin="round" />
</svg>
