<?xml version="1.0" encoding="UTF-8" standalone="no"?>
<svg
   height="195"
   width="160"
   version="1.1"
   id="svg23"
   sodipodi:docname="front-standing.svg"
   inkscape:version="1.3 (0e150ed6c4, 2023-07-21)"
   xmlns:inkscape="http://www.inkscape.org/namespaces/inkscape"
   xmlns:sodipodi="http://sodipodi.sourceforge.net/DTD/sodipodi-0.dtd"
   xmlns:xlink="http://www.w3.org/1999/xlink"
   xmlns="http://www.w3.org/2000/svg"
   xmlns:svg="http://www.w3.org/2000/svg">
  <sodipodi:namedview
     id="namedview23"
     pagecolor="#ffffff"
     bordercolor="#000000"
     borderopacity="0.25"
     inkscape:showpageshadow="2"
     inkscape:pageopacity="0.0"
     inkscape:pagecheckerboard="0"
     inkscape:deskcolor="#d1d1d1"
     inkscape:zoom="6.0564103"
     inkscape:cx="79.997883"
     inkscape:cy="97.5"
     inkscape:window-width="2560"
     inkscape:window-height="1377"
     inkscape:window-x="-8"
     inkscape:window-y="-8"
     inkscape:window-maximized="1"
     inkscape:current-layer="svg23" />
  <defs
     id="defs21">
    <g
       id="j">
      <path
         d="M.25-60h3.9l1.2.55 3.9-8.6 3.85 8.6 1.25-.55 3.15 3.05 1.1 1.1-.4.4.1.1q2.1 2.05 2.35 4.55v.6q0 1.65-.8 3.1l-.25.45-1.4 1.7.15.15-.3.25-3.25.9v4.7l-3.25.7-3.1.9.65 1.6L12.4-37q1.7-.6 3-.6 1.55 0 2.15.6.8.8.8 2 0 1.1-.75 1.85-1.05 1.05-4.1 1.25l-1.25.05.35 1.5 1.5-.05-.05 2.75-1.5 1.25v12.25l-.85 4.6h-1.5V-3q0 .7-.45 1.15-.55.55-1.6.55Q7-1.3 6.5-1.85 6.05-2.3 6.1-3v-6.55H4.5l-2.35-3.5H.4l-3.55 3.5V-3q0 .7-.45 1.15-.55.55-1.6.55-1.1 0-1.65-.55-.45-.45-.4-1.15v-6.55H-8.8l-1.7-1.1-1.75-3.9v-3.9l.45-.4q.75-.6 1.35-1.55l-1.25-1-.7.95.4-10.95 1.75-12.8.4.35.75-.7-1-1.1q-1.55-1.9-1.5-4.15l.05-1q.35-2.3 2.45-4.25l-.75-.75.5-3.95.65.3 3.85-8.6 3.85 8.6L.25-60m5.1 22.05Q4.3-39 2.1-39q-1.35 0-4 .75l-3.1.9.65 1.6 3.3-1.25q1.7-.6 3-.6 1.55 0 2.15.6.8.8.8 2 0 1.1-.75 1.85Q3.1-32.1.1-31.9l-1.3.05.35 1.5q3.95-.05 5.9-1.55l.45-.35q1-1 1-2.85-.05-1.8-1.15-2.85"
         fill="#fff"
         fill-rule="evenodd"
         transform="translate(21.7 71)"
         id="path1" />
      <path
         d="m4.15-60 5.1-11 5.1 11-1.25.55-3.85-8.6-3.9 8.6-1.2-.55m14.5 4.1.25-.3q2.55 2.35 2.8 5.4v.6q0 1.9-.9 3.55-.7 1.25-1.9 2.4l-.55-.55-.15-.15 1.4-1.7.25-.45q.8-1.45.8-3.1v-.6q-.25-2.5-2.35-4.55l-.1-.1.4-.4.05-.05M14.8-38.95l.75-.05q2.2 0 3.25 1.05 1.1 1.05 1.1 2.85 0 1.85-1 2.85l-.4.35q-1.55 1.2-4.4 1.5l-1.5.05-.35-1.5 1.25-.05q3.05-.2 4.1-1.25.75-.75.75-1.85 0-1.2-.8-2-.6-.6-2.15-.6-1.3 0-3 .6l-3.3 1.25-.65-1.6 3.1-.9 3.25-.7m-3.1 29.4v6.6q0 1.25-.8 2.05-.9.9-2.75.9Q6.2 0 5.3-.9q-.8-.8-.8-2.05v-6.6h1.6V-3q-.05.7.4 1.15.5.55 1.65.55 1.05 0 1.6-.55.45-.45.45-1.15v-6.55h1.5m-14.85 0h1.5v6.6q0 1.25-.8 2.05-.9.9-2.75.9Q-7.1 0-8-.9q-.85-.8-.8-2.05v-6.6h1.55V-3q-.05.7.4 1.15.55.55 1.65.55 1.05 0 1.6-.55.45-.45.45-1.15v-6.55m-9.1-8.9q-.7.45-1.6.45-1 0-2.7-1.1-1.15-.65-1.9-.65-.85 0-1.3.55l-.6.95-1.35-.75 1.2-1.65q.85-.8 1.95-.8t2.3.8q1.65.85 2.55.85.6 0 1.3-.65l.7-.95 1.25 1q-.6.95-1.35 1.55l-.45.4m2-25.75-.6-.7q-1.85-2.2-1.8-4.9l.05-1q.35-2.8 2.75-5l.75.75q-2.1 1.95-2.45 4.25l-.05 1q-.05 2.25 1.5 4.15l1 1.1-.75.7-.4-.35m.9-15.55L-9.9-60l5.05-11 5.1 11-1.25.55-3.85-8.6-3.85 8.6-.65-.3m14.7 21.8q1.1 1.05 1.15 2.85 0 1.85-1 2.85l-.45.35q-1.95 1.5-5.9 1.55l-.35-1.5 1.3-.05q3-.2 4.05-1.25.75-.75.75-1.85 0-1.2-.8-2-.6-.6-2.15-.6-1.3 0-3 .6l-3.3 1.25-.65-1.6 3.1-.9Q.75-39 2.1-39q2.2 0 3.25 1.05"
         fill="#333"
         fill-rule="evenodd"
         transform="translate(21.7 71)"
         id="path2" />
      <path
         d="m17.5-56.95 1.15 1.05-.05.05-1.1-1.1"
         fill="red"
         fill-rule="evenodd"
         transform="translate(21.7 71)"
         id="path3" />
      <path
         d="M.25-60h3.9m8.4 33.6v12.25m6.05-41.7-1.1-1.1"
         fill="none"
         stroke="#333"
         stroke-linecap="round"
         stroke-linejoin="round"
         transform="translate(21.7 71)"
         id="path4" />
    </g>
    <g
       id="k"
       transform="translate(11.45 4.1)">
      <use
         height="2"
         transform="translate(-.85 -4.1)"
         width="11.6"
         xlink:href="#a"
         id="use4" />
      <use
         height="6.45"
         transform="translate(-11.45 -3.8)"
         width="5"
         xlink:href="#b"
         id="use5" />
    </g>
    <g
       id="l"
       transform="translate(123.2 9.5)">
      <use
         height="14.9"
         transform="translate(-103.9 -6.95)"
         width="15.5"
         xlink:href="#c"
         id="use6" />
      <use
         height="21.8"
         transform="translate(-123.2 -9.5)"
         width="31.45"
         xlink:href="#d"
         id="use7" />
    </g>
    <g
       id="i"
       fill-rule="evenodd">
      <path
         d="M4.9-4.95Q7-2.9 7 0q0 2.9-2.1 4.9Q2.9 7 0 7q-2.9 0-4.95-2.1Q-7 2.9-7 0q0-2.9 2.05-4.95Q-2.9-7 0-7q2.9 0 4.9 2.05"
         fill="url(#e)"
         transform="translate(7.75 7.55)"
         id="path7" />
      <path
         d="M.45-7.5q.5-.2.8.3.3.5-.15.75L.5-6.5H.4q-.45.3-.75-.25-.3-.6.15-.75l.5.05.15-.05m1.35.15q.5-.25.85.35.3.6-.15.9-.4.3-.8-.35-.35-.65.1-.9m1.55.85q.45-.35.8.2.4.5-.15.8-.55.3-.8-.2-.3-.5.15-.8m3.9 3.3q.25.5-.2.7-.45.3-.75-.25-.3-.6.15-.75.45-.15.8.3M5.1-4.3q-.3-.55.2-.85.45-.35.85.25.35.5-.2.85-.6.35-.85-.25M6.5-.85q-.35-.6.1-.85.45-.3.75.3.35.55-.05.9-.45.25-.8-.35M6.25 1.5Q5.9.85 6.5.4q.55-.4 1.05.3.5.65-.25 1.05-.7.4-1.05-.25m.65.8q.2.35-.15.55-.3.2-.45-.15-.2-.3.1-.5l.5.1M5.3 3.7q.55-.2.8.3.35.5-.15.75-.45.3-.8-.3-.3-.6.15-.75M1.55 7.25q-.55.3-.85-.2-.2-.55.2-.85.5-.3.85.2t-.2.85m1.9-.35q-.65.4-.95-.2-.35-.6.2-1 .5-.35.95.25.45.65-.2.95m.65-1.25q-.2-.35.05-.55.3-.15.5.2t-.1.55q-.25.15-.45-.2m-5.9-12.1q-.3.2-.5-.1l.15-.55.45.15q.25.3-.1.5m-1.65.75q-.5.3-.8-.2-.25-.45.15-.8.45-.25.8.2.4.5-.15.8m-.65.4q.35.6-.15.95-.45.35-.8-.35-.4-.65.1-.95.45-.25.85.35m-1.4 1.6q-.3.2-.5-.2-.15-.4.1-.45.35-.1.5.2.2.25-.1.45m-.65 1.15q.45.65-.25 1-.7.4-1-.25-.3-.65.25-1t1 .25M-6.5-.9q.45.6-.2.95-.6.35-.95-.2-.3-.6.2-1 .55-.35.95.25m-.8 2.6q-.35-.65.1-.95.5-.25.85.35.3.6-.15.95-.4.25-.8-.35m2.45 2.45q.35.55-.2.85-.55.3-.85-.2-.2-.55.2-.85.5-.3.85.2m-.7-.45q-.6.35-.95-.4-.4-.75.2-.95.6-.2.95.4.4.55-.2.95m1.05 1.35q.6-.45 1.1.25.5.7-.2 1.15-.75.4-1.1-.3-.4-.65.2-1.1M-.4 7.3q-.3.15-.45-.2-.2-.35.1-.4.25-.15.45.15.2.25-.1.45m-2 0q-.45.25-.75-.3-.35-.6.05-.85.45-.25.8.3.3.55-.1.85"
         fill="#fff"
         transform="translate(7.75 7.55)"
         id="path8" />
    </g>
    <g
       id="d">
      <path
         d="M-92.95 7.75q.95 1.6-.55 4.05-14.6-4-29.2-4.25l.5-4h.05-.05.05l29.2 4.2"
         fill="url(#f)"
         fill-rule="evenodd"
         transform="translate(123.2 9.5)"
         id="path9" />
      <path
         d="M-122.15 3.55Q-114.6-5.5-100.5-9q7.3 3 8.05 9.6.75 6.55-1.5 2.05-2.3-4.55-2-2.85l3 7.95-29.2-4.2"
         fill="url(#g)"
         fill-rule="evenodd"
         transform="translate(123.2 9.5)"
         id="path10" />
      <path
         d="M-92.95 7.75q.95 1.6-.55 4.05-14.6-4-29.2-4.25l.5-4h.05l29.2 4.2m-29.25-4.2h.05"
         fill="none"
         stroke="#fff"
         stroke-linecap="round"
         stroke-linejoin="round"
         transform="translate(123.2 9.5)"
         id="path11" />
      <path
         d="M-122.15 3.55Q-114.6-5.5-100.5-9q7.3 3 8.05 9.6.75 6.55-1.5 2.05-2.3-4.55-2-2.85l3 7.95z"
         fill="none"
         stroke="red"
         stroke-linecap="round"
         stroke-linejoin="round"
         transform="translate(123.2 9.5)"
         id="path12" />
    </g>
    <linearGradient
       gradientTransform="matrix(-.0157 -.0091 .0025 -.0044 -107.85 7.65)"
       gradientUnits="userSpaceOnUse"
       id="f"
       spreadMethod="pad"
       x1="-819.2"
       x2="819.2">
      <stop
         offset=".204"
         stop-color="#ccc"
         id="stop12" />
      <stop
         offset=".804"
         stop-color="#e7e7e7"
         id="stop13" />
      <stop
         offset="1"
         stop-color="#fff"
         id="stop14" />
    </linearGradient>
    <linearGradient
       gradientTransform="matrix(.0283 0 0 .0102 -104.45 -.65)"
       gradientUnits="userSpaceOnUse"
       id="g"
       spreadMethod="pad"
       x1="-819.2"
       x2="819.2">
      <stop
         offset=".004"
         stop-color="#fff"
         id="stop15" />
      <stop
         offset=".18"
         stop-color="#d10101"
         id="stop16" />
      <stop
         offset=".557"
         stop-color="#fe3636"
         id="stop17" />
      <stop
         offset=".906"
         stop-color="#fff"
         id="stop18" />
    </linearGradient>
    <path
       d="M10.25-2.6H.75l-1.1-1"
       fill="none"
       stroke="#333"
       stroke-linecap="round"
       stroke-linejoin="round"
       transform="translate(.85 4.1)"
       id="a" />
    <path
       d="m2-1.7-2 2 1.85 1.8M0 .3V.25v2.5M0 .3l-1.85 1.8M-2-1.7 0 .25V-2.7"
       fill="none"
       stroke="#fea5c0"
       stroke-linecap="round"
       stroke-linejoin="round"
       transform="translate(2.5 3.2)"
       id="h" />
    <use
       height="6.45"
       width="5"
       xlink:href="#h"
       id="b" />
    <use
       height="14.9"
       width="15.5"
       xlink:href="#i"
       id="c" />
    <radialGradient
       cx="0"
       cy="0"
       gradientTransform="translate(2.6 -.2) scale(.0086)"
       gradientUnits="userSpaceOnUse"
       id="e"
       r="819.2"
       spreadMethod="pad">
      <stop
         offset=".204"
         stop-color="#ccc"
         id="stop19" />
      <stop
         offset=".757"
         stop-color="#e7e7e7"
         id="stop20" />
      <stop
         offset="1"
         stop-color="#fff"
         id="stop21" />
    </radialGradient>
  </defs>
  <use
     height="71"
     transform="matrix(2 0 0 2 36.141 13)"
     width="43.4"
     xlink:href="#j"
     id="use21" />
  <path
     d="m 66.759138,67.148367 50.777992,-1.222 0.666,2.555 -0.555,2.889 1,3.445 -1.222,4.444 -4.112,-2.666 -7,0.333 -7.443992,2.667 -7.667,0.555 -5.889,-3.555 -7.666,1.111 -6.889,2.333 -7.445,0.556 1.875,-2.409 1.792,-5.814 -0.889,-2.555 -2.222,-2.445 -4.889,-1.222 -5.111,2.222 -4.556,4.778 -3.333,5.556 -0.222,2.889 1.555,2.444 1.778,1.667 7.445,24.776993 4.777,1.77801 3.334,7.445 5.555,0.111 3.667,-1.556 3.111,-2.111 1.333,-3.222 c 0,0 -11.921,-34.318003 -12.995,-32.483003"
     fill="#c90000"
     id="path4-5"
     style="display:inline" />
  <path
     d="m 66.981138,67.384367 c 0,0 24.889,0 50.110992,-1.445 0,0 2.222,1.889 0.222,5 0,0 2.223,5.667 0.445,7.667 0,0 -2.778,-3 -7.445,-2.222 l -11.665992,3.222 -8.334,0.444 c 0,0 0.334,-2.444 -4.888,-3.555 0,0 -1.778,-1.111 -13.778,3.222 l -9.362,0.606 c 0,0 4.917,-2.495 4.806,-6.828 0,0 0.667,-5.222 -4.666,-6.778 0,0 -4.112,-2 -9.667,2.778 0,0 -6,3.889 -6.778,10.666 0,0 -1.111,4.334 3.445,5.334 0,0 -0.556,-1.778 0.222,-4 0,0 1,-4.778 7.666,-5.889 0,0 3.112,-0.32 4.889,0.347 0,0 -0.777,14.444 6.778,29.554993"
     fill="none"
     stroke="#000000"
     stroke-width="2.09"
     stroke-linecap="square"
     stroke-miterlimit="1.5"
     id="path5" />
  <path
     d="m 50.414138,82.438367 c 0.043,-0.067 0.067,-0.129 -0.002,-0.136 v -1.016 h -0.875 c -0.143,-0.012 -0.785,0.086 -0.901,0.902 -0.021,0.146 -0.033,0.457 -0.032,0.918 10e-4,0.416 10e-4,0.966 0.056,1.634 0.127,1.56 0.482,3.758 0.969,6.367 1.038,5.569005 2.884,12.994003 5.878,19.963003 l 0.341,0.808 1.614,-0.681 -0.341,-0.807 c -4.045,-9.76901 -5.698,-20.425003 -6.34,-25.417003 a 48.495,48.495 0 0 0 -0.143,-1.034 c -0.104,-0.7 -0.196,-1.207 -0.224,-1.501 z m -0.002,-0.136 h -0.014 c -0.031,0 0.008,0.071 0.014,0.128 v 0.01 l 0.002,-0.002 -0.002,-0.008 z m 14.236,23.927003 -0.096,-0.148 c -0.023,-0.034 -0.034,-0.077 -0.045,-0.069 -0.175,0.113 -0.042,0.179 0.141,0.217 0.088,0.13599 0.211,0.32299 0.361,0.534 0.161,0.226 0.341,0.485 0.548,0.724 0.597,0.69 1.278,1.295 1.278,1.295 a 0.772,0.772 0 0 0 1.181,-0.992 c 0,0 -0.478,-0.775 -1.055,-1.483 -0.2,-0.244 -0.424,-0.467 -0.619,-0.664 -0.263,-0.267 -0.487,-0.469 -0.593,-0.569 -0.303,-0.28701 -0.467,-0.039 -0.555,0.305 -0.011,-0.695 -0.351,-0.669 -0.598,-0.461 a 0.77,0.77 0 0 0 -0.094,1.086 l 0.59,0.275 c 0,0 -0.25,-0.009 -0.444,-0.05 z m -3.816,0.88599 -0.06,-0.162 c -0.018,-0.048 -0.02,-0.103 -0.036,-0.097 -0.23,0.085 -0.106,0.181 0.096,0.259 0.072,0.193 0.177,0.476 0.311,0.80201 0.133,0.32299 0.28,0.69199 0.458,1.048 a 25.231,25.231 0 0 0 1.131,1.992 0.772,0.772 0 0 0 1.387,-0.675 c 0,0 -0.379,-1.082 -0.869,-2.119 -0.17,-0.36 -0.369,-0.704 -0.542,-1.008 -0.231,-0.409 -0.435,-0.73 -0.529,-0.886 -0.229,-0.379 -0.432,-0.049 -0.569,0.332 0.16,-0.859 -0.208,-0.939 -0.522,-0.786 a 0.77,0.77 0 0 0 -0.356,1.03 l 0.694,0.434 c 0,0 -0.353,-0.07 -0.594,-0.16401 z m -3.332,1.33701 -0.063,-0.175 c -0.014,-0.036 -0.015,-0.077 -0.027,-0.073 -0.225,0.082 -0.107,0.173 0.09,0.248 0.051,0.14 0.12,0.328 0.208,0.54 0.099,0.239 0.209,0.512 0.348,0.771 0.404,0.75 0.907,1.433 0.907,1.433 a 0.772,0.772 0 0 0 1.369,-0.71 c 0,0 -0.268,-0.805 -0.648,-1.567 -0.132,-0.263 -0.292,-0.51 -0.43,-0.728 -0.187,-0.296 -0.352,-0.523 -0.428,-0.635 -0.234,-0.34 -0.416,-0.086 -0.54,0.257 0.096,-0.752 -0.253,-0.809 -0.549,-0.656 a 0.77,0.77 0 0 0 -0.329,1.039 l 0.684,0.417 c 0,0 -0.354,-0.069 -0.592,-0.161 z"
     id="path6"
     style="display:inline" />
  <path
     d="m 66.981138,80.286367 c 0,0 -0.555,8.471 11.333,32.667003"
     fill="none"
     stroke="#000000"
     stroke-width="2.09"
     stroke-linecap="square"
     stroke-miterlimit="1.5"
     id="path7-7"
     style="display:inline" />
  <path
     d="m 74.796138,114.88836 -0.101,-0.137 c -0.026,-0.036 -0.041,-0.081 -0.053,-0.072 -0.162,0.119 -0.025,0.179 0.154,0.209 0.104,0.143 0.253,0.345 0.434,0.573 0.188,0.235 0.398,0.505 0.633,0.753 0.68,0.717 1.44,1.346 1.44,1.346 a 0.772,0.772 0 0 0 1.134,-1.046 c 0,0 -0.566,-0.808 -1.227,-1.543 -0.228,-0.255 -0.481,-0.486 -0.7,-0.691 -0.296,-0.277 -0.547,-0.487 -0.665,-0.59 -0.32,-0.28 -0.481,-0.021 -0.561,0.33 -0.026,-0.699 -0.366,-0.658 -0.604,-0.439 a 0.772,0.772 0 0 0 -0.043,1.09 l 0.566,0.248 c 0,0 -0.225,0 -0.407,-0.031 z"
     id="path8-5"
     style="display:inline" />
  <path
     d="m 60.981138,111.92637 4.111,8.667"
     fill="none"
     stroke="#000000"
     stroke-width="2.09"
     stroke-linecap="square"
     stroke-miterlimit="1.5"
     id="path9-5"
     style="display:inline" />
  <path
     d="m 67.533138,116.89736 -0.069,-0.158 c -0.021,-0.047 -0.026,-0.102 -0.041,-0.095 -0.218,0.095 -0.09,0.185 0.11,0.253 0.082,0.19 0.202,0.467 0.354,0.785 0.15,0.316 0.318,0.677 0.515,1.022 0.569,0.99801 1.238,1.93001 1.238,1.93001 a 0.772,0.772 0 0 0 1.349,-0.749 c 0,0 -0.438,-1.06 -0.984,-2.071 -0.19,-0.35 -0.407,-0.683 -0.596,-0.978 -0.254,-0.396 -0.475,-0.706 -0.577,-0.857 -0.249,-0.365 -0.442,-0.046 -0.568,0.333 0.122,-0.838 -0.244,-0.895 -0.546,-0.727 a 0.772,0.772 0 0 0 -0.3,1.049 l 0.674,0.396 c 0,0 -0.328,-0.052 -0.559,-0.13301 z m 3.997,-0.365 -0.094,-0.14799 c -0.024,-0.037 -0.035,-0.082 -0.048,-0.074 -0.177,0.114 -0.043,0.182 0.142,0.22199 0.094,0.146 0.225,0.351 0.387,0.583 0.17,0.243 0.359,0.521 0.576,0.779 a 18.06,18.06 0 0 0 1.335,1.408 0.771,0.771 0 1 0 1.195,-0.974 c 0,0 -0.505,-0.83 -1.109,-1.592 -0.209,-0.264 -0.443,-0.506 -0.647,-0.721 -0.274,-0.29 -0.508,-0.51 -0.618,-0.619 -0.302,-0.299 -0.468,-0.037 -0.559,0.316 0.002,-0.72 -0.343,-0.701 -0.596,-0.495 a 0.771,0.771 0 0 0 -0.111,1.085 l 0.598,0.284 c 0,0 -0.254,-0.011 -0.451,-0.054 z"
     id="path10-6"
     style="display:inline" />
  <use
     height="6.75"
     transform="matrix(2,0,0,2,61.841,50)"
     width="22.200001"
     xlink:href="#k"
     id="use22"
     style="display:inline" />
  <g
     id="gikopoipoi_eyes_closed"
     style="display:none"
     fill="none"
     stroke="#000"
     stroke-linecap="round"
     stroke-linejoin="round">
    <path
       d="M107.76 43.4h6.3"
       stroke-width="3"
       id="path22" />
    <path
       d="M-.05 1.55H3.1"
       stroke-width="1.5"
       style="display:inline"
       transform="matrix(2 0 0 2 74.019 40.3)"
       id="path23" />
  </g>
  <path
     d="m 76.76,40.3 h 0.4 l 1.11,0.2 0.905,0.7 q 0.905,0.9 0.905,2 l -0.905,2.3 q -0.907,0.8 -2.012,0.8 l -1.61,-0.4 -0.505,-0.4 -0.905,-1.4 v -0.3 l -0.1,-0.6 V 43 q 0.1,-1 1.005,-1.8 l 0.505,-0.4 q 0.502,-0.4 1.105,-0.5 h 0.1 m 0.907,1.7 -0.502,-0.1 q -0.705,-0.1 -1.108,0.4 -0.402,0.3 -0.402,0.9 v 0.3 l 0.3,0.9 h 0.102 l 0.1,0.1 0.403,0.2 0.605,0.1 1.105,-0.4 0.302,-1.2 -0.1,-0.6 -0.2,-0.3 -0.1,-0.1 -0.302,-0.2 h -0.203 m 32.936,-1.7 h 0.4 l 1.108,0.2 0.907,0.7 q 0.905,0.9 0.905,2 l -0.905,2.3 q -0.907,0.8 -2.013,0.8 l -1.61,-0.4 -0.504,-0.4 -0.905,-1.4 v -0.3 l -0.1,-0.6 V 43 q 0.1,-1 1.005,-1.8 l 0.504,-0.4 q 0.503,-0.4 1.106,-0.5 h 0.1 m 0.907,1.7 -0.503,-0.1 q -0.705,-0.1 -1.107,0.4 -0.403,0.3 -0.403,0.9 v 0.3 l 0.3,0.9 h 0.103 l 0.1,0.1 0.403,0.2 0.604,0.1 1.108,-0.4 0.3,-1.2 -0.1,-0.6 -0.2,-0.3 -0.1,-0.1 -0.303,-0.2 h -0.202"
     style="display:inline;stroke-width:2.0062"
     id="gikopoipoi_eyes_open"
     fill-rule="evenodd" />
  <use
     height="21.799999"
     transform="matrix(-1.9994,0,0,2,116.059,2)"
     width="34.799999"
     xlink:href="#l"
     id="use23"
     style="display:inline" />
</svg>
