<?xml version="1.0" encoding="UTF-8" standalone="no"?>
<svg
   height="195"
   width="160"
   version="1.1"
   id="svg23"
   sodipodi:docname="front-walking-1.svg"
   inkscape:version="1.3 (0e150ed6c4, 2023-07-21)"
   xmlns:inkscape="http://www.inkscape.org/namespaces/inkscape"
   xmlns:sodipodi="http://sodipodi.sourceforge.net/DTD/sodipodi-0.dtd"
   xmlns:xlink="http://www.w3.org/1999/xlink"
   xmlns="http://www.w3.org/2000/svg"
   xmlns:svg="http://www.w3.org/2000/svg">
  <sodipodi:namedview
     id="namedview23"
     pagecolor="#ffffff"
     bordercolor="#000000"
     borderopacity="0.25"
     inkscape:showpageshadow="2"
     inkscape:pageopacity="0.0"
     inkscape:pagecheckerboard="0"
     inkscape:deskcolor="#d1d1d1"
     inkscape:zoom="6.0564103"
     inkscape:cx="79.997883"
     inkscape:cy="97.5"
     inkscape:window-width="2560"
     inkscape:window-height="1377"
     inkscape:window-x="-8"
     inkscape:window-y="-8"
     inkscape:window-maximized="1"
     inkscape:current-layer="svg23" />
  <defs
     id="defs18">
    <g
       id="j"
       transform="translate(11.45 4.1)">
      <use
         height="2"
         transform="translate(-.85 -4.1)"
         width="11.6"
         xlink:href="#a"
         id="use1" />
      <use
         height="6.45"
         transform="translate(-11.45 -3.8)"
         width="5"
         xlink:href="#b"
         id="use2" />
    </g>
    <g
       id="k"
       transform="translate(123.2 9.5)">
      <use
         height="14.9"
         transform="translate(-103.9 -6.95)"
         width="15.5"
         xlink:href="#c"
         id="use3" />
      <use
         height="21.8"
         transform="translate(-123.2 -9.5)"
         width="31.45"
         xlink:href="#d"
         id="use4" />
    </g>
    <g
       id="i"
       fill-rule="evenodd">
      <path
         d="M4.9-4.95Q7-2.9 7 0q0 2.9-2.1 4.9Q2.9 7 0 7q-2.9 0-4.95-2.1Q-7 2.9-7 0q0-2.9 2.05-4.95Q-2.9-7 0-7q2.9 0 4.9 2.05"
         fill="url(#e)"
         transform="translate(7.75 7.55)"
         id="path4" />
      <path
         d="M.45-7.5q.5-.2.8.3.3.5-.15.75L.5-6.5H.4q-.45.3-.75-.25-.3-.6.15-.75l.5.05.15-.05m1.35.15q.5-.25.85.35.3.6-.15.9-.4.3-.8-.35-.35-.65.1-.9m1.55.85q.45-.35.8.2.4.5-.15.8-.55.3-.8-.2-.3-.5.15-.8m3.9 3.3q.25.5-.2.7-.45.3-.75-.25-.3-.6.15-.75.45-.15.8.3M5.1-4.3q-.3-.55.2-.85.45-.35.85.25.35.5-.2.85-.6.35-.85-.25M6.5-.85q-.35-.6.1-.85.45-.3.75.3.35.55-.05.9-.45.25-.8-.35M6.25 1.5Q5.9.85 6.5.4q.55-.4 1.05.3.5.65-.25 1.05-.7.4-1.05-.25m.65.8q.2.35-.15.55-.3.2-.45-.15-.2-.3.1-.5l.5.1M5.3 3.7q.55-.2.8.3.35.5-.15.75-.45.3-.8-.3-.3-.6.15-.75M1.55 7.25q-.55.3-.85-.2-.2-.55.2-.85.5-.3.85.2t-.2.85m1.9-.35q-.65.4-.95-.2-.35-.6.2-1 .5-.35.95.25.45.65-.2.95m.65-1.25q-.2-.35.05-.55.3-.15.5.2t-.1.55q-.25.15-.45-.2m-5.9-12.1q-.3.2-.5-.1l.15-.55.45.15q.25.3-.1.5m-1.65.75q-.5.3-.8-.2-.25-.45.15-.8.45-.25.8.2.4.5-.15.8m-.65.4q.35.6-.15.95-.45.35-.8-.35-.4-.65.1-.95.45-.25.85.35m-1.4 1.6q-.3.2-.5-.2-.15-.4.1-.45.35-.1.5.2.2.25-.1.45m-.65 1.15q.45.65-.25 1-.7.4-1-.25-.3-.65.25-1t1 .25M-6.5-.9q.45.6-.2.95-.6.35-.95-.2-.3-.6.2-1 .55-.35.95.25m-.8 2.6q-.35-.65.1-.95.5-.25.85.35.3.6-.15.95-.4.25-.8-.35m2.45 2.45q.35.55-.2.85-.55.3-.85-.2-.2-.55.2-.85.5-.3.85.2m-.7-.45q-.6.35-.95-.4-.4-.75.2-.95.6-.2.95.4.4.55-.2.95m1.05 1.35q.6-.45 1.1.25.5.7-.2 1.15-.75.4-1.1-.3-.4-.65.2-1.1M-.4 7.3q-.3.15-.45-.2-.2-.35.1-.4.25-.15.45.15.2.25-.1.45m-2 0q-.45.25-.75-.3-.35-.6.05-.85.45-.25.8.3.3.55-.1.85"
         fill="#fff"
         transform="translate(7.75 7.55)"
         id="path5" />
    </g>
    <g
       id="d">
      <path
         d="M-92.95 7.75q.95 1.6-.55 4.05-14.6-4-29.2-4.25l.5-4h.05-.05.05l29.2 4.2"
         fill="url(#f)"
         fill-rule="evenodd"
         transform="translate(123.2 9.5)"
         id="path6" />
      <path
         d="M-122.15 3.55Q-114.6-5.5-100.5-9q7.3 3 8.05 9.6.75 6.55-1.5 2.05-2.3-4.55-2-2.85l3 7.95-29.2-4.2"
         fill="url(#g)"
         fill-rule="evenodd"
         transform="translate(123.2 9.5)"
         id="path7" />
      <path
         d="M-92.95 7.75q.95 1.6-.55 4.05-14.6-4-29.2-4.25l.5-4h.05l29.2 4.2m-29.25-4.2h.05"
         fill="none"
         stroke="#fff"
         stroke-linecap="round"
         stroke-linejoin="round"
         transform="translate(123.2 9.5)"
         id="path8" />
      <path
         d="M-122.15 3.55Q-114.6-5.5-100.5-9q7.3 3 8.05 9.6.75 6.55-1.5 2.05-2.3-4.55-2-2.85l3 7.95z"
         fill="none"
         stroke="red"
         stroke-linecap="round"
         stroke-linejoin="round"
         transform="translate(123.2 9.5)"
         id="path9" />
    </g>
    <linearGradient
       gradientTransform="matrix(-.0157 -.0091 .0025 -.0044 -107.85 7.65)"
       gradientUnits="userSpaceOnUse"
       id="f"
       spreadMethod="pad"
       x1="-819.2"
       x2="819.2">
      <stop
         offset=".204"
         stop-color="#ccc"
         id="stop9" />
      <stop
         offset=".804"
         stop-color="#e7e7e7"
         id="stop10" />
      <stop
         offset="1"
         stop-color="#fff"
         id="stop11" />
    </linearGradient>
    <linearGradient
       gradientTransform="matrix(.0283 0 0 .0102 -104.45 -.65)"
       gradientUnits="userSpaceOnUse"
       id="g"
       spreadMethod="pad"
       x1="-819.2"
       x2="819.2">
      <stop
         offset=".004"
         stop-color="#fff"
         id="stop12" />
      <stop
         offset=".18"
         stop-color="#d10101"
         id="stop13" />
      <stop
         offset=".557"
         stop-color="#fe3636"
         id="stop14" />
      <stop
         offset=".906"
         stop-color="#fff"
         id="stop15" />
    </linearGradient>
    <path
       d="M10.25-2.6H.75l-1.1-1"
       fill="none"
       stroke="#333"
       stroke-linecap="round"
       stroke-linejoin="round"
       transform="translate(.85 4.1)"
       id="a" />
    <path
       d="m2-1.7-2 2 1.85 1.8M0 .3V.25v2.5M0 .3l-1.85 1.8M-2-1.7 0 .25V-2.7"
       fill="none"
       stroke="#fea5c0"
       stroke-linecap="round"
       stroke-linejoin="round"
       transform="translate(2.5 3.2)"
       id="h" />
    <use
       height="6.45"
       width="5"
       xlink:href="#h"
       id="b" />
    <use
       height="14.9"
       width="15.5"
       xlink:href="#i"
       id="c" />
    <radialGradient
       cx="0"
       cy="0"
       gradientTransform="translate(2.6 -.2) scale(.0086)"
       gradientUnits="userSpaceOnUse"
       id="e"
       r="819.2"
       spreadMethod="pad">
      <stop
         offset=".204"
         stop-color="#ccc"
         id="stop16" />
      <stop
         offset=".757"
         stop-color="#e7e7e7"
         id="stop17" />
      <stop
         offset="1"
         stop-color="#fff"
         id="stop18" />
    </radialGradient>
  </defs>
  <path
     d="m87.941 35 2.4 1.1 7.7-17.2 7.8 17.2 2.5-1.1 6.3 6.1 2.2 2.2-.7.8.2.2c2.8 2.733 4.333 5.767 4.6 9.1l.1 1.2c0 2.2-.533 4.267-1.6 6.2l-.5.9-2.8 3.4.2.2-.6.6-6.5 1.8v9.4l-6.5 1.4-6.3 1.8 1.3 3.2 6.7-2.5 6-1.2c2.067 0 3.5.4 4.3 1.2 1.067 1.067 1.6 2.4 1.6 4 0 1.467-.5 2.7-1.5 3.7-1.4 1.4-4.133 2.233-8.2 2.5l-2.5.1.7 3 3-.1-.1 5.5-3 2.5v17.5h-9.1v3.1h13.2c.933 0 1.7.267 2.3.8.733.733 1.1 1.833 1.1 3.3 0 1.4-.367 2.467-1.1 3.2-.6.6-1.367.9-2.3.9h-13.2v1.9h-19.5l-3.1 3V149c0 .933-.3 1.7-.9 2.3-.733.733-1.8 1.1-3.2 1.1-1.467 0-2.567-.367-3.3-1.1-.533-.6-.8-1.367-.8-2.3v-13.1h-3.1l-3.4-2.2-3.5-7.8v-4.8h.3v-3l.9-.8.4-.3 2.3-2.8-2.5-2-1.4 1.9.8-21.9 3.5-25.6.8.7 1.5-1.4-2-2.2c-1.933-2.467-2.933-5.133-3-8v-.5l.1-1.8c.467-3.067 2.1-5.9 4.9-8.5l-1.5-1.5 1-7.9 1.3.6 7.7-17.2 7.7 17.2 2.5-1.1h7.8m2.4 44.1c-1.4-1.4-3.567-2.1-6.5-2.1l-8 1.5-6.2 1.8 1.3 3.2 6.6-2.5c2.267-.8 4.267-1.2 6-1.2 2.067 0 3.5.4 4.3 1.2 1.067 1.067 1.6 2.4 1.6 4 0 1.467-.5 2.7-1.5 3.7-1.4 1.4-4.1 2.233-8.1 2.5l-2.6.1.7 3c5.267-.067 9.2-1.1 11.8-3.1l.8-.7c1.333-1.333 2-3.233 2-5.7 0-2.4-.733-4.3-2.2-5.7"
     fill="#fff"
     fill-rule="evenodd"
     id="path18" />
  <path
     d="m108.341 35-2.5 1.1-7.8-17.2-7.7 17.2-2.4-1.1 10.1-22 10.3 22m-28.2 0-2.5 1.1-7.7-17.2-7.7 17.2-1.3-.6-1.1-.5 10.1-22 10.2 22m-20.2 8.4 1.5 1.5c-2.8 2.6-4.433 5.433-4.9 8.5l-.1 1.8v.5c.067 2.867 1.067 5.533 3 8l2 2.2-1.5 1.4-.8-.7-1.2-1.4-1.5-2.1c-1.467-2.333-2.167-4.9-2.1-7.7l.1-2c.267-2 .933-3.9 2-5.7l3.5-4.3m-5.1 70.7 1.4-1.9 2.5 2-2.3 2.8-.4.3-.9.8c-.933.6-2 .9-3.2.9-1.267 0-3.033-.733-5.3-2.2-1.6-.867-2.867-1.3-3.8-1.3-1.2 0-2.067.367-2.6 1.1l-.3.4-.9 1.5-2.7-1.5a8.963 8.963 0 0 1 2.4-3.3l1.2-.9 2.7-.7c1.467 0 2.967.533 4.5 1.6 2.2 1.133 3.9 1.7 5.1 1.7.8 0 1.667-.433 2.6-1.3m6.9 21.8h3.1V149c0 .933.267 1.7.8 2.3.733.733 1.833 1.1 3.3 1.1 1.4 0 2.467-.367 3.2-1.1.6-.6.9-1.367.9-2.3v-13.1h3v13.2c0 1.667-.533 3.033-1.6 4.1-1.2 1.2-3.033 1.8-5.5 1.8-2.533 0-4.4-.6-5.6-1.8-1.067-1.067-1.6-2.433-1.6-4.1v-13.2m33.9-3V131h13.2c.933 0 1.7-.3 2.3-.9.733-.733 1.1-1.8 1.1-3.2 0-1.467-.367-2.567-1.1-3.3-.6-.533-1.367-.8-2.3-.8h-13.2v-3.1h13.3c1.667 0 3.033.533 4.1 1.6 1.2 1.2 1.8 3.067 1.8 5.6 0 2.467-.6 4.3-1.8 5.5l-.6.5c-1 .733-2.167 1.1-3.5 1.1h-13.3v-1.1m12.2-38.7-3 .1-.7-3 2.5-.1c4.067-.267 6.8-1.1 8.2-2.5 1-1 1.5-2.233 1.5-3.7 0-1.6-.533-2.933-1.6-4-.8-.8-2.233-1.2-4.3-1.2l-6 1.2-6.7 2.5-1.3-3.2 6.3-1.8 6.5-1.4 1.5-.1c2.933 0 5.1.7 6.5 2.1 1.467 1.4 2.2 3.3 2.2 5.7 0 2.467-.667 4.367-2 5.7l-.8.7c-2.133 1.6-5.067 2.6-8.8 3m8.5-28.9-.2-.2 2.8-3.4.5-.9c1.067-1.933 1.6-4 1.6-6.2l-.1-1.2c-.267-3.333-1.8-6.367-4.6-9.1l-.2-.2.7-.8h.1l.6-.7c3.4 3.133 5.233 6.733 5.5 10.8l.1 1.2c0 2.533-.6 4.9-1.8 7.1-.933 1.667-2.2 3.267-3.8 4.8l-1.2-1.2m-26 13.8c1.467 1.4 2.2 3.3 2.2 5.7 0 2.467-.667 4.367-2 5.7l-.8.7c-2.6 2-6.533 3.033-11.8 3.1l-.7-3 2.6-.1c4-.267 6.7-1.1 8.1-2.5 1-1 1.5-2.233 1.5-3.7 0-1.6-.533-2.933-1.6-4-.8-.8-2.233-1.2-4.3-1.2-1.733 0-3.733.4-6 1.2l-6.6 2.5-1.3-3.2 6.2-1.8 8-1.5c2.933 0 5.1.7 6.5 2.1"
     fill="#333"
     fill-rule="evenodd"
     id="path19" />
  <path
     d="m116.841 43.3-2.2-2.2 2.3 2.2h-.1"
     fill="red"
     fill-rule="evenodd"
     id="path20" />
  <path
     d="M87.941 35h-7.8m24.6 79.3v-12.1m12.1-58.9-2.2-2.2"
     fill="none"
     stroke="#333"
     stroke-linecap="round"
     stroke-linejoin="round"
     stroke-width="2"
     id="path21" />
  <use
     height="6.75"
     transform="matrix(2.0024 0 0 2 61.615 50)"
     width="22.2"
     xlink:href="#j"
     id="use21" />
  <path
     d="M76.76 40.3h.4l1.11.2.905.7q.905.9.905 2l-.905 2.3q-.907.8-2.012.8l-1.61-.4-.505-.4-.905-1.4v-.3l-.1-.6V43q.1-1 1.005-1.8l.505-.4q.502-.4 1.105-.5h.1m.907 1.7-.502-.1q-.705-.1-1.108.4-.402.3-.402.9v.3l.3.9h.102l.1.1.403.2.605.1 1.105-.4.302-1.2-.1-.6-.2-.3-.1-.1-.302-.2h-.203m32.936-1.7h.4l1.108.2.907.7q.905.9.905 2l-.905 2.3q-.907.8-2.013.8l-1.61-.4-.504-.4-.905-1.4v-.3l-.1-.6V43q.1-1 1.005-1.8l.504-.4q.503-.4 1.106-.5h.1m.907 1.7-.503-.1q-.705-.1-1.107.4-.403.3-.403.9v.3l.3.9h.103l.1.1.403.2.604.1 1.108-.4.3-1.2-.1-.6-.2-.3-.1-.1-.303-.2h-.202"
     style="stroke-width:2.0062"
     id="gikopoipoi_eyes_open"
     fill-rule="evenodd" />
  <g
     id="gikopoipoi_eyes_closed"
     style="display:none"
     fill="none"
     stroke="#000"
     stroke-linecap="round"
     stroke-linejoin="round">
    <path
       d="M107.76 43.4h6.3"
       stroke-width="3"
       id="path22" />
    <path
       d="M-.05 1.55H3.1"
       stroke-width="1.5"
       style="display:inline"
       transform="matrix(2 0 0 2 74.019 40.3)"
       id="path23" />
  </g>
  <use
     height="21.8"
     transform="matrix(-1.9994 0 0 2 117.059 2)"
     width="34.8"
     xlink:href="#k"
     id="use23" />
  <path
     d="m 21.640137,90.219491 a 0.76,0.76 0 0 0 -0.103,-0.044 c -0.165,-0.058 -0.504,-0.186 -0.933,-0.324 -0.318,-0.102 -0.679,-0.218 -1.048,-0.309 a 8.783,8.783 0 0 0 -0.643,-0.127 c -0.832,-0.137 -1.522,-0.203 -1.522,-0.203 -0.827,-0.16 -1.112,1.053 -0.301,1.278 0,0 0.648,0.249 1.453,0.497 0.203,0.063 0.416,0.125 0.632,0.173 0.371,0.084 0.746,0.141 1.076,0.191 0.713,0.109 1.239,0.157 1.239,0.157 0.203,0.065 0.557,-0.154 0.64,-0.506 a 0.657,0.657 0 0 0 -0.489,-0.79 z"
     id="path4-9"
     style="display:inline" />
  <path
     d="m 68.490137,67.60149 47.750003,-1.375 2.99999,1.625 -0.375,2.25 -1.375,1.75 1.25,2.25 0.125,4.375 -1.5,0.75 -5.62499,-2 -5.875,1.25 -7.124998,2 -8,-0.25 -4.000005,-3 -6.5,1 -4.625,1.875 -4.625,0.625 -3.875,1.75 -5.625,1 -9.875,1.75 -3.25,1.875001 -4.375,3.875 -3.375,3.5 -3.75,3.25 -3.5,2 -4.25,1.374999 -3,-0.25 -2.875,-0.75 -1.375,-2.499999 -1.875,-3.375 -0.75,-4 2,-3.25 3.75,-0.75 -0.5,-3.500001 -0.25,-3.5 3.5,-1.5 4,-2.875 4.25,-3 4.5,-2.125 4.75,-1.125 4.75,1 3.125,-3.375 4.375,-0.75 4.125,0.125 3.625,1 z"
     fill="#c90000"
     id="path5-6"
     style="display:inline" />
  <path
     d="m 22.071137,93.581491 a 0.708,0.708 0 0 0 -0.098,-0.031 c -0.157,-0.039 -0.48,-0.127 -0.887,-0.213 a 13.504,13.504 0 0 0 -0.993,-0.186 7.43,7.43 0 0 0 -0.603,-0.051 c -0.778,-0.04 -1.418,-0.025 -1.418,-0.025 a 0.65657787,0.65657787 0 1 0 -0.163,1.303 c 0,0 0.617,0.172 1.381,0.324 0.193,0.039 0.394,0.076 0.597,0.099 0.349,0.04 0.699,0.053 1.008,0.065 0.632,0.024 1.095,0.017 1.095,0.017 0.278,0.04 0.607,-0.216 0.652,-0.575 a 0.657,0.657 0 0 0 -0.57,-0.733 z m 1.234,2.997 a 0.92,0.92 0 0 0 -0.092,-0.027 c -0.148,-0.034 -0.451,-0.111 -0.834,-0.185 -0.283,-0.055 -0.604,-0.118 -0.931,-0.154 a 6.063,6.063 0 0 0 -0.565,-0.033 c -0.729,-0.016 -1.327,0.019 -1.327,0.019 a 0.657,0.657 0 1 0 -0.131,1.307 c 0,0 0.579,0.152 1.297,0.281 0.181,0.032 0.37,0.063 0.561,0.08 0.327,0.029 0.654,0.031 0.943,0.033 0.587,0.004 1.014,-0.016 1.014,-0.016 0.296,0.033 0.618,-0.231 0.654,-0.591 a 0.657,0.657 0 0 0 -0.588,-0.719 z m 2.296,-14.619001 a 0.811,0.811 0 0 0 -0.088,-0.033 c -0.141,-0.043 -0.43,-0.141 -0.798,-0.24 -0.272,-0.074 -0.58,-0.158 -0.896,-0.216 a 6.279,6.279 0 0 0 -0.548,-0.071 c -0.709,-0.064 -1.294,-0.07 -1.294,-0.07 a 0.657,0.657 0 0 0 -0.223,1.294 c 0,0 0.553,0.191 1.243,0.368 0.173,0.044 0.355,0.087 0.54,0.117 0.316,0.051 0.635,0.075 0.916,0.096 0.599,0.046 1.037,0.054 1.037,0.054 0.246,0.052 0.586,-0.188 0.647,-0.545 a 0.657,0.657 0 0 0 -0.535,-0.759 z"
     id="path6-5"
     style="display:inline" />
  <path
     d="m 50.240137,69.47649 c 0,0 -7.875,-2.125 -12.5,1.5 0,0 -2.125,1.375 -7.875,5.625 0,0 -4.125,3.75 -6.875,2.125 m 49,1.25 c 0,0 -4.375,3.875 -11.625,3.25 m -42.875,3.250001 c 0,0 5.828,1.37 11.25,-2.500001 3.921,-2.798 8.625,-10.125 14.5,-10.625 0,0 6.125,-0.125 7.25,-1.625"
     fill="none"
     stroke="#000000"
     stroke-width="2.1"
     stroke-miterlimit="1.5"
     id="path7-6"
     style="display:inline" />
  <path
     d="m 67.365137,67.60149 c 0,0 37.625003,0 48.875003,-1.75 0,0 2.49999,0.5 2.62499,2.25 0.125,1.75 0.375,1.5 -1.5,3.75 0,0 2.25,2.875 1.25,6.5 l -2.24999,0.75 c 0,0 -0.447,-1.704 -3.083,-2.264 -1.54501,-0.328 -6.292,0.889 -6.292,0.889 l -8.624998,3.25 -6.75,0.125 c 0,0 -1.36701,-2.598 -2.22801,-3.23 -0.909995,-0.667 -4.979995,-0.451 -4.979995,-0.451 l -8.292,1.931 -4.125,1.25 c 0,0 2.125,-4 0,-8 0,0 -0.375,-2 -4.625,-5 -4.25,-3 -12.625,-1.875 -12.625,-1.875 0,0 -2.75,0.25 -4.5,2.875 l -0.25,3.375 c 0,0 1.875,-1.625 3.75,-1.125 1.875,0.5 11.25,2.625 10.625,8 0,0 0,4 -6.375,4.875 0,0 -6.375,-0.5 -12.75,5.625001 0,0 -4.125,6.75 -11.5,10.125 0,0 -4.5,2.999999 -10.5,0.749999"
     fill="none"
     stroke="#000000"
     stroke-width="2.1"
     stroke-miterlimit="1.5"
     id="path8-2"
     style="display:inline" />
</svg>
