<?xml version="1.0" encoding="UTF-8" standalone="no"?>
<svg
   height="195"
   width="160"
   version="1.1"
   id="svg23"
   sodipodi:docname="front-walking-2.svg"
   inkscape:version="1.3 (0e150ed6c4, 2023-07-21)"
   xmlns:inkscape="http://www.inkscape.org/namespaces/inkscape"
   xmlns:sodipodi="http://sodipodi.sourceforge.net/DTD/sodipodi-0.dtd"
   xmlns:xlink="http://www.w3.org/1999/xlink"
   xmlns="http://www.w3.org/2000/svg"
   xmlns:svg="http://www.w3.org/2000/svg">
  <sodipodi:namedview
     id="namedview23"
     pagecolor="#ffffff"
     bordercolor="#000000"
     borderopacity="0.25"
     inkscape:showpageshadow="2"
     inkscape:pageopacity="0.0"
     inkscape:pagecheckerboard="0"
     inkscape:deskcolor="#d1d1d1"
     inkscape:zoom="6.0564103"
     inkscape:cx="79.997883"
     inkscape:cy="97.5"
     inkscape:window-width="2560"
     inkscape:window-height="1377"
     inkscape:window-x="-8"
     inkscape:window-y="-8"
     inkscape:window-maximized="1"
     inkscape:current-layer="svg23" />
  <defs
     id="defs18">
    <g
       id="j"
       transform="translate(11.45 4.1)">
      <use
         height="2"
         transform="translate(-.85 -4.1)"
         width="11.6"
         xlink:href="#a"
         id="use1" />
      <use
         height="6.45"
         transform="translate(-11.45 -3.8)"
         width="5"
         xlink:href="#b"
         id="use2" />
    </g>
    <g
       id="k"
       transform="translate(123.2 9.5)">
      <use
         height="14.9"
         transform="translate(-103.9 -6.95)"
         width="15.5"
         xlink:href="#c"
         id="use3" />
      <use
         height="21.8"
         transform="translate(-123.2 -9.5)"
         width="31.45"
         xlink:href="#d"
         id="use4" />
    </g>
    <g
       id="i"
       fill-rule="evenodd">
      <path
         d="M4.9-4.95Q7-2.9 7 0q0 2.9-2.1 4.9Q2.9 7 0 7q-2.9 0-4.95-2.1Q-7 2.9-7 0q0-2.9 2.05-4.95Q-2.9-7 0-7q2.9 0 4.9 2.05"
         fill="url(#e)"
         transform="translate(7.75 7.55)"
         id="path4" />
      <path
         d="M.45-7.5q.5-.2.8.3.3.5-.15.75L.5-6.5H.4q-.45.3-.75-.25-.3-.6.15-.75l.5.05.15-.05m1.35.15q.5-.25.85.35.3.6-.15.9-.4.3-.8-.35-.35-.65.1-.9m1.55.85q.45-.35.8.2.4.5-.15.8-.55.3-.8-.2-.3-.5.15-.8m3.9 3.3q.25.5-.2.7-.45.3-.75-.25-.3-.6.15-.75.45-.15.8.3M5.1-4.3q-.3-.55.2-.85.45-.35.85.25.35.5-.2.85-.6.35-.85-.25M6.5-.85q-.35-.6.1-.85.45-.3.75.3.35.55-.05.9-.45.25-.8-.35M6.25 1.5Q5.9.85 6.5.4q.55-.4 1.05.3.5.65-.25 1.05-.7.4-1.05-.25m.65.8q.2.35-.15.55-.3.2-.45-.15-.2-.3.1-.5l.5.1M5.3 3.7q.55-.2.8.3.35.5-.15.75-.45.3-.8-.3-.3-.6.15-.75M1.55 7.25q-.55.3-.85-.2-.2-.55.2-.85.5-.3.85.2t-.2.85m1.9-.35q-.65.4-.95-.2-.35-.6.2-1 .5-.35.95.25.45.65-.2.95m.65-1.25q-.2-.35.05-.55.3-.15.5.2t-.1.55q-.25.15-.45-.2m-5.9-12.1q-.3.2-.5-.1l.15-.55.45.15q.25.3-.1.5m-1.65.75q-.5.3-.8-.2-.25-.45.15-.8.45-.25.8.2.4.5-.15.8m-.65.4q.35.6-.15.95-.45.35-.8-.35-.4-.65.1-.95.45-.25.85.35m-1.4 1.6q-.3.2-.5-.2-.15-.4.1-.45.35-.1.5.2.2.25-.1.45m-.65 1.15q.45.65-.25 1-.7.4-1-.25-.3-.65.25-1t1 .25M-6.5-.9q.45.6-.2.95-.6.35-.95-.2-.3-.6.2-1 .55-.35.95.25m-.8 2.6q-.35-.65.1-.95.5-.25.85.35.3.6-.15.95-.4.25-.8-.35m2.45 2.45q.35.55-.2.85-.55.3-.85-.2-.2-.55.2-.85.5-.3.85.2m-.7-.45q-.6.35-.95-.4-.4-.75.2-.95.6-.2.95.4.4.55-.2.95m1.05 1.35q.6-.45 1.1.25.5.7-.2 1.15-.75.4-1.1-.3-.4-.65.2-1.1M-.4 7.3q-.3.15-.45-.2-.2-.35.1-.4.25-.15.45.15.2.25-.1.45m-2 0q-.45.25-.75-.3-.35-.6.05-.85.45-.25.8.3.3.55-.1.85"
         fill="#fff"
         transform="translate(7.75 7.55)"
         id="path5" />
    </g>
    <g
       id="d">
      <path
         d="M-92.95 7.75q.95 1.6-.55 4.05-14.6-4-29.2-4.25l.5-4h.05-.05.05l29.2 4.2"
         fill="url(#f)"
         fill-rule="evenodd"
         transform="translate(123.2 9.5)"
         id="path6" />
      <path
         d="M-122.15 3.55Q-114.6-5.5-100.5-9q7.3 3 8.05 9.6.75 6.55-1.5 2.05-2.3-4.55-2-2.85l3 7.95-29.2-4.2"
         fill="url(#g)"
         fill-rule="evenodd"
         transform="translate(123.2 9.5)"
         id="path7" />
      <path
         d="M-92.95 7.75q.95 1.6-.55 4.05-14.6-4-29.2-4.25l.5-4h.05l29.2 4.2m-29.25-4.2h.05"
         fill="none"
         stroke="#fff"
         stroke-linecap="round"
         stroke-linejoin="round"
         transform="translate(123.2 9.5)"
         id="path8" />
      <path
         d="M-122.15 3.55Q-114.6-5.5-100.5-9q7.3 3 8.05 9.6.75 6.55-1.5 2.05-2.3-4.55-2-2.85l3 7.95z"
         fill="none"
         stroke="red"
         stroke-linecap="round"
         stroke-linejoin="round"
         transform="translate(123.2 9.5)"
         id="path9" />
    </g>
    <linearGradient
       gradientTransform="matrix(-.0157 -.0091 .0025 -.0044 -107.85 7.65)"
       gradientUnits="userSpaceOnUse"
       id="f"
       spreadMethod="pad"
       x1="-819.2"
       x2="819.2">
      <stop
         offset=".204"
         stop-color="#ccc"
         id="stop9" />
      <stop
         offset=".804"
         stop-color="#e7e7e7"
         id="stop10" />
      <stop
         offset="1"
         stop-color="#fff"
         id="stop11" />
    </linearGradient>
    <linearGradient
       gradientTransform="matrix(.0283 0 0 .0102 -104.45 -.65)"
       gradientUnits="userSpaceOnUse"
       id="g"
       spreadMethod="pad"
       x1="-819.2"
       x2="819.2">
      <stop
         offset=".004"
         stop-color="#fff"
         id="stop12" />
      <stop
         offset=".18"
         stop-color="#d10101"
         id="stop13" />
      <stop
         offset=".557"
         stop-color="#fe3636"
         id="stop14" />
      <stop
         offset=".906"
         stop-color="#fff"
         id="stop15" />
    </linearGradient>
    <path
       d="M10.25-2.6H.75l-1.1-1"
       fill="none"
       stroke="#333"
       stroke-linecap="round"
       stroke-linejoin="round"
       transform="translate(.85 4.1)"
       id="a" />
    <path
       d="m2-1.7-2 2 1.85 1.8M0 .3V.25v2.5M0 .3l-1.85 1.8M-2-1.7 0 .25V-2.7"
       fill="none"
       stroke="#fea5c0"
       stroke-linecap="round"
       stroke-linejoin="round"
       transform="translate(2.5 3.2)"
       id="h" />
    <use
       height="6.45"
       width="5"
       xlink:href="#h"
       id="b" />
    <use
       height="14.9"
       width="15.5"
       xlink:href="#i"
       id="c" />
    <radialGradient
       cx="0"
       cy="0"
       gradientTransform="translate(2.6 -.2) scale(.0086)"
       gradientUnits="userSpaceOnUse"
       id="e"
       r="819.2"
       spreadMethod="pad">
      <stop
         offset=".204"
         stop-color="#ccc"
         id="stop16" />
      <stop
         offset=".757"
         stop-color="#e7e7e7"
         id="stop17" />
      <stop
         offset="1"
         stop-color="#fff"
         id="stop18" />
    </radialGradient>
  </defs>
  <path
     d="m87.941 35 2.4 1.1 7.7-17.2 7.8 17.2 2.5-1.1 6.3 6.1 2.2 2.2-.7.8.2.2c2.8 2.733 4.333 5.767 4.6 9.1l.1 1.2c0 2.2-.533 4.267-1.6 6.2l-.5.9-2.8 3.4.2.2-.6.6-6.5 1.8v9.4l-6.5 1.4-6.3 1.8 1.3 3.2 6.7-2.5 6-1.2c2.067 0 3.5.4 4.3 1.2 1.067 1.067 1.6 2.4 1.6 4 0 1.467-.5 2.7-1.5 3.7-1.4 1.4-4.133 2.233-8.2 2.5l-2.5.1.7 3 3-.1-.1 5.5-3 2.5v24.5l-1.7 9.2h-3.1V149c0 .933-.3 1.7-.9 2.3-.733.733-1.8 1.1-3.2 1.1-1.467 0-2.567-.367-3.3-1.1-.533-.6-.8-1.367-.8-2.3v-13.1h-3.1l-1.8-2.6c.667-1.2 1-2.7 1-4.5v-.5c-.067-2.267-.667-3.967-1.8-5.1-1.067-1.067-2.433-1.6-4.1-1.6h-13.2v3.1h13.1c.933 0 1.7.267 2.3.8.667.667 1.033 1.7 1.1 3.1l-.3 1.8h.1l-.1.5-.8 1.1c-.6.6-1.367.9-2.3.9h-13.1v3l-3.6.1v-.1h-3.1l-3.4-2.2-3.5-7.8v-7.8l.9-.8.4-.3 2.3-2.8-2.5-2-1.4 1.9.8-21.9 3.5-25.6.8.7 1.5-1.4-2-2.2c-1.933-2.467-2.933-5.133-3-8v-.5l.1-1.8c.467-3.067 2.1-5.9 4.9-8.5l-1.5-1.5 1-7.9 1.3.6 7.7-17.2 7.7 17.2 2.5-1.1h7.8m2.4 44.1c-1.4-1.4-3.567-2.1-6.5-2.1l-8 1.5-6.2 1.8 1.3 3.2 6.6-2.5c2.267-.8 4.267-1.2 6-1.2 2.067 0 3.5.4 4.3 1.2 1.067 1.067 1.6 2.4 1.6 4 0 1.467-.5 2.7-1.5 3.7-1.4 1.4-4.1 2.233-8.1 2.5l-2.6.1.7 3c5.267-.067 9.2-1.1 11.8-3.1l.8-.7c1.333-1.333 2-3.233 2-5.7 0-2.4-.733-4.3-2.2-5.7"
     fill="#fff"
     fill-rule="evenodd"
     id="path18" />
  <path
     d="m108.341 35-2.5 1.1-7.8-17.2-7.7 17.2-2.4-1.1 10.1-22 10.3 22m-28.2 0-2.5 1.1-7.7-17.2-7.7 17.2-1.3-.6-1.1-.5 10.1-22 10.2 22m-20.2 8.4 1.5 1.5c-2.8 2.6-4.433 5.433-4.9 8.5l-.1 1.8v.5c.067 2.867 1.067 5.533 3 8l2 2.2-1.5 1.4-.8-.7-1.2-1.4-1.5-2.1c-1.467-2.333-2.167-4.9-2.1-7.7l.1-2c.267-2 .933-3.9 2-5.7l3.5-4.3m-5.1 70.7 1.4-1.9 2.5 2-2.3 2.8-.4.3-.9.8c-.933.6-2 .9-3.2.9-1.267 0-3.033-.733-5.3-2.2-1.6-.867-2.867-1.3-3.8-1.3-1.2 0-2.067.367-2.6 1.1l-.3.4-.9 1.5-2.7-1.5a8.963 8.963 0 0 1 2.4-3.3l1.2-.9 2.7-.7c1.467 0 2.967.533 4.5 1.6 2.2 1.133 3.9 1.7 5.1 1.7.8 0 1.667-.433 2.6-1.3m13.9 21.8v-3h13.1c.933 0 1.7-.3 2.3-.9l.8-1.1.1-.5.2-1.6v-.2c-.067-1.4-.433-2.433-1.1-3.1-.6-.533-1.367-.8-2.3-.8h-13.1v-3.1h13.2c1.667 0 3.033.533 4.1 1.6 1.133 1.133 1.733 2.833 1.8 5.1v.5c0 1.8-.333 3.3-1 4.5l-.1.2-.7.8c-1 1.067-2.3 1.6-3.9 1.6h-13.4m19.9 0h3.1V149c0 .933.267 1.7.8 2.3.733.733 1.833 1.1 3.3 1.1 1.4 0 2.467-.367 3.2-1.1.6-.6.9-1.367.9-2.3v-13.1h3.1v13.2c0 1.667-.533 3.033-1.6 4.1-1.267 1.2-3.133 1.8-5.6 1.8-2.533 0-4.4-.6-5.6-1.8-1.067-1.067-1.6-2.433-1.6-4.1v-13.2m19.2-41.7-3 .1-.7-3 2.5-.1c4.067-.267 6.8-1.1 8.2-2.5 1-1 1.5-2.233 1.5-3.7 0-1.6-.533-2.933-1.6-4-.8-.8-2.233-1.2-4.3-1.2l-6 1.2-6.7 2.5-1.3-3.2 6.3-1.8 6.5-1.4 1.5-.1c2.933 0 5.1.7 6.5 2.1 1.467 1.4 2.2 3.3 2.2 5.7 0 2.467-.667 4.367-2 5.7l-.8.7c-2.133 1.6-5.067 2.6-8.8 3m8.5-28.9-.2-.2 2.8-3.4.5-.9c1.067-1.933 1.6-4 1.6-6.2l-.1-1.2c-.267-3.333-1.8-6.367-4.6-9.1l-.2-.2.7-.8h.1l.6-.7c3.4 3.133 5.233 6.733 5.5 10.8l.1 1.2c0 2.533-.6 4.9-1.8 7.1-.933 1.667-2.2 3.267-3.8 4.8l-1.2-1.2m-26 13.8c1.467 1.4 2.2 3.3 2.2 5.7 0 2.467-.667 4.367-2 5.7l-.8.7c-2.6 2-6.533 3.033-11.8 3.1l-.7-3 2.6-.1c4-.267 6.7-1.1 8.1-2.5 1-1 1.5-2.233 1.5-3.7 0-1.6-.533-2.933-1.6-4-.8-.8-2.233-1.2-4.3-1.2-1.733 0-3.733.4-6 1.2l-6.6 2.5-1.3-3.2 6.2-1.8 8-1.5c2.933 0 5.1.7 6.5 2.1"
     fill="#333"
     fill-rule="evenodd"
     id="path19" />
  <path
     d="m116.841 43.3-2.2-2.2 2.3 2.2h-.1"
     fill="red"
     fill-rule="evenodd"
     id="path20" />
  <path
     d="M87.941 35h-7.8m24.6 91.7v-24.5m12.1-58.9-2.2-2.2"
     fill="none"
     stroke="#333"
     stroke-linecap="round"
     stroke-linejoin="round"
     stroke-width="2"
     id="path21" />
  <use
     height="6.75"
     transform="matrix(2.0024 0 0 2 61.615 50)"
     width="22.2"
     xlink:href="#j"
     id="use21" />
  <path
     d="M76.76 40.3h.4l1.11.2.905.7q.905.9.905 2l-.905 2.3q-.907.8-2.012.8l-1.61-.4-.505-.4-.905-1.4v-.3l-.1-.6V43q.1-1 1.005-1.8l.505-.4q.502-.4 1.105-.5h.1m.907 1.7-.502-.1q-.705-.1-1.108.4-.402.3-.402.9v.3l.3.9h.102l.1.1.403.2.605.1 1.105-.4.302-1.2-.1-.6-.2-.3-.1-.1-.302-.2h-.203m32.936-1.7h.4l1.108.2.907.7q.905.9.905 2l-.905 2.3q-.907.8-2.013.8l-1.61-.4-.504-.4-.905-1.4v-.3l-.1-.6V43q.1-1 1.005-1.8l.504-.4q.503-.4 1.106-.5h.1m.907 1.7-.503-.1q-.705-.1-1.107.4-.403.3-.403.9v.3l.3.9h.103l.1.1.403.2.604.1 1.108-.4.3-1.2-.1-.6-.2-.3-.1-.1-.303-.2h-.202"
     style="stroke-width:2.0062"
     id="gikopoipoi_eyes_open"
     fill-rule="evenodd" />
  <g
     id="gikopoipoi_eyes_closed"
     style="display:none"
     fill="none"
     stroke="#000"
     stroke-linecap="round"
     stroke-linejoin="round">
    <path
       d="M107.76 43.4h6.3"
       stroke-width="3"
       id="path22" />
    <path
       d="M-.05 1.55H3.1"
       stroke-width="1.5"
       style="display:inline"
       transform="matrix(2 0 0 2 74.019 40.3)"
       id="path23" />
  </g>
  <use
     height="21.8"
     transform="matrix(-1.9994 0 0 2 117.059 2)"
     width="34.8"
     xlink:href="#k"
     id="use23" />
  <path
     d="m 68.921648,67.644946 46.857012,-1.714 2.572,0.571 0.571,2.286 -0.428,2.143 -0.572,1.143 0.715,3 0.142,3.143 -1.285,1.143 -4.286,-3 -5,0.714 -8,2.571 -2.000008,1.143001 -6.857,0.429 -2.429004,-3.429001 -4.714,-0.571 -7.286,1.143 -4.857,2.428001 -5.714,2 -5.714,-0.571 -8.572,2.857 -6.571,2.857 -5,2.714 -7,0.429 -7.286,-1.429 -6.143,-3.571 1.429,-4.429 3.143,-2.000001 1.142,-3.285 2.858,-1.429 2.857,-2.857 2.285,-1.857 9.715,-2 3.143,-2 4.285,1.428 3.715,-1.857 4.714,-0.428 4.714,0.571 z"
     fill="#c90000"
     id="path4-6"
     style="display:inline" />
  <path
     d="m 72.570648,80.143946 c 0,0 -4.518,3.875001 -11.768,2.250001"
     fill="none"
     stroke="#000000"
     stroke-width="2.1"
     stroke-miterlimit="1.5"
     id="path5-9" />
  <path
     d="m 50.921648,67.501946 c 0,0 -0.857,-2.285 -5.857,-0.571 0,0 -5.714,3.714 -11.286,2.857 m 16.572,-0.286 c 0,0 -9.572,6.715 -13.143,6.715 0,0 -6.429,1.428 -9.143,-2.286"
     fill="none"
     stroke="#000000"
     stroke-width="2.1"
     stroke-linecap="butt"
     stroke-miterlimit="1.5"
     id="path6-0" />
  <path
     d="m 67.659648,67.482946 c 0,0 37.625012,0 48.875012,-1.75 0,0 2.5,0.5 2.625,2.25 0.125,1.75 0.375,1.5 -1.5,3.75 0,0 2.25,2.875 1.25,6.5 l -2.25,0.75 c 0,0 -0.447,-1.704 -3.083,-2.264 -1.545,-0.328 -6.292,0.889 -6.292,0.889 l -8.625008,3.250001 -6.75,0.125 c 0,0 -2.367,-2.456001 -3.228004,-3.087001 -0.91,-0.667 -5.551,-0.594 -5.551,-0.594 l -6.721,1.931 -4.125,1.250001 c 0,0 2.125,-4.000001 0,-8.000001 0,0 -0.375,-2 -4.625,-5 -4.25,-3 -12.625,-1.875 -12.625,-1.875 0,0 -2.75,0.25 -4.5,2.875 l -0.821,2.089 c 0,0 2.446,-0.339 4.321,0.161 1.875,0.5 11.25,2.625 10.625,8 0,0 -1.428,3.429001 -7.803,4.304001 0,0 -5.947,0.928 -14.465,5.91 0,0 -8.755,3.698 -15.613,0.984 0,0 -6,-1.571 -7.857,-6.571"
     fill="none"
     stroke="#000000"
     stroke-width="2.1"
     stroke-miterlimit="1.5"
     id="path7-5" />
  <path
     d="m 30.739648,70.144946 c 0.019,-0.043 0.04,-0.075 0.025,-0.081 -0.161,-0.067 -0.126,-0.011 -0.025,0.081 l -0.011,0.026 a 3.687,3.687 0 0 0 -0.2,1.067 c -0.01,0.271 0.028,0.561 0.133,0.836 0.082,0.216 0.204,0.419 0.369,0.583 0.398,0.4 0.843,0.711 1.49,0.698 a 0.43896754,0.43896754 0 1 0 0.231,-0.847 c -0.157,-0.103 -0.196,-0.262 -0.289,-0.399 -0.106,-0.155 -0.09,-0.344 -0.153,-0.518 a 6.526,6.526 0 0 0 -0.151,-0.371 c -0.274,-0.616 -0.513,-1.12 -0.513,-1.12 a 0.439,0.439 0 1 0 -0.876,-0.052 l 0.438,0.465 c 0,0 -0.313,-0.227 -0.468,-0.368 z m -5.098,5.313 v -0.003 c 0.001,-0.05 0.021,-0.094 0.004,-0.095 -0.146,-0.007 -0.105,0.04 -0.004,0.098 -0.005,0.176 -0.04,0.499 -0.006,0.934 0.017,0.212 0.038,0.438 0.109,0.657 0.073,0.22 0.192,0.412 0.302,0.596 0.224,0.373 0.432,0.624 0.535,0.764 0.252,0.342 0.483,0.39 0.483,0.39 -0.345,-0.075 -0.098,0.052 0.133,-0.021 a 0.439,0.439 0 0 0 0.285,-0.551 l -0.003,0.005 a 0.965,0.965 0 0 0 0.008,-0.111 c 0.003,-0.174 0.028,-0.499 -0.005,-0.933 -0.016,-0.213 -0.03,-0.439 -0.098,-0.661 a 2.796,2.796 0 0 0 -0.291,-0.599 c -0.224,-0.377 -0.44,-0.621 -0.545,-0.761 -0.141,-0.188 -0.262,-0.067 -0.348,0.102 0.116,-0.457 -0.082,-0.53 -0.269,-0.471 a 0.44,0.44 0 0 0 -0.285,0.552 l 0.418,0.306 c 0,0 -0.276,-0.112 -0.423,-0.198 z m -5.115,4.377 c 0,0 0.04,0.520001 0.22,1.213001 0.064,0.246 0.136,0.508 0.257,0.755 0.121,0.248 0.286,0.464 0.439,0.668 0.428,0.57 0.798,0.936 0.798,0.936 a 0.44,0.44 0 0 0 0.791,-0.38 c 0,0 -0.054,-0.518 -0.231,-1.208 -0.063,-0.247 -0.129,-0.511 -0.246,-0.76 a 3.923,3.923 0 0 0 -0.429,-0.673 7.77,7.77 0 0 0 -0.808,-0.931001 0.44,0.44 0 0 0 -0.791,0.38 z m 2.851,-2.156 c 0,0 0.02,0.513 0.173,1.203 0.054,0.245 0.116,0.506 0.227,0.753 0.111,0.248 0.267,0.465 0.412,0.671 0.405,0.574001 0.759,0.945001 0.759,0.945001 a 0.44,0.44 0 0 0 0.579,0.225 0.44,0.44 0 0 0 0.225,-0.579 c 0,0 -0.034,-0.511 -0.184,-1.198001 -0.054,-0.246 -0.109,-0.508 -0.217,-0.757 a 3.803,3.803 0 0 0 -0.401,-0.676 c -0.405,-0.579 -0.77,-0.94 -0.77,-0.94 a 0.43858238,0.43858238 0 1 0 -0.803,0.353 z"
     id="path8-5" />
</svg>
