<?xml version="1.0" encoding="UTF-8" standalone="no"?>
<svg xmlns:xlink="http://www.w3.org/1999/xlink" height="60.5px" width="42.0px" xmlns="http://www.w3.org/2000/svg">
  <g transform="matrix(1.0, 0.0, 0.0, 1.0, 21.25, 70.25)">
    <use height="60.5" transform="matrix(1.0, 0.0, 0.0, 1.0, -21.25, -70.25)" width="42.0" xlink:href="#shape0"/>
    <use height="3.05" transform="matrix(0.9976, 0.0, 0.0, 0.9748, -5.1873, -56.8765)" width="21.45" xlink:href="#sprite0"/>
  </g>
  <defs>
    <g id="shape0" transform="matrix(1.0, 0.0, 0.0, 1.0, 21.25, 70.25)">
      <path d="M4.65 -59.05 Q6.05 -57.65 7.9 -56.65 11.0 -54.95 14.95 -55.0 L19.3 -55.35 19.35 -55.45 19.85 -55.9 20.05 -55.8 Q19.95 -54.5 20.6 -52.85 19.0 -50.7 18.6 -48.0 16.6 -45.95 17.55 -43.1 L17.4 -41.6 Q17.2 -35.65 18.1 -30.05 L17.2 -29.85 Q14.75 -28.2 14.7 -23.7 L14.7 -20.95 15.3 -21.15 14.7 -20.65 14.6 -18.0 14.85 -17.15 14.9 -17.05 14.9 -17.15 17.05 -17.15 17.05 -16.6 18.35 -16.55 19.0 -16.2 19.45 -15.35 Q19.95 -15.05 19.85 -14.25 L19.6 -13.25 Q19.65 -12.65 19.4 -12.4 L18.95 -12.2 Q18.4 -11.8 17.55 -11.85 L16.9 -11.8 Q14.8 -11.65 12.75 -11.85 L12.5 -11.65 12.45 -11.5 12.0 -11.0 11.5 -10.7 10.6 -10.5 5.3 -10.35 4.5 -10.45 4.4 -10.45 3.8 -10.65 3.8 -10.55 3.05 -11.3 2.35 -11.7 0.7 -11.15 Q-0.2 -10.65 -0.55 -9.75 L-6.0 -9.75 -6.15 -10.05 Q-3.55 -10.75 -2.45 -12.9 L-1.55 -14.7 0.7 -19.1 Q0.95 -19.55 0.45 -20.05 -0.8 -21.35 -3.55 -19.2 -6.3 -17.05 -10.95 -17.7 -10.1 -20.0 -7.85 -21.35 -5.3 -22.9 -5.6 -27.0 -5.7 -28.8 -6.25 -30.5 L-6.65 -31.5 Q-8.15 -35.15 -7.2 -38.75 -6.9 -39.85 -7.05 -41.25 -7.45 -44.25 -10.4 -44.55 -10.7 -46.4 -12.95 -46.95 L-13.3 -47.35 -13.55 -48.15 -13.95 -49.65 -14.05 -51.9 -13.75 -52.85 -12.8 -54.05 -10.35 -52.0 Q-8.0 -50.3 -3.7 -50.75 -0.2 -51.15 2.4 -52.8 5.05 -54.5 4.65 -59.05 M6.2 -34.85 L6.15 -35.45 6.1 -35.45 6.2 -34.85 M3.1 -31.85 L4.4 -32.15 4.7 -32.3 4.8 -32.35 5.2 -32.6 Q6.25 -33.4 6.2 -34.65 6.2 -33.55 5.2 -32.8 L4.8 -32.55 4.4 -32.35 4.25 -32.3 3.1 -32.05 3.05 -32.05 2.55 -31.7 1.85 -31.55 Q0.55 -31.4 -0.55 -32.0 L-1.0 -32.3 -1.6 -33.25 Q-1.65 -32.75 -1.2 -32.3 L-0.55 -31.8 Q0.55 -31.2 1.85 -31.35 L2.55 -31.5 3.05 -31.85 3.1 -31.85 M14.85 -17.15 L13.9 -17.15 14.85 -17.15" fill="#fefbf5" fill-rule="evenodd" stroke="none"/>
      <path d="M2.7 -61.5 L3.1 -60.95 4.65 -59.05 Q5.05 -54.5 2.4 -52.8 -0.2 -51.15 -3.7 -50.75 -8.0 -50.3 -10.35 -52.0 L-12.8 -54.05 -12.05 -55.15 -12.0 -55.25 -12.1 -55.35 -11.8 -55.7 -10.85 -57.25 -9.7 -58.6 -9.55 -59.1 -9.65 -59.5 -9.7 -59.55 -9.85 -59.95 -10.0 -60.15 -10.1 -60.2 -10.05 -60.3 -9.9 -61.35 Q-9.75 -62.65 -9.95 -63.65 L-10.25 -64.7 -9.75 -67.15 -9.65 -67.7 -9.0 -68.85 -8.65 -68.6 Q-9.25 -68.3 -9.4 -67.6 -9.05 -68.3 -8.1 -68.5 -6.2 -68.0 -4.7 -66.6 L-4.45 -66.35 -3.3 -65.6 -3.0 -65.0 -2.3 -64.3 Q-1.55 -63.6 -1.15 -62.75 -0.75 -62.5 -0.65 -61.9 0.4 -61.1 1.4 -61.5 2.1 -61.25 2.7 -61.5 M18.35 -23.2 L18.3 -22.75 18.3 -22.5 18.15 -22.25 18.1 -21.8 17.85 -20.5 17.7 -20.0 17.7 -19.75 17.55 -18.8 Q17.4 -18.15 17.05 -18.1 L17.05 -17.4 17.05 -17.15 14.9 -17.15 14.9 -17.05 14.85 -17.15 14.9 -17.15 14.85 -17.15 14.6 -18.0 14.7 -20.65 15.3 -21.15 Q16.35 -22.8 18.35 -23.2 M-6.15 -10.05 Q-6.9 -11.7 -8.65 -12.7 L-9.55 -13.95 -8.0 -15.35 Q-4.45 -17.3 -2.15 -15.0 L-2.05 -15.0 Q-1.7 -14.95 -1.55 -14.7 L-2.45 -12.9 Q-3.55 -10.75 -6.15 -10.05 M-11.9 -37.7 L-11.45 -38.85 -11.35 -39.2 -10.7 -41.65 -10.5 -42.55 -10.35 -43.7 -10.4 -44.55 Q-7.45 -44.25 -7.05 -41.25 -6.9 -39.85 -7.2 -38.75 -8.15 -35.15 -6.65 -31.5 L-6.25 -30.5 Q-7.85 -31.3 -8.45 -33.1 -9.55 -36.45 -11.9 -37.7" fill="#fce6a5" fill-rule="evenodd" stroke="none"/>
      <path d="M2.7 -61.5 L3.1 -61.75 Q4.55 -61.55 5.65 -62.35 L5.7 -62.4 Q5.9 -62.6 5.75 -62.85 L5.8 -62.9 6.35 -63.7 Q8.2 -65.0 9.5 -67.45 L9.6 -67.65 9.75 -67.75 11.45 -68.65 12.5 -69.45 15.0 -69.85 Q14.65 -68.4 14.65 -67.2 L14.75 -66.35 14.8 -65.85 14.85 -65.55 14.9 -65.55 14.95 -65.45 15.05 -64.9 15.4 -64.1 Q15.1 -63.3 15.4 -62.4 14.9 -61.7 15.15 -60.7 L15.15 -60.05 15.7 -59.9 15.75 -59.85 Q16.95 -59.45 17.65 -58.3 L17.7 -58.05 17.7 -58.0 17.85 -57.9 17.95 -57.65 17.95 -57.35 18.75 -56.65 19.85 -55.9 19.35 -55.45 19.3 -55.35 14.95 -55.0 Q11.0 -54.95 7.9 -56.65 6.05 -57.65 4.65 -59.05 L3.1 -60.95 2.7 -61.5 M18.1 -30.05 L18.7 -26.65 18.55 -26.45 Q18.3 -25.7 18.35 -24.8 L18.35 -23.2 Q16.35 -22.8 15.3 -21.15 L14.7 -20.95 14.7 -23.7 Q14.75 -28.2 17.2 -29.85 L18.1 -30.05 M-9.55 -13.95 L-11.45 -15.95 -11.55 -16.0 -11.85 -16.95 Q-12.75 -19.85 -12.8 -23.0 -12.85 -24.5 -13.15 -25.8 L-13.6 -27.15 -13.3 -29.9 -13.05 -32.3 Q-12.95 -34.25 -13.1 -36.1 L-11.9 -37.7 Q-9.55 -36.45 -8.45 -33.1 -7.85 -31.3 -6.25 -30.5 -5.7 -28.8 -5.6 -27.0 -5.3 -22.9 -7.85 -21.35 -10.1 -20.0 -10.95 -17.7 -6.3 -17.05 -3.55 -19.2 -0.8 -21.35 0.45 -20.05 0.95 -19.55 0.7 -19.1 L-1.55 -14.7 Q-1.7 -14.95 -2.05 -15.0 L-2.15 -15.0 Q-4.45 -17.3 -8.0 -15.35 L-9.55 -13.95" fill="#3d3d3d" fill-rule="evenodd" stroke="none"/>
      <path d="M13.9 -17.15 L14.85 -17.15 14.9 -17.05 M14.9 -17.15 L17.05 -17.15" fill="none" stroke="#4f1d17" stroke-linecap="round" stroke-linejoin="round" stroke-width="1.0"/>
      <path d="M14.9 -17.15 L14.85 -17.15" fill="none" stroke="#4f1d17" stroke-linecap="round" stroke-linejoin="round" stroke-width="1.0"/>
      <path d="M-17.15 -27.3 L-17.15 -27.15 -17.3 -25.65 -17.15 -27.3 M-17.3 -19.8 Q-16.75 -18.1 -15.4 -16.85 L-14.95 -16.5 -15.25 -16.65 Q-17.1 -17.8 -17.3 -19.8 M-14.7 -24.7 L-14.6 -25.9 Q-14.45 -27.8 -14.45 -29.8 L-14.45 -29.85 Q-14.15 -27.7 -14.4 -25.55 L-14.6 -24.9 -14.7 -24.7" fill="#e7e0dc" fill-rule="evenodd" stroke="none"/>
      <path d="M-17.95 -38.55 L-19.35 -38.8 -19.6 -38.75 -19.1 -38.9 -17.95 -38.55 M-19.65 -35.3 L-19.5 -35.05 -19.65 -35.25 -19.65 -35.3" fill="#58463f" fill-rule="evenodd" stroke="none"/>
      <path d="M-17.95 -38.55 L-17.8 -38.45 -17.5 -38.15 -16.75 -37.4 -16.75 -37.3 -16.7 -37.25 -16.7 -37.2 -16.55 -37.1 -16.5 -36.85 -16.4 -36.65 -16.35 -36.6 -16.25 -36.5 -16.25 -36.2 -16.25 -36.15 -16.05 -35.8 -15.9 -35.35 -15.0 -32.4 -14.95 -32.2 -14.65 -30.9 -14.45 -29.85 -14.45 -29.8 Q-14.45 -27.8 -14.6 -25.9 L-14.7 -24.7 -14.85 -23.9 -14.9 -23.5 -14.75 -22.75 -14.75 -22.55 -14.45 -21.85 -14.1 -21.05 -14.05 -20.9 Q-13.6 -19.55 -12.4 -18.8 L-12.35 -18.9 -12.3 -18.95 -12.05 -19.0 -11.9 -18.7 Q-12.05 -17.6 -11.55 -16.95 -11.05 -16.4 -11.1 -16.15 -11.15 -15.9 -10.65 -15.55 -10.2 -14.55 -10.4 -14.5 L-12.2 -15.15 -14.95 -16.5 -15.4 -16.85 Q-16.75 -18.1 -17.3 -19.8 L-17.35 -20.0 -17.3 -25.25 -17.3 -25.65 -17.15 -27.15 -17.15 -27.3 Q-16.9 -29.0 -17.4 -30.65 L-17.6 -31.35 -17.75 -31.95 -18.35 -34.0 -18.45 -34.0 -18.5 -34.1 -18.75 -34.1 -19.05 -34.45 -19.4 -35.0 -19.5 -35.05 -19.65 -35.3 -19.7 -35.6 -20.1 -36.15 -20.15 -36.25 -20.55 -37.2 -20.5 -38.25 -20.45 -38.3 -19.6 -38.75 -19.35 -38.8 -17.95 -38.55" fill="#fefbf5" fill-rule="evenodd" stroke="none"/>
      <path d="M-17.95 -38.55 L-19.35 -38.8 -19.6 -38.75 Q-21.1 -38.65 -20.65 -37.4 L-20.55 -37.2 -20.15 -36.25 M-19.65 -35.3 L-19.5 -35.05 M-17.75 -31.95 L-17.6 -31.35 M-17.15 -27.3 L-17.15 -27.15 -17.3 -25.65 M-17.3 -19.8 Q-16.75 -18.1 -15.4 -16.85 L-14.95 -16.5 -12.2 -15.15 -10.4 -14.5 M-14.7 -24.7 L-14.6 -25.9 Q-14.45 -27.8 -14.45 -29.8 L-14.45 -29.85 Q-14.55 -31.8 -15.0 -33.5 -15.55 -35.35 -16.4 -37.05 -17.0 -38.15 -17.95 -38.55 M-17.75 -31.95 Q-18.2 -33.25 -19.0 -34.35 L-19.5 -35.05 M-19.65 -35.3 L-20.15 -36.25 M-17.15 -27.3 Q-17.15 -29.1 -17.5 -30.9 L-17.6 -31.35 M-14.7 -24.7 Q-14.75 -23.35 -14.4 -22.1 -13.95 -20.3 -12.35 -18.9 M-17.3 -19.8 L-17.4 -20.05 Q-17.95 -21.9 -17.55 -23.8 L-17.3 -25.65" fill="none" stroke="#4f1d17" stroke-linecap="round" stroke-linejoin="round" stroke-width="1.0"/>
      <path d="M-3.0 -10.4 L3.65 -10.4 Q4.85 -10.4 5.7 -11.2 6.55 -12.1 6.6 -14.0 6.55 -15.9 5.7 -16.8 4.85 -17.6 3.65 -17.6 L-3.0 -17.6 -3.0 -16.05 3.6 -16.05 Q4.3 -16.05 4.75 -15.65 5.25 -15.1 5.3 -14.0 5.25 -12.9 4.75 -12.35 4.3 -11.9 3.6 -11.9 L-3.0 -11.9 -3.0 -10.4" fill="#4f1d17" fill-rule="evenodd" stroke="none"/>
      <path d="M11.05 -10.6 L11.05 -12.1 17.65 -12.1 Q18.35 -12.1 18.8 -12.55 19.35 -13.1 19.35 -14.15 19.35 -15.2 18.8 -15.75 18.35 -16.15 17.65 -16.15 L11.05 -16.15 11.05 -17.7 17.7 -17.7 Q18.95 -17.7 19.75 -16.9 20.65 -16.0 20.65 -14.15 20.65 -12.3 19.75 -11.4 18.95 -10.6 17.7 -10.6 L11.05 -10.6" fill="#4f1d17" fill-rule="evenodd" stroke="none"/>
      <path d="M5.35 -61.6 Q6.3 -63.9 7.85 -65.55 L10.7 -68.1 13.35 -69.55 Q14.65 -70.2 14.8 -68.5 L15.15 -64.9 Q15.35 -63.0 14.75 -60.05 M5.1 -61.55 L4.1 -61.6 2.85 -61.65 1.7 -61.65 -0.45 -61.35 Q-1.05 -62.85 -2.6 -64.5 -4.15 -66.2 -5.45 -67.05 -6.8 -67.9 -8.1 -68.5 -9.4 -69.15 -9.55 -67.45 L-9.9 -63.85 Q-10.1 -61.95 -9.5 -59.0 M17.3 -44.2 Q17.05 -39.35 17.15 -35.6 17.2 -31.8 18.0 -28.15 18.75 -24.55 18.15 -20.7 17.85 -18.95 17.2 -17.3 M-10.0 -43.55 Q-11.5 -40.9 -12.2 -38.1 -13.2 -34.45 -13.2 -30.55 -13.25 -26.7 -12.75 -22.25 -12.3 -17.9 -10.6 -14.95 -8.95 -12.0 -5.8 -10.35" fill="none" stroke="#4f1d17" stroke-linecap="round" stroke-linejoin="round" stroke-width="1.0"/>
      <path d="M17.95 -46.65 Q20.75 -49.25 20.75 -52.55 20.75 -55.95 17.95 -58.55 L17.2 -57.8 Q19.7 -55.45 19.7 -52.55 19.7 -49.75 17.2 -47.35 L17.95 -46.65" fill="#4f1d17" fill-rule="evenodd" stroke="none"/>
      <path d="M-11.5 -44.75 L-10.75 -45.45 Q-13.25 -47.85 -13.25 -50.7 -13.25 -53.55 -10.75 -55.9 L-11.5 -56.65 Q-14.3 -54.05 -14.3 -50.7 -14.3 -47.35 -11.5 -44.75" fill="#4f1d17" fill-rule="evenodd" stroke="none"/>
      <path d="M9.25 -53.75 L8.15 -54.35 Q5.95 -51.85 5.9 -49.3 5.95 -47.8 6.55 -47.15 7.2 -46.55 8.15 -46.5 9.15 -46.55 9.85 -47.2 10.25 -47.55 10.25 -47.85 L10.7 -47.05 Q11.35 -46.55 12.35 -46.5 13.6 -46.55 14.4 -47.3 15.6 -48.55 15.6 -51.05 15.6 -52.75 14.95 -54.35 L13.75 -54.0 14.2 -51.05 Q14.2 -49.05 13.4 -48.2 12.95 -47.8 12.3 -47.75 L11.4 -48.05 Q11.1 -48.4 11.05 -48.85 L11.5 -49.8 11.8 -51.45 Q11.8 -52.7 11.25 -52.7 10.8 -52.7 10.35 -51.9 L9.85 -50.4 9.85 -49.05 9.2 -48.15 Q8.75 -47.75 8.15 -47.7 7.75 -47.75 7.45 -47.95 7.2 -48.3 7.15 -49.3 7.2 -51.4 9.25 -53.75" fill="#4f1d17" fill-rule="evenodd" stroke="none"/>
      <path d="M12.35 -37.9 L15.8 -38.45 15.55 -40.15 12.45 -39.4 Q9.8 -38.7 8.6 -38.05 6.7 -36.95 6.3 -35.5 5.9 -34.05 6.8 -32.5 7.75 -30.9 9.1 -30.55 11.65 -29.9 15.45 -32.05 L15.05 -33.5 Q11.5 -31.5 9.75 -31.95 8.75 -32.25 8.2 -33.2 7.6 -34.25 7.9 -35.3 8.1 -36.15 9.45 -36.9 L12.35 -37.9" fill="#4f1d17" fill-rule="evenodd" stroke="none"/>
      <path d="M0.7 -37.95 L-2.8 -38.5 -2.55 -40.25 0.6 -39.45 Q3.3 -38.8 4.45 -38.1 6.35 -37.0 6.75 -35.55 7.15 -34.1 6.3 -32.55 5.35 -31.0 4.0 -30.6 1.4 -29.95 -2.4 -32.1 L-2.0 -33.55 Q1.6 -31.6 3.3 -32.05 4.35 -32.3 4.9 -33.25 5.45 -34.25 5.2 -35.35 4.95 -36.2 3.65 -36.95 L0.7 -37.95" fill="#4f1d17" fill-rule="evenodd" stroke="none"/>
      <path d="M-7.75 -47.1 L-6.25 -47.1 -6.25 -45.65 -6.8 -45.65 -6.25 -44.2 -7.0 -44.2 -7.75 -45.75 -7.75 -47.1 M-4.85 -47.1 L-3.35 -47.1 -3.35 -45.65 -3.9 -45.65 -3.35 -44.2 -4.1 -44.2 -4.85 -45.75 -4.85 -47.1" fill="#000000" fill-rule="evenodd" stroke="none"/>
    </g>
    <g id="sprite0" transform="matrix(1.0, 0.0, 0.0, 1.0, 5.2, 50.55)">
      <use height="3.05" transform="matrix(1.0, 0.0, 0.0, 1.0, -5.2, -50.55)" width="21.45" xlink:href="#shape1"/>
    </g>
    <g id="shape1" transform="matrix(1.0, 0.0, 0.0, 1.0, 5.2, 50.55)">
      <path d="M15.75 -50.05 L15.35 -49.8 14.15 -48.95 13.55 -48.5 M0.6 -48.0 Q-1.9 -49.5 -4.7 -49.6" fill="none" stroke="#643b36" stroke-linecap="round" stroke-linejoin="round" stroke-width="1.0"/>
    </g>
  </defs>
</svg>
