<?xml version="1.0" encoding="UTF-8" standalone="no"?><!DOCTYPE svg PUBLIC "-//W3C//DTD SVG 1.1//EN" "http://www.w3.org/Graphics/SVG/1.1/DTD/svg11.dtd"><svg width="48.3px" height="49.1px" viewBox="0 0 630 642" version="1.1" xmlns="http://www.w3.org/2000/svg" xmlns:xlink="http://www.w3.org/1999/xlink" xml:space="preserve" xmlns:serif="http://www.serif.com/" style="fill-rule:evenodd;clip-rule:evenodd;stroke-linejoin:round;stroke-miterlimit:2;"><g id="blocked-sign"><g transform="matrix(0.894427,0.447214,0,1.11803,4.27362,-32.6022)"><text x="40.48px" y="122.841px" style="font-family:'CourierNewPSMT', 'Courier New', monospace;font-size:104.167px;">PUNP</text></g><g id="leg-furthest"><path d="M170.571,320.167c-0,-0 4.187,-2.092 9.037,-4.517c9.163,-4.579 19.95,-4.579 29.113,0c5.621,2.813 10.725,5.363 10.725,5.363l-24.984,30.129l-23.891,-30.975Z" style="fill:url(#_Linear1);"/><path d="M194.846,350.654c2.075,-15.246 -4.638,-26.096 -17.842,-33.7l-132.75,66.179l17.008,34.117l133.584,-66.596Z" style="fill:url(#_Linear2);"/><rect x="13.871" y="14.413" width="38.121" height="373.017" style="fill:url(#_Linear3);"/><path d="M69.446,413.613c-0,-0 -7.238,3.616 -16.488,8.241c-8.37,4.188 -18.312,3.742 -26.275,-1.179c-7.966,-4.921 -12.812,-13.617 -12.812,-22.975l-0,-18.425c12.708,7.629 25.417,7.954 38.125,0c12.671,8.017 18.854,19.283 17.45,34.338Z" style="fill:url(#_Radial4);"/><ellipse cx="32.933" cy="13.613" rx="19.063" ry="9.529" style="fill:#d5d5c9;"/></g><g id="bar"><path d="M437.717,310.471l-26.988,13.492l-377.796,-296.842l26.984,-13.492l377.8,188.896l-0,107.946Z" style="fill:#fcd666;"/><path d="M410.729,216.021l-377.796,-188.9l0,107.941l377.796,188.901l0,-107.942Z" style="fill:#ffbf00;"/><g><clipPath id="_clip5"><path d="M410.729,216.021l-377.796,-188.9l0,107.941l377.796,188.901l0,-107.942Z"/></clipPath><g clip-path="url(#_clip5)"><path d="M32.933,-26.85l-53.971,-26.987l53.971,188.899l53.971,26.988l-53.971,-188.9Z" style="fill:#554a2a;"/><path d="M140.875,26.525l-53.971,-26.983l53.971,188.896l53.971,26.987l-53.971,-188.9Z" style="fill:#554a2a;"/><path d="M248.817,81.092l-53.971,-26.988l53.971,188.9l53.971,26.988l-53.971,-188.9Z" style="fill:#554a2a;"/><path d="M356.758,135.063l-53.97,-26.984l53.97,188.896l53.971,26.988l-53.971,-188.901Z" style="fill:#554a2a;"/></g></g><path d="M437.717,202.525l-26.988,13.496l-377.796,-188.9l26.984,-13.492l377.8,188.896Z" style="fill:#fee391;"/><g><clipPath id="_clip6"><path d="M437.717,202.525l-26.988,13.496l-377.796,-188.9l26.984,-13.492l377.8,188.896Z"/></clipPath><g clip-path="url(#_clip6)"><path d="M425.004,170.833l-53.971,-26.983l-58.104,31.108l53.971,26.984l58.104,-31.109Z" style="fill:#726d42;"/><path d="M317.542,117.104l-53.971,-26.983l-58.104,31.108l53.97,26.984l58.105,-31.109Z" style="fill:#726d42;"/><path d="M209.825,63.246l-53.971,-26.984l-58.104,31.109l53.971,26.983l58.104,-31.108Z" style="fill:#726d42;"/><path d="M101.621,9.142l-53.971,-26.984l-58.104,31.109l53.971,26.987l58.104,-31.112Z" style="fill:#726d42;"/></g></g><path d="M34.742,26.217l377.8,188.896l-1.813,0.908l0,1.879l-377.796,-188.9l0,-1.879l1.809,-0.904Z" style="fill:#fee391;"/></g><g id="leg-nearest"><path d="M209.308,315.946l-17.008,34.116l390.183,194.538l17.013,-34.117l-390.188,-194.537Z" style="fill:url(#_Linear7);"/><path d="M598.825,553.475l-17.008,-34.117l-132.746,66.184l17.008,34.116l132.746,-66.183Z" style="fill:url(#_Linear8);"/><path d="M576.029,498.767c-15.162,6.633 -21.525,17.666 -19.191,33.046c13.737,7.437 20.733,18.245 19.191,33.324c0,0 8.942,-4.47 20.267,-10.133c8.733,-4.366 14.25,-13.296 14.25,-23.062c-0.004,-9.771 -5.525,-18.696 -14.263,-23.059c-11.316,-5.654 -20.254,-10.116 -20.254,-10.116Z" style="fill:url(#_Linear9);"/><rect x="418.688" y="216.821" width="38.121" height="373.017" style="fill:url(#_Linear10);"/><path d="M474.263,616.021c-0.001,-0 -7.238,3.617 -16.488,8.246c-8.371,4.183 -18.313,3.737 -26.275,-1.184c-7.963,-4.92 -12.813,-13.616 -12.813,-22.975l0,-18.425c12.709,7.63 25.417,7.955 38.125,0c12.671,8.017 18.855,19.284 17.45,34.338Z" style="fill:url(#_Radial11);"/><ellipse cx="437.75" cy="216.021" rx="19.063" ry="9.529" style="fill:#d5d5c9;"/></g></g><defs><linearGradient id="_Linear1" x1="0" y1="0" x2="1" y2="0" gradientUnits="userSpaceOnUse" gradientTransform="matrix(24.8879,-48.5054,48.5054,24.8879,178.916,356.344)"><stop offset="0" style="stop-color:#c6c6b7;stop-opacity:1"/><stop offset="0.5" style="stop-color:#c6c6b7;stop-opacity:1"/><stop offset="1" style="stop-color:#d5d5c9;stop-opacity:1"/></linearGradient><linearGradient id="_Linear2" x1="0" y1="0" x2="1" y2="0" gradientUnits="userSpaceOnUse" gradientTransform="matrix(17.3626,34.3311,-34.3311,17.3626,112.459,349.128)"><stop offset="0" style="stop-color:#c6c6b7;stop-opacity:1"/><stop offset="0.18" style="stop-color:#d1d1c5;stop-opacity:1"/><stop offset="0.37" style="stop-color:#d5d5c9;stop-opacity:1"/><stop offset="0.68" style="stop-color:#cacabb;stop-opacity:1"/><stop offset="1" style="stop-color:#c6c6b7;stop-opacity:1"/></linearGradient><linearGradient id="_Linear3" x1="0" y1="0" x2="1" y2="0" gradientUnits="userSpaceOnUse" gradientTransform="matrix(-38.1225,4.66866e-15,-4.66866e-15,-38.1225,51.9942,203.485)"><stop offset="0" style="stop-color:#d5d5c9;stop-opacity:1"/><stop offset="0.5" style="stop-color:#c6c6b7;stop-opacity:1"/><stop offset="1" style="stop-color:#c6c6b7;stop-opacity:1"/></linearGradient><radialGradient id="_Radial4" cx="0" cy="0" r="1" gradientUnits="userSpaceOnUse" gradientTransform="matrix(-18.1483,24.0029,-24.0029,-18.1483,59.3642,370.731)"><stop offset="0" style="stop-color:#c6c6b7;stop-opacity:1"/><stop offset="0.54" style="stop-color:#d5d5c9;stop-opacity:1"/><stop offset="1" style="stop-color:#c6c6b7;stop-opacity:1"/></radialGradient><linearGradient id="_Linear7" x1="0" y1="0" x2="1" y2="0" gradientUnits="userSpaceOnUse" gradientTransform="matrix(48.4608,-81.835,81.835,48.4608,389.254,511.658)"><stop offset="0" style="stop-color:#c6c6b7;stop-opacity:1"/><stop offset="0.5" style="stop-color:#c6c6b7;stop-opacity:1"/><stop offset="1" style="stop-color:#d5d5c9;stop-opacity:1"/></linearGradient><linearGradient id="_Linear8" x1="0" y1="0" x2="1" y2="0" gradientUnits="userSpaceOnUse" gradientTransform="matrix(-20.597,-32.3288,32.3288,-20.597,523.254,591.154)"><stop offset="0" style="stop-color:#c6c6b7;stop-opacity:1"/><stop offset="0.5" style="stop-color:#c6c6b7;stop-opacity:1"/><stop offset="1" style="stop-color:#d5d5c9;stop-opacity:1"/></linearGradient><linearGradient id="_Linear9" x1="0" y1="0" x2="1" y2="0" gradientUnits="userSpaceOnUse" gradientTransform="matrix(4.99133e-15,81.5146,-81.5146,4.99133e-15,575.458,499.021)"><stop offset="0" style="stop-color:#d5d5c9;stop-opacity:1"/><stop offset="0.27" style="stop-color:#d2d2c5;stop-opacity:1"/><stop offset="0.5" style="stop-color:#c6c6b7;stop-opacity:1"/><stop offset="1" style="stop-color:#c6c6b7;stop-opacity:1"/></linearGradient><linearGradient id="_Linear10" x1="0" y1="0" x2="1" y2="0" gradientUnits="userSpaceOnUse" gradientTransform="matrix(38.887,0,0,38.887,418.688,354.926)"><stop offset="0" style="stop-color:#c6c6b7;stop-opacity:1"/><stop offset="0.5" style="stop-color:#c6c6b7;stop-opacity:1"/><stop offset="1" style="stop-color:#d5d5c9;stop-opacity:1"/></linearGradient><radialGradient id="_Radial11" cx="0" cy="0" r="1" gradientUnits="userSpaceOnUse" gradientTransform="matrix(-22.371,44.6683,-44.6683,-22.371,457.575,582.175)"><stop offset="0" style="stop-color:#d5d5c9;stop-opacity:1"/><stop offset="0.5" style="stop-color:#c6c6b7;stop-opacity:1"/><stop offset="1" style="stop-color:#c6c6b7;stop-opacity:1"/></radialGradient></defs></svg>