<?xml version="1.0" encoding="UTF-8" standalone="no"?><!DOCTYPE svg PUBLIC "-//W3C//DTD SVG 1.1//EN" "http://www.w3.org/Graphics/SVG/1.1/DTD/svg11.dtd"><svg width="71.6px" height="52.8px" viewBox="0 0 934 692" version="1.1" xmlns="http://www.w3.org/2000/svg" xmlns:xlink="http://www.w3.org/1999/xlink" xml:space="preserve" xmlns:serif="http://www.serif.com/" style="fill-rule:evenodd;clip-rule:evenodd;stroke-linejoin:round;stroke-miterlimit:2;"><g transform="matrix(0.894426,0.447217,0,1.11804,26.8865,-131.522)"><text x="360.504px" y="526.977px" style="font-family:'CourierNewPSMT', 'Courier New', monospace;font-size:50px;">PUNP</text></g><g id="CTRL"><g id="button"><path id="corners-are-2--4-and-8" serif:id="corners are 2, 4 and 8" d="M876.575,209.375c15.492,7.746 26.117,22.683 28.354,39.858c8.025,61.609 26.763,205.455 26.763,205.455l-465.846,232.924l-465.846,-232.924c-0,-0 17.971,-144.234 25.629,-205.701c2.125,-17.041 12.508,-31.937 27.758,-39.825c75.725,-39.162 306.342,-158.429 380.909,-196.995c14.783,-7.646 32.329,-7.763 47.216,-0.321c76.576,38.287 316.963,158.479 395.063,197.529Z" style="fill:#cdcdc2;"/><path id="basex0.975" d="M351.196,55.142c67,-34.65 146.525,-35.192 213.992,-1.459c74.437,37.217 172.549,86.275 243.549,121.775c17.605,8.805 28.746,26.775 28.792,46.459c0.046,19.683 -11.004,37.712 -28.567,46.6c-69.283,35.058 -164.241,83.108 -236.699,119.775c-66.917,33.862 -145.938,33.908 -212.896,0.129c-73.284,-36.971 -169.605,-85.563 -239.313,-120.733c-17.471,-8.813 -28.525,-26.671 -28.625,-46.238c-0.096,-19.567 10.779,-37.538 28.158,-46.525c67.663,-34.992 160.367,-82.938 231.609,-119.783Z" style="fill:#d5d5c9;"/><path d="M408.6,413.258c35.104,17.713 57.246,53.684 57.246,93.005l-0,181.349l-465.846,-232.924c0,-0 16.279,-130.638 24.45,-196.242c1.05,-8.409 6.117,-15.779 13.592,-19.763c7.475,-3.983 16.421,-4.083 23.983,-0.271c73.992,37.33 253.913,128.1 346.575,174.846Z" style="fill:#c6c6b7;"/><path d="M465.846,687.608l-0,-181.433c-0,-39.275 22.091,-75.212 57.133,-92.946c92.434,-46.771 271.833,-137.554 345.542,-174.854c7.541,-3.812 16.462,-3.733 23.933,0.217c7.467,3.95 12.558,11.279 13.65,19.658c8.538,65.537 25.588,196.438 25.588,196.438l-465.846,232.92Z" style="fill:#a4a289;"/></g><g opacity="0.5"><path d="M392.158,258.117l53.446,-26.934l37.163,19.5l-21.475,10.825l-15.759,-8.271l-10.495,5.288l66.295,34.792l10.496,-5.288l-15.754,-8.271l21.475,-10.82l37.163,19.504l-53.45,26.929l-109.105,-57.254Z" style="fill:#979a87;fill-rule:nonzero;"/><path d="M476.771,237.496l-21.404,-11.233l53.45,-26.934l21.404,11.234l-16.108,8.116l87.699,46.025l-21.474,10.825l-87.7,-46.025l-15.867,7.992Z" style="fill:#979a87;fill-rule:nonzero;"/><path d="M627.683,251.671l-109.104,-57.258l53.446,-26.934l39.542,20.75l3.691,13.738l26.334,2.021l39.541,20.75l-21.479,10.82l-39.241,-20.591l-8.663,-0.529l-6.587,3.32l44,23.088l-21.48,10.825Zm-43.925,-45.146l6.588,-3.321l-0.85,-4.462l-17.542,-9.209l-10.496,5.292l22.3,11.7Z" style="fill:#979a87;fill-rule:nonzero;"/><path d="M581.788,162.563l21.479,-10.826l87.7,46.025l31.97,-16.108l21.405,11.233l-53.446,26.93l-109.109,-57.255Z" style="fill:#979a87;fill-rule:nonzero;"/></g></g></svg>