<?xml version="1.0" encoding="UTF-8" standalone="no"?><!DOCTYPE svg PUBLIC "-//W3C//DTD SVG 1.1//EN" "http://www.w3.org/Graphics/SVG/1.1/DTD/svg11.dtd"><svg width="157.4px" height="282.8px" viewBox="0 0 145 283" version="1.1" xmlns="http://www.w3.org/2000/svg" xmlns:xlink="http://www.w3.org/1999/xlink" xml:space="preserve" xmlns:serif="http://www.serif.com/" style="fill-rule:evenodd;clip-rule:evenodd;stroke-linejoin:round;stroke-miterlimit:2;"><g id="short-palm-foreground"><g id="column"><path d="M75.271,178.885l57.348,0l7.103,17.889l-35.777,17.889l-35.777,-17.889l7.103,-17.889Z" style="fill:#c6c6b7;"/><path d="M103.973,193.237l28.646,-14.352l7.103,17.889l-35.777,17.889l0.028,-21.426Z" style="fill:#c6c6b7;"/><path d="M103.945,193.222l-28.674,-14.337l-7.103,17.889l35.777,17.889l-0,-21.441Z" style="fill:#cdcdc2;"/><path d="M103.945,164.549l28.674,14.336l-28.674,14.337l-28.674,-14.337l28.674,-14.336Z" style="fill:#d5d5c9;"/><path d="M83.525,178.885l-0,-143.089l40.736,-0l0,143.089c0,5.615 -9.127,10.173 -20.368,10.173c-11.242,0 -20.368,-4.558 -20.368,-10.173Z" style="fill:url(#_Linear1);"/><clipPath id="_clip2"><path d="M83.525,178.885l-0,-143.089l40.736,-0l0,143.089c0,5.615 -9.127,10.173 -20.368,10.173c-11.242,0 -20.368,-4.558 -20.368,-10.173Z"/></clipPath><g clip-path="url(#_clip2)"><rect x="86.632" y="37.017" width="1.499" height="155.082" style="fill:url(#_Linear3);"/><rect x="92.167" y="40.543" width="2.328" height="155.082" style="fill:url(#_Linear4);"/><rect x="120.308" y="38.941" width="1.499" height="155.082" style="fill:url(#_Linear5);"/><rect x="113.944" y="38.941" width="2.328" height="155.082" style="fill:url(#_Linear6);"/><rect x="102.49" y="42.125" width="2.806" height="155.082" style="fill:url(#_Linear7);"/></g><path d="M68.168,17.889l71.554,-0l-7.103,17.888l-28.674,14.337l-28.674,-14.337l-7.103,-17.888Z" style="fill:#c6c6b7;"/><path d="M103.982,35.796l35.74,-17.907l-7.103,17.888l-28.674,14.337l0.037,-14.318Z" style="fill:#c3c3b1;"/><path d="M103.945,35.777l-35.777,-17.888l7.12,17.977l28.657,14.248l-0,-14.337Z" style="fill:#cdcdc2;"/><path d="M103.945,0l35.777,17.889l-35.777,17.888l-35.777,-17.888l35.777,-17.889Z" style="fill:#d5d5c9;"/></g><g id="marking"><g><path d="M135.573,17.82l-9.438,-4.714l-9.438,4.714l9.438,4.714l9.438,-4.714Zm-9.438,-3.708l7.424,3.708c0,-0 -7.424,3.708 -7.424,3.708c-0,0 -7.424,-3.708 -7.424,-3.708l7.424,-3.708Z" style="fill:#b2b4a5;"/><rect x="125.624" y="15.151" width="0.9" height="5.189" style="fill:#b2b4a5;"/><path d="M130.559,17.296l-8.969,0l-0,0.9l8.969,-0l-0,-0.9Z" style="fill:#b2b4a5;"/></g><g><path d="M124.345,12.353l-9.438,-4.713l-9.438,4.713l9.438,4.714l9.438,-4.714Zm-9.438,-3.708l7.424,3.708c0,0 -7.424,3.708 -7.424,3.708c-0,0 -7.425,-3.708 -7.425,-3.708l7.425,-3.708Z" style="fill:#b2b4a5;"/><path d="M120.902,12.353l-5.995,-2.994l-5.995,2.994l5.995,2.994l5.995,-2.994Zm-5.995,-1.988l3.981,1.988c0,0 -3.981,1.989 -3.981,1.989c-0,-0 -3.982,-1.989 -3.982,-1.989l3.982,-1.988Z" style="fill:#b2b4a5;"/></g><g><path d="M113.331,6.796l-9.438,-4.714l-9.438,4.714l9.438,4.714l9.438,-4.714Zm-9.438,-3.708l7.424,3.708c0,-0 -7.424,3.708 -7.424,3.708c-0,-0 -7.425,-3.708 -7.425,-3.708l7.425,-3.708Z" style="fill:#b2b4a5;"/><path d="M99.374,6.365l-0.951,0.475l5.42,2.707l0.951,-0.475l-5.42,-2.707Z" style="fill:#b2b4a5;"/></g></g><g id="special-palm"><g id="potted_palm--short-king-" serif:id="potted_palm (short king)"><g id="pot"><path d="M52.241,216.466l0,0l-6.95,-19.902l54.215,-0l-6.95,19.902l-0,0l-0,0.013c-0,5.505 -9.032,9.975 -20.158,9.975c-11.125,-0 -20.157,-4.47 -20.157,-9.975l0,-0.013Z" style="fill:#c3c3b1;"/><clipPath id="_clip8"><path d="M52.241,216.466l0,0l-6.95,-19.902l54.215,-0l-6.95,19.902l-0,0l-0,0.013c-0,5.505 -9.032,9.975 -20.158,9.975c-11.125,-0 -20.157,-4.47 -20.157,-9.975l0,-0.013Z"/></clipPath><g clip-path="url(#_clip8)"><ellipse cx="72.398" cy="198.444" rx="28.978" ry="14.34" style="fill:#a4a289;"/></g><path d="M101.377,194.559c-0,7.915 -12.985,14.34 -28.979,14.34c-15.993,-0 -28.978,-6.425 -28.978,-14.34l-0,-5.56l2.263,0c4.393,-5.156 14.706,-8.779 26.715,-8.779c12.01,-0 22.323,3.623 26.716,8.779l2.263,0l-0,5.56Z" style="fill:#c3c3b1;"/><ellipse cx="72.398" cy="188.999" rx="28.978" ry="14.34" style="fill:#cdcdc2;"/><ellipse cx="72.398" cy="188.999" rx="21.596" ry="9.528" style="fill:#a4a289;"/><clipPath id="_clip9"><ellipse cx="72.398" cy="188.999" rx="21.596" ry="9.528"/></clipPath><g clip-path="url(#_clip9)"><ellipse cx="72.398" cy="193.633" rx="21.596" ry="9.528" style="fill:#6d4323;"/></g></g><path d="M73.476,121.875c0.743,-0.859 1.496,-1.699 2.26,-2.517c-0.008,2.263 -0.266,4.504 -1.013,6.7l1.804,-2.233c-0.204,2.068 -0.682,4.111 -1.625,6.111c0.88,-1.16 1.807,-1.879 2.754,-2.412c-1.756,3.008 -3.688,6.163 -6.117,9.731c2.809,-2.721 5.281,-4.541 7.473,-5.612c-1.468,1.564 -3.558,3.029 -4.214,5.91c0.668,-0.466 2.252,-0.28 3.046,-0.423c-4.766,4.489 -8,8.884 -10.733,13.248c4.341,-5.268 6.801,-6.324 11.32,-9.466c-3.809,3.68 -7.189,7.993 -9.766,13.492c4.276,-4.219 8.527,-7.394 12.758,-9.756c-4.352,3.365 -8.023,7.76 -11.064,13.107c4.003,-4.114 8.237,-6.887 12.565,-9.108c-4.069,3.711 -7.737,8.096 -10.944,13.251c3.301,-3.371 7.07,-5.837 11.11,-7.776c-4.254,3.375 -7.527,7.494 -9.922,12.28c3.32,-3.591 6.914,-5.882 10.582,-7.825c-5.235,5.155 -9.465,11.174 -13.086,17.718c-5.7,-5.326 -11.434,-9.891 -17.257,-12.495c4.514,1.014 9.033,2.576 13.557,4.832c-4.713,-2.956 -9.253,-5.552 -13.34,-7.209l-0.718,-6.725c3.418,0.421 6.933,1.867 10.54,4.291c-3.876,-4.102 -7.757,-7.006 -11.645,-8.254c2.893,0.235 6.081,1.376 9.555,3.402c-3.119,-3.795 -6.338,-6.502 -9.649,-8.205c2.845,0.683 5.893,1.946 9.23,4.039c-3.051,-3.267 -6.281,-5.688 -9.77,-6.885c2.503,0.103 5.387,0.93 9.267,3.642l-0.324,-2.293c-3.367,-2.651 -8.794,-5.637 -11.827,-6.519c4.712,0.731 8.07,2.384 11.9,4.262c-5.28,-3.498 -10.589,-6.676 -16.004,-8.695c4.566,0.9 8.993,2.657 13.278,5.269c-3.232,-3.447 -6.729,-6.209 -10.287,-8.815c3.536,2.085 7.122,4.298 11.164,7.677c-3.105,-4.624 -6.74,-8.58 -11.067,-11.664c3.44,1.85 6.638,4.02 9.498,6.642c-4.163,-4.891 -6.727,-7.713 -11.901,-11.298c3.611,1.798 7.554,4.472 12.884,9.608c-3.508,-5.104 -7.527,-9.164 -12.257,-11.772c3.922,1.449 7.43,3.894 11.634,8.379l-12.113,-13.351l12.245,10.44c-2.652,-4.544 -8.272,-9.986 -12.382,-12.693c3.773,1.845 7.796,4.686 11.663,8.898c-2.462,-6.539 -6.405,-9.594 -9.6,-13.128c1.957,1.639 4.024,3.141 6.261,4.433c-2.562,-1.785 -4.372,-4.023 -5.947,-6.402c2.386,2.542 5.027,5.051 7.978,7.52c-2.3,-3.106 -4.436,-6.262 -5.645,-9.704c1.424,1.616 1.227,2.012 3.437,3.529c-1.166,-1.438 -1.527,-3.222 -2.139,-4.609l1.924,1.899c-1.325,-2.03 -1.302,-4.213 -1.586,-5.597l3.135,6.545c-0.476,-3.606 -0.311,-5.575 0.099,-6.916c0.977,3.293 1.207,7.569 1.149,12.224c0.914,-4.557 2.094,-8.745 4.14,-11.742l-0.652,7.132c0.797,-2.513 1.702,-4.005 2.695,-4.682c-0.383,5.315 -1.951,11.36 -3.878,17.626c2.121,-6.547 4.35,-11.343 6.618,-15.511c-0.987,6.442 -2.813,12.872 -6.163,19.281c4.081,-5.184 6.813,-11.328 8.843,-17.971c-0.094,7.498 -2.249,14.413 -8.317,21.549l0.103,1.647c3.896,-5.042 7.831,-9.529 10.436,-18.332c0.464,1.529 0.512,3.021 0.237,4.483l0.829,-1.843c0.949,3.226 1.127,6.633 0.934,10.127l-9.296,14.534c3.073,-4.436 6.19,-8.787 9.477,-12.801c-0.693,1.238 -1.323,2.359 -1.929,3.457c-1.274,2.309 -2.439,4.515 -3.854,7.492c3.639,-2.87 6.335,-9.166 7.649,-13.168Zm-1.131,7.298c-2.081,2.636 -3.62,4.504 -5.052,6.3c-1.432,1.796 -2.756,3.521 -4.407,5.87c4.406,-2.402 8.337,-9.559 9.459,-12.17Zm-3.295,-6.771c-3.247,5.449 -6.969,9.213 -10.271,13.912c3.937,-3.037 6.334,-6.035 10.085,-11.788l0.186,-2.124Zm-0.237,-6.073c-3.015,5.592 -6.37,10.511 -9.91,15.062c2.987,-2.844 6.263,-6.786 10.014,-12.539l-0.104,-2.523Z" style="fill:#125557;"/><path d="M74.561,109.099c-0.672,-0.915 -1.356,-1.812 -2.051,-2.689c-0.174,2.257 -0.095,4.511 0.474,6.759l-1.62,-2.369c0.038,2.077 0.352,4.152 1.133,6.221c-0.784,-1.227 -1.651,-2.017 -2.553,-2.624c1.511,3.139 3.185,6.437 5.322,10.188c-2.584,-2.937 -4.903,-4.947 -7.002,-6.19c1.338,1.676 3.305,3.303 3.729,6.227c-0.629,-0.518 -2.223,-0.458 -3.003,-0.665c4.393,4.855 7.266,9.493 9.643,14.061c-3.907,-5.597 -6.276,-6.845 -10.53,-10.337c3.504,3.972 6.529,8.54 8.66,14.227c-3.927,-4.547 -7.911,-8.05 -11.94,-10.741c4.07,3.701 7.379,8.374 9.984,13.946c-3.663,-4.419 -7.662,-7.521 -11.799,-10.079c3.76,4.023 7.067,8.686 9.853,14.08c-3.022,-3.624 -6.582,-6.381 -10.455,-8.636c3.971,3.703 6.905,8.07 8.911,13.03c-3.023,-3.843 -6.423,-6.412 -9.924,-8.641c4.807,5.555 8.544,11.891 11.631,18.702c6.106,-4.854 12.186,-8.949 18.199,-11.081c-4.581,0.651 -9.21,1.849 -13.9,3.738c4.935,-2.572 9.667,-4.799 13.873,-6.126l1.252,-6.645c-3.44,0.147 -7.059,1.309 -10.849,3.438c4.191,-3.78 8.291,-6.366 12.266,-7.301c-2.902,0.004 -6.17,0.888 -9.796,2.631c3.412,-3.535 6.837,-5.977 10.273,-7.411c-2.89,0.454 -6.029,1.47 -9.523,3.291c3.302,-3.014 6.715,-5.17 10.288,-6.085c-2.502,-0.096 -5.443,0.498 -9.527,2.893l0.505,-2.26c3.569,-2.375 9.216,-4.919 12.309,-5.558c-4.754,0.355 -8.234,1.735 -12.202,3.302c5.543,-3.067 11.088,-5.812 16.647,-7.394c-4.623,0.534 -9.176,1.933 -13.656,4.196c3.497,-3.179 7.204,-5.654 10.958,-7.969c-3.691,1.798 -7.442,3.718 -11.741,6.765c3.463,-4.363 7.402,-8.017 11.961,-10.746c-3.575,1.57 -6.937,3.478 -9.997,5.865c4.541,-4.545 7.321,-7.153 12.765,-10.315c-3.743,1.504 -7.887,3.856 -13.609,8.551c3.903,-4.808 8.233,-8.535 13.156,-10.759c-4.025,1.133 -7.717,3.291 -12.265,7.427l13.139,-12.344l-13.039,9.431c3.006,-4.318 9.043,-9.296 13.355,-11.666c-3.908,1.539 -8.144,4.05 -12.335,7.941c2.975,-6.323 7.15,-9.053 10.616,-12.322c-2.081,1.478 -4.262,2.811 -6.595,3.921c2.697,-1.576 4.68,-3.663 6.44,-5.909c-2.581,2.344 -5.414,4.635 -8.553,6.861c2.54,-2.913 4.921,-5.889 6.401,-9.224c-1.548,1.498 -1.384,1.908 -3.708,3.245c1.278,-1.341 1.779,-3.09 2.5,-4.425l-2.069,1.74c1.482,-1.917 1.634,-4.095 2.027,-5.453l-3.647,6.275c0.762,-3.556 0.755,-5.532 0.453,-6.902c-1.237,3.205 -1.807,7.449 -2.12,12.093c-0.547,-4.614 -1.39,-8.883 -3.191,-12.033l0.081,7.161c-0.593,-2.568 -1.377,-4.128 -2.312,-4.881c-0.042,5.328 1.038,11.478 2.46,17.877c-1.592,-6.694 -3.432,-11.652 -5.36,-15.988c0.469,6.501 1.777,13.056 4.605,19.711c-3.654,-5.492 -5.888,-11.834 -7.381,-18.618c-0.504,7.482 1.092,14.547 6.572,22.142l-0.235,1.634c-3.481,-5.336 -7.046,-10.121 -8.94,-19.104c-0.584,1.487 -0.752,2.971 -0.594,4.45l-0.679,-1.903c-1.204,3.14 -1.653,6.522 -1.739,10.02l8.107,15.228c-2.71,-4.667 -5.469,-9.252 -8.426,-13.515c0.592,1.29 1.131,2.457 1.648,3.6c1.085,2.402 2.071,4.695 3.244,7.774c-3.398,-3.15 -5.585,-9.64 -6.575,-13.734Zm0.545,7.365c1.865,2.793 3.25,4.777 4.534,6.682c1.284,1.904 2.466,3.729 3.925,6.202c-4.2,-2.745 -7.548,-10.192 -8.459,-12.884Zm3.825,-6.487c2.802,5.689 6.212,9.738 9.129,14.684c-3.683,-3.34 -5.833,-6.52 -9.113,-12.553l-0.016,-2.131Zm0.721,-6.035c2.559,5.814 5.511,10.984 8.677,15.802c-2.751,-3.072 -5.702,-7.263 -8.982,-13.296l0.305,-2.506Z" style="fill:#125557;"/><g id="leaf"><path d="M65.453,164.651c5.47,-2.396 7.232,-2.756 13.509,-2.065c-5.258,-1.728 -7.654,-1.72 -13.353,0.396c4.874,-2.749 7.2,-3.516 13.676,-4.6c-6.172,-0.451 -8.342,0.465 -13.882,2.644c0.705,-1.294 15.487,-6.086 15.78,-5.416c-6.172,0.021 -11.853,1.017 -16.853,3.37c4.843,-3.234 10.075,-4.831 15.513,-5.553c-5.693,-0.102 -11.324,0.792 -16.853,3.37c4.793,-3.118 10.186,-4.784 15.842,-5.816c-5.718,0.277 -11.263,1.163 -16.419,3.416c3.862,-3.464 9.067,-5.181 14.688,-6.357c-6.278,0.373 -12.106,1.414 -17.091,3.705c4.251,-3.23 9.379,-4.986 14.779,-6.285c-5.928,0.281 -11.816,1.209 -17.596,3.902c3.757,-3.491 8.581,-5.569 13.778,-7.153c-5.777,0.543 -11.45,1.933 -16.933,4.876c2.468,-3.67 7.537,-6.155 12.177,-7.975c-5.601,0.815 -10.72,2.788 -15.288,6.079c1.752,-3.42 6.835,-6.266 10.171,-8.045c-4.763,1.263 -9.249,3.232 -13.14,6.715c1.587,-3.443 6.568,-7.226 10.728,-9.524c-4.419,1.115 -8.417,3.068 -11.663,6.515c0.492,-3.719 3.467,-7.228 7.273,-10.668c-4.79,2.177 -8.249,6.344 -11.509,10.447c0.96,-4.477 2.597,-9.279 5.887,-12.215c-4.27,1.505 -6.647,5.498 -9.881,10.477c-0.451,-4.591 0.821,-8.38 2.553,-11.955c-4.489,1.861 -5.019,6.119 -6.983,10.798c-0.072,-4.403 0.789,-8.066 2.2,-11.293c-2.623,2.588 -4.669,5.778 -5.659,10.07c-0.901,-4.442 -0.417,-8.337 0.732,-11.97c-2.337,2.694 -4.147,6.085 -4.563,11.323c-2.341,-3.75 -3.471,-7.35 -3.678,-10.835c-0.824,3.279 -1.086,6.665 0.115,10.325c-2.287,-3.644 -5.311,-6.63 -9.717,-8.385c3.051,2.536 5.178,5.328 6.611,8.313c-3.521,-3.627 -8.377,-5.772 -13.881,-7.197c4.473,2.043 9.058,4.67 11.522,8.486c-6.121,-1.791 -11.595,-1.961 -16.673,-1.14c5.708,0.894 12.577,1.168 16.134,3.179c-6.111,0.417 -12.697,2.9 -17.506,5.369l19.742,-4.023c-7.152,1.646 -13.394,4.412 -18.796,8.209c6.58,-2.97 13.271,-5.295 20.08,-6.937c-4.911,2.583 -7.816,6.029 -9.555,9.979c4.916,-4.253 10.914,-9.064 15.596,-9.928c-4.007,2.044 -5.987,6.303 -6.674,9.308c2.682,-4.14 5.922,-7.429 10.876,-8.109c-3.285,1.765 -4.186,4.515 -4.45,7.527c1.8,-3.035 4.259,-5.511 8.386,-6.573c-2.227,2.109 -3.262,3.404 -3.42,7.472c2.343,-3.875 4.342,-4.759 8.342,-5.885c-2.785,1.965 -4.348,4.417 -4.872,7.282c1.916,-2.587 4.528,-4.675 8.135,-6.049c-2.01,1.78 -2.606,3.105 -2.759,7.01c1.097,-3.018 3.397,-4.365 6.853,-4.875c-2.344,1.674 -3.056,3.831 -3.593,6.04c1.931,-2.14 4.118,-3.698 7.371,-3.77c-3.052,1.218 -5.393,3.646 -7.46,6.538c2.958,-2.216 6.127,-4.467 9.413,-3.747c-3.315,0.874 -4.865,2.111 -7.38,4.929c2.986,-2.008 6.029,-3.071 9.17,-2.532c-3.071,0.8 -5.36,2.379 -7.179,4.427c3.054,-1.606 6.097,-2.572 9.12,-2.291c-2.715,0.73 -4.227,2.26 -6.163,4.884c2.845,-1.688 5.058,-2.396 8.523,-1.519c-3.078,0.518 -4.743,2.364 -6.101,4.501c2.248,-1.779 5.011,-3.009 8.674,-3.283c-3.155,0.712 -5.131,2.957 -6.528,5.955c1.768,-2.084 3.826,-3.711 6.734,-3.999c-2.136,0.676 -3.44,2.484 -4.452,4.688c1.981,-2.205 4.578,-3.734 7.82,-4.557Z" style="fill:url(#_Radial10);"/><path d="M70.771,174.524c-11.318,-27.393 -29.185,-36.586 -50.269,-36.841c23.618,2.069 40.76,13.482 48.636,38.264c0.991,0.377 2.09,-0.319 1.633,-1.423Z" style="fill:#196a4d;"/></g><g id="leaf1" serif:id="leaf"><path d="M77.741,162.33c-5.281,-2.786 -7.013,-3.273 -13.323,-3.039c5.369,-1.342 7.759,-1.161 13.289,1.363c-4.661,-3.095 -6.926,-4.029 -13.306,-5.579c6.189,-0.002 8.286,1.069 13.653,3.643c-0.608,-1.342 -15.003,-7.193 -15.344,-6.546c6.154,0.469 11.748,1.874 16.563,4.584c-4.595,-3.577 -9.697,-5.549 -15.068,-6.664c5.685,0.312 11.237,1.611 16.563,4.584c-4.553,-3.458 -9.811,-5.511 -15.377,-6.95c5.683,0.691 11.149,1.977 16.128,4.598c-3.6,-3.735 -8.667,-5.825 -14.188,-7.406c6.235,0.828 11.972,2.288 16.777,4.935c-4.005,-3.53 -8.992,-5.653 -14.283,-7.34c5.891,0.709 11.696,2.062 17.265,5.168c-3.493,-3.755 -8.153,-6.178 -13.222,-8.134c5.723,0.96 11.28,2.758 16.534,6.091c-2.194,-3.839 -7.069,-6.686 -11.565,-8.837c5.528,1.219 10.489,3.558 14.806,7.172c-1.499,-3.538 -6.362,-6.746 -9.559,-8.761c4.658,1.605 8.989,3.893 12.617,7.65c-1.333,-3.55 -6.025,-7.684 -10.007,-10.277c4.326,1.432 8.171,3.67 11.159,7.343c-0.221,-3.745 -2.933,-7.46 -6.479,-11.167c4.619,2.519 7.766,6.925 10.719,11.254c-0.632,-4.535 -1.916,-9.443 -4.983,-12.61c4.149,1.811 6.23,5.966 9.093,11.166c0.783,-4.546 -0.21,-8.417 -1.677,-12.108c4.342,2.182 4.561,6.466 6.179,11.276c0.392,-4.386 -0.2,-8.102 -1.373,-11.423c2.428,2.772 4.237,6.101 4.912,10.453c1.222,-4.364 1.022,-8.284 0.14,-11.991c2.135,2.857 3.694,6.37 3.728,11.624c2.607,-3.57 3.996,-7.078 4.456,-10.54c0.583,3.331 0.598,6.726 -0.865,10.29c2.545,-3.469 5.779,-6.228 10.301,-7.658c-3.228,2.307 -5.552,4.938 -7.198,7.811c3.776,-3.362 8.775,-5.149 14.368,-6.171c-4.61,1.713 -9.374,4 -12.109,7.628c6.235,-1.342 11.706,-1.115 16.712,0.072c-5.758,0.478 -12.629,0.253 -16.323,2.001c6.065,0.859 12.453,3.813 17.07,6.624l-19.398,-5.444c7.014,2.16 13.038,5.371 18.151,9.551c-6.348,-3.44 -12.852,-6.244 -19.524,-8.375c4.71,2.931 7.358,6.58 8.805,10.645c-4.594,-4.598 -10.227,-9.831 -14.834,-11.032c3.849,2.328 5.514,6.72 5.98,9.767c-2.373,-4.324 -5.366,-7.839 -10.258,-8.877c3.148,1.999 3.847,4.807 3.891,7.83c-1.574,-3.157 -3.846,-5.805 -7.885,-7.164c2.067,2.265 3.005,3.632 2.867,7.7c-2.054,-4.034 -3.984,-5.06 -7.892,-6.474c2.635,2.162 4.015,4.721 4.33,7.617c-1.723,-2.72 -4.176,-4.992 -7.674,-6.623c1.876,1.92 2.374,3.285 2.242,7.191c-0.875,-3.089 -3.07,-4.6 -6.48,-5.359c2.216,1.839 2.769,4.043 3.145,6.285c-1.771,-2.274 -3.839,-3.988 -7.078,-4.295c2.956,1.436 5.114,4.027 6.965,7.062c-2.79,-2.425 -5.786,-4.9 -9.116,-4.42c3.243,1.112 4.699,2.458 7.002,5.451c-2.831,-2.219 -5.79,-3.499 -8.962,-3.19c3.006,1.02 5.174,2.762 6.839,4.936c-2.929,-1.824 -5.894,-3.008 -8.929,-2.947c2.654,0.926 4.051,2.561 5.791,5.319c-2.715,-1.891 -4.87,-2.757 -8.389,-2.134c3.031,0.74 4.558,2.702 5.756,4.932c-2.112,-1.937 -4.778,-3.364 -8.411,-3.903c3.094,0.939 4.902,3.321 6.078,6.412c-1.612,-2.207 -3.546,-3.979 -6.426,-4.476c2.081,0.829 3.25,2.726 4.099,4.998c-1.815,-2.342 -4.294,-4.056 -7.468,-5.112Z" style="fill:url(#_Radial11);"/><path d="M71.719,171.791c13.279,-26.499 31.768,-34.372 52.815,-33.099c-23.706,0.351 -41.633,10.491 -51.29,34.637c-1.015,0.304 -2.06,-0.47 -1.525,-1.538Z" style="fill:#196a4d;"/></g><path id="spike" d="M78.892,171.069c4.072,1.229 8.005,2.753 11.853,4.455c0.142,0.067 0.209,0.231 0.153,0.377c-0.055,0.147 -0.214,0.226 -0.364,0.181c-3.943,-1.171 -7.851,-2.101 -12.027,-2.704c-0.498,-0.07 -0.846,-0.527 -0.784,-1.025c0.115,-0.606 0.402,-1.04 1.169,-1.284Z" style="fill:#8c671d;"/><ellipse id="head" cx="72.093" cy="172.202" rx="7.98" ry="8.924" style="fill:url(#_Radial12);"/><g id="palm"><g id="stem"><path d="M68.022,177.343l4.071,-2.339l4.072,2.339l2.735,-1.302l0.638,3.241l-0.001,0.027c-0.025,2.349 -3.351,4.251 -7.444,4.251c-4.109,-0 -7.444,-1.917 -7.444,-4.278l0.638,-3.241l2.735,1.302Z" style="fill:url(#_Radial13);"/><path d="M68.022,181.622l4.071,-2.34l4.072,2.34l2.735,-1.302l0.638,3.24l-0.001,0.028c-0.025,2.348 -3.351,4.25 -7.444,4.25c-4.109,0 -7.444,-1.917 -7.444,-4.278l0.638,-3.24l2.735,1.302Z" style="fill:url(#_Radial14);"/><path d="M68.022,185.9l4.071,-2.34l4.072,2.34l2.735,-1.302l0.638,3.24l-0.001,0.028c-0.025,2.348 -3.351,4.25 -7.444,4.25c-4.109,0 -7.444,-1.917 -7.444,-4.278l0.638,-3.24l2.735,1.302Z" style="fill:url(#_Radial15);"/></g><g id="spikes"><path id="spike1" serif:id="spike" d="M64.798,173.085c-4.599,5.074 -8.71,10.473 -12.548,16.053c-0.086,0.131 -0.057,0.306 0.067,0.402c0.125,0.095 0.302,0.079 0.406,-0.038c4.492,-5.03 9.092,-9.632 14.431,-13.972c0.392,-0.318 0.489,-0.877 0.226,-1.308c-0.57,-0.965 -1.273,-1.448 -2.582,-1.137Z" style="fill:#8c671d;"/><path id="spike2" serif:id="spike" d="M65.423,168.741c-3.384,-0.902 -6.797,-1.552 -10.227,-2.044c-0.156,-0.019 -0.3,0.085 -0.33,0.238c-0.031,0.154 0.062,0.305 0.212,0.347c3.226,0.897 6.341,1.946 9.497,3.314c0.24,0.105 0.513,0.102 0.75,-0.007c0.238,-0.11 0.418,-0.315 0.494,-0.566c0.06,-0.43 -0.006,-0.827 -0.396,-1.282Z" style="fill:#8c671d;"/><path id="spike3" serif:id="spike" d="M77.616,168.098c4.394,-1.475 8.852,-2.592 13.348,-3.496c0.154,-0.028 0.304,0.068 0.343,0.22c0.039,0.151 -0.046,0.308 -0.194,0.358c-4.267,1.442 -8.34,3.074 -12.446,5.182c-0.432,0.223 -0.963,0.071 -1.209,-0.348c-0.336,-0.623 -0.384,-1.198 0.158,-1.916Z" style="fill:#8c671d;"/><path id="spike4" serif:id="spike" d="M78.714,173.277c4.187,4.71 7.929,9.71 11.419,14.874c0.087,0.131 0.058,0.307 -0.067,0.403c-0.125,0.096 -0.303,0.078 -0.406,-0.04c-4.081,-4.644 -8.271,-8.905 -13.128,-12.937c-0.395,-0.325 -0.482,-0.895 -0.204,-1.324c0.534,-0.854 1.194,-1.272 2.386,-0.976Z" style="fill:#8c671d;"/></g></g><path id="stem_mask" d="M64.799,168.578c1.244,-3.122 4.043,-5.301 7.294,-5.301c2.921,0 5.478,1.759 6.869,4.381c3.979,-1.267 8.008,-2.255 12.068,-3.069c0.152,-0.029 0.301,0.065 0.34,0.215c0.039,0.15 -0.045,0.304 -0.191,0.354c-3.905,1.317 -7.646,2.792 -11.398,4.643c0.131,0.524 0.22,1.067 0.263,1.624c3.685,1.17 7.258,2.575 10.762,4.126c0.141,0.065 0.208,0.227 0.154,0.372c-0.055,0.145 -0.212,0.223 -0.361,0.179c-3.5,-1.042 -6.97,-1.894 -10.624,-2.497c-0.044,0.31 -0.102,0.615 -0.173,0.913c3.765,4.361 7.172,8.956 10.369,13.689c0.083,0.13 0.052,0.301 -0.072,0.394c-0.123,0.093 -0.297,0.074 -0.399,-0.042c-3.306,-3.764 -6.683,-7.277 -10.427,-10.621l0.265,1.344l-0.001,0.027c-0.006,0.551 -0.193,1.077 -0.529,1.56l0.53,2.691l-0.001,0.028c-0.006,0.55 -0.193,1.076 -0.529,1.559l0.53,2.691l-0.001,0.028c-0.006,0.55 -0.193,1.076 -0.529,1.559l0.53,2.691l-0.001,0.028c-0.006,0.55 -0.193,1.076 -0.529,1.559l0.53,2.691l-0.001,0.028c-0.006,0.55 -0.193,1.076 -0.529,1.559l0.53,2.691l-0.001,0.028c-0.004,0.405 -0.107,0.797 -0.295,1.168l0.601,3.054l0,0.029c-0.006,0.573 -0.201,1.121 -0.551,1.623l0.551,2.802l0,0.029c-0.006,0.573 -0.201,1.121 -0.551,1.623l0.551,2.802l0,0.029c-0.006,0.573 -0.201,1.121 -0.551,1.623l0.551,2.802l0,0.029c-0.005,0.469 -0.136,0.921 -0.376,1.345l0.606,3.08l0,0.03c-0.006,0.59 -0.207,1.154 -0.567,1.671l0.567,2.885l0,0.03c-0.005,0.455 -0.125,0.894 -0.345,1.308l0.639,3.248l0,0.031c-0.007,0.612 -0.215,1.196 -0.588,1.733l0.588,2.991l0,0.031c-0.029,2.61 -3.725,4.724 -8.274,4.724c-4.567,0 -8.274,-2.13 -8.274,-4.755l0.589,-2.991c-0.38,-0.545 -0.589,-1.141 -0.589,-1.764l0.639,-3.248c-0.224,-0.423 -0.345,-0.873 -0.345,-1.338l0.568,-2.885c-0.367,-0.526 -0.568,-1.1 -0.568,-1.701l0.606,-3.08c-0.244,-0.433 -0.376,-0.894 -0.376,-1.374l0.551,-2.802c-0.355,-0.511 -0.551,-1.068 -0.551,-1.652l0.551,-2.802c-0.355,-0.511 -0.551,-1.068 -0.551,-1.652l0.551,-2.802c-0.355,-0.511 -0.551,-1.068 -0.551,-1.652l0.601,-3.054c-0.192,-0.379 -0.295,-0.78 -0.295,-1.196l0.53,-2.691c-0.342,-0.491 -0.53,-1.026 -0.53,-1.587l0.53,-2.691c-0.342,-0.491 -0.53,-1.026 -0.53,-1.587l0.53,-2.691c-0.342,-0.491 -0.53,-1.026 -0.53,-1.587l0.53,-2.691c-0.342,-0.491 -0.53,-1.027 -0.53,-1.587l0.53,-2.691c-0.342,-0.491 -0.53,-1.027 -0.53,-1.587l0.391,-1.988c-4.476,3.835 -8.459,7.885 -12.362,12.259c-0.104,0.116 -0.279,0.132 -0.402,0.036c-0.122,-0.095 -0.15,-0.269 -0.063,-0.397c3.69,-5.367 7.63,-10.568 12.015,-15.473c-0.076,-0.493 -0.115,-1 -0.115,-1.517c-0,-0.595 0.052,-1.177 0.152,-1.74c-3.07,-1.311 -6.106,-2.326 -9.247,-3.197c-0.148,-0.041 -0.24,-0.189 -0.21,-0.34c0.029,-0.151 0.17,-0.254 0.322,-0.237c3.242,0.463 6.468,1.066 9.669,1.89Z" style="fill:none;"/><clipPath id="_clip16"><path d="M64.799,168.578c1.244,-3.122 4.043,-5.301 7.294,-5.301c2.921,0 5.478,1.759 6.869,4.381c3.979,-1.267 8.008,-2.255 12.068,-3.069c0.152,-0.029 0.301,0.065 0.34,0.215c0.039,0.15 -0.045,0.304 -0.191,0.354c-3.905,1.317 -7.646,2.792 -11.398,4.643c0.131,0.524 0.22,1.067 0.263,1.624c3.685,1.17 7.258,2.575 10.762,4.126c0.141,0.065 0.208,0.227 0.154,0.372c-0.055,0.145 -0.212,0.223 -0.361,0.179c-3.5,-1.042 -6.97,-1.894 -10.624,-2.497c-0.044,0.31 -0.102,0.615 -0.173,0.913c3.765,4.361 7.172,8.956 10.369,13.689c0.083,0.13 0.052,0.301 -0.072,0.394c-0.123,0.093 -0.297,0.074 -0.399,-0.042c-3.306,-3.764 -6.683,-7.277 -10.427,-10.621l0.265,1.344l-0.001,0.027c-0.006,0.551 -0.193,1.077 -0.529,1.56l0.53,2.691l-0.001,0.028c-0.006,0.55 -0.193,1.076 -0.529,1.559l0.53,2.691l-0.001,0.028c-0.006,0.55 -0.193,1.076 -0.529,1.559l0.53,2.691l-0.001,0.028c-0.006,0.55 -0.193,1.076 -0.529,1.559l0.53,2.691l-0.001,0.028c-0.006,0.55 -0.193,1.076 -0.529,1.559l0.53,2.691l-0.001,0.028c-0.004,0.405 -0.107,0.797 -0.295,1.168l0.601,3.054l0,0.029c-0.006,0.573 -0.201,1.121 -0.551,1.623l0.551,2.802l0,0.029c-0.006,0.573 -0.201,1.121 -0.551,1.623l0.551,2.802l0,0.029c-0.006,0.573 -0.201,1.121 -0.551,1.623l0.551,2.802l0,0.029c-0.005,0.469 -0.136,0.921 -0.376,1.345l0.606,3.08l0,0.03c-0.006,0.59 -0.207,1.154 -0.567,1.671l0.567,2.885l0,0.03c-0.005,0.455 -0.125,0.894 -0.345,1.308l0.639,3.248l0,0.031c-0.007,0.612 -0.215,1.196 -0.588,1.733l0.588,2.991l0,0.031c-0.029,2.61 -3.725,4.724 -8.274,4.724c-4.567,0 -8.274,-2.13 -8.274,-4.755l0.589,-2.991c-0.38,-0.545 -0.589,-1.141 -0.589,-1.764l0.639,-3.248c-0.224,-0.423 -0.345,-0.873 -0.345,-1.338l0.568,-2.885c-0.367,-0.526 -0.568,-1.1 -0.568,-1.701l0.606,-3.08c-0.244,-0.433 -0.376,-0.894 -0.376,-1.374l0.551,-2.802c-0.355,-0.511 -0.551,-1.068 -0.551,-1.652l0.551,-2.802c-0.355,-0.511 -0.551,-1.068 -0.551,-1.652l0.551,-2.802c-0.355,-0.511 -0.551,-1.068 -0.551,-1.652l0.601,-3.054c-0.192,-0.379 -0.295,-0.78 -0.295,-1.196l0.53,-2.691c-0.342,-0.491 -0.53,-1.026 -0.53,-1.587l0.53,-2.691c-0.342,-0.491 -0.53,-1.026 -0.53,-1.587l0.53,-2.691c-0.342,-0.491 -0.53,-1.026 -0.53,-1.587l0.53,-2.691c-0.342,-0.491 -0.53,-1.027 -0.53,-1.587l0.53,-2.691c-0.342,-0.491 -0.53,-1.027 -0.53,-1.587l0.391,-1.988c-4.476,3.835 -8.459,7.885 -12.362,12.259c-0.104,0.116 -0.279,0.132 -0.402,0.036c-0.122,-0.095 -0.15,-0.269 -0.063,-0.397c3.69,-5.367 7.63,-10.568 12.015,-15.473c-0.076,-0.493 -0.115,-1 -0.115,-1.517c-0,-0.595 0.052,-1.177 0.152,-1.74c-3.07,-1.311 -6.106,-2.326 -9.247,-3.197c-0.148,-0.041 -0.24,-0.189 -0.21,-0.34c0.029,-0.151 0.17,-0.254 0.322,-0.237c3.242,0.463 6.468,1.066 9.669,1.89Z"/></clipPath><g clip-path="url(#_clip16)"><path d="M50.061,183.206l10.969,8.453l-5.171,-8.453l8.619,8.453l-1.567,-7.044l5.014,8.609l-1.097,-10.018l6.425,11.27l-2.35,-11.27l5.955,13.305l-3.605,-13.305l8.462,8.453l-4.857,-11.27l11.439,11.27l-3.291,-11.27l7.679,8.139l-0,-57.342l-42.624,0l0,52.02Z" style="fill:url(#_Linear17);"/></g><g id="leaf2" serif:id="leaf"><path d="M78.019,157.349c-5.595,-1.545 -7.332,-1.612 -13.202,0.202c4.734,-2.718 7.019,-3.128 12.786,-1.915c-5.083,-2.016 -7.422,-2.41 -13.765,-2.41c5.809,-1.547 8.022,-0.97 13.649,0.335c-0.878,-1.226 -15.728,-3.644 -15.901,-2.895c5.884,-1.054 11.457,-1.006 16.597,0.575c-5.132,-2.527 -10.371,-3.279 -15.669,-3.084c5.408,-1.098 10.917,-1.149 16.597,0.575c-5.065,-2.415 -10.47,-3.211 -16.024,-3.3c5.493,-0.709 10.918,-0.752 16.191,0.697c-4.233,-2.937 -9.467,-3.819 -15.011,-4.065c6.042,-0.706 11.761,-0.637 16.876,0.882c-4.566,-2.626 -9.733,-3.562 -15.085,-3.975c5.692,-0.741 11.451,-0.8 17.389,1c-4.137,-2.984 -9.066,-4.31 -14.271,-5.054c5.591,-0.442 11.219,0.018 16.913,2.13c-2.937,-3.395 -8.164,-5.102 -12.876,-6.19c5.467,-0.127 10.659,1.037 15.537,3.671c-2.215,-3.259 -7.513,-5.34 -10.975,-6.612c4.739,0.486 9.328,1.756 13.592,4.709c-2.062,-3.313 -7.412,-6.388 -11.743,-8.058c4.389,0.392 8.51,1.731 12.154,4.757c-1.064,-3.79 -4.458,-6.93 -8.634,-9.851c4.911,1.434 8.873,5.174 12.634,8.883c-1.63,-4.5 -3.957,-9.22 -7.56,-11.707c4.309,0.824 7.212,4.572 11.089,9.198c-0.304,-4.863 -2.121,-8.591 -4.343,-12.016c4.575,1.157 5.76,5.503 8.379,10.038c-0.635,-4.602 -2.041,-8.271 -3.901,-11.388c2.913,2.241 5.373,5.209 7.001,9.51c0.149,-4.787 -0.934,-8.763 -2.609,-12.35c2.657,2.401 4.923,5.62 6.156,11.008c1.631,-4.317 2.133,-8.267 1.774,-11.937c1.309,3.276 2.099,6.759 1.54,10.784c1.596,-4.197 4.001,-7.837 7.919,-10.435c-2.503,3.175 -4.083,6.457 -4.971,9.818c2.775,-4.395 7.06,-7.477 12.077,-9.922c-3.936,2.909 -7.886,6.447 -9.624,10.854c5.546,-2.933 10.735,-4.065 15.704,-4.095c-5.295,1.928 -11.796,3.411 -14.864,6.128c5.889,-0.631 12.561,0.808 17.537,2.544l-19.453,-0.751c7.077,0.468 13.466,2.263 19.221,5.279c-6.744,-1.949 -13.492,-3.205 -20.242,-3.73c5.092,1.836 8.411,4.922 10.699,8.736c-5.363,-3.576 -11.847,-7.545 -16.446,-7.629c4.144,1.431 6.711,5.526 7.846,8.538c-3.217,-3.848 -6.83,-6.711 -11.659,-6.556c3.412,1.267 4.71,3.976 5.443,7.07c-2.2,-2.85 -4.938,-5.002 -9.04,-5.39c2.458,1.81 3.651,2.98 4.451,7.193c-2.851,-3.631 -4.896,-4.204 -8.888,-4.68c2.968,1.563 4.848,3.846 5.806,6.742c-2.239,-2.363 -5.061,-4.085 -8.718,-4.887c2.2,1.504 2.979,2.781 3.748,6.826c-1.527,-2.955 -3.933,-3.959 -7.308,-3.887c2.501,1.335 3.524,3.461 4.389,5.67c-2.182,-1.894 -4.515,-3.138 -7.626,-2.646c3.103,0.738 5.721,2.861 8.153,5.515c-3.173,-1.794 -6.552,-3.588 -9.568,-2.265c3.298,0.333 4.973,1.353 7.819,3.852c-3.165,-1.572 -6.235,-2.15 -9.142,-1.041c3.054,0.298 5.488,1.546 7.548,3.364c-3.167,-1.143 -6.221,-1.619 -9.056,-0.799c2.703,0.288 4.389,1.62 6.653,4.017c-2.982,-1.264 -5.202,-1.616 -8.364,-0.098c3.015,0.003 4.897,1.637 6.531,3.629c-2.425,-1.463 -5.254,-2.263 -8.788,-1.91c3.12,0.192 5.361,2.187 7.171,5.069c-2.017,-1.864 -4.238,-3.202 -7.055,-2.994c2.143,0.332 3.674,1.989 4.991,4.11c-2.24,-1.953 -4.959,-3.094 -8.179,-3.386Z" style="fill:url(#_Radial18);"/><path d="M74.528,168.567c6.409,-30.527 21.965,-43.226 42.014,-47.168c-22.173,6.275 -36.684,21.16 -40.231,48.367c-0.883,0.566 -2.041,0.031 -1.783,-1.199Z" style="fill:#196a4d;"/></g><g id="leaf3" serif:id="leaf"><path d="M66.255,159.781c5.595,-1.544 7.332,-1.611 13.202,0.203c-4.733,-2.718 -7.018,-3.128 -12.786,-1.915c5.083,-2.016 7.422,-2.41 13.765,-2.411c-5.808,-1.546 -8.022,-0.969 -13.649,0.336c0.878,-1.226 15.728,-3.644 15.901,-2.895c-5.884,-1.054 -11.457,-1.006 -16.597,0.575c5.132,-2.527 10.371,-3.279 15.669,-3.084c-5.408,-1.098 -10.917,-1.149 -16.597,0.575c5.065,-2.415 10.47,-3.211 16.024,-3.3c-5.493,-0.709 -10.918,-0.752 -16.191,0.697c4.233,-2.937 9.467,-3.819 15.011,-4.065c-6.042,-0.706 -11.761,-0.637 -16.876,0.882c4.566,-2.626 9.733,-3.562 15.085,-3.975c-5.692,-0.741 -11.451,-0.8 -17.388,1c4.137,-2.985 9.065,-4.31 14.27,-5.054c-5.591,-0.442 -11.218,0.018 -16.913,2.13c2.937,-3.395 8.164,-5.102 12.876,-6.19c-5.467,-0.128 -10.659,1.037 -15.537,3.671c2.215,-3.259 7.513,-5.34 10.975,-6.612c-4.739,0.486 -9.328,1.756 -13.592,4.709c2.062,-3.313 7.412,-6.389 11.743,-8.058c-4.389,0.392 -8.51,1.73 -12.154,4.757c1.064,-3.79 4.459,-6.93 8.634,-9.851c-4.911,1.434 -8.872,5.173 -12.634,8.883c1.63,-4.5 3.957,-9.22 7.56,-11.707c-4.309,0.824 -7.212,4.572 -11.088,9.198c0.304,-4.864 2.12,-8.592 4.342,-12.016c-4.575,1.157 -5.76,5.503 -8.378,10.038c0.634,-4.602 2.04,-8.271 3.9,-11.388c-2.913,2.241 -5.373,5.209 -7.001,9.51c-0.149,-4.788 0.934,-8.764 2.609,-12.35c-2.656,2.401 -4.923,5.62 -6.156,11.008c-1.631,-4.317 -2.133,-8.267 -1.774,-11.937c-1.309,3.276 -2.099,6.759 -1.54,10.784c-1.596,-4.197 -4.001,-7.838 -7.919,-10.435c2.503,3.175 4.083,6.456 4.971,9.818c-2.775,-4.395 -7.06,-7.477 -12.077,-9.922c3.936,2.909 7.886,6.447 9.624,10.854c-5.546,-2.933 -10.735,-4.065 -15.704,-4.095c5.295,1.927 11.797,3.411 14.864,6.127c-5.889,-0.63 -12.561,0.809 -17.537,2.545l19.453,-0.752c-7.077,0.469 -13.466,2.263 -19.221,5.28c6.745,-1.949 13.492,-3.205 20.242,-3.73c-5.092,1.836 -8.411,4.922 -10.699,8.736c5.363,-3.576 11.847,-7.545 16.447,-7.629c-4.145,1.431 -6.712,5.526 -7.847,8.538c3.217,-3.848 6.83,-6.711 11.659,-6.557c-3.412,1.268 -4.71,3.977 -5.443,7.071c2.2,-2.85 4.939,-5.002 9.04,-5.39c-2.458,1.81 -3.651,2.98 -4.451,7.193c2.851,-3.631 4.896,-4.204 8.888,-4.681c-2.968,1.563 -4.848,3.847 -5.805,6.743c2.238,-2.364 5.06,-4.085 8.717,-4.887c-2.2,1.504 -2.979,2.781 -3.748,6.826c1.527,-2.955 3.933,-3.959 7.308,-3.888c-2.501,1.336 -3.523,3.461 -4.389,5.67c2.183,-1.894 4.515,-3.137 7.626,-2.645c-3.103,0.738 -5.721,2.861 -8.153,5.515c3.174,-1.795 6.552,-3.589 9.568,-2.265c-3.298,0.333 -4.973,1.353 -7.819,3.852c3.165,-1.573 6.235,-2.15 9.142,-1.041c-3.054,0.298 -5.488,1.546 -7.548,3.364c3.167,-1.143 6.221,-1.619 9.056,-0.799c-2.703,0.288 -4.388,1.619 -6.652,4.017c2.981,-1.264 5.201,-1.616 8.363,-0.098c-3.015,0.003 -4.897,1.637 -6.531,3.628c2.425,-1.462 5.254,-2.262 8.788,-1.909c-3.12,0.192 -5.361,2.187 -7.171,5.069c2.017,-1.864 4.238,-3.202 7.055,-2.994c-2.143,0.332 -3.674,1.989 -4.991,4.11c2.24,-1.953 4.959,-3.095 8.179,-3.387Z" style="fill:url(#_Radial19);"/><path d="M69.746,171c-6.409,-30.527 -21.965,-43.226 -42.014,-47.169c22.174,6.275 36.684,21.161 40.231,48.368c0.883,0.566 2.041,0.031 1.783,-1.199Z" style="fill:#196a4d;"/></g><path id="leaf4" serif:id="leaf" d="M77.207,167.635c-0.265,0.513 0.715,1.426 1.502,0.036c3.251,-8.964 34.244,-24.988 59.196,-15.527c-1.431,-0.935 -2.912,-1.572 -4.493,-1.844l3.469,0.332c-1.663,-0.93 -3.737,-2.06 -5.925,-2.131l1.794,-0.259c-2.948,-1.141 -7.927,-1.359 -9.907,-1.355c-5.512,-1.364 -9.332,-0.629 -13.238,0c-15.003,-1.179 -25.541,7.464 -32.398,20.748Z" style="fill:url(#_Radial20);"/><path id="leaf5" serif:id="leaf" d="M66,169.091c0.265,0.513 -0.715,1.426 -1.502,0.036c-3.251,-8.964 -34.243,-24.988 -59.196,-15.527c1.431,-0.935 2.913,-1.572 4.493,-1.844l-3.469,0.332c1.664,-0.93 3.737,-2.06 5.926,-2.131l-1.795,-0.259c2.948,-1.141 7.928,-1.359 9.907,-1.355c5.512,-1.364 9.332,-0.629 13.238,0c15.003,-1.179 25.542,7.464 32.398,20.748Z" style="fill:url(#_Radial21);"/></g><path d="M103.737,214.559l0.208,0.104l-0.021,68.159l-54.658,0l0,-41.028l54.471,-27.235Z" style="fill:#2eb3ac;"/><path d="M94.46,209.92l-2.034,5.825c-2.049,7.225 -9.874,10.13 -21.208,10.437c-9.562,0.014 -16.76,-3.419 -21.952,-9.777l0,24.584l18.902,-8.43l35.777,-17.899l-9.485,-4.74Z" style="fill:#5c444a;"/></g></g><defs><linearGradient id="_Linear1" x1="0" y1="0" x2="1" y2="0" gradientUnits="userSpaceOnUse" gradientTransform="matrix(40.7364,0,0,168.369,83.5248,109.839)"><stop offset="0" style="stop-color:#cdcdc2;stop-opacity:1"/><stop offset="1" style="stop-color:#b9b9a7;stop-opacity:1"/></linearGradient><linearGradient id="_Linear3" x1="0" y1="0" x2="1" y2="0" gradientUnits="userSpaceOnUse" gradientTransform="matrix(62.8067,0,0,62.7358,76.915,107.404)"><stop offset="0" style="stop-color:#c6c6b7;stop-opacity:1"/><stop offset="1" style="stop-color:#979a87;stop-opacity:1"/></linearGradient><linearGradient id="_Linear4" x1="0" y1="0" x2="1" y2="0" gradientUnits="userSpaceOnUse" gradientTransform="matrix(62.8067,0,0,62.7358,76.915,107.404)"><stop offset="0" style="stop-color:#c6c6b7;stop-opacity:1"/><stop offset="1" style="stop-color:#979a87;stop-opacity:1"/></linearGradient><linearGradient id="_Linear5" x1="0" y1="0" x2="1" y2="0" gradientUnits="userSpaceOnUse" gradientTransform="matrix(62.8067,4.73317e-30,1.57772e-30,62.7358,76.915,107.404)"><stop offset="0" style="stop-color:#c6c6b7;stop-opacity:1"/><stop offset="1" style="stop-color:#979a87;stop-opacity:1"/></linearGradient><linearGradient id="_Linear6" x1="0" y1="0" x2="1" y2="0" gradientUnits="userSpaceOnUse" gradientTransform="matrix(62.8067,4.73317e-30,0,62.7358,76.915,107.404)"><stop offset="0" style="stop-color:#c6c6b7;stop-opacity:1"/><stop offset="1" style="stop-color:#979a87;stop-opacity:1"/></linearGradient><linearGradient id="_Linear7" x1="0" y1="0" x2="1" y2="0" gradientUnits="userSpaceOnUse" gradientTransform="matrix(62.8067,4.73317e-30,0,62.7358,76.915,107.404)"><stop offset="0" style="stop-color:#c6c6b7;stop-opacity:1"/><stop offset="1" style="stop-color:#979a87;stop-opacity:1"/></linearGradient><radialGradient id="_Radial10" cx="0" cy="0" r="1" gradientUnits="userSpaceOnUse" gradientTransform="matrix(-15.3296,21.3905,-48.6077,-28.5708,38.3914,155.834)"><stop offset="0" style="stop-color:#196a4d;stop-opacity:1"/><stop offset="0.3" style="stop-color:#18664f;stop-opacity:1"/><stop offset="0.5" style="stop-color:#125557;stop-opacity:1"/><stop offset="0.7" style="stop-color:#18664f;stop-opacity:1"/><stop offset="1" style="stop-color:#196a4d;stop-opacity:1"/></radialGradient><radialGradient id="_Radial11" cx="0" cy="0" r="1" gradientUnits="userSpaceOnUse" gradientTransform="matrix(13.7345,22.4457,50.556,-24.9704,105.372,155.499)"><stop offset="0" style="stop-color:#196a4d;stop-opacity:1"/><stop offset="0.3" style="stop-color:#18664f;stop-opacity:1"/><stop offset="0.5" style="stop-color:#125557;stop-opacity:1"/><stop offset="0.7" style="stop-color:#18664f;stop-opacity:1"/><stop offset="1" style="stop-color:#196a4d;stop-opacity:1"/></radialGradient><radialGradient id="_Radial12" cx="0" cy="0" r="1" gradientUnits="userSpaceOnUse" gradientTransform="matrix(7.32509e-16,23.2526,-23.5438,0,72.0931,159.995)"><stop offset="0" style="stop-color:#8c671d;stop-opacity:1"/><stop offset="0.56" style="stop-color:#825c19;stop-opacity:1"/><stop offset="1" style="stop-color:#583209;stop-opacity:1"/></radialGradient><radialGradient id="_Radial13" cx="0" cy="0" r="1" gradientUnits="userSpaceOnUse" gradientTransform="matrix(6.83318e-16,11.1468,-21.9627,0,72.0931,173.43)"><stop offset="0" style="stop-color:#8c671d;stop-opacity:1"/><stop offset="0.56" style="stop-color:#825c19;stop-opacity:1"/><stop offset="1" style="stop-color:#583209;stop-opacity:1"/></radialGradient><radialGradient id="_Radial14" cx="0" cy="0" r="1" gradientUnits="userSpaceOnUse" gradientTransform="matrix(6.83318e-16,11.1468,-21.9627,0,72.0931,177.708)"><stop offset="0" style="stop-color:#8c671d;stop-opacity:1"/><stop offset="0.56" style="stop-color:#825c19;stop-opacity:1"/><stop offset="1" style="stop-color:#583209;stop-opacity:1"/></radialGradient><radialGradient id="_Radial15" cx="0" cy="0" r="1" gradientUnits="userSpaceOnUse" gradientTransform="matrix(6.83318e-16,11.1468,-21.9627,0,72.0931,181.987)"><stop offset="0" style="stop-color:#8c671d;stop-opacity:1"/><stop offset="0.56" style="stop-color:#825c19;stop-opacity:1"/><stop offset="1" style="stop-color:#583209;stop-opacity:1"/></radialGradient><linearGradient id="_Linear17" x1="0" y1="0" x2="1" y2="0.000314905" gradientUnits="userSpaceOnUse" gradientTransform="matrix(-14.9522,-59.8768,100.936,-25.1485,83.2218,207.98)"><stop offset="0" style="stop-color:#8c671d;stop-opacity:0.2"/><stop offset="0.55" style="stop-color:#67420f;stop-opacity:0.76"/><stop offset="1" style="stop-color:#583209;stop-opacity:1"/></linearGradient><radialGradient id="_Radial18" cx="0" cy="0" r="1" gradientUnits="userSpaceOnUse" gradientTransform="matrix(18.0233,19.6249,41.7513,-38.2575,102.395,143.439)"><stop offset="0" style="stop-color:#27a040;stop-opacity:1"/><stop offset="0.3" style="stop-color:#249a41;stop-opacity:1"/><stop offset="0.5" style="stop-color:#157f44;stop-opacity:1"/><stop offset="0.7" style="stop-color:#249a41;stop-opacity:1"/><stop offset="1" style="stop-color:#27a040;stop-opacity:1"/></radialGradient><radialGradient id="_Radial19" cx="0" cy="0" r="1" gradientUnits="userSpaceOnUse" gradientTransform="matrix(-18.0233,19.6249,-41.7513,-38.2575,41.8787,145.872)"><stop offset="0" style="stop-color:#27a040;stop-opacity:1"/><stop offset="0.3" style="stop-color:#249a41;stop-opacity:1"/><stop offset="0.5" style="stop-color:#157f44;stop-opacity:1"/><stop offset="0.7" style="stop-color:#249a41;stop-opacity:1"/><stop offset="1" style="stop-color:#27a040;stop-opacity:1"/></radialGradient><radialGradient id="_Radial20" cx="0" cy="0" r="1" gradientUnits="userSpaceOnUse" gradientTransform="matrix(48.9899,-16.5617,6.09153,17.9782,100.576,167.38)"><stop offset="0" style="stop-color:#27a040;stop-opacity:1"/><stop offset="0.5" style="stop-color:#196a4d;stop-opacity:1"/><stop offset="1" style="stop-color:#27a040;stop-opacity:1"/></radialGradient><radialGradient id="_Radial21" cx="0" cy="0" r="1" gradientUnits="userSpaceOnUse" gradientTransform="matrix(-48.9899,-16.5617,-6.09153,17.9782,42.6314,168.836)"><stop offset="0" style="stop-color:#27a040;stop-opacity:1"/><stop offset="0.5" style="stop-color:#196a4d;stop-opacity:1"/><stop offset="1" style="stop-color:#27a040;stop-opacity:1"/></radialGradient></defs></svg>