<?xml version="1.0" encoding="UTF-8" standalone="no"?><!DOCTYPE svg PUBLIC "-//W3C//DTD SVG 1.1//EN" "http://www.w3.org/Graphics/SVG/1.1/DTD/svg11.dtd"><svg width="178.8px" height="106.5px" viewBox="0 0 559 333" version="1.1" xmlns="http://www.w3.org/2000/svg" xmlns:xlink="http://www.w3.org/1999/xlink" xml:space="preserve" xmlns:serif="http://www.serif.com/" style="fill-rule:evenodd;clip-rule:evenodd;stroke-linejoin:round;stroke-miterlimit:2;"><g id="spacebar"><path id="corners-are-2--4-and-8" serif:id="corners are 2, 4 and 8" d="M545.473,50.25c3.717,1.859 6.268,5.444 6.805,9.566c1.926,14.786 6.423,49.309 6.423,49.309l-446.898,223.765l-111.803,-55.901c0,-0 4.298,-34.494 6.141,-49.291c0.515,-4.132 3.054,-7.737 6.772,-9.613c48.558,-24.51 379.24,-191.424 426.453,-215.255c3.528,-1.781 7.689,-1.789 11.223,-0.022c18.302,9.151 76.116,38.059 94.884,47.442Z" style="fill:#cdcdc2;"/><path id="basex0.975" d="M419.566,12.824c15.986,-8.069 34.845,-8.105 50.861,-0.097c17.872,8.936 41.546,20.773 58.679,29.34c4.232,2.116 6.906,6.439 6.91,11.17c0.004,4.73 -2.663,9.058 -6.89,11.181c-74.274,37.297 -313.063,157.205 -391.842,196.764c-16.029,8.049 -34.923,8.032 -50.938,-0.048c-17.506,-8.831 -40.525,-20.445 -57.265,-28.89c-4.212,-2.125 -6.869,-6.441 -6.87,-11.159c-0,-4.718 2.656,-9.034 6.868,-11.16c73.883,-37.293 311.942,-157.455 390.487,-197.101Z" style="fill:#d5d5c9;"/><path d="M98.064,267.046c8.425,4.25 13.739,12.883 13.739,22.32l0,43.524l-111.803,-55.901c-0,-0 3.907,-31.354 5.868,-47.099c0.252,-2.017 1.468,-3.786 3.262,-4.742c1.794,-0.957 3.941,-0.981 5.756,-0.065c17.758,8.959 60.939,30.743 83.178,41.963Z" style="fill:#c6c6b7;"/><path d="M111.803,332.89c-0,-0 0,-26.037 0,-43.492c0,-9.453 5.333,-18.098 13.782,-22.341c67.894,-34.093 365.643,-183.609 417.969,-209.884c1.809,-0.908 3.946,-0.884 5.734,0.065c1.789,0.949 3.006,2.706 3.268,4.713c2.048,15.72 6.145,47.174 6.145,47.174l-446.898,223.765Z" style="fill:#a4a289;"/></g></svg>