<?xml version="1.0" encoding="UTF-8" standalone="no"?><!DOCTYPE svg PUBLIC "-//W3C//DTD SVG 1.1//EN" "http://www.w3.org/Graphics/SVG/1.1/DTD/svg11.dtd"><svg width="71.5px" height="53.6px" viewBox="0 0 72 54" version="1.1" xmlns="http://www.w3.org/2000/svg" xmlns:xlink="http://www.w3.org/1999/xlink" xml:space="preserve" xmlns:serif="http://www.serif.com/" style="fill-rule:evenodd;clip-rule:evenodd;stroke-linejoin:round;stroke-miterlimit:2;"><g id="spacebar_near_end"><path id="corners-are-2--4-and-8" serif:id="corners are 2, 4 and 8" d="M71.453,35.702l-35.676,17.939l-35.777,-17.888c-0,-0 1.375,-11.035 1.965,-15.771c0.165,-1.324 0.979,-2.478 2.17,-3.078c7.365,-3.71 33.557,-16.904 33.557,-16.904l33.353,17.137l0.408,18.565Z" style="fill:#cdcdc2;"/><path id="basex0.975" d="M71.434,16.871c0,0 -17.038,8.562 -27.559,13.849c-5.094,2.559 -11.099,2.555 -16.189,-0.013c-5.607,-2.829 -12.999,-6.558 -18.373,-9.269c-1.348,-0.68 -2.199,-2.062 -2.198,-3.572c0,-1.511 0.851,-2.892 2.2,-3.572c10.348,-5.212 28.377,-14.294 28.377,-14.294" style="fill:#d5d5c9;"/><path d="M31.38,32.571c2.697,1.36 4.397,4.123 4.397,7.142l0,13.928l-35.777,-17.888c0,-0 1.25,-10.034 1.878,-15.072c0.08,-0.645 0.47,-1.212 1.044,-1.518c0.574,-0.306 1.261,-0.313 1.841,-0.02c5.683,2.867 19.501,9.838 26.617,13.428Z" style="fill:#c6c6b7;"/><path d="M71.453,35.702l-35.676,17.939c-0,-0 -0,-8.333 0,-13.919c0,-3.024 1.706,-5.79 4.408,-7.148c9.54,-4.794 31.249,-15.703 31.249,-15.703" style="fill:#a4a289;"/></g></svg>