<?xml version="1.0" encoding="UTF-8" standalone="no"?><!DOCTYPE svg PUBLIC "-//W3C//DTD SVG 1.1//EN" "http://www.w3.org/Graphics/SVG/1.1/DTD/svg11.dtd"><svg width="71.6px" height="52.8px" viewBox="0 0 72 53" version="1.1" xmlns="http://www.w3.org/2000/svg" xmlns:xlink="http://www.w3.org/1999/xlink" xml:space="preserve" xmlns:serif="http://www.serif.com/" style="fill-rule:evenodd;clip-rule:evenodd;stroke-linejoin:round;stroke-miterlimit:2;"><g id="spacebar_far-end" serif:id="spacebar_far end"><path id="corners-are-2--4-and-8" serif:id="corners are 2, 4 and 8" d="M67.321,16.08c1.19,0.595 2.006,1.742 2.178,3.061c0.616,4.732 2.055,15.779 2.055,15.779l-35.777,17.889l-35.777,-17.889l2.117,-17.969c-0,-0 24.342,-12.487 31.241,-16.026c1.134,-0.582 2.476,-0.589 3.615,-0.019c5.873,2.936 24.348,12.174 30.348,15.174Z" style="fill:#cdcdc2;"/><path id="basex0.975" d="M26.992,4.19c5.135,-2.634 11.218,-2.665 16.381,-0.084c5.72,2.86 13.273,6.637 18.737,9.369c1.352,0.676 2.208,2.056 2.211,3.568c0.004,1.512 -0.845,2.896 -2.194,3.579c-9.774,4.943 -26.181,13.243 -26.181,13.243l-33.829,-16.915c-0,0 15.09,-7.74 24.875,-12.76Z" style="fill:#d5d5c9;"/><path d="M35.93,33.858c0,-0 23.013,-11.631 30.773,-15.553c0.579,-0.292 1.264,-0.286 1.838,0.018c0.573,0.303 0.964,0.866 1.048,1.509c0.655,5.033 1.965,15.088 1.965,15.088l-35.777,17.889l0.153,-18.951Z" style="fill:#a4a289;"/></g></svg>