<?xml version="1.0" encoding="UTF-8" standalone="no"?><!DOCTYPE svg PUBLIC "-//W3C//DTD SVG 1.1//EN" "http://www.w3.org/Graphics/SVG/1.1/DTD/svg11.dtd"><svg width="250.4px" height="358.2px" viewBox="0 0 3263 4667" version="1.1" xmlns="http://www.w3.org/2000/svg" xmlns:xlink="http://www.w3.org/1999/xlink" xml:space="preserve" xmlns:serif="http://www.serif.com/" style="fill-rule:evenodd;clip-rule:evenodd;stroke-linecap:round;stroke-linejoin:round;stroke-miterlimit:1.5;"><g transform="matrix(0.894426,0.447217,0,1.11804,48.7118,166.733)"><text x="1351.15px" y="13.909px" style="font-family:'CourierNewPSMT', 'Courier New', monospace;font-size:420.346px;">PUNP</text></g><g id="column"><path d="M1490.03,3732.51l746.717,-0l92.487,232.92l-465.845,232.925l-465.846,-232.925l92.487,-232.92Z" style="fill:#c6c6b7;"/><path d="M1863.77,3919.38l372.983,-186.866l92.487,232.92l-465.845,232.925l0.375,-278.979Z" style="fill:#c6c6b7;"/><path d="M1863.39,3919.19l-373.359,-186.679l-92.487,232.925l465.846,232.92l-0,-279.166Z" style="fill:#cdcdc2;"/><path d="M1863.39,3545.83l373.358,186.68l-373.358,186.679l-373.359,-186.679l373.359,-186.68Z" style="fill:#d5d5c9;"/><path d="M1597.51,3732.51l0,-1863.15l530.421,-0l0,1863.15c0,73.104 -118.837,132.454 -265.212,132.454c-146.371,-0 -265.209,-59.35 -265.209,-132.454Z" style="fill:url(#_Linear1);"/><g><clipPath id="_clip2"><path d="M1597.51,3732.51l0,-1863.15l530.421,-0l0,1863.15c0,73.104 -118.837,132.454 -265.212,132.454c-146.371,-0 -265.209,-59.35 -265.209,-132.454Z"/></clipPath><g clip-path="url(#_clip2)"><rect x="1637.97" y="1885.27" width="19.525" height="2019.3" style="fill:url(#_Linear3);"/><rect x="1710.04" y="1931.17" width="30.312" height="2019.3" style="fill:url(#_Linear4);"/><rect x="2076.45" y="1910.33" width="19.525" height="2019.3" style="fill:url(#_Linear5);"/><rect x="1993.6" y="1910.33" width="30.313" height="2019.3" style="fill:url(#_Linear6);"/><rect x="1844.45" y="1951.78" width="36.542" height="2019.3" style="fill:url(#_Linear7);"/></g></g><path d="M1397.55,1636.2l931.692,-0l-92.488,232.925l-373.358,186.679l-373.359,-186.679l-92.487,-232.925Z" style="fill:#c6c6b7;"/><path d="M1863.88,1869.37l465.359,-233.171l-92.488,232.925l-373.358,186.679l0.487,-186.433Z" style="fill:#c3c3b1;"/><path d="M1863.39,1869.12l-465.846,-232.925l92.717,234.087l373.129,185.517l-0,-186.679Z" style="fill:#cdcdc2;"/><path d="M1863.39,1403.28l465.846,232.921l-465.846,232.925l-465.846,-232.925l465.846,-232.921Z" style="fill:#d5d5c9;"/></g><path id="wall" d="M2795.09,4198.38l-465.851,232.925l0.001,-2329.24l465.849,-232.925l0,2329.24Z" style="fill:url(#_Radial8);"/><path id="wall-with-edge" serif:id="wall with edge" d="M1863.39,4198.38l465.846,232.925l90.029,-45.013l-0,-2329.24l-90.03,45.012l-465.845,-232.925l-0,2329.24Z" style="fill:url(#_Radial9);"/><g id="column1" serif:id="column"><path d="M2421.73,4198.38l746.717,0l92.487,232.925l-465.846,232.925l-465.85,-232.925l92.492,-232.925Z" style="fill:#c6c6b7;"/><path d="M2795.46,4385.21l372.983,-186.866l92.487,232.925l-465.846,232.925l0.375,-278.984Z" style="fill:#c6c6b7;"/><path d="M2795.09,4385.04l-373.359,-186.679l-92.492,232.925l465.851,232.925l-0.001,-279.171Z" style="fill:#cdcdc2;"/><path d="M2795.09,4011.68l373.358,186.679l-373.359,186.68l-373.358,-186.68l373.358,-186.679Z" style="fill:#d5d5c9;"/><path d="M2529.2,4198.38l0,-1863.15l530.421,0l0,1863.15c0,73.104 -118.837,132.458 -265.212,132.458c-146.375,0 -265.209,-59.354 -265.209,-132.458Z" style="fill:url(#_Linear10);"/><g><clipPath id="_clip11"><path d="M2529.2,4198.38l0,-1863.15l530.421,0l0,1863.15c0,73.104 -118.837,132.458 -265.212,132.458c-146.375,0 -265.209,-59.354 -265.209,-132.458Z"/></clipPath><g clip-path="url(#_clip11)"><rect x="2569.66" y="2351.12" width="19.525" height="2019.3" style="fill:url(#_Linear12);"/><rect x="2641.73" y="2397.02" width="30.312" height="2019.3" style="fill:url(#_Linear13);"/><rect x="3008.15" y="2376.17" width="19.525" height="2019.3" style="fill:url(#_Linear14);"/><rect x="2925.29" y="2376.17" width="30.313" height="2019.3" style="fill:url(#_Linear15);"/><rect x="2776.14" y="2417.63" width="36.542" height="2019.3" style="fill:url(#_Linear16);"/></g></g><path d="M2329.24,2102.05l931.695,-0l-92.487,232.925l-373.358,186.679l-373.359,-186.679l-92.491,-232.925Z" style="fill:#c6c6b7;"/><path d="M2795.58,2335.21l465.358,-233.167l-92.487,232.925l-373.359,186.679l0.488,-186.438Z" style="fill:#c3c3b1;"/><path d="M2795.09,2334.97l-465.851,-232.925l92.721,234.083l373.13,185.521l-0,-186.679Z" style="fill:#cdcdc2;"/><path d="M2795.09,1869.12l465.845,232.925l-465.845,232.925l-465.85,-232.925l465.85,-232.925Z" style="fill:#d5d5c9;"/></g><g id="marking"><g><path d="M3206.91,2101.15l-122.888,-61.375l-122.892,61.375l122.892,61.375l122.888,-61.375Zm-122.888,-48.283l96.671,48.283l-96.671,48.279l-96.675,-48.279l96.675,-48.283Z" style="fill:#b2b4a5;"/><rect x="3077.37" y="2066.4" width="11.725" height="67.567" style="fill:#b2b4a5;"/><rect x="3024.84" y="2094.33" width="116.783" height="11.712" style="fill:#b2b4a5;"/></g><g><path d="M3060.71,2029.97l-122.887,-61.375l-122.888,61.375l122.888,61.375l122.887,-61.375Zm-122.887,-48.279l96.675,48.279l-96.675,48.283l-96.671,-48.283l96.671,-48.279Z" style="fill:#b2b4a5;"/><path d="M3015.88,2029.97l-78.058,-38.983l-78.059,38.983l78.059,38.987l78.058,-38.987Zm-78.058,-25.892l51.842,25.892l-51.842,25.896l-51.842,-25.896l51.842,-25.892Z" style="fill:#b2b4a5;"/></g><g><path d="M2917.3,1957.61l-122.887,-61.375l-122.888,61.375l122.888,61.375l122.887,-61.375Zm-122.887,-48.279l96.675,48.279l-96.675,48.284l-96.671,-48.284l96.671,-48.279Z" style="fill:#b2b4a5;"/><path d="M2735.57,1952l-12.38,6.183l70.58,35.246l12.379,-6.179l-70.579,-35.25Z" style="fill:#b2b4a5;"/></g></g><g id="arch"><path d="M465.729,1164.32l465.725,-232.863l0,-465.725l-465.725,232.863l0,465.725Z" style="fill:url(#_Linear17);"/><path d="M1862.91,1862.91l465.73,-232.862l-0,-698.592l-1862.91,-931.454l-465.729,232.863l0,698.591l465.729,232.863l0,-0.038c0,-99.746 51.646,-192.383 136.5,-244.825c84.85,-52.441 190.804,-57.208 280.025,-12.6c32.442,16.221 65.209,32.604 97.659,48.829c255.583,127.792 416.654,389.405 415.679,675.155l-0,0.004l467.316,232.066Z" style="fill:#c6c6b7;"/><g><clipPath id="_clip18"><path d="M1862.91,1862.91l465.73,-232.862l-0,-698.592l-1862.91,-931.454l-465.729,232.863l0,698.591l465.729,232.863l0,-0.038c0,-99.746 51.646,-192.383 136.5,-244.825c84.85,-52.441 190.804,-57.208 280.025,-12.6c32.442,16.221 65.209,32.604 97.659,48.829c255.583,127.792 416.654,389.405 415.679,675.155l-0,0.004l467.316,232.066Z"/></clipPath><g clip-path="url(#_clip18)"><path d="M1862.91,1862.91l0,-698.591l465.73,-232.863l-0,698.592l-465.73,232.862Z" style="fill:#cdcdc2;"/><path d="M1397.18,698.592l-467.316,699.383" style="fill:none;stroke:#b2b4a5;stroke-width:26.04px;"/><path d="M465.729,232.863l464.138,1163.53" style="fill:none;stroke:#b2b4a5;stroke-width:26.04px;"/><path d="M931.454,1397.18c-464.421,-298.312 -800.379,-671.558 -931.454,-1164.32" style="fill:none;stroke:#b2b4a5;stroke-width:26.04px;"/><path d="M1862.91,1165.11c-297.287,201.162 -608.45,277.462 -933.041,232.862" style="fill:none;stroke:#b2b4a5;stroke-width:26.04px;"/><path d="M1862.91,1165.11l-1862.91,-931.455l465.729,-232.862l1862.91,931.454l-465.73,232.863Z" style="fill:#d5d5c9;"/><g><clipPath id="_clip19"><path d="M1862.91,1165.11l-1862.91,-931.455l465.729,-232.862l1862.91,931.454l-465.73,232.863Z"/></clipPath><g clip-path="url(#_clip19)"><path d="M1278.22,872.767l465.729,-232.863" style="fill:none;stroke:#c6c6b7;stroke-width:26.04px;"/><path d="M584.158,524.942l465.725,-232.863" style="fill:none;stroke:#c6c6b7;stroke-width:26.04px;"/><path d="M-0.796,233.263l465.729,-232.867" style="fill:none;stroke:#b2b4a5;stroke-width:26.04px;"/></g></g><path d="M1862.11,1164.72l465.729,-232.867" style="fill:none;stroke:#b2b4a5;stroke-width:26.04px;"/></g></g></g><defs><linearGradient id="_Linear1" x1="0" y1="0" x2="1" y2="0" gradientUnits="userSpaceOnUse" gradientTransform="matrix(530.421,0,0,530.421,1597.51,2833.48)"><stop offset="0" style="stop-color:#cdcdc2;stop-opacity:1"/><stop offset="1" style="stop-color:#b9b9a7;stop-opacity:1"/></linearGradient><linearGradient id="_Linear3" x1="0" y1="0" x2="1" y2="0" gradientUnits="userSpaceOnUse" gradientTransform="matrix(817.796,0,0,817.796,1511.44,2801.77)"><stop offset="0" style="stop-color:#c6c6b7;stop-opacity:1"/><stop offset="1" style="stop-color:#979a87;stop-opacity:1"/></linearGradient><linearGradient id="_Linear4" x1="0" y1="0" x2="1" y2="0" gradientUnits="userSpaceOnUse" gradientTransform="matrix(817.796,0,0,817.796,1511.44,2801.77)"><stop offset="0" style="stop-color:#c6c6b7;stop-opacity:1"/><stop offset="1" style="stop-color:#979a87;stop-opacity:1"/></linearGradient><linearGradient id="_Linear5" x1="0" y1="0" x2="1" y2="0" gradientUnits="userSpaceOnUse" gradientTransform="matrix(817.796,0,0,817.796,1511.44,2801.77)"><stop offset="0" style="stop-color:#c6c6b7;stop-opacity:1"/><stop offset="1" style="stop-color:#979a87;stop-opacity:1"/></linearGradient><linearGradient id="_Linear6" x1="0" y1="0" x2="1" y2="0" gradientUnits="userSpaceOnUse" gradientTransform="matrix(817.796,0,0,817.796,1511.44,2801.77)"><stop offset="0" style="stop-color:#c6c6b7;stop-opacity:1"/><stop offset="1" style="stop-color:#979a87;stop-opacity:1"/></linearGradient><linearGradient id="_Linear7" x1="0" y1="0" x2="1" y2="0" gradientUnits="userSpaceOnUse" gradientTransform="matrix(817.796,0,0,817.796,1511.44,2801.77)"><stop offset="0" style="stop-color:#c6c6b7;stop-opacity:1"/><stop offset="1" style="stop-color:#979a87;stop-opacity:1"/></linearGradient><radialGradient id="_Radial8" cx="0" cy="0" r="1" gradientUnits="userSpaceOnUse" gradientTransform="matrix(3.98631e-13,-6510.13,11478.4,7.0285e-13,-1404.32,4201.17)"><stop offset="0" style="stop-color:#f77c99;stop-opacity:1"/><stop offset="1" style="stop-color:#5c444a;stop-opacity:1"/></radialGradient><radialGradient id="_Radial9" cx="0" cy="0" r="1" gradientUnits="userSpaceOnUse" gradientTransform="matrix(3.98631e-13,-6510.13,11478.4,7.0285e-13,-1404.32,4201.17)"><stop offset="0" style="stop-color:#f77c99;stop-opacity:1"/><stop offset="1" style="stop-color:#fba6ba;stop-opacity:1"/></radialGradient><linearGradient id="_Linear10" x1="0" y1="0" x2="1" y2="0" gradientUnits="userSpaceOnUse" gradientTransform="matrix(530.421,0,0,530.421,2529.2,3299.32)"><stop offset="0" style="stop-color:#cdcdc2;stop-opacity:1"/><stop offset="1" style="stop-color:#b9b9a7;stop-opacity:1"/></linearGradient><linearGradient id="_Linear12" x1="0" y1="0" x2="1" y2="0" gradientUnits="userSpaceOnUse" gradientTransform="matrix(817.796,0,0,817.796,2443.14,3267.62)"><stop offset="0" style="stop-color:#c6c6b7;stop-opacity:1"/><stop offset="1" style="stop-color:#979a87;stop-opacity:1"/></linearGradient><linearGradient id="_Linear13" x1="0" y1="0" x2="1" y2="0" gradientUnits="userSpaceOnUse" gradientTransform="matrix(817.796,0,0,817.796,2443.14,3267.62)"><stop offset="0" style="stop-color:#c6c6b7;stop-opacity:1"/><stop offset="1" style="stop-color:#979a87;stop-opacity:1"/></linearGradient><linearGradient id="_Linear14" x1="0" y1="0" x2="1" y2="0" gradientUnits="userSpaceOnUse" gradientTransform="matrix(817.796,0,0,817.796,2443.14,3267.62)"><stop offset="0" style="stop-color:#c6c6b7;stop-opacity:1"/><stop offset="1" style="stop-color:#979a87;stop-opacity:1"/></linearGradient><linearGradient id="_Linear15" x1="0" y1="0" x2="1" y2="0" gradientUnits="userSpaceOnUse" gradientTransform="matrix(817.796,0,0,817.796,2443.14,3267.62)"><stop offset="0" style="stop-color:#c6c6b7;stop-opacity:1"/><stop offset="1" style="stop-color:#979a87;stop-opacity:1"/></linearGradient><linearGradient id="_Linear16" x1="0" y1="0" x2="1" y2="0" gradientUnits="userSpaceOnUse" gradientTransform="matrix(817.796,0,0,817.796,2443.14,3267.62)"><stop offset="0" style="stop-color:#c6c6b7;stop-opacity:1"/><stop offset="1" style="stop-color:#979a87;stop-opacity:1"/></linearGradient><linearGradient id="_Linear17" x1="0" y1="0" x2="1" y2="0" gradientUnits="userSpaceOnUse" gradientTransform="matrix(1.63074e-14,-266.321,266.321,1.63074e-14,721.129,1036)"><stop offset="0" style="stop-color:#c3c3b1;stop-opacity:1"/><stop offset="1" style="stop-color:#a4a289;stop-opacity:1"/></linearGradient></defs></svg>