<?xml version="1.0" encoding="UTF-8" standalone="no"?>
<svg
   height="184"
   width="160"
   version="1.1"
   id="svg81"
   sodipodi:docname="back-sitting.svg"
   xml:space="preserve"
   inkscape:version="1.2.2 (b0a8486541, 2022-12-01)"
   xmlns:inkscape="http://www.inkscape.org/namespaces/inkscape"
   xmlns:sodipodi="http://sodipodi.sourceforge.net/DTD/sodipodi-0.dtd"
   xmlns:xlink="http://www.w3.org/1999/xlink"
   xmlns="http://www.w3.org/2000/svg"
   xmlns:svg="http://www.w3.org/2000/svg"><sodipodi:namedview
     id="namedview83"
     pagecolor="#ffffff"
     bordercolor="#000000"
     borderopacity="0.25"
     inkscape:showpageshadow="2"
     inkscape:pageopacity="0.0"
     inkscape:pagecheckerboard="0"
     inkscape:deskcolor="#d1d1d1"
     showgrid="false"
     inkscape:zoom="4.7336957"
     inkscape:cx="80.064293"
     inkscape:cy="75.416762"
     inkscape:window-width="1920"
     inkscape:window-height="1051"
     inkscape:window-x="0"
     inkscape:window-y="0"
     inkscape:window-maximized="1"
     inkscape:current-layer="svg81" /><defs
     id="defs71"><g
       id="h"><path
         d="M-.55-26.25h.05l5.4.25 3.45-.1h3.35l1.05 8.2-.5 3.55v.65l.05.25.05.55v.15l-2.1.2-1.25.1h-.15v-.05H6.3l-.2-2.4v2.4H2.15l-.25-4.75-.45 4.1-.05.65h-4.35q.05-2.15-.05-2.7l-.3-.05-.25.65-.15 2.1h-3.1l-3.6-.55-1.1-.4.2-1.5.05-.45v-.45l.05-.35-1.65-.55q.45-.55.7-1.4l-.9 1.3h-.1v-.05h-.05q1.35-4.95 2.1-9.9v-.15q1.85.7 5.15.75l3.9-.05h1.5M11.5-13.8h.75l-.1-.5-.65-3.6h-.3l-.05 2.1v2h.35M8.35-26.1l.75 1.35 2.95 5.45.7 1.4-.7-1.4-2.95-5.45-.75-1.35m-14.3 10.65h.1v-.05l-.1.05m-3.75-.9-.05-.05-.05.05h.1"
         fill="#e11e1e"
         fill-rule="evenodd"
         transform="translate(13.95 27.45)"
         id="path2" /><path
         d="m12.75-17.9.35 1.4 1.3-.35v.1h-.1l-.05.05h-.1l-.15.05-.9.15.9-.15.15-.05h.1l.05-.05h.1l.05-.05v.05l1.1-.35.65-.25.5.1q.45.5.45 1.5 0 1.05-.55 1.6-.45.45-1.15.45h-3.2v-.65l.5-3.55"
         fill="#fff"
         fill-rule="evenodd"
         transform="translate(13.95 27.45)"
         id="path4" /><path
         d="m14.4-16.85 1.8-.5-.65.25-1.1.35v-.05l-.05.05v-.1m-27.8.7v.05l-.05.05-.2.5.3-.9.2-.45v.05l-.1.35-.1.25-.05.1.15-.35-.15.35m28.95-.95-1.1.3 1.1-.3m-25.25.75h-.1l.05-.05.05.05m3.75.9.1-.05v.05h-.1m-6.9-1.3h-.05l-.15-.1.9-1.3q-.25.85-.7 1.4m-.55.65.05-.35-.05.35"
         fill="#a70303"
         fill-rule="evenodd"
         transform="translate(13.95 27.45)"
         id="path6" /><path
         d="M2.15-12.5H1.5l-.05-.65.45-4.1.25 4.75m9-3.3.05-2.1h.3l.65 3.6.1.5h-.75l-.35-2"
         fill="#7d0202"
         fill-rule="evenodd"
         transform="translate(13.95 27.45)"
         id="path8" /><path
         d="M16.7-17.25q1.75.2 1.75 1.5 0 1.85-.9 2.75-.8.8-2.05.8H8.85v-.15H9l1.25-.1 2.1-.2v-.25l-.05-.55-.05-.25h3.2q.7 0 1.15-.45.55-.55.55-1.6 0-1-.45-1.5"
         fill-rule="evenodd"
         transform="translate(13.95 27.45)"
         id="path10" /><path
         d="M6.3-12.5h-.2v-2.4l.2 2.4m-4.8 0h-.1l.05-.65.05.65m-4.45 0h-.75l.15-2.1.25-.65.3.05q.1.55.05 2.7m-8.55-.95q-1.95-.9-1.95-2.3l.05-.3v-.1l.05-.1.1-.25.1-.35h.1l.15.1h.05l1.65.55-.05.35v.45l-.05.45-.2 1.5m-1.95-2.6-.45 1.6.2-1v-.05l.3-1.5.1.05.1.05h.05l-.2.45-.3.9.2-.5m24.6.25.35 2h-.35v-2m-24.5-.65.15-.45-.15.45"
         fill="#d70404"
         fill-rule="evenodd"
         transform="translate(13.95 27.45)"
         id="path12" /><path
         d="M-13.3-16.95q.9-3.05 1.1-4.3l1.1-5.55q-.75 4.95-2.1 9.9l-.1-.05m11.25-9.3 1.1-.05.4.05h-1.5"
         fill="#fc1f1f"
         fill-rule="evenodd"
         transform="translate(13.95 27.45)"
         id="path14" /><path
         d="M-.55-26.25h.05l5.4.25 3.45-.1m4.4 8.2.35 1.4m3.1-.85.5.1m-4.35 4.5-2.1.2-1.25.1h-.15l-.55-.05H-6.8l-3.6-.55-1.1-.4q-1.95-.9-1.95-2.3l.05-.3v-.1l.15-.35m-.15.4-.05.05m2.35-10.9q1.85.7 5.15.75l3.9-.05 1.1-.05.4.05h-1.5m16.45 9.5h-.1l-.05.05h-.1l-.15.05-.9.15m1.35-.3-.05.05m.05-.05 1.1-.3.65-.25m-3.45-.55-.5 3.55v.65M8.3-12.5h.55m-22.05-4.4-.15.45-.05.35m.2-.8q1.35-4.95 2.1-9.9"
         fill="none"
         stroke="#2e2e2e"
         stroke-linecap="round"
         stroke-linejoin="round"
         transform="translate(13.95 27.45)"
         id="path16" /><path
         d="M8.35-26.1h3.35l1.05 8.2"
         fill="none"
         stroke="#333"
         stroke-linecap="round"
         stroke-linejoin="round"
         transform="translate(13.95 27.45)"
         id="path18" /><path
         d="m12.75-17.9-.7-1.4-2.95-5.45-.75-1.35"
         fill="none"
         stroke="#7d0202"
         stroke-linecap="round"
         stroke-linejoin="round"
         transform="translate(13.95 27.45)"
         id="path20" /></g><g
       id="i"><use
         height="35.45"
         transform="translate(8.45)"
         width="34.35"
         xlink:href="#a"
         id="use23" /><use
         height="6.45"
         transform="translate(29.3 16.3)"
         width="5"
         xlink:href="#b"
         id="use25" /><use
         height="3.1"
         transform="matrix(1.027 0 0 1 34.178 12.2)"
         width="4.65"
         xlink:href="#c"
         id="use27" /><use
         height="34"
         transform="translate(0 24.3)"
         width="49"
         xlink:href="#d"
         id="use29" /></g><g
       id="a"><path
         d="m39.4 23.85-.1-.1 1.4-1.7.25-.45q.8-1.45.8-3.1v-.6q-.25-2.5-2.35-4.55l-.1-.1.4-.4.3-.35q2.55 2.35 2.8 5.4v.6q0 1.9-.9 3.55l-1.9 2.4-.6-.6M11.25 12.9l.75.75Q9.95 15.6 9.6 17.9l-.1 1v.15q.05 1.7.95 3.2l.55.8 1 1.1-.4.4-.35.3-.4-.35-.25-.3-.35-.4q-1.75-2.1-1.8-4.75v-.15l.1-1q.3-2.8 2.7-5"
         fill="#333"
         fill-rule="evenodd"
         transform="translate(-8.45)"
         id="path32" /><path
         d="m39.7 12.85-.4.4.1.1q2.1 2.05 2.35 4.55v.6q0 1.65-.8 3.1l-.25.45-1.4 1.7.1.1-.3.3-3.25.9v3.4H30.9l-7.2 7-7.85-7h-.15l-1.9-3.1-2.2-.8.4-.4-1-1.1-.55-.8q-.9-1.5-.95-3.2v-.15l.1-1q.35-2.3 2.4-4.25l-.75-.75.5-3.95.2.1-.2.35 1.05.5 3.3-7.35 3.3 7.35 1.05-.5-.1-.25 1-.45h3.9l1.2.55.1-.15 2.55.8 3.3-7.35 3.3 7.35.65-.3 2.2 2.15 1.15 1.1-1.15-1.1 1.15 1.1"
         fill="#fff"
         fill-rule="evenodd"
         transform="translate(-8.45)"
         id="path34" /><path
         d="m36.35 9.6-.65.3-3.3-7.35-3.3 7.35-1.05-.5L32.4 0l4.35 9.4-.4.2m-16-.45.1.25-1.05.5-3.3-7.35-3.3 7.35-1.05-.5.2-.35L16.1 0l4.25 9.15"
         fill-rule="evenodd"
         transform="translate(-8.45)"
         id="path36" /><path
         d="m39.7 12.85-1.15-1.1"
         fill="none"
         stroke="#333"
         stroke-linecap="round"
         stroke-linejoin="round"
         transform="translate(-8.45)"
         id="path38" /></g><g
       id="d"><path
         d="m41.45 30.9.1-.3.1.3h-.2M9.2 34.1h-.05L9.1 34l.25-.05-.15.15m-7.55 9.85.3.1 1.1 1.4.4.45-.95.75-.15.2-1.15-1.2V45l.25-.65.2-.4m2.4 4.55 1.2-.95.3.25 1.6 1.25-1.25.9-1.85-1.45M8 51.8l.5-.65.55-.65.9.65 1 .45-.75 1.4-.5-.25-.5-.25-1.05-.6-.15-.1m13.85-12.9.15.05V39l-.15-.1m1.9.95.55-.45q.8.65.8 1.15v.2q-1.2.55-2.05 2l-.4.65-.4.25-1.05-.2h-.15q.75-.35 1.55-1.15 1.3-1.3 1.3-2.35l-.15-.1m15.15 13.1-.1-.3-.2-1.3.85-.2 1.45-.4.65-.25.05.65.15.45.15.35-.55.25-.3.1H41l-.1.05-2 .6m5.3-2.05-.45-1.35 2.5-1.65q.25.7.75 1.25l-2.05 1.4-.2.05-.2.15-.35.15m-6.85-15.6-.65.2.6-.4.05.2"
         fill="#d92d2d"
         fill-rule="evenodd"
         transform="translate(0 -24.3)"
         id="path41" /><path
         d="m41.55 30.6-.1.3-.55.95-.05.1-.3.35-1.2 1.3-.05.05-1.1.8-.9.65-.6.4.65-.2.6-.2.25-.05 2-.65.7-.45.4-.35.75 1.5 1 2.15.85 1.5 1.25 1.35L47 44.15l-1.85-4.05.25.25q.95.9 1.35 2.8l.25 1 .45 1.05 1.05 2.7-1.05-2.7.85 1.1.5 1.2v.1l-.3.3-1.5 1.25q-.5-.55-.75-1.25l-2.5 1.65.45 1.35-2.3 1.05-.15-.35-.15-.45-.05-.65-.65.25-1.45.4-.85.2.2 1.3.1.3-.45.1-.25.05h-.05l-.8-.55-.25-.9v-.05l-.1-.3-.05-.15-.05-.35-.1-.35-.05-.1v-.1l-.05-.15-.05-.1-.2-.75-.35-1.35v-.05l-.45-1.8.25-.6-.3-.95-.1-.3.1.3.3.95-.25.6q-.9.85-4.65 1.2l-1.3.05q-1.9-2.7-3.2-3.95h.15l2.9.75q.65 0 2.05-1.2l3.3-.65.25-.05v-1.7l-.25-.65v-.05l-.05-.3.05-.1.05-.35-.05-.1v-.15l-.1-.1v-.3.2l-1.35.35-.65.1-.8-.95q-1.3-1.3-2-1.3-.25 0-5.3 2.35-.2.05-.4.25l-.55.45L22 39v-.05l-.15-.05-5.15-3.1q-.6 1.1-.8 2.75l-1.7-.35q-.3 1.3-.3 3.05 0 .3.35.95l-.85 3.1v.6l.35.1-.35-.1v-.6l.85-3.1 2.9.8.25.1q1.3.6 2.45.6l.55-.05-.55.05q-1.15 0-2.45-.6l-.25-.1-2.9-.8 2.35.45.55.35-.55-.35 4.15.4.05.1.05.2v.05l.2.05-.65.2q-1.2 1.7-2 3.45l-3.55-.85-1.1-.25-.05 1.8q-.5 4.4-1.05 5.9h-.05l-.25-.05-.4-.1L10.2 53l.75-1.4-1-.45-.9-.65-.55.65-.5.65-.9-.65-.35-.3-2.7-2.35-.55-.5-.3-.25-.15-.15-.7-.75.15-.2.95-.75-.4-.45-1.1-1.4-.3-.1.1-.25.6-1.35.7-1L4.7 39.1l.1-.15 3.2-4.5.7-.95.4.5-.4-.5.05-.05.6.35v.15L9.1 34l.05.1h.05l1.4 1q1.2.7 3.1 1.4l-1.05-1.4-2.55-3.5-.35-.5-.1-.2-.1-.15-.25-.5v-.05l-.15-.3-.1-.35.1-.15.1-.15.05-.1.65-1.05.1-.1 1.9-1.75.45-.45.25-.25q.9-.65 2.8-.65l.8.15q.75.1 1.9.75l6.65.5q5.5-.15 11.2-1.45l2 .15.2.1.25.1h-.05l.85 1.1 1 1.3.05.1 1.25 2.85v.05M4.05 48.5l1.85 1.45 1.25-.9-1.6-1.25-.3-.25-1.2.95m31.25-4.8-.15-1.5.15 1.5.1.45V45v-.1l.1-.1v-.3l-.15-.8.15.5v-.25l-.1-.1v-.15h-.1m.8-8 .6-.2-.6.2m-22.15-1.6h-.1.1M2.1 40.75v-.1l.05.05-.05.05M0 43.9v-.1l.05.05-.05.05m40.4-12.05-.15.05h.05l.1-.05M28.85 28.6v-.05l-.05.05v.05l.05-.05m-.2.15-.15.05v.1l.15-.15M25 44.35l1.3 3.05h-.75l-1.2.05-1.3.05.6-3.25.7.25.65-.15m-3 3.1h-.2l.05-.05.15.05m-1.15-4.1-3.7-.35 3.7.35"
         fill="#fff"
         fill-rule="evenodd"
         transform="translate(0 -24.3)"
         id="path43" /><path
         d="M41.45 30.9h.2l.15 1.05q.05 1.05-.5 1.65l-.4.35-.7.45-2 .65-.25.05-.6.2-.05-.2.9-.65 1.1-.8.05-.05 1.2-1.3.3-.35.05-.1.55-.95m-32.4-1.35.1.35.15.3v.05l.25.5.1.15.1.2.35.5 2.55 3.5 1.05 1.4q-1.9-.7-3.1-1.4l-1.4-1 .15-.15v-.15l-.6-.35-.05.05-.25-.8.4-1.8.05-.15.1-.55.05-.65m3.3 24.1.25.05h.05l-.45.45.05-.2.1-.3m1.9-11.45q-.35-.65-.35-.95 0-1.75.3-3.05l1.7.35-.2 2.55q0 .85.9 1.55l-2.35-.45m18.55-3.15.65-.1 1.35-.35v.05l.05.85.05.3v.05l.25 2.15v.2l-.25.05-3.3.65.1-.1q1.6-1.45 1.6-2.7l-.5-1.05M25.55 43l-.05.4q-.1.65-.5.95l-.65.15-.7-.25-1.4-.6.4-.25.4-.65q.85-1.45 2.05-2l-.55.85q-.55.6-.45.9l1.45.5m.95.35.05-.05.1.05h-.15"
         fill="#e11e1e"
         fill-rule="evenodd"
         transform="translate(0 -24.3)"
         id="path45" /><path
         d="M38.4 25.2h.1-.1m-26.7.05h.1v.05l-.1-.05"
         fill="#d70404"
         fill-rule="evenodd"
         transform="translate(0 -24.3)"
         id="path47" /><path
         d="M13.95 34.1h-.1.1m26.45-2.25-.1.05h-.05l.15-.05m-19.95 7.3-.05.1v-.1h.05"
         fill="#fc1f1f"
         fill-rule="evenodd"
         transform="translate(0 -24.3)"
         id="path49" /><path
         d="M34.8 38.6v-.2.3-.1m.1 1.25.25.65V42l-.25-2.15M9.35 33.8v.15-.15M35.4 48.05h-.05.05"
         fill="#6a6a6a"
         fill-rule="evenodd"
         transform="translate(0 -24.3)"
         id="path51" /><path
         d="M15.9 38.55q.2-1.65.8-2.75l5.15 3.1.15.1 1.75.85.15.1q0 1.05-1.3 2.35-.8.8-1.55 1.15l-.2-.05v-.05l-.05-.2-.05-.1-4.15-.4q-.9-.7-.9-1.55l.2-2.55m8.4.85q.2-.2.4-.25 5.05-2.35 5.3-2.35.7 0 2 1.3l.8.95.5 1.05q0 1.25-1.6 2.7l-.1.1q-1.4 1.2-2.05 1.2l-2.9-.75-.1-.05-1-.3 1 .3-.05.05q1.3 1.25 3.2 3.95l.75 1.1q3 4.4 3.25 6.95L33.1 54l.1 2.7-4.6 1.1q.55-1.55-1.2-7.1l-1.1-3.3-1.3-3.05q.4-.3.5-.95l.05-.4-1.45-.5q-.1-.3.45-.9l.55-.85v-.2q0-.5-.8-1.15m-4.3.95.2.9-.1-1.5-.1.6m.45-1.2h-.05v.1l.05-.1m.6 4.3h.15l1.05.2 1.4.6-.6 3.25q-.55 4-.55 5.65 0 1.95.3 3.45v.5l-4 .1q-1.3 0-1.6-.6-.2-.45-.2-2.7 0-3.55 1.4-6.8.8-1.75 2-3.45l.65-.2m.95 4-.15-.05-.05.05h.2m10.25 4.25-.25.1.25-.05v-.05"
         fill="#e22929"
         fill-rule="evenodd"
         transform="translate(0 -24.3)"
         id="path53" /><path
         d="m34.8 38.7.1.1v.15l.05.1-.05.35-.05.1-.05-.85v.05M20 40.35l.1-.6.1 1.5-.2-.9"
         fill="#df0202"
         fill-rule="evenodd"
         transform="translate(0 -24.3)"
         id="path55" /><path
         d="M35.3 43.7h.1v.15l.1.1v.25l-.15-.5.15.8v.3l-.1.1v.1-.85l-.1-.45"
         fill="#333"
         fill-rule="evenodd"
         transform="translate(0 -24.3)"
         id="path57" /><path
         d="m33.2 56.7-.1-2.7.6 1.35v.35l-.1.9-.4.1"
         fill="#b42121"
         fill-rule="evenodd"
         transform="translate(0 -24.3)"
         id="path59" /><path
         d="m41.55 30.6-.1.3-.55.95-.05.1-.3.35-1.2 1.3-.05.05-1.1.8-.9.65-.6.4-.6.2m4.2-8-.05-.1-1-1.3-.85-1.1m.05 0-.25-.1-.2-.1-2-.15q-5.7 1.3-11.2 1.45l-6.65-.5q-1.15-.65-1.9-.75l-.8-.15q-1.9 0-2.8.65l-.25.25-.45.45-1.9 1.75m-1 1.55.1.35.15.3v.05l.25.5.1.15.1.2.35.5 2.55 3.5 1.05 1.4q-1.9-.7-3.1-1.4l-1.4-1h-.05L9.1 34l-.4-.5-.7.95-3.2 4.5-.1.15-1.65 2.25-.7 1-.6 1.35-.1.25m.7 2.9.7.75.15.15.3.25.55.5 2.7 2.35.35.3.9.65m2.2 1.2 1.75.55.4.1.25.05m.05 0q.55-1.5 1.05-5.9l.05-1.8-.35-.1v-.6l.85-3.1q-.35-.65-.35-.95 0-1.75.3-3.05l1.7.35q.2-1.65.8-2.75l5.15 3.1.15.1 1.75.85.55-.45q.2-.2.4-.25 5.05-2.35 5.3-2.35.7 0 2 1.3l.8.95.65-.1 1.35-.35v-.2m.05 1.1.05.3v.05m.25 2.15v.2l.15 1.5m.2.5.1.3.3.95-.25.6.45 1.8v.05l.35 1.35.2.75.05.1.05.15v.1l.05.1.1.35.05.35.05.15.1.3v.05l.25.9.8.55h.05l.25-.05.45-.1m3-1 2.3-1.05m2.8-1.75 1.5-1.25-1.05-2.7-.45-1.05-1.85-4.05-3.1-6.45m-.75-.05-.4.35-.7.45-2 .65-.25.05-.6.2-.65.2m4.85-4.95.05-.3-.25-1-.45-.75-.4-.55-.2-.25M9.05 29.55v-.3l.1-.35.15-.3q.25-.3.65-.5M8.7 33.5l-.25-.8M1.2 45l.25-.65.2-.4m.7 2.9-1.15-1.2m19.2-2-.55.05q-1.15 0-2.45-.6l-.25-.1-2.9-.8m2.35.45q-.9-.7-.9-1.55l.2-2.55M17.15 43l-.55-.35m1.8 4.45-3.55-.85-1.1-.25m24.7-20.8h.05q.5.35.75 1.1m-12.7 17-1-.3-.05.4q-.1.65-.5.95l1.3 3.05 1.1 3.3q1.75 5.55 1.2 7.1l4.6-1.1m.5-1.35q-.25-2.55-3.25-6.95l-.75-1.1q-1.9-2.7-3.2-3.95m.05-.05.1.05 2.9.75q.65 0 2.05-1.2l.1-.1q1.6-1.45 1.6-2.7l-.5-1.05m-8.7 3.45 1.45.5m-1.9 1.25.7.25.65-.15m-2.75-.7 1.4.6-.6 3.25 1.3-.05 1.2-.05h.75m-5.25-3.95-.65.2q-1.2 1.7-2 3.45-1.4 3.25-1.4 6.8 0 2.25.2 2.7.3.6 1.6.6l4-.1v-.5q-.3-1.5-.3-3.45 0-1.65.55-5.65m11.75-8.85v-.05m.05.9-.05-.85m-3.2 4.25 3.3-.65m.25-.25-.25-2.15m.45 3.85.15.5m.15 1.85q-.9.85-4.65 1.2l-1.3.05M17.15 43l3.7.35m12.85 12v.35l-.1.9-.4.1m-23-3.7-.5-.25-.5-.25-1.05-.6-.15-.1m39-2.65-2.05 1.4-.2.05-.2.15-.35.15m-2.3 1.05-.55.25-.3.1H41l-.1.05-2 .6"
         fill="none"
         stroke="#2e2e2e"
         stroke-linecap="round"
         stroke-linejoin="round"
         transform="translate(0 -24.3)"
         id="path61" /><path
         d="M21.05 43.45q.75-.35 1.55-1.15 1.3-1.3 1.3-2.35l-.15-.1m1.35.9v-.2q0-.5-.8-1.15m.8 1.35-.55.85q-.55.6-.45.9"
         fill="none"
         stroke="#492727"
         stroke-linecap="round"
         stroke-linejoin="round"
         transform="translate(0 -24.3)"
         id="path63" /></g><use
       height="6.45"
       width="5"
       xlink:href="#e"
       id="b" /><use
       height="6.45"
       width="5"
       xlink:href="#f"
       id="e" /><use
       height="3.1"
       transform="translate(1.1)"
       width="1.85"
       xlink:href="#g"
       id="c" /><path
       d="m2-1.7-2 2 1.85 1.8M0 .3V.25v2.5M0 .3l-1.85 1.8M-2-1.7 0 .25V-2.7"
       fill="none"
       stroke="#fea5c0"
       stroke-linecap="round"
       stroke-linejoin="round"
       transform="translate(2.5 3.2)"
       id="f" /><path
       d="M1.45.15h.7l-.9 1.4H2v1.7H.3v-1.6L1.45.15"
       fill-rule="evenodd"
       transform="translate(-.3 -.15)"
       id="g" /><path
       d="M1.35 0h.2l.55.1.45.35q.45.45.45 1L2.55 2.6q-.45.4-1 .4l-.8-.2-.25-.2-.45-.7v-.15L0 1.45v-.1q.05-.5.5-.9l.25-.2Q1 .05 1.3 0h.05m.45.85L1.55.8Q1.2.75 1 1q-.2.15-.2.45v.15l.15.45H1l.05.05.2.1.3.05.55-.2.15-.6-.05-.3L2.1 1 2.05.95 1.9.85h-.1"
       fill-rule="evenodd"
       id="d-3" /><path
       d="M10.25-2.6H.75l-1.1-1"
       fill="none"
       stroke="#333"
       stroke-linecap="round"
       stroke-linejoin="round"
       transform="translate(.85 4.1)"
       id="b-6" /><path
       d="m2-1.7-2 2 1.85 1.8M0 .3V.25v2.5M0 .3l-1.85 1.8M-2-1.7 0 .25V-2.7"
       fill="none"
       stroke="#fea5c0"
       stroke-linecap="round"
       stroke-linejoin="round"
       transform="translate(2.5 3.2)"
       id="e-7" /><g
       id="f-5"><path
         d="M.25-60h3.9l1.2.55 3.9-8.6 3.85 8.6 1.25-.55 3.15 3.05 1.1 1.1-.4.4.1.1q2.1 2.05 2.35 4.55v.6q0 1.65-.8 3.1l-.25.45-1.4 1.7.15.15-.3.25-3.25.9v4.7l-3.25.7-3.1.9.65 1.6L12.4-37q1.7-.6 3-.6 1.55 0 2.15.6.8.8.8 2 0 1.1-.75 1.85-1.05 1.05-4.1 1.25l-1.25.05.35 1.5 1.5-.05-.05 2.75-1.5 1.25v12.25l-.85 4.6h-1.5V-3q0 .7-.45 1.15-.55.55-1.6.55Q7-1.3 6.5-1.85 6.05-2.3 6.1-3v-6.55H4.5l-2.35-3.5H.4l-3.55 3.5V-3q0 .7-.45 1.15-.55.55-1.6.55-1.1 0-1.65-.55-.45-.45-.4-1.15v-6.55H-8.8l-1.7-1.1-1.75-3.9v-3.9l.45-.4q.75-.6 1.35-1.55l-1.25-1-.7.95.4-10.95 1.75-12.8.4.35.75-.7-1-1.1q-1.55-1.9-1.5-4.15l.05-1q.35-2.3 2.45-4.25l-.75-.75.5-3.95.65.3 3.85-8.6 3.85 8.6L.25-60m5.1 22.05Q4.3-39 2.1-39q-1.35 0-4 .75l-3.1.9.65 1.6 3.3-1.25q1.7-.6 3-.6 1.55 0 2.15.6.8.8.8 2 0 1.1-.75 1.85Q3.1-32.1.1-31.9l-1.3.05.35 1.5q3.95-.05 5.9-1.55l.45-.35q1-1 1-2.85-.05-1.8-1.15-2.85"
         fill="#fff"
         fill-rule="evenodd"
         transform="translate(21.7 71)"
         id="path497" /><path
         d="m4.15-60 5.1-11 5.1 11-1.25.55-3.85-8.6-3.9 8.6-1.2-.55m14.5 4.1.25-.3q2.55 2.35 2.8 5.4v.6q0 1.9-.9 3.55-.7 1.25-1.9 2.4l-.55-.55-.15-.15 1.4-1.7.25-.45q.8-1.45.8-3.1v-.6q-.25-2.5-2.35-4.55l-.1-.1.4-.4.05-.05M14.8-38.95l.75-.05q2.2 0 3.25 1.05 1.1 1.05 1.1 2.85 0 1.85-1 2.85l-.4.35q-1.55 1.2-4.4 1.5l-1.5.05-.35-1.5 1.25-.05q3.05-.2 4.1-1.25.75-.75.75-1.85 0-1.2-.8-2-.6-.6-2.15-.6-1.3 0-3 .6l-3.3 1.25-.65-1.6 3.1-.9 3.25-.7m-3.1 29.4v6.6q0 1.25-.8 2.05-.9.9-2.75.9Q6.2 0 5.3-.9q-.8-.8-.8-2.05v-6.6h1.6V-3q-.05.7.4 1.15.5.55 1.65.55 1.05 0 1.6-.55.45-.45.45-1.15v-6.55h1.5m-14.85 0h1.5v6.6q0 1.25-.8 2.05-.9.9-2.75.9Q-7.1 0-8-.9q-.85-.8-.8-2.05v-6.6h1.55V-3q-.05.7.4 1.15.55.55 1.65.55 1.05 0 1.6-.55.45-.45.45-1.15v-6.55m-9.1-8.9q-.7.45-1.6.45-1 0-2.7-1.1-1.15-.65-1.9-.65-.85 0-1.3.55l-.6.95-1.35-.75 1.2-1.65q.85-.8 1.95-.8t2.3.8q1.65.85 2.55.85.6 0 1.3-.65l.7-.95 1.25 1q-.6.95-1.35 1.55l-.45.4m2-25.75-.6-.7q-1.85-2.2-1.8-4.9l.05-1q.35-2.8 2.75-5l.75.75q-2.1 1.95-2.45 4.25l-.05 1q-.05 2.25 1.5 4.15l1 1.1-.75.7-.4-.35m.9-15.55L-9.9-60l5.05-11 5.1 11-1.25.55-3.85-8.6-3.85 8.6-.65-.3m14.7 21.8q1.1 1.05 1.15 2.85 0 1.85-1 2.85l-.45.35q-1.95 1.5-5.9 1.55l-.35-1.5 1.3-.05q3-.2 4.05-1.25.75-.75.75-1.85 0-1.2-.8-2-.6-.6-2.15-.6-1.3 0-3 .6l-3.3 1.25-.65-1.6 3.1-.9Q.75-39 2.1-39q2.2 0 3.25 1.05"
         fill="#333"
         fill-rule="evenodd"
         transform="translate(21.7 71)"
         id="path499" /><path
         d="m17.5-56.95 1.15 1.05-.05.05-1.1-1.1"
         fill="red"
         fill-rule="evenodd"
         transform="translate(21.7 71)"
         id="path501" /><path
         d="M.25-60h3.9m8.4 33.6v12.25m6.05-41.7-1.1-1.1"
         fill="none"
         stroke="#333"
         stroke-linecap="round"
         stroke-linejoin="round"
         transform="translate(21.7 71)"
         id="path503" /></g><g
       id="g-3"
       transform="translate(.8)"><use
         height="3"
         transform="matrix(1.005 0 0 1 -.804 0)"
         width="4.65"
         xlink:href="#a-6"
         id="use506" /><use
         height="3"
         transform="matrix(1.005 0 0 1 16.096 0)"
         width="4.65"
         xlink:href="#a-6"
         id="use508" /></g><g
       id="h-5"
       transform="translate(11.45 4.1)"><use
         height="2"
         transform="translate(-.85 -4.1)"
         width="11.6"
         xlink:href="#b-6"
         id="use511" /><use
         height="6.45"
         transform="translate(-11.45 -3.8)"
         width="5"
         xlink:href="#c-2"
         id="use513" /></g><use
       height="3"
       width="3"
       xlink:href="#d-3"
       id="a-6"
       transform="translate(.8)" /><use
       height="6.45"
       width="5"
       xlink:href="#e-7"
       id="c-2" /><g
       id="h-3"><path
         d="m.2-26.45-.05.05h.2l-.15-.05m-9.2 6.3v-.05q.55-1.55 1.05-5.85l.05-1.8 1.1.25 3.55.85 5.95.35h.65l.55-.05h1.75l2.65-.1h.2l.85-.05.2-.05h.1q3.5-.3 4.35-1l.45 1.65v.05l.35 1.35.2.75.05.1.05.15v.1l.05.1.1.35.05.35.05.15.1.3v.05l.25.9.15.7.1.4.6 2.6.2.95.55 1.85.9 2.95.15.4.35 1.2-.4.2.4-.1 1.9 6.75q0 .8-.75 1.4-1.35.55-3.7 1.15l-.75.15-.65.15-.25-5.25-.25-3q-.35-4.25-1.55-7.85l-.65-1.85-.6-1.35.5 15.35q0 3.1-1.2 4.55l-.1.15-.45.1-2.7.2-.55-.05H6.7L6.55.5 5.4.65l-7.45-.6v-3.5l.35-2.35 1.65-9.5.05-.25.2-1.1v-.05l.65-4v-.15l-.05-.3-2 4.45v.05l-.4.8Q-3.8-11.1-5.15-5.8l-1.1 5.1q-10.05.2-8-3.95l.4-1.15.45-1.45.6-1.8 2.45-7.6.75-2.45.15-.6.05-.2.1-.3h.1l.15.05H-9q-.15.3-.45.45.3-.15.45-.45m13.25-6.3-.9.05.9-.05M6.95.45l3.8-.4-3.8.4"
         fill="#e11e1e"
         fill-rule="evenodd"
         transform="translate(15.1 28.35)"
         id="path2-6" /><path
         d="m.2-26.45.15.05h-.2l.05-.05"
         fill="#fff"
         fill-rule="evenodd"
         transform="translate(15.1 28.35)"
         id="path4-7" /><path
         d="m12.75-.15-1.8.3-.15.05h-.15l.1-.15q1.2-1.45 1.2-4.55l-.5-15.35.6 1.35.65 1.85q1.2 3.6 1.55 7.85l.25 3 .25 5.25-.55.1-1.45.3-2 .2 2-.2"
         fill="#b42121"
         fill-rule="evenodd"
         transform="translate(15.1 28.35)"
         id="path6-5" /><path
         d="m-2.05.05-2.3-.4-.55-.1-1.35-.25 1.1-5.1q1.35-5.3 3.55-10.05l.4-.8v-.05l2-4.45.05.3v.15l-.65 4v.05l-.2 1.1-.05.25-1.65 9.5-.35 2.35v3.5"
         fill="#ae1717"
         fill-rule="evenodd"
         transform="translate(15.1 28.35)"
         id="path8-3" /><path
         d="m18.7-10.25.05.1h-.05v-.1.1l-.4.1.4-.2"
         fill="#d60c0c"
         fill-rule="evenodd"
         transform="translate(15.1 28.35)"
         id="path10-5" /><path
         d="m20.25-5.9.1.1h-.05l-.05-.1"
         fill="#d92d2d"
         fill-rule="evenodd"
         transform="translate(15.1 28.35)"
         id="path12-6" /><path
         d="m-9.85-19.1.1-.9v.45l-.1.45"
         fill="#d70404"
         fill-rule="evenodd"
         transform="translate(15.1 28.35)"
         id="path14-2" /><path
         d="M2.8-26.4h.55l.9-.05m.55 0h.85l2.65-.1h.2l1.05-.1h.1"
         fill="none"
         stroke="#333"
         stroke-linecap="round"
         stroke-linejoin="round"
         transform="translate(15.1 28.35)"
         id="path16-9" /><path
         d="M-9-20.15v-.05q.55-1.55 1.05-5.85l.05-1.8 1.1.25 3.55.85 5.95.35h.1m.55 0 .55-.05h.9m4.85-.2q3.5-.3 4.35-1l.45 1.65v.05l.35 1.35.2.75.05.1.05.15v.1l.05.1.1.35.05.35.05.15.1.3v.05l.25.9.15.7.1.4.6 2.6.2.95.55 1.85.9 2.95.15.4.35 1.2.05.1m-.05 0 1.9 6.75q0 .8-.75 1.4-1.6 1.25-6.35 1.75l-.75.1-2 .2-3.8.4h-.1l-.3.05L5.4.65l-7.45-.6-2.3-.4-.55-.1-1.35-.25q-10.05.2-8-3.95l.4-1.15.45-1.45.6-1.8 2.45-7.6.75-2.45.15-.6.05-.2m.4-.25q-.15.3-.45.45M8.5-26.55l.85-.05.2-.05m9.15 16.5v-.1M6.55.5 6.7.45"
         fill="none"
         stroke="#2e2e2e"
         stroke-linecap="round"
         stroke-linejoin="round"
         transform="translate(15.1 28.35)"
         id="path18-1" /></g><g
       id="i-2"><use
         height="35.45"
         transform="translate(8.45)"
         width="34.35"
         xlink:href="#a-3"
         id="use21" /><use
         height="6.45"
         transform="translate(29.3 16.3)"
         width="5"
         xlink:href="#b-9"
         id="use23-7" /><use
         height="3.1"
         transform="matrix(1.027 0 0 1 34.178 12.2)"
         width="4.65"
         xlink:href="#c-28"
         id="use25-0" /><use
         height="34"
         transform="translate(0 24.3)"
         width="49"
         xlink:href="#d-2"
         id="use27-9" /></g><g
       id="a-3"><path
         d="m39.4 23.85-.1-.1 1.4-1.7.25-.45q.8-1.45.8-3.1v-.6q-.25-2.5-2.35-4.55l-.1-.1.4-.4.3-.35q2.55 2.35 2.8 5.4v.6q0 1.9-.9 3.55l-1.9 2.4-.6-.6M11.25 12.9l.75.75Q9.95 15.6 9.6 17.9l-.1 1v.15q.05 1.7.95 3.2l.55.8 1 1.1-.4.4-.35.3-.4-.35-.25-.3-.35-.4q-1.75-2.1-1.8-4.75v-.15l.1-1q.3-2.8 2.7-5"
         fill="#333"
         fill-rule="evenodd"
         transform="translate(-8.45)"
         id="path30" /><path
         d="m39.7 12.85-.4.4.1.1q2.1 2.05 2.35 4.55v.6q0 1.65-.8 3.1l-.25.45-1.4 1.7.1.1-.3.3-3.25.9v3.4H30.9l-7.2 7-7.85-7h-.15l-1.9-3.1-2.2-.8.4-.4-1-1.1-.55-.8q-.9-1.5-.95-3.2v-.15l.1-1q.35-2.3 2.4-4.25l-.75-.75.5-3.95.2.1-.2.35 1.05.5 3.3-7.35 3.3 7.35 1.05-.5-.1-.25 1-.45h3.9l1.2.55.1-.15 2.55.8 3.3-7.35 3.3 7.35.65-.3 2.2 2.15 1.15 1.1-1.15-1.1 1.15 1.1"
         fill="#fff"
         fill-rule="evenodd"
         transform="translate(-8.45)"
         id="path32-6" /><path
         d="m36.35 9.6-.65.3-3.3-7.35-3.3 7.35-1.05-.5L32.4 0l4.35 9.4-.4.2m-16-.45.1.25-1.05.5-3.3-7.35-3.3 7.35-1.05-.5.2-.35L16.1 0l4.25 9.15"
         fill-rule="evenodd"
         transform="translate(-8.45)"
         id="path34-0" /><path
         d="m39.7 12.85-1.15-1.1"
         fill="none"
         stroke="#333"
         stroke-linecap="round"
         stroke-linejoin="round"
         transform="translate(-8.45)"
         id="path36-6" /></g><g
       id="d-2"><path
         d="m41.45 30.9.1-.3.1.3h-.2M9.2 34.1h-.05L9.1 34l.25-.05-.15.15m-7.55 9.85.3.1 1.1 1.4.4.45-.95.75-.15.2-1.15-1.2V45l.25-.65.2-.4m2.4 4.55 1.2-.95.3.25 1.6 1.25-1.25.9-1.85-1.45M8 51.8l.5-.65.55-.65.9.65 1 .45-.75 1.4-.5-.25-.5-.25-1.05-.6-.15-.1m13.85-12.9.15.05V39l-.15-.1m1.9.95.55-.45q.8.65.8 1.15v.2q-1.2.55-2.05 2l-.4.65-.4.25-1.05-.2h-.15q.75-.35 1.55-1.15 1.3-1.3 1.3-2.35l-.15-.1m15.15 13.1-.1-.3-.2-1.3.85-.2 1.45-.4.65-.25.05.65.15.45.15.35-.55.25-.3.1H41l-.1.05-2 .6m5.3-2.05-.45-1.35 2.5-1.65q.25.7.75 1.25l-2.05 1.4-.2.05-.2.15-.35.15m-6.85-15.6-.65.2.6-.4.05.2"
         fill="#d92d2d"
         fill-rule="evenodd"
         transform="translate(0 -24.3)"
         id="path39" /><path
         d="m41.55 30.6-.1.3-.55.95-.05.1-.3.35-1.2 1.3-.05.05-1.1.8-.9.65-.6.4.65-.2.6-.2.25-.05 2-.65.7-.45.4-.35.75 1.5 1 2.15.85 1.5 1.25 1.35L47 44.15l-1.85-4.05.25.25q.95.9 1.35 2.8l.25 1 .45 1.05 1.05 2.7-1.05-2.7.85 1.1.5 1.2v.1l-.3.3-1.5 1.25q-.5-.55-.75-1.25l-2.5 1.65.45 1.35-2.3 1.05-.15-.35-.15-.45-.05-.65-.65.25-1.45.4-.85.2.2 1.3.1.3-.45.1-.25.05h-.05l-.8-.55-.25-.9v-.05l-.1-.3-.05-.15-.05-.35-.1-.35-.05-.1v-.1l-.05-.15-.05-.1-.2-.75-.35-1.35v-.05l-.45-1.8.25-.6-.3-.95-.1-.3.1.3.3.95-.25.6q-.9.85-4.65 1.2l-1.3.05q-1.9-2.7-3.2-3.95h.15l2.9.75q.65 0 2.05-1.2l3.3-.65.25-.05v-1.7l-.25-.65v-.05l-.05-.3.05-.1.05-.35-.05-.1v-.15l-.1-.1v-.3.2l-1.35.35-.65.1-.8-.95q-1.3-1.3-2-1.3-.25 0-5.3 2.35-.2.05-.4.25l-.55.45L22 39v-.05l-.15-.05-5.15-3.1q-.6 1.1-.8 2.75l-1.7-.35q-.3 1.3-.3 3.05 0 .3.35.95l-.85 3.1v.6l.35.1-.35-.1v-.6l.85-3.1 2.9.8.25.1q1.3.6 2.45.6l.55-.05-.55.05q-1.15 0-2.45-.6l-.25-.1-2.9-.8 2.35.45.55.35-.55-.35 4.15.4.05.1.05.2v.05l.2.05-.65.2q-1.2 1.7-2 3.45l-3.55-.85-1.1-.25-.05 1.8q-.5 4.4-1.05 5.9h-.05l-.25-.05-.4-.1L10.2 53l.75-1.4-1-.45-.9-.65-.55.65-.5.65-.9-.65-.35-.3-2.7-2.35-.55-.5-.3-.25-.15-.15-.7-.75.15-.2.95-.75-.4-.45-1.1-1.4-.3-.1.1-.25.6-1.35.7-1L4.7 39.1l.1-.15 3.2-4.5.7-.95.4.5-.4-.5.05-.05.6.35v.15L9.1 34l.05.1h.05l1.4 1q1.2.7 3.1 1.4l-1.05-1.4-2.55-3.5-.35-.5-.1-.2-.1-.15-.25-.5v-.05l-.15-.3-.1-.35.1-.15.1-.15.05-.1.65-1.05.1-.1 1.9-1.75.45-.45.25-.25q.9-.65 2.8-.65l.8.15q.75.1 1.9.75l6.65.5q5.5-.15 11.2-1.45l2 .15.2.1.25.1h-.05l.85 1.1 1 1.3.05.1 1.25 2.85v.05M4.05 48.5l1.85 1.45 1.25-.9-1.6-1.25-.3-.25-1.2.95m31.25-4.8-.15-1.5.15 1.5.1.45V45v-.1l.1-.1v-.3l-.15-.8.15.5v-.25l-.1-.1v-.15h-.1m.8-8 .6-.2-.6.2m-22.15-1.6h-.1.1M2.1 40.75v-.1l.05.05-.05.05M0 43.9v-.1l.05.05-.05.05m40.4-12.05-.15.05h.05l.1-.05M28.85 28.6v-.05l-.05.05v.05l.05-.05m-.2.15-.15.05v.1l.15-.15M25 44.35l1.3 3.05h-.75l-1.2.05-1.3.05.6-3.25.7.25.65-.15m-3 3.1h-.2l.05-.05.15.05m-1.15-4.1-3.7-.35 3.7.35"
         fill="#fff"
         fill-rule="evenodd"
         transform="translate(0 -24.3)"
         id="path41-6" /><path
         d="M41.45 30.9h.2l.15 1.05q.05 1.05-.5 1.65l-.4.35-.7.45-2 .65-.25.05-.6.2-.05-.2.9-.65 1.1-.8.05-.05 1.2-1.3.3-.35.05-.1.55-.95m-32.4-1.35.1.35.15.3v.05l.25.5.1.15.1.2.35.5 2.55 3.5 1.05 1.4q-1.9-.7-3.1-1.4l-1.4-1 .15-.15v-.15l-.6-.35-.05.05-.25-.8.4-1.8.05-.15.1-.55.05-.65m3.3 24.1.25.05h.05l-.45.45.05-.2.1-.3m1.9-11.45q-.35-.65-.35-.95 0-1.75.3-3.05l1.7.35-.2 2.55q0 .85.9 1.55l-2.35-.45m18.55-3.15.65-.1 1.35-.35v.05l.05.85.05.3v.05l.25 2.15v.2l-.25.05-3.3.65.1-.1q1.6-1.45 1.6-2.7l-.5-1.05M25.55 43l-.05.4q-.1.65-.5.95l-.65.15-.7-.25-1.4-.6.4-.25.4-.65q.85-1.45 2.05-2l-.55.85q-.55.6-.45.9l1.45.5m.95.35.05-.05.1.05h-.15"
         fill="#e11e1e"
         fill-rule="evenodd"
         transform="translate(0 -24.3)"
         id="path43-1" /><path
         d="M38.4 25.2h.1-.1m-26.7.05h.1v.05l-.1-.05"
         fill="#d70404"
         fill-rule="evenodd"
         transform="translate(0 -24.3)"
         id="path45-8" /><path
         d="M13.95 34.1h-.1.1m26.45-2.25-.1.05h-.05l.15-.05m-19.95 7.3-.05.1v-.1h.05"
         fill="#fc1f1f"
         fill-rule="evenodd"
         transform="translate(0 -24.3)"
         id="path47-7" /><path
         d="M34.8 38.6v-.2.3-.1m.1 1.25.25.65V42l-.25-2.15M9.35 33.8v.15-.15M35.4 48.05h-.05.05"
         fill="#6a6a6a"
         fill-rule="evenodd"
         transform="translate(0 -24.3)"
         id="path49-9" /><path
         d="M15.9 38.55q.2-1.65.8-2.75l5.15 3.1.15.1 1.75.85.15.1q0 1.05-1.3 2.35-.8.8-1.55 1.15l-.2-.05v-.05l-.05-.2-.05-.1-4.15-.4q-.9-.7-.9-1.55l.2-2.55m8.4.85q.2-.2.4-.25 5.05-2.35 5.3-2.35.7 0 2 1.3l.8.95.5 1.05q0 1.25-1.6 2.7l-.1.1q-1.4 1.2-2.05 1.2l-2.9-.75-.1-.05-1-.3 1 .3-.05.05q1.3 1.25 3.2 3.95l.75 1.1q3 4.4 3.25 6.95L33.1 54l.1 2.7-4.6 1.1q.55-1.55-1.2-7.1l-1.1-3.3-1.3-3.05q.4-.3.5-.95l.05-.4-1.45-.5q-.1-.3.45-.9l.55-.85v-.2q0-.5-.8-1.15m-4.3.95.2.9-.1-1.5-.1.6m.45-1.2h-.05v.1l.05-.1m.6 4.3h.15l1.05.2 1.4.6-.6 3.25q-.55 4-.55 5.65 0 1.95.3 3.45v.5l-4 .1q-1.3 0-1.6-.6-.2-.45-.2-2.7 0-3.55 1.4-6.8.8-1.75 2-3.45l.65-.2m.95 4-.15-.05-.05.05h.2m10.25 4.25-.25.1.25-.05v-.05"
         fill="#e22929"
         fill-rule="evenodd"
         transform="translate(0 -24.3)"
         id="path51-2" /><path
         d="m34.8 38.7.1.1v.15l.05.1-.05.35-.05.1-.05-.85v.05M20 40.35l.1-.6.1 1.5-.2-.9"
         fill="#df0202"
         fill-rule="evenodd"
         transform="translate(0 -24.3)"
         id="path53-0" /><path
         d="M35.3 43.7h.1v.15l.1.1v.25l-.15-.5.15.8v.3l-.1.1v.1-.85l-.1-.45"
         fill="#333"
         fill-rule="evenodd"
         transform="translate(0 -24.3)"
         id="path55-2" /><path
         d="m33.2 56.7-.1-2.7.6 1.35v.35l-.1.9-.4.1"
         fill="#b42121"
         fill-rule="evenodd"
         transform="translate(0 -24.3)"
         id="path57-3" /><path
         d="m41.55 30.6-.1.3-.55.95-.05.1-.3.35-1.2 1.3-.05.05-1.1.8-.9.65-.6.4-.6.2m4.2-8-.05-.1-1-1.3-.85-1.1m.05 0-.25-.1-.2-.1-2-.15q-5.7 1.3-11.2 1.45l-6.65-.5q-1.15-.65-1.9-.75l-.8-.15q-1.9 0-2.8.65l-.25.25-.45.45-1.9 1.75m-1 1.55.1.35.15.3v.05l.25.5.1.15.1.2.35.5 2.55 3.5 1.05 1.4q-1.9-.7-3.1-1.4l-1.4-1h-.05L9.1 34l-.4-.5-.7.95-3.2 4.5-.1.15-1.65 2.25-.7 1-.6 1.35-.1.25m.7 2.9.7.75.15.15.3.25.55.5 2.7 2.35.35.3.9.65m2.2 1.2 1.75.55.4.1.25.05m.05 0q.55-1.5 1.05-5.9l.05-1.8-.35-.1v-.6l.85-3.1q-.35-.65-.35-.95 0-1.75.3-3.05l1.7.35q.2-1.65.8-2.75l5.15 3.1.15.1 1.75.85.55-.45q.2-.2.4-.25 5.05-2.35 5.3-2.35.7 0 2 1.3l.8.95.65-.1 1.35-.35v-.2m.05 1.1.05.3v.05m.25 2.15v.2l.15 1.5m.2.5.1.3.3.95-.25.6.45 1.8v.05l.35 1.35.2.75.05.1.05.15v.1l.05.1.1.35.05.35.05.15.1.3v.05l.25.9.8.55h.05l.25-.05.45-.1m3-1 2.3-1.05m2.8-1.75 1.5-1.25-1.05-2.7-.45-1.05-1.85-4.05-3.1-6.45m-.75-.05-.4.35-.7.45-2 .65-.25.05-.6.2-.65.2m4.85-4.95.05-.3-.25-1-.45-.75-.4-.55-.2-.25M9.05 29.55v-.3l.1-.35.15-.3q.25-.3.65-.5M8.7 33.5l-.25-.8M1.2 45l.25-.65.2-.4m.7 2.9-1.15-1.2m19.2-2-.55.05q-1.15 0-2.45-.6l-.25-.1-2.9-.8m2.35.45q-.9-.7-.9-1.55l.2-2.55M17.15 43l-.55-.35m1.8 4.45-3.55-.85-1.1-.25m24.7-20.8h.05q.5.35.75 1.1m-12.7 17-1-.3-.05.4q-.1.65-.5.95l1.3 3.05 1.1 3.3q1.75 5.55 1.2 7.1l4.6-1.1m.5-1.35q-.25-2.55-3.25-6.95l-.75-1.1q-1.9-2.7-3.2-3.95m.05-.05.1.05 2.9.75q.65 0 2.05-1.2l.1-.1q1.6-1.45 1.6-2.7l-.5-1.05m-8.7 3.45 1.45.5m-1.9 1.25.7.25.65-.15m-2.75-.7 1.4.6-.6 3.25 1.3-.05 1.2-.05h.75m-5.25-3.95-.65.2q-1.2 1.7-2 3.45-1.4 3.25-1.4 6.8 0 2.25.2 2.7.3.6 1.6.6l4-.1v-.5q-.3-1.5-.3-3.45 0-1.65.55-5.65m11.75-8.85v-.05m.05.9-.05-.85m-3.2 4.25 3.3-.65m.25-.25-.25-2.15m.45 3.85.15.5m.15 1.85q-.9.85-4.65 1.2l-1.3.05M17.15 43l3.7.35m12.85 12v.35l-.1.9-.4.1m-23-3.7-.5-.25-.5-.25-1.05-.6-.15-.1m39-2.65-2.05 1.4-.2.05-.2.15-.35.15m-2.3 1.05-.55.25-.3.1H41l-.1.05-2 .6"
         fill="none"
         stroke="#2e2e2e"
         stroke-linecap="round"
         stroke-linejoin="round"
         transform="translate(0 -24.3)"
         id="path59-7" /><path
         d="M21.05 43.45q.75-.35 1.55-1.15 1.3-1.3 1.3-2.35l-.15-.1m1.35.9v-.2q0-.5-.8-1.15m.8 1.35-.55.85q-.55.6-.45.9"
         fill="none"
         stroke="#492727"
         stroke-linecap="round"
         stroke-linejoin="round"
         transform="translate(0 -24.3)"
         id="path61-5" /></g><use
       height="6.45"
       width="5"
       xlink:href="#e-2"
       id="b-9" /><use
       height="6.45"
       width="5"
       xlink:href="#f-9"
       id="e-2" /><use
       height="3.1"
       transform="translate(1.1)"
       width="1.85"
       xlink:href="#g-7"
       id="c-28" /><path
       d="m2-1.7-2 2 1.85 1.8M0 .3V.25v2.5M0 .3l-1.85 1.8M-2-1.7 0 .25V-2.7"
       fill="none"
       stroke="#fea5c0"
       stroke-linecap="round"
       stroke-linejoin="round"
       transform="translate(2.5 3.2)"
       id="f-9" /><path
       d="M1.45.15h.7l-.9 1.4H2v1.7H.3v-1.6L1.45.15"
       fill-rule="evenodd"
       transform="translate(-.3 -.15)"
       id="g-7" /><path
       d="M1.35 0h.2l.55.1.45.35q.45.45.45 1L2.55 2.6q-.45.4-1 .4l-.8-.2-.25-.2-.45-.7v-.15L0 1.45v-.1q.05-.5.5-.9l.25-.2Q1 .05 1.3 0h.05m.45.85L1.55.8Q1.2.75 1 1q-.2.15-.2.45v.15l.15.45H1l.05.05.2.1.3.05.55-.2.15-.6-.05-.3L2.1 1 2.05.95 1.9.85h-.1"
       fill-rule="evenodd"
       id="d-3-3" /><path
       d="M10.25-2.6H.75l-1.1-1"
       fill="none"
       stroke="#333"
       stroke-linecap="round"
       stroke-linejoin="round"
       transform="translate(.85 4.1)"
       id="b-6-6" /><path
       d="m2-1.7-2 2 1.85 1.8M0 .3V.25v2.5M0 .3l-1.85 1.8M-2-1.7 0 .25V-2.7"
       fill="none"
       stroke="#fea5c0"
       stroke-linecap="round"
       stroke-linejoin="round"
       transform="translate(2.5 3.2)"
       id="e-7-1" /><g
       id="f-5-2"><path
         d="M.25-60h3.9l1.2.55 3.9-8.6 3.85 8.6 1.25-.55 3.15 3.05 1.1 1.1-.4.4.1.1q2.1 2.05 2.35 4.55v.6q0 1.65-.8 3.1l-.25.45-1.4 1.7.15.15-.3.25-3.25.9v4.7l-3.25.7-3.1.9.65 1.6L12.4-37q1.7-.6 3-.6 1.55 0 2.15.6.8.8.8 2 0 1.1-.75 1.85-1.05 1.05-4.1 1.25l-1.25.05.35 1.5 1.5-.05-.05 2.75-1.5 1.25v12.25l-.85 4.6h-1.5V-3q0 .7-.45 1.15-.55.55-1.6.55Q7-1.3 6.5-1.85 6.05-2.3 6.1-3v-6.55H4.5l-2.35-3.5H.4l-3.55 3.5V-3q0 .7-.45 1.15-.55.55-1.6.55-1.1 0-1.65-.55-.45-.45-.4-1.15v-6.55H-8.8l-1.7-1.1-1.75-3.9v-3.9l.45-.4q.75-.6 1.35-1.55l-1.25-1-.7.95.4-10.95 1.75-12.8.4.35.75-.7-1-1.1q-1.55-1.9-1.5-4.15l.05-1q.35-2.3 2.45-4.25l-.75-.75.5-3.95.65.3 3.85-8.6 3.85 8.6L.25-60m5.1 22.05Q4.3-39 2.1-39q-1.35 0-4 .75l-3.1.9.65 1.6 3.3-1.25q1.7-.6 3-.6 1.55 0 2.15.6.8.8.8 2 0 1.1-.75 1.85Q3.1-32.1.1-31.9l-1.3.05.35 1.5q3.95-.05 5.9-1.55l.45-.35q1-1 1-2.85-.05-1.8-1.15-2.85"
         fill="#fff"
         fill-rule="evenodd"
         transform="translate(21.7 71)"
         id="path497-9" /><path
         d="m4.15-60 5.1-11 5.1 11-1.25.55-3.85-8.6-3.9 8.6-1.2-.55m14.5 4.1.25-.3q2.55 2.35 2.8 5.4v.6q0 1.9-.9 3.55-.7 1.25-1.9 2.4l-.55-.55-.15-.15 1.4-1.7.25-.45q.8-1.45.8-3.1v-.6q-.25-2.5-2.35-4.55l-.1-.1.4-.4.05-.05M14.8-38.95l.75-.05q2.2 0 3.25 1.05 1.1 1.05 1.1 2.85 0 1.85-1 2.85l-.4.35q-1.55 1.2-4.4 1.5l-1.5.05-.35-1.5 1.25-.05q3.05-.2 4.1-1.25.75-.75.75-1.85 0-1.2-.8-2-.6-.6-2.15-.6-1.3 0-3 .6l-3.3 1.25-.65-1.6 3.1-.9 3.25-.7m-3.1 29.4v6.6q0 1.25-.8 2.05-.9.9-2.75.9Q6.2 0 5.3-.9q-.8-.8-.8-2.05v-6.6h1.6V-3q-.05.7.4 1.15.5.55 1.65.55 1.05 0 1.6-.55.45-.45.45-1.15v-6.55h1.5m-14.85 0h1.5v6.6q0 1.25-.8 2.05-.9.9-2.75.9Q-7.1 0-8-.9q-.85-.8-.8-2.05v-6.6h1.55V-3q-.05.7.4 1.15.55.55 1.65.55 1.05 0 1.6-.55.45-.45.45-1.15v-6.55m-9.1-8.9q-.7.45-1.6.45-1 0-2.7-1.1-1.15-.65-1.9-.65-.85 0-1.3.55l-.6.95-1.35-.75 1.2-1.65q.85-.8 1.95-.8t2.3.8q1.65.85 2.55.85.6 0 1.3-.65l.7-.95 1.25 1q-.6.95-1.35 1.55l-.45.4m2-25.75-.6-.7q-1.85-2.2-1.8-4.9l.05-1q.35-2.8 2.75-5l.75.75q-2.1 1.95-2.45 4.25l-.05 1q-.05 2.25 1.5 4.15l1 1.1-.75.7-.4-.35m.9-15.55L-9.9-60l5.05-11 5.1 11-1.25.55-3.85-8.6-3.85 8.6-.65-.3m14.7 21.8q1.1 1.05 1.15 2.85 0 1.85-1 2.85l-.45.35q-1.95 1.5-5.9 1.55l-.35-1.5 1.3-.05q3-.2 4.05-1.25.75-.75.75-1.85 0-1.2-.8-2-.6-.6-2.15-.6-1.3 0-3 .6l-3.3 1.25-.65-1.6 3.1-.9Q.75-39 2.1-39q2.2 0 3.25 1.05"
         fill="#333"
         fill-rule="evenodd"
         transform="translate(21.7 71)"
         id="path499-3" /><path
         d="m17.5-56.95 1.15 1.05-.05.05-1.1-1.1"
         fill="red"
         fill-rule="evenodd"
         transform="translate(21.7 71)"
         id="path501-1" /><path
         d="M.25-60h3.9m8.4 33.6v12.25m6.05-41.7-1.1-1.1"
         fill="none"
         stroke="#333"
         stroke-linecap="round"
         stroke-linejoin="round"
         transform="translate(21.7 71)"
         id="path503-9" /></g><g
       id="g-3-4"
       transform="translate(.8)"><use
         height="3"
         transform="matrix(1.005 0 0 1 -.804 0)"
         width="4.65"
         xlink:href="#a-6-3"
         id="use506-7" /><use
         height="3"
         transform="matrix(1.005 0 0 1 16.096 0)"
         width="4.65"
         xlink:href="#a-6-3"
         id="use508-8" /></g><g
       id="h-5-4"
       transform="translate(11.45 4.1)"><use
         height="2"
         transform="translate(-.85 -4.1)"
         width="11.6"
         xlink:href="#b-6-6"
         id="use511-5" /><use
         height="6.45"
         transform="translate(-11.45 -3.8)"
         width="5"
         xlink:href="#c-2-6"
         id="use513-0" /></g><use
       height="3"
       width="3"
       xlink:href="#d-3-3"
       id="a-6-3"
       transform="translate(.8)" /><use
       height="6.45"
       width="5"
       xlink:href="#e-7-1"
       id="c-2-6" /><g
       id="l"><path
         d="m11.55-26.5-.1-.1h-.05l-.35-.05.1-.2v-.05l.15-.3v-.15l.1-.5.15 1.35M-2.1-15.9v.5h-.5l-.3-.05h-.3l-.2-.05-3.55-.05-.65-.25 1.75.1h1.15l2.05-.15.55-.05m13.75-9.3-.05.05.05-.1v.05"
         fill="#fff"
         fill-rule="evenodd"
         transform="translate(16.85 27.85)"
         id="path2-36" /><path
         d="m11.15-26.85-.1.2.35.05h.05l.1.1.05.45v.9l.05-.05.65 2.95.35 1.45v.1l.2.65v.1l.05.15.05.1v.15l.1.35.1.45.1.35v.05l.45 1.6.95 3.3L16-8.95l1.35 5.45q-.6 1.15-1.4 1.7l-1.1.4-.4.15q-.85-6.35-3.15-18.4L11.25-16l-.1 15.7L7.8.25l-.05-1.1-.65-8.3-.35.1-.55-6.1-.25 14.3L5.9.4l-.85.05h-.3L3 .5 2.9-.85 2-17.5l-.45 4.1L.6-.85.55.5h-1.9L-2.9.45v-1.3l.35-11.75-.3.05q.05-2.3-.05-2.85v-.05l.3.05h.5v-.5l.1-1.3v-.15l.05-.25v-.05l.05-.1v-.05l.05-.05v-.2l.1-.25v-.65l-.1-.1-.25-1.2v-.45l-.05-1.15v-.35l-.15-.7-.15-.55.2-.55-.05-.1v-.35l.05-.1v-.05l-.05-.1v-.15l.05-.15q-.25 0-.35-.15l-.05-.15v-.35l.05-.05.1-.2v-.1l.05-.15v-.05h.05v-.2l.1-.05-.2-.35 1.65.3 5.85.25 6.15-.6M-11.1-16.4l.65.15 2.35.4.5.05.65.25 3.55.05.2.05-.25.65Q-3.95-8-5.6-.85l-.15.65-2.15-.65-1.95-1.2q-2.45-1.9-2.45-3.35-.05-1.1 1.1-9.75l.05-.5v-.45l.05-.3"
         fill="#e11e1e"
         fill-rule="evenodd"
         transform="translate(16.85 27.85)"
         id="path4-75" /><path
         d="M11.6-25.15v-.9l-.05-.45h.05l.05.05v.1l.05.1v.9l-.05.05v.05l-.05-.1.05.1-.05.1"
         fill="#333"
         fill-rule="evenodd"
         transform="translate(16.85 27.85)"
         id="path6-3" /><path
         d="m-2.85-12.55.3-.05L-2.9-.85v1.3L-3.65.4l.1-1.25q.6-8.1.7-11.7m4.4-.85L2-17.5 2.9-.85 3 .5h-.65l-.1-1.35-.7-12.55m5.2 4.35.35-.1.65 8.3.05 1.1-.35.05-.1-1.15-.6-8.2m4.5-6.95.05-3.65q2.3 12.05 3.15 18.4l-.7.25-2.5-15"
         fill="#7d0202"
         fill-rule="evenodd"
         transform="translate(16.85 27.85)"
         id="path8-5" /><path
         d="M-2.9-15.45v.05q.1.55.05 2.85-.1 3.6-.7 11.7L-3.65.4-5.8.3-6.9.2-8 .1h-.3l-.35-.1-4.9-.85-2.55-.95-.25-.1.8-4.45v-.05l.05-.1 2.2-10.7.5.2h.05l1.65.6-.05.3v.45l-.05.5q-1.15 8.65-1.1 9.75 0 1.45 2.45 3.35l1.95 1.2 2.15.65.15-.65Q-3.95-8-3.45-14.8l.25-.65h.3M.55.5.6-.85l.95-12.55.7 12.55.1 1.35H.55M5.9.4l.05-1.25.25-14.3.55 6.1.6 8.2.1 1.15L5.9.4m5.25-.7.1-15.7 2.5 15-.4.15-2.2.55"
         fill="#d70404"
         fill-rule="evenodd"
         transform="translate(16.85 27.85)"
         id="path10-6" /><path
         d="m-2.5-26.8.2.35-.1.05v.2h-.05v.05l-.05.15v.1l-.1.2-.05.05v.35l.05.15q.1.15.35.15l-.05.15v.15l.05.1v.05l-.05.1v.35l.05.1-.2.55.15.55.15.7v.35l.05 1.15v.45l.25 1.2.1.1v.65l-.1.25v.2l-.05.05v.05l-.05.1v.05l-.05.25v.15l-.1 1.3-.85-11 .45.1"
         fill="#b40303"
         fill-rule="evenodd"
         transform="translate(16.85 27.85)"
         id="path12-29" /><path
         d="M11.65-25.25v.05m0-.05-.05-.1"
         fill="none"
         stroke="#000"
         stroke-linecap="round"
         stroke-linejoin="round"
         transform="translate(16.85 27.85)"
         id="path14-1" /><path
         d="m11.15-26.85-6.15.6-5.85-.25-1.65-.3M-2.9.45l1.55.05h1.9M3 .5 4.75.45h.3L5.9.4M7.8.25l3.35-.55m3.3-.95.4-.15 1.1-.4q.8-.55 1.4-1.7L16-8.95l-1.35-4.5-.95-3.3-.45-1.6v-.05l-.1-.35-.1-.45-.1-.35v-.15l-.05-.1-.05-.15v-.1l-.2-.65v-.1l-.35-1.45-.65-2.95m-.05.05v-.9l-.05-.45M7.45.3 7.8.25m6.65-1.5-.7.25-.4.15-2.2.55m-8.8.8H3M7.45.3 5.9.4M2.35.5H.55M-2.1-15.9l-.85-11 .45.1m-5.1 11 1.75.1h1.15l2.05-.15.55-.05m-9-.5.65.15 2.35.4.5.05m-5.15-1.2h-.05l-.5-.2-2.2 10.7-.05.1v.05l-.8 4.45.25.1 2.55.95 4.9.85.35.1h.3l1.1.1 1.1.1 2.15.1m.75.05L-3.65.4"
         fill="none"
         stroke="#2e2e2e"
         stroke-linecap="round"
         stroke-linejoin="round"
         transform="translate(16.85 27.85)"
         id="path16-2" /></g><g
       id="m"
       transform="translate(.5)"><use
         height="35.8"
         transform="translate(6.35)"
         width="34.35"
         xlink:href="#a-0"
         id="use19" /><use
         height="31.7"
         transform="translate(-.5 23.7)"
         width="47.3"
         xlink:href="#b-92"
         id="use21-7" /></g><g
       id="a-0"><use
         height="35.8"
         width="34.35"
         xlink:href="#c-9"
         id="use24" /><use
         height="6.45"
         transform="translate(5.35 16.65)"
         width="5"
         xlink:href="#d-23"
         id="use26" /><use
         height="5.95"
         transform="translate(18.25 17.2)"
         width="7.3"
         xlink:href="#e-9"
         id="use28" /><use
         height="3.1"
         transform="translate(14.1 12.45)"
         width="15.65"
         xlink:href="#f-6"
         id="use30" /></g><g
       id="c-9"><path
         d="m27.2 9.3.05.1-1.05.5-3.3-7.35-3.3 7.35-.85-.4-.2-.1L22.9 0l4.3 9.3m-15.3.2.05.1-.05.05-1 .45-3.3-7.35v.1L4.3 10.1l-1.05-.5L7.6.2l4.3 9.3"
         fill-rule="evenodd"
         id="path33" /><path
         d="m18.75 9.5.85.4 3.3-7.35 3.3 7.35 1.05-.5-.05-.1 2.9 2.8 1.15 1.1-.4.4.1.1q2.1 2.05 2.35 4.55v.6q0 1.65-.8 3.1l-.25.45-1.4 1.7.1.1-.3.3-3.25.9v3.4h-4.95l-7.2 7-7.85-7h-.15l-1.9-3.1-2.2-.8.4-.4-1-1.1-.55-.8q-.9-1.5-.95-3.2v-.15l.1-1q.35-2.3 2.4-4.25l-.75-.75 1.5-3.15 3.3-7.25 3.25 7.3 1.05-.5.05-.05-.05-.1.6-.25V9.1l.05.1q.2-.05.35-.15h4.7l1.15.55v-.1m11.35 2.6 1.15 1.1-1.15-1.1M18.55 9.8h.05l.05-.05h-.2l.1.05m-15.2-.45-.05.15v-.15h.05"
         fill="#fff"
         fill-rule="evenodd"
         id="path35" /><path
         d="m2.8 13.25.75.75q-2.05 1.95-2.4 4.25l-.1 1v.15q.05 1.7.95 3.2l.55.8 1 1.1-.4.4-.35.3-.4-.35-.25-.3-.35-.4Q.05 22.05 0 19.4v-.15l.1-1q.3-2.8 2.7-5M30.95 24.2l-.1-.1 1.4-1.7.25-.45q.8-1.45.8-3.1v-.6q-.25-2.5-2.35-4.55l-.1-.1.4-.4.3-.35q2.55 2.35 2.8 5.4v.6q0 1.9-.9 3.55l-1.9 2.4-.6-.6"
         fill="#333"
         fill-rule="evenodd"
         id="path37" /><path
         d="m31.25 13.2-1.15-1.1"
         fill="none"
         stroke="#333"
         stroke-linecap="round"
         stroke-linejoin="round"
         id="path39-3" /></g><g
       id="f-6"
       transform="translate(.8 -.15)"><use
         height="3.1"
         transform="matrix(1.005 0 0 1 -.804 .15)"
         width="4.65"
         xlink:href="#g-5"
         id="use42" /><use
         height="3.1"
         transform="matrix(1.005 0 0 1 10.196 .15)"
         width="4.65"
         xlink:href="#g-5"
         id="use44" /></g><g
       id="k"><path
         d="m40.95 10.35 5.35 14L44.5 26l-.75-1.3q-1.05.95-2.4 1.7l.45 1.35-2.25 1.1-.15-.35-.2-1.1-2.85.8.2 1.35.1.35-.4.1-.3.05-.6.1-.45-1.6v-.05l-.1-.35-.1-.45-.1-.35v-.15l-.05-.1-.05-.15v-.1l-.2-.75-.35-1.45-.65-2.95-.05.05.05-.1v-.05l.05-.05v-.9l-.05-.1v-.1l-.05-.05h-.05l-.1-.1h-.05l-.35-.05.1-.2V20l.15-.3v-.15l.1-.5-.05-.3v-.1.1l-.5-.55-.05-.45v-.15l-.05-.1v-.2l-.05-.1v-.6l.15-.2.25-.3.05-.1v-.6l-.1-.1V15v.25l-.1-.1-.15-.1.05.15-4.65.6h-1.5l-7.6-.6v-1.7q-.05-1.8 4.65-4.25-4.7 2.45-4.65 4.25v1.7l-.25-.05.05.05.2.25.1.25h-.1v.15l-.05.05v.05l-.05.05-.2.35-.1.65.2.9.15 2.1.85 11v.5h-.5l-.3-.05h-.3l-.2-.05-3.55-.05-.65-.25 1.75.1h.1q-.05-.85-.6-1.65h-.05l-.95-.05-1.8-.2-.55 1.05-.65-.05-.1.35-.65-.15-1.65-.6.7-1.4q-1.05-.45-1.85-1.1-.75.75-1 1.3l-1.25-.95.15-.25-.1-.05-.85-.65 1.2-.9-1.55-1.3-.3-.25-1.15.95-.5-.5-.3-.25-.05-.05-.8-.85.15-.25.9-.75-1.45-1.9-.25-.1q2.2-5.7 5.1-11.1l2.35.35h.05l4.1.7h.3L7.45 6.4l.2-.35 1.4-2.3 1.25-1.9v-.1.1h.55l2.4 1.5 3.6 1.85q5 2.95 6.55 4.05V9.2q5-3 7.45-4.2l6.2-3.45v.25l.25.1.35.1v.05l2.15 5.4-1.5.7q-.1 0-.15.1L38 8.3q-1.2.6-3 1.55 0 .9 4.3.95 1.4 0 1.65-.45m-3.9-8.55.05.05-.05-.05M32.8 16.45v-.05l-.05-.3.05.3v.05l.2 2.2v-1.5l-.2-.7m.4 3.95-.15-1.35.15 1.35m.1 1.3v-.05.05M10.95 4.4l.25-.55-.25.5v.05M7.9 10.7h-.05.05m.15-.45v.15-.15M17.9 8.5l.55 7.85-.55-7.85M19.55 31l-.55.05-2.05.15H15.9h1.05l2.05-.15.55-.05"
         fill="#fff"
         fill-rule="evenodd"
         transform="translate(.5)"
         id="path47-0" /><path
         d="m44.5 26-2 1.4-.2.1-.2.1-.3.15-.45-1.35q1.35-.75 2.4-1.7l.75 1.3m-4.95 2.85-.55.25-.25.1h-.05l-2.05.7-.1-.35-.2-1.35 2.85-.8.2 1.1.15.35M8.9 29.9h-.05l-.5-.2-.45-.3-1.05-.6-.1-.1q.25-.55 1-1.3.8.65 1.85 1.1l-.7 1.4m-7.65-6.25L0 22.25v-.05l.4-1.1.2-.45.25.1 1.45 1.9-.9.75-.15.25M2.9 25.3l1.15-.95.3.25 1.55 1.3-1.2.9-1.8-1.5m9.05 5.05.55-1.05 1.8.2.95.05h.05q.55.8.6 1.65h-.1l-1.75-.1-.45-.15-.4-.1-.7-.15v-.05l-.05-.05v-.05h-.05v-.05l-.1-.05-.25-.1h-.1"
         fill="#a70303"
         fill-rule="evenodd"
         transform="translate(.5)"
         id="path49-6" /><path
         d="M10.85 1.85h.2l-.15-.1-.2-.1-.3-.1-.1-.05q8.5 2.25 13.15 6.3 2-1.95 5.6-3.75 6.8-3.4 7.8-3.4l.2.65v.25L30.85 5Q28.4 6.2 23.4 9.2v.05q-1.55-1.1-6.55-4.05l-3.6-1.85-2.4-1.5m12.2 6.35.4-.4-.4.4m9.9 22.8h-.05v-.1l.05.1"
         fill="#d70404"
         fill-rule="evenodd"
         transform="translate(.5)"
         id="path51-26" /><path
         d="m37.3 1.9.15-.05.1.05.1.1-.35-.1m-4.6 13.35V15v.3-.05m.1 1.2.2.7v1.5l-.2-2.2M10.95 4.4v-.05l.25-.5-.25.55m-2.9 5.85v.15-.15"
         fill="#6a6a6a"
         fill-rule="evenodd"
         transform="translate(.5)"
         id="path53-1" /><path
         d="m32.8 20.05-6.15.6-5.85-.25-1.65-.3-.05-.4-.05-.65q-.2-.4-.05-.65l-.2-.15-.35-1.9.2-.35.05-.05v-.05l.05-.05v-.15h.1l-.1-.25-.2-.25-.05-.05.25.05 7.6.6h1.5l4.65-.6-.05-.15.15.1.1.1.05.85-.25.3-.15.2v.6l.05.1v.2l.05.1v.15l.05.45.5.55.05.3-.1.5v.15l-.15.3v.05M5.7 9.55l.9-1.65.1-.1v-.05l.05-.05.05-.1v-.25h.05l.05-.1V7.2l.1-.05.45-.75 5.05 4.2h-.3l-4.1-.7h-.05L5.7 9.55m34.1-2.1.2.45.15.25v.1l.05.1.75 2q-.25.45-1.65.45-4.3-.05-4.3-.95 1.8-.95 3-1.55l.15-.05q.05-.1.15-.1l1.5-.7m-19 12.95q1.1-2.6 2.85-3.2l4.2-1.4-4.2 1.4q-1.75.6-2.85 3.2"
         fill="#e11e1e"
         fill-rule="evenodd"
         transform="translate(.5)"
         id="path55-8" /><path
         d="m32.7 15.3.1.1v.6l-.05.1-.05-.85v.05m-14.15 2.6-.2-.9.1-.65.1 1.55"
         fill="#df0202"
         fill-rule="evenodd"
         transform="translate(.5)"
         id="path57-7" /><path
         d="M33.25 21.75v-.9l-.05-.45h.05l.05.05v.1l.05.1v.9l-.05.05v.05l-.05-.1.05.1-.05.1"
         fill="#333"
         fill-rule="evenodd"
         transform="translate(.5)"
         id="path59-9" /><path
         d="m7.75.1-.1-.1h.15l-.05.1"
         fill-rule="evenodd"
         transform="translate(.5)"
         id="path61-2" /><path
         d="m19.15 20.1-.45-.1-.15-2.1-.1-1.55.35 1.9.2.15q-.15.25.05.65l.05.65.05.4"
         fill="#b40303"
         fill-rule="evenodd"
         transform="translate(.5)"
         id="path63-0" /><path
         d="m40.95 10.35 5.35 14L44.5 26l-2 1.4-.2.1-.2.1-.3.15-2.25 1.1-.55.25-.25.1h-.05l-2.05.7-.4.1-.3.05-.6.1-.45-1.6v-.05l-.1-.35-.1-.45-.1-.35v-.15l-.05-.1-.05-.15v-.1l-.2-.75-.35-1.45-.65-2.95m-.05.05v-.9l-.05-.45m-.4-.35-6.15.6-5.85-.25-1.65-.3-.45-.1.85 11m-5.5.1-.5-.05-2.35-.4-.65-.15-1.65-.6h-.05l-.5-.2-.45-.3-1.05-.6-.1-.1-1.25-.95-2.6-2.45-.5-.5-.3-.25m-.05-.05-.8-.85L0 22.25m0-.05.4-1.1.2-.45q2.2-5.7 5.1-11.1M7.45 6.4l.2-.35 1.4-2.3 1.25-1.9m0-.1v.1m27.35.2 2.15 5.4m1.15 2.9q-.25.45-1.65.45-4.3-.05-4.3-.95 1.8-.95 3-1.55l.15-.05q.05-.1.15-.1l1.5-.7m-2.75-5.9L30.85 5Q28.4 6.2 23.4 9.2v.05q-4.7 2.45-4.65 4.25v1.7l7.6.6h1.5l4.65-.6m.2.05V15m.05 1.1.05.3v.05l.2 2.2v.1l.05.3.15 1.35m-5.35-4.6-4.2 1.4q-1.75.6-2.85 3.2m11.9-5.15.05.85M23.4 9.25q-1.55-1.1-6.55-4.05l-3.6-1.85-2.4-1.5M7.45 6.4l5.05 4.2h-.3l-4.1-.7h-.05L5.7 9.55m12.8 5.6.25.05m-.3 1.15L17.9 8.5m.55 7.85.1 1.55.15 2.1m-4.65 11.1 1.75.1h1.15l2.05-.15.55-.05"
         fill="none"
         stroke="#2e2e2e"
         stroke-linecap="round"
         stroke-linejoin="round"
         transform="translate(.5)"
         id="path65" /><path
         d="M10.8 1.5q8.5 2.25 13.15 6.3 2-1.95 5.6-3.75 6.8-3.4 7.8-3.4l.2.65m-13.6 6.5-.4.4"
         fill="none"
         stroke="#8b0101"
         stroke-linecap="round"
         stroke-linejoin="round"
         stroke-width=".5"
         id="path67" /><path
         d="M33.3 21.65v.05m0-.05-.05-.1"
         fill="none"
         stroke="#000"
         stroke-linecap="round"
         stroke-linejoin="round"
         transform="translate(.5)"
         id="path69" /></g><use
       height="6.45"
       width="5"
       xlink:href="#h-7"
       id="d-23" /><use
       height="6.45"
       width="5"
       xlink:href="#i-28"
       id="h-7" /><use
       height="3.1"
       transform="translate(1.1)"
       width="1.85"
       xlink:href="#j"
       id="g-5" /><use
       height="31.7"
       width="47.3"
       xlink:href="#k"
       id="b-92" /><path
       d="m2-1.7-2 2 1.85 1.8M0 .3V.25v2.5M0 .3l-1.85 1.8M-2-1.7 0 .25V-2.7"
       fill="none"
       stroke="#fea5c0"
       stroke-linecap="round"
       stroke-linejoin="round"
       transform="translate(2.5 3.2)"
       id="i-28" /><path
       d="M25.05 17.2q.5 1.25.5 2.5 0 1.95-.95 2.85-.55.6-1.5.6-.8 0-1.25-.45l-.35-.55-.3.45q-.5.55-1.3.55-.75 0-1.15-.5-.5-.5-.5-1.6 0-1.9 1.65-3.85l.85.45q-1.6 1.85-1.6 3.4 0 .75.25 1l.5.2q.5 0 .8-.35l.55-.7v-1l.35-1.15q.3-.6.65-.6.45 0 .45.95l-.25 1.25-.35.75.3.55.7.25q.45 0 .75-.35.65-.6.65-2.15 0-1.2-.35-2.25l.9-.25"
       fill-rule="evenodd"
       transform="translate(-18.25 -17.2)"
       id="e-9" /><path
       d="M1.45.15h.7l-.9 1.4H2v1.7H.3v-1.6L1.45.15"
       fill-rule="evenodd"
       transform="translate(-.3 -.15)"
       id="j" /><path
       d="M1.35 0h.2l.55.1.45.35q.45.45.45 1L2.55 2.6q-.45.4-1 .4l-.8-.2-.25-.2-.45-.7v-.15L0 1.45v-.1q.05-.5.5-.9l.25-.2Q1 .05 1.3 0h.05m.45.85L1.55.8Q1.2.75 1 1q-.2.15-.2.45v.15l.15.45H1l.05.05.2.1.3.05.55-.2.15-.6-.05-.3L2.1 1 2.05.95 1.9.85h-.1"
       fill-rule="evenodd"
       id="d-3-7" /><path
       d="M10.25-2.6H.75l-1.1-1"
       fill="none"
       stroke="#333"
       stroke-linecap="round"
       stroke-linejoin="round"
       transform="translate(.85 4.1)"
       id="b-6-3" /><path
       d="m2-1.7-2 2 1.85 1.8M0 .3V.25v2.5M0 .3l-1.85 1.8M-2-1.7 0 .25V-2.7"
       fill="none"
       stroke="#fea5c0"
       stroke-linecap="round"
       stroke-linejoin="round"
       transform="translate(2.5 3.2)"
       id="e-7-6" /><g
       id="f-5-1"><path
         d="M.25-60h3.9l1.2.55 3.9-8.6 3.85 8.6 1.25-.55 3.15 3.05 1.1 1.1-.4.4.1.1q2.1 2.05 2.35 4.55v.6q0 1.65-.8 3.1l-.25.45-1.4 1.7.15.15-.3.25-3.25.9v4.7l-3.25.7-3.1.9.65 1.6L12.4-37q1.7-.6 3-.6 1.55 0 2.15.6.8.8.8 2 0 1.1-.75 1.85-1.05 1.05-4.1 1.25l-1.25.05.35 1.5 1.5-.05-.05 2.75-1.5 1.25v12.25l-.85 4.6h-1.5V-3q0 .7-.45 1.15-.55.55-1.6.55Q7-1.3 6.5-1.85 6.05-2.3 6.1-3v-6.55H4.5l-2.35-3.5H.4l-3.55 3.5V-3q0 .7-.45 1.15-.55.55-1.6.55-1.1 0-1.65-.55-.45-.45-.4-1.15v-6.55H-8.8l-1.7-1.1-1.75-3.9v-3.9l.45-.4q.75-.6 1.35-1.55l-1.25-1-.7.95.4-10.95 1.75-12.8.4.35.75-.7-1-1.1q-1.55-1.9-1.5-4.15l.05-1q.35-2.3 2.45-4.25l-.75-.75.5-3.95.65.3 3.85-8.6 3.85 8.6L.25-60m5.1 22.05Q4.3-39 2.1-39q-1.35 0-4 .75l-3.1.9.65 1.6 3.3-1.25q1.7-.6 3-.6 1.55 0 2.15.6.8.8.8 2 0 1.1-.75 1.85Q3.1-32.1.1-31.9l-1.3.05.35 1.5q3.95-.05 5.9-1.55l.45-.35q1-1 1-2.85-.05-1.8-1.15-2.85"
         fill="#fff"
         fill-rule="evenodd"
         transform="translate(21.7 71)"
         id="path497-2" /><path
         d="m4.15-60 5.1-11 5.1 11-1.25.55-3.85-8.6-3.9 8.6-1.2-.55m14.5 4.1.25-.3q2.55 2.35 2.8 5.4v.6q0 1.9-.9 3.55-.7 1.25-1.9 2.4l-.55-.55-.15-.15 1.4-1.7.25-.45q.8-1.45.8-3.1v-.6q-.25-2.5-2.35-4.55l-.1-.1.4-.4.05-.05M14.8-38.95l.75-.05q2.2 0 3.25 1.05 1.1 1.05 1.1 2.85 0 1.85-1 2.85l-.4.35q-1.55 1.2-4.4 1.5l-1.5.05-.35-1.5 1.25-.05q3.05-.2 4.1-1.25.75-.75.75-1.85 0-1.2-.8-2-.6-.6-2.15-.6-1.3 0-3 .6l-3.3 1.25-.65-1.6 3.1-.9 3.25-.7m-3.1 29.4v6.6q0 1.25-.8 2.05-.9.9-2.75.9Q6.2 0 5.3-.9q-.8-.8-.8-2.05v-6.6h1.6V-3q-.05.7.4 1.15.5.55 1.65.55 1.05 0 1.6-.55.45-.45.45-1.15v-6.55h1.5m-14.85 0h1.5v6.6q0 1.25-.8 2.05-.9.9-2.75.9Q-7.1 0-8-.9q-.85-.8-.8-2.05v-6.6h1.55V-3q-.05.7.4 1.15.55.55 1.65.55 1.05 0 1.6-.55.45-.45.45-1.15v-6.55m-9.1-8.9q-.7.45-1.6.45-1 0-2.7-1.1-1.15-.65-1.9-.65-.85 0-1.3.55l-.6.95-1.35-.75 1.2-1.65q.85-.8 1.95-.8t2.3.8q1.65.85 2.55.85.6 0 1.3-.65l.7-.95 1.25 1q-.6.95-1.35 1.55l-.45.4m2-25.75-.6-.7q-1.85-2.2-1.8-4.9l.05-1q.35-2.8 2.75-5l.75.75q-2.1 1.95-2.45 4.25l-.05 1q-.05 2.25 1.5 4.15l1 1.1-.75.7-.4-.35m.9-15.55L-9.9-60l5.05-11 5.1 11-1.25.55-3.85-8.6-3.85 8.6-.65-.3m14.7 21.8q1.1 1.05 1.15 2.85 0 1.85-1 2.85l-.45.35q-1.95 1.5-5.9 1.55l-.35-1.5 1.3-.05q3-.2 4.05-1.25.75-.75.75-1.85 0-1.2-.8-2-.6-.6-2.15-.6-1.3 0-3 .6l-3.3 1.25-.65-1.6 3.1-.9Q.75-39 2.1-39q2.2 0 3.25 1.05"
         fill="#333"
         fill-rule="evenodd"
         transform="translate(21.7 71)"
         id="path499-9" /><path
         d="m17.5-56.95 1.15 1.05-.05.05-1.1-1.1"
         fill="red"
         fill-rule="evenodd"
         transform="translate(21.7 71)"
         id="path501-3" /><path
         d="M.25-60h3.9m8.4 33.6v12.25m6.05-41.7-1.1-1.1"
         fill="none"
         stroke="#333"
         stroke-linecap="round"
         stroke-linejoin="round"
         transform="translate(21.7 71)"
         id="path503-1" /></g><g
       id="g-3-94"
       transform="translate(.8)"><use
         height="3"
         transform="matrix(1.005 0 0 1 -.804 0)"
         width="4.65"
         xlink:href="#a-6-1"
         id="use506-78" /><use
         height="3"
         transform="matrix(1.005 0 0 1 16.096 0)"
         width="4.65"
         xlink:href="#a-6-1"
         id="use508-4" /></g><g
       id="h-5-50"
       transform="translate(11.45 4.1)"><use
         height="2"
         transform="translate(-.85 -4.1)"
         width="11.6"
         xlink:href="#b-6-3"
         id="use511-3" /><use
         height="6.45"
         transform="translate(-11.45 -3.8)"
         width="5"
         xlink:href="#c-2-0"
         id="use513-6" /></g><use
       height="3"
       width="3"
       xlink:href="#d-3-7"
       id="a-6-1"
       transform="translate(.8)" /><use
       height="6.45"
       width="5"
       xlink:href="#e-7-6"
       id="c-2-0" /><g
       id="l-3"><path
         d="m11.55-26.5-.1-.1h-.05l-.35-.05.1-.2v-.05l.15-.3v-.15l.1-.5.15 1.35M-2.1-15.9v.5h-.5l-.3-.05h-.3l-.2-.05-3.55-.05-.65-.25 1.75.1h1.15l2.05-.15.55-.05m13.75-9.3-.05.05.05-.1v.05"
         fill="#fff"
         fill-rule="evenodd"
         transform="translate(16.85 27.85)"
         id="path2-7" /><path
         d="m11.15-26.85-.1.2.35.05h.05l.1.1.05.45v.9l.05-.05.65 2.95.35 1.45v.1l.2.65v.1l.05.15.05.1v.15l.1.35.1.45.1.35v.05l.45 1.6.95 3.3L16-8.95l1.35 5.45q-.6 1.15-1.4 1.7l-1.1.4-.4.15q-.85-6.35-3.15-18.4L11.25-16l-.1 15.7L7.8.25l-.05-1.1-.65-8.3-.35.1-.55-6.1-.25 14.3L5.9.4l-.85.05h-.3L3 .5 2.9-.85 2-17.5l-.45 4.1L.6-.85.55.5h-1.9L-2.9.45v-1.3l.35-11.75-.3.05q.05-2.3-.05-2.85v-.05l.3.05h.5v-.5l.1-1.3v-.15l.05-.25v-.05l.05-.1v-.05l.05-.05v-.2l.1-.25v-.65l-.1-.1-.25-1.2v-.45l-.05-1.15v-.35l-.15-.7-.15-.55.2-.55-.05-.1v-.35l.05-.1v-.05l-.05-.1v-.15l.05-.15q-.25 0-.35-.15l-.05-.15v-.35l.05-.05.1-.2v-.1l.05-.15v-.05h.05v-.2l.1-.05-.2-.35 1.65.3 5.85.25 6.15-.6M-11.1-16.4l.65.15 2.35.4.5.05.65.25 3.55.05.2.05-.25.65Q-3.95-8-5.6-.85l-.15.65-2.15-.65-1.95-1.2q-2.45-1.9-2.45-3.35-.05-1.1 1.1-9.75l.05-.5v-.45l.05-.3"
         fill="#e11e1e"
         fill-rule="evenodd"
         transform="translate(16.85 27.85)"
         id="path4-4" /><path
         d="M11.6-25.15v-.9l-.05-.45h.05l.05.05v.1l.05.1v.9l-.05.05v.05l-.05-.1.05.1-.05.1"
         fill="#333"
         fill-rule="evenodd"
         transform="translate(16.85 27.85)"
         id="path6-5-6" /><path
         d="m-2.85-12.55.3-.05L-2.9-.85v1.3L-3.65.4l.1-1.25q.6-8.1.7-11.7m4.4-.85L2-17.5 2.9-.85 3 .5h-.65l-.1-1.35-.7-12.55m5.2 4.35.35-.1.65 8.3.05 1.1-.35.05-.1-1.15-.6-8.2m4.5-6.95.05-3.65q2.3 12.05 3.15 18.4l-.7.25-2.5-15"
         fill="#7d0202"
         fill-rule="evenodd"
         transform="translate(16.85 27.85)"
         id="path8-2" /><path
         d="M-2.9-15.45v.05q.1.55.05 2.85-.1 3.6-.7 11.7L-3.65.4-5.8.3-6.9.2-8 .1h-.3l-.35-.1-4.9-.85-2.55-.95-.25-.1.8-4.45v-.05l.05-.1 2.2-10.7.5.2h.05l1.65.6-.05.3v.45l-.05.5q-1.15 8.65-1.1 9.75 0 1.45 2.45 3.35l1.95 1.2 2.15.65.15-.65Q-3.95-8-3.45-14.8l.25-.65h.3M.55.5.6-.85l.95-12.55.7 12.55.1 1.35H.55M5.9.4l.05-1.25.25-14.3.55 6.1.6 8.2.1 1.15L5.9.4m5.25-.7.1-15.7 2.5 15-.4.15-2.2.55"
         fill="#d70404"
         fill-rule="evenodd"
         transform="translate(16.85 27.85)"
         id="path10-5-3" /><path
         d="m-2.5-26.8.2.35-.1.05v.2h-.05v.05l-.05.15v.1l-.1.2-.05.05v.35l.05.15q.1.15.35.15l-.05.15v.15l.05.1v.05l-.05.1v.35l.05.1-.2.55.15.55.15.7v.35l.05 1.15v.45l.25 1.2.1.1v.65l-.1.25v.2l-.05.05v.05l-.05.1v.05l-.05.25v.15l-.1 1.3-.85-11 .45.1"
         fill="#b40303"
         fill-rule="evenodd"
         transform="translate(16.85 27.85)"
         id="path12-4" /><path
         d="M11.65-25.25v.05m0-.05-.05-.1"
         fill="none"
         stroke="#000"
         stroke-linecap="round"
         stroke-linejoin="round"
         transform="translate(16.85 27.85)"
         id="path14-7" /><path
         d="m11.15-26.85-6.15.6-5.85-.25-1.65-.3M-2.9.45l1.55.05h1.9M3 .5 4.75.45h.3L5.9.4M7.8.25l3.35-.55m3.3-.95.4-.15 1.1-.4q.8-.55 1.4-1.7L16-8.95l-1.35-4.5-.95-3.3-.45-1.6v-.05l-.1-.35-.1-.45-.1-.35v-.15l-.05-.1-.05-.15v-.1l-.2-.65v-.1l-.35-1.45-.65-2.95m-.05.05v-.9l-.05-.45M7.45.3 7.8.25m6.65-1.5-.7.25-.4.15-2.2.55m-8.8.8H3M7.45.3 5.9.4M2.35.5H.55M-2.1-15.9l-.85-11 .45.1m-5.1 11 1.75.1h1.15l2.05-.15.55-.05m-9-.5.65.15 2.35.4.5.05m-5.15-1.2h-.05l-.5-.2-2.2 10.7-.05.1v.05l-.8 4.45.25.1 2.55.95 4.9.85.35.1h.3l1.1.1 1.1.1 2.15.1m.75.05L-3.65.4"
         fill="none"
         stroke="#2e2e2e"
         stroke-linecap="round"
         stroke-linejoin="round"
         transform="translate(16.85 27.85)"
         id="path16-4" /></g><g
       id="m-4"
       transform="translate(.5)"><use
         height="35.8"
         transform="translate(6.35)"
         width="34.35"
         xlink:href="#a-7"
         id="use19-3" /><use
         height="31.7"
         transform="translate(-.5 23.7)"
         width="47.3"
         xlink:href="#b-2"
         id="use21-0" /></g><g
       id="a-7"><use
         height="35.8"
         width="34.35"
         xlink:href="#c-4"
         id="use24-8" /><use
         height="6.45"
         transform="translate(5.35 16.65)"
         width="5"
         xlink:href="#d-7"
         id="use26-6" /><use
         height="5.95"
         transform="translate(18.25 17.2)"
         width="7.3"
         xlink:href="#e-6"
         id="use28-8" /><use
         height="3.1"
         transform="translate(14.1 12.45)"
         width="15.65"
         xlink:href="#f-2"
         id="use30-8" /></g><g
       id="c-4"><path
         d="m27.2 9.3.05.1-1.05.5-3.3-7.35-3.3 7.35-.85-.4-.2-.1L22.9 0l4.3 9.3m-15.3.2.05.1-.05.05-1 .45-3.3-7.35v.1L4.3 10.1l-1.05-.5L7.6.2l4.3 9.3"
         fill-rule="evenodd"
         id="path33-3" /><path
         d="m18.75 9.5.85.4 3.3-7.35 3.3 7.35 1.05-.5-.05-.1 2.9 2.8 1.15 1.1-.4.4.1.1q2.1 2.05 2.35 4.55v.6q0 1.65-.8 3.1l-.25.45-1.4 1.7.1.1-.3.3-3.25.9v3.4h-4.95l-7.2 7-7.85-7h-.15l-1.9-3.1-2.2-.8.4-.4-1-1.1-.55-.8q-.9-1.5-.95-3.2v-.15l.1-1q.35-2.3 2.4-4.25l-.75-.75 1.5-3.15 3.3-7.25 3.25 7.3 1.05-.5.05-.05-.05-.1.6-.25V9.1l.05.1q.2-.05.35-.15h4.7l1.15.55v-.1m11.35 2.6 1.15 1.1-1.15-1.1M18.55 9.8h.05l.05-.05h-.2l.1.05m-15.2-.45-.05.15v-.15h.05"
         fill="#fff"
         fill-rule="evenodd"
         id="path35-1" /><path
         d="m2.8 13.25.75.75q-2.05 1.95-2.4 4.25l-.1 1v.15q.05 1.7.95 3.2l.55.8 1 1.1-.4.4-.35.3-.4-.35-.25-.3-.35-.4Q.05 22.05 0 19.4v-.15l.1-1q.3-2.8 2.7-5M30.95 24.2l-.1-.1 1.4-1.7.25-.45q.8-1.45.8-3.1v-.6q-.25-2.5-2.35-4.55l-.1-.1.4-.4.3-.35q2.55 2.35 2.8 5.4v.6q0 1.9-.9 3.55l-1.9 2.4-.6-.6"
         fill="#333"
         fill-rule="evenodd"
         id="path37-4" /><path
         d="m31.25 13.2-1.15-1.1"
         fill="none"
         stroke="#333"
         stroke-linecap="round"
         stroke-linejoin="round"
         id="path39-9" /></g><g
       id="f-2"
       transform="translate(.8 -.15)"><use
         height="3.1"
         transform="matrix(1.005 0 0 1 -.804 .15)"
         width="4.65"
         xlink:href="#g-7-2"
         id="use42-0" /><use
         height="3.1"
         transform="matrix(1.005 0 0 1 10.196 .15)"
         width="4.65"
         xlink:href="#g-7-2"
         id="use44-6" /></g><g
       id="k-8"><path
         d="m40.95 10.35 5.35 14L44.5 26l-.75-1.3q-1.05.95-2.4 1.7l.45 1.35-2.25 1.1-.15-.35-.2-1.1-2.85.8.2 1.35.1.35-.4.1-.3.05-.6.1-.45-1.6v-.05l-.1-.35-.1-.45-.1-.35v-.15l-.05-.1-.05-.15v-.1l-.2-.75-.35-1.45-.65-2.95-.05.05.05-.1v-.05l.05-.05v-.9l-.05-.1v-.1l-.05-.05h-.05l-.1-.1h-.05l-.35-.05.1-.2V20l.15-.3v-.15l.1-.5-.05-.3v-.1.1l-.5-.55-.05-.45v-.15l-.05-.1v-.2l-.05-.1v-.6l.15-.2.25-.3.05-.1v-.6l-.1-.1V15v.25l-.1-.1-.15-.1.05.15-4.65.6h-1.5l-7.6-.6v-1.7q-.05-1.8 4.65-4.25-4.7 2.45-4.65 4.25v1.7l-.25-.05.05.05.2.25.1.25h-.1v.15l-.05.05v.05l-.05.05-.2.35-.1.65.2.9.15 2.1.85 11v.5h-.5l-.3-.05h-.3l-.2-.05-3.55-.05-.65-.25 1.75.1h.1q-.05-.85-.6-1.65h-.05l-.95-.05-1.8-.2-.55 1.05-.65-.05-.1.35-.65-.15-1.65-.6.7-1.4q-1.05-.45-1.85-1.1-.75.75-1 1.3l-1.25-.95.15-.25-.1-.05-.85-.65 1.2-.9-1.55-1.3-.3-.25-1.15.95-.5-.5-.3-.25-.05-.05-.8-.85.15-.25.9-.75-1.45-1.9-.25-.1q2.2-5.7 5.1-11.1l2.35.35h.05l4.1.7h.3L7.45 6.4l.2-.35 1.4-2.3 1.25-1.9v-.1.1h.55l2.4 1.5 3.6 1.85q5 2.95 6.55 4.05V9.2q5-3 7.45-4.2l6.2-3.45v.25l.25.1.35.1v.05l2.15 5.4-1.5.7q-.1 0-.15.1L38 8.3q-1.2.6-3 1.55 0 .9 4.3.95 1.4 0 1.65-.45m-3.9-8.55.05.05-.05-.05M32.8 16.45v-.05l-.05-.3.05.3v.05l.2 2.2v-1.5l-.2-.7m.4 3.95-.15-1.35.15 1.35m.1 1.3v-.05.05M10.95 4.4l.25-.55-.25.5v.05M7.9 10.7h-.05.05m.15-.45v.15-.15M17.9 8.5l.55 7.85-.55-7.85M19.55 31l-.55.05-2.05.15H15.9h1.05l2.05-.15.55-.05"
         fill="#fff"
         fill-rule="evenodd"
         transform="translate(.5)"
         id="path47-9" /><path
         d="m44.5 26-2 1.4-.2.1-.2.1-.3.15-.45-1.35q1.35-.75 2.4-1.7l.75 1.3m-4.95 2.85-.55.25-.25.1h-.05l-2.05.7-.1-.35-.2-1.35 2.85-.8.2 1.1.15.35M8.9 29.9h-.05l-.5-.2-.45-.3-1.05-.6-.1-.1q.25-.55 1-1.3.8.65 1.85 1.1l-.7 1.4m-7.65-6.25L0 22.25v-.05l.4-1.1.2-.45.25.1 1.45 1.9-.9.75-.15.25M2.9 25.3l1.15-.95.3.25 1.55 1.3-1.2.9-1.8-1.5m9.05 5.05.55-1.05 1.8.2.95.05h.05q.55.8.6 1.65h-.1l-1.75-.1-.45-.15-.4-.1-.7-.15v-.05l-.05-.05v-.05h-.05v-.05l-.1-.05-.25-.1h-.1"
         fill="#a70303"
         fill-rule="evenodd"
         transform="translate(.5)"
         id="path49-2" /><path
         d="M10.85 1.85h.2l-.15-.1-.2-.1-.3-.1-.1-.05q8.5 2.25 13.15 6.3 2-1.95 5.6-3.75 6.8-3.4 7.8-3.4l.2.65v.25L30.85 5Q28.4 6.2 23.4 9.2v.05q-1.55-1.1-6.55-4.05l-3.6-1.85-2.4-1.5m12.2 6.35.4-.4-.4.4m9.9 22.8h-.05v-.1l.05.1"
         fill="#d70404"
         fill-rule="evenodd"
         transform="translate(.5)"
         id="path51-6" /><path
         d="m37.3 1.9.15-.05.1.05.1.1-.35-.1m-4.6 13.35V15v.3-.05m.1 1.2.2.7v1.5l-.2-2.2M10.95 4.4v-.05l.25-.5-.25.55m-2.9 5.85v.15-.15"
         fill="#6a6a6a"
         fill-rule="evenodd"
         transform="translate(.5)"
         id="path53-6" /><path
         d="m32.8 20.05-6.15.6-5.85-.25-1.65-.3-.05-.4-.05-.65q-.2-.4-.05-.65l-.2-.15-.35-1.9.2-.35.05-.05v-.05l.05-.05v-.15h.1l-.1-.25-.2-.25-.05-.05.25.05 7.6.6h1.5l4.65-.6-.05-.15.15.1.1.1.05.85-.25.3-.15.2v.6l.05.1v.2l.05.1v.15l.05.45.5.55.05.3-.1.5v.15l-.15.3v.05M5.7 9.55l.9-1.65.1-.1v-.05l.05-.05.05-.1v-.25h.05l.05-.1V7.2l.1-.05.45-.75 5.05 4.2h-.3l-4.1-.7h-.05L5.7 9.55m34.1-2.1.2.45.15.25v.1l.05.1.75 2q-.25.45-1.65.45-4.3-.05-4.3-.95 1.8-.95 3-1.55l.15-.05q.05-.1.15-.1l1.5-.7m-19 12.95q1.1-2.6 2.85-3.2l4.2-1.4-4.2 1.4q-1.75.6-2.85 3.2"
         fill="#e11e1e"
         fill-rule="evenodd"
         transform="translate(.5)"
         id="path55-4" /><path
         d="m32.7 15.3.1.1v.6l-.05.1-.05-.85v.05m-14.15 2.6-.2-.9.1-.65.1 1.55"
         fill="#df0202"
         fill-rule="evenodd"
         transform="translate(.5)"
         id="path57-9" /><path
         d="M33.25 21.75v-.9l-.05-.45h.05l.05.05v.1l.05.1v.9l-.05.05v.05l-.05-.1.05.1-.05.1"
         fill="#333"
         fill-rule="evenodd"
         transform="translate(.5)"
         id="path59-5" /><path
         d="m7.75.1-.1-.1h.15l-.05.1"
         fill-rule="evenodd"
         transform="translate(.5)"
         id="path61-0" /><path
         d="m19.15 20.1-.45-.1-.15-2.1-.1-1.55.35 1.9.2.15q-.15.25.05.65l.05.65.05.4"
         fill="#b40303"
         fill-rule="evenodd"
         transform="translate(.5)"
         id="path63-4" /><path
         d="m40.95 10.35 5.35 14L44.5 26l-2 1.4-.2.1-.2.1-.3.15-2.25 1.1-.55.25-.25.1h-.05l-2.05.7-.4.1-.3.05-.6.1-.45-1.6v-.05l-.1-.35-.1-.45-.1-.35v-.15l-.05-.1-.05-.15v-.1l-.2-.75-.35-1.45-.65-2.95m-.05.05v-.9l-.05-.45m-.4-.35-6.15.6-5.85-.25-1.65-.3-.45-.1.85 11m-5.5.1-.5-.05-2.35-.4-.65-.15-1.65-.6h-.05l-.5-.2-.45-.3-1.05-.6-.1-.1-1.25-.95-2.6-2.45-.5-.5-.3-.25m-.05-.05-.8-.85L0 22.25m0-.05.4-1.1.2-.45q2.2-5.7 5.1-11.1M7.45 6.4l.2-.35 1.4-2.3 1.25-1.9m0-.1v.1m27.35.2 2.15 5.4m1.15 2.9q-.25.45-1.65.45-4.3-.05-4.3-.95 1.8-.95 3-1.55l.15-.05q.05-.1.15-.1l1.5-.7m-2.75-5.9L30.85 5Q28.4 6.2 23.4 9.2v.05q-4.7 2.45-4.65 4.25v1.7l7.6.6h1.5l4.65-.6m.2.05V15m.05 1.1.05.3v.05l.2 2.2v.1l.05.3.15 1.35m-5.35-4.6-4.2 1.4q-1.75.6-2.85 3.2m11.9-5.15.05.85M23.4 9.25q-1.55-1.1-6.55-4.05l-3.6-1.85-2.4-1.5M7.45 6.4l5.05 4.2h-.3l-4.1-.7h-.05L5.7 9.55m12.8 5.6.25.05m-.3 1.15L17.9 8.5m.55 7.85.1 1.55.15 2.1m-4.65 11.1 1.75.1h1.15l2.05-.15.55-.05"
         fill="none"
         stroke="#2e2e2e"
         stroke-linecap="round"
         stroke-linejoin="round"
         transform="translate(.5)"
         id="path65-8" /><path
         d="M10.8 1.5q8.5 2.25 13.15 6.3 2-1.95 5.6-3.75 6.8-3.4 7.8-3.4l.2.65m-13.6 6.5-.4.4"
         fill="none"
         stroke="#8b0101"
         stroke-linecap="round"
         stroke-linejoin="round"
         stroke-width=".5"
         id="path67-7" /><path
         d="M33.3 21.65v.05m0-.05-.05-.1"
         fill="none"
         stroke="#000"
         stroke-linecap="round"
         stroke-linejoin="round"
         transform="translate(.5)"
         id="path69-1" /></g><use
       height="6.45"
       width="5"
       xlink:href="#h-2"
       id="d-7" /><use
       height="6.45"
       width="5"
       xlink:href="#i-2-0"
       id="h-2" /><use
       height="3.1"
       transform="translate(1.1)"
       width="1.85"
       xlink:href="#j-1"
       id="g-7-2" /><use
       height="31.7"
       width="47.3"
       xlink:href="#k-8"
       id="b-2" /><path
       d="m2-1.7-2 2 1.85 1.8M0 .3V.25v2.5M0 .3l-1.85 1.8M-2-1.7 0 .25V-2.7"
       fill="none"
       stroke="#fea5c0"
       stroke-linecap="round"
       stroke-linejoin="round"
       transform="translate(2.5 3.2)"
       id="i-2-0" /><path
       d="M25.05 17.2q.5 1.25.5 2.5 0 1.95-.95 2.85-.55.6-1.5.6-.8 0-1.25-.45l-.35-.55-.3.45q-.5.55-1.3.55-.75 0-1.15-.5-.5-.5-.5-1.6 0-1.9 1.65-3.85l.85.45q-1.6 1.85-1.6 3.4 0 .75.25 1l.5.2q.5 0 .8-.35l.55-.7v-1l.35-1.15q.3-.6.65-.6.45 0 .45.95l-.25 1.25-.35.75.3.55.7.25q.45 0 .75-.35.65-.6.65-2.15 0-1.2-.35-2.25l.9-.25"
       fill-rule="evenodd"
       transform="translate(-18.25 -17.2)"
       id="e-6" /><path
       d="M1.45.15h.7l-.9 1.4H2v1.7H.3v-1.6L1.45.15"
       fill-rule="evenodd"
       transform="translate(-.3 -.15)"
       id="j-1" /><path
       d="M1.35 0h.2l.55.1.45.35q.45.45.45 1L2.55 2.6q-.45.4-1 .4l-.8-.2-.25-.2-.45-.7v-.15L0 1.45v-.1q.05-.5.5-.9l.25-.2Q1 .05 1.3 0h.05m.45.85L1.55.8Q1.2.75 1 1q-.2.15-.2.45v.15l.15.45H1l.05.05.2.1.3.05.55-.2.15-.6-.05-.3L2.1 1 2.05.95 1.9.85h-.1"
       fill-rule="evenodd"
       id="d-3-0" /><path
       d="M10.25-2.6H.75l-1.1-1"
       fill="none"
       stroke="#333"
       stroke-linecap="round"
       stroke-linejoin="round"
       transform="translate(.85 4.1)"
       id="b-6-6-6" /><path
       d="m2-1.7-2 2 1.85 1.8M0 .3V.25v2.5M0 .3l-1.85 1.8M-2-1.7 0 .25V-2.7"
       fill="none"
       stroke="#fea5c0"
       stroke-linecap="round"
       stroke-linejoin="round"
       transform="translate(2.5 3.2)"
       id="e-7-1-1" /><g
       id="f-5-5"><path
         d="M.25-60h3.9l1.2.55 3.9-8.6 3.85 8.6 1.25-.55 3.15 3.05 1.1 1.1-.4.4.1.1q2.1 2.05 2.35 4.55v.6q0 1.65-.8 3.1l-.25.45-1.4 1.7.15.15-.3.25-3.25.9v4.7l-3.25.7-3.1.9.65 1.6L12.4-37q1.7-.6 3-.6 1.55 0 2.15.6.8.8.8 2 0 1.1-.75 1.85-1.05 1.05-4.1 1.25l-1.25.05.35 1.5 1.5-.05-.05 2.75-1.5 1.25v12.25l-.85 4.6h-1.5V-3q0 .7-.45 1.15-.55.55-1.6.55Q7-1.3 6.5-1.85 6.05-2.3 6.1-3v-6.55H4.5l-2.35-3.5H.4l-3.55 3.5V-3q0 .7-.45 1.15-.55.55-1.6.55-1.1 0-1.65-.55-.45-.45-.4-1.15v-6.55H-8.8l-1.7-1.1-1.75-3.9v-3.9l.45-.4q.75-.6 1.35-1.55l-1.25-1-.7.95.4-10.95 1.75-12.8.4.35.75-.7-1-1.1q-1.55-1.9-1.5-4.15l.05-1q.35-2.3 2.45-4.25l-.75-.75.5-3.95.65.3 3.85-8.6 3.85 8.6L.25-60m5.1 22.05Q4.3-39 2.1-39q-1.35 0-4 .75l-3.1.9.65 1.6 3.3-1.25q1.7-.6 3-.6 1.55 0 2.15.6.8.8.8 2 0 1.1-.75 1.85Q3.1-32.1.1-31.9l-1.3.05.35 1.5q3.95-.05 5.9-1.55l.45-.35q1-1 1-2.85-.05-1.8-1.15-2.85"
         fill="#fff"
         fill-rule="evenodd"
         transform="translate(21.7 71)"
         id="path497-9-5" /><path
         d="m4.15-60 5.1-11 5.1 11-1.25.55-3.85-8.6-3.9 8.6-1.2-.55m14.5 4.1.25-.3q2.55 2.35 2.8 5.4v.6q0 1.9-.9 3.55-.7 1.25-1.9 2.4l-.55-.55-.15-.15 1.4-1.7.25-.45q.8-1.45.8-3.1v-.6q-.25-2.5-2.35-4.55l-.1-.1.4-.4.05-.05M14.8-38.95l.75-.05q2.2 0 3.25 1.05 1.1 1.05 1.1 2.85 0 1.85-1 2.85l-.4.35q-1.55 1.2-4.4 1.5l-1.5.05-.35-1.5 1.25-.05q3.05-.2 4.1-1.25.75-.75.75-1.85 0-1.2-.8-2-.6-.6-2.15-.6-1.3 0-3 .6l-3.3 1.25-.65-1.6 3.1-.9 3.25-.7m-3.1 29.4v6.6q0 1.25-.8 2.05-.9.9-2.75.9Q6.2 0 5.3-.9q-.8-.8-.8-2.05v-6.6h1.6V-3q-.05.7.4 1.15.5.55 1.65.55 1.05 0 1.6-.55.45-.45.45-1.15v-6.55h1.5m-14.85 0h1.5v6.6q0 1.25-.8 2.05-.9.9-2.75.9Q-7.1 0-8-.9q-.85-.8-.8-2.05v-6.6h1.55V-3q-.05.7.4 1.15.55.55 1.65.55 1.05 0 1.6-.55.45-.45.45-1.15v-6.55m-9.1-8.9q-.7.45-1.6.45-1 0-2.7-1.1-1.15-.65-1.9-.65-.85 0-1.3.55l-.6.95-1.35-.75 1.2-1.65q.85-.8 1.95-.8t2.3.8q1.65.85 2.55.85.6 0 1.3-.65l.7-.95 1.25 1q-.6.95-1.35 1.55l-.45.4m2-25.75-.6-.7q-1.85-2.2-1.8-4.9l.05-1q.35-2.8 2.75-5l.75.75q-2.1 1.95-2.45 4.25l-.05 1q-.05 2.25 1.5 4.15l1 1.1-.75.7-.4-.35m.9-15.55L-9.9-60l5.05-11 5.1 11-1.25.55-3.85-8.6-3.85 8.6-.65-.3m14.7 21.8q1.1 1.05 1.15 2.85 0 1.85-1 2.85l-.45.35q-1.95 1.5-5.9 1.55l-.35-1.5 1.3-.05q3-.2 4.05-1.25.75-.75.75-1.85 0-1.2-.8-2-.6-.6-2.15-.6-1.3 0-3 .6l-3.3 1.25-.65-1.6 3.1-.9Q.75-39 2.1-39q2.2 0 3.25 1.05"
         fill="#333"
         fill-rule="evenodd"
         transform="translate(21.7 71)"
         id="path499-4" /><path
         d="m17.5-56.95 1.15 1.05-.05.05-1.1-1.1"
         fill="red"
         fill-rule="evenodd"
         transform="translate(21.7 71)"
         id="path501-9" /><path
         d="M.25-60h3.9m8.4 33.6v12.25m6.05-41.7-1.1-1.1"
         fill="none"
         stroke="#333"
         stroke-linecap="round"
         stroke-linejoin="round"
         transform="translate(21.7 71)"
         id="path503-0" /></g><g
       id="g-3-9"
       transform="translate(.8)"><use
         height="3"
         transform="matrix(1.005 0 0 1 -.804 0)"
         width="4.65"
         xlink:href="#a-6-5"
         id="use506-1" /><use
         height="3"
         transform="matrix(1.005 0 0 1 16.096 0)"
         width="4.65"
         xlink:href="#a-6-5"
         id="use508-7" /></g><g
       id="h-5-7"
       transform="translate(11.45 4.1)"><use
         height="2"
         transform="translate(-.85 -4.1)"
         width="11.6"
         xlink:href="#b-6-6-6"
         id="use511-1" /><use
         height="6.45"
         transform="translate(-11.45 -3.8)"
         width="5"
         xlink:href="#c-2-9"
         id="use513-1" /></g><use
       height="3"
       width="3"
       xlink:href="#d-3-0"
       id="a-6-5"
       transform="translate(.8)" /><use
       height="6.45"
       width="5"
       xlink:href="#e-7-1-1"
       id="c-2-9" /><g
       id="l-5"><path
         d="m11.55-26.5-.1-.1h-.05l-.35-.05.1-.2v-.05l.15-.3v-.15l.1-.5.15 1.35M-2.1-15.9v.5h-.5l-.3-.05h-.3l-.2-.05-3.55-.05-.65-.25 1.75.1h1.15l2.05-.15.55-.05m13.75-9.3-.05.05.05-.1v.05"
         fill="#fff"
         fill-rule="evenodd"
         transform="translate(16.85 27.85)"
         id="path2-3" /><path
         d="m11.15-26.85-.1.2.35.05h.05l.1.1.05.45v.9l.05-.05.65 2.95.35 1.45v.1l.2.65v.1l.05.15.05.1v.15l.1.35.1.45.1.35v.05l.45 1.6.95 3.3L16-8.95l1.35 5.45q-.6 1.15-1.4 1.7l-1.1.4-.4.15q-.85-6.35-3.15-18.4L11.25-16l-.1 15.7L7.8.25l-.05-1.1-.65-8.3-.35.1-.55-6.1-.25 14.3L5.9.4l-.85.05h-.3L3 .5 2.9-.85 2-17.5l-.45 4.1L.6-.85.55.5h-1.9L-2.9.45v-1.3l.35-11.75-.3.05q.05-2.3-.05-2.85v-.05l.3.05h.5v-.5l.1-1.3v-.15l.05-.25v-.05l.05-.1v-.05l.05-.05v-.2l.1-.25v-.65l-.1-.1-.25-1.2v-.45l-.05-1.15v-.35l-.15-.7-.15-.55.2-.55-.05-.1v-.35l.05-.1v-.05l-.05-.1v-.15l.05-.15q-.25 0-.35-.15l-.05-.15v-.35l.05-.05.1-.2v-.1l.05-.15v-.05h.05v-.2l.1-.05-.2-.35 1.65.3 5.85.25 6.15-.6M-11.1-16.4l.65.15 2.35.4.5.05.65.25 3.55.05.2.05-.25.65Q-3.95-8-5.6-.85l-.15.65-2.15-.65-1.95-1.2q-2.45-1.9-2.45-3.35-.05-1.1 1.1-9.75l.05-.5v-.45l.05-.3"
         fill="#e11e1e"
         fill-rule="evenodd"
         transform="translate(16.85 27.85)"
         id="path4-5" /><path
         d="M11.6-25.15v-.9l-.05-.45h.05l.05.05v.1l.05.1v.9l-.05.05v.05l-.05-.1.05.1-.05.1"
         fill="#333"
         fill-rule="evenodd"
         transform="translate(16.85 27.85)"
         id="path6-6" /><path
         d="m-2.85-12.55.3-.05L-2.9-.85v1.3L-3.65.4l.1-1.25q.6-8.1.7-11.7m4.4-.85L2-17.5 2.9-.85 3 .5h-.65l-.1-1.35-.7-12.55m5.2 4.35.35-.1.65 8.3.05 1.1-.35.05-.1-1.15-.6-8.2m4.5-6.95.05-3.65q2.3 12.05 3.15 18.4l-.7.25-2.5-15"
         fill="#7d0202"
         fill-rule="evenodd"
         transform="translate(16.85 27.85)"
         id="path8-29" /><path
         d="M-2.9-15.45v.05q.1.55.05 2.85-.1 3.6-.7 11.7L-3.65.4-5.8.3-6.9.2-8 .1h-.3l-.35-.1-4.9-.85-2.55-.95-.25-.1.8-4.45v-.05l.05-.1 2.2-10.7.5.2h.05l1.65.6-.05.3v.45l-.05.5q-1.15 8.65-1.1 9.75 0 1.45 2.45 3.35l1.95 1.2 2.15.65.15-.65Q-3.95-8-3.45-14.8l.25-.65h.3M.55.5.6-.85l.95-12.55.7 12.55.1 1.35H.55M5.9.4l.05-1.25.25-14.3.55 6.1.6 8.2.1 1.15L5.9.4m5.25-.7.1-15.7 2.5 15-.4.15-2.2.55"
         fill="#d70404"
         fill-rule="evenodd"
         transform="translate(16.85 27.85)"
         id="path10-1" /><path
         d="m-2.5-26.8.2.35-.1.05v.2h-.05v.05l-.05.15v.1l-.1.2-.05.05v.35l.05.15q.1.15.35.15l-.05.15v.15l.05.1v.05l-.05.1v.35l.05.1-.2.55.15.55.15.7v.35l.05 1.15v.45l.25 1.2.1.1v.65l-.1.25v.2l-.05.05v.05l-.05.1v.05l-.05.25v.15l-.1 1.3-.85-11 .45.1"
         fill="#b40303"
         fill-rule="evenodd"
         transform="translate(16.85 27.85)"
         id="path12-2" /><path
         d="M11.65-25.25v.05m0-.05-.05-.1"
         fill="none"
         stroke="#000"
         stroke-linecap="round"
         stroke-linejoin="round"
         transform="translate(16.85 27.85)"
         id="path14-70" /><path
         d="m11.15-26.85-6.15.6-5.85-.25-1.65-.3M-2.9.45l1.55.05h1.9M3 .5 4.75.45h.3L5.9.4M7.8.25l3.35-.55m3.3-.95.4-.15 1.1-.4q.8-.55 1.4-1.7L16-8.95l-1.35-4.5-.95-3.3-.45-1.6v-.05l-.1-.35-.1-.45-.1-.35v-.15l-.05-.1-.05-.15v-.1l-.2-.65v-.1l-.35-1.45-.65-2.95m-.05.05v-.9l-.05-.45M7.45.3 7.8.25m6.65-1.5-.7.25-.4.15-2.2.55m-8.8.8H3M7.45.3 5.9.4M2.35.5H.55M-2.1-15.9l-.85-11 .45.1m-5.1 11 1.75.1h1.15l2.05-.15.55-.05m-9-.5.65.15 2.35.4.5.05m-5.15-1.2h-.05l-.5-.2-2.2 10.7-.05.1v.05l-.8 4.45.25.1 2.55.95 4.9.85.35.1h.3l1.1.1 1.1.1 2.15.1m.75.05L-3.65.4"
         fill="none"
         stroke="#2e2e2e"
         stroke-linecap="round"
         stroke-linejoin="round"
         transform="translate(16.85 27.85)"
         id="path16-9-5" /></g><g
       id="m-3"
       transform="translate(.5)"><use
         height="35.8"
         transform="translate(6.35)"
         width="34.35"
         xlink:href="#a-2"
         id="use19-6" /><use
         height="31.7"
         transform="translate(-.5 23.7)"
         width="47.3"
         xlink:href="#b-63"
         id="use21-06" /></g><g
       id="a-2"><use
         height="35.8"
         width="34.35"
         xlink:href="#c-20"
         id="use24-6" /><use
         height="6.45"
         transform="translate(5.35 16.65)"
         width="5"
         xlink:href="#d-36"
         id="use26-1" /><use
         height="5.95"
         transform="translate(18.25 17.2)"
         width="7.3"
         xlink:href="#e-61"
         id="use28-87" /><use
         height="3.1"
         transform="translate(14.1 12.45)"
         width="15.65"
         xlink:href="#f-9-4"
         id="use30-9" /></g><g
       id="c-20"><path
         d="m27.2 9.3.05.1-1.05.5-3.3-7.35-3.3 7.35-.85-.4-.2-.1L22.9 0l4.3 9.3m-15.3.2.05.1-.05.05-1 .45-3.3-7.35v.1L4.3 10.1l-1.05-.5L7.6.2l4.3 9.3"
         fill-rule="evenodd"
         id="path33-2" /><path
         d="m18.75 9.5.85.4 3.3-7.35 3.3 7.35 1.05-.5-.05-.1 2.9 2.8 1.15 1.1-.4.4.1.1q2.1 2.05 2.35 4.55v.6q0 1.65-.8 3.1l-.25.45-1.4 1.7.1.1-.3.3-3.25.9v3.4h-4.95l-7.2 7-7.85-7h-.15l-1.9-3.1-2.2-.8.4-.4-1-1.1-.55-.8q-.9-1.5-.95-3.2v-.15l.1-1q.35-2.3 2.4-4.25l-.75-.75 1.5-3.15 3.3-7.25 3.25 7.3 1.05-.5.05-.05-.05-.1.6-.25V9.1l.05.1q.2-.05.35-.15h4.7l1.15.55v-.1m11.35 2.6 1.15 1.1-1.15-1.1M18.55 9.8h.05l.05-.05h-.2l.1.05m-15.2-.45-.05.15v-.15h.05"
         fill="#fff"
         fill-rule="evenodd"
         id="path35-3" /><path
         d="m2.8 13.25.75.75q-2.05 1.95-2.4 4.25l-.1 1v.15q.05 1.7.95 3.2l.55.8 1 1.1-.4.4-.35.3-.4-.35-.25-.3-.35-.4Q.05 22.05 0 19.4v-.15l.1-1q.3-2.8 2.7-5M30.95 24.2l-.1-.1 1.4-1.7.25-.45q.8-1.45.8-3.1v-.6q-.25-2.5-2.35-4.55l-.1-.1.4-.4.3-.35q2.55 2.35 2.8 5.4v.6q0 1.9-.9 3.55l-1.9 2.4-.6-.6"
         fill="#333"
         fill-rule="evenodd"
         id="path37-7" /><path
         d="m31.25 13.2-1.15-1.1"
         fill="none"
         stroke="#333"
         stroke-linecap="round"
         stroke-linejoin="round"
         id="path39-5" /></g><g
       id="f-9-4"
       transform="translate(.8 -.15)"><use
         height="3.1"
         transform="matrix(1.005 0 0 1 -.804 .15)"
         width="4.65"
         xlink:href="#g-0"
         id="use42-2" /><use
         height="3.1"
         transform="matrix(1.005 0 0 1 10.196 .15)"
         width="4.65"
         xlink:href="#g-0"
         id="use44-2" /></g><g
       id="k-89"><path
         d="m40.95 10.35 5.35 14L44.5 26l-.75-1.3q-1.05.95-2.4 1.7l.45 1.35-2.25 1.1-.15-.35-.2-1.1-2.85.8.2 1.35.1.35-.4.1-.3.05-.6.1-.45-1.6v-.05l-.1-.35-.1-.45-.1-.35v-.15l-.05-.1-.05-.15v-.1l-.2-.75-.35-1.45-.65-2.95-.05.05.05-.1v-.05l.05-.05v-.9l-.05-.1v-.1l-.05-.05h-.05l-.1-.1h-.05l-.35-.05.1-.2V20l.15-.3v-.15l.1-.5-.05-.3v-.1.1l-.5-.55-.05-.45v-.15l-.05-.1v-.2l-.05-.1v-.6l.15-.2.25-.3.05-.1v-.6l-.1-.1V15v.25l-.1-.1-.15-.1.05.15-4.65.6h-1.5l-7.6-.6v-1.7q-.05-1.8 4.65-4.25-4.7 2.45-4.65 4.25v1.7l-.25-.05.05.05.2.25.1.25h-.1v.15l-.05.05v.05l-.05.05-.2.35-.1.65.2.9.15 2.1.85 11v.5h-.5l-.3-.05h-.3l-.2-.05-3.55-.05-.65-.25 1.75.1h.1q-.05-.85-.6-1.65h-.05l-.95-.05-1.8-.2-.55 1.05-.65-.05-.1.35-.65-.15-1.65-.6.7-1.4q-1.05-.45-1.85-1.1-.75.75-1 1.3l-1.25-.95.15-.25-.1-.05-.85-.65 1.2-.9-1.55-1.3-.3-.25-1.15.95-.5-.5-.3-.25-.05-.05-.8-.85.15-.25.9-.75-1.45-1.9-.25-.1q2.2-5.7 5.1-11.1l2.35.35h.05l4.1.7h.3L7.45 6.4l.2-.35 1.4-2.3 1.25-1.9v-.1.1h.55l2.4 1.5 3.6 1.85q5 2.95 6.55 4.05V9.2q5-3 7.45-4.2l6.2-3.45v.25l.25.1.35.1v.05l2.15 5.4-1.5.7q-.1 0-.15.1L38 8.3q-1.2.6-3 1.55 0 .9 4.3.95 1.4 0 1.65-.45m-3.9-8.55.05.05-.05-.05M32.8 16.45v-.05l-.05-.3.05.3v.05l.2 2.2v-1.5l-.2-.7m.4 3.95-.15-1.35.15 1.35m.1 1.3v-.05.05M10.95 4.4l.25-.55-.25.5v.05M7.9 10.7h-.05.05m.15-.45v.15-.15M17.9 8.5l.55 7.85-.55-7.85M19.55 31l-.55.05-2.05.15H15.9h1.05l2.05-.15.55-.05"
         fill="#fff"
         fill-rule="evenodd"
         transform="translate(.5)"
         id="path47-7-7" /><path
         d="m44.5 26-2 1.4-.2.1-.2.1-.3.15-.45-1.35q1.35-.75 2.4-1.7l.75 1.3m-4.95 2.85-.55.25-.25.1h-.05l-2.05.7-.1-.35-.2-1.35 2.85-.8.2 1.1.15.35M8.9 29.9h-.05l-.5-.2-.45-.3-1.05-.6-.1-.1q.25-.55 1-1.3.8.65 1.85 1.1l-.7 1.4m-7.65-6.25L0 22.25v-.05l.4-1.1.2-.45.25.1 1.45 1.9-.9.75-.15.25M2.9 25.3l1.15-.95.3.25 1.55 1.3-1.2.9-1.8-1.5m9.05 5.05.55-1.05 1.8.2.95.05h.05q.55.8.6 1.65h-.1l-1.75-.1-.45-.15-.4-.1-.7-.15v-.05l-.05-.05v-.05h-.05v-.05l-.1-.05-.25-.1h-.1"
         fill="#a70303"
         fill-rule="evenodd"
         transform="translate(.5)"
         id="path49-3" /><path
         d="M10.85 1.85h.2l-.15-.1-.2-.1-.3-.1-.1-.05q8.5 2.25 13.15 6.3 2-1.95 5.6-3.75 6.8-3.4 7.8-3.4l.2.65v.25L30.85 5Q28.4 6.2 23.4 9.2v.05q-1.55-1.1-6.55-4.05l-3.6-1.85-2.4-1.5m12.2 6.35.4-.4-.4.4m9.9 22.8h-.05v-.1l.05.1"
         fill="#d70404"
         fill-rule="evenodd"
         transform="translate(.5)"
         id="path51-61" /><path
         d="m37.3 1.9.15-.05.1.05.1.1-.35-.1m-4.6 13.35V15v.3-.05m.1 1.2.2.7v1.5l-.2-2.2M10.95 4.4v-.05l.25-.5-.25.55m-2.9 5.85v.15-.15"
         fill="#6a6a6a"
         fill-rule="evenodd"
         transform="translate(.5)"
         id="path53-2" /><path
         d="m32.8 20.05-6.15.6-5.85-.25-1.65-.3-.05-.4-.05-.65q-.2-.4-.05-.65l-.2-.15-.35-1.9.2-.35.05-.05v-.05l.05-.05v-.15h.1l-.1-.25-.2-.25-.05-.05.25.05 7.6.6h1.5l4.65-.6-.05-.15.15.1.1.1.05.85-.25.3-.15.2v.6l.05.1v.2l.05.1v.15l.05.45.5.55.05.3-.1.5v.15l-.15.3v.05M5.7 9.55l.9-1.65.1-.1v-.05l.05-.05.05-.1v-.25h.05l.05-.1V7.2l.1-.05.45-.75 5.05 4.2h-.3l-4.1-.7h-.05L5.7 9.55m34.1-2.1.2.45.15.25v.1l.05.1.75 2q-.25.45-1.65.45-4.3-.05-4.3-.95 1.8-.95 3-1.55l.15-.05q.05-.1.15-.1l1.5-.7m-19 12.95q1.1-2.6 2.85-3.2l4.2-1.4-4.2 1.4q-1.75.6-2.85 3.2"
         fill="#e11e1e"
         fill-rule="evenodd"
         transform="translate(.5)"
         id="path55-9" /><path
         d="m32.7 15.3.1.1v.6l-.05.1-.05-.85v.05m-14.15 2.6-.2-.9.1-.65.1 1.55"
         fill="#df0202"
         fill-rule="evenodd"
         transform="translate(.5)"
         id="path57-3-6" /><path
         d="M33.25 21.75v-.9l-.05-.45h.05l.05.05v.1l.05.1v.9l-.05.05v.05l-.05-.1.05.1-.05.1"
         fill="#333"
         fill-rule="evenodd"
         transform="translate(.5)"
         id="path59-1" /><path
         d="m7.75.1-.1-.1h.15l-.05.1"
         fill-rule="evenodd"
         transform="translate(.5)"
         id="path61-9" /><path
         d="m19.15 20.1-.45-.1-.15-2.1-.1-1.55.35 1.9.2.15q-.15.25.05.65l.05.65.05.4"
         fill="#b40303"
         fill-rule="evenodd"
         transform="translate(.5)"
         id="path63-47" /><path
         d="m40.95 10.35 5.35 14L44.5 26l-2 1.4-.2.1-.2.1-.3.15-2.25 1.1-.55.25-.25.1h-.05l-2.05.7-.4.1-.3.05-.6.1-.45-1.6v-.05l-.1-.35-.1-.45-.1-.35v-.15l-.05-.1-.05-.15v-.1l-.2-.75-.35-1.45-.65-2.95m-.05.05v-.9l-.05-.45m-.4-.35-6.15.6-5.85-.25-1.65-.3-.45-.1.85 11m-5.5.1-.5-.05-2.35-.4-.65-.15-1.65-.6h-.05l-.5-.2-.45-.3-1.05-.6-.1-.1-1.25-.95-2.6-2.45-.5-.5-.3-.25m-.05-.05-.8-.85L0 22.25m0-.05.4-1.1.2-.45q2.2-5.7 5.1-11.1M7.45 6.4l.2-.35 1.4-2.3 1.25-1.9m0-.1v.1m27.35.2 2.15 5.4m1.15 2.9q-.25.45-1.65.45-4.3-.05-4.3-.95 1.8-.95 3-1.55l.15-.05q.05-.1.15-.1l1.5-.7m-2.75-5.9L30.85 5Q28.4 6.2 23.4 9.2v.05q-4.7 2.45-4.65 4.25v1.7l7.6.6h1.5l4.65-.6m.2.05V15m.05 1.1.05.3v.05l.2 2.2v.1l.05.3.15 1.35m-5.35-4.6-4.2 1.4q-1.75.6-2.85 3.2m11.9-5.15.05.85M23.4 9.25q-1.55-1.1-6.55-4.05l-3.6-1.85-2.4-1.5M7.45 6.4l5.05 4.2h-.3l-4.1-.7h-.05L5.7 9.55m12.8 5.6.25.05m-.3 1.15L17.9 8.5m.55 7.85.1 1.55.15 2.1m-4.65 11.1 1.75.1h1.15l2.05-.15.55-.05"
         fill="none"
         stroke="#2e2e2e"
         stroke-linecap="round"
         stroke-linejoin="round"
         transform="translate(.5)"
         id="path65-84" /><path
         d="M10.8 1.5q8.5 2.25 13.15 6.3 2-1.95 5.6-3.75 6.8-3.4 7.8-3.4l.2.65m-13.6 6.5-.4.4"
         fill="none"
         stroke="#8b0101"
         stroke-linecap="round"
         stroke-linejoin="round"
         stroke-width=".5"
         id="path67-5" /><path
         d="M33.3 21.65v.05m0-.05-.05-.1"
         fill="none"
         stroke="#000"
         stroke-linecap="round"
         stroke-linejoin="round"
         transform="translate(.5)"
         id="path69-0" /></g><use
       height="6.45"
       width="5"
       xlink:href="#h-1"
       id="d-36" /><use
       height="6.45"
       width="5"
       xlink:href="#i-20"
       id="h-1" /><use
       height="3.1"
       transform="translate(1.1)"
       width="1.85"
       xlink:href="#j-5"
       id="g-0" /><use
       height="31.7"
       width="47.3"
       xlink:href="#k-89"
       id="b-63" /><path
       d="m2-1.7-2 2 1.85 1.8M0 .3V.25v2.5M0 .3l-1.85 1.8M-2-1.7 0 .25V-2.7"
       fill="none"
       stroke="#fea5c0"
       stroke-linecap="round"
       stroke-linejoin="round"
       transform="translate(2.5 3.2)"
       id="i-20" /><path
       d="M25.05 17.2q.5 1.25.5 2.5 0 1.95-.95 2.85-.55.6-1.5.6-.8 0-1.25-.45l-.35-.55-.3.45q-.5.55-1.3.55-.75 0-1.15-.5-.5-.5-.5-1.6 0-1.9 1.65-3.85l.85.45q-1.6 1.85-1.6 3.4 0 .75.25 1l.5.2q.5 0 .8-.35l.55-.7v-1l.35-1.15q.3-.6.65-.6.45 0 .45.95l-.25 1.25-.35.75.3.55.7.25q.45 0 .75-.35.65-.6.65-2.15 0-1.2-.35-2.25l.9-.25"
       fill-rule="evenodd"
       transform="translate(-18.25 -17.2)"
       id="e-61" /><path
       d="M1.45.15h.7l-.9 1.4H2v1.7H.3v-1.6L1.45.15"
       fill-rule="evenodd"
       transform="translate(-.3 -.15)"
       id="j-5" /><path
       d="M1.35 0h.2l.55.1.45.35q.45.45.45 1L2.55 2.6q-.45.4-1 .4l-.8-.2-.25-.2-.45-.7v-.15L0 1.45v-.1q.05-.5.5-.9l.25-.2Q1 .05 1.3 0h.05m.45.85L1.55.8Q1.2.75 1 1q-.2.15-.2.45v.15l.15.45H1l.05.05.2.1.3.05.55-.2.15-.6-.05-.3L2.1 1 2.05.95 1.9.85h-.1"
       fill-rule="evenodd"
       id="d-3-5" /><path
       d="M10.25-2.6H.75l-1.1-1"
       fill="none"
       stroke="#333"
       stroke-linecap="round"
       stroke-linejoin="round"
       transform="translate(.85 4.1)"
       id="b-6-4" /><path
       d="m2-1.7-2 2 1.85 1.8M0 .3V.25v2.5M0 .3l-1.85 1.8M-2-1.7 0 .25V-2.7"
       fill="none"
       stroke="#fea5c0"
       stroke-linecap="round"
       stroke-linejoin="round"
       transform="translate(2.5 3.2)"
       id="e-7-7" /><g
       id="f-5-6"><path
         d="M.25-60h3.9l1.2.55 3.9-8.6 3.85 8.6 1.25-.55 3.15 3.05 1.1 1.1-.4.4.1.1q2.1 2.05 2.35 4.55v.6q0 1.65-.8 3.1l-.25.45-1.4 1.7.15.15-.3.25-3.25.9v4.7l-3.25.7-3.1.9.65 1.6L12.4-37q1.7-.6 3-.6 1.55 0 2.15.6.8.8.8 2 0 1.1-.75 1.85-1.05 1.05-4.1 1.25l-1.25.05.35 1.5 1.5-.05-.05 2.75-1.5 1.25v12.25l-.85 4.6h-1.5V-3q0 .7-.45 1.15-.55.55-1.6.55Q7-1.3 6.5-1.85 6.05-2.3 6.1-3v-6.55H4.5l-2.35-3.5H.4l-3.55 3.5V-3q0 .7-.45 1.15-.55.55-1.6.55-1.1 0-1.65-.55-.45-.45-.4-1.15v-6.55H-8.8l-1.7-1.1-1.75-3.9v-3.9l.45-.4q.75-.6 1.35-1.55l-1.25-1-.7.95.4-10.95 1.75-12.8.4.35.75-.7-1-1.1q-1.55-1.9-1.5-4.15l.05-1q.35-2.3 2.45-4.25l-.75-.75.5-3.95.65.3 3.85-8.6 3.85 8.6L.25-60m5.1 22.05Q4.3-39 2.1-39q-1.35 0-4 .75l-3.1.9.65 1.6 3.3-1.25q1.7-.6 3-.6 1.55 0 2.15.6.8.8.8 2 0 1.1-.75 1.85Q3.1-32.1.1-31.9l-1.3.05.35 1.5q3.95-.05 5.9-1.55l.45-.35q1-1 1-2.85-.05-1.8-1.15-2.85"
         fill="#fff"
         fill-rule="evenodd"
         transform="translate(21.7 71)"
         id="path497-5" /><path
         d="m4.15-60 5.1-11 5.1 11-1.25.55-3.85-8.6-3.9 8.6-1.2-.55m14.5 4.1.25-.3q2.55 2.35 2.8 5.4v.6q0 1.9-.9 3.55-.7 1.25-1.9 2.4l-.55-.55-.15-.15 1.4-1.7.25-.45q.8-1.45.8-3.1v-.6q-.25-2.5-2.35-4.55l-.1-.1.4-.4.05-.05M14.8-38.95l.75-.05q2.2 0 3.25 1.05 1.1 1.05 1.1 2.85 0 1.85-1 2.85l-.4.35q-1.55 1.2-4.4 1.5l-1.5.05-.35-1.5 1.25-.05q3.05-.2 4.1-1.25.75-.75.75-1.85 0-1.2-.8-2-.6-.6-2.15-.6-1.3 0-3 .6l-3.3 1.25-.65-1.6 3.1-.9 3.25-.7m-3.1 29.4v6.6q0 1.25-.8 2.05-.9.9-2.75.9Q6.2 0 5.3-.9q-.8-.8-.8-2.05v-6.6h1.6V-3q-.05.7.4 1.15.5.55 1.65.55 1.05 0 1.6-.55.45-.45.45-1.15v-6.55h1.5m-14.85 0h1.5v6.6q0 1.25-.8 2.05-.9.9-2.75.9Q-7.1 0-8-.9q-.85-.8-.8-2.05v-6.6h1.55V-3q-.05.7.4 1.15.55.55 1.65.55 1.05 0 1.6-.55.45-.45.45-1.15v-6.55m-9.1-8.9q-.7.45-1.6.45-1 0-2.7-1.1-1.15-.65-1.9-.65-.85 0-1.3.55l-.6.95-1.35-.75 1.2-1.65q.85-.8 1.95-.8t2.3.8q1.65.85 2.55.85.6 0 1.3-.65l.7-.95 1.25 1q-.6.95-1.35 1.55l-.45.4m2-25.75-.6-.7q-1.85-2.2-1.8-4.9l.05-1q.35-2.8 2.75-5l.75.75q-2.1 1.95-2.45 4.25l-.05 1q-.05 2.25 1.5 4.15l1 1.1-.75.7-.4-.35m.9-15.55L-9.9-60l5.05-11 5.1 11-1.25.55-3.85-8.6-3.85 8.6-.65-.3m14.7 21.8q1.1 1.05 1.15 2.85 0 1.85-1 2.85l-.45.35q-1.95 1.5-5.9 1.55l-.35-1.5 1.3-.05q3-.2 4.05-1.25.75-.75.75-1.85 0-1.2-.8-2-.6-.6-2.15-.6-1.3 0-3 .6l-3.3 1.25-.65-1.6 3.1-.9Q.75-39 2.1-39q2.2 0 3.25 1.05"
         fill="#333"
         fill-rule="evenodd"
         transform="translate(21.7 71)"
         id="path499-6" /><path
         d="m17.5-56.95 1.15 1.05-.05.05-1.1-1.1"
         fill="red"
         fill-rule="evenodd"
         transform="translate(21.7 71)"
         id="path501-93" /><path
         d="M.25-60h3.9m8.4 33.6v12.25m6.05-41.7-1.1-1.1"
         fill="none"
         stroke="#333"
         stroke-linecap="round"
         stroke-linejoin="round"
         transform="translate(21.7 71)"
         id="path503-7" /></g><g
       id="g-3-4-5"
       transform="translate(.8)"><use
         height="3"
         transform="matrix(1.005 0 0 1 -.804 0)"
         width="4.65"
         xlink:href="#a-6-4"
         id="use506-5" /><use
         height="3"
         transform="matrix(1.005 0 0 1 16.096 0)"
         width="4.65"
         xlink:href="#a-6-4"
         id="use508-2" /></g><g
       id="h-5-5"
       transform="translate(11.45 4.1)"><use
         height="2"
         transform="translate(-.85 -4.1)"
         width="11.6"
         xlink:href="#b-6-4"
         id="use511-4" /><use
         height="6.45"
         transform="translate(-11.45 -3.8)"
         width="5"
         xlink:href="#c-2-4"
         id="use513-7" /></g><use
       height="3"
       width="3"
       xlink:href="#d-3-5"
       id="a-6-4"
       transform="translate(.8)" /><use
       height="6.45"
       width="5"
       xlink:href="#e-7-7"
       id="c-2-4" /></defs><path
     d="m59.337 103.649-5.533 8.763 10.144 4.322 13.923-.354 13.813.832c3.563-.4 2.959-.223 7.246-.334l1.575-.134 6.105-.128-2.835-23.284-.511-5.356-38.195-14.067 10.593 35.297-8.876.593z"
     fill="#e11e1e"
     fill-rule="evenodd"
     id="path73" /><g
     transform="matrix(2 0 0 2 80.252 141.699)"
     id="g79"><use
       height="15.5"
       transform="translate(-13.95 -27.45)"
       width="32.4"
       xlink:href="#h"
       id="use75" /><g
       id="use77"
       transform="matrix(1,0,0,1.0009,-23.9,-70.5)"><use
         height="35.450001"
         transform="translate(8.45)"
         width="34.349998"
         xlink:href="#a"
         id="use189" /><use
         height="6.4499998"
         transform="translate(29.3,16.3)"
         width="5"
         xlink:href="#b"
         id="use191" /></g></g><g
     id="g358"
     transform="translate(-3.74292)"><g
       id="use522"
       transform="matrix(2.0024,0,0,2,73.74292,27)"><use
         height="3"
         transform="matrix(1.005,0,0,1,16.096,0)"
         width="4.6500001"
         xlink:href="#a-6"
         id="use362" /></g></g><g
     id="g472"
     transform="translate(1.8114821e-4,-2.3047567e-4)"><path
       style="display:inline;fill:#d70404;stroke:#2e2e2e;stroke-width:0.945;stroke-dasharray:none"
       d="m 16.17429,22.223247 -2.477294,7.690538 c 0,0 -2.678507,2.108205 -12.9284745,-8.571772 8.367866,-16.6564085 8.306991,-16.7011595 8.306991,-16.7011595 0,0 1.9605165,-2.971185 5.5514045,-3.397674 C 24.625016,2.828228 24.625016,2.828228 24.625016,2.828228 35.18031,0.9893135 36.03227,0.54742 36.03227,0.54742 c 0,0 2.6053,-1.293372 5.432345,5.2655475 7.15583,17.6395025 7.31169,17.9276725 7.31169,17.9276725 0,0 -3.25438,5.473465 -11.02286,5.13195 -2.02862,-6.342717 -2.02862,-6.342717 -2.02862,-6.342717 C 16.310133,22.260325 16.17429,22.223247 16.17429,22.223247 Z"
       id="path1625"
       transform="matrix(2,0,0,2,32.447,49.325)" /><path
       style="fill:#ffcc00;stroke:#2e2e2e;stroke-width:1.89"
       d="m 67.478335,77.881756 -2.729597,14.289421 39.044582,0.607734 -1.30148,-14.638032 c 0,0 -22.164218,-6.891582 -35.013505,-0.259123 z"
       id="path233" /><path
       style="fill:#e11e1e;stroke:#e11e1e;stroke-width:1.04964e-08;stroke-dasharray:none"
       d="m 6.2742551,25.861909 c 0,0 6.7234619,5.552561 7.3047369,3.293774 2.314417,-7.587936 2.314417,-7.587936 2.314417,-7.587936 2.015143,-12.2964735 0.819626,-12.253288 0.819626,-12.253288 0,0 -1.43522,-2.0200165 -10.4387799,16.54745 z"
       id="path1259"
       transform="matrix(2,0,0,2,32.447,49.325)" /><path
       style="fill:#ffcc00;fill-opacity:1;stroke:#2e2e2e;stroke-width:0.35;stroke-dasharray:none;stroke-opacity:1"
       d="m 23.787339,18.904553 -2.67269,-0.888192 c 0,0 -5.575728,5.178489 -3.6801,13.391493 5.552381,0.247815 5.552381,0.247815 5.552381,0.247815 0,0 -0.727953,-10.018767 0.800409,-12.751116 z"
       id="path2547"
       transform="matrix(2,0,0,2,32.447,49.325)" /><path
       style="fill:#ffcc00;fill-opacity:1;stroke:#2e2e2e;stroke-width:0.35;stroke-dasharray:none;stroke-opacity:1"
       d="m 17.106984,11.326072 7.220447,3.932959 -0.918184,3.701041 -5.681035,-0.501982 c 0,0 -3.325569,0.09907 -0.621228,-7.132018 z"
       id="path2464"
       transform="matrix(2,0,0,2,32.447,49.325)" /><path
       style="fill:#ffcc00;fill-opacity:1;stroke:#2e2e2e;stroke-width:0.35;stroke-dasharray:none;stroke-opacity:1"
       d="m 23.734078,18.559731 c 0,0 5.886113,7.49126 4.138402,13.935205 5.841535,-1.59833 8.169705,3.84923 5.841535,-1.59833 -2.457841,-5.8999 -8.191681,-13.161091 -8.191681,-13.161091 z"
       id="path2549"
       transform="matrix(2,0,0,2,32.447,49.325)" /><path
       style="fill:#ffcc00;fill-opacity:1;stroke:#2e2e2e;stroke-width:0.35;stroke-dasharray:none;stroke-opacity:1"
       d="m 24.498147,14.949384 -0.45623,3.550236 5.478132,1.418821 c 0,0 3.783926,-0.760182 3.914353,-4.009703 -3.100218,-3.453539 -3.100218,-3.453539 -8.936255,-0.959354 z"
       id="path2535"
       transform="matrix(2,0,0,2,32.447,49.325)" /><path
       d="M 21.05,43.45 Q 21.8,43.1 22.6,42.3 23.9,41 23.9,39.95 l -0.15,-0.1 m 1.35,0.9 v -0.2 q 0,-0.5 -0.8,-1.15 m 0.8,1.35 -0.55,0.85 Q 24,42.2 24.1,42.5"
       fill="none"
       stroke="#492727"
       stroke-linecap="round"
       stroke-linejoin="round"
       transform="matrix(2,0,0,2,32.447,0.725)"
       id="path1615"
       style="fill:#aa8800;stroke:#d4aa00" /><path
       style="fill:#e11e1e;stroke:#e11e1e;stroke-width:9.96942e-09;stroke-dasharray:none"
       d="m 44.550449,26.881896 c 0,0 -2.861695,1.737755 -6.393258,1.5277 -2.097192,-6.216334 -2.097192,-6.216334 -2.097192,-6.216334 -0.690408,-9.31115 -0.722093,-9.712869 -0.722093,-9.712869 0,0 -0.111689,-5.7469473 3.150256,-1.43508 6.079173,15.712958 6.062287,15.836583 6.062287,15.836583 z"
       id="path2357"
       transform="matrix(2,0,0,2,32.447,49.325)" /><path
       style="fill:#d4aa00;fill-opacity:1;stroke:#d4aa00;stroke-width:9.99888e-09;stroke-dasharray:none;stroke-opacity:1"
       d="m 29.553876,23.73187 c 0,0 3.940751,5.829396 4.870742,9.459191 -2.653486,-0.972945 -3.882182,-1.15475 -4.870742,-9.459191 z"
       id="path2691"
       transform="matrix(2,0,0,2,32.447,49.325)" /></g><g
     id="g2762"
     transform="matrix(1.3631736,0,0,1.3631736,79.540508,-15.68813)"><ellipse
       style="fill:#ff8080;stroke:#2e2e2e;stroke-width:0.209509;stroke-dasharray:none;stroke-opacity:1"
       id="path1282"
       cx="10.982962"
       cy="27.532608"
       rx="3.0593264"
       ry="2.0065935" /><ellipse
       style="fill:#ff8080;stroke:#2e2e2e;stroke-width:0.209509;stroke-dasharray:none;stroke-opacity:1"
       id="path1282-3"
       cx="28.113127"
       cy="1.8012403"
       rx="3.0593264"
       ry="2.0065935"
       transform="rotate(60)" /><ellipse
       style="fill:#ff8080;stroke:#2e2e2e;stroke-width:0.209509;stroke-dasharray:none;stroke-opacity:1"
       id="path1282-3-5"
       cx="14.217486"
       cy="-26.210449"
       rx="3.0593264"
       ry="2.0065935"
       transform="rotate(120)" /><ellipse
       style="fill:#ff8080;stroke:#2e2e2e;stroke-width:0.209509;stroke-dasharray:none;stroke-opacity:1"
       id="path1282-3-5-6"
       cx="-16.799887"
       cy="-28.1539"
       rx="3.0593264"
       ry="2.0065935"
       transform="scale(-1)" /><ellipse
       style="fill:#ff8080;stroke:#2e2e2e;stroke-width:0.209509;stroke-dasharray:none;stroke-opacity:1"
       id="path1282-3-5-6-2"
       cx="-34.062256"
       cy="-1.9149925"
       rx="3.0593264"
       ry="2.0065935"
       transform="rotate(-120)" /><ellipse
       style="fill:#ff8080;stroke:#2e2e2e;stroke-width:0.209509;stroke-dasharray:none;stroke-opacity:1"
       id="path1282-3-5-6-2-9"
       cx="-20.132507"
       cy="25.62619"
       rx="3.0593264"
       ry="2.0065935"
       transform="rotate(-60)" /><ellipse
       style="fill:#ffd5d5;stroke:#2e2e2e;stroke-width:0.262671;stroke-dasharray:none;stroke-opacity:1"
       id="path2273"
       cx="13.941062"
       cy="27.707539"
       rx="1.5631269"
       ry="1.5826592" /></g></svg>
