<?xml version="1.0" encoding="UTF-8" standalone="no"?>
<svg
   height="182"
   width="160"
   version="1.1"
   id="svg6"
   sodipodi:docname="back-standing.svg"
   xml:space="preserve"
   inkscape:version="1.3.2 (091e20e, 2023-11-25, custom)"
   xmlns:inkscape="http://www.inkscape.org/namespaces/inkscape"
   xmlns:sodipodi="http://sodipodi.sourceforge.net/DTD/sodipodi-0.dtd"
   xmlns:xlink="http://www.w3.org/1999/xlink"
   xmlns="http://www.w3.org/2000/svg"
   xmlns:svg="http://www.w3.org/2000/svg"><sodipodi:namedview
     id="namedview6"
     pagecolor="#ffffff"
     bordercolor="#000000"
     borderopacity="0.25"
     inkscape:showpageshadow="2"
     inkscape:pageopacity="0.0"
     inkscape:pagecheckerboard="true"
     inkscape:deskcolor="#d1d1d1"
     showgrid="false"
     inkscape:zoom="4"
     inkscape:cx="65.75"
     inkscape:cy="70.125"
     inkscape:window-width="1920"
     inkscape:window-height="1017"
     inkscape:window-x="-8"
     inkscape:window-y="-8"
     inkscape:window-maximized="1"
     inkscape:current-layer="svg6" /><defs
     id="defs4"><inkscape:path-effect
       effect="spiro"
       id="path-effect231"
       is_visible="true"
       lpeversion="1" /><inkscape:path-effect
       effect="spiro"
       id="path-effect230"
       is_visible="true"
       lpeversion="1" /><inkscape:path-effect
       effect="spiro"
       id="path-effect228"
       is_visible="true"
       lpeversion="1" /><inkscape:path-effect
       effect="spiro"
       id="path-effect227"
       is_visible="true"
       lpeversion="1" /><inkscape:path-effect
       effect="spiro"
       id="path-effect226"
       is_visible="true"
       lpeversion="1" /><inkscape:path-effect
       effect="spiro"
       id="path-effect225"
       is_visible="true"
       lpeversion="1" /><inkscape:path-effect
       effect="spiro"
       id="path-effect224"
       is_visible="true"
       lpeversion="1" /><inkscape:path-effect
       effect="spiro"
       id="path-effect223"
       is_visible="true"
       lpeversion="1" /><inkscape:path-effect
       effect="bspline"
       id="path-effect132"
       is_visible="true"
       lpeversion="1.3"
       weight="33.333333"
       steps="2"
       helper_size="0"
       apply_no_weight="true"
       apply_with_weight="true"
       only_selected="false"
       uniform="false" /><inkscape:path-effect
       effect="bspline"
       id="path-effect76"
       is_visible="true"
       lpeversion="1.3"
       weight="33.333333"
       steps="2"
       helper_size="0"
       apply_no_weight="true"
       apply_with_weight="true"
       only_selected="false"
       uniform="false" /><inkscape:path-effect
       effect="spiro"
       id="path-effect33"
       is_visible="true"
       lpeversion="1" /><inkscape:path-effect
       effect="spiro"
       id="path-effect32"
       is_visible="true"
       lpeversion="1" /><g
       id="c"><path
         d="M.4-60h3.9l1.2.55 3.9-8.6 3.85 8.6L14.5-60l3.15 3.05 1.15 1.05-.05.05-.4.4.1.1q2.1 2.05 2.35 4.55v.6q0 1.65-.8 3.1l-.25.45-1.4 1.7.15.15-.3.25-3.25.9v4.7l-3.25.7-3.1.9.65 1.6 3.3-1.25 3-.6q1.55 0 2.15.6.8.8.8 2 0 1.1-.75 1.85-1.05 1.05-4.1 1.25l-1.25.05.35 1.5 1.5-.05-.05 2.75-1.5 1.25v12.25l-.85 4.6h-1.5V-3q0 .7-.45 1.15-.55.55-1.6.55-1.15 0-1.65-.55Q6.2-2.3 6.25-3v-6.55h-1.6l-2.35-3.5H.55L-3-9.55V-3q0 .7-.45 1.15-.55.55-1.6.55-1.1 0-1.65-.55-.45-.45-.4-1.15v-6.55h-1.55l-1.7-1.1-1.75-3.9v-3.9l.45-.4q.75-.6 1.35-1.55l-1.25-1-.7.95.4-10.95 1.75-12.8.4.35.75-.7-1-1.1q-1.55-1.9-1.5-4.15l.05-1q.35-2.3 2.45-4.25l-.75-.75.5-3.95.65.3 3.85-8.6 3.85 8.6L.4-60m10.1 14.7v1.9h1.3v-3.25h-1.15v-9.45h-6.2v3.85l-.05 1.1-.45 2.45-1 2.05H2v3.3h1.35v-1.95h7.15m-6.05-1.35.5-.9.9-3.55v-.05l.05-.35v-3.25h3.4v8.1H4.45m14.3-9.2-1.1-1.1 1.1 1.1M5.5-37.95Q4.45-39 2.25-39l-4 .75-3.1.9.65 1.6L-.9-37l3-.6q1.55 0 2.15.6.8.8.8 2 0 1.1-.75 1.85Q3.25-32.1.25-31.9l-1.3.05.35 1.5q3.95-.05 5.9-1.55l.45-.35q1-1 1-2.85-.05-1.8-1.15-2.85M-7.15-43.6l.75-1.55v-1.35h-1.5v1.45h.55l-.55 1.45h.75M-5-45.05h.55L-5-43.6h.75l.75-1.55v-1.35H-5v1.45"
         fill="#fff"
         fill-rule="evenodd"
         transform="translate(21.55 71)"
         id="path1" /><path
         d="m4.3-60 5.1-11 5.1 11-1.25.55-3.85-8.6-3.9 8.6L4.3-60m14.5 4.1.25-.3q2.55 2.35 2.8 5.4v.6q0 1.9-.9 3.55-.7 1.25-1.9 2.4l-.55-.55-.15-.15 1.4-1.7.25-.45q.8-1.45.8-3.1v-.6q-.25-2.5-2.35-4.55l-.1-.1.4-.4.05-.05m-3.85 16.95.75-.05q2.2 0 3.25 1.05 1.1 1.05 1.1 2.85 0 1.85-1 2.85l-.4.35q-1.55 1.2-4.4 1.5l-1.5.05-.35-1.5 1.25-.05q3.05-.2 4.1-1.25.75-.75.75-1.85 0-1.2-.8-2-.6-.6-2.15-.6l-3 .6-3.3 1.25-.65-1.6 3.1-.9 3.25-.7m-3.1 29.4v6.6q0 1.25-.8 2.05-.9.9-2.75.9-1.95 0-2.85-.9-.8-.8-.8-2.05v-6.6h1.6V-3q-.05.7.4 1.15.5.55 1.65.55 1.05 0 1.6-.55.45-.45.45-1.15v-6.55h1.5M-3-9.55h1.5v6.6q0 1.25-.8 2.05-.9.9-2.75.9-1.9 0-2.8-.9-.85-.8-.8-2.05v-6.6h1.55V-3q-.05.7.4 1.15.55.55 1.65.55 1.05 0 1.6-.55Q-3-2.3-3-3v-6.55m-9.1-8.9q-.7.45-1.6.45-1 0-2.7-1.1l-1.9-.65q-.85 0-1.3.55l-.6.95-1.35-.75 1.2-1.65q.85-.8 1.95-.8t2.3.8q1.65.85 2.55.85.6 0 1.3-.65l.7-.95 1.25 1q-.6.95-1.35 1.55l-.45.4m2-25.75-.6-.7q-1.85-2.2-1.8-4.9l.05-1q.35-2.8 2.75-5l.75.75q-2.1 1.95-2.45 4.25l-.05 1q-.05 2.25 1.5 4.15l1 1.1-.75.7-.4-.35m.9-15.55-.55-.25 5.05-11L.4-60l-1.25.55-3.85-8.6-3.85 8.6-.65-.3M2-43.4v-3.25h.95l1-2.05.45-2.45.05-1.1v-3.85h6.2v9.45h1.15v3.25h-1.3v-1.95H3.35v1.95H2m7.3-11.35v-.05H5.85v3.25l-.05.35v.05l-.9 3.55-.5.9-.05.05H9.3v-8.1m-3.8 16.8q1.1 1.05 1.15 2.85 0 1.85-1 2.85l-.45.35q-1.95 1.5-5.9 1.55l-.35-1.5 1.3-.05q3-.2 4.05-1.25.75-.75.75-1.85 0-1.2-.8-2-.6-.6-2.15-.6l-3 .6-3.3 1.25-.65-1.6 3.1-.9 4-.75q2.2 0 3.25 1.05M-5-45.05v-1.45h1.5v1.35l-.75 1.55H-5l.55-1.45H-5m-2.15 1.45h-.75l.55-1.45h-.55v-1.45h1.5v1.35l-.75 1.55"
         fill-rule="evenodd"
         transform="translate(21.55 71)"
         id="path2" /><path
         d="M.4-60h3.9m8.4 33.6v9.45m0 0v2.8m4.95-42.8 1.1 1.1"
         fill="none"
         stroke="#000"
         stroke-linecap="round"
         stroke-linejoin="round"
         transform="translate(21.55 71)"
         id="path3" /></g><g
       id="d"
       transform="translate(.8)"><use
         height="3"
         transform="matrix(1.005 0 0 1 -.804 0)"
         width="4.65"
         xlink:href="#a"
         id="use3" /><use
         height="3"
         transform="matrix(1.005 0 0 1 16.096 0)"
         width="4.65"
         xlink:href="#a"
         id="use4" /></g><path
       d="M1.35 0h.2l.55.1.45.35q.45.45.45 1L2.55 2.6q-.45.4-1 .4l-.8-.2-.25-.2-.45-.7v-.15L0 1.45v-.1q.05-.5.5-.9l.25-.2Q1 .05 1.3 0h.05m.45.85L1.55.8Q1.2.75 1 1q-.2.15-.2.45v.15l.15.45H1l.05.05.2.1.3.05.55-.2.15-.6-.05-.3L2.1 1 2.05.95 1.9.85h-.1"
       fill-rule="evenodd"
       id="b" /><use
       height="3"
       transform="translate(.8)"
       width="3"
       xlink:href="#b"
       id="a" /><g
       id="c-4"><path
         d="M10.75-56.05v-.05H4.5v3.9l-.05 1.1L4-48.65l-1.05 2H2v3.3h1.35v-1.95h7.2v1.95h1.4v-3.3h-1.2v-9.4M.4-60h3.9l1.2.55 3.85-8.6 3.9 8.6L14.5-60l3.15 3.05 1.1 1.1-1.1-1.1 1.15 1.1h-.05l-.35.4.1.1q2.1 2.05 2.3 4.55l.05.6q0 1.65-.8 3.1l-.25.45-1.4 1.7.1.1-.3.3-3.25.9v4.7l-3.25.7-3.15.9.65 1.6L12.55-37l3-.6q1.55 0 2.15.6.8.8.8 2 0 1.1-.75 1.85-1.05 1.05-4.1 1.25l-1.25.05.35 1.5 1.5-.05-.05 2.75-1.5 1.25v8.75H8.15v1.55h6.6l1.15.4q.55.55.55 1.65 0 1.05-.55 1.6-.45.45-1.15.45h-6.6v.95H-1.6l-1.55 1.5V-3q0 .7-.45 1.15-.55.55-1.6.55-1.1 0-1.65-.55-.4-.45-.4-1.15v-6.55H-8.8l-1.7-1.1-1.75-3.9v-2.4h.15v-1.5l.45-.4.2-.15 1.15-1.4-1.25-1-.7.95.4-10.95 1.75-12.8.4.35.75-.7-1-1.1q-1.45-1.85-1.5-4v-.25l.05-.9q.35-2.3 2.45-4.25l-.75-.75.5-3.95.65.3 3.85-8.6 3.85 8.6L.4-60m5.45 8.85v-3.6h3.5v8.15H4.4l.05-.05.5-.9.9-3.55v-.05m-.35 13.2Q4.45-39 2.25-39l-4 .75-3.1.9.65 1.6L-.9-37l3-.6q1.55 0 2.15.6.8.8.8 2 0 1.1-.75 1.85Q3.25-32.1.25-31.9l-1.3.05.35 1.5q3.95-.05 5.9-1.55l.4-.35q1-1 1-2.85 0-1.8-1.1-2.85M-7.15-43.6l.75-1.55v-1.35h-1.5v1.45h.55l-.55 1.45h.75m3.65-2.9H-5v1.45h.55L-5-43.6h.75l.75-1.55v-1.35"
         fill="#fff"
         fill-rule="evenodd"
         transform="translate(21.5 71)"
         id="path1-6" /><path
         d="M10.75-56.05v9.45h1.2v3.25h-1.4v-1.95h-7.2v1.95H2v-3.25h.95L4-48.65l.45-2.45.05-1.1v-3.85h6.25M.4-60l-1.25.55-3.85-8.6-3.85 8.6-.65-.3-.55-.25 5.05-11L.4-60m-10.1 4.2.75.75q-2.1 1.95-2.45 4.25l-.05.9v.25q.05 2.15 1.5 4l1 1.1-.75.7-.4-.35-.6-.7-.75-1.05q-1.1-1.75-1.05-3.85l.05-1q.2-1.5 1-2.85l1.75-2.15m-2.55 35.35.7-.95 1.25 1-1.15 1.4-.2.15-.45.4q-.7.45-1.6.45-.95 0-2.65-1.1-1.2-.65-1.9-.65-.9 0-1.3.55l-.15.2-.45.75-1.35-.75q.4-.95 1.2-1.65l.6-.45 1.35-.35q1.1 0 2.25.8 1.65.85 2.55.85.6 0 1.3-.65m3.45 10.9h1.55V-3q0 .7.4 1.15.55.55 1.65.55 1.05 0 1.6-.55.45-.45.45-1.15v-6.55h1.5v6.6q0 1.25-.8 2.05-.9.9-2.75.9Q-7.1 0-8-.9q-.8-.8-.8-2.05v-6.6m16.95-1.5V-12h6.6q.7 0 1.15-.45.55-.55.55-1.6 0-1.1-.55-1.65l-1.15-.4h-6.6v-1.55h6.65q1.25 0 2.05.8.9.9.9 2.8 0 1.85-.9 2.75l-.3.25q-.75.55-1.75.55H8.15v-.55m6.1-19.35-1.5.05-.35-1.5 1.25-.05q3.05-.2 4.1-1.25.75-.75.75-1.85 0-1.2-.8-2-.6-.6-2.15-.6l-3 .6-3.35 1.25-.65-1.6 3.15-.9 3.25-.7.75-.05q2.2 0 3.25 1.05 1.1 1.05 1.1 2.85 0 1.85-1 2.85l-.4.35q-1.6 1.2-4.4 1.5m4.25-14.45-.1-.1 1.4-1.7.25-.45q.8-1.45.8-3.1l-.05-.6q-.2-2.5-2.3-4.55l-.1-.1.35-.4h.05l.3-.35q2.55 2.35 2.75 5.4l.05.6q0 1.9-.9 3.55-.7 1.25-1.9 2.4l-.6-.6M14.5-60l-1.25.55-3.9-8.6-3.85 8.6L4.3-60l5.05-11 5.15 11m-8.65 8.85v.05l-.9 3.55-.5.9-.05.05h4.95v-8.15h-3.5v3.6m-.35 13.2q1.1 1.05 1.1 2.85 0 1.85-1 2.85l-.4.35q-1.95 1.5-5.9 1.55l-.35-1.5 1.3-.05q3-.2 4.05-1.25.75-.75.75-1.85 0-1.2-.8-2-.6-.6-2.15-.6l-3 .6-3.3 1.25-.65-1.6 3.1-.9 4-.75q2.2 0 3.25 1.05m-9-8.55v1.35l-.75 1.55H-5l.55-1.45H-5v-1.45h1.5m-3.65 2.9h-.75l.55-1.45h-.55v-1.45h1.5v1.35l-.75 1.55"
         fill-rule="evenodd"
         transform="translate(21.5 71)"
         id="path2-0" /><path
         d="M4.3-60H.4m12.3 39.65v-6.05m6.05-29.45-1.1-1.1"
         fill="none"
         stroke="#000"
         stroke-linecap="round"
         stroke-linejoin="round"
         transform="translate(21.5 71)"
         id="path3-2" /></g><g
       id="d-8"
       transform="translate(.8)"><use
         height="3"
         transform="matrix(1.005 0 0 1 -.804 0)"
         width="4.65"
         xlink:href="#a-9"
         id="use3-0" /><use
         height="3"
         transform="matrix(1.005 0 0 1 16.096 0)"
         width="4.65"
         xlink:href="#a-9"
         id="use4-4" /></g><path
       d="M1.35 0h.2l.55.1.45.35q.45.45.45 1L2.55 2.6q-.45.4-1 .4l-.8-.2-.25-.2-.45-.7v-.15L0 1.45v-.1q.05-.5.5-.9l.25-.2Q1 .05 1.3 0h.05m.45.85L1.55.8Q1.2.75 1 1q-.2.15-.2.45v.15l.15.45H1l.05.05.2.1.3.05.55-.2.15-.6-.05-.3L2.1 1 2.05.95 1.9.85h-.1"
       fill-rule="evenodd"
       id="b-7" /><use
       height="3"
       transform="translate(.8)"
       width="3"
       xlink:href="#b-7"
       id="a-9" /><path
       d="M1.35 0h.2l.55.1.45.35q.45.45.45 1L2.55 2.6q-.45.4-1 .4l-.8-.2-.25-.2-.45-.7v-.15L0 1.45v-.1q.05-.5.5-.9l.25-.2Q1 .05 1.3 0h.05m.45.85L1.55.8Q1.2.75 1 1q-.2.15-.2.45v.15l.15.45H1l.05.05.2.1.3.05.55-.2.15-.6-.05-.3L2.1 1 2.05.95 1.9.85h-.1"
       fill-rule="evenodd"
       id="a-3" /><use
       height="3"
       transform="translate(.8)"
       width="3"
       xlink:href="#a-3"
       id="c-5" /><g
       id="b-8"><path
         d="M.25-60h3.9l1.2.55 3.85-8.6 3.85 8.6L14.3-60l3.15 3.05 1.15 1.1-.4.4.1.1q2.1 2.05 2.35 4.55v.6q0 1.65-.8 3.1l-.25.45-1.4 1.7.1.1-.3.3-3.25.9v4.7l-3.25.7-3.1.9.65 1.6 3.3-1.25 3-.6q1.55 0 2.15.6.8.8.8 2 0 1.1-.75 1.85-1.05 1.05-4.05 1.25l-1.3.05.35 1.5 1.5-.05-.05 2.75-1.5 1.25v12.25l-.85 4.6h-1.5V-3q0 .7-.45 1.15-.55.55-1.6.55-1.1 0-1.65-.55-.4-.45-.4-1.15v-6.55H4.5l-2.35-3.5H.4l-3.55 3.5V-3q0 .7-.45 1.15-.55.55-1.6.55-1.1 0-1.65-.55-.4-.45-.4-1.15v-6.55H-8.8l-1.7-1.1-1.75-3.9v-3.9l.45-.4q.75-.6 1.35-1.55l-1.25-1q-.4.65-.7.95l.4-10.95 1.75-12.8.4.35.75-.7-1-1.1q-1.5-1.9-1.5-4.15l.1-1q.35-2.3 2.4-4.25l-.75-.75.5-3.95.65.3 3.85-8.6 3.85 8.6L.25-60m17.2 3.05 1.15 1.1-1.15-1.1M13.1-43.6l.75-1.55v-1.35h-1.5v1.45h.55l-.55 1.45h.75m-2.9 0 .75-1.55v-1.35h-1.5v1.45H10l-.55 1.45h.75"
         fill="#fff"
         fill-rule="evenodd"
         transform="translate(21.65 71)"
         id="path1-8" /><path
         d="m.25-60-1.25.55-3.85-8.6-3.85 8.6-.65-.3-.55-.25 5.05-11 5.1 11m-10.1 4.2.75.75q-2.05 1.95-2.4 4.25l-.1 1q0 2.25 1.5 4.15l1 1.1-.75.7-.4-.35-.6-.7q-1.8-2.2-1.8-4.9l.1-1q.3-2.8 2.7-5m-2.55 35.35q.3-.3.7-.95l1.25 1q-.6.95-1.35 1.55l-.45.4q-.7.45-1.6.45-.95 0-2.65-1.1-1.15-.65-1.9-.65-.85 0-1.3.55l-.6.95-1.35-.75 1.2-1.65q.85-.8 1.95-.8t2.25.8q1.65.85 2.55.85.65 0 1.3-.65m3.6 10.9h1.55V-3q0 .7.4 1.15.55.55 1.65.55 1.05 0 1.6-.55.45-.45.45-1.15v-6.55h1.5v6.6q0 1.25-.8 2.05-.9.9-2.75.9Q-7.1 0-8-.9q-.8-.8-.8-2.05v-6.6m13.3 0h1.55V-3q0 .7.4 1.15.55.55 1.65.55 1.05 0 1.6-.55.45-.45.45-1.15v-6.55h1.5v6.6q0 1.25-.8 2.05-.9.9-2.75.9-1.9 0-2.8-.9-.8-.8-.8-2.05v-6.6m9.55-20.85-1.5.05-.35-1.5 1.3-.05q3-.2 4.05-1.25.75-.75.75-1.85 0-1.2-.8-2-.6-.6-2.15-.6l-3 .6-3.3 1.25-.65-1.6 3.1-.9 3.25-.7.75-.05q2.2 0 3.25 1.05 1.1 1.05 1.1 2.85 0 1.85-1 2.85l-.4.35q-1.55 1.2-4.4 1.5m4.25-14.45-.1-.1 1.4-1.7.25-.45q.8-1.45.8-3.1v-.6q-.25-2.5-2.35-4.55l-.1-.1.4-.4.3-.35q2.55 2.35 2.8 5.4v.6q0 1.9-.9 3.55-.7 1.25-1.9 2.4l-.6-.6M14.3-60l-1.25.55-3.85-8.6-3.85 8.6-1.2-.55L9.2-71l5.1 11m-4.1 16.4h-.75l.55-1.45h-.55v-1.45h1.5v1.35l-.75 1.55m2.9 0h-.75l.55-1.45h-.55v-1.45h1.5v1.35l-.75 1.55"
         fill-rule="evenodd"
         transform="translate(21.65 71)"
         id="path2-2" /><path
         d="M4.15-60H.25M12.5-14.15V-26.4m6.1-29.45-1.15-1.1"
         fill="none"
         stroke="#000"
         stroke-linecap="round"
         stroke-linejoin="round"
         transform="translate(21.65 71)"
         id="path3-1" /></g></defs><g
     transform="matrix(2,0,0,2,79.519,142)"
     id="g4"><use
       height="71"
       transform="translate(-21.65,-71)"
       width="43.349998"
       xlink:href="#b-8"
       id="use3-5" /><use
       height="3"
       transform="translate(13.35,-56.7)"
       width="4.6500001"
       xlink:href="#c-5"
       id="use4-0" /></g><path
     style="fill:#000000;stroke:#000000;stroke-width:3;stroke-dasharray:none"
     d="m 55.965344,108.0518 c 11.724086,0.90461 18.218132,0.6025 23.847143,0.75019 8.278189,0.21719 14.279209,-0.002 25.250893,-0.73169"
     id="path10"
     sodipodi:nodetypes="csc" /><path
     style="fill:#000000;stroke:#000000;stroke-width:3.02362;stroke-dasharray:none"
     d="m 58.269495,56.742756 c 6.766312,3.2955 13.745041,4.027206 20.723707,4.759656"
     id="path18" /><path
     style="fill:#000000;stroke:#000000;stroke-width:6.3;stroke-dasharray:none"
     d="m 56.539965,66.022589 c 3.181871,1.237142 14.02383,2.759975 22.459804,3.60789 4.584465,0.460793 10.658223,0.932208 15.170363,0.998006 2.615889,0.03815 4.623926,-0.184517 5.728341,-0.301025"
     id="path18-3"
     sodipodi:nodetypes="cssc" /><path
     style="fill:#000000;stroke:#000000;stroke-width:3.02362;stroke-dasharray:none"
     d="m 78.45834,61.446804 c 8.632034,0.78657 17.17022,0.44696 25.69946,0"
     id="path20"
     sodipodi:nodetypes="cc" /><path
     style="fill:#000000;stroke:#000000;stroke-width:6.3;stroke-dasharray:none"
     d="m 56.040908,79.994153 c 5.569466,1.611965 10.480136,3.173901 17.745414,3.461766"
     id="path18-3-0-0"
     sodipodi:nodetypes="cc" /><path
     style="fill:#000000;stroke:#000000;stroke-width:6.3;stroke-linejoin:round;stroke-dasharray:none"
     d="m 55.442479,92.863463 c 5.656738,2.119775 9.660029,2.857186 16.972095,3.997486"
     id="path18-3-0-0-0"
     sodipodi:nodetypes="cc" /><path
     style="fill:#000000;stroke:#000000;stroke-width:6.38071;stroke-dasharray:none"
     d="m 72.932702,83.452686 c 0.977907,0.01644 1.931656,0.139854 2.90483,0.199287 0.86634,0.05291 1.752661,0.04136 2.614338,0.07087 10.414805,0.356724 20.457606,-0.108109 29.36986,-0.27016"
     id="path20-9-2-6"
     sodipodi:nodetypes="cssc" /><path
     style="fill:#000000;stroke:#000000;stroke-width:6.3;stroke-dasharray:none"
     d="m 71.425761,96.701259 c 6.668193,1.123428 22.604696,0 33.907049,0"
     id="path20-9-2-6-1"
     sodipodi:nodetypes="cc" /><path
     style="fill:#000000;stroke:#000000;stroke-width:3.02362205;stroke-dasharray:none"
     d="m 100.38357,67.90231 c -0.17841,4.899543 0.2332,7.987494 2.50803,11.756404"
     id="path22-1-6"
     sodipodi:nodetypes="cc" /><circle
     id="path222"
     style="fill:#000000;stroke:#000000"
     cx="59.485359"
     cy="56.347572"
     r="0.016836919" /><path
     style="fill:#000000;fill-rule:evenodd;stroke:#000000;stroke-width:3.024;stroke-linejoin:miter;stroke-dasharray:none;stroke-dashoffset:0;stroke-opacity:1"
     d="M 56.1875,77.1875 55.25,95.625"
     id="path224"
     inkscape:path-effect="#path-effect224"
     inkscape:original-d="M 56.1875,77.1875 55.25,95.625"
     transform="matrix(0.93643669,0,0,1.8122454,3.5416683,-63.855733)" /><path
     style="fill:#000000;fill-rule:evenodd;stroke:#000000;stroke-width:3.024;stroke-linejoin:miter;stroke-dasharray:none;stroke-dashoffset:0;stroke-opacity:1"
     d="M 56.038212,76.809474 57.452426,64.346717"
     id="path225"
     inkscape:path-effect="#path-effect225"
     inkscape:original-d="M 56.038212,76.809474 C 52.331418,72.883958 51.2209,68.771791 57.452426,64.346717"
     sodipodi:nodetypes="cc"
     transform="matrix(0.99824137,-0.01501554,0.01523244,1.012661,-0.97528282,0.03659751)" /><path
     style="fill:#000000;fill-rule:evenodd;stroke:#000000;stroke-width:3.024;stroke-linejoin:miter;stroke-dasharray:none;stroke-dashoffset:0;stroke-opacity:1"
     d="m 59.990989,55.759183 c -0.610028,0.793508 -1.109184,1.672127 -1.478465,2.602407 -0.236987,0.597011 -0.420334,1.213904 -0.58817,1.833918 -0.348453,1.287242 -0.631465,2.592197 -0.847578,3.908141"
     id="path226"
     inkscape:path-effect="#path-effect226"
     inkscape:original-d="m 59.990989,55.759183 c -2.051185,0.230036 -1.519402,1.628694 -1.478465,2.602407 0.05143,1.223392 -4.717827,0.266589 -0.58817,1.833918 1.490827,0.565814 -3.079001,0.911204 -0.847578,3.908141"
     sodipodi:nodetypes="cssc"
     transform="translate(0.25222087,0.47097087)" /><path
     style="fill:#000000;fill-rule:evenodd;stroke:#000000;stroke-width:3.024;stroke-linejoin:miter;stroke-dasharray:none;stroke-dashoffset:0;stroke-opacity:1"
     d="m 103.875,61.46875 5.37814,-0.140109"
     id="path233"
     sodipodi:nodetypes="cc" /><ellipse
     style="fill:none;fill-rule:evenodd;stroke:#333333;stroke-width:0.958;stroke-linejoin:miter;stroke-dasharray:none;stroke-dashoffset:0;stroke-opacity:1"
     id="path254"
     cx="-74.306679"
     cy="-136.00705"
     rx="1.7926975"
     ry="0.83689374"
     transform="rotate(175.59676)" /><ellipse
     style="fill:none;fill-rule:evenodd;stroke:#333333;stroke-width:0.958;stroke-linejoin:miter;stroke-dasharray:none;stroke-dashoffset:0;stroke-opacity:1"
     id="path254-7"
     cx="71.130005"
     cy="137.85503"
     rx="1.7926975"
     ry="0.83689374"
     transform="matrix(-0.52244181,0.85267494,0.85267494,0.52244181,0,0)" /><ellipse
     style="fill:none;fill-rule:evenodd;stroke:#333333;stroke-width:0.958;stroke-linejoin:miter;stroke-dasharray:none;stroke-dashoffset:0;stroke-opacity:1"
     id="path254-6"
     cx="81.694298"
     cy="131.73949"
     rx="1.7926975"
     ry="0.83689374"
     transform="rotate(3.5347924)" /><ellipse
     style="fill:none;fill-rule:evenodd;stroke:#333333;stroke-width:0.928116;stroke-linejoin:miter;stroke-dasharray:none;stroke-dashoffset:0;stroke-opacity:1"
     id="path254-6-3-6"
     cx="60.840096"
     cy="146.16299"
     rx="1.5604677"
     ry="0.80868751"
     transform="matrix(0.98964263,-0.143553,0.12138173,0.9926059,0,0)" /><rect
     style="fill:none;fill-rule:evenodd;stroke:#333333;stroke-width:0.662902;stroke-linejoin:miter;stroke-dasharray:none;stroke-dashoffset:0;stroke-opacity:1"
     id="rect254-5"
     width="3.3093092"
     height="0.084419861"
     x="-43.074924"
     y="159.64153"
     ry="0.042209931"
     transform="matrix(0.84060369,-0.54165065,0.73436969,0.6787497,0,0)" /><rect
     style="fill:none;fill-rule:evenodd;stroke:#333333;stroke-width:0.655659;stroke-linejoin:miter;stroke-dasharray:none;stroke-dashoffset:0;stroke-opacity:1"
     id="rect254-5-3"
     width="3.0911334"
     height="0.088413931"
     x="-84.220398"
     y="135.67108"
     ry="0.044206966"
     transform="matrix(0.49462734,-0.86910517,0.88594358,0.46379302,0,0)" /><rect
     style="fill:none;fill-rule:evenodd;stroke:#333333;stroke-width:0.726027;stroke-linejoin:miter;stroke-dasharray:none;stroke-dashoffset:0;stroke-opacity:1"
     id="rect254-5-3-1"
     width="2.6087058"
     height="0.12845872"
     x="76.830559"
     y="140.52425"
     ry="0.064229362"
     transform="matrix(0.99866461,-0.05166226,-0.01545292,0.9998806,0,0)" /><rect
     style="fill:#333333;fill-opacity:1;fill-rule:evenodd;stroke:#333333;stroke-width:0.858;stroke-linecap:butt;stroke-linejoin:miter;stroke-dasharray:none;stroke-dashoffset:0;stroke-opacity:1;paint-order:markers fill stroke"
     id="rect268"
     width="19"
     height="4.5"
     x="85.3125"
     y="127.5625"
     ry="1.71875" /><circle
     style="fill:#333333;fill-opacity:1;fill-rule:evenodd;stroke:#333333;stroke-width:0.617752;stroke-linecap:butt;stroke-linejoin:miter;stroke-dasharray:none;stroke-dashoffset:0;stroke-opacity:1;paint-order:markers fill stroke"
     id="path269"
     cx="66.63887"
     cy="135.36453"
     r="6.3956966" /></svg>
