<?xml version="1.0" encoding="UTF-8" standalone="no"?>
<svg
   height="182"
   width="160"
   version="1.1"
   id="svg4"
   sodipodi:docname="back-walking-2.svg"
   xml:space="preserve"
   inkscape:version="1.4.2 (ebf0e94, 2025-05-08)"
   xmlns:inkscape="http://www.inkscape.org/namespaces/inkscape"
   xmlns:sodipodi="http://sodipodi.sourceforge.net/DTD/sodipodi-0.dtd"
   xmlns:xlink="http://www.w3.org/1999/xlink"
   xmlns="http://www.w3.org/2000/svg"
   xmlns:svg="http://www.w3.org/2000/svg"><sodipodi:namedview
     id="namedview4"
     pagecolor="#ffffff"
     bordercolor="#000000"
     borderopacity="0.25"
     inkscape:showpageshadow="2"
     inkscape:pageopacity="0.0"
     inkscape:pagecheckerboard="0"
     inkscape:deskcolor="#d1d1d1"
     inkscape:zoom="4.6318681"
     inkscape:cx="80.097272"
     inkscape:cy="91"
     inkscape:window-width="1920"
     inkscape:window-height="1052"
     inkscape:window-x="1920"
     inkscape:window-y="0"
     inkscape:window-maximized="1"
     inkscape:current-layer="svg4" /><defs
     id="defs3"><path
       d="M1.35 0h.2l.55.1.45.35q.45.45.45 1L2.55 2.6q-.45.4-1 .4l-.8-.2-.25-.2-.45-.7v-.15L0 1.45v-.1q.05-.5.5-.9l.25-.2Q1 .05 1.3 0h.05m.45.85L1.55.8Q1.2.75 1 1q-.2.15-.2.45v.15l.15.45H1l.05.05.2.1.3.05.55-.2.15-.6-.05-.3L2.1 1 2.05.95 1.9.85h-.1"
       fill-rule="evenodd"
       id="a" /><use
       height="3"
       transform="translate(.8)"
       width="3"
       xlink:href="#a"
       id="c" /><g
       id="b"><path
         d="M.25-60h3.9l1.2.55 3.85-8.6 3.85 8.6L14.3-60l3.15 3.05 1.15 1.1-.4.4.1.1q2.1 2.05 2.35 4.55v.6q0 1.65-.8 3.1l-.25.45-1.4 1.7.1.1-.3.3-3.25.9v4.7l-3.25.7-3.1.9.65 1.6 3.3-1.25 3-.6q1.55 0 2.15.6.8.8.8 2 0 1.1-.75 1.85-1.05 1.05-4.05 1.25l-1.3.05.35 1.5 1.5-.05-.05 2.75-1.5 1.25v12.25l-.85 4.6h-1.5V-3q0 .7-.45 1.15-.55.55-1.6.55-1.1 0-1.65-.55-.4-.45-.4-1.15v-6.55H4.5l-2.35-3.5H.4l-3.55 3.5V-3q0 .7-.45 1.15-.55.55-1.6.55-1.1 0-1.65-.55-.4-.45-.4-1.15v-6.55H-8.8l-1.7-1.1-1.75-3.9v-3.9l.45-.4q.75-.6 1.35-1.55l-1.25-1q-.4.65-.7.95l.4-10.95 1.75-12.8.4.35.75-.7-1-1.1q-1.5-1.9-1.5-4.15l.1-1q.35-2.3 2.4-4.25l-.75-.75.5-3.95.65.3 3.85-8.6 3.85 8.6L.25-60m17.2 3.05 1.15 1.1-1.15-1.1M13.1-43.6l.75-1.55v-1.35h-1.5v1.45h.55l-.55 1.45h.75m-2.9 0 .75-1.55v-1.35h-1.5v1.45H10l-.55 1.45h.75"
         fill="#fff"
         fill-rule="evenodd"
         transform="translate(21.65 71)"
         id="path1" /><path
         d="m.25-60-1.25.55-3.85-8.6-3.85 8.6-.65-.3-.55-.25 5.05-11 5.1 11m-10.1 4.2.75.75q-2.05 1.95-2.4 4.25l-.1 1q0 2.25 1.5 4.15l1 1.1-.75.7-.4-.35-.6-.7q-1.8-2.2-1.8-4.9l.1-1q.3-2.8 2.7-5m-2.55 35.35q.3-.3.7-.95l1.25 1q-.6.95-1.35 1.55l-.45.4q-.7.45-1.6.45-.95 0-2.65-1.1-1.15-.65-1.9-.65-.85 0-1.3.55l-.6.95-1.35-.75 1.2-1.65q.85-.8 1.95-.8t2.25.8q1.65.85 2.55.85.65 0 1.3-.65m3.6 10.9h1.55V-3q0 .7.4 1.15.55.55 1.65.55 1.05 0 1.6-.55.45-.45.45-1.15v-6.55h1.5v6.6q0 1.25-.8 2.05-.9.9-2.75.9Q-7.1 0-8-.9q-.8-.8-.8-2.05v-6.6m13.3 0h1.55V-3q0 .7.4 1.15.55.55 1.65.55 1.05 0 1.6-.55.45-.45.45-1.15v-6.55h1.5v6.6q0 1.25-.8 2.05-.9.9-2.75.9-1.9 0-2.8-.9-.8-.8-.8-2.05v-6.6m9.55-20.85-1.5.05-.35-1.5 1.3-.05q3-.2 4.05-1.25.75-.75.75-1.85 0-1.2-.8-2-.6-.6-2.15-.6l-3 .6-3.3 1.25-.65-1.6 3.1-.9 3.25-.7.75-.05q2.2 0 3.25 1.05 1.1 1.05 1.1 2.85 0 1.85-1 2.85l-.4.35q-1.55 1.2-4.4 1.5m4.25-14.45-.1-.1 1.4-1.7.25-.45q.8-1.45.8-3.1v-.6q-.25-2.5-2.35-4.55l-.1-.1.4-.4.3-.35q2.55 2.35 2.8 5.4v.6q0 1.9-.9 3.55-.7 1.25-1.9 2.4l-.6-.6M14.3-60l-1.25.55-3.85-8.6-3.85 8.6-1.2-.55L9.2-71l5.1 11m-4.1 16.4h-.75l.55-1.45h-.55v-1.45h1.5v1.35l-.75 1.55m2.9 0h-.75l.55-1.45h-.55v-1.45h1.5v1.35l-.75 1.55"
         fill-rule="evenodd"
         transform="translate(21.65 71)"
         id="path2" /><path
         d="M4.15-60H.25M12.5-14.15V-26.4m6.1-29.45-1.15-1.1"
         fill="none"
         stroke="#000"
         stroke-linecap="round"
         stroke-linejoin="round"
         transform="translate(21.65 71)"
         id="path3" /></g><g
       id="shape0"
       transform="matrix(1.0, 0.0, 0.0, 1.0, 17.4, 67.3)"><path
         d="M11.65 -62.95 L11.7 -62.65 11.65 -62.7 11.65 -62.95 M6.85 -1.75 Q6.45 -1.35 5.7 -1.0 L5.5 -1.1 5.55 -1.15 6.5 -1.7 6.6 -1.8 6.65 -1.75 6.85 -1.75 M3.8 -1.35 L2.85 -0.45 2.75 -1.4 2.8 -2.2 3.15 -1.85 3.8 -1.35 M-5.2 -1.0 L-6.0 -0.1 -7.3 -1.25 Q-6.7 -1.05 -6.0 -1.25 -5.65 -1.05 -5.2 -1.0 M-8.25 -1.9 L-8.95 -2.3 -8.85 -2.65 -8.45 -2.15 -8.25 -1.9 M-12.95 -57.0 L-13.1 -57.2 -13.15 -57.25 -13.15 -57.35 -12.95 -58.4 -12.8 -57.2 -12.95 -57.0 M-13.0 -60.75 L-13.3 -61.8 -12.85 -64.2 -12.1 -65.9 -11.75 -65.65 Q-12.3 -65.35 -12.45 -64.65 L-12.7 -63.55 -12.8 -62.5 -13.0 -60.75 M-7.55 -63.45 L-6.4 -62.7 -6.1 -62.05 -7.55 -63.45"
         fill="#e7e0dc"
         fill-rule="evenodd"
         stroke="none"
         id="path3-3" /><path
         d="M11.65 -62.95 L11.65 -62.7 11.7 -62.65 11.8 -62.6 11.85 -62.5 11.9 -62.0 12.25 -61.2 Q12.0 -60.35 12.3 -59.45 11.75 -58.75 12.05 -57.8 L12.0 -57.15 12.6 -56.95 12.65 -56.9 Q13.85 -56.55 14.55 -55.35 L14.6 -55.1 14.6 -55.05 14.75 -54.95 14.85 -54.7 14.85 -54.45 15.65 -53.7 Q16.2 -53.2 16.95 -52.85 16.85 -51.55 17.45 -49.9 15.9 -47.75 15.5 -45.05 13.5 -43.0 14.4 -40.15 L14.3 -38.65 Q14.0 -31.0 15.55 -23.85 15.35 -23.05 15.4 -22.15 L15.35 -19.75 15.15 -19.45 15.0 -17.5 14.65 -16.35 14.25 -15.65 14.25 -14.95 13.95 -14.2 13.8 -12.85 Q11.9 -11.95 11.75 -9.9 L11.7 -9.85 Q6.5 -7.75 8.7 -4.55 L8.3 -3.3 7.55 -3.1 7.55 -2.95 7.45 -2.8 7.4 -2.7 7.35 -2.65 7.35 -2.4 7.35 -2.25 7.35 -2.1 7.3 -2.0 7.25 -1.95 7.15 -1.85 6.85 -1.75 6.65 -1.75 6.6 -1.8 6.5 -1.7 5.55 -1.15 5.5 -1.1 5.45 -1.05 4.9 -1.0 3.8 -1.35 3.15 -1.85 2.8 -2.2 Q2.25 -2.95 2.75 -3.55 2.5 -5.15 1.6 -6.45 L1.65 -6.65 Q1.85 -6.95 1.2 -7.25 L1.05 -7.2 0.45 -7.35 Q-0.35 -7.75 -0.6 -8.45 L-0.8 -8.2 Q-1.55 -7.35 -2.6 -7.1 -2.9 -7.05 -3.0 -7.35 L-3.0 -7.65 Q-4.15 -6.55 -3.8 -4.45 L-3.7 -4.2 -3.9 -3.5 -4.05 -2.7 Q-3.15 -2.5 -3.7 -1.45 -3.85 -1.15 -4.2 -1.1 L-5.2 -1.0 Q-5.65 -1.05 -6.0 -1.25 -6.7 -1.05 -7.3 -1.25 L-8.25 -1.9 -8.45 -2.15 -8.85 -2.65 -9.1 -3.5 -9.2 -5.0 -9.2 -5.95 -9.05 -6.65 Q-9.8 -8.55 -11.75 -9.65 -12.85 -11.5 -14.55 -12.9 L-14.6 -12.95 Q-15.85 -16.3 -15.9 -20.0 -15.95 -22.3 -16.7 -24.15 L-16.4 -26.9 Q-15.95 -30.15 -16.15 -33.15 -15.1 -34.2 -14.55 -35.9 L-14.45 -36.25 -13.6 -39.6 Q-12.75 -43.2 -16.0 -44.0 L-16.4 -44.4 -16.65 -45.2 -17.05 -46.7 -17.15 -48.95 -16.85 -49.9 -15.15 -52.2 -15.05 -52.35 -15.15 -52.45 -14.9 -52.75 -13.9 -54.3 -12.8 -55.65 -12.6 -56.15 -12.75 -56.55 -12.8 -56.65 -12.95 -57.0 -12.8 -57.2 -12.95 -58.4 -13.0 -60.75 -12.8 -62.5 -12.7 -63.55 -12.45 -64.65 Q-12.15 -65.4 -11.2 -65.55 -9.3 -65.05 -7.8 -63.65 L-7.55 -63.45 -6.1 -62.05 -5.4 -61.35 Q-4.65 -60.65 -4.25 -59.8 -3.85 -59.55 -3.75 -59.0 -2.7 -58.15 -1.7 -58.55 -0.8 -58.25 0.0 -58.8 1.45 -58.6 2.55 -59.4 L2.6 -59.45 Q2.8 -59.7 2.65 -59.95 L2.7 -59.95 3.25 -60.8 Q5.1 -62.1 6.35 -64.5 L6.45 -64.7 6.6 -64.8 8.3 -65.7 9.35 -66.55 11.9 -66.95 Q11.55 -65.5 11.55 -64.25 L11.65 -63.4 11.65 -62.95"
         fill="url(#gradient0)"
         fill-rule="evenodd"
         stroke="none"
         id="path4" /><path
         d="M-10.05 -9.6 L-10.05 -2.95 Q-10.05 -1.75 -9.25 -0.9 -8.35 -0.05 -6.45 0.0 -4.55 -0.05 -3.65 -0.9 -2.85 -1.75 -2.85 -2.95 L-2.85 -9.6 -4.4 -9.6 -4.4 -3.0 Q-4.4 -2.3 -4.8 -1.85 -5.35 -1.35 -6.45 -1.3 -7.5 -1.35 -8.1 -1.85 -8.55 -2.3 -8.55 -3.0 L-8.55 -9.6 -10.05 -9.6"
         fill="#4f1d17"
         fill-rule="evenodd"
         stroke="none"
         id="path5" /><path
         d="M1.55 -9.65 L3.05 -9.65 3.05 -3.05 Q3.05 -2.35 3.5 -1.9 4.05 -1.35 5.1 -1.35 6.15 -1.35 6.7 -1.9 7.1 -2.35 7.1 -3.05 L7.1 -9.65 8.65 -9.65 8.65 -3.0 Q8.65 -1.75 7.85 -0.95 6.95 -0.05 5.1 -0.05 3.25 -0.05 2.35 -0.95 1.55 -1.75 1.55 -3.0 L1.55 -9.65"
         fill="#4f1d17"
         fill-rule="evenodd"
         stroke="none"
         id="path6" /><path
         d="M2.0 -58.6 L1.0 -58.65 -0.25 -58.7 -1.4 -58.7 -3.55 -58.4 Q-4.15 -59.95 -5.7 -61.6 -7.25 -63.25 -8.55 -64.1 -9.9 -65.0 -11.2 -65.6 -12.5 -66.2 -12.65 -64.55 L-13.0 -60.95 Q-13.2 -59.05 -12.6 -56.05 M2.25 -58.65 Q3.2 -61.0 4.75 -62.65 L7.6 -65.15 10.2 -66.65 Q11.5 -67.25 11.7 -65.6 L12.05 -62.0 Q12.2 -60.1 11.65 -57.1 M14.15 -41.25 Q13.9 -36.4 14.0 -32.65 14.1 -28.8 14.85 -25.15 15.6 -21.55 15.05 -17.7 14.4 -13.95 12.15 -10.8 L9.85 -8.75 8.7 -8.2 M-13.25 -40.2 Q-14.6 -37.75 -15.3 -35.15 -16.3 -31.5 -16.3 -27.55 L-15.85 -19.25 Q-15.4 -14.9 -13.7 -11.9 -12.05 -8.95 -8.9 -7.35"
         fill="none"
         stroke="#4f1d17"
         stroke-linecap="round"
         stroke-linejoin="round"
         stroke-width="1.0"
         id="path7" /><path
         d="M14.8 -43.7 Q17.6 -46.3 17.6 -49.65 17.6 -53.05 14.8 -55.65 L14.1 -54.9 Q16.55 -52.55 16.55 -49.65 16.55 -46.8 14.1 -44.4 L14.8 -43.7"
         fill="#4f1d17"
         fill-rule="evenodd"
         stroke="none"
         id="path8" /><path
         d="M-14.6 -41.8 L-13.85 -42.5 Q-16.35 -44.9 -16.35 -47.75 -16.35 -50.65 -13.85 -53.0 L-14.6 -53.75 Q-17.4 -51.15 -17.4 -47.75 -17.4 -44.4 -14.6 -41.8"
         fill="#4f1d17"
         fill-rule="evenodd"
         stroke="none"
         id="path9" /><path
         d="M10.3 -42.8 L9.55 -41.25 8.8 -41.25 9.35 -42.7 8.8 -42.7 8.8 -44.15 10.3 -44.15 10.3 -42.8 M13.2 -42.8 L12.45 -41.25 11.7 -41.25 12.25 -42.7 11.7 -42.7 11.7 -44.15 13.2 -44.15 13.2 -42.8"
         fill="#e7e0dc"
         fill-rule="evenodd"
         stroke="none"
         id="path10" /></g><radialGradient
       cx="0"
       cy="0"
       gradientTransform="matrix(0.0501, 0.0, 0.0, 0.0501, -1.4, -41.2)"
       gradientUnits="userSpaceOnUse"
       id="gradient0"
       r="819.2"
       spreadMethod="pad"><stop
         offset="0.0"
         stop-color="#a4a4a4"
         id="stop10" /><stop
         offset="1.0"
         stop-color="#646464"
         id="stop11" /></radialGradient><g
       id="sprite0"
       transform="matrix(1.0, 0.0, 0.0, 1.0, 3.0, 1.25)"><use
         height="2.5"
         transform="matrix(1.0, 0.0, 0.0, 1.0, -2.4, -1.25)"
         width="4.8"
         xlink:href="#shape1"
         id="use11" /></g><g
       id="shape1"
       transform="matrix(1.0, 0.0, 0.0, 1.0, 2.4, 1.25)"><path
         d="M1.9 0.75 Q0.05 -0.4 -1.9 -0.75"
         fill="none"
         stroke="#4f1d17"
         stroke-linecap="round"
         stroke-linejoin="round"
         stroke-width="1.0"
         id="path11" /></g><g
       id="shape2"
       transform="matrix(1.0, 0.0, 0.0, 1.0, 16.2, 38.35)"><path
         d="M-12.15 -24.3 L-12.15 -24.15 -12.25 -22.65 -12.15 -24.3 M-12.3 -16.8 Q-11.75 -15.05 -10.4 -13.85 L-9.9 -13.45 -10.25 -13.65 Q-12.05 -14.8 -12.3 -16.8 M-9.65 -21.7 L-9.6 -22.9 Q-9.4 -24.8 -9.45 -26.8 L-9.45 -26.85 Q-9.1 -24.7 -9.4 -22.55 L-9.6 -21.9 -9.65 -21.7"
         fill="#e7e0dc"
         fill-rule="evenodd"
         stroke="none"
         id="path12" /><path
         d="M-12.95 -35.6 L-14.3 -35.85 -14.55 -35.8 -14.05 -35.95 -12.95 -35.6 M-14.65 -32.35 L-14.5 -32.1 -14.6 -32.3 -14.65 -32.35"
         fill="#58463f"
         fill-rule="evenodd"
         stroke="none"
         id="path13" /><path
         d="M-12.95 -35.6 L-12.75 -35.5 -12.45 -35.2 -11.75 -34.45 -11.75 -34.35 -11.7 -34.3 -11.7 -34.25 -11.55 -34.15 -11.5 -33.9 -11.4 -33.7 -11.35 -33.65 -11.25 -33.55 -11.25 -33.25 -11.25 -33.2 -11.05 -32.85 -10.85 -32.4 Q-10.3 -30.95 -10.0 -29.4 L-9.95 -29.2 -9.65 -27.9 -9.45 -26.85 -9.45 -26.8 Q-9.4 -24.8 -9.6 -22.9 L-9.65 -21.7 -9.7 -21.7 -9.85 -20.9 -9.9 -20.5 -9.75 -19.75 -9.75 -19.55 -9.45 -18.85 -9.1 -18.05 -9.05 -17.9 Q-8.6 -16.5 -7.35 -15.75 L-7.35 -15.9 -7.3 -15.95 -7.05 -16.0 -6.9 -15.7 Q-7.0 -14.55 -6.5 -13.95 L-6.05 -13.1 -5.65 -12.5 Q-5.15 -11.5 -5.4 -11.5 L-7.2 -12.15 Q-8.75 -12.8 -9.9 -13.45 L-10.4 -13.85 Q-11.75 -15.05 -12.3 -16.8 L-12.3 -17.0 -12.25 -22.25 -12.25 -22.65 -12.15 -24.15 -12.15 -24.3 Q-11.9 -26.0 -12.35 -27.65 L-12.55 -28.35 -12.75 -28.95 -13.3 -31.05 -13.4 -31.05 -13.5 -31.15 -13.7 -31.15 -14.0 -31.5 -14.35 -32.05 -14.5 -32.1 -14.65 -32.35 -14.65 -32.65 -15.05 -33.2 -15.15 -33.3 -15.55 -34.25 -15.45 -35.3 -15.4 -35.35 -14.55 -35.8 -14.3 -35.85 -12.95 -35.6"
         fill="url(#gradient1)"
         fill-rule="evenodd"
         stroke="none"
         id="path14" /><path
         d="M-12.95 -35.6 L-14.3 -35.85 -14.55 -35.8 Q-16.1 -35.7 -15.6 -34.45 L-15.55 -34.25 -15.15 -33.3 -14.65 -32.35 -14.5 -32.1 -13.95 -31.4 Q-13.15 -30.25 -12.75 -28.95 L-12.55 -28.35 -12.45 -27.9 Q-12.1 -26.1 -12.15 -24.3 L-12.15 -24.15 -12.25 -22.65 -12.5 -20.8 Q-12.9 -18.9 -12.35 -17.05 L-12.3 -16.8 Q-11.75 -15.05 -10.4 -13.85 L-9.9 -13.45 Q-8.75 -12.8 -7.2 -12.15 L-5.4 -11.5 M-9.65 -21.7 L-9.6 -22.9 Q-9.4 -24.8 -9.45 -26.8 L-9.45 -26.85 Q-9.5 -28.8 -10.0 -30.55 -10.5 -32.4 -11.4 -34.1 -12.0 -35.2 -12.95 -35.6 M-9.65 -21.7 Q-9.7 -20.35 -9.4 -19.1 -8.95 -17.3 -7.35 -15.9"
         fill="none"
         stroke="#4f1d17"
         stroke-linecap="round"
         stroke-linejoin="round"
         stroke-width="1.0"
         id="path15" /><path
         d="M11.65 -29.75 L11.6 -29.85 11.55 -30.0 11.25 -30.75 11.2 -30.85 11.15 -30.95 11.15 -31.0 11.0 -31.45 10.9 -31.95 10.85 -32.0 Q10.7 -32.15 10.8 -32.45 L10.85 -32.7 11.0 -34.4 Q11.3 -35.6 11.85 -36.4 L11.9 -36.45 12.0 -36.6 12.15 -36.75 12.2 -36.8 12.25 -36.85 12.45 -37.05 12.55 -37.15 12.95 -37.4 14.3 -37.6 14.9 -37.8 15.25 -37.8 16.4 -37.4 Q17.05 -36.85 17.2 -35.95 L17.25 -35.55 17.75 -35.35 Q18.55 -34.85 18.7 -34.0 18.85 -33.15 18.25 -32.4 L17.95 -32.05 18.25 -31.2 Q18.4 -30.35 17.85 -29.65 L17.25 -29.15 16.85 -28.9 16.5 -28.8 16.45 -28.8 15.6 -28.8 15.05 -29.0 14.9 -28.85 14.05 -28.5 12.85 -28.7 Q12.15 -29.05 11.65 -29.75"
         fill="url(#gradient2)"
         fill-rule="evenodd"
         stroke="none"
         id="path16" /><path
         d="M12.95 -37.4 L14.3 -37.6 14.9 -37.8 15.25 -37.8 16.4 -37.4 Q17.05 -36.85 17.2 -35.95 L17.25 -35.55 17.75 -35.35 Q18.55 -34.85 18.7 -34.0 18.85 -33.15 18.25 -32.4 L17.95 -32.05 18.25 -31.2 Q18.4 -30.35 17.85 -29.65 L17.25 -29.15 16.85 -28.9 16.5 -28.8 16.45 -28.8 15.6 -28.8 15.05 -29.0 14.9 -28.85 14.05 -28.5 12.85 -28.7 Q12.15 -29.05 11.65 -29.75"
         fill="none"
         stroke="#4f1d17"
         stroke-linecap="round"
         stroke-linejoin="round"
         stroke-width="1.0"
         id="path17" /></g><radialGradient
       cx="0"
       cy="0"
       gradientTransform="matrix(0.0303, 0.0, 0.0, 0.0303, -12.9, -34.6)"
       gradientUnits="userSpaceOnUse"
       id="gradient1"
       r="819.2"
       spreadMethod="pad"><stop
         offset="0.0"
         stop-color="#a4a4a4"
         id="stop17" /><stop
         offset="1.0"
         stop-color="#646464"
         id="stop18" /></radialGradient><radialGradient
       cx="0"
       cy="0"
       gradientTransform="matrix(0.0112, 0.0, 0.0, 0.0112, 15.45, -37.05)"
       gradientUnits="userSpaceOnUse"
       id="gradient2"
       r="819.2"
       spreadMethod="pad"><stop
         offset="0.0"
         stop-color="#a4a4a4"
         id="stop19" /><stop
         offset="1.0"
         stop-color="#646464"
         id="stop20" /></radialGradient><g
       id="shape0-6"
       transform="matrix(1.0, 0.0, 0.0, 1.0, 17.4, 67.3)"><path
         d="M0.45 -7.4 L0.35 -7.4 Q-0.35 -7.8 -0.6 -8.45 L-0.8 -8.2 -1.0 -8.0 Q-1.7 -7.3 -2.6 -7.1 -2.9 -7.05 -3.0 -7.35 L-3.0 -7.65 Q-4.15 -6.55 -3.8 -4.45 L-3.7 -4.2 -3.9 -3.5 -4.05 -2.7 Q-3.15 -2.5 -3.7 -1.45 -3.85 -1.15 -4.2 -1.1 L-5.2 -1.0 -6.0 -0.1 -7.3 -1.25 -8.25 -1.9 -8.95 -2.3 -8.85 -2.65 -9.1 -3.5 -9.2 -5.0 -9.2 -5.95 -9.05 -6.65 Q-9.8 -8.55 -11.75 -9.65 -12.85 -11.5 -14.55 -12.9 L-14.6 -12.95 Q-15.85 -16.3 -15.9 -20.0 -15.95 -22.3 -16.7 -24.15 L-16.4 -26.9 Q-15.95 -30.15 -16.15 -33.15 -15.1 -34.2 -14.55 -35.9 L-14.45 -36.25 -13.6 -39.6 Q-12.75 -43.2 -16.0 -44.0 L-16.4 -44.4 -16.65 -45.2 -17.05 -46.7 -17.15 -48.95 -16.85 -49.9 -15.15 -52.2 -15.05 -52.35 -15.15 -52.45 -14.9 -52.75 -13.9 -54.3 -12.8 -55.65 -12.6 -56.15 -12.75 -56.55 -12.8 -56.65 -12.95 -57.0 -13.1 -57.2 -13.15 -57.25 -13.15 -57.35 -12.95 -58.4 -13.0 -60.75 -13.3 -61.8 -12.85 -64.2 -12.1 -65.9 -11.75 -65.65 Q-12.3 -65.35 -12.45 -64.65 -12.15 -65.4 -11.2 -65.55 -9.3 -65.05 -7.8 -63.65 L-7.55 -63.45 -6.4 -62.7 -6.1 -62.05 -5.4 -61.35 Q-4.65 -60.65 -4.25 -59.8 -3.85 -59.55 -3.75 -59.0 -2.7 -58.15 -1.7 -58.55 -0.8 -58.25 0.0 -58.8 1.45 -58.6 2.55 -59.4 L2.6 -59.45 Q2.8 -59.7 2.65 -59.95 L2.7 -59.95 3.25 -60.8 Q5.1 -62.1 6.35 -64.5 L6.45 -64.7 6.6 -64.8 8.3 -65.7 9.35 -66.55 11.9 -66.95 Q11.55 -65.5 11.55 -64.25 L11.65 -63.4 11.65 -62.95 11.7 -62.65 11.8 -62.6 11.85 -62.5 11.9 -62.0 12.25 -61.2 Q12.0 -60.35 12.3 -59.45 11.75 -58.75 12.05 -57.8 L12.0 -57.15 12.6 -56.95 12.65 -56.9 Q13.85 -56.55 14.55 -55.35 L14.6 -55.1 14.6 -55.05 14.75 -54.95 14.85 -54.7 14.85 -54.45 15.65 -53.7 Q16.2 -53.2 16.95 -52.85 16.85 -51.55 17.45 -49.9 15.9 -47.75 15.5 -45.05 13.5 -43.0 14.4 -40.15 L14.3 -38.65 Q14.0 -31.0 15.55 -23.85 15.35 -23.05 15.4 -22.15 L15.35 -19.75 15.15 -19.45 15.0 -17.5 14.65 -16.35 14.25 -15.65 14.25 -14.95 13.95 -14.2 13.9 -13.75 13.9 -13.8 13.8 -13.85 13.65 -13.95 13.5 -13.9 13.05 -12.95 13.1 -12.8 Q13.5 -13.3 13.5 -13.7 L13.65 -13.75 13.8 -13.65 13.9 -13.6 13.95 -13.55 14.2 -13.55 14.35 -13.55 14.5 -13.55 14.6 -13.5 14.65 -13.45 14.75 -13.35 14.85 -13.05 14.85 -12.85 14.8 -12.75 14.9 -12.7 15.45 -11.7 15.5 -11.65 15.55 -11.6 15.6 -11.05 15.25 -10.0 14.75 -9.3 14.4 -9.0 13.05 -8.9 12.95 -9.0 12.1 -8.85 10.4 -9.05 10.25 -9.15 10.35 -9.2 9.75 -8.85 9.65 -8.8 9.05 -8.3 8.95 -8.25 8.6 -7.85 6.65 -7.1 6.55 -7.05 6.45 -7.1 Q4.85 -6.35 2.95 -6.65 L1.55 -6.9 0.95 -7.15 1.3 -7.35 Q1.85 -8.1 0.8 -8.2 L0.55 -8.05 Q0.2 -7.65 0.45 -7.4 M2.85 -9.2 L3.25 -9.15 Q4.05 -9.65 3.15 -10.05 2.4 -9.85 2.85 -9.2 M12.1 -11.1 L10.25 -9.35 10.4 -9.25 12.1 -10.9 Q13.1 -11.85 13.1 -12.65 12.95 -11.95 12.1 -11.1"
         fill="url(#gradient0)"
         fill-rule="evenodd"
         stroke="none"
         id="path3-8"
         style="fill:url(#gradient0-0)" /><path
         d="M0.45 -7.4 Q0.2 -7.65 0.55 -8.05 L0.8 -8.2 Q1.85 -8.1 1.3 -7.35 L0.95 -7.15 0.85 -7.2 Q0.55 -7.25 0.45 -7.4 M2.85 -9.2 Q2.4 -9.85 3.15 -10.05 4.05 -9.65 3.25 -9.15 L2.85 -9.2"
         fill="#707070"
         fill-rule="evenodd"
         stroke="none"
         id="path4-8" /><path
         d="M-10.05 -9.6 L-10.05 -2.95 Q-10.05 -1.75 -9.25 -0.9 -8.35 -0.05 -6.45 0.0 -4.55 -0.05 -3.65 -0.9 -2.85 -1.75 -2.85 -2.95 L-2.85 -9.6 -4.4 -9.6 -4.4 -3.0 Q-4.4 -2.3 -4.8 -1.85 -5.35 -1.35 -6.45 -1.3 -7.5 -1.35 -8.1 -1.85 -8.55 -2.3 -8.55 -3.0 L-8.55 -9.6 -10.05 -9.6"
         fill="#4f1d17"
         fill-rule="evenodd"
         stroke="none"
         id="path5-4" /><path
         d="M13.6 -13.25 L13.6 -14.8 Q14.85 -14.8 15.7 -14.0 16.6 -13.15 16.6 -11.25 16.6 -9.45 15.7 -8.5 14.85 -7.75 13.6 -7.7 L7.0 -7.7 7.0 -9.2 13.55 -9.2 Q14.25 -9.25 14.75 -9.65 15.3 -10.25 15.3 -11.25 15.3 -12.35 14.75 -12.85 L13.6 -13.25"
         fill="#4f1d17"
         fill-rule="evenodd"
         stroke="none"
         id="path6-3" /><path
         d="M2.0 -58.6 L1.0 -58.65 -0.25 -58.7 -1.4 -58.7 -3.55 -58.4 Q-4.15 -59.95 -5.7 -61.6 -7.25 -63.25 -8.55 -64.1 -9.9 -65.0 -11.2 -65.6 -12.5 -66.2 -12.65 -64.55 L-13.0 -60.95 Q-13.2 -59.05 -12.6 -56.05 M2.25 -58.65 Q3.2 -61.0 4.75 -62.65 L7.6 -65.15 10.2 -66.65 Q11.5 -67.25 11.7 -65.6 L12.05 -62.0 Q12.2 -60.1 11.65 -57.1 M14.15 -41.25 Q13.9 -36.4 14.0 -32.65 14.1 -28.8 14.85 -25.15 15.6 -21.55 15.05 -17.7 14.4 -13.95 12.15 -10.8 L9.85 -8.75 8.7 -8.2 M-13.3 -40.15 Q-14.6 -37.7 -15.3 -35.15 -16.3 -31.5 -16.3 -27.55 L-15.85 -19.25 Q-15.4 -14.9 -13.7 -11.9 -12.05 -8.95 -8.9 -7.35"
         fill="none"
         stroke="#4f1d17"
         stroke-linecap="round"
         stroke-linejoin="round"
         stroke-width="1.0"
         id="path7-1" /><path
         d="M14.8 -43.7 Q17.6 -46.3 17.6 -49.65 17.6 -53.05 14.8 -55.65 L14.1 -54.9 Q16.55 -52.55 16.55 -49.65 16.55 -46.8 14.1 -44.4 L14.8 -43.7"
         fill="#4f1d17"
         fill-rule="evenodd"
         stroke="none"
         id="path8-4" /><path
         d="M-14.6 -41.8 L-13.85 -42.5 Q-16.35 -44.9 -16.35 -47.75 -16.35 -50.65 -13.85 -53.0 L-14.6 -53.75 Q-17.4 -51.15 -17.4 -47.75 -17.4 -44.4 -14.6 -41.8"
         fill="#4f1d17"
         fill-rule="evenodd"
         stroke="none"
         id="path9-9" /><path
         d="M10.3 -42.8 L9.55 -41.25 8.8 -41.25 9.35 -42.7 8.8 -42.7 8.8 -44.15 10.3 -44.15 10.3 -42.8 M13.2 -42.8 L12.45 -41.25 11.7 -41.25 12.25 -42.7 11.7 -42.7 11.7 -44.15 13.2 -44.15 13.2 -42.8"
         fill="#e7e0dc"
         fill-rule="evenodd"
         stroke="none"
         id="path10-2" /></g><radialGradient
       cx="0"
       cy="0"
       gradientTransform="matrix(0.0523, 0.0, 0.0, 0.0523, -0.65, -42.6)"
       gradientUnits="userSpaceOnUse"
       id="gradient0-0"
       r="819.2"
       spreadMethod="pad"><stop
         offset="0.0"
         stop-color="#a4a4a4"
         id="stop10-6" /><stop
         offset="1.0"
         stop-color="#646464"
         id="stop11-8" /></radialGradient><g
       id="sprite0-9"
       transform="matrix(1.0, 0.0, 0.0, 1.0, 3.0, 1.25)"><use
         height="2.5"
         transform="matrix(1.0, 0.0, 0.0, 1.0, -2.4, -1.25)"
         width="4.8"
         xlink:href="#shape1-6"
         id="use11-2" /></g><g
       id="shape1-6"
       transform="matrix(1.0, 0.0, 0.0, 1.0, 2.4, 1.25)"><path
         d="M1.9 0.75 Q0.05 -0.4 -1.9 -0.75"
         fill="none"
         stroke="#4f1d17"
         stroke-linecap="round"
         stroke-linejoin="round"
         stroke-width="1.0"
         id="path11-6" /></g><g
       id="shape2-4"
       transform="matrix(1.0, 0.0, 0.0, 1.0, 16.2, 38.35)"><path
         d="M-12.15 -24.3 L-12.15 -24.15 -12.25 -22.65 -12.15 -24.3 M-12.3 -16.8 Q-11.75 -15.05 -10.4 -13.85 L-9.9 -13.45 -10.25 -13.65 Q-12.05 -14.8 -12.3 -16.8 M-9.65 -21.7 L-9.6 -22.9 Q-9.4 -24.8 -9.45 -26.8 L-9.45 -26.85 Q-9.1 -24.7 -9.4 -22.55 L-9.6 -21.9 -9.65 -21.7"
         fill="#e7e0dc"
         fill-rule="evenodd"
         stroke="none"
         id="path12-9" /><path
         d="M-12.95 -35.6 L-14.3 -35.85 -14.55 -35.8 -14.05 -35.95 -12.95 -35.6 M-14.65 -32.35 L-14.5 -32.1 -14.6 -32.3 -14.65 -32.35"
         fill="#58463f"
         fill-rule="evenodd"
         stroke="none"
         id="path13-5" /><path
         d="M-12.95 -35.6 L-12.75 -35.5 -12.45 -35.2 -11.75 -34.45 -11.75 -34.35 -11.7 -34.3 -11.7 -34.25 -11.55 -34.15 -11.5 -33.9 -11.4 -33.7 -11.35 -33.65 -11.25 -33.55 -11.25 -33.25 -11.25 -33.2 -11.05 -32.85 -10.85 -32.4 Q-10.3 -30.95 -10.0 -29.4 L-9.95 -29.2 -9.65 -27.9 -9.45 -26.85 -9.45 -26.8 Q-9.4 -24.8 -9.6 -22.9 L-9.65 -21.7 -9.7 -21.7 -9.85 -20.9 -9.9 -20.5 -9.75 -19.75 -9.75 -19.55 -9.45 -18.85 -9.1 -18.05 -9.05 -17.9 Q-8.6 -16.5 -7.35 -15.75 L-7.35 -15.9 -7.3 -15.95 -7.05 -16.0 -6.9 -15.7 Q-7.0 -14.55 -6.5 -13.95 L-6.05 -13.1 -5.65 -12.5 Q-5.15 -11.5 -5.4 -11.5 L-7.2 -12.15 Q-8.75 -12.8 -9.9 -13.45 L-10.4 -13.85 Q-11.75 -15.05 -12.3 -16.8 L-12.3 -17.0 -12.25 -22.25 -12.25 -22.65 -12.15 -24.15 -12.15 -24.3 Q-11.9 -26.0 -12.35 -27.65 L-12.55 -28.35 -12.75 -28.95 -13.3 -31.05 -13.4 -31.05 -13.5 -31.15 -13.7 -31.15 -14.0 -31.5 -14.35 -32.05 -14.5 -32.1 -14.65 -32.35 -14.65 -32.65 -15.05 -33.2 -15.15 -33.3 -15.55 -34.25 -15.45 -35.3 -15.4 -35.35 -14.55 -35.8 -14.3 -35.85 -12.95 -35.6"
         fill="url(#gradient1)"
         fill-rule="evenodd"
         stroke="none"
         id="path14-0"
         style="fill:url(#gradient1-1)" /><path
         d="M-12.95 -35.6 L-14.3 -35.85 -14.55 -35.8 Q-16.1 -35.7 -15.6 -34.45 L-15.55 -34.25 -15.15 -33.3 -14.65 -32.35 -14.5 -32.1 -13.95 -31.4 Q-13.15 -30.25 -12.75 -28.95 L-12.55 -28.35 -12.45 -27.9 Q-12.1 -26.1 -12.15 -24.3 L-12.15 -24.15 -12.25 -22.65 -12.5 -20.8 Q-12.9 -18.9 -12.35 -17.05 L-12.3 -16.8 Q-11.75 -15.05 -10.4 -13.85 L-9.9 -13.45 Q-8.75 -12.8 -7.2 -12.15 L-5.4 -11.5 M-9.65 -21.7 L-9.6 -22.9 Q-9.4 -24.8 -9.45 -26.8 L-9.45 -26.85 Q-9.5 -28.8 -10.0 -30.55 -10.5 -32.4 -11.4 -34.1 -12.0 -35.2 -12.95 -35.6 M-9.65 -21.7 Q-9.7 -20.35 -9.4 -19.1 -8.95 -17.3 -7.35 -15.9"
         fill="none"
         stroke="#4f1d17"
         stroke-linecap="round"
         stroke-linejoin="round"
         stroke-width="1.0"
         id="path15-4" /><path
         d="M11.65 -29.75 L11.6 -29.85 11.55 -30.0 11.25 -30.75 11.2 -30.85 11.15 -30.95 11.15 -31.0 11.0 -31.45 10.9 -31.95 10.85 -32.0 Q10.7 -32.15 10.8 -32.45 L10.85 -32.7 11.0 -34.4 Q11.3 -35.6 11.85 -36.4 L11.9 -36.45 12.0 -36.6 12.15 -36.75 12.2 -36.8 12.25 -36.85 12.45 -37.05 12.55 -37.15 12.95 -37.4 14.3 -37.6 14.9 -37.8 15.25 -37.8 16.4 -37.4 Q17.05 -36.85 17.2 -35.95 L17.25 -35.55 17.75 -35.35 Q18.55 -34.85 18.7 -34.0 18.85 -33.15 18.25 -32.4 L17.95 -32.05 18.25 -31.2 Q18.4 -30.35 17.85 -29.65 L17.25 -29.15 16.85 -28.9 16.5 -28.8 16.45 -28.8 15.6 -28.8 15.05 -29.0 14.9 -28.85 14.05 -28.5 12.85 -28.7 Q12.15 -29.05 11.65 -29.75"
         fill="url(#gradient2)"
         fill-rule="evenodd"
         stroke="none"
         id="path16-8"
         style="fill:url(#gradient2-7)" /><path
         d="M12.95 -37.4 L14.3 -37.6 14.9 -37.8 15.25 -37.8 16.4 -37.4 Q17.05 -36.85 17.2 -35.95 L17.25 -35.55 17.75 -35.35 Q18.55 -34.85 18.7 -34.0 18.85 -33.15 18.25 -32.4 L17.95 -32.05 18.25 -31.2 Q18.4 -30.35 17.85 -29.65 L17.25 -29.15 16.85 -28.9 16.5 -28.8 16.45 -28.8 15.6 -28.8 15.05 -29.0 14.9 -28.85 14.05 -28.5 12.85 -28.7 Q12.15 -29.05 11.65 -29.75"
         fill="none"
         stroke="#4f1d17"
         stroke-linecap="round"
         stroke-linejoin="round"
         stroke-width="1.0"
         id="path17-7" /></g><radialGradient
       cx="0"
       cy="0"
       gradientTransform="matrix(0.0306, 0.0, 0.0, 0.0306, -13.35, -34.7)"
       gradientUnits="userSpaceOnUse"
       id="gradient1-1"
       r="819.2"
       spreadMethod="pad"><stop
         offset="0.0"
         stop-color="#a4a4a4"
         id="stop17-7" /><stop
         offset="1.0"
         stop-color="#646464"
         id="stop18-2" /></radialGradient><radialGradient
       cx="0"
       cy="0"
       gradientTransform="matrix(0.0103, 0.0, 0.0, 0.0103, 15.55, -36.3)"
       gradientUnits="userSpaceOnUse"
       id="gradient2-7"
       r="819.2"
       spreadMethod="pad"><stop
         offset="0.0"
         stop-color="#a4a4a4"
         id="stop19-2" /><stop
         offset="1.0"
         stop-color="#646464"
         id="stop20-2" /></radialGradient><g
       id="shape0-1"
       transform="matrix(1.0, 0.0, 0.0, 1.0, 17.45, 67.25)"><path
         d="M11.45 -57.35 L11.6 -57.7 11.6 -57.65 11.45 -57.4 11.45 -57.35 M11.55 -59.85 L11.55 -59.8 11.65 -59.85 11.7 -60.35 11.65 -59.9 11.55 -59.85 M11.5 -64.25 L11.6 -63.4 11.6 -62.95 11.65 -62.65 11.75 -62.6 11.8 -62.5 11.85 -62.0 11.85 -61.95 11.85 -61.9 11.85 -61.95 12.2 -61.15 Q11.95 -60.3 12.25 -59.4 L12.1 -59.15 Q11.85 -58.7 11.9 -58.15 L12.0 -57.75 11.95 -57.1 12.55 -56.9 12.6 -56.85 Q13.8 -56.5 14.5 -55.3 L14.55 -55.05 14.55 -55.0 14.7 -54.9 14.8 -54.65 14.8 -54.4 15.6 -53.65 16.9 -52.8 Q16.8 -51.5 17.4 -49.85 L16.25 -47.85 Q15.65 -46.5 15.45 -45.0 13.45 -42.95 14.35 -40.1 L14.3 -39.5 14.25 -38.6 Q13.95 -30.95 15.5 -23.8 L15.35 -22.1 15.3 -19.7 15.1 -19.4 14.95 -17.45 14.6 -16.3 14.2 -15.6 14.2 -14.9 13.9 -14.15 13.75 -12.8 Q11.85 -11.9 11.7 -9.85 L11.65 -9.8 Q6.45 -7.7 8.65 -4.5 L8.25 -3.25 7.5 -3.05 7.5 -2.95 7.4 -2.8 7.35 -2.7 7.3 -2.65 7.3 -2.4 7.3 -2.3 7.3 -2.25 7.3 -2.1 7.25 -2.0 7.2 -1.95 7.1 -1.85 6.8 -1.75 6.3 -1.35 5.65 -1.0 5.45 -1.1 5.4 -1.05 4.85 -1.0 3.75 -1.35 2.8 -0.45 2.7 -1.35 2.7 -1.4 2.75 -2.2 2.7 -2.3 Q2.2 -3.0 2.7 -3.55 2.25 -6.25 -0.1 -8.2 L-0.65 -8.55 Q-0.75 -8.15 -1.2 -7.65 -1.75 -7.0 -2.55 -6.85 -5.45 -6.35 -8.1 -6.95 L-8.85 -7.15 -8.9 -7.15 -9.35 -7.15 -9.5 -7.4 -9.85 -7.9 -9.85 -7.95 Q-10.6 -8.95 -11.8 -9.6 L-12.9 -11.15 -14.6 -12.85 -14.65 -12.9 Q-15.9 -16.25 -15.95 -19.95 -16.0 -22.25 -16.75 -24.1 L-16.45 -26.85 Q-16.0 -30.1 -16.2 -33.1 -15.15 -34.15 -14.6 -35.85 L-14.5 -36.2 -13.65 -39.55 Q-12.8 -43.15 -16.05 -43.95 L-16.45 -44.35 -16.7 -45.15 -17.1 -46.65 -17.2 -48.9 -16.9 -49.85 -15.2 -52.15 -15.1 -52.3 -15.2 -52.4 -14.95 -52.7 -13.95 -54.25 -12.85 -55.6 -13.05 -55.8 Q-13.45 -56.3 -13.1 -56.95 L-13.0 -57.05 -13.15 -57.2 -13.2 -57.25 -13.2 -57.35 -13.0 -58.4 Q-12.9 -59.7 -13.05 -60.75 L-13.35 -61.8 -12.9 -64.2 Q-12.75 -65.2 -12.15 -65.9 L-11.8 -65.65 Q-12.35 -65.35 -12.5 -64.65 -12.2 -65.4 -11.25 -65.55 -9.35 -65.05 -7.85 -63.65 L-7.6 -63.45 -6.45 -62.7 -6.15 -62.05 -5.45 -61.35 Q-4.7 -60.65 -4.3 -59.8 -3.9 -59.55 -3.8 -59.0 L-3.8 -58.95 Q-2.75 -58.1 -1.75 -58.5 -0.85 -58.2 -0.05 -58.75 1.4 -58.55 2.5 -59.35 L2.55 -59.4 2.75 -59.35 2.8 -59.35 2.9 -59.45 2.75 -59.4 2.55 -59.45 Q2.75 -59.7 2.6 -59.95 L2.65 -59.95 3.2 -60.8 Q5.05 -62.1 6.3 -64.5 L6.4 -64.7 6.55 -64.8 Q7.35 -65.35 8.25 -65.7 9.0 -66.0 9.3 -66.55 L11.85 -66.95 Q11.5 -65.5 11.5 -64.25 M11.25 -57.35 L11.6 -57.05 11.6 -57.1 11.3 -57.35 11.25 -57.35 M7.6 -7.7 L7.75 -8.1 7.6 -7.75 7.6 -7.7 M7.5 -7.1 L7.65 -7.45 7.5 -7.15 7.5 -7.1 M2.4 -8.5 L2.4 -8.45 2.45 -8.3 2.5 -8.2 2.55 -8.15 2.75 -8.0 2.75 -8.05 2.55 -8.2 2.5 -8.25 2.45 -8.35 2.4 -8.5 M2.3 -7.35 L2.3 -7.3 2.85 -6.7 2.95 -6.45 2.95 -6.5 2.85 -6.75 2.3 -7.35 M7.4 -3.85 L7.6 -4.4 7.4 -3.85 M-0.55 -28.75 L-0.6 -28.8 -0.55 -28.75"
         fill="url(#gradient0)"
         fill-rule="evenodd"
         stroke="none"
         id="path3-0"
         style="fill:url(#gradient0-09)" /><path
         d="M1.5 -9.65 L3.0 -9.65 3.0 -3.05 Q3.0 -2.35 3.45 -1.9 4.0 -1.35 5.05 -1.35 6.1 -1.35 6.65 -1.9 7.05 -2.35 7.05 -3.05 L7.05 -9.65 8.6 -9.65 8.6 -3.0 Q8.6 -1.75 7.8 -0.95 6.9 -0.05 5.05 -0.05 3.2 -0.05 2.3 -0.95 1.5 -1.75 1.5 -3.0 L1.5 -9.65"
         fill="#4f1d17"
         fill-rule="evenodd"
         stroke="none"
         id="path4-6" /><path
         d="M2.2 -58.6 Q3.15 -60.95 4.7 -62.6 L7.55 -65.1 10.15 -66.6 Q11.45 -67.2 11.65 -65.55 L12.0 -61.95 Q12.15 -60.05 11.6 -57.05 M1.95 -58.55 L0.95 -58.6 -0.3 -58.65 -1.45 -58.65 -3.6 -58.35 Q-4.2 -59.9 -5.75 -61.55 -7.3 -63.2 -8.6 -64.05 L-11.25 -65.55 Q-12.55 -66.15 -12.7 -64.5 L-13.05 -60.9 Q-13.25 -59.0 -12.65 -56.0 M14.1 -41.2 Q13.85 -36.35 13.95 -32.6 14.05 -28.75 14.8 -25.1 15.55 -21.5 15.0 -17.65 14.35 -13.9 12.1 -10.75 L9.8 -8.7 8.65 -8.15 M-13.25 -40.3 Q-14.65 -37.75 -15.35 -35.1 -16.35 -31.45 -16.35 -27.5 L-15.9 -19.2 Q-15.45 -14.85 -13.75 -11.85 -12.1 -8.9 -8.95 -7.3"
         fill="none"
         stroke="#4f1d17"
         stroke-linecap="round"
         stroke-linejoin="round"
         stroke-width="1.0"
         id="path5-1" /><path
         d="M14.75 -43.65 Q17.55 -46.25 17.55 -49.6 17.55 -53.0 14.75 -55.6 L14.05 -54.85 Q16.5 -52.5 16.5 -49.6 16.5 -46.75 14.05 -44.35 L14.75 -43.65"
         fill="#4f1d17"
         fill-rule="evenodd"
         stroke="none"
         id="path6-5" /><path
         d="M-14.65 -41.75 L-13.9 -42.45 Q-16.4 -44.85 -16.4 -47.7 -16.4 -50.6 -13.9 -52.95 L-14.65 -53.7 Q-17.45 -51.1 -17.45 -47.7 -17.45 -44.35 -14.65 -41.75"
         fill="#4f1d17"
         fill-rule="evenodd"
         stroke="none"
         id="path7-9" /><path
         d="M10.25 -42.75 L9.5 -41.2 8.75 -41.2 9.3 -42.65 8.75 -42.65 8.75 -44.1 10.25 -44.1 10.25 -42.75 M13.15 -42.75 L12.4 -41.2 11.65 -41.2 12.2 -42.65 11.65 -42.65 11.65 -44.1 13.15 -44.1 13.15 -42.75"
         fill="#e7e0dc"
         fill-rule="evenodd"
         stroke="none"
         id="path8-49" /></g><radialGradient
       cx="0"
       cy="0"
       gradientTransform="matrix(0.0505, 0.0, 0.0, 0.0505, -1.15, -41.6)"
       gradientUnits="userSpaceOnUse"
       id="gradient0-09"
       r="819.2"
       spreadMethod="pad"><stop
         offset="0.0"
         stop-color="#a4a4a4"
         id="stop8" /><stop
         offset="1.0"
         stop-color="#646464"
         id="stop9" /></radialGradient><g
       id="sprite0-1"
       transform="matrix(1.0, 0.0, 0.0, 1.0, 3.0, 1.25)"><use
         height="2.5"
         transform="matrix(1.0, 0.0, 0.0, 1.0, -2.4, -1.25)"
         width="4.8"
         xlink:href="#shape1-7"
         id="use9" /></g><g
       id="shape1-7"
       transform="matrix(1.0, 0.0, 0.0, 1.0, 2.4, 1.25)"><path
         d="M1.9 0.75 Q0.05 -0.4 -1.9 -0.75"
         fill="none"
         stroke="#4f1d17"
         stroke-linecap="round"
         stroke-linejoin="round"
         stroke-width="1.0"
         id="path9-7" /></g><g
       id="shape2-1"
       transform="matrix(1.0, 0.0, 0.0, 1.0, 16.25, 38.3)"><path
         d="M-12.2 -24.3 L-12.2 -24.15 -12.3 -22.65 -12.2 -24.3 M-12.35 -16.8 Q-11.8 -15.05 -10.45 -13.85 L-9.95 -13.45 -10.3 -13.65 Q-12.1 -14.8 -12.35 -16.8 M-9.7 -21.7 L-9.65 -22.9 Q-9.45 -24.8 -9.5 -26.8 L-9.5 -26.85 Q-9.15 -24.7 -9.45 -22.55 L-9.65 -21.9 -9.7 -21.7"
         fill="#e7e0dc"
         fill-rule="evenodd"
         stroke="none"
         id="path10-1" /><path
         d="M-13.0 -35.6 L-14.35 -35.85 -14.6 -35.8 -14.1 -35.95 -13.0 -35.6 M-14.7 -32.35 L-14.55 -32.1 -14.65 -32.3 -14.7 -32.35"
         fill="#58463f"
         fill-rule="evenodd"
         stroke="none"
         id="path11-5" /><path
         d="M-13.0 -35.6 L-12.8 -35.5 -12.5 -35.2 -11.8 -34.45 -11.8 -34.35 -11.75 -34.3 -11.75 -34.25 -11.6 -34.15 -11.55 -33.9 -11.45 -33.7 -11.4 -33.65 -11.3 -33.55 -11.3 -33.25 -11.3 -33.2 -11.1 -32.85 -10.9 -32.4 -10.05 -29.4 -10.0 -29.2 -9.7 -27.9 -9.5 -26.85 -9.5 -26.8 Q-9.45 -24.8 -9.65 -22.9 L-9.7 -21.7 -9.75 -21.7 -9.9 -20.9 -9.95 -20.5 -9.8 -19.75 -9.8 -19.55 -9.5 -18.85 -9.15 -18.05 -9.1 -17.9 Q-8.65 -16.5 -7.4 -15.75 L-7.4 -15.9 -7.35 -15.95 -7.1 -16.0 -6.95 -15.7 Q-7.05 -14.55 -6.55 -13.95 L-6.1 -13.1 -5.7 -12.5 Q-5.2 -11.5 -5.45 -11.5 -5.7 -11.5 -7.25 -12.15 L-9.95 -13.45 -10.45 -13.85 Q-11.8 -15.05 -12.35 -16.8 L-12.35 -17.0 -12.3 -22.25 -12.3 -22.65 -12.2 -24.15 -12.2 -24.3 Q-11.95 -26.0 -12.4 -27.65 L-12.6 -28.35 -12.8 -28.95 -13.35 -31.05 -13.45 -31.05 -13.55 -31.15 -13.75 -31.15 -14.05 -31.5 -14.4 -32.05 -14.55 -32.1 -14.7 -32.35 -14.7 -32.65 -15.1 -33.2 -15.2 -33.3 -15.6 -34.25 -15.5 -35.3 -15.45 -35.35 -14.6 -35.8 -14.35 -35.85 -13.0 -35.6"
         fill="url(#gradient1)"
         fill-rule="evenodd"
         stroke="none"
         id="path12-97"
         style="fill:url(#gradient1-3)" /><path
         d="M-13.0 -35.6 L-14.35 -35.85 -14.6 -35.8 Q-16.15 -35.7 -15.65 -34.45 L-15.6 -34.25 -15.2 -33.3 -14.7 -32.35 -14.55 -32.1 -14.0 -31.4 Q-13.2 -30.25 -12.8 -28.95 L-12.6 -28.35 -12.5 -27.9 Q-12.15 -26.1 -12.2 -24.3 L-12.2 -24.15 -12.3 -22.65 -12.55 -20.8 Q-12.95 -18.9 -12.4 -17.05 L-12.35 -16.8 Q-11.8 -15.05 -10.45 -13.85 L-9.95 -13.45 -7.25 -12.15 Q-5.7 -11.5 -5.45 -11.5 M-9.7 -21.7 L-9.65 -22.9 Q-9.45 -24.8 -9.5 -26.8 L-9.5 -26.85 Q-9.55 -28.8 -10.05 -30.55 -10.55 -32.4 -11.45 -34.1 -12.05 -35.2 -13.0 -35.6 M-9.7 -21.7 Q-9.75 -20.35 -9.45 -19.1 -9.0 -17.3 -7.4 -15.9"
         fill="none"
         stroke="#4f1d17"
         stroke-linecap="round"
         stroke-linejoin="round"
         stroke-width="1.0"
         id="path13-7" /><path
         d="M12.95 -37.35 L14.3 -37.55 14.9 -37.75 15.25 -37.75 16.4 -37.35 Q17.05 -36.8 17.2 -35.9 L17.25 -35.5 17.75 -35.3 Q18.55 -34.8 18.7 -33.95 18.85 -33.1 18.25 -32.35 L17.95 -32.0 18.25 -31.15 Q18.4 -30.3 17.85 -29.6 L17.25 -29.1 16.85 -28.85 16.5 -28.75 16.45 -28.75 15.6 -28.75 15.05 -28.95 14.9 -28.8 14.05 -28.45 12.85 -28.65 Q12.15 -29.0 11.65 -29.7 L11.6 -29.8 11.55 -29.95 11.25 -30.7 11.2 -30.8 11.15 -30.9 11.15 -30.95 11.0 -31.4 10.9 -31.9 10.85 -31.95 Q10.7 -32.1 10.8 -32.4 L10.85 -32.65 11.0 -34.35 Q11.3 -35.55 11.85 -36.35 L11.9 -36.4 12.0 -36.55 12.15 -36.7 12.2 -36.75 12.25 -36.8 12.45 -37.0 12.55 -37.1 12.95 -37.35"
         fill="url(#gradient2)"
         fill-rule="evenodd"
         stroke="none"
         id="path14-6"
         style="fill:url(#gradient2-6)" /><path
         d="M12.95 -37.35 L14.3 -37.55 14.9 -37.75 15.25 -37.75 16.4 -37.35 Q17.05 -36.8 17.2 -35.9 L17.25 -35.5 17.75 -35.3 Q18.55 -34.8 18.7 -33.95 18.85 -33.1 18.25 -32.35 L17.95 -32.0 18.25 -31.15 Q18.4 -30.3 17.85 -29.6 L17.25 -29.1 16.85 -28.85 16.5 -28.75 16.45 -28.75 15.6 -28.75 15.05 -28.95 14.9 -28.8 14.05 -28.45 12.85 -28.65 Q12.15 -29.0 11.65 -29.7"
         fill="none"
         stroke="#4f1d17"
         stroke-linecap="round"
         stroke-linejoin="round"
         stroke-width="1.0"
         id="path15-7" /></g><radialGradient
       cx="0"
       cy="0"
       gradientTransform="matrix(0.0305, 0.0, 0.0, 0.0305, -13.2, -34.65)"
       gradientUnits="userSpaceOnUse"
       id="gradient1-3"
       r="819.2"
       spreadMethod="pad"><stop
         offset="0.0"
         stop-color="#a4a4a4"
         id="stop15" /><stop
         offset="1.0"
         stop-color="#646464"
         id="stop16" /></radialGradient><radialGradient
       cx="0"
       cy="0"
       gradientTransform="matrix(0.0104, 0.0, 0.0, 0.0104, 15.55, -36.3)"
       gradientUnits="userSpaceOnUse"
       id="gradient2-6"
       r="819.2"
       spreadMethod="pad"><stop
         offset="0.0"
         stop-color="#a4a4a4"
         id="stop17-5" /><stop
         offset="1.0"
         stop-color="#646464"
         id="stop18-6" /></radialGradient></defs><g
     transform="matrix(2.1129527,0,0,2.1129527,73.212025,142.10565)"
     id="g3"><use
       height="67.199997"
       transform="translate(-17.45,-67.25)"
       width="35"
       xlink:href="#shape0-1"
       id="use1" /><use
       height="2.5"
       transform="translate(9.8,-53.3)"
       width="6"
       xlink:href="#sprite0-1"
       id="use2" /><use
       height="27.299999"
       transform="translate(-16.25,-38.3)"
       width="35.5"
       xlink:href="#shape2-1"
       id="use3-6" /></g></svg>
