<?xml version="1.0" encoding="UTF-8" standalone="no"?>
<svg
   height="182"
   width="160"
   version="1.1"
   id="svg4"
   sodipodi:docname="back-sitting.svg"
   xml:space="preserve"
   inkscape:version="1.4.2 (ebf0e94, 2025-05-08)"
   xmlns:inkscape="http://www.inkscape.org/namespaces/inkscape"
   xmlns:sodipodi="http://sodipodi.sourceforge.net/DTD/sodipodi-0.dtd"
   xmlns:xlink="http://www.w3.org/1999/xlink"
   xmlns="http://www.w3.org/2000/svg"
   xmlns:svg="http://www.w3.org/2000/svg"><sodipodi:namedview
     id="namedview4"
     pagecolor="#ffffff"
     bordercolor="#000000"
     borderopacity="0.25"
     inkscape:showpageshadow="2"
     inkscape:pageopacity="0.0"
     inkscape:pagecheckerboard="0"
     inkscape:deskcolor="#d1d1d1"
     inkscape:zoom="4.4230769"
     inkscape:cx="80.034783"
     inkscape:cy="91"
     inkscape:window-width="1920"
     inkscape:window-height="1052"
     inkscape:window-x="1920"
     inkscape:window-y="0"
     inkscape:window-maximized="1"
     inkscape:current-layer="svg4" /><defs
     id="defs3"><path
       d="M1.35 0h.2l.55.1.45.35q.45.45.45 1L2.55 2.6q-.45.4-1 .4l-.8-.2-.25-.2-.45-.7v-.15L0 1.45v-.1q.05-.5.5-.9l.25-.2Q1 .05 1.3 0h.05m.45.85L1.55.8Q1.2.75 1 1q-.2.15-.2.45v.15l.15.45H1l.05.05.2.1.3.05.55-.2.15-.6-.05-.3L2.1 1 2.05.95 1.9.85h-.1"
       fill-rule="evenodd"
       id="a" /><use
       height="3"
       transform="translate(.8)"
       width="3"
       xlink:href="#a"
       id="c" /><g
       id="b"><path
         d="M.35-60h3.9l1.2.55 3.85-8.6 3.9 8.6 1.25-.55 3.15 3.05 1.1 1.1-1.1-1.1 1.15 1.1h-.05l-.35.4.1.1q2.1 2.05 2.3 4.55l.05.6q0 1.65-.8 3.1l-.25.45-1.4 1.7.1.1-.3.3-3.25.9v4.7l-3.25.7-3.15.9.65 1.6L12.5-37q1.7-.6 3-.6 1.55 0 2.15.6.8.8.8 2 0 1.1-.75 1.85-1.05 1.05-4.1 1.25l-1.25.05.35 1.5 1.5-.05-.05 2.75-1.5 1.25v5.75H8.1v1.55h6.6q.7 0 1.15.4.55.55.55 1.65 0 1.05-.55 1.6-.45.45-1.15.45H8.1v1.5h-17l-3.25-3.25v-1.7l.45-.4q.75-.6 1.35-1.55l-1.25-1-.7.95.4-10.95 1.75-12.8.4.35.75-.7-1-1.1q-1.5-1.9-1.5-4.15l.05-1q.35-2.3 2.45-4.25l-.75-.75.5-3.95.65.3 3.85-8.6 3.85 8.6L.35-60m10.5 16.4.75-1.55v-1.35h-1.55v1.45h.55l-.55 1.45h.8m3.65-2.9H13v1.45h.55L13-43.6h.75l.75-1.55v-1.35"
         fill="#fff"
         fill-rule="evenodd"
         transform="translate(21.55 71)"
         id="path1" /><path
         d="m.35-60-1.25.55-3.85-8.6-3.85 8.6-.65-.3-.55-.25 5.05-11 5.1 11m-10.1 4.2.75.75q-2.1 1.95-2.45 4.25l-.05 1q0 2.25 1.5 4.15l1 1.1-.75.7-.4-.35-.6-.7q-1.8-2.2-1.8-4.9l.05-1q.35-2.8 2.75-5m-2.55 35.35.7-.95 1.25 1q-.6.95-1.35 1.55l-.45.4q-.55.35-1.25.45h-.35q-.95 0-2.65-1.1l-1.9-.65q-.9 0-1.3.55l-.6.95-1.35-.75 1.2-1.65q.8-.8 1.95-.8 1.1 0 2.25.8 1.65.85 2.55.85.65 0 1.3-.65M8.1-13.5V-15h6.6q.7 0 1.15-.45.55-.55.55-1.6 0-1.1-.55-1.65-.45-.4-1.15-.4H8.1v-1.55h6.65q1.25 0 2.05.8.9.9.9 2.8 0 1.85-.9 2.75-.8.8-2.05.8H8.1m6.1-16.9-1.5.05-.35-1.5 1.25-.05q3.05-.2 4.1-1.25.75-.75.75-1.85 0-1.2-.8-2-.6-.6-2.15-.6-1.3 0-3 .6l-3.35 1.25-.65-1.6 3.15-.9 3.25-.7.75-.05q2.2 0 3.25 1.05Q20-36.9 20-35.1q0 1.85-1 2.85l-.4.35q-1.6 1.2-4.4 1.5m4.25-14.45-.1-.1 1.4-1.7.25-.45q.8-1.45.8-3.1l-.05-.6q-.2-2.5-2.3-4.55l-.1-.1.35-.4h.05l.3-.35q2.55 2.35 2.75 5.4l.05.6q0 1.9-.9 3.55-.7 1.25-1.9 2.4l-.6-.6m-4-15.15-1.25.55-3.9-8.6-3.85 8.6-1.2-.55L9.3-71l5.15 11m.05 13.5v1.35l-.75 1.55H13l.55-1.45H13v-1.45h1.5m-3.65 2.9h-.8l.55-1.45h-.55v-1.45h1.55v1.35l-.75 1.55"
         fill-rule="evenodd"
         transform="translate(21.55 71)"
         id="path2" /><path
         d="M4.25-60H.35m12.3 39.35v-5.75m6.05-29.45-1.1-1.1"
         fill="none"
         stroke="#000"
         stroke-linecap="round"
         stroke-linejoin="round"
         transform="translate(21.55 71)"
         id="path3" /></g><g
       id="shape0"
       transform="matrix(1.0, 0.0, 0.0, 1.0, 17.5, 70.4)"><path
         d="M-6.2 -65.15 L-7.65 -66.55 -6.5 -65.8 -6.2 -65.15 M-12.55 -67.75 L-12.8 -66.65 -12.9 -65.6 -13.1 -63.85 -13.4 -64.9 -12.95 -67.3 Q-12.8 -68.3 -12.2 -69.0 L-11.85 -68.75 Q-12.4 -68.45 -12.55 -67.75 M-13.05 -61.5 L-12.9 -60.3 -13.05 -60.1 -13.2 -60.3 -13.25 -60.35 -13.25 -60.45 -13.05 -61.5 M11.6 -65.75 L11.55 -65.8 11.55 -66.05 11.6 -65.75"
         fill="#e7e0dc"
         fill-rule="evenodd"
         stroke="none"
         id="path3-8" /><path
         d="M-0.65 -31.95 L-0.6 -31.9 -0.65 -31.95"
         fill="#6a544a"
         fill-rule="evenodd"
         stroke="none"
         id="path4" /><path
         d="M-6.2 -65.15 L-5.5 -64.45 Q-4.75 -63.75 -4.35 -62.9 -3.95 -62.65 -3.85 -62.1 -2.8 -61.25 -1.8 -61.65 -0.9 -61.35 -0.1 -61.9 1.35 -61.7 2.45 -62.5 L2.5 -62.55 Q2.7 -62.8 2.55 -63.05 L2.6 -63.05 3.15 -63.9 Q5.0 -65.2 6.25 -67.6 L6.35 -67.8 6.5 -67.9 Q7.3 -68.45 8.2 -68.8 L9.25 -69.65 11.8 -70.05 Q11.45 -68.6 11.45 -67.35 L11.55 -66.5 11.55 -66.05 11.55 -65.8 11.6 -65.75 11.7 -65.7 11.75 -65.6 11.8 -65.1 12.15 -64.3 Q11.9 -63.45 12.2 -62.55 11.65 -61.85 11.95 -60.9 L11.9 -60.25 12.5 -60.05 12.55 -60.0 Q13.75 -59.65 14.45 -58.45 L14.5 -58.2 14.5 -58.15 14.65 -58.05 14.75 -57.8 14.75 -57.55 15.55 -56.8 Q16.1 -56.3 16.85 -55.95 16.75 -54.65 17.35 -53.0 15.8 -50.85 15.4 -48.15 13.4 -46.1 14.3 -43.25 L14.2 -41.75 Q13.95 -34.25 15.35 -27.3 15.2 -25.2 15.4 -23.05 L15.0 -22.5 14.9 -21.9 14.95 -21.15 14.85 -20.25 Q14.75 -18.8 13.85 -17.75 L13.85 -17.5 13.7 -15.95 Q11.8 -15.05 11.65 -13.0 L11.6 -12.95 Q9.6 -12.15 8.7 -11.2 L8.55 -10.7 Q8.35 -10.4 8.05 -10.4 L7.8 -10.35 7.65 -10.35 7.45 -10.3 7.0 -10.3 5.85 -10.15 5.1 -10.05 3.15 -9.8 1.15 -9.65 1.05 -9.65 Q-2.15 -9.2 -5.25 -9.65 L-8.6 -10.25 -8.9 -10.4 -9.45 -10.4 Q-10.25 -11.85 -11.85 -12.75 -12.95 -14.6 -14.65 -16.0 L-14.7 -16.05 Q-15.95 -19.4 -16.0 -23.1 -16.05 -25.4 -16.8 -27.25 L-16.5 -30.0 Q-16.05 -33.25 -16.25 -36.25 -15.2 -37.3 -14.65 -39.0 L-14.55 -39.35 -13.7 -42.7 Q-12.85 -46.3 -16.1 -47.1 L-16.5 -47.5 -16.75 -48.3 -17.15 -49.8 -17.25 -52.05 -16.95 -53.0 -15.25 -55.3 -15.15 -55.45 -15.25 -55.55 -15.0 -55.85 -14.0 -57.4 -12.9 -58.75 -12.7 -59.25 -12.85 -59.65 -12.9 -59.75 -13.05 -60.1 -12.9 -60.3 -13.05 -61.5 Q-12.95 -62.8 -13.1 -63.85 L-12.9 -65.6 -12.8 -66.65 -12.55 -67.75 Q-12.25 -68.5 -11.3 -68.65 -9.4 -68.15 -7.9 -66.75 L-7.65 -66.55 -6.2 -65.15 M-0.65 -31.95 L-0.6 -31.9 -0.65 -31.95 M-8.85 -12.35 L-8.85 -12.4 -8.85 -12.35"
         fill="url(#gradient0)"
         fill-rule="evenodd"
         stroke="none"
         id="path5" /><path
         d="M16.3 -13.95 L15.95 -12.9 15.45 -12.2 15.1 -11.9 13.75 -11.8 13.7 -11.9 12.8 -11.75 11.2 -11.95 11.0 -12.0 10.9 -12.05 10.65 -12.0 12.85 -14.85 13.15 -15.4 13.45 -15.95 13.45 -16.0 13.8 -16.6 14.2 -16.65 14.35 -16.65 14.5 -16.55 14.6 -16.5 14.65 -16.45 14.9 -16.45 15.05 -16.45 15.2 -16.45 15.3 -16.4 15.35 -16.4 Q16.15 -16.05 15.6 -15.6 L16.15 -14.6 16.2 -14.55 16.25 -14.5 16.3 -13.95"
         fill="url(#gradient1)"
         fill-rule="evenodd"
         stroke="none"
         id="path6" /><path
         d="M7.75 -10.6 L7.75 -12.1 14.3 -12.1 Q14.95 -12.15 15.45 -12.55 15.95 -13.15 16.0 -14.15 15.95 -15.25 15.45 -15.8 14.95 -16.2 14.3 -16.2 L13.7 -16.2 13.7 -17.75 14.35 -17.75 Q15.55 -17.75 16.4 -16.95 17.25 -16.05 17.3 -14.15 17.25 -12.35 16.4 -11.4 15.55 -10.65 14.35 -10.6 L7.75 -10.6"
         fill="#4f1d17"
         fill-rule="evenodd"
         stroke="none"
         id="path7" /><path
         d="M-12.25 -27.4 L-12.25 -27.25 -12.35 -25.75 -12.25 -27.4 M-12.4 -19.9 Q-11.85 -18.15 -10.5 -16.95 L-10.0 -16.55 -10.35 -16.75 Q-12.15 -17.9 -12.4 -19.9 M-9.75 -24.8 L-9.7 -26.0 Q-9.5 -27.9 -9.55 -29.9 L-9.55 -29.95 Q-9.2 -27.8 -9.5 -25.65 L-9.7 -25.0 -9.75 -24.8"
         fill="#e7e0dc"
         fill-rule="evenodd"
         stroke="none"
         id="path8" /><path
         d="M-13.05 -38.7 L-14.4 -38.95 -14.65 -38.9 -14.15 -39.05 -13.05 -38.7 M-14.75 -35.45 L-14.6 -35.2 -14.7 -35.4 -14.75 -35.45"
         fill="#58463f"
         fill-rule="evenodd"
         stroke="none"
         id="path9" /><path
         d="M-14.65 -38.9 L-14.4 -38.95 -13.05 -38.7 -12.85 -38.6 -12.55 -38.3 -11.85 -37.55 -11.85 -37.45 -11.8 -37.4 -11.8 -37.35 -11.65 -37.25 -11.6 -37.0 -11.5 -36.8 -11.45 -36.75 -11.35 -36.65 -11.35 -36.35 -11.35 -36.3 -11.15 -35.95 -10.95 -35.5 -10.1 -32.5 -10.05 -32.3 -9.75 -31.0 -9.55 -29.95 -9.55 -29.9 Q-9.5 -27.9 -9.7 -26.0 L-9.75 -24.8 -9.8 -24.8 -9.95 -24.0 -10.0 -23.6 -9.85 -22.85 -9.85 -22.65 -9.55 -21.95 -9.2 -21.15 -9.15 -21.0 Q-8.7 -19.6 -7.45 -18.85 L-7.45 -19.0 -7.4 -19.05 -7.15 -19.1 -7.0 -18.8 Q-7.1 -17.65 -6.6 -17.05 L-6.15 -16.2 -5.75 -15.6 Q-5.25 -14.6 -5.5 -14.6 L-7.3 -15.25 Q-8.85 -15.9 -10.0 -16.55 L-10.5 -16.95 Q-11.85 -18.15 -12.4 -19.9 L-12.4 -20.1 -12.35 -25.35 -12.35 -25.75 -12.25 -27.25 -12.25 -27.4 Q-12.0 -29.1 -12.45 -30.75 L-12.65 -31.45 -12.85 -32.05 -13.4 -34.15 -13.5 -34.15 -13.6 -34.25 -13.8 -34.25 -14.1 -34.6 -14.45 -35.15 -14.6 -35.2 -14.75 -35.45 -14.75 -35.75 -15.15 -36.3 -15.25 -36.4 -15.65 -37.35 -15.55 -38.4 -15.5 -38.45 -14.65 -38.9"
         fill="url(#gradient2)"
         fill-rule="evenodd"
         stroke="none"
         id="path10" /><path
         d="M-14.65 -38.9 L-14.4 -38.95 -13.05 -38.7 Q-12.1 -38.3 -11.5 -37.2 -10.6 -35.5 -10.1 -33.65 -9.6 -31.9 -9.55 -29.95 M-15.65 -37.35 L-15.25 -36.4 M-14.75 -35.45 L-14.6 -35.2 -14.05 -34.5 Q-13.25 -33.35 -12.85 -32.05 L-12.65 -31.45 -12.55 -31.0 Q-12.2 -29.2 -12.25 -27.4 L-12.25 -27.25 -12.35 -25.75 -12.6 -23.9 Q-13.0 -22.0 -12.45 -20.15 L-12.4 -19.9 Q-11.85 -18.15 -10.5 -16.95 L-10.0 -16.55 Q-8.85 -15.9 -7.3 -15.25 L-5.5 -14.6 M-9.75 -24.8 L-9.7 -26.0 Q-9.5 -27.9 -9.55 -29.9 L-9.55 -29.95 M-9.75 -24.8 Q-9.8 -23.45 -9.5 -22.2 -9.05 -20.4 -7.45 -19.0 M-15.65 -37.35 L-15.7 -37.55 Q-16.2 -38.8 -14.65 -38.9 M-14.75 -35.45 L-15.25 -36.4"
         fill="none"
         stroke="#4f1d17"
         stroke-linecap="round"
         stroke-linejoin="round"
         stroke-width="1.0"
         id="path11" /><path
         d="M1.9 -61.7 L0.9 -61.75 -0.35 -61.8 -1.5 -61.8 -3.65 -61.5 Q-4.25 -63.05 -5.8 -64.7 -7.35 -66.35 -8.65 -67.2 L-11.3 -68.7 Q-12.6 -69.3 -12.75 -67.65 L-13.1 -64.05 Q-13.3 -62.15 -12.7 -59.15 M2.15 -61.75 Q3.1 -64.1 4.65 -65.75 6.15 -67.4 7.5 -68.25 8.8 -69.15 10.1 -69.75 11.4 -70.35 11.6 -68.7 L11.95 -65.1 Q12.1 -63.2 11.55 -60.2 M14.05 -44.35 Q13.8 -39.5 13.9 -35.75 14.0 -31.9 14.75 -28.25 15.5 -24.65 14.95 -20.8 14.3 -17.05 12.05 -13.9 L9.75 -11.85 8.6 -11.3 M-13.15 -43.7 Q-14.65 -41.05 -15.4 -38.25 -16.4 -34.6 -16.4 -30.65 L-15.95 -22.35 Q-15.5 -18.0 -13.8 -15.0 -12.15 -12.05 -9.0 -10.45"
         fill="none"
         stroke="#4f1d17"
         stroke-linecap="round"
         stroke-linejoin="round"
         stroke-width="1.0"
         id="path12" /><path
         d="M14.7 -46.8 Q17.5 -49.4 17.5 -52.75 17.5 -56.15 14.7 -58.75 L14.0 -58.0 Q16.45 -55.65 16.45 -52.75 16.45 -49.9 14.0 -47.5 L14.7 -46.8"
         fill="#4f1d17"
         fill-rule="evenodd"
         stroke="none"
         id="path13" /><path
         d="M-14.7 -44.9 L-13.95 -45.6 Q-16.45 -48.0 -16.45 -50.85 -16.45 -53.75 -13.95 -56.1 L-14.7 -56.85 Q-17.5 -54.25 -17.5 -50.85 -17.5 -47.5 -14.7 -44.9"
         fill="#4f1d17"
         fill-rule="evenodd"
         stroke="none"
         id="path14" /><path
         d="M13.1 -45.9 L12.35 -44.35 11.6 -44.35 12.15 -45.8 11.6 -45.8 11.6 -47.25 13.1 -47.25 13.1 -45.9 M10.2 -45.9 L9.45 -44.35 8.7 -44.35 9.25 -45.8 8.7 -45.8 8.7 -47.25 10.2 -47.25 10.2 -45.9"
         fill="#e7e0dc"
         fill-rule="evenodd"
         stroke="none"
         id="path15" /></g><radialGradient
       cx="0"
       cy="0"
       gradientTransform="matrix(0.0422, 0.0, 0.0, 0.0422, -1.65, -43.25)"
       gradientUnits="userSpaceOnUse"
       id="gradient0"
       r="819.2"
       spreadMethod="pad"><stop
         offset="0.0"
         stop-color="#a4a4a4"
         id="stop15" /><stop
         offset="1.0"
         stop-color="#646464"
         id="stop16" /></radialGradient><radialGradient
       cx="0"
       cy="0"
       gradientTransform="matrix(0.006, 0.0, 0.0, 0.006, 14.55, -14.95)"
       gradientUnits="userSpaceOnUse"
       id="gradient1"
       r="819.2"
       spreadMethod="pad"><stop
         offset="0.0"
         stop-color="#a4a4a4"
         id="stop17" /><stop
         offset="1.0"
         stop-color="#646464"
         id="stop18" /></radialGradient><radialGradient
       cx="0"
       cy="0"
       gradientTransform="matrix(0.0303, 0.0, 0.0, 0.0303, -13.75, -37.5)"
       gradientUnits="userSpaceOnUse"
       id="gradient2"
       r="819.2"
       spreadMethod="pad"><stop
         offset="0.0"
         stop-color="#a4a4a4"
         id="stop19" /><stop
         offset="1.0"
         stop-color="#646464"
         id="stop20" /></radialGradient><g
       id="sprite0"
       transform="matrix(1.0, 0.0, 0.0, 1.0, 3.0, 1.25)"><use
         height="2.5"
         transform="matrix(1.0, 0.0, 0.0, 1.0, -2.4, -1.25)"
         width="4.8"
         xlink:href="#shape1"
         id="use20" /></g><g
       id="shape1"
       transform="matrix(1.0, 0.0, 0.0, 1.0, 2.4, 1.25)"><path
         d="M1.9 0.75 Q0.05 -0.4 -1.9 -0.75"
         fill="none"
         stroke="#4f1d17"
         stroke-linecap="round"
         stroke-linejoin="round"
         stroke-width="1.0"
         id="path20" /></g><g
       id="shape2"
       transform="matrix(1.0, 0.0, 0.0, 1.0, -10.75, 40.6)"><path
         d="M12.95 -39.65 L14.3 -39.85 14.9 -40.05 15.25 -40.05 16.4 -39.65 Q17.05 -39.1 17.2 -38.2 L17.25 -37.8 17.75 -37.6 Q18.55 -37.1 18.7 -36.25 18.85 -35.4 18.25 -34.65 L17.95 -34.3 18.25 -33.45 Q18.4 -32.6 17.85 -31.9 L17.25 -31.4 16.85 -31.15 16.5 -31.05 16.45 -31.05 15.6 -31.05 15.05 -31.25 14.9 -31.1 14.05 -30.75 12.85 -30.95 Q12.15 -31.3 11.65 -32.0 L11.6 -32.1 11.55 -32.25 11.25 -33.0 11.2 -33.1 11.15 -33.2 11.15 -33.25 11.0 -33.7 10.9 -34.2 10.85 -34.25 Q10.7 -34.4 10.8 -34.7 L10.85 -34.95 11.0 -36.65 Q11.3 -37.85 11.85 -38.65 L11.9 -38.7 12.0 -38.85 12.15 -39.0 12.2 -39.05 12.25 -39.1 12.45 -39.3 12.55 -39.4 12.95 -39.65"
         fill="url(#gradient3)"
         fill-rule="evenodd"
         stroke="none"
         id="path21" /><path
         d="M12.95 -39.65 L14.3 -39.85 14.9 -40.05 15.25 -40.05 16.4 -39.65 Q17.05 -39.1 17.2 -38.2 L17.25 -37.8 17.75 -37.6 Q18.55 -37.1 18.7 -36.25 18.85 -35.4 18.25 -34.65 L17.95 -34.3 18.25 -33.45 Q18.4 -32.6 17.85 -31.9 L17.25 -31.4 16.85 -31.15 16.5 -31.05 16.45 -31.05 15.6 -31.05 15.05 -31.25 14.9 -31.1 14.05 -30.75 12.85 -30.95 Q12.15 -31.3 11.65 -32.0"
         fill="none"
         stroke="#4f1d17"
         stroke-linecap="round"
         stroke-linejoin="round"
         stroke-width="1.0"
         id="path22" /></g><radialGradient
       cx="0"
       cy="0"
       gradientTransform="matrix(0.0104, 0.0, 0.0, 0.0104, 16.45, -38.3)"
       gradientUnits="userSpaceOnUse"
       id="gradient3"
       r="819.2"
       spreadMethod="pad"><stop
         offset="0.0"
         stop-color="#a4a4a4"
         id="stop22" /><stop
         offset="1.0"
         stop-color="#646464"
         id="stop23" /></radialGradient></defs><g
     transform="matrix(2.0334691,0,0,2.0334691,71.92671,143.16544)"
     id="g3"><use
       height="60.950001"
       transform="translate(-17.5,-70.4)"
       width="35"
       xlink:href="#shape0"
       id="use1" /><use
       height="2.5"
       transform="translate(9.8,-56.5)"
       width="6"
       xlink:href="#sprite0"
       id="use2" /><use
       height="10.35"
       transform="translate(10.75,-40.6)"
       width="8.5"
       xlink:href="#shape2"
       id="use3-0" /></g></svg>
