<?xml version="1.0" encoding="UTF-8" standalone="no"?>
<svg
   height="182"
   width="160"
   version="1.1"
   id="svg6"
   sodipodi:docname="front-standing.svg"
   inkscape:version="1.4.2 (ebf0e94, 2025-05-08)"
   xmlns:inkscape="http://www.inkscape.org/namespaces/inkscape"
   xmlns:sodipodi="http://sodipodi.sourceforge.net/DTD/sodipodi-0.dtd"
   xmlns:xlink="http://www.w3.org/1999/xlink"
   xmlns="http://www.w3.org/2000/svg"
   xmlns:svg="http://www.w3.org/2000/svg">
  <sodipodi:namedview
     id="namedview6"
     pagecolor="#ffffff"
     bordercolor="#000000"
     borderopacity="0.25"
     inkscape:showpageshadow="2"
     inkscape:pageopacity="0.0"
     inkscape:pagecheckerboard="0"
     inkscape:deskcolor="#d1d1d1"
     inkscape:zoom="4.6318681"
     inkscape:cx="80.097272"
     inkscape:cy="73.728351"
     inkscape:window-width="1920"
     inkscape:window-height="1052"
     inkscape:window-x="1920"
     inkscape:window-y="0"
     inkscape:window-maximized="1"
     inkscape:current-layer="svg6" />
  <defs
     id="defs4">
    <g
       id="c">
      <path
         d="M.4-60h3.9l1.2.55 3.9-8.6 3.85 8.6L14.5-60l3.15 3.05 1.15 1.05-.05.05-.4.4.1.1q2.1 2.05 2.35 4.55v.6q0 1.65-.8 3.1l-.25.45-1.4 1.7.15.15-.3.25-3.25.9v4.7l-3.25.7-3.1.9.65 1.6 3.3-1.25 3-.6q1.55 0 2.15.6.8.8.8 2 0 1.1-.75 1.85-1.05 1.05-4.1 1.25l-1.25.05.35 1.5 1.5-.05-.05 2.75-1.5 1.25v12.25l-.85 4.6h-1.5V-3q0 .7-.45 1.15-.55.55-1.6.55-1.15 0-1.65-.55Q6.2-2.3 6.25-3v-6.55h-1.6l-2.35-3.5H.55L-3-9.55V-3q0 .7-.45 1.15-.55.55-1.6.55-1.1 0-1.65-.55-.45-.45-.4-1.15v-6.55h-1.55l-1.7-1.1-1.75-3.9v-3.9l.45-.4q.75-.6 1.35-1.55l-1.25-1-.7.95.4-10.95 1.75-12.8.4.35.75-.7-1-1.1q-1.55-1.9-1.5-4.15l.05-1q.35-2.3 2.45-4.25l-.75-.75.5-3.95.65.3 3.85-8.6 3.85 8.6L.4-60m10.1 14.7v1.9h1.3v-3.25h-1.15v-9.45h-6.2v3.85l-.05 1.1-.45 2.45-1 2.05H2v3.3h1.35v-1.95h7.15m-6.05-1.35.5-.9.9-3.55v-.05l.05-.35v-3.25h3.4v8.1H4.45m14.3-9.2-1.1-1.1 1.1 1.1M5.5-37.95Q4.45-39 2.25-39l-4 .75-3.1.9.65 1.6L-.9-37l3-.6q1.55 0 2.15.6.8.8.8 2 0 1.1-.75 1.85Q3.25-32.1.25-31.9l-1.3.05.35 1.5q3.95-.05 5.9-1.55l.45-.35q1-1 1-2.85-.05-1.8-1.15-2.85M-7.15-43.6l.75-1.55v-1.35h-1.5v1.45h.55l-.55 1.45h.75M-5-45.05h.55L-5-43.6h.75l.75-1.55v-1.35H-5v1.45"
         fill="#fff"
         fill-rule="evenodd"
         transform="translate(21.55 71)"
         id="path1" />
      <path
         d="m4.3-60 5.1-11 5.1 11-1.25.55-3.85-8.6-3.9 8.6L4.3-60m14.5 4.1.25-.3q2.55 2.35 2.8 5.4v.6q0 1.9-.9 3.55-.7 1.25-1.9 2.4l-.55-.55-.15-.15 1.4-1.7.25-.45q.8-1.45.8-3.1v-.6q-.25-2.5-2.35-4.55l-.1-.1.4-.4.05-.05m-3.85 16.95.75-.05q2.2 0 3.25 1.05 1.1 1.05 1.1 2.85 0 1.85-1 2.85l-.4.35q-1.55 1.2-4.4 1.5l-1.5.05-.35-1.5 1.25-.05q3.05-.2 4.1-1.25.75-.75.75-1.85 0-1.2-.8-2-.6-.6-2.15-.6l-3 .6-3.3 1.25-.65-1.6 3.1-.9 3.25-.7m-3.1 29.4v6.6q0 1.25-.8 2.05-.9.9-2.75.9-1.95 0-2.85-.9-.8-.8-.8-2.05v-6.6h1.6V-3q-.05.7.4 1.15.5.55 1.65.55 1.05 0 1.6-.55.45-.45.45-1.15v-6.55h1.5M-3-9.55h1.5v6.6q0 1.25-.8 2.05-.9.9-2.75.9-1.9 0-2.8-.9-.85-.8-.8-2.05v-6.6h1.55V-3q-.05.7.4 1.15.55.55 1.65.55 1.05 0 1.6-.55Q-3-2.3-3-3v-6.55m-9.1-8.9q-.7.45-1.6.45-1 0-2.7-1.1l-1.9-.65q-.85 0-1.3.55l-.6.95-1.35-.75 1.2-1.65q.85-.8 1.95-.8t2.3.8q1.65.85 2.55.85.6 0 1.3-.65l.7-.95 1.25 1q-.6.95-1.35 1.55l-.45.4m2-25.75-.6-.7q-1.85-2.2-1.8-4.9l.05-1q.35-2.8 2.75-5l.75.75q-2.1 1.95-2.45 4.25l-.05 1q-.05 2.25 1.5 4.15l1 1.1-.75.7-.4-.35m.9-15.55-.55-.25 5.05-11L.4-60l-1.25.55-3.85-8.6-3.85 8.6-.65-.3M2-43.4v-3.25h.95l1-2.05.45-2.45.05-1.1v-3.85h6.2v9.45h1.15v3.25h-1.3v-1.95H3.35v1.95H2m7.3-11.35v-.05H5.85v3.25l-.05.35v.05l-.9 3.55-.5.9-.05.05H9.3v-8.1m-3.8 16.8q1.1 1.05 1.15 2.85 0 1.85-1 2.85l-.45.35q-1.95 1.5-5.9 1.55l-.35-1.5 1.3-.05q3-.2 4.05-1.25.75-.75.75-1.85 0-1.2-.8-2-.6-.6-2.15-.6l-3 .6-3.3 1.25-.65-1.6 3.1-.9 4-.75q2.2 0 3.25 1.05M-5-45.05v-1.45h1.5v1.35l-.75 1.55H-5l.55-1.45H-5m-2.15 1.45h-.75l.55-1.45h-.55v-1.45h1.5v1.35l-.75 1.55"
         fill-rule="evenodd"
         transform="translate(21.55 71)"
         id="path2" />
      <path
         d="M.4-60h3.9m8.4 33.6v9.45m0 0v2.8m4.95-42.8 1.1 1.1"
         fill="none"
         stroke="#000"
         stroke-linecap="round"
         stroke-linejoin="round"
         transform="translate(21.55 71)"
         id="path3" />
    </g>
    <g
       id="d"
       transform="translate(.8)">
      <use
         height="3"
         transform="matrix(1.005 0 0 1 -.804 0)"
         width="4.65"
         xlink:href="#a"
         id="use3" />
      <use
         height="3"
         transform="matrix(1.005 0 0 1 16.096 0)"
         width="4.65"
         xlink:href="#a"
         id="use4" />
    </g>
    <path
       d="M1.35 0h.2l.55.1.45.35q.45.45.45 1L2.55 2.6q-.45.4-1 .4l-.8-.2-.25-.2-.45-.7v-.15L0 1.45v-.1q.05-.5.5-.9l.25-.2Q1 .05 1.3 0h.05m.45.85L1.55.8Q1.2.75 1 1q-.2.15-.2.45v.15l.15.45H1l.05.05.2.1.3.05.55-.2.15-.6-.05-.3L2.1 1 2.05.95 1.9.85h-.1"
       fill-rule="evenodd"
       id="b" />
    <use
       height="3"
       transform="translate(.8)"
       width="3"
       xlink:href="#b"
       id="a" />
    <radialGradient
       cx="0"
       cy="0"
       gradientTransform="matrix(0.0501, 0.0, 0.0, 0.0501, -1.4, -41.2)"
       gradientUnits="userSpaceOnUse"
       id="gradient0-920"
       r="819.2"
       spreadMethod="pad">
      <stop
         offset="0.0"
         stop-color="#a4a4a4"
         id="stop15-2" />
      <stop
         offset="1.0"
         stop-color="#646464"
         id="stop16-3" />
    </radialGradient>
    <radialGradient
       cx="0"
       cy="0"
       gradientTransform="matrix(0.0501, 0.0, 0.0, 0.0501, -1.4, -41.2)"
       gradientUnits="userSpaceOnUse"
       id="gradient1-7"
       r="819.2"
       spreadMethod="pad">
      <stop
         offset="0.0"
         stop-color="#a4a4a4"
         id="stop17-5" />
      <stop
         offset="1.0"
         stop-color="#646464"
         id="stop18-9" />
    </radialGradient>
    <radialGradient
       inkscape:collect="always"
       xlink:href="#gradient0-920"
       id="radialGradient19"
       gradientUnits="userSpaceOnUse"
       gradientTransform="matrix(0.0501,0,0,0.0501,-1.4,-41.2)"
       cx="0"
       cy="0"
       r="819.2"
       spreadMethod="pad" />
    <radialGradient
       inkscape:collect="always"
       xlink:href="#gradient1-7"
       id="radialGradient20"
       gradientUnits="userSpaceOnUse"
       gradientTransform="matrix(0.0501,0,0,0.0501,-1.4,-41.2)"
       cx="0"
       cy="0"
       r="819.2"
       spreadMethod="pad" />
  </defs>
  <g
     transform="matrix(2.1098087,0,0,2.1098087,81.073229,142)"
     id="g2">
    <g
       id="use1-3">
      <path
         d="m 11.45,-65.7 q 0.75,-0.3 1.05,-0.85 l 2.5,-0.4 q -0.35,1.45 -0.35,2.7 l 0.1,0.85 0.05,0.45 0.05,0.3 0.05,0.05 0.05,0.1 0.1,0.5 0.35,0.8 q -0.3,0.85 0,1.75 -0.5,0.7 -0.25,1.65 v 0.65 l 0.55,0.2 0.05,0.05 q 1.2,0.35 1.9,1.55 l 0.05,0.25 v 0.05 l 0.15,0.1 0.1,0.25 v 0.25 l 0.8,0.75 1.3,0.85 q -0.1,1.3 0.55,2.95 -1.6,2.15 -2,4.85 -2,2.05 -1.05,4.9 l -0.15,1.5 q -0.25,7.75 1.3,14.9 -0.35,1.5 -0.15,3.05 l 0.05,0.8 -0.7,1.05 v 0.3 l -0.15,1.3 q -0.1,1.25 -0.7,2.3 v 0.55 l -0.1,1.55 q -1.9,0.9 -2.1,2.95 l -0.05,0.05 q -5.2,2.1 -3,5.3 l -0.35,1.25 -0.8,0.2 0.05,0.15 -0.1,0.15 -0.05,0.1 -0.05,0.05 v 0.25 0.15 0.15 L 10.45,-2 10.4,-1.95 10.3,-1.85 10,-1.75 8.8,-1 8.6,-1.1 8.55,-1.05 8,-1 6.9,-1.35 5.95,-0.45 5.85,-1.4 5.9,-2.2 Q 5.35,-2.95 5.85,-3.55 5.65,-4.8 5.05,-5.9 5.45,-6.2 5.35,-6.45 5.45,-6.8 4.8,-7.1 L 4.4,-6.9 4.3,-7 Q 3.1,-7.05 2.5,-8.15 l -0.1,0.2 q -0.65,1.35 -1.95,1.4 -0.7,0.45 -1,-0.15 -0.35,0.9 -0.15,2.25 l 0.1,0.25 -0.2,0.7 -0.15,0.8 -0.1,0.8 Q -2.2,-1.15 -2.9,-0.1 L -4.2,-1.25 -4.25,-1.3 H -4.3 q -0.85,0.15 -0.9,-0.55 V -1.9 L -5.85,-2.3 -5.75,-2.65 -6,-3.5 -6.1,-5 v -0.95 l 0.15,-0.7 q -0.75,-1.9 -2.7,-3 -1.1,-1.85 -2.8,-3.25 l -0.1,-0.05 q -1.2,-3.35 -1.25,-7.05 -0.1,-2.3 -0.8,-4.15 l 0.3,-2.75 q 0.45,-3.25 0.2,-6.25 1.1,-1.05 1.65,-2.75 l 0.1,-0.35 0.85,-3.35 q 0.8,-3.6 -2.45,-4.4 l -0.35,-0.4 -0.25,-0.8 -0.4,-1.5 -0.1,-2.25 0.3,-0.95 1.7,-2.3 0.05,-0.15 -0.1,-0.1 0.3,-0.3 0.95,-1.55 1.15,-1.35 0.15,-0.5 -0.1,-0.4 -0.05,-0.1 -0.15,-0.35 -0.15,-0.2 -0.1,-0.05 0.05,-0.1 0.15,-1.05 q 0.15,-1.3 -0.05,-2.35 l -0.3,-1.05 0.5,-2.4 q 0.1,-1 0.75,-1.7 l 0.35,0.25 q -0.6,0.3 -0.75,1 0.35,-0.75 1.3,-0.9 1.9,0.5 3.4,1.9 l 0.25,0.2 1.15,0.75 0.3,0.65 0.7,0.7 q 0.75,0.7 1.15,1.55 0.4,0.25 0.5,0.8 1.05,0.85 2.05,0.45 0.9,0.3 1.7,-0.25 1.45,0.2 2.55,-0.6 l 0.05,-0.05 0.05,-0.5 H 5.8 l 0.55,-0.85 q 1.85,-1.3 3.15,-3.7 l 0.1,-0.2 0.15,-0.1 1.7,-0.9"
         fill="url(#gradient0)"
         fill-rule="evenodd"
         stroke="none"
         id="path6"
         style="fill:url(#radialGradient19)" />
      <path
         d="m -17.15,-24.3 v 0.15 l -0.15,1.5 0.15,-1.65 m -0.15,7.5 q 0.55,1.75 1.9,2.95 l 0.45,0.4 -0.3,-0.2 q -1.85,-1.15 -2.05,-3.15 m 2.6,-4.9 0.1,-1.2 q 0.15,-1.9 0.15,-3.9 v -0.05 q 0.3,2.15 0.05,4.3 l -0.2,0.65 -0.1,0.2"
         fill="#e7e0dc"
         fill-rule="evenodd"
         stroke="none"
         id="path7" />
      <path
         d="m -17.95,-35.6 -1.4,-0.25 -0.25,0.05 0.5,-0.15 1.15,0.35 m -1.7,3.25 0.15,0.25 -0.15,-0.2 v -0.05"
         fill="#58463f"
         fill-rule="evenodd"
         stroke="none"
         id="path8" />
      <path
         d="m -17.95,-35.6 0.15,0.1 0.3,0.3 0.75,0.75 v 0.1 l 0.05,0.05 v 0.05 l 0.15,0.1 0.05,0.25 0.1,0.2 0.05,0.05 0.1,0.1 v 0.3 0.05 l 0.2,0.35 0.15,0.45 0.9,3 0.05,0.2 0.3,1.3 0.2,1.05 v 0.05 q 0,2 -0.15,3.9 l -0.1,1.2 -0.15,0.8 -0.05,0.4 0.15,0.75 v 0.2 l 0.3,0.7 0.35,0.8 0.05,0.15 q 0.45,1.4 1.65,2.15 l 0.05,-0.15 0.05,-0.05 0.25,-0.05 0.15,0.3 q -0.15,1.15 0.35,1.75 0.5,0.6 0.45,0.85 l 0.45,0.6 q 0.45,1 0.25,1 l -1.8,-0.65 -2.75,-1.3 -0.45,-0.4 q -1.35,-1.2 -1.9,-2.95 l -0.05,-0.2 0.05,-5.25 v -0.4 l 0.15,-1.5 v -0.15 q 0.25,-1.7 -0.25,-3.35 l -0.2,-0.7 -0.15,-0.6 -0.6,-2.1 h -0.1 l -0.05,-0.1 h -0.25 l -0.3,-0.35 -0.35,-0.55 -0.1,-0.05 -0.15,-0.25 -0.05,-0.3 -0.4,-0.55 -0.05,-0.1 -0.4,-0.95 0.05,-1.05 0.05,-0.05 0.85,-0.45 0.25,-0.05 1.4,0.25"
         fill="url(#gradient1)"
         fill-rule="evenodd"
         stroke="none"
         id="path9"
         style="fill:url(#radialGradient20)" />
      <path
         d="m -17.95,-35.6 -1.4,-0.25 -0.25,0.05 q -1.5,0.1 -1.05,1.35 l 0.1,0.2 0.4,0.95 m 0.5,0.95 0.15,0.25 m 1.75,3.15 0.15,0.6 m 0.45,4.05 v 0.15 l -0.15,1.5 m 0,5.85 q 0.55,1.75 1.9,2.95 l 0.45,0.4 2.75,1.3 1.8,0.65 m -4.3,-10.2 0.1,-1.2 q 0.15,-1.9 0.15,-3.9 v -0.05 q -0.1,-1.95 -0.55,-3.7 -0.55,-1.85 -1.4,-3.55 -0.6,-1.1 -1.55,-1.5 m 0.2,6.65 q -0.45,-1.3 -1.25,-2.45 l -0.5,-0.7 m -0.15,-0.25 -0.5,-0.95 m 3,9 q 0,-1.8 -0.35,-3.6 l -0.1,-0.45 m 2.9,6.65 q -0.05,1.35 0.3,2.6 0.45,1.8 2.05,3.2 m -4.95,-0.9 -0.1,-0.25 q -0.55,-1.85 -0.15,-3.75 l 0.25,-1.85"
         fill="none"
         stroke="#4f1d17"
         stroke-linecap="round"
         stroke-linejoin="round"
         stroke-width="1"
         id="path10" />
      <path
         d="m -7.05,-9.6 v 6.65 q 0,1.2 0.8,2.05 0.9,0.85 2.8,0.9 1.9,-0.05 2.8,-0.9 0.8,-0.85 0.8,-2.05 V -9.6 H -1.4 V -3 q 0,0.7 -0.4,1.15 -0.55,0.5 -1.65,0.55 Q -4.55,-1.35 -5.1,-1.85 -5.55,-2.3 -5.55,-3 v -6.6 h -1.5"
         fill="#4f1d17"
         fill-rule="evenodd"
         stroke="none"
         id="path11" />
      <path
         d="m 4.65,-9.65 h 1.5 v 6.6 q 0,0.7 0.45,1.15 0.55,0.55 1.6,0.55 1.05,0 1.6,-0.55 0.4,-0.45 0.4,-1.15 v -6.6 h 1.55 V -3 q 0,1.25 -0.8,2.05 -0.9,0.9 -2.75,0.9 -1.85,0 -2.75,-0.9 -0.8,-0.8 -0.8,-2.05 v -6.65"
         fill="#4f1d17"
         fill-rule="evenodd"
         stroke="none"
         id="path12" />
      <path
         d="m 5.35,-58.65 q 0.95,-2.35 2.5,-4 1.5,-1.65 2.85,-2.5 l 2.65,-1.5 q 1.3,-0.6 1.45,1.05 l 0.35,3.6 q 0.15,1.6 -0.2,3.85 l -0.2,1.05 M 5.1,-58.6 4.1,-58.65 2.85,-58.7 H 1.7 l -2.15,0.3 q -0.6,-1.55 -2.15,-3.2 -1.55,-1.65 -2.85,-2.5 l -2.65,-1.5 q -1.3,-0.6 -1.45,1.05 l -0.35,3.6 0.05,2.8 0.35,2.1 m 26.8,14.8 q -0.25,4.85 -0.15,8.6 0.05,3.85 0.85,7.5 0.75,3.6 0.15,7.45 -0.6,3.75 -2.9,6.9 Q 14.3,-9.55 13,-8.75 L 11.85,-8.2 M -10,-40.6 l -0.55,1.05 -1.65,4.4 q -1,3.65 -1,7.6 -0.05,3.85 0.45,8.3 0.45,4.35 2.15,7.35 1.65,2.95 4.8,4.55"
         fill="none"
         stroke="#4f1d17"
         stroke-linecap="round"
         stroke-linejoin="round"
         stroke-width="1"
         id="path13" />
      <path
         d="m 17.95,-43.7 q 2.8,-2.6 2.8,-5.95 0,-3.4 -2.8,-6 l -0.75,0.75 q 2.5,2.35 2.5,5.25 0,2.85 -2.5,5.25 l 0.75,0.7"
         fill="#4f1d17"
         fill-rule="evenodd"
         stroke="none"
         id="path14" />
      <path
         d="m -11.5,-41.8 0.75,-0.7 q -2.5,-2.4 -2.5,-5.25 0,-2.9 2.5,-5.25 l -0.75,-0.75 q -2.8,2.6 -2.8,6 0,3.35 2.8,5.95"
         fill="#4f1d17"
         fill-rule="evenodd"
         stroke="none"
         id="path15" />
      <path
         d="m 9.25,-50.85 -1.1,-0.6 q -2.2,2.55 -2.25,5.1 0.05,1.5 0.65,2.15 0.65,0.6 1.6,0.65 1,-0.05 1.7,-0.7 0.4,-0.35 0.4,-0.65 l 0.45,0.8 q 0.65,0.5 1.65,0.55 1.25,-0.05 2.05,-0.8 1.2,-1.25 1.2,-3.75 0,-1.75 -0.65,-3.35 l -1.2,0.35 q 0.45,1.4 0.45,3 0,2 -0.8,2.85 -0.45,0.4 -1.1,0.45 l -0.9,-0.3 q -0.3,-0.35 -0.35,-0.8 l 0.45,-0.95 0.3,-1.65 q 0,-1.3 -0.55,-1.3 -0.45,0 -0.9,0.85 l -0.5,1.5 v 1.35 l -0.65,0.9 q -0.45,0.4 -1.05,0.45 -0.4,-0.05 -0.7,-0.25 -0.25,-0.35 -0.3,-1.35 0.05,-2.1 2.1,-4.5"
         fill="#4f1d17"
         fill-rule="evenodd"
         stroke="none"
         id="path16" />
      <path
         d="m 12.35,-34.95 3.45,-0.55 -0.25,-1.7 -3.1,0.75 q -2.65,0.7 -3.85,1.35 -1.9,1.1 -2.3,2.55 -0.4,1.45 0.5,3 0.95,1.6 2.3,1.95 2.55,0.65 6.35,-1.5 l -0.4,-1.45 q -3.55,2 -5.3,1.55 -1,-0.3 -1.55,-1.25 -0.6,-1.05 -0.3,-2.1 0.2,-0.85 1.55,-1.6 l 2.9,-1"
         fill="#4f1d17"
         fill-rule="evenodd"
         stroke="none"
         id="path17" />
      <path
         d="m -2.55,-37.25 -0.25,1.7 3.5,0.55 q 1.75,0.35 2.9,1 1.4,0.75 1.6,1.6 0.3,1.05 -0.3,2.1 -0.6,0.95 -1.65,1.25 -1.7,0.45 -5.25,-1.55 l -0.45,1.45 q 3.85,2.2 6.4,1.55 1.4,-0.35 2.35,-2 0.9,-1.55 0.45,-3 -0.4,-1.45 -2.35,-2.55 -1.15,-0.65 -3.8,-1.35 l -3.15,-0.75"
         fill="#4f1d17"
         fill-rule="evenodd"
         stroke="none"
         id="path18" />
      <path
         d="m -7.75,-44.15 h 1.5 v 1.45 H -6.8 l 0.55,1.45 H -7 l -0.75,-1.55 v -1.35 m 2.9,0 h 1.5 v 1.45 H -3.9 l 0.55,1.45 H -4.1 l -0.75,-1.55 v -1.35"
         fill="#e7e0dc"
         fill-rule="evenodd"
         stroke="none"
         id="path19" />
    </g>
    <g
       id="use2-6"
       transform="matrix(0.9976,0,0,0.9756,0.05022,-4.55082)">
      <g
         id="use20">
        <path
           d="m 15.75,-50.05 -0.4,0.25 -1.2,0.85 -0.6,0.45 M 0.6,-48 q -2.5,-1.5 -5.3,-1.6"
           fill="none"
           stroke="#643b36"
           stroke-linecap="round"
           stroke-linejoin="round"
           stroke-width="1"
           id="path20" />
      </g>
    </g>
  </g>
</svg>
