<?xml version="1.0" encoding="UTF-8" standalone="no"?>
<!-- Created with Inkscape (http://www.inkscape.org/) -->

<svg
   width="44.674984mm"
   height="50.882984mm"
   viewBox="0 0 44.674984 50.882984"
   version="1.1"
   id="svg1"
   xml:space="preserve"
   sodipodi:docname="drawing-1.svg"
   inkscape:version="1.3.2 (091e20e, 2023-11-25, custom)"
   xmlns:inkscape="http://www.inkscape.org/namespaces/inkscape"
   xmlns:sodipodi="http://sodipodi.sourceforge.net/DTD/sodipodi-0.dtd"
   xmlns="http://www.w3.org/2000/svg"
   xmlns:svg="http://www.w3.org/2000/svg"><sodipodi:namedview
     id="namedview1"
     pagecolor="#ffffff"
     bordercolor="#000000"
     borderopacity="0.25"
     inkscape:showpageshadow="2"
     inkscape:pageopacity="0.0"
     inkscape:pagecheckerboard="0"
     inkscape:deskcolor="#d1d1d1"
     inkscape:document-units="mm"
     inkscape:zoom="1"
     inkscape:cx="389"
     inkscape:cy="216.5"
     inkscape:window-width="1363"
     inkscape:window-height="1041"
     inkscape:window-x="2356"
     inkscape:window-y="42"
     inkscape:window-maximized="0"
     inkscape:current-layer="layer1"
     showguides="false"
     showgrid="false" /><defs
     id="defs1"><linearGradient
       id="swatch38"
       inkscape:swatch="solid"><stop
         style="stop-color:#f5f5f5;stop-opacity:1;"
         offset="0"
         id="stop38" /></linearGradient><linearGradient
       id="swatch37"
       inkscape:swatch="solid"><stop
         style="stop-color:#000000;stop-opacity:1;"
         offset="0"
         id="stop37" /></linearGradient><linearGradient
       id="swatch32"
       inkscape:swatch="solid"><stop
         style="stop-color:#000000;stop-opacity:1;"
         offset="0"
         id="stop32" /></linearGradient></defs><g
     inkscape:label="Layer 1"
     inkscape:groupmode="layer"
     id="layer1"
     transform="translate(-0.24050801,-0.24050801)"><rect
       style="fill:none;fill-opacity:1;stroke:none;stroke-width:0.481016;stroke-linecap:butt;stroke-linejoin:miter;stroke-dasharray:none;stroke-opacity:1;paint-order:normal"
       id="rect37"
       width="44.674984"
       height="50.882984"
       x="0.24050801"
       y="0.24050801"
       ry="0"
       rx="0"
       inkscape:export-filename="5.svg"
       inkscape:export-xdpi="96"
       inkscape:export-ydpi="96" /><g
       id="g99"
       transform="translate(-58.737501,-42.068752)"><path
         style="fill:none;stroke:#000000;stroke-width:0.4;stroke-dasharray:none;stroke-opacity:1"
         id="path31-0-9-0-2-1"
         sodipodi:type="arc"
         sodipodi:cx="76.18721"
         sodipodi:cy="63.136318"
         sodipodi:rx="3.8308399"
         sodipodi:ry="8.3343439"
         sodipodi:start="2.1514197"
         sodipodi:end="3.5610709"
         sodipodi:arc-type="arc"
         d="M 74.085821,70.104837 A 3.8308399,8.3343439 0 0 1 72.688498,59.741873"
         sodipodi:open="true" /><path
         style="fill:none;stroke:#000000;stroke-width:0.4;stroke-dasharray:none;stroke-opacity:1"
         id="path32-9-1-7-4-4"
         sodipodi:type="arc"
         sodipodi:cx="81.818596"
         sodipodi:cy="61.417233"
         sodipodi:rx="10.248065"
         sodipodi:ry="6.666532"
         sodipodi:start="4.5926728"
         sodipodi:end="6.1263808"
         sodipodi:arc-type="arc"
         d="m 80.594665,54.798416 a 10.248065,6.666532 0 0 1 11.346266,5.577753"
         sodipodi:open="true" /><path
         style="fill:none;stroke:#000000;stroke-width:0.4;stroke-dasharray:none;stroke-opacity:1"
         id="path35-6-1-6-3-8"
         sodipodi:type="arc"
         sodipodi:cx="90.127899"
         sodipodi:cy="65.946091"
         sodipodi:rx="3.4040329"
         sodipodi:ry="5.5951972"
         sodipodi:start="5.3765344"
         sodipodi:end="1.1248293"
         sodipodi:arc-type="arc"
         d="m 92.226099,61.540187 a 3.4040329,5.5951972 0 0 1 1.285598,5.015069 3.4040329,5.5951972 0 0 1 -1.915535,4.438788"
         sodipodi:open="true" /><path
         style="fill:none;stroke:#000000;stroke-width:0;stroke-dasharray:none;stroke-opacity:1"
         d="m 91.72521,66.164088 c 0.0165,0.0193 0.0298,0.042 0.0496,0.0579 0.0221,0.0177 0.0498,0.0273 0.0744,0.0413 0.0332,0.019 0.0657,0.0394 0.0992,0.0579 0.0464,0.0256 0.0939,0.0492 0.14056,0.0744 0.10356,0.056 0.21587,0.11636 0.31419,0.1819 0.0323,0.0215 0.0999,0.0687 0.13229,0.10749 0.004,0.005 0.005,0.011 0.008,0.0165"
         id="path50-1-2-9-5-0" /><path
         style="fill:none;stroke:#000000;stroke-width:0.2;stroke-dasharray:none;stroke-opacity:1"
         d="m 91.6354,70.846133 -0.12299,0.08862 c -0.002,0.0018 0.002,0.006 0,0.008 -0.002,0.002 -0.0438,0.0315 -0.0448,0.0328 -7.1e-4,7.9e-4 -0.0215,0.0479 -0.0224,0.0492 -0.006,0.009 -0.0164,0.0158 -0.0224,0.0246 -0.032,0.0469 0.007,0.005 -0.0224,0.041 -0.007,0.009 -0.0187,0.0151 -0.0224,0.0246 -0.0162,0.0416 0.0175,0.0223 -0.0112,0.0574 -0.0221,0.027 -0.0226,0.005 -0.0336,0.0328 -0.005,0.0134 -0.008,0.0272 -0.0112,0.041 -0.001,0.005 0.003,0.0115 0,0.0164 -0.005,0.007 -0.0177,0.01 -0.0224,0.0164 -0.003,0.005 0.002,0.0111 0,0.0164 -0.002,0.006 -0.009,0.0104 -0.0112,0.0164 -0.002,0.005 0,0.0109 0,0.0164 -0.004,0.005 -0.008,0.0106 -0.0112,0.0164 -10e-4,0.003 0,0.006 0,0.008 v 0.0164 0.0574 0.008 c 0,0.003 0.001,0.006 0,0.008 -0.0233,0.0682 7.2e-4,-0.01 -0.0224,0.041 -0.001,0.003 0,0.005 0,0.008 0,0.006 0.002,0.0111 0,0.0164 -0.002,0.006 -0.009,0.0105 -0.0112,0.0164 -0.002,0.005 0.003,0.0112 0,0.0164 -0.002,0.004 -0.009,0.005 -0.0112,0.008 -0.002,0.002 0,0.006 0,0.008 v 0.008"
         id="path61-1-1-1-6-0"
         sodipodi:nodetypes="cssccscssccccccccsccsccsccccsc" /><path
         style="fill:none;stroke:#000000;stroke-width:0.429363;stroke-dasharray:none;stroke-opacity:1"
         id="path71-2-3-88-0-3"
         sodipodi:type="arc"
         sodipodi:cx="84.172035"
         sodipodi:cy="70.915176"
         sodipodi:rx="7.4573665"
         sodipodi:ry="2.3903956"
         sodipodi:start="0.017030254"
         sodipodi:end="2.0444889"
         sodipodi:arc-type="arc"
         d="m 91.62832,70.955883 a 7.4573665,2.3903956 0 0 1 -3.621949,2.009511 7.4573665,2.3903956 0 0 1 -7.236203,0.07697"
         sodipodi:open="true" /><path
         style="fill:none;stroke:#000000;stroke-width:0.402556;stroke-dasharray:none;stroke-opacity:1"
         id="path77-0-9-8-3-1"
         transform="matrix(0.73160522,-0.68172854,0.55707058,0.83046515,0,0)"
         d="M 32.216237,96.351115 A 2.9347785,1.4888777 0 0 1 28.294342,96.57147 2.9347785,1.4888777 0 0 1 27.484991,94.612203"
         sodipodi:type="arc"
         sodipodi:arc-type="arc"
         sodipodi:start="0.72323758"
         sodipodi:end="3.6722719"
         sodipodi:ry="1.4888777"
         sodipodi:rx="2.9347785"
         sodipodi:cy="95.365753"
         sodipodi:cx="30.01613"
         sodipodi:open="true" /><path
         style="fill:none;stroke:#000000;stroke-width:0.400019;stroke-dasharray:none;stroke-opacity:1"
         id="path78-7-7-9-5-8"
         transform="matrix(0.65874849,-0.75236322,0.74317822,0.66909352,0,0)"
         sodipodi:type="arc"
         sodipodi:cx="6.602787"
         sodipodi:cy="94.262283"
         sodipodi:rx="2.331296"
         sodipodi:ry="1.0679586"
         sodipodi:start="0.10804945"
         sodipodi:end="3.3365412"
         sodipodi:arc-type="arc"
         d="M 8.9204876,94.377451 A 2.331296,1.0679586 0 0 1 7.4817456,95.25143 2.331296,1.0679586 0 0 1 5.119584,95.086227 2.331296,1.0679586 0 0 1 4.3156513,94.055403"
         sodipodi:open="true" /><path
         style="fill:none;stroke:#000000;stroke-width:0.400084;stroke-dasharray:none;stroke-opacity:1"
         id="path79-8-0-3-0-5"
         transform="matrix(0.70274787,-0.71143899,0.69071875,0.72312351,0,0)"
         sodipodi:type="arc"
         sodipodi:cx="13.903642"
         sodipodi:cy="95.372131"
         sodipodi:rx="2.8008327"
         sodipodi:ry="1.3753573"
         sodipodi:start="0.8202903"
         sodipodi:end="3.081061"
         sodipodi:arc-type="arc"
         d="m 15.813835,96.37799 a 2.8008327,1.3753573 0 0 1 -2.948766,0.271449 2.8008327,1.3753573 0 0 1 -1.75713,-1.194106"
         sodipodi:open="true" /><path
         style="fill:none;stroke:#000000;stroke-width:0.35;stroke-dasharray:none;stroke-opacity:1"
         d="m 69.47969,53.035688 h -0.152 c -0.0156,0 -0.0312,-10e-4 -0.0468,0 -0.0313,0.003 -0.0622,0.009 -0.0935,0.0117 -0.0427,0.003 -0.0859,-0.003 -0.12863,0 -0.0275,0.002 -0.0546,0.007 -0.0819,0.0117 -0.0234,0.004 -0.0466,0.009 -0.0702,0.0117 -0.008,10e-4 -0.0156,0 -0.0234,0 -0.004,0 -0.009,-0.003 -0.0117,0 -0.003,0.003 0.003,0.009 0,0.0117 -0.003,0.003 -0.008,0 -0.0117,0 -0.008,0 -0.016,-0.002 -0.0234,0 -0.0156,0.008 -0.0312,0.0156 -0.0468,0.0234 0,0.004 0.003,0.009 0,0.0117 -0.003,0.003 -0.009,-0.003 -0.0117,0 -0.003,0.003 -0.003,0.009 0,0.0117 0.006,0.006 0.015,0.009 0.0234,0.0117 0.0191,0.005 0.0394,0.006 0.0585,0.0117 0.11374,0.0341 0.003,0.0161 0.11693,0.0351 0.004,5.3e-4 0.008,0 0.0117,0 h 0.0117 c 0.004,0 0.008,-0.002 0.0117,0 0.001,5.3e-4 0.0218,0.0223 0.0234,0.0234 0.006,0.0258 0.0241,0.006 0.0351,0.0117 0.005,0.002 0.007,0.009 0.0117,0.0117 0.0312,0 -0.004,-0.004 0.0117,0.0117 0.003,0.003 0.0117,-0.004 0.0117,0 0,0.006 -0.007,0.009 -0.0117,0.0117 -0.0188,0.009 -0.0401,0.0132 -0.0585,0.0234 -0.017,0.009 -0.033,0.0213 -0.0468,0.0351 -0.01,0.01 -0.0156,0.0234 -0.0234,0.0351 -0.0117,0.0156 -0.0213,0.033 -0.0351,0.0468 -0.0138,0.0138 -0.033,0.0213 -0.0468,0.0351 -0.1372,0.1372 -0.0276,0.0345 -0.0935,0.11693 -0.007,0.009 -0.0193,0.0131 -0.0234,0.0234 -0.004,0.0108 0.002,0.0235 0,0.0351 -0.005,0.0292 -0.031,0.0633 -0.0234,0.0935 0.002,0.008 0.008,0.0153 0.0117,0.0234 0.005,0.0114 0.004,0.0252 0.0117,0.0351 0.005,0.007 0.0156,0.008 0.0234,0.0117 0.0199,-0.004 0.0225,0.0171 0.0351,0.0234 0.004,0.002 0.008,0 0.0117,0 h 0.0585 0.0117 c 0.004,0 0.009,-0.003 0.0117,0 0.003,0.003 0.003,0.01 0,0.0117 -0.0103,0.007 -0.0241,0.006 -0.0351,0.0117 -0.11743,0.0587 0.0617,-0.0147 -0.0819,0.0468 -0.0113,0.005 -0.0244,0.006 -0.0351,0.0117 -0.0169,0.01 -0.0307,0.024 -0.0468,0.0351 -0.0347,0.024 -0.0718,0.0444 -0.10524,0.0702 -0.0236,0.0182 -0.0573,0.0614 -0.0818,0.0819 -0.0108,0.009 -0.0273,0.0117 -0.0351,0.0234 -0.009,0.0134 -0.007,0.0315 -0.0117,0.0468 -0.0113,0.034 -0.0122,0.0163 -0.0351,0.0468 -0.0152,0.0202 -0.0117,0.0237 -0.0117,0.0468 v 0.0117 c 0,0.004 -0.003,0.009 0,0.0117 0.003,0.003 0.009,0.002 0.0117,0 0.0132,-0.01 0.0222,-0.0247 0.0351,-0.0351 0.0335,-0.0268 0.0227,0.005 0.0702,-0.0234 0.008,-0.004 0.005,-0.0172 0.0117,-0.0234 0.003,-0.003 0.009,0.003 0.0117,0 0.003,-0.003 -0.004,-0.01 0,-0.0117 0.007,-0.003 0.0164,-0.003 0.0234,0 0.004,0.002 5.3e-4,0.008 0,0.0117 -0.003,0.0273 -0.007,0.0546 -0.0117,0.0819 -0.004,0.0234 -0.007,0.047 -0.0117,0.0701 -0.007,0.0314 -0.0196,0.0616 -0.0234,0.0935 -0.004,0.0348 0.002,0.0702 0,0.10523 -0.002,0.0352 -0.01,0.07 -0.0117,0.10524 -0.002,0.0272 0,0.0546 0,0.0819 v 0.0702 0.10524 c 0,0.008 -0.003,0.0164 0,0.0234 0.002,0.003 0.008,0 0.0117,0 0.0224,0 0.03,10e-4 0.0585,-0.0117 0.0687,-0.0305 0.0586,-0.0417 0.11693,-0.0935 0.0145,-0.0129 0.0318,-0.0226 0.0468,-0.0351 0.008,-0.007 0.0135,-0.0184 0.0234,-0.0234 0.004,-0.002 0,0.008 0,0.0117 v 0.0234 0.0585 c 0,0.0195 -0.002,0.0391 0,0.0585 0.002,0.0122 0.008,0.0234 0.0117,0.0351 0.004,0.0195 0.01,0.0387 0.0117,0.0585 0.002,0.0233 -0.004,0.0471 0,0.0702 0.004,0.0207 0.0179,0.0382 0.0234,0.0585 0.0142,0.0519 0.014,0.12563 0.0234,0.1754 0.005,0.0279 0.0156,0.0546 0.0234,0.0819 0.008,0.0273 0.015,0.0547 0.0234,0.0819 0.007,0.0236 0.0174,0.0462 0.0234,0.0702 0.0317,0.0283 0.005,0.0627 0.0117,0.0935 0.002,0.0121 0.009,0.0231 0.0117,0.0351 10e-4,0.004 0,0.008 0,0.0117 v 0.0234 c 0,0.008 -0.002,0.0158 0,0.0234 0.002,0.008 0.008,0.0153 0.0117,0.0234 0.005,0.0114 0.008,0.0232 0.0117,0.0351 0.004,0.0155 0.008,0.0311 0.0117,0.0468 0.004,0.0194 0.004,0.04 0.0117,0.0585 0.008,0.0211 0.0263,0.0375 0.0351,0.0585 0.0109,0.0262 0.0132,0.0554 0.0234,0.0819 0.009,0.0244 0.0234,0.0468 0.0351,0.0702 0.008,0.0156 0.0144,0.0318 0.0234,0.0468 0.003,0.005 0.009,0.007 0.0117,0.0117 0.005,0.011 0.006,0.0241 0.0117,0.0351 0.002,0.005 0.009,0.007 0.0117,0.0117 0.002,0.003 -0.004,0.0117 0,0.0117 0.004,0 0,-0.008 0,-0.0117 v -0.0702 -0.0351 c 0,-0.004 0.004,-0.0117 0,-0.0117 -0.004,0 -0.002,0.008 0,0.0117 0.0103,0.024 0.0206,0.0484 0.0351,0.0702 0.009,0.0138 0.0255,0.0216 0.0351,0.0351 0.0101,0.0142 0.0142,0.032 0.0234,0.0468 0.0103,0.0165 0.0251,0.0301 0.0351,0.0468 0.0135,0.0224 0.0234,0.0468 0.0351,0.0702 0.0273,0.0546 0.0546,0.10913 0.0819,0.1637 0.092,0.19033 0.37006,1.13571 0.36251,0.468 -4e-5,-0.004 0.0545,0.13816 0,-0.0117 -0.22494,-0.44988 -0.0701,-0.25512 0.0117,-0.10526 0.0125,0.023 0.0234,0.0468 0.0351,0.0701 0.0195,0.0312 0.0404,0.0615 0.0585,0.0935 0.0171,0.0304 0.0295,0.0633 0.0468,0.0935 0.0139,0.0244 0.0312,0.0468 0.0468,0.0702 0.0156,0.0234 0.0302,0.0474 0.0468,0.0702 0.0147,0.0202 0.0334,0.0374 0.0468,0.0585 0.014,0.0221 0.0234,0.0468 0.0351,0.0702 0.008,0.0156 0.0125,0.0332 0.0234,0.0468 0.39302,0.26897 0.27369,1.02145 0.43265,0.4094 0.004,0.003 0.006,0.0117 0.0117,0.0117 0.004,0 0.001,-0.008 0,-0.0117 -0.007,-0.0162 -0.0169,-0.0306 -0.0234,-0.0468 -0.009,-0.0229 -0.0145,-0.0471 -0.0234,-0.0702 -0.16317,-0.39176 -0.0774,-0.20238 0.0818,0.0702 0.0179,0.0284 0.0394,0.0543 0.0585,0.0819 0.016,0.0231 0.0308,0.0471 0.0468,0.0702 0.0191,0.0276 0.0394,0.0543 0.0585,0.0819 0.016,0.0231 0.0288,0.0486 0.0468,0.0701 0.0212,0.0254 0.0468,0.0468 0.0702,0.0702 0.0273,0.0273 0.0569,0.0524 0.0818,0.0819 0.0182,0.0214 0.0292,0.0482 0.0468,0.0701 0.0138,0.0172 0.033,0.0296 0.0468,0.0468 0.0176,0.0219 0.028,0.0493 0.0468,0.0701 0.0276,0.0307 0.11478,0.082 0.14032,0.10524 0.0185,0.0168 0.0291,0.0408 0.0468,0.0585 0.0138,0.0138 0.0312,0.0234 0.0468,0.0351 0.0156,0.0117 0.032,0.0224 0.0468,0.0351 0.0168,0.0143 0.0312,0.0312 0.0468,0.0468 0.004,0.004 0.007,0.009 0.0117,0.0117 0.004,0.002 0.008,0 0.0117,0 h 0.0117 c 0.004,0 0.009,0.003 0.0117,0 0.0187,-0.0187 0.0117,-0.0481 0.0117,-0.0702 0,-0.0156 0.002,-0.0313 0,-0.0468 -0.002,-0.0198 -0.007,-0.0393 -0.0117,-0.0585 -0.0105,-0.0393 -0.0231,-0.078 -0.0351,-0.11694 -0.004,-0.0118 -0.006,-0.024 -0.0117,-0.0351 -0.002,-0.003 -0.002,0.009 0,0.0117 0.01,0.0132 0.0234,0.0234 0.0351,0.0351 0.0234,0.0234 0.0468,0.0468 0.0702,0.0701 0.0312,0.0312 0.0631,0.0617 0.0935,0.0935 0.0514,0.0539 0.0994,0.11105 0.15201,0.1637 0.0215,0.0215 0.0486,0.0369 0.0702,0.0585 0.0177,0.0177 0.0281,0.0419 0.0468,0.0585 0.017,0.0151 0.0405,0.0211 0.0585,0.0351 0.0522,0.0406 0.0409,0.0468 0.0819,0.0936 0.0437,0.0499 0.0638,0.058 0.11693,0.10523 0.0124,0.011 0.0225,0.0243 0.0351,0.0351 0.0148,0.0127 0.0312,0.0234 0.0468,0.0351 0.0156,0.0156 0.0302,0.0323 0.0468,0.0468 0.0416,0.0364 0.0486,0.0286 0.0818,0.0702 0.006,0.007 0.006,0.0172 0.0117,0.0234 0.01,0.01 0.0241,0.0146 0.0351,0.0234 0.009,0.007 0.0139,0.0177 0.0234,0.0234 0.0106,0.006 0.0252,0.004 0.0351,0.0117 0.007,0.005 0.005,0.0172 0.0117,0.0234 0.003,0.003 0.009,0.003 0.0117,0 0.003,-0.003 5.3e-4,-0.008 0,-0.0117 -0.012,-0.096 -0.004,-0.0613 -0.0351,-0.14032 -0.008,-0.0195 -0.0193,-0.0379 -0.0234,-0.0585 -0.004,-0.0191 0.003,-0.0392 0,-0.0585 -7.9e-4,-0.005 -0.006,-0.0117 -0.0117,-0.0117 -0.004,0 0,0.008 0,0.0117 0,0.0328 -0.004,0.0394 0.0117,0.0702 0.006,0.0126 0.0164,0.0229 0.0234,0.0351 0.009,0.0151 0.0142,0.032 0.0234,0.0468 0.0119,0.0191 0.0717,0.0926 0.0819,0.10524 0.0156,0.0195 0.0339,0.0371 0.0468,0.0585 0.0108,0.018 0.0122,0.0407 0.0234,0.0585 0.009,0.014 -0.2514,-0.0175 -0.23971,-0.006 0.0117,0.0117 0.29818,0.0643 0.30987,0.076 0.0195,0.0195 0.0377,0.0403 0.0585,0.0585 0.0106,0.009 0.0238,0.0149 0.0351,0.0234 0.0224,0.0168 0.002,0.008 0.0234,0.0351 0.0104,0.0129 0.0234,0.0234 0.0351,0.0351 0.004,0.004 0.008,0.008 0.0117,0.0117 0.008,0.008 0.0146,0.0168 0.0234,0.0234 0.007,0.005 0.0151,0.009 0.0234,0.0117 0.004,0.001 0.009,-0.003 0.0117,0 0.003,0.003 -0.003,0.009 0,0.0117 0.006,0.006 0.0172,0.006 0.0234,0.0117 0.006,0.006 0.005,0.0172 0.0117,0.0234 0.006,0.006 0.0172,0.006 0.0234,0.0117 0.0416,0.0416 0.002,0.0351 0.0468,0.0351"
         id="path97-4-4-7-7-6"
         sodipodi:nodetypes="cscccscsscscccsscscsscccccsccccsccscccsccscssccccsssssssscccccscccscsscscscscsccscsccsssssccscssccssssssccccsscsscssssssscscssssssscscsssssscscsscssscccsscsccsccsccssscssscsccccccscsssssscsssssscccccccsscccc" /><path
         style="fill:none;stroke:#000000;stroke-width:0.35;stroke-dasharray:none;stroke-opacity:1"
         d="m 75.66531,56.251278 c -0.1224,-0.14688 -0.19031,-0.14677 -0.26894,-0.30402 -0.0172,-0.0343 -0.0296,-0.0709 -0.0468,-0.10524 -0.014,-0.0281 -0.0327,-0.0537 -0.0468,-0.0819 -0.0271,-0.0814 0.008,0.006 -0.0351,-0.0585 -0.002,-0.003 0,-0.0156 0,-0.0117 v 0.0468 c 0,0.0117 -0.002,0.0236 0,0.0351 0.002,0.0121 0.009,0.023 0.0117,0.0351 0.005,0.0234 -0.009,0.0376 0.0117,0.0585 0.003,0.003 0,-0.008 0,-0.0117 0,-0.0156 0.007,-0.0328 0,-0.0468 -0.0136,-0.0272 -0.0416,-0.0448 -0.0585,-0.0702 -0.0145,-0.0218 -0.0227,-0.0471 -0.0351,-0.0702 -0.0149,-0.0277 -0.0303,-0.0551 -0.0468,-0.0819 -0.0147,-0.0239 -0.0335,-0.0454 -0.0468,-0.0702 -0.0141,-0.0261 -0.0225,-0.055 -0.0351,-0.0819 -0.0147,-0.0316 -0.032,-0.0619 -0.0468,-0.0935 -0.0125,-0.0269 -0.0234,-0.0546 -0.0351,-0.0818 -0.0363,-0.0847 -0.0457,-0.10487 -0.0818,-0.19879 -0.009,-0.023 -0.0142,-0.0473 -0.0234,-0.0702 0.004,-0.0199 -0.0171,-0.0225 -0.0234,-0.0351 -0.007,-0.0144 0.0196,-0.0234 -0.0234,-0.0234 -0.004,0 0,0.008 0,0.0117 v 0.0234 0.14032 0.10524 0.0468 c 0,0.0117 -0.003,0.0237 0,0.0351 0.001,0.005 0.006,0.0117 0.0117,0.0117 0.004,0 0.002,-0.008 0,-0.0117 -0.0102,-0.0203 -0.0242,-0.0385 -0.0351,-0.0585 -0.0125,-0.023 -0.021,-0.0481 -0.0351,-0.0702 -0.0134,-0.0211 -0.0312,-0.039 -0.0468,-0.0585 -0.0156,-0.0195 -0.0312,-0.039 -0.0468,-0.0585 -0.0156,-0.0195 -0.0291,-0.0408 -0.0468,-0.0585 -0.0138,-0.0138 -0.0354,-0.0192 -0.0468,-0.0351 -0.009,-0.0131 -0.004,-0.0328 -0.0117,-0.0468 -0.0483,-0.0845 -0.0166,-0.005 -0.0585,-0.0468 -0.006,-0.006 -0.009,-0.0151 -0.0117,-0.0234 -0.001,-0.004 0.003,-0.009 0,-0.0117 -0.003,-0.003 -0.008,0.002 -0.0117,0 -0.005,-0.002 -0.008,-0.008 -0.0117,-0.0117 -0.008,-0.008 -0.0156,-0.0156 -0.0234,-0.0234 -0.008,-0.008 -0.0156,-0.0156 -0.0234,-0.0234 -0.0117,-0.0117 -0.0245,-0.0224 -0.0351,-0.0351 -0.009,-0.0108 -0.0134,-0.0251 -0.0234,-0.0351 l -0.38587,-0.5409 c -0.0237,-0.0237 -0.0357,-0.0572 -0.0585,-0.0819 -0.0244,-0.0264 -0.0564,-0.0447 -0.0818,-0.0702 -0.0254,-0.0254 -0.0458,-0.0554 -0.0702,-0.0819 -0.0224,-0.0243 -0.0468,-0.0468 -0.0702,-0.0702 -0.0195,-0.0195 -0.039,-0.039 -0.0585,-0.0585 -0.0234,-0.0234 -0.0457,-0.0479 -0.0702,-0.0702 -0.0185,-0.0168 -0.0408,-0.0291 -0.0585,-0.0468 -0.0177,-0.0177 -0.0303,-0.0397 -0.0468,-0.0585 -0.8211,-0.75886 -0.26043,-0.23722 -0.0818,-0.0702 -0.009,-0.007 -0.0156,-0.0156 -0.0234,-0.0234 -0.0321,-0.0322 -0.0349,-0.0366 -0.0819,-0.0702 -0.007,-0.005 -0.0147,-0.0117 -0.0234,-0.0117 -0.004,0 -5.3e-4,0.008 0,0.0117 0.003,0.0196 0.007,0.0392 0.0117,0.0585 0.003,0.012 0.0102,0.0229 0.0117,0.0351 0.002,0.0194 -0.002,0.0391 0,0.0585 0.0166,0.13299 0.0117,-0.0824 0.0117,0.0819 v 0.0468 c 0,0.004 -0.004,0.0117 0,0.0117 0.004,0 0.002,-0.008 0,-0.0117 -0.002,-0.005 -0.009,-0.007 -0.0117,-0.0117 -0.005,-0.007 -0.55065,-0.57668 -0.55605,-0.58358 -0.0692,-0.089 0.46657,0.51345 0.41573,0.43156 -0.13519,-0.21774 -0.34113,-0.15015 -0.36575,-0.16805 -0.0184,-0.0134 0.25603,0.0871 0.23712,0.0745 -0.0279,-0.0186 -0.17049,0.0404 -0.19347,0.0159 -0.75327,-0.80324 -0.23182,0.10519 -1.14674,-0.7829 -0.0215,-0.0209 0.0464,0.31393 0.0189,0.29034 -0.0273,-0.0234 -0.0554,-0.0458 -0.0819,-0.0702 -0.0243,-0.0224 -0.0478,-0.0458 -0.0702,-0.0702 -0.0206,-0.0224 -0.0358,-0.0498 -0.0585,-0.0702 -0.0169,-0.0152 -0.0414,-0.0201 -0.0585,-0.0351 -0.0147,-0.0128 -0.0213,-0.033 -0.0351,-0.0468 -0.0313,-0.0313 -0.0353,-0.0121 -0.0585,-0.0468 -0.002,-0.003 0.004,-0.0117 0,-0.0117 -0.004,0 0,0.008 0,0.0117 0,0.0195 -0.005,0.0396 0,0.0585 0.003,0.0136 0.0179,0.0222 0.0234,0.0351 0.0127,0.0295 0.0107,0.064 0.0234,0.0935 0.0528,0.12312 0.004,-0.0441 0.0234,0.0702 0.002,0.0121 0.009,0.0231 0.0117,0.0351 0.001,0.004 -0.003,0.009 0,0.0117 0.003,0.003 0.0117,0.004 0.0117,0 0,-0.004 -0.008,0.001 -0.0117,0 -0.008,-0.003 -0.0172,-0.006 -0.0234,-0.0117 -0.0138,-0.0138 -0.0199,-0.0346 -0.0351,-0.0468 -0.0245,-0.0196 -0.0546,-0.0312 -0.0818,-0.0468 -0.14361,-0.0821 -0.0184,-0.0142 -0.18709,-0.0935 -0.0315,-0.0148 -0.0628,-0.0304 -0.0936,-0.0468 -0.0277,-0.0148 -0.053,-0.0344 -0.0819,-0.0468 -0.0348,-0.0149 -0.10521,-0.0234 -0.14032,-0.0468 -0.007,-0.005 -0.004,-0.0186 -0.0117,-0.0234 -0.007,-0.004 -0.0156,0 -0.0234,0 -0.004,0 -0.009,-0.003 -0.0117,0 -0.003,0.003 -0.003,0.009 0,0.0117 0.006,0.006 0.0172,0.006 0.0234,0.0117 0.003,0.003 -0.002,0.0185 0,0.0234 0.0551,0.11029 0.002,-0.003 0.0351,0.0468 0.009,0.0134 0.0207,0.0449 0.0234,0.0585 0.002,0.008 -0.004,0.0164 0,0.0234 0.002,0.003 0.0117,0.004 0.0117,0 0,-0.004 -0.008,10e-4 -0.0117,0 -0.008,-0.003 -0.0159,-0.007 -0.0234,-0.0117 -0.012,-0.007 -0.0229,-0.0164 -0.0351,-0.0234 -0.0151,-0.009 -0.0315,-0.0149 -0.0468,-0.0234 -0.0199,-0.011 -0.0378,-0.0257 -0.0585,-0.0351 -0.0224,-0.0102 -0.0464,-0.0166 -0.0702,-0.0234 -0.0778,-0.0222 -0.14064,-0.0335 -0.22216,-0.0468 -0.33719,-0.0547 -0.2079,-0.0379 -0.44434,-0.0585 -0.15882,-0.0138 -0.0818,-0.0117 -0.19878,-0.0117 -0.008,0 -0.0164,-0.003 -0.0234,0 -0.004,0.002 -0.002,0.008 0,0.0117 0.002,0.005 0.009,0.007 0.0117,0.0117 0.005,0.007 0.006,0.0172 0.0117,0.0234 0.006,0.006 0.0172,0.006 0.0234,0.0117 0.01,0.01 0.0124,0.0263 0.0234,0.0351 0.01,0.008 0.0255,0.004 0.0351,0.0117 0.011,0.009 0.0134,0.0251 0.0234,0.0351 0.006,0.006 0.0156,0.008 0.0234,0.0117 0.0117,0.0156 0.0238,0.0309 0.0351,0.0468 0.008,0.0114 0.0162,0.023 0.0234,0.0351 0.004,0.007 0.0117,0.0147 0.0117,0.0234 0,0.004 -0.008,0 -0.0117,0 -0.0195,0 -0.0393,0.003 -0.0585,0 -0.0243,-0.004 -0.0461,-0.0178 -0.0702,-0.0234 -0.0268,-0.006 -0.0547,-0.007 -0.0819,-0.0117 -0.0391,-0.007 -0.0774,-0.0194 -0.11693,-0.0234 -0.0388,-0.004 -0.078,0 -0.11693,0 H 69.0927 c -0.039,0 -0.0781,-0.004 -0.11693,0 -0.005,5.3e-4 -0.009,0.007 -0.0117,0.0117 -0.006,0.0115 0.005,0.017 0.0117,0.0234 0.004,0.004 0.007,0.01 0.0117,0.0117 0.007,0.002 0.0161,-0.003 0.0234,0 0.013,0.005 0.0241,0.0146 0.0351,0.0234 0.009,0.007 0.0139,0.0177 0.0234,0.0234 0.0106,0.006 0.0264,0.003 0.0351,0.0117 0.009,0.009 0.003,0.0264 0.0117,0.0351 0.009,0.009 0.0245,0.005 0.0351,0.0117 0.009,0.006 0.0148,0.0165 0.0234,0.0234 0.011,0.009 0.0251,0.0134 0.0351,0.0234 0.006,0.006 0.007,0.0161 0.0117,0.0234 0.003,0.005 0.008,0.008 0.0117,0.0117 0.0117,0.0117 0.0234,0.0234 0.0351,0.0351 0.008,0.008 0.0156,0.0156 0.0234,0.0234 0.004,0.004 0.007,0.009 0.0117,0.0117 0.0344,0.0172 -0.0154,-0.0271 0.0234,0.0117"
         id="path98-4-9-2-4-6"
         sodipodi:nodetypes="cssccsscccssssscsscccssscccscscssssssccsccccsscccccssssccccscsccssscccsssssscsssscssssccccscccssscccsssccsscsccccsccsscccccccccccssccccsssccccccccscccccccc" /><path
         style="fill:none;stroke:#000000;stroke-width:0.4;stroke-dasharray:none;stroke-opacity:1"
         d="m 75.5939,56.217408 c 0.011,0 0.0221,-10e-4 0.0331,0 0.0497,0.005 0.16941,0.0366 0.19017,0.0413 0.0137,0.003 0.0282,0.003 0.0413,0.008 0.0446,0.0167 0.0113,0.0103 0.0331,0.0248 0.0103,0.007 0.0228,0.01 0.0331,0.0165 0.003,0.002 0.005,0.006 0.008,0.008 0.003,0.003 0.005,0.006 0.008,0.008 0.003,0.003 0.006,0.005 0.008,0.008 0.006,0.008 0.0102,0.0172 0.0165,0.0248 0.008,0.009 0.0165,0.0165 0.0248,0.0248 0.0193,0.0193 0.0386,0.0386 0.0579,0.0579 0.005,0.005 0.011,0.011 0.0165,0.0165 0.003,0.003 0.006,0.005 0.008,0.008 0.003,0.006 0.005,0.011 0.008,0.0165 0,0.003 -0.001,0.006 0,0.008 0.002,0.004 0.006,0.006 0.008,0.008"
         id="path99-4-9-8-1-8" /><path
         style="fill:none;stroke:#000000;stroke-width:0.148773;stroke-dasharray:none;stroke-opacity:1"
         d="m 73.02268,59.823498 c 0,0.0111 -0.003,0.0257 0.006,0.0351 0.007,0.007 0.0165,0.0107 0.0234,0.0175 0.003,0.003 0.004,0.008 0.006,0.0117 0.006,0.004 0.0119,0.007 0.0175,0.0117 0.002,0.002 0.004,0.004 0.006,0.006 0.002,0.004 0.002,0.009 0.006,0.0117 0.005,0.004 0.0125,0.002 0.0175,0.006 0.009,0.006 0.015,0.0162 0.0234,0.0234 0.005,0.005 0.0118,0.008 0.0175,0.0117 0.0314,0.0224 0.0127,0.0122 0.0351,0.0234"
         id="path100-4-73-0-0" /><path
         style="fill:none;stroke:#000000;stroke-width:0.402556;stroke-dasharray:none;stroke-opacity:1"
         id="path77-0-9-8-1-0-5"
         transform="matrix(0.73160522,-0.68172854,0.55707058,0.83046515,0,0)"
         d="m 37.121912,98.468681 a 2.9347785,1.4888777 0 0 1 0.153733,2.011199 2.9347785,1.4888777 0 0 1 -3.936299,0.25122 2.9347785,1.4888777 0 0 1 -0.832952,-1.96785"
         sodipodi:type="arc"
         sodipodi:arc-type="arc"
         sodipodi:start="5.5022195"
         sodipodi:end="3.6722719"
         sodipodi:ry="1.4888777"
         sodipodi:rx="2.9347785"
         sodipodi:cy="99.5168"
         sodipodi:cx="35.037533"
         sodipodi:open="true" /><path
         style="fill:none;stroke:#000000;stroke-width:0.400019;stroke-dasharray:none;stroke-opacity:1"
         id="path78-7-7-9-7-4-4"
         transform="matrix(0.65874849,-0.75236322,0.74317822,0.66909352,0,0)"
         sodipodi:type="arc"
         sodipodi:cx="10.590551"
         sodipodi:cy="98.782303"
         sodipodi:rx="2.331296"
         sodipodi:ry="1.0679586"
         sodipodi:start="6.2732028"
         sodipodi:end="3.3365412"
         sodipodi:arc-type="arc"
         d="M 12.921731,98.771642 A 2.331296,1.0679586 0 0 1 11.636522,99.736737 2.331296,1.0679586 0 0 1 9.179243,99.632334 2.331296,1.0679586 0 0 1 8.3034157,98.575422"
         sodipodi:open="true" /><path
         style="fill:none;stroke:#000000;stroke-width:0.400084;stroke-dasharray:none;stroke-opacity:1"
         id="path79-8-0-3-6-2-8"
         transform="matrix(0.70274787,-0.71143899,0.69071875,0.72312351,0,0)"
         sodipodi:type="arc"
         sodipodi:cx="18.217539"
         sodipodi:cy="99.649597"
         sodipodi:rx="2.8008327"
         sodipodi:ry="1.3753573"
         sodipodi:start="6.0488435"
         sodipodi:end="3.081061"
         sodipodi:arc-type="arc"
         d="m 20.941818,99.330235 a 2.8008327,1.3753573 0 0 1 -0.919925,1.371295 2.8008327,1.3753573 0 0 1 -2.90827,0.21209 2.8008327,1.3753573 0 0 1 -1.691787,-1.180821"
         sodipodi:open="true" /><path
         style="fill:none;stroke:#000000;stroke-width:0.4;stroke-dasharray:none;stroke-opacity:1"
         d="m 81.58001,56.241475 c 0.011,0 0.0221,-10e-4 0.0331,0 0.0497,0.005 0.16941,0.0366 0.19017,0.0413 0.0137,0.003 0.0282,0.003 0.0413,0.008 0.0446,0.0167 0.0113,0.0103 0.0331,0.0248 0.0103,0.007 0.0228,0.01 0.0331,0.0165 0.003,0.002 0.005,0.006 0.008,0.008 0.003,0.003 0.005,0.006 0.008,0.008 0.003,0.003 0.006,0.005 0.008,0.008 0.006,0.008 0.0102,0.0172 0.0165,0.0248 0.008,0.009 0.0165,0.0165 0.0248,0.0248 0.0193,0.0193 0.0386,0.0386 0.0579,0.0579 0.005,0.005 0.011,0.011 0.0165,0.0165 0.003,0.003 0.006,0.005 0.008,0.008 0.003,0.006 0.005,0.011 0.008,0.0165 0,0.003 -0.001,0.006 0,0.008 0.002,0.004 0.006,0.006 0.008,0.008"
         id="path99-4-9-8-4-9-7" /><path
         style="fill:none;stroke:#000000;stroke-width:0.148773;stroke-dasharray:none;stroke-opacity:1"
         d="m 79.00879,59.847565 c 0,0.0111 -0.003,0.0257 0.006,0.0351 0.007,0.007 0.0165,0.0107 0.0234,0.0175 0.003,0.003 0.004,0.008 0.006,0.0117 0.006,0.004 0.0119,0.007 0.0175,0.0117 0.002,0.002 0.004,0.004 0.006,0.006 0.002,0.004 0.002,0.009 0.006,0.0117 0.005,0.004 0.0125,0.002 0.0175,0.006 0.009,0.006 0.015,0.0162 0.0234,0.0234 0.005,0.005 0.0118,0.008 0.0175,0.0117 0.0314,0.0224 0.0127,0.0122 0.0351,0.0234"
         id="path100-4-73-9-3-9" /><path
         style="fill:none;stroke:#000000;stroke-width:0.451849;stroke-dasharray:none;stroke-opacity:1"
         d="m 91.95751,60.427125 c 0.43443,0.290621 0.34385,0.663415 0.25107,1.000883 0.013,0.01492 -0.0103,0.0166 -0.0151,0.02322 -0.003,0.003 0,0.1325 0,0.01156 v 0.0059"
         id="path101-1-3-1-6"
         sodipodi:nodetypes="cccsc" /><path
         style="fill:none;stroke:#000000;stroke-width:0.35;stroke-dasharray:none;stroke-opacity:1"
         d="m 81.65533,56.757304 c -0.0513,-0.10269 -0.0243,-0.0333 -0.0468,-0.12862 -0.011,-0.0469 -0.0251,-0.0931 -0.0351,-0.14032 -0.006,-0.027 -0.008,-0.0546 -0.0117,-0.0818 -0.007,-0.0481 -0.0159,-0.10726 -0.0351,-0.15201 -0.0124,-0.0289 -0.0327,-0.0538 -0.0468,-0.0819 -0.0266,-0.0531 -0.0436,-0.1106 -0.0702,-0.16371 -0.014,-0.0281 -0.0319,-0.0542 -0.0468,-0.0819 -0.0559,-0.10382 -0.0124,-0.0362 -0.0702,-0.12862 -0.0421,-0.0673 -0.006,-0.004 -0.0702,-0.0935 -0.005,-0.007 -0.007,-0.0161 -0.0117,-0.0234 -0.003,-0.005 -0.009,-0.007 -0.0117,-0.0117 -0.002,-0.003 0.003,-0.009 0,-0.0117 -0.003,-0.003 -0.009,-0.003 -0.0117,0 -0.003,0.003 0,0.008 0,0.0117 v 0.0585 0.0234 c 0,0.004 -0.004,0.0117 0,0.0117 0.004,0 0.003,-0.009 0,-0.0117 -0.006,-0.006 -0.0172,-0.006 -0.0234,-0.0117 -0.006,-0.006 -0.007,-0.0159 -0.0117,-0.0234 -0.007,-0.0121 -0.0142,-0.0244 -0.0234,-0.0351 -0.0143,-0.0167 -0.0321,-0.0303 -0.0468,-0.0468 -0.096,-0.10801 0.003,-0.005 -0.0935,-0.14031 -0.0209,-0.0292 -0.048,-0.0536 -0.0702,-0.0819 -0.0124,-0.0157 -0.0922,-0.12853 -0.10523,-0.152 -0.0254,-0.0457 -0.0479,-0.093 -0.0702,-0.14032 -0.009,-0.019 -0.016,-0.0388 -0.0234,-0.0585 -0.004,-0.0115 5.3e-4,-0.0351 -0.0117,-0.0351 -0.0117,0 0.002,0.0235 0,0.0351 -0.002,0.0159 -0.009,0.0309 -0.0117,0.0468 -0.001,0.008 0.002,0.0158 0,0.0234 -0.002,0.008 -0.009,0.0151 -0.0117,0.0234 -0.007,0.0216 0.0178,0.006 -0.0117,0.0351 -0.003,0.003 0.002,-0.008 0,-0.0117 -0.006,-0.009 -0.0179,-0.0138 -0.0234,-0.0234 -0.0104,-0.0182 -0.014,-0.0397 -0.0234,-0.0585 -0.0102,-0.0203 -0.0234,-0.039 -0.0351,-0.0585 -0.0117,-0.0312 -0.0209,-0.0634 -0.0351,-0.0935 -0.0171,-0.0363 -0.0412,-0.069 -0.0585,-0.10523 -0.0218,-0.0457 -0.0383,-0.0939 -0.0585,-0.14032 -0.0188,-0.0432 -0.0389,-0.0858 -0.0585,-0.12862 -0.0428,-0.0936 -0.0857,-0.18713 -0.12862,-0.28064 -0.12952,-0.28189 -0.007,-0.0255 -0.15201,-0.29232 -0.21755,-0.39885 0.0677,0.10393 -0.10523,-0.19878 -0.0156,-0.0273 -0.0293,-0.0557 -0.0468,-0.0819 -0.0473,-0.071 -0.0408,-0.045 -0.0935,-0.10523 -0.0128,-0.0147 -0.0238,-0.0309 -0.0351,-0.0468 -0.008,-0.0114 -0.0164,-0.0229 -0.0234,-0.0351 -0.0213,-0.0372 -0.0155,-0.0467 -0.0468,-0.0701 -0.007,-0.005 -0.0147,-0.0117 -0.0234,-0.0117 -0.004,0 5.3e-4,0.008 0,0.0117 -0.0147,0.0885 -0.0117,0.027 -0.0117,0.10523 v 0.26894 c 0,0.10905 -0.002,0.0114 0.0117,0.16371 7.9e-4,0.008 -0.002,0.016 0,0.0234 0.002,0.005 0.0117,0.006 0.0117,0.0117 0,0.004 -0.01,0.003 -0.0117,0 -0.0486,-0.1216 0.006,1.5e-4 -0.0585,-0.10524 -0.0328,-0.0536 -0.0645,-0.10798 -0.0935,-0.1637 -0.0178,-0.034 -0.0312,-0.0702 -0.0468,-0.10524 -0.0156,-0.0351 -0.0303,-0.0705 -0.0468,-0.10523 -0.0186,-0.0394 -0.039,-0.078 -0.0585,-0.11693 -0.039,-0.0702 -0.0822,-0.13812 -0.11693,-0.21048 -0.0123,-0.0256 -0.0132,-0.0554 -0.0234,-0.0818 -0.009,-0.0244 -0.0234,-0.0468 -0.0351,-0.0702 -0.0195,-0.039 -0.039,-0.0779 -0.0585,-0.11693 -0.0117,-0.0234 -0.0216,-0.0477 -0.0351,-0.0702 -0.01,-0.0167 -0.0256,-0.0297 -0.0351,-0.0468 -0.0102,-0.0183 -0.0156,-0.039 -0.0234,-0.0585 -0.008,-0.0195 -0.0156,-0.039 -0.0234,-0.0585 -0.014,-0.0349 -0.044,-0.11142 -0.0585,-0.14032 -0.0102,-0.0203 -0.023,-0.0392 -0.0351,-0.0585 -0.007,-0.012 -0.0307,-0.0504 -0.0468,-0.0585 -0.004,-0.002 0,0.008 0,0.0117 v 0.0117 0.0351 0.0351 c 0,0.0156 7.9e-4,0.0312 0,0.0468 -0.003,0.0624 -0.009,0.12466 -0.0117,0.18709 -0.001,0.0351 0.002,0.0702 0,0.10524 -8e-4,0.0207 0.004,0.15493 -0.0234,0.21047 -0.002,0.004 0.002,-0.008 0,-0.0117 -0.0135,-0.0271 -0.0358,-0.0508 -0.0585,-0.0702 -0.0148,-0.0127 -0.033,-0.0213 -0.0468,-0.0351 -0.0177,-0.0177 -0.031,-0.0392 -0.0468,-0.0585 -0.0193,-0.0236 -0.0379,-0.0477 -0.0585,-0.0702 -0.0224,-0.0244 -0.0474,-0.0461 -0.0702,-0.0702 -0.0439,-0.0465 -0.12896,-0.13493 -0.1754,-0.19878 -0.13811,-0.1899 0.0551,0.0675 -0.0935,-0.16371 -0.0165,-0.0256 -0.0395,-0.0464 -0.0585,-0.0701 -1.7e-4,-2.2e-4 -0.0701,-0.0934 -0.0702,-0.0935 -0.0108,-0.0126 -0.0234,-0.0234 -0.0351,-0.0351 l -0.0234,-0.0234 c -0.004,-0.004 -0.007,-0.009 -0.0117,-0.0117 -0.007,-0.005 -0.0182,-0.005 -0.0234,-0.0117 -0.007,-0.01 -0.004,-0.0255 -0.0117,-0.0351 -0.0211,-0.0141 -0.0433,-0.0256 -0.0585,-0.0468 -0.0132,-0.0185 -0.0209,-0.0407 -0.0351,-0.0585 -0.0476,-0.0595 -0.10493,-0.0906 -0.1637,-0.14032 -0.0168,-0.0142 -0.0296,-0.033 -0.0468,-0.0468 -0.0358,-0.0286 -0.0891,-0.0572 -0.12862,-0.0819 -0.096,-0.06 0.0414,0.0155 -0.0935,-0.0351 -0.0132,-0.005 -0.0234,-0.0156 -0.0351,-0.0234 -0.0117,-0.008 -0.0229,-0.0164 -0.0351,-0.0234 -0.0151,-0.009 -0.0316,-0.0147 -0.0468,-0.0234 -0.0122,-0.007 -0.0225,-0.0171 -0.0351,-0.0234 -0.004,-0.002 -0.008,0 -0.0117,0 -0.004,0 -0.0117,-0.004 -0.0117,0 0,0.0258 0.0402,0.0814 0.0468,0.0935 0.0125,0.023 0.0227,0.0471 0.0351,0.0702 1.5e-4,2.6e-4 0.0935,0.16357 0.0936,0.1637 0.0133,0.0265 0.0247,0.0541 0.0351,0.0818 0.001,0.004 -0.004,0.0117 0,0.0117 0.004,0 0.002,-0.009 0,-0.0117 -0.01,-0.0132 -0.022,-0.0249 -0.0351,-0.0351 -0.0375,-0.0292 -0.13983,-0.09 -0.1754,-0.10524 -0.0846,-0.0363 -0.38605,-0.14931 -0.5028,-0.18709 -0.0657,-0.0213 -0.13326,-0.0366 -0.19878,-0.0585 -0.0515,-0.0172 -0.10074,-0.0406 -0.15201,-0.0585 -0.0384,-0.0134 -0.0777,-0.0242 -0.11693,-0.0351 -0.031,-0.009 -0.0633,-0.0126 -0.0935,-0.0234 -0.0966,-0.0345 -0.0374,-0.0335 -0.11693,-0.0468 -0.008,-10e-4 -0.0156,0 -0.0234,0 h -0.0585 -0.0234 c -0.0117,0 -0.0236,-0.002 -0.0351,0 -0.0171,0.003 -0.0297,0.02 -0.0468,0.0234 -0.0115,0.002 -0.024,-0.004 -0.0351,0 -0.004,10e-4 -0.002,0.008 0,0.0117 0.002,0.005 0.009,0.007 0.0117,0.0117 0.002,0.003 -10e-4,0.008 0,0.0117 0.009,0.0344 0.0183,0.0484 0.0351,0.0819 0.004,0.008 0.007,0.0161 0.0117,0.0234 0.0357,0.0536 -0.019,-0.0497 0.0234,0.0351 0.004,0.008 0.0117,0.0146 0.0117,0.0234 0,0.004 -0.008,10e-4 -0.0117,0 -0.0674,-0.0169 -10e-4,-0.0111 -0.0935,-0.0234 -0.0597,-0.008 -0.23377,-0.0217 -0.28063,-0.0234 -0.0545,-0.002 -0.10914,0 -0.16371,0 h -0.46772 -0.14032 -0.0117 c -0.004,0 -0.009,-0.003 -0.0117,0 -0.003,0.003 -0.002,0.008 0,0.0117 0.0163,0.0326 0.0326,0.0443 0.0585,0.0702 l 0.0702,0.0702 c 0.0156,0.0156 0.0302,0.0322 0.0468,0.0468 0.021,0.0183 0.10022,0.0727 0.11693,0.0819 0.0907,0.0495 0.0321,-0.003 0.0819,0.0468 0.008,0.008 0.0173,0.0142 0.0234,0.0234 0.002,0.003 0.003,0.009 0,0.0117 -0.0345,0.0258 -0.0467,0.02 -0.0819,0.0351 -0.016,0.007 -0.0312,0.0156 -0.0468,0.0234 -0.51823,0.21261 -0.44674,0.74152 -0.37856,0.7485 0.27359,0.028 -0.24056,1.82089 0.29534,0.77521 0.18487,-0.36071 -0.17548,0.84651 -0.13664,0.96658 0.18433,0.56986 0.29089,0.1307 0.40699,0.17632 0.01,0.0396 0.0252,0.0774 0.0351,0.11693 0.0309,0.1234 0.0199,0.1458 0.0585,0.28063 0.008,0.0285 0.0251,0.0539 0.0351,0.0818 0.01,0.0267 0.0138,0.0551 0.0234,0.0819 0.01,0.028 0.0251,0.0539 0.0351,0.0819 0.0612,0.1714 -0.0126,-0.002 0.0468,0.15201 4e-5,9e-5 0.0701,0.16355 0.0702,0.1637 0.0202,0.0504 0.0397,0.10107 0.0585,0.15201 0.0309,0.0839 0.0135,0.0525 0.0468,0.12862 0.0164,0.0636 0.0556,0.11644 0.0819,0.1754 0.008,0.0192 0.0132,0.0401 0.0234,0.0585 0.007,0.0135 0.0502,0.0627 0.0585,0.0818 0.006,0.0148 0.006,0.0319 0.0117,0.0468 0.002,0.005 0.006,0.0117 0.0117,0.0117 0.004,0 0,-0.008 0,-0.0117 v -0.0234 c 0,-0.15645 0.007,-0.005 -0.0234,-0.1754 -0.003,-0.0159 -0.0229,-0.21249 -0.0234,-0.22217 -0.002,-0.0311 0,-0.0624 0,-0.0935 0,-0.0234 0.002,-0.0469 0,-0.0702 -0.0155,-0.15474 -0.0117,0.0594 -0.0117,-0.0935 0,-0.004 -10e-4,0.008 0,0.0117 0.003,0.012 0.006,0.0244 0.0117,0.0351 0.01,0.0169 0.0239,0.0308 0.0351,0.0468 0.0161,0.023 0.0299,0.0477 0.0468,0.0702 0.20269,0.27024 0.15327,-0.0403 0.33033,0.22216 0.19457,0.28838 0.38281,0.80316 0.40494,1.11931 0.0256,0.36523 1.82262,2.292743 2.08572,2.585083"
         id="path104-8-6-4-4"
         sodipodi:nodetypes="csssssscsccccsscssscsscccssssccccccsscssssssscscscscssccscsssscssssscsssscsccscccccssscssssccccccscscscccscssssccsccsssscscscssccccccccscsssccsscsscccccccssscsscssssscssccsssscscsccccssc" /><path
         style="fill:none;stroke:#000000;stroke-width:0.41555;stroke-dasharray:none;stroke-opacity:1"
         id="path105-0-0-6-9"
         sodipodi:type="arc"
         sodipodi:cx="81.690582"
         sodipodi:cy="69.167206"
         sodipodi:rx="7.825943"
         sodipodi:ry="3.9018345"
         sodipodi:start="1.6642198"
         sodipodi:end="2.9254867"
         sodipodi:arc-type="arc"
         d="M 80.960519,73.052025 A 7.825943,3.9018345 0 0 1 74.046672,70.003868"
         sodipodi:open="true" /><path
         style="fill:none;stroke:#000000;stroke-width:0.302;stroke-dasharray:none;stroke-opacity:1"
         d="m 91.81293,71.734948 c 0.14962,-0.19687 0.10334,-0.41422 -0.0326,-0.62054 -0.001,-0.002 10e-4,-0.006 0,-0.008 -0.004,-0.007 -0.013,-0.01 -0.0165,-0.0165 -0.001,-0.002 0.002,-0.006 0,-0.008 -0.002,-0.002 -0.006,0.002 -0.008,0 -0.002,-0.002 10e-4,-0.006 0,-0.008 -0.004,-0.007 -0.013,-0.01 -0.0165,-0.0165 0,-0.022 0.003,0.003 -0.008,-0.008 -0.011,-0.011 0.0138,-0.008 -0.008,-0.008"
         id="path108-0-7-6-4"
         sodipodi:nodetypes="ccccsccccc" /><path
         style="fill:none;stroke:#000000;stroke-width:0.4;stroke-dasharray:none;stroke-opacity:1"
         d="m 74.01978,70.239378 c -0.0212,0.0254 -0.0561,0.0203 -0.0819,0.0351 -0.0169,0.01 -0.0309,0.0238 -0.0468,0.0351 -0.0114,0.008 -0.0229,0.0163 -0.0351,0.0234 -0.28107,0.16396 0.0219,-0.0247 -0.16371,0.10524 -0.0295,0.0293 -0.0718,0.0362 -0.10523,0.0585 -0.009,0.006 -0.0156,0.0156 -0.0234,0.0234 -0.008,0.008 -0.0156,0.0156 -0.0234,0.0234 -0.008,0.008 -0.0177,0.0139 -0.0234,0.0234 -0.006,0.0106 -0.006,0.0244 -0.0117,0.0351 -0.01,0.0169 -0.0263,0.0293 -0.0351,0.0468 -0.007,0.0144 -0.009,0.0309 -0.0117,0.0468 -0.0134,0.0872 -0.0117,0.0848 -0.0117,0.15201 0,0.0351 0,0.0702 0,0.10524 0,0.0117 -0.002,0.0235 0,0.0351 0.006,0.0434 0.0342,0.10566 0.0468,0.14031 0.004,0.0116 0.006,0.0241 0.0117,0.0351 1.8e-4,2.7e-4 0.0464,0.0695 0.0468,0.0702 0.009,0.0151 0.0156,0.0312 0.0234,0.0468 0.004,0.008 0.008,0.0156 0.0117,0.0234 0.004,0.008 0.005,0.0172 0.0117,0.0234 0.003,0.003 0.009,-0.003 0.0117,0 0.006,0.006 0.008,0.0156 0.0117,0.0234 0.004,0.008 0.007,0.0161 0.0117,0.0234 0.0388,0.0388 -0.005,-0.011 0.0117,0.0234 0.002,0.005 0.009,0.007 0.0117,0.0117 0.002,0.003 -0.003,0.009 0,0.0117 0.006,0.006 0.0164,0.006 0.0234,0.0117 0.009,0.007 0.0156,0.0156 0.0234,0.0234 0.004,0.004 0.007,0.009 0.0117,0.0117 0.008,0.004 0.0156,0.008 0.0234,0.0117 0.004,0 0.008,-0.002 0.0117,0 0.0126,0.006 0.022,0.0182 0.0351,0.0234 0.007,0.003 0.0158,-0.002 0.0234,0 0.008,0.002 0.0151,0.009 0.0234,0.0117 0.003,8e-4 0.0216,-7.9e-4 0.0234,0 0.0535,0.0268 -0.0496,-0.005 0.0351,0.0234 0.004,10e-4 0.009,-0.003 0.0117,0 0.003,0.003 -0.003,0.009 0,0.0117 0.003,0.003 0.008,-10e-4 0.0117,0 0.008,0.003 0.0156,0.008 0.0234,0.0117"
         id="path114-0-7-7-2" /><path
         style="fill:none;stroke:#000000;stroke-width:0.4;stroke-dasharray:none;stroke-opacity:1"
         d="m 73.88017,71.566308 c -0.0195,0.0195 -0.0514,-0.0251 -0.0709,-0.006 -0.004,0.008 -0.007,0.0164 -0.0117,0.0234 -0.007,0.009 -0.0146,0.0168 -0.0234,0.0234 -0.007,0.005 -0.0172,0.006 -0.0234,0.0117 -0.006,0.006 -0.007,0.0161 -0.0117,0.0234 -0.003,0.005 -0.009,0.007 -0.0117,0.0117 -0.005,0.011 -0.004,0.0252 -0.0117,0.0351 -0.005,0.007 -0.0172,0.006 -0.0234,0.0117 -0.006,0.006 -0.008,0.0156 -0.0117,0.0234 -0.004,0.008 -0.008,0.0153 -0.0117,0.0234 -0.009,0.0229 -0.0142,0.0473 -0.0234,0.0702 -0.0264,0.066 -0.003,-0.0392 -0.0468,0.10524 -0.003,0.0112 0,0.0234 0,0.0351 v 0.10524 0.11693 c 0,0.0195 -0.002,0.0391 0,0.0585 0.002,0.0122 0.008,0.0232 0.0117,0.0351 0.0294,0.10278 -0.005,-0.002 0.0234,0.0819 0.004,0.0117 0.007,0.0238 0.0117,0.0351 0.007,0.016 0.0165,0.0308 0.0234,0.0468 0.0187,0.0437 0.004,0.0353 0.0351,0.0819 0.006,0.009 0.0173,0.0142 0.0234,0.0234 0.01,0.0145 0.0147,0.0316 0.0234,0.0468 0.007,0.0122 0.0153,0.0236 0.0234,0.0351 0.0192,0.0275 0.0375,0.0557 0.0585,0.0819 0.0207,0.0258 0.049,0.0447 0.0702,0.0702 0.009,0.0108 0.0134,0.0251 0.0234,0.0351 0.0138,0.0138 0.0309,0.0238 0.0468,0.0351 0.0584,0.0417 0.0423,0.0214 0.12862,0.0819 0.009,0.006 0.0135,0.0184 0.0234,0.0234 0.0144,0.007 0.0334,0.003 0.0468,0.0117 0.0117,0.008 0.0134,0.0251 0.0234,0.0351 0.006,0.006 0.0153,0.008 0.0234,0.0117 0.0399,0.016 0.0265,0.005 0.0585,0.0234 0.0197,0.0113 0.0392,0.023 0.0585,0.0351 0.0119,0.007 0.0222,0.0179 0.0351,0.0234 0.0148,0.006 0.0317,0.006 0.0468,0.0117 0.0163,0.006 0.03,0.0186 0.0468,0.0234 0.0113,0.003 0.0235,-0.002 0.0351,0 0.10172,0.0145 -10e-4,0.007 0.0819,0.0234 0.008,0.002 0.0156,0 0.0234,0 h 0.0234 c 0.008,0 0.016,-0.002 0.0234,0 0.005,0.002 0.007,0.009 0.0117,0.0117 0.007,0.003 0.0164,-0.004 0.0234,0 0.0289,0.0144 -0.004,0.0117 0.0234,0.0117"
         id="path115-8-1-7-5"
         sodipodi:nodetypes="cccccccscccssscsccsscccccssscccccccccccccsscccc" /><path
         style="fill:none;stroke:#000000;stroke-width:0.35;stroke-dasharray:none;stroke-opacity:1"
         d="m 74.6629,73.209408 c -0.0127,0.0222 -0.1199,0.20279 -0.14032,0.25725 -0.0113,0.0301 -0.0121,0.0635 -0.0234,0.0935 -0.0122,0.0326 -0.0295,0.0633 -0.0468,0.0935 -0.0139,0.0244 -0.0369,0.0438 -0.0468,0.0702 -0.014,0.0372 -0.0138,0.0784 -0.0234,0.11693 -0.006,0.0239 -0.0156,0.0468 -0.0234,0.0702 -0.008,0.0234 -0.0142,0.0473 -0.0234,0.0702 -0.007,0.0162 -0.0169,0.0306 -0.0234,0.0468 -0.0258,0.0646 -0.0234,0.0496 -0.0234,0.0935 0,0.008 -0.008,0.0234 0,0.0234 0.008,0 -0.007,-0.019 0,-0.0234 0.0205,-0.0137 0.0473,-0.0142 0.0702,-0.0234 0.0875,-0.035 0.007,-0.0153 0.11693,-0.0702 0.022,-0.011 0.0504,-0.009 0.0702,-0.0234 0.0139,-0.0104 0.0137,-0.0323 0.0234,-0.0468 0.0238,-0.0358 0.0323,-0.0184 0.0702,-0.0468 0.0177,-0.0132 0.0271,-0.0369 0.0468,-0.0468 0.007,-0.003 0,0.0156 0,0.0234 v 0.0702 0.16371 c 0,0.14458 0.006,-0.0106 -0.0234,0.1637 -0.003,0.0154 0,0.0312 0,0.0468 0,0.0312 0.004,0.0627 0,0.0935 -0.004,0.0244 -0.0156,0.0468 -0.0234,0.0702 -0.008,0.0312 -0.0194,0.0616 -0.0234,0.0935 0,0.24435 0.01,-0.0358 -0.0234,0.1637 -0.004,0.0231 0,0.0468 0,0.0702 0,0.0156 0.004,0.0316 0,0.0468 -0.004,0.0169 -0.0192,0.0299 -0.0234,0.0468 -0.004,0.0151 0.003,0.0315 0,0.0468 -0.005,0.0242 -0.0174,0.0463 -0.0234,0.0702 -0.0199,0.0797 0.0655,-0.0842 -0.0234,0.0935 -0.005,0.01 -0.0185,0.0135 -0.0234,0.0234 -0.004,0.007 0,0.0156 0,0.0234 v 0.0234 c 0,0.008 0.002,0.016 0,0.0234 -0.005,0.0165 -0.0179,0.0302 -0.0234,0.0468 -0.002,0.007 0,0.0156 0,0.0234 v 0.0234 c 0,0.008 0.006,0.0179 0,0.0234 -0.005,0.006 -0.0179,-0.005 -0.0234,0 -0.11749,0.11749 0.004,0.0247 -0.0702,0.11693 -0.0207,0.0258 -0.0537,0.0414 -0.0702,0.0702 -0.016,0.0279 -0.0132,0.0631 -0.0234,0.0935 -0.006,0.0165 -0.0156,0.0312 -0.0234,0.0468 -0.008,0.0156 -0.0137,0.0323 -0.0234,0.0468 -0.006,0.009 -0.0234,0.0123 -0.0234,0.0234 0,0.008 0.0157,0.001 0.0234,0 0.0764,0.01412 0.12631,-0.04653 0.18713,-0.0702 0.10217,-0.0613 -0.01683,0.02034 0.11693,-0.0468 0.0251,-0.0126 0.174307,-0.0065 0.0702,-0.0468 0.007,-0.003 0.0179,-0.005 0.0234,0 0.005,0.006 -0.0073,0.02073 0,0.0234"
         id="path116-9-9-3-5"
         sodipodi:nodetypes="cssscssssssccscsscscsssscccssscscsssccssccscsscsccsccc" /><path
         style="fill:none;stroke:#000000;stroke-width:0.307674;stroke-dasharray:none;stroke-opacity:1"
         d="m 90.68914,74.616132 c -0.0017,0.0074 -0.0025,0.01469 -0.005,0.02176 -0.0025,0.0074 -0.0066,0.01432 -0.0097,0.02176 -0.01072,0.02873 -0.03408,0.10585 -0.03889,0.125032 -0.0075,0.0305 -0.01255,0.06174 -0.01945,0.09242 -0.0058,0.02734 -0.01272,0.05439 -0.01945,0.08155 -0.0066,0.02538 -0.01463,0.0503 -0.01945,0.07615 -0.0033,0.01785 -0.0025,0.03626 -0.005,0.05439 -0.0017,0.01097 -0.0042,0.02166 -0.005,0.03264 -6.56e-4,0.0074 0,0.0145 0,0.02176 0,0.0019 0,0.0037 0,0.0056 0,0.0019 8.31e-4,0.0037 0,0.0056 -8.31e-4,9.3e-4 -0.0033,-9.3e-4 -0.005,0 -8.32e-4,9.3e-4 0,0.0037 0,0.0056 0,0.0037 0,0.0074 0,0.01088 0,0.0056 8.31e-4,0.01097 0,0.01627 -0.0017,0.01134 -0.0083,0.02129 -0.0097,0.03264 -0.0017,0.01432 0.0017,0.0292 0,0.04351 -0.0025,0.01655 -0.0075,0.03245 -0.0097,0.04891 -0.0033,0.02092 0.0058,0.01497 -0.005,0.03803 -6.64e-4,0.0019 -0.0042,0.0019 -0.005,0 -0.0033,-0.0084 -0.0017,-0.0186 -0.005,-0.02715 -0.05776,-0.161537 -0.0025,0.01971 -0.03399,-0.08694 -0.0017,-0.0056 -0.0033,-0.01088 -0.005,-0.01627 -0.0017,-0.0019 -0.0042,-0.0028 -0.005,-0.0056 -6.57e-4,-0.0019 8.31e-4,-0.0037 0,-0.0056 -8.31e-4,-9.29e-4 -0.0042,-0.0019 -0.005,0 -0.0033,0.0065 -0.0033,0.0145 -0.005,0.02176 -0.0017,0.0074 -0.0025,0.01478 -0.005,0.02176 -0.0025,0.0074 -0.0075,0.01395 -0.0097,0.02176 -0.0033,0.01237 -0.0025,0.02548 -0.005,0.03803 -0.0025,0.01469 -0.0066,0.02892 -0.0097,0.04351 -0.0033,0.01804 -0.0066,0.03626 -0.0097,0.05439 -0.02701,0.143712 0.0075,-0.02631 -0.02427,0.08154 -0.0095,0.0318 -0.0025,0.02957 -0.005,0.05979 -0.0033,0.03338 -0.0058,0.02213 -0.01454,0.05439 -0.0058,0.01971 -0.0091,0.04008 -0.01454,0.05979 -1.7e-5,7.5e-5 -0.01936,0.05421 -0.01945,0.05439 -0.0033,0.01078 -0.0058,0.02185 -0.0097,0.03264 -0.0033,0.0093 -0.0066,0.01795 -0.0097,0.02715 -0.0042,0.01255 -0.0058,0.02557 -0.0097,0.03803 -0.02319,0.07783 0.0042,-0.02901 -0.01945,0.05979 -0.0017,0.0074 -0.0033,0.01441 -0.005,0.02176 -0.0017,0.0093 -0.0025,0.01841 -0.005,0.02715 -0.0025,0.0074 -0.0075,0.01404 -0.0097,0.02176 -0.0025,0.0084 -0.0042,0.03329 -0.0097,0.04352 -0.0025,0.0046 -0.0075,0.0065 -0.0097,0.01088 -0.0017,0.0028 8.31e-4,0.0074 0,0.01088 -0.0075,0.02399 -0.005,-0.01971 -0.005,0.01627 0,0.0019 0,-0.0037 0,-0.0056 0,-0.0037 0,-0.0074 0,-0.01088 0,-0.0074 0,-0.0145 0,-0.02176 0,-0.04259 6.57e-4,-0.07271 -0.005,-0.119593 -0.0017,-0.01311 -0.0066,-0.02529 -0.0097,-0.03803 -0.0017,-0.0093 -0.0033,-0.01804 -0.005,-0.02715 -2.16e-4,-0.0019 8.32e-4,-0.0037 0,-0.0056 -8.31e-4,-9.3e-4 -0.0042,-0.0019 -0.005,0 -0.0025,0.0046 -0.0033,0.01079 -0.005,0.01627 -0.0086,0.03887 -0.0017,0.01925 -0.0097,0.06527 -0.0025,0.01469 -0.0066,0.02892 -0.0097,0.04351 -0.0075,0.03384 -0.01363,0.06918 -0.01945,0.103284 -0.0033,0.0199 -0.0075,0.0397 -0.0097,0.05979 -0.0094,0.08043 -2.25e-4,0.04779 -0.0097,0.125023 -0.0025,0.02008 -0.0083,0.03961 -0.0097,0.05979 -0.0017,0.0199 8.31e-4,0.03989 0,0.05979 -8.31e-4,0.02176 -0.0033,0.04351 -0.005,0.06527 -0.0017,0.02176 -0.0025,0.04361 -0.005,0.06527 -0.0025,0.02008 -0.0066,0.03989 -0.0097,0.05979 -0.0033,0.0344 -0.0066,0.06881 -0.0097,0.103293 -0.0017,0.01813 -0.0033,0.03626 -0.005,0.05439 -0.0017,0.01274 -0.0042,0.02529 -0.005,0.03803 -8.31e-4,0.01265 0.0017,0.02548 0,0.03803 -0.0017,0.01134 -0.0066,0.02166 -0.0097,0.03264 -0.0033,0.01255 -0.0075,0.0252 -0.0097,0.03803 -0.0025,0.01079 -0.0033,0.02185 -0.005,0.03264 -0.0017,0.0074 -0.0042,0.01432 -0.005,0.02176 -8.31e-4,0.0074 0.0017,0.01478 0,0.02176 -0.0017,0.0065 -0.0075,0.01023 -0.0097,0.01627 -8.31e-4,0.0037 4.4e-4,0.0074 0,0.01088 -8.31e-4,0.0074 -0.0042,0.01441 -0.005,0.02176 -0.0025,0.01832 0.0066,0.0074 -0.005,0.03264 -0.0017,0.0046 -0.0083,0.0056 -0.0097,0.01088 -0.0017,0.0065 8.31e-4,0.0146 0,0.02176 -6.57e-4,0.0056 -0.0033,0.01079 -0.005,0.01627 -0.0017,0.0074 -0.0033,0.0145 -0.005,0.02176 -0.0033,0.01088 -0.0066,0.02166 -0.0097,0.03264 -0.0017,0.0074 -0.0025,0.01478 -0.005,0.02176 -8.31e-4,0.0028 -0.0025,0.0056 -0.005,0.0056 -0.0017,0 4.41e-4,-0.0037 0,-0.0056 -0.0025,-0.0093 -0.0066,-0.01794 -0.0097,-0.02715 -0.0066,-0.02157 -0.01297,-0.04351 -0.01945,-0.06518 -0.0033,-0.01088 -0.005,-0.02269 -0.0097,-0.03264 -0.0017,-0.0037 -0.0066,-0.0037 -0.0097,-0.0056 -0.0017,-4.93e-4 -0.0042,-0.0019 -0.005,0 -0.0025,0.0046 -0.0025,0.01116 -0.005,0.01627 -0.0025,0.0056 -0.0083,0.0099 -0.0097,0.01627 -0.0017,0.0084 0.0017,0.01832 0,0.02715 -0.0017,0.0084 -0.0066,0.0145 -0.0097,0.02176 0,0.0093 0.0017,0.01822 0,0.02715 -0.005,0.03682 -0.01097,0.04296 -0.01945,0.07615 -4.1e-5,1.68e-4 -0.01945,0.08684 -0.01945,0.08694 -0.0042,0.01478 -0.0097,0.02901 -0.01454,0.04351 -0.005,0.0145 -0.01105,0.02855 -0.01454,0.04352 -0.01621,0.06816 0.0075,0.0106 -0.01454,0.06527 -0.0172,0.04342 -0.0075,0.0037 -0.02917,0.07615 -0.0025,0.0084 -0.0025,0.01823 -0.005,0.02715 -0.0017,0.0056 -0.0025,0.01144 -0.005,0.01627 -0.01197,0.02241 -0.0097,-4.93e-4 -0.0097,0.02176 0,0.0019 0,-0.0037 0,-0.0056 0,-0.0056 0,-0.01088 0,-0.01627 0,-0.0093 0,-0.01813 0,-0.02715 0,-0.03626 0,-0.07252 0,-0.108723 0,-0.0074 0,-0.0145 0,-0.02176 0,-0.0019 8.31e-4,-0.0037 0,-0.0056 -8.31e-4,-9.29e-4 -0.0033,-9.29e-4 -0.005,0 -0.0042,0.0028 -0.0075,0.0065 -0.0097,0.01088 -0.0042,0.01023 -0.0058,0.02185 -0.0097,0.03264 -0.0033,0.0093 -0.0066,0.01822 -0.0097,0.02715 -0.005,0.01274 -0.01039,0.02501 -0.01454,0.03803 -0.0042,0.01246 -0.0058,0.02548 -0.0097,0.03803 -0.0033,0.01097 -0.0066,0.02176 -0.0097,0.03264 -0.0033,0.01088 -0.0075,0.02148 -0.0097,0.03264 -0.0025,0.01069 -0.0025,0.02194 -0.005,0.03264 -0.0042,0.02008 -0.01006,0.0398 -0.01454,0.05979 -0.0017,0.0093 -0.0025,0.01832 -0.005,0.02715 -0.0025,0.0094 -0.0075,0.01785 -0.0097,0.02715 -0.0025,0.0093 -0.0033,0.01813 -0.005,0.02715 -0.0017,0.0093 -0.0033,0.01813 -0.005,0.02715 -0.0017,0.0093 -0.0033,0.01813 -0.005,0.02715 -0.0017,0.01088 -0.0017,0.02204 -0.005,0.03264 -0.0017,0.0074 -0.0075,0.01404 -0.0097,0.02176 -0.0025,0.0084 -0.0033,0.01813 -0.005,0.02715 -0.0017,0.0074 -0.0033,0.0145 -0.005,0.02176 -0.0017,0.0074 -0.0033,0.0145 -0.005,0.02176 -0.0017,0.0074 -0.0033,0.0146 -0.005,0.02176 -0.0017,0.0056 -0.0042,0.01069 -0.005,0.01627 -8.31e-4,0.0056 8.31e-4,0.01097 0,0.01627 -8.31e-4,0.0056 -0.0033,0.01088 -0.005,0.01627 -0.0017,0.0056 -0.0033,0.01088 -0.005,0.01627 -0.0017,0.0056 -0.0033,0.01097 -0.005,0.01627 -0.0017,0.0037 -0.0042,0.0065 -0.005,0.01088 -0.0025,0.01069 -0.0017,0.02213 -0.005,0.03264 -0.0017,0.0065 -0.0075,0.01032 -0.0097,0.01627 -0.0025,0.0065 -0.0025,0.01488 -0.005,0.02176 -0.0025,0.0056 -0.0066,0.01069 -0.0097,0.01627 -0.01272,0.02371 0.0042,-0.0037 -0.0097,0.02715 -6.57e-4,0.0019 0,-0.0037 0,-0.0056 0,-0.0093 0,-0.01813 0,-0.02715 0,-0.02538 0,-0.05077 0,-0.07615 0,-0.02315 0.0017,-0.04807 -0.005,-0.07067 -0.0017,-0.0065 -0.0066,-0.01041 -0.0097,-0.01627 -8.31e-4,-0.0019 8.32e-4,-0.0096 0,-0.01088 -8.31e-4,-9.3e-4 -0.0042,-9.3e-4 -0.005,0 -8.31e-4,9.29e-4 8.31e-4,0.0037 0,0.0056 -0.0042,0.0065 -0.01047,0.01014 -0.01454,0.01627 -0.0058,0.0084 -0.0097,0.01813 -0.01454,0.02715 -0.005,0.0093 -0.0095,0.01832 -0.01454,0.02715 -0.0058,0.01107 -0.01388,0.02111 -0.01945,0.03264 -0.0042,0.0084 -0.0066,0.01813 -0.0097,0.02715 -0.0033,0.0093 -0.0058,0.01822 -0.0097,0.02715 -0.0025,0.0074 -0.0058,0.01469 -0.0097,0.02176 -0.01363,0.02743 -0.01396,0.02287 -0.02427,0.04891 -0.0033,0.0093 -0.0066,0.01813 -0.0097,0.02715 -0.0033,0.0093 -0.0066,0.01794 -0.0097,0.02715 -0.0025,0.0074 -0.0033,0.0146 -0.005,0.02176 -0.0042,0.01646 -0.01006,0.03254 -0.01454,0.04891 -0.01396,0.05067 0.0066,-0.01069 -0.01454,0.04891 -0.0033,0.0093 -0.0058,0.01869 -0.0097,0.02715 -0.0042,0.0084 -0.01097,0.01367 -0.01454,0.02176 -0.0033,0.0065 -0.0033,0.0146 -0.005,0.02176 -0.0017,0.0056 -0.0033,0.01088 -0.005,0.01627 -0.0017,0.0056 -0.0025,0.01116 -0.005,0.01627 -0.0042,0.0095 -0.0097,0.01813 -0.01454,0.02715 -0.005,0.0093 -0.01039,0.01776 -0.01454,0.02715 -6.57e-4,0.0019 -6.57e-4,0.0074 0,0.0056 0.0128,-0.0358 0.0097,-0.02789 0.0097,-0.06527 0,-0.01274 6.56e-4,-0.02538 0,-0.03803 -0.0017,-0.03133 -0.0098,-0.07383 -0.01454,-0.103294 -0.0017,-0.0093 -0.01322,-0.08833 -0.01945,-0.103283 -0.0075,-0.01776 -0.02078,-0.03171 -0.02917,-0.04891 -0.0017,-0.0028 8.31e-4,-0.0074 0,-0.01088 -4.41e-4,-0.0019 -0.0066,-0.0093 -0.0097,-0.0056 -0.0025,0.0028 -0.0033,0.0074 -0.005,0.01088 -0.0033,0.0074 -0.0058,0.01488 -0.0097,0.02176 -0.0042,0.0074 -0.0097,0.0145 -0.01454,0.02176 -0.005,0.0093 -0.0097,0.01813 -0.01454,0.02715 -0.01405,0.02622 -0.01737,0.03087 -0.02917,0.05979 -0.0033,0.0093 -0.0066,0.01804 -0.0097,0.02715 -0.0033,0.01079 -0.0058,0.02222 -0.0097,0.03264 -0.0042,0.0096 -0.01139,0.01729 -0.01454,0.02715 -0.0033,0.01032 -0.0033,0.02176 -0.005,0.03264 -0.0017,0.0093 -0.0042,0.01804 -0.005,0.02715 -6.57e-4,0.0056 8.31e-4,0.01097 0,0.01627 -8.31e-4,0.0056 -0.0042,0.0106 -0.005,0.01627 -8.31e-4,0.0074 8.31e-4,0.0146 0,0.02176 -6.56e-4,0.0037 -0.0033,0.0074 -0.005,0.01088 -0.0017,0.0056 -0.0042,0.01069 -0.005,0.01627 -8.31e-4,0.0056 0,0.01088 0,0.01627 0,0.0019 0,0.0037 0,0.0056 0,0.01627 0,0.03264 0,0.04891"
         id="path120-9-3-0-4" /><path
         style="fill:none;stroke:#000000;stroke-width:0.400042;stroke-dasharray:none;stroke-opacity:1"
         id="path121-9-69-2-3"
         sodipodi:type="arc"
         sodipodi:cx="87.138313"
         sodipodi:cy="66.259399"
         sodipodi:rx="8.8502636"
         sodipodi:ry="2.2467148"
         sodipodi:start="0.30714334"
         sodipodi:end="2.783161"
         sodipodi:arc-type="arc"
         d="M 95.574395,66.938664 A 8.8502636,2.2467148 0 0 1 87.365246,68.505376 8.8502636,2.2467148 0 0 1 78.8505,67.04756"
         sodipodi:open="true"
         transform="matrix(0.99686375,0.07913705,-0.05877556,0.99827122,0,0)" /><path
         style="fill:none;stroke:#000000;stroke-width:0.4;stroke-dasharray:none;stroke-opacity:1"
         d="m 91.47147,74.249158 c -0.36766,0.36137 0.0181,-0.0105 0.0351,-0.0234 0.006,-0.004 0.0121,-0.007 0.0175,-0.0117 0.006,-0.005 0.025,-0.0268 0.0292,-0.0292 0.007,-0.004 0.0164,-0.002 0.0234,-0.006 0.0128,-0.001 0.0139,-0.0177 0.0234,-0.0234 0.0172,-0.0103 0.0262,-0.0105 0.0409,-0.0234 0.0104,-0.009 0.0189,-0.0202 0.0292,-0.0292 2.3e-4,-1.9e-4 0.0347,-0.0231 0.0351,-0.0234 0.004,-0.003 0.007,-0.009 0.0117,-0.0117 0.005,-0.003 0.0122,-0.003 0.0175,-0.006 0.005,-0.003 0.007,-0.008 0.0117,-0.0117 10e-5,-7e-5 0.0349,-0.0233 0.0351,-0.0234 0.0178,-0.0133 0.0345,-0.028 0.0526,-0.0409 0.009,-0.007 0.0207,-0.0101 0.0292,-0.0175 0.007,-0.006 0.0107,-0.0165 0.0175,-0.0234 0.007,-0.007 0.0165,-0.0106 0.0234,-0.0175 0.005,-0.005 0.007,-0.0126 0.0117,-0.0175 0.007,-0.007 0.017,-0.0101 0.0234,-0.0175 0.006,-0.007 0.007,-0.016 0.0117,-0.0234 0.005,-0.008 0.0119,-0.0155 0.0175,-0.0234 0.004,-0.006 0.007,-0.0126 0.0117,-0.0175 0.0228,-0.0228 0.0193,-0.01 0.0351,-0.0292 0.0184,-0.023 0.004,-0.0142 0.0292,-0.0351 0.005,-0.005 0.0135,-0.006 0.0175,-0.0117 0.006,-0.009 0.007,-0.0199 0.0117,-0.0292 0.0143,-0.0286 0.007,-0.007 0.0234,-0.0292 0.003,-0.003 0.003,-0.008 0.006,-0.0117 0.005,-0.008 0.0127,-0.0149 0.0175,-0.0234 0.003,-0.005 0.003,-0.0119 0.006,-0.0175 0.003,-0.008 0.008,-0.0154 0.0117,-0.0234 0.009,-0.0205 0.006,-0.0292 0.0175,-0.0526 0.002,-0.005 0.01,-0.007 0.0117,-0.0117 0.004,-0.009 0.004,-0.0195 0.006,-0.0292 0.002,-0.008 0.003,-0.0159 0.006,-0.0234 0.003,-0.008 0.009,-0.0152 0.0117,-0.0234 0.003,-0.008 0.004,-0.0156 0.006,-0.0234 0.002,-0.008 0.005,-0.0154 0.006,-0.0234 0.002,-0.0116 -0.002,-0.0236 0,-0.0351 0.001,-0.006 0.004,-0.0117 0.006,-0.0175 0.002,-0.0137 0.005,-0.0272 0.006,-0.0409 5.3e-4,-0.006 0,-0.0117 0,-0.0175 v -0.0292 -0.0643 -0.0643 c 0,-0.0117 0.001,-0.0234 0,-0.0351 -7.9e-4,-0.01 -0.005,-0.0193 -0.006,-0.0292 -10e-4,-0.0214 0,-0.0429 0,-0.0643 0,-0.01 0.001,-0.0195 0,-0.0292 -10e-4,-0.01 -0.005,-0.0194 -0.006,-0.0292 -7.9e-4,-0.008 8e-4,-0.0156 0,-0.0234 -7.9e-4,-0.007 -0.009,-0.044 -0.0117,-0.0526 -0.003,-0.01 -0.008,-0.0194 -0.0117,-0.0292 -0.0109,-0.0289 -5.3e-4,-0.007 -0.0117,-0.0292 -0.002,-0.004 -0.003,-0.008 -0.006,-0.0117 -0.002,-0.002 -0.004,-0.004 -0.006,-0.006 -0.005,-0.007 -0.007,-0.0161 -0.0117,-0.0234 -0.002,-0.002 -0.005,-0.003 -0.006,-0.006 -7.9e-4,-0.002 10e-4,-0.004 0,-0.006 -0.0121,-0.0121 5.3e-4,0.0185 -0.0117,-0.006 -7.9e-4,-0.002 0,-0.004 0,-0.006 0,-0.002 -10e-4,-0.004 0,-0.006 0.003,-0.005 0.008,-0.008 0.0117,-0.0117 0.002,-0.002 0.004,-0.004 0.006,-0.006 0.002,-0.002 0.005,-0.003 0.006,-0.006 0,-0.0266 -0.003,-2.6e-4 0.006,-0.0175 8e-4,-0.002 -0.001,-0.004 0,-0.006 0.003,-0.005 0.009,-0.007 0.0117,-0.0117 0.0204,-0.0408 -0.0113,-0.006 0.0175,-0.0468 0.005,-0.007 0.0135,-0.0103 0.0175,-0.0175 0.006,-0.0108 0.008,-0.0234 0.0117,-0.0351 0.004,-0.0117 0.007,-0.0239 0.0117,-0.0351 0.005,-0.0103 0.0138,-0.0185 0.0175,-0.0292 0.009,-0.0261 0.0172,-0.0687 0.0234,-0.0994 0.002,-0.01 0.005,-0.0193 0.006,-0.0292 0.001,-0.0214 0,-0.0429 0,-0.0643 v -0.0351 c 0,-0.0137 0.001,-0.0273 0,-0.0409 -7.9e-4,-0.008 -0.004,-0.0155 -0.006,-0.0234 -0.0199,-0.0929 -0.004,-0.0285 -0.0175,-0.0819 -0.002,-0.008 -0.003,-0.0158 -0.006,-0.0234 -0.003,-0.01 -0.007,-0.0198 -0.0117,-0.0292 -0.017,-0.0339 -0.008,7e-5 -0.0234,-0.0409 -0.003,-0.008 -0.003,-0.0159 -0.006,-0.0234 -0.01,-0.0257 -0.0111,-0.0193 -0.0234,-0.0409 -0.004,-0.008 -0.008,-0.0156 -0.0117,-0.0234 -0.004,-0.008 -0.007,-0.0164 -0.0117,-0.0234 -0.007,-0.009 -0.0166,-0.0147 -0.0234,-0.0234 -0.007,-0.009 -0.0106,-0.0203 -0.0175,-0.0292 -0.007,-0.009 -0.0161,-0.0151 -0.0234,-0.0234 -0.0605,-0.0681 0.0122,0.006 -0.0468,-0.0526 -0.008,-0.008 -0.0156,-0.0156 -0.0234,-0.0234 -0.0136,-0.0175 -0.0252,-0.0369 -0.0409,-0.0526 -0.008,-0.008 -0.0201,-0.0107 -0.0292,-0.0175 -0.007,-0.005 -0.0117,-0.0117 -0.0175,-0.0175 -0.004,-0.004 -0.008,-0.008 -0.0117,-0.0117 -0.004,-0.004 -0.007,-0.008 -0.0117,-0.0117 -0.004,-0.003 -0.008,-0.004 -0.0117,-0.006 -0.004,-0.002 -0.008,-0.004 -0.0117,-0.006 -0.002,-5.3e-4 -0.004,0 -0.006,0 h -0.006"
         id="path122-8-2-4-7"
         sodipodi:nodetypes="cccscccscscsccccsccccccccccccscccccccsccssccscssscccsccccsccsccscccccsssscssssccsscscccsccccscccsscsc" /><path
         style="fill:none;stroke:#000000;stroke-width:0.35;stroke-dasharray:none;stroke-opacity:1"
         d="m 74.40872,75.867968 c -0.0236,0.009 -0.0506,-0.007 -0.0744,0 -0.01,0.003 -0.0157,0.0126 -0.0248,0.0165 -0.0105,0.004 -0.0229,0.003 -0.0331,0.008 -0.007,0.003 -0.0104,0.0117 -0.0165,0.0165 -0.005,0.004 -0.0313,0.0219 -0.0413,0.0248 -0.12308,0.0352 0.01,-0.0157 -0.0579,0.0248 -0.0155,0.009 -0.0528,0.0121 -0.0662,0.0165 -0.0117,0.004 -0.0215,0.0123 -0.0331,0.0165 -0.2175,0.0791 0.0908,-0.0454 -0.10748,0.0413 -0.0272,0.0119 -0.0545,0.0237 -0.0827,0.0331 -0.0882,0.0294 -0.004,-0.008 -0.0661,0.0165 -0.0375,0.015 -10e-4,8e-4 -0.0248,0.0165 -0.005,0.003 -0.0116,0.005 -0.0165,0.008 -0.006,0.005 -0.0104,0.0117 -0.0165,0.0165 -0.008,0.006 -0.0186,0.009 -0.0248,0.0165 -0.005,0.007 -0.004,0.017 -0.008,0.0248 -0.002,0.003 -0.007,0.005 -0.008,0.008 -0.001,0.002 0,0.006 0,0.008 v 0.008 c 0,0.003 -0.002,0.006 0,0.008 0.0138,0.0138 0.0239,0.006 0.0413,0.008 0.0112,0.002 0.0218,0.007 0.0331,0.008 0.0137,0.002 0.0277,-0.002 0.0413,0 0.004,5.3e-4 0.005,0.007 0.008,0.008 0.002,10e-4 0.005,0 0.008,0 0.008,0 0.0114,-0.002 0.0165,0.008 10e-4,0.002 0.002,0.006 0,0.008 -0.0125,0.0125 -0.0282,0.0213 -0.0413,0.0331 -0.0219,0.0197 -0.0581,0.057 -0.0744,0.0827 -0.1182,0.18574 0.15991,-0.19459 -0.0992,0.1571 -0.0128,0.0173 -0.0287,0.0322 -0.0413,0.0496 -0.11917,0.16384 -0.0605,0.0792 -0.12403,0.19843 -0.0105,0.0196 -0.0231,0.038 -0.0331,0.0579 -0.002,0.003 -0.0376,0.0869 -0.0413,0.0992 -0.004,0.0135 -0.005,0.0276 -0.008,0.0413 -0.007,0.0311 -0.007,0.0303 -0.0165,0.0579 -0.003,0.008 -0.005,0.0168 -0.008,0.0248 -0.005,0.0113 -0.0115,0.0218 -0.0165,0.0331 -0.006,0.0136 -0.01,0.0281 -0.0165,0.0413 -0.007,0.0144 -0.0176,0.027 -0.0248,0.0413 -0.0211,0.0422 -0.0269,0.0643 -0.0413,0.10749 -0.003,0.008 -0.006,0.0164 -0.008,0.0248 -0.003,0.011 0,0.008 0.008,0.008 0.0486,0 0.0787,0.004 0.12403,-0.008 0.0143,-0.004 0.0274,-0.0113 0.0413,-0.0165 0.008,-0.003 0.017,-0.004 0.0248,-0.008 0.004,-0.002 0.004,-0.008 0.008,-0.008 0.003,0 0,0.005 0,0.008 v 0.0248 c 0,0.011 0.002,0.0222 0,0.0331 -0.001,0.009 -0.005,0.0168 -0.008,0.0248 -0.005,0.0113 -0.011,0.022 -0.0165,0.0331 -0.008,0.0138 -0.0182,0.0267 -0.0248,0.0413 -0.007,0.0159 -0.01,0.0336 -0.0165,0.0496 -0.01,0.0226 -0.0226,0.0438 -0.0331,0.0661 -0.0664,0.14111 0.002,0.005 -0.0744,0.16536 -0.0715,0.14898 -0.0459,0.0803 -0.10749,0.23151 -0.0645,0.15831 -0.0223,0.0534 -0.0662,0.20671 -0.007,0.0251 -0.0178,0.0492 -0.0248,0.0744 -0.007,0.0245 -0.0107,0.0497 -0.0165,0.0744 -0.005,0.0221 -0.0107,0.0442 -0.0165,0.0661 -0.005,0.0194 -0.0127,0.0382 -0.0165,0.0579 -0.01,0.0521 -0.0173,0.10461 -0.0248,0.1571 -0.004,0.0247 -0.004,0.0498 -0.008,0.0744 -0.004,0.0251 -0.0136,0.0492 -0.0165,0.0744 -0.003,0.0219 0.002,0.0442 0,0.0661 -10e-4,0.0167 -0.007,0.0329 -0.008,0.0496 -0.001,0.0165 0,0.0331 0,0.0496 v 0.0331 0.0331 c 0,0.003 -0.003,0.008 0,0.008 0.003,0 -0.002,-0.007 0,-0.008 0.0259,-0.0194 0.0357,-0.0109 0.0579,-0.0331 0.007,-0.007 0.008,-0.019 0.0165,-0.0248 0.068,-0.0486 0.0164,0.005 0.0661,-0.0248 0.007,-0.004 0.0101,-0.0122 0.0165,-0.0165 0.002,-0.002 0.006,-0.002 0.008,0 0.002,0.002 -10e-4,0.006 0,0.008 0.0301,0.0501 0.0228,0.0164 0.0496,0.0744 0.01,0.0214 0.0155,0.0445 0.0248,0.0661 0.007,0.017 0.0165,0.0331 0.0248,0.0496 0.0138,0.0276 0.0276,0.0551 0.0413,0.0827 0.011,0.022 0.022,0.0441 0.0331,0.0661 0.0138,0.0276 0.027,0.0554 0.0413,0.0827 0.0132,0.0251 0.0259,0.0506 0.0413,0.0744 0.0152,0.0235 0.0689,0.0917 0.091,0.11576 0.0158,0.0172 0.0331,0.0331 0.0496,0.0496 l 0.0413,0.0413 0.0331,0.0331 c 0.0138,0.0138 0.027,0.0282 0.0413,0.0413 0.0187,0.0172 0.0385,0.0332 0.0579,0.0496 0.0164,0.0139 0.0344,0.0261 0.0496,0.0413 0.018,0.018 0.0324,0.0392 0.0496,0.0579 0.0159,0.0172 0.0339,0.0323 0.0496,0.0496 0.0119,0.0131 0.022,0.0276 0.0331,0.0413 0.0138,0.0165 0.0268,0.0337 0.0413,0.0496 0.0158,0.0173 0.034,0.0322 0.0496,0.0496 0.0144,0.016 0.0252,0.0435 0.0496,0.0496 0.004,10e-4 0.008,-0.004 0.008,-0.008 0.002,-0.0136 0,-0.0276 0,-0.0413 v -0.0909 -0.0165 c 0,-0.004 -0.003,-0.0149 0.008,-0.008 0.0118,0.007 0.0214,0.0175 0.0331,0.0248 0.12609,0.0788 -0.08,-0.0616 0.0744,0.0413 0.0601,0.0401 0.0498,0.0389 0.10749,0.0744 0.0431,0.0265 0.0844,0.0485 0.13229,0.0661 0.027,0.01 0.0544,0.0196 0.0827,0.0248 0.0464,0.009 0.0935,0.0129 0.14056,0.0165 0.0254,0.002 0.11279,-0.002 0.14056,0 0.0222,0.001 0.0441,0.005 0.0661,0.008 0.022,0.003 0.0441,0.006 0.0662,0.008 0.0248,0.003 0.0496,0.005 0.0744,0.008 0.0221,0.003 0.0441,0.006 0.0661,0.008 0.0881,0.011 0.0442,0.006 0.13229,0.0165 0.0441,0.006 0.0883,0.0105 0.13229,0.0165 0.0166,0.002 0.0329,0.007 0.0496,0.008 7.9e-4,8e-5 0.0656,-9e-5 0.0661,0 0.009,0.001 0.0162,0.007 0.0248,0.008 0.008,0.001 0.0165,0 0.0248,0 h 0.0165 c 0.003,0 0.007,0.002 0.008,0 0.005,-0.007 0.007,-0.0162 0.008,-0.0248 0.006,-0.0334 -0.0134,-0.0695 -0.0248,-0.0992 -0.008,-0.022 -0.0161,-0.0443 -0.0248,-0.0661 -0.008,-0.0195 -0.0182,-0.038 -0.0248,-0.0579 -0.004,-0.0133 -0.005,-0.0277 -0.008,-0.0413 -0.002,-0.008 -0.006,-0.0164 -0.008,-0.0248 -7.9e-4,-0.003 0.002,-0.006 0,-0.008 -0.002,-0.002 -0.007,-0.002 -0.008,0 -0.002,0.005 0,0.011 0,0.0165 0,0.006 -0.002,0.0116 0,0.0165 0.004,0.007 0.011,0.011 0.0165,0.0165 0.011,0.011 0.0208,0.0235 0.0331,0.0331 0.0272,0.0212 0.0685,0.0373 0.0992,0.0496 0.0287,0.0115 0.12224,0.0467 0.14883,0.0496 0.0466,0.005 0.0937,0 0.14056,0 h 0.14883 0.19017 c 0.0303,0 0.0607,0.002 0.0909,0 0.0634,-0.006 0.12678,-0.011 0.19017,-0.0165 0.0276,0 0.0552,0.002 0.0827,0 0.0211,-10e-4 0.0908,-0.0115 0.11575,-0.0165 0.0111,-0.002 0.0217,-0.007 0.0331,-0.008 0.0192,-0.002 0.0386,0 0.0579,0 h 0.0579 c -0.44419,0 0.43429,-0.01685 0.52295,-0.04134 0.0387,-0.002 -0.37135,0.03534 -0.33279,0.03334 0.005,-2.7e-4 0.011,0 0.0165,0 0.003,0 0.006,0.002 0.008,0 0.002,-0.002 -0.002,-0.006 0,-0.008 0.002,-0.002 0.005,0 0.008,0 h 0.0165 c 0.003,0 0.006,0.002 0.008,0 0.002,-0.002 -0.002,-0.007 0,-0.008 0.007,-0.005 0.0173,-0.004 0.0248,-0.008 0.007,-0.004 -0.28352,0.01881 -0.27702,0.01451 0.003,-0.002 0.30762,-0.02901 0.31002,-0.03101 0.004,-0.004 0.003,-0.0134 0.008,-0.0165 0.0357,-0.0215 0.0331,0.006 0.0331,-0.0165"
         id="path123-3-7-9-1"
         sodipodi:nodetypes="cccccccccsscccccccsssccccsssscccccccccsccccscscssscccccccscccccccccsscsscscccscccccccssscscsscscscscscscccsccccsccccccccsscccccccscscssscscscccccsscsssssssccsccc" /><path
         style="fill:none;stroke:#000000;stroke-width:0.3;stroke-dasharray:none;stroke-opacity:1"
         d="m 73.87946,71.572388 c 0.05,0.11671 -0.009,-1.3e-4 0.0351,0.0526 0.006,0.007 0.007,0.016 0.0117,0.0234 0.0219,0.035 0.0112,0.0122 0.0351,0.0409 0.004,0.005 0.007,0.0126 0.0117,0.0175 0.007,0.007 0.0157,0.0116 0.0234,0.0175 0.0122,0.009 0.0385,0.0315 0.0526,0.0409 0.009,0.006 0.0193,0.0121 0.0292,0.0175 0.0115,0.006 0.0241,0.0105 0.0351,0.0175 0.0804,0.0512 -0.02,-0.002 0.0585,0.0409 0.0115,0.006 0.0236,0.0113 0.0351,0.0175 0.0138,0.007 0.0269,0.0163 0.0409,0.0234 0.26634,0.13317 -0.018,-0.0113 0.12862,0.0585 0.0276,0.0131 0.0546,0.0273 0.0819,0.0409 0.0156,0.008 0.0314,0.0152 0.0468,0.0234 1.2e-4,6e-5 0.10519,0.0584 0.10524,0.0585 0.0211,0.0105 0.0433,0.0187 0.0643,0.0292 0.0179,0.009 0.0345,0.0206 0.0526,0.0292 0.0229,0.0109 0.0469,0.0191 0.0702,0.0292 0.18896,0.0822 -0.0687,-0.0281 0.13447,0.0643 0.10237,0.0465 0.0146,-0.001 0.12278,0.0526 0.0179,0.009 0.0343,0.021 0.0526,0.0292 0.0452,0.0202 0.11222,0.045 0.1637,0.0643 0.0156,0.006 0.0314,0.0111 0.0468,0.0175"
         id="path124-4-5-9-4"
         sodipodi:nodetypes="ccccccscccccccsccscccccc" /><path
         style="fill:none;stroke:#000000;stroke-width:0.3;stroke-dasharray:none;stroke-opacity:1"
         d="m 92.13167,72.759118 c -0.0118,0.001 -0.0126,0.0153 -0.0207,0.0207 -0.003,0.002 -0.006,0.002 -0.008,0.004 -0.0112,5.3e-4 -0.0136,0.0112 -0.0207,0.0165 -0.004,0.003 -0.009,0.005 -0.0124,0.008 -0.004,0.004 -0.004,0.009 -0.008,0.0124 -0.005,0.004 -0.0115,0.005 -0.0165,0.008 -0.005,0.003 -0.008,0.008 -0.0124,0.0124 -0.004,0.004 -0.008,0.009 -0.0124,0.0124 -0.007,0.006 -0.043,0.0311 -0.0455,0.0331 -0.005,0.004 -0.008,0.008 -0.0124,0.0124 -0.005,0.006 -0.011,0.011 -0.0165,0.0165 -0.004,0.004 -0.008,0.009 -0.0124,0.0124 -0.005,0.004 -0.0116,0.005 -0.0165,0.008 -0.003,0.002 -0.0241,0.0247 -0.0289,0.0289 -0.007,0.006 -0.0137,0.0111 -0.0207,0.0165 -0.0124,0.01 -0.0244,0.0198 -0.0372,0.0289 -0.006,0.005 -0.0141,0.008 -0.0207,0.0124 -0.007,0.005 -0.0132,0.0118 -0.0207,0.0165 -0.008,0.005 -0.0165,0.008 -0.0248,0.0124 -0.008,0.004 -0.0163,0.009 -0.0248,0.0124 -0.008,0.003 -0.0168,0.005 -0.0248,0.008 -0.0909,0.0372 -0.0384,0.0164 -0.0909,0.0413 -0.0178,0.008 -0.0361,0.016 -0.0537,0.0248 -0.0144,0.007 -0.027,0.0176 -0.0413,0.0248 -0.0523,0.0209 0.009,-0.006 -0.0372,0.0207 -0.004,0.002 -0.009,0.002 -0.0124,0.004 -0.005,0.003 -0.008,0.009 -0.0124,0.0124 -0.005,0.004 -0.0111,0.005 -0.0165,0.008 -0.0646,0.0388 0.0162,-0.009 -0.0372,0.0207 -0.007,0.004 -0.0139,0.008 -0.0207,0.0124 -0.0125,0.008 -0.0241,0.0177 -0.0372,0.0248 -0.005,0.003 -0.0115,0.002 -0.0165,0.004 -0.006,0.003 -0.0107,0.009 -0.0165,0.0124 -0.005,0.003 -0.0111,0.005 -0.0165,0.008 -7e-5,4e-5 -0.0413,0.0248 -0.0413,0.0248 -0.0164,0.009 -0.0337,0.0154 -0.0496,0.0248 -0.008,0.004 -0.0132,0.0118 -0.0207,0.0165 -0.0128,0.0118 -0.0312,0.0121 -0.0455,0.0207 -0.008,0.005 -0.0131,0.012 -0.0207,0.0165 -0.006,0.004 -0.0139,0.005 -0.0207,0.008 -0.006,0.002 -0.011,0.006 -0.0165,0.008 -0.008,0.004 -0.0167,0.008 -0.0248,0.0124 -0.007,0.004 -0.0133,0.009 -0.0207,0.0124 -0.009,0.004 -0.0196,0.005 -0.0289,0.008 -0.009,0.003 -0.0161,0.009 -0.0248,0.0124 -0.007,0.002 -0.014,0.002 -0.0207,0.004 -0.01,0.003 -0.0189,0.009 -0.0289,0.0124 -0.008,0.002 -0.0169,0.002 -0.0248,0.004 -0.009,0.003 -0.016,0.01 -0.0248,0.0124 -0.009,0.003 -0.0194,0.002 -0.0289,0.004 -0.01,0.002 -0.0193,0.006 -0.0289,0.008 -0.01,0.003 -0.0193,0.006 -0.0289,0.008 -0.0206,0.006 -0.0414,0.0107 -0.062,0.0165 -0.008,0.002 -0.0165,0.006 -0.0248,0.008 -0.01,0.003 -0.0196,0.005 -0.0289,0.008 -0.009,0.003 -0.016,0.009 -0.0248,0.0124 -0.004,10e-4 -0.0402,0.006 -0.0455,0.008 -0.006,0.003 -0.0102,0.01 -0.0165,0.0124 -0.006,0.003 -0.0139,0.002 -0.0207,0.004 -0.007,0.002 -0.0137,0.006 -0.0207,0.008 -0.008,0.003 -0.0165,0.006 -0.0248,0.008 -0.01,0.004 -0.0192,0.009 -0.0289,0.0124 -0.008,0.003 -0.0167,0.005 -0.0248,0.008 -0.0613,0.0245 -0.0151,0.009 -0.0579,0.0248 -0.004,0.002 -0.008,0.004 -0.0124,0.004 -0.006,8e-4 -0.0111,-7.9e-4 -0.0165,0 -0.0413,0.006 0.003,5.3e-4 -0.0165,0.008 -0.005,0.002 -0.011,0.003 -0.0165,0.004 -0.006,0.001 -0.011,0.003 -0.0165,0.004 -0.006,0.001 -0.0112,0.002 -0.0165,0.004 -0.006,0.002 -0.0108,0.006 -0.0165,0.008 -5.3e-4,1.9e-4 -0.0327,0.008 -0.0331,0.008 -0.005,0.002 -0.008,0.006 -0.0124,0.008 -0.005,0.002 -0.0111,0.002 -0.0165,0.004 -0.003,0.001 -0.006,0.003 -0.008,0.004 -0.006,0.003 -0.0108,0.006 -0.0165,0.008 -0.005,0.002 -0.0111,0.003 -0.0165,0.004 -0.024,0.007 -0.002,0.001 -0.0207,0.008 -0.0158,0.006 -0.009,2.6e-4 -0.0165,0.008"
         id="path125-1-0-1-1" /><path
         style="fill:#ffffff;fill-opacity:1;stroke:#000000;stroke-width:0.4;stroke-linecap:butt;stroke-linejoin:miter;stroke-dasharray:none;paint-order:normal"
         id="path42-9-4"
         sodipodi:type="arc"
         sodipodi:cx="89.032684"
         sodipodi:cy="65.008957"
         sodipodi:rx="3.4483333"
         sodipodi:ry="8.6544228"
         sodipodi:start="5.6971619"
         sodipodi:end="0.84458512"
         sodipodi:arc-type="arc"
         d="m 91.905651,60.222608 a 3.4483333,8.6544228 0 0 1 -0.58313,11.257223"
         sodipodi:open="true" /><ellipse
         style="fill:#ffffff;fill-opacity:1;stroke:#000000;stroke-width:0.305;stroke-linecap:butt;stroke-linejoin:miter;stroke-dasharray:none;paint-order:normal"
         id="path43-4-6"
         cx="77.151001"
         cy="66.632858"
         rx="1.5664028"
         ry="1.9518864" /><path
         style="fill:none;fill-opacity:1;stroke:#000000;stroke-width:0.305039;stroke-linecap:butt;stroke-linejoin:miter;stroke-dasharray:none;paint-order:normal"
         id="path43-7-2-3"
         sodipodi:type="arc"
         sodipodi:cx="67.508057"
         sodipodi:cy="76.810959"
         sodipodi:rx="1.5664028"
         sodipodi:ry="1.8857406"
         sodipodi:start="4.8808936"
         sodipodi:end="1.7113281"
         sodipodi:arc-type="arc"
         d="m 67.770755,74.951927 a 1.5664028,1.8857406 0 0 1 1.285042,2.149255 1.5664028,1.8857406 0 0 1 -1.767146,1.576927"
         sodipodi:open="true"
         transform="rotate(-8.0299771)" /><ellipse
         style="fill:#ffffff;fill-opacity:1;stroke:#000000;stroke-width:0.312787;stroke-linecap:butt;stroke-linejoin:miter;stroke-dasharray:none;paint-order:normal"
         id="path44-9-0"
         cx="76.792175"
         cy="66.643921"
         rx="0.53658628"
         ry="0.61830986" /><path
         style="fill:#ffffff;fill-opacity:1;stroke:#000000;stroke-width:0.4;stroke-linecap:butt;stroke-linejoin:miter;stroke-dasharray:none;paint-order:normal"
         d="m 74.37349,75.946547 c 0.0939,-0.02564 0.16962,-0.105261 0.25725,-0.140316 0.21579,-0.08631 0.11663,-0.01506 0.35079,-0.07016 0.8087,-0.19028 -0.37012,0.03136 0.42095,-0.09354 0.31391,-0.04956 0.63766,-0.133692 0.95883,-0.09355 0.0658,0.0082 0.30856,0.256509 0.35079,0.30402 0.0259,0.02913 0.0408,0.06788 0.0702,0.09354 0.0342,0.02993 0.0811,0.04225 0.11693,0.07016 0.0348,0.02707 0.0601,0.06485 0.0935,0.09354 0.0804,0.06895 0.0753,0.01426 0.14031,0.04677 0.14559,0.07279 0.35841,-0.04089 0.51449,-0.07016 0.0932,-0.01749 0.18832,-0.02506 0.28064,-0.04677 0.0778,-0.01828 0.29097,-0.10659 0.37417,-0.02339 0.0984,0.0984 0.14209,0.277879 0.21048,0.397563 0.0457,0.07994 0.12249,0.128058 0.1637,0.210476 0.13564,0.271285 0.14032,0.592894 0.14032,0.888669 0,0.157147 0.0221,0.336302 0,0.491109 -0.031,0.216631 -0.22064,0.621591 -0.35079,0.795126 -0.086,0.114655 -0.20718,0.198374 -0.30402,0.30402 -0.1574,0.171704 -0.30727,0.372692 -0.5145,0.491109 -0.0214,0.01222 -0.049,0.01069 -0.0702,0.02339 -0.0581,0.0024 -0.0377,0.07192 -0.0701,0.09354 -0.013,0.0087 -0.0328,-0.007 -0.0468,0 -0.0375,0.01876 -0.0764,0.08004 -0.11693,0.09354 -0.0148,0.0049 -0.032,-0.0049 -0.0468,0 -0.0209,0.007 -0.0271,0.03691 -0.0468,0.04677 -0.0399,0.01998 -0.0998,0.03978 -0.14031,0.07016 -0.0366,0.02748 -0.0676,0.09355 -0.11693,0.09355"
         id="path52-8-8" /><path
         style="fill:#ffffff;fill-opacity:1;stroke:#000000;stroke-width:0.4;stroke-linecap:butt;stroke-linejoin:miter;stroke-dasharray:none;paint-order:normal"
         d="m 76.688,80.053804 c 0.18497,-0.0312 0.37034,-0.06249 0.55398,-0.09922 0.0226,-0.0045 0.0139,-0.02349 0.0331,-0.03307 0.005,-0.0024 0.0113,0.0019 0.0165,0 0.0212,-0.0071 0.0151,-0.0098 0.0331,-0.02479 0.0125,-0.0104 0.0744,-0.04305 0.0744,-0.05788"
         id="path53-7-0" /><path
         style="fill:none;fill-opacity:1;stroke:#000000;stroke-width:0.291182;stroke-linecap:butt;stroke-linejoin:miter;stroke-dasharray:none;stroke-opacity:1;paint-order:normal"
         d="m 87.672397,80.852813 c 0,-0.0263 -0.0081,-0.05395 0,-0.07891 0.0057,-0.01763 0.02752,-0.02457 0.03838,-0.03945 0.03701,-0.05074 0.08527,-0.123826 0.115131,-0.177545 0.01003,-0.01805 0.0074,-0.04226 0.01919,-0.05918 0.02104,-0.03027 0.04928,-0.0547 0.07675,-0.07891 0.05928,-0.05223 0.130919,-0.08795 0.191886,-0.138087 0.02119,-0.01743 0.03549,-0.04296 0.05757,-0.05918 0.196515,-0.144306 -0.02228,0.03741 0.134322,-0.05918 0.0155,-0.0096 0.02287,-0.02989 0.03838,-0.03945 0.143372,-0.08844 -0.04131,0.06372 0.134322,-0.03945 0.02356,-0.01384 0.03696,-0.04102 0.05757,-0.05918 0.02428,-0.0214 0.05414,-0.03593 0.07675,-0.05918 0.099,-0.101776 0.209132,-0.272182 0.268643,-0.394539 0.06594,-0.135577 0.09245,-0.295896 0.153508,-0.433996 0.01543,-0.03491 0.04372,-0.06304 0.05757,-0.09864 0.01211,-0.03113 0.0089,-0.06682 0.01919,-0.09863 0.0091,-0.0279 0.02833,-0.05137 0.03838,-0.07891 0.03689,-0.10114 0.002,-0.06505 0.03838,-0.177542 0.0091,-0.0279 0.02833,-0.05137 0.03837,-0.07891 0.02458,-0.06738 0.0165,-0.129825 0.03838,-0.197272"
         id="path67-7" /><path
         style="fill:none;fill-opacity:1;stroke:#000000;stroke-width:0.349999;stroke-linecap:butt;stroke-linejoin:miter;stroke-dasharray:none;stroke-opacity:1;paint-order:normal"
         d="m 79.540364,80.730989 c 0.05512,-0.02204 0.110244,-0.0441 0.165364,-0.06615 0,-0.01103 -0.0078,-0.02527 0,-0.03307 0.02225,-0.02225 0.654339,0 0.694531,0 0.762207,0 1.520934,0.0049 2.282032,0.03307 0.329599,0.0122 0.663,-0.02059 0.992187,0 0.09963,0.0062 0.197882,0.02975 0.297656,0.03307 0.644726,0.02148 1.307815,-0.04767 1.951302,0 0.09066,0.0067 0.174911,0.0512 0.264584,0.06614 0.383169,0.06386 1.564074,0.07395 1.984375,-0.06614 0.08307,-0.02769 0.150365,-0.124794 0.23151,-0.165365"
         id="path76" /><path
         style="fill:none;fill-opacity:1;stroke:#000000;stroke-width:0.349999;stroke-linecap:butt;stroke-linejoin:miter;stroke-dasharray:none;stroke-opacity:1;paint-order:normal"
         d="m 77.225259,80.697916 c -0.08819,-0.03307 -0.175225,-0.06943 -0.264583,-0.09922 -0.227518,-0.07584 -0.415208,-0.157993 -0.628385,-0.264583 -0.107569,-0.05379 -0.07867,-0.0084 -0.165365,-0.06615 -0.06424,-0.04282 -0.297775,-0.198438 -0.330729,-0.198438"
         id="path77" /><path
         style="fill:none;fill-opacity:1;stroke:#000000;stroke-width:0.349999;stroke-linecap:butt;stroke-linejoin:miter;stroke-dasharray:none;stroke-opacity:1;paint-order:normal"
         d="m 90.752082,76.067707 c 0.127619,0.471035 0.266801,0.961144 0.231511,1.455209 -0.0048,0.06689 -0.0275,0.131611 -0.03307,0.198437 -0.0026,0.03058 0.01585,0.323033 -0.03307,0.363802 -0.153601,0.128 -0.318278,0.185555 -0.496094,0.264584 -0.09072,0.04032 -0.236895,0.165364 -0.330729,0.165364"
         id="path78" /><path
         style="fill:none;fill-opacity:1;stroke:#000000;stroke-width:0.349999;stroke-linecap:butt;stroke-linejoin:miter;stroke-dasharray:none;stroke-opacity:1;paint-order:normal"
         d="m 88.370832,80.730989 c 0.318511,-0.403591 0.893387,-0.529585 1.256771,-0.892969 0.04955,-0.04955 0.0684,-0.202949 0.09922,-0.264584 0.02717,-0.05434 0.08303,-0.100594 0.09922,-0.165364 0.008,-0.03209 -0.01479,-0.06964 0,-0.09922 0.01926,-0.03853 0.04688,-0.06069 0.06614,-0.09922 0.03662,-0.07325 -0.165364,-0.296381 -0.165364,-0.363802"
         id="path79" /><path
         style="fill:none;fill-opacity:1;stroke:#000000;stroke-width:0.349999;stroke-linecap:butt;stroke-linejoin:miter;stroke-dasharray:none;stroke-opacity:1;paint-order:normal"
         d="m 90.189843,78.448957 c -0.187413,0 -0.374828,0 -0.56224,0"
         id="path80" /><path
         style="fill:none;fill-opacity:1;stroke:#000000;stroke-width:0.349999;stroke-linecap:butt;stroke-linejoin:miter;stroke-dasharray:none;stroke-opacity:1;paint-order:normal"
         d="m 76.629947,80.433332 c 0.176996,0.126775 0.324593,0.07365 0.529167,0.09922 0.09021,0.01127 0.176389,0.0441 0.264583,0.06615 0.09922,0.01103 0.198437,0.02204 0.297656,0.03307 0.514572,0.05717 1.03123,0.223499 1.554427,0.165364 0.166701,-0.01852 0.327628,-0.05083 0.496094,-0.06615 0.126328,-0.01148 0.272153,0.02495 0.396875,0 0.08368,-0.01675 0.178483,-0.06615 0.264583,-0.06615"
         id="path81" /><path
         style="fill:none;fill-opacity:1;stroke:#000000;stroke-width:0.349999;stroke-linecap:butt;stroke-linejoin:miter;stroke-dasharray:none;stroke-opacity:1;paint-order:normal"
         d="m 89.732402,78.951417 c -0.04677,-0.03898 -0.09161,-0.0804 -0.140317,-0.11693 -0.109971,-0.08248 -0.214812,-0.150201 -0.304019,-0.257246 -0.03281,-0.03938 -0.05635,-0.140317 -0.11693,-0.140317"
         id="path82" /><path
         style="fill:none;fill-opacity:1;stroke:#000000;stroke-width:0.349999;stroke-linecap:butt;stroke-linejoin:miter;stroke-dasharray:none;stroke-opacity:1;paint-order:normal"
         d="m 90.293668,75.583822 c 0.113625,0.232867 0.326961,0.396898 0.467722,0.608038 0.02162,0.03243 0.05783,0.05657 0.07016,0.09354 0.03375,0.101253 -0.04471,-0.0086 0.02339,0.09354 0.02167,0.0325 0.04677,0.04984 0.04677,0.09355"
         id="path83" /><path
         style="fill:none;fill-opacity:1;stroke:#000000;stroke-width:0.349999;stroke-linecap:butt;stroke-linejoin:miter;stroke-dasharray:none;stroke-opacity:1;paint-order:normal"
         d="m 90.205969,78.600627 c -0.05177,-0.04081 -0.112988,-0.04971 -0.175395,-0.06431 -0.06628,-0.01551 -0.132265,-0.03231 -0.198781,-0.04677 -0.0218,-0.0047 -0.09067,-0.01244 -0.11693,-0.02339 -0.009,-0.0038 -0.01466,-0.01318 -0.02339,-0.01754 -0.0072,-0.0036 -0.01619,-0.0024 -0.02339,-0.0058 -0.0099,-0.0049 -0.01479,-0.01651 -0.02339,-0.02339 -0.04623,-0.03699 -0.07244,-0.08528 -0.105235,-0.134472 -0.01281,-0.01921 -0.06431,-0.113784 -0.06431,-0.134469"
         id="path84" /></g></g></svg>
