<?xml version="1.0" encoding="UTF-8" standalone="no"?>
<!-- Created with Inkscape (http://www.inkscape.org/) -->

<svg
   width="44.674984mm"
   height="50.882984mm"
   viewBox="0 0 44.674984 50.882984"
   version="1.1"
   id="svg1"
   xml:space="preserve"
   sodipodi:docname="drawing-1.svg"
   inkscape:version="1.3.2 (091e20e, 2023-11-25, custom)"
   xmlns:inkscape="http://www.inkscape.org/namespaces/inkscape"
   xmlns:sodipodi="http://sodipodi.sourceforge.net/DTD/sodipodi-0.dtd"
   xmlns="http://www.w3.org/2000/svg"
   xmlns:svg="http://www.w3.org/2000/svg"><sodipodi:namedview
     id="namedview1"
     pagecolor="#ffffff"
     bordercolor="#000000"
     borderopacity="0.25"
     inkscape:showpageshadow="2"
     inkscape:pageopacity="0.0"
     inkscape:pagecheckerboard="0"
     inkscape:deskcolor="#d1d1d1"
     inkscape:document-units="mm"
     inkscape:zoom="1"
     inkscape:cx="389"
     inkscape:cy="216.5"
     inkscape:window-width="1363"
     inkscape:window-height="1041"
     inkscape:window-x="2356"
     inkscape:window-y="42"
     inkscape:window-maximized="0"
     inkscape:current-layer="layer1"
     showguides="false"
     showgrid="false" /><defs
     id="defs1"><linearGradient
       id="swatch38"
       inkscape:swatch="solid"><stop
         style="stop-color:#f5f5f5;stop-opacity:1;"
         offset="0"
         id="stop38" /></linearGradient><linearGradient
       id="swatch37"
       inkscape:swatch="solid"><stop
         style="stop-color:#000000;stop-opacity:1;"
         offset="0"
         id="stop37" /></linearGradient><linearGradient
       id="swatch32"
       inkscape:swatch="solid"><stop
         style="stop-color:#000000;stop-opacity:1;"
         offset="0"
         id="stop32" /></linearGradient></defs><g
     inkscape:label="Layer 1"
     inkscape:groupmode="layer"
     id="layer1"
     transform="translate(-0.24050801,-0.24050801)"><rect
       style="fill:none;fill-opacity:1;stroke:none;stroke-width:0.481016;stroke-linecap:butt;stroke-linejoin:miter;stroke-dasharray:none;stroke-opacity:1;paint-order:normal"
       id="rect37"
       width="44.674984"
       height="50.882984"
       x="0.24050801"
       y="0.24050801"
       ry="0"
       rx="0"
       inkscape:export-filename="4.svg"
       inkscape:export-xdpi="96"
       inkscape:export-ydpi="96" /><g
       id="g98"
       transform="translate(-57.441727,3.5922912)"><path
         style="fill:none;stroke:#000000;stroke-width:0.4;stroke-dasharray:none;stroke-opacity:1"
         id="path31-0-9-0-2"
         sodipodi:type="arc"
         sodipodi:cx="74.844482"
         sodipodi:cy="17.568348"
         sodipodi:rx="3.8308399"
         sodipodi:ry="8.3343439"
         sodipodi:start="2.1514197"
         sodipodi:end="3.5610709"
         sodipodi:arc-type="arc"
         d="M 72.743093,24.536867 A 3.8308399,8.3343439 0 0 1 71.34577,14.173903"
         sodipodi:open="true" /><path
         style="fill:none;stroke:#000000;stroke-width:0.4;stroke-dasharray:none;stroke-opacity:1"
         id="path32-9-1-7-4"
         sodipodi:type="arc"
         sodipodi:cx="80.475868"
         sodipodi:cy="15.849261"
         sodipodi:rx="10.248065"
         sodipodi:ry="6.666532"
         sodipodi:start="4.5926728"
         sodipodi:end="6.1263808"
         sodipodi:arc-type="arc"
         d="M 79.251937,9.2304445 A 10.248065,6.666532 0 0 1 90.598203,14.808198"
         sodipodi:open="true" /><path
         style="fill:none;stroke:#000000;stroke-width:0.4;stroke-dasharray:none;stroke-opacity:1"
         id="path35-6-1-6-3"
         sodipodi:type="arc"
         sodipodi:cx="88.785172"
         sodipodi:cy="20.378117"
         sodipodi:rx="3.4040329"
         sodipodi:ry="5.5951972"
         sodipodi:start="5.3765344"
         sodipodi:end="1.1248293"
         sodipodi:arc-type="arc"
         d="m 90.883371,15.972213 a 3.4040329,5.5951972 0 0 1 1.285599,5.015069 3.4040329,5.5951972 0 0 1 -1.915535,4.438788"
         sodipodi:open="true" /><path
         style="fill:none;stroke:#000000;stroke-width:0;stroke-dasharray:none;stroke-opacity:1"
         d="m 90.382489,20.596118 c 0.0165,0.0193 0.0298,0.042 0.0496,0.0579 0.0221,0.0177 0.0498,0.0273 0.0744,0.0413 0.0332,0.019 0.0657,0.0394 0.0992,0.0579 0.0464,0.0256 0.0939,0.0492 0.140561,0.0744 0.10356,0.056 0.215869,0.11636 0.314189,0.1819 0.0323,0.0215 0.0999,0.0687 0.13229,0.10749 0.004,0.005 0.005,0.011 0.008,0.0165"
         id="path50-1-2-9-5" /><path
         style="fill:none;stroke:#000000;stroke-width:0.2;stroke-dasharray:none;stroke-opacity:1"
         d="m 90.292679,25.278163 -0.122991,0.08862 c -0.002,0.0018 0.002,0.006 0,0.008 -0.002,0.002 -0.0438,0.0315 -0.0448,0.0328 -7.1e-4,7.9e-4 -0.0215,0.0479 -0.0224,0.0492 -0.006,0.009 -0.0164,0.0158 -0.0224,0.0246 -0.032,0.0469 0.007,0.005 -0.0224,0.041 -0.007,0.009 -0.0187,0.0151 -0.0224,0.0246 -0.0162,0.0416 0.0175,0.0223 -0.0112,0.0574 -0.0221,0.027 -0.0226,0.005 -0.0336,0.0328 -0.005,0.0134 -0.008,0.0272 -0.0112,0.041 -10e-4,0.005 0.003,0.0115 0,0.0164 -0.005,0.007 -0.0177,0.01 -0.0224,0.0164 -0.003,0.005 0.002,0.0111 0,0.0164 -0.002,0.006 -0.009,0.0104 -0.0112,0.0164 -0.002,0.005 0,0.0109 0,0.0164 -0.004,0.005 -0.008,0.0106 -0.0112,0.0164 -9.99e-4,0.003 0,0.006 0,0.008 v 0.0164 0.0574 0.008 c 0,0.003 0.001,0.006 0,0.008 -0.0233,0.0682 7.2e-4,-0.01 -0.0224,0.041 -10e-4,0.003 0,0.005 0,0.008 0,0.006 0.002,0.0111 0,0.0164 -0.002,0.006 -0.009,0.0105 -0.0112,0.0164 -0.002,0.005 0.003,0.0112 0,0.0164 -0.002,0.004 -0.009,0.005 -0.0112,0.008 -0.002,0.002 0,0.006 0,0.008 v 0.008"
         id="path61-1-1-1-6"
         sodipodi:nodetypes="cssccscssccccccccsccsccsccccsc" /><path
         style="fill:none;stroke:#000000;stroke-width:0.429363;stroke-dasharray:none;stroke-opacity:1"
         id="path71-2-3-88-0"
         sodipodi:type="arc"
         sodipodi:cx="82.829308"
         sodipodi:cy="25.34721"
         sodipodi:rx="7.4573665"
         sodipodi:ry="2.3903956"
         sodipodi:start="0.017030254"
         sodipodi:end="2.0444889"
         sodipodi:arc-type="arc"
         d="m 90.285593,25.387917 a 7.4573665,2.3903956 0 0 1 -3.62195,2.009511 7.4573665,2.3903956 0 0 1 -7.236202,0.07697"
         sodipodi:open="true" /><path
         style="fill:none;stroke:#000000;stroke-width:0.402556;stroke-dasharray:none;stroke-opacity:1"
         id="path77-0-9-8-3"
         transform="matrix(0.73160522,-0.68172854,0.55707058,0.83046515,0,0)"
         d="m 56.796832,61.658896 a 2.9347785,1.4888777 0 0 1 -3.921895,0.220355 2.9347785,1.4888777 0 0 1 -0.809351,-1.959266"
         sodipodi:type="arc"
         sodipodi:arc-type="arc"
         sodipodi:start="0.72323758"
         sodipodi:end="3.6722719"
         sodipodi:ry="1.4888777"
         sodipodi:rx="2.9347785"
         sodipodi:cy="60.673534"
         sodipodi:cx="54.596725"
         sodipodi:open="true" /><path
         style="fill:none;stroke:#000000;stroke-width:0.400019;stroke-dasharray:none;stroke-opacity:1"
         id="path78-7-7-9-5"
         transform="matrix(0.65874849,-0.75236322,0.74317822,0.66909352,0,0)"
         sodipodi:type="arc"
         sodipodi:cx="39.572659"
         sodipodi:cy="63.23127"
         sodipodi:rx="2.331296"
         sodipodi:ry="1.0679586"
         sodipodi:start="0.10804945"
         sodipodi:end="3.3365412"
         sodipodi:arc-type="arc"
         d="m 41.890359,63.346438 a 2.331296,1.0679586 0 0 1 -1.438742,0.873978 2.331296,1.0679586 0 0 1 -2.362161,-0.165203 2.331296,1.0679586 0 0 1 -0.803933,-1.030824"
         sodipodi:open="true" /><path
         style="fill:none;stroke:#000000;stroke-width:0.400084;stroke-dasharray:none;stroke-opacity:1"
         id="path79-8-0-3-0"
         transform="matrix(0.70274787,-0.71143899,0.69071875,0.72312351,0,0)"
         sodipodi:type="arc"
         sodipodi:cx="44.420227"
         sodipodi:cy="62.380138"
         sodipodi:rx="2.8008327"
         sodipodi:ry="1.3753573"
         sodipodi:start="0.8202903"
         sodipodi:end="3.081061"
         sodipodi:arc-type="arc"
         d="M 46.33042,63.385997 A 2.8008327,1.3753573 0 0 1 43.381655,63.657446 2.8008327,1.3753573 0 0 1 41.624524,62.46334"
         sodipodi:open="true" /><path
         style="fill:none;stroke:#000000;stroke-width:0.35;stroke-dasharray:none;stroke-opacity:1"
         d="m 68.136969,7.4677181 h -0.152 c -0.0156,0 -0.0312,-0.001 -0.0468,0 -0.0313,0.003 -0.0622,0.009 -0.0935,0.0117 -0.0427,0.003 -0.0859,-0.003 -0.12863,0 -0.0275,0.002 -0.0546,0.007 -0.0819,0.0117 -0.0234,0.004 -0.0466,0.009 -0.0702,0.0117 -0.008,0.001 -0.0156,0 -0.0234,0 -0.004,0 -0.009,-0.003 -0.0117,0 -0.003,0.003 0.003,0.009 0,0.0117 -0.003,0.003 -0.008,0 -0.0117,0 -0.008,0 -0.016,-0.002 -0.0234,0 -0.0156,0.008 -0.0312,0.0156 -0.0468,0.0234 0,0.004 0.003,0.009 0,0.0117 -0.003,0.003 -0.009,-0.003 -0.0117,0 -0.003,0.003 -0.003,0.009 0,0.0117 0.006,0.006 0.015,0.009 0.0234,0.0117 0.0191,0.005 0.0394,0.006 0.0585,0.0117 0.11374,0.0341 0.003,0.0161 0.11693,0.0351 0.004,5.3e-4 0.008,0 0.0117,0 h 0.0117 c 0.004,0 0.008,-0.002 0.0117,0 0.001,5.3e-4 0.0218,0.0223 0.0234,0.0234 0.006,0.0258 0.0241,0.006 0.0351,0.0117 0.005,0.002 0.007,0.009 0.0117,0.0117 0.0312,0 -0.004,-0.004 0.0117,0.0117 0.003,0.003 0.0117,-0.004 0.0117,0 0,0.006 -0.007,0.009 -0.0117,0.0117 -0.0188,0.009 -0.0401,0.0132 -0.0585,0.0234 -0.017,0.009 -0.033,0.0213 -0.0468,0.0351 -0.01,0.01 -0.0156,0.0234 -0.0234,0.0351 -0.0117,0.0156 -0.0213,0.033 -0.0351,0.0468 -0.0138,0.0138 -0.033,0.0213 -0.0468,0.0351 -0.1372,0.1372 -0.0276,0.0345 -0.0935,0.11693 -0.007,0.009 -0.0193,0.0131 -0.0234,0.0234 -0.004,0.0108 0.002,0.0235 0,0.0351 -0.005,0.0292 -0.031,0.0633 -0.0234,0.0935 0.002,0.008 0.008,0.0153 0.0117,0.0234 0.005,0.0114 0.004,0.0252 0.0117,0.0351 0.005,0.007 0.0156,0.008 0.0234,0.0117 0.0199,-0.004 0.0225,0.0171 0.0351,0.0234 0.004,0.002 0.008,0 0.0117,0 h 0.0585 0.0117 c 0.004,0 0.009,-0.003 0.0117,0 0.003,0.003 0.003,0.01 0,0.0117 -0.0103,0.007 -0.0241,0.006 -0.0351,0.0117 -0.117429,0.0587 0.0617,-0.0147 -0.0819,0.0468 -0.0113,0.005 -0.0244,0.006 -0.0351,0.0117 -0.0169,0.01 -0.0307,0.024 -0.0468,0.0351 -0.0347,0.024 -0.0718,0.0444 -0.105241,0.0702 -0.0236,0.0182 -0.0573,0.0614 -0.0818,0.0819 -0.0108,0.009 -0.0273,0.0117 -0.0351,0.0234 -0.009,0.0134 -0.007,0.0315 -0.0117,0.0468 -0.0113,0.034 -0.0122,0.0163 -0.0351,0.0468 -0.0152,0.0202 -0.0117,0.0237 -0.0117,0.0468 v 0.0117 c 0,0.004 -0.003,0.009 0,0.0117 0.003,0.003 0.009,0.002 0.0117,0 0.0132,-0.01 0.0222,-0.0247 0.0351,-0.0351 0.0335,-0.0268 0.0227,0.005 0.0702,-0.0234 0.008,-0.004 0.005,-0.0172 0.0117,-0.0234 0.003,-0.003 0.009,0.003 0.0117,0 0.003,-0.003 -0.004,-0.01 0,-0.0117 0.007,-0.003 0.0164,-0.003 0.0234,0 0.004,0.002 5.3e-4,0.008 0,0.0117 -0.003,0.0273 -0.007,0.0546 -0.0117,0.0819 -0.004,0.0234 -0.007,0.047 -0.0117,0.0701 -0.007,0.0314 -0.0196,0.0616 -0.0234,0.0935 -0.004,0.0348 0.002,0.0702 0,0.10523 -0.002,0.0352 -0.01,0.07 -0.0117,0.10524 -0.002,0.0272 0,0.0546 0,0.0819 v 0.0702 0.10524 c 0,0.008 -0.003,0.0164 0,0.0234 0.002,0.003 0.008,0 0.0117,0 0.0224,0 0.03,10e-4 0.0585,-0.0117 0.0687,-0.0305 0.0586,-0.0417 0.116931,-0.0935 0.0145,-0.0129 0.0318,-0.0226 0.0468,-0.0351 0.008,-0.007 0.0135,-0.0184 0.0234,-0.0234 0.004,-0.002 0,0.008 0,0.0117 v 0.0234 0.0585 c 0,0.0195 -0.002,0.0391 0,0.0585 0.002,0.0122 0.008,0.0234 0.0117,0.0351 0.004,0.0195 0.01,0.0387 0.0117,0.0585 0.002,0.0233 -0.004,0.0471 0,0.0702 0.004,0.0207 0.0179,0.0382 0.0234,0.0585 0.0142,0.0519 0.014,0.12563 0.0234,0.1754 0.005,0.0279 0.0156,0.0546 0.0234,0.0819 0.008,0.0273 0.015,0.0547 0.0234,0.0819 0.007,0.0236 0.0174,0.0462 0.0234,0.0702 0.0317,0.0283 0.005,0.0627 0.0117,0.0935 0.002,0.0121 0.009,0.0231 0.0117,0.0351 0.001,0.004 0,0.008 0,0.0117 v 0.0234 c 0,0.008 -0.002,0.0158 0,0.0234 0.002,0.008 0.008,0.0153 0.0117,0.0234 0.005,0.0114 0.008,0.0232 0.0117,0.0351 0.004,0.0155 0.008,0.0311 0.0117,0.0468 0.004,0.0194 0.004,0.04 0.0117,0.0585 0.008,0.0211 0.0263,0.0375 0.0351,0.0585 0.0109,0.0262 0.0132,0.0554 0.0234,0.0819 0.009,0.0244 0.0234,0.0468 0.0351,0.0702 0.008,0.0156 0.0144,0.0318 0.0234,0.0468 0.003,0.005 0.009,0.007 0.0117,0.0117 0.005,0.011 0.006,0.0241 0.0117,0.0351 0.002,0.005 0.009,0.007 0.0117,0.0117 0.002,0.003 -0.004,0.0117 0,0.0117 0.004,0 0,-0.008 0,-0.0117 v -0.0702 -0.0351 c 0,-0.004 0.004,-0.0117 0,-0.0117 -0.004,0 -0.002,0.008 0,0.0117 0.0103,0.024 0.0206,0.0484 0.0351,0.0702 0.009,0.0138 0.0255,0.0216 0.0351,0.0351 0.0101,0.0142 0.0142,0.032 0.0234,0.0468 0.0103,0.0165 0.0251,0.0301 0.0351,0.0468 0.0135,0.0224 0.0234,0.0468 0.0351,0.0702 0.0273,0.0546 0.0546,0.10913 0.0819,0.1637 0.092,0.19033 0.37006,1.13571 0.36251,0.468 -4e-5,-0.004 0.0545,0.13816 0,-0.0117 -0.22494,-0.44988 -0.0701,-0.25512 0.0117,-0.10526 0.0125,0.023 0.0234,0.0468 0.0351,0.0701 0.0195,0.0312 0.0404,0.0615 0.0585,0.0935 0.0171,0.0304 0.0295,0.0633 0.0468,0.0935 0.0139,0.0244 0.0312,0.0468 0.0468,0.0702 0.0156,0.0234 0.0302,0.0474 0.0468,0.0702 0.0147,0.0202 0.0334,0.0374 0.0468,0.0585 0.014,0.0221 0.0234,0.0468 0.0351,0.0702 0.008,0.0156 0.0125,0.0332 0.0234,0.0468 0.39302,0.26897 0.27369,1.02145 0.43265,0.4094 0.004,0.003 0.006,0.0117 0.0117,0.0117 0.004,0 10e-4,-0.008 0,-0.0117 -0.007,-0.0162 -0.0169,-0.0306 -0.0234,-0.0468 -0.009,-0.0229 -0.0145,-0.0471 -0.0234,-0.0702 -0.16317,-0.39176 -0.0774,-0.20238 0.0818,0.0702 0.0179,0.0284 0.0394,0.0543 0.0585,0.0819 0.016,0.0231 0.0308,0.0471 0.0468,0.0702 0.0191,0.0276 0.0394,0.0543 0.0585,0.0819 0.016,0.0231 0.0288,0.0486 0.0468,0.0701 0.0212,0.0254 0.0468,0.0468 0.0702,0.0702 0.0273,0.0273 0.0569,0.0524 0.0818,0.0819 0.0182,0.0214 0.0292,0.0482 0.0468,0.0701 0.0138,0.0172 0.033,0.0296 0.0468,0.0468 0.0176,0.0219 0.028,0.0493 0.0468,0.0701 0.0276,0.0307 0.11478,0.082 0.14032,0.10524 0.0185,0.0168 0.0291,0.0408 0.0468,0.0585 0.0138,0.0138 0.0312,0.0234 0.0468,0.0351 0.0156,0.0117 0.032,0.0224 0.0468,0.0351 0.0168,0.0143 0.0312,0.0312 0.0468,0.0468 0.004,0.004 0.007,0.009 0.0117,0.0117 0.004,0.002 0.008,0 0.0117,0 h 0.0117 c 0.004,0 0.009,0.003 0.0117,0 0.0187,-0.0187 0.0117,-0.0481 0.0117,-0.0702 0,-0.0156 0.002,-0.0313 0,-0.0468 -0.002,-0.0198 -0.007,-0.0393 -0.0117,-0.0585 -0.0105,-0.0393 -0.0231,-0.078 -0.0351,-0.11694 -0.004,-0.0118 -0.006,-0.024 -0.0117,-0.0351 -0.002,-0.003 -0.002,0.009 0,0.0117 0.01,0.0132 0.0234,0.0234 0.0351,0.0351 0.0234,0.0234 0.0468,0.0468 0.0702,0.0701 0.0312,0.0312 0.0631,0.0617 0.0935,0.0935 0.0514,0.0539 0.0994,0.11105 0.15201,0.1637 0.0215,0.0215 0.0486,0.0369 0.0702,0.0585 0.0177,0.0177 0.0281,0.0419 0.0468,0.0585 0.017,0.0151 0.0405,0.0211 0.0585,0.0351 0.0522,0.0406 0.0409,0.0468 0.0819,0.0936 0.0437,0.0499 0.0638,0.058 0.11693,0.10523 0.0124,0.011 0.0225,0.0243 0.0351,0.0351 0.0148,0.0127 0.0312,0.0234 0.0468,0.0351 0.0156,0.0156 0.0302,0.0323 0.0468,0.0468 0.0416,0.0364 0.0486,0.0286 0.0818,0.0702 0.006,0.007 0.006,0.0172 0.0117,0.0234 0.01,0.01 0.0241,0.0146 0.0351,0.0234 0.009,0.007 0.0139,0.0177 0.0234,0.0234 0.0106,0.006 0.0252,0.004 0.0351,0.0117 0.007,0.005 0.005,0.0172 0.0117,0.0234 0.003,0.003 0.009,0.003 0.0117,0 0.003,-0.003 5.3e-4,-0.008 0,-0.0117 -0.012,-0.096 -0.004,-0.0613 -0.0351,-0.14032 -0.008,-0.0195 -0.0193,-0.0379 -0.0234,-0.0585 -0.004,-0.0191 0.003,-0.0392 0,-0.0585 -7.9e-4,-0.005 -0.006,-0.0117 -0.0117,-0.0117 -0.004,0 0,0.008 0,0.0117 0,0.0328 -0.004,0.0394 0.0117,0.0702 0.006,0.0126 0.0164,0.0229 0.0234,0.0351 0.009,0.0151 0.0142,0.032 0.0234,0.0468 0.0119,0.0191 0.0717,0.0926 0.0819,0.10524 0.0156,0.0195 0.0339,0.0371 0.0468,0.0585 0.0108,0.018 0.0122,0.0407 0.0234,0.0585 0.009,0.014 -0.2514,-0.0175 -0.23971,-0.006 0.0117,0.0117 0.29818,0.0643 0.30987,0.076 0.0195,0.0195 0.0377,0.0403 0.0585,0.0585 0.0106,0.009 0.0238,0.0149 0.0351,0.0234 0.0224,0.0168 0.002,0.008 0.0234,0.0351 0.0104,0.0129 0.0234,0.0234 0.0351,0.0351 0.004,0.004 0.008,0.008 0.0117,0.0117 0.008,0.008 0.0146,0.0168 0.0234,0.0234 0.007,0.005 0.0151,0.009 0.0234,0.0117 0.004,10e-4 0.009,-0.003 0.0117,0 0.003,0.003 -0.003,0.009 0,0.0117 0.006,0.006 0.0172,0.006 0.0234,0.0117 0.006,0.006 0.005,0.0172 0.0117,0.0234 0.006,0.006 0.0172,0.006 0.0234,0.0117 0.0416,0.0416 0.002,0.0351 0.0468,0.0351"
         id="path97-4-4-7-7"
         sodipodi:nodetypes="cscccscsscscccsscscsscccccsccccsccscccsccscssccccsssssssscccccscccscsscscscscsccscsccsssssccscssccssssssccccsscsscssssssscscssssssscscsssssscscsscssscccsscsccsccsccssscssscsccccccscsssssscsssssscccccccsscccc" /><path
         style="fill:none;stroke:#000000;stroke-width:0.35;stroke-dasharray:none;stroke-opacity:1"
         d="m 74.322589,10.683308 c -0.1224,-0.14688 -0.19031,-0.14677 -0.26894,-0.30402 -0.0172,-0.0343 -0.0296,-0.0709 -0.0468,-0.10524 -0.014,-0.0281 -0.0327,-0.0537 -0.0468,-0.0819 -0.0271,-0.0814 0.008,0.006 -0.0351,-0.0585 -0.002,-0.003 0,-0.0156 0,-0.0117 v 0.0468 c 0,0.0117 -0.002,0.0236 0,0.0351 0.002,0.0121 0.009,0.023 0.0117,0.0351 0.005,0.0234 -0.009,0.0376 0.0117,0.0585 0.003,0.003 0,-0.008 0,-0.0117 0,-0.0156 0.007,-0.0328 0,-0.0468 -0.0136,-0.0272 -0.0416,-0.0448 -0.0585,-0.0702 -0.0145,-0.0218 -0.0227,-0.0471 -0.0351,-0.0702 -0.0149,-0.0277 -0.0303,-0.0551 -0.0468,-0.0819 -0.0147,-0.0239 -0.0335,-0.0454 -0.0468,-0.0702 -0.0141,-0.0261 -0.0225,-0.055 -0.0351,-0.0819 -0.0147,-0.0316 -0.032,-0.0619 -0.0468,-0.0935 -0.0125,-0.0269 -0.0234,-0.0546 -0.0351,-0.0818 -0.0363,-0.0847 -0.0457,-0.10487 -0.0818,-0.19879 -0.009,-0.023 -0.0142,-0.0473 -0.0234,-0.0702 0.004,-0.0199 -0.0171,-0.0225 -0.0234,-0.0351 -0.007,-0.0144 0.0196,-0.0234 -0.0234,-0.0234 -0.004,0 0,0.008 0,0.0117 v 0.0234 0.14032 0.10524 0.0468 c 0,0.0117 -0.003,0.0237 0,0.0351 0.001,0.005 0.006,0.0117 0.0117,0.0117 0.004,0 0.002,-0.008 0,-0.0117 -0.0102,-0.0203 -0.0242,-0.0385 -0.0351,-0.0585 -0.0125,-0.023 -0.021,-0.0481 -0.0351,-0.0702 -0.0134,-0.0211 -0.0312,-0.039 -0.0468,-0.0585 -0.0156,-0.0195 -0.0312,-0.039 -0.0468,-0.0585 -0.0156,-0.0195 -0.0291,-0.0408 -0.0468,-0.0585 -0.0138,-0.0138 -0.0354,-0.0192 -0.0468,-0.0351 -0.009,-0.0131 -0.004,-0.0328 -0.0117,-0.0468 -0.0483,-0.0845 -0.0166,-0.005 -0.0585,-0.0468 -0.006,-0.006 -0.009,-0.0151 -0.0117,-0.0234 -10e-4,-0.004 0.003,-0.009 0,-0.0117 -0.003,-0.003 -0.008,0.002 -0.0117,0 -0.005,-0.002 -0.008,-0.008 -0.0117,-0.0117 -0.008,-0.008 -0.0156,-0.0156 -0.0234,-0.0234 -0.008,-0.008 -0.0156,-0.0156 -0.0234,-0.0234 -0.0117,-0.0117 -0.0245,-0.0224 -0.0351,-0.0351 -0.009,-0.0108 -0.0134,-0.0251 -0.0234,-0.0351 l -0.38587,-0.5409 c -0.0237,-0.0237 -0.0357,-0.0572 -0.0585,-0.0819 -0.0244,-0.0264 -0.0564,-0.0447 -0.0818,-0.0702 -0.0254,-0.0254 -0.0458,-0.0554 -0.0702,-0.0819 -0.0224,-0.0243 -0.0468,-0.0468 -0.0702,-0.0702 -0.0195,-0.0195 -0.039,-0.039 -0.0585,-0.0585 -0.0234,-0.0234 -0.0457,-0.0479 -0.0702,-0.0702 -0.0185,-0.0168 -0.0408,-0.0291 -0.0585,-0.0468 -0.0177,-0.0177 -0.0303,-0.0397 -0.0468,-0.0585 -0.8211,-0.75886 -0.26043,-0.23722 -0.0818,-0.0702 -0.009,-0.007 -0.0156,-0.0156 -0.0234,-0.0234 -0.0321,-0.0322 -0.0349,-0.0366 -0.0819,-0.0702 -0.007,-0.005 -0.0147,-0.0117 -0.0234,-0.0117 -0.004,0 -5.3e-4,0.008 0,0.0117 0.003,0.0196 0.007,0.0392 0.0117,0.0585 0.003,0.012 0.0102,0.0229 0.0117,0.0351 0.002,0.0194 -0.002,0.0391 0,0.0585 0.0166,0.13299 0.0117,-0.0824 0.0117,0.0819 v 0.0468 c 0,0.004 -0.004,0.0117 0,0.0117 0.004,0 0.002,-0.008 0,-0.0117 -0.002,-0.005 -0.009,-0.007 -0.0117,-0.0117 -0.005,-0.007 -0.550649,-0.57668 -0.55605,-0.58358 -0.0692,-0.089 0.46657,0.51345 0.415731,0.43156 -0.135191,-0.21774 -0.341131,-0.15015 -0.365751,-0.16805 -0.0184,-0.0134 0.256031,0.0871 0.237121,0.0745 -0.0279,-0.0186 -0.170491,0.0404 -0.193471,0.0159 -0.75327,-0.80324 -0.23182,0.10519 -1.146739,-0.7829 -0.0215,-0.0209 0.0464,0.31393 0.0189,0.29034 -0.0273,-0.0234 -0.0554,-0.0458 -0.0819,-0.0702 -0.0243,-0.0224 -0.0478,-0.0458 -0.0702,-0.0702 -0.0206,-0.0224 -0.0358,-0.0498 -0.0585,-0.0702 -0.0169,-0.0152 -0.0414,-0.0201 -0.0585,-0.0351 -0.0147,-0.0128 -0.0213,-0.033 -0.0351,-0.0468 -0.0313,-0.0313 -0.0353,-0.0121 -0.0585,-0.0468 -0.002,-0.003 0.004,-0.0117 0,-0.0117 -0.004,0 0,0.008 0,0.0117 0,0.0195 -0.005,0.0396 0,0.0585 0.003,0.0136 0.0179,0.0222 0.0234,0.0351 0.0127,0.0295 0.0107,0.064 0.0234,0.0935 0.0528,0.12312 0.004,-0.0441 0.0234,0.0702 0.002,0.0121 0.009,0.0231 0.0117,0.0351 9.99e-4,0.004 -0.003,0.009 0,0.0117 0.003,0.003 0.0117,0.004 0.0117,0 0,-0.004 -0.008,0.001 -0.0117,0 -0.008,-0.003 -0.0172,-0.006 -0.0234,-0.0117 -0.0138,-0.0138 -0.0199,-0.0346 -0.0351,-0.0468 -0.0245,-0.0196 -0.0546,-0.0312 -0.0818,-0.0468 -0.14361,-0.0821 -0.0184,-0.0142 -0.18709,-0.0935 -0.0315,-0.0148 -0.0628,-0.0304 -0.0936,-0.0468 -0.0277,-0.0148 -0.053,-0.0344 -0.0819,-0.0468 -0.0348,-0.0149 -0.10521,-0.0234 -0.14032,-0.0468 -0.007,-0.005 -0.004,-0.0186 -0.0117,-0.0234 -0.007,-0.004 -0.0156,0 -0.0234,0 -0.004,0 -0.009,-0.003 -0.0117,0 -0.003,0.003 -0.003,0.009 0,0.0117 0.006,0.006 0.0172,0.006 0.0234,0.0117 0.003,0.003 -0.002,0.0185 0,0.0234 0.0551,0.11029 0.002,-0.003 0.0351,0.0468 0.009,0.0134 0.0207,0.0449 0.0234,0.0585 0.002,0.008 -0.004,0.0164 0,0.0234 0.002,0.003 0.0117,0.004 0.0117,0 0,-0.004 -0.008,0.001 -0.0117,0 -0.008,-0.003 -0.0159,-0.007 -0.0234,-0.0117 -0.012,-0.007 -0.0229,-0.0164 -0.0351,-0.0234 -0.0151,-0.009 -0.0315,-0.0149 -0.0468,-0.0234 -0.0199,-0.011 -0.0378,-0.0257 -0.0585,-0.0351 -0.0224,-0.0102 -0.0464,-0.0166 -0.0702,-0.0234 -0.0778,-0.0222 -0.140639,-0.0335 -0.22216,-0.0468 -0.337189,-0.0547 -0.207899,-0.0379 -0.444339,-0.0585 -0.15882,-0.0138 -0.0818,-0.0117 -0.19878,-0.0117 -0.008,0 -0.0164,-0.003 -0.0234,0 -0.004,0.002 -0.002,0.008 0,0.0117 0.002,0.005 0.009,0.007 0.0117,0.0117 0.005,0.007 0.006,0.0172 0.0117,0.0234 0.006,0.006 0.0172,0.006 0.0234,0.0117 0.01,0.01 0.0124,0.0263 0.0234,0.0351 0.01,0.008 0.0255,0.004 0.0351,0.0117 0.011,0.009 0.0134,0.0251 0.0234,0.0351 0.006,0.006 0.0156,0.008 0.0234,0.0117 0.0117,0.0156 0.0238,0.0309 0.0351,0.0468 0.008,0.0114 0.0162,0.023 0.0234,0.0351 0.004,0.007 0.0117,0.0147 0.0117,0.0234 0,0.004 -0.008,0 -0.0117,0 -0.0195,0 -0.0393,0.003 -0.0585,0 -0.0243,-0.004 -0.0461,-0.0178 -0.0702,-0.0234 -0.0268,-0.006 -0.0547,-0.007 -0.0819,-0.0117 -0.0391,-0.007 -0.0774,-0.0194 -0.11693,-0.0234 -0.0388,-0.004 -0.078,0 -0.116931,0 h -0.362489 c -0.039,0 -0.0781,-0.004 -0.116931,0 -0.005,5.3e-4 -0.009,0.007 -0.0117,0.0117 -0.006,0.0115 0.005,0.017 0.0117,0.0234 0.004,0.004 0.007,0.01 0.0117,0.0117 0.007,0.002 0.0161,-0.003 0.0234,0 0.013,0.005 0.0241,0.0146 0.0351,0.0234 0.009,0.007 0.0139,0.0177 0.0234,0.0234 0.0106,0.006 0.0264,0.003 0.0351,0.0117 0.009,0.009 0.003,0.0264 0.0117,0.0351 0.009,0.009 0.0245,0.005 0.0351,0.0117 0.009,0.006 0.0148,0.0165 0.0234,0.0234 0.011,0.009 0.0251,0.0134 0.0351,0.0234 0.006,0.006 0.007,0.0161 0.0117,0.0234 0.003,0.005 0.008,0.008 0.0117,0.0117 0.0117,0.0117 0.0234,0.0234 0.0351,0.0351 0.008,0.008 0.0156,0.0156 0.0234,0.0234 0.004,0.004 0.007,0.009 0.0117,0.0117 0.0344,0.0172 -0.0154,-0.0271 0.0234,0.0117"
         id="path98-4-9-2-4"
         sodipodi:nodetypes="cssccsscccssssscsscccssscccscscssssssccsccccsscccccssssccccscsccssscccsssssscsssscssssccccscccssscccsssccsscsccccsccsscccccccccccssccccsssccccccccscccccccc" /><path
         style="fill:none;stroke:#000000;stroke-width:0.4;stroke-dasharray:none;stroke-opacity:1"
         d="m 74.251179,10.649438 c 0.011,0 0.0221,-10e-4 0.0331,0 0.0497,0.005 0.16941,0.0366 0.190171,0.0413 0.0137,0.003 0.0282,0.003 0.0413,0.008 0.0446,0.0167 0.0113,0.0103 0.0331,0.0248 0.0103,0.007 0.0228,0.01 0.0331,0.0165 0.003,0.002 0.005,0.006 0.008,0.008 0.003,0.003 0.005,0.006 0.008,0.008 0.003,0.003 0.006,0.005 0.008,0.008 0.006,0.008 0.0102,0.0172 0.0165,0.0248 0.008,0.009 0.0165,0.0165 0.0248,0.0248 0.0193,0.0193 0.0386,0.0386 0.0579,0.0579 0.005,0.005 0.011,0.011 0.0165,0.0165 0.003,0.003 0.006,0.005 0.008,0.008 0.003,0.006 0.005,0.011 0.008,0.0165 0,0.003 -9.99e-4,0.006 0,0.008 0.002,0.004 0.006,0.006 0.008,0.008"
         id="path99-4-9-8-1" /><path
         style="fill:none;stroke:#000000;stroke-width:0.148773;stroke-dasharray:none;stroke-opacity:1"
         d="m 71.679958,14.255528 c 0,0.0111 -0.003,0.0257 0.006,0.0351 0.007,0.007 0.0165,0.0107 0.0234,0.0175 0.003,0.003 0.004,0.008 0.006,0.0117 0.006,0.004 0.0119,0.007 0.0175,0.0117 0.002,0.002 0.004,0.004 0.006,0.006 0.002,0.004 0.002,0.009 0.006,0.0117 0.005,0.004 0.0125,0.002 0.0175,0.006 0.009,0.006 0.015,0.0162 0.0234,0.0234 0.005,0.005 0.0118,0.008 0.0175,0.0117 0.0314,0.0224 0.0127,0.0122 0.0351,0.0234"
         id="path100-4-73-0" /><path
         style="fill:none;stroke:#000000;stroke-width:0.402556;stroke-dasharray:none;stroke-opacity:1"
         id="path77-0-9-8-1-0"
         transform="matrix(0.73160522,-0.68172854,0.55707058,0.83046515,0,0)"
         d="m 61.702509,63.776466 a 2.9347785,1.4888777 0 0 1 0.153733,2.0112 2.9347785,1.4888777 0 0 1 -3.936299,0.25122 2.9347785,1.4888777 0 0 1 -0.832953,-1.967851"
         sodipodi:type="arc"
         sodipodi:arc-type="arc"
         sodipodi:start="5.5022195"
         sodipodi:end="3.6722719"
         sodipodi:ry="1.4888777"
         sodipodi:rx="2.9347785"
         sodipodi:cy="64.824585"
         sodipodi:cx="59.61813"
         sodipodi:open="true" /><path
         style="fill:none;stroke:#000000;stroke-width:0.400019;stroke-dasharray:none;stroke-opacity:1"
         id="path78-7-7-9-7-4"
         transform="matrix(0.65874849,-0.75236322,0.74317822,0.66909352,0,0)"
         sodipodi:type="arc"
         sodipodi:cx="43.560421"
         sodipodi:cy="67.751289"
         sodipodi:rx="2.331296"
         sodipodi:ry="1.0679586"
         sodipodi:start="6.2732028"
         sodipodi:end="3.3365412"
         sodipodi:arc-type="arc"
         d="m 45.891601,67.740629 a 2.331296,1.0679586 0 0 1 -1.285209,0.965095 2.331296,1.0679586 0 0 1 -2.457279,-0.104403 2.331296,1.0679586 0 0 1 -0.875828,-1.056912"
         sodipodi:open="true" /><g
         id="g97"><path
           style="fill:none;stroke:#000000;stroke-width:0.400084;stroke-dasharray:none;stroke-opacity:1"
           id="path79-8-0-3-6-2"
           transform="matrix(0.70274787,-0.71143899,0.69071875,0.72312351,0,0)"
           sodipodi:type="arc"
           sodipodi:cx="48.734123"
           sodipodi:cy="66.657608"
           sodipodi:rx="2.8008327"
           sodipodi:ry="1.3753573"
           sodipodi:start="6.0488435"
           sodipodi:end="3.081061"
           sodipodi:arc-type="arc"
           d="m 51.458402,66.338246 a 2.8008327,1.3753573 0 0 1 -0.919924,1.37129 2.8008327,1.3753573 0 0 1 -2.908271,0.212096 2.8008327,1.3753573 0 0 1 -1.691787,-1.180822"
           sodipodi:open="true" /></g><path
         style="fill:none;stroke:#000000;stroke-width:0.4;stroke-dasharray:none;stroke-opacity:1"
         d="m 80.237288,10.673505 c 0.011,0 0.0221,-0.001 0.0331,0 0.0497,0.005 0.16941,0.0366 0.19017,0.0413 0.0137,0.003 0.0282,0.003 0.0413,0.008 0.0446,0.0167 0.0113,0.0103 0.0331,0.0248 0.0103,0.007 0.0228,0.01 0.0331,0.0165 0.003,0.002 0.005,0.006 0.008,0.008 0.003,0.003 0.005,0.006 0.008,0.008 0.003,0.003 0.006,0.005 0.008,0.008 0.006,0.008 0.0102,0.0172 0.0165,0.0248 0.008,0.009 0.0165,0.0165 0.0248,0.0248 0.0193,0.0193 0.0386,0.0386 0.0579,0.0579 0.005,0.005 0.011,0.011 0.0165,0.0165 0.003,0.003 0.006,0.005 0.008,0.008 0.003,0.006 0.005,0.011 0.008,0.0165 0,0.003 -9.99e-4,0.006 0,0.008 0.002,0.004 0.006,0.006 0.008,0.008"
         id="path99-4-9-8-4-9" /><path
         style="fill:none;stroke:#000000;stroke-width:0.148773;stroke-dasharray:none;stroke-opacity:1"
         d="m 77.666069,14.279595 c 0,0.0111 -0.003,0.0257 0.006,0.0351 0.007,0.007 0.0165,0.0107 0.0234,0.0175 0.003,0.003 0.004,0.008 0.006,0.0117 0.006,0.004 0.0119,0.007 0.0175,0.0117 0.002,0.002 0.004,0.004 0.006,0.006 0.002,0.004 0.002,0.009 0.006,0.0117 0.005,0.004 0.0125,0.002 0.0175,0.006 0.009,0.006 0.015,0.0162 0.0234,0.0234 0.005,0.005 0.0118,0.008 0.0175,0.0117 0.0314,0.0224 0.0127,0.0122 0.0351,0.0234"
         id="path100-4-73-9-3" /><path
         style="fill:none;stroke:#000000;stroke-width:0.451849;stroke-dasharray:none;stroke-opacity:1"
         d="m 90.614788,14.859155 c 0.434431,0.290621 0.34385,0.663415 0.25107,1.000883 0.013,0.01492 -0.0103,0.0166 -0.0151,0.02322 -0.003,0.003 0,0.1325 0,0.01156 v 0.0059"
         id="path101-1-3-1"
         sodipodi:nodetypes="cccsc" /><path
         style="fill:none;stroke:#000000;stroke-width:0.35;stroke-dasharray:none;stroke-opacity:1"
         d="m 80.312609,11.189334 c -0.0513,-0.10269 -0.0243,-0.0333 -0.0468,-0.12862 -0.011,-0.0469 -0.0251,-0.0931 -0.0351,-0.14032 -0.006,-0.027 -0.008,-0.0546 -0.0117,-0.0818 -0.007,-0.0481 -0.0159,-0.10726 -0.0351,-0.15201 -0.0124,-0.0289 -0.0327,-0.0538 -0.0468,-0.0819 -0.0266,-0.0531 -0.0436,-0.1106 -0.0702,-0.16371 -0.014,-0.0281 -0.0319,-0.0542 -0.0468,-0.0819 -0.0559,-0.10382 -0.0124,-0.0362 -0.0702,-0.12862 -0.0421,-0.0673 -0.006,-0.004 -0.0702,-0.0935 -0.005,-0.007 -0.007,-0.0161 -0.0117,-0.0234 -0.003,-0.005 -0.009,-0.007 -0.0117,-0.0117 -0.002,-0.003 0.003,-0.009 0,-0.0117 -0.003,-0.003 -0.009,-0.003 -0.0117,0 -0.003,0.003 0,0.008 0,0.0117 v 0.0585 0.0234 c 0,0.004 -0.004,0.0117 0,0.0117 0.004,0 0.003,-0.009 0,-0.0117 -0.006,-0.006 -0.0172,-0.006 -0.0234,-0.0117 -0.006,-0.006 -0.007,-0.0159 -0.0117,-0.0234 -0.007,-0.0121 -0.0142,-0.0244 -0.0234,-0.0351 -0.0143,-0.0167 -0.0321,-0.0303 -0.0468,-0.0468 -0.096,-0.1080099 0.003,-0.005 -0.0935,-0.1403099 -0.0209,-0.0292 -0.048,-0.0536 -0.0702,-0.0819 -0.0124,-0.0157 -0.0922,-0.12853 -0.10523,-0.152 -0.0254,-0.0457 -0.0479,-0.093 -0.0702,-0.14032 -0.009,-0.019 -0.016,-0.0388 -0.0234,-0.0585 -0.004,-0.0115 5.3e-4,-0.0351 -0.0117,-0.0351 -0.0117,0 0.002,0.0235 0,0.0351 -0.002,0.0159 -0.009,0.0309 -0.0117,0.0468 -0.001,0.008 0.002,0.0158 0,0.0234 -0.002,0.008 -0.009,0.0151 -0.0117,0.0234 -0.007,0.0216 0.0178,0.006 -0.0117,0.0351 -0.003,0.003 0.002,-0.008 0,-0.0117 -0.006,-0.009 -0.0179,-0.0138 -0.0234,-0.0234 -0.0104,-0.0182 -0.014,-0.0397 -0.0234,-0.0585 -0.0102,-0.0203 -0.0234,-0.039 -0.0351,-0.0585 -0.0117,-0.0312 -0.0209,-0.0634 -0.0351,-0.0935 -0.0171,-0.0363 -0.0412,-0.069 -0.0585,-0.10523 -0.0218,-0.0457 -0.0383,-0.0939 -0.0585,-0.14032 -0.0188,-0.0432 -0.0389,-0.0858 -0.0585,-0.12862 -0.0428,-0.0936 -0.0857,-0.18713 -0.12862,-0.28064 -0.12952,-0.28189 -0.007,-0.0255 -0.15201,-0.29232 -0.21755,-0.39885 0.0677,0.10393 -0.10523,-0.19878 -0.0156,-0.0273 -0.0293,-0.0557 -0.0468,-0.0819 -0.0473,-0.071 -0.0408,-0.045 -0.0935,-0.10523 -0.0128,-0.0147 -0.0238,-0.0309 -0.0351,-0.0468 -0.008,-0.0114 -0.0164,-0.0229 -0.0234,-0.0351 -0.0213,-0.0372 -0.0155,-0.0467 -0.0468,-0.0701 -0.007,-0.005 -0.0147,-0.0117 -0.0234,-0.0117 -0.004,0 5.3e-4,0.008 0,0.0117 -0.0147,0.0885 -0.0117,0.027 -0.0117,0.10523 v 0.26894 c 0,0.10905 -0.002,0.0114 0.0117,0.16371 7.9e-4,0.008 -0.002,0.016 0,0.0234 0.002,0.005 0.0117,0.006 0.0117,0.0117 0,0.004 -0.01,0.003 -0.0117,0 -0.0486,-0.1216 0.006,1.5e-4 -0.0585,-0.10524 -0.0328,-0.0536 -0.0645,-0.10798 -0.0935,-0.1637 -0.0178,-0.034 -0.0312,-0.0702 -0.0468,-0.10524 -0.0156,-0.0351 -0.0303,-0.0705 -0.0468,-0.10523 -0.0186,-0.0394 -0.039,-0.078 -0.0585,-0.11693 -0.039,-0.0702 -0.0822,-0.13812 -0.11693,-0.21048 -0.0123,-0.0256 -0.0132,-0.0554 -0.0234,-0.0818 -0.009,-0.0244 -0.0234,-0.0468 -0.0351,-0.0702 -0.0195,-0.039 -0.039,-0.0779 -0.0585,-0.11693 -0.0117,-0.0234 -0.0216,-0.0477 -0.0351,-0.0702 -0.01,-0.0167 -0.0256,-0.0297 -0.0351,-0.0468 -0.0102,-0.0183 -0.0156,-0.039 -0.0234,-0.0585 -0.008,-0.0195 -0.0156,-0.039 -0.0234,-0.0585 -0.014,-0.0349 -0.044,-0.11142 -0.0585,-0.14032 -0.0102,-0.0203 -0.023,-0.0392 -0.0351,-0.0585 -0.007,-0.012 -0.0307,-0.0504 -0.0468,-0.0585 -0.004,-0.002 0,0.008 0,0.0117 v 0.0117 0.0351 0.0351 c 0,0.0156 7.9e-4,0.0312 0,0.0468 -0.003,0.0624 -0.009,0.12466 -0.0117,0.18709 -0.001,0.0351 0.002,0.0702 0,0.10524 -8e-4,0.0207 0.004,0.15493 -0.0234,0.21047 -0.002,0.004 0.002,-0.008 0,-0.0117 -0.0135,-0.0271 -0.0358,-0.0508 -0.0585,-0.0702 -0.0148,-0.0127 -0.033,-0.0213 -0.0468,-0.0351 -0.0177,-0.0177 -0.031,-0.0392 -0.0468,-0.0585 -0.0193,-0.0236 -0.0379,-0.0477 -0.0585,-0.0702 -0.0224,-0.0244 -0.0474,-0.0461 -0.0702,-0.0702 -0.0439,-0.0465 -0.12896,-0.13493 -0.1754,-0.19878 -0.13811,-0.1899 0.0551,0.0675 -0.0935,-0.16371 -0.0165,-0.0256 -0.0395,-0.0464 -0.0585,-0.0701 -1.7e-4,-2.2e-4 -0.0701,-0.0934 -0.0702,-0.0935 -0.0108,-0.0126 -0.0234,-0.0234 -0.0351,-0.0351 l -0.0234,-0.0234 c -0.004,-0.004 -0.007,-0.009 -0.0117,-0.0117 -0.007,-0.005 -0.0182,-0.005 -0.0234,-0.0117 -0.007,-0.01 -0.004,-0.0255 -0.0117,-0.0351 -0.0211,-0.0141 -0.0433,-0.0256 -0.0585,-0.0468 -0.0132,-0.0185 -0.0209,-0.0407 -0.0351,-0.0585 -0.0476,-0.0595 -0.10493,-0.0906 -0.1637,-0.14032 -0.0168,-0.0142 -0.0296,-0.033 -0.0468,-0.0468 -0.0358,-0.0286 -0.0891,-0.0572 -0.12862,-0.0819 -0.096,-0.06 0.0414,0.0155 -0.0935,-0.0351 -0.0132,-0.005 -0.0234,-0.0156 -0.0351,-0.0234 -0.0117,-0.008 -0.0229,-0.0164 -0.0351,-0.0234 -0.0151,-0.009 -0.0316,-0.0147 -0.0468,-0.0234 -0.0122,-0.007 -0.0225,-0.0171 -0.0351,-0.0234 -0.004,-0.002 -0.008,0 -0.0117,0 -0.004,0 -0.0117,-0.004 -0.0117,0 0,0.0258 0.0402,0.0814 0.0468,0.0935 0.0125,0.023 0.0227,0.0471 0.0351,0.0702 1.5e-4,2.6e-4 0.0935,0.16357 0.0936,0.1637 0.0133,0.0265 0.0247,0.0541 0.0351,0.0818 10e-4,0.004 -0.004,0.0117 0,0.0117 0.004,0 0.002,-0.009 0,-0.0117 -0.01,-0.0132 -0.022,-0.0249 -0.0351,-0.0351 -0.0375,-0.0292 -0.13983,-0.09 -0.1754,-0.10524 -0.0846,-0.0363 -0.38605,-0.14931 -0.5028,-0.18709 -0.0657,-0.0213 -0.13326,-0.0366 -0.19878,-0.0585 -0.0515,-0.0172 -0.10074,-0.0406 -0.15201,-0.0585 -0.0384,-0.0134 -0.0777,-0.0242 -0.11693,-0.0351 -0.031,-0.009 -0.0633,-0.0126 -0.0935,-0.0234 -0.0966,-0.0345 -0.0374,-0.0335 -0.11693,-0.0468 -0.008,-10e-4 -0.0156,0 -0.0234,0 h -0.0585 -0.0234 c -0.0117,0 -0.0236,-0.002 -0.0351,0 -0.0171,0.003 -0.0297,0.02 -0.0468,0.0234 -0.0115,0.002 -0.024,-0.004 -0.0351,0 -0.004,10e-4 -0.002,0.008 0,0.0117 0.002,0.005 0.009,0.007 0.0117,0.0117 0.002,0.003 -0.001,0.008 0,0.0117 0.009,0.0344 0.0183,0.0484 0.0351,0.0819 0.004,0.008 0.007,0.0161 0.0117,0.0234 0.0357,0.0536 -0.019,-0.0497 0.0234,0.0351 0.004,0.008 0.0117,0.0146 0.0117,0.0234 0,0.004 -0.008,10e-4 -0.0117,0 -0.0674,-0.0169 -0.001,-0.0111 -0.0935,-0.0234 -0.0597,-0.008 -0.23377,-0.0217 -0.28063,-0.0234 -0.0545,-0.002 -0.10914,0 -0.16371,0 h -0.46772 -0.14032 -0.0117 c -0.004,0 -0.009,-0.003 -0.0117,0 -0.003,0.003 -0.002,0.008 0,0.0117 0.0163,0.0326 0.0326,0.0443 0.0585,0.0702 l 0.0702,0.0702 c 0.0156,0.0156 0.0302,0.0322 0.0468,0.0468 0.021,0.0183 0.10022,0.0727 0.11693,0.0819 0.0907,0.0495 0.0321,-0.003 0.0819,0.0468 0.008,0.008 0.0173,0.0142 0.0234,0.0234 0.002,0.003 0.003,0.009 0,0.0117 -0.0345,0.0258 -0.0467,0.02 -0.0819,0.0351 -0.016,0.007 -0.0312,0.0156 -0.0468,0.0234 -0.51823,0.21261 -0.44674,0.74152 -0.37856,0.7485 0.27359,0.028 -0.24056,1.82089 0.29534,0.77521 0.18487,-0.36071 -0.17548,0.84651 -0.13664,0.96658 0.18433,0.56986 0.29089,0.1307 0.40699,0.17632 0.01,0.0396 0.0252,0.0774 0.0351,0.11693 0.0309,0.1234 0.0199,0.1458 0.0585,0.28063 0.008,0.0285 0.0251,0.0539 0.0351,0.0818 0.01,0.0267 0.0138,0.0551 0.0234,0.0819 0.01,0.028 0.0251,0.0539 0.0351,0.0819 0.0612,0.1713999 -0.0126,-0.002 0.0468,0.15201 4e-5,9e-5 0.0701,0.1635499 0.0702,0.1636999 0.0202,0.0504 0.0397,0.10107 0.0585,0.15201 0.0309,0.0839 0.0135,0.0525 0.0468,0.12862 0.0164,0.0636 0.0556,0.11644 0.0819,0.1754 0.008,0.0192 0.0132,0.0401 0.0234,0.0585 0.007,0.0135 0.0502,0.0627 0.0585,0.0818 0.006,0.0148 0.006,0.0319 0.0117,0.0468 0.002,0.005 0.006,0.0117 0.0117,0.0117 0.004,0 0,-0.008 0,-0.0117 v -0.0234 c 0,-0.15645 0.007,-0.005 -0.0234,-0.1754 -0.003,-0.0159 -0.0229,-0.21249 -0.0234,-0.22217 -0.002,-0.0311 0,-0.0624 0,-0.0935 0,-0.0234 0.002,-0.0469 0,-0.0702 -0.0155,-0.15474 -0.0117,0.0594 -0.0117,-0.0935 0,-0.004 -0.001,0.008 0,0.0117 0.003,0.012 0.006,0.0244 0.0117,0.0351 0.01,0.0169 0.0239,0.0308 0.0351,0.0468 0.0161,0.023 0.0299,0.0477 0.0468,0.0702 0.20269,0.27024 0.15327,-0.0403 0.33033,0.22216 0.19457,0.28838 0.38281,0.80316 0.40494,1.11931 0.0256,0.36523 1.82262,2.292743 2.08572,2.585083"
         id="path104-8-6-4"
         sodipodi:nodetypes="csssssscsccccsscssscsscccssssccccccsscssssssscscscscssccscsssscssssscsssscsccscccccssscssssccccccscscscccscssssccsccsssscscscssccccccccscsssccsscsscccccccssscsscssssscssccsssscscsccccssc" /><path
         style="fill:none;stroke:#000000;stroke-width:0.41555;stroke-dasharray:none;stroke-opacity:1"
         id="path105-0-0-6"
         sodipodi:type="arc"
         sodipodi:cx="80.347855"
         sodipodi:cy="23.599232"
         sodipodi:rx="7.825943"
         sodipodi:ry="3.9018345"
         sodipodi:start="1.6642198"
         sodipodi:end="2.9254867"
         sodipodi:arc-type="arc"
         d="M 79.617791,27.484051 A 7.825943,3.9018345 0 0 1 72.703944,24.435893"
         sodipodi:open="true" /><path
         style="fill:none;stroke:#000000;stroke-width:0.302;stroke-dasharray:none;stroke-opacity:1"
         d="m 90.470208,26.166978 c 0.14962,-0.19687 0.10334,-0.41422 -0.0326,-0.62054 -10e-4,-0.002 0.001,-0.006 0,-0.008 -0.004,-0.007 -0.013,-0.01 -0.0165,-0.0165 -0.001,-0.002 0.002,-0.006 0,-0.008 -0.002,-0.002 -0.006,0.002 -0.008,0 -0.002,-0.002 0.001,-0.006 0,-0.008 -0.004,-0.007 -0.013,-0.01 -0.0165,-0.0165 0,-0.022 0.003,0.003 -0.008,-0.008 -0.011,-0.011 0.0138,-0.008 -0.008,-0.008"
         id="path108-0-7-6"
         sodipodi:nodetypes="ccccsccccc" /><path
         style="fill:none;stroke:#000000;stroke-width:0.4;stroke-dasharray:none;stroke-opacity:1"
         d="m 72.677058,24.671408 c -0.0212,0.0254 -0.0561,0.0203 -0.0819,0.0351 -0.0169,0.01 -0.0309,0.0238 -0.0468,0.0351 -0.0114,0.008 -0.0229,0.0163 -0.0351,0.0234 -0.28107,0.16396 0.0219,-0.0247 -0.163709,0.10524 -0.0295,0.0293 -0.0718,0.0362 -0.105231,0.0585 -0.009,0.006 -0.0156,0.0156 -0.0234,0.0234 -0.008,0.008 -0.0156,0.0156 -0.0234,0.0234 -0.008,0.008 -0.0177,0.0139 -0.0234,0.0234 -0.006,0.0106 -0.006,0.0244 -0.0117,0.0351 -0.01,0.0169 -0.0263,0.0293 -0.0351,0.0468 -0.007,0.0144 -0.009,0.0309 -0.0117,0.0468 -0.0134,0.0872 -0.0117,0.0848 -0.0117,0.15201 0,0.0351 0,0.0702 0,0.10524 0,0.0117 -0.002,0.0235 0,0.0351 0.006,0.0434 0.0342,0.10566 0.0468,0.14031 0.004,0.0116 0.006,0.0241 0.0117,0.0351 1.8e-4,2.7e-4 0.0464,0.0695 0.0468,0.0702 0.009,0.0151 0.0156,0.0312 0.0234,0.0468 0.004,0.008 0.008,0.0156 0.0117,0.0234 0.004,0.008 0.005,0.0172 0.0117,0.0234 0.003,0.003 0.009,-0.003 0.0117,0 0.006,0.006 0.008,0.0156 0.0117,0.0234 0.004,0.008 0.007,0.0161 0.0117,0.0234 0.0388,0.0388 -0.005,-0.011 0.0117,0.0234 0.002,0.005 0.009,0.007 0.0117,0.0117 0.002,0.003 -0.003,0.009 0,0.0117 0.006,0.006 0.0164,0.006 0.0234,0.0117 0.009,0.007 0.0156,0.0156 0.0234,0.0234 0.004,0.004 0.007,0.009 0.0117,0.0117 0.008,0.004 0.0156,0.008 0.0234,0.0117 0.004,0 0.008,-0.002 0.0117,0 0.0126,0.006 0.022,0.0182 0.0351,0.0234 0.007,0.003 0.0158,-0.002 0.0234,0 0.008,0.002 0.0151,0.009 0.0234,0.0117 0.003,8e-4 0.0216,-7.9e-4 0.0234,0 0.0535,0.0268 -0.0496,-0.005 0.0351,0.0234 0.004,0.001 0.009,-0.003 0.0117,0 0.003,0.003 -0.003,0.009 0,0.0117 0.003,0.003 0.008,-0.001 0.0117,0 0.008,0.003 0.0156,0.008 0.0234,0.0117"
         id="path114-0-7-7" /><path
         style="fill:none;stroke:#000000;stroke-width:0.4;stroke-dasharray:none;stroke-opacity:1"
         d="m 72.537448,25.998338 c -0.0195,0.0195 -0.0514,-0.0251 -0.0709,-0.006 -0.004,0.008 -0.007,0.0164 -0.0117,0.0234 -0.007,0.009 -0.0146,0.0168 -0.0234,0.0234 -0.007,0.005 -0.0172,0.006 -0.0234,0.0117 -0.006,0.006 -0.007,0.0161 -0.0117,0.0234 -0.003,0.005 -0.009,0.007 -0.0117,0.0117 -0.005,0.011 -0.004,0.0252 -0.0117,0.0351 -0.005,0.007 -0.0172,0.006 -0.0234,0.0117 -0.006,0.006 -0.008,0.0156 -0.0117,0.0234 -0.004,0.008 -0.008,0.0153 -0.0117,0.0234 -0.009,0.0229 -0.0142,0.0473 -0.0234,0.0702 -0.0264,0.066 -0.003,-0.0392 -0.0468,0.10524 -0.003,0.0112 0,0.0234 0,0.0351 v 0.10524 0.11693 c 0,0.0195 -0.002,0.0391 0,0.0585 0.002,0.0122 0.008,0.0232 0.0117,0.0351 0.0294,0.10278 -0.005,-0.002 0.0234,0.0819 0.004,0.0117 0.007,0.0238 0.0117,0.0351 0.007,0.016 0.0165,0.0308 0.0234,0.0468 0.0187,0.0437 0.004,0.0353 0.0351,0.0819 0.006,0.009 0.0173,0.0142 0.0234,0.0234 0.01,0.0145 0.0147,0.0316 0.0234,0.0468 0.007,0.0122 0.0153,0.0236 0.0234,0.0351 0.0192,0.0275 0.0375,0.0557 0.0585,0.0819 0.0207,0.0258 0.049,0.0447 0.0702,0.0702 0.009,0.0108 0.0134,0.0251 0.0234,0.0351 0.0138,0.0138 0.0309,0.0238 0.0468,0.0351 0.0584,0.0417 0.0423,0.0214 0.12862,0.0819 0.009,0.006 0.0135,0.0184 0.0234,0.0234 0.0144,0.007 0.0334,0.003 0.0468,0.0117 0.0117,0.008 0.0134,0.0251 0.0234,0.0351 0.006,0.006 0.0153,0.008 0.0234,0.0117 0.0399,0.016 0.0265,0.005 0.0585,0.0234 0.0197,0.0113 0.0392,0.023 0.0585,0.0351 0.0119,0.007 0.0222,0.0179 0.0351,0.0234 0.0148,0.006 0.0317,0.006 0.0468,0.0117 0.0163,0.006 0.03,0.0186 0.0468,0.0234 0.0113,0.003 0.0235,-0.002 0.0351,0 0.10172,0.0145 -0.001,0.007 0.0819,0.0234 0.008,0.002 0.0156,0 0.0234,0 h 0.0234 c 0.008,0 0.016,-0.002 0.0234,0 0.005,0.002 0.007,0.009 0.0117,0.0117 0.007,0.003 0.0164,-0.004 0.0234,0 0.0289,0.0144 -0.004,0.0117 0.0234,0.0117"
         id="path115-8-1-7"
         sodipodi:nodetypes="cccccccscccssscsccsscccccssscccccccccccccsscccc" /><path
         style="fill:none;stroke:#000000;stroke-width:0.35;stroke-dasharray:none;stroke-opacity:1"
         d="m 73.320178,27.641438 c -0.0127,0.0222 -0.1199,0.20279 -0.14032,0.25725 -0.0113,0.0301 -0.0121,0.0635 -0.0234,0.0935 -0.0122,0.0326 -0.0295,0.0633 -0.0468,0.0935 -0.0139,0.0244 -0.0369,0.0438 -0.0468,0.0702 -0.014,0.0372 -0.0138,0.0784 -0.0234,0.11693 -0.006,0.0239 -0.0156,0.0468 -0.0234,0.0702 -0.008,0.0234 -0.0142,0.0473 -0.0234,0.0702 -0.007,0.0162 -0.0169,0.0306 -0.0234,0.0468 -0.0258,0.0646 -0.0234,0.0496 -0.0234,0.0935 0,0.008 -0.008,0.0234 0,0.0234 0.008,0 -0.007,-0.019 0,-0.0234 0.0205,-0.0137 0.0473,-0.0142 0.0702,-0.0234 0.0875,-0.035 0.007,-0.0153 0.11693,-0.0702 0.022,-0.011 0.0504,-0.009 0.0702,-0.0234 0.0139,-0.0104 0.0137,-0.0323 0.0234,-0.0468 0.0238,-0.0358 0.0323,-0.0184 0.0702,-0.0468 0.0177,-0.0132 0.0271,-0.0369 0.0468,-0.0468 0.007,-0.003 0,0.0156 0,0.0234 v 0.0702 0.16371 c 0,0.14458 0.006,-0.0106 -0.0234,0.1637 -0.003,0.0154 0,0.0312 0,0.0468 0,0.0312 0.004,0.0627 0,0.0935 -0.004,0.0244 -0.0156,0.0468 -0.0234,0.0702 -0.008,0.0312 -0.0194,0.0616 -0.0234,0.0935 0,0.24435 0.01,-0.0358 -0.0234,0.1637 -0.004,0.0231 0,0.0468 0,0.0702 0,0.0156 0.004,0.0316 0,0.0468 -0.004,0.0169 -0.0192,0.0299 -0.0234,0.0468 -0.004,0.0151 0.003,0.0315 0,0.0468 -0.005,0.0242 -0.0174,0.0463 -0.0234,0.0702 -0.0199,0.0797 0.0655,-0.0842 -0.0234,0.0935 -0.005,0.01 -0.0185,0.0135 -0.0234,0.0234 -0.004,0.007 0,0.0156 0,0.0234 v 0.0234 c 0,0.008 0.002,0.016 0,0.0234 -0.005,0.0165 -0.0179,0.0302 -0.0234,0.0468 -0.002,0.007 0,0.0156 0,0.0234 v 0.0234 c 0,0.008 0.006,0.0179 0,0.0234 -0.005,0.006 -0.0179,-0.005 -0.0234,0 -0.11749,0.11749 0.004,0.0247 -0.0702,0.11693 -0.0207,0.0258 -0.0537,0.0414 -0.0702,0.0702 -0.016,0.0279 -0.0132,0.0631 -0.0234,0.0935 -0.006,0.0165 -0.0156,0.0312 -0.0234,0.0468 -0.008,0.0156 -0.0137,0.0323 -0.0234,0.0468 -0.006,0.009 -0.0234,0.0123 -0.0234,0.0234 0,0.008 0.0157,0.001 0.0234,0 0.0764,0.01412 0.12631,-0.04653 0.18713,-0.0702 0.10217,-0.0613 -0.01683,0.02034 0.11693,-0.0468 0.0251,-0.0126 0.174307,-0.0065 0.0702,-0.0468 0.007,-0.003 0.0179,-0.005 0.0234,0 0.005,0.006 -0.0073,0.02073 0,0.0234"
         id="path116-9-9-3"
         sodipodi:nodetypes="cssscssssssccscsscscsssscccssscscsssccssccscsscsccsccc" /><path
         style="fill:none;stroke:#000000;stroke-width:0.35;stroke-dasharray:none;stroke-opacity:1"
         d="m 89.813208,29.009528 c -0.002,0.008 -0.003,0.0158 -0.006,0.0234 -0.003,0.008 -0.008,0.0154 -0.0117,0.0234 -0.0129,0.0309 -0.041,0.11384 -0.0468,0.13447 -0.009,0.0328 -0.0151,0.0664 -0.0234,0.0994 -0.007,0.0294 -0.0153,0.0585 -0.0234,0.0877 -0.008,0.0273 -0.0176,0.0541 -0.0234,0.0819 -0.004,0.0192 -0.003,0.039 -0.006,0.0585 -0.002,0.0118 -0.005,0.0233 -0.006,0.0351 -7.9e-4,0.008 0,0.0156 0,0.0234 0,0.002 0,0.004 0,0.006 0,0.002 0.001,0.004 0,0.006 -10e-4,10e-4 -0.004,-0.001 -0.006,0 -10e-4,10e-4 0,0.004 0,0.006 0,0.004 0,0.008 0,0.0117 0,0.006 0.001,0.0118 0,0.0175 -0.002,0.0122 -0.01,0.0229 -0.0117,0.0351 -0.002,0.0154 0.002,0.0314 0,0.0468 -0.003,0.0178 -0.009,0.0349 -0.0117,0.0526 -0.004,0.0225 0.007,0.0161 -0.006,0.0409 -8e-4,0.002 -0.005,0.002 -0.006,0 -0.004,-0.009 -0.002,-0.02 -0.006,-0.0292 -0.0695,-0.17373 -0.003,0.0212 -0.0409,-0.0935 -0.002,-0.006 -0.004,-0.0117 -0.006,-0.0175 -0.002,-0.002 -0.005,-0.003 -0.006,-0.006 -7.89e-4,-0.002 10e-4,-0.004 0,-0.006 -9.99e-4,-0.001 -0.005,-0.002 -0.006,0 -0.004,0.007 -0.004,0.0156 -0.006,0.0234 -0.002,0.008 -0.003,0.0159 -0.006,0.0234 -0.003,0.008 -0.009,0.015 -0.0117,0.0234 -0.004,0.0133 -0.003,0.0274 -0.006,0.0409 -0.003,0.0158 -0.008,0.0311 -0.0117,0.0468 -0.004,0.0194 -0.008,0.039 -0.0117,0.0585 -0.0325,0.15456 0.009,-0.0283 -0.0292,0.0877 -0.0114,0.0342 -0.003,0.0318 -0.006,0.0643 -0.004,0.0359 -0.007,0.0238 -0.0175,0.0585 -0.007,0.0212 -0.0109,0.0431 -0.0175,0.0643 -2e-5,8e-5 -0.0233,0.0583 -0.0234,0.0585 -0.004,0.0116 -0.007,0.0235 -0.0117,0.0351 -0.004,0.01 -0.008,0.0193 -0.0117,0.0292 -0.005,0.0135 -0.007,0.0275 -0.0117,0.0409 -0.0279,0.0837 0.005,-0.0312 -0.0234,0.0643 -0.002,0.008 -0.004,0.0155 -0.006,0.0234 -0.002,0.01 -0.003,0.0198 -0.006,0.0292 -0.003,0.008 -0.009,0.0151 -0.0117,0.0234 -0.003,0.009 -0.005,0.0358 -0.0117,0.0468 -0.003,0.005 -0.009,0.007 -0.0117,0.0117 -0.002,0.003 0.001,0.008 0,0.0117 -0.009,0.0258 -0.006,-0.0212 -0.006,0.0175 0,0.002 0,-0.004 0,-0.006 0,-0.004 0,-0.008 0,-0.0117 0,-0.008 0,-0.0156 0,-0.0234 0,-0.0458 7.9e-4,-0.0782 -0.006,-0.12862 -0.002,-0.0141 -0.008,-0.0272 -0.0117,-0.0409 -0.002,-0.01 -0.004,-0.0194 -0.006,-0.0292 -2.6e-4,-0.002 10e-4,-0.004 0,-0.006 -0.001,-0.001 -0.005,-0.002 -0.006,0 -0.003,0.005 -0.004,0.0116 -0.006,0.0175 -0.0104,0.0418 -0.002,0.0207 -0.0117,0.0702 -0.003,0.0158 -0.008,0.0311 -0.0117,0.0468 -0.009,0.0364 -0.0164,0.0744 -0.0234,0.11108 -0.004,0.0214 -0.009,0.0427 -0.0117,0.0643 -0.0113,0.0865 -2.7e-4,0.0514 -0.0117,0.13446 -0.003,0.0216 -0.01,0.0426 -0.0117,0.0643 -0.002,0.0214 0.001,0.0429 0,0.0643 -0.001,0.0234 -0.004,0.0468 -0.006,0.0702 -0.002,0.0234 -0.003,0.0469 -0.006,0.0702 -0.003,0.0216 -0.008,0.0429 -0.0117,0.0643 -0.004,0.037 -0.008,0.074 -0.0117,0.11109 -0.002,0.0195 -0.004,0.039 -0.006,0.0585 -0.002,0.0137 -0.005,0.0272 -0.006,0.0409 -0.001,0.0136 0.002,0.0274 0,0.0409 -0.002,0.0122 -0.008,0.0233 -0.0117,0.0351 -0.004,0.0135 -0.009,0.0271 -0.0117,0.0409 -0.003,0.0116 -0.004,0.0235 -0.006,0.0351 -0.002,0.008 -0.005,0.0154 -0.006,0.0234 -10e-4,0.008 0.002,0.0159 0,0.0234 -0.002,0.007 -0.009,0.011 -0.0117,0.0175 -0.001,0.004 5.3e-4,0.008 0,0.0117 -0.001,0.008 -0.005,0.0155 -0.006,0.0234 -0.003,0.0197 0.008,0.008 -0.006,0.0351 -0.002,0.005 -0.01,0.006 -0.0117,0.0117 -0.002,0.007 0.001,0.0157 0,0.0234 -7.9e-4,0.006 -0.004,0.0116 -0.006,0.0175 -0.002,0.008 -0.004,0.0156 -0.006,0.0234 -0.004,0.0117 -0.008,0.0233 -0.0117,0.0351 -0.002,0.008 -0.003,0.0159 -0.006,0.0234 -10e-4,0.003 -0.003,0.006 -0.006,0.006 -0.002,0 5.3e-4,-0.004 0,-0.006 -0.003,-0.01 -0.008,-0.0193 -0.0117,-0.0292 -0.008,-0.0232 -0.0156,-0.0468 -0.0234,-0.0701 -0.004,-0.0117 -0.006,-0.0244 -0.0117,-0.0351 -0.002,-0.004 -0.008,-0.004 -0.0117,-0.006 -0.002,-5.3e-4 -0.005,-0.002 -0.006,0 -0.003,0.005 -0.003,0.012 -0.006,0.0175 -0.003,0.006 -0.01,0.0107 -0.0117,0.0175 -0.002,0.009 0.002,0.0197 0,0.0292 -0.002,0.009 -0.008,0.0156 -0.0117,0.0234 0,0.01 0.002,0.0196 0,0.0292 -0.006,0.0396 -0.0132,0.0462 -0.0234,0.0819 -5e-5,1.8e-4 -0.0234,0.0934 -0.0234,0.0935 -0.005,0.0159 -0.0117,0.0312 -0.0175,0.0468 -0.006,0.0156 -0.0133,0.0307 -0.0175,0.0468 -0.0195,0.0733 0.009,0.0114 -0.0175,0.0702 -0.0207,0.0467 -0.009,0.004 -0.0351,0.0819 -0.003,0.009 -0.003,0.0196 -0.006,0.0292 -0.002,0.006 -0.003,0.0123 -0.006,0.0175 -0.0144,0.0241 -0.0117,-5.3e-4 -0.0117,0.0234 0,0.002 0,-0.004 0,-0.006 0,-0.006 0,-0.0117 0,-0.0175 0,-0.01 0,-0.0195 0,-0.0292 0,-0.039 0,-0.078 0,-0.11693 0,-0.008 0,-0.0156 0,-0.0234 0,-0.002 0.001,-0.004 0,-0.006 -0.001,-10e-4 -0.004,-10e-4 -0.006,0 -0.005,0.003 -0.009,0.007 -0.0117,0.0117 -0.005,0.011 -0.007,0.0235 -0.0117,0.0351 -0.004,0.01 -0.008,0.0196 -0.0117,0.0292 -0.006,0.0137 -0.0125,0.0269 -0.0175,0.0409 -0.005,0.0134 -0.007,0.0274 -0.0117,0.0409 -0.004,0.0118 -0.008,0.0234 -0.0117,0.0351 -0.004,0.0117 -0.009,0.0231 -0.0117,0.0351 -0.003,0.0115 -0.003,0.0236 -0.006,0.0351 -0.005,0.0216 -0.0121,0.0428 -0.0175,0.0643 -0.002,0.01 -0.003,0.0197 -0.006,0.0292 -0.003,0.0101 -0.009,0.0192 -0.0117,0.0292 -0.003,0.01 -0.004,0.0195 -0.006,0.0292 -0.002,0.01 -0.004,0.0195 -0.006,0.0292 -0.002,0.01 -0.004,0.0195 -0.006,0.0292 -0.002,0.0117 -0.002,0.0237 -0.006,0.0351 -0.002,0.008 -0.009,0.0151 -0.0117,0.0234 -0.003,0.009 -0.004,0.0195 -0.006,0.0292 -0.002,0.008 -0.004,0.0156 -0.006,0.0234 -0.002,0.008 -0.004,0.0156 -0.006,0.0234 -0.002,0.008 -0.004,0.0157 -0.006,0.0234 -0.002,0.006 -0.005,0.0115 -0.006,0.0175 -0.001,0.006 10e-4,0.0118 0,0.0175 -0.001,0.006 -0.004,0.0117 -0.006,0.0175 -0.002,0.006 -0.004,0.0117 -0.006,0.0175 -0.002,0.006 -0.004,0.0118 -0.006,0.0175 -0.002,0.004 -0.005,0.007 -0.006,0.0117 -0.003,0.0115 -0.002,0.0238 -0.006,0.0351 -0.002,0.007 -0.009,0.0111 -0.0117,0.0175 -0.003,0.007 -0.003,0.016 -0.006,0.0234 -0.003,0.006 -0.008,0.0115 -0.0117,0.0175 -0.0153,0.0255 0.005,-0.004 -0.0117,0.0292 -7.9e-4,0.002 0,-0.004 0,-0.006 0,-0.01 0,-0.0195 0,-0.0292 0,-0.0273 0,-0.0546 0,-0.0819 0,-0.0249 0.002,-0.0517 -0.006,-0.076 -0.002,-0.007 -0.008,-0.0112 -0.0117,-0.0175 -0.001,-0.002 0.001,-0.0103 0,-0.0117 -0.001,-10e-4 -0.005,-10e-4 -0.006,0 -0.001,10e-4 0.001,0.004 0,0.006 -0.005,0.007 -0.0126,0.0109 -0.0175,0.0175 -0.007,0.009 -0.0117,0.0195 -0.0175,0.0292 -0.006,0.01 -0.0114,0.0197 -0.0175,0.0292 -0.007,0.0119 -0.0167,0.0227 -0.0234,0.0351 -0.005,0.009 -0.008,0.0195 -0.0117,0.0292 -0.004,0.01 -0.007,0.0196 -0.0117,0.0292 -0.003,0.008 -0.007,0.0158 -0.0117,0.0234 -0.0164,0.0295 -0.0168,0.0246 -0.0292,0.0526 -0.004,0.01 -0.008,0.0195 -0.0117,0.0292 -0.004,0.01 -0.008,0.0193 -0.0117,0.0292 -0.003,0.008 -0.004,0.0157 -0.006,0.0234 -0.005,0.0177 -0.0121,0.035 -0.0175,0.0526 -0.0168,0.0545 0.008,-0.0115 -0.0175,0.0526 -0.004,0.01 -0.007,0.0201 -0.0117,0.0292 -0.005,0.009 -0.0132,0.0147 -0.0175,0.0234 -0.004,0.007 -0.004,0.0157 -0.006,0.0234 -0.002,0.006 -0.004,0.0117 -0.006,0.0175 -0.002,0.006 -0.003,0.012 -0.006,0.0175 -0.005,0.0102 -0.0117,0.0195 -0.0175,0.0292 -0.006,0.01 -0.0125,0.0191 -0.0175,0.0292 -7.9e-4,0.002 -7.9e-4,0.008 0,0.006 0.0154,-0.0385 0.0117,-0.03 0.0117,-0.0702 0,-0.0137 7.9e-4,-0.0273 0,-0.0409 -0.002,-0.0337 -0.0118,-0.0794 -0.0175,-0.11109 -0.002,-0.01 -0.0159,-0.095 -0.0234,-0.11108 -0.009,-0.0191 -0.025,-0.0341 -0.0351,-0.0526 -0.002,-0.003 0.001,-0.008 0,-0.0117 -5.3e-4,-0.002 -0.008,-0.01 -0.0117,-0.006 -0.003,0.003 -0.004,0.008 -0.006,0.0117 -0.004,0.008 -0.007,0.016 -0.0117,0.0234 -0.005,0.008 -0.0117,0.0156 -0.0175,0.0234 -0.006,0.01 -0.0117,0.0195 -0.0175,0.0292 -0.0169,0.0282 -0.0209,0.0332 -0.0351,0.0643 -0.004,0.01 -0.008,0.0194 -0.0117,0.0292 -0.004,0.0116 -0.007,0.0239 -0.0117,0.0351 -0.005,0.0103 -0.0137,0.0186 -0.0175,0.0292 -0.004,0.0111 -0.004,0.0234 -0.006,0.0351 -0.002,0.01 -0.005,0.0194 -0.006,0.0292 -7.9e-4,0.006 0.001,0.0118 0,0.0175 -10e-4,0.006 -0.005,0.0114 -0.006,0.0175 -10e-4,0.008 0.001,0.0157 0,0.0234 -7.9e-4,0.004 -0.004,0.008 -0.006,0.0117 -0.002,0.006 -0.005,0.0115 -0.006,0.0175 -10e-4,0.006 0,0.0117 0,0.0175 0,0.002 0,0.004 0,0.006 0,0.0175 0,0.0351 0,0.0526"
         id="path120-9-3-0" /><path
         style="fill:none;stroke:#000000;stroke-width:0.400042;stroke-dasharray:none;stroke-opacity:1"
         id="path121-9-69-2"
         sodipodi:type="arc"
         sodipodi:cx="83.118797"
         sodipodi:cy="20.931166"
         sodipodi:rx="8.8502636"
         sodipodi:ry="2.2467148"
         sodipodi:start="0.30714334"
         sodipodi:end="2.783161"
         sodipodi:arc-type="arc"
         d="M 91.554879,21.61043 A 8.8502636,2.2467148 0 0 1 83.34573,23.177142 8.8502636,2.2467148 0 0 1 74.830984,21.719327"
         sodipodi:open="true"
         transform="matrix(0.99686375,0.07913705,-0.05877556,0.99827122,0,0)" /><path
         style="fill:none;stroke:#000000;stroke-width:0.4;stroke-dasharray:none;stroke-opacity:1"
         d="m 90.128748,28.681188 c -0.36766,0.36137 0.0181,-0.0105 0.0351,-0.0234 0.006,-0.004 0.0121,-0.007 0.0175,-0.0117 0.006,-0.005 0.025,-0.0268 0.0292,-0.0292 0.007,-0.004 0.0164,-0.002 0.0234,-0.006 0.0128,-10e-4 0.0139,-0.0177 0.0234,-0.0234 0.0172,-0.0103 0.0262,-0.0105 0.0409,-0.0234 0.0104,-0.009 0.0189,-0.0202 0.0292,-0.0292 2.3e-4,-1.9e-4 0.0347,-0.0231 0.0351,-0.0234 0.004,-0.003 0.007,-0.009 0.0117,-0.0117 0.005,-0.003 0.0122,-0.003 0.0175,-0.006 0.005,-0.003 0.007,-0.008 0.0117,-0.0117 1e-4,-7e-5 0.0349,-0.0233 0.0351,-0.0234 0.0178,-0.0133 0.0345,-0.028 0.0526,-0.0409 0.009,-0.007 0.0207,-0.0101 0.0292,-0.0175 0.007,-0.006 0.0107,-0.0165 0.0175,-0.0234 0.007,-0.007 0.0165,-0.0106 0.0234,-0.0175 0.005,-0.005 0.007,-0.0126 0.0117,-0.0175 0.007,-0.007 0.017,-0.0101 0.0234,-0.0175 0.006,-0.007 0.007,-0.016 0.0117,-0.0234 0.005,-0.008 0.0119,-0.0155 0.0175,-0.0234 0.004,-0.006 0.007,-0.0126 0.0117,-0.0175 0.0228,-0.0228 0.0193,-0.01 0.0351,-0.0292 0.0184,-0.023 0.004,-0.0142 0.0292,-0.0351 0.005,-0.005 0.0135,-0.006 0.0175,-0.0117 0.006,-0.009 0.007,-0.0199 0.0117,-0.0292 0.0143,-0.0286 0.007,-0.007 0.0234,-0.0292 0.003,-0.003 0.003,-0.008 0.006,-0.0117 0.005,-0.008 0.0127,-0.0149 0.0175,-0.0234 0.003,-0.005 0.003,-0.0119 0.006,-0.0175 0.003,-0.008 0.008,-0.0154 0.0117,-0.0234 0.009,-0.0205 0.006,-0.0292 0.0175,-0.0526 0.002,-0.005 0.01,-0.007 0.0117,-0.0117 0.004,-0.009 0.004,-0.0195 0.006,-0.0292 0.002,-0.008 0.003,-0.0159 0.006,-0.0234 0.003,-0.008 0.009,-0.0152 0.0117,-0.0234 0.003,-0.008 0.004,-0.0156 0.006,-0.0234 0.002,-0.008 0.005,-0.0154 0.006,-0.0234 0.002,-0.0116 -0.002,-0.0236 0,-0.0351 0.001,-0.006 0.004,-0.0117 0.006,-0.0175 0.002,-0.0137 0.005,-0.0272 0.006,-0.0409 5.3e-4,-0.006 0,-0.0117 0,-0.0175 v -0.0292 -0.0643 -0.0643 c 0,-0.0117 0.001,-0.0234 0,-0.0351 -7.9e-4,-0.01 -0.005,-0.0193 -0.006,-0.0292 -0.001,-0.0214 0,-0.0429 0,-0.0643 0,-0.01 0.001,-0.0195 0,-0.0292 -0.001,-0.01 -0.005,-0.0194 -0.006,-0.0292 -7.9e-4,-0.008 8e-4,-0.0156 0,-0.0234 -7.9e-4,-0.007 -0.009,-0.044 -0.0117,-0.0526 -0.003,-0.01 -0.008,-0.0194 -0.0117,-0.0292 -0.0109,-0.0289 -5.3e-4,-0.007 -0.0117,-0.0292 -0.002,-0.004 -0.003,-0.008 -0.006,-0.0117 -0.002,-0.002 -0.004,-0.004 -0.006,-0.006 -0.005,-0.007 -0.007,-0.0161 -0.0117,-0.0234 -0.002,-0.002 -0.005,-0.003 -0.006,-0.006 -7.9e-4,-0.002 0.001,-0.004 0,-0.006 -0.0121,-0.0121 5.3e-4,0.0185 -0.0117,-0.006 -7.9e-4,-0.002 0,-0.004 0,-0.006 0,-0.002 -9.99e-4,-0.004 0,-0.006 0.003,-0.005 0.008,-0.008 0.0117,-0.0117 0.002,-0.002 0.004,-0.004 0.006,-0.006 0.002,-0.002 0.005,-0.003 0.006,-0.006 0,-0.0266 -0.003,-2.6e-4 0.006,-0.0175 8e-4,-0.002 -10e-4,-0.004 0,-0.006 0.003,-0.005 0.009,-0.007 0.0117,-0.0117 0.0204,-0.0408 -0.0113,-0.006 0.0175,-0.0468 0.005,-0.007 0.0135,-0.0103 0.0175,-0.0175 0.006,-0.0108 0.008,-0.0234 0.0117,-0.0351 0.004,-0.0117 0.007,-0.0239 0.0117,-0.0351 0.005,-0.0103 0.0138,-0.0185 0.0175,-0.0292 0.009,-0.0261 0.0172,-0.0687 0.0234,-0.0994 0.002,-0.01 0.005,-0.0193 0.006,-0.0292 0.001,-0.0214 0,-0.0429 0,-0.0643 v -0.0351 c 0,-0.0137 0.001,-0.0273 0,-0.0409 -7.9e-4,-0.008 -0.004,-0.0155 -0.006,-0.0234 -0.0199,-0.0929 -0.004,-0.0285 -0.0175,-0.0819 -0.002,-0.008 -0.003,-0.0158 -0.006,-0.0234 -0.003,-0.01 -0.007,-0.0198 -0.0117,-0.0292 -0.017,-0.0339 -0.008,7e-5 -0.0234,-0.0409 -0.003,-0.008 -0.003,-0.0159 -0.006,-0.0234 -0.01,-0.0257 -0.0111,-0.0193 -0.0234,-0.0409 -0.004,-0.008 -0.008,-0.0156 -0.0117,-0.0234 -0.004,-0.008 -0.007,-0.0164 -0.0117,-0.0234 -0.007,-0.009 -0.0166,-0.0147 -0.0234,-0.0234 -0.007,-0.009 -0.0106,-0.0203 -0.0175,-0.0292 -0.007,-0.009 -0.0161,-0.0151 -0.0234,-0.0234 -0.0605,-0.0681 0.0122,0.006 -0.0468,-0.0526 -0.008,-0.008 -0.0156,-0.0156 -0.0234,-0.0234 -0.0136,-0.0175 -0.0252,-0.0369 -0.0409,-0.0526 -0.008,-0.008 -0.0201,-0.0107 -0.0292,-0.0175 -0.007,-0.005 -0.0117,-0.0117 -0.0175,-0.0175 -0.004,-0.004 -0.008,-0.008 -0.0117,-0.0117 -0.004,-0.004 -0.007,-0.008 -0.0117,-0.0117 -0.004,-0.003 -0.008,-0.004 -0.0117,-0.006 -0.004,-0.002 -0.008,-0.004 -0.0117,-0.006 -0.002,-5.3e-4 -0.004,0 -0.006,0 h -0.006"
         id="path122-8-2-4"
         sodipodi:nodetypes="cccscccscscsccccsccccccccccccscccccccsccssccscssscccsccccsccsccscccccsssscssssccsscscccsccccscccsscsc" /><path
         style="fill:none;stroke:#000000;stroke-width:0.35;stroke-dasharray:none;stroke-opacity:1"
         d="m 73.065998,30.299998 c -0.0236,0.009 -0.0506,-0.007 -0.0744,0 -0.01,0.003 -0.0157,0.0126 -0.0248,0.0165 -0.0105,0.004 -0.0229,0.003 -0.0331,0.008 -0.007,0.003 -0.0104,0.0117 -0.0165,0.0165 -0.005,0.004 -0.0313,0.0219 -0.0413,0.0248 -0.12308,0.0352 0.01,-0.0157 -0.0579,0.0248 -0.0155,0.009 -0.0528,0.0121 -0.0662,0.0165 -0.0117,0.004 -0.0215,0.0123 -0.0331,0.0165 -0.2175,0.0791 0.0908,-0.0454 -0.107481,0.0413 -0.0272,0.0119 -0.0545,0.0237 -0.0827,0.0331 -0.0882,0.0294 -0.004,-0.008 -0.0661,0.0165 -0.0375,0.015 -0.001,8e-4 -0.0248,0.0165 -0.005,0.003 -0.0116,0.005 -0.0165,0.008 -0.006,0.005 -0.0104,0.0117 -0.0165,0.0165 -0.008,0.006 -0.0186,0.009 -0.0248,0.0165 -0.005,0.007 -0.004,0.017 -0.008,0.0248 -0.002,0.003 -0.007,0.005 -0.008,0.008 -10e-4,0.002 0,0.006 0,0.008 v 0.008 c 0,0.003 -0.002,0.006 0,0.008 0.0138,0.0138 0.0239,0.006 0.0413,0.008 0.0112,0.002 0.0218,0.007 0.0331,0.008 0.0137,0.002 0.0277,-0.002 0.0413,0 0.004,5.3e-4 0.005,0.007 0.008,0.008 0.002,10e-4 0.005,0 0.008,0 0.008,0 0.0114,-0.002 0.0165,0.008 9.99e-4,0.002 0.002,0.006 0,0.008 -0.0125,0.0125 -0.0282,0.0213 -0.0413,0.0331 -0.0219,0.0197 -0.0581,0.057 -0.0744,0.0827 -0.1182,0.18574 0.15991,-0.19459 -0.0992,0.1571 -0.0128,0.0173 -0.0287,0.0322 -0.0413,0.0496 -0.11917,0.16384 -0.0605,0.0792 -0.124029,0.19843 -0.0105,0.0196 -0.0231,0.038 -0.0331,0.0579 -0.002,0.003 -0.0376,0.0869 -0.0413,0.0992 -0.004,0.0135 -0.005,0.0276 -0.008,0.0413 -0.007,0.0311 -0.007,0.0303 -0.0165,0.0579 -0.003,0.008 -0.005,0.0168 -0.008,0.0248 -0.005,0.0113 -0.0115,0.0218 -0.0165,0.0331 -0.006,0.0136 -0.01,0.0281 -0.0165,0.0413 -0.007,0.0144 -0.0176,0.027 -0.0248,0.0413 -0.0211,0.0422 -0.0269,0.0643 -0.0413,0.10749 -0.003,0.008 -0.006,0.0164 -0.008,0.0248 -0.003,0.011 0,0.008 0.008,0.008 0.0486,0 0.0787,0.004 0.124029,-0.008 0.0143,-0.004 0.0274,-0.0113 0.0413,-0.0165 0.008,-0.003 0.017,-0.004 0.0248,-0.008 0.004,-0.002 0.004,-0.008 0.008,-0.008 0.003,0 0,0.005 0,0.008 v 0.0248 c 0,0.011 0.002,0.0222 0,0.0331 -9.99e-4,0.009 -0.005,0.0168 -0.008,0.0248 -0.005,0.0113 -0.011,0.022 -0.0165,0.0331 -0.008,0.0138 -0.0182,0.0267 -0.0248,0.0413 -0.007,0.0159 -0.01,0.0336 -0.0165,0.0496 -0.01,0.0226 -0.0226,0.0438 -0.0331,0.0661 -0.0664,0.14111 0.002,0.005 -0.0744,0.16536 -0.0715,0.14898 -0.0459,0.0803 -0.10749,0.23151 -0.0645,0.15831 -0.0223,0.0534 -0.0662,0.20671 -0.007,0.0251 -0.0178,0.0492 -0.0248,0.0744 -0.007,0.0245 -0.0107,0.0497 -0.0165,0.0744 -0.005,0.0221 -0.0107,0.0442 -0.0165,0.0661 -0.005,0.0194 -0.0127,0.0382 -0.0165,0.0579 -0.01,0.0521 -0.0173,0.10461 -0.0248,0.1571 -0.004,0.0247 -0.004,0.0498 -0.008,0.0744 -0.004,0.0251 -0.0136,0.0492 -0.0165,0.0744 -0.003,0.0219 0.002,0.0442 0,0.0661 -9.99e-4,0.0167 -0.007,0.0329 -0.008,0.0496 -10e-4,0.0165 0,0.0331 0,0.0496 v 0.0331 0.0331 c 0,0.003 -0.003,0.008 0,0.008 0.003,0 -0.002,-0.007 0,-0.008 0.0259,-0.0194 0.0357,-0.0109 0.0579,-0.0331 0.007,-0.007 0.008,-0.019 0.0165,-0.0248 0.068,-0.0486 0.0164,0.005 0.0661,-0.0248 0.007,-0.004 0.0101,-0.0122 0.0165,-0.0165 0.002,-0.002 0.006,-0.002 0.008,0 0.002,0.002 -0.001,0.006 0,0.008 0.0301,0.0501 0.0228,0.0164 0.0496,0.0744 0.01,0.0214 0.0155,0.0445 0.0248,0.0661 0.007,0.017 0.0165,0.0331 0.0248,0.0496 0.0138,0.0276 0.0276,0.0551 0.0413,0.0827 0.011,0.022 0.022,0.0441 0.0331,0.0661 0.0138,0.0276 0.027,0.0554 0.0413,0.0827 0.0132,0.0251 0.0259,0.0506 0.0413,0.0744 0.0152,0.0235 0.0689,0.0917 0.091,0.11576 0.0158,0.0172 0.0331,0.0331 0.0496,0.0496 l 0.0413,0.0413 0.0331,0.0331 c 0.0138,0.0138 0.027,0.0282 0.0413,0.0413 0.0187,0.0172 0.0385,0.0332 0.0579,0.0496 0.0164,0.0139 0.0344,0.0261 0.0496,0.0413 0.018,0.018 0.0324,0.0392 0.0496,0.0579 0.0159,0.0172 0.0339,0.0323 0.0496,0.0496 0.0119,0.0131 0.022,0.0276 0.0331,0.0413 0.0138,0.0165 0.0268,0.0337 0.0413,0.0496 0.0158,0.0173 0.034,0.0322 0.0496,0.0496 0.0144,0.016 0.0252,0.0435 0.0496,0.0496 0.004,10e-4 0.008,-0.004 0.008,-0.008 0.002,-0.0136 0,-0.0276 0,-0.0413 v -0.0909 -0.0165 c 0,-0.004 -0.003,-0.0149 0.008,-0.008 0.0118,0.007 0.0214,0.0175 0.0331,0.0248 0.12609,0.0788 -0.08,-0.0616 0.0744,0.0413 0.0601,0.0401 0.0498,0.0389 0.10749,0.0744 0.0431,0.0265 0.0844,0.0485 0.13229,0.0661 0.027,0.01 0.0544,0.0196 0.0827,0.0248 0.0464,0.009 0.0935,0.0129 0.14056,0.0165 0.0254,0.002 0.11279,-0.002 0.14056,0 0.0222,0.001 0.0441,0.005 0.0661,0.008 0.022,0.003 0.0441,0.006 0.0662,0.008 0.0248,0.003 0.0496,0.005 0.0744,0.008 0.0221,0.003 0.0441,0.006 0.0661,0.008 0.0881,0.011 0.0442,0.006 0.13229,0.0165 0.0441,0.006 0.0883,0.0105 0.13229,0.0165 0.0166,0.002 0.0329,0.007 0.0496,0.008 7.9e-4,8e-5 0.0656,-9e-5 0.0661,0 0.009,10e-4 0.0162,0.007 0.0248,0.008 0.008,10e-4 0.0165,0 0.0248,0 h 0.0165 c 0.003,0 0.007,0.002 0.008,0 0.005,-0.007 0.007,-0.0162 0.008,-0.0248 0.006,-0.0334 -0.0134,-0.0695 -0.0248,-0.0992 -0.008,-0.022 -0.0161,-0.0443 -0.0248,-0.0661 -0.008,-0.0195 -0.0182,-0.038 -0.0248,-0.0579 -0.004,-0.0133 -0.005,-0.0277 -0.008,-0.0413 -0.002,-0.008 -0.006,-0.0164 -0.008,-0.0248 -7.9e-4,-0.003 0.002,-0.006 0,-0.008 -0.002,-0.002 -0.007,-0.002 -0.008,0 -0.002,0.005 0,0.011 0,0.0165 0,0.006 -0.002,0.0116 0,0.0165 0.004,0.007 0.011,0.011 0.0165,0.0165 0.011,0.011 0.0208,0.0235 0.0331,0.0331 0.0272,0.0212 0.0685,0.0373 0.0992,0.0496 0.0287,0.0115 0.12224,0.0467 0.14883,0.0496 0.0466,0.005 0.0937,0 0.14056,0 h 0.14883 0.19017 c 0.0303,0 0.0607,0.002 0.0909,0 0.0634,-0.006 0.12678,-0.011 0.19017,-0.0165 0.0276,0 0.0552,0.002 0.0827,0 0.0211,-10e-4 0.0908,-0.0115 0.11575,-0.0165 0.0111,-0.002 0.0217,-0.007 0.0331,-0.008 0.0192,-0.002 0.0386,0 0.0579,0 h 0.0579 c -0.44419,0 0.43429,-0.01685 0.52295,-0.04134 0.0387,-0.002 -0.37135,0.03534 -0.33279,0.03334 0.005,-2.7e-4 0.011,0 0.0165,0 0.003,0 0.006,0.002 0.008,0 0.002,-0.002 -0.002,-0.006 0,-0.008 0.002,-0.002 0.005,0 0.008,0 h 0.0165 c 0.003,0 0.006,0.002 0.008,0 0.002,-0.002 -0.002,-0.007 0,-0.008 0.007,-0.005 0.0173,-0.004 0.0248,-0.008 0.007,-0.004 -0.28352,0.01881 -0.27702,0.01451 0.003,-0.002 0.30762,-0.02901 0.31002,-0.03101 0.004,-0.004 0.003,-0.0134 0.008,-0.0165 0.0357,-0.0215 0.0331,0.006 0.0331,-0.0165"
         id="path123-3-7-9"
         sodipodi:nodetypes="cccccccccsscccccccsssccccsssscccccccccsccccscscssscccccccscccccccccsscsscscccscccccccssscscsscscscscscscccsccccsccccccccsscccccccscscssscscscccccsscsssssssccsccc" /><path
         style="fill:none;stroke:#000000;stroke-width:0.3;stroke-dasharray:none;stroke-opacity:1"
         d="m 72.536738,26.004418 c 0.05,0.11671 -0.009,-1.3e-4 0.0351,0.0526 0.006,0.007 0.007,0.016 0.0117,0.0234 0.0219,0.035 0.0112,0.0122 0.0351,0.0409 0.004,0.005 0.007,0.0126 0.0117,0.0175 0.007,0.007 0.0157,0.0116 0.0234,0.0175 0.0122,0.009 0.0385,0.0315 0.0526,0.0409 0.009,0.006 0.0193,0.0121 0.0292,0.0175 0.0115,0.006 0.0241,0.0105 0.0351,0.0175 0.0804,0.0512 -0.02,-0.002 0.0585,0.0409 0.0115,0.006 0.0236,0.0113 0.0351,0.0175 0.0138,0.007 0.0269,0.0163 0.0409,0.0234 0.26634,0.13317 -0.018,-0.0113 0.12862,0.0585 0.0276,0.0131 0.0546,0.0273 0.0819,0.0409 0.0156,0.008 0.0314,0.0152 0.0468,0.0234 1.2e-4,6e-5 0.10519,0.0584 0.10524,0.0585 0.0211,0.0105 0.0433,0.0187 0.0643,0.0292 0.0179,0.009 0.0345,0.0206 0.0526,0.0292 0.0229,0.0109 0.0469,0.0191 0.0702,0.0292 0.18896,0.0822 -0.0687,-0.0281 0.13447,0.0643 0.10237,0.0465 0.0146,-10e-4 0.12278,0.0526 0.0179,0.009 0.0343,0.021 0.0526,0.0292 0.0452,0.0202 0.11222,0.045 0.1637,0.0643 0.0156,0.006 0.0314,0.0111 0.0468,0.0175"
         id="path124-4-5-9"
         sodipodi:nodetypes="ccccccscccccccsccscccccc" /><path
         style="fill:none;stroke:#000000;stroke-width:0.3;stroke-dasharray:none;stroke-opacity:1"
         d="m 90.788948,27.191148 c -0.0118,0.001 -0.0126,0.0153 -0.0207,0.0207 -0.003,0.002 -0.006,0.002 -0.008,0.004 -0.0112,5.3e-4 -0.0136,0.0112 -0.0207,0.0165 -0.004,0.003 -0.009,0.005 -0.0124,0.008 -0.004,0.004 -0.004,0.009 -0.008,0.0124 -0.005,0.004 -0.0115,0.005 -0.0165,0.008 -0.005,0.003 -0.008,0.008 -0.0124,0.0124 -0.004,0.004 -0.008,0.009 -0.0124,0.0124 -0.007,0.006 -0.043,0.0311 -0.0455,0.0331 -0.005,0.004 -0.008,0.008 -0.0124,0.0124 -0.005,0.006 -0.011,0.011 -0.0165,0.0165 -0.004,0.004 -0.008,0.009 -0.0124,0.0124 -0.005,0.004 -0.0116,0.005 -0.0165,0.008 -0.003,0.002 -0.0241,0.0247 -0.0289,0.0289 -0.007,0.006 -0.0137,0.0111 -0.0207,0.0165 -0.0124,0.01 -0.0244,0.0198 -0.0372,0.0289 -0.006,0.005 -0.0141,0.008 -0.0207,0.0124 -0.007,0.005 -0.0132,0.0118 -0.0207,0.0165 -0.008,0.005 -0.0165,0.008 -0.0248,0.0124 -0.008,0.004 -0.0163,0.009 -0.0248,0.0124 -0.008,0.003 -0.0168,0.005 -0.0248,0.008 -0.0909,0.0372 -0.0384,0.0164 -0.0909,0.0413 -0.0178,0.008 -0.0361,0.016 -0.0537,0.0248 -0.0144,0.007 -0.027,0.0176 -0.0413,0.0248 -0.0523,0.0209 0.009,-0.006 -0.0372,0.0207 -0.004,0.002 -0.009,0.002 -0.0124,0.004 -0.005,0.003 -0.008,0.009 -0.0124,0.0124 -0.005,0.004 -0.0111,0.005 -0.0165,0.008 -0.0646,0.0388 0.0162,-0.009 -0.0372,0.0207 -0.007,0.004 -0.0139,0.008 -0.0207,0.0124 -0.0125,0.008 -0.0241,0.0177 -0.0372,0.0248 -0.005,0.003 -0.0115,0.002 -0.0165,0.004 -0.006,0.003 -0.0107,0.009 -0.0165,0.0124 -0.005,0.003 -0.0111,0.005 -0.0165,0.008 -7e-5,4e-5 -0.0413,0.0248 -0.0413,0.0248 -0.0164,0.009 -0.0337,0.0154 -0.0496,0.0248 -0.008,0.004 -0.0132,0.0118 -0.0207,0.0165 -0.0128,0.0118 -0.0312,0.0121 -0.0455,0.0207 -0.008,0.005 -0.0131,0.012 -0.0207,0.0165 -0.006,0.004 -0.0139,0.005 -0.0207,0.008 -0.006,0.002 -0.011,0.006 -0.0165,0.008 -0.008,0.004 -0.0167,0.008 -0.0248,0.0124 -0.007,0.004 -0.0133,0.009 -0.0207,0.0124 -0.009,0.004 -0.0196,0.005 -0.0289,0.008 -0.009,0.003 -0.0161,0.009 -0.0248,0.0124 -0.007,0.002 -0.014,0.002 -0.0207,0.004 -0.01,0.003 -0.0189,0.009 -0.0289,0.0124 -0.008,0.002 -0.0169,0.002 -0.0248,0.004 -0.009,0.003 -0.016,0.01 -0.0248,0.0124 -0.009,0.003 -0.0194,0.002 -0.0289,0.004 -0.01,0.002 -0.0193,0.006 -0.0289,0.008 -0.01,0.003 -0.0193,0.006 -0.0289,0.008 -0.0206,0.006 -0.0414,0.0107 -0.062,0.0165 -0.008,0.002 -0.0165,0.006 -0.0248,0.008 -0.01,0.003 -0.0196,0.005 -0.0289,0.008 -0.009,0.003 -0.016,0.009 -0.0248,0.0124 -0.004,0.001 -0.0402,0.006 -0.0455,0.008 -0.006,0.003 -0.0102,0.01 -0.0165,0.0124 -0.006,0.003 -0.0139,0.002 -0.0207,0.004 -0.007,0.002 -0.0137,0.006 -0.0207,0.008 -0.008,0.003 -0.0165,0.006 -0.0248,0.008 -0.01,0.004 -0.0192,0.009 -0.0289,0.0124 -0.008,0.003 -0.0167,0.005 -0.0248,0.008 -0.0613,0.0245 -0.0151,0.009 -0.0579,0.0248 -0.004,0.002 -0.008,0.004 -0.0124,0.004 -0.006,8e-4 -0.0111,-7.9e-4 -0.0165,0 -0.0413,0.006 0.003,5.3e-4 -0.0165,0.008 -0.005,0.002 -0.011,0.003 -0.0165,0.004 -0.006,10e-4 -0.011,0.003 -0.0165,0.004 -0.006,0.001 -0.0112,0.002 -0.0165,0.004 -0.006,0.002 -0.0108,0.006 -0.0165,0.008 -5.3e-4,1.9e-4 -0.0327,0.008 -0.0331,0.008 -0.005,0.002 -0.008,0.006 -0.0124,0.008 -0.005,0.002 -0.0111,0.002 -0.0165,0.004 -0.003,0.001 -0.006,0.003 -0.008,0.004 -0.006,0.003 -0.0108,0.006 -0.0165,0.008 -0.005,0.002 -0.0111,0.003 -0.0165,0.004 -0.024,0.007 -0.002,10e-4 -0.0207,0.008 -0.0158,0.006 -0.009,2.6e-4 -0.0165,0.008"
         id="path125-1-0-1" /><path
         style="fill:#ffffff;fill-opacity:1;stroke:#000000;stroke-width:0.4;stroke-linecap:butt;stroke-linejoin:miter;stroke-dasharray:none;paint-order:normal"
         id="path42-9"
         sodipodi:type="arc"
         sodipodi:cx="87.689957"
         sodipodi:cy="19.440983"
         sodipodi:rx="3.4483333"
         sodipodi:ry="8.6544228"
         sodipodi:start="5.6971619"
         sodipodi:end="0.84458512"
         sodipodi:arc-type="arc"
         d="M 90.562924,14.654634 A 3.4483333,8.6544228 0 0 1 89.979793,25.911857"
         sodipodi:open="true" /><ellipse
         style="fill:#ffffff;fill-opacity:1;stroke:#000000;stroke-width:0.305;stroke-linecap:butt;stroke-linejoin:miter;stroke-dasharray:none;paint-order:normal"
         id="path43-4"
         cx="75.808273"
         cy="21.064884"
         rx="1.5664028"
         ry="1.9518864" /><path
         style="fill:none;fill-opacity:1;stroke:#000000;stroke-width:0.305039;stroke-linecap:butt;stroke-linejoin:miter;stroke-dasharray:none;paint-order:normal"
         id="path43-7-2"
         sodipodi:type="arc"
         sodipodi:cx="72.543938"
         sodipodi:cy="31.502214"
         sodipodi:rx="1.5664028"
         sodipodi:ry="1.8857406"
         sodipodi:start="4.8808936"
         sodipodi:end="1.7113281"
         sodipodi:arc-type="arc"
         d="m 72.806636,29.643182 a 1.5664028,1.8857406 0 0 1 1.285042,2.149256 1.5664028,1.8857406 0 0 1 -1.767146,1.576927"
         sodipodi:open="true"
         transform="rotate(-8.0299771)" /><ellipse
         style="fill:#ffffff;fill-opacity:1;stroke:#000000;stroke-width:0.312787;stroke-linecap:butt;stroke-linejoin:miter;stroke-dasharray:none;paint-order:normal"
         id="path44-9"
         cx="75.449448"
         cy="21.075954"
         rx="0.53658628"
         ry="0.61830986" /><path
         style="fill:#ffffff;fill-opacity:1;stroke:#000000;stroke-width:0.4;stroke-linecap:butt;stroke-linejoin:miter;stroke-dasharray:none;paint-order:normal"
         d="m 73.030769,30.378577 c 0.0939,-0.02564 0.169619,-0.105261 0.257249,-0.140316 0.21579,-0.08631 0.116631,-0.01506 0.350791,-0.07016 0.8087,-0.19028 -0.37012,0.03136 0.420949,-0.09354 0.313911,-0.04956 0.63766,-0.133692 0.958831,-0.09355 0.0658,0.0082 0.30856,0.256509 0.35079,0.30402 0.0259,0.02913 0.0408,0.06788 0.0702,0.09354 0.0342,0.02993 0.0811,0.04225 0.116929,0.07016 0.0348,0.02707 0.0601,0.06485 0.0935,0.09354 0.0804,0.06895 0.0753,0.01426 0.14031,0.04677 0.14559,0.07279 0.358409,-0.04089 0.51449,-0.07016 0.0932,-0.01749 0.18832,-0.02506 0.28064,-0.04677 0.0778,-0.01828 0.29097,-0.10659 0.374169,-0.02339 0.0984,0.0984 0.142091,0.277879 0.210481,0.397563 0.0457,0.07994 0.12249,0.128058 0.163699,0.210476 0.135641,0.271285 0.14032,0.592894 0.14032,0.888669 0,0.157147 0.0221,0.336302 0,0.491109 -0.031,0.216631 -0.22064,0.621591 -0.35079,0.795126 -0.086,0.114655 -0.20718,0.198374 -0.30402,0.30402 -0.1574,0.171704 -0.30727,0.372692 -0.514499,0.491109 -0.0214,0.01222 -0.049,0.01069 -0.0702,0.02339 -0.0581,0.0024 -0.0377,0.07192 -0.0701,0.09354 -0.013,0.0087 -0.0328,-0.007 -0.0468,0 -0.0375,0.01876 -0.0764,0.08004 -0.116929,0.09354 -0.0148,0.0049 -0.032,-0.0049 -0.0468,0 -0.0209,0.007 -0.0271,0.03691 -0.0468,0.04677 -0.0399,0.01998 -0.0998,0.03978 -0.14031,0.07016 -0.0366,0.02748 -0.0676,0.09355 -0.116931,0.09355"
         id="path52-8" /><path
         style="fill:#ffffff;fill-opacity:1;stroke:#000000;stroke-width:0.4;stroke-linecap:butt;stroke-linejoin:miter;stroke-dasharray:none;paint-order:normal"
         d="m 75.345278,34.485834 c 0.18497,-0.0312 0.37034,-0.06249 0.55398,-0.09922 0.0226,-0.0045 0.0139,-0.02349 0.0331,-0.03307 0.005,-0.0024 0.0113,0.0019 0.0165,0 0.0212,-0.0071 0.0151,-0.0098 0.0331,-0.02479 0.0125,-0.0104 0.0744,-0.04305 0.0744,-0.05788"
         id="path53-7" /><path
         style="fill:none;fill-opacity:1;stroke:#000000;stroke-width:0.35;stroke-linecap:butt;stroke-linejoin:miter;stroke-dasharray:none;stroke-opacity:1;paint-order:normal"
         d="m 86.632292,34.734264 c -0.292666,0.4988 -0.77789,0.850921 -1.216077,1.216075 -0.19018,0.158486 -0.412947,0.410837 -0.65481,0.514496 -0.235049,0.100732 -0.547949,0.188918 -0.795129,0.23386 -0.418733,0.07613 0.243648,-0.138576 -0.374177,0.04677 -0.238507,0.07155 -0.684169,0.962305 -0.91372,1.060683 -0.06408,0.02747 -0.119445,0.07663 -0.187086,0.09354 -0.139952,0.03499 -0.331851,-0.02117 -0.467723,0.04677 -0.06446,0.03223 -0.06292,0.109694 -0.09354,0.140317 -0.02421,0.02421 -0.16288,0.02257 -0.187089,0.04677 -0.02339,0.02339 -0.02339,0.07016 -0.04677,0.09354 -0.01511,0.01511 -0.353917,0.0356 -0.420949,0.04677 -0.109381,0.01823 -0.348808,0.106228 -0.46772,0.04677 -0.127016,-0.06351 -0.611277,-0.714533 -0.654812,-0.888669 -0.02712,-0.108484 0.0016,-0.230603 -0.04677,-0.327406 -0.01971,-0.03944 -0.08285,-0.05076 -0.09355,-0.09354 -0.04746,-0.189852 0.08621,-0.849239 -0.04677,-0.982216"
         id="path63"
         sodipodi:nodetypes="csssssssssssssscc" /><path
         style="fill:none;fill-opacity:1;stroke:#000000;stroke-width:0.35;stroke-linecap:butt;stroke-linejoin:miter;stroke-dasharray:none;stroke-opacity:1;paint-order:normal"
         d="m 76.75897,35.014191 c 0.118012,-0.06317 0.23423,-0.04421 0.363802,-0.04961 0.528778,-0.02204 -0.09854,-0.01654 0.429948,-0.01654 0.145761,0 0.285174,0.0062 0.429948,0.01654 0.03299,0.0024 0.0664,-0.0041 0.09922,0 0.137355,0.01717 0.277276,0.05545 0.413413,0.08268 0.09909,0.01982 0.260474,0.02275 0.347265,0.06615 0.02466,0.01233 0.04096,0.03841 0.06614,0.04961 0.02569,0.0114 0.057,0.0051 0.08268,0.01654 0.02519,0.01119 0.04149,0.03728 0.06615,0.04961 0.215573,0.107788 -0.138936,-0.127501 0.165364,0.06615 0.02978,0.01895 0.05204,0.04864 0.08268,0.06615 0.04714,0.02693 0.101937,0.03879 0.148829,0.06615 0.02019,0.01177 0.0309,0.03558 0.04961,0.04961 0.0667,0.05003 0.189309,0.09988 0.248047,0.148829 0.03657,0.03047 0.03496,0.08457 0.06615,0.115755 0.04308,0.04308 0.15358,0.125256 0.181901,0.181901 0.01532,0.03062 0.0099,0.0662 0.01654,0.09922 0.0057,0.02841 0.02548,0.04335 0.03307,0.06615 0.0089,0.02668 -0.01725,0.04961 0.01654,0.04961"
         id="path65" /><path
         style="fill:none;fill-opacity:1;stroke:#000000;stroke-width:0.35;stroke-linecap:butt;stroke-linejoin:miter;stroke-dasharray:none;stroke-opacity:1;paint-order:normal"
         d="m 91.063006,27.1263 c 0.09904,0.106328 0.458899,-0.06821 0.595313,0 0.275283,0.137642 -0.07071,-0.0046 0.06615,0.132292 0.01558,0.01558 0.05391,-0.01834 0.06615,0 0.06586,0.09879 0.06643,0.231936 0.132292,0.330729 0.193516,0.290274 0.0755,0.320683 0.132292,0.661458 0.125452,0.752705 0.208491,1.282303 -0.46302,1.785938 -0.370545,0.277907 -0.618571,0.539133 -1.058335,0.727604 -0.296703,0.127159 -0.205581,0.0036 -0.46302,0.132292 -0.0986,0.0493 -0.159999,0.163576 -0.264584,0.198437 -0.04183,0.01394 -0.09046,-0.01394 -0.132291,0 -0.08992,0.02997 -0.463021,0.353719 -0.463021,0.396875"
         id="path66" /><path
         style="fill:none;fill-opacity:1;stroke:#000000;stroke-width:0.349999;stroke-linecap:butt;stroke-linejoin:miter;stroke-dasharray:none;stroke-opacity:1;paint-order:normal"
         d="m 76.87863,34.953048 c -0.456578,0.134826 -1.121957,0.163417 -1.543481,0.374179 -0.05916,0.02958 -0.0874,0.100629 -0.140316,0.140317 -0.07087,0.05315 -0.196133,0.09277 -0.233859,0.187086 -0.01738,0.04343 0.01738,0.09689 0,0.140317 -0.01638,0.04094 -0.06908,0.05685 -0.09354,0.09355 -0.0173,0.02596 0.01394,0.06565 0,0.09354 -0.09733,0.194654 0.0032,-0.05 -0.09355,0.04677 -0.03769,0.03769 -0.100227,0.220499 -0.140316,0.280633 -0.02447,0.03669 -0.07382,0.0541 -0.09354,0.09354 -0.007,0.01394 0.01103,0.03575 0,0.04677 -0.07018,0.07018 -0.409475,-0.03512 -0.467722,-0.04677 -0.04586,-0.0092 -0.09445,0.0092 -0.140318,0 -0.274227,-0.05485 -0.336986,-0.318394 -0.467721,-0.514493 -0.02447,-0.03669 -0.06708,-0.05827 -0.09354,-0.09355 -0.122019,-0.162692 -0.103342,-0.423175 -0.140316,-0.608036 -0.05953,-0.297635 -0.187089,-0.447802 -0.187089,-0.795129"
         id="path72" /><path
         style="fill:none;fill-opacity:1;stroke:#000000;stroke-width:0.349999;stroke-linecap:butt;stroke-linejoin:miter;stroke-dasharray:none;stroke-opacity:1;paint-order:normal"
         d="m 88.185662,33.145571 c -0.04506,0.171873 -0.199911,0.193886 -0.297656,0.330729 -0.02027,0.02837 -0.01513,0.06933 -0.03307,0.09922 -0.01603,0.02674 -0.04744,0.0412 -0.06615,0.06615 -0.0477,0.0636 -0.07608,0.142224 -0.132291,0.198437 -0.02466,0.02466 -0.07457,0.0084 -0.09922,0.03307 -0.04545,0.04545 -0.06065,0.11394 -0.09922,0.165365 -0.111757,0.14901 -0.285869,0.30988 -0.429948,0.429947 -0.170812,0.142344 -0.388276,0.224632 -0.562239,0.363803 -0.0288,0.02304 -0.220533,0.176485 -0.231511,0.198437 -0.0049,0.0099 0.0078,0.02527 0,0.03307 -0.07601,0.07601 -0.06615,-0.0086 -0.06615,0.06615"
         id="path75" /></g></g></svg>
