<?xml version="1.0" encoding="UTF-8" standalone="no"?>
<svg
   height="182"
   width="160"
   version="1.1"
   id="svg19"
   sodipodi:docname="back-standing.svg"
   inkscape:version="1.2.2 (b0a8486541, 2022-12-01)"
   xmlns:inkscape="http://www.inkscape.org/namespaces/inkscape"
   xmlns:sodipodi="http://sodipodi.sourceforge.net/DTD/sodipodi-0.dtd"
   xmlns:xlink="http://www.w3.org/1999/xlink"
   xmlns="http://www.w3.org/2000/svg"
   xmlns:svg="http://www.w3.org/2000/svg">
  <sodipodi:namedview
     id="namedview21"
     pagecolor="#ffffff"
     bordercolor="#000000"
     borderopacity="0.25"
     inkscape:showpageshadow="2"
     inkscape:pageopacity="0.0"
     inkscape:pagecheckerboard="true"
     inkscape:deskcolor="#d1d1d1"
     showgrid="false"
     inkscape:zoom="8"
     inkscape:cx="89.5625"
     inkscape:cy="57.125"
     inkscape:window-width="1920"
     inkscape:window-height="1051"
     inkscape:window-x="0"
     inkscape:window-y="0"
     inkscape:window-maximized="1"
     inkscape:current-layer="svg19" />
  <defs
     id="defs11">
    <path
       d="M1.35 0h.2l.55.1.45.35q.45.45.45 1L2.55 2.6q-.45.4-1 .4l-.8-.2-.25-.2-.45-.7v-.15L0 1.45v-.1q.05-.5.5-.9l.25-.2Q1 .05 1.3 0h.05m.45.85L1.55.8Q1.2.75 1 1q-.2.15-.2.45v.15l.15.45H1l.05.05.2.1.3.05.55-.2.15-.6-.05-.3L2.1 1 2.05.95 1.9.85h-.1"
       fill-rule="evenodd"
       id="a" />
    <use
       height="3"
       transform="translate(.8)"
       width="3"
       xlink:href="#a"
       id="c" />
    <g
       id="b">
      <path
         d="M.25-60h3.9l1.2.55 3.85-8.6 3.85 8.6L14.3-60l3.15 3.05 1.15 1.1-.4.4.1.1q2.1 2.05 2.35 4.55v.6q0 1.65-.8 3.1l-.25.45-1.4 1.7.1.1-.3.3-3.25.9v4.7l-3.25.7-3.1.9.65 1.6 3.3-1.25 3-.6q1.55 0 2.15.6.8.8.8 2 0 1.1-.75 1.85-1.05 1.05-4.05 1.25l-1.3.05.35 1.5 1.5-.05-.05 2.75-1.5 1.25v12.25l-.85 4.6h-1.5V-3q0 .7-.45 1.15-.55.55-1.6.55-1.1 0-1.65-.55-.4-.45-.4-1.15v-6.55H4.5l-2.35-3.5H.4l-3.55 3.5V-3q0 .7-.45 1.15-.55.55-1.6.55-1.1 0-1.65-.55-.4-.45-.4-1.15v-6.55H-8.8l-1.7-1.1-1.75-3.9v-3.9l.45-.4q.75-.6 1.35-1.55l-1.25-1q-.4.65-.7.95l.4-10.95 1.75-12.8.4.35.75-.7-1-1.1q-1.5-1.9-1.5-4.15l.1-1q.35-2.3 2.4-4.25l-.75-.75.5-3.95.65.3 3.85-8.6 3.85 8.6L.25-60m17.2 3.05 1.15 1.1-1.15-1.1M13.1-43.6l.75-1.55v-1.35h-1.5v1.45h.55l-.55 1.45h.75m-2.9 0 .75-1.55v-1.35h-1.5v1.45H10l-.55 1.45h.75"
         fill="#fff"
         fill-rule="evenodd"
         transform="translate(21.65 71)"
         id="path4" />
      <path
         d="m.25-60-1.25.55-3.85-8.6-3.85 8.6-.65-.3-.55-.25 5.05-11 5.1 11m-10.1 4.2.75.75q-2.05 1.95-2.4 4.25l-.1 1q0 2.25 1.5 4.15l1 1.1-.75.7-.4-.35-.6-.7q-1.8-2.2-1.8-4.9l.1-1q.3-2.8 2.7-5m-2.55 35.35q.3-.3.7-.95l1.25 1q-.6.95-1.35 1.55l-.45.4q-.7.45-1.6.45-.95 0-2.65-1.1-1.15-.65-1.9-.65-.85 0-1.3.55l-.6.95-1.35-.75 1.2-1.65q.85-.8 1.95-.8t2.25.8q1.65.85 2.55.85.65 0 1.3-.65m3.6 10.9h1.55V-3q0 .7.4 1.15.55.55 1.65.55 1.05 0 1.6-.55.45-.45.45-1.15v-6.55h1.5v6.6q0 1.25-.8 2.05-.9.9-2.75.9Q-7.1 0-8-.9q-.8-.8-.8-2.05v-6.6m13.3 0h1.55V-3q0 .7.4 1.15.55.55 1.65.55 1.05 0 1.6-.55.45-.45.45-1.15v-6.55h1.5v6.6q0 1.25-.8 2.05-.9.9-2.75.9-1.9 0-2.8-.9-.8-.8-.8-2.05v-6.6m9.55-20.85-1.5.05-.35-1.5 1.3-.05q3-.2 4.05-1.25.75-.75.75-1.85 0-1.2-.8-2-.6-.6-2.15-.6l-3 .6-3.3 1.25-.65-1.6 3.1-.9 3.25-.7.75-.05q2.2 0 3.25 1.05 1.1 1.05 1.1 2.85 0 1.85-1 2.85l-.4.35q-1.55 1.2-4.4 1.5m4.25-14.45-.1-.1 1.4-1.7.25-.45q.8-1.45.8-3.1v-.6q-.25-2.5-2.35-4.55l-.1-.1.4-.4.3-.35q2.55 2.35 2.8 5.4v.6q0 1.9-.9 3.55-.7 1.25-1.9 2.4l-.6-.6M14.3-60l-1.25.55-3.85-8.6-3.85 8.6-1.2-.55L9.2-71l5.1 11m-4.1 16.4h-.75l.55-1.45h-.55v-1.45h1.5v1.35l-.75 1.55m2.9 0h-.75l.55-1.45h-.55v-1.45h1.5v1.35l-.75 1.55"
         fill-rule="evenodd"
         transform="translate(21.65 71)"
         id="path6" />
      <path
         d="M4.15-60H.25M12.5-14.15V-26.4m6.1-29.45-1.15-1.1"
         fill="none"
         stroke="#000"
         stroke-linecap="round"
         stroke-linejoin="round"
         transform="translate(21.65 71)"
         id="path8" />
    </g>
  </defs>
  <g
     transform="matrix(2 0 0 2 79.641 142)"
     id="g17">
    <use
       height="71"
       transform="translate(-21.65 -71)"
       width="43.35"
       xlink:href="#b"
       id="use13" />
    <use
       height="3"
       transform="translate(13.35 -56.7)"
       width="4.65"
       xlink:href="#c"
       id="use15" />
  </g>
  <g
     id="g6084"
     style="clip-rule:evenodd;fill-rule:evenodd;stroke-linecap:round;stroke-linejoin:round"
     transform="translate(-2.438168e-4,3.4228516e-4)">
    <rect
       style="clip-rule:evenodd;fill:#1a1a1a;fill-rule:evenodd;stroke:none;stroke-width:0;stroke-linecap:round;stroke-linejoin:round"
       id="rect5952"
       width="8.9279642"
       height="10.606449"
       x="64.732033"
       y="129.03795" />
    <path
       style="fill:#000000"
       d="m 73.341,122.9 h 3 v 13.2 c 0,1.667 -0.533,3.033 -1.6,4.1 -1.2,1.2 -3.033,1.8 -5.5,1.8 -2.533,0 -4.4,-0.6 -5.6,-1.8 -1.133,-1.067 -1.667,-2.433 -1.6,-4.1 v -13.2 h 3.1 V 136 c -0.067,0.933 0.2,1.7 0.8,2.3 0.733,0.733 1.833,1.1 3.3,1.1 1.4,0 2.467,-0.367 3.2,-1.1 0.6,-0.6 0.9,-1.367 0.9,-2.3 v -13.1"
       id="path12048" />
    <rect
       style="clip-rule:evenodd;fill:#1a1a1a;fill-rule:evenodd;stroke:none;stroke-width:0;stroke-linecap:round;stroke-linejoin:round"
       id="rect5952-3"
       width="8.9279642"
       height="10.606449"
       x="91.190346"
       y="129.03207"
       inkscape:label="rect5952-3" />
    <path
       style="fill:#000000"
       d="m 103.041,122.9 v 13.2 c 0,1.667 -0.533,3.033 -1.6,4.1 -1.2,1.2 -3.033,1.8 -5.5,1.8 -2.6,0 -4.5,-0.6 -5.7,-1.8 -1.067,-1.067 -1.6,-2.433 -1.6,-4.1 v -13.2 h 3.2 V 136 c -0.067,0.933 0.2,1.7 0.8,2.3 0.667,0.733 1.767,1.1 3.3,1.1 1.4,0 2.467,-0.367 3.2,-1.1 0.6,-0.6 0.9,-1.367 0.9,-2.3 v -13.1 h 3"
       id="path12046" />
  </g>
  <g
     id="g10088"
     style="display:inline"
     transform="translate(4.42e-4,-3.1997805)">
    <path
       style="fill:#e6e6e6;fill-opacity:1;stroke-width:0.8"
       d="m 57.101088,61.788996 c 5.273501,-8.465456 14.676129,-2.492751 28.598247,0.134082 11.654322,-2.844417 20.915865,-5.602629 24.766835,1.068206 l 2.8335,43.623286 12.17085,22.50908 c -38.795093,10.34134 -47.805234,9.76073 -84.854569,0.22508 l 10.528604,-22.0933 z"
       id="path12506"
       sodipodi:nodetypes="cccccccc"
       transform="translate(-4.42e-4,-4.22e-4)" />
    <path
       style="fill:#dcdcdc;fill-opacity:1;stroke-width:0"
       d="m 112.09079,89.29365 c -3.31555,15.26352 -3.04785,29.07424 3.40227,42.38968 4.23368,-0.99402 6.90522,-1.7958 9.99487,-2.55666 l -12.18991,-22.5115 z"
       id="path5344"
       sodipodi:nodetypes="ccccc" />
    <path
       style="fill:#dcdcdc;stroke-width:0.8"
       d="M 68.213,56.302142 69.042819,52.647 84.070572,55.429678 98.15022,54.204611 99.332699,57.158689 C 82.934277,63.582337 84.603585,61.571789 68.213,56.302142 Z"
       id="path11776"
       sodipodi:nodetypes="cccccc"
       transform="translate(-4.42e-4,3.1997805)" />
  </g>
  <g
     id="g6367"
     transform="translate(-4.9427838e-4,3.1650374e-4)">
    <path
       style="display:inline;fill:#1a1a1a;fill-opacity:1;stroke:#000000;stroke-width:0.6;stroke-dasharray:none"
       d="m 55.303948,36.699738 -9.742066,8.272839 4.948514,-0.164524 -3.921548,4.119785 8.202605,-1.543354 1.650145,3.309951 -2.806552,6.203004 6.301975,-2.801897 3.634673,4.675302 6.433652,-27.041979 6.431945,-1.992985 2.233389,-5.731815 3.934669,3.882524 2.483422,-5.095782 4.16202,3.59006 2.211948,-4.555346 3.95488,3.618717 9.066671,-3.228536 -2.64824,3.068003 6.45381,-1.53287 -3.05174,2.822652 6.73283,-0.714433 5.28681,6.885667 12.6535,2.03461 -9.05083,-7.393204 4.80325,0.891231 -5.80011,-5.291246 2.81066,-6.126828 -4.88491,-1.607296 0.129,-5.8317426 -2.70334,4.4818836 L 105.74097,8.5456586 92.282339,5.9889539 84.368303,0.82300314 86.617079,5.3524259 73.14003,7.4824588 66.644749,10.173402 56.68329,5.407183 l 2.35591,7.950665 -6.192598,5.68293 -8.190796,-0.755342 c 1.736139,3.891191 4.419771,5.425184 7.871831,7.606502 l -4.743811,3.071322 6.946949,0.595046 -5.653704,2.004257 5.797578,1.056012 -7.375957,3.192765 z"
       id="path5178"
       sodipodi:nodetypes="cccccccccccccccccccccccccccccccccccccccccccccccc"
       transform="translate(4.9427838e-4,-3.1650374e-4)" />
    <path
       style="display:inline;fill:#ffffff;stroke:none;stroke-width:0"
       d="M 66.66181,16.3277 69.943576,5.8808328 74.59809,15.254683 Z"
       id="path10050"
       sodipodi:nodetypes="cccc" />
    <path
       style="display:inline;fill:#000000;stroke:none;stroke-width:0"
       d="M 66.66181,16.3277 63.793494,16.32784 69.940321,1.1904377e-6 77.55952,15.254665 l -2.96143,1.8e-5 -4.661559,-9.3713214 z"
       id="path10182"
       sodipodi:nodetypes="ccccccc" />
    <path
       style="display:inline;fill:#ffffff;stroke:none;stroke-width:0"
       d="M 102.1892,16.259157 98.040573,5.8796224 93.888225,14.939683 Z"
       id="path10050-3"
       sodipodi:nodetypes="cccc" />
    <path
       style="display:inline;fill:#000000;stroke:none;stroke-width:0"
       d="m 102.1892,16.259157 2.86909,-7.4e-5 L 98.043828,1.1904379e-6 90.926494,14.940176 l 2.961731,-4.93e-4 4.159393,-9.0563214 z"
       id="path10182-6"
       sodipodi:nodetypes="ccccccc" />
  </g>
</svg>
