<?xml version="1.0" encoding="UTF-8" standalone="no"?>
<svg
   height="182"
   width="160"
   version="1.1"
   id="svg11949"
   sodipodi:docname="back-sitting.svg"
   inkscape:version="1.2.2 (b0a8486541, 2022-12-01)"
   xmlns:inkscape="http://www.inkscape.org/namespaces/inkscape"
   xmlns:sodipodi="http://sodipodi.sourceforge.net/DTD/sodipodi-0.dtd"
   xmlns:xlink="http://www.w3.org/1999/xlink"
   xmlns="http://www.w3.org/2000/svg"
   xmlns:svg="http://www.w3.org/2000/svg">
  <sodipodi:namedview
     id="namedview11951"
     pagecolor="#ffffff"
     bordercolor="#000000"
     borderopacity="0.25"
     inkscape:showpageshadow="2"
     inkscape:pageopacity="0.0"
     inkscape:pagecheckerboard="true"
     inkscape:deskcolor="#d1d1d1"
     showgrid="false"
     inkscape:zoom="5.6568543"
     inkscape:cx="87.769629"
     inkscape:cy="79.549513"
     inkscape:window-width="1920"
     inkscape:window-height="1051"
     inkscape:window-x="0"
     inkscape:window-y="0"
     inkscape:window-maximized="1"
     inkscape:current-layer="svg11949" />
  <defs
     id="defs11941">
    <path
       d="M1.35 0h.2l.55.1.45.35q.45.45.45 1L2.55 2.6q-.45.4-1 .4l-.8-.2-.25-.2-.45-.7v-.15L0 1.45v-.1q.05-.5.5-.9l.25-.2Q1 .05 1.3 0h.05m.45.85L1.55.8Q1.2.75 1 1q-.2.15-.2.45v.15l.15.45H1l.05.05.2.1.3.05.55-.2.15-.6-.05-.3L2.1 1 2.05.95 1.9.85h-.1"
       fill-rule="evenodd"
       id="a" />
    <use
       height="3"
       transform="translate(.8)"
       width="3"
       xlink:href="#a"
       id="c" />
    <g
       id="b">
      <path
         d="M.35-60h3.9l1.2.55 3.85-8.6 3.9 8.6 1.25-.55 3.15 3.05 1.1 1.1-1.1-1.1 1.15 1.1h-.05l-.35.4.1.1q2.1 2.05 2.3 4.55l.05.6q0 1.65-.8 3.1l-.25.45-1.4 1.7.1.1-.3.3-3.25.9v4.7l-3.25.7-3.15.9.65 1.6L12.5-37q1.7-.6 3-.6 1.55 0 2.15.6.8.8.8 2 0 1.1-.75 1.85-1.05 1.05-4.1 1.25l-1.25.05.35 1.5 1.5-.05-.05 2.75-1.5 1.25v5.75H8.1v1.55h6.6q.7 0 1.15.4.55.55.55 1.65 0 1.05-.55 1.6-.45.45-1.15.45H8.1v1.5h-17l-3.25-3.25v-1.7l.45-.4q.75-.6 1.35-1.55l-1.25-1-.7.95.4-10.95 1.75-12.8.4.35.75-.7-1-1.1q-1.5-1.9-1.5-4.15l.05-1q.35-2.3 2.45-4.25l-.75-.75.5-3.95.65.3 3.85-8.6 3.85 8.6L.35-60m10.5 16.4.75-1.55v-1.35h-1.55v1.45h.55l-.55 1.45h.8m3.65-2.9H13v1.45h.55L13-43.6h.75l.75-1.55v-1.35"
         fill="#fff"
         fill-rule="evenodd"
         transform="translate(21.55 71)"
         id="path11934" />
      <path
         d="m.35-60-1.25.55-3.85-8.6-3.85 8.6-.65-.3-.55-.25 5.05-11 5.1 11m-10.1 4.2.75.75q-2.1 1.95-2.45 4.25l-.05 1q0 2.25 1.5 4.15l1 1.1-.75.7-.4-.35-.6-.7q-1.8-2.2-1.8-4.9l.05-1q.35-2.8 2.75-5m-2.55 35.35.7-.95 1.25 1q-.6.95-1.35 1.55l-.45.4q-.55.35-1.25.45h-.35q-.95 0-2.65-1.1l-1.9-.65q-.9 0-1.3.55l-.6.95-1.35-.75 1.2-1.65q.8-.8 1.95-.8 1.1 0 2.25.8 1.65.85 2.55.85.65 0 1.3-.65M8.1-13.5V-15h6.6q.7 0 1.15-.45.55-.55.55-1.6 0-1.1-.55-1.65-.45-.4-1.15-.4H8.1v-1.55h6.65q1.25 0 2.05.8.9.9.9 2.8 0 1.85-.9 2.75-.8.8-2.05.8H8.1m6.1-16.9-1.5.05-.35-1.5 1.25-.05q3.05-.2 4.1-1.25.75-.75.75-1.85 0-1.2-.8-2-.6-.6-2.15-.6-1.3 0-3 .6l-3.35 1.25-.65-1.6 3.15-.9 3.25-.7.75-.05q2.2 0 3.25 1.05Q20-36.9 20-35.1q0 1.85-1 2.85l-.4.35q-1.6 1.2-4.4 1.5m4.25-14.45-.1-.1 1.4-1.7.25-.45q.8-1.45.8-3.1l-.05-.6q-.2-2.5-2.3-4.55l-.1-.1.35-.4h.05l.3-.35q2.55 2.35 2.75 5.4l.05.6q0 1.9-.9 3.55-.7 1.25-1.9 2.4l-.6-.6m-4-15.15-1.25.55-3.9-8.6-3.85 8.6-1.2-.55L9.3-71l5.15 11m.05 13.5v1.35l-.75 1.55H13l.55-1.45H13v-1.45h1.5m-3.65 2.9h-.8l.55-1.45h-.55v-1.45h1.55v1.35l-.75 1.55"
         fill-rule="evenodd"
         transform="translate(21.55 71)"
         id="path11936" />
      <path
         d="M4.25-60H.35m12.3 39.35v-5.75m6.05-29.45-1.1-1.1"
         fill="none"
         stroke="#000"
         stroke-linecap="round"
         stroke-linejoin="round"
         transform="translate(21.55 71)"
         id="path11938" />
    </g>
  </defs>
  <g
     id="g12958"
     transform="matrix(0.00629978,0,0,0.00709707,117.50709,67.835114)">
    <path
       style="fill:#300a0a;fill-opacity:0.978075;stroke:none;stroke-width:0.8"
       d="m 84.994341,77.488066 0.05922,-10.572584 c -0.379853,-5.044062 -1.084272,-4.58909 2.699287,-8.681534 l -0.03378,-2.238193 3.203269,-0.02753 -0.05652,2.238 c 3.881003,3.836475 3.377064,3.593802 2.652935,8.709453 l 8.37e-4,10.571902 c 1.416759,2.772526 1.403937,3.417624 -0.239539,6.73 -2.248003,-3.570734 -1.852817,-3.102576 -4.146934,0 -2.009754,-3.271144 -1.490996,-3.321787 -3.778691,-1.9e-4 -1.448668,-3.564092 -1.457641,-3.961251 -0.360084,-6.729324 z"
       id="path16443"
       sodipodi:nodetypes="cccccccccccc"
       transform="matrix(181.90186,0,0,171.08172,-16325.018,-11962.895)" />
    <path
       style="fill:#800000;stroke-width:0.8"
       d="m 85.068944,66.885613 h 8.448793 v 10.625016 h -8.541545 z"
       id="path4984"
       transform="matrix(181.90186,0,0,171.08172,-16325.018,-11962.895)" />
    <path
       style="fill:#e6e6e6;stroke-width:0.8"
       d="m 87.596139,57.49 v -1.665124 h 3.449674 v 1.665586 z"
       id="path4986"
       sodipodi:nodetypes="ccccc"
       transform="matrix(181.90186,0,0,171.08172,-16325.018,-11962.895)" />
    <path
       d="m -112.55762,-98.733012 c 88.490551,249.830822 -180.62175,335.454232 -180.62175,335.454232 0.81729,-0.20306 -162.26981,68.70178 -162.26981,68.70178 0,0 23.4043,-25.31475 21.54681,-82.44214 -1.85749,-57.19508 -10.17901,-261.743647 -10.17901,-261.743647 0,0 -0.3715,-21.118183 -23.8501,-28.902127 l 191.02367,-80.953036 c 122.81685,-51.98322 164.35019,49.884938 164.35019,49.884938 z"
       fill="#ffffff"
       id="path10549"
       style="stroke-width:70.9159" />
    <path
       d="m -337.2389,-53.247691 6.76124,237.173451 c 0,0 165.53899,-21.59199 109.96307,-232.23234 0,0 -22.51271,-69.64939 -116.72431,-4.941111 z"
       fill="#7b002b"
       id="path10551"
       style="fill:#800000;stroke-width:70.9159" />
    <path
       d="m -94.725769,-94.468765 66.200734,-28.022205 c 0,0 22.8099078,-6.15947 37.5954828,-23.0134 0,0 5.5724502,23.62258 3.0462672,36.48301 0,0 6.16685,-43.92853 70.510101,-65.31746 l 0.594391,64.77597 c 0,0 -13.745375,1.08298 -25.484675,6.09178 -11.7393,4.941119 -45.768409,32.421833 -45.099717,61.662395 0.668692,29.240562 1.857483,108.027631 1.857483,108.027631 0,0 3.863567,27.886836 20.135126,29.308249 L -88.113128,147.51042 c 0,0 16.420167,-18.74915 16.345867,-49.411129 l -0.743,-161.703019 c 0,0 -2.377575,-27.480713 -22.215508,-30.865037 z"
       fill="#ffffff"
       id="path10555"
       style="stroke-width:70.9159" />
    <path
       d="m 494.91399,-17.847659 66.20075,-28.022209 c 0,0 26.07903,-7.513197 40.7903,-24.367132 0,0 2.37764,24.976315 -0.14857,37.904431 0,0 15.6772,-45.620695 80.0204,-67.009619 l 0.59443,64.843648 c 0,0 -16.86598,0 -28.60525,4.941118 -11.73934,5.008797 -45.76844,32.4218237 -45.09973,61.730073 0.66872,29.308249 3.12057,118.112919 3.12057,118.112919 0,0 3.86356,27.95452 20.13512,29.37594 l -129.13228,54.69068 c 0,0 16.34586,-18.74916 16.27156,-49.41114 -0.0743,-30.72966 -2.00609,-171.855985 -2.00609,-171.855985 0,0 -2.60047,-24.976315 -22.14121,-30.932724 z"
       fill="#ffffff"
       id="path10559"
       style="stroke-width:70.9159" />
    <path
       d="m -856.51716,254.38739 252.98934,-107.14771 c 0,0 108.84857,-46.09449 129.058,31.67728 20.20942,77.77177 40.27026,193.44798 -183.14794,264.38342 0,0 105.4308,-103.76339 67.24093,-178.69233 0,0 -20.58093,-50.42643 -105.5051,6.90402 l 10.55051,386.96364 c 0,0 10.32761,73.71059 47.70019,57.80427 l -204.91765,86.77407 c 0,0 35.4408,-37.43062 33.36042,-89.75228 -2.15468,-52.32166 -9.28742,-412.41376 -9.28742,-412.41376 0,0 -2.08038,-34.52011 -38.04128,-46.50062 z"
       fill="#ffffff"
       id="path10565"
       style="stroke-width:70.9159" />
    <path
       d="m -408.86348,421.91144 c 15.82577,31.13579 15.90006,64.1668 15.90006,64.1668 l -164.4245,69.5817 c 9.80752,57.39815 43.39084,62.06851 81.80361,45.82376 38.48707,-16.24476 83.14099,-63.55762 83.14099,-63.55762 l -17.01456,71.07081 c -171.33434,139.90797 -224.01259,39.25817 -224.01259,39.25817 -56.02171,-109.85517 52.00956,-223.70384 117.1701,-251.25224 49.03759,-20.77976 91.53682,-6.22716 107.43689,24.90862 z"
       fill="#ffffff"
       id="path10569"
       style="stroke-width:70.9159" />
    <path
       d="m -558.50241,507.73791 73.63068,-31.20347 c 0,0 -5.64675,-38.98742 -35.5151,-26.33004 -29.86834,12.65737 -38.11558,57.53351 -38.11558,57.53351 z"
       fill="#7b002b"
       id="path10571"
       style="fill:#800000;stroke-width:70.9159" />
    <path
       d="m 469.20641,55.32143 c 15.90007,31.068098 15.90007,64.16679 15.90007,64.16679 l -164.3502,69.58171 c 9.80751,57.39814 43.31653,62.06851 81.8036,45.82375 38.48707,-16.24476 83.06669,-63.55761 83.06669,-63.55761 l -16.94025,71.07081 C 297.35198,382.31485 244.67373,281.66504 244.67373,281.66504 188.65201,171.80988 296.68328,57.961203 361.84383,30.412802 410.80711,9.6330548 453.38064,24.185645 469.20641,55.32143 Z"
       fill="#ffffff"
       id="path10575"
       style="stroke-width:70.9159" />
    <path
       d="m 319.56749,141.14789 73.63067,-31.20346 c 0,0 -5.64675,-38.987417 -35.51509,-26.330049 -29.86835,12.657375 -38.11558,57.533509 -38.11558,57.533509 z"
       fill="#7b002b"
       id="path10577"
       style="fill:#800000;stroke-width:70.9159" />
    <path
       d="m -257.58998,556.20144 c 0.6687,29.30825 4.38367,95.09951 4.38367,95.09951 0,0 3.86356,27.88683 20.13512,29.30825 l -128.0178,54.21687 c 0,0 16.42016,-18.74916 16.27156,-49.47882 -0.1486,-30.72966 -6.46404,-297.61748 -6.46404,-297.61748 0,0 0.96589,-26.46542 -20.95243,-31.33884 l 67.09233,-28.42833 c 0,0 22.80991,-6.09178 37.59548,-23.0134 0,0 5.57245,23.69026 3.04627,36.5507 0,0 12.1108,-44.87614 74.44797,-70.05552 0,0 69.09841,-25.044 98.892447,33.30176 29.79405,58.34575 6.53835,195.95237 -111.969137,246.10806 0,0.0677 -33.13752,14.07879 -54.46144,5.34724 z"
       fill="#ffffff"
       id="path10581"
       style="stroke-width:70.9159" />
    <path
       d="m -222.37208,508.21172 c 55.50163,-23.5549 42.42494,-110.1936 35.0693,-142.54775 -7.42993,-32.35414 -36.18379,-22.53959 -36.18379,-22.53959 -36.33239,15.43251 -36.03519,56.65358 -36.77818,62.88074 a 6115.5807,5571.2747 0 0 0 1.41168,107.01233 c 24.073,3.99351 36.48099,-4.80573 36.48099,-4.80573 z"
       fill="#7b002b"
       id="path10583"
       style="fill:#800000;stroke-width:70.9159" />
    <path
       d="m 98.155382,149.40565 c -62.411467,25.24706 -74.447959,70.1232 -74.447959,70.1232 2.526175,-12.86043 -3.046275,-36.5507 -3.046275,-36.5507 -14.785575,16.85393 -37.595483,23.0134 -37.595483,23.0134 l -67.092326,28.42833 c 21.918317,4.87342 20.952425,31.33884 20.952425,31.33884 0,0 6.389742,266.82013 6.464042,297.5498 0.07428,30.72966 -16.271559,49.47882 -16.271559,49.47882 L 55.210349,558.50278 C 38.93879,557.08136 35.075223,529.19453 35.075223,529.19453 c 0,0 -3.714967,-65.85896 -4.383666,-95.09952 21.323917,8.73156 54.387141,-5.27955 54.387141,-5.27955 C 203.58618,378.65978 226.84188,241.05315 197.04784,182.7074 167.25379,124.42933 98.155382,149.40565 98.155382,149.40565 Z"
       fill="#ffffff"
       id="path10587"
       style="stroke-width:70.9159" />
    <path
       d="M 65.835157,386.10529 C 121.33678,362.61808 108.2601,275.91169 100.90446,243.62524 93.474524,211.2711 64.720666,221.08564 64.720666,221.08564 28.388281,236.51816 28.685474,277.73923 27.942482,283.96638 a 6115.5807,5571.2747 0 0 0 1.411691,107.01234 c 24.072992,3.92581 36.480984,-4.87343 36.480984,-4.87343 z"
       fill="#7b002b"
       id="path10591"
       style="fill:#800000;stroke-width:70.9159" />
  </g>
  <g
     transform="matrix(2 0 0 2 79.441 142)"
     id="g11947">
    <use
       height="57.5"
       transform="translate(-21.55 -71)"
       width="43.4"
       xlink:href="#b"
       id="use11943" />
    <use
       height="3"
       transform="matrix(1.0012 0 0 1 13.45 -56.7)"
       width="4.65"
       xlink:href="#c"
       id="use11945" />
  </g>
  <g
     id="g10088"
     style="display:inline"
     transform="translate(4.91e-4,-3.1992891)">
    <path
       style="fill:#e6e6e6;fill-opacity:1;stroke-width:0.8"
       d="m 57.101088,61.788996 c 5.273501,-8.465456 14.676129,-2.492751 28.598247,0.134082 11.654322,-2.844417 20.915865,-5.602629 24.766835,1.068206 l 2.8335,43.623286 6.30397,19.40346 c -36.941083,5.61757 -37.938825,5.61961 -76.531188,0.15642 l 8.072103,-18.91902 z"
       id="path12506"
       sodipodi:nodetypes="cccccccc"
       transform="translate(-4.42e-4,-4.22e-4)" />
    <path
       style="fill:#dcdcdc;fill-opacity:1;stroke-width:0"
       d="m 112.09079,89.29365 c -3.31555,15.26352 -4.78452,24.23262 1.6656,37.54806 2.69263,-0.31011 3.92529,-0.56571 5.84842,-0.82788 l -6.30679,-19.39866 z"
       id="path5344"
       sodipodi:nodetypes="ccccc" />
    <path
       style="fill:#dcdcdc;stroke-width:0.8"
       d="M 68.213,56.302142 69.042819,52.647 84.070572,55.429678 98.15022,54.204611 99.332699,57.158689 C 82.934277,63.582337 84.603585,61.571789 68.213,56.302142 Z"
       id="path11776"
       sodipodi:nodetypes="cccccc"
       transform="translate(-4.42e-4,3.1997805)" />
  </g>
  <g
     id="g6367"
     transform="translate(-4.453e-4,8.0791815e-4)">
    <path
       style="display:inline;fill:#1a1a1a;fill-opacity:1;stroke:#000000;stroke-width:0.6;stroke-dasharray:none"
       d="m 55.303948,36.699738 -9.742066,8.272839 4.948514,-0.164524 -3.921548,4.119785 8.202605,-1.543354 1.650145,3.309951 -2.806552,6.203004 6.301975,-2.801897 3.634673,4.675302 6.433652,-27.041979 6.431945,-1.992985 2.233389,-5.731815 3.934669,3.882524 2.483422,-5.095782 4.16202,3.59006 2.211948,-4.555346 3.95488,3.618717 9.066671,-3.228536 -2.64824,3.068003 6.45381,-1.53287 -3.05174,2.822652 6.73283,-0.714433 5.28681,6.885667 12.6535,2.03461 -9.05083,-7.393204 4.80325,0.891231 -5.80011,-5.291246 2.81066,-6.126828 -4.88491,-1.607296 0.129,-5.8317426 -2.70334,4.4818836 L 105.74097,8.5456586 92.282339,5.9889539 84.368303,0.82300314 86.617079,5.3524259 73.14003,7.4824588 66.644749,10.173402 56.68329,5.407183 l 2.35591,7.950665 -6.192598,5.68293 -8.190796,-0.755342 c 1.736139,3.891191 4.419771,5.425184 7.871831,7.606502 l -4.743811,3.071322 6.946949,0.595046 -5.653704,2.004257 5.797578,1.056012 -7.375957,3.192765 z"
       id="path5178"
       sodipodi:nodetypes="cccccccccccccccccccccccccccccccccccccccccccccccc"
       transform="translate(4.9427838e-4,-3.1650374e-4)" />
    <path
       style="display:inline;fill:#ffffff;stroke:none;stroke-width:0"
       d="M 66.66181,16.3277 69.943576,5.8808328 74.59809,15.254683 Z"
       id="path10050"
       sodipodi:nodetypes="cccc" />
    <path
       style="display:inline;fill:#000000;stroke:none;stroke-width:0"
       d="M 66.66181,16.3277 63.793494,16.32784 69.940321,1.1904377e-6 77.55952,15.254665 l -2.96143,1.8e-5 -4.661559,-9.3713214 z"
       id="path10182"
       sodipodi:nodetypes="ccccccc" />
    <path
       style="display:inline;fill:#ffffff;stroke:none;stroke-width:0"
       d="M 102.1892,16.259157 98.040573,5.8796224 93.888225,14.939683 Z"
       id="path10050-3"
       sodipodi:nodetypes="cccc" />
    <path
       style="display:inline;fill:#000000;stroke:none;stroke-width:0"
       d="m 102.1892,16.259157 2.86909,-7.4e-5 L 98.043828,1.1904379e-6 90.926494,14.940176 l 2.961731,-4.93e-4 4.159393,-9.0563214 z"
       id="path10182-6"
       sodipodi:nodetypes="ccccccc" />
  </g>
</svg>
