<?xml version="1.0" encoding="UTF-8" standalone="no"?>
<svg
   height="182"
   width="160"
   version="1.1"
   id="svg11891"
   sodipodi:docname="front-sitting.svg"
   inkscape:version="1.2.2 (b0a8486541, 2022-12-01)"
   xmlns:inkscape="http://www.inkscape.org/namespaces/inkscape"
   xmlns:sodipodi="http://sodipodi.sourceforge.net/DTD/sodipodi-0.dtd"
   xmlns:xlink="http://www.w3.org/1999/xlink"
   xmlns="http://www.w3.org/2000/svg"
   xmlns:svg="http://www.w3.org/2000/svg">
  <sodipodi:namedview
     id="namedview11893"
     pagecolor="#ffffff"
     bordercolor="#000000"
     borderopacity="0.25"
     inkscape:showpageshadow="2"
     inkscape:pageopacity="0.0"
     inkscape:pagecheckerboard="true"
     inkscape:deskcolor="#d1d1d1"
     showgrid="false"
     inkscape:zoom="8"
     inkscape:cx="67.5625"
     inkscape:cy="87.375"
     inkscape:window-width="1920"
     inkscape:window-height="1015"
     inkscape:window-x="0"
     inkscape:window-y="0"
     inkscape:window-maximized="1"
     inkscape:current-layer="svg11891" />
  <defs
     id="defs11883">
    <g
       id="c">
      <path
         d="m4.25-60 1.2.55 3.85-8.6 3.9 8.6 1.25-.55 3.15 3.05 1.1 1.1-1.1-1.1 1.15 1.1h-.05l-.35.4.1.1q2.1 2.05 2.3 4.55l.05.6q0 1.65-.8 3.1l-.25.45-1.4 1.7.1.1-.3.3-3.25.9v4.7l-1.25.2-2 .5-3.15.9.65 1.6L12.5-37q1.7-.6 3-.6 1.55 0 2.15.6.8.8.8 2 0 1.1-.75 1.85-1.05 1.05-4.1 1.25l-1.25.05.35 1.5 1.5-.05-.05 2.75-1.5 1.25v5.75H8.1v1.55h6.6q.7 0 1.15.4.55.55.55 1.65 0 1.05-.55 1.6-.45.45-1.15.45H8.1v1.5H2.3q1.2 0 1.95-.8.9-.9.9-2.75 0-1.9-.9-2.8-.8-.8-2.05-.8h-6.6v1.55h6.55q.7 0 1.15.4.55.55.55 1.65 0 1.05-.55 1.6-.45.45-1.15.45H-4.4v1.5h-4.5l-3.25-3.25v-1.7l.45-.4q.75-.6 1.35-1.55l-1.25-1-.7.95.4-10.95 1.75-12.8.4.35.75-.7-1-1.1q-1.5-1.9-1.5-4.15l.05-1q.35-2.3 2.45-4.25l-.75-.75.5-3.95.65.3 3.85-8.6 3.85 8.6L.35-60h3.9m2 9.2v-3.65h3.5v8.15H4.8Q6-48 6.25-50.8M4.9-51.9l-.05 1.1q-.2 2.7-1.5 4.5H2.4v3.25h1.35V-45H11v1.95h1.35v-3.25h-1.2v-9.45H4.9v3.85m.55 13.95-1.35-.8L2.2-39l-2 .25-2 .5-3.1.9.65 1.6L-.95-37l3-.6q1.55 0 2.15.6.8.8.8 2 0 1.1-.75 1.85Q3.2-32.1.2-31.9l-1.3.05.35 1.5q3.95-.05 5.9-1.55l.4-.35q1-1 1-2.85 0-1.8-1.1-2.85M-7.2-43.6l.75-1.55v-1.35h-1.5v1.45h.55l-.55 1.45h.75m2.15 0h.75l.75-1.55v-1.35h-1.5v1.45h.55l-.55 1.45"
         fill="#fff"
         fill-rule="evenodd"
         transform="translate(21.55 71)"
         id="path11869" />
      <path
         d="m14.45-60-1.25.55-3.9-8.6-3.85 8.6-1.2-.55L9.3-71l5.15 11M.35-60l-1.25.55-3.85-8.6-3.85 8.6-.65-.3-.55-.25 5.05-11 5.1 11m-10.1 4.2.75.75q-2.1 1.95-2.45 4.25l-.05 1q0 2.25 1.5 4.15l1 1.1-.75.7-.4-.35-.6-.7q-1.8-2.2-1.8-4.9l.05-1q.35-2.8 2.75-5m-2.55 35.35.7-.95 1.25 1q-.6.95-1.35 1.55l-.45.4q-.55.35-1.25.45h-.35q-.95 0-2.65-1.1l-1.9-.65q-.9 0-1.3.55l-.6.95-1.35-.75 1.2-1.65q.8-.8 1.95-.8 1.1 0 2.25.8 1.65.85 2.55.85.65 0 1.3-.65m7.9 6.95V-15h6.55q.7 0 1.15-.45.55-.55.55-1.6 0-1.1-.55-1.65-.45-.4-1.15-.4H-4.4v-1.55h6.6q1.25 0 2.05.8.9.9.9 2.8 0 1.85-.9 2.75-.75.8-1.95.8h-6.7m12.5 0V-15h6.6q.7 0 1.15-.45.55-.55.55-1.6 0-1.1-.55-1.65-.45-.4-1.15-.4H8.1v-1.55h6.65q1.25 0 2.05.8.9.9.9 2.8 0 1.85-.9 2.75-.8.8-2.05.8H8.1m6.1-16.9-1.5.05-.35-1.5 1.25-.05q3.05-.2 4.1-1.25.75-.75.75-1.85 0-1.2-.8-2-.6-.6-2.15-.6-1.3 0-3 .6l-3.35 1.25-.65-1.6 3.15-.9 2-.5 1.25-.2.75-.05 1.85.25q.85.25 1.4.8Q20-36.9 20-35.1q0 1.85-1 2.85l-.4.35q-1.6 1.2-4.4 1.5m4.25-14.45-.1-.1 1.4-1.7.25-.45q.8-1.45.8-3.1l-.05-.6q-.2-2.5-2.3-4.55l-.1-.1.35-.4h.05l.3-.35q2.55 2.35 2.75 5.4l.05.6q0 1.9-.9 3.55-.7 1.25-1.9 2.4l-.6-.6M4.9-51.9v-3.85h6.25v9.45h1.2v3.25H11V-45H3.75v1.95H2.4v-3.25h.95q1.3-1.8 1.5-4.5l.05-1.1m1.35 1.1Q6-48 4.8-46.3h4.95v-8.15h-3.5v3.65m-.8 12.85q1.1 1.05 1.1 2.85 0 1.85-1 2.85l-.4.35q-1.95 1.5-5.9 1.55l-.35-1.5 1.3-.05q3-.2 4.05-1.25Q5-33.9 5-35q0-1.2-.8-2-.6-.6-2.15-.6l-3 .6-3.3 1.25-.65-1.6 3.1-.9 2-.5 2-.25 1.9.25 1.35.8m-10.5-5.65.55-1.45h-.55v-1.45h1.5v1.35l-.75 1.55h-.75m-2.15 0h-.75l.55-1.45h-.55v-1.45h1.5v1.35l-.75 1.55"
         fill-rule="evenodd"
         transform="translate(21.55 71)"
         id="path11871" />
      <path
         d="M12.65-20.65v-5.75m6.05-29.45-1.1-1.1M4.25-60H.35"
         fill="none"
         stroke="#000"
         stroke-linecap="round"
         stroke-linejoin="round"
         transform="translate(21.55 71)"
         id="path11873" />
    </g>
    <g
       id="d"
       transform="translate(.8)">
      <use
         height="3"
         transform="matrix(1.005 0 0 1 -.804 0)"
         width="4.65"
         xlink:href="#a"
         id="use11876" />
      <use
         height="3"
         transform="matrix(1.005 0 0 1 16.096 0)"
         width="4.65"
         xlink:href="#a"
         id="use11878" />
    </g>
    <path
       d="M1.35 0h.2l.55.1.45.35q.45.45.45 1L2.55 2.6q-.45.4-1 .4l-.8-.2-.25-.2-.45-.7v-.15L0 1.45v-.1q.05-.5.5-.9l.25-.2Q1 .05 1.3 0h.05m.45.85L1.55.8Q1.2.75 1 1q-.2.15-.2.45v.15l.15.45H1l.05.05.2.1.3.05.55-.2.15-.6-.05-.3L2.1 1 2.05.95 1.9.85h-.1"
       fill-rule="evenodd"
       id="b" />
    <use
       height="3"
       transform="translate(.8)"
       width="3"
       xlink:href="#b"
       id="a" />
  </defs>
  <g
     transform="matrix(2 0 0 2 79.441 142)"
     id="g11889">
    <use
       height="57.5"
       transform="translate(-21.55 -71)"
       width="43.4"
       xlink:href="#c"
       id="use11885" />
    <use
       height="3"
       transform="translate(-3.65 -57.5)"
       width="21.55"
       xlink:href="#d"
       id="use11887" />
  </g>
  <path
     style="display:inline;fill:#cccccc;stroke:none;stroke-width:0"
     d="m 57.236,97.633258 h 50.877 l 9.074,16.962062 c -37.276323,5.46152 -31.495066,5.39756 -69.565,0.11913 z"
     id="path1836"
     sodipodi:nodetypes="ccccc" />
  <g
     id="g6084"
     style="clip-rule:evenodd;display:inline;fill-rule:evenodd;stroke-linecap:round;stroke-linejoin:round"
     transform="translate(4.4e-5,3.1650374e-4)">
    <rect
       style="clip-rule:evenodd;fill:#1a1a1a;fill-rule:evenodd;stroke:none;stroke-width:0;stroke-linecap:round;stroke-linejoin:round"
       id="rect5952-3"
       width="8.9279642"
       height="10.606449"
       x="-112.52364"
       y="101.85157"
       inkscape:label="rect5952-3"
       transform="rotate(-90)" />
    <path
       style="fill:#000000"
       d="m 95.719481,100.673 13.199999,-1e-5 c 1.667,1e-5 3.03299,0.53299 4.1,1.60001 1.2,1.19999 1.79996,3.03301 1.80001,5.49999 -1e-5,2.6 -0.6,4.49999 -1.80001,5.69999 -1.067,1.067 -2.43301,1.60001 -4.09999,1.6 l -13.200002,1e-5 -8e-6,-3.20001 h 13.1 c 0.933,0.067 1.7,-0.2 2.3,-0.8 0.73301,-0.66698 1.09997,-1.76699 1.1,-3.29999 0,-1.4 -0.36699,-2.46701 -1.10001,-3.2 -0.59998,-0.59999 -1.367,-0.89997 -2.29999,-0.90001 l -13.099992,1e-5 -7e-6,-2.99999"
       id="path12046" />
    <path
       style="display:inline;fill:#ddcaa5;fill-opacity:1;stroke:#cebc99;stroke-width:0.8;stroke-dasharray:none;stroke-opacity:1"
       d="m 54.919846,97.890631 h 50.843434 l 0.0168,2.362989 -1.26769,0.33365 -2.20686,0.72617 v 13.644 h -6.375089 l -2.242498,-1.81447 -3.523446,0.0101 -4.119368,0.0571 -9.234744,-12.2913 0.01704,13.93 h -6.24302 l -15.645871,-8.12138 z"
       id="path10065"
       sodipodi:nodetypes="ccccccccccccccc"
       transform="translate(3.977401e-4)" />
    <rect
       style="clip-rule:evenodd;display:inline;fill-rule:evenodd;stroke-linecap:round;stroke-linejoin:round;fill:#1a1a1a;stroke:none;stroke-width:0"
       id="rect5952"
       width="8.9279642"
       height="10.606449"
       x="-112.32237"
       y="76.796822"
       transform="rotate(-90)" />
    <path
       style="clip-rule:evenodd;display:inline;fill:#000000;fill-rule:evenodd;stroke-linecap:round;stroke-linejoin:round"
       d="m 76.799955,103.71343 8e-6,-3 7.058934,-1e-5 c 1.667005,1e-5 3.032994,0.533 4.1,1.60001 1.199994,1.19999 1.800002,3.03299 1.800003,5.5 -1.2e-5,2.53299 -0.60001,4.39999 -1.799998,5.59999 -1.066979,1.13304 -2.433007,1.667 -4.100004,1.6 h -7.058941 l -8e-6,-3.1 H 83.7589 c 0.932996,0.067 1.699999,-0.19999 2.299991,-0.8 0.73301,-0.73299 1.099981,-1.83301 1.100001,-3.3 3e-6,-1.4 -0.366995,-2.467 -1.099997,-3.2 -0.599996,-0.59999 -1.366999,-0.89999 -2.3,-0.89999 h -6.95894"
       id="path12048"
       sodipodi:nodetypes="cccssccccccsssc" />
    <rect
       style="fill:#1a1a1a;stroke:none;stroke-width:0"
       id="rect1794"
       width="50.842175"
       height="2.2082539"
       x="54.925159"
       y="96.306122"
       transform="translate(3.977401e-4)" />
    <rect
       style="fill:#d4aa00;stroke:none;stroke-width:0"
       id="rect1897"
       width="6.9335537"
       height="2.8206542"
       x="81.134972"
       y="96.011658"
       transform="translate(3.977401e-4)" />
  </g>
  <g
     id="g10088"
     style="display:inline"
     transform="translate(4.42e-4,3.1650374e-4)">
    <path
       style="display:inline;fill:#e6e6e6;fill-opacity:1;stroke:none;stroke-width:0"
       d="m 43.215558,122.53968 c 4.737678,-7.94384 25.716383,6.35307 32.899418,-10.00093 l -3.36057,-5.18938 3.897231,-4.31156 5.435584,-26.408733 1.377291,-14.06019 C 70.323595,59.305123 68.699428,55.040666 57.039657,60.169125 l -5.899314,47.089395 z"
       id="path6624"
       sodipodi:nodetypes="ccccccccc" />
    <path
       style="display:inline;fill:#e6e6e6;fill-opacity:1;stroke:none;stroke-width:0"
       d="m 94.319278,113.09308 c 4.970819,14.62984 15.926672,0.10245 25.362282,10.5176 l -4.63776,-16.94789 -4.98061,-46.770485 c -7.0192,-3.510232 -15.033747,0.826772 -22.249857,2.573766 l 1.718705,14.142786 4.709944,26.691653 3.405423,4.5158 z"
       id="path6626"
       sodipodi:nodetypes="ccccccccc" />
    <path
       style="fill:#dcdcdc;fill-opacity:1;stroke-width:0"
       d="m 113.17834,89.184279 c -3.31555,15.263521 -10.26071,17.016011 -3.81059,30.331451 5.36263,-0.17392 7.77728,1.50258 10.41981,4.11095 l -4.73994,-16.92849 z"
       id="path5344"
       sodipodi:nodetypes="ccccc" />
    <path
       style="display:inline;fill:#f2f2f2;fill-opacity:1;stroke:none;stroke-width:0"
       d="m 66.31107,56.602578 4.862185,15.898363 4.828807,5.145557 -6.254787,1.173617 2.865187,28.465085 4.477838,-4.64944 5.147774,-25.012826 1.271511,-14.938365 z"
       id="path6718" />
    <path
       style="fill:#ffffff;stroke-width:0"
       d="m 96.469497,70.326661 8.055023,-3.064482 7.24113,-1.372528 4.89733,3.067416 -0.29153,7.264602 -16.17537,4.56539 z"
       id="path4166-0" />
    <path
       style="fill:#000000;stroke:none;stroke-width:0"
       d="m 117.5867,77.518267 c -3.8303,3.139857 -8.00779,3.771483 -12.75043,3.784143 l -0.69617,-3.008252 c 16.39504,0.665968 13.92031,-11.790593 6.3498,-11.496659 l -5.99512,1.201968 -6.653882,2.499952 -1.298538,-3.200412 6.25751,-1.799422 6.43379,-1.401264 c 10.57266,-1.382575 12.15137,8.365857 8.35304,13.419946 z"
       id="path2154-3"
       sodipodi:nodetypes="cccccccccc" />
    <path
       style="fill:#ececec;stroke-width:0"
       d="m 93.122448,65.875512 11.785582,-1.406153 c 3.15039,6.026598 3.45211,13.155806 2.60888,19.666866 -5.63932,-1.163243 -9.852878,-2.873341 -14.098745,-5.61236 z"
       id="path1920"
       sodipodi:nodetypes="ccccc" />
    <path
       style="display:inline;fill:#f2f2f2;fill-opacity:1;stroke:none;stroke-width:0"
       d="m 97.255699,107.83478 -3.82573,-4.55232 -6.173315,-40.703858 14.734406,-5.835299 -3.098957,16.162496 -4.410742,3.822332 4.743871,1.728436 -0.299854,18.372099 z"
       id="path6720" />
  </g>
  <g
     id="g6361"
     transform="translate(4.42e-4,3.1650374e-4)">
    <path
       style="display:inline;fill:#1a1a1a;stroke:#000000;stroke-width:0.6;stroke-dasharray:none"
       d="m 59.175793,53.562175 -0.691976,4.545138 -1.108236,-1.32222 -2.059829,3.788331 -0.175256,-4.269932 -5.346907,0.02123 6.050362,-7.308241 c 1.009268,2.092306 2.856683,4.047901 3.331842,4.545695 z"
       id="path3248"
       sodipodi:nodetypes="cccccccc" />
    <path
       style="fill:#1a1a1a;fill-opacity:1;stroke:#000000;stroke-width:0.6;stroke-dasharray:none"
       d="m 85.080531,23.060368 1.236284,3.490148 -0.0599,4.62299 -1.413147,3.987468 2.717125,-3.833545 0.686911,-5.613993 -0.694879,-3.081225 z"
       id="path6248" />
    <path
       style="fill:#1a1a1a;fill-opacity:1;stroke:#000000;stroke-width:0.6;stroke-dasharray:none"
       d="m 91.667236,21.577051 -1.113261,3.758223 0.68245,2.287668 1.435636,1.578747 -0.64821,-2.422574 0.688438,-3.047362 -0.03538,-2.328099 z"
       id="path6254" />
    <path
       style="fill:#1a1a1a;fill-opacity:1;stroke:#000000;stroke-width:0.6;stroke-dasharray:none"
       d="m 101.18192,21.285174 0.64405,2.767394 -0.25713,2.996851 -0.7957,1.530972 1.68771,-0.636194 0.84626,-2.361395 0.22912,-2.741362 0.29618,-1.927413 z"
       id="path6256" />
    <path
       style="display:inline;fill:#1a1a1a;stroke:#000000;stroke-width:0.6;stroke-dasharray:none"
       d="m 53.458495,38.000248 -7.870488,7.572887 8.532407,-2.615014 -1.673914,2.210785 9.246986,-1.034461 c 1.033045,-6.941896 3.20774,-13.383828 5.733411,-19.86898 l 14.045876,1.52301 -2.788697,-2.308128 8.675944,1.171275 -2.110363,-1.641504 7.024445,0.78475 -1.032077,-1.435124 6.38094,0.98573 5.889935,-0.808599 -1.23019,1.533265 5.85762,-0.290855 -2.05235,2.14426 5.2609,-0.430412 1.95899,2.560435 2.94192,4.198124 -1.39548,15.415686 2.63714,11.041221 1.52283,-5.739841 1.63306,-2.31974 2.79363,3.817317 -0.34978,-11.632009 1.917,2.718442 -1.84137,-9.775885 2.4134,-1.000165 -4.11551,-2.634646 -1.18199,-5.037382 4.12185,1.453772 -4.33757,-5.001474 2.23304,-6.123887 -3.87777,-2.08298 -3.9625,-7.7562425 0.91691,6.3888415 L 105.63551,8.2824624 92.784066,5.8350741 83.565823,0.10648986 86.726466,5.0393065 73.249004,7.3410092 65.132986,10.26644 l -8.82615,-4.3434997 2.494878,8.0151677 -6.376993,5.124046 -7.695999,-0.935965 c 1.709782,4.749296 4.073918,5.967459 8.294514,8.183997 l -4.950194,2.770061 6.442281,0.588508 -6.456255,2.269065 7.487074,1.037201 -7.724012,2.410179 7.625969,0.44462 z"
       id="path6970"
       sodipodi:nodetypes="ccccccccccccccccccccccccccccccccccccccccccccccccccccccc" />
    <rect
       style="fill:#1a1a1a;stroke-width:0"
       id="rect3737-3"
       width="1.1397629"
       height="2.6163499"
       x="92.617943"
       y="58.45126" />
    <rect
       style="fill:#1a1a1a;stroke-width:0"
       id="rect3737-3-9"
       width="1.1397629"
       height="2.6163499"
       x="98.544388"
       y="32.931934"
       transform="rotate(15)" />
    <rect
       style="fill:#1a1a1a;stroke-width:0"
       id="rect3737-3-9-2"
       width="1.1397629"
       height="2.6163499"
       x="80.004448"
       y="80.977921"
       transform="rotate(-15)" />
    <rect
       style="fill:#1a1a1a;stroke-width:0"
       id="rect3737-3-9-1"
       width="1.1397629"
       height="2.6163499"
       x="98.461273"
       y="6.9655714"
       transform="rotate(30)" />
    <rect
       style="fill:#1a1a1a;stroke-width:0"
       id="rect3737-3-9-1-7"
       width="1.1397629"
       height="2.6163499"
       x="61.99073"
       y="100.0089"
       transform="rotate(-30)" />
  </g>
  <g
     id="g6367"
     transform="translate(4.42e-4,3.1650374e-4)">
    <path
       style="display:inline;fill:#ffffff;stroke:none;stroke-width:0"
       d="M 63.59934,19.981655 69.944326,5.8808328 75.591146,18.52713 Z"
       id="path10050"
       sodipodi:nodetypes="cccc" />
    <path
       style="display:inline;fill:#000000;stroke:none;stroke-width:0"
       d="M 63.609436,19.987998 H 60.740848 L 69.941071,1.1904377e-6 78.564674,18.53157 H 75.603216 L 69.937281,5.8833616 Z"
       id="path10182"
       sodipodi:nodetypes="ccccccc" />
    <path
       style="display:inline;fill:#ffffff;stroke:none;stroke-width:0"
       d="M 104.48533,19.980444 98.140349,5.8796224 92.493529,18.525919 Z"
       id="path10050-3"
       sodipodi:nodetypes="cccc" />
    <path
       style="display:inline;fill:#000000;stroke:none;stroke-width:0"
       d="m 104.47523,19.987997 h 2.86859 L 98.143604,1.1904379e-6 89.520001,18.531569 h 2.961458 L 98.147394,5.8833616 Z"
       id="path10182-6"
       sodipodi:nodetypes="ccccccc" />
  </g>
  <g
     id="g2173"
     transform="translate(4.42e-4,3.1650374e-4)">
    <path
       style="fill:#ffffff;stroke-width:0"
       d="m 69.645106,70.491598 8.05502,-3.064482 7.241132,-1.372528 4.897329,3.067416 -0.291535,7.264602 -16.175365,4.56539 z"
       id="path4166" />
    <path
       style="fill:#000000;stroke:none;stroke-width:0"
       d="m 90.629601,77.518553 c -3.830304,3.139857 -7.879294,3.667209 -12.683053,3.780793 L 77.23984,78.301134 c 16.395038,0.665968 13.863475,-11.797283 6.292963,-11.503349 l -5.995118,1.201968 -6.594824,2.498495 -1.304958,-3.199005 6.204865,-1.799372 7.989706,-1.501193 c 8.849457,-0.724114 11.019808,9.258241 6.797127,13.519875 z"
       id="path2154"
       sodipodi:nodetypes="cccccccccc" />
    <path
       style="fill:#ececec;stroke-width:0"
       d="m 78.229751,64.526647 c 2.531672,6.229171 2.148953,13.159198 1.542777,19.601777 C 73.393819,83.355937 67.839446,80.502927 61.920423,77.794771 59.32288,73.761529 60.037234,69.286179 61.740876,65.894451 Z"
       id="path1815"
       sodipodi:nodetypes="ccccc" />
  </g>
  <g
     id="g12958"
     transform="matrix(0.00629978,0,0,0.00709707,92.334633,67.835061)">
    <path
       style="fill:#300a0a;fill-opacity:0.978075;stroke:none;stroke-width:0.8"
       d="m 84.994341,77.488066 0.05922,-10.572584 c -0.379853,-5.044062 -1.084272,-4.58909 2.699287,-8.681534 l -0.03378,-2.238193 3.203269,-0.02753 -0.05652,2.238 c 3.881003,3.836475 3.377064,3.593802 2.652935,8.709453 l 8.37e-4,10.571902 c 1.416759,2.772526 1.403937,3.417624 -0.239539,6.73 -2.248003,-3.570734 -1.852817,-3.102576 -4.146934,0 -2.009754,-3.271144 -1.490996,-3.321787 -3.778691,-1.9e-4 -1.448668,-3.564092 -1.457641,-3.961251 -0.360084,-6.729324 z"
       id="path16443"
       sodipodi:nodetypes="cccccccccccc"
       transform="matrix(181.90186,0,0,171.08172,-16325.018,-11962.895)" />
    <path
       style="fill:#800000;stroke-width:0.8"
       d="m 85.068944,66.885613 h 8.448793 v 10.625016 h -8.541545 z"
       id="path4984"
       transform="matrix(181.90186,0,0,171.08172,-16325.018,-11962.895)" />
    <path
       style="fill:#e6e6e6;stroke-width:0.8"
       d="m 87.596139,57.49 v -1.665124 h 3.449674 v 1.665586 z"
       id="path4986"
       sodipodi:nodetypes="ccccc"
       transform="matrix(181.90186,0,0,171.08172,-16325.018,-11962.895)" />
    <path
       d="m -112.55762,-98.733012 c 88.490551,249.830822 -180.62175,335.454232 -180.62175,335.454232 0.81729,-0.20306 -162.26981,68.70178 -162.26981,68.70178 0,0 23.4043,-25.31475 21.54681,-82.44214 -1.85749,-57.19508 -10.17901,-261.743647 -10.17901,-261.743647 0,0 -0.3715,-21.118183 -23.8501,-28.902127 l 191.02367,-80.953036 c 122.81685,-51.98322 164.35019,49.884938 164.35019,49.884938 z"
       fill="#ffffff"
       id="path10549"
       style="stroke-width:70.9159" />
    <path
       d="m -337.2389,-53.247691 6.76124,237.173451 c 0,0 165.53899,-21.59199 109.96307,-232.23234 0,0 -22.51271,-69.64939 -116.72431,-4.941111 z"
       fill="#7b002b"
       id="path10551"
       style="fill:#800000;stroke-width:70.9159" />
    <path
       d="m -94.725769,-94.468765 66.200734,-28.022205 c 0,0 22.8099078,-6.15947 37.5954828,-23.0134 0,0 5.5724502,23.62258 3.0462672,36.48301 0,0 6.16685,-43.92853 70.510101,-65.31746 l 0.594391,64.77597 c 0,0 -13.745375,1.08298 -25.484675,6.09178 -11.7393,4.941119 -45.768409,32.421833 -45.099717,61.662395 0.668692,29.240562 1.857483,108.027631 1.857483,108.027631 0,0 3.863567,27.886836 20.135126,29.308249 L -88.113128,147.51042 c 0,0 16.420167,-18.74915 16.345867,-49.411129 l -0.743,-161.703019 c 0,0 -2.377575,-27.480713 -22.215508,-30.865037 z"
       fill="#ffffff"
       id="path10555"
       style="stroke-width:70.9159" />
    <path
       d="m 494.91399,-17.847659 66.20075,-28.022209 c 0,0 26.07903,-7.513197 40.7903,-24.367132 0,0 2.37764,24.976315 -0.14857,37.904431 0,0 15.6772,-45.620695 80.0204,-67.009619 l 0.59443,64.843648 c 0,0 -16.86598,0 -28.60525,4.941118 -11.73934,5.008797 -45.76844,32.4218237 -45.09973,61.730073 0.66872,29.308249 3.12057,118.112919 3.12057,118.112919 0,0 3.86356,27.95452 20.13512,29.37594 l -129.13228,54.69068 c 0,0 16.34586,-18.74916 16.27156,-49.41114 -0.0743,-30.72966 -2.00609,-171.855985 -2.00609,-171.855985 0,0 -2.60047,-24.976315 -22.14121,-30.932724 z"
       fill="#ffffff"
       id="path10559"
       style="stroke-width:70.9159" />
    <path
       d="m -856.51716,254.38739 252.98934,-107.14771 c 0,0 108.84857,-46.09449 129.058,31.67728 20.20942,77.77177 40.27026,193.44798 -183.14794,264.38342 0,0 105.4308,-103.76339 67.24093,-178.69233 0,0 -20.58093,-50.42643 -105.5051,6.90402 l 10.55051,386.96364 c 0,0 10.32761,73.71059 47.70019,57.80427 l -204.91765,86.77407 c 0,0 35.4408,-37.43062 33.36042,-89.75228 -2.15468,-52.32166 -9.28742,-412.41376 -9.28742,-412.41376 0,0 -2.08038,-34.52011 -38.04128,-46.50062 z"
       fill="#ffffff"
       id="path10565"
       style="stroke-width:70.9159" />
    <path
       d="m -408.86348,421.91144 c 15.82577,31.13579 15.90006,64.1668 15.90006,64.1668 l -164.4245,69.5817 c 9.80752,57.39815 43.39084,62.06851 81.80361,45.82376 38.48707,-16.24476 83.14099,-63.55762 83.14099,-63.55762 l -17.01456,71.07081 c -171.33434,139.90797 -224.01259,39.25817 -224.01259,39.25817 -56.02171,-109.85517 52.00956,-223.70384 117.1701,-251.25224 49.03759,-20.77976 91.53682,-6.22716 107.43689,24.90862 z"
       fill="#ffffff"
       id="path10569"
       style="stroke-width:70.9159" />
    <path
       d="m -558.50241,507.73791 73.63068,-31.20347 c 0,0 -5.64675,-38.98742 -35.5151,-26.33004 -29.86834,12.65737 -38.11558,57.53351 -38.11558,57.53351 z"
       fill="#7b002b"
       id="path10571"
       style="fill:#800000;stroke-width:70.9159" />
    <path
       d="m 469.20641,55.32143 c 15.90007,31.068098 15.90007,64.16679 15.90007,64.16679 l -164.3502,69.58171 c 9.80751,57.39814 43.31653,62.06851 81.8036,45.82375 38.48707,-16.24476 83.06669,-63.55761 83.06669,-63.55761 l -16.94025,71.07081 C 297.35198,382.31485 244.67373,281.66504 244.67373,281.66504 188.65201,171.80988 296.68328,57.961203 361.84383,30.412802 410.80711,9.6330548 453.38064,24.185645 469.20641,55.32143 Z"
       fill="#ffffff"
       id="path10575"
       style="stroke-width:70.9159" />
    <path
       d="m 319.56749,141.14789 73.63067,-31.20346 c 0,0 -5.64675,-38.987417 -35.51509,-26.330049 -29.86835,12.657375 -38.11558,57.533509 -38.11558,57.533509 z"
       fill="#7b002b"
       id="path10577"
       style="fill:#800000;stroke-width:70.9159" />
    <path
       d="m -257.58998,556.20144 c 0.6687,29.30825 4.38367,95.09951 4.38367,95.09951 0,0 3.86356,27.88683 20.13512,29.30825 l -128.0178,54.21687 c 0,0 16.42016,-18.74916 16.27156,-49.47882 -0.1486,-30.72966 -6.46404,-297.61748 -6.46404,-297.61748 0,0 0.96589,-26.46542 -20.95243,-31.33884 l 67.09233,-28.42833 c 0,0 22.80991,-6.09178 37.59548,-23.0134 0,0 5.57245,23.69026 3.04627,36.5507 0,0 12.1108,-44.87614 74.44797,-70.05552 0,0 69.09841,-25.044 98.892447,33.30176 29.79405,58.34575 6.53835,195.95237 -111.969137,246.10806 0,0.0677 -33.13752,14.07879 -54.46144,5.34724 z"
       fill="#ffffff"
       id="path10581"
       style="stroke-width:70.9159" />
    <path
       d="m -222.37208,508.21172 c 55.50163,-23.5549 42.42494,-110.1936 35.0693,-142.54775 -7.42993,-32.35414 -36.18379,-22.53959 -36.18379,-22.53959 -36.33239,15.43251 -36.03519,56.65358 -36.77818,62.88074 a 6115.5807,5571.2747 0 0 0 1.41168,107.01233 c 24.073,3.99351 36.48099,-4.80573 36.48099,-4.80573 z"
       fill="#7b002b"
       id="path10583"
       style="fill:#800000;stroke-width:70.9159" />
    <path
       d="m 98.155382,149.40565 c -62.411467,25.24706 -74.447959,70.1232 -74.447959,70.1232 2.526175,-12.86043 -3.046275,-36.5507 -3.046275,-36.5507 -14.785575,16.85393 -37.595483,23.0134 -37.595483,23.0134 l -67.092326,28.42833 c 21.918317,4.87342 20.952425,31.33884 20.952425,31.33884 0,0 6.389742,266.82013 6.464042,297.5498 0.07428,30.72966 -16.271559,49.47882 -16.271559,49.47882 L 55.210349,558.50278 C 38.93879,557.08136 35.075223,529.19453 35.075223,529.19453 c 0,0 -3.714967,-65.85896 -4.383666,-95.09952 21.323917,8.73156 54.387141,-5.27955 54.387141,-5.27955 C 203.58618,378.65978 226.84188,241.05315 197.04784,182.7074 167.25379,124.42933 98.155382,149.40565 98.155382,149.40565 Z"
       fill="#ffffff"
       id="path10587"
       style="stroke-width:70.9159" />
    <path
       d="M 65.835157,386.10529 C 121.33678,362.61808 108.2601,275.91169 100.90446,243.62524 93.474524,211.2711 64.720666,221.08564 64.720666,221.08564 28.388281,236.51816 28.685474,277.73923 27.942482,283.96638 a 6115.5807,5571.2747 0 0 0 1.411691,107.01234 c 24.072992,3.92581 36.480984,-4.87343 36.480984,-4.87343 z"
       fill="#7b002b"
       id="path10591"
       style="fill:#800000;stroke-width:70.9159" />
  </g>
</svg>
