<?xml version="1.0" encoding="UTF-8" standalone="no"?>
<svg
   height="182"
   width="160"
   version="1.1"
   id="svg1139"
   sodipodi:docname="front-standing.svg"
   inkscape:version="1.2.2 (b0a8486541, 2022-12-01)"
   xmlns:inkscape="http://www.inkscape.org/namespaces/inkscape"
   xmlns:sodipodi="http://sodipodi.sourceforge.net/DTD/sodipodi-0.dtd"
   xmlns:xlink="http://www.w3.org/1999/xlink"
   xmlns="http://www.w3.org/2000/svg"
   xmlns:svg="http://www.w3.org/2000/svg">
  <sodipodi:namedview
     id="namedview1141"
     pagecolor="#ffffff"
     bordercolor="#000000"
     borderopacity="0.25"
     inkscape:showpageshadow="2"
     inkscape:pageopacity="0.0"
     inkscape:pagecheckerboard="true"
     inkscape:deskcolor="#d1d1d1"
     showgrid="false"
     showguides="false"
     inkscape:zoom="5.6568543"
     inkscape:cx="109.68994"
     inkscape:cy="65.584154"
     inkscape:window-width="1920"
     inkscape:window-height="1015"
     inkscape:window-x="0"
     inkscape:window-y="0"
     inkscape:window-maximized="1"
     inkscape:current-layer="svg1139" />
  <defs
     id="defs1131">
    <g
       id="c">
      <path
         d="M.4-60h3.9l1.2.55 3.9-8.6 3.85 8.6L14.5-60l3.15 3.05 1.15 1.05-.05.05-.4.4.1.1q2.1 2.05 2.35 4.55v.6q0 1.65-.8 3.1l-.25.45-1.4 1.7.15.15-.3.25-3.25.9v4.7l-3.25.7-3.1.9.65 1.6 3.3-1.25 3-.6q1.55 0 2.15.6.8.8.8 2 0 1.1-.75 1.85-1.05 1.05-4.1 1.25l-1.25.05.35 1.5 1.5-.05-.05 2.75-1.5 1.25v12.25l-.85 4.6h-1.5V-3q0 .7-.45 1.15-.55.55-1.6.55-1.15 0-1.65-.55Q6.2-2.3 6.25-3v-6.55h-1.6l-2.35-3.5H.55L-3-9.55V-3q0 .7-.45 1.15-.55.55-1.6.55-1.1 0-1.65-.55-.45-.45-.4-1.15v-6.55h-1.55l-1.7-1.1-1.75-3.9v-3.9l.45-.4q.75-.6 1.35-1.55l-1.25-1-.7.95.4-10.95 1.75-12.8.4.35.75-.7-1-1.1q-1.55-1.9-1.5-4.15l.05-1q.35-2.3 2.45-4.25l-.75-.75.5-3.95.65.3 3.85-8.6 3.85 8.6L.4-60m10.1 14.7v1.9h1.3v-3.25h-1.15v-9.45h-6.2v3.85l-.05 1.1-.45 2.45-1 2.05H2v3.3h1.35v-1.95h7.15m-6.05-1.35.5-.9.9-3.55v-.05l.05-.35v-3.25h3.4v8.1H4.45m14.3-9.2-1.1-1.1 1.1 1.1M5.5-37.95Q4.45-39 2.25-39l-4 .75-3.1.9.65 1.6L-.9-37l3-.6q1.55 0 2.15.6.8.8.8 2 0 1.1-.75 1.85Q3.25-32.1.25-31.9l-1.3.05.35 1.5q3.95-.05 5.9-1.55l.45-.35q1-1 1-2.85-.05-1.8-1.15-2.85M-7.15-43.6l.75-1.55v-1.35h-1.5v1.45h.55l-.55 1.45h.75M-5-45.05h.55L-5-43.6h.75l.75-1.55v-1.35H-5v1.45"
         fill="#fff"
         fill-rule="evenodd"
         transform="translate(21.55 71)"
         id="path1117" />
      <path
         d="m4.3-60 5.1-11 5.1 11-1.25.55-3.85-8.6-3.9 8.6L4.3-60m14.5 4.1.25-.3q2.55 2.35 2.8 5.4v.6q0 1.9-.9 3.55-.7 1.25-1.9 2.4l-.55-.55-.15-.15 1.4-1.7.25-.45q.8-1.45.8-3.1v-.6q-.25-2.5-2.35-4.55l-.1-.1.4-.4.05-.05m-3.85 16.95.75-.05q2.2 0 3.25 1.05 1.1 1.05 1.1 2.85 0 1.85-1 2.85l-.4.35q-1.55 1.2-4.4 1.5l-1.5.05-.35-1.5 1.25-.05q3.05-.2 4.1-1.25.75-.75.75-1.85 0-1.2-.8-2-.6-.6-2.15-.6l-3 .6-3.3 1.25-.65-1.6 3.1-.9 3.25-.7m-3.1 29.4v6.6q0 1.25-.8 2.05-.9.9-2.75.9-1.95 0-2.85-.9-.8-.8-.8-2.05v-6.6h1.6V-3q-.05.7.4 1.15.5.55 1.65.55 1.05 0 1.6-.55.45-.45.45-1.15v-6.55h1.5M-3-9.55h1.5v6.6q0 1.25-.8 2.05-.9.9-2.75.9-1.9 0-2.8-.9-.85-.8-.8-2.05v-6.6h1.55V-3q-.05.7.4 1.15.55.55 1.65.55 1.05 0 1.6-.55Q-3-2.3-3-3v-6.55m-9.1-8.9q-.7.45-1.6.45-1 0-2.7-1.1l-1.9-.65q-.85 0-1.3.55l-.6.95-1.35-.75 1.2-1.65q.85-.8 1.95-.8t2.3.8q1.65.85 2.55.85.6 0 1.3-.65l.7-.95 1.25 1q-.6.95-1.35 1.55l-.45.4m2-25.75-.6-.7q-1.85-2.2-1.8-4.9l.05-1q.35-2.8 2.75-5l.75.75q-2.1 1.95-2.45 4.25l-.05 1q-.05 2.25 1.5 4.15l1 1.1-.75.7-.4-.35m.9-15.55-.55-.25 5.05-11L.4-60l-1.25.55-3.85-8.6-3.85 8.6-.65-.3M2-43.4v-3.25h.95l1-2.05.45-2.45.05-1.1v-3.85h6.2v9.45h1.15v3.25h-1.3v-1.95H3.35v1.95H2m7.3-11.35v-.05H5.85v3.25l-.05.35v.05l-.9 3.55-.5.9-.05.05H9.3v-8.1m-3.8 16.8q1.1 1.05 1.15 2.85 0 1.85-1 2.85l-.45.35q-1.95 1.5-5.9 1.55l-.35-1.5 1.3-.05q3-.2 4.05-1.25.75-.75.75-1.85 0-1.2-.8-2-.6-.6-2.15-.6l-3 .6-3.3 1.25-.65-1.6 3.1-.9 4-.75q2.2 0 3.25 1.05M-5-45.05v-1.45h1.5v1.35l-.75 1.55H-5l.55-1.45H-5m-2.15 1.45h-.75l.55-1.45h-.55v-1.45h1.5v1.35l-.75 1.55"
         fill-rule="evenodd"
         transform="translate(21.55 71)"
         id="path1119" />
      <path
         d="M.4-60h3.9m8.4 33.6v9.45m0 0v2.8m4.95-42.8 1.1 1.1"
         fill="none"
         stroke="#000"
         stroke-linecap="round"
         stroke-linejoin="round"
         transform="translate(21.55 71)"
         id="path1121" />
    </g>
    <g
       id="d"
       transform="translate(.8)">
      <use
         height="3"
         transform="matrix(1.005 0 0 1 -.804 0)"
         width="4.65"
         xlink:href="#a"
         id="use1124" />
      <use
         height="3"
         transform="matrix(1.005 0 0 1 16.096 0)"
         width="4.65"
         xlink:href="#a"
         id="use1126" />
    </g>
    <path
       d="M1.35 0h.2l.55.1.45.35q.45.45.45 1L2.55 2.6q-.45.4-1 .4l-.8-.2-.25-.2-.45-.7v-.15L0 1.45v-.1q.05-.5.5-.9l.25-.2Q1 .05 1.3 0h.05m.45.85L1.55.8Q1.2.75 1 1q-.2.15-.2.45v.15l.15.45H1l.05.05.2.1.3.05.55-.2.15-.6-.05-.3L2.1 1 2.05.95 1.9.85h-.1"
       fill-rule="evenodd"
       id="b" />
    <use
       height="3"
       transform="translate(.8)"
       width="3"
       xlink:href="#b"
       id="a" />
  </defs>
  <g
     transform="matrix(2,0,0,2,79.341,142)"
     id="g1137"
     style="display:inline">
    <use
       height="71"
       transform="translate(-21.55,-71)"
       width="43.400002"
       xlink:href="#c"
       id="use1133" />
    <use
       height="3"
       transform="matrix(1.0012,0,0,1,-3.6,-57.5)"
       width="21.549999"
       xlink:href="#d"
       id="use1135" />
  </g>
  <path
     style="display:inline;fill:#cccccc;stroke:none;stroke-width:0"
     d="m 51.187482,107.28309 h 62.476128 l 11.82292,21.84403 c -37.276311,10.14064 -46.794698,10.02188 -84.864629,0.2212 z"
     id="path1836"
     sodipodi:nodetypes="ccccc" />
  <g
     id="g6084"
     style="clip-rule:evenodd;fill-rule:evenodd;stroke-linecap:round;stroke-linejoin:round"
     transform="translate(-3.977401e-4)">
    <rect
       style="clip-rule:evenodd;fill:#1a1a1a;fill-rule:evenodd;stroke:none;stroke-width:0;stroke-linecap:round;stroke-linejoin:round"
       id="rect5952"
       width="8.9279642"
       height="10.606449"
       x="64.732033"
       y="129.03795" />
    <path
       style="fill:#000000"
       d="m 73.341,122.9 h 3 v 13.2 c 0,1.667 -0.533,3.033 -1.6,4.1 -1.2,1.2 -3.033,1.8 -5.5,1.8 -2.533,0 -4.4,-0.6 -5.6,-1.8 -1.133,-1.067 -1.667,-2.433 -1.6,-4.1 v -13.2 h 3.1 V 136 c -0.067,0.933 0.2,1.7 0.8,2.3 0.733,0.733 1.833,1.1 3.3,1.1 1.4,0 2.467,-0.367 3.2,-1.1 0.6,-0.6 0.9,-1.367 0.9,-2.3 v -13.1"
       id="path12048" />
    <rect
       style="clip-rule:evenodd;fill:#1a1a1a;fill-rule:evenodd;stroke:none;stroke-width:0;stroke-linecap:round;stroke-linejoin:round"
       id="rect5952-3"
       width="8.9279642"
       height="10.606449"
       x="91.190346"
       y="129.03207"
       inkscape:label="rect5952-3" />
    <path
       style="fill:#000000"
       d="m 103.041,122.9 v 13.2 c 0,1.667 -0.533,3.033 -1.6,4.1 -1.2,1.2 -3.033,1.8 -5.5,1.8 -2.6,0 -4.5,-0.6 -5.7,-1.8 -1.067,-1.067 -1.6,-2.433 -1.6,-4.1 v -13.2 h 3.2 V 136 c -0.067,0.933 0.2,1.7 0.8,2.3 0.667,0.733 1.767,1.1 3.3,1.1 1.4,0 2.467,-0.367 3.2,-1.1 0.6,-0.6 0.9,-1.367 0.9,-2.3 v -13.1 h 3"
       id="path12046" />
    <path
       style="fill:#ddcaa5;fill-opacity:1;stroke:#cebc99;stroke-width:0.8;stroke-dasharray:none;stroke-opacity:1"
       d="M 54.919846,97.890631 H 105.76328 V 113.8645 l -3.08928,9.10691 v 6.12339 H 89.03 v -6.37509 L 84.329555,110.46104 H 80.805144 L 75.958,122.84385 v 6.24326 H 62.414 v -6.24302 l -7.475468,-16.11657 z"
       id="path10065"
       sodipodi:nodetypes="ccccccccccccccc"
       transform="translate(3.977401e-4)" />
    <rect
       style="fill:#1a1a1a;stroke:none;stroke-width:0"
       id="rect1794"
       width="50.842175"
       height="2.2082539"
       x="54.925159"
       y="96.306122"
       transform="translate(3.977401e-4)" />
    <rect
       style="fill:#d4aa00;stroke:none;stroke-width:0"
       id="rect1897"
       width="6.9335537"
       height="2.8206542"
       x="81.134972"
       y="96.011658"
       transform="translate(3.977401e-4)" />
  </g>
  <g
     id="g10088"
     style="display:inline">
    <path
       style="display:inline;fill:#e6e6e6;fill-opacity:1;stroke:none;stroke-width:0"
       d="m 40.615558,129.33985 c 4.737678,-7.94384 28.316383,-0.4471 35.499418,-16.8011 l -3.36057,-5.18938 3.897231,-4.31156 5.435584,-26.408733 1.377291,-14.06019 C 70.323595,59.305123 68.699428,55.040666 57.039657,60.169125 l -5.899314,47.089395 z"
       id="path6624"
       sodipodi:nodetypes="ccccccccc" />
    <path
       style="display:inline;fill:#e6e6e6;fill-opacity:1;stroke:none;stroke-width:0"
       d="m 94.319278,113.09308 c 4.970819,14.62984 21.726842,5.60266 31.162452,16.01781 L 113.29577,106.6083 110.06319,59.892305 c -7.0192,-3.510232 -15.033747,0.826772 -22.249857,2.573766 l 1.718705,14.142786 4.709944,26.691653 3.405423,4.5158 z"
       id="path6626"
       sodipodi:nodetypes="ccccccccc" />
    <path
       style="fill:#dcdcdc;stroke-width:0;fill-opacity:1"
       d="m 112.09079,89.29365 c -3.31555,15.26352 -7.11833,20.51691 -0.66821,33.83235 8.61267,1.18725 11.47328,3.38676 14.06535,6.00067 l -12.18991,-22.5115 z"
       id="path5344"
       sodipodi:nodetypes="ccccc" />
    <path
       style="display:inline;fill:#f2f2f2;fill-opacity:1;stroke:none;stroke-width:0"
       d="m 66.31107,56.602578 4.862185,15.898363 4.828807,5.145557 -6.254787,1.173617 2.865187,28.465085 4.477838,-4.64944 5.147774,-25.012826 1.271511,-14.938365 z"
       id="path6718" />
    <path
       style="fill:#ffffff;stroke-width:0"
       d="m 96.469497,70.326661 8.055023,-3.064482 7.24113,-1.372528 4.89733,3.067416 -0.29153,7.264602 -16.17537,4.56539 z"
       id="path4166-0" />
    <path
       style="fill:#000000;stroke:none;stroke-width:0"
       d="m 117.5867,77.518267 c -3.8303,3.139857 -8.00779,3.771483 -12.75043,3.784143 l -0.69617,-3.008252 c 16.39504,0.665968 13.92031,-11.790593 6.3498,-11.496659 l -5.99512,1.201968 -6.653882,2.499952 -1.298538,-3.200412 6.25751,-1.799422 6.43379,-1.401264 c 10.57266,-1.382575 12.15137,8.365857 8.35304,13.419946 z"
       id="path2154-3"
       sodipodi:nodetypes="cccccccccc" />
    <path
       style="fill:#ececec;stroke-width:0"
       d="m 93.122448,65.875512 11.785582,-1.406153 c 3.15039,6.026598 3.45211,13.155806 2.60888,19.666866 -5.63932,-1.163243 -9.852878,-2.873341 -14.098745,-5.61236 z"
       id="path1920"
       sodipodi:nodetypes="ccccc" />
    <path
       style="display:inline;fill:#f2f2f2;fill-opacity:1;stroke:none;stroke-width:0"
       d="m 97.255699,107.83478 -3.82573,-4.55232 -6.173315,-40.703858 14.734406,-5.835299 -3.098957,16.162496 -4.410742,3.822332 4.743871,1.728436 -0.299854,18.372099 z"
       id="path6720" />
  </g>
  <g
     id="g6361">
    <path
       style="display:inline;fill:#1a1a1a;stroke:#000000;stroke-width:0.6;stroke-dasharray:none"
       d="m 59.175793,53.562175 -0.691976,4.545138 -1.108236,-1.32222 -2.059829,3.788331 -0.175256,-4.269932 -5.346907,0.02123 6.050362,-7.308241 c 1.009268,2.092306 2.856683,4.047901 3.331842,4.545695 z"
       id="path3248"
       sodipodi:nodetypes="cccccccc" />
    <path
       style="fill:#1a1a1a;fill-opacity:1;stroke:#000000;stroke-width:0.6;stroke-dasharray:none"
       d="m 85.080531,23.060368 1.236284,3.490148 -0.0599,4.62299 -1.413147,3.987468 2.717125,-3.833545 0.686911,-5.613993 -0.694879,-3.081225 z"
       id="path6248" />
    <path
       style="fill:#1a1a1a;fill-opacity:1;stroke:#000000;stroke-width:0.6;stroke-dasharray:none"
       d="m 91.667236,21.577051 -1.113261,3.758223 0.68245,2.287668 1.435636,1.578747 -0.64821,-2.422574 0.688438,-3.047362 -0.03538,-2.328099 z"
       id="path6254" />
    <path
       style="fill:#1a1a1a;fill-opacity:1;stroke:#000000;stroke-width:0.6;stroke-dasharray:none"
       d="m 101.18192,21.285174 0.64405,2.767394 -0.25713,2.996851 -0.7957,1.530972 1.68771,-0.636194 0.84626,-2.361395 0.22912,-2.741362 0.29618,-1.927413 z"
       id="path6256" />
    <path
       style="display:inline;fill:#1a1a1a;stroke:#000000;stroke-width:0.6;stroke-dasharray:none"
       d="m 53.458495,38.000248 -7.870488,7.572887 8.532407,-2.615014 -1.673914,2.210785 9.246986,-1.034461 c 1.033045,-6.941896 3.20774,-13.383828 5.733411,-19.86898 l 14.045876,1.52301 -2.788697,-2.308128 8.675944,1.171275 -2.110363,-1.641504 7.024445,0.78475 -1.032077,-1.435124 6.38094,0.98573 5.889935,-0.808599 -1.23019,1.533265 5.85762,-0.290855 -2.05235,2.14426 5.2609,-0.430412 1.95899,2.560435 2.94192,4.198124 -1.39548,15.415686 2.63714,11.041221 1.52283,-5.739841 1.63306,-2.31974 2.79363,3.817317 -0.34978,-11.632009 1.917,2.718442 -1.84137,-9.775885 2.4134,-1.000165 -4.11551,-2.634646 -1.18199,-5.037382 4.12185,1.453772 -4.33757,-5.001474 2.23304,-6.123887 -3.87777,-2.08298 -3.9625,-7.7562425 0.91691,6.3888415 L 105.63551,8.2824624 92.784066,5.8350741 83.565823,0.10648986 86.726466,5.0393065 73.249004,7.3410092 65.132986,10.26644 l -8.82615,-4.3434997 2.494878,8.0151677 -6.376993,5.124046 -7.695999,-0.935965 c 1.709782,4.749296 4.073918,5.967459 8.294514,8.183997 l -4.950194,2.770061 6.442281,0.588508 -6.456255,2.269065 7.487074,1.037201 -7.724012,2.410179 7.625969,0.44462 z"
       id="path6970"
       sodipodi:nodetypes="ccccccccccccccccccccccccccccccccccccccccccccccccccccccc" />
    <rect
       style="fill:#1a1a1a;stroke-width:0"
       id="rect3737-3"
       width="1.1397629"
       height="2.6163499"
       x="92.617943"
       y="58.45126" />
    <rect
       style="fill:#1a1a1a;stroke-width:0"
       id="rect3737-3-9"
       width="1.1397629"
       height="2.6163499"
       x="98.544388"
       y="32.931934"
       transform="rotate(15)" />
    <rect
       style="fill:#1a1a1a;stroke-width:0"
       id="rect3737-3-9-2"
       width="1.1397629"
       height="2.6163499"
       x="80.004448"
       y="80.977921"
       transform="rotate(-15)" />
    <rect
       style="fill:#1a1a1a;stroke-width:0"
       id="rect3737-3-9-1"
       width="1.1397629"
       height="2.6163499"
       x="98.461273"
       y="6.9655714"
       transform="rotate(30)" />
    <rect
       style="fill:#1a1a1a;stroke-width:0"
       id="rect3737-3-9-1-7"
       width="1.1397629"
       height="2.6163499"
       x="61.99073"
       y="100.0089"
       transform="rotate(-30)" />
  </g>
  <g
     id="g6367">
    <path
       style="display:inline;fill:#ffffff;stroke:none;stroke-width:0"
       d="M 63.59934,19.981655 69.944326,5.8808328 75.591146,18.52713 Z"
       id="path10050"
       sodipodi:nodetypes="cccc" />
    <path
       style="display:inline;fill:#000000;stroke:none;stroke-width:0"
       d="M 63.609436,19.987998 H 60.740848 L 69.941071,1.1904377e-6 78.564674,18.53157 H 75.603216 L 69.937281,5.8833616 Z"
       id="path10182"
       sodipodi:nodetypes="ccccccc" />
    <path
       style="display:inline;fill:#ffffff;stroke:none;stroke-width:0"
       d="M 104.48533,19.980444 98.140349,5.8796224 92.493529,18.525919 Z"
       id="path10050-3"
       sodipodi:nodetypes="cccc" />
    <path
       style="display:inline;fill:#000000;stroke:none;stroke-width:0"
       d="m 104.47523,19.987997 h 2.86859 L 98.143604,1.1904379e-6 89.520001,18.531569 h 2.961458 L 98.147394,5.8833616 Z"
       id="path10182-6"
       sodipodi:nodetypes="ccccccc" />
  </g>
  <g
     id="g2173">
    <path
       style="fill:#ffffff;stroke-width:0"
       d="m 69.645106,70.491598 8.05502,-3.064482 7.241132,-1.372528 4.897329,3.067416 -0.291535,7.264602 -16.175365,4.56539 z"
       id="path4166" />
    <path
       style="fill:#000000;stroke:none;stroke-width:0"
       d="m 90.629601,77.518553 c -3.830304,3.139857 -7.879294,3.667209 -12.683053,3.780793 L 77.23984,78.301134 c 16.395038,0.665968 13.863475,-11.797283 6.292963,-11.503349 l -5.995118,1.201968 -6.594824,2.498495 -1.304958,-3.199005 6.204865,-1.799372 7.989706,-1.501193 c 8.849457,-0.724114 11.019808,9.258241 6.797127,13.519875 z"
       id="path2154"
       sodipodi:nodetypes="cccccccccc" />
    <path
       style="fill:#ececec;stroke-width:0"
       d="m 78.229751,64.526647 c 2.531672,6.229171 2.148953,13.159198 1.542777,19.601777 C 73.393819,83.355937 67.839446,80.502927 61.920423,77.794771 59.32288,73.761529 60.037234,69.286179 61.740876,65.894451 Z"
       id="path1815"
       sodipodi:nodetypes="ccccc" />
  </g>
</svg>
