<?xml version="1.0" encoding="UTF-8" standalone="no"?><!DOCTYPE svg PUBLIC "-//W3C//DTD SVG 1.1//EN" "http://www.w3.org/Graphics/SVG/1.1/DTD/svg11.dtd"><svg width="244px" height="216px" version="1.1" xmlns="http://www.w3.org/2000/svg" xmlns:xlink="http://www.w3.org/1999/xlink" xml:space="preserve" xmlns:serif="http://www.serif.com/" style="fill-rule:evenodd;clip-rule:evenodd;stroke-linecap:round;stroke-linejoin:round;stroke-miterlimit:1.5;"><g><g id="Alter"><path d="M91.145,215.228L1.405,170.358L0.375,123.021L91.145,168.406L91.145,215.228Z" style="fill:#666;"/><path d="M91.145,215.228L91.145,168.406L0.375,123.021L1.405,170.358L91.145,215.228Z" style="fill:none;stroke:#000;stroke-width:0.75px;"/><path d="M91.145,215.228L91.145,168.406L243.149,95.077L242.079,139.761L91.145,215.228Z" style="fill:#808080;"/><path d="M91.145,215.228L242.079,139.761L243.149,95.077L91.145,168.406L91.145,215.228Z" style="fill:none;stroke:#000;stroke-width:0.75px;"/><path d="M243.149,95.077L91.145,168.406L0.375,123.021L149.705,48.356L243.149,95.077Z" style="fill:#b3b3b3;"/><path d="M243.149,95.077L149.705,48.356L0.375,123.021L91.145,168.406L243.149,95.077Z" style="fill:none;stroke:#000;stroke-width:0.75px;"/><g id="Apples"><g id="Layer1"><g><ellipse cx="191.498" cy="98.909" rx="16.89" ry="5.58" style="fill:#686868;fill-opacity:0.7;"/></g><g><rect x="186.679" y="87.107" width="13.709" height="8" style="fill:#ff0015;"/></g></g><g id="Apple"><path d="M200.801,87.996L200.388,86.664L199.499,85.329L198.61,84.23L196.611,83.551L195.307,83.327L194.61,83.551L194.61,85.329L194.165,86.764L193.5,87.996L192.387,89.774L191.267,90.452L190.609,90.663L193.276,91.552L194.61,93.031L195.054,91.552L195.943,90.452L196.536,89.774L197.464,88.885L198.92,88.395L199.998,87.996L200.801,87.996Z" style="fill:url(#_Linear1);"/><path d="M195.054,85.585L195.054,84.732L196.386,84.44L197.721,85.108L197.721,85.66L196.135,86.218L195.054,85.585Z" style="fill:#ff904a;"/><path d="M195.705,84.155L196.387,84.155L196.387,84.832L196.16,85.785L195.705,85.811L195.705,84.155Z" style="fill:#904900;"/></g><g id="Apple1" serif:id="Apple"><path d="M183.498,87.107L182.165,86.663L181.276,86.663L178.609,87.107L176.831,87.996L175.764,89.329L175.275,90.485L175.142,91.063L175.275,92.574L175.764,94.53L176.386,95.952L177.053,96.93L177.942,97.819L178.875,98.352L180.787,98.93L182.031,99.152L183.142,99.108L184.387,98.308L183.898,96.93L183.987,95.108L184.876,93.241L185.987,92.041L188.431,90.796L188.565,90.53L185.898,90.485L184.654,88.929L183.898,87.418L183.498,87.107Z" style="fill:url(#_Linear2);"/><path d="M179.764,87.64L179.364,88.263L179.987,88.885L181.764,88.663L182.387,88.263L181.987,87.596L180.876,87.507L179.764,87.64Z" style="fill:url(#_Linear3);"/><path d="M180.031,86.396L180.564,86.174L180.653,86.352L180.653,87.374L180.831,88.352L181.009,88.752L180.564,88.796L180.342,87.818L180.253,87.196L180.031,86.396Z" style="fill:#7e3e00;"/></g><g id="Apple2" serif:id="Apple"><path d="M195.943,97.998L195.943,97.33L195.795,95.996L195.498,94.663L195.054,93.33L194.61,92.739L195.054,91.552L195.664,90.663L196.387,89.774L197.489,88.885L199.054,88.251L200.832,87.996L202.005,88.289L203.499,88.885L204.677,89.774L205.505,91.107L206.166,92.885L206.352,94.219L205.721,96.441L204.646,98.219L203.499,99.108L201.899,99.711L200.388,99.997L199.054,99.805L196.832,98.826L195.943,97.998Z" style="fill:url(#_Linear4);"/><path d="M195.943,97.998L196.832,98.826L199.054,99.805L200.388,99.997L201.899,99.711L203.499,99.108L204.646,98.219L205.721,96.441L206.352,94.219L206.166,92.885L205.505,91.107L204.677,89.774L203.499,88.885L202.005,88.289L200.832,87.996L199.054,88.251L197.489,88.885L196.387,89.774L195.664,90.663L195.054,91.552L194.61,92.739L195.054,93.33L195.498,94.663L195.795,95.996L195.943,97.33L195.943,97.998Z" style="fill:url(#_Linear5);"/><path d="M200.481,94.442L201.277,95.552L202.4,95.552L203.054,94.48L203.19,93.774L202.61,93.33L201.721,93.031L200.481,94.442Z" style="fill:#d9a426;"/><path d="M201.277,94.442L201.12,94.219L201.61,93.996L202.889,94.663L203.943,94.931L203.943,95.552L203.499,95.552L201.277,94.442Z" style="fill:#996678;"/></g><g id="Apple3" serif:id="Apple"><path d="M194.554,83.551L194.165,82.273L193.099,80.885L191.498,79.996L189.72,79.438L187.943,79.513L186.165,79.996L184.845,80.885L183.498,82.298L183.189,83.101L183.013,84.44L183.239,86.218L183.791,87.996L184.387,89.072L185.748,90.663L190.609,90.663L192.387,89.774L192.923,88.885L193.751,87.592L194.165,86.814L194.629,85.329L194.554,83.551Z" style="fill:url(#_Linear6);"/><path d="M188.508,79.996L190.314,80.492L190.088,81.094L189.135,81.52L187.054,81.774L186.165,81.52L187.054,80.542L187.943,79.996L188.508,79.996Z" style="fill:#c19900;"/><path d="M187.261,79.246L187.711,79.107L187.943,79.438L187.814,79.996L187.826,80.44L188.148,81.329L188.239,81.584L187.943,81.584L187.498,80.44L187.287,79.551L187.261,79.246Z" style="fill:#856900;"/></g><g id="Apple4" serif:id="Apple"><path d="M185.276,100.441L183.856,96.885L183.948,95.108L184.729,93.33L186.165,91.552L188.404,90.663L190.609,90.663L193.276,91.552L195.054,93.33L195.663,95.108L195.943,97.774L195.054,99.943L193.276,101.918L190.609,103.108L189.72,103.108L187.485,102.653L185.276,100.441Z" style="fill:url(#_Linear7);"/><path d="M189.498,91.552L191.721,93.107L191.721,93.774L190.666,94.219L189.72,93.996L189.498,93.774L188.831,93.774L188.165,93.68L188.165,93.003L188.831,92.885L188.831,92.441L189.498,91.552Z" style="fill:#c3cc33;"/><path d="M190.609,94.219L190.165,94.066L190.3,93.186L190.396,92.596L190.408,91.996L190.408,91.428L190.842,91.26L191.167,91.552L190.609,94.219Z" style="fill:#a67459;"/></g></g><g><path d="M97.212,143.214L97.362,142.877C97.462,142.777 97.574,142.727 97.7,142.727L98.037,142.877L98.15,143.027L98.187,143.214L98.037,143.589L97.7,143.739C97.574,143.739 97.462,143.689 97.362,143.589L97.325,143.514L97.212,143.214M95.862,140.777L96.012,140.439C96.112,140.339 96.224,140.289 96.35,140.289L96.687,140.439L96.837,140.777L96.687,141.152L96.35,141.302C96.224,141.302 96.112,141.251 96.012,141.152L95.862,140.777" style="fill-rule:nonzero;"/></g><g><path d="M97.325,143.514L95.825,144.377L95.075,144.302L95.225,144.564L90.687,147.114L90.125,148.389L90.312,148.952L90.687,149.289L83,149.552L85.85,143.552L86.45,143.889L87.462,144.639L88.587,143.927L93.275,141.002L93.462,141.339L99.162,137.889L99.8,138.039L99.875,138.039L99.95,137.964C100.75,137.039 101.3,135.926 101.6,134.627L103.325,135.414L105.05,136.164C104.6,138.214 103.55,139.964 101.9,141.414L101.262,141.227L98.15,143.027L98.037,142.877L97.7,142.727C97.574,142.727 97.462,142.777 97.362,142.877L97.212,143.214L97.325,143.514M96.012,141.152C96.112,141.251 96.224,141.302 96.35,141.302L96.687,141.152L96.837,140.777L96.687,140.439L96.35,140.289C96.224,140.289 96.112,140.339 96.012,140.439L95.862,140.777L96.012,141.152" style="fill:#fcb6c4;fill-rule:nonzero;"/></g><g><path d="M105.05,136.164C104.6,138.214 103.55,139.964 101.9,141.414M95.075,144.302L95.225,144.564L90.687,147.114M90.687,149.289L83,149.552L85.85,143.552M88.587,143.927L93.275,141.002L93.462,141.339M99.8,138.039L99.875,138.039L99.95,137.964C100.75,137.039 101.3,135.926 101.6,134.627M103.325,135.414C102.875,137.289 102.087,138.677 100.962,139.577M95.075,144.302L93.462,141.339" style="fill:none;fill-rule:nonzero;stroke:#000;stroke-width:0.75px;stroke-miterlimit:3;"/></g><g><path d="M90.178,139.696L90.328,139.359C90.428,139.259 90.541,139.209 90.666,139.209L91.003,139.359L91.116,139.509L91.153,139.696L91.003,140.071L90.666,140.221C90.541,140.221 90.428,140.171 90.328,140.071L90.291,139.996L90.178,139.696M88.828,137.259L88.978,136.921C89.078,136.822 89.191,136.771 89.316,136.771L89.653,136.921L89.803,137.259L89.653,137.634L89.316,137.784C89.191,137.784 89.078,137.734 88.978,137.634L88.828,137.259" style="fill-rule:nonzero;"/></g><g><path d="M90.291,139.996L88.791,140.859L88.041,140.784L88.191,141.046L83.653,143.596L83.091,144.871L83.278,145.434L83.653,145.771L75.966,146.034L78.816,140.034L79.416,140.371L80.428,141.121L81.553,140.409L86.241,137.484L86.428,137.821L92.128,134.371L92.766,134.521L92.841,134.521L92.916,134.446C93.716,133.522 94.266,132.409 94.566,131.109L96.291,131.896L98.016,132.646C97.566,134.696 96.516,136.447 94.866,137.896L94.228,137.709L91.116,139.509L91.003,139.359L90.666,139.209C90.541,139.209 90.428,139.259 90.328,139.359L90.178,139.696L90.291,139.996M88.978,137.634C89.078,137.734 89.191,137.784 89.316,137.784L89.653,137.634L89.803,137.259L89.653,136.921L89.316,136.771C89.191,136.771 89.078,136.822 88.978,136.921L88.828,137.259L88.978,137.634" style="fill:#fcb6c4;fill-rule:nonzero;"/></g><g><path d="M98.016,132.646C97.566,134.696 96.516,136.447 94.866,137.896M88.041,140.784L88.191,141.046L83.653,143.596M83.653,145.771L75.966,146.034L78.816,140.034M81.553,140.409L86.241,137.484L86.428,137.821M92.766,134.521L92.841,134.521L92.916,134.446C93.716,133.522 94.266,132.409 94.566,131.109M96.291,131.896C95.841,133.771 95.053,135.159 93.928,136.059M88.041,140.784L86.428,137.821" style="fill:none;fill-rule:nonzero;stroke:#000;stroke-width:0.75px;stroke-miterlimit:3;"/></g><g><path d="M106.379,149.027L106.529,148.69C106.628,148.59 106.741,148.54 106.866,148.54L107.204,148.69L107.316,148.84L107.354,149.027L107.204,149.402L106.866,149.552C106.741,149.552 106.628,149.502 106.529,149.402L106.491,149.327L106.379,149.027M105.029,146.59L105.179,146.252C105.278,146.153 105.391,146.102 105.516,146.102L105.854,146.252L106.004,146.59L105.854,146.965L105.516,147.115C105.391,147.115 105.278,147.065 105.179,146.965L105.029,146.59" style="fill-rule:nonzero;"/></g><g><path d="M106.491,149.327L104.991,150.19L104.241,150.115L104.391,150.377L99.854,152.927L99.291,154.202L99.479,154.765L99.854,155.102L92.166,155.365L95.016,149.365L95.616,149.702L96.629,150.452L97.754,149.74L102.441,146.815L102.629,147.152L108.329,143.702L108.966,143.852L109.041,143.852L109.116,143.777C109.916,142.853 110.466,141.74 110.766,140.44L112.491,141.227L114.216,141.977C113.766,144.027 112.716,145.778 111.066,147.227L110.429,147.04L107.316,148.84L107.204,148.69L106.866,148.54C106.741,148.54 106.628,148.59 106.529,148.69L106.379,149.027L106.491,149.327M105.179,146.965C105.278,147.065 105.391,147.115 105.516,147.115L105.854,146.965L106.004,146.59L105.854,146.252L105.516,146.102C105.391,146.102 105.278,146.153 105.179,146.252L105.029,146.59L105.179,146.965" style="fill:#fcb6c4;fill-rule:nonzero;"/></g><g><path d="M114.216,141.977C113.766,144.027 112.716,145.778 111.066,147.227M104.241,150.115L104.391,150.377L99.854,152.927M99.854,155.102L92.166,155.365L95.016,149.365M97.754,149.74L102.441,146.815L102.629,147.152M108.966,143.852L109.041,143.852L109.116,143.777C109.916,142.853 110.466,141.74 110.766,140.44M112.491,141.227C112.041,143.102 111.254,144.49 110.129,145.39M104.241,150.115L102.629,147.152" style="fill:none;fill-rule:nonzero;stroke:#000;stroke-width:0.75px;stroke-miterlimit:3;"/></g><g id="Tablecat"><g id="table-colors" serif:id="table colors"><g><path d="M48.18,82.2L48.18,61.41L148.55,60.977L167.969,81.961L48.18,82.2Z" style="fill:#de7e2f;"/></g><path d="M48.18,81.964L48.18,84.558L169.384,84.086L167.969,81.964L48.18,81.964Z" style="fill:#b37b00;"/><path d="M157.593,84.086L158.065,114.269L152.17,114.269L152.17,84.086L157.593,84.086Z" style="fill:#b37b00;"/><path d="M47.708,104.601L47.708,103.422L152.17,103.186L152.17,104.837L47.708,104.601Z" style="fill:#b37b00;"/></g><g id="cat-colors" serif:id="cat colors"><g><path d="M95.334,21.359C96.266,21.298 97.529,21.003 98.075,20.456C98.242,20.29 98.5,19.902 98.761,19.771C99.401,19.451 100.42,19.254 100.818,18.857C100.908,18.767 102.085,17.954 101.503,17.372C100.325,16.194 99.561,15.924 99.561,13.944C99.561,13.667 99.439,13.043 99.561,12.801C99.938,12.046 100.469,11.555 100.818,10.859C100.951,10.592 100.853,10.252 101.046,10.059C101.366,9.739 101.928,9.322 102.189,8.802C102.511,8.158 102.587,7.261 102.988,6.86C103.186,6.662 103.006,5.928 103.217,5.717C104.122,4.812 104.162,2.487 105.045,1.604C105.179,1.47 105.026,1.052 105.159,0.918C105.396,0.681 105.474,1.233 105.502,1.261C106.007,1.766 105.983,2.771 106.53,3.318C107.206,3.994 108.102,4.775 108.816,5.489C109.211,5.884 109.287,6.645 109.615,6.974C110.32,7.678 111.799,8.231 113.157,8.231C113.897,8.231 116.167,7.927 116.585,8.345C116.654,8.414 117.163,8.345 117.271,8.345C117.872,8.345 118.468,8.372 118.87,8.574C119.181,8.729 119.998,8.574 120.356,8.574C120.606,8.574 121.79,8.739 121.956,8.574C122.598,7.931 123.935,6.366 124.583,5.717C125.009,5.292 125.092,4.295 125.497,3.889C125.661,3.725 125.529,3.172 125.726,2.975C126.183,2.517 126.205,1.582 126.64,1.147C126.678,1.109 126.897,0.489 126.983,0.575C127.453,1.045 127.386,2.464 128.011,3.089C128.145,3.222 127.992,3.641 128.126,3.775C128.419,4.069 128.504,4.646 128.697,5.032C129.044,5.727 129.914,6.82 130.411,7.317C130.774,7.68 130.615,9.007 130.982,9.374C131.058,9.45 130.906,9.754 130.982,9.831C131.556,10.404 132.104,11.295 132.696,11.887C132.839,12.031 132.676,12.667 132.81,12.801C133.052,13.043 133.053,15.186 132.81,15.429C132.045,16.195 131.816,17.223 130.982,18.057C130.173,18.866 128.61,18.715 127.783,19.543C127.439,19.886 126.708,19.703 126.411,20C126.165,20.247 126.268,20.744 126.069,21.142C125.948,21.385 126.069,22.008 126.069,22.285C126.069,23.346 126.398,25.067 126.069,26.055C125.853,26.703 126.245,27.759 125.954,28.34C125.575,29.099 125.84,30.89 125.84,31.883C125.84,34.976 126.504,39.467 125.269,41.937C125.123,42.228 125.269,42.976 125.269,43.308C125.269,44.234 125.04,45.157 125.04,46.165C125.04,46.497 125.186,47.245 125.04,47.536C124.614,48.389 124.834,50.987 125.269,51.421C125.575,51.727 125.068,53.048 125.383,53.364C125.887,53.868 125.403,54.546 125.726,55.192C126.175,56.09 125.635,57.318 125.954,58.276C126.305,59.328 126.297,60.408 126.297,61.59C126.297,63.178 126.411,64.952 126.411,66.618C126.411,66.872 126.574,68.055 126.411,68.217C126.068,68.561 126.022,69.064 125.726,69.36C125.342,69.744 122.878,69.535 122.527,69.36C121.956,69.074 122.271,68.532 121.956,68.217C121.827,68.089 120.813,67.891 120.813,67.76L120.47,67.646C120.913,67.336 120.584,64.953 120.584,64.446L120.584,55.763C120.584,54.984 120.771,53.436 120.356,53.021C120.231,52.896 120.306,52.071 120.242,51.878C119.884,50.805 119.584,49.649 119.099,48.679C118.993,48.468 118.651,47.07 118.642,47.079C118.404,47.317 118.799,48.251 118.642,48.564C118.145,49.559 118.527,51.64 118.527,52.792C118.527,54.83 118.642,56.779 118.642,58.848C118.642,59.757 118.794,60.944 118.413,61.704C118.115,62.301 118.375,63.153 118.07,63.761C117.72,64.463 118.044,65.643 117.728,66.275C117.192,67.346 118.067,69.135 117.271,69.931C116.712,70.49 113.86,70.519 113.157,69.817C112.986,69.645 112.986,69.303 112.815,69.131C112.681,68.998 112.948,68.465 112.815,68.332C112.643,68.16 112.872,67.589 112.7,67.418C112.461,67.178 112.757,66.73 112.586,66.389C112.31,65.836 112.243,64.66 112.243,64.104C112.243,63.35 112.129,62.527 112.129,61.933C112.129,61.787 112.222,61.111 112.129,61.019C111.913,60.803 110.291,61.024 110.072,61.133C109.642,61.348 108.917,61.248 108.359,61.248L104.474,61.248C104.146,61.248 102.626,61.456 102.417,61.248C102.336,61.166 101.84,59.882 101.389,60.333C101.006,60.716 100.802,61.392 100.589,61.819C99.773,63.449 100.646,64.39 101.503,65.246C101.846,65.59 102.92,65.064 103.217,65.361C103.397,65.541 105.353,65.664 105.731,65.475C106.292,65.194 107.718,64.64 108.473,65.018C108.979,65.271 109.48,65.567 109.844,65.932C109.978,66.066 109.815,67.103 109.73,67.189C109.476,67.443 109.571,68.033 109.273,68.332C108.826,68.778 108.196,70.012 107.445,70.388C102.701,72.76 95.708,70.523 90.305,71.873C89.348,72.113 88.161,71.674 87.221,71.988C85.892,72.431 83.864,72.102 82.421,72.102C81.807,72.102 80.906,72.201 80.479,71.988C78.663,71.079 77.258,68.652 75.909,67.303C75.732,67.126 74.426,66.501 74.88,66.046C75.563,65.364 76.511,64.872 77.051,64.332C77.55,63.834 78.747,64.027 79.108,63.304C79.371,62.779 78.597,62.565 78.423,62.39C77.811,61.779 76.922,61.086 76.594,60.105C75.792,57.696 75.909,54.433 75.909,51.535C75.909,50.815 75.594,49.195 75.909,48.564C77.208,45.965 79.194,44.365 80.822,42.737C81.247,42.312 81.165,41.166 81.165,40.338C81.165,38.501 80.917,36.358 81.964,35.31C83.2,34.075 84.184,32.862 85.507,31.54C86.003,31.044 86.234,30.127 86.764,29.597C87.783,28.579 88.302,27.373 89.391,26.284C91.335,24.341 93.519,23.065 95.334,21.359Z" style="fill:#fff;"/></g></g><g id="tail-colors" serif:id="tail colors"><path d="M76.516,60.256C76.489,60.19 76.434,60.146 76.395,60.068C76.333,59.944 76.36,59.488 76.366,59.363C77.098,60.096 77.949,61.21 78.681,61.942C78.761,62.022 79.382,62.528 79.367,62.575C79.237,62.983 79.247,63.486 78.945,63.789C78.57,64.163 77.777,64.495 77.362,64.632C76.711,64.85 75.696,64.874 75.252,65.318C75.215,65.356 75.252,65.629 75.252,65.688L75.252,66.69C75.252,66.748 75.289,67.022 75.252,67.059C75.207,67.104 75.094,67.165 75.094,67.165C75.094,67.165 75.376,67.078 75.463,67.165C75.56,67.262 75.784,67.328 75.885,67.428C76.047,67.591 75.85,67.886 75.832,68.114C75.814,68.358 75.54,68.617 75.41,68.748C75.235,68.922 75.18,69.294 75.041,69.433C73.852,70.623 73.106,71.831 71.559,72.862C70.887,73.31 70.237,73.71 69.766,74.181C69.421,74.526 68.985,74.634 68.763,75.078C68.433,75.739 68.798,76.555 68.816,77.294C68.836,78.153 69.533,78.885 69.871,79.562C69.977,79.773 70.257,79.859 70.346,80.037C70.591,80.526 71.162,80.8 71.506,81.145C71.804,81.442 72.121,81.855 72.456,82.358C72.744,82.789 73.193,83.041 73.458,83.571C74.101,84.857 75.139,86.364 76.307,86.947C76.43,87.009 76.747,86.947 76.888,86.947C77.539,86.947 78.005,86.6 78.575,86.315C79.517,85.844 80.39,85.682 81.582,85.682C81.908,85.682 82.393,85.612 82.637,85.734C83.643,86.237 83.638,86.746 84.273,88.425C84.351,88.632 84.504,89.229 84.379,89.48C83.955,90.327 83.397,90.525 82.743,90.851C82.343,91.051 81.856,91.19 81.372,91.432C81.255,91.49 80.916,91.432 80.791,91.432L78.312,91.432C77.234,91.432 76.288,91.39 75.305,91.063C74.507,90.796 73.985,89.953 73.564,89.533C73.393,89.362 73.45,89.04 73.353,88.847C73.285,88.711 72.975,88.468 72.825,88.319C72.453,87.947 72.275,87.399 71.981,87.106L71.401,86.526C71.243,86.368 70.852,86.347 70.662,86.157C69.779,85.273 68.371,84.157 67.708,83.15C67.52,82.863 67.187,82.312 66.917,82.041C66.378,81.502 65.86,81.301 65.334,80.775C65.021,80.462 65.029,79.996 64.754,79.72C64.212,79.179 64.005,78.15 63.804,77.346C63.6,76.529 64.033,75.834 64.385,75.184C64.781,74.45 64.956,73.557 65.545,72.967C65.817,72.695 66.194,72.232 66.442,71.86C66.708,71.461 67.035,70.588 67.444,70.383C67.871,70.169 68.271,70.083 68.552,69.803C69.034,69.321 70.059,69.456 70.557,68.958C70.724,68.791 70.767,68.538 70.926,68.378C72.249,67.055 72.69,65.509 73.722,63.524C73.823,63.331 74.094,63.311 74.25,63.155C74.66,62.745 75.665,62.382 75.938,61.837C76.162,61.389 76.161,60.614 76.516,60.256Z" style="fill:#fff;"/></g><g id="Tablecat1" serif:id="Tablecat"><path d="M118.214,43.999L118.214,49.187" style="fill:none;stroke:#000;stroke-width:0.75px;"/><path d="M111.611,41.405L111.611,50.602" style="fill:none;stroke:#000;stroke-width:0.75px;"/><path d="M112.555,52.252L112.555,61.449" style="fill:none;stroke:#000;stroke-width:0.75px;"/><path d="M118.214,52.017L118.214,61.449" style="fill:none;stroke:#000;stroke-width:0.75px;"/><path d="M120.572,52.017L120.572,61.449" style="fill:none;stroke:#000;stroke-width:0.75px;"/><path d="M100.528,71.824L91.568,71.824" style="fill:none;stroke:#000;stroke-width:0.75px;"/><path d="M89.681,71.824L81.192,71.824" style="fill:none;stroke:#000;stroke-width:0.75px;"/><path d="M78.834,69.938L75.061,67.108L75.061,65.693L78.834,63.335" style="fill:none;stroke:#000;stroke-width:0.75px;"/><path d="M80.721,42.113L76.005,49.187" style="fill:none;stroke:#000;stroke-width:0.75px;"/><path d="M76.24,52.252L76.24,61.213" style="fill:none;stroke:#000;stroke-width:0.75px;"/><path d="M100.017,59.872L99.855,59.872" style="fill:none;stroke:#000;stroke-width:0.75px;"/><path d="M90.272,42.93C90.583,42.712 90.997,42.244 91.405,42.04C92.318,41.583 93.334,41.434 94.437,41.434C94.971,41.434 95.519,41.429 95.933,41.636C96.235,41.787 96.746,41.802 96.944,42C97.066,42.122 97.475,42.045 97.591,42.161C97.84,42.41 98.845,42.61 98.845,42.93" style="fill:none;stroke:#000;stroke-width:0.75px;"/><path id="left-ear" serif:id="left ear" d="M102.415,6.742L105.48,0.375L108.782,6.506" style="fill:none;stroke:#000;stroke-width:0.75px;"/><path d="M123.402,6.742L126.467,0.375L129.768,6.506" style="fill:none;stroke:#000;stroke-width:0.75px;"/><path d="M111.375,8.393L120.808,8.393" style="fill:none;stroke:#000;stroke-width:0.75px;"/><path d="M116.327,10.515L119.393,17.117L122.694,10.751" style="fill:none;stroke:#000;stroke-width:0.75px;"/><path d="M121.515,12.637L117.313,12.637" style="fill:none;stroke:#000;stroke-width:0.75px;"/><path d="M126.231,20.655L126.231,29.615" style="fill:none;stroke:#000;stroke-width:0.75px;"/><path d="M125.728,30.794L125.782,40.226" style="fill:none;stroke:#000;stroke-width:0.75px;"/><path d="M124.811,41.17L124.811,50.602" style="fill:none;stroke:#000;stroke-width:0.75px;"/><path d="M126.231,52.017L126.231,61.449" style="fill:none;stroke:#000;stroke-width:0.75px;"/><g><path d="M126.231,63.335L126.231,68.051" style="fill:none;stroke:#000;stroke-width:0.75px;"/></g><g><path d="M120.585,63.335L120.585,68.051" style="fill:none;stroke:#000;stroke-width:0.75px;"/></g><g><path d="M126.225,68.082C126.225,68.407 125.996,68.684 125.784,68.897C125.685,68.996 125.615,69.157 125.507,69.229C125.32,69.354 125.135,69.532 124.94,69.629C124.871,69.664 124.794,69.675 124.72,69.712C124.683,69.731 124.581,69.712 124.54,69.712L124.042,69.712C123.887,69.712 123.597,69.766 123.462,69.699C123.372,69.653 123.203,69.704 123.103,69.671C123.032,69.647 122.939,69.681 122.868,69.657C122.544,69.549 122.252,69.446 121.956,69.298C121.892,69.266 121.816,69.146 121.79,69.09C121.756,69.017 121.66,68.969 121.624,68.897C121.588,68.824 121.499,68.808 121.458,68.745C121.36,68.593 121.259,68.518 121.155,68.414C121.065,68.324 121.004,68.2 120.906,68.151C120.815,68.105 120.705,67.861 120.602,67.861" style="fill:none;stroke:#000;stroke-width:0.75px;"/></g><g><path d="M117.912,63.335L117.912,67.861" style="fill:none;stroke:#000;stroke-width:0.75px;"/></g><g><path d="M112.5,63.335L112.472,68.051" style="fill:none;stroke:#000;stroke-width:0.75px;"/></g><g><path d="M117.978,67.783C117.978,67.896 117.95,68 117.897,68.107C117.854,68.193 117.94,68.344 117.897,68.43C117.858,68.509 117.923,68.782 117.87,68.835C117.835,68.87 117.792,68.937 117.762,68.997C117.635,69.251 117.124,69.221 116.872,69.348C116.671,69.448 116.474,69.412 116.278,69.51C116.008,69.645 115.434,69.786 115.09,69.672C114.874,69.599 114.662,69.475 114.443,69.402C114.225,69.329 114.004,69.277 113.822,69.186C113.787,69.169 113.688,69.187 113.66,69.159C113.573,69.072 113.386,69.016 113.309,68.862C113.193,68.629 112.95,68.395 112.796,68.241C112.662,68.107 112.626,67.963 112.472,67.809" style="fill:none;stroke:#000;stroke-width:0.75px;"/></g><path d="M101.593,65.483C101.928,65.483 102.294,65.51 102.645,65.51C102.743,65.51 102.964,65.553 103.05,65.51C103.618,65.226 104.239,65.063 104.831,64.836C105.551,64.56 106.285,64.512 107.098,64.512C107.527,64.512 107.907,64.497 108.259,64.674C108.652,64.87 109.009,65.176 109.204,65.564C109.269,65.695 109.274,65.932 109.365,66.023C109.456,66.113 109.405,66.519 109.447,66.644C109.599,67.101 109.427,67.743 109.176,67.993C109.135,68.034 109.124,68.179 109.096,68.236C108.95,68.529 108.847,68.914 108.529,69.072C108.249,69.212 108.034,69.441 107.746,69.585C107.286,69.816 106.765,70.011 106.262,70.179C106.068,70.244 105.809,70.114 105.614,70.179C104.987,70.388 104.306,70.071 103.725,70.071" style="fill:none;stroke:#000;stroke-width:0.75px;"/><path d="M101.593,59.816C103.038,59.816 103.854,58.742 104.697,57.9C104.82,57.776 104.955,57.507 105.101,57.36C105.546,56.915 106.068,56.343 106.316,55.849C106.6,55.28 107.045,54.734 107.045,54.067C107.045,53.941 107.153,53.582 107.045,53.473" style="fill:none;stroke:#000;stroke-width:0.75px;"/><path d="M104.778,46.619C104.638,46.619 104.579,46.213 104.535,46.079C104.37,45.584 104.178,45.068 103.941,44.594C103.751,44.215 103.409,43.898 103.077,43.677C102.955,43.596 102.803,43.565 102.727,43.488C102.694,43.455 102.564,43.453 102.564,43.407" style="fill:none;stroke:#000;stroke-width:0.75px;"/><path d="M115.843,46.133C116.073,46.133 116.389,45.849 116.571,45.728C116.645,45.679 116.715,45.535 116.76,45.512C117.041,45.372 117.274,45.052 117.516,44.81C117.996,44.33 118.245,43.675 118.568,43.029C118.737,42.692 118.9,42.474 119.027,42.22C119.109,42.056 119.243,41.962 119.243,41.761" style="fill:none;stroke:#000;stroke-width:0.75px;"/><path d="M113.953,48.967L113.98,48.967" style="fill:none;stroke:#000;stroke-width:0.75px;"/><path d="M123.858,38.496C123.818,38.523 123.777,38.603 123.777,38.657" style="fill:none;stroke:#000;stroke-width:0.75px;"/><path d="M72.952,63.904C72.832,63.949 72.906,64.272 72.878,64.383C72.852,64.489 72.889,64.675 72.842,64.769C72.777,64.9 72.798,65.029 72.75,65.175C72.659,65.446 72.597,65.701 72.473,65.949C72.354,66.187 72.15,66.376 72.013,66.612C71.967,66.691 71.854,66.757 71.829,66.833C71.772,67.004 71.644,67.055 71.571,67.202C71.301,67.74 70.758,68.308 70.17,68.602C70.003,68.685 69.835,68.908 69.673,68.989C69.567,69.041 69.471,69.173 69.396,69.246C69.326,69.316 69.164,69.387 69.083,69.468C68.823,69.728 68.43,70.006 68.107,70.168C68.064,70.189 67.953,70.168 67.904,70.168C67.783,70.168 67.646,70.186 67.517,70.186" style="fill:none;stroke:#000;stroke-width:0.75px;"/><path d="M71.009,73.021C70.757,73.147 70.693,73.366 70.468,73.512C70.298,73.623 70.116,73.824 70.026,74.003C69.957,74.141 69.786,74.233 69.707,74.372C69.49,74.755 69.132,74.99 69.019,75.33C68.803,75.978 68.823,76.668 68.823,77.369C68.823,77.667 68.793,78.023 68.921,78.278C69.136,78.707 69.337,79.061 69.535,79.457C69.619,79.625 69.8,79.717 69.879,79.874C70.052,80.219 70.379,80.473 70.665,80.759C70.782,80.876 70.996,80.953 71.058,81.078C71.091,81.145 71.205,81.124 71.205,81.201" style="fill:none;stroke:#000;stroke-width:0.75px;"/><path d="M65.949,72.923C65.615,72.923 65.324,73.523 65.089,73.758C64.971,73.875 64.821,73.967 64.72,74.102C64.326,74.627 63.858,74.823 63.689,75.502C63.338,76.905 63.906,78.364 64.425,79.579C64.457,79.654 64.592,79.757 64.646,79.825C64.971,80.233 65.219,80.742 65.58,81.103C65.703,81.225 65.876,81.3 65.973,81.398C66.022,81.447 66.145,81.463 66.145,81.52" style="fill:none;stroke:#000;stroke-width:0.75px;"/><path d="M70.966,86.168C71.174,86.375 71.439,86.679 71.63,86.932C71.795,87.152 72.07,87.329 72.194,87.577C72.3,87.79 72.581,87.828 72.696,88.06C72.886,88.438 73.139,88.901 73.139,89.327" style="fill:none;stroke:#000;stroke-width:0.75px;"/><path d="M75.997,86.731C75.997,86.882 76.471,86.852 76.621,86.852C77.344,86.852 77.951,86.62 78.633,86.449C79.465,86.241 80.284,85.852 81.028,85.604C81.134,85.569 81.316,85.604 81.43,85.604C81.872,85.604 82.202,85.645 82.577,85.833C82.844,85.966 83.043,86.312 83.241,86.51C83.292,86.561 83.3,86.665 83.322,86.731C83.368,86.87 83.488,87.029 83.543,87.194C83.593,87.346 83.612,87.533 83.684,87.677C83.847,88.003 83.845,88.24 83.845,88.643C83.845,88.861 83.878,89.116 83.825,89.327C83.744,89.65 83.551,89.838 83.382,90.092C83.207,90.355 82.919,90.709 82.637,90.85C82.422,90.957 82.165,90.992 81.953,91.098C81.654,91.248 81.281,91.297 80.947,91.38C80.878,91.397 80.795,91.363 80.726,91.38C79.931,91.579 79.081,91.46 78.271,91.46" style="fill:none;stroke:#000;stroke-width:0.75px;"/><path d="M112.589,9.749C112.464,9.749 112.137,9.803 112.044,9.895C112.023,9.916 111.96,9.895 111.939,9.916C111.883,9.972 111.749,10.091 111.646,10.126C111.473,10.183 111.34,10.331 111.206,10.398C111.027,10.487 110.794,10.664 110.619,10.838" style="fill:none;stroke:#000;stroke-width:0.75px;"/><path d="M126.181,9.832C126.605,9.832 126.879,9.972 127.229,10.147C127.354,10.209 127.52,10.208 127.648,10.273C127.804,10.35 128.007,10.511 128.131,10.629C128.168,10.664 128.222,10.776 128.256,10.776" style="fill:none;stroke:#000;stroke-width:0.75px;"/><path d="M130.499,9.727C130.65,10.028 130.887,10.199 131.149,10.461C131.252,10.564 131.388,10.706 131.526,10.776C131.559,10.792 131.605,10.875 131.631,10.901C131.687,10.957 131.79,11.039 131.862,11.111C131.974,11.223 132.04,11.435 132.134,11.53C132.162,11.558 132.178,11.66 132.198,11.698C132.299,11.902 132.327,12.125 132.428,12.327C132.457,12.385 132.42,12.479 132.449,12.536C132.553,12.744 132.533,13.001 132.533,13.249C132.533,13.343 132.551,13.464 132.512,13.543C132.482,13.602 132.522,13.691 132.491,13.752C132.427,13.879 132.514,14.079 132.47,14.213C132.378,14.49 132.35,14.873 132.218,15.136C132.196,15.181 132.24,15.259 132.218,15.303C132.139,15.463 132.193,15.689 132.114,15.848C131.948,16.18 131.817,16.575 131.59,16.918C131.525,17.015 131.363,17.118 131.317,17.211C131.223,17.399 131.07,17.585 130.877,17.714C130.744,17.803 130.512,17.807 130.416,17.903" style="fill:none;stroke:#000;stroke-width:0.75px;"/><path d="M101.348,9.643C101.313,9.694 101.242,9.729 101.181,9.769C101.045,9.86 100.954,10.017 100.845,10.126C100.662,10.309 100.566,10.582 100.405,10.797C100.108,11.192 99.875,11.605 99.671,12.012C99.573,12.208 99.578,12.534 99.482,12.725C99.445,12.801 99.501,12.919 99.462,12.998C99.409,13.103 99.471,13.317 99.44,13.438C99.404,13.586 99.489,13.775 99.44,13.92C99.39,14.071 99.448,14.255 99.399,14.402C99.291,14.725 99.324,15.309 99.42,15.597C99.448,15.68 99.441,15.786 99.482,15.869C99.629,16.162 99.792,16.304 100.028,16.54C100.101,16.614 100.282,16.688 100.342,16.792C100.441,16.963 100.665,17.259 100.845,17.379C100.943,17.444 100.974,17.548 101.055,17.588C101.155,17.638 101.24,17.861 101.327,17.861" style="fill:none;stroke:#000;stroke-width:0.75px;"/><path d="M95.577,20.655L87.088,29.144" style="fill:none;stroke:#000;stroke-width:0.75px;"/><path d="M84.258,31.973L80.013,39.047" style="fill:none;stroke:#000;stroke-width:0.75px;"/><path d="M85.673,41.405L84.729,43.056" style="fill:none;stroke:#000;stroke-width:0.75px;"/><path d="M87.795,41.405L86.616,42.82" style="fill:none;stroke:#000;stroke-width:0.75px;"/></g><g id="Table"><path d="M51.481,61.449L60.913,61.449" style="fill:none;stroke:#000;stroke-width:0.75px;"/><path d="M62.328,61.449L70.817,61.449" style="fill:none;stroke:#000;stroke-width:0.75px;"/><path d="M51.953,81.728L60.913,81.728" style="fill:none;stroke:#000;stroke-width:0.75px;"/><path d="M48.18,84.086L56.669,84.086" style="fill:none;stroke:#000;stroke-width:0.75px;"/><path d="M58.555,84.086L67.044,84.086" style="fill:none;stroke:#000;stroke-width:0.75px;"/><path d="M51.953,103.422L60.913,103.422" style="fill:none;stroke:#000;stroke-width:0.75px;"/><path d="M62.328,103.422L70.817,103.422" style="fill:none;stroke:#000;stroke-width:0.75px;"/><path d="M47.708,104.365L57.14,104.365" style="fill:none;stroke:#000;stroke-width:0.75px;"/><path d="M58.319,104.601L67.516,104.601" style="fill:none;stroke:#000;stroke-width:0.75px;"/><path d="M68.459,104.601L77.891,104.601" style="fill:none;stroke:#000;stroke-width:0.75px;"/><path d="M79.07,104.601L88.031,104.601" style="fill:none;stroke:#000;stroke-width:0.75px;"/><path d="M89.446,104.601L98.642,104.601" style="fill:none;stroke:#000;stroke-width:0.75px;"/><path d="M99.821,104.601L108.782,104.601" style="fill:none;stroke:#000;stroke-width:0.75px;"/><path d="M109.961,104.601L119.393,104.601" style="fill:none;stroke:#000;stroke-width:0.75px;"/><path d="M120.572,104.601L129.768,104.601" style="fill:none;stroke:#000;stroke-width:0.75px;"/><path d="M130.947,104.601L140.144,104.601" style="fill:none;stroke:#000;stroke-width:0.75px;"/><path d="M141.323,104.601L150.519,104.601" style="fill:none;stroke:#000;stroke-width:0.75px;"/><path d="M150.991,103.186L148.161,103.186" style="fill:none;stroke:#000;stroke-width:0.75px;"/><path d="M147.454,103.186L144.86,103.186" style="fill:none;stroke:#000;stroke-width:0.75px;"/><path d="M143.681,103.186L134.484,103.186" style="fill:none;stroke:#000;stroke-width:0.75px;"/><path d="M133.305,103.186L124.109,103.186" style="fill:none;stroke:#000;stroke-width:0.75px;"/><path d="M123.166,103.186L113.969,103.186" style="fill:none;stroke:#000;stroke-width:0.75px;"/><path d="M112.555,103.186L103.594,103.186" style="fill:none;stroke:#000;stroke-width:0.75px;"/><path d="M102.415,103.186L92.983,103.186" style="fill:none;stroke:#000;stroke-width:0.75px;"/><path d="M92.039,103.186L82.843,103.186" style="fill:none;stroke:#000;stroke-width:0.75px;"/><path d="M81.664,103.186L72.468,103.186" style="fill:none;stroke:#000;stroke-width:0.75px;"/><path d="M127.882,61.213L137.078,61.213" style="fill:none;stroke:#000;stroke-width:0.75px;"/><path d="M138.257,61.213L147.689,61.213" style="fill:none;stroke:#000;stroke-width:0.75px;"/><path d="M149.576,62.392L158.537,71.353" style="fill:none;stroke:#000;stroke-width:0.75px;"/><path d="M158.537,72.768L167.497,81.728" style="fill:none;stroke:#000;stroke-width:0.75px;"/><path d="M168.912,83.824L159.48,83.824" style="fill:none;stroke:#000;stroke-width:0.75px;"/><path d="M155.235,81.964L158.065,81.964" style="fill:none;stroke:#000;stroke-width:0.75px;"/><path d="M157.829,83.615L157.829,93.047" style="fill:none;stroke:#000;stroke-width:0.75px;"/><path d="M152.17,83.615L152.17,93.047" style="fill:none;stroke:#000;stroke-width:0.75px;"/><path d="M152.17,93.99L152.17,103.422" style="fill:none;stroke:#000;stroke-width:0.75px;"/><path d="M157.829,93.99L157.829,103.422" style="fill:none;stroke:#000;stroke-width:0.75px;"/><path d="M157.829,104.365L157.829,113.798" style="fill:none;stroke:#000;stroke-width:0.75px;"/><path d="M152.17,104.365L152.17,113.798" style="fill:none;stroke:#000;stroke-width:0.75px;"/><path d="M143.917,81.964L134.484,81.964" style="fill:none;stroke:#000;stroke-width:0.75px;"/><path d="M133.541,81.964L124.109,81.964" style="fill:none;stroke:#000;stroke-width:0.75px;"/><path d="M123.166,81.964L113.734,81.964" style="fill:none;stroke:#000;stroke-width:0.75px;"/><path d="M112.79,81.964L103.358,81.964" style="fill:none;stroke:#000;stroke-width:0.75px;"/><path d="M102.415,81.964L92.983,81.964" style="fill:none;stroke:#000;stroke-width:0.75px;"/><path d="M92.039,81.964L82.607,81.964" style="fill:none;stroke:#000;stroke-width:0.75px;"/><path d="M81.664,81.964L72.232,81.964" style="fill:none;stroke:#000;stroke-width:0.75px;"/><path d="M85.909,83.85L95.341,83.85" style="fill:none;stroke:#000;stroke-width:0.75px;"/><path d="M96.284,83.85L105.716,83.85" style="fill:none;stroke:#000;stroke-width:0.75px;"/><path d="M106.659,83.85L116.092,83.85" style="fill:none;stroke:#000;stroke-width:0.75px;"/><path d="M117.035,83.85L126.467,83.85" style="fill:none;stroke:#000;stroke-width:0.75px;"/><path d="M127.41,83.85L136.842,83.85" style="fill:none;stroke:#000;stroke-width:0.75px;"/><path d="M137.786,83.85L147.218,83.85" style="fill:none;stroke:#000;stroke-width:0.75px;"/><path d="M144.86,81.964L154.292,81.964" style="fill:none;stroke:#000;stroke-width:0.75px;"/></g></g></g></g><defs><linearGradient id="_Linear1" x1="0" y1="0" x2="1" y2="0" gradientUnits="userSpaceOnUse" gradientTransform="matrix(-3.432,4.00806,-4.00806,-3.432,198.042,86.2182)"><stop offset="0" style="stop-color:#f00;stop-opacity:1"/><stop offset="1" style="stop-color:#800;stop-opacity:1"/></linearGradient><linearGradient id="_Linear2" x1="0" y1="0" x2="1" y2="0" gradientUnits="userSpaceOnUse" gradientTransform="matrix(4.49185,0.444465,-0.444465,4.49185,179.364,91.5518)"><stop offset="0" style="stop-color:#ff0018;stop-opacity:1"/><stop offset="1" style="stop-color:#99000e;stop-opacity:1"/></linearGradient><linearGradient id="_Linear3" x1="0" y1="0" x2="1" y2="0" gradientUnits="userSpaceOnUse" gradientTransform="matrix(-0.13334,1.2445,-1.2445,-0.13334,181.009,87.5516)"><stop offset="0" style="stop-color:#ff0018;stop-opacity:1"/><stop offset="1" style="stop-color:#7e000c;stop-opacity:1"/></linearGradient><linearGradient id="_Linear4" x1="0" y1="0" x2="1" y2="0" gradientUnits="userSpaceOnUse" gradientTransform="matrix(-6.66697,-4.00019,4.00019,-6.66697,203.943,94.663)"><stop offset="0" style="stop-color:#e72a15;stop-opacity:1"/><stop offset="1" style="stop-color:#970f00;stop-opacity:1"/></linearGradient><linearGradient id="_Linear5" x1="0" y1="0" x2="1" y2="0" gradientUnits="userSpaceOnUse" gradientTransform="matrix(-6.66697,-4.00019,4.00019,-6.66697,203.943,94.663)"><stop offset="0" style="stop-color:#e72a15;stop-opacity:1"/><stop offset="1" style="stop-color:#970f00;stop-opacity:1"/></linearGradient><linearGradient id="_Linear6" x1="0" y1="0" x2="1" y2="0" gradientUnits="userSpaceOnUse" gradientTransform="matrix(-5.77804,2.22233,-2.22233,-5.77804,191.498,83.1069)"><stop offset="0" style="stop-color:#ff0007;stop-opacity:1"/><stop offset="1" style="stop-color:#9f000f;stop-opacity:1"/></linearGradient><linearGradient id="_Linear7" x1="0" y1="0" x2="1" y2="0" gradientUnits="userSpaceOnUse" gradientTransform="matrix(-2.00009,6.44474,-6.44474,-2.00009,193.498,94.4408)"><stop offset="0" style="stop-color:#e6301a;stop-opacity:1"/><stop offset="1" style="stop-color:#993600;stop-opacity:1"/></linearGradient></defs></svg>