<?xml version="1.0" encoding="UTF-8" standalone="no"?><!DOCTYPE svg PUBLIC "-//W3C//DTD SVG 1.1//EN" "http://www.w3.org/Graphics/SVG/1.1/DTD/svg11.dtd"><svg width="322px" height="285px" version="1.1" xmlns="http://www.w3.org/2000/svg" xmlns:xlink="http://www.w3.org/1999/xlink" xml:space="preserve" xmlns:serif="http://www.serif.com/" style="fill-rule:evenodd;clip-rule:evenodd;stroke-linecap:round;stroke-linejoin:round;stroke-miterlimit:1.5;"><g id="Altar-Object" serif:id="Altar Object"><g id="Altar"><path d="M120.339,284.162L1.859,224.922L0.5,162.425L120.339,222.344L120.339,284.162Z" style="fill:#666;"/><path d="M120.339,284.162L120.339,222.344L0.5,162.425L1.859,224.922L120.339,284.162Z" style="fill:none;stroke:#000;stroke-width:1px;"/><path d="M120.339,284.162L120.339,222.344L321.024,125.532L319.612,184.525L120.339,284.162Z" style="fill:#808080;"/><path d="M120.339,284.162L319.612,184.525L321.024,125.532L120.339,222.344L120.339,284.162Z" style="fill:none;stroke:#000;stroke-width:1px;"/><path d="M321.024,125.532L120.339,222.344L0.5,162.425L197.655,63.847L321.024,125.532Z" style="fill:#b3b3b3;"/><path d="M321.024,125.532L197.655,63.847L0.5,162.425L120.339,222.344L321.024,125.532Z" style="fill:none;stroke:#000;stroke-width:1px;"/></g><g id="Apples"><g id="Layer1"><ellipse cx="252.833" cy="130.591" rx="22.299" ry="7.367" style="fill:#686868;fill-opacity:0.7;"/><rect x="246.47" y="115.009" width="18.099" height="10.563" style="fill:#ff0015;"/></g><g id="Apple"><path d="M265.115,116.183L264.569,114.424L263.396,112.662L262.222,111.211L259.584,110.315L257.861,110.018L256.941,110.315L256.941,112.662L256.354,114.556L255.476,116.183L254.007,118.53L252.528,119.425L251.659,119.704L255.18,120.877L256.941,122.83L257.527,120.877L258.701,119.425L259.484,118.53L260.71,117.356L262.631,116.709L264.055,116.183L265.115,116.183Z" style="fill:url(#_Linear1);"/><path d="M257.527,112.999L257.527,111.873L259.286,111.488L261.048,112.37L261.048,113.099L258.954,113.836L257.527,112.999Z" style="fill:#ff904a;"/><path d="M258.387,111.111L259.288,111.111L259.288,112.005L258.987,113.264L258.387,113.297L258.387,111.111Z" style="fill:#904900;"/></g><g id="Apple1" serif:id="Apple"><path d="M242.27,115.009L240.51,114.422L239.336,114.422L235.815,115.009L233.468,116.183L232.06,117.943L231.414,119.469L231.238,120.232L231.414,122.227L232.06,124.809L232.881,126.687L233.762,127.978L234.935,129.151L236.168,129.855L238.691,130.618L240.334,130.912L241.801,130.853L243.444,129.797L242.798,127.978L242.916,125.572L244.089,123.107L245.556,121.523L248.784,119.88L248.96,119.528L245.439,119.469L243.796,117.415L242.798,115.42L242.27,115.009Z" style="fill:url(#_Linear2);"/><path d="M237.341,115.713L236.813,116.535L237.635,117.356L239.982,117.063L240.803,116.535L240.275,115.655L238.808,115.537L237.341,115.713Z" style="fill:url(#_Linear3);"/><path d="M237.693,114.07L238.397,113.777L238.515,114.012L238.515,115.361L238.749,116.652L238.984,117.18L238.397,117.239L238.104,115.948L237.987,115.126L237.693,114.07Z" style="fill:#7e3e00;"/></g><g id="Apple2" serif:id="Apple"><path d="M258.701,129.388L258.701,128.506L258.506,126.745L258.114,124.985L257.527,123.224L256.941,122.445L257.527,120.877L258.332,119.704L259.288,118.53L260.742,117.356L262.809,116.52L265.156,116.183L266.704,116.569L268.677,117.356L270.232,118.53L271.325,120.29L272.198,122.638L272.443,124.398L271.611,127.332L270.192,129.679L268.677,130.853L266.565,131.649L264.569,132.027L262.809,131.773L259.875,130.482L258.701,129.388Z" style="fill:url(#_Linear4);"/><path d="M258.701,129.388L259.875,130.482L262.809,131.773L264.569,132.027L266.565,131.649L268.677,130.853L270.192,129.679L271.611,127.332L272.443,124.398L272.198,122.638L271.325,120.29L270.232,118.53L268.677,117.356L266.704,116.569L265.156,116.183L262.809,116.52L260.742,117.356L259.288,118.53L258.332,119.704L257.527,120.877L256.941,122.445L257.527,123.224L258.114,124.985L258.506,126.745L258.701,128.506L258.701,129.388Z" style="fill:url(#_Linear5);"/><path d="M264.692,124.693L265.743,126.159L267.226,126.159L268.09,124.743L268.269,123.811L267.503,123.224L266.33,122.83L264.692,124.693Z" style="fill:#d9a426;"/><path d="M265.743,124.693L265.537,124.398L266.183,124.105L267.872,124.985L269.264,125.339L269.264,126.159L268.677,126.159L265.743,124.693Z" style="fill:#996678;"/></g><g id="Apple3" serif:id="Apple"><path d="M256.867,110.315L256.354,108.627L254.946,106.794L252.833,105.62L250.486,104.884L248.138,104.983L245.791,105.62L244.048,106.794L242.27,108.66L241.862,109.72L241.63,111.488L241.928,113.836L242.657,116.183L243.444,117.603L245.241,119.704L251.659,119.704L254.007,118.53L254.714,117.356L255.807,115.649L256.354,114.622L256.967,112.662L256.867,110.315Z" style="fill:url(#_Linear6);"/><path d="M248.885,105.62L251.269,106.275L250.971,107.07L249.713,107.633L246.965,107.967L245.791,107.633L246.965,106.341L248.138,105.62L248.885,105.62Z" style="fill:#c19900;"/><path d="M247.239,104.631L247.833,104.447L248.138,104.884L247.968,105.62L247.985,106.207L248.409,107.381L248.53,107.718L248.138,107.718L247.552,106.207L247.273,105.033L247.239,104.631Z" style="fill:#856900;"/></g><g id="Apple4" serif:id="Apple"><path d="M244.618,132.613L242.743,127.919L242.865,125.572L243.896,123.224L245.791,120.877L248.748,119.704L251.659,119.704L255.18,120.877L257.527,123.224L258.331,125.572L258.701,129.093L257.527,131.955L255.18,134.563L251.659,136.134L250.486,136.134L247.535,135.534L244.618,132.613Z" style="fill:url(#_Linear7);"/><path d="M250.192,120.877L253.126,122.931L253.126,123.811L251.734,124.398L250.486,124.105L250.192,123.811L249.312,123.811L248.432,123.687L248.432,122.793L249.312,122.638L249.312,122.051L250.192,120.877Z" style="fill:#c3cc33;"/><path d="M251.659,124.398L251.072,124.196L251.251,123.035L251.378,122.256L251.394,121.464L251.394,120.714L251.966,120.491L252.395,120.877L251.659,124.398Z" style="fill:#a67459;"/></g></g><g id="Squids"><path d="M128.35,189.084L128.548,188.638C128.68,188.506 128.829,188.44 128.994,188.44L129.44,188.638L129.588,188.836L129.638,189.084L129.44,189.579L128.994,189.777C128.829,189.777 128.68,189.711 128.548,189.579L128.499,189.48L128.35,189.084M126.568,185.866L126.766,185.42C126.898,185.288 127.047,185.222 127.212,185.222L127.657,185.42L127.855,185.866L127.657,186.361L127.212,186.559C127.047,186.559 126.898,186.493 126.766,186.361L126.568,185.866" style="fill-rule:nonzero;"/><path d="M128.499,189.48L126.519,190.619L125.528,190.52L125.726,190.866L119.736,194.233L118.993,195.916L119.241,196.659L119.736,197.105L109.586,197.451L113.349,189.53L114.141,189.975L115.478,190.965L116.963,190.025L123.152,186.163L123.399,186.609L130.925,182.054L131.767,182.252L131.866,182.252L131.965,182.153C133.021,180.931 133.747,179.463 134.143,177.746L136.42,178.786L138.698,179.776C138.104,182.483 136.718,184.793 134.539,186.708L133.697,186.46L129.588,188.836L129.44,188.638L128.994,188.44C128.829,188.44 128.68,188.506 128.548,188.638L128.35,189.084L128.499,189.48M126.766,186.361C126.898,186.493 127.047,186.559 127.212,186.559L127.657,186.361L127.855,185.866L127.657,185.42L127.212,185.222C127.047,185.222 126.898,185.288 126.766,185.42L126.568,185.866L126.766,186.361" style="fill:#fcb6c4;fill-rule:nonzero;"/><path d="M138.698,179.776C138.104,182.483 136.718,184.793 134.539,186.708M125.528,190.52L125.726,190.866L119.736,194.233M119.736,197.105L109.586,197.451L113.349,189.53M116.963,190.025L123.152,186.163L123.399,186.609M131.767,182.252L131.866,182.252L131.965,182.153C133.021,180.931 133.747,179.463 134.143,177.746M136.42,178.786C135.826,181.261 134.787,183.093 133.301,184.282M125.528,190.52L123.399,186.609" style="fill:none;fill-rule:nonzero;stroke:#000;stroke-width:0.99px;stroke-miterlimit:3;"/><path d="M119.064,184.441L119.262,183.995C119.394,183.863 119.542,183.797 119.707,183.797L120.153,183.995L120.301,184.193L120.351,184.441L120.153,184.936L119.707,185.134C119.542,185.134 119.394,185.068 119.262,184.936L119.212,184.837L119.064,184.441M117.281,181.223L117.479,180.777C117.611,180.645 117.76,180.579 117.925,180.579L118.371,180.777L118.569,181.223L118.371,181.718L117.925,181.916C117.76,181.916 117.611,181.85 117.479,181.718L117.281,181.223" style="fill-rule:nonzero;"/><path d="M119.212,184.837L117.232,185.975L116.242,185.876L116.44,186.223L110.449,189.59L109.706,191.273L109.954,192.016L110.449,192.461L100.299,192.808L104.062,184.886L104.854,185.332L106.191,186.322L107.676,185.381L113.865,181.52L114.113,181.965L121.638,177.41L122.48,177.608L122.579,177.608L122.678,177.509C123.734,176.288 124.46,174.819 124.856,173.103L127.134,174.143L129.411,175.133C128.817,177.839 127.431,180.15 125.252,182.064L124.411,181.817L120.301,184.193L120.153,183.995L119.707,183.797C119.542,183.797 119.394,183.863 119.262,183.995L119.064,184.441L119.212,184.837M117.479,181.718C117.611,181.85 117.76,181.916 117.925,181.916L118.371,181.718L118.569,181.223L118.371,180.777L117.925,180.579C117.76,180.579 117.611,180.645 117.479,180.777L117.281,181.223L117.479,181.718" style="fill:#fcb6c4;fill-rule:nonzero;"/><path d="M129.411,175.133C128.817,177.839 127.431,180.15 125.252,182.064M116.242,185.876L116.44,186.223L110.449,189.59M110.449,192.461L100.299,192.808L104.062,184.886M107.676,185.381L113.865,181.52L114.113,181.965M122.48,177.608L122.579,177.608L122.678,177.509C123.734,176.288 124.46,174.819 124.856,173.103M127.134,174.143C126.54,176.618 125.5,178.45 124.015,179.638M116.242,185.876L114.113,181.965" style="fill:none;fill-rule:nonzero;stroke:#000;stroke-width:0.99px;stroke-miterlimit:3;"/><path d="M140.453,196.76L140.651,196.314C140.783,196.182 140.931,196.116 141.096,196.116L141.542,196.314L141.69,196.512L141.74,196.76L141.542,197.255L141.096,197.453C140.931,197.453 140.783,197.387 140.651,197.255L140.601,197.156L140.453,196.76M138.67,193.542L138.868,193.096C139,192.964 139.149,192.898 139.314,192.898L139.76,193.096L139.958,193.542L139.76,194.037L139.314,194.235C139.149,194.235 139,194.169 138.868,194.037L138.67,193.542" style="fill-rule:nonzero;"/><path d="M140.601,197.156L138.621,198.295L137.631,198.196L137.829,198.542L131.838,201.909L131.095,203.592L131.343,204.335L131.838,204.78L121.688,205.127L125.451,197.205L126.243,197.651L127.58,198.641L129.065,197.7L135.254,193.839L135.502,194.284L143.027,189.729L143.869,189.927L143.968,189.927L144.067,189.828C145.123,188.607 145.849,187.138 146.245,185.422L148.523,186.462L150.8,187.452C150.206,190.158 148.82,192.469 146.641,194.383L145.8,194.136L141.69,196.512L141.542,196.314L141.096,196.116C140.931,196.116 140.783,196.182 140.651,196.314L140.453,196.76L140.601,197.156M138.868,194.037C139,194.169 139.149,194.235 139.314,194.235L139.76,194.037L139.958,193.542L139.76,193.096L139.314,192.898C139.149,192.898 139,192.964 138.868,193.096L138.67,193.542L138.868,194.037" style="fill:#fcb6c4;fill-rule:nonzero;"/><path d="M150.8,187.452C150.206,190.158 148.82,192.469 146.641,194.383M137.631,198.196L137.829,198.542L131.838,201.909M131.838,204.78L121.688,205.127L125.451,197.205M129.065,197.7L135.254,193.839L135.502,194.284M143.869,189.927L143.968,189.927L144.067,189.828C145.123,188.607 145.849,187.138 146.245,185.422M148.523,186.462C147.929,188.937 146.889,190.769 145.404,191.957M137.631,198.196L135.502,194.284" style="fill:none;fill-rule:nonzero;stroke:#000;stroke-width:0.99px;stroke-miterlimit:3;"/></g><g id="Tablecat"><g id="table-colors" serif:id="table colors"><path d="M63.615,108.53L63.615,81.082L196.13,80.51L221.768,108.215L63.615,108.53Z" style="fill:#de7e2f;"/><path d="M63.615,108.218L63.615,111.643L223.636,111.02L221.768,108.218L63.615,108.218Z" style="fill:#b37b00;"/><path d="M208.069,111.02L208.692,150.87L200.909,150.87L200.909,111.02L208.069,111.02Z" style="fill:#b37b00;"/><path d="M62.992,138.105L62.992,136.549L200.909,136.237L200.909,138.417L62.992,138.105Z" style="fill:#b37b00;"/></g><g id="cat-colors" serif:id="cat colors"><g><path d="M125.871,28.204C127.101,28.124 128.769,27.733 129.49,27.013C129.71,26.793 130.05,26.28 130.395,26.107C131.24,25.685 132.586,25.425 133.11,24.901C133.23,24.781 134.784,23.708 134.015,22.94C132.461,21.385 131.451,21.028 131.451,18.414C131.451,18.048 131.291,17.225 131.451,16.905C131.949,15.909 132.651,15.26 133.11,14.341C133.286,13.989 133.158,13.539 133.412,13.285C133.835,12.862 134.577,12.312 134.921,11.626C135.346,10.775 135.447,9.591 135.977,9.061C136.238,8.8 136,7.831 136.278,7.553C137.473,6.358 137.526,3.288 138.692,2.122C138.868,1.946 138.667,1.393 138.843,1.217C139.155,0.904 139.258,1.632 139.295,1.669C139.962,2.336 139.931,3.662 140.653,4.385C141.545,5.277 142.727,6.308 143.67,7.251C144.192,7.773 144.292,8.778 144.726,9.212C145.656,10.142 147.608,10.871 149.402,10.871C150.379,10.871 153.376,10.47 153.928,11.022C154.019,11.113 154.69,11.022 154.833,11.022C155.627,11.022 156.413,11.058 156.945,11.324C157.355,11.529 158.434,11.324 158.906,11.324C159.237,11.324 160.8,11.542 161.018,11.324C161.866,10.476 163.631,8.409 164.488,7.553C165.049,6.991 165.159,5.675 165.695,5.139C165.91,4.923 165.736,4.192 165.996,3.932C166.6,3.328 166.628,2.093 167.203,1.518C167.253,1.468 167.542,0.651 167.656,0.764C168.276,1.385 168.187,3.257 169.013,4.083C169.189,4.259 168.988,4.812 169.164,4.988C169.553,5.376 169.664,6.139 169.918,6.647C170.377,7.566 171.525,9.008 172.181,9.665C172.661,10.144 172.451,11.896 172.935,12.38C173.036,12.48 172.835,12.883 172.935,12.983C173.693,13.741 174.417,14.918 175.198,15.699C175.388,15.888 175.172,16.728 175.349,16.905C175.668,17.224 175.67,20.055 175.349,20.375C174.339,21.385 174.037,22.744 172.935,23.845C171.867,24.913 169.804,24.713 168.712,25.806C168.258,26.259 167.293,26.018 166.901,26.409C166.575,26.735 166.712,27.392 166.449,27.918C166.289,28.238 166.449,29.061 166.449,29.426C166.449,30.827 166.884,33.099 166.449,34.404C166.164,35.26 166.682,36.654 166.298,37.421C165.797,38.423 166.147,40.788 166.147,42.098C166.147,46.182 167.024,52.111 165.393,55.373C165.201,55.757 165.393,56.744 165.393,57.183C165.393,58.405 165.091,59.623 165.091,60.954C165.091,61.393 165.283,62.381 165.091,62.765C164.528,63.891 164.819,67.32 165.393,67.894C165.796,68.297 165.128,70.042 165.544,70.458C166.209,71.124 165.57,72.019 165.996,72.872C166.589,74.058 165.876,75.679 166.298,76.945C166.76,78.332 166.75,79.759 166.75,81.319C166.75,83.416 166.901,85.759 166.901,87.957C166.901,88.294 167.116,89.855 166.901,90.069C166.448,90.522 166.388,91.186 165.996,91.577C165.489,92.085 162.236,91.809 161.772,91.577C161.019,91.201 161.435,90.485 161.018,90.069C160.849,89.899 159.51,89.638 159.51,89.466L159.057,89.315C159.641,88.906 159.208,85.759 159.208,85.091L159.208,73.626C159.208,72.598 159.455,70.554 158.906,70.006C158.741,69.841 158.84,68.752 158.755,68.497C158.283,67.08 157.887,65.554 157.247,64.273C157.107,63.994 156.655,62.149 156.643,62.161C156.329,62.476 156.85,63.709 156.643,64.122C155.987,65.436 156.493,68.183 156.493,69.704C156.493,72.395 156.643,74.967 156.643,77.699C156.643,78.899 156.844,80.466 156.342,81.47C155.948,82.257 156.291,83.383 155.889,84.186C155.425,85.113 155.854,86.67 155.437,87.504C154.729,88.919 155.884,91.28 154.833,92.332C154.095,93.07 150.33,93.109 149.402,92.181C149.176,91.955 149.176,91.502 148.95,91.276C148.774,91.1 149.126,90.396 148.95,90.22C148.724,89.994 149.025,89.239 148.799,89.013C148.483,88.697 148.874,88.106 148.648,87.655C148.283,86.925 148.196,85.372 148.196,84.638C148.196,83.644 148.045,82.556 148.045,81.772C148.045,81.58 148.167,80.687 148.045,80.565C147.76,80.28 145.618,80.572 145.329,80.716C144.762,81 143.804,80.867 143.067,80.867L137.938,80.867C137.505,80.867 135.498,81.142 135.222,80.867C135.115,80.76 134.461,79.064 133.865,79.66C133.359,80.166 133.09,81.059 132.809,81.621C131.732,83.774 132.885,85.016 134.015,86.147C134.469,86.6 135.887,85.906 136.278,86.298C136.516,86.536 139.098,86.698 139.597,86.448C140.338,86.078 142.221,85.347 143.217,85.845C143.885,86.179 144.547,86.571 145.028,87.052C145.205,87.229 144.99,88.599 144.877,88.711C144.542,89.046 144.667,89.826 144.273,90.22C143.683,90.81 142.853,92.439 141.86,92.935C135.597,96.066 126.365,93.113 119.232,94.896C117.968,95.212 116.401,94.633 115.159,95.047C113.404,95.632 110.727,95.198 108.823,95.198C108.011,95.198 106.822,95.329 106.259,95.047C103.86,93.848 102.005,90.643 100.225,88.862C99.991,88.629 98.266,87.803 98.867,87.203C99.768,86.302 101.02,85.653 101.733,84.94C102.391,84.282 103.971,84.536 104.448,83.582C104.795,82.889 103.774,82.606 103.543,82.375C102.737,81.569 101.561,80.654 101.13,79.358C100.069,76.178 100.225,71.87 100.225,68.044C100.225,67.094 99.809,64.954 100.225,64.122C101.94,60.691 104.562,58.578 106.711,56.429C107.272,55.868 107.164,54.355 107.164,53.261C107.164,50.836 106.836,48.007 108.22,46.623C109.851,44.992 111.15,43.391 112.896,41.645C113.551,40.99 113.856,39.78 114.556,39.081C115.901,37.735 116.588,36.144 118.025,34.706C120.591,32.14 123.474,30.457 125.871,28.204Z" style="fill:#fff;"/></g></g><g id="tail-colors" serif:id="tail colors"><path d="M101.026,79.558C100.99,79.471 100.918,79.414 100.866,79.309C100.785,79.146 100.82,78.544 100.828,78.379C101.794,79.347 102.918,80.818 103.885,81.784C103.99,81.89 104.81,82.558 104.79,82.62C104.619,83.159 104.633,83.822 104.233,84.222C103.738,84.716 102.69,85.154 102.143,85.336C101.283,85.623 99.944,85.655 99.357,86.242C99.308,86.291 99.357,86.652 99.357,86.729L99.357,88.053C99.357,88.13 99.407,88.491 99.357,88.54C99.298,88.599 99.148,88.679 99.148,88.679C99.148,88.679 99.521,88.564 99.636,88.679C99.765,88.808 100.061,88.895 100.193,89.028C100.407,89.242 100.147,89.631 100.124,89.933C100.099,90.254 99.738,90.598 99.566,90.769C99.335,91 99.263,91.49 99.079,91.674C97.509,93.245 96.524,94.84 94.482,96.202C93.594,96.793 92.736,97.321 92.114,97.943C91.658,98.399 91.084,98.54 90.79,99.127C90.354,99.999 90.837,101.077 90.86,102.052C90.887,103.187 91.806,104.153 92.253,105.047C92.392,105.325 92.762,105.439 92.88,105.674C93.203,106.321 93.957,106.681 94.412,107.137C94.805,107.529 95.223,108.074 95.666,108.739C96.046,109.308 96.639,109.641 96.989,110.34C97.838,112.038 99.208,114.027 100.75,114.798C100.913,114.879 101.331,114.798 101.517,114.798C102.376,114.798 102.992,114.339 103.745,113.962C104.989,113.341 106.14,113.126 107.715,113.126C108.145,113.126 108.785,113.035 109.108,113.196C110.435,113.86 110.429,114.531 111.268,116.748C111.371,117.021 111.573,117.809 111.407,118.141C110.847,119.261 110.111,119.521 109.248,119.952C108.719,120.216 108.077,120.398 107.437,120.718C107.283,120.795 106.835,120.718 106.671,120.718L103.397,120.718C101.974,120.718 100.725,120.663 99.427,120.231C98.373,119.88 97.684,118.766 97.129,118.211C96.903,117.985 96.978,117.561 96.85,117.305C96.761,117.127 96.35,116.806 96.154,116.609C95.662,116.117 95.426,115.394 95.039,115.007L94.273,114.241C94.065,114.033 93.549,114.004 93.298,113.753C92.132,112.587 90.272,111.114 89.397,109.783C89.149,109.406 88.71,108.678 88.353,108.321C87.641,107.609 86.958,107.343 86.263,106.649C85.849,106.235 85.861,105.62 85.497,105.256C84.782,104.541 84.509,103.183 84.243,102.122C83.973,101.042 84.545,100.125 85.01,99.266C85.533,98.298 85.763,97.119 86.542,96.341C86.901,95.982 87.399,95.369 87.726,94.878C88.077,94.352 88.508,93.198 89.049,92.928C89.612,92.647 90.141,92.533 90.512,92.162C91.148,91.526 92.501,91.705 93.159,91.047C93.379,90.827 93.436,90.492 93.646,90.281C95.392,88.535 95.975,86.494 97.338,83.874C97.471,83.617 97.828,83.592 98.034,83.386C98.575,82.845 99.903,82.364 100.263,81.645C100.558,81.054 100.557,80.031 101.026,79.558Z" style="fill:#fff;"/></g><g id="Tablecat1" serif:id="Tablecat"><path d="M156.078,58.095L156.078,64.944" style="fill:none;stroke:#000;stroke-width:1px;"/><path d="M147.361,54.67L147.361,66.812" style="fill:none;stroke:#000;stroke-width:1px;"/><path d="M148.606,68.991L148.606,81.133" style="fill:none;stroke:#000;stroke-width:1px;"/><path d="M156.078,68.68L156.078,81.133" style="fill:none;stroke:#000;stroke-width:1px;"/><path d="M159.191,68.68L159.191,81.133" style="fill:none;stroke:#000;stroke-width:1px;"/><path d="M132.729,94.831L120.899,94.831" style="fill:none;stroke:#000;stroke-width:1px;"/><path d="M118.408,94.831L107.2,94.831" style="fill:none;stroke:#000;stroke-width:1px;"/><path d="M104.087,92.341L99.106,88.605L99.106,86.737L104.087,83.624" style="fill:none;stroke:#000;stroke-width:1px;"/><path d="M106.578,55.604L100.351,64.944" style="fill:none;stroke:#000;stroke-width:1px;"/><path d="M100.662,68.991L100.662,80.822" style="fill:none;stroke:#000;stroke-width:1px;"/><path d="M132.054,79.052L131.84,79.052" style="fill:none;stroke:#000;stroke-width:1px;"/><path d="M119.188,56.683C119.598,56.396 120.145,55.777 120.683,55.508C121.889,54.905 123.23,54.708 124.687,54.708C125.391,54.708 126.115,54.701 126.662,54.975C127.061,55.174 127.735,55.193 127.997,55.455C128.158,55.616 128.697,55.515 128.851,55.669C129.179,55.997 130.506,56.261 130.506,56.683" style="fill:none;stroke:#000;stroke-width:1px;"/><path id="left-ear" serif:id="left ear" d="M135.219,8.906L139.267,0.5L143.625,8.594" style="fill:none;stroke:#000;stroke-width:1px;"/><path d="M162.927,8.906L166.975,0.5L171.333,8.594" style="fill:none;stroke:#000;stroke-width:1px;"/><path d="M147.05,11.085L159.503,11.085" style="fill:none;stroke:#000;stroke-width:1px;"/><path d="M153.588,13.887L157.635,22.604L161.993,14.198" style="fill:none;stroke:#000;stroke-width:1px;"/><path d="M160.437,16.689L154.889,16.689" style="fill:none;stroke:#000;stroke-width:1px;"/><path d="M166.663,27.274L166.663,39.104" style="fill:none;stroke:#000;stroke-width:1px;"/><path d="M165.999,40.661L166.07,53.114" style="fill:none;stroke:#000;stroke-width:1px;"/><path d="M164.788,54.359L164.788,66.812" style="fill:none;stroke:#000;stroke-width:1px;"/><path d="M166.663,68.68L166.663,81.133" style="fill:none;stroke:#000;stroke-width:1px;"/><path d="M166.663,83.624L166.663,89.85" style="fill:none;stroke:#000;stroke-width:1px;"/><path d="M159.209,83.624L159.209,89.85" style="fill:none;stroke:#000;stroke-width:1px;"/><path d="M166.656,89.89C166.656,90.319 166.353,90.686 166.072,90.967C165.942,91.097 165.85,91.309 165.707,91.405C165.46,91.569 165.216,91.805 164.959,91.934C164.868,91.979 164.766,91.994 164.667,92.043C164.619,92.067 164.485,92.043 164.43,92.043L163.773,92.043C163.569,92.043 163.185,92.114 163.007,92.025C162.888,91.965 162.665,92.032 162.533,91.988C162.44,91.957 162.317,92.001 162.223,91.97C161.795,91.827 161.41,91.691 161.019,91.496C160.935,91.454 160.834,91.295 160.8,91.222C160.755,91.125 160.628,91.062 160.581,90.967C160.533,90.87 160.416,90.849 160.362,90.766C160.232,90.565 160.099,90.466 159.961,90.328C159.843,90.21 159.762,90.046 159.632,89.982C159.512,89.921 159.367,89.598 159.231,89.598" style="fill:none;stroke:#000;stroke-width:1px;"/><path d="M155.68,83.624L155.68,89.598" style="fill:none;stroke:#000;stroke-width:1px;"/><path d="M148.534,83.624L148.498,89.85" style="fill:none;stroke:#000;stroke-width:1px;"/><path d="M155.767,89.495C155.767,89.645 155.73,89.782 155.66,89.923C155.603,90.037 155.717,90.236 155.66,90.35C155.608,90.454 155.694,90.815 155.624,90.885C155.578,90.931 155.522,91.019 155.482,91.098C155.314,91.434 154.639,91.395 154.306,91.562C154.041,91.694 153.781,91.646 153.522,91.775C153.165,91.954 152.407,92.14 151.954,91.989C151.668,91.894 151.388,91.729 151.099,91.633C150.813,91.537 150.52,91.468 150.28,91.348C150.234,91.325 150.103,91.349 150.066,91.312C149.951,91.197 149.704,91.123 149.603,90.92C149.449,90.613 149.129,90.304 148.926,90.101C148.748,89.923 148.701,89.734 148.498,89.531" style="fill:none;stroke:#000;stroke-width:1px;"/><path d="M134.134,86.459C134.576,86.459 135.06,86.495 135.524,86.495C135.653,86.495 135.945,86.552 136.058,86.495C136.808,86.12 137.627,85.904 138.41,85.604C139.359,85.24 140.33,85.177 141.403,85.177C141.968,85.177 142.47,85.158 142.935,85.39C143.455,85.65 143.926,86.054 144.182,86.566C144.269,86.739 144.276,87.052 144.396,87.172C144.515,87.291 144.448,87.827 144.503,87.991C144.704,88.595 144.477,89.443 144.147,89.773C144.092,89.828 144.077,90.019 144.04,90.094C143.847,90.48 143.711,90.989 143.291,91.198C142.923,91.383 142.639,91.685 142.258,91.875C141.65,92.179 140.963,92.438 140.298,92.659C140.042,92.745 139.7,92.574 139.443,92.659C138.616,92.935 137.716,92.517 136.949,92.517" style="fill:none;stroke:#000;stroke-width:1px;"/><path d="M134.134,78.977C136.043,78.977 137.12,77.559 138.232,76.447C138.394,76.285 138.572,75.929 138.766,75.734C139.354,75.147 140.043,74.392 140.37,73.739C140.745,72.989 141.332,72.267 141.332,71.388C141.332,71.221 141.475,70.747 141.332,70.604" style="fill:none;stroke:#000;stroke-width:1px;"/><path d="M138.339,61.553C138.154,61.553 138.077,61.017 138.018,60.841C137.8,60.187 137.547,59.506 137.234,58.881C136.983,58.38 136.532,57.962 136.094,57.67C135.933,57.562 135.732,57.521 135.631,57.42C135.587,57.377 135.417,57.373 135.417,57.313" style="fill:none;stroke:#000;stroke-width:1px;"/><path d="M152.947,60.912C153.252,60.912 153.669,60.538 153.909,60.378C154.007,60.313 154.099,60.123 154.159,60.093C154.53,59.907 154.838,59.485 155.157,59.166C155.791,58.532 156.12,57.667 156.546,56.815C156.769,56.369 156.984,56.081 157.152,55.746C157.26,55.529 157.437,55.405 157.437,55.14" style="fill:none;stroke:#000;stroke-width:1px;"/><path d="M150.453,64.653L150.489,64.653" style="fill:none;stroke:#000;stroke-width:1px;"/><path d="M163.53,50.829C163.477,50.865 163.423,50.971 163.423,51.042" style="fill:none;stroke:#000;stroke-width:1px;"/><path d="M96.321,84.374C96.162,84.434 96.26,84.861 96.224,85.006C96.189,85.146 96.238,85.392 96.175,85.517C96.089,85.689 96.118,85.86 96.054,86.052C95.934,86.411 95.852,86.747 95.689,87.074C95.531,87.389 95.262,87.638 95.081,87.95C95.02,88.054 94.871,88.141 94.837,88.242C94.762,88.467 94.593,88.535 94.497,88.728C94.141,89.439 93.423,90.189 92.648,90.577C92.427,90.687 92.205,90.981 91.992,91.087C91.852,91.157 91.724,91.331 91.627,91.428C91.534,91.52 91.32,91.613 91.213,91.72C90.869,92.064 90.351,92.431 89.924,92.644C89.867,92.673 89.721,92.644 89.656,92.644C89.496,92.644 89.315,92.668 89.146,92.668" style="fill:none;stroke:#000;stroke-width:1px;"/><path d="M93.755,96.411C93.422,96.577 93.338,96.867 93.042,97.06C92.816,97.206 92.576,97.472 92.458,97.708C92.367,97.891 92.14,98.011 92.036,98.195C91.75,98.7 91.278,99.011 91.128,99.46C90.843,100.315 90.869,101.226 90.869,102.151C90.869,102.545 90.83,103.015 90.999,103.351C91.282,103.919 91.548,104.385 91.809,104.908C91.92,105.13 92.16,105.252 92.263,105.459C92.491,105.915 92.924,106.25 93.301,106.627C93.456,106.782 93.738,106.884 93.82,107.049C93.864,107.137 94.015,107.109 94.015,107.211" style="fill:none;stroke:#000;stroke-width:1px;"/><path d="M87.074,96.281C86.634,96.281 86.25,97.073 85.939,97.384C85.784,97.539 85.586,97.661 85.453,97.838C84.933,98.531 84.315,98.79 84.091,99.687C83.627,101.539 84.377,103.465 85.063,105.07C85.106,105.169 85.283,105.304 85.355,105.395C85.784,105.933 86.111,106.604 86.588,107.081C86.75,107.243 86.978,107.342 87.107,107.47C87.172,107.535 87.334,107.556 87.334,107.632" style="fill:none;stroke:#000;stroke-width:1px;"/><path d="M93.699,113.768C93.973,114.043 94.324,114.443 94.575,114.778C94.793,115.068 95.156,115.302 95.319,115.628C95.46,115.91 95.831,115.96 95.983,116.266C96.233,116.766 96.568,117.377 96.568,117.94" style="fill:none;stroke:#000;stroke-width:1px;"/><path d="M100.341,114.512C100.341,114.712 100.967,114.672 101.164,114.672C102.119,114.672 102.922,114.365 103.821,114.14C104.92,113.866 106.001,113.352 106.983,113.025C107.124,112.978 107.364,113.025 107.514,113.025C108.098,113.025 108.533,113.078 109.028,113.326C109.38,113.502 109.644,113.959 109.905,114.22C109.972,114.287 109.983,114.426 110.011,114.512C110.072,114.695 110.231,114.905 110.304,115.123C110.37,115.324 110.394,115.571 110.49,115.761C110.705,116.191 110.702,116.504 110.702,117.036C110.702,117.324 110.745,117.661 110.676,117.94C110.569,118.366 110.314,118.614 110.091,118.949C109.86,119.296 109.481,119.763 109.108,119.95C108.824,120.092 108.485,120.138 108.205,120.278C107.81,120.475 107.317,120.54 106.876,120.65C106.785,120.673 106.676,120.627 106.584,120.65C105.535,120.912 104.413,120.756 103.343,120.756" style="fill:none;stroke:#000;stroke-width:1px;"/><path d="M148.652,12.875C148.487,12.875 148.055,12.946 147.932,13.069C147.905,13.096 147.822,13.069 147.794,13.096C147.72,13.17 147.543,13.328 147.407,13.373C147.178,13.449 147.003,13.644 146.825,13.733C146.59,13.85 146.282,14.083 146.05,14.314" style="fill:none;stroke:#000;stroke-width:1px;"/><path d="M166.597,12.986C167.157,12.986 167.519,13.17 167.981,13.401C168.146,13.483 168.364,13.482 168.535,13.567C168.739,13.669 169.008,13.881 169.171,14.037C169.22,14.084 169.292,14.231 169.337,14.231" style="fill:none;stroke:#000;stroke-width:1px;"/><path d="M172.298,12.847C172.497,13.244 172.811,13.47 173.156,13.816C173.292,13.952 173.472,14.14 173.655,14.231C173.698,14.253 173.758,14.362 173.793,14.397C173.867,14.471 174.003,14.579 174.097,14.674C174.245,14.821 174.332,15.102 174.457,15.227C174.494,15.264 174.515,15.399 174.54,15.449C174.675,15.718 174.712,16.014 174.845,16.279C174.883,16.356 174.834,16.48 174.872,16.556C175.009,16.83 174.983,17.169 174.983,17.497C174.983,17.62 175.007,17.78 174.955,17.884C174.916,17.962 174.968,18.08 174.928,18.161C174.844,18.329 174.959,18.593 174.9,18.77C174.778,19.135 174.742,19.64 174.568,19.988C174.538,20.047 174.597,20.15 174.568,20.209C174.463,20.419 174.534,20.718 174.429,20.928C174.21,21.366 174.039,21.888 173.738,22.34C173.652,22.469 173.439,22.605 173.378,22.727C173.254,22.975 173.052,23.221 172.797,23.392C172.621,23.508 172.314,23.514 172.188,23.641" style="fill:none;stroke:#000;stroke-width:1px;"/><path d="M133.811,12.737C133.765,12.803 133.67,12.849 133.59,12.903C133.411,13.022 133.291,13.229 133.147,13.373C132.905,13.615 132.778,13.975 132.566,14.259C132.174,14.781 131.866,15.326 131.597,15.864C131.468,16.122 131.474,16.553 131.348,16.805C131.298,16.905 131.372,17.061 131.32,17.165C131.251,17.304 131.333,17.586 131.293,17.746C131.244,17.942 131.356,18.191 131.293,18.382C131.226,18.582 131.302,18.824 131.237,19.019C131.095,19.445 131.138,20.217 131.265,20.596C131.302,20.707 131.293,20.846 131.348,20.956C131.541,21.342 131.756,21.53 132.068,21.842C132.165,21.939 132.404,22.038 132.483,22.174C132.614,22.4 132.909,22.79 133.147,22.949C133.277,23.035 133.317,23.172 133.424,23.226C133.556,23.291 133.668,23.585 133.783,23.585" style="fill:none;stroke:#000;stroke-width:1px;"/><path d="M126.191,27.274L114.983,38.482" style="fill:none;stroke:#000;stroke-width:1px;"/><path d="M111.247,42.217L105.644,51.557" style="fill:none;stroke:#000;stroke-width:1px;"/><path d="M113.115,54.67L111.87,56.85" style="fill:none;stroke:#000;stroke-width:1px;"/><path d="M115.917,54.67L114.361,56.538" style="fill:none;stroke:#000;stroke-width:1px;"/></g><g id="Table"><path d="M67.973,81.133L80.426,81.133" style="fill:none;stroke:#000;stroke-width:1px;"/><path d="M82.294,81.133L93.502,81.133" style="fill:none;stroke:#000;stroke-width:1px;"/><path d="M68.596,107.907L80.426,107.907" style="fill:none;stroke:#000;stroke-width:1px;"/><path d="M63.615,111.02L74.823,111.02" style="fill:none;stroke:#000;stroke-width:1px;"/><path d="M77.313,111.02L88.521,111.02" style="fill:none;stroke:#000;stroke-width:1px;"/><path d="M68.596,136.549L80.426,136.549" style="fill:none;stroke:#000;stroke-width:1px;"/><path d="M82.294,136.549L93.502,136.549" style="fill:none;stroke:#000;stroke-width:1px;"/><path d="M62.992,137.794L75.445,137.794" style="fill:none;stroke:#000;stroke-width:1px;"/><path d="M77.002,138.105L89.143,138.105" style="fill:none;stroke:#000;stroke-width:1px;"/><path d="M90.389,138.105L102.842,138.105" style="fill:none;stroke:#000;stroke-width:1px;"/><path d="M104.398,138.105L116.229,138.105" style="fill:none;stroke:#000;stroke-width:1px;"/><path d="M118.097,138.105L130.238,138.105" style="fill:none;stroke:#000;stroke-width:1px;"/><path d="M131.795,138.105L143.625,138.105" style="fill:none;stroke:#000;stroke-width:1px;"/><path d="M145.182,138.105L157.635,138.105" style="fill:none;stroke:#000;stroke-width:1px;"/><path d="M159.191,138.105L171.333,138.105" style="fill:none;stroke:#000;stroke-width:1px;"/><path d="M172.89,138.105L185.031,138.105" style="fill:none;stroke:#000;stroke-width:1px;"/><path d="M186.588,138.105L198.73,138.105" style="fill:none;stroke:#000;stroke-width:1px;"/><path d="M199.352,136.237L195.616,136.237" style="fill:none;stroke:#000;stroke-width:1px;"/><path d="M194.682,136.237L191.258,136.237" style="fill:none;stroke:#000;stroke-width:1px;"/><path d="M189.701,136.237L177.56,136.237" style="fill:none;stroke:#000;stroke-width:1px;"/><path d="M176.003,136.237L163.861,136.237" style="fill:none;stroke:#000;stroke-width:1px;"/><path d="M162.616,136.237L150.474,136.237" style="fill:none;stroke:#000;stroke-width:1px;"/><path d="M148.606,136.237L136.776,136.237" style="fill:none;stroke:#000;stroke-width:1px;"/><path d="M135.219,136.237L122.766,136.237" style="fill:none;stroke:#000;stroke-width:1px;"/><path d="M121.521,136.237L109.38,136.237" style="fill:none;stroke:#000;stroke-width:1px;"/><path d="M107.823,136.237L95.681,136.237" style="fill:none;stroke:#000;stroke-width:1px;"/><path d="M168.843,80.822L180.984,80.822" style="fill:none;stroke:#000;stroke-width:1px;"/><path d="M182.541,80.822L194.994,80.822" style="fill:none;stroke:#000;stroke-width:1px;"/><path d="M197.484,82.378L209.315,94.209" style="fill:none;stroke:#000;stroke-width:1px;"/><path d="M209.315,96.077L221.145,107.907" style="fill:none;stroke:#000;stroke-width:1px;"/><path d="M223.013,110.674L210.56,110.674" style="fill:none;stroke:#000;stroke-width:1px;"/><path d="M204.956,108.218L208.692,108.218" style="fill:none;stroke:#000;stroke-width:1px;"/><path d="M208.381,110.398L208.381,122.85" style="fill:none;stroke:#000;stroke-width:1px;"/><path d="M200.909,110.398L200.909,122.85" style="fill:none;stroke:#000;stroke-width:1px;"/><path d="M200.909,124.096L200.909,136.549" style="fill:none;stroke:#000;stroke-width:1px;"/><path d="M208.381,124.096L208.381,136.549" style="fill:none;stroke:#000;stroke-width:1px;"/><path d="M208.381,137.794L208.381,150.247" style="fill:none;stroke:#000;stroke-width:1px;"/><path d="M200.909,137.794L200.909,150.247" style="fill:none;stroke:#000;stroke-width:1px;"/><path d="M190.013,108.218L177.56,108.218" style="fill:none;stroke:#000;stroke-width:1px;"/><path d="M176.314,108.218L163.861,108.218" style="fill:none;stroke:#000;stroke-width:1px;"/><path d="M162.616,108.218L150.163,108.218" style="fill:none;stroke:#000;stroke-width:1px;"/><path d="M148.918,108.218L136.465,108.218" style="fill:none;stroke:#000;stroke-width:1px;"/><path d="M135.219,108.218L122.766,108.218" style="fill:none;stroke:#000;stroke-width:1px;"/><path d="M121.521,108.218L109.068,108.218" style="fill:none;stroke:#000;stroke-width:1px;"/><path d="M107.823,108.218L95.37,108.218" style="fill:none;stroke:#000;stroke-width:1px;"/><path d="M113.427,110.709L125.88,110.709" style="fill:none;stroke:#000;stroke-width:1px;"/><path d="M127.125,110.709L139.578,110.709" style="fill:none;stroke:#000;stroke-width:1px;"/><path d="M140.823,110.709L153.276,110.709" style="fill:none;stroke:#000;stroke-width:1px;"/><path d="M154.522,110.709L166.975,110.709" style="fill:none;stroke:#000;stroke-width:1px;"/><path d="M168.22,110.709L180.673,110.709" style="fill:none;stroke:#000;stroke-width:1px;"/><path d="M181.918,110.709L194.371,110.709" style="fill:none;stroke:#000;stroke-width:1px;"/><path d="M191.258,108.218L203.711,108.218" style="fill:none;stroke:#000;stroke-width:1px;"/></g></g></g><defs><linearGradient id="_Linear1" x1="0" y1="0" x2="1" y2="0" gradientUnits="userSpaceOnUse" gradientTransform="matrix(-4.53114,5.29168,-5.29168,-4.53114,261.472,113.836)"><stop offset="0" style="stop-color:#f00;stop-opacity:1"/><stop offset="1" style="stop-color:#800;stop-opacity:1"/></linearGradient><linearGradient id="_Linear2" x1="0" y1="0" x2="1" y2="0" gradientUnits="userSpaceOnUse" gradientTransform="matrix(5.93042,0.58681,-0.58681,5.93042,236.813,120.877)"><stop offset="0" style="stop-color:#ff0018;stop-opacity:1"/><stop offset="1" style="stop-color:#99000e;stop-opacity:1"/></linearGradient><linearGradient id="_Linear3" x1="0" y1="0" x2="1" y2="0" gradientUnits="userSpaceOnUse" gradientTransform="matrix(-0.176043,1.64307,-1.64307,-0.176043,238.984,115.596)"><stop offset="0" style="stop-color:#ff0018;stop-opacity:1"/><stop offset="1" style="stop-color:#7e000c;stop-opacity:1"/></linearGradient><linearGradient id="_Linear4" x1="0" y1="0" x2="1" y2="0" gradientUnits="userSpaceOnUse" gradientTransform="matrix(-8.80215,-5.28129,5.28129,-8.80215,269.264,124.985)"><stop offset="0" style="stop-color:#e72a15;stop-opacity:1"/><stop offset="1" style="stop-color:#970f00;stop-opacity:1"/></linearGradient><linearGradient id="_Linear5" x1="0" y1="0" x2="1" y2="0" gradientUnits="userSpaceOnUse" gradientTransform="matrix(-8.80215,-5.28129,5.28129,-8.80215,269.264,124.985)"><stop offset="0" style="stop-color:#e72a15;stop-opacity:1"/><stop offset="1" style="stop-color:#970f00;stop-opacity:1"/></linearGradient><linearGradient id="_Linear6" x1="0" y1="0" x2="1" y2="0" gradientUnits="userSpaceOnUse" gradientTransform="matrix(-7.62853,2.93405,-2.93405,-7.62853,252.833,109.728)"><stop offset="0" style="stop-color:#ff0007;stop-opacity:1"/><stop offset="1" style="stop-color:#9f000f;stop-opacity:1"/></linearGradient><linearGradient id="_Linear7" x1="0" y1="0" x2="1" y2="0" gradientUnits="userSpaceOnUse" gradientTransform="matrix(-2.64064,8.50874,-8.50874,-2.64064,255.474,124.691)"><stop offset="0" style="stop-color:#e6301a;stop-opacity:1"/><stop offset="1" style="stop-color:#993600;stop-opacity:1"/></linearGradient></defs></svg>