<?xml version="1.0" encoding="UTF-8" standalone="no"?><!DOCTYPE svg PUBLIC "-//W3C//DTD SVG 1.1//EN" "http://www.w3.org/Graphics/SVG/1.1/DTD/svg11.dtd"><svg width="636px" height="499px" version="1.1" xmlns="http://www.w3.org/2000/svg" xmlns:xlink="http://www.w3.org/1999/xlink" xml:space="preserve" xmlns:serif="http://www.serif.com/" style="fill-rule:evenodd;clip-rule:evenodd;stroke-linecap:round;stroke-linejoin:round;stroke-miterlimit:1.5;"><path d="M272.057,182.317L272.057,0.375" style="fill:none;stroke:#000;stroke-width:0.75px;"/><path d="M272.057,182.317L635.078,362.828L363.393,498.67L1.372,317.66L272.057,182.317Z" style="fill:#a4a4a4;"/><path id="Wall" d="M1.372,15.967L272.057,0.375L272.057,182.317L0.375,317.161L1.372,15.967Z" style="fill:url(#_Linear1);"/><path d="M635.078,1.585L272.057,0.375L272.237,181.407L635.3,362.939L635.078,1.585Z" style="fill:url(#_Linear2);"/><g id="Floor-Tiles" serif:id="Floor Tiles"><g id="floor-tiles" serif:id="floor tiles"><path d="M347.525,475.819L362.618,483.366L347.613,490.868L332.607,483.278L347.525,475.819Z" style="fill:#b3b3b3;"/><path d="M377.711,490.912L362.618,483.366L377.711,475.819L392.805,483.366L377.711,490.912Z" style="fill:#b3b3b3;"/><path d="M362.618,468.272L332.607,483.278L362.618,498.459L392.805,483.366L362.618,468.272Z" style="fill:none;stroke:#bebebe;stroke-width:0.75px;"/><path d="M377.711,475.819L347.536,490.907" style="fill:none;stroke:#bebebe;stroke-width:0.75px;"/><path d="M347.525,475.819L377.711,490.912" style="fill:none;stroke:#bebebe;stroke-width:0.75px;"/></g><g id="floor-tiles1" serif:id="floor tiles"><path d="M377.535,460.72L392.629,468.267L377.623,475.769L362.618,468.178L377.535,460.72Z" style="fill:#b3b3b3;"/><path d="M407.722,475.813L392.629,468.267L407.722,460.72L422.815,468.267L407.722,475.813Z" style="fill:#b3b3b3;"/><path d="M392.629,453.173L362.618,468.178L392.629,483.36L422.815,468.267L392.629,453.173Z" style="fill:none;stroke:#bebebe;stroke-width:0.75px;"/><path d="M407.722,460.72L377.546,475.808" style="fill:none;stroke:#bebebe;stroke-width:0.75px;"/><path d="M377.535,460.72L407.722,475.813" style="fill:none;stroke:#bebebe;stroke-width:0.75px;"/></g><g id="floor-tiles2" serif:id="floor tiles"><path d="M407.722,445.676L422.815,453.223L407.81,460.725L392.805,453.135L407.722,445.676Z" style="fill:#b3b3b3;"/><path d="M437.909,460.77L422.815,453.223L437.909,445.676L453.002,453.223L437.909,460.77Z" style="fill:#b3b3b3;"/><path d="M422.815,438.129L392.805,453.135L422.815,468.316L453.002,453.223L422.815,438.129Z" style="fill:none;stroke:#bebebe;stroke-width:0.75px;"/><path d="M437.909,445.676L407.733,460.764" style="fill:none;stroke:#bebebe;stroke-width:0.75px;"/><path d="M407.722,445.676L437.909,460.77" style="fill:none;stroke:#bebebe;stroke-width:0.75px;"/></g><g id="floor-tiles3" serif:id="floor tiles"><path d="M438.219,430.428L453.312,437.974L438.307,445.477L423.302,437.886L438.219,430.428Z" style="fill:#b3b3b3;"/><path d="M468.406,445.521L453.312,437.974L468.406,430.428L483.499,437.974L468.406,445.521Z" style="fill:#b3b3b3;"/><path d="M453.312,422.881L423.302,437.886L453.312,453.068L483.499,437.974L453.312,422.881Z" style="fill:none;stroke:#bebebe;stroke-width:0.75px;"/><path d="M468.406,430.428L438.23,445.515" style="fill:none;stroke:#bebebe;stroke-width:0.75px;"/><path d="M438.219,430.428L468.406,445.521" style="fill:none;stroke:#bebebe;stroke-width:0.75px;"/></g><g id="floor-tiles4" serif:id="floor tiles"><path d="M317.294,460.748L332.387,468.294L317.382,475.797L302.376,468.206L317.294,460.748Z" style="fill:#b3b3b3;"/><path d="M347.48,475.841L332.387,468.294L347.48,460.748L362.574,468.294L347.48,475.841Z" style="fill:#b3b3b3;"/><path d="M332.387,453.201L302.376,468.206L332.387,483.388L362.574,468.294L332.387,453.201Z" style="fill:none;stroke:#bebebe;stroke-width:0.75px;"/><path d="M347.48,460.748L317.305,475.835" style="fill:none;stroke:#bebebe;stroke-width:0.75px;"/><path d="M317.294,460.748L347.48,475.841" style="fill:none;stroke:#bebebe;stroke-width:0.75px;"/></g><g id="floor-tiles5" serif:id="floor tiles"><path d="M347.525,445.632L362.618,453.179L347.613,460.681L332.607,453.091L347.525,445.632Z" style="fill:#b3b3b3;"/><path d="M377.711,460.725L362.618,453.179L377.711,445.632L392.805,453.179L377.711,460.725Z" style="fill:#b3b3b3;"/><path d="M362.618,438.085L332.607,453.091L362.618,468.272L392.805,453.179L362.618,438.085Z" style="fill:none;stroke:#bebebe;stroke-width:0.75px;"/><path d="M377.711,445.632L347.536,460.72" style="fill:none;stroke:#bebebe;stroke-width:0.75px;"/><path d="M347.525,445.632L377.711,460.725" style="fill:none;stroke:#bebebe;stroke-width:0.75px;"/></g><g id="floor-tiles6" serif:id="floor tiles"><path d="M377.623,430.583L392.717,438.129L377.711,445.632L362.706,438.041L377.623,430.583Z" style="fill:#b3b3b3;"/><path d="M407.81,445.676L392.717,438.129L407.81,430.583L422.904,438.129L407.81,445.676Z" style="fill:#b3b3b3;"/><path d="M392.717,423.036L362.706,438.041L392.717,453.223L422.904,438.129L392.717,423.036Z" style="fill:none;stroke:#bebebe;stroke-width:0.75px;"/><path d="M407.81,430.583L377.635,445.67" style="fill:none;stroke:#bebebe;stroke-width:0.75px;"/><path d="M377.623,430.583L407.81,445.676" style="fill:none;stroke:#bebebe;stroke-width:0.75px;"/></g><g id="floor-tiles7" serif:id="floor tiles"><path d="M407.722,415.179L422.815,422.726L407.81,430.228L392.805,422.638L407.722,415.179Z" style="fill:#b3b3b3;"/><path d="M437.909,430.273L422.815,422.726L437.909,415.179L453.002,422.726L437.909,430.273Z" style="fill:#b3b3b3;"/><path d="M422.815,407.632L392.805,422.638L422.815,437.819L453.002,422.726L422.815,407.632Z" style="fill:none;stroke:#bebebe;stroke-width:0.75px;"/><path d="M437.909,415.179L407.733,430.267" style="fill:none;stroke:#bebebe;stroke-width:0.75px;"/><path d="M407.722,415.179L437.909,430.273" style="fill:none;stroke:#bebebe;stroke-width:0.75px;"/></g><g id="floor-tiles8" serif:id="floor tiles"><path d="M498.234,400.597L513.328,408.144L498.322,415.647L483.317,408.056L498.234,400.597Z" style="fill:#b3b3b3;"/><path d="M528.421,415.691L513.328,408.144L528.421,400.597L543.514,408.144L528.421,415.691Z" style="fill:#b3b3b3;"/><path d="M513.328,393.05L483.317,408.056L513.328,423.237L543.514,408.144L513.328,393.05Z" style="fill:none;stroke:#bebebe;stroke-width:0.75px;"/><path d="M528.421,400.597L498.245,415.685" style="fill:none;stroke:#bebebe;stroke-width:0.75px;"/><path d="M498.234,400.597L528.421,415.691" style="fill:none;stroke:#bebebe;stroke-width:0.75px;"/></g><g id="floor-tiles9" serif:id="floor tiles"><path d="M528.245,385.498L543.338,393.045L528.333,400.547L513.328,392.957L528.245,385.498Z" style="fill:#b3b3b3;"/><path d="M558.432,400.592L543.338,393.045L558.432,385.498L573.525,393.045L558.432,400.592Z" style="fill:#b3b3b3;"/><path d="M543.338,377.951L513.328,392.957L543.338,408.138L573.525,393.045L543.338,377.951Z" style="fill:none;stroke:#bebebe;stroke-width:0.75px;"/><path d="M558.432,385.498L528.256,400.586" style="fill:none;stroke:#bebebe;stroke-width:0.75px;"/><path d="M528.245,385.498L558.432,400.592" style="fill:none;stroke:#bebebe;stroke-width:0.75px;"/></g><g id="floor-tiles10" serif:id="floor tiles"><path d="M558.432,370.454L573.525,378.001L558.52,385.504L543.514,377.913L558.432,370.454Z" style="fill:#b3b3b3;"/><path d="M588.618,385.548L573.525,378.001L588.618,370.454L603.712,378.001L588.618,385.548Z" style="fill:#b3b3b3;"/><path d="M573.525,362.908L543.514,377.913L573.525,393.095L603.712,378.001L573.525,362.908Z" style="fill:none;stroke:#bebebe;stroke-width:0.75px;"/><path d="M588.618,370.454L558.443,385.542" style="fill:none;stroke:#bebebe;stroke-width:0.75px;"/><path d="M558.432,370.454L588.618,385.548" style="fill:none;stroke:#bebebe;stroke-width:0.75px;"/></g><g id="floor-tiles11" serif:id="floor tiles"><path d="M588.929,355.206L604.022,362.753L589.017,370.255L574.011,362.664L588.929,355.206Z" style="fill:#b3b3b3;"/><path d="M619.115,370.299L604.022,362.753L619.115,355.206L634.209,362.753L619.115,370.299Z" style="fill:#b3b3b3;"/><path d="M604.022,347.659L574.011,362.664L604.022,377.846L634.209,362.753L604.022,347.659Z" style="fill:none;stroke:#bebebe;stroke-width:0.75px;"/><path d="M619.115,355.206L588.94,370.294" style="fill:none;stroke:#bebebe;stroke-width:0.75px;"/><path d="M588.929,355.206L619.115,370.299" style="fill:none;stroke:#bebebe;stroke-width:0.75px;"/></g><g id="floor-tiles12" serif:id="floor tiles"><path d="M468.003,385.526L483.097,393.072L468.091,400.575L453.086,392.984L468.003,385.526Z" style="fill:#b3b3b3;"/><path d="M498.19,400.619L483.097,393.072L498.19,385.526L513.283,393.072L498.19,400.619Z" style="fill:#b3b3b3;"/><path d="M483.097,377.979L453.086,392.984L483.097,408.166L513.283,393.072L483.097,377.979Z" style="fill:none;stroke:#bebebe;stroke-width:0.75px;"/><path d="M498.19,385.526L468.014,400.614" style="fill:none;stroke:#bebebe;stroke-width:0.75px;"/><path d="M468.003,385.526L498.19,400.619" style="fill:none;stroke:#bebebe;stroke-width:0.75px;"/></g><g id="floor-tiles13" serif:id="floor tiles"><path d="M498.234,370.41L513.328,377.957L498.322,385.46L483.317,377.869L498.234,370.41Z" style="fill:#b3b3b3;"/><path d="M528.421,385.504L513.328,377.957L528.421,370.41L543.514,377.957L528.421,385.504Z" style="fill:#b3b3b3;"/><path d="M513.328,362.864L483.317,377.869L513.328,393.05L543.514,377.957L513.328,362.864Z" style="fill:none;stroke:#bebebe;stroke-width:0.75px;"/><path d="M528.421,370.41L498.245,385.498" style="fill:none;stroke:#bebebe;stroke-width:0.75px;"/><path d="M498.234,370.41L528.421,385.504" style="fill:none;stroke:#bebebe;stroke-width:0.75px;"/></g><g id="floor-tiles14" serif:id="floor tiles"><path d="M528.333,355.361L543.426,362.908L528.421,370.41L513.416,362.819L528.333,355.361Z" style="fill:#b3b3b3;"/><path d="M558.52,370.454L543.426,362.908L558.52,355.361L573.613,362.908L558.52,370.454Z" style="fill:#b3b3b3;"/><path d="M543.426,347.814L513.416,362.819L543.426,378.001L573.613,362.908L543.426,347.814Z" style="fill:none;stroke:#bebebe;stroke-width:0.75px;"/><path d="M558.52,355.361L528.344,370.449" style="fill:none;stroke:#bebebe;stroke-width:0.75px;"/><path d="M528.333,355.361L558.52,370.454" style="fill:none;stroke:#bebebe;stroke-width:0.75px;"/></g><g id="floor-tiles15" serif:id="floor tiles"><path d="M558.432,339.957L573.525,347.504L558.52,355.007L543.514,347.416L558.432,339.957Z" style="fill:#b3b3b3;"/><path d="M588.618,355.051L573.525,347.504L588.618,339.957L603.712,347.504L588.618,355.051Z" style="fill:#b3b3b3;"/><path d="M573.525,332.411L543.514,347.416L573.525,362.598L603.712,347.504L573.525,332.411Z" style="fill:none;stroke:#bebebe;stroke-width:0.75px;"/><path d="M588.618,339.957L558.443,355.045" style="fill:none;stroke:#bebebe;stroke-width:0.75px;"/><path d="M558.432,339.957L588.618,355.051" style="fill:none;stroke:#bebebe;stroke-width:0.75px;"/></g><g id="floor-tiles16" serif:id="floor tiles"><path d="M437.86,369.919L452.954,377.465L437.948,384.968L422.943,377.377L437.86,369.919Z" style="fill:#b3b3b3;"/><path d="M468.047,385.012L452.954,377.465L468.047,369.919L483.141,377.465L468.047,385.012Z" style="fill:#b3b3b3;"/><path d="M452.954,362.372L422.943,377.377L452.954,392.559L483.141,377.465L452.954,362.372Z" style="fill:none;stroke:#bebebe;stroke-width:0.75px;"/><path d="M468.047,369.919L437.872,385.006" style="fill:none;stroke:#bebebe;stroke-width:0.75px;"/><path d="M437.86,369.919L468.047,385.012" style="fill:none;stroke:#bebebe;stroke-width:0.75px;"/></g><g id="floor-tiles17" serif:id="floor tiles"><path d="M467.871,354.819L482.964,362.366L467.959,369.869L452.954,362.278L467.871,354.819Z" style="fill:#b3b3b3;"/><path d="M498.058,369.913L482.964,362.366L498.058,354.819L513.151,362.366L498.058,369.913Z" style="fill:#b3b3b3;"/><path d="M482.964,347.273L452.954,362.278L482.964,377.46L513.151,362.366L482.964,347.273Z" style="fill:none;stroke:#bebebe;stroke-width:0.75px;"/><path d="M498.058,354.819L467.882,369.907" style="fill:none;stroke:#bebebe;stroke-width:0.75px;"/><path d="M467.871,354.819L498.058,369.913" style="fill:none;stroke:#bebebe;stroke-width:0.75px;"/></g><g id="floor-tiles18" serif:id="floor tiles"><path d="M498.058,339.776L513.151,347.322L498.146,354.825L483.141,347.234L498.058,339.776Z" style="fill:#b3b3b3;"/><path d="M528.245,354.869L513.151,347.322L528.245,339.776L543.338,347.322L528.245,354.869Z" style="fill:#b3b3b3;"/><path d="M513.151,332.229L483.141,347.234L513.151,362.416L543.338,347.322L513.151,332.229Z" style="fill:none;stroke:#bebebe;stroke-width:0.75px;"/><path d="M528.245,339.776L498.069,354.863" style="fill:none;stroke:#bebebe;stroke-width:0.75px;"/><path d="M498.058,339.776L528.245,354.869" style="fill:none;stroke:#bebebe;stroke-width:0.75px;"/></g><g id="floor-tiles19" serif:id="floor tiles"><path d="M528.555,324.527L543.648,332.074L528.643,339.577L513.638,331.986L528.555,324.527Z" style="fill:#b3b3b3;"/><path d="M558.742,339.621L543.648,332.074L558.742,324.527L573.835,332.074L558.742,339.621Z" style="fill:#b3b3b3;"/><path d="M543.648,316.98L513.638,331.986L543.648,347.167L573.835,332.074L543.648,316.98Z" style="fill:none;stroke:#bebebe;stroke-width:0.75px;"/><path d="M558.742,324.527L528.566,339.615" style="fill:none;stroke:#bebebe;stroke-width:0.75px;"/><path d="M528.555,324.527L558.742,339.621" style="fill:none;stroke:#bebebe;stroke-width:0.75px;"/></g><g id="floor-tiles20" serif:id="floor tiles"><path d="M407.629,354.847L422.723,362.394L407.717,369.896L392.712,362.306L407.629,354.847Z" style="fill:#b3b3b3;"/><path d="M437.816,369.941L422.723,362.394L437.816,354.847L452.91,362.394L437.816,369.941Z" style="fill:#b3b3b3;"/><path d="M422.723,347.3L392.712,362.306L422.723,377.487L452.91,362.394L422.723,347.3Z" style="fill:none;stroke:#bebebe;stroke-width:0.75px;"/><path d="M437.816,354.847L407.641,369.935" style="fill:none;stroke:#bebebe;stroke-width:0.75px;"/><path d="M407.629,354.847L437.816,369.941" style="fill:none;stroke:#bebebe;stroke-width:0.75px;"/></g><g id="floor-tiles21" serif:id="floor tiles"><path d="M437.86,339.732L452.954,347.278L437.948,354.781L422.943,347.19L437.86,339.732Z" style="fill:#b3b3b3;"/><path d="M468.047,354.825L452.954,347.278L468.047,339.732L483.141,347.278L468.047,354.825Z" style="fill:#b3b3b3;"/><path d="M452.954,332.185L422.943,347.19L452.954,362.372L483.141,347.278L452.954,332.185Z" style="fill:none;stroke:#bebebe;stroke-width:0.75px;"/><path d="M468.047,339.732L437.872,354.819" style="fill:none;stroke:#bebebe;stroke-width:0.75px;"/><path d="M437.86,339.732L468.047,354.825" style="fill:none;stroke:#bebebe;stroke-width:0.75px;"/></g><g id="floor-tiles22" serif:id="floor tiles"><path d="M467.959,324.682L483.052,332.229L468.047,339.732L453.042,332.141L467.959,324.682Z" style="fill:#b3b3b3;"/><path d="M498.146,339.776L483.052,332.229L498.146,324.682L513.239,332.229L498.146,339.776Z" style="fill:#b3b3b3;"/><path d="M483.052,317.135L453.042,332.141L483.052,347.322L513.239,332.229L483.052,317.135Z" style="fill:none;stroke:#bebebe;stroke-width:0.75px;"/><path d="M498.146,324.682L467.97,339.77" style="fill:none;stroke:#bebebe;stroke-width:0.75px;"/><path d="M467.959,324.682L498.146,339.776" style="fill:none;stroke:#bebebe;stroke-width:0.75px;"/></g><g id="floor-tiles23" serif:id="floor tiles"><path d="M498.058,309.279L513.151,316.825L498.146,324.328L483.141,316.737L498.058,309.279Z" style="fill:#b3b3b3;"/><path d="M528.245,324.372L513.151,316.825L528.245,309.279L543.338,316.825L528.245,324.372Z" style="fill:#b3b3b3;"/><path d="M513.151,301.732L483.141,316.737L513.151,331.919L543.338,316.825L513.151,301.732Z" style="fill:none;stroke:#bebebe;stroke-width:0.75px;"/><path d="M528.245,309.279L498.069,324.366" style="fill:none;stroke:#bebebe;stroke-width:0.75px;"/><path d="M498.058,309.279L528.245,324.372" style="fill:none;stroke:#bebebe;stroke-width:0.75px;"/></g><g id="floor-tiles24" serif:id="floor tiles"><path d="M287.173,445.754L302.266,453.301L287.261,460.803L272.256,453.213L287.173,445.754Z" style="fill:#b3b3b3;"/><path d="M317.36,460.847L302.266,453.301L317.36,445.754L332.453,453.301L317.36,460.847Z" style="fill:#b3b3b3;"/><path d="M302.266,438.207L272.256,453.213L302.266,468.394L332.453,453.301L302.266,438.207Z" style="fill:none;stroke:#bebebe;stroke-width:0.75px;"/><path d="M317.36,445.754L287.184,460.842" style="fill:none;stroke:#bebebe;stroke-width:0.75px;"/><path d="M287.173,445.754L317.36,460.847" style="fill:none;stroke:#bebebe;stroke-width:0.75px;"/></g><g id="floor-tiles25" serif:id="floor tiles"><path d="M317.183,430.655L332.277,438.202L317.271,445.704L302.266,438.113L317.183,430.655Z" style="fill:#b3b3b3;"/><path d="M347.37,445.748L332.277,438.202L347.37,430.655L362.464,438.202L347.37,445.748Z" style="fill:#b3b3b3;"/><path d="M332.277,423.108L302.266,438.113L332.277,453.295L362.464,438.202L332.277,423.108Z" style="fill:none;stroke:#bebebe;stroke-width:0.75px;"/><path d="M347.37,430.655L317.195,445.743" style="fill:none;stroke:#bebebe;stroke-width:0.75px;"/><path d="M317.183,430.655L347.37,445.748" style="fill:none;stroke:#bebebe;stroke-width:0.75px;"/></g><g id="floor-tiles26" serif:id="floor tiles"><path d="M347.37,415.611L362.464,423.158L347.458,430.661L332.453,423.07L347.37,415.611Z" style="fill:#b3b3b3;"/><path d="M377.557,430.705L362.464,423.158L377.557,415.611L392.651,423.158L377.557,430.705Z" style="fill:#b3b3b3;"/><path d="M362.464,408.064L332.453,423.07L362.464,438.251L392.651,423.158L362.464,408.064Z" style="fill:none;stroke:#bebebe;stroke-width:0.75px;"/><path d="M377.557,415.611L347.382,430.699" style="fill:none;stroke:#bebebe;stroke-width:0.75px;"/><path d="M347.37,415.611L377.557,430.705" style="fill:none;stroke:#bebebe;stroke-width:0.75px;"/></g><g id="floor-tiles27" serif:id="floor tiles"><path d="M377.867,400.363L392.961,407.909L377.955,415.412L362.95,407.821L377.867,400.363Z" style="fill:#b3b3b3;"/><path d="M408.054,415.456L392.961,407.909L408.054,400.363L423.148,407.909L408.054,415.456Z" style="fill:#b3b3b3;"/><path d="M392.961,392.816L362.95,407.821L392.961,423.003L423.148,407.909L392.961,392.816Z" style="fill:none;stroke:#bebebe;stroke-width:0.75px;"/><path d="M408.054,400.363L377.879,415.45" style="fill:none;stroke:#bebebe;stroke-width:0.75px;"/><path d="M377.867,400.363L408.054,415.456" style="fill:none;stroke:#bebebe;stroke-width:0.75px;"/></g><g id="floor-tiles28" serif:id="floor tiles"><path d="M256.942,430.683L272.035,438.229L257.03,445.732L242.025,438.141L256.942,430.683Z" style="fill:#b3b3b3;"/><path d="M287.129,445.776L272.035,438.229L287.129,430.683L302.222,438.229L287.129,445.776Z" style="fill:#b3b3b3;"/><path d="M272.035,423.136L242.025,438.141L272.035,453.323L302.222,438.229L272.035,423.136Z" style="fill:none;stroke:#bebebe;stroke-width:0.75px;"/><path d="M287.129,430.683L256.953,445.77" style="fill:none;stroke:#bebebe;stroke-width:0.75px;"/><path d="M256.942,430.683L287.129,445.776" style="fill:none;stroke:#bebebe;stroke-width:0.75px;"/></g><g id="floor-tiles29" serif:id="floor tiles"><path d="M287.173,415.567L302.266,423.114L287.261,430.616L272.256,423.026L287.173,415.567Z" style="fill:#b3b3b3;"/><path d="M317.36,430.661L302.266,423.114L317.36,415.567L332.453,423.114L317.36,430.661Z" style="fill:#b3b3b3;"/><path d="M302.266,408.02L272.256,423.026L302.266,438.207L332.453,423.114L302.266,408.02Z" style="fill:none;stroke:#bebebe;stroke-width:0.75px;"/><path d="M317.36,415.567L287.184,430.655" style="fill:none;stroke:#bebebe;stroke-width:0.75px;"/><path d="M287.173,415.567L317.36,430.661" style="fill:none;stroke:#bebebe;stroke-width:0.75px;"/></g><g id="floor-tiles30" serif:id="floor tiles"><path d="M317.271,400.518L332.365,408.064L317.36,415.567L302.354,407.976L317.271,400.518Z" style="fill:#b3b3b3;"/><path d="M347.458,415.611L332.365,408.064L347.458,400.518L362.552,408.064L347.458,415.611Z" style="fill:#b3b3b3;"/><path d="M332.365,392.971L302.354,407.976L332.365,423.158L362.552,408.064L332.365,392.971Z" style="fill:none;stroke:#bebebe;stroke-width:0.75px;"/><path d="M347.458,400.518L317.283,415.606" style="fill:none;stroke:#bebebe;stroke-width:0.75px;"/><path d="M317.271,400.518L347.458,415.611" style="fill:none;stroke:#bebebe;stroke-width:0.75px;"/></g><g id="floor-tiles31" serif:id="floor tiles"><path d="M347.37,385.114L362.464,392.661L347.458,400.164L332.453,392.573L347.37,385.114Z" style="fill:#b3b3b3;"/><path d="M377.557,400.208L362.464,392.661L377.557,385.114L392.651,392.661L377.557,400.208Z" style="fill:#b3b3b3;"/><path d="M362.464,377.567L332.453,392.573L362.464,407.754L392.651,392.661L362.464,377.567Z" style="fill:none;stroke:#bebebe;stroke-width:0.75px;"/><path d="M377.557,385.114L347.382,400.202" style="fill:none;stroke:#bebebe;stroke-width:0.75px;"/><path d="M347.37,385.114L377.557,400.208" style="fill:none;stroke:#bebebe;stroke-width:0.75px;"/></g><g id="floor-tiles32" serif:id="floor tiles"><path d="M227.633,415.263L242.726,422.81L227.721,430.312L212.716,422.722L227.633,415.263Z" style="fill:#b3b3b3;"/><path d="M257.82,430.356L242.726,422.81L257.82,415.263L272.913,422.81L257.82,430.356Z" style="fill:#b3b3b3;"/><path d="M242.726,407.716L212.716,422.722L242.726,437.903L272.913,422.81L242.726,407.716Z" style="fill:none;stroke:#bebebe;stroke-width:0.75px;"/><path d="M257.82,415.263L227.644,430.351" style="fill:none;stroke:#bebebe;stroke-width:0.75px;"/><path d="M227.633,415.263L257.82,430.356" style="fill:none;stroke:#bebebe;stroke-width:0.75px;"/></g><g id="floor-tiles33" serif:id="floor tiles"><path d="M257.643,400.164L272.737,407.711L257.732,415.213L242.726,407.622L257.643,400.164Z" style="fill:#b3b3b3;"/><path d="M287.83,415.257L272.737,407.711L287.83,400.164L302.924,407.711L287.83,415.257Z" style="fill:#b3b3b3;"/><path d="M272.737,392.617L242.726,407.622L272.737,422.804L302.924,407.711L272.737,392.617Z" style="fill:none;stroke:#bebebe;stroke-width:0.75px;"/><path d="M287.83,400.164L257.655,415.252" style="fill:none;stroke:#bebebe;stroke-width:0.75px;"/><path d="M257.643,400.164L287.83,415.257" style="fill:none;stroke:#bebebe;stroke-width:0.75px;"/></g><g id="floor-tiles34" serif:id="floor tiles"><path d="M287.83,385.12L302.924,392.667L287.918,400.17L272.913,392.579L287.83,385.12Z" style="fill:#b3b3b3;"/><path d="M318.017,400.214L302.924,392.667L318.017,385.12L333.111,392.667L318.017,400.214Z" style="fill:#b3b3b3;"/><path d="M302.924,377.573L272.913,392.579L302.924,407.76L333.111,392.667L302.924,377.573Z" style="fill:none;stroke:#bebebe;stroke-width:0.75px;"/><path d="M318.017,385.12L287.842,400.208" style="fill:none;stroke:#bebebe;stroke-width:0.75px;"/><path d="M287.83,385.12L318.017,400.214" style="fill:none;stroke:#bebebe;stroke-width:0.75px;"/></g><g id="floor-tiles35" serif:id="floor tiles"><path d="M318.327,369.872L333.421,377.418L318.415,384.921L303.41,377.33L318.327,369.872Z" style="fill:#b3b3b3;"/><path d="M348.514,384.965L333.421,377.418L348.514,369.872L363.608,377.418L348.514,384.965Z" style="fill:#b3b3b3;"/><path d="M333.421,362.325L303.41,377.33L333.421,392.512L363.608,377.418L333.421,362.325Z" style="fill:none;stroke:#bebebe;stroke-width:0.75px;"/><path d="M348.514,369.872L318.339,384.96" style="fill:none;stroke:#bebebe;stroke-width:0.75px;"/><path d="M318.327,369.872L348.514,384.965" style="fill:none;stroke:#bebebe;stroke-width:0.75px;"/></g><g id="floor-tiles36" serif:id="floor tiles"><path d="M197.402,400.192L212.495,407.738L197.49,415.241L182.485,407.65L197.402,400.192Z" style="fill:#b3b3b3;"/><path d="M227.589,415.285L212.495,407.738L227.589,400.192L242.682,407.738L227.589,415.285Z" style="fill:#b3b3b3;"/><path d="M212.495,392.645L182.485,407.65L212.495,422.832L242.682,407.738L212.495,392.645Z" style="fill:none;stroke:#bebebe;stroke-width:0.75px;"/><path d="M227.589,400.192L197.413,415.279" style="fill:none;stroke:#bebebe;stroke-width:0.75px;"/><path d="M197.402,400.192L227.589,415.285" style="fill:none;stroke:#bebebe;stroke-width:0.75px;"/></g><g id="floor-tiles37" serif:id="floor tiles"><path d="M227.633,385.076L242.726,392.623L227.721,400.125L212.716,392.535L227.633,385.076Z" style="fill:#b3b3b3;"/><path d="M257.82,400.17L242.726,392.623L257.82,385.076L272.913,392.623L257.82,400.17Z" style="fill:#b3b3b3;"/><path d="M242.726,377.529L212.716,392.535L242.726,407.716L272.913,392.623L242.726,377.529Z" style="fill:none;stroke:#bebebe;stroke-width:0.75px;"/><path d="M257.82,385.076L227.644,400.164" style="fill:none;stroke:#bebebe;stroke-width:0.75px;"/><path d="M227.633,385.076L257.82,400.17" style="fill:none;stroke:#bebebe;stroke-width:0.75px;"/></g><g id="floor-tiles38" serif:id="floor tiles"><path d="M257.732,370.027L272.825,377.573L257.82,385.076L242.814,377.485L257.732,370.027Z" style="fill:#b3b3b3;"/><path d="M287.918,385.12L272.825,377.573L287.918,370.027L303.012,377.573L287.918,385.12Z" style="fill:#b3b3b3;"/><path d="M272.825,362.48L242.814,377.485L272.825,392.667L303.012,377.573L272.825,362.48Z" style="fill:none;stroke:#bebebe;stroke-width:0.75px;"/><path d="M287.918,370.027L257.743,385.115" style="fill:none;stroke:#bebebe;stroke-width:0.75px;"/><path d="M257.732,370.027L287.918,385.12" style="fill:none;stroke:#bebebe;stroke-width:0.75px;"/></g><g id="floor-tiles39" serif:id="floor tiles"><path d="M287.83,354.623L302.924,362.17L287.918,369.673L272.913,362.082L287.83,354.623Z" style="fill:#b3b3b3;"/><path d="M318.017,369.717L302.924,362.17L318.017,354.623L333.111,362.17L318.017,369.717Z" style="fill:#b3b3b3;"/><path d="M302.924,347.076L272.913,362.082L302.924,377.263L333.111,362.17L302.924,347.076Z" style="fill:none;stroke:#bebebe;stroke-width:0.75px;"/><path d="M318.017,354.623L287.842,369.711" style="fill:none;stroke:#bebebe;stroke-width:0.75px;"/><path d="M287.83,354.623L318.017,369.717" style="fill:none;stroke:#bebebe;stroke-width:0.75px;"/></g><g id="floor-tiles40" serif:id="floor tiles"><path d="M378.342,340.041L393.436,347.588L378.431,355.091L363.425,347.5L378.342,340.041Z" style="fill:#b3b3b3;"/><path d="M408.529,355.135L393.436,347.588L408.529,340.041L423.623,347.588L408.529,355.135Z" style="fill:#b3b3b3;"/><path d="M393.436,332.495L363.425,347.5L393.436,362.681L423.623,347.588L393.436,332.495Z" style="fill:none;stroke:#bebebe;stroke-width:0.75px;"/><path d="M408.529,340.041L378.354,355.129" style="fill:none;stroke:#bebebe;stroke-width:0.75px;"/><path d="M378.342,340.041L408.529,355.135" style="fill:none;stroke:#bebebe;stroke-width:0.75px;"/></g><g id="floor-tiles41" serif:id="floor tiles"><path d="M408.353,324.942L423.446,332.489L408.441,339.992L393.436,332.401L408.353,324.942Z" style="fill:#b3b3b3;"/><path d="M438.54,340.036L423.446,332.489L438.54,324.942L453.633,332.489L438.54,340.036Z" style="fill:#b3b3b3;"/><path d="M423.446,317.395L393.436,332.401L423.446,347.582L453.633,332.489L423.446,317.395Z" style="fill:none;stroke:#bebebe;stroke-width:0.75px;"/><path d="M438.54,324.942L408.364,340.03" style="fill:none;stroke:#bebebe;stroke-width:0.75px;"/><path d="M408.353,324.942L438.54,340.036" style="fill:none;stroke:#bebebe;stroke-width:0.75px;"/></g><g id="floor-tiles42" serif:id="floor tiles"><path d="M438.54,309.898L453.633,317.445L438.628,324.948L423.623,317.357L438.54,309.898Z" style="fill:#b3b3b3;"/><path d="M468.727,324.992L453.633,317.445L468.727,309.898L483.82,317.445L468.727,324.992Z" style="fill:#b3b3b3;"/><path d="M453.633,302.352L423.623,317.357L453.633,332.539L483.82,317.445L453.633,302.352Z" style="fill:none;stroke:#bebebe;stroke-width:0.75px;"/><path d="M468.727,309.898L438.551,324.986" style="fill:none;stroke:#bebebe;stroke-width:0.75px;"/><path d="M438.54,309.898L468.727,324.992" style="fill:none;stroke:#bebebe;stroke-width:0.75px;"/></g><g id="floor-tiles43" serif:id="floor tiles"><path d="M469.037,294.65L484.13,302.197L469.125,309.699L454.12,302.108L469.037,294.65Z" style="fill:#b3b3b3;"/><path d="M499.224,309.743L484.13,302.197L499.224,294.65L514.317,302.197L499.224,309.743Z" style="fill:#b3b3b3;"/><path d="M484.13,287.103L454.12,302.108L484.13,317.29L514.317,302.197L484.13,287.103Z" style="fill:none;stroke:#bebebe;stroke-width:0.75px;"/><path d="M499.224,294.65L469.048,309.738" style="fill:none;stroke:#bebebe;stroke-width:0.75px;"/><path d="M469.037,294.65L499.224,309.743" style="fill:none;stroke:#bebebe;stroke-width:0.75px;"/></g><g id="floor-tiles44" serif:id="floor tiles"><path d="M348.111,324.97L363.205,332.517L348.2,340.019L333.194,332.428L348.111,324.97Z" style="fill:#b3b3b3;"/><path d="M378.298,340.063L363.205,332.517L378.298,324.97L393.392,332.517L378.298,340.063Z" style="fill:#b3b3b3;"/><path d="M363.205,317.423L333.194,332.428L363.205,347.61L393.392,332.517L363.205,317.423Z" style="fill:none;stroke:#bebebe;stroke-width:0.75px;"/><path d="M378.298,324.97L348.123,340.058" style="fill:none;stroke:#bebebe;stroke-width:0.75px;"/><path d="M348.111,324.97L378.298,340.063" style="fill:none;stroke:#bebebe;stroke-width:0.75px;"/></g><g id="floor-tiles45" serif:id="floor tiles"><path d="M378.342,309.854L393.436,317.401L378.431,324.904L363.425,317.313L378.342,309.854Z" style="fill:#b3b3b3;"/><path d="M408.529,324.948L393.436,317.401L408.529,309.854L423.623,317.401L408.529,324.948Z" style="fill:#b3b3b3;"/><path d="M393.436,302.308L363.425,317.313L393.436,332.495L423.623,317.401L393.436,302.308Z" style="fill:none;stroke:#bebebe;stroke-width:0.75px;"/><path d="M408.529,309.854L378.354,324.942" style="fill:none;stroke:#bebebe;stroke-width:0.75px;"/><path d="M378.342,309.854L408.529,324.948" style="fill:none;stroke:#bebebe;stroke-width:0.75px;"/></g><g id="floor-tiles46" serif:id="floor tiles"><path d="M408.441,294.805L423.535,302.352L408.529,309.854L393.524,302.263L408.441,294.805Z" style="fill:#b3b3b3;"/><path d="M438.628,309.898L423.535,302.352L438.628,294.805L453.722,302.352L438.628,309.898Z" style="fill:#b3b3b3;"/><path d="M423.535,287.258L393.524,302.263L423.535,317.445L453.722,302.352L423.535,287.258Z" style="fill:none;stroke:#bebebe;stroke-width:0.75px;"/><path d="M438.628,294.805L408.452,309.893" style="fill:none;stroke:#bebebe;stroke-width:0.75px;"/><path d="M408.441,294.805L438.628,309.898" style="fill:none;stroke:#bebebe;stroke-width:0.75px;"/></g><g id="floor-tiles47" serif:id="floor tiles"><path d="M438.54,279.401L453.633,286.948L438.628,294.451L423.623,286.86L438.54,279.401Z" style="fill:#b3b3b3;"/><path d="M468.727,294.495L453.633,286.948L468.727,279.401L483.82,286.948L468.727,294.495Z" style="fill:#b3b3b3;"/><path d="M453.633,271.855L423.623,286.86L453.633,302.042L483.82,286.948L453.633,271.855Z" style="fill:none;stroke:#bebebe;stroke-width:0.75px;"/><path d="M468.727,279.401L438.551,294.489" style="fill:none;stroke:#bebebe;stroke-width:0.75px;"/><path d="M438.54,279.401L468.727,294.495" style="fill:none;stroke:#bebebe;stroke-width:0.75px;"/></g><g id="floor-tiles48" serif:id="floor tiles"><path d="M317.969,309.363L333.062,316.909L318.057,324.412L303.051,316.821L317.969,309.363Z" style="fill:#b3b3b3;"/><path d="M348.155,324.456L333.062,316.909L348.155,309.363L363.249,316.909L348.155,324.456Z" style="fill:#b3b3b3;"/><path d="M333.062,301.816L303.051,316.821L333.062,332.003L363.249,316.909L333.062,301.816Z" style="fill:none;stroke:#bebebe;stroke-width:0.75px;"/><path d="M348.155,309.363L317.98,324.45" style="fill:none;stroke:#bebebe;stroke-width:0.75px;"/><path d="M317.969,309.363L348.155,324.456" style="fill:none;stroke:#bebebe;stroke-width:0.75px;"/></g><g id="floor-tiles49" serif:id="floor tiles"><path d="M347.979,294.263L363.073,301.81L348.067,309.313L333.062,301.722L347.979,294.263Z" style="fill:#b3b3b3;"/><path d="M378.166,309.357L363.073,301.81L378.166,294.263L393.259,301.81L378.166,309.357Z" style="fill:#b3b3b3;"/><path d="M363.073,286.717L333.062,301.722L363.073,316.904L393.259,301.81L363.073,286.717Z" style="fill:none;stroke:#bebebe;stroke-width:0.75px;"/><path d="M378.166,294.263L347.99,309.351" style="fill:none;stroke:#bebebe;stroke-width:0.75px;"/><path d="M347.979,294.263L378.166,309.357" style="fill:none;stroke:#bebebe;stroke-width:0.75px;"/></g><g id="floor-tiles50" serif:id="floor tiles"><path d="M378.166,279.22L393.259,286.766L378.254,294.269L363.249,286.678L378.166,279.22Z" style="fill:#b3b3b3;"/><path d="M408.353,294.313L393.259,286.766L408.353,279.22L423.446,286.766L408.353,294.313Z" style="fill:#b3b3b3;"/><path d="M393.259,271.673L363.249,286.678L393.259,301.86L423.446,286.766L393.259,271.673Z" style="fill:none;stroke:#bebebe;stroke-width:0.75px;"/><path d="M408.353,279.22L378.177,294.308" style="fill:none;stroke:#bebebe;stroke-width:0.75px;"/><path d="M378.166,279.22L408.353,294.313" style="fill:none;stroke:#bebebe;stroke-width:0.75px;"/></g><g id="floor-tiles51" serif:id="floor tiles"><path d="M408.663,263.971L423.756,271.518L408.751,279.021L393.746,271.43L408.663,263.971Z" style="fill:#b3b3b3;"/><path d="M438.85,279.065L423.756,271.518L438.85,263.971L453.943,271.518L438.85,279.065Z" style="fill:#b3b3b3;"/><path d="M423.756,256.425L393.746,271.43L423.756,286.611L453.943,271.518L423.756,256.425Z" style="fill:none;stroke:#bebebe;stroke-width:0.75px;"/><path d="M438.85,263.971L408.674,279.059" style="fill:none;stroke:#bebebe;stroke-width:0.75px;"/><path d="M408.663,263.971L438.85,279.065" style="fill:none;stroke:#bebebe;stroke-width:0.75px;"/></g><g id="floor-tiles52" serif:id="floor tiles"><path d="M287.738,294.291L302.831,301.838L287.826,309.341L272.82,301.75L287.738,294.291Z" style="fill:#b3b3b3;"/><path d="M317.924,309.385L302.831,301.838L317.924,294.291L333.018,301.838L317.924,309.385Z" style="fill:#b3b3b3;"/><path d="M302.831,286.744L272.82,301.75L302.831,316.931L333.018,301.838L302.831,286.744Z" style="fill:none;stroke:#bebebe;stroke-width:0.75px;"/><path d="M317.924,294.291L287.749,309.379" style="fill:none;stroke:#bebebe;stroke-width:0.75px;"/><path d="M287.738,294.291L317.924,309.385" style="fill:none;stroke:#bebebe;stroke-width:0.75px;"/></g><g id="floor-tiles53" serif:id="floor tiles"><path d="M317.969,279.176L333.062,286.722L318.057,294.225L303.051,286.634L317.969,279.176Z" style="fill:#b3b3b3;"/><path d="M348.155,294.269L333.062,286.722L348.155,279.176L363.249,286.722L348.155,294.269Z" style="fill:#b3b3b3;"/><path d="M333.062,271.629L303.051,286.634L333.062,301.816L363.249,286.722L333.062,271.629Z" style="fill:none;stroke:#bebebe;stroke-width:0.75px;"/><path d="M348.155,279.176L317.98,294.263" style="fill:none;stroke:#bebebe;stroke-width:0.75px;"/><path d="M317.969,279.176L348.155,294.269" style="fill:none;stroke:#bebebe;stroke-width:0.75px;"/></g><g id="floor-tiles54" serif:id="floor tiles"><path d="M348.067,264.126L363.161,271.673L348.155,279.176L333.15,271.585L348.067,264.126Z" style="fill:#b3b3b3;"/><path d="M378.254,279.22L363.161,271.673L378.254,264.126L393.348,271.673L378.254,279.22Z" style="fill:#b3b3b3;"/><path d="M363.161,256.58L333.15,271.585L363.161,286.766L393.348,271.673L363.161,256.58Z" style="fill:none;stroke:#bebebe;stroke-width:0.75px;"/><path d="M378.254,264.126L348.079,279.214" style="fill:none;stroke:#bebebe;stroke-width:0.75px;"/><path d="M348.067,264.126L378.254,279.22" style="fill:none;stroke:#bebebe;stroke-width:0.75px;"/></g><g id="floor-tiles55" serif:id="floor tiles"><path d="M378.166,248.723L393.259,256.269L378.254,263.772L363.249,256.181L378.166,248.723Z" style="fill:#b3b3b3;"/><path d="M408.353,263.816L393.259,256.269L408.353,248.723L423.446,256.269L408.353,263.816Z" style="fill:#b3b3b3;"/><path d="M393.259,241.176L363.249,256.181L393.259,271.363L423.446,256.269L393.259,241.176Z" style="fill:none;stroke:#bebebe;stroke-width:0.75px;"/><path d="M408.353,248.723L378.177,263.811" style="fill:none;stroke:#bebebe;stroke-width:0.75px;"/><path d="M378.166,248.723L408.353,263.816" style="fill:none;stroke:#bebebe;stroke-width:0.75px;"/></g><g id="floor-tiles56" serif:id="floor tiles"><path d="M167.281,385.198L182.375,392.745L167.369,400.247L152.364,392.657L167.281,385.198Z" style="fill:#b3b3b3;"/><path d="M197.468,400.292L182.375,392.745L197.468,385.198L212.561,392.745L197.468,400.292Z" style="fill:#b3b3b3;"/><path d="M182.375,377.651L152.364,392.657L182.375,407.838L212.561,392.745L182.375,377.651Z" style="fill:none;stroke:#bebebe;stroke-width:0.75px;"/><path d="M197.468,385.198L167.292,400.286" style="fill:none;stroke:#bebebe;stroke-width:0.75px;"/><path d="M167.281,385.198L197.468,400.292" style="fill:none;stroke:#bebebe;stroke-width:0.75px;"/></g><g id="floor-tiles57" serif:id="floor tiles"><path d="M197.292,370.099L212.385,377.646L197.38,385.148L182.375,377.558L197.292,370.099Z" style="fill:#b3b3b3;"/><path d="M227.479,385.192L212.385,377.646L227.479,370.099L242.572,377.646L227.479,385.192Z" style="fill:#b3b3b3;"/><path d="M212.385,362.552L182.375,377.558L212.385,392.739L242.572,377.646L212.385,362.552Z" style="fill:none;stroke:#bebebe;stroke-width:0.75px;"/><path d="M227.479,370.099L197.303,385.187" style="fill:none;stroke:#bebebe;stroke-width:0.75px;"/><path d="M197.292,370.099L227.479,385.192" style="fill:none;stroke:#bebebe;stroke-width:0.75px;"/></g><g id="floor-tiles58" serif:id="floor tiles"><path d="M227.479,355.055L242.572,362.602L227.567,370.105L212.561,362.514L227.479,355.055Z" style="fill:#b3b3b3;"/><path d="M257.665,370.149L242.572,362.602L257.665,355.055L272.759,362.602L257.665,370.149Z" style="fill:#b3b3b3;"/><path d="M242.572,347.509L212.561,362.514L242.572,377.695L272.759,362.602L242.572,347.509Z" style="fill:none;stroke:#bebebe;stroke-width:0.75px;"/><path d="M257.665,355.055L227.49,370.143" style="fill:none;stroke:#bebebe;stroke-width:0.75px;"/><path d="M227.479,355.055L257.665,370.149" style="fill:none;stroke:#bebebe;stroke-width:0.75px;"/></g><g id="floor-tiles59" serif:id="floor tiles"><path d="M257.976,339.807L273.069,347.353L258.064,354.856L243.058,347.265L257.976,339.807Z" style="fill:#b3b3b3;"/><path d="M288.162,354.9L273.069,347.353L288.162,339.807L303.256,347.353L288.162,354.9Z" style="fill:#b3b3b3;"/><path d="M273.069,332.26L243.058,347.265L273.069,362.447L303.256,347.353L273.069,332.26Z" style="fill:none;stroke:#bebebe;stroke-width:0.75px;"/><path d="M288.162,339.807L257.987,354.895" style="fill:none;stroke:#bebebe;stroke-width:0.75px;"/><path d="M257.976,339.807L288.162,354.9" style="fill:none;stroke:#bebebe;stroke-width:0.75px;"/></g><g id="floor-tiles60" serif:id="floor tiles"><path d="M137.05,370.127L152.143,377.673L137.138,385.176L122.133,377.585L137.05,370.127Z" style="fill:#b3b3b3;"/><path d="M167.237,385.22L152.143,377.673L167.237,370.127L182.33,377.673L167.237,385.22Z" style="fill:#b3b3b3;"/><path d="M152.143,362.58L122.133,377.585L152.143,392.767L182.33,377.673L152.143,362.58Z" style="fill:none;stroke:#bebebe;stroke-width:0.75px;"/><path d="M167.237,370.127L137.061,385.214" style="fill:none;stroke:#bebebe;stroke-width:0.75px;"/><path d="M137.05,370.127L167.237,385.22" style="fill:none;stroke:#bebebe;stroke-width:0.75px;"/></g><g id="floor-tiles61" serif:id="floor tiles"><path d="M167.281,355.011L182.375,362.558L167.369,370.061L152.364,362.47L167.281,355.011Z" style="fill:#b3b3b3;"/><path d="M197.468,370.105L182.375,362.558L197.468,355.011L212.561,362.558L197.468,370.105Z" style="fill:#b3b3b3;"/><path d="M182.375,347.464L152.364,362.47L182.375,377.651L212.561,362.558L182.375,347.464Z" style="fill:none;stroke:#bebebe;stroke-width:0.75px;"/><path d="M197.468,355.011L167.292,370.099" style="fill:none;stroke:#bebebe;stroke-width:0.75px;"/><path d="M167.281,355.011L197.468,370.105" style="fill:none;stroke:#bebebe;stroke-width:0.75px;"/></g><g id="floor-tiles62" serif:id="floor tiles"><path d="M197.38,339.962L212.473,347.509L197.468,355.011L182.463,347.42L197.38,339.962Z" style="fill:#b3b3b3;"/><path d="M227.567,355.055L212.473,347.509L227.567,339.962L242.66,347.509L227.567,355.055Z" style="fill:#b3b3b3;"/><path d="M212.473,332.415L182.463,347.42L212.473,362.602L242.66,347.509L212.473,332.415Z" style="fill:none;stroke:#bebebe;stroke-width:0.75px;"/><path d="M227.567,339.962L197.391,355.05" style="fill:none;stroke:#bebebe;stroke-width:0.75px;"/><path d="M197.38,339.962L227.567,355.055" style="fill:none;stroke:#bebebe;stroke-width:0.75px;"/></g><g id="floor-tiles63" serif:id="floor tiles"><path d="M227.479,324.558L242.572,332.105L227.567,339.608L212.561,332.017L227.479,324.558Z" style="fill:#b3b3b3;"/><path d="M257.665,339.652L242.572,332.105L257.665,324.558L272.759,332.105L257.665,339.652Z" style="fill:#b3b3b3;"/><path d="M242.572,317.012L212.561,332.017L242.572,347.198L272.759,332.105L242.572,317.012Z" style="fill:none;stroke:#bebebe;stroke-width:0.75px;"/><path d="M257.665,324.558L227.49,339.646" style="fill:none;stroke:#bebebe;stroke-width:0.75px;"/><path d="M227.479,324.558L257.665,339.652" style="fill:none;stroke:#bebebe;stroke-width:0.75px;"/></g><g id="floor-tiles64" serif:id="floor tiles"><path d="M106.331,355.166L121.424,362.713L106.419,370.216L91.413,362.625L106.331,355.166Z" style="fill:#b3b3b3;"/><path d="M136.517,370.26L121.424,362.713L136.517,355.166L151.611,362.713L136.517,370.26Z" style="fill:#b3b3b3;"/><path d="M121.424,347.62L91.413,362.625L121.424,377.807L151.611,362.713L121.424,347.62Z" style="fill:none;stroke:#bebebe;stroke-width:0.75px;"/><path d="M136.517,355.166L106.342,370.254" style="fill:none;stroke:#bebebe;stroke-width:0.75px;"/><path d="M106.331,355.166L136.517,370.26" style="fill:none;stroke:#bebebe;stroke-width:0.75px;"/></g><g id="floor-tiles65" serif:id="floor tiles"><path d="M136.341,340.067L151.435,347.614L136.429,355.117L121.424,347.526L136.341,340.067Z" style="fill:#b3b3b3;"/><path d="M166.528,355.161L151.435,347.614L166.528,340.067L181.621,347.614L166.528,355.161Z" style="fill:#b3b3b3;"/><path d="M151.435,332.521L121.424,347.526L151.435,362.708L181.621,347.614L151.435,332.521Z" style="fill:none;stroke:#bebebe;stroke-width:0.75px;"/><path d="M166.528,340.067L136.352,355.155" style="fill:none;stroke:#bebebe;stroke-width:0.75px;"/><path d="M136.341,340.067L166.528,355.161" style="fill:none;stroke:#bebebe;stroke-width:0.75px;"/></g><g id="floor-tiles66" serif:id="floor tiles"><path d="M166.528,325.024L181.621,332.57L166.616,340.073L151.611,332.482L166.528,325.024Z" style="fill:#b3b3b3;"/><path d="M196.715,340.117L181.621,332.57L196.715,325.024L211.808,332.57L196.715,340.117Z" style="fill:#b3b3b3;"/><path d="M181.621,317.477L151.611,332.482L181.621,347.664L211.808,332.57L181.621,317.477Z" style="fill:none;stroke:#bebebe;stroke-width:0.75px;"/><path d="M196.715,325.024L166.539,340.111" style="fill:none;stroke:#bebebe;stroke-width:0.75px;"/><path d="M166.528,325.024L196.715,340.117" style="fill:none;stroke:#bebebe;stroke-width:0.75px;"/></g><g id="floor-tiles67" serif:id="floor tiles"><path d="M197.025,309.775L212.118,317.322L197.113,324.825L182.108,317.234L197.025,309.775Z" style="fill:#b3b3b3;"/><path d="M227.212,324.869L212.118,317.322L227.212,309.775L242.305,317.322L227.212,324.869Z" style="fill:#b3b3b3;"/><path d="M212.118,302.228L182.108,317.234L212.118,332.415L242.305,317.322L212.118,302.228Z" style="fill:none;stroke:#bebebe;stroke-width:0.75px;"/><path d="M227.212,309.775L197.036,324.863" style="fill:none;stroke:#bebebe;stroke-width:0.75px;"/><path d="M197.025,309.775L227.212,324.869" style="fill:none;stroke:#bebebe;stroke-width:0.75px;"/></g><g id="floor-tiles68" serif:id="floor tiles"><path d="M76.1,340.095L91.193,347.642L76.188,355.144L61.182,347.554L76.1,340.095Z" style="fill:#b3b3b3;"/><path d="M106.286,355.189L91.193,347.642L106.286,340.095L121.38,347.642L106.286,355.189Z" style="fill:#b3b3b3;"/><path d="M91.193,332.548L61.182,347.554L91.193,362.735L121.38,347.642L91.193,332.548Z" style="fill:none;stroke:#bebebe;stroke-width:0.75px;"/><path d="M106.286,340.095L76.111,355.183" style="fill:none;stroke:#bebebe;stroke-width:0.75px;"/><path d="M76.1,340.095L106.286,355.189" style="fill:none;stroke:#bebebe;stroke-width:0.75px;"/></g><g id="floor-tiles69" serif:id="floor tiles"><path d="M106.331,324.98L121.424,332.526L106.419,340.029L91.413,332.438L106.331,324.98Z" style="fill:#b3b3b3;"/><path d="M136.517,340.073L121.424,332.526L136.517,324.98L151.611,332.526L136.517,340.073Z" style="fill:#b3b3b3;"/><path d="M121.424,317.433L91.413,332.438L121.424,347.62L151.611,332.526L121.424,317.433Z" style="fill:none;stroke:#bebebe;stroke-width:0.75px;"/><path d="M136.517,324.98L106.342,340.067" style="fill:none;stroke:#bebebe;stroke-width:0.75px;"/><path d="M106.331,324.98L136.517,340.073" style="fill:none;stroke:#bebebe;stroke-width:0.75px;"/></g><g id="floor-tiles70" serif:id="floor tiles"><path d="M136.429,309.93L151.523,317.477L136.517,324.98L121.512,317.389L136.429,309.93Z" style="fill:#b3b3b3;"/><path d="M166.616,325.024L151.523,317.477L166.616,309.93L181.71,317.477L166.616,325.024Z" style="fill:#b3b3b3;"/><path d="M151.523,302.383L121.512,317.389L151.523,332.57L181.71,317.477L151.523,302.383Z" style="fill:none;stroke:#bebebe;stroke-width:0.75px;"/><path d="M166.616,309.93L136.441,325.018" style="fill:none;stroke:#bebebe;stroke-width:0.75px;"/><path d="M136.429,309.93L166.616,325.024" style="fill:none;stroke:#bebebe;stroke-width:0.75px;"/></g><g id="floor-tiles71" serif:id="floor tiles"><path d="M166.528,294.527L181.621,302.073L166.616,309.576L151.611,301.985L166.528,294.527Z" style="fill:#b3b3b3;"/><path d="M196.715,309.62L181.621,302.073L196.715,294.527L211.808,302.073L196.715,309.62Z" style="fill:#b3b3b3;"/><path d="M181.621,286.98L151.611,301.985L181.621,317.167L211.808,302.073L181.621,286.98Z" style="fill:none;stroke:#bebebe;stroke-width:0.75px;"/><path d="M196.715,294.527L166.539,309.614" style="fill:none;stroke:#bebebe;stroke-width:0.75px;"/><path d="M166.528,294.527L196.715,309.62" style="fill:none;stroke:#bebebe;stroke-width:0.75px;"/></g><g id="floor-tiles72" serif:id="floor tiles"><path d="M257.04,279.945L272.134,287.491L257.128,294.994L242.123,287.403L257.04,279.945Z" style="fill:#b3b3b3;"/><path d="M287.227,295.038L272.134,287.491L287.227,279.945L302.32,287.491L287.227,295.038Z" style="fill:#b3b3b3;"/><path d="M272.134,272.398L242.123,287.403L272.134,302.585L302.32,287.491L272.134,272.398Z" style="fill:none;stroke:#bebebe;stroke-width:0.75px;"/><path d="M287.227,279.945L257.051,295.033" style="fill:none;stroke:#bebebe;stroke-width:0.75px;"/><path d="M257.04,279.945L287.227,295.038" style="fill:none;stroke:#bebebe;stroke-width:0.75px;"/></g><g id="floor-tiles73" serif:id="floor tiles"><path d="M287.051,264.846L302.144,272.392L287.139,279.895L272.134,272.304L287.051,264.846Z" style="fill:#b3b3b3;"/><path d="M317.238,279.939L302.144,272.392L317.238,264.846L332.331,272.392L317.238,279.939Z" style="fill:#b3b3b3;"/><path d="M302.144,257.299L272.134,272.304L302.144,287.486L332.331,272.392L302.144,257.299Z" style="fill:none;stroke:#bebebe;stroke-width:0.75px;"/><path d="M317.238,264.846L287.062,279.933" style="fill:none;stroke:#bebebe;stroke-width:0.75px;"/><path d="M287.051,264.846L317.238,279.939" style="fill:none;stroke:#bebebe;stroke-width:0.75px;"/></g><g id="floor-tiles74" serif:id="floor tiles"><path d="M317.238,249.802L332.331,257.349L317.326,264.851L302.32,257.26L317.238,249.802Z" style="fill:#b3b3b3;"/><path d="M347.425,264.895L332.331,257.349L347.425,249.802L362.518,257.349L347.425,264.895Z" style="fill:#b3b3b3;"/><path d="M332.331,242.255L302.32,257.26L332.331,272.442L362.518,257.349L332.331,242.255Z" style="fill:none;stroke:#bebebe;stroke-width:0.75px;"/><path d="M347.425,249.802L317.249,264.89" style="fill:none;stroke:#bebebe;stroke-width:0.75px;"/><path d="M317.238,249.802L347.425,264.895" style="fill:none;stroke:#bebebe;stroke-width:0.75px;"/></g><g id="floor-tiles75" serif:id="floor tiles"><path d="M347.735,234.553L362.828,242.1L347.823,249.603L332.817,242.012L347.735,234.553Z" style="fill:#b3b3b3;"/><path d="M377.922,249.647L362.828,242.1L377.922,234.553L393.015,242.1L377.922,249.647Z" style="fill:#b3b3b3;"/><path d="M362.828,227.007L332.817,242.012L362.828,257.194L393.015,242.1L362.828,227.007Z" style="fill:none;stroke:#bebebe;stroke-width:0.75px;"/><path d="M377.922,234.553L347.746,249.641" style="fill:none;stroke:#bebebe;stroke-width:0.75px;"/><path d="M347.735,234.553L377.922,249.647" style="fill:none;stroke:#bebebe;stroke-width:0.75px;"/></g><g id="floor-tiles76" serif:id="floor tiles"><path d="M226.809,264.873L241.903,272.42L226.897,279.923L211.892,272.332L226.809,264.873Z" style="fill:#b3b3b3;"/><path d="M256.996,279.967L241.903,272.42L256.996,264.873L272.089,272.42L256.996,279.967Z" style="fill:#b3b3b3;"/><path d="M241.903,257.327L211.892,272.332L241.903,287.513L272.089,272.42L241.903,257.327Z" style="fill:none;stroke:#bebebe;stroke-width:0.75px;"/><path d="M256.996,264.873L226.82,279.961" style="fill:none;stroke:#bebebe;stroke-width:0.75px;"/><path d="M226.809,264.873L256.996,279.967" style="fill:none;stroke:#bebebe;stroke-width:0.75px;"/></g><g id="floor-tiles77" serif:id="floor tiles"><path d="M257.04,249.758L272.134,257.305L257.128,264.807L242.123,257.216L257.04,249.758Z" style="fill:#b3b3b3;"/><path d="M287.227,264.851L272.134,257.305L287.227,249.758L302.32,257.305L287.227,264.851Z" style="fill:#b3b3b3;"/><path d="M272.134,242.211L242.123,257.216L272.134,272.398L302.32,257.305L272.134,242.211Z" style="fill:none;stroke:#bebebe;stroke-width:0.75px;"/><path d="M287.227,249.758L257.051,264.846" style="fill:none;stroke:#bebebe;stroke-width:0.75px;"/><path d="M257.04,249.758L287.227,264.851" style="fill:none;stroke:#bebebe;stroke-width:0.75px;"/></g><g id="floor-tiles78" serif:id="floor tiles"><path d="M287.139,234.708L302.232,242.255L287.227,249.758L272.222,242.167L287.139,234.708Z" style="fill:#b3b3b3;"/><path d="M317.326,249.802L302.232,242.255L317.326,234.708L332.419,242.255L317.326,249.802Z" style="fill:#b3b3b3;"/><path d="M302.232,227.162L272.222,242.167L302.232,257.349L332.419,242.255L302.232,227.162Z" style="fill:none;stroke:#bebebe;stroke-width:0.75px;"/><path d="M317.326,234.708L287.15,249.796" style="fill:none;stroke:#bebebe;stroke-width:0.75px;"/><path d="M287.139,234.708L317.326,249.802" style="fill:none;stroke:#bebebe;stroke-width:0.75px;"/></g><g id="floor-tiles79" serif:id="floor tiles"><path d="M317.238,219.305L332.331,226.852L317.326,234.354L302.32,226.763L317.238,219.305Z" style="fill:#b3b3b3;"/><path d="M347.425,234.398L332.331,226.852L347.425,219.305L362.518,226.852L347.425,234.398Z" style="fill:#b3b3b3;"/><path d="M332.331,211.758L302.32,226.763L332.331,241.945L362.518,226.852L332.331,211.758Z" style="fill:none;stroke:#bebebe;stroke-width:0.75px;"/><path d="M347.425,219.305L317.249,234.393" style="fill:none;stroke:#bebebe;stroke-width:0.75px;"/><path d="M317.238,219.305L347.425,234.398" style="fill:none;stroke:#bebebe;stroke-width:0.75px;"/></g><g id="floor-tiles80" serif:id="floor tiles"><path d="M196.666,249.266L211.76,256.813L196.754,264.315L181.749,256.725L196.666,249.266Z" style="fill:#b3b3b3;"/><path d="M226.853,264.359L211.76,256.813L226.853,249.266L241.947,256.813L226.853,264.359Z" style="fill:#b3b3b3;"/><path d="M211.76,241.719L181.749,256.725L211.76,271.906L241.947,256.813L211.76,241.719Z" style="fill:none;stroke:#bebebe;stroke-width:0.75px;"/><path d="M226.853,249.266L196.678,264.354" style="fill:none;stroke:#bebebe;stroke-width:0.75px;"/><path d="M196.666,249.266L226.853,264.359" style="fill:none;stroke:#bebebe;stroke-width:0.75px;"/></g><g id="floor-tiles81" serif:id="floor tiles"><path d="M226.677,234.167L241.77,241.714L226.765,249.216L211.76,241.625L226.677,234.167Z" style="fill:#b3b3b3;"/><path d="M256.864,249.26L241.77,241.714L256.864,234.167L271.957,241.714L256.864,249.26Z" style="fill:#b3b3b3;"/><path d="M241.77,226.62L211.76,241.625L241.77,256.807L271.957,241.714L241.77,226.62Z" style="fill:none;stroke:#bebebe;stroke-width:0.75px;"/><path d="M256.864,234.167L226.688,249.255" style="fill:none;stroke:#bebebe;stroke-width:0.75px;"/><path d="M226.677,234.167L256.864,249.26" style="fill:none;stroke:#bebebe;stroke-width:0.75px;"/></g><g id="floor-tiles82" serif:id="floor tiles"><path d="M256.864,219.123L271.957,226.67L256.952,234.173L241.947,226.582L256.864,219.123Z" style="fill:#b3b3b3;"/><path d="M287.051,234.217L271.957,226.67L287.051,219.123L302.144,226.67L287.051,234.217Z" style="fill:#b3b3b3;"/><path d="M271.957,211.576L241.947,226.582L271.957,241.763L302.144,226.67L271.957,211.576Z" style="fill:none;stroke:#bebebe;stroke-width:0.75px;"/><path d="M287.051,219.123L256.875,234.211" style="fill:none;stroke:#bebebe;stroke-width:0.75px;"/><path d="M256.864,219.123L287.051,234.217" style="fill:none;stroke:#bebebe;stroke-width:0.75px;"/></g><g id="floor-tiles83" serif:id="floor tiles"><path d="M287.361,203.875L302.454,211.421L287.449,218.924L272.444,211.333L287.361,203.875Z" style="fill:#b3b3b3;"/><path d="M317.548,218.968L302.454,211.421L317.548,203.875L332.641,211.421L317.548,218.968Z" style="fill:#b3b3b3;"/><path d="M302.454,196.328L272.444,211.333L302.454,226.515L332.641,211.421L302.454,196.328Z" style="fill:none;stroke:#bebebe;stroke-width:0.75px;"/><path d="M317.548,203.875L287.372,218.963" style="fill:none;stroke:#bebebe;stroke-width:0.75px;"/><path d="M287.361,203.875L317.548,218.968" style="fill:none;stroke:#bebebe;stroke-width:0.75px;"/></g><g id="floor-tiles84" serif:id="floor tiles"><path d="M166.435,234.195L181.529,241.741L166.523,249.244L151.518,241.653L166.435,234.195Z" style="fill:#b3b3b3;"/><path d="M196.622,249.288L181.529,241.741L196.622,234.195L211.716,241.741L196.622,249.288Z" style="fill:#b3b3b3;"/><path d="M181.529,226.648L151.518,241.653L181.529,256.835L211.716,241.741L181.529,226.648Z" style="fill:none;stroke:#bebebe;stroke-width:0.75px;"/><path d="M196.622,234.195L166.447,249.282" style="fill:none;stroke:#bebebe;stroke-width:0.75px;"/><path d="M166.435,234.195L196.622,249.288" style="fill:none;stroke:#bebebe;stroke-width:0.75px;"/></g><g id="floor-tiles85" serif:id="floor tiles"><path d="M196.666,219.079L211.76,226.626L196.754,234.128L181.749,226.538L196.666,219.079Z" style="fill:#b3b3b3;"/><path d="M226.853,234.173L211.76,226.626L226.853,219.079L241.947,226.626L226.853,234.173Z" style="fill:#b3b3b3;"/><path d="M211.76,211.532L181.749,226.538L211.76,241.719L241.947,226.626L211.76,211.532Z" style="fill:none;stroke:#bebebe;stroke-width:0.75px;"/><path d="M226.853,219.079L196.678,234.167" style="fill:none;stroke:#bebebe;stroke-width:0.75px;"/><path d="M196.666,219.079L226.853,234.173" style="fill:none;stroke:#bebebe;stroke-width:0.75px;"/></g><g id="floor-tiles86" serif:id="floor tiles"><path d="M226.765,204.03L241.858,211.576L226.853,219.079L211.848,211.488L226.765,204.03Z" style="fill:#b3b3b3;"/><path d="M256.952,219.123L241.858,211.576L256.952,204.03L272.045,211.576L256.952,219.123Z" style="fill:#b3b3b3;"/><path d="M241.858,196.483L211.848,211.488L241.858,226.67L272.045,211.576L241.858,196.483Z" style="fill:none;stroke:#bebebe;stroke-width:0.75px;"/><path d="M256.952,204.03L226.776,219.118" style="fill:none;stroke:#bebebe;stroke-width:0.75px;"/><path d="M226.765,204.03L256.952,219.123" style="fill:none;stroke:#bebebe;stroke-width:0.75px;"/></g><g id="floor-tiles87" serif:id="floor tiles"><path d="M256.864,188.626L271.957,196.173L256.952,203.676L241.947,196.085L256.864,188.626Z" style="fill:#b3b3b3;"/><path d="M287.051,203.72L271.957,196.173L287.051,188.626L302.144,196.173L287.051,203.72Z" style="fill:#b3b3b3;"/><path d="M271.957,181.079L241.947,196.085L271.957,211.266L302.144,196.173L271.957,181.079Z" style="fill:none;stroke:#bebebe;stroke-width:0.75px;"/><path d="M287.051,188.626L256.875,203.714" style="fill:none;stroke:#bebebe;stroke-width:0.75px;"/><path d="M256.864,188.626L287.051,203.72" style="fill:none;stroke:#bebebe;stroke-width:0.75px;"/></g><g id="floor-tiles88" serif:id="floor tiles"><path d="M45.979,325.102L61.072,332.648L46.067,340.151L31.062,332.56L45.979,325.102Z" style="fill:#b3b3b3;"/><path d="M76.166,340.195L61.072,332.648L76.166,325.102L91.259,332.648L76.166,340.195Z" style="fill:#b3b3b3;"/><path d="M61.072,317.555L31.062,332.56L61.072,347.742L91.259,332.648L61.072,317.555Z" style="fill:none;stroke:#bebebe;stroke-width:0.75px;"/><path d="M76.166,325.102L45.99,340.189" style="fill:none;stroke:#bebebe;stroke-width:0.75px;"/><path d="M45.979,325.102L76.166,340.195" style="fill:none;stroke:#bebebe;stroke-width:0.75px;"/></g><g id="floor-tiles89" serif:id="floor tiles"><path d="M75.989,310.002L91.083,317.549L76.078,325.052L61.072,317.461L75.989,310.002Z" style="fill:#b3b3b3;"/><path d="M106.176,325.096L91.083,317.549L106.176,310.002L121.27,317.549L106.176,325.096Z" style="fill:#b3b3b3;"/><path d="M91.083,302.456L61.072,317.461L91.083,332.643L121.27,317.549L91.083,302.456Z" style="fill:none;stroke:#bebebe;stroke-width:0.75px;"/><path d="M106.176,310.002L76.001,325.09" style="fill:none;stroke:#bebebe;stroke-width:0.75px;"/><path d="M75.989,310.002L106.176,325.096" style="fill:none;stroke:#bebebe;stroke-width:0.75px;"/></g><g id="floor-tiles90" serif:id="floor tiles"><path d="M106.176,294.959L121.27,302.505L106.264,310.008L91.259,302.417L106.176,294.959Z" style="fill:#b3b3b3;"/><path d="M136.363,310.052L121.27,302.505L136.363,294.959L151.457,302.505L136.363,310.052Z" style="fill:#b3b3b3;"/><path d="M121.27,287.412L91.259,302.417L121.27,317.599L151.457,302.505L121.27,287.412Z" style="fill:none;stroke:#bebebe;stroke-width:0.75px;"/><path d="M136.363,294.959L106.188,310.047" style="fill:none;stroke:#bebebe;stroke-width:0.75px;"/><path d="M106.176,294.959L136.363,310.052" style="fill:none;stroke:#bebebe;stroke-width:0.75px;"/></g><g id="floor-tiles91" serif:id="floor tiles"><path d="M136.673,279.71L151.767,287.257L136.761,294.76L121.756,287.169L136.673,279.71Z" style="fill:#b3b3b3;"/><path d="M166.86,294.804L151.767,287.257L166.86,279.71L181.954,287.257L166.86,294.804Z" style="fill:#b3b3b3;"/><path d="M151.767,272.163L121.756,287.169L151.767,302.35L181.954,287.257L151.767,272.163Z" style="fill:none;stroke:#bebebe;stroke-width:0.75px;"/><path d="M166.86,279.71L136.685,294.798" style="fill:none;stroke:#bebebe;stroke-width:0.75px;"/><path d="M136.673,279.71L166.86,294.804" style="fill:none;stroke:#bebebe;stroke-width:0.75px;"/></g><g id="floor-tiles92" serif:id="floor tiles"><path d="M15.748,310.03L30.841,317.577L15.836,325.079L0.831,317.489L15.748,310.03Z" style="fill:#b3b3b3;"/><path d="M45.935,325.124L30.841,317.577L45.935,310.03L61.028,317.577L45.935,325.124Z" style="fill:#b3b3b3;"/><path d="M30.841,302.483L0.831,317.489L30.841,332.67L61.028,317.577L30.841,302.483Z" style="fill:none;stroke:#bebebe;stroke-width:0.75px;"/><path d="M45.935,310.03L15.759,325.118" style="fill:none;stroke:#bebebe;stroke-width:0.75px;"/><path d="M15.748,310.03L45.935,325.124" style="fill:none;stroke:#bebebe;stroke-width:0.75px;"/></g><g id="floor-tiles93" serif:id="floor tiles"><path d="M45.979,294.915L61.072,302.461L46.067,309.964L31.062,302.373L45.979,294.915Z" style="fill:#b3b3b3;"/><path d="M76.166,310.008L61.072,302.461L76.166,294.915L91.259,302.461L76.166,310.008Z" style="fill:#b3b3b3;"/><path d="M61.072,287.368L31.062,302.373L61.072,317.555L91.259,302.461L61.072,287.368Z" style="fill:none;stroke:#bebebe;stroke-width:0.75px;"/><path d="M76.166,294.915L45.99,310.002" style="fill:none;stroke:#bebebe;stroke-width:0.75px;"/><path d="M45.979,294.915L76.166,310.008" style="fill:none;stroke:#bebebe;stroke-width:0.75px;"/></g><g id="floor-tiles94" serif:id="floor tiles"><path d="M76.078,279.865L91.171,287.412L76.166,294.915L61.16,287.324L76.078,279.865Z" style="fill:#b3b3b3;"/><path d="M106.264,294.959L91.171,287.412L106.264,279.865L121.358,287.412L106.264,294.959Z" style="fill:#b3b3b3;"/><path d="M91.171,272.319L61.16,287.324L91.171,302.505L121.358,287.412L91.171,272.319Z" style="fill:none;stroke:#bebebe;stroke-width:0.75px;"/><path d="M106.264,279.865L76.089,294.953" style="fill:none;stroke:#bebebe;stroke-width:0.75px;"/><path d="M76.078,279.865L106.264,294.959" style="fill:none;stroke:#bebebe;stroke-width:0.75px;"/></g><g id="floor-tiles95" serif:id="floor tiles"><path d="M106.176,264.462L121.27,272.008L106.264,279.511L91.259,271.92L106.176,264.462Z" style="fill:#b3b3b3;"/><path d="M136.363,279.555L121.27,272.008L136.363,264.462L151.457,272.008L136.363,279.555Z" style="fill:#b3b3b3;"/><path d="M121.27,256.915L91.259,271.92L121.27,287.102L151.457,272.008L121.27,256.915Z" style="fill:none;stroke:#bebebe;stroke-width:0.75px;"/><path d="M136.363,264.462L106.188,279.55" style="fill:none;stroke:#bebebe;stroke-width:0.75px;"/><path d="M106.176,264.462L136.363,279.555" style="fill:none;stroke:#bebebe;stroke-width:0.75px;"/></g></g><g id="Cushions"><g id="Cushion"><path d="M422.916,377.3L453.103,392.393L483.29,377.3L483.29,374.407L453.164,389.47L423.001,374.389L422.916,377.3Z" style="fill:none;stroke:#000;stroke-width:0.75px;"/><path d="M453.103,359.338L483.29,374.407" style="fill:none;stroke:#000;stroke-width:0.75px;"/><path d="M453.103,359.338L422.93,374.425" style="fill:none;stroke:#000;stroke-width:0.75px;"/><path d="M422.93,374.425L453.077,389.498L483.283,374.395L453.15,359.329" style="fill:none;stroke:#000;stroke-width:0.75px;"/><path d="M453.103,359.338L483.274,374.399L453.148,389.462L423.001,374.389L453.103,359.338Z" style="fill:#8659a6;"/><path d="M422.999,374.459L453.077,389.498L453.148,389.462L453.164,389.47L483.29,374.407L483.29,377.3L453.103,392.393L422.916,377.3L422.999,374.459Z" style="fill:#644db3;"/></g><g id="Cushion1" serif:id="Cushion"><path d="M483.274,347.16L513.461,362.253L543.647,347.16L543.647,344.268L513.521,359.331L483.359,344.25L483.274,347.16Z" style="fill:none;stroke:#000;stroke-width:0.75px;"/><path d="M513.461,329.199L543.647,344.268" style="fill:none;stroke:#000;stroke-width:0.75px;"/><path d="M513.461,329.199L483.288,344.285" style="fill:none;stroke:#000;stroke-width:0.75px;"/><path d="M483.288,344.285L513.435,359.358L543.641,344.255L513.508,329.189" style="fill:none;stroke:#000;stroke-width:0.75px;"/><path d="M513.461,329.199L543.632,344.26L513.506,359.323L483.359,344.25L513.461,329.199Z" style="fill:#8659a6;"/><path d="M483.357,344.319L513.435,359.358L513.506,359.323L513.521,359.331L543.647,344.268L543.647,347.16L513.461,362.253L483.274,347.16L483.357,344.319Z" style="fill:#644db3;"/></g><g id="Cushion2" serif:id="Cushion"><path d="M362.542,407.491L392.729,422.585L422.916,407.491L422.916,404.599L392.79,419.662L362.627,404.581L362.542,407.491Z" style="fill:none;stroke:#000;stroke-width:0.75px;"/><path d="M392.729,389.53L422.916,404.599" style="fill:none;stroke:#000;stroke-width:0.75px;"/><path d="M392.729,389.53L362.556,404.616" style="fill:none;stroke:#000;stroke-width:0.75px;"/><path d="M362.556,404.616L392.703,419.69L422.909,404.587L392.776,389.52" style="fill:none;stroke:#000;stroke-width:0.75px;"/><path d="M392.729,389.53L422.9,404.591L392.774,419.654L362.627,404.581L392.729,389.53Z" style="fill:#8659a6;"/><path d="M362.625,404.651L392.703,419.69L392.774,419.654L392.79,419.662L422.916,404.599L422.916,407.491L392.729,422.585L362.542,407.491L362.625,404.651Z" style="fill:#644db3;"/></g><g id="Cushion3" serif:id="Cushion"><path d="M302.63,437.482L332.817,452.575L363.004,437.482L363.004,434.59L332.878,449.653L302.715,434.571L302.63,437.482Z" style="fill:none;stroke:#000;stroke-width:0.75px;"/><path d="M332.817,419.521L363.004,434.59" style="fill:none;stroke:#000;stroke-width:0.75px;"/><path d="M332.817,419.521L302.644,434.607" style="fill:none;stroke:#000;stroke-width:0.75px;"/><path d="M302.644,434.607L332.791,449.68L362.997,434.577L332.864,419.511" style="fill:none;stroke:#000;stroke-width:0.75px;"/><path d="M332.817,419.521L362.988,434.582L332.862,449.645L302.715,434.571L332.817,419.521Z" style="fill:#8659a6;"/><path d="M302.713,434.641L332.791,449.68L332.862,449.645L332.878,449.653L363.004,434.59L363.004,437.482L332.817,452.575L302.63,437.482L302.713,434.641Z" style="fill:#644db3;"/></g><g id="Cushion4" serif:id="Cushion"><path d="M422.985,317.087L453.172,332.18L483.359,317.087L483.359,314.194L453.233,329.257L423.07,314.176L422.985,317.087Z" style="fill:none;stroke:#000;stroke-width:0.75px;"/><path d="M453.172,299.125L483.359,314.194" style="fill:none;stroke:#000;stroke-width:0.75px;"/><path d="M453.172,299.125L423,314.211" style="fill:none;stroke:#000;stroke-width:0.75px;"/><path d="M423,314.211L453.146,329.285L483.352,314.182L453.22,299.116" style="fill:none;stroke:#000;stroke-width:0.75px;"/><path d="M453.172,299.125L483.343,314.186L453.217,329.249L423.07,314.176L453.172,299.125Z" style="fill:#8659a6;"/><path d="M423.068,314.246L453.146,329.285L453.217,329.249L453.233,329.257L483.359,314.194L483.359,317.087L453.172,332.18L422.985,317.087L423.068,314.246Z" style="fill:#644db3;"/></g><g id="Cushion5" serif:id="Cushion"><path d="M362.713,347.12L392.9,362.213L423.086,347.12L423.086,344.228L392.96,359.291L362.798,344.209L362.713,347.12Z" style="fill:none;stroke:#000;stroke-width:0.75px;"/><path d="M392.9,329.158L423.086,344.228" style="fill:none;stroke:#000;stroke-width:0.75px;"/><path d="M392.9,329.158L362.727,344.245" style="fill:none;stroke:#000;stroke-width:0.75px;"/><path d="M362.727,344.245L392.874,359.318L423.08,344.215L392.947,329.149" style="fill:none;stroke:#000;stroke-width:0.75px;"/><path d="M392.9,329.158L423.07,344.22L392.944,359.283L362.798,344.209L392.9,329.158Z" style="fill:#8659a6;"/><path d="M362.796,344.279L392.874,359.318L392.944,359.283L392.96,359.291L423.086,344.228L423.086,347.12L392.9,362.213L362.713,347.12L362.796,344.279Z" style="fill:#644db3;"/></g><g id="Cushion6" serif:id="Cushion"><path d="M302.09,376.763L332.277,391.857L362.464,376.763L362.464,373.871L332.338,388.934L302.175,373.853L302.09,376.763Z" style="fill:none;stroke:#000;stroke-width:0.75px;"/><path d="M332.277,358.802L362.464,373.871" style="fill:none;stroke:#000;stroke-width:0.75px;"/><path d="M332.277,358.802L302.104,373.888" style="fill:none;stroke:#000;stroke-width:0.75px;"/><path d="M302.104,373.888L332.251,388.962L362.457,373.859L332.324,358.792" style="fill:none;stroke:#000;stroke-width:0.75px;"/><path d="M332.277,358.802L362.448,373.863L332.322,388.926L302.175,373.853L332.277,358.802Z" style="fill:#8659a6;"/><path d="M302.173,373.923L332.251,388.962L332.322,388.926L332.338,388.934L362.464,373.871L362.464,376.763L332.277,391.857L302.09,376.763L302.173,373.923Z" style="fill:#644db3;"/></g><g id="Cushion7" serif:id="Cushion"><path d="M242.396,407.245L272.583,422.339L302.77,407.245L302.77,404.353L272.644,419.416L242.482,404.335L242.396,407.245Z" style="fill:none;stroke:#000;stroke-width:0.75px;"/><path d="M272.583,389.284L302.77,404.353" style="fill:none;stroke:#000;stroke-width:0.75px;"/><path d="M272.583,389.284L242.411,404.37" style="fill:none;stroke:#000;stroke-width:0.75px;"/><path d="M242.411,404.37L272.557,419.443L302.763,404.34L272.631,389.274" style="fill:none;stroke:#000;stroke-width:0.75px;"/><path d="M272.583,389.284L302.754,404.345L272.628,419.408L242.482,404.335L272.583,389.284Z" style="fill:#8659a6;"/><path d="M242.479,404.404L272.557,419.443L272.628,419.408L272.644,419.416L302.77,404.353L302.77,407.245L272.583,422.339L242.396,407.245L242.479,404.404Z" style="fill:#644db3;"/></g><g id="Cushion8" serif:id="Cushion"><path d="M422.985,317.087L453.172,332.18L483.359,317.087L483.359,314.194L453.233,329.257L423.07,314.176L422.985,317.087Z" style="fill:none;stroke:#000;stroke-width:0.75px;"/><path d="M453.172,299.125L483.359,314.194" style="fill:none;stroke:#000;stroke-width:0.75px;"/><path d="M453.172,299.125L423,314.211" style="fill:none;stroke:#000;stroke-width:0.75px;"/><path d="M423,314.211L453.146,329.285L483.352,314.182L453.22,299.116" style="fill:none;stroke:#000;stroke-width:0.75px;"/><path d="M453.172,299.125L483.343,314.186L453.217,329.249L423.07,314.176L453.172,299.125Z" style="fill:#8659a6;"/><path d="M423.068,314.246L453.146,329.285L453.217,329.249L453.233,329.257L483.359,314.194L483.359,317.087L453.172,332.18L422.985,317.087L423.068,314.246Z" style="fill:#644db3;"/></g><g id="Cushion9" serif:id="Cushion"><path d="M362.713,347.12L392.9,362.213L423.086,347.12L423.086,344.228L392.96,359.291L362.798,344.209L362.713,347.12Z" style="fill:none;stroke:#000;stroke-width:0.75px;"/><path d="M392.9,329.158L423.086,344.228" style="fill:none;stroke:#000;stroke-width:0.75px;"/><path d="M392.9,329.158L362.727,344.245" style="fill:none;stroke:#000;stroke-width:0.75px;"/><path d="M362.727,344.245L392.874,359.318L423.08,344.215L392.947,329.149" style="fill:none;stroke:#000;stroke-width:0.75px;"/><path d="M392.9,329.158L423.07,344.22L392.944,359.283L362.798,344.209L392.9,329.158Z" style="fill:#8659a6;"/><path d="M362.796,344.279L392.874,359.318L392.944,359.283L392.96,359.291L423.086,344.228L423.086,347.12L392.9,362.213L362.713,347.12L362.796,344.279Z" style="fill:#644db3;"/></g><g id="Cushion10" serif:id="Cushion"><path d="M302.09,376.763L332.277,391.857L362.464,376.763L362.464,373.871L332.338,388.934L302.175,373.853L302.09,376.763Z" style="fill:none;stroke:#000;stroke-width:0.75px;"/><path d="M332.277,358.802L362.464,373.871" style="fill:none;stroke:#000;stroke-width:0.75px;"/><path d="M332.277,358.802L302.104,373.888" style="fill:none;stroke:#000;stroke-width:0.75px;"/><path d="M302.104,373.888L332.251,388.962L362.457,373.859L332.324,358.792" style="fill:none;stroke:#000;stroke-width:0.75px;"/><path d="M332.277,358.802L362.448,373.863L332.322,388.926L302.175,373.853L332.277,358.802Z" style="fill:#8659a6;"/><path d="M302.173,373.923L332.251,388.962L332.322,388.926L332.338,388.934L362.464,373.871L362.464,376.763L332.277,391.857L302.09,376.763L302.173,373.923Z" style="fill:#644db3;"/></g><g id="Cushion11" serif:id="Cushion"><path d="M242.396,407.245L272.583,422.339L302.77,407.245L302.77,404.353L272.644,419.416L242.482,404.335L242.396,407.245Z" style="fill:none;stroke:#000;stroke-width:0.75px;"/><path d="M272.583,389.284L302.77,404.353" style="fill:none;stroke:#000;stroke-width:0.75px;"/><path d="M272.583,389.284L242.411,404.37" style="fill:none;stroke:#000;stroke-width:0.75px;"/><path d="M242.411,404.37L272.557,419.443L302.763,404.34L272.631,389.274" style="fill:none;stroke:#000;stroke-width:0.75px;"/><path d="M272.583,389.284L302.754,404.345L272.628,419.408L242.482,404.335L272.583,389.284Z" style="fill:#8659a6;"/><path d="M242.479,404.404L272.557,419.443L272.628,419.408L272.644,419.416L302.77,404.353L302.77,407.245L272.583,422.339L242.396,407.245L242.479,404.404Z" style="fill:#644db3;"/></g><g id="Cushion12" serif:id="Cushion"><path d="M242.649,317.308L272.836,332.401L303.023,317.308L303.023,314.416L272.897,329.479L242.734,314.398L242.649,317.308Z" style="fill:none;stroke:#000;stroke-width:0.75px;"/><path d="M272.836,299.347L303.023,314.416" style="fill:none;stroke:#000;stroke-width:0.75px;"/><path d="M272.836,299.347L242.663,314.433" style="fill:none;stroke:#000;stroke-width:0.75px;"/><path d="M242.663,314.433L272.81,329.506L303.016,314.403L272.883,299.337" style="fill:none;stroke:#000;stroke-width:0.75px;"/><path d="M272.836,299.347L303.007,314.408L272.881,329.471L242.734,314.398L272.836,299.347Z" style="fill:#8659a6;"/><path d="M242.732,314.467L272.81,329.506L272.881,329.471L272.897,329.479L303.023,314.416L303.023,317.308L272.836,332.401L242.649,317.308L242.732,314.467Z" style="fill:#644db3;"/></g></g><path d="M150.42,332.431L61.56,288.001L60.54,241.128L150.42,286.068L150.42,332.431Z" style="fill:#666;"/><path d="M150.42,332.431L150.42,286.068L60.54,241.128L61.56,288.001L150.42,332.431Z" style="fill:none;stroke:#000;stroke-width:0.75px;"/><path d="M150.42,332.431L150.42,286.068L300.934,213.459L299.875,257.704L150.42,332.431Z" style="fill:#808080;"/><path d="M150.42,332.431L299.875,257.704L300.934,213.459L150.42,286.068L150.42,332.431Z" style="fill:none;stroke:#000;stroke-width:0.75px;"/><path d="M300.934,213.459L150.42,286.068L60.54,241.128L208.407,167.195L300.934,213.459Z" style="fill:#b3b3b3;"/><path d="M300.934,213.459L208.407,167.195L60.54,241.128L150.42,286.068L300.934,213.459Z" style="fill:none;stroke:#000;stroke-width:0.75px;"/><g id="Apples"><g id="Layer1"><ellipse cx="249.79" cy="217.253" rx="16.724" ry="5.525" style="fill:#686868;fill-opacity:0.7;"/><rect x="245.018" y="205.567" width="13.574" height="7.922" style="fill:#ff0015;"/></g><g id="Apple"><path d="M259.002,206.447L258.592,205.128L257.712,203.806L256.832,202.718L254.853,202.046L253.561,201.823L252.871,202.046L252.871,203.806L252.431,205.227L251.772,206.447L250.67,208.207L249.561,208.879L248.91,209.088L251.55,209.968L252.871,211.432L253.311,209.968L254.191,208.879L254.778,208.207L255.698,207.327L257.139,206.842L258.207,206.447L259.002,206.447Z" style="fill:url(#_Linear3);"/><path d="M253.311,204.059L253.311,203.215L254.629,202.926L255.951,203.587L255.951,204.134L254.381,204.687L253.311,204.059Z" style="fill:#ff904a;"/><path d="M253.956,202.643L254.631,202.643L254.631,203.314L254.406,204.258L253.956,204.283L253.956,202.643Z" style="fill:#904900;"/></g><g id="Apple1" serif:id="Apple"><path d="M241.868,205.567L240.548,205.127L239.667,205.127L237.027,205.567L235.266,206.447L234.21,207.767L233.726,208.912L233.594,209.484L233.726,210.98L234.21,212.917L234.826,214.325L235.486,215.293L236.367,216.173L237.291,216.701L239.183,217.274L240.416,217.494L241.516,217.45L242.748,216.657L242.264,215.293L242.352,213.489L243.232,211.64L244.333,210.452L246.753,209.22L246.885,208.956L244.245,208.912L243.012,207.371L242.264,205.875L241.868,205.567Z" style="fill:url(#_Linear4);"/><path d="M238.171,206.095L237.775,206.711L238.391,207.327L240.152,207.107L240.768,206.711L240.372,206.051L239.271,205.963L238.171,206.095Z" style="fill:url(#_Linear5);"/><path d="M238.435,204.863L238.963,204.643L239.051,204.819L239.051,205.831L239.227,206.799L239.403,207.195L238.963,207.239L238.743,206.271L238.655,205.655L238.435,204.863Z" style="fill:#7e3e00;"/></g><g id="Apple2" serif:id="Apple"><path d="M254.191,216.351L254.191,215.689L254.045,214.369L253.751,213.049L253.311,211.728L252.871,211.143L253.311,209.968L253.914,209.088L254.631,208.207L255.722,207.327L257.272,206.7L259.032,206.447L260.193,206.737L261.673,207.327L262.839,208.207L263.659,209.528L264.313,211.288L264.498,212.608L263.873,214.809L262.809,216.569L261.673,217.45L260.089,218.047L258.592,218.33L257.272,218.14L255.071,217.171L254.191,216.351Z" style="fill:url(#_Linear6);"/><path d="M254.191,216.351L255.071,217.171L257.272,218.14L258.592,218.33L260.089,218.047L261.673,217.45L262.809,216.569L263.873,214.809L264.498,212.608L264.313,211.288L263.659,209.528L262.839,208.207L261.673,207.327L260.193,206.737L259.032,206.447L257.272,206.7L255.722,207.327L254.631,208.207L253.914,209.088L253.311,209.968L252.871,211.143L253.311,211.728L253.751,213.049L254.045,214.369L254.191,215.689L254.191,216.351Z" style="fill:url(#_Linear7);"/><path d="M258.684,212.83L259.472,213.929L260.585,213.929L261.233,212.867L261.367,212.168L260.793,211.728L259.912,211.432L258.684,212.83Z" style="fill:#d9a426;"/><path d="M259.472,212.83L259.318,212.608L259.802,212.388L261.069,213.049L262.113,213.314L262.113,213.929L261.673,213.929L259.472,212.83Z" style="fill:#996678;"/></g><g id="Apple3" serif:id="Apple"><path d="M252.816,202.046L252.431,200.78L251.375,199.405L249.79,198.525L248.029,197.973L246.269,198.047L244.509,198.525L243.202,199.405L241.868,200.805L241.562,201.6L241.388,202.926L241.612,204.687L242.158,206.447L242.748,207.513L244.096,209.088L248.91,209.088L250.67,208.207L251.201,207.327L252.021,206.047L252.431,205.277L252.89,203.806L252.816,202.046Z" style="fill:url(#_Linear8);"/><path d="M246.829,198.525L248.617,199.016L248.394,199.612L247.45,200.035L245.389,200.285L244.509,200.035L245.389,199.066L246.269,198.525L246.829,198.525Z" style="fill:#c19900;"/><path d="M245.594,197.783L246.04,197.645L246.269,197.973L246.141,198.525L246.154,198.965L246.472,199.845L246.563,200.098L246.269,200.098L245.829,198.965L245.62,198.085L245.594,197.783Z" style="fill:#856900;"/></g><g id="Apple4" serif:id="Apple"><path d="M243.628,218.77L242.223,215.249L242.314,213.489L243.087,211.728L244.509,209.968L246.726,209.088L248.91,209.088L251.55,209.968L253.311,211.728L253.913,213.489L254.191,216.129L253.311,218.276L251.55,220.232L248.91,221.411L248.029,221.411L245.816,220.96L243.628,218.77Z" style="fill:url(#_Linear9);"/><path d="M247.809,209.968L250.01,211.508L250.01,212.168L248.966,212.608L248.029,212.388L247.809,212.168L247.149,212.168L246.489,212.075L246.489,211.405L247.149,211.288L247.149,210.848L247.809,209.968Z" style="fill:#c3cc33;"/><path d="M248.91,212.608L248.47,212.457L248.603,211.586L248.699,211.002L248.71,210.408L248.71,209.845L249.14,209.678L249.462,209.968L248.91,212.608Z" style="fill:#a67459;"/></g></g><path d="M156.428,261.123L156.577,260.789C156.676,260.69 156.787,260.64 156.911,260.64L157.245,260.789L157.356,260.937L157.393,261.123L157.245,261.494L156.911,261.643C156.787,261.643 156.676,261.593 156.577,261.494L156.539,261.42L156.428,261.123M155.091,258.709L155.24,258.375C155.339,258.276 155.45,258.227 155.574,258.227L155.908,258.375L156.057,258.709L155.908,259.081L155.574,259.229C155.45,259.229 155.339,259.18 155.24,259.081L155.091,258.709" style="fill-rule:nonzero;"/><path d="M156.539,261.42L155.054,262.274L154.311,262.2L154.46,262.46L149.967,264.985L149.41,266.247L149.596,266.804L149.967,267.138L142.355,267.398L145.177,261.457L145.771,261.791L146.774,262.534L147.888,261.828L152.529,258.932L152.715,259.266L158.359,255.85L158.99,255.999L159.064,255.999L159.139,255.924C159.931,255.008 160.475,253.907 160.772,252.62L162.481,253.399L164.189,254.142C163.743,256.172 162.703,257.905 161.07,259.341L160.438,259.155L157.356,260.937L157.245,260.789L156.911,260.64C156.787,260.64 156.676,260.69 156.577,260.789L156.428,261.123L156.539,261.42M155.24,259.081C155.339,259.18 155.45,259.229 155.574,259.229L155.908,259.081L156.057,258.709L155.908,258.375L155.574,258.227C155.45,258.227 155.339,258.276 155.24,258.375L155.091,258.709L155.24,259.081" style="fill:#fcb6c4;fill-rule:nonzero;"/><path d="M164.189,254.142C163.743,256.172 162.703,257.905 161.07,259.341M154.311,262.2L154.46,262.46L149.967,264.985M149.967,267.138L142.355,267.398L145.177,261.457M147.888,261.828L152.529,258.932L152.715,259.266M158.99,255.999L159.064,255.999L159.139,255.924C159.931,255.008 160.475,253.907 160.772,252.62M162.481,253.399C162.035,255.256 161.255,256.63 160.141,257.521M154.311,262.2L152.715,259.266" style="fill:none;fill-rule:nonzero;stroke:#000;stroke-width:0.74px;stroke-miterlimit:3;"/><path d="M149.463,257.64L149.611,257.306C149.711,257.207 149.822,257.158 149.946,257.158L150.28,257.306L150.391,257.455L150.428,257.64L150.28,258.012L149.946,258.16C149.822,258.16 149.711,258.111 149.611,258.012L149.574,257.937L149.463,257.64M148.126,255.227L148.275,254.893C148.374,254.794 148.485,254.744 148.609,254.744L148.943,254.893L149.092,255.227L148.943,255.598L148.609,255.747C148.485,255.747 148.374,255.697 148.275,255.598L148.126,255.227" style="fill-rule:nonzero;"/><path d="M149.574,257.937L148.089,258.791L147.346,258.717L147.495,258.977L143.002,261.502L142.445,262.765L142.631,263.322L143.002,263.656L135.39,263.916L138.212,257.975L138.806,258.309L139.809,259.051L140.923,258.346L145.564,255.45L145.75,255.784L151.394,252.368L152.025,252.516L152.099,252.516L152.174,252.442C152.966,251.526 153.51,250.424 153.807,249.137L155.516,249.917L157.224,250.66C156.778,252.689 155.738,254.422 154.105,255.858L153.473,255.672L150.391,257.455L150.28,257.306L149.946,257.158C149.822,257.158 149.711,257.207 149.611,257.306L149.463,257.64L149.574,257.937M148.275,255.598C148.374,255.697 148.485,255.747 148.609,255.747L148.943,255.598L149.092,255.227L148.943,254.893L148.609,254.744C148.485,254.744 148.374,254.794 148.275,254.893L148.126,255.227L148.275,255.598" style="fill:#fcb6c4;fill-rule:nonzero;"/><path d="M157.224,250.66C156.778,252.689 155.738,254.422 154.105,255.858M147.346,258.717L147.495,258.977L143.002,261.502M143.002,263.656L135.39,263.916L138.212,257.975M140.923,258.346L145.564,255.45L145.75,255.784M152.025,252.516L152.099,252.516L152.174,252.442C152.966,251.526 153.51,250.424 153.807,249.137M155.516,249.917C155.07,251.773 154.29,253.147 153.176,254.039M147.346,258.717L145.75,255.784" style="fill:none;fill-rule:nonzero;stroke:#000;stroke-width:0.74px;stroke-miterlimit:3;"/><path d="M165.505,266.88L165.653,266.546C165.752,266.447 165.864,266.397 165.987,266.397L166.322,266.546L166.433,266.694L166.47,266.88L166.322,267.251L165.987,267.4C165.864,267.4 165.752,267.35 165.653,267.251L165.616,267.177L165.505,266.88M164.168,264.466L164.316,264.132C164.415,264.033 164.527,263.983 164.651,263.983L164.985,264.132L165.133,264.466L164.985,264.837L164.651,264.986C164.527,264.986 164.415,264.936 164.316,264.837L164.168,264.466" style="fill-rule:nonzero;"/><path d="M165.616,267.177L164.131,268.031L163.388,267.957L163.537,268.216L159.044,270.741L158.487,272.004L158.672,272.561L159.044,272.895L151.432,273.155L154.254,267.214L154.848,267.548L155.85,268.291L156.964,267.585L161.606,264.689L161.791,265.023L167.436,261.607L168.067,261.755L168.141,261.755L168.215,261.681C169.008,260.765 169.552,259.664 169.849,258.376L171.557,259.156L173.265,259.899C172.82,261.929 171.78,263.662 170.146,265.097L169.515,264.912L166.433,266.694L166.322,266.546L165.987,266.397C165.864,266.397 165.752,266.447 165.653,266.546L165.505,266.88L165.616,267.177M164.316,264.837C164.415,264.936 164.527,264.986 164.651,264.986L164.985,264.837L165.133,264.466L164.985,264.132L164.651,263.983C164.527,263.983 164.415,264.033 164.316,264.132L164.168,264.466L164.316,264.837" style="fill:#fcb6c4;fill-rule:nonzero;"/><path d="M173.265,259.899C172.82,261.929 171.78,263.662 170.146,265.097M163.388,267.957L163.537,268.216L159.044,270.741M159.044,272.895L151.432,273.155L154.254,267.214M156.964,267.585L161.606,264.689L161.791,265.023M168.067,261.755L168.141,261.755L168.215,261.681C169.008,260.765 169.552,259.664 169.849,258.376M171.557,259.156C171.112,261.013 170.332,262.387 169.218,263.278M163.388,267.957L161.791,265.023" style="fill:none;fill-rule:nonzero;stroke:#000;stroke-width:0.74px;stroke-miterlimit:3;"/><g id="windows"><g id="aa"><path d="M509.377,194.063L507.352,193.051L507.352,238.426L538.889,254.101L542.827,256.013L542.864,255.976L544.589,255.376L574.439,270.301L574.439,268.313L546.839,254.551L544.589,255.376L546.839,254.551L547.027,212.813L542.939,210.751C541.614,210.076 540.277,209.413 538.927,208.763L538.889,252.488L538.889,254.101L538.889,252.488L509.339,237.638L509.377,194.063M542.864,256.051L574.439,271.801L574.439,270.301L544.589,255.376L542.864,255.976L542.864,256.051M507.352,238.426L509.339,237.676L509.339,237.638L509.339,237.676L507.352,238.426M542.939,210.751L542.864,255.976L542.939,210.751" style="fill:#999;"/><path d="M574.439,223.126L574.439,223.013L573.802,222.713L573.652,222.713L574.439,223.126" style="fill:#ccc;"/><path d="M574.439,268.313L574.439,226.426L547.027,212.813L546.839,254.551L574.439,268.313M538.927,208.763L509.377,194.063L509.339,237.638L538.889,252.488L538.927,208.763" style="fill:url(#_Radial10);"/><path d="M509.377,194.063L507.352,193.051L507.352,238.426L538.889,254.101L542.827,256.013L542.864,256.051L574.439,271.801L574.439,268.313M574.439,263.213L574.439,226.426L547.027,212.813L542.939,210.751C541.614,210.076 540.277,209.413 538.927,208.763L509.377,194.063L509.339,237.638L509.339,237.676L507.352,238.426M538.889,252.488L538.889,254.101M574.439,270.301L544.589,255.376L546.839,254.551L574.439,268.313M542.864,255.976L544.589,255.376M542.864,255.976L542.864,256.051M542.864,255.976L542.939,210.751M538.889,252.488L538.927,208.763M509.339,237.638L538.889,252.488M547.027,212.813L546.839,254.551M574.439,268.313L574.439,263.213" style="fill:none;fill-rule:nonzero;stroke:#000;stroke-width:0.75px;stroke-miterlimit:4;"/></g><g id="aa1" serif:id="aa"><path d="M418.847,148.768L416.822,147.755L416.822,193.13L448.359,208.805L452.297,210.718L452.334,210.68L454.059,210.08L483.909,225.005L483.909,223.018L456.309,209.255L454.059,210.08L456.309,209.255L456.497,167.518L452.409,165.455C451.084,164.78 449.747,164.118 448.397,163.468L448.359,207.193L448.359,208.805L448.359,207.193L418.809,192.343L418.847,148.768M452.334,210.755L483.909,226.505L483.909,225.005L454.059,210.08L452.334,210.68L452.334,210.755M416.822,193.13L418.809,192.38L418.809,192.343L418.809,192.38L416.822,193.13M452.409,165.455L452.334,210.68L452.409,165.455" style="fill:#999;"/><path d="M483.909,177.83L483.909,177.718L483.272,177.418L483.122,177.418L483.909,177.83" style="fill:#ccc;"/><path d="M483.909,223.018L483.909,181.13L456.497,167.518L456.309,209.255L483.909,223.018M448.397,163.468L418.847,148.768L418.809,192.343L448.359,207.193L448.397,163.468" style="fill:url(#_Radial11);"/><path d="M418.847,148.768L416.822,147.755L416.822,193.13L448.359,208.805L452.297,210.718L452.334,210.755L483.909,226.505L483.909,223.018M483.909,217.918L483.909,181.13L456.497,167.518L452.409,165.455C451.084,164.78 449.747,164.118 448.397,163.468L418.847,148.768L418.809,192.343L418.809,192.38L416.822,193.13M448.359,207.193L448.359,208.805M483.909,225.005L454.059,210.08L456.309,209.255L483.909,223.018M452.334,210.68L454.059,210.08M452.334,210.68L452.334,210.755M452.334,210.68L452.409,165.455M448.359,207.193L448.397,163.468M418.809,192.343L448.359,207.193M456.497,167.518L456.309,209.255M483.909,223.018L483.909,217.918" style="fill:none;fill-rule:nonzero;stroke:#000;stroke-width:0.75px;stroke-miterlimit:4;"/></g><g id="aa2" serif:id="aa"><path d="M328.267,103.497L326.242,102.484L326.242,147.859L357.78,163.534L361.717,165.447L361.755,165.409L363.48,164.809L393.33,179.734L393.33,177.747L365.73,163.984L363.48,164.809L365.73,163.984L365.917,122.247L361.83,120.184C360.505,119.509 359.167,118.847 357.817,118.197L357.78,161.922L357.78,163.534L357.78,161.922L328.23,147.072L328.267,103.497M361.755,165.484L393.33,181.234L393.33,179.734L363.48,164.809L361.755,165.409L361.755,165.484M326.242,147.859L328.23,147.109L328.23,147.072L328.23,147.109L326.242,147.859M361.83,120.184L361.755,165.409L361.83,120.184" style="fill:#999;"/><path d="M393.33,132.559L393.33,132.447L392.692,132.147L392.542,132.147L393.33,132.559" style="fill:#ccc;"/><path d="M393.33,177.747L393.33,135.859L365.917,122.247L365.73,163.984L393.33,177.747M357.817,118.197L328.267,103.497L328.23,147.072L357.78,161.922L357.817,118.197" style="fill:url(#_Radial12);"/><path d="M328.267,103.497L326.242,102.484L326.242,147.859L357.78,163.534L361.717,165.447L361.755,165.484L393.33,181.234L393.33,177.747M393.33,172.647L393.33,135.859L365.917,122.247L361.83,120.184C360.505,119.509 359.167,118.847 357.817,118.197L328.267,103.497L328.23,147.072L328.23,147.109L326.242,147.859M357.78,161.922L357.78,163.534M393.33,179.734L363.48,164.809L365.73,163.984L393.33,177.747M361.755,165.409L363.48,164.809M361.755,165.409L361.755,165.484M361.755,165.409L361.83,120.184M357.78,161.922L357.817,118.197M328.23,147.072L357.78,161.922M365.917,122.247L365.73,163.984M393.33,177.747L393.33,172.647" style="fill:none;fill-rule:nonzero;stroke:#000;stroke-width:0.75px;stroke-miterlimit:4;"/></g></g><path d="M492.055,419.584L477.093,412.084L462.205,419.509L477.205,427.009L471.505,429.859L497.643,430.046L497.643,416.996L492.055,419.584" style="fill:#fc6;fill-opacity:0.6;fill-rule:nonzero;"/><path d="M497.643,416.996L497.643,430.046L471.505,429.859L477.205,427.009L462.205,419.509L477.093,412.084L492.055,419.584L497.643,416.996Z" style="fill:none;fill-rule:nonzero;stroke:#f60;stroke-opacity:0.6;stroke-width:0.75px;stroke-miterlimit:3;"/><defs><linearGradient id="_Linear1" x1="0" y1="0" x2="1" y2="0" gradientUnits="userSpaceOnUse" gradientTransform="matrix(95.8545,180.25,-180.25,95.8545,146.016,16.3396)"><stop offset="0" style="stop-color:#fff;stop-opacity:1"/><stop offset="1" style="stop-color:#e6e6e6;stop-opacity:1"/></linearGradient><linearGradient id="_Linear2" x1="0" y1="0" x2="1" y2="0" gradientUnits="userSpaceOnUse" gradientTransform="matrix(3.72093,300.775,-300.775,3.72093,570.202,14.4792)"><stop offset="0" style="stop-color:#fff;stop-opacity:1"/><stop offset="1" style="stop-color:#e6e6e6;stop-opacity:1"/></linearGradient><linearGradient id="_Linear3" x1="0" y1="0" x2="1" y2="0" gradientUnits="userSpaceOnUse" gradientTransform="matrix(-3.39835,3.96876,-3.96876,-3.39835,256.269,204.687)"><stop offset="0" style="stop-color:#f00;stop-opacity:1"/><stop offset="1" style="stop-color:#800;stop-opacity:1"/></linearGradient><linearGradient id="_Linear4" x1="0" y1="0" x2="1" y2="0" gradientUnits="userSpaceOnUse" gradientTransform="matrix(4.44781,0.440107,-0.440107,4.44781,237.775,209.968)"><stop offset="0" style="stop-color:#ff0018;stop-opacity:1"/><stop offset="1" style="stop-color:#99000e;stop-opacity:1"/></linearGradient><linearGradient id="_Linear5" x1="0" y1="0" x2="1" y2="0" gradientUnits="userSpaceOnUse" gradientTransform="matrix(-0.132032,1.2323,-1.2323,-0.132032,239.403,206.007)"><stop offset="0" style="stop-color:#ff0018;stop-opacity:1"/><stop offset="1" style="stop-color:#7e000c;stop-opacity:1"/></linearGradient><linearGradient id="_Linear6" x1="0" y1="0" x2="1" y2="0" gradientUnits="userSpaceOnUse" gradientTransform="matrix(-6.60161,-3.96097,3.96097,-6.60161,262.113,213.049)"><stop offset="0" style="stop-color:#e72a15;stop-opacity:1"/><stop offset="1" style="stop-color:#970f00;stop-opacity:1"/></linearGradient><linearGradient id="_Linear7" x1="0" y1="0" x2="1" y2="0" gradientUnits="userSpaceOnUse" gradientTransform="matrix(-6.60161,-3.96097,3.96097,-6.60161,262.113,213.049)"><stop offset="0" style="stop-color:#e72a15;stop-opacity:1"/><stop offset="1" style="stop-color:#970f00;stop-opacity:1"/></linearGradient><linearGradient id="_Linear8" x1="0" y1="0" x2="1" y2="0" gradientUnits="userSpaceOnUse" gradientTransform="matrix(-5.7214,2.20054,-2.20054,-5.7214,249.79,201.606)"><stop offset="0" style="stop-color:#ff0007;stop-opacity:1"/><stop offset="1" style="stop-color:#9f000f;stop-opacity:1"/></linearGradient><linearGradient id="_Linear9" x1="0" y1="0" x2="1" y2="0" gradientUnits="userSpaceOnUse" gradientTransform="matrix(-1.98048,6.38156,-6.38156,-1.98048,251.77,212.829)"><stop offset="0" style="stop-color:#e6301a;stop-opacity:1"/><stop offset="1" style="stop-color:#993600;stop-opacity:1"/></linearGradient><radialGradient id="_Radial10" cx="0" cy="0" r="1" gradientUnits="userSpaceOnUse" gradientTransform="matrix(-41.1648,-3.31776,0,36.3725,535.777,214.238)"><stop offset="0" style="stop-color:#fff;stop-opacity:1"/><stop offset="0.13" style="stop-color:#fff;stop-opacity:1"/><stop offset="1" style="stop-color:#6459ea;stop-opacity:1"/></radialGradient><radialGradient id="_Radial11" cx="0" cy="0" r="1" gradientUnits="userSpaceOnUse" gradientTransform="matrix(-41.1648,-3.31776,0,36.3725,445.247,168.943)"><stop offset="0" style="stop-color:#fff;stop-opacity:1"/><stop offset="0.13" style="stop-color:#fff;stop-opacity:1"/><stop offset="1" style="stop-color:#6459ea;stop-opacity:1"/></radialGradient><radialGradient id="_Radial12" cx="0" cy="0" r="1" gradientUnits="userSpaceOnUse" gradientTransform="matrix(-41.1648,-3.31776,0,36.3725,354.667,123.672)"><stop offset="0" style="stop-color:#fff;stop-opacity:1"/><stop offset="0.13" style="stop-color:#fff;stop-opacity:1"/><stop offset="1" style="stop-color:#6459ea;stop-opacity:1"/></radialGradient></defs></svg>