<?xml version="1.0" encoding="UTF-8" standalone="no"?><!DOCTYPE svg PUBLIC "-//W3C//DTD SVG 1.1//EN" "http://www.w3.org/Graphics/SVG/1.1/DTD/svg11.dtd"><svg width="848px" height="666px" version="1.1" xmlns="http://www.w3.org/2000/svg" xmlns:xlink="http://www.w3.org/1999/xlink" xml:space="preserve" xmlns:serif="http://www.serif.com/" style="fill-rule:evenodd;clip-rule:evenodd;stroke-linecap:round;stroke-linejoin:round;stroke-miterlimit:1.5;"><g id="Background"><path d="M362.743,243.09L362.743,0.5" style="fill:none;stroke:#000;stroke-width:1px;"/><path d="M362.743,243.09L846.771,483.77L484.524,664.894L1.83,423.546L362.743,243.09Z" style="fill:#a4a4a4;"/><path id="Wall" d="M1.83,21.289L362.743,0.5L362.743,243.09L0.5,422.882L1.83,21.289Z" style="fill:url(#_Linear1);"/><path d="M846.771,2.113L362.743,0.5L362.982,241.876L847.067,483.918L846.771,2.113Z" style="fill:url(#_Linear2);"/></g><g id="Floor-Tiles" serif:id="Floor Tiles"><g id="floor-tiles" serif:id="floor tiles"><path d="M463.366,634.425L483.491,644.488L463.484,654.491L443.477,644.37L463.366,634.425Z" style="fill:#b3b3b3;"/><path d="M503.615,654.55L483.491,644.488L503.615,634.425L523.74,644.488L503.615,654.55Z" style="fill:#b3b3b3;"/><path d="M483.491,624.363L443.477,644.37L483.491,664.612L523.74,644.488L483.491,624.363Z" style="fill:none;stroke:#bebebe;stroke-width:1px;"/><path d="M503.615,634.425L463.381,654.542" style="fill:none;stroke:#bebebe;stroke-width:1px;"/><path d="M463.366,634.425L503.615,654.55" style="fill:none;stroke:#bebebe;stroke-width:1px;"/></g><g id="floor-tiles1" serif:id="floor tiles"><path d="M503.38,614.293L523.505,624.355L503.498,634.359L483.491,624.238L503.38,614.293Z" style="fill:#b3b3b3;"/><path d="M543.629,634.418L523.505,624.355L543.629,614.293L563.754,624.355L543.629,634.418Z" style="fill:#b3b3b3;"/><path d="M523.505,604.231L483.491,624.238L523.505,644.48L563.754,624.355L523.505,604.231Z" style="fill:none;stroke:#bebebe;stroke-width:1px;"/><path d="M543.629,614.293L503.395,634.41" style="fill:none;stroke:#bebebe;stroke-width:1px;"/><path d="M503.38,614.293L543.629,634.418" style="fill:none;stroke:#bebebe;stroke-width:1px;"/></g><g id="floor-tiles2" serif:id="floor tiles"><path d="M543.629,594.235L563.754,604.297L543.747,614.301L523.74,604.18L543.629,594.235Z" style="fill:#b3b3b3;"/><path d="M583.879,614.359L563.754,604.297L583.879,594.235L604.003,604.297L583.879,614.359Z" style="fill:#b3b3b3;"/><path d="M563.754,584.173L523.74,604.18L563.754,624.422L604.003,604.297L563.754,584.173Z" style="fill:none;stroke:#bebebe;stroke-width:1px;"/><path d="M583.879,594.235L543.644,614.352" style="fill:none;stroke:#bebebe;stroke-width:1px;"/><path d="M543.629,594.235L583.879,614.359" style="fill:none;stroke:#bebebe;stroke-width:1px;"/></g><g id="floor-tiles3" serif:id="floor tiles"><path d="M584.292,573.904L604.417,583.966L584.41,593.969L564.403,583.848L584.292,573.904Z" style="fill:#b3b3b3;"/><path d="M624.541,594.028L604.417,583.966L624.541,573.904L644.666,583.966L624.541,594.028Z" style="fill:#b3b3b3;"/><path d="M604.417,563.841L564.403,583.848L604.417,604.09L644.666,583.966L604.417,563.841Z" style="fill:none;stroke:#bebebe;stroke-width:1px;"/><path d="M624.541,573.904L584.307,594.021" style="fill:none;stroke:#bebebe;stroke-width:1px;"/><path d="M584.292,573.904L624.541,594.028" style="fill:none;stroke:#bebebe;stroke-width:1px;"/></g><g id="floor-tiles4" serif:id="floor tiles"><path d="M423.058,614.33L443.183,624.392L423.176,634.396L403.169,624.275L423.058,614.33Z" style="fill:#b3b3b3;"/><path d="M463.307,634.455L443.183,624.392L463.307,614.33L483.432,624.392L463.307,634.455Z" style="fill:#b3b3b3;"/><path d="M443.183,604.268L403.169,624.275L443.183,644.517L483.432,624.392L443.183,604.268Z" style="fill:none;stroke:#bebebe;stroke-width:1px;"/><path d="M463.307,614.33L423.073,634.447" style="fill:none;stroke:#bebebe;stroke-width:1px;"/><path d="M423.058,614.33L463.307,634.455" style="fill:none;stroke:#bebebe;stroke-width:1px;"/></g><g id="floor-tiles5" serif:id="floor tiles"><path d="M463.366,594.176L483.491,604.238L463.484,614.242L443.477,604.121L463.366,594.176Z" style="fill:#b3b3b3;"/><path d="M503.615,614.301L483.491,604.238L503.615,594.176L523.74,604.238L503.615,614.301Z" style="fill:#b3b3b3;"/><path d="M483.491,584.114L443.477,604.121L483.491,624.363L523.74,604.238L483.491,584.114Z" style="fill:none;stroke:#bebebe;stroke-width:1px;"/><path d="M503.615,594.176L463.381,614.293" style="fill:none;stroke:#bebebe;stroke-width:1px;"/><path d="M463.366,594.176L503.615,614.301" style="fill:none;stroke:#bebebe;stroke-width:1px;"/></g><g id="floor-tiles6" serif:id="floor tiles"><path d="M503.498,574.11L523.622,584.173L503.615,594.176L483.608,584.055L503.498,574.11Z" style="fill:#b3b3b3;"/><path d="M543.747,594.235L523.622,584.173L543.747,574.11L563.872,584.173L543.747,594.235Z" style="fill:#b3b3b3;"/><path d="M523.622,564.048L483.608,584.055L523.622,604.297L563.872,584.173L523.622,564.048Z" style="fill:none;stroke:#bebebe;stroke-width:1px;"/><path d="M543.747,574.11L503.513,594.227" style="fill:none;stroke:#bebebe;stroke-width:1px;"/><path d="M503.498,574.11L543.747,594.235" style="fill:none;stroke:#bebebe;stroke-width:1px;"/></g><g id="floor-tiles7" serif:id="floor tiles"><path d="M543.629,553.572L563.754,563.634L543.747,573.638L523.74,563.517L543.629,553.572Z" style="fill:#b3b3b3;"/><path d="M583.879,573.697L563.754,563.634L583.879,553.572L604.003,563.634L583.879,573.697Z" style="fill:#b3b3b3;"/><path d="M563.754,543.51L523.74,563.517L563.754,583.759L604.003,563.634L563.754,543.51Z" style="fill:none;stroke:#bebebe;stroke-width:1px;"/><path d="M583.879,553.572L543.644,573.689" style="fill:none;stroke:#bebebe;stroke-width:1px;"/><path d="M543.629,553.572L583.879,573.697" style="fill:none;stroke:#bebebe;stroke-width:1px;"/></g><g id="floor-tiles8" serif:id="floor tiles"><path d="M664.312,534.13L684.437,544.192L664.43,554.195L644.423,544.074L664.312,534.13Z" style="fill:#b3b3b3;"/><path d="M704.561,554.254L684.437,544.192L704.561,534.13L724.686,544.192L704.561,554.254Z" style="fill:#b3b3b3;"/><path d="M684.437,524.067L644.423,544.074L684.437,564.316L724.686,544.192L684.437,524.067Z" style="fill:none;stroke:#bebebe;stroke-width:1px;"/><path d="M704.561,534.13L664.327,554.247" style="fill:none;stroke:#bebebe;stroke-width:1px;"/><path d="M664.312,534.13L704.561,554.254" style="fill:none;stroke:#bebebe;stroke-width:1px;"/></g><g id="floor-tiles9" serif:id="floor tiles"><path d="M704.326,513.997L724.451,524.06L704.444,534.063L684.437,523.942L704.326,513.997Z" style="fill:#b3b3b3;"/><path d="M744.575,534.122L724.451,524.06L744.575,513.997L764.7,524.06L744.575,534.122Z" style="fill:#b3b3b3;"/><path d="M724.451,503.935L684.437,523.942L724.451,544.184L764.7,524.06L724.451,503.935Z" style="fill:none;stroke:#bebebe;stroke-width:1px;"/><path d="M744.575,513.997L704.341,534.115" style="fill:none;stroke:#bebebe;stroke-width:1px;"/><path d="M704.326,513.997L744.575,534.122" style="fill:none;stroke:#bebebe;stroke-width:1px;"/></g><g id="floor-tiles10" serif:id="floor tiles"><path d="M744.575,493.939L764.7,504.001L744.693,514.005L724.686,503.884L744.575,493.939Z" style="fill:#b3b3b3;"/><path d="M784.825,514.064L764.7,504.001L784.825,493.939L804.949,504.001L784.825,514.064Z" style="fill:#b3b3b3;"/><path d="M764.7,483.877L724.686,503.884L764.7,524.126L804.949,504.001L764.7,483.877Z" style="fill:none;stroke:#bebebe;stroke-width:1px;"/><path d="M784.825,493.939L744.59,514.056" style="fill:none;stroke:#bebebe;stroke-width:1px;"/><path d="M744.575,493.939L784.825,514.064" style="fill:none;stroke:#bebebe;stroke-width:1px;"/></g><g id="floor-tiles11" serif:id="floor tiles"><path d="M785.238,473.608L805.363,483.67L785.356,493.674L765.349,483.553L785.238,473.608Z" style="fill:#b3b3b3;"/><path d="M825.487,493.732L805.363,483.67L825.487,473.608L845.612,483.67L825.487,493.732Z" style="fill:#b3b3b3;"/><path d="M805.363,463.545L765.349,483.553L805.363,503.795L845.612,483.67L805.363,463.545Z" style="fill:none;stroke:#bebebe;stroke-width:1px;"/><path d="M825.487,473.608L785.253,493.725" style="fill:none;stroke:#bebebe;stroke-width:1px;"/><path d="M785.238,473.608L825.487,493.732" style="fill:none;stroke:#bebebe;stroke-width:1px;"/></g><g id="floor-tiles12" serif:id="floor tiles"><path d="M624.004,514.034L644.129,524.097L624.122,534.1L604.115,523.979L624.004,514.034Z" style="fill:#b3b3b3;"/><path d="M664.253,534.159L644.129,524.097L664.253,514.034L684.378,524.097L664.253,534.159Z" style="fill:#b3b3b3;"/><path d="M644.129,503.972L604.115,523.979L644.129,544.221L684.378,524.097L644.129,503.972Z" style="fill:none;stroke:#bebebe;stroke-width:1px;"/><path d="M664.253,514.034L624.019,534.151" style="fill:none;stroke:#bebebe;stroke-width:1px;"/><path d="M624.004,514.034L664.253,534.159" style="fill:none;stroke:#bebebe;stroke-width:1px;"/></g><g id="floor-tiles13" serif:id="floor tiles"><path d="M664.312,493.88L684.437,503.943L664.43,513.946L644.423,503.825L664.312,493.88Z" style="fill:#b3b3b3;"/><path d="M704.561,514.005L684.437,503.943L704.561,493.88L724.686,503.943L704.561,514.005Z" style="fill:#b3b3b3;"/><path d="M684.437,483.818L644.423,503.825L684.437,524.067L724.686,503.943L684.437,483.818Z" style="fill:none;stroke:#bebebe;stroke-width:1px;"/><path d="M704.561,493.88L664.327,513.997" style="fill:none;stroke:#bebebe;stroke-width:1px;"/><path d="M664.312,493.88L704.561,514.005" style="fill:none;stroke:#bebebe;stroke-width:1px;"/></g><g id="floor-tiles14" serif:id="floor tiles"><path d="M704.444,473.815L724.568,483.877L704.561,493.88L684.554,483.759L704.444,473.815Z" style="fill:#b3b3b3;"/><path d="M744.693,493.939L724.568,483.877L744.693,473.815L764.818,483.877L744.693,493.939Z" style="fill:#b3b3b3;"/><path d="M724.568,463.752L684.554,483.759L724.568,504.001L764.818,483.877L724.568,463.752Z" style="fill:none;stroke:#bebebe;stroke-width:1px;"/><path d="M744.693,473.815L704.459,493.932" style="fill:none;stroke:#bebebe;stroke-width:1px;"/><path d="M704.444,473.815L744.693,493.939" style="fill:none;stroke:#bebebe;stroke-width:1px;"/></g><g id="floor-tiles15" serif:id="floor tiles"><path d="M744.575,453.276L764.7,463.339L744.693,473.342L724.686,463.221L744.575,453.276Z" style="fill:#b3b3b3;"/><path d="M784.825,473.401L764.7,463.339L784.825,453.276L804.949,463.339L784.825,473.401Z" style="fill:#b3b3b3;"/><path d="M764.7,443.214L724.686,463.221L764.7,483.463L804.949,463.339L764.7,443.214Z" style="fill:none;stroke:#bebebe;stroke-width:1px;"/><path d="M784.825,453.276L744.59,473.394" style="fill:none;stroke:#bebebe;stroke-width:1px;"/><path d="M744.575,453.276L784.825,473.401" style="fill:none;stroke:#bebebe;stroke-width:1px;"/></g><g id="floor-tiles16" serif:id="floor tiles"><path d="M583.814,493.225L603.938,503.287L583.931,513.29L563.924,503.169L583.814,493.225Z" style="fill:#b3b3b3;"/><path d="M624.063,513.349L603.938,503.287L624.063,493.225L644.188,503.287L624.063,513.349Z" style="fill:#b3b3b3;"/><path d="M603.938,483.162L563.924,503.169L603.938,523.412L644.188,503.287L603.938,483.162Z" style="fill:none;stroke:#bebebe;stroke-width:1px;"/><path d="M624.063,493.225L583.829,513.342" style="fill:none;stroke:#bebebe;stroke-width:1px;"/><path d="M583.814,493.225L624.063,513.349" style="fill:none;stroke:#bebebe;stroke-width:1px;"/></g><g id="floor-tiles17" serif:id="floor tiles"><path d="M623.828,473.093L643.952,483.155L623.945,493.158L603.938,483.037L623.828,473.093Z" style="fill:#b3b3b3;"/><path d="M664.077,493.217L643.952,483.155L664.077,473.093L684.202,483.155L664.077,493.217Z" style="fill:#b3b3b3;"/><path d="M643.952,463.03L603.938,483.037L643.952,503.279L684.202,483.155L643.952,463.03Z" style="fill:none;stroke:#bebebe;stroke-width:1px;"/><path d="M664.077,473.093L623.843,493.21" style="fill:none;stroke:#bebebe;stroke-width:1px;"/><path d="M623.828,473.093L664.077,493.217" style="fill:none;stroke:#bebebe;stroke-width:1px;"/></g><g id="floor-tiles18" serif:id="floor tiles"><path d="M664.077,453.034L684.202,463.097L664.195,473.1L644.188,462.979L664.077,453.034Z" style="fill:#b3b3b3;"/><path d="M704.326,473.159L684.202,463.097L704.326,453.034L724.451,463.097L704.326,473.159Z" style="fill:#b3b3b3;"/><path d="M684.202,442.972L644.188,462.979L684.202,483.221L724.451,463.097L684.202,442.972Z" style="fill:none;stroke:#bebebe;stroke-width:1px;"/><path d="M704.326,453.034L664.092,473.151" style="fill:none;stroke:#bebebe;stroke-width:1px;"/><path d="M664.077,453.034L704.326,473.159" style="fill:none;stroke:#bebebe;stroke-width:1px;"/></g><g id="floor-tiles19" serif:id="floor tiles"><path d="M704.74,432.703L724.864,442.765L704.857,452.769L684.85,442.648L704.74,432.703Z" style="fill:#b3b3b3;"/><path d="M744.989,452.828L724.864,442.765L744.989,432.703L765.113,442.765L744.989,452.828Z" style="fill:#b3b3b3;"/><path d="M724.864,422.641L684.85,442.648L724.864,462.89L765.113,442.765L724.864,422.641Z" style="fill:none;stroke:#bebebe;stroke-width:1px;"/><path d="M744.989,432.703L704.755,452.82" style="fill:none;stroke:#bebebe;stroke-width:1px;"/><path d="M704.74,432.703L744.989,452.828" style="fill:none;stroke:#bebebe;stroke-width:1px;"/></g><g id="floor-tiles20" serif:id="floor tiles"><path d="M543.506,473.129L563.63,483.192L543.623,493.195L523.616,483.074L543.506,473.129Z" style="fill:#b3b3b3;"/><path d="M583.755,493.254L563.63,483.192L583.755,473.129L603.88,483.192L583.755,493.254Z" style="fill:#b3b3b3;"/><path d="M563.63,463.067L523.616,483.074L563.63,503.316L603.88,483.192L563.63,463.067Z" style="fill:none;stroke:#bebebe;stroke-width:1px;"/><path d="M583.755,473.129L543.521,493.247" style="fill:none;stroke:#bebebe;stroke-width:1px;"/><path d="M543.506,473.129L583.755,493.254" style="fill:none;stroke:#bebebe;stroke-width:1px;"/></g><g id="floor-tiles21" serif:id="floor tiles"><path d="M583.814,452.975L603.938,463.038L583.931,473.041L563.924,462.92L583.814,452.975Z" style="fill:#b3b3b3;"/><path d="M624.063,473.1L603.938,463.038L624.063,452.975L644.188,463.038L624.063,473.1Z" style="fill:#b3b3b3;"/><path d="M603.938,442.913L563.924,462.92L603.938,483.162L644.188,463.038L603.938,442.913Z" style="fill:none;stroke:#bebebe;stroke-width:1px;"/><path d="M624.063,452.975L583.829,473.093" style="fill:none;stroke:#bebebe;stroke-width:1px;"/><path d="M583.814,452.975L624.063,473.1" style="fill:none;stroke:#bebebe;stroke-width:1px;"/></g><g id="floor-tiles22" serif:id="floor tiles"><path d="M623.945,432.91L644.07,442.972L624.063,452.975L604.056,442.854L623.945,432.91Z" style="fill:#b3b3b3;"/><path d="M664.195,453.034L644.07,442.972L664.195,432.91L684.319,442.972L664.195,453.034Z" style="fill:#b3b3b3;"/><path d="M644.07,422.847L604.056,442.854L644.07,463.097L684.319,442.972L644.07,422.847Z" style="fill:none;stroke:#bebebe;stroke-width:1px;"/><path d="M664.195,432.91L623.96,453.027" style="fill:none;stroke:#bebebe;stroke-width:1px;"/><path d="M623.945,432.91L664.195,453.034" style="fill:none;stroke:#bebebe;stroke-width:1px;"/></g><g id="floor-tiles23" serif:id="floor tiles"><path d="M664.077,412.372L684.202,422.434L664.195,432.437L644.188,422.316L664.077,412.372Z" style="fill:#b3b3b3;"/><path d="M704.326,432.496L684.202,422.434L704.326,412.372L724.451,422.434L704.326,432.496Z" style="fill:#b3b3b3;"/><path d="M684.202,402.309L644.188,422.316L684.202,442.558L724.451,422.434L684.202,402.309Z" style="fill:none;stroke:#bebebe;stroke-width:1px;"/><path d="M704.326,412.372L664.092,432.489" style="fill:none;stroke:#bebebe;stroke-width:1px;"/><path d="M664.077,412.372L704.326,432.496" style="fill:none;stroke:#bebebe;stroke-width:1px;"/></g><g id="floor-tiles24" serif:id="floor tiles"><path d="M382.897,594.339L403.022,604.401L383.015,614.405L363.008,604.283L382.897,594.339Z" style="fill:#b3b3b3;"/><path d="M423.146,614.463L403.022,604.401L423.146,594.339L443.271,604.401L423.146,614.463Z" style="fill:#b3b3b3;"/><path d="M403.022,584.276L363.008,604.283L403.022,624.526L443.271,604.401L403.022,584.276Z" style="fill:none;stroke:#bebebe;stroke-width:1px;"/><path d="M423.146,594.339L382.912,614.456" style="fill:none;stroke:#bebebe;stroke-width:1px;"/><path d="M382.897,594.339L423.146,614.463" style="fill:none;stroke:#bebebe;stroke-width:1px;"/></g><g id="floor-tiles25" serif:id="floor tiles"><path d="M422.911,574.207L443.036,584.269L423.029,594.272L403.022,584.151L422.911,574.207Z" style="fill:#b3b3b3;"/><path d="M463.16,594.331L443.036,584.269L463.16,574.207L483.285,584.269L463.16,594.331Z" style="fill:#b3b3b3;"/><path d="M443.036,564.144L403.022,584.151L443.036,604.393L483.285,584.269L443.036,564.144Z" style="fill:none;stroke:#bebebe;stroke-width:1px;"/><path d="M463.16,574.207L422.926,594.324" style="fill:none;stroke:#bebebe;stroke-width:1px;"/><path d="M422.911,574.207L463.16,594.331" style="fill:none;stroke:#bebebe;stroke-width:1px;"/></g><g id="floor-tiles26" serif:id="floor tiles"><path d="M463.16,554.148L483.285,564.211L463.278,574.214L443.271,564.093L463.16,554.148Z" style="fill:#b3b3b3;"/><path d="M503.41,574.273L483.285,564.211L503.41,554.148L523.534,564.211L503.41,574.273Z" style="fill:#b3b3b3;"/><path d="M483.285,544.086L443.271,564.093L483.285,584.335L523.534,564.211L483.285,544.086Z" style="fill:none;stroke:#bebebe;stroke-width:1px;"/><path d="M503.41,554.148L463.175,574.265" style="fill:none;stroke:#bebebe;stroke-width:1px;"/><path d="M463.16,554.148L503.41,574.273" style="fill:none;stroke:#bebebe;stroke-width:1px;"/></g><g id="floor-tiles27" serif:id="floor tiles"><path d="M503.823,533.817L523.948,543.879L503.941,553.883L483.934,543.762L503.823,533.817Z" style="fill:#b3b3b3;"/><path d="M544.072,553.942L523.948,543.879L544.072,533.817L564.197,543.879L544.072,553.942Z" style="fill:#b3b3b3;"/><path d="M523.948,523.755L483.934,543.762L523.948,564.004L564.197,543.879L523.948,523.755Z" style="fill:none;stroke:#bebebe;stroke-width:1px;"/><path d="M544.072,533.817L503.838,553.934" style="fill:none;stroke:#bebebe;stroke-width:1px;"/><path d="M503.823,533.817L544.072,553.942" style="fill:none;stroke:#bebebe;stroke-width:1px;"/></g><g id="floor-tiles28" serif:id="floor tiles"><path d="M342.589,574.243L362.714,584.306L342.707,594.309L322.7,584.188L342.589,574.243Z" style="fill:#b3b3b3;"/><path d="M382.838,594.368L362.714,584.306L382.838,574.243L402.963,584.306L382.838,594.368Z" style="fill:#b3b3b3;"/><path d="M362.714,564.181L322.7,584.188L362.714,604.43L402.963,584.306L362.714,564.181Z" style="fill:none;stroke:#bebebe;stroke-width:1px;"/><path d="M382.838,574.243L342.604,594.361" style="fill:none;stroke:#bebebe;stroke-width:1px;"/><path d="M342.589,574.243L382.838,594.368" style="fill:none;stroke:#bebebe;stroke-width:1px;"/></g><g id="floor-tiles29" serif:id="floor tiles"><path d="M382.897,554.089L403.022,564.152L383.015,574.155L363.008,564.034L382.897,554.089Z" style="fill:#b3b3b3;"/><path d="M423.146,574.214L403.022,564.152L423.146,554.089L443.271,564.152L423.146,574.214Z" style="fill:#b3b3b3;"/><path d="M403.022,544.027L363.008,564.034L403.022,584.276L443.271,564.152L403.022,544.027Z" style="fill:none;stroke:#bebebe;stroke-width:1px;"/><path d="M423.146,554.089L382.912,574.207" style="fill:none;stroke:#bebebe;stroke-width:1px;"/><path d="M382.897,554.089L423.146,574.214" style="fill:none;stroke:#bebebe;stroke-width:1px;"/></g><g id="floor-tiles30" serif:id="floor tiles"><path d="M423.029,534.024L443.153,544.086L423.146,554.089L403.139,543.968L423.029,534.024Z" style="fill:#b3b3b3;"/><path d="M463.278,554.148L443.153,544.086L463.278,534.024L483.403,544.086L463.278,554.148Z" style="fill:#b3b3b3;"/><path d="M443.153,523.961L403.139,543.968L443.153,564.211L483.403,544.086L443.153,523.961Z" style="fill:none;stroke:#bebebe;stroke-width:1px;"/><path d="M463.278,534.024L423.044,554.141" style="fill:none;stroke:#bebebe;stroke-width:1px;"/><path d="M423.029,534.024L463.278,554.148" style="fill:none;stroke:#bebebe;stroke-width:1px;"/></g><g id="floor-tiles31" serif:id="floor tiles"><path d="M463.16,513.486L483.285,523.548L463.278,533.551L443.271,523.43L463.16,513.486Z" style="fill:#b3b3b3;"/><path d="M503.41,533.61L483.285,523.548L503.41,513.486L523.534,523.548L503.41,533.61Z" style="fill:#b3b3b3;"/><path d="M483.285,503.423L443.271,523.43L483.285,543.672L523.534,523.548L483.285,503.423Z" style="fill:none;stroke:#bebebe;stroke-width:1px;"/><path d="M503.41,513.486L463.175,533.603" style="fill:none;stroke:#bebebe;stroke-width:1px;"/><path d="M463.16,513.486L503.41,533.61" style="fill:none;stroke:#bebebe;stroke-width:1px;"/></g><g id="floor-tiles32" serif:id="floor tiles"><path d="M303.51,553.684L323.635,563.746L303.628,573.75L283.621,563.629L303.51,553.684Z" style="fill:#b3b3b3;"/><path d="M343.76,573.809L323.635,563.746L343.76,553.684L363.884,563.746L343.76,573.809Z" style="fill:#b3b3b3;"/><path d="M323.635,543.622L283.621,563.629L323.635,583.871L363.884,563.746L323.635,543.622Z" style="fill:none;stroke:#bebebe;stroke-width:1px;"/><path d="M343.76,553.684L303.525,573.801" style="fill:none;stroke:#bebebe;stroke-width:1px;"/><path d="M303.51,553.684L343.76,573.809" style="fill:none;stroke:#bebebe;stroke-width:1px;"/></g><g id="floor-tiles33" serif:id="floor tiles"><path d="M343.525,533.552L363.649,543.614L343.642,553.618L323.635,543.497L343.525,533.552Z" style="fill:#b3b3b3;"/><path d="M383.774,553.676L363.649,543.614L383.774,533.552L403.898,543.614L383.774,553.676Z" style="fill:#b3b3b3;"/><path d="M363.649,523.49L323.635,543.497L363.649,563.739L403.898,543.614L363.649,523.49Z" style="fill:none;stroke:#bebebe;stroke-width:1px;"/><path d="M383.774,533.552L343.54,553.669" style="fill:none;stroke:#bebebe;stroke-width:1px;"/><path d="M343.525,533.552L383.774,553.676" style="fill:none;stroke:#bebebe;stroke-width:1px;"/></g><g id="floor-tiles34" serif:id="floor tiles"><path d="M383.774,513.494L403.898,523.556L383.891,533.559L363.884,523.438L383.774,513.494Z" style="fill:#b3b3b3;"/><path d="M424.023,533.618L403.898,523.556L424.023,513.494L444.148,523.556L424.023,533.618Z" style="fill:#b3b3b3;"/><path d="M403.898,503.431L363.884,523.438L403.898,543.681L444.148,523.556L403.898,503.431Z" style="fill:none;stroke:#bebebe;stroke-width:1px;"/><path d="M424.023,513.494L383.789,533.611" style="fill:none;stroke:#bebebe;stroke-width:1px;"/><path d="M383.774,513.494L424.023,533.618" style="fill:none;stroke:#bebebe;stroke-width:1px;"/></g><g id="floor-tiles35" serif:id="floor tiles"><path d="M424.436,493.162L444.561,503.225L424.554,513.228L404.547,503.107L424.436,493.162Z" style="fill:#b3b3b3;"/><path d="M464.686,513.287L444.561,503.225L464.686,493.162L484.81,503.225L464.686,513.287Z" style="fill:#b3b3b3;"/><path d="M444.561,483.1L404.547,503.107L444.561,523.349L484.81,503.225L444.561,483.1Z" style="fill:none;stroke:#bebebe;stroke-width:1px;"/><path d="M464.686,493.162L424.451,513.279" style="fill:none;stroke:#bebebe;stroke-width:1px;"/><path d="M424.436,493.162L464.686,513.287" style="fill:none;stroke:#bebebe;stroke-width:1px;"/></g><g id="floor-tiles36" serif:id="floor tiles"><path d="M263.202,533.589L283.327,543.651L263.32,553.655L243.313,543.534L263.202,533.589Z" style="fill:#b3b3b3;"/><path d="M303.452,553.713L283.327,543.651L303.452,533.589L323.576,543.651L303.452,553.713Z" style="fill:#b3b3b3;"/><path d="M283.327,523.526L243.313,543.534L283.327,563.776L323.576,543.651L283.327,523.526Z" style="fill:none;stroke:#bebebe;stroke-width:1px;"/><path d="M303.452,533.589L263.217,553.706" style="fill:none;stroke:#bebebe;stroke-width:1px;"/><path d="M263.202,533.589L303.452,553.713" style="fill:none;stroke:#bebebe;stroke-width:1px;"/></g><g id="floor-tiles37" serif:id="floor tiles"><path d="M303.51,513.435L323.635,523.497L303.628,533.501L283.621,523.38L303.51,513.435Z" style="fill:#b3b3b3;"/><path d="M343.76,533.559L323.635,523.497L343.76,513.435L363.884,523.497L343.76,533.559Z" style="fill:#b3b3b3;"/><path d="M323.635,503.372L283.621,523.38L323.635,543.622L363.884,523.497L323.635,503.372Z" style="fill:none;stroke:#bebebe;stroke-width:1px;"/><path d="M343.76,513.435L303.525,533.552" style="fill:none;stroke:#bebebe;stroke-width:1px;"/><path d="M303.51,513.435L343.76,533.559" style="fill:none;stroke:#bebebe;stroke-width:1px;"/></g><g id="floor-tiles38" serif:id="floor tiles"><path d="M343.642,493.369L363.767,503.431L343.76,513.435L323.753,503.314L343.642,493.369Z" style="fill:#b3b3b3;"/><path d="M383.891,513.494L363.767,503.431L383.891,493.369L404.016,503.431L383.891,513.494Z" style="fill:#b3b3b3;"/><path d="M363.767,483.307L323.753,503.314L363.767,523.556L404.016,503.431L363.767,483.307Z" style="fill:none;stroke:#bebebe;stroke-width:1px;"/><path d="M383.891,493.369L343.657,513.486" style="fill:none;stroke:#bebebe;stroke-width:1px;"/><path d="M343.642,493.369L383.891,513.494" style="fill:none;stroke:#bebebe;stroke-width:1px;"/></g><g id="floor-tiles39" serif:id="floor tiles"><path d="M383.774,472.831L403.898,482.893L383.891,492.897L363.884,482.776L383.774,472.831Z" style="fill:#b3b3b3;"/><path d="M424.023,492.956L403.898,482.893L424.023,472.831L444.148,482.893L424.023,492.956Z" style="fill:#b3b3b3;"/><path d="M403.898,462.769L363.884,482.776L403.898,503.018L444.148,482.893L403.898,462.769Z" style="fill:none;stroke:#bebebe;stroke-width:1px;"/><path d="M424.023,472.831L383.789,492.948" style="fill:none;stroke:#bebebe;stroke-width:1px;"/><path d="M383.774,472.831L424.023,492.956" style="fill:none;stroke:#bebebe;stroke-width:1px;"/></g><g id="floor-tiles40" serif:id="floor tiles"><path d="M504.457,453.388L524.581,463.451L504.574,473.454L484.567,463.333L504.457,453.388Z" style="fill:#b3b3b3;"/><path d="M544.706,473.513L524.581,463.451L544.706,453.388L564.83,463.451L544.706,473.513Z" style="fill:#b3b3b3;"/><path d="M524.581,443.326L484.567,463.333L524.581,483.575L564.83,463.451L524.581,443.326Z" style="fill:none;stroke:#bebebe;stroke-width:1px;"/><path d="M544.706,453.388L504.472,473.505" style="fill:none;stroke:#bebebe;stroke-width:1px;"/><path d="M504.457,453.388L544.706,473.513" style="fill:none;stroke:#bebebe;stroke-width:1px;"/></g><g id="floor-tiles41" serif:id="floor tiles"><path d="M544.471,433.256L564.595,443.318L544.588,453.322L524.581,443.201L544.471,433.256Z" style="fill:#b3b3b3;"/><path d="M584.72,453.381L564.595,443.318L584.72,433.256L604.844,443.318L584.72,453.381Z" style="fill:#b3b3b3;"/><path d="M564.595,423.194L524.581,443.201L564.595,463.443L604.844,443.318L564.595,423.194Z" style="fill:none;stroke:#bebebe;stroke-width:1px;"/><path d="M584.72,433.256L544.486,453.373" style="fill:none;stroke:#bebebe;stroke-width:1px;"/><path d="M544.471,433.256L584.72,453.381" style="fill:none;stroke:#bebebe;stroke-width:1px;"/></g><g id="floor-tiles42" serif:id="floor tiles"><path d="M584.72,413.198L604.844,423.26L584.837,433.264L564.83,423.143L584.72,413.198Z" style="fill:#b3b3b3;"/><path d="M624.969,433.322L604.844,423.26L624.969,413.198L645.094,423.26L624.969,433.322Z" style="fill:#b3b3b3;"/><path d="M604.844,403.136L564.83,423.143L604.844,443.385L645.094,423.26L604.844,403.136Z" style="fill:none;stroke:#bebebe;stroke-width:1px;"/><path d="M624.969,413.198L584.735,433.315" style="fill:none;stroke:#bebebe;stroke-width:1px;"/><path d="M584.72,413.198L624.969,433.322" style="fill:none;stroke:#bebebe;stroke-width:1px;"/></g><g id="floor-tiles43" serif:id="floor tiles"><path d="M625.382,392.867L645.507,402.929L625.5,412.932L605.493,402.811L625.382,392.867Z" style="fill:#b3b3b3;"/><path d="M665.632,412.991L645.507,402.929L665.632,392.867L685.756,402.929L665.632,412.991Z" style="fill:#b3b3b3;"/><path d="M645.507,382.804L605.493,402.811L645.507,423.053L685.756,402.929L645.507,382.804Z" style="fill:none;stroke:#bebebe;stroke-width:1px;"/><path d="M665.632,392.867L625.398,412.984" style="fill:none;stroke:#bebebe;stroke-width:1px;"/><path d="M625.382,392.867L665.632,412.991" style="fill:none;stroke:#bebebe;stroke-width:1px;"/></g><g id="floor-tiles44" serif:id="floor tiles"><path d="M464.149,433.293L484.273,443.355L464.266,453.359L444.259,443.238L464.149,433.293Z" style="fill:#b3b3b3;"/><path d="M504.398,453.418L484.273,443.355L504.398,433.293L524.522,443.355L504.398,453.418Z" style="fill:#b3b3b3;"/><path d="M484.273,423.231L444.259,443.238L484.273,463.48L524.522,443.355L484.273,423.231Z" style="fill:none;stroke:#bebebe;stroke-width:1px;"/><path d="M504.398,433.293L464.164,453.41" style="fill:none;stroke:#bebebe;stroke-width:1px;"/><path d="M464.149,433.293L504.398,453.418" style="fill:none;stroke:#bebebe;stroke-width:1px;"/></g><g id="floor-tiles45" serif:id="floor tiles"><path d="M504.457,413.139L524.581,423.201L504.574,433.205L484.567,423.084L504.457,413.139Z" style="fill:#b3b3b3;"/><path d="M544.706,433.264L524.581,423.201L544.706,413.139L564.83,423.201L544.706,433.264Z" style="fill:#b3b3b3;"/><path d="M524.581,403.077L484.567,423.084L524.581,443.326L564.83,423.201L524.581,403.077Z" style="fill:none;stroke:#bebebe;stroke-width:1px;"/><path d="M544.706,413.139L504.472,433.256" style="fill:none;stroke:#bebebe;stroke-width:1px;"/><path d="M504.457,413.139L544.706,433.264" style="fill:none;stroke:#bebebe;stroke-width:1px;"/></g><g id="floor-tiles46" serif:id="floor tiles"><path d="M544.588,393.073L564.713,403.136L544.706,413.139L524.699,403.018L544.588,393.073Z" style="fill:#b3b3b3;"/><path d="M584.837,413.198L564.713,403.136L584.837,393.073L604.962,403.136L584.837,413.198Z" style="fill:#b3b3b3;"/><path d="M564.713,383.011L524.699,403.018L564.713,423.26L604.962,403.136L564.713,383.011Z" style="fill:none;stroke:#bebebe;stroke-width:1px;"/><path d="M584.837,393.073L544.603,413.19" style="fill:none;stroke:#bebebe;stroke-width:1px;"/><path d="M544.588,393.073L584.837,413.198" style="fill:none;stroke:#bebebe;stroke-width:1px;"/></g><g id="floor-tiles47" serif:id="floor tiles"><path d="M584.72,372.535L604.844,382.598L584.837,392.601L564.83,382.48L584.72,372.535Z" style="fill:#b3b3b3;"/><path d="M624.969,392.66L604.844,382.598L624.969,372.535L645.094,382.598L624.969,392.66Z" style="fill:#b3b3b3;"/><path d="M604.844,362.473L564.83,382.48L604.844,402.722L645.094,382.598L604.844,362.473Z" style="fill:none;stroke:#bebebe;stroke-width:1px;"/><path d="M624.969,372.535L584.735,392.652" style="fill:none;stroke:#bebebe;stroke-width:1px;"/><path d="M584.72,372.535L624.969,392.66" style="fill:none;stroke:#bebebe;stroke-width:1px;"/></g><g id="floor-tiles48" serif:id="floor tiles"><path d="M423.958,412.483L444.083,422.546L424.076,432.549L404.069,422.428L423.958,412.483Z" style="fill:#b3b3b3;"/><path d="M464.207,432.608L444.083,422.546L464.207,412.483L484.332,422.546L464.207,432.608Z" style="fill:#b3b3b3;"/><path d="M444.083,402.421L404.069,422.428L444.083,442.67L484.332,422.546L444.083,402.421Z" style="fill:none;stroke:#bebebe;stroke-width:1px;"/><path d="M464.207,412.483L423.973,432.601" style="fill:none;stroke:#bebebe;stroke-width:1px;"/><path d="M423.958,412.483L464.207,432.608" style="fill:none;stroke:#bebebe;stroke-width:1px;"/></g><g id="floor-tiles49" serif:id="floor tiles"><path d="M463.972,392.351L484.097,402.414L464.09,412.417L444.083,402.296L463.972,392.351Z" style="fill:#b3b3b3;"/><path d="M504.221,412.476L484.097,402.414L504.221,392.351L524.346,402.414L504.221,412.476Z" style="fill:#b3b3b3;"/><path d="M484.097,382.289L444.083,402.296L484.097,422.538L524.346,402.414L484.097,382.289Z" style="fill:none;stroke:#bebebe;stroke-width:1px;"/><path d="M504.221,392.351L463.987,412.468" style="fill:none;stroke:#bebebe;stroke-width:1px;"/><path d="M463.972,392.351L504.221,412.476" style="fill:none;stroke:#bebebe;stroke-width:1px;"/></g><g id="floor-tiles50" serif:id="floor tiles"><path d="M504.221,372.293L524.346,382.355L504.339,392.359L484.332,382.238L504.221,372.293Z" style="fill:#b3b3b3;"/><path d="M544.471,392.418L524.346,382.355L544.471,372.293L564.595,382.355L544.471,392.418Z" style="fill:#b3b3b3;"/><path d="M524.346,362.231L484.332,382.238L524.346,402.48L564.595,382.355L524.346,362.231Z" style="fill:none;stroke:#bebebe;stroke-width:1px;"/><path d="M544.471,372.293L504.236,392.41" style="fill:none;stroke:#bebebe;stroke-width:1px;"/><path d="M504.221,372.293L544.471,392.418" style="fill:none;stroke:#bebebe;stroke-width:1px;"/></g><g id="floor-tiles51" serif:id="floor tiles"><path d="M544.884,351.962L565.009,362.024L545.002,372.027L524.995,361.906L544.884,351.962Z" style="fill:#b3b3b3;"/><path d="M585.133,372.086L565.009,362.024L585.133,351.962L605.258,362.024L585.133,372.086Z" style="fill:#b3b3b3;"/><path d="M565.009,341.899L524.995,361.906L565.009,382.149L605.258,362.024L565.009,341.899Z" style="fill:none;stroke:#bebebe;stroke-width:1px;"/><path d="M585.133,351.962L544.899,372.079" style="fill:none;stroke:#bebebe;stroke-width:1px;"/><path d="M544.884,351.962L585.133,372.086" style="fill:none;stroke:#bebebe;stroke-width:1px;"/></g><g id="floor-tiles52" serif:id="floor tiles"><path d="M383.65,392.388L403.775,402.451L383.768,412.454L363.761,402.333L383.65,392.388Z" style="fill:#b3b3b3;"/><path d="M423.899,412.513L403.775,402.451L423.899,392.388L444.024,402.451L423.899,412.513Z" style="fill:#b3b3b3;"/><path d="M403.775,382.326L363.761,402.333L403.775,422.575L444.024,402.451L403.775,382.326Z" style="fill:none;stroke:#bebebe;stroke-width:1px;"/><path d="M423.899,392.388L383.665,412.505" style="fill:none;stroke:#bebebe;stroke-width:1px;"/><path d="M383.65,392.388L423.899,412.513" style="fill:none;stroke:#bebebe;stroke-width:1px;"/></g><g id="floor-tiles53" serif:id="floor tiles"><path d="M423.958,372.234L444.083,382.297L424.076,392.3L404.069,382.179L423.958,372.234Z" style="fill:#b3b3b3;"/><path d="M464.207,392.359L444.083,382.297L464.207,372.234L484.332,382.297L464.207,392.359Z" style="fill:#b3b3b3;"/><path d="M444.083,362.172L404.069,382.179L444.083,402.421L484.332,382.297L444.083,362.172Z" style="fill:none;stroke:#bebebe;stroke-width:1px;"/><path d="M464.207,372.234L423.973,392.351" style="fill:none;stroke:#bebebe;stroke-width:1px;"/><path d="M423.958,372.234L464.207,392.359" style="fill:none;stroke:#bebebe;stroke-width:1px;"/></g><g id="floor-tiles54" serif:id="floor tiles"><path d="M464.09,352.168L484.214,362.231L464.207,372.234L444.2,362.113L464.09,352.168Z" style="fill:#b3b3b3;"/><path d="M504.339,372.293L484.214,362.231L504.339,352.168L524.464,362.231L504.339,372.293Z" style="fill:#b3b3b3;"/><path d="M484.214,342.106L444.2,362.113L484.214,382.355L524.464,362.231L484.214,342.106Z" style="fill:none;stroke:#bebebe;stroke-width:1px;"/><path d="M504.339,352.168L464.105,372.285" style="fill:none;stroke:#bebebe;stroke-width:1px;"/><path d="M464.09,352.168L504.339,372.293" style="fill:none;stroke:#bebebe;stroke-width:1px;"/></g><g id="floor-tiles55" serif:id="floor tiles"><path d="M504.221,331.63L524.346,341.693L504.339,351.696L484.332,341.575L504.221,331.63Z" style="fill:#b3b3b3;"/><path d="M544.471,351.755L524.346,341.693L544.471,331.63L564.595,341.693L544.471,351.755Z" style="fill:#b3b3b3;"/><path d="M524.346,321.568L484.332,341.575L524.346,361.817L564.595,341.693L524.346,321.568Z" style="fill:none;stroke:#bebebe;stroke-width:1px;"/><path d="M544.471,331.63L504.236,351.747" style="fill:none;stroke:#bebebe;stroke-width:1px;"/><path d="M504.221,331.63L544.471,351.755" style="fill:none;stroke:#bebebe;stroke-width:1px;"/></g><g id="floor-tiles56" serif:id="floor tiles"><path d="M223.041,513.597L243.166,523.66L223.159,533.663L203.152,523.542L223.041,513.597Z" style="fill:#b3b3b3;"/><path d="M263.291,533.722L243.166,523.66L263.291,513.597L283.415,523.66L263.291,533.722Z" style="fill:#b3b3b3;"/><path d="M243.166,503.535L203.152,523.542L243.166,543.784L283.415,523.66L243.166,503.535Z" style="fill:none;stroke:#bebebe;stroke-width:1px;"/><path d="M263.291,513.597L223.056,533.715" style="fill:none;stroke:#bebebe;stroke-width:1px;"/><path d="M223.041,513.597L263.291,533.722" style="fill:none;stroke:#bebebe;stroke-width:1px;"/></g><g id="floor-tiles57" serif:id="floor tiles"><path d="M263.055,493.465L283.18,503.528L263.173,513.531L243.166,503.41L263.055,493.465Z" style="fill:#b3b3b3;"/><path d="M303.305,513.59L283.18,503.528L303.305,493.465L323.429,503.528L303.305,513.59Z" style="fill:#b3b3b3;"/><path d="M283.18,483.403L243.166,503.41L283.18,523.652L323.429,503.528L283.18,483.403Z" style="fill:none;stroke:#bebebe;stroke-width:1px;"/><path d="M303.305,493.465L263.071,513.582" style="fill:none;stroke:#bebebe;stroke-width:1px;"/><path d="M263.055,493.465L303.305,513.59" style="fill:none;stroke:#bebebe;stroke-width:1px;"/></g><g id="floor-tiles58" serif:id="floor tiles"><path d="M303.305,473.407L323.429,483.469L303.422,493.473L283.415,483.352L303.305,473.407Z" style="fill:#b3b3b3;"/><path d="M343.554,493.532L323.429,483.469L343.554,473.407L363.679,483.469L343.554,493.532Z" style="fill:#b3b3b3;"/><path d="M323.429,463.345L283.415,483.352L323.429,503.594L363.679,483.469L323.429,463.345Z" style="fill:none;stroke:#bebebe;stroke-width:1px;"/><path d="M343.554,473.407L303.32,493.524" style="fill:none;stroke:#bebebe;stroke-width:1px;"/><path d="M303.305,473.407L343.554,493.532" style="fill:none;stroke:#bebebe;stroke-width:1px;"/></g><g id="floor-tiles59" serif:id="floor tiles"><path d="M343.967,453.076L364.092,463.138L344.085,473.141L324.078,463.02L343.967,453.076Z" style="fill:#b3b3b3;"/><path d="M384.217,473.2L364.092,463.138L384.217,453.076L404.341,463.138L384.217,473.2Z" style="fill:#b3b3b3;"/><path d="M364.092,443.013L324.078,463.02L364.092,483.263L404.341,463.138L364.092,443.013Z" style="fill:none;stroke:#bebebe;stroke-width:1px;"/><path d="M384.217,453.076L343.982,473.193" style="fill:none;stroke:#bebebe;stroke-width:1px;"/><path d="M343.967,453.076L384.217,473.2" style="fill:none;stroke:#bebebe;stroke-width:1px;"/></g><g id="floor-tiles60" serif:id="floor tiles"><path d="M182.733,493.502L202.858,503.565L182.851,513.568L162.844,503.447L182.733,493.502Z" style="fill:#b3b3b3;"/><path d="M222.983,513.627L202.858,503.565L222.983,493.502L243.107,503.565L222.983,513.627Z" style="fill:#b3b3b3;"/><path d="M202.858,483.44L162.844,503.447L202.858,523.689L243.107,503.565L202.858,483.44Z" style="fill:none;stroke:#bebebe;stroke-width:1px;"/><path d="M222.983,493.502L182.748,513.619" style="fill:none;stroke:#bebebe;stroke-width:1px;"/><path d="M182.733,493.502L222.983,513.627" style="fill:none;stroke:#bebebe;stroke-width:1px;"/></g><g id="floor-tiles61" serif:id="floor tiles"><path d="M223.041,473.348L243.166,483.411L223.159,493.414L203.152,483.293L223.041,473.348Z" style="fill:#b3b3b3;"/><path d="M263.291,493.473L243.166,483.411L263.291,473.348L283.415,483.411L263.291,493.473Z" style="fill:#b3b3b3;"/><path d="M243.166,463.286L203.152,483.293L243.166,503.535L283.415,483.411L243.166,463.286Z" style="fill:none;stroke:#bebebe;stroke-width:1px;"/><path d="M263.291,473.348L223.056,493.465" style="fill:none;stroke:#bebebe;stroke-width:1px;"/><path d="M223.041,473.348L263.291,493.473" style="fill:none;stroke:#bebebe;stroke-width:1px;"/></g><g id="floor-tiles62" serif:id="floor tiles"><path d="M263.173,453.282L283.298,463.345L263.291,473.348L243.284,463.227L263.173,453.282Z" style="fill:#b3b3b3;"/><path d="M303.422,473.407L283.298,463.345L303.422,453.282L323.547,463.345L303.422,473.407Z" style="fill:#b3b3b3;"/><path d="M283.298,443.22L243.284,463.227L283.298,483.469L323.547,463.345L283.298,443.22Z" style="fill:none;stroke:#bebebe;stroke-width:1px;"/><path d="M303.422,453.282L263.188,473.399" style="fill:none;stroke:#bebebe;stroke-width:1px;"/><path d="M263.173,453.282L303.422,473.407" style="fill:none;stroke:#bebebe;stroke-width:1px;"/></g><g id="floor-tiles63" serif:id="floor tiles"><path d="M303.305,432.744L323.429,442.807L303.422,452.81L283.415,442.689L303.305,432.744Z" style="fill:#b3b3b3;"/><path d="M343.554,452.869L323.429,442.807L343.554,432.744L363.679,442.807L343.554,452.869Z" style="fill:#b3b3b3;"/><path d="M323.429,422.682L283.415,442.689L323.429,462.931L363.679,442.807L323.429,422.682Z" style="fill:none;stroke:#bebebe;stroke-width:1px;"/><path d="M343.554,432.744L303.32,452.861" style="fill:none;stroke:#bebebe;stroke-width:1px;"/><path d="M303.305,432.744L343.554,452.869" style="fill:none;stroke:#bebebe;stroke-width:1px;"/></g><g id="floor-tiles64" serif:id="floor tiles"><path d="M141.774,473.555L161.899,483.618L141.892,493.621L121.885,483.5L141.774,473.555Z" style="fill:#b3b3b3;"/><path d="M182.023,493.68L161.899,483.618L182.023,473.555L202.148,483.618L182.023,493.68Z" style="fill:#b3b3b3;"/><path d="M161.899,463.493L121.885,483.5L161.899,503.742L202.148,483.618L161.899,463.493Z" style="fill:none;stroke:#bebebe;stroke-width:1px;"/><path d="M182.023,473.555L141.789,493.672" style="fill:none;stroke:#bebebe;stroke-width:1px;"/><path d="M141.774,473.555L182.023,493.68" style="fill:none;stroke:#bebebe;stroke-width:1px;"/></g><g id="floor-tiles65" serif:id="floor tiles"><path d="M181.788,453.423L201.913,463.485L181.906,473.489L161.899,463.368L181.788,453.423Z" style="fill:#b3b3b3;"/><path d="M222.037,473.548L201.913,463.485L222.037,453.423L242.162,463.485L222.037,473.548Z" style="fill:#b3b3b3;"/><path d="M201.913,443.361L161.899,463.368L201.913,483.61L242.162,463.485L201.913,443.361Z" style="fill:none;stroke:#bebebe;stroke-width:1px;"/><path d="M222.037,453.423L181.803,473.54" style="fill:none;stroke:#bebebe;stroke-width:1px;"/><path d="M181.788,453.423L222.037,473.548" style="fill:none;stroke:#bebebe;stroke-width:1px;"/></g><g id="floor-tiles66" serif:id="floor tiles"><path d="M222.037,433.365L242.162,443.427L222.155,453.431L202.148,443.31L222.037,433.365Z" style="fill:#b3b3b3;"/><path d="M262.287,453.489L242.162,443.427L262.287,433.365L282.411,443.427L262.287,453.489Z" style="fill:#b3b3b3;"/><path d="M242.162,423.303L202.148,443.31L242.162,463.552L282.411,443.427L242.162,423.303Z" style="fill:none;stroke:#bebebe;stroke-width:1px;"/><path d="M262.287,433.365L222.052,453.482" style="fill:none;stroke:#bebebe;stroke-width:1px;"/><path d="M222.037,433.365L262.287,453.489" style="fill:none;stroke:#bebebe;stroke-width:1px;"/></g><g id="floor-tiles67" serif:id="floor tiles"><path d="M262.7,413.034L282.825,423.096L262.818,433.099L242.811,422.978L262.7,413.034Z" style="fill:#b3b3b3;"/><path d="M302.949,433.158L282.825,423.096L302.949,413.034L323.074,423.096L302.949,433.158Z" style="fill:#b3b3b3;"/><path d="M282.825,402.971L242.811,422.978L282.825,443.22L323.074,423.096L282.825,402.971Z" style="fill:none;stroke:#bebebe;stroke-width:1px;"/><path d="M302.949,413.034L262.715,433.151" style="fill:none;stroke:#bebebe;stroke-width:1px;"/><path d="M262.7,413.034L302.949,433.158" style="fill:none;stroke:#bebebe;stroke-width:1px;"/></g><g id="floor-tiles68" serif:id="floor tiles"><path d="M101.466,453.46L121.591,463.522L101.584,473.526L81.577,463.405L101.466,453.46Z" style="fill:#b3b3b3;"/><path d="M141.715,473.585L121.591,463.522L141.715,453.46L161.84,463.522L141.715,473.585Z" style="fill:#b3b3b3;"/><path d="M121.591,443.398L81.577,463.405L121.591,483.647L161.84,463.522L121.591,443.398Z" style="fill:none;stroke:#bebebe;stroke-width:1px;"/><path d="M141.715,453.46L101.481,473.577" style="fill:none;stroke:#bebebe;stroke-width:1px;"/><path d="M101.466,453.46L141.715,473.585" style="fill:none;stroke:#bebebe;stroke-width:1px;"/></g><g id="floor-tiles69" serif:id="floor tiles"><path d="M141.774,433.306L161.899,443.368L141.892,453.372L121.885,443.251L141.774,433.306Z" style="fill:#b3b3b3;"/><path d="M182.023,453.431L161.899,443.368L182.023,433.306L202.148,443.368L182.023,453.431Z" style="fill:#b3b3b3;"/><path d="M161.899,423.244L121.885,443.251L161.899,463.493L202.148,443.368L161.899,423.244Z" style="fill:none;stroke:#bebebe;stroke-width:1px;"/><path d="M182.023,433.306L141.789,453.423" style="fill:none;stroke:#bebebe;stroke-width:1px;"/><path d="M141.774,433.306L182.023,453.431" style="fill:none;stroke:#bebebe;stroke-width:1px;"/></g><g id="floor-tiles70" serif:id="floor tiles"><path d="M181.906,413.24L202.03,423.303L182.023,433.306L162.016,423.185L181.906,413.24Z" style="fill:#b3b3b3;"/><path d="M222.155,433.365L202.03,423.303L222.155,413.24L242.28,423.303L222.155,433.365Z" style="fill:#b3b3b3;"/><path d="M202.03,403.178L162.016,423.185L202.03,443.427L242.28,423.303L202.03,403.178Z" style="fill:none;stroke:#bebebe;stroke-width:1px;"/><path d="M222.155,413.24L181.921,433.357" style="fill:none;stroke:#bebebe;stroke-width:1px;"/><path d="M181.906,413.24L222.155,433.365" style="fill:none;stroke:#bebebe;stroke-width:1px;"/></g><g id="floor-tiles71" serif:id="floor tiles"><path d="M222.037,392.702L242.162,402.765L222.155,412.768L202.148,402.647L222.037,392.702Z" style="fill:#b3b3b3;"/><path d="M262.287,412.827L242.162,402.765L262.287,392.702L282.411,402.765L262.287,412.827Z" style="fill:#b3b3b3;"/><path d="M242.162,382.64L202.148,402.647L242.162,422.889L282.411,402.765L242.162,382.64Z" style="fill:none;stroke:#bebebe;stroke-width:1px;"/><path d="M262.287,392.702L222.052,412.819" style="fill:none;stroke:#bebebe;stroke-width:1px;"/><path d="M222.037,392.702L262.287,412.827" style="fill:none;stroke:#bebebe;stroke-width:1px;"/></g><g id="floor-tiles72" serif:id="floor tiles"><path d="M342.72,373.26L362.845,383.322L342.838,393.325L322.831,383.204L342.72,373.26Z" style="fill:#b3b3b3;"/><path d="M382.969,393.384L362.845,383.322L382.969,373.26L403.094,383.322L382.969,393.384Z" style="fill:#b3b3b3;"/><path d="M362.845,363.197L322.831,383.204L362.845,403.447L403.094,383.322L362.845,363.197Z" style="fill:none;stroke:#bebebe;stroke-width:1px;"/><path d="M382.969,373.26L342.735,393.377" style="fill:none;stroke:#bebebe;stroke-width:1px;"/><path d="M342.72,373.26L382.969,393.384" style="fill:none;stroke:#bebebe;stroke-width:1px;"/></g><g id="floor-tiles73" serif:id="floor tiles"><path d="M382.734,353.127L402.859,363.19L382.852,373.193L362.845,363.072L382.734,353.127Z" style="fill:#b3b3b3;"/><path d="M422.983,373.252L402.859,363.19L422.983,353.127L443.108,363.19L422.983,373.252Z" style="fill:#b3b3b3;"/><path d="M402.859,343.065L362.845,363.072L402.859,383.314L443.108,363.19L402.859,343.065Z" style="fill:none;stroke:#bebebe;stroke-width:1px;"/><path d="M422.983,353.127L382.749,373.245" style="fill:none;stroke:#bebebe;stroke-width:1px;"/><path d="M382.734,353.127L422.983,373.252" style="fill:none;stroke:#bebebe;stroke-width:1px;"/></g><g id="floor-tiles74" serif:id="floor tiles"><path d="M422.983,333.069L443.108,343.131L423.101,353.135L403.094,343.014L422.983,333.069Z" style="fill:#b3b3b3;"/><path d="M463.233,353.194L443.108,343.131L463.233,333.069L483.357,343.131L463.233,353.194Z" style="fill:#b3b3b3;"/><path d="M443.108,323.007L403.094,343.014L443.108,363.256L483.357,343.131L443.108,323.007Z" style="fill:none;stroke:#bebebe;stroke-width:1px;"/><path d="M463.233,333.069L422.998,353.186" style="fill:none;stroke:#bebebe;stroke-width:1px;"/><path d="M422.983,333.069L463.233,353.194" style="fill:none;stroke:#bebebe;stroke-width:1px;"/></g><g id="floor-tiles75" serif:id="floor tiles"><path d="M463.646,312.738L483.771,322.8L463.764,332.804L443.757,322.683L463.646,312.738Z" style="fill:#b3b3b3;"/><path d="M503.895,332.862L483.771,322.8L503.895,312.738L524.02,322.8L503.895,332.862Z" style="fill:#b3b3b3;"/><path d="M483.771,302.676L443.757,322.683L483.771,342.925L524.02,322.8L483.771,302.676Z" style="fill:none;stroke:#bebebe;stroke-width:1px;"/><path d="M503.895,312.738L463.661,332.855" style="fill:none;stroke:#bebebe;stroke-width:1px;"/><path d="M463.646,312.738L503.895,332.862" style="fill:none;stroke:#bebebe;stroke-width:1px;"/></g><g id="floor-tiles76" serif:id="floor tiles"><path d="M302.412,353.164L322.537,363.227L302.53,373.23L282.523,363.109L302.412,353.164Z" style="fill:#b3b3b3;"/><path d="M342.661,373.289L322.537,363.227L342.661,353.164L362.786,363.227L342.661,373.289Z" style="fill:#b3b3b3;"/><path d="M322.537,343.102L282.523,363.109L322.537,383.351L362.786,363.227L322.537,343.102Z" style="fill:none;stroke:#bebebe;stroke-width:1px;"/><path d="M342.661,353.164L302.427,373.281" style="fill:none;stroke:#bebebe;stroke-width:1px;"/><path d="M302.412,353.164L342.661,373.289" style="fill:none;stroke:#bebebe;stroke-width:1px;"/></g><g id="floor-tiles77" serif:id="floor tiles"><path d="M342.72,333.01L362.845,343.073L342.838,353.076L322.831,342.955L342.72,333.01Z" style="fill:#b3b3b3;"/><path d="M382.969,353.135L362.845,343.073L382.969,333.01L403.094,343.073L382.969,353.135Z" style="fill:#b3b3b3;"/><path d="M362.845,322.948L322.831,342.955L362.845,363.197L403.094,343.073L362.845,322.948Z" style="fill:none;stroke:#bebebe;stroke-width:1px;"/><path d="M382.969,333.01L342.735,353.127" style="fill:none;stroke:#bebebe;stroke-width:1px;"/><path d="M342.72,333.01L382.969,353.135" style="fill:none;stroke:#bebebe;stroke-width:1px;"/></g><g id="floor-tiles78" serif:id="floor tiles"><path d="M382.852,312.945L402.976,323.007L382.969,333.01L362.962,322.889L382.852,312.945Z" style="fill:#b3b3b3;"/><path d="M423.101,333.069L402.976,323.007L423.101,312.945L443.226,323.007L423.101,333.069Z" style="fill:#b3b3b3;"/><path d="M402.976,302.882L362.962,322.889L402.976,343.131L443.226,323.007L402.976,302.882Z" style="fill:none;stroke:#bebebe;stroke-width:1px;"/><path d="M423.101,312.945L382.867,333.062" style="fill:none;stroke:#bebebe;stroke-width:1px;"/><path d="M382.852,312.945L423.101,333.069" style="fill:none;stroke:#bebebe;stroke-width:1px;"/></g><g id="floor-tiles79" serif:id="floor tiles"><path d="M422.983,292.407L443.108,302.469L423.101,312.472L403.094,302.351L422.983,292.407Z" style="fill:#b3b3b3;"/><path d="M463.233,312.531L443.108,302.469L463.233,292.407L483.357,302.469L463.233,312.531Z" style="fill:#b3b3b3;"/><path d="M443.108,282.344L403.094,302.351L443.108,322.593L483.357,302.469L443.108,282.344Z" style="fill:none;stroke:#bebebe;stroke-width:1px;"/><path d="M463.233,292.407L422.998,312.524" style="fill:none;stroke:#bebebe;stroke-width:1px;"/><path d="M422.983,292.407L463.233,312.531" style="fill:none;stroke:#bebebe;stroke-width:1px;"/></g><g id="floor-tiles80" serif:id="floor tiles"><path d="M262.222,332.355L282.346,342.417L262.339,352.421L242.332,342.299L262.222,332.355Z" style="fill:#b3b3b3;"/><path d="M302.471,352.479L282.346,342.417L302.471,332.355L322.596,342.417L302.471,352.479Z" style="fill:#b3b3b3;"/><path d="M282.346,322.292L242.332,342.299L282.346,362.542L322.596,342.417L282.346,322.292Z" style="fill:none;stroke:#bebebe;stroke-width:1px;"/><path d="M302.471,332.355L262.237,352.472" style="fill:none;stroke:#bebebe;stroke-width:1px;"/><path d="M262.222,332.355L302.471,352.479" style="fill:none;stroke:#bebebe;stroke-width:1px;"/></g><g id="floor-tiles81" serif:id="floor tiles"><path d="M302.236,312.223L322.36,322.285L302.353,332.288L282.346,322.167L302.236,312.223Z" style="fill:#b3b3b3;"/><path d="M342.485,332.347L322.36,322.285L342.485,312.223L362.61,322.285L342.485,332.347Z" style="fill:#b3b3b3;"/><path d="M322.36,302.16L282.346,322.167L322.36,342.409L362.61,322.285L322.36,302.16Z" style="fill:none;stroke:#bebebe;stroke-width:1px;"/><path d="M342.485,312.223L302.251,332.34" style="fill:none;stroke:#bebebe;stroke-width:1px;"/><path d="M302.236,312.223L342.485,332.347" style="fill:none;stroke:#bebebe;stroke-width:1px;"/></g><g id="floor-tiles82" serif:id="floor tiles"><path d="M342.485,292.164L362.61,302.227L342.603,312.23L322.596,302.109L342.485,292.164Z" style="fill:#b3b3b3;"/><path d="M382.734,312.289L362.61,302.227L382.734,292.164L402.859,302.227L382.734,312.289Z" style="fill:#b3b3b3;"/><path d="M362.61,282.102L322.596,302.109L362.61,322.351L402.859,302.227L362.61,282.102Z" style="fill:none;stroke:#bebebe;stroke-width:1px;"/><path d="M382.734,292.164L342.5,312.281" style="fill:none;stroke:#bebebe;stroke-width:1px;"/><path d="M342.485,292.164L382.734,312.289" style="fill:none;stroke:#bebebe;stroke-width:1px;"/></g><g id="floor-tiles83" serif:id="floor tiles"><path d="M383.148,271.833L403.272,281.895L383.265,291.899L363.258,281.778L383.148,271.833Z" style="fill:#b3b3b3;"/><path d="M423.397,291.958L403.272,281.895L423.397,271.833L443.522,281.895L423.397,291.958Z" style="fill:#b3b3b3;"/><path d="M403.272,261.771L363.258,281.778L403.272,302.02L443.522,281.895L403.272,261.771Z" style="fill:none;stroke:#bebebe;stroke-width:1px;"/><path d="M423.397,271.833L383.163,291.95" style="fill:none;stroke:#bebebe;stroke-width:1px;"/><path d="M383.148,271.833L423.397,291.958" style="fill:none;stroke:#bebebe;stroke-width:1px;"/></g><g id="floor-tiles84" serif:id="floor tiles"><path d="M221.914,312.259L242.038,322.322L222.031,332.325L202.024,322.204L221.914,312.259Z" style="fill:#b3b3b3;"/><path d="M262.163,332.384L242.038,322.322L262.163,312.259L282.288,322.322L262.163,332.384Z" style="fill:#b3b3b3;"/><path d="M242.038,302.197L202.024,322.204L242.038,342.446L282.288,322.322L242.038,302.197Z" style="fill:none;stroke:#bebebe;stroke-width:1px;"/><path d="M262.163,312.259L221.929,332.377" style="fill:none;stroke:#bebebe;stroke-width:1px;"/><path d="M221.914,312.259L262.163,332.384" style="fill:none;stroke:#bebebe;stroke-width:1px;"/></g><g id="floor-tiles85" serif:id="floor tiles"><path d="M262.222,292.105L282.346,302.168L262.339,312.171L242.332,302.05L262.222,292.105Z" style="fill:#b3b3b3;"/><path d="M302.471,312.23L282.346,302.168L302.471,292.105L322.596,302.168L302.471,312.23Z" style="fill:#b3b3b3;"/><path d="M282.346,282.043L242.332,302.05L282.346,322.292L322.596,302.168L282.346,282.043Z" style="fill:none;stroke:#bebebe;stroke-width:1px;"/><path d="M302.471,292.105L262.237,312.223" style="fill:none;stroke:#bebebe;stroke-width:1px;"/><path d="M262.222,292.105L302.471,312.23" style="fill:none;stroke:#bebebe;stroke-width:1px;"/></g><g id="floor-tiles86" serif:id="floor tiles"><path d="M302.353,272.04L322.478,282.102L302.471,292.105L282.464,281.984L302.353,272.04Z" style="fill:#b3b3b3;"/><path d="M342.603,292.164L322.478,282.102L342.603,272.04L362.727,282.102L342.603,292.164Z" style="fill:#b3b3b3;"/><path d="M322.478,261.977L282.464,281.984L322.478,302.227L362.727,282.102L322.478,261.977Z" style="fill:none;stroke:#bebebe;stroke-width:1px;"/><path d="M342.603,272.04L302.368,292.157" style="fill:none;stroke:#bebebe;stroke-width:1px;"/><path d="M302.353,272.04L342.603,292.164" style="fill:none;stroke:#bebebe;stroke-width:1px;"/></g><g id="floor-tiles87" serif:id="floor tiles"><path d="M342.485,251.502L362.61,261.564L342.603,271.567L322.596,261.446L342.485,251.502Z" style="fill:#b3b3b3;"/><path d="M382.734,271.626L362.61,261.564L382.734,251.502L402.859,261.564L382.734,271.626Z" style="fill:#b3b3b3;"/><path d="M362.61,241.439L322.596,261.446L362.61,281.689L402.859,261.564L362.61,241.439Z" style="fill:none;stroke:#bebebe;stroke-width:1px;"/><path d="M382.734,251.502L342.5,271.619" style="fill:none;stroke:#bebebe;stroke-width:1px;"/><path d="M342.485,251.502L382.734,271.626" style="fill:none;stroke:#bebebe;stroke-width:1px;"/></g><g id="floor-tiles88" serif:id="floor tiles"><path d="M61.305,433.469L81.43,443.531L61.423,453.535L41.416,443.413L61.305,433.469Z" style="fill:#b3b3b3;"/><path d="M101.554,453.593L81.43,443.531L101.554,433.469L121.679,443.531L101.554,453.593Z" style="fill:#b3b3b3;"/><path d="M81.43,423.406L41.416,443.413L81.43,463.656L121.679,443.531L81.43,423.406Z" style="fill:none;stroke:#bebebe;stroke-width:1px;"/><path d="M101.554,433.469L61.32,453.586" style="fill:none;stroke:#bebebe;stroke-width:1px;"/><path d="M61.305,433.469L101.554,453.593" style="fill:none;stroke:#bebebe;stroke-width:1px;"/></g><g id="floor-tiles89" serif:id="floor tiles"><path d="M101.319,413.337L121.444,423.399L101.437,433.402L81.43,423.281L101.319,413.337Z" style="fill:#b3b3b3;"/><path d="M141.568,433.461L121.444,423.399L141.568,413.337L161.693,423.399L141.568,433.461Z" style="fill:#b3b3b3;"/><path d="M121.444,403.274L81.43,423.281L121.444,443.524L161.693,423.399L121.444,403.274Z" style="fill:none;stroke:#bebebe;stroke-width:1px;"/><path d="M141.568,413.337L101.334,433.454" style="fill:none;stroke:#bebebe;stroke-width:1px;"/><path d="M101.319,413.337L141.568,433.461" style="fill:none;stroke:#bebebe;stroke-width:1px;"/></g><g id="floor-tiles90" serif:id="floor tiles"><path d="M141.568,393.278L161.693,403.341L141.686,413.344L121.679,403.223L141.568,393.278Z" style="fill:#b3b3b3;"/><path d="M181.818,413.403L161.693,403.341L181.818,393.278L201.942,403.341L181.818,413.403Z" style="fill:#b3b3b3;"/><path d="M161.693,383.216L121.679,403.223L161.693,423.465L201.942,403.341L161.693,383.216Z" style="fill:none;stroke:#bebebe;stroke-width:1px;"/><path d="M181.818,393.278L141.583,413.395" style="fill:none;stroke:#bebebe;stroke-width:1px;"/><path d="M141.568,393.278L181.818,413.403" style="fill:none;stroke:#bebebe;stroke-width:1px;"/></g><g id="floor-tiles91" serif:id="floor tiles"><path d="M182.231,372.947L202.356,383.009L182.349,393.013L162.342,382.892L182.231,372.947Z" style="fill:#b3b3b3;"/><path d="M222.48,393.072L202.356,383.009L222.48,372.947L242.605,383.009L222.48,393.072Z" style="fill:#b3b3b3;"/><path d="M202.356,362.885L162.342,382.892L202.356,403.134L242.605,383.009L202.356,362.885Z" style="fill:none;stroke:#bebebe;stroke-width:1px;"/><path d="M222.48,372.947L182.246,393.064" style="fill:none;stroke:#bebebe;stroke-width:1px;"/><path d="M182.231,372.947L222.48,393.072" style="fill:none;stroke:#bebebe;stroke-width:1px;"/></g><g id="floor-tiles92" serif:id="floor tiles"><path d="M20.997,413.373L41.122,423.436L21.115,433.439L1.108,423.318L20.997,413.373Z" style="fill:#b3b3b3;"/><path d="M61.246,433.498L41.122,423.436L61.246,413.373L81.371,423.436L61.246,433.498Z" style="fill:#b3b3b3;"/><path d="M41.122,403.311L1.108,423.318L41.122,443.56L81.371,423.436L41.122,403.311Z" style="fill:none;stroke:#bebebe;stroke-width:1px;"/><path d="M61.246,413.373L21.012,433.491" style="fill:none;stroke:#bebebe;stroke-width:1px;"/><path d="M20.997,413.373L61.246,433.498" style="fill:none;stroke:#bebebe;stroke-width:1px;"/></g><g id="floor-tiles93" serif:id="floor tiles"><path d="M61.305,393.219L81.43,403.282L61.423,413.285L41.416,403.164L61.305,393.219Z" style="fill:#b3b3b3;"/><path d="M101.554,413.344L81.43,403.282L101.554,393.219L121.679,403.282L101.554,413.344Z" style="fill:#b3b3b3;"/><path d="M81.43,383.157L41.416,403.164L81.43,423.406L121.679,403.282L81.43,383.157Z" style="fill:none;stroke:#bebebe;stroke-width:1px;"/><path d="M101.554,393.219L61.32,413.337" style="fill:none;stroke:#bebebe;stroke-width:1px;"/><path d="M61.305,393.219L101.554,413.344" style="fill:none;stroke:#bebebe;stroke-width:1px;"/></g><g id="floor-tiles94" serif:id="floor tiles"><path d="M101.437,373.154L121.561,383.216L101.554,393.219L81.547,383.098L101.437,373.154Z" style="fill:#b3b3b3;"/><path d="M141.686,393.278L121.561,383.216L141.686,373.154L161.811,383.216L141.686,393.278Z" style="fill:#b3b3b3;"/><path d="M121.561,363.091L81.547,383.098L121.561,403.341L161.811,383.216L121.561,363.091Z" style="fill:none;stroke:#bebebe;stroke-width:1px;"/><path d="M141.686,373.154L101.452,393.271" style="fill:none;stroke:#bebebe;stroke-width:1px;"/><path d="M101.437,373.154L141.686,393.278" style="fill:none;stroke:#bebebe;stroke-width:1px;"/></g><g id="floor-tiles95" serif:id="floor tiles"><path d="M141.568,352.616L161.693,362.678L141.686,372.681L121.679,362.56L141.568,352.616Z" style="fill:#b3b3b3;"/><path d="M181.818,372.74L161.693,362.678L181.818,352.616L201.942,362.678L181.818,372.74Z" style="fill:#b3b3b3;"/><path d="M161.693,342.553L121.679,362.56L161.693,382.803L201.942,362.678L161.693,342.553Z" style="fill:none;stroke:#bebebe;stroke-width:1px;"/><path d="M181.818,352.616L141.583,372.733" style="fill:none;stroke:#bebebe;stroke-width:1px;"/><path d="M141.568,352.616L181.818,372.74" style="fill:none;stroke:#bebebe;stroke-width:1px;"/></g></g><g id="Cushions"><g id="Cushion"><path d="M563.888,503.066L604.137,523.191L644.386,503.066L644.386,499.21L604.218,519.294L564.001,499.186L563.888,503.066Z" style="fill:none;stroke:#000;stroke-width:1px;"/><path d="M604.137,479.118L644.386,499.21" style="fill:none;stroke:#000;stroke-width:1px;"/><path d="M604.137,479.118L563.907,499.233" style="fill:none;stroke:#000;stroke-width:1px;"/><path d="M563.907,499.233L604.102,519.331L644.377,499.193L604.2,479.105" style="fill:none;stroke:#000;stroke-width:1px;"/><path d="M604.137,479.118L644.365,499.199L604.197,519.283L564.001,499.186L604.137,479.118Z" style="fill:#8659a6;"/><path d="M563.999,499.279L604.102,519.331L604.197,519.283L604.218,519.294L644.386,499.21L644.386,503.066L604.137,523.191L563.888,503.066L563.999,499.279Z" style="fill:#644db3;"/></g><g id="Cushion1" serif:id="Cushion"><path d="M644.365,462.88L684.614,483.005L724.863,462.88L724.863,459.024L684.695,479.108L644.479,458.999L644.365,462.88Z" style="fill:none;stroke:#000;stroke-width:1px;"/><path d="M684.614,438.932L724.863,459.024" style="fill:none;stroke:#000;stroke-width:1px;"/><path d="M684.614,438.932L644.384,459.047" style="fill:none;stroke:#000;stroke-width:1px;"/><path d="M644.384,459.047L684.58,479.144L724.854,459.007L684.677,438.919" style="fill:none;stroke:#000;stroke-width:1px;"/><path d="M684.614,438.932L724.842,459.013L684.674,479.097L644.479,458.999L684.614,438.932Z" style="fill:#8659a6;"/><path d="M644.476,459.092L684.58,479.144L684.674,479.097L684.695,479.108L724.863,459.024L724.863,462.88L684.614,483.005L644.365,462.88L644.476,459.092Z" style="fill:#644db3;"/></g><g id="Cushion2" serif:id="Cushion"><path d="M483.389,543.322L523.638,563.447L563.888,543.322L563.888,539.466L523.72,559.55L483.503,539.441L483.389,543.322Z" style="fill:none;stroke:#000;stroke-width:1px;"/><path d="M523.638,519.374L563.888,539.466" style="fill:none;stroke:#000;stroke-width:1px;"/><path d="M523.638,519.374L483.409,539.489" style="fill:none;stroke:#000;stroke-width:1px;"/><path d="M483.409,539.489L523.604,559.586L563.879,539.449L523.702,519.361" style="fill:none;stroke:#000;stroke-width:1px;"/><path d="M523.638,519.374L563.866,539.455L523.698,559.539L483.503,539.441L523.638,519.374Z" style="fill:#8659a6;"/><path d="M483.5,539.534L523.604,559.586L523.698,559.539L523.72,559.55L563.888,539.466L563.888,543.322L523.638,563.447L483.389,543.322L483.5,539.534Z" style="fill:#644db3;"/></g><g id="Cushion3" serif:id="Cushion"><path d="M403.506,583.309L443.756,603.434L484.005,583.309L484.005,579.453L443.837,599.537L403.62,579.429L403.506,583.309Z" style="fill:none;stroke:#000;stroke-width:1px;"/><path d="M443.756,559.361L484.005,579.453" style="fill:none;stroke:#000;stroke-width:1px;"/><path d="M443.756,559.361L403.526,579.476" style="fill:none;stroke:#000;stroke-width:1px;"/><path d="M403.526,579.476L443.721,599.574L483.996,579.436L443.819,559.348" style="fill:none;stroke:#000;stroke-width:1px;"/><path d="M443.756,559.361L483.983,579.442L443.816,599.526L403.62,579.429L443.756,559.361Z" style="fill:#8659a6;"/><path d="M403.617,579.522L443.721,599.574L443.816,599.526L443.837,599.537L484.005,579.453L484.005,583.309L443.756,603.434L403.506,583.309L403.617,579.522Z" style="fill:#644db3;"/></g><g id="Cushion4" serif:id="Cushion"><path d="M563.98,422.782L604.229,442.907L644.479,422.782L644.479,418.926L604.311,439.01L564.094,418.901L563.98,422.782Z" style="fill:none;stroke:#000;stroke-width:1px;"/><path d="M604.229,398.834L644.479,418.926" style="fill:none;stroke:#000;stroke-width:1px;"/><path d="M604.229,398.834L564,418.949" style="fill:none;stroke:#000;stroke-width:1px;"/><path d="M564,418.949L604.195,439.046L644.469,418.909L604.293,398.821" style="fill:none;stroke:#000;stroke-width:1px;"/><path d="M604.229,398.834L644.457,418.915L604.289,438.999L564.094,418.901L604.229,398.834Z" style="fill:#8659a6;"/><path d="M564.091,418.995L604.195,439.046L604.289,438.999L604.311,439.01L644.479,418.926L644.479,422.782L604.229,442.907L563.98,422.782L564.091,418.995Z" style="fill:#644db3;"/></g><g id="Cushion5" serif:id="Cushion"><path d="M483.617,462.826L523.866,482.951L564.115,462.826L564.115,458.97L523.947,479.054L483.731,458.946L483.617,462.826Z" style="fill:none;stroke:#000;stroke-width:1px;"/><path d="M523.866,438.878L564.115,458.97" style="fill:none;stroke:#000;stroke-width:1px;"/><path d="M523.866,438.878L483.636,458.993" style="fill:none;stroke:#000;stroke-width:1px;"/><path d="M483.636,458.993L523.832,479.091L564.106,458.953L523.929,438.865" style="fill:none;stroke:#000;stroke-width:1px;"/><path d="M523.866,438.878L564.094,458.959L523.926,479.043L483.731,458.946L523.866,438.878Z" style="fill:#8659a6;"/><path d="M483.728,459.039L523.832,479.091L523.926,479.043L523.947,479.054L564.115,458.97L564.115,462.826L523.866,482.951L483.617,462.826L483.728,459.039Z" style="fill:#644db3;"/></g><g id="Cushion6" serif:id="Cushion"><path d="M402.786,502.351L443.036,522.476L483.285,502.351L483.285,498.495L443.117,518.579L402.9,498.47L402.786,502.351Z" style="fill:none;stroke:#000;stroke-width:1px;"/><path d="M443.036,478.403L483.285,498.495" style="fill:none;stroke:#000;stroke-width:1px;"/><path d="M443.036,478.403L402.806,498.518" style="fill:none;stroke:#000;stroke-width:1px;"/><path d="M402.806,498.518L443.001,518.615L483.276,498.478L443.099,478.39" style="fill:none;stroke:#000;stroke-width:1px;"/><path d="M443.036,478.403L483.264,498.484L443.096,518.568L402.9,498.47L443.036,478.403Z" style="fill:#8659a6;"/><path d="M402.897,498.564L443.001,518.615L443.096,518.568L443.117,518.579L483.285,498.495L483.285,502.351L443.036,522.476L402.786,502.351L402.897,498.564Z" style="fill:#644db3;"/></g><g id="Cushion7" serif:id="Cushion"><path d="M323.195,542.993L363.444,563.118L403.693,542.993L403.693,539.137L363.525,559.221L323.309,539.113L323.195,542.993Z" style="fill:none;stroke:#000;stroke-width:1px;"/><path d="M363.444,519.045L403.693,539.137" style="fill:none;stroke:#000;stroke-width:1px;"/><path d="M363.444,519.045L323.214,539.16" style="fill:none;stroke:#000;stroke-width:1px;"/><path d="M323.214,539.16L363.41,559.258L403.684,539.121L363.507,519.032" style="fill:none;stroke:#000;stroke-width:1px;"/><path d="M363.444,519.045L403.672,539.127L363.504,559.211L323.309,539.113L363.444,519.045Z" style="fill:#8659a6;"/><path d="M323.306,539.206L363.41,559.258L363.504,559.211L363.525,559.221L403.693,539.137L403.693,542.993L363.444,563.118L323.195,542.993L323.306,539.206Z" style="fill:#644db3;"/></g><g id="Cushion8" serif:id="Cushion"><path d="M563.98,422.782L604.229,442.907L644.479,422.782L644.479,418.926L604.311,439.01L564.094,418.901L563.98,422.782Z" style="fill:none;stroke:#000;stroke-width:1px;"/><path d="M604.229,398.834L644.479,418.926" style="fill:none;stroke:#000;stroke-width:1px;"/><path d="M604.229,398.834L564,418.949" style="fill:none;stroke:#000;stroke-width:1px;"/><path d="M564,418.949L604.195,439.046L644.469,418.909L604.293,398.821" style="fill:none;stroke:#000;stroke-width:1px;"/><path d="M604.229,398.834L644.457,418.915L604.289,438.999L564.094,418.901L604.229,398.834Z" style="fill:#8659a6;"/><path d="M564.091,418.995L604.195,439.046L604.289,438.999L604.311,439.01L644.479,418.926L644.479,422.782L604.229,442.907L563.98,422.782L564.091,418.995Z" style="fill:#644db3;"/></g><g id="Cushion9" serif:id="Cushion"><path d="M483.617,462.826L523.866,482.951L564.115,462.826L564.115,458.97L523.947,479.054L483.731,458.946L483.617,462.826Z" style="fill:none;stroke:#000;stroke-width:1px;"/><path d="M523.866,438.878L564.115,458.97" style="fill:none;stroke:#000;stroke-width:1px;"/><path d="M523.866,438.878L483.636,458.993" style="fill:none;stroke:#000;stroke-width:1px;"/><path d="M483.636,458.993L523.832,479.091L564.106,458.953L523.929,438.865" style="fill:none;stroke:#000;stroke-width:1px;"/><path d="M523.866,438.878L564.094,458.959L523.926,479.043L483.731,458.946L523.866,438.878Z" style="fill:#8659a6;"/><path d="M483.728,459.039L523.832,479.091L523.926,479.043L523.947,479.054L564.115,458.97L564.115,462.826L523.866,482.951L483.617,462.826L483.728,459.039Z" style="fill:#644db3;"/></g><g id="Cushion10" serif:id="Cushion"><path d="M402.786,502.351L443.036,522.476L483.285,502.351L483.285,498.495L443.117,518.579L402.9,498.47L402.786,502.351Z" style="fill:none;stroke:#000;stroke-width:1px;"/><path d="M443.036,478.403L483.285,498.495" style="fill:none;stroke:#000;stroke-width:1px;"/><path d="M443.036,478.403L402.806,498.518" style="fill:none;stroke:#000;stroke-width:1px;"/><path d="M402.806,498.518L443.001,518.615L483.276,498.478L443.099,478.39" style="fill:none;stroke:#000;stroke-width:1px;"/><path d="M443.036,478.403L483.264,498.484L443.096,518.568L402.9,498.47L443.036,478.403Z" style="fill:#8659a6;"/><path d="M402.897,498.564L443.001,518.615L443.096,518.568L443.117,518.579L483.285,498.495L483.285,502.351L443.036,522.476L402.786,502.351L402.897,498.564Z" style="fill:#644db3;"/></g><g id="Cushion11" serif:id="Cushion"><path d="M323.195,542.993L363.444,563.118L403.693,542.993L403.693,539.137L363.525,559.221L323.309,539.113L323.195,542.993Z" style="fill:none;stroke:#000;stroke-width:1px;"/><path d="M363.444,519.045L403.693,539.137" style="fill:none;stroke:#000;stroke-width:1px;"/><path d="M363.444,519.045L323.214,539.16" style="fill:none;stroke:#000;stroke-width:1px;"/><path d="M323.214,539.16L363.41,559.258L403.684,539.121L363.507,519.032" style="fill:none;stroke:#000;stroke-width:1px;"/><path d="M363.444,519.045L403.672,539.127L363.504,559.211L323.309,539.113L363.444,519.045Z" style="fill:#8659a6;"/><path d="M323.306,539.206L363.41,559.258L363.504,559.211L363.525,559.221L403.693,539.137L403.693,542.993L363.444,563.118L323.195,542.993L323.306,539.206Z" style="fill:#644db3;"/></g><g id="Cushion12" serif:id="Cushion"><path d="M323.532,423.077L363.781,443.202L404.03,423.077L404.03,419.221L363.862,439.305L323.646,419.197L323.532,423.077Z" style="fill:none;stroke:#000;stroke-width:1px;"/><path d="M363.781,399.129L404.03,419.221" style="fill:none;stroke:#000;stroke-width:1px;"/><path d="M363.781,399.129L323.551,419.244" style="fill:none;stroke:#000;stroke-width:1px;"/><path d="M323.551,419.244L363.747,439.342L404.021,419.204L363.845,399.116" style="fill:none;stroke:#000;stroke-width:1px;"/><path d="M363.781,399.129L404.009,419.21L363.841,439.294L323.646,419.197L363.781,399.129Z" style="fill:#8659a6;"/><path d="M323.643,419.29L363.747,439.342L363.841,439.294L363.862,439.305L404.03,419.221L404.03,423.077L363.781,443.202L323.532,423.077L323.643,419.29Z" style="fill:#644db3;"/></g></g><g id="windows"><g id="aa"><path d="M679.169,258.751L676.469,257.401L676.469,317.901L718.519,338.801L723.769,341.351L723.819,341.301L726.119,340.501L765.919,360.401L765.919,357.751L729.119,339.401L726.119,340.501L729.119,339.401L729.369,283.751L723.919,281.001C722.152,280.101 720.369,279.218 718.569,278.351L718.519,336.651L718.519,338.801L718.519,336.651L679.119,316.851L679.169,258.751M723.819,341.401L765.919,362.401L765.919,360.401L726.119,340.501L723.819,341.301L723.819,341.401M676.469,317.901L679.119,316.901L679.119,316.851L679.119,316.901L676.469,317.901M723.919,281.001L723.819,341.301L723.919,281.001" style="fill:#999;"/><path d="M765.919,297.501L765.919,297.351L765.069,296.951L764.869,296.951L765.919,297.501" style="fill:#ccc;"/><path d="M765.919,357.751L765.919,301.901L729.369,283.751L729.119,339.401L765.919,357.751M718.569,278.351L679.169,258.751L679.119,316.851L718.519,336.651L718.569,278.351" style="fill:url(#_Radial3);"/><path d="M679.169,258.751L676.469,257.401L676.469,317.901L718.519,338.801L723.769,341.351L723.819,341.401L765.919,362.401L765.919,357.751M765.919,350.951L765.919,301.901L729.369,283.751L723.919,281.001C722.152,280.101 720.369,279.218 718.569,278.351L679.169,258.751L679.119,316.851L679.119,316.901L676.469,317.901M718.519,336.651L718.519,338.801M765.919,360.401L726.119,340.501L729.119,339.401L765.919,357.751M723.819,341.301L726.119,340.501M723.819,341.301L723.819,341.401M723.819,341.301L723.919,281.001M718.519,336.651L718.569,278.351M679.119,316.851L718.519,336.651M729.369,283.751L729.119,339.401M765.919,357.751L765.919,350.951" style="fill:none;fill-rule:nonzero;stroke:#000;stroke-width:1px;stroke-miterlimit:4;"/></g><g id="aa1" serif:id="aa"><path d="M558.462,198.357L555.762,197.007L555.762,257.507L597.812,278.407L603.062,280.957L603.112,280.907L605.412,280.107L645.212,300.007L645.212,297.357L608.412,279.007L605.412,280.107L608.412,279.007L608.662,223.357L603.212,220.607C601.446,219.707 599.662,218.823 597.862,217.957L597.812,276.257L597.812,278.407L597.812,276.257L558.412,256.457L558.462,198.357M603.112,281.007L645.212,302.007L645.212,300.007L605.412,280.107L603.112,280.907L603.112,281.007M555.762,257.507L558.412,256.507L558.412,256.457L558.412,256.507L555.762,257.507M603.212,220.607L603.112,280.907L603.212,220.607" style="fill:#999;"/><path d="M645.212,237.107L645.212,236.957L644.362,236.557L644.162,236.557L645.212,237.107" style="fill:#ccc;"/><path d="M645.212,297.357L645.212,241.507L608.662,223.357L608.412,279.007L645.212,297.357M597.862,217.957L558.462,198.357L558.412,256.457L597.812,276.257L597.862,217.957" style="fill:url(#_Radial4);"/><path d="M558.462,198.357L555.762,197.007L555.762,257.507L597.812,278.407L603.062,280.957L603.112,281.007L645.212,302.007L645.212,297.357M645.212,290.557L645.212,241.507L608.662,223.357L603.212,220.607C601.446,219.707 599.662,218.823 597.862,217.957L558.462,198.357L558.412,256.457L558.412,256.507L555.762,257.507M597.812,276.257L597.812,278.407M645.212,300.007L605.412,280.107L608.412,279.007L645.212,297.357M603.112,280.907L605.412,280.107M603.112,280.907L603.112,281.007M603.112,280.907L603.212,220.607M597.812,276.257L597.862,217.957M558.412,256.457L597.812,276.257M608.662,223.357L608.412,279.007M645.212,297.357L645.212,290.557" style="fill:none;fill-rule:nonzero;stroke:#000;stroke-width:1px;stroke-miterlimit:4;"/></g><g id="aa2" serif:id="aa"><path d="M437.689,137.996L434.989,136.646L434.989,197.146L477.039,218.046L482.289,220.596L482.339,220.546L484.639,219.746L524.439,239.646L524.439,236.996L487.639,218.646L484.639,219.746L487.639,218.646L487.889,162.996L482.439,160.246C480.673,159.346 478.889,158.462 477.089,157.596L477.039,215.896L477.039,218.046L477.039,215.896L437.639,196.096L437.689,137.996M482.339,220.646L524.439,241.646L524.439,239.646L484.639,219.746L482.339,220.546L482.339,220.646M434.989,197.146L437.639,196.146L437.639,196.096L437.639,196.146L434.989,197.146M482.439,160.246L482.339,220.546L482.439,160.246" style="fill:#999;"/><path d="M524.439,176.746L524.439,176.596L523.589,176.196L523.389,176.196L524.439,176.746" style="fill:#ccc;"/><path d="M524.439,236.996L524.439,181.146L487.889,162.996L487.639,218.646L524.439,236.996M477.089,157.596L437.689,137.996L437.639,196.096L477.039,215.896L477.089,157.596" style="fill:url(#_Radial5);"/><path d="M437.689,137.996L434.989,136.646L434.989,197.146L477.039,218.046L482.289,220.596L482.339,220.646L524.439,241.646L524.439,236.996M524.439,230.196L524.439,181.146L487.889,162.996L482.439,160.246C480.673,159.346 478.889,158.462 477.089,157.596L437.689,137.996L437.639,196.096L437.639,196.146L434.989,197.146M477.039,215.896L477.039,218.046M524.439,239.646L484.639,219.746L487.639,218.646L524.439,236.996M482.339,220.546L484.639,219.746M482.339,220.546L482.339,220.646M482.339,220.546L482.439,160.246M477.039,215.896L477.089,157.596M437.639,196.096L477.039,215.896M487.889,162.996L487.639,218.646M524.439,236.996L524.439,230.196" style="fill:none;fill-rule:nonzero;stroke:#000;stroke-width:1px;stroke-miterlimit:4;"/></g></g><g id="Arrow"><path d="M656.074,559.445L636.124,549.445L616.274,559.345L636.274,569.345L628.674,573.145L663.524,573.395L663.524,555.995L656.074,559.445" style="fill:#fc6;fill-opacity:0.6;fill-rule:nonzero;"/><path d="M663.524,555.995L663.524,573.395L628.674,573.145L636.274,569.345L616.274,559.345L636.124,549.445L656.074,559.445L663.524,555.995Z" style="fill:none;fill-rule:nonzero;stroke:#f60;stroke-opacity:0.6;stroke-width:1px;stroke-miterlimit:3;"/></g><defs><linearGradient id="_Linear1" x1="0" y1="0" x2="1" y2="0" gradientUnits="userSpaceOnUse" gradientTransform="matrix(127.806,240.334,-240.334,127.806,194.688,21.7862)"><stop offset="0" style="stop-color:#fff;stop-opacity:1"/><stop offset="1" style="stop-color:#e6e6e6;stop-opacity:1"/></linearGradient><linearGradient id="_Linear2" x1="0" y1="0" x2="1" y2="0" gradientUnits="userSpaceOnUse" gradientTransform="matrix(4.96124,401.034,-401.034,4.96124,760.269,19.3056)"><stop offset="0" style="stop-color:#fff;stop-opacity:1"/><stop offset="1" style="stop-color:#e6e6e6;stop-opacity:1"/></linearGradient><radialGradient id="_Radial3" cx="0" cy="0" r="1" gradientUnits="userSpaceOnUse" gradientTransform="matrix(-54.8864,-4.42368,0,48.4966,714.369,285.651)"><stop offset="0" style="stop-color:#fff;stop-opacity:1"/><stop offset="0.13" style="stop-color:#fff;stop-opacity:1"/><stop offset="1" style="stop-color:#6459ea;stop-opacity:1"/></radialGradient><radialGradient id="_Radial4" cx="0" cy="0" r="1" gradientUnits="userSpaceOnUse" gradientTransform="matrix(-54.8864,-4.42368,0,48.4966,593.662,225.257)"><stop offset="0" style="stop-color:#fff;stop-opacity:1"/><stop offset="0.13" style="stop-color:#fff;stop-opacity:1"/><stop offset="1" style="stop-color:#6459ea;stop-opacity:1"/></radialGradient><radialGradient id="_Radial5" cx="0" cy="0" r="1" gradientUnits="userSpaceOnUse" gradientTransform="matrix(-54.8864,-4.42368,0,48.4966,472.889,164.896)"><stop offset="0" style="stop-color:#fff;stop-opacity:1"/><stop offset="0.13" style="stop-color:#fff;stop-opacity:1"/><stop offset="1" style="stop-color:#6459ea;stop-opacity:1"/></radialGradient></defs></svg>