<?xml version="1.0" encoding="UTF-8" standalone="no"?>
<svg
   height="182"
   width="160"
   version="1.1"
   id="svg4"
   sodipodi:docname="back-sitting.svg"
   inkscape:version="1.4.3 (0d15f75042, 2025-12-25)"
   xmlns:inkscape="http://www.inkscape.org/namespaces/inkscape"
   xmlns:sodipodi="http://sodipodi.sourceforge.net/DTD/sodipodi-0.dtd"
   xmlns:xlink="http://www.w3.org/1999/xlink"
   xmlns="http://www.w3.org/2000/svg"
   xmlns:svg="http://www.w3.org/2000/svg">
  <sodipodi:namedview
     id="namedview4"
     pagecolor="#505050"
     bordercolor="#ffffff"
     borderopacity="1"
     inkscape:showpageshadow="0"
     inkscape:pageopacity="0"
     inkscape:pagecheckerboard="1"
     inkscape:deskcolor="#505050"
     inkscape:zoom="2.4243661"
     inkscape:cx="97.963752"
     inkscape:cy="79.19596"
     inkscape:window-width="1438"
     inkscape:window-height="877"
     inkscape:window-x="1360"
     inkscape:window-y="21"
     inkscape:window-maximized="1"
     inkscape:current-layer="layer1" />
  <defs
     id="defs3">
    <path
       d="M1.35 0h.2l.55.1.45.35q.45.45.45 1L2.55 2.6q-.45.4-1 .4l-.8-.2-.25-.2-.45-.7v-.15L0 1.45v-.1q.05-.5.5-.9l.25-.2Q1 .05 1.3 0h.05m.45.85L1.55.8Q1.2.75 1 1q-.2.15-.2.45v.15l.15.45H1l.05.05.2.1.3.05.55-.2.15-.6-.05-.3L2.1 1 2.05.95 1.9.85h-.1"
       fill-rule="evenodd"
       id="a" />
    <use
       height="3"
       transform="translate(.8)"
       width="3"
       xlink:href="#a"
       id="c" />
    <g
       id="b">
      <path
         d="M.35-60h3.9l1.2.55 3.85-8.6 3.9 8.6 1.25-.55 3.15 3.05 1.1 1.1-1.1-1.1 1.15 1.1h-.05l-.35.4.1.1q2.1 2.05 2.3 4.55l.05.6q0 1.65-.8 3.1l-.25.45-1.4 1.7.1.1-.3.3-3.25.9v4.7l-3.25.7-3.15.9.65 1.6L12.5-37q1.7-.6 3-.6 1.55 0 2.15.6.8.8.8 2 0 1.1-.75 1.85-1.05 1.05-4.1 1.25l-1.25.05.35 1.5 1.5-.05-.05 2.75-1.5 1.25v5.75H8.1v1.55h6.6q.7 0 1.15.4.55.55.55 1.65 0 1.05-.55 1.6-.45.45-1.15.45H8.1v1.5h-17l-3.25-3.25v-1.7l.45-.4q.75-.6 1.35-1.55l-1.25-1-.7.95.4-10.95 1.75-12.8.4.35.75-.7-1-1.1q-1.5-1.9-1.5-4.15l.05-1q.35-2.3 2.45-4.25l-.75-.75.5-3.95.65.3 3.85-8.6 3.85 8.6L.35-60m10.5 16.4.75-1.55v-1.35h-1.55v1.45h.55l-.55 1.45h.8m3.65-2.9H13v1.45h.55L13-43.6h.75l.75-1.55v-1.35"
         fill="#fff"
         fill-rule="evenodd"
         transform="translate(21.55 71)"
         id="path1" />
      <path
         d="m.35-60-1.25.55-3.85-8.6-3.85 8.6-.65-.3-.55-.25 5.05-11 5.1 11m-10.1 4.2.75.75q-2.1 1.95-2.45 4.25l-.05 1q0 2.25 1.5 4.15l1 1.1-.75.7-.4-.35-.6-.7q-1.8-2.2-1.8-4.9l.05-1q.35-2.8 2.75-5m-2.55 35.35.7-.95 1.25 1q-.6.95-1.35 1.55l-.45.4q-.55.35-1.25.45h-.35q-.95 0-2.65-1.1l-1.9-.65q-.9 0-1.3.55l-.6.95-1.35-.75 1.2-1.65q.8-.8 1.95-.8 1.1 0 2.25.8 1.65.85 2.55.85.65 0 1.3-.65M8.1-13.5V-15h6.6q.7 0 1.15-.45.55-.55.55-1.6 0-1.1-.55-1.65-.45-.4-1.15-.4H8.1v-1.55h6.65q1.25 0 2.05.8.9.9.9 2.8 0 1.85-.9 2.75-.8.8-2.05.8H8.1m6.1-16.9-1.5.05-.35-1.5 1.25-.05q3.05-.2 4.1-1.25.75-.75.75-1.85 0-1.2-.8-2-.6-.6-2.15-.6-1.3 0-3 .6l-3.35 1.25-.65-1.6 3.15-.9 3.25-.7.75-.05q2.2 0 3.25 1.05Q20-36.9 20-35.1q0 1.85-1 2.85l-.4.35q-1.6 1.2-4.4 1.5m4.25-14.45-.1-.1 1.4-1.7.25-.45q.8-1.45.8-3.1l-.05-.6q-.2-2.5-2.3-4.55l-.1-.1.35-.4h.05l.3-.35q2.55 2.35 2.75 5.4l.05.6q0 1.9-.9 3.55-.7 1.25-1.9 2.4l-.6-.6m-4-15.15-1.25.55-3.9-8.6-3.85 8.6-1.2-.55L9.3-71l5.15 11m.05 13.5v1.35l-.75 1.55H13l.55-1.45H13v-1.45h1.5m-3.65 2.9h-.8l.55-1.45h-.55v-1.45h1.55v1.35l-.75 1.55"
         fill-rule="evenodd"
         transform="translate(21.55 71)"
         id="path2" />
      <path
         d="M4.25-60H.35m12.3 39.35v-5.75m6.05-29.45-1.1-1.1"
         fill="none"
         stroke="#000"
         stroke-linecap="round"
         stroke-linejoin="round"
         transform="translate(21.55 71)"
         id="path3" />
    </g>
    <filter
       style="color-interpolation-filters:sRGB;"
       inkscape:label="Colorize"
       id="filter5"
       x="0"
       y="0"
       width="1"
       height="1">
      <feComposite
         in2="SourceGraphic"
         operator="arithmetic"
         k1="7.89601"
         k2="0"
         result="composite1"
         id="feComposite4" />
      <feColorMatrix
         in="composite1"
         values="1"
         type="saturate"
         result="colormatrix1"
         id="feColorMatrix4" />
      <feFlood
         flood-opacity="1"
         flood-color="rgb(223,74,0)"
         result="flood1"
         id="feFlood4" />
      <feBlend
         in="flood1"
         in2="colormatrix1"
         mode="multiply"
         result="blend1"
         id="feBlend4" />
      <feBlend
         in2="blend1"
         mode="screen"
         result="blend2"
         id="feBlend5" />
      <feColorMatrix
         in="blend2"
         values="1"
         type="saturate"
         result="colormatrix2"
         id="feColorMatrix5" />
      <feComposite
         in="colormatrix2"
         in2="SourceGraphic"
         operator="in"
         k2="1"
         result="composite2"
         id="feComposite5" />
    </filter>
  </defs>
  <g
     transform="matrix(2 0 0 2 79.441 142)"
     id="g4"
     style="filter:url(#filter5)">
    <use
       height="57.5"
       transform="translate(-21.55 -71)"
       width="43.4"
       xlink:href="#b"
       id="use3" />
    <use
       height="3"
       transform="matrix(1.0012 0 0 1 13.45 -56.7)"
       width="4.65"
       xlink:href="#c"
       id="use4" />
  </g>
  <g
     inkscape:groupmode="layer"
     id="layer1"
     inkscape:label="stripes back"
     transform="translate(26.567066,2.3372525e-4)">
    <path
       d="m 57.345025,54.764856 q 0,-1.464 0.42,-2.82 0.432,-1.368 1.344,-2.46 h 0.996 q -0.84,1.128 -1.272,2.484 -0.42,1.356 -0.42,2.784 0,1.392 0.42,2.736 0.432,1.332 1.26,2.46 h -0.984 q -0.912,-1.056 -1.344,-2.388 -0.42,-1.344 -0.42,-2.796 z m 3.59999,0 q 0,-1.464 0.42,-2.82 0.432,-1.368 1.344,-2.46 h 0.996 q -0.84,1.128 -1.272,2.484 -0.42,1.356 -0.42,2.784 0,1.392 0.42,2.736 0.432,1.332 1.26,2.46 h -0.984 q -0.912,-1.056 -1.344,-2.388 -0.42,-1.344 -0.42,-2.796 z m 3.599991,0 q 0,-1.464 0.42,-2.82 0.432,-1.368 1.344,-2.46 h 0.996 q -0.84,1.128 -1.272,2.484 -0.42,1.356 -0.42,2.784 0,1.392 0.42,2.736 0.432,1.332 1.26,2.46 h -0.984 q -0.912,-1.056 -1.344,-2.388 -0.42,-1.344 -0.42,-2.796 z"
       id="text19"
       transform="rotate(5.6977226)"
       aria-label="(((" />
    <path
       d="m 54.301033,70.599169 q 0,-1.464 0.42,-2.82 0.432,-1.368 1.344,-2.46 h 0.996 q -0.84,1.128 -1.272,2.484 -0.42,1.356 -0.42,2.784 0,1.392 0.42,2.736 0.432,1.332 1.26,2.46 h -0.984 q -0.912,-1.056 -1.344,-2.388 -0.42,-1.344 -0.42,-2.796 z m 3.599991,0 q 0,-1.464 0.42,-2.82 0.432,-1.368 1.344,-2.46 h 0.996 q -0.84,1.128 -1.272,2.484 -0.42,1.356 -0.42,2.784 0,1.392 0.42,2.736 0.432,1.332 1.26,2.46 h -0.984 q -0.912,-1.056 -1.344,-2.388 -0.42,-1.344 -0.42,-2.796 z m 3.599991,0 q 0,-1.464 0.42,-2.82 0.432,-1.368 1.344,-2.46 h 0.996 q -0.84,1.128 -1.272,2.484 -0.42,1.356 -0.42,2.784 0,1.392 0.42,2.736 0.432,1.332 1.26,2.46 h -0.984 q -0.912,-1.056 -1.344,-2.388 -0.42,-1.344 -0.42,-2.796 z"
       id="text20"
       transform="rotate(2.7499147)"
       aria-label="(((" />
    <path
       d="m 50.779187,87.759409 q 0,-1.464 0.42,-2.82 0.432,-1.368 1.344,-2.46 h 0.996 q -0.84,1.128 -1.272,2.484 -0.42,1.356 -0.42,2.784 0,1.392 0.42,2.736 0.432,1.332 1.26,2.46 h -0.984 q -0.912,-1.056 -1.344,-2.388 -0.42,-1.344 -0.42,-2.796 z m 3.599991,0 q 0,-1.464 0.42,-2.82 0.432,-1.368 1.344,-2.46 h 0.996 q -0.84,1.128 -1.272,2.484 -0.42,1.356 -0.42,2.784 0,1.392 0.42,2.736 0.432,1.332 1.26,2.46 h -0.984 q -0.912,-1.056 -1.344,-2.388 -0.42,-1.344 -0.42,-2.796 z m 3.59999,0 q 0,-1.464 0.42,-2.82 0.432,-1.368 1.344,-2.46 h 0.996 q -0.84,1.128 -1.272,2.484 -0.42,1.356 -0.42,2.784 0,1.392 0.42,2.736 0.432,1.332 1.26,2.46 h -0.984 q -0.912,-1.056 -1.344,-2.388 -0.42,-1.344 -0.42,-2.796 z"
       id="text21"
       aria-label="(((" />
    <path
       d="m -105.15074,72.999178 q 0,-1.464 0.42,-2.82 0.432,-1.368 1.344,-2.46 h 0.996 q -0.84,1.128 -1.272,2.484 -0.42,1.356 -0.42,2.784 0,1.392 0.42,2.736 0.432,1.332 1.26,2.46 h -0.984 q -0.912,-1.056 -1.344,-2.388 -0.42,-1.344 -0.42,-2.796 z"
       id="text22"
       transform="rotate(-82.347623)"
       aria-label="(" />
    <path
       d="m 73.986768,48.508211 q 0,-0.895805 0.256993,-1.725525 0.264336,-0.837064 0.822378,-1.505246 h 0.609441 q -0.513986,0.69021 -0.778322,1.519931 -0.256993,0.829721 -0.256993,1.703497 0,0.851749 0.256993,1.674127 0.264336,0.815035 0.770979,1.505245 h -0.602098 q -0.558042,-0.646154 -0.822378,-1.461189 -0.256993,-0.822378 -0.256993,-1.71084 z"
       id="text23"
       style="font-size:7.34266px;stroke-width:0.917833"
       transform="matrix(0.91193824,0.12328406,-0.10385666,1.0825252,0,0)"
       aria-label="(" />
    <path
       d="m 62.70221,72.482042 q 0,-0.976 0.28,-1.88 0.288,-0.912 0.896,-1.64 h 0.664 q -0.56,0.752 -0.848,1.656 -0.28,0.904 -0.28,1.856 0,0.928 0.28,1.824 0.288,0.888 0.84,1.64 h -0.656 q -0.608,-0.704 -0.896,-1.592 -0.28,-0.896 -0.28,-1.864 z"
       id="text24"
       style="font-size:8px"
       transform="rotate(1.208022)"
       aria-label="(" />
    <path
       d="m 61.160649,88.244012 q 0,-0.976 0.28,-1.88 0.288,-0.912 0.896,-1.64 h 0.664 q -0.56,0.752 -0.848,1.656 -0.28,0.904 -0.28,1.856 0,0.928 0.28,1.824 0.288,0.888 0.84,1.64 h -0.656 q -0.608,-0.704 -0.896,-1.592 -0.28,-0.896 -0.28,-1.864 z"
       id="text25"
       style="font-size:8px"
       aria-label="(" />
    <path
       d="m -102.65654,72.099725 q 0,-0.976 0.28,-1.88 0.288,-0.912 0.896,-1.64 h 0.664 q -0.56,0.752 -0.848,1.656 -0.28,0.904 -0.28,1.856 0,0.928 0.28,1.824 0.288,0.888 0.84,1.64 h -0.656 q -0.608,-0.704 -0.896,-1.592 -0.28,-0.896 -0.28,-1.864 z"
       id="text26"
       style="font-size:8px"
       transform="rotate(-82.914976)"
       aria-label="(" />
    <path
       d="m 68.853188,57.918775 q 0,-0.650666 0.186666,-1.253332 0.192,-0.608 0.597333,-1.093333 h 0.442667 q -0.373334,0.501333 -0.565333,1.103999 -0.186667,0.602667 -0.186667,1.237333 0,0.618666 0.186667,1.215999 0.191999,0.592 0.559999,1.093333 h -0.437333 q -0.405333,-0.469333 -0.597333,-1.061333 -0.186666,-0.597333 -0.186666,-1.242666 z"
       id="text27"
       style="font-size:5.33333px"
       transform="rotate(3.5712061)"
       aria-label="(" />
    <path
       d="m 69.121384,69.231691 q 0,-0.650666 0.186666,-1.253332 0.192,-0.608 0.597333,-1.093333 h 0.442667 q -0.373333,0.501333 -0.565333,1.103999 -0.186667,0.602667 -0.186667,1.237333 0,0.618666 0.186667,1.215999 0.192,0.592 0.559999,1.093333 H 69.905383 Q 69.50005,71.066357 69.30805,70.474357 69.121384,69.877024 69.121384,69.231691 Z"
       id="text28"
       style="font-size:5.33333px"
       transform="rotate(3.9014357)"
       aria-label="(" />
    <path
       d="m 63.838211,88.149721 q 0,-0.650666 0.186667,-1.253333 0.192,-0.607999 0.597333,-1.093332 h 0.442666 q -0.373333,0.501333 -0.565333,1.103999 -0.186666,0.602666 -0.186666,1.237333 0,0.618666 0.186666,1.215999 0.192,0.592 0.56,1.093333 h -0.437333 q -0.405333,-0.469333 -0.597333,-1.061333 -0.186667,-0.597333 -0.186667,-1.242666 z"
       id="text29"
       style="font-size:5.33333px"
       aria-label="(" />
    <path
       d="m -97.015388,76.149904 q 0,-0.650666 0.186666,-1.253332 0.192,-0.608 0.597333,-1.093333 h 0.442667 q -0.373334,0.501333 -0.565333,1.103999 -0.186667,0.602666 -0.186667,1.237333 0,0.618666 0.186667,1.215999 0.191999,0.592 0.559999,1.093333 h -0.437333 q -0.405333,-0.469333 -0.597333,-1.061333 -0.186666,-0.597333 -0.186666,-1.242666 z"
       id="text30"
       style="font-size:5.33333px"
       transform="rotate(-80.415835)"
       aria-label="(" />
    <path
       d="m 63.229161,32.385545 q 0,-0.976 0.28,-1.88 0.288,-0.912 0.896,-1.64 h 0.664 q -0.56,0.752 -0.848,1.656 -0.28,0.904 -0.28,1.856 0,0.928 0.28,1.824 0.288,0.888 0.84,1.64 h -0.656 q -0.608,-0.704 -0.896,-1.592 -0.28,-0.896 -0.28,-1.864 z"
       id="text31"
       style="font-size:8px"
       transform="rotate(4.4614195)"
       aria-label="(" />
    <path
       d="m 58.802632,48.842279 q 0,-0.976 0.28,-1.88 0.288,-0.912 0.896,-1.64 h 0.664 q -0.56,0.752 -0.848,1.656 -0.28,0.904 -0.28,1.856 0,0.928 0.28,1.824 0.288,0.888 0.84,1.64 h -0.656 q -0.608,-0.704 -0.896,-1.592 -0.28,-0.896 -0.28,-1.864 z"
       id="text32"
       style="font-size:8px"
       transform="rotate(-1.4593223)"
       aria-label="(" />
    <path
       d="m 66.712479,31.481485 q 0,-0.650666 0.186666,-1.253332 0.192,-0.608 0.597333,-1.093333 h 0.442667 q -0.373333,0.501333 -0.565333,1.103999 -0.186667,0.602667 -0.186667,1.237333 0,0.618666 0.186667,1.215999 0.192,0.592 0.559999,1.093333 h -0.437333 q -0.405333,-0.469333 -0.597333,-1.061333 -0.186666,-0.597333 -0.186666,-1.242666 z"
       id="text33"
       style="font-size:5.33333px"
       transform="rotate(5.4414906)"
       aria-label="(" />
    <path
       d="m 63.712936,46.252882 q 0,-0.650666 0.186667,-1.253333 0.192,-0.607999 0.597333,-1.093332 h 0.442666 q -0.373333,0.501333 -0.565333,1.103999 -0.186666,0.602666 -0.186666,1.237333 0,0.618666 0.186666,1.215999 0.192,0.591999 0.56,1.093332 h -0.437333 q -0.405333,-0.469333 -0.597333,-1.061332 -0.186667,-0.597333 -0.186667,-1.242666 z"
       id="text34"
       style="font-size:5.33333px"
       transform="rotate(0.8582151)"
       aria-label="(" />
    <path
       d="m 56.021883,34.852909 q 0,-1.301337 0.373334,-2.506674 0.384002,-1.216004 1.194671,-2.186674 h 0.885336 q -0.746669,1.00267 -1.13067,2.208007 -0.373335,1.205337 -0.373335,2.474675 0,1.237337 0.373335,2.432007 0.384001,1.184004 1.120003,2.186674 h -0.874669 q -0.810669,-0.93867 -1.194671,-2.122674 -0.373334,-1.19467 -0.373334,-2.485341 z m 3.200002,0 q 0,-1.301337 0.373334,-2.506674 0.384002,-1.216004 1.194671,-2.186674 h 0.885336 q -0.746669,1.00267 -1.13067,2.208007 -0.373335,1.205337 -0.373335,2.474675 0,1.237337 0.373335,2.432007 0.384001,1.184004 1.120003,2.186674 H 60.78989 q -0.810669,-0.93867 -1.194671,-2.122674 -0.373334,-1.19467 -0.373334,-2.485341 z"
       id="text36"
       style="font-size:10.6667px"
       transform="rotate(2.2642965)"
       aria-label="((" />
    <path
       d="m 54.04355,47.296433 q 0,-1.301338 0.373335,-2.506675 0.384001,-1.216004 1.19467,-2.186673 h 0.885336 q -0.746669,1.002669 -1.13067,2.208006 -0.373334,1.205338 -0.373334,2.474675 0,1.237337 0.373334,2.432008 0.384001,1.184003 1.120004,2.186673 h -0.87467 Q 54.800886,50.965778 54.416885,49.781774 54.04355,48.587103 54.04355,47.296433 Z m 3.200002,0 q 0,-1.301338 0.373335,-2.506675 0.384001,-1.216004 1.19467,-2.186673 h 0.885336 q -0.746669,1.002669 -1.13067,2.208006 -0.373334,1.205338 -0.373334,2.474675 0,1.237337 0.373334,2.432008 0.384001,1.184003 1.120004,2.186673 h -0.87467 q -0.810669,-0.938669 -1.19467,-2.122673 -0.373335,-1.194671 -0.373335,-2.485341 z"
       id="text37"
       style="font-size:10.6667px"
       aria-label="((" />
    <path
       d="m 50.289108,36.452122 q 0,1.290671 -0.384001,2.485341 -0.373334,1.184004 -1.184004,2.122673 h -0.874669 q 0.736002,-1.002669 1.109337,-2.186673 0.384001,-1.194671 0.384001,-2.432008 0,-1.269337 -0.384001,-2.474674 -0.373335,-1.205337 -1.120004,-2.208007 h 0.885336 q 0.81067,0.970669 1.184004,2.186673 0.384001,1.205337 0.384001,2.506675 z"
       id="text39"
       style="font-size:10.6667px"
       aria-label=")" />
    <path
       d="m 49.851608,46.806286 q 0,1.290671 -0.384001,2.485341 -0.373334,1.184004 -1.184004,2.122674 h -0.874669 q 0.736002,-1.00267 1.109337,-2.186674 0.384001,-1.19467 0.384001,-2.432008 0,-1.269337 -0.384001,-2.474674 -0.373335,-1.205337 -1.120004,-2.208007 h 0.885336 q 0.81067,0.97067 1.184004,2.186673 0.384001,1.205338 0.384001,2.506675 z"
       id="text40"
       style="font-size:10.6667px"
       aria-label=")" />
    <path
       d="m 46.282619,59.845856 q 0,1.290671 -0.384001,2.485341 -0.373334,1.184004 -1.184004,2.122673 h -0.874669 q 0.736002,-1.002669 1.109337,-2.186673 0.384001,-1.194671 0.384001,-2.432008 0,-1.269337 -0.384001,-2.474674 -0.373335,-1.205337 -1.120004,-2.208007 h 0.885336 q 0.81067,0.970669 1.184004,2.186673 0.384001,1.205337 0.384001,2.506675 z"
       id="text41"
       style="font-size:10.6667px"
       aria-label=")" />
    <path
       d="m 45.987026,73.056282 q 0,1.290671 -0.384001,2.485341 -0.373335,1.184004 -1.184004,2.122674 h -0.874669 q 0.736002,-1.00267 1.109337,-2.186674 0.384001,-1.19467 0.384001,-2.432007 0,-1.269338 -0.384001,-2.474675 -0.373335,-1.205337 -1.120004,-2.208007 h 0.885336 q 0.810669,0.97067 1.184004,2.186674 0.384001,1.205337 0.384001,2.506674 z"
       id="text42"
       style="font-size:10.6667px"
       aria-label=")" />
    <path
       d="m 45.695362,87.202118 q 0,1.290671 -0.384001,2.485341 -0.373335,1.184004 -1.184004,2.122674 h -0.874669 q 0.736002,-1.00267 1.109337,-2.186674 0.384001,-1.19467 0.384001,-2.432008 0,-1.269337 -0.384001,-2.474674 Q 43.98869,83.51144 43.242021,82.50877 h 0.885336 q 0.810669,0.97067 1.184004,2.186674 0.384001,1.205337 0.384001,2.506674 z"
       id="text43"
       style="font-size:10.6667px"
       aria-label=")" />
    <path
       d="m 48.824292,34.435175 h 0.723542 v 9.921441 h -0.723542 z"
       id="text44"
       style="font-size:9.91153px;stroke-width:0.929203"
       transform="scale(1.0761911,0.929203)"
       aria-label="|" />
    <path
       d="m 51.669275,42.05977 h 0.77867 v 10.677367 h -0.77867 z"
       id="text45"
       style="font-size:10.6667px"
       aria-label="|" />
    <path
       d="m 45.876137,58.189077 h 0.734898 v 10.077167 h -0.734898 z"
       id="text46"
       style="font-size:10.0671px;stroke-width:0.943787"
       transform="scale(1.0595607,0.94378736)"
       aria-label="|" />
    <path
       d="m 46.153376,70.836805 h 0.746081 v 10.23052 h -0.746081 z"
       id="text47"
       style="font-size:10.2203px;stroke-width:0.95815"
       transform="scale(1.0436782,0.95814974)"
       aria-label="|" />
    <path
       d="m 45.531403,87.087847 h 0.740512 v 10.154144 h -0.740512 z"
       id="text48"
       style="font-size:10.144px;stroke-width:0.950996"
       transform="scale(1.0515295,0.95099566)"
       aria-label="|" />
    <path
       d="m 46.824934,36.599462 q 0,0.968 -0.288,1.864 -0.28,0.888 -0.888,1.592 h -0.656 q 0.552,-0.752 0.832,-1.64 0.288,-0.896 0.288,-1.824 0,-0.952 -0.288,-1.856 -0.28,-0.904 -0.84,-1.656 h 0.664 q 0.608,0.728 0.888,1.64 0.288,0.904 0.288,1.88 z"
       id="text49"
       style="font-size:8px"
       aria-label=")" />
    <path
       d="m 45.949938,47.099458 q 0,0.968 -0.288,1.864 -0.28,0.888 -0.888,1.592 h -0.656 q 0.552,-0.752 0.832,-1.64 0.288,-0.896 0.288,-1.824 0,-0.952 -0.288,-1.856 -0.28,-0.904 -0.84,-1.656 h 0.664 q 0.608,0.728 0.888,1.64 0.288,0.904 0.288,1.88 z"
       id="text50"
       style="font-size:8px"
       aria-label=")" />
    <path
       d="m 42.69763,59.666147 q 0,0.968 -0.288,1.864 -0.28,0.888 -0.888,1.592 h -0.656 q 0.552,-0.752 0.832,-1.64 0.288,-0.896 0.288,-1.824 0,-0.952 -0.288,-1.856 -0.28,-0.904 -0.84,-1.656 h 0.664 q 0.608,0.728 0.888,1.64 0.288,0.904 0.288,1.88 z"
       id="text51"
       style="font-size:8px"
       aria-label=")" />
    <path
       d="m 42.085352,73.276544 q 0,0.968 -0.288,1.864 -0.28,0.888 -0.888,1.592 h -0.656 q 0.552,-0.752 0.832,-1.64 0.288,-0.896 0.288,-1.824 0,-0.952 -0.288,-1.856 -0.28,-0.904 -0.84,-1.656 h 0.664 q 0.608,0.728 0.888,1.64 0.288,0.904 0.288,1.88 z"
       id="text52"
       style="font-size:8px"
       aria-label=")" />
    <path
       d="m 41.720766,87.057802 q 0,0.968 -0.288,1.864 -0.28,0.888 -0.888,1.592 h -0.656 q 0.552,-0.752 0.832,-1.64 0.288,-0.896 0.288,-1.824 0,-0.952 -0.288,-1.856 -0.28,-0.904 -0.84,-1.656 h 0.664 q 0.608,0.728 0.888,1.64 0.288,0.904 0.288,1.88 z"
       id="text53"
       style="font-size:8px"
       aria-label=")" />
    <path
       d="m 40.0066,59.861379 q 0,0.645333 -0.192,1.242666 -0.186667,0.592 -0.592,1.061333 h -0.437333 q 0.368,-0.501333 0.554667,-1.093333 0.192,-0.597333 0.192,-1.215999 0,-0.634666 -0.192,-1.237332 -0.186667,-0.602667 -0.56,-1.104 H 39.2226 q 0.405333,0.485333 0.592,1.093333 0.192,0.602666 0.192,1.253332 z"
       id="text57"
       style="font-size:5.33333px"
       aria-label=")" />
    <path
       d="m 39.277436,73.278047 q 0,0.645333 -0.192,1.242666 -0.186667,0.592 -0.592,1.061333 h -0.437333 q 0.368,-0.501333 0.554667,-1.093333 0.191999,-0.597333 0.191999,-1.215999 0,-0.634666 -0.191999,-1.237333 -0.186667,-0.602666 -0.56,-1.103999 h 0.442666 q 0.405333,0.485333 0.592,1.093333 0.192,0.602666 0.192,1.253332 z"
       id="text58"
       style="font-size:5.33333px"
       aria-label=")" />
    <path
       d="m 39.131596,87.059297 q 0,0.645333 -0.192,1.242666 -0.186666,0.592 -0.591999,1.061333 h -0.437333 q 0.367999,-0.501333 0.554666,-1.093333 0.192,-0.597333 0.192,-1.215999 0,-0.634666 -0.192,-1.237333 -0.186667,-0.602666 -0.56,-1.103999 h 0.442667 q 0.405333,0.485333 0.591999,1.093333 0.192,0.602666 0.192,1.253332 z"
       id="text59"
       style="font-size:5.33333px"
       aria-label=")" />
  </g>
</svg>
