<?xml version="1.0" encoding="UTF-8" standalone="no"?>
<svg
   height="182"
   width="160"
   version="1.1"
   id="svg4"
   sodipodi:docname="back-walking-1.svg"
   inkscape:version="1.4.3 (0d15f75042, 2025-12-25)"
   xmlns:inkscape="http://www.inkscape.org/namespaces/inkscape"
   xmlns:sodipodi="http://sodipodi.sourceforge.net/DTD/sodipodi-0.dtd"
   xmlns:xlink="http://www.w3.org/1999/xlink"
   xmlns="http://www.w3.org/2000/svg"
   xmlns:svg="http://www.w3.org/2000/svg">
  <sodipodi:namedview
     id="namedview4"
     pagecolor="#505050"
     bordercolor="#ffffff"
     borderopacity="1"
     inkscape:showpageshadow="0"
     inkscape:pageopacity="0"
     inkscape:pagecheckerboard="1"
     inkscape:deskcolor="#505050"
     inkscape:zoom="13.714286"
     inkscape:cx="87.135417"
     inkscape:cy="113.75"
     inkscape:window-width="1438"
     inkscape:window-height="877"
     inkscape:window-x="1360"
     inkscape:window-y="21"
     inkscape:window-maximized="1"
     inkscape:current-layer="layer1" />
  <defs
     id="defs3">
    <path
       d="M1.35 0h.2l.55.1.45.35q.45.45.45 1L2.55 2.6q-.45.4-1 .4l-.8-.2-.25-.2-.45-.7v-.15L0 1.45v-.1q.05-.5.5-.9l.25-.2Q1 .05 1.3 0h.05m.45.85L1.55.8Q1.2.75 1 1q-.2.15-.2.45v.15l.15.45H1l.05.05.2.1.3.05.55-.2.15-.6-.05-.3L2.1 1 2.05.95 1.9.85h-.1"
       fill-rule="evenodd"
       id="a" />
    <use
       height="3"
       transform="translate(.8)"
       width="3"
       xlink:href="#a"
       id="c" />
    <g
       id="b">
      <path
         d="M.35-60h3.9l1.2.55 3.85-8.6 3.9 8.6 1.25-.55 3.15 3.05 1.1 1.1-1.1-1.1 1.15 1.1h-.05l-.35.4.1.1q2.1 2.05 2.3 4.55l.05.6q0 1.65-.8 3.1l-.25.45-1.4 1.7.1.1-.3.3-3.25.9v4.7l-3.25.7-3.15.9.65 1.6L12.5-37q1.7-.6 3-.6 1.55 0 2.15.6.8.8.8 2 0 1.1-.75 1.85-1.05 1.05-4.1 1.25l-1.25.05.35 1.5 1.5-.05-.05 2.75-1.5 1.25v6.75H8.1v1.55h6.6q.7 0 1.15.4.55.55.55 1.65 0 1.05-.55 1.6-.45.45-1.15.45H8.1v.95H.5l-3.55 3.5V-3q0 .7-.45 1.15-.55.55-1.6.55-1.1 0-1.65-.55-.4-.45-.4-1.15v-6.55H-8.7l-1.7-1.1-1.75-3.9v-3.9l.45-.4q.75-.6 1.35-1.55l-1.25-1-.7.95.4-10.95 1.75-12.8.4.35.75-.7-1-1.1q-1.5-1.9-1.5-4.15l.05-1q.35-2.3 2.45-4.25l-.75-.75.5-3.95.65.3 3.85-8.6 3.85 8.6L.35-60m12.9 16.4.75-1.55v-1.35h-1.5v1.45h.55l-.55 1.45h.75m-2.95 0 .8-1.55v-1.35H9.55v1.45h.55l-.55 1.45h.75"
         fill="#fff"
         fill-rule="evenodd"
         transform="translate(21.55 71)"
         id="path1" />
      <path
         d="m.35-60-1.25.55-3.85-8.6-3.85 8.6-.65-.3-.55-.25 5.05-11 5.1 11m-10.1 4.2.75.75q-2.1 1.95-2.45 4.25l-.05 1q0 2.25 1.5 4.15l1 1.1-.75.7-.4-.35-.6-.7q-1.8-2.2-1.8-4.9l.05-1q.35-2.8 2.75-5m-2.55 35.35.7-.95 1.25 1q-.6.95-1.35 1.55l-.45.4q-.7.45-1.6.45-.95 0-2.65-1.1l-1.9-.65q-.9 0-1.3.55l-.6.95-1.35-.75 1.2-1.65q.8-.8 1.95-.8 1.1 0 2.25.8 1.65.85 2.55.85.65 0 1.3-.65m3.6 10.9h1.55V-3q0 .7.4 1.15.55.55 1.65.55 1.05 0 1.6-.55.45-.45.45-1.15v-6.55h1.5v6.6q0 1.25-.8 2.05-.9.9-2.75.9Q-7 0-7.9-.9q-.8-.8-.8-2.05v-6.6m16.8-3.5V-14h6.6q.7 0 1.15-.45.55-.55.55-1.6 0-1.1-.55-1.65-.45-.4-1.15-.4H8.1v-1.55h6.65q1.25 0 2.05.8.9.9.9 2.8 0 1.85-.9 2.75l-.3.25q-.75.55-1.75.55H8.1v-.55m6.1-17.35-1.5.05-.35-1.5 1.25-.05q3.05-.2 4.1-1.25.75-.75.75-1.85 0-1.2-.8-2-.6-.6-2.15-.6-1.3 0-3 .6l-3.35 1.25-.65-1.6 3.15-.9 3.25-.7.75-.05q2.2 0 3.25 1.05Q20-36.9 20-35.1q0 1.85-1 2.85l-.4.35q-1.6 1.2-4.4 1.5m4.25-14.45-.1-.1 1.4-1.7.25-.45q.8-1.45.8-3.1l-.05-.6q-.2-2.5-2.3-4.55l-.1-.1.35-.4h.05l.3-.35q2.55 2.35 2.75 5.4l.05.6q0 1.9-.9 3.55-.7 1.25-1.9 2.4l-.6-.6m-4-15.15-1.25.55-3.9-8.6-3.85 8.6-1.2-.55L9.3-71l5.15 11M10.3-43.6h-.75l.55-1.45h-.55v-1.45h1.55v1.35l-.8 1.55m2.95 0h-.75l.55-1.45h-.55v-1.45H14v1.35l-.75 1.55"
         fill-rule="evenodd"
         transform="translate(21.55 71)"
         id="path2" />
      <path
         d="M4.25-60H.35m12.3 40.35v-6.75m6.05-29.45-1.1-1.1"
         fill="none"
         stroke="#000"
         stroke-linecap="round"
         stroke-linejoin="round"
         transform="translate(21.55 71)"
         id="path3" />
    </g>
    <filter
       style="color-interpolation-filters:sRGB;"
       inkscape:label="Colorize"
       id="filter5"
       x="0"
       y="0"
       width="1"
       height="1">
      <feComposite
         in2="SourceGraphic"
         operator="arithmetic"
         k1="7.89601"
         k2="0"
         result="composite1"
         id="feComposite4" />
      <feColorMatrix
         in="composite1"
         values="1"
         type="saturate"
         result="colormatrix1"
         id="feColorMatrix4" />
      <feFlood
         flood-opacity="1"
         flood-color="rgb(223,74,0)"
         result="flood1"
         id="feFlood4" />
      <feBlend
         in="flood1"
         in2="colormatrix1"
         mode="multiply"
         result="blend1"
         id="feBlend4" />
      <feBlend
         in2="blend1"
         mode="screen"
         result="blend2"
         id="feBlend5" />
      <feColorMatrix
         in="blend2"
         values="1"
         type="saturate"
         result="colormatrix2"
         id="feColorMatrix5" />
      <feComposite
         in="colormatrix2"
         in2="SourceGraphic"
         operator="in"
         k2="1"
         result="composite2"
         id="feComposite5" />
    </filter>
  </defs>
  <g
     transform="matrix(2 0 0 2 79.441 142)"
     id="g4"
     style="filter:url(#filter5)">
    <use
       height="71"
       transform="translate(-21.55 -71)"
       width="43.4"
       xlink:href="#b"
       id="use3" />
    <use
       height="3"
       transform="translate(13.3 -56.7)"
       width="4.65"
       xlink:href="#c"
       id="use4" />
  </g>
  <g
     inkscape:groupmode="layer"
     id="layer1"
     inkscape:label="stripes back"
     transform="translate(26.567066,2.3372525e-4)">
    <text
       xml:space="preserve"
       style="writing-mode:lr-tb;direction:ltr;fill:#000000"
       x="56.865025"
       y="58.052856"
       id="text19"
       transform="rotate(5.6977226)"><tspan
         sodipodi:role="line"
         id="tspan19"
         x="56.865025"
         y="58.052856">(((</tspan></text>
    <text
       xml:space="preserve"
       style="writing-mode:lr-tb;direction:ltr;fill:#000000"
       x="53.821033"
       y="73.887169"
       id="text20"
       transform="rotate(2.7499147)"><tspan
         sodipodi:role="line"
         id="tspan20"
         x="53.821033"
         y="73.887169">(((</tspan></text>
    <text
       xml:space="preserve"
       style="writing-mode:lr-tb;direction:ltr;fill:#000000"
       x="50.299187"
       y="91.047409"
       id="text21"><tspan
         sodipodi:role="line"
         id="tspan21"
         x="50.299187"
         y="91.047409">(((</tspan></text>
    <text
       xml:space="preserve"
       style="writing-mode:lr-tb;direction:ltr;fill:#000000"
       x="-96.108818"
       y="90.585976"
       id="text22"
       transform="rotate(-75.113846)"><tspan
         sodipodi:role="line"
         id="tspan22"
         x="-96.108818"
         y="90.585976">(</tspan></text>
    <text
       xml:space="preserve"
       style="font-size:7.34266px;writing-mode:lr-tb;direction:ltr;fill:#000000;stroke-width:0.917833"
       x="73.693062"
       y="50.5201"
       id="text23"
       transform="matrix(0.91193824,0.12328406,-0.10385666,1.0825252,0,0)"><tspan
         sodipodi:role="line"
         id="tspan23"
         x="73.693062"
         y="50.5201"
         style="stroke-width:0.917833">(</tspan></text>
    <text
       xml:space="preserve"
       style="font-size:8px;writing-mode:lr-tb;direction:ltr;fill:#000000"
       x="62.38221"
       y="74.674042"
       id="text24"
       transform="rotate(1.208022)"><tspan
         sodipodi:role="line"
         id="tspan24"
         x="62.38221"
         y="74.674042">(</tspan></text>
    <text
       xml:space="preserve"
       style="font-size:8px;writing-mode:lr-tb;direction:ltr;fill:#000000"
       x="60.840649"
       y="90.436012"
       id="text25"><tspan
         sodipodi:role="line"
         id="tspan25"
         x="60.840649"
         y="90.436012">(</tspan></text>
    <text
       xml:space="preserve"
       style="font-size:8px;writing-mode:lr-tb;direction:ltr;fill:#000000"
       x="-93.596672"
       y="88.684113"
       id="text26"
       transform="rotate(-75.681199)"><tspan
         sodipodi:role="line"
         id="tspan26"
         x="-93.596672"
         y="88.684113">(</tspan></text>
    <text
       xml:space="preserve"
       style="font-size:5.33333px;writing-mode:lr-tb;direction:ltr;fill:#000000"
       x="68.639854"
       y="59.380108"
       id="text27"
       transform="rotate(3.5712061)"><tspan
         sodipodi:role="line"
         id="tspan27"
         x="68.639854"
         y="59.380108">(</tspan></text>
    <text
       xml:space="preserve"
       style="font-size:5.33333px;writing-mode:lr-tb;direction:ltr;fill:#000000"
       x="68.908051"
       y="70.693024"
       id="text28"
       transform="rotate(3.9014357)"><tspan
         sodipodi:role="line"
         id="tspan28"
         x="68.908051"
         y="70.693024">(</tspan></text>
    <text
       xml:space="preserve"
       style="font-size:5.33333px;writing-mode:lr-tb;direction:ltr;fill:#000000"
       x="63.624878"
       y="89.611053"
       id="text29"><tspan
         sodipodi:role="line"
         id="tspan29"
         x="63.624878"
         y="89.611053">(</tspan></text>
    <text
       xml:space="preserve"
       style="font-size:5.33333px;writing-mode:lr-tb;direction:ltr;fill:#000000"
       x="-87.230209"
       y="91.580933"
       id="text30"
       transform="rotate(-73.182058)"><tspan
         sodipodi:role="line"
         id="tspan30"
         x="-87.230209"
         y="91.580933">(</tspan></text>
    <text
       xml:space="preserve"
       style="font-size:8px;writing-mode:lr-tb;direction:ltr;fill:#000000"
       x="62.909161"
       y="34.577545"
       id="text31"
       transform="rotate(4.4614195)"><tspan
         sodipodi:role="line"
         id="tspan31"
         x="62.909161"
         y="34.577545">(</tspan></text>
    <text
       xml:space="preserve"
       style="font-size:8px;writing-mode:lr-tb;direction:ltr;fill:#000000"
       x="58.482632"
       y="51.034279"
       id="text32"
       transform="rotate(-1.4593223)"><tspan
         sodipodi:role="line"
         id="tspan32"
         x="58.482632"
         y="51.034279">(</tspan></text>
    <text
       xml:space="preserve"
       style="font-size:5.33333px;writing-mode:lr-tb;direction:ltr;fill:#000000"
       x="66.499146"
       y="32.942818"
       id="text33"
       transform="rotate(5.4414906)"><tspan
         sodipodi:role="line"
         id="tspan33"
         x="66.499146"
         y="32.942818">(</tspan></text>
    <text
       xml:space="preserve"
       style="font-size:5.33333px;writing-mode:lr-tb;direction:ltr;fill:#000000"
       x="63.499603"
       y="47.714214"
       id="text34"
       transform="rotate(0.8582151)"><tspan
         sodipodi:role="line"
         id="tspan34"
         x="63.499603"
         y="47.714214">(</tspan></text>
    <text
       xml:space="preserve"
       style="font-size:10.6667px;writing-mode:lr-tb;direction:ltr;fill:#000000"
       x="55.595215"
       y="37.775585"
       id="text36"
       transform="rotate(2.2642965)"><tspan
         sodipodi:role="line"
         id="tspan36"
         x="55.595215"
         y="37.775585">((</tspan></text>
    <text
       xml:space="preserve"
       style="font-size:10.6667px;writing-mode:lr-tb;direction:ltr;fill:#000000"
       x="53.616882"
       y="50.219109"
       id="text37"><tspan
         sodipodi:role="line"
         id="tspan37"
         x="53.616882"
         y="50.219109">((</tspan></text>
    <text
       xml:space="preserve"
       style="font-size:10.6667px;writing-mode:lr-tb;direction:ltr;fill:#000000"
       x="48.244934"
       y="34.416462"
       id="text38"><tspan
         sodipodi:role="line"
         id="tspan38"
         x="48.244934"
         y="34.416462" /></text>
    <text
       xml:space="preserve"
       style="font-size:10.6667px;writing-mode:lr-tb;direction:ltr;fill:#000000"
       x="47.515766"
       y="39.374798"
       id="text39"><tspan
         sodipodi:role="line"
         id="tspan39"
         x="47.515766"
         y="39.374798">)</tspan></text>
    <text
       xml:space="preserve"
       style="font-size:10.6667px;writing-mode:lr-tb;direction:ltr;fill:#000000"
       x="47.078266"
       y="49.728962"
       id="text40"><tspan
         sodipodi:role="line"
         id="tspan40"
         x="47.078266"
         y="49.728962">)</tspan></text>
    <text
       xml:space="preserve"
       style="font-size:10.6667px;writing-mode:lr-tb;direction:ltr;fill:#000000"
       x="43.509277"
       y="62.768532"
       id="text41"><tspan
         sodipodi:role="line"
         id="tspan41"
         x="43.509277"
         y="62.768532">)</tspan></text>
    <text
       xml:space="preserve"
       style="font-size:10.6667px;writing-mode:lr-tb;direction:ltr;fill:#000000"
       x="43.213684"
       y="75.978958"
       id="text42"><tspan
         sodipodi:role="line"
         id="tspan42"
         x="43.213684"
         y="75.978958">)</tspan></text>
    <text
       xml:space="preserve"
       style="font-size:10.6667px;writing-mode:lr-tb;direction:ltr;fill:#000000"
       x="42.92202"
       y="90.124794"
       id="text43"><tspan
         sodipodi:role="line"
         id="tspan43"
         x="42.92202"
         y="90.124794">)</tspan></text>
    <text
       xml:space="preserve"
       style="font-size:9.91153px;writing-mode:lr-tb;direction:ltr;fill:#000000;stroke-width:0.929203"
       x="46.455437"
       y="41.967937"
       id="text44"
       transform="scale(1.0761911,0.929203)"><tspan
         sodipodi:role="line"
         id="tspan44"
         x="46.455437"
         y="41.967937"
         style="stroke-width:0.929203">|</tspan></text>
    <text
       xml:space="preserve"
       style="font-size:10.6667px;writing-mode:lr-tb;direction:ltr;fill:#000000"
       x="49.119934"
       y="50.166462"
       id="text45"><tspan
         sodipodi:role="line"
         id="tspan45"
         x="49.119934"
         y="50.166462">|</tspan></text>
    <text
       xml:space="preserve"
       style="font-size:10.0671px;writing-mode:lr-tb;direction:ltr;fill:#000000;stroke-width:0.943787"
       x="43.4701"
       y="65.840073"
       id="text46"
       transform="scale(1.0595607,0.94378736)"><tspan
         sodipodi:role="line"
         id="tspan46"
         x="43.4701"
         y="65.840073"
         style="stroke-width:0.943787">|</tspan></text>
    <text
       xml:space="preserve"
       style="font-size:10.2203px;writing-mode:lr-tb;direction:ltr;fill:#000000;stroke-width:0.95815"
       x="43.710724"
       y="78.604233"
       id="text47"
       transform="scale(1.0436782,0.95814974)"><tspan
         sodipodi:role="line"
         id="tspan47"
         x="43.710724"
         y="78.604233"
         style="stroke-width:0.95815">|</tspan></text>
    <text
       xml:space="preserve"
       style="font-size:10.144px;writing-mode:lr-tb;direction:ltr;fill:#000000;stroke-width:0.950996"
       x="43.106987"
       y="94.797287"
       id="text48"
       transform="scale(1.0515295,0.95099566)"><tspan
         sodipodi:role="line"
         id="tspan48"
         x="43.106987"
         y="94.797287"
         style="stroke-width:0.950996">|</tspan></text>
    <text
       xml:space="preserve"
       style="font-size:8px;writing-mode:lr-tb;direction:ltr;fill:#000000"
       x="44.744934"
       y="38.791462"
       id="text49"><tspan
         sodipodi:role="line"
         id="tspan49"
         x="44.744934"
         y="38.791462">)</tspan></text>
    <text
       xml:space="preserve"
       style="font-size:8px;writing-mode:lr-tb;direction:ltr;fill:#000000"
       x="43.869938"
       y="49.291458"
       id="text50"><tspan
         sodipodi:role="line"
         id="tspan50"
         x="43.869938"
         y="49.291458">)</tspan></text>
    <text
       xml:space="preserve"
       style="font-size:8px;writing-mode:lr-tb;direction:ltr;fill:#000000"
       x="40.61763"
       y="61.858147"
       id="text51"><tspan
         sodipodi:role="line"
         id="tspan51"
         x="40.61763"
         y="61.858147">)</tspan></text>
    <text
       xml:space="preserve"
       style="font-size:8px;writing-mode:lr-tb;direction:ltr;fill:#000000"
       x="40.005352"
       y="75.468544"
       id="text52"><tspan
         sodipodi:role="line"
         id="tspan52"
         x="40.005352"
         y="75.468544">)</tspan></text>
    <text
       xml:space="preserve"
       style="font-size:8px;writing-mode:lr-tb;direction:ltr;fill:#000000"
       x="39.640766"
       y="89.249802"
       id="text53"><tspan
         sodipodi:role="line"
         id="tspan53"
         x="39.640766"
         y="89.249802">)</tspan></text>
    <text
       xml:space="preserve"
       style="writing-mode:lr-tb;direction:ltr;fill:#000000"
       x="-98.936028"
       y="81.227478"
       id="text54"
       transform="matrix(-0.88759555,-0.46062364,-0.46062364,0.88759555,0,0)"><tspan
         sodipodi:role="line"
         id="tspan54"
         x="-98.936028"
         y="81.227478">(</tspan></text>
    <text
       xml:space="preserve"
       style="font-size:8px;writing-mode:lr-tb;direction:ltr;fill:#000000"
       x="-96.331085"
       y="79.298073"
       id="text55"
       transform="matrix(-0.88299093,-0.46939004,-0.46939004,0.88299093,0,0)"><tspan
         sodipodi:role="line"
         id="tspan55"
         x="-96.331085"
         y="79.298073">(</tspan></text>
    <text
       xml:space="preserve"
       style="font-size:5.33333px;writing-mode:lr-tb;direction:ltr;fill:#000000"
       x="-90.371292"
       y="82.323059"
       id="text56"
       transform="matrix(-0.90261858,-0.43044129,-0.43044129,0.90261858,0,0)"><tspan
         sodipodi:role="line"
         id="tspan56"
         x="-90.371292"
         y="82.323059">(</tspan></text>
    <text
       xml:space="preserve"
       style="font-size:5.33333px;writing-mode:lr-tb;direction:ltr;fill:#000000"
       x="38.619934"
       y="61.322712"
       id="text57"><tspan
         sodipodi:role="line"
         id="tspan57"
         x="38.619934"
         y="61.322712">)</tspan></text>
    <text
       xml:space="preserve"
       style="font-size:5.33333px;writing-mode:lr-tb;direction:ltr;fill:#000000"
       x="37.89077"
       y="74.73938"
       id="text58"><tspan
         sodipodi:role="line"
         id="tspan58"
         x="37.89077"
         y="74.73938">)</tspan></text>
    <text
       xml:space="preserve"
       style="font-size:5.33333px;writing-mode:lr-tb;direction:ltr;fill:#000000"
       x="37.74493"
       y="88.52063"
       id="text59"><tspan
         sodipodi:role="line"
         id="tspan59"
         x="37.74493"
         y="88.52063">)</tspan></text>
  </g>
</svg>
