<?xml version="1.0" encoding="UTF-8" standalone="no"?>
<svg
   height="182"
   width="160"
   version="1.1"
   id="svg6"
   sodipodi:docname="front-sitting.svg"
   inkscape:version="1.4.3 (0d15f75042, 2025-12-25)"
   xmlns:inkscape="http://www.inkscape.org/namespaces/inkscape"
   xmlns:sodipodi="http://sodipodi.sourceforge.net/DTD/sodipodi-0.dtd"
   xmlns:xlink="http://www.w3.org/1999/xlink"
   xmlns="http://www.w3.org/2000/svg"
   xmlns:svg="http://www.w3.org/2000/svg">
  <sodipodi:namedview
     id="namedview6"
     pagecolor="#505050"
     bordercolor="#ffffff"
     borderopacity="1"
     inkscape:showpageshadow="0"
     inkscape:pageopacity="0"
     inkscape:pagecheckerboard="1"
     inkscape:deskcolor="#505050"
     inkscape:zoom="3.4285714"
     inkscape:cx="24.208333"
     inkscape:cy="68.25"
     inkscape:window-width="1438"
     inkscape:window-height="877"
     inkscape:window-x="1360"
     inkscape:window-y="21"
     inkscape:window-maximized="1"
     inkscape:current-layer="layer1" />
  <defs
     id="defs4">
    <g
       id="c">
      <path
         d="m4.25-60 1.2.55 3.85-8.6 3.9 8.6 1.25-.55 3.15 3.05 1.1 1.1-1.1-1.1 1.15 1.1h-.05l-.35.4.1.1q2.1 2.05 2.3 4.55l.05.6q0 1.65-.8 3.1l-.25.45-1.4 1.7.1.1-.3.3-3.25.9v4.7l-1.25.2-2 .5-3.15.9.65 1.6L12.5-37q1.7-.6 3-.6 1.55 0 2.15.6.8.8.8 2 0 1.1-.75 1.85-1.05 1.05-4.1 1.25l-1.25.05.35 1.5 1.5-.05-.05 2.75-1.5 1.25v5.75H8.1v1.55h6.6q.7 0 1.15.4.55.55.55 1.65 0 1.05-.55 1.6-.45.45-1.15.45H8.1v1.5H2.3q1.2 0 1.95-.8.9-.9.9-2.75 0-1.9-.9-2.8-.8-.8-2.05-.8h-6.6v1.55h6.55q.7 0 1.15.4.55.55.55 1.65 0 1.05-.55 1.6-.45.45-1.15.45H-4.4v1.5h-4.5l-3.25-3.25v-1.7l.45-.4q.75-.6 1.35-1.55l-1.25-1-.7.95.4-10.95 1.75-12.8.4.35.75-.7-1-1.1q-1.5-1.9-1.5-4.15l.05-1q.35-2.3 2.45-4.25l-.75-.75.5-3.95.65.3 3.85-8.6 3.85 8.6L.35-60h3.9m2 9.2v-3.65h3.5v8.15H4.8Q6-48 6.25-50.8M4.9-51.9l-.05 1.1q-.2 2.7-1.5 4.5H2.4v3.25h1.35V-45H11v1.95h1.35v-3.25h-1.2v-9.45H4.9v3.85m.55 13.95-1.35-.8L2.2-39l-2 .25-2 .5-3.1.9.65 1.6L-.95-37l3-.6q1.55 0 2.15.6.8.8.8 2 0 1.1-.75 1.85Q3.2-32.1.2-31.9l-1.3.05.35 1.5q3.95-.05 5.9-1.55l.4-.35q1-1 1-2.85 0-1.8-1.1-2.85M-7.2-43.6l.75-1.55v-1.35h-1.5v1.45h.55l-.55 1.45h.75m2.15 0h.75l.75-1.55v-1.35h-1.5v1.45h.55l-.55 1.45"
         fill="#fff"
         fill-rule="evenodd"
         transform="translate(21.55 71)"
         id="path1" />
      <path
         d="m14.45-60-1.25.55-3.9-8.6-3.85 8.6-1.2-.55L9.3-71l5.15 11M.35-60l-1.25.55-3.85-8.6-3.85 8.6-.65-.3-.55-.25 5.05-11 5.1 11m-10.1 4.2.75.75q-2.1 1.95-2.45 4.25l-.05 1q0 2.25 1.5 4.15l1 1.1-.75.7-.4-.35-.6-.7q-1.8-2.2-1.8-4.9l.05-1q.35-2.8 2.75-5m-2.55 35.35.7-.95 1.25 1q-.6.95-1.35 1.55l-.45.4q-.55.35-1.25.45h-.35q-.95 0-2.65-1.1l-1.9-.65q-.9 0-1.3.55l-.6.95-1.35-.75 1.2-1.65q.8-.8 1.95-.8 1.1 0 2.25.8 1.65.85 2.55.85.65 0 1.3-.65m7.9 6.95V-15h6.55q.7 0 1.15-.45.55-.55.55-1.6 0-1.1-.55-1.65-.45-.4-1.15-.4H-4.4v-1.55h6.6q1.25 0 2.05.8.9.9.9 2.8 0 1.85-.9 2.75-.75.8-1.95.8h-6.7m12.5 0V-15h6.6q.7 0 1.15-.45.55-.55.55-1.6 0-1.1-.55-1.65-.45-.4-1.15-.4H8.1v-1.55h6.65q1.25 0 2.05.8.9.9.9 2.8 0 1.85-.9 2.75-.8.8-2.05.8H8.1m6.1-16.9-1.5.05-.35-1.5 1.25-.05q3.05-.2 4.1-1.25.75-.75.75-1.85 0-1.2-.8-2-.6-.6-2.15-.6-1.3 0-3 .6l-3.35 1.25-.65-1.6 3.15-.9 2-.5 1.25-.2.75-.05 1.85.25q.85.25 1.4.8Q20-36.9 20-35.1q0 1.85-1 2.85l-.4.35q-1.6 1.2-4.4 1.5m4.25-14.45-.1-.1 1.4-1.7.25-.45q.8-1.45.8-3.1l-.05-.6q-.2-2.5-2.3-4.55l-.1-.1.35-.4h.05l.3-.35q2.55 2.35 2.75 5.4l.05.6q0 1.9-.9 3.55-.7 1.25-1.9 2.4l-.6-.6M4.9-51.9v-3.85h6.25v9.45h1.2v3.25H11V-45H3.75v1.95H2.4v-3.25h.95q1.3-1.8 1.5-4.5l.05-1.1m1.35 1.1Q6-48 4.8-46.3h4.95v-8.15h-3.5v3.65m-.8 12.85q1.1 1.05 1.1 2.85 0 1.85-1 2.85l-.4.35q-1.95 1.5-5.9 1.55l-.35-1.5 1.3-.05q3-.2 4.05-1.25Q5-33.9 5-35q0-1.2-.8-2-.6-.6-2.15-.6l-3 .6-3.3 1.25-.65-1.6 3.1-.9 2-.5 2-.25 1.9.25 1.35.8m-10.5-5.65.55-1.45h-.55v-1.45h1.5v1.35l-.75 1.55h-.75m-2.15 0h-.75l.55-1.45h-.55v-1.45h1.5v1.35l-.75 1.55"
         fill-rule="evenodd"
         transform="translate(21.55 71)"
         id="path2" />
      <path
         d="M12.65-20.65v-5.75m6.05-29.45-1.1-1.1M4.25-60H.35"
         fill="none"
         stroke="#000"
         stroke-linecap="round"
         stroke-linejoin="round"
         transform="translate(21.55 71)"
         id="path3" />
    </g>
    <g
       id="d"
       transform="translate(.8)">
      <use
         height="3"
         transform="matrix(1.005 0 0 1 -.804 0)"
         width="4.65"
         xlink:href="#a"
         id="use3" />
      <use
         height="3"
         transform="matrix(1.005 0 0 1 16.096 0)"
         width="4.65"
         xlink:href="#a"
         id="use4" />
    </g>
    <path
       d="M1.35 0h.2l.55.1.45.35q.45.45.45 1L2.55 2.6q-.45.4-1 .4l-.8-.2-.25-.2-.45-.7v-.15L0 1.45v-.1q.05-.5.5-.9l.25-.2Q1 .05 1.3 0h.05m.45.85L1.55.8Q1.2.75 1 1q-.2.15-.2.45v.15l.15.45H1l.05.05.2.1.3.05.55-.2.15-.6-.05-.3L2.1 1 2.05.95 1.9.85h-.1"
       fill-rule="evenodd"
       id="b" />
    <use
       height="3"
       transform="translate(.8)"
       width="3"
       xlink:href="#b"
       id="a" />
    <filter
       style="color-interpolation-filters:sRGB;"
       inkscape:label="Colorize"
       id="filter7"
       x="0"
       y="0"
       width="1"
       height="1">
      <feComposite
         in2="SourceGraphic"
         operator="arithmetic"
         k1="7.89601"
         k2="0"
         result="composite1"
         id="feComposite6" />
      <feColorMatrix
         in="composite1"
         values="1"
         type="saturate"
         result="colormatrix1"
         id="feColorMatrix6" />
      <feFlood
         flood-opacity="1"
         flood-color="rgb(223,74,0)"
         result="flood1"
         id="feFlood6" />
      <feBlend
         in="flood1"
         in2="colormatrix1"
         mode="multiply"
         result="blend1"
         id="feBlend6" />
      <feBlend
         in2="blend1"
         mode="screen"
         result="blend2"
         id="feBlend7" />
      <feColorMatrix
         in="blend2"
         values="1"
         type="saturate"
         result="colormatrix2"
         id="feColorMatrix7" />
      <feComposite
         in="colormatrix2"
         in2="SourceGraphic"
         operator="in"
         k2="1"
         result="composite2"
         id="feComposite7" />
    </filter>
  </defs>
  <g
     transform="matrix(2 0 0 2 79.441 142)"
     id="g6"
     style="filter:url(#filter7)">
    <use
       height="57.5"
       transform="translate(-21.55 -71)"
       width="43.4"
       xlink:href="#c"
       id="use5" />
    <use
       height="3"
       transform="translate(-3.65 -57.5)"
       width="21.55"
       xlink:href="#d"
       id="use6" />
  </g>
  <g
     inkscape:groupmode="layer"
     id="layer1"
     inkscape:label="stripes front"
     transform="translate(-4.3443117e-4,2.0777091e-4)">
    <text
       xml:space="preserve"
       style="writing-mode:lr-tb;direction:ltr;fill:#000000"
       x="67.090828"
       y="54.870995"
       id="text19"
       transform="rotate(8.4887496)"><tspan
         sodipodi:role="line"
         id="tspan19"
         x="67.090828"
         y="54.870995">(</tspan></text>
    <text
       xml:space="preserve"
       style="writing-mode:lr-tb;direction:ltr;fill:#000000"
       x="60.708912"
       y="74.316566"
       id="text20"
       transform="rotate(2.7499147)"><tspan
         sodipodi:role="line"
         id="tspan20"
         x="60.708912"
         y="74.316566">(</tspan></text>
    <text
       xml:space="preserve"
       style="writing-mode:lr-tb;direction:ltr;fill:#000000"
       x="56.715855"
       y="91.776573"
       id="text21"><tspan
         sodipodi:role="line"
         id="tspan21"
         x="56.715855"
         y="91.776573">(</tspan></text>
    <text
       xml:space="preserve"
       style="writing-mode:lr-tb;direction:ltr;fill:#000000"
       x="-11.615278"
       y="127.90745"
       id="text22"
       transform="rotate(-33.531539)"><tspan
         sodipodi:role="line"
         id="tspan22"
         x="-11.615278"
         y="127.90745">(</tspan></text>
    <text
       xml:space="preserve"
       style="font-size:8px;writing-mode:lr-tb;direction:ltr;fill:#000000"
       x="69.327454"
       y="55.979942"
       id="text23"
       transform="rotate(6.4971731)"><tspan
         sodipodi:role="line"
         id="tspan23"
         x="69.327454"
         y="55.979942">(</tspan></text>
    <text
       xml:space="preserve"
       style="font-size:8px;writing-mode:lr-tb;direction:ltr;fill:#000000"
       x="62.899868"
       y="74.766266"
       id="text24"
       transform="rotate(1.208022)"><tspan
         sodipodi:role="line"
         id="tspan24"
         x="62.899868"
         y="74.766266">(</tspan></text>
    <text
       xml:space="preserve"
       style="font-size:8px;writing-mode:lr-tb;direction:ltr;fill:#000000"
       x="60.840649"
       y="90.436012"
       id="text25"><tspan
         sodipodi:role="line"
         id="tspan25"
         x="60.840649"
         y="90.436012">(</tspan></text>
    <text
       xml:space="preserve"
       style="font-size:8px;writing-mode:lr-tb;direction:ltr;fill:#000000"
       x="-9.4768305"
       y="126.84039"
       id="text26"
       transform="rotate(-34.098892)"><tspan
         sodipodi:role="line"
         id="tspan26"
         x="-9.4768305"
         y="126.84039">(</tspan></text>
    <text
       xml:space="preserve"
       style="font-size:5.33333px;writing-mode:lr-tb;direction:ltr;fill:#000000"
       x="69.443939"
       y="59.019962"
       id="text27"
       transform="rotate(3.5712061)"><tspan
         sodipodi:role="line"
         id="tspan27"
         x="69.443939"
         y="59.019962">(</tspan></text>
    <text
       xml:space="preserve"
       style="font-size:5.33333px;writing-mode:lr-tb;direction:ltr;fill:#000000"
       x="68.908051"
       y="70.693024"
       id="text28"
       transform="rotate(3.9014357)"><tspan
         sodipodi:role="line"
         id="tspan28"
         x="68.908051"
         y="70.693024">(</tspan></text>
    <text
       xml:space="preserve"
       style="font-size:5.33333px;writing-mode:lr-tb;direction:ltr;fill:#000000"
       x="63.624878"
       y="89.611053"
       id="text29"><tspan
         sodipodi:role="line"
         id="tspan29"
         x="63.624878"
         y="89.611053">(</tspan></text>
    <text
       xml:space="preserve"
       style="font-size:5.33333px;writing-mode:lr-tb;direction:ltr;fill:#000000"
       x="-1.5265927"
       y="126.03294"
       id="text30"
       transform="rotate(-31.599751)"><tspan
         sodipodi:role="line"
         id="tspan30"
         x="-1.5265927"
         y="126.03294">(</tspan></text>
    <text
       xml:space="preserve"
       style="font-size:8px;writing-mode:lr-tb;direction:ltr;fill:#000000"
       x="68.24633"
       y="20.486439"
       id="text31"
       transform="rotate(16.499965)"><tspan
         sodipodi:role="line"
         id="tspan31"
         x="68.24633"
         y="20.486439">(</tspan></text>
    <text
       xml:space="preserve"
       style="font-size:8px;writing-mode:lr-tb;direction:ltr;fill:#000000"
       x="49.236683"
       y="60.64455"
       id="text32"
       transform="rotate(-11.802512)"><tspan
         sodipodi:role="line"
         id="tspan32"
         x="49.236683"
         y="60.64455">(</tspan></text>
    <text
       xml:space="preserve"
       style="font-size:5.33333px;writing-mode:lr-tb;direction:ltr;fill:#000000"
       x="70.71019"
       y="21.666355"
       id="text33"
       transform="rotate(14.908572)"><tspan
         sodipodi:role="line"
         id="tspan33"
         x="70.71019"
         y="21.666355">(</tspan></text>
    <text
       xml:space="preserve"
       style="font-size:5.33333px;writing-mode:lr-tb;direction:ltr;fill:#000000"
       x="56.162838"
       y="55.952641"
       id="text34"
       transform="rotate(-7.7729649)"><tspan
         sodipodi:role="line"
         id="tspan34"
         x="56.162838"
         y="55.952641">(</tspan></text>
    <text
       xml:space="preserve"
       style="font-size:8px;writing-mode:lr-tb;direction:ltr;fill:#000000"
       x="-103.44958"
       y="70.377029"
       id="text35"
       transform="matrix(-0.95881991,0.28401476,0.28401476,0.95881991,0,0)"><tspan
         sodipodi:role="line"
         id="tspan35"
         x="-103.44958"
         y="70.377029">(</tspan></text>
    <text
       xml:space="preserve"
       style="font-size:8px;writing-mode:lr-tb;direction:ltr;fill:#000000"
       x="-125.58861"
       y="23.165524"
       id="text36"
       transform="matrix(-0.97885842,-0.20453897,-0.20453897,0.97885842,0,0)"><tspan
         sodipodi:role="line"
         id="tspan36"
         x="-125.58861"
         y="23.165524">(</tspan></text>
    <text
       xml:space="preserve"
       style="font-size:5.33333px;writing-mode:lr-tb;direction:ltr;fill:#000000"
       x="-102.30503"
       y="66.769455"
       id="text37"
       transform="matrix(-0.9663376,0.25727737,0.25727737,0.9663376,0,0)"><tspan
         sodipodi:role="line"
         id="tspan37"
         x="-102.30503"
         y="66.769455">(</tspan></text>
    <text
       xml:space="preserve"
       style="font-size:5.33333px;writing-mode:lr-tb;direction:ltr;fill:#000000"
       x="-120.86397"
       y="30.851395"
       id="text38"
       transform="matrix(-0.99081177,-0.13524807,-0.13524807,0.99081177,0,0)"><tspan
         sodipodi:role="line"
         id="tspan38"
         x="-120.86397"
         y="30.851395">(</tspan></text>
  </g>
</svg>
