<?xml version="1.0" encoding="UTF-8" standalone="no"?>
<svg
   height="182"
   width="160"
   version="1.1"
   id="svg6"
   sodipodi:docname="front-standing.svg"
   inkscape:version="1.4.3 (0d15f75042, 2025-12-25)"
   xmlns:inkscape="http://www.inkscape.org/namespaces/inkscape"
   xmlns:sodipodi="http://sodipodi.sourceforge.net/DTD/sodipodi-0.dtd"
   xmlns:xlink="http://www.w3.org/1999/xlink"
   xmlns="http://www.w3.org/2000/svg"
   xmlns:svg="http://www.w3.org/2000/svg">
  <sodipodi:namedview
     id="namedview6"
     pagecolor="#505050"
     bordercolor="#ffffff"
     borderopacity="1"
     inkscape:showpageshadow="0"
     inkscape:pageopacity="0"
     inkscape:pagecheckerboard="1"
     inkscape:deskcolor="#505050"
     inkscape:zoom="9.6974644"
     inkscape:cx="104.7181"
     inkscape:cy="47.744439"
     inkscape:window-width="1438"
     inkscape:window-height="877"
     inkscape:window-x="1360"
     inkscape:window-y="21"
     inkscape:window-maximized="1"
     inkscape:current-layer="layer1" />
  <defs
     id="defs4">
    <rect
       x="57.75"
       y="64.75"
       width="24.5"
       height="17.208333"
       id="rect18" />
    <g
       id="c">
      <path
         d="M.4-60h3.9l1.2.55 3.9-8.6 3.85 8.6L14.5-60l3.15 3.05 1.15 1.05-.05.05-.4.4.1.1q2.1 2.05 2.35 4.55v.6q0 1.65-.8 3.1l-.25.45-1.4 1.7.15.15-.3.25-3.25.9v4.7l-3.25.7-3.1.9.65 1.6 3.3-1.25 3-.6q1.55 0 2.15.6.8.8.8 2 0 1.1-.75 1.85-1.05 1.05-4.1 1.25l-1.25.05.35 1.5 1.5-.05-.05 2.75-1.5 1.25v12.25l-.85 4.6h-1.5V-3q0 .7-.45 1.15-.55.55-1.6.55-1.15 0-1.65-.55Q6.2-2.3 6.25-3v-6.55h-1.6l-2.35-3.5H.55L-3-9.55V-3q0 .7-.45 1.15-.55.55-1.6.55-1.1 0-1.65-.55-.45-.45-.4-1.15v-6.55h-1.55l-1.7-1.1-1.75-3.9v-3.9l.45-.4q.75-.6 1.35-1.55l-1.25-1-.7.95.4-10.95 1.75-12.8.4.35.75-.7-1-1.1q-1.55-1.9-1.5-4.15l.05-1q.35-2.3 2.45-4.25l-.75-.75.5-3.95.65.3 3.85-8.6 3.85 8.6L.4-60m10.1 14.7v1.9h1.3v-3.25h-1.15v-9.45h-6.2v3.85l-.05 1.1-.45 2.45-1 2.05H2v3.3h1.35v-1.95h7.15m-6.05-1.35.5-.9.9-3.55v-.05l.05-.35v-3.25h3.4v8.1H4.45m14.3-9.2-1.1-1.1 1.1 1.1M5.5-37.95Q4.45-39 2.25-39l-4 .75-3.1.9.65 1.6L-.9-37l3-.6q1.55 0 2.15.6.8.8.8 2 0 1.1-.75 1.85Q3.25-32.1.25-31.9l-1.3.05.35 1.5q3.95-.05 5.9-1.55l.45-.35q1-1 1-2.85-.05-1.8-1.15-2.85M-7.15-43.6l.75-1.55v-1.35h-1.5v1.45h.55l-.55 1.45h.75M-5-45.05h.55L-5-43.6h.75l.75-1.55v-1.35H-5v1.45"
         fill="#fff"
         fill-rule="evenodd"
         transform="translate(21.55 71)"
         id="path1" />
      <path
         d="m4.3-60 5.1-11 5.1 11-1.25.55-3.85-8.6-3.9 8.6L4.3-60m14.5 4.1.25-.3q2.55 2.35 2.8 5.4v.6q0 1.9-.9 3.55-.7 1.25-1.9 2.4l-.55-.55-.15-.15 1.4-1.7.25-.45q.8-1.45.8-3.1v-.6q-.25-2.5-2.35-4.55l-.1-.1.4-.4.05-.05m-3.85 16.95.75-.05q2.2 0 3.25 1.05 1.1 1.05 1.1 2.85 0 1.85-1 2.85l-.4.35q-1.55 1.2-4.4 1.5l-1.5.05-.35-1.5 1.25-.05q3.05-.2 4.1-1.25.75-.75.75-1.85 0-1.2-.8-2-.6-.6-2.15-.6l-3 .6-3.3 1.25-.65-1.6 3.1-.9 3.25-.7m-3.1 29.4v6.6q0 1.25-.8 2.05-.9.9-2.75.9-1.95 0-2.85-.9-.8-.8-.8-2.05v-6.6h1.6V-3q-.05.7.4 1.15.5.55 1.65.55 1.05 0 1.6-.55.45-.45.45-1.15v-6.55h1.5M-3-9.55h1.5v6.6q0 1.25-.8 2.05-.9.9-2.75.9-1.9 0-2.8-.9-.85-.8-.8-2.05v-6.6h1.55V-3q-.05.7.4 1.15.55.55 1.65.55 1.05 0 1.6-.55Q-3-2.3-3-3v-6.55m-9.1-8.9q-.7.45-1.6.45-1 0-2.7-1.1l-1.9-.65q-.85 0-1.3.55l-.6.95-1.35-.75 1.2-1.65q.85-.8 1.95-.8t2.3.8q1.65.85 2.55.85.6 0 1.3-.65l.7-.95 1.25 1q-.6.95-1.35 1.55l-.45.4m2-25.75-.6-.7q-1.85-2.2-1.8-4.9l.05-1q.35-2.8 2.75-5l.75.75q-2.1 1.95-2.45 4.25l-.05 1q-.05 2.25 1.5 4.15l1 1.1-.75.7-.4-.35m.9-15.55-.55-.25 5.05-11L.4-60l-1.25.55-3.85-8.6-3.85 8.6-.65-.3M2-43.4v-3.25h.95l1-2.05.45-2.45.05-1.1v-3.85h6.2v9.45h1.15v3.25h-1.3v-1.95H3.35v1.95H2m7.3-11.35v-.05H5.85v3.25l-.05.35v.05l-.9 3.55-.5.9-.05.05H9.3v-8.1m-3.8 16.8q1.1 1.05 1.15 2.85 0 1.85-1 2.85l-.45.35q-1.95 1.5-5.9 1.55l-.35-1.5 1.3-.05q3-.2 4.05-1.25.75-.75.75-1.85 0-1.2-.8-2-.6-.6-2.15-.6l-3 .6-3.3 1.25-.65-1.6 3.1-.9 4-.75q2.2 0 3.25 1.05M-5-45.05v-1.45h1.5v1.35l-.75 1.55H-5l.55-1.45H-5m-2.15 1.45h-.75l.55-1.45h-.55v-1.45h1.5v1.35l-.75 1.55"
         fill-rule="evenodd"
         transform="translate(21.55 71)"
         id="path2" />
      <path
         d="M.4-60h3.9m8.4 33.6v9.45m0 0v2.8m4.95-42.8 1.1 1.1"
         fill="none"
         stroke="#000"
         stroke-linecap="round"
         stroke-linejoin="round"
         transform="translate(21.55 71)"
         id="path3" />
    </g>
    <g
       id="d"
       transform="translate(.8)">
      <use
         height="3"
         transform="matrix(1.005 0 0 1 -.804 0)"
         width="4.65"
         xlink:href="#a"
         id="use3" />
      <use
         height="3"
         transform="matrix(1.005 0 0 1 16.096 0)"
         width="4.65"
         xlink:href="#a"
         id="use4" />
    </g>
    <path
       d="M1.35 0h.2l.55.1.45.35q.45.45.45 1L2.55 2.6q-.45.4-1 .4l-.8-.2-.25-.2-.45-.7v-.15L0 1.45v-.1q.05-.5.5-.9l.25-.2Q1 .05 1.3 0h.05m.45.85L1.55.8Q1.2.75 1 1q-.2.15-.2.45v.15l.15.45H1l.05.05.2.1.3.05.55-.2.15-.6-.05-.3L2.1 1 2.05.95 1.9.85h-.1"
       fill-rule="evenodd"
       id="b" />
    <use
       height="3"
       transform="translate(.8)"
       width="3"
       xlink:href="#b"
       id="a" />
    <filter
       style="color-interpolation-filters:sRGB;"
       inkscape:label="Colorize"
       id="filter18"
       x="0"
       y="0"
       width="1"
       height="1">
      <feComposite
         in2="SourceGraphic"
         operator="arithmetic"
         k1="7.89601"
         k2="0"
         result="composite1"
         id="feComposite17" />
      <feColorMatrix
         in="composite1"
         values="1"
         type="saturate"
         result="colormatrix1"
         id="feColorMatrix17" />
      <feFlood
         flood-opacity="1"
         flood-color="rgb(223,74,0)"
         result="flood1"
         id="feFlood17" />
      <feBlend
         in="flood1"
         in2="colormatrix1"
         mode="multiply"
         result="blend1"
         id="feBlend17" />
      <feBlend
         in2="blend1"
         mode="screen"
         result="blend2"
         id="feBlend18" />
      <feColorMatrix
         in="blend2"
         values="1"
         type="saturate"
         result="colormatrix2"
         id="feColorMatrix18" />
      <feComposite
         in="colormatrix2"
         in2="SourceGraphic"
         operator="in"
         k2="1"
         result="composite2"
         id="feComposite18" />
    </filter>
  </defs>
  <g
     transform="matrix(2 0 0 2 79.341 142)"
     id="g6"
     style="filter:url(#filter18)">
    <use
       height="71"
       transform="translate(-21.55 -71)"
       width="43.4"
       xlink:href="#c"
       id="use5" />
    <use
       height="3"
       transform="matrix(1.0012 0 0 1 -3.6 -57.5)"
       width="21.55"
       xlink:href="#d"
       id="use6" />
  </g>
  <g
     inkscape:groupmode="layer"
     id="layer1"
     inkscape:label="stripes front">
    <path
       d="m 67.570828,51.582995 q 0,-1.464 0.42,-2.82 0.432,-1.368 1.344,-2.46 h 0.996 q -0.84,1.128 -1.272,2.484 -0.42,1.356 -0.42,2.784 0,1.392 0.42,2.736 0.432,1.332 1.26,2.46 h -0.984 q -0.912,-1.056 -1.344,-2.388 -0.42,-1.344 -0.42,-2.796 z"
       id="text19"
       transform="rotate(8.4887496)"
       aria-label="(" />
    <path
       d="m 61.188912,71.028566 q 0,-1.464 0.42,-2.82 0.432,-1.368 1.344,-2.46 h 0.996 q -0.84,1.128 -1.272,2.484 -0.42,1.356 -0.42,2.784 0,1.392 0.42,2.736 0.432,1.332 1.26,2.46 h -0.984 q -0.912,-1.056 -1.344,-2.388 -0.42,-1.344 -0.42,-2.796 z"
       id="text20"
       transform="rotate(2.7499147)"
       aria-label="(" />
    <path
       d="m 57.195855,88.488573 q 0,-1.464 0.42,-2.82 0.432,-1.368 1.344,-2.46 h 0.996 q -0.84,1.128 -1.272,2.484 -0.42,1.356 -0.42,2.784 0,1.392 0.42,2.736 0.432,1.332 1.26,2.46 h -0.984 q -0.912,-1.056 -1.344,-2.388 -0.42,-1.344 -0.42,-2.796 z"
       id="text21"
       aria-label="(" />
    <path
       d="m 24.484726,125.27743 q 0,-1.464 0.42,-2.82 0.432,-1.368 1.344,-2.46 h 0.996 q -0.84,1.128 -1.272,2.484 -0.42,1.356 -0.42,2.784 0,1.392 0.42,2.736 0.432,1.332 1.26,2.46 h -0.984 q -0.912,-1.056 -1.344,-2.388 -0.42,-1.344 -0.42,-2.796 z"
       id="text22"
       transform="rotate(-15.958024)"
       aria-label="(" />
    <path
       d="m 69.647454,53.787942 q 0,-0.976 0.28,-1.88 0.288,-0.912 0.896,-1.64 h 0.664 q -0.56,0.752 -0.848,1.656 -0.28,0.904 -0.28,1.856 0,0.928 0.28,1.824 0.288,0.888 0.84,1.64 h -0.656 q -0.608,-0.704 -0.896,-1.592 -0.28,-0.896 -0.28,-1.864 z"
       id="text23"
       style="font-size:8px"
       transform="rotate(6.4971731)"
       aria-label="(" />
    <path
       d="m 63.219868,72.574266 q 0,-0.976 0.28,-1.88 0.288,-0.912 0.896,-1.64 h 0.664 q -0.56,0.752 -0.848,1.656 -0.28,0.904 -0.28,1.856 0,0.928 0.28,1.824 0.288,0.888 0.84,1.64 h -0.656 q -0.608,-0.704 -0.896,-1.592 -0.28,-0.896 -0.28,-1.864 z"
       id="text24"
       style="font-size:8px"
       transform="rotate(1.208022)"
       aria-label="(" />
    <path
       d="m 61.160649,88.244012 q 0,-0.976 0.28,-1.88 0.288,-0.912 0.896,-1.64 h 0.664 q -0.56,0.752 -0.848,1.656 -0.28,0.904 -0.28,1.856 0,0.928 0.28,1.824 0.288,0.888 0.84,1.64 h -0.656 q -0.608,-0.704 -0.896,-1.592 -0.28,-0.896 -0.28,-1.864 z"
       id="text25"
       style="font-size:8px"
       aria-label="(" />
    <path
       d="m 26.454912,125.65907 q 0,-0.976 0.28,-1.88 0.288,-0.912 0.896,-1.64 h 0.664 q -0.56,0.752 -0.848,1.656 -0.28,0.904 -0.28,1.856 0,0.928 0.28,1.824 0.288,0.888 0.84,1.64 h -0.656 q -0.608,-0.704 -0.896,-1.592 -0.28,-0.896 -0.28,-1.864 z"
       id="text26"
       style="font-size:8px"
       transform="rotate(-16.525377)"
       aria-label="(" />
    <path
       d="m 69.657272,57.55863 q 0,-0.650666 0.186667,-1.253333 0.192,-0.607999 0.597333,-1.093332 h 0.442666 q -0.373333,0.501333 -0.565333,1.103999 -0.186666,0.602666 -0.186666,1.237333 0,0.618666 0.186666,1.215999 0.192,0.591999 0.56,1.093332 H 70.441272 Q 70.035939,59.393295 69.843939,58.801296 69.657272,58.203963 69.657272,57.55863 Z"
       id="text27"
       style="font-size:5.33333px"
       transform="rotate(3.5712061)"
       aria-label="(" />
    <path
       d="m 69.121384,69.231691 q 0,-0.650666 0.186666,-1.253332 0.192,-0.608 0.597333,-1.093333 h 0.442667 q -0.373333,0.501333 -0.565333,1.103999 -0.186667,0.602667 -0.186667,1.237333 0,0.618666 0.186667,1.215999 0.192,0.592 0.559999,1.093333 H 69.905383 Q 69.50005,71.066357 69.30805,70.474357 69.121384,69.877024 69.121384,69.231691 Z"
       id="text28"
       style="font-size:5.33333px"
       transform="rotate(3.9014357)"
       aria-label="(" />
    <path
       d="m 63.838211,88.149721 q 0,-0.650666 0.186667,-1.253333 0.192,-0.607999 0.597333,-1.093332 h 0.442666 q -0.373333,0.501333 -0.565333,1.103999 -0.186666,0.602666 -0.186666,1.237333 0,0.618666 0.186666,1.215999 0.192,0.592 0.56,1.093333 h -0.437333 q -0.405333,-0.469333 -0.597333,-1.061333 -0.186667,-0.597333 -0.186667,-1.242666 z"
       id="text29"
       style="font-size:5.33333px"
       aria-label="(" />
    <path
       d="m 34.308682,124.02847 q 0,-0.65066 0.186666,-1.25333 0.192,-0.608 0.597333,-1.09333 h 0.442666 q -0.373333,0.50133 -0.565332,1.104 -0.186667,0.60267 -0.186667,1.23733 0,0.61867 0.186667,1.216 0.191999,0.592 0.559999,1.09333 h -0.437333 q -0.405333,-0.46933 -0.597333,-1.06133 -0.186666,-0.59733 -0.186666,-1.24267 z"
       id="text30"
       style="font-size:5.33333px"
       transform="rotate(-14.026236)"
       aria-label="(" />
    <path
       d="m 68.56633,18.294439 q 0,-0.976 0.28,-1.88 0.288,-0.912 0.896,-1.64 h 0.664 q -0.56,0.752 -0.848,1.656 -0.28,0.904 -0.28,1.856 0,0.928 0.28,1.824 0.288,0.888 0.84,1.64 h -0.656 q -0.608,-0.704 -0.896,-1.592 -0.28,-0.896 -0.28,-1.864 z"
       id="text31"
       style="font-size:8px"
       transform="rotate(16.499965)"
       aria-label="(" />
    <path
       d="m 49.556683,58.45255 q 0,-0.976 0.28,-1.88 0.288,-0.912 0.896,-1.64 h 0.664 q -0.56,0.752 -0.848,1.656 -0.28,0.904 -0.28,1.856 0,0.928 0.28,1.824 0.288,0.888 0.84,1.64 h -0.656 q -0.608,-0.704 -0.896,-1.592 -0.28,-0.896 -0.28,-1.864 z"
       id="text32"
       style="font-size:8px"
       transform="rotate(-11.802512)"
       aria-label="(" />
    <path
       d="m 70.923523,20.205023 q 0,-0.650667 0.186667,-1.253333 0.191999,-0.608 0.597333,-1.093333 h 0.442666 q -0.373333,0.501333 -0.565333,1.104 -0.186667,0.602666 -0.186667,1.237332 0,0.618667 0.186667,1.216 0.192,0.591999 0.56,1.093332 H 71.707523 Q 71.302189,22.039688 71.11019,21.447689 70.923523,20.850356 70.923523,20.205023 Z"
       id="text33"
       style="font-size:5.33333px"
       transform="rotate(14.908572)"
       aria-label="(" />
    <path
       d="m 56.376171,54.491308 q 0,-0.650666 0.186667,-1.253333 0.192,-0.607999 0.597333,-1.093332 h 0.442666 q -0.373333,0.501333 -0.565333,1.103999 -0.186666,0.602666 -0.186666,1.237333 0,0.618666 0.186666,1.215999 0.192,0.592 0.56,1.093333 h -0.437333 q -0.405333,-0.469333 -0.597333,-1.061333 -0.186667,-0.597333 -0.186667,-1.242666 z"
       id="text34"
       style="font-size:5.33333px"
       transform="rotate(-7.7729649)"
       aria-label="(" />
    <path
       d="m -103.12958,68.185029 q 0,-0.976 0.28,-1.88 0.288,-0.912 0.896,-1.64 h 0.664 q -0.56,0.752 -0.848,1.656 -0.28,0.904 -0.28,1.856 0,0.928 0.28,1.824 0.288,0.888 0.84,1.64 h -0.656 q -0.608,-0.704 -0.896,-1.592 -0.28,-0.896 -0.28,-1.864 z"
       id="text35"
       style="font-size:8px"
       transform="matrix(-0.95881991,0.28401476,0.28401476,0.95881991,0,0)"
       aria-label="(" />
    <path
       d="m -125.26861,20.973524 q 0,-0.976 0.28,-1.88 0.288,-0.912 0.896,-1.64 h 0.664 q -0.56,0.752 -0.848,1.656 -0.28,0.904 -0.28,1.856 0,0.928 0.28,1.824 0.288,0.888 0.84,1.64 h -0.656 q -0.608,-0.704 -0.896,-1.592 -0.28,-0.896 -0.28,-1.864 z"
       id="text36"
       style="font-size:8px"
       transform="matrix(-0.97885842,-0.20453897,-0.20453897,0.97885842,0,0)"
       aria-label="(" />
    <path
       d="m -102.0917,65.308122 q 0,-0.650666 0.18667,-1.253332 0.192,-0.608 0.59733,-1.093333 h 0.44267 q -0.37333,0.501333 -0.56533,1.104 -0.18667,0.602666 -0.18667,1.237332 0,0.618666 0.18667,1.215999 0.192,0.592 0.55999,1.093333 h -0.43733 q -0.40533,-0.469333 -0.59733,-1.061333 -0.18667,-0.597333 -0.18667,-1.242666 z"
       id="text37"
       style="font-size:5.33333px"
       transform="matrix(-0.9663376,0.25727737,0.25727737,0.9663376,0,0)"
       aria-label="(" />
    <path
       d="m -120.65063,29.390062 q 0,-0.650666 0.18666,-1.253332 0.192,-0.608 0.59733,-1.093333 h 0.44267 q -0.37333,0.501333 -0.56533,1.103999 -0.18667,0.602667 -0.18667,1.237333 0,0.618666 0.18667,1.215999 0.192,0.592 0.56,1.093333 h -0.43734 q -0.40533,-0.469333 -0.59733,-1.061333 -0.18666,-0.597333 -0.18666,-1.242666 z"
       id="text38"
       style="font-size:5.33333px"
       transform="matrix(-0.99081177,-0.13524807,-0.13524807,0.99081177,0,0)"
       aria-label="(" />
  </g>
</svg>
