<?xml version="1.0" encoding="UTF-8" standalone="no"?>
<!-- Created with Inkscape (http://www.inkscape.org/) -->

<svg
   width="42.333mm"
   height="47.682999mm"
   viewBox="0 0 42.333 47.682999"
   version="1.1"
   id="svg5"
   xml:space="preserve"
   inkscape:version="1.2.2 (b0a8486541, 2022-12-01)"
   sodipodi:docname="back-walking-1.svg"
   xmlns:inkscape="http://www.inkscape.org/namespaces/inkscape"
   xmlns:sodipodi="http://sodipodi.sourceforge.net/DTD/sodipodi-0.dtd"
   xmlns="http://www.w3.org/2000/svg"
   xmlns:svg="http://www.w3.org/2000/svg"><sodipodi:namedview
     id="namedview7"
     pagecolor="#ffffff"
     bordercolor="#000000"
     borderopacity="0.25"
     inkscape:showpageshadow="2"
     inkscape:pageopacity="0.0"
     inkscape:pagecheckerboard="0"
     inkscape:deskcolor="#d1d1d1"
     inkscape:document-units="mm"
     showgrid="false"
     inkscape:zoom="1.5518659"
     inkscape:cx="221.02425"
     inkscape:cy="139.18728"
     inkscape:window-width="1920"
     inkscape:window-height="1051"
     inkscape:window-x="0"
     inkscape:window-y="0"
     inkscape:window-maximized="1"
     inkscape:current-layer="layer3" /><defs
     id="defs2" /><g
     inkscape:groupmode="layer"
     id="layer3"
     inkscape:label="Layer 2"
     style="display:inline"><path
       style="display:inline;fill:#fe9900;fill-opacity:1;stroke:#666666;stroke-width:0.11381;stroke-dasharray:none;stroke-opacity:1"
       d="m 11.088692,16.391602 9.133561,-3.160324 c 0,0 5.967294,-1.13461 8.131088,1.035821 2.163798,2.170432 4.702381,3.590132 5.256537,9.6001 0.554149,6.009968 -4.563341,9.180783 -4.563341,9.180783 0,0 -4.390592,2.480378 -7.626143,2.108477 C 18.184841,34.784563 12.551947,33.289079 11.014587,29.929647 9.4772266,26.570216 9.3991296,24.075912 9.2514486,21.5367 9.1037686,18.997488 10.964438,16.413444 11.088692,16.391602 Z"
       id="path7046" /><path
       style="fill:#666666;fill-opacity:1;stroke:#666666;stroke-width:0;stroke-dasharray:none"
       id="path522"
       d="m 16.344947,15.688083 c -0.223428,-0.06994 -0.437469,-0.168047 -0.660186,-0.239656 -0.304331,-0.09785 -0.750551,-0.213876 -1.053877,-0.268416 -0.235836,-0.0424 -0.474639,-0.06623 -0.711959,-0.09935 -0.257474,-0.0051 -0.515551,-0.03377 -0.772421,-0.01542 -0.592592,0.04233 -1.082769,0.175259 -1.626559,0.415457 -0.490729,0.216759 -0.97528,0.5361 -1.410604,0.847214 -0.1821524,0.130179 -0.3554724,0.272292 -0.5332084,0.408438 0,0 0.6533504,0.410853 0.6533504,0.410853 v 0 c 0.169854,-0.139019 0.333821,-0.285561 0.509564,-0.417057 0.429218,-0.321154 0.891327,-0.62739 1.386274,-0.839472 0.541705,-0.232117 1.038237,-0.35247 1.625939,-0.383417 0.258097,-0.01359 0.516556,0.01908 0.774835,0.02862 0.241887,0.03936 0.485566,0.06897 0.725662,0.118086 0.622489,0.127354 1.213479,0.352649 1.802174,0.584888 0,0 -0.708984,-0.550768 -0.708984,-0.550768 z" /><path
       style="fill:#666666;fill-opacity:1;stroke:#666666;stroke-width:0.0603192;stroke-dasharray:none"
       id="path564"
       d="m 14.360688,31.599898 c -0.07352,0.453948 0.04191,0.934037 0.319332,1.304995 0.104559,0.139816 0.240347,0.253296 0.36052,0.379941 0.740276,0.524827 0.658294,0.496432 1.757837,1.034103 0.295324,0.144411 0.971657,0.362573 1.289943,0.456157 0.445837,0.131086 0.65237,0.171218 1.092473,0.270924 0,0 -0.64026,-0.48684 -0.64026,-0.48684 v 0 c -0.162793,-0.03519 -0.326487,-0.06644 -0.488379,-0.105565 -0.407301,-0.09842 -0.810796,-0.212164 -1.204994,-0.355205 -0.219741,-0.07973 -0.427092,-0.193479 -0.650841,-0.261162 -0.03504,-0.01061 0.100787,0.103822 0.06925,0.08523 -0.167807,-0.09892 -0.321941,-0.219384 -0.482912,-0.329076 -0.117879,-0.117905 -0.251186,-0.222184 -0.353638,-0.353716 -0.262971,-0.337615 -0.380792,-0.791719 -0.278085,-1.207757 0,0 -0.790248,-0.432031 -0.790248,-0.432031 z" /><path
       style="fill:#666666;fill-opacity:1;stroke:#666666;stroke-width:0.0147953;stroke-dasharray:none"
       id="path584"
       d="m 25.48061,34.627961 c 0.275441,0.06216 0.554937,0.106523 0.837514,0.119279 0.166772,0.0075 0.334926,0.02135 0.50082,0.0027 0.536895,-0.06044 0.759173,-0.182997 1.26857,-0.375436 0.634178,-0.297287 1.207838,-0.699395 1.725605,-1.169075 0.315096,-0.285836 0.454934,-0.457886 0.728428,-0.765514 0,0 -0.695631,-0.418691 -0.695631,-0.418691 v 0 c -0.265639,0.325697 -0.370742,0.474118 -0.689623,0.774196 -0.503402,0.473715 -1.071092,0.867668 -1.702773,1.151316 -0.219644,0.07622 -0.433693,0.171029 -0.658929,0.228651 -0.204617,0.05235 -0.414987,0.08528 -0.625679,0.09999 -0.170416,0.01191 -0.341864,-0.0061 -0.512079,-0.02055 -0.301521,-0.02569 -0.597629,-0.08987 -0.888801,-0.169579 0,0 0.712578,0.542734 0.712578,0.542734 z" /><path
       style="fill:#666666;fill-opacity:1;stroke:#666666;stroke-width:0;stroke-dasharray:none"
       id="path1360"
       d="m 11.515017,26.649888 c -0.252392,0.142819 -0.468313,0.342946 -0.653162,0.565433 -0.100365,0.1208 -0.198561,0.244772 -0.279058,0.379626 -0.203861,0.34152 -0.296532,0.63682 -0.435687,1.006009 -0.04244,0.159127 -0.09496,0.315902 -0.127333,0.47738 -0.07893,0.393712 -0.1090524,0.885388 0.143915,1.228992 0.03463,0.04703 0.08296,0.08223 0.124436,0.123344 0.915152,0.517275 0.543508,0.475202 1.001905,0.505164 0,0 -0.709939,-0.531476 -0.709939,-0.531476 v 0 c -0.337604,-0.08043 -0.131872,-0.04252 0.51816,0.354085 -0.04766,-0.03443 -0.10195,-0.06117 -0.142976,-0.103287 -0.290873,-0.298571 -0.287807,-0.812293 -0.224831,-1.19222 0.02661,-0.160512 0.07589,-0.316434 0.113838,-0.47465 0.06257,-0.167761 0.114561,-0.339852 0.187706,-0.503279 0.238467,-0.53279 0.561008,-0.970412 1.069841,-1.267785 0.0504,-0.02945 0.105768,-0.04942 0.158653,-0.07413 0,0 -0.745468,-0.493208 -0.745468,-0.493208 z" /><path
       style="fill:#666666;fill-opacity:1;stroke:#666666;stroke-width:0;stroke-dasharray:none"
       id="path1370"
       d="m 32.083026,29.6048 c 0.231282,0.09212 0.471496,0.1836 0.726327,0.144985 0.07423,-0.01125 0.144901,-0.0394 0.21735,-0.0591 0.07371,-0.04418 0.154583,-0.07817 0.221135,-0.13254 0.216666,-0.177013 0.293643,-0.333092 0.412355,-0.594634 0.194588,-0.428713 0.306468,-0.887336 0.423407,-1.341111 0.02764,-0.121139 0.05527,-0.242278 0.0829,-0.363417 0,0 -0.733985,-0.393115 -0.733985,-0.393115 v 0 c -0.02296,0.122505 -0.04592,0.24501 -0.06887,0.367514 -0.105625,0.449503 -0.209779,0.901787 -0.418024,1.318062 -0.113122,0.226124 -0.214952,0.391288 -0.417202,0.537904 -0.06454,0.04678 -0.141886,0.07269 -0.212828,0.109041 -0.06949,0.01322 -0.137917,0.03452 -0.208466,0.03965 -0.258223,0.01878 -0.500196,-0.09243 -0.730192,-0.192808 0,0 0.706094,0.559569 0.706093,0.559569 z" /><path
       style="fill:#666666;stroke:#666666;stroke-width:0.0375572"
       id="path233"
       d="m 10.590446,20.788 c -0.160215,-0.0385 -0.348891,-0.05855 -0.509288,-0.0075 -0.2568614,0.08181 -0.5055404,0.257349 -0.6989144,0.436665 -0.135706,0.12584 -0.250105,0.272865 -0.375157,0.409297 -0.111061,0.166572 -0.238317,0.323418 -0.333183,0.499717 -0.284323,0.528389 -0.416471,1.122066 -0.470055,1.714831 -0.01405,0.155403 -0.01208,0.31184 -0.01812,0.467759 0,0 0.723571,0.370381 0.723571,0.370381 v 0 c -5.69e-4,-0.41578 -0.01776,-0.587002 0.05799,-1.011699 0.07302,-0.409398 0.182507,-0.776909 0.384873,-1.14306 0.09484,-0.171603 0.223044,-0.322523 0.334566,-0.483784 0.127389,-0.129003 0.243444,-0.270278 0.3821654,-0.38701 0.368883,-0.310407 0.762781,-0.485723 1.227341,-0.310336 0,0 -0.705791,-0.555301 -0.705791,-0.555301 z" /><path
       style="fill:#666666;stroke:#666666;stroke-width:0.0375572"
       id="path247"
       d="m 32.956899,23.19122 c 0.180211,-0.05047 0.365951,-0.126473 0.500761,-0.261736 0.112835,-0.113214 0.135299,-0.182994 0.208864,-0.323722 0.01819,-0.08877 0.04606,-0.176096 0.05457,-0.266311 0.04162,-0.441365 -0.07094,-0.891271 -0.179273,-1.314258 -0.09364,-0.365579 -0.211566,-0.738222 -0.321606,-1.099176 -0.04972,-0.154742 -0.09943,-0.309484 -0.149148,-0.464226 0,0 -0.731299,-0.343332 -0.731299,-0.343332 v 0 c 0.05438,0.156251 0.108773,0.312503 0.163158,0.468754 0.164799,0.526507 0.334444,1.053305 0.424806,1.599207 0.04013,0.242432 0.06718,0.501169 0.03869,0.74787 -0.0094,0.08122 -0.03706,0.159257 -0.05558,0.238886 -0.0686,0.127943 -0.08685,0.188627 -0.193638,0.287791 -0.133456,0.123931 -0.315495,0.188255 -0.493182,0.208005 0,0 0.732888,0.522248 0.732888,0.522248 z" /><path
       style="fill:#666666;stroke:#666666;stroke-width:0.0375572"
       id="path276"
       d="m 30.97788,17.7261 c 0.0096,-0.546131 -0.116348,-1.096686 -0.303952,-1.607383 -0.06102,-0.166104 -0.138071,-0.32587 -0.207108,-0.488804 -0.09808,-0.15928 -0.189844,-0.322623 -0.294233,-0.47784 -0.09797,-0.145667 -0.204635,-0.285396 -0.312312,-0.42404 -0.270349,-0.348095 -0.55394,-0.658962 -0.887105,-0.945885 0,0 -0.802691,-0.323303 -0.802691,-0.323303 v 0 c 0.05837,0.04578 0.118662,0.08921 0.175119,0.137333 0.403754,0.344148 0.798974,0.801861 1.099901,1.235172 0.104448,0.150398 0.195862,0.309442 0.293793,0.464163 0.0689,0.159733 0.146763,0.315893 0.206706,0.479199 0.178866,0.487289 0.290507,1.017526 0.234187,1.537399 0,0 0.797695,0.413989 0.797695,0.413989 z" /><path
       style="fill:#666666;stroke:#666666;stroke-width:0.0375572"
       id="path284"
       d="m 24.884066,14.709219 c 0.212924,-0.162729 0.209979,-0.392515 0.04069,-0.600459 -0.06945,-0.08531 -0.15896,-0.152123 -0.238439,-0.228185 -0.609812,-0.415131 -0.633588,-0.44859 -1.555685,-0.900022 -0.194158,-0.09505 -0.399301,-0.168334 -0.60691,-0.228594 -0.410102,-0.119038 -1.076544,-0.227351 -1.499825,-0.266871 -0.241327,-0.02253 -0.484213,-0.02286 -0.72632,-0.0343 -0.52517,-0.0048 -1.051755,0.02335 -1.569934,0.112317 -0.0988,0.01696 -0.196088,0.04178 -0.294133,0.06267 0,0 0.698879,0.483499 0.698879,0.483499 v 0 c 0.09068,-0.0235 0.180369,-0.05122 0.272038,-0.0705 0.494866,-0.104108 1.000918,-0.13961 1.505889,-0.138324 0.238279,0.0115 0.47742,0.01123 0.71484,0.0345 0.47669,0.04673 1.049847,0.15019 1.507009,0.294489 0.211638,0.0668 0.402441,0.195049 0.618094,0.247459 0.0783,0.01903 -0.264675,-0.182897 -0.193901,-0.144368 0.121891,0.06636 0.2321,0.152228 0.348149,0.228341 0.188813,0.163815 0.573857,0.438733 0.221916,0.660087 0,0 0.75764,0.488255 0.75764,0.488255 z" /></g></svg>
