<?xml version="1.0" encoding="UTF-8" standalone="no"?>
<!-- Created with Inkscape (http://www.inkscape.org/) -->

<svg
   width="42.333mm"
   height="47.682999mm"
   viewBox="0 0 42.333 47.682999"
   version="1.1"
   id="svg5"
   xml:space="preserve"
   inkscape:version="1.2.2 (b0a8486541, 2022-12-01)"
   sodipodi:docname="back-walking-2.svg"
   xmlns:inkscape="http://www.inkscape.org/namespaces/inkscape"
   xmlns:sodipodi="http://sodipodi.sourceforge.net/DTD/sodipodi-0.dtd"
   xmlns="http://www.w3.org/2000/svg"
   xmlns:svg="http://www.w3.org/2000/svg"><sodipodi:namedview
     id="namedview7"
     pagecolor="#ffffff"
     bordercolor="#000000"
     borderopacity="0.25"
     inkscape:showpageshadow="2"
     inkscape:pageopacity="0.0"
     inkscape:pagecheckerboard="0"
     inkscape:deskcolor="#d1d1d1"
     inkscape:document-units="mm"
     showgrid="false"
     inkscape:zoom="1.5518659"
     inkscape:cx="353.12329"
     inkscape:cy="103.74608"
     inkscape:window-width="1920"
     inkscape:window-height="1051"
     inkscape:window-x="0"
     inkscape:window-y="0"
     inkscape:window-maximized="1"
     inkscape:current-layer="layer3" /><defs
     id="defs2" /><g
     inkscape:groupmode="layer"
     id="layer3"
     inkscape:label="Layer 2"
     style="display:inline"><path
       style="display:inline;fill:#fe9900;fill-opacity:1;stroke:#666666;stroke-width:0.113438;stroke-dasharray:none;stroke-opacity:1"
       d="m 11.159088,16.193472 9.103688,-3.149988 c 0,0 5.947777,-1.130899 8.104495,1.032433 2.156721,2.163333 4.687001,3.57839 5.239344,9.568701 0.552337,5.990312 -4.548416,9.150756 -4.548416,9.150756 0,0 -4.376231,2.472266 -7.6012,2.101581 -3.22497,-0.37068 -8.839441,-1.861272 -10.371773,-5.209716 -1.5323318,-3.348444 -1.6101738,-5.83459 -1.7573718,-8.365497 -0.147197,-2.530907 1.7073868,-5.106499 1.8312338,-5.12827 z"
       id="path7046" /><path
       style="fill:#666666;fill-opacity:1;stroke:#666666;stroke-width:0.0374344"
       id="path931"
       d="m 23.307402,13.667714 c -0.49003,-0.224052 -0.994087,-0.412985 -1.517615,-0.543513 -0.191269,-0.04769 -0.385125,-0.08432 -0.577687,-0.126484 -0.688979,-0.127896 -1.388806,-0.214323 -2.090572,-0.211468 -0.291427,0.0012 -0.352011,0.01182 -0.624785,0.03627 -0.240535,0.02969 -0.477948,0.08658 -0.706319,0.167517 0,0 0.737907,0.497893 0.737907,0.497893 v 0 c 0.21426,-0.07942 0.435118,-0.142055 0.662181,-0.171962 0.08674,-0.0098 0.173184,-0.02266 0.260209,-0.02948 0.798418,-0.06256 1.601161,0.03429 2.384361,0.185588 0.195372,0.04644 0.392281,0.08682 0.586117,0.139307 0.547189,0.148156 1.076464,0.359185 1.580978,0.616708 0,0 -0.694775,-0.560371 -0.694775,-0.560371 z" /><path
       style="fill:#666666;fill-opacity:1;stroke:#666666;stroke-width:0.0374344"
       id="path939"
       d="m 17.301519,14.847897 c -0.407681,-0.08029 -0.822628,-0.118101 -1.236458,-0.148946 -0.626868,-0.04672 -1.055425,-0.07234 -1.696993,-0.05303 -0.320081,0.0096 -0.639143,0.04093 -0.958714,0.0614 -0.779841,0.07507 -1.541451,0.257922 -2.277961,0.52136 -0.159762,0.05714 -0.315085,0.126006 -0.472627,0.18901 0,0 0.668531,0.445821 0.668531,0.445821 v 0 c 0.148287,-0.06694 0.293749,-0.140528 0.444863,-0.200816 0.709594,-0.283103 1.450474,-0.46834 2.211771,-0.543183 0.319769,-0.01808 0.639061,-0.04964 0.959308,-0.05422 0.316659,-0.0045 0.633498,0.0092 0.949692,0.02693 0.266182,0.01492 0.531546,0.04272 0.796644,0.07097 0.443115,0.04723 0.886242,0.109533 1.318291,0.221075 0,0 -0.706347,-0.536363 -0.706347,-0.536363 z" /><path
       style="fill:#666666;fill-opacity:1;stroke:#666666;stroke-width:0.0374344"
       id="path987"
       d="m 31.428405,16.229638 c -0.03715,-0.0503 -0.07031,-0.103812 -0.111446,-0.150907 -0.374988,-0.429255 -0.831502,-0.774323 -1.321421,-1.063146 -1.21052,-0.713638 -1.028711,-0.607704 -2.023906,-1.035124 -0.664528,-0.249557 -1.338448,-0.510365 -2.046088,-0.60971 -0.09342,-0.01312 -0.188115,-0.01462 -0.282172,-0.02192 0,0 0.68466,0.504985 0.68466,0.504985 v 0 c 0.08688,0.0057 0.174286,0.0061 0.260658,0.01712 0.681608,0.08709 1.331585,0.333893 1.970288,0.574122 0.231721,0.101447 0.460557,0.209757 0.695162,0.304343 0.01125,0.0045 0.02464,-0.01625 0.03502,-0.01 0.454063,0.27525 0.888096,0.580262 1.229078,0.991987 0.03463,0.04182 0.05965,0.09074 0.08948,0.136106 0,0 0.820687,0.362104 0.820687,0.362104 z" /><path
       style="fill:#666666;fill-opacity:1;stroke:#666666;stroke-width:0.0374344"
       id="path1081"
       d="m 10.874052,18.079539 c -0.205271,0.02108 -0.123462,0.0053 -0.404848,0.09261 -0.378042,0.117323 -0.447524,0.133058 -0.8107608,0.357709 -0.152899,0.09456 -0.308383,0.188995 -0.44134,0.310001 -0.141488,0.128771 -0.250574,0.289165 -0.375861,0.433748 -0.09589,0.163144 -0.205326,0.319056 -0.287687,0.489435 -0.200951,0.415707 -0.306734,0.878989 -0.35243,1.336181 -0.01004,0.100465 -0.01021,0.201672 -0.01532,0.302509 0,0 0.751544,0.384741 0.751544,0.384741 v 0 c -0.0012,-0.101142 -0.0083,-0.202379 -0.0037,-0.303426 0.0204,-0.451621 0.110476,-0.912996 0.304413,-1.324194 0.07858,-0.166598 0.186103,-0.317931 0.279154,-0.476897 0.123571,-0.137977 0.231323,-0.291959 0.370714,-0.413933 0.1334468,-0.116773 0.2873588,-0.209106 0.4414888,-0.296785 0.352092,-0.200295 0.731764,-0.321348 1.133368,-0.36483 0.04554,-0.0049 0.09161,4.76e-4 0.137409,6.81e-4 0,0 -0.72611,-0.527551 -0.72611,-0.527551 z" /><path
       style="fill:#666666;fill-opacity:1;stroke:#666666;stroke-width:0.0374344"
       id="path1093"
       d="m 10.943193,24.669215 c -0.110704,0.06033 -0.217896,0.11165 -0.309874,0.204064 -0.322744,0.324275 -0.505804,0.770945 -0.593565,1.21361 -0.04008,0.202145 -0.04731,0.409435 -0.07096,0.614153 0.0026,0.2265 -0.0049,0.453345 0.0079,0.679501 0.05263,0.930716 0.264111,1.870344 0.517173,2.765893 0.02863,0.0865 0.05725,0.172997 0.08588,0.259496 0,0 0.769826,0.358755 0.769826,0.358755 v 0 c -0.03539,-0.08812 -0.07078,-0.176237 -0.106177,-0.264355 -0.04095,-0.121135 -0.0851,-0.241232 -0.122846,-0.363404 -0.240755,-0.779328 -0.418466,-1.592067 -0.459922,-2.408462 -0.01124,-0.221236 -5.44e-4,-0.443042 -7.94e-4,-0.664566 0.02607,-0.198142 0.03545,-0.399204 0.0782,-0.59443 0.09303,-0.424864 0.279294,-0.847999 0.619115,-1.13229 0.109892,-0.09193 0.199798,-0.117073 0.323573,-0.163387 0,0 -0.737527,-0.504578 -0.737527,-0.504578 z" /><path
       style="fill:#666666;fill-opacity:1;stroke:#666666;stroke-width:0.0374344"
       id="path1143"
       d="m 13.700528,30.680528 c 0.0081,0.0545 0.0094,0.110456 0.02433,0.163488 0.06343,0.225176 0.180225,0.46111 0.297859,0.657732 0.21019,0.351318 0.463075,0.692005 0.73483,0.997325 0.151118,0.169782 0.31797,0.324878 0.476954,0.487316 0.167499,0.140488 0.328061,0.289688 0.502497,0.421464 0.161476,0.121984 0.329677,0.235669 0.50383,0.33875 0.613207,0.362962 1.239973,0.747145 1.934214,0.940681 0.09561,0.02665 0.194073,0.04172 0.29111,0.06258 0.285783,0.0281 0.151828,0.02255 0.401595,0.02223 0,0 -0.706178,-0.513013 -0.706178,-0.513013 v 0 c -0.229705,-6.1e-5 -0.106234,0.0054 -0.370132,-0.02178 -0.282768,-0.06192 -0.320342,-0.06015 -0.611668,-0.172348 -0.137581,-0.05299 -0.260906,-0.15087 -0.406441,-0.174451 -0.07875,-0.01275 0.262359,0.181316 0.194086,0.140043 -0.554264,-0.335056 -0.512686,-0.331979 -1.0253,-0.750451 -0.15829,-0.159334 -0.325034,-0.310689 -0.474867,-0.478001 -0.382667,-0.427301 -0.803934,-1.005783 -0.955619,-1.571668 -0.01136,-0.0424 -0.01284,-0.08685 -0.01926,-0.130272 0,0 -0.791843,-0.419606 -0.791843,-0.419606 z" /><path
       style="fill:#666666;fill-opacity:1;stroke:#666666;stroke-width:0.0374344"
       id="path1149"
       d="m 23.246441,33.942571 c 0.470668,0.219381 0.979939,0.409008 1.487779,0.51723 0.215715,0.04597 0.433479,0.08778 0.653431,0.10414 0.241649,0.01797 0.484633,-9.07e-4 0.726949,-0.0016 0.767948,-0.07358 1.43717,-0.298479 2.108185,-0.673849 0.331887,-0.185661 0.680379,-0.435534 0.976489,-0.677272 0.111074,-0.09068 0.214363,-0.190498 0.321546,-0.285747 0,0 -0.69694,-0.430396 -0.69694,-0.430396 v 0 c -0.282873,0.277668 -0.369312,0.380374 -0.708556,0.627537 -0.562839,0.410068 -1.183286,0.728494 -1.865833,0.885711 -0.244814,0.05639 -0.497138,0.07287 -0.745705,0.109304 -0.243373,-0.0053 -0.487852,0.0078 -0.730121,-0.01597 -0.222772,-0.02185 -0.442816,-0.06887 -0.660636,-0.12043 -0.537667,-0.127281 -1.071095,-0.339384 -1.558712,-0.598787 0,0 0.692124,0.56001 0.692124,0.56001 z" /><path
       style="fill:#666666;fill-opacity:1;stroke:#666666;stroke-width:0.0374344"
       id="path1153"
       d="m 31.299224,30.423065 c 0.286757,0.09794 0.597179,0.06932 0.881871,-0.02187 0.09392,-0.03008 0.184075,-0.07083 0.276114,-0.106243 0.09995,-0.07177 0.206458,-0.135193 0.299865,-0.215293 0.479925,-0.411556 0.813713,-0.979901 1.035567,-1.565378 0.05965,-0.157424 0.103151,-0.320506 0.154725,-0.480757 0.148104,-0.586654 0.08298,-0.302248 0.197944,-0.85262 0,0 -0.726021,-0.387393 -0.726021,-0.387393 v 0 c -0.09622,0.552699 -0.03876,0.267988 -0.175781,0.853438 -0.05033,0.157766 -0.0924,0.31841 -0.150978,0.473302 -0.216081,0.571361 -0.54841,1.130281 -1.036316,1.51122 -0.09354,0.07303 -0.200626,0.126824 -0.300939,0.190238 -0.09085,0.03159 -0.179622,0.06999 -0.272563,0.09477 -0.293388,0.07825 -0.608704,0.07583 -0.887468,-0.0512 0,0 0.70398,0.557791 0.70398,0.557791 z" /><path
       style="fill:#666666;fill-opacity:1;stroke:#666666;stroke-width:0.0374344"
       id="path1157"
       d="m 33.109291,22.818082 c 0.197214,-0.190246 0.318381,-0.442729 0.409737,-0.697677 0.03757,-0.104855 0.0758,-0.21016 0.09951,-0.318991 0.02905,-0.133315 0.03884,-0.270107 0.05826,-0.405161 -0.0016,-0.163319 0.0081,-0.32715 -0.0049,-0.489957 -0.05765,-0.721088 -0.276778,-1.456903 -0.557371,-2.121016 -0.0524,-0.124021 -0.112253,-0.244758 -0.16838,-0.367136 0,0 -0.748586,-0.340065 -0.748586,-0.340065 v 0 c 0.16201,0.321927 0.249631,0.476493 0.380098,0.825386 0.195476,0.522745 0.338797,1.077646 0.374907,1.636391 0.01012,0.156688 -0.0027,0.314018 -0.0041,0.471027 -0.02171,0.128836 -0.03434,0.259537 -0.06513,0.386511 -0.02547,0.105046 -0.06361,0.206829 -0.103133,0.307434 -0.09397,0.239182 -0.219708,0.479258 -0.429731,0.635515 0,0 0.758752,0.477739 0.758752,0.477739 z" /></g></svg>
