<?xml version="1.0" encoding="UTF-8" standalone="no"?>
<!-- Created with Inkscape (http://www.inkscape.org/) -->

<svg
   width="42.333mm"
   height="47.682999mm"
   viewBox="0 0 42.333 47.682999"
   version="1.1"
   id="svg5"
   xml:space="preserve"
   inkscape:version="1.2.2 (b0a8486541, 2022-12-01)"
   sodipodi:docname="front-sitting.svg"
   xmlns:inkscape="http://www.inkscape.org/namespaces/inkscape"
   xmlns:sodipodi="http://sodipodi.sourceforge.net/DTD/sodipodi-0.dtd"
   xmlns="http://www.w3.org/2000/svg"
   xmlns:svg="http://www.w3.org/2000/svg"><sodipodi:namedview
     id="namedview7"
     pagecolor="#ffffff"
     bordercolor="#000000"
     borderopacity="0.25"
     inkscape:showpageshadow="2"
     inkscape:pageopacity="0.0"
     inkscape:pagecheckerboard="0"
     inkscape:deskcolor="#d1d1d1"
     inkscape:document-units="mm"
     showgrid="false"
     inkscape:zoom="1.5518659"
     inkscape:cx="268.0644"
     inkscape:cy="213.93601"
     inkscape:window-width="1920"
     inkscape:window-height="1051"
     inkscape:window-x="0"
     inkscape:window-y="0"
     inkscape:window-maximized="1"
     inkscape:current-layer="layer3" /><defs
     id="defs2" /><g
     inkscape:groupmode="layer"
     id="layer3"
     inkscape:label="Layer 2"
     style="display:inline"><path
       style="display:inline;fill:#fe9900;fill-opacity:1;stroke:#666666;stroke-width:0.115494;stroke-dasharray:none;stroke-opacity:1"
       d="m 10.684484,16.019346 9.268718,-3.20709 c 0,0 6.055597,-1.1514 8.251412,1.051149 2.195817,2.20255 4.771966,3.643258 5.334322,9.742161 0.562349,6.098904 -4.630869,9.316639 -4.630869,9.316639 0,0 -4.455563,2.517083 -7.738994,2.139679 -3.283432,-0.3774 -8.999681,-1.895014 -10.55979,-5.304158 -1.56011,-3.409143 -1.639363,-5.940359 -1.78923,-8.517145 -0.149865,-2.576787 1.738338,-5.199069 1.864431,-5.221235 z"
       id="path7046" /><path
       style="display:inline;fill:#666666;fill-opacity:1;stroke:#666666;stroke-width:0.0462438"
       id="path11658"
       d="m 15.98547,33.296473 c 0.04309,0.26325 0.06366,0.529311 0.09395,0.794164 0.03879,0.227103 0.03655,0.46499 0.108728,0.685886 0.01167,0.03574 0.02831,0.06965 0.04246,0.104479 0.02046,0.03066 0.03685,0.06447 0.06139,0.09197 0.02827,0.03169 0.05936,0.06213 0.09569,0.08411 0.229367,0.13877 0.461724,0.273039 0.699443,0.396957 0.05166,0.02693 0.110168,0.03806 0.166126,0.05425 0.160835,0.04654 0.210384,0.05212 0.375736,0.08401 0.339387,0.05627 0.683245,0.07203 1.026605,0.07823 0.148904,0.0014 0.297816,9.24e-4 0.446723,0.0014 0.105965,2.31e-4 0.151306,0.0039 0.255722,-0.0081 0.04015,-0.0046 0.07978,-0.01298 0.119675,-0.01947 0.14856,-0.03293 0.0759,-0.01647 0.218012,-0.04934 0,0 -0.553971,-0.383312 -0.553971,-0.383312 v 0 c -0.138293,0.03285 -0.06758,0.01725 -0.212204,0.04655 -0.268475,0.03555 -0.539523,0.02236 -0.809732,0.02157 -0.338081,-0.0065 -0.677304,-0.01929 -1.010601,-0.08131 -0.152554,-0.03294 -0.225823,-0.04418 -0.373476,-0.09409 -0.05669,-0.01917 -0.215427,-0.100854 -0.167196,-0.06543 0.138398,0.101672 0.292696,0.179753 0.440907,0.266496 0.03426,0.02007 -0.06891,-0.04033 -0.09891,-0.06634 -0.02618,-0.02271 -0.04543,-0.05233 -0.06815,-0.0785 -0.01616,-0.03196 -0.03524,-0.06261 -0.04847,-0.09589 -0.08543,-0.214837 -0.08251,-0.455524 -0.121404,-0.680125 -0.02839,-0.259444 -0.0542,-0.519504 -0.06992,-0.780001 0,0 -0.617134,-0.308091 -0.617134,-0.308091 z" /><path
       style="fill:#666666;fill-opacity:1;stroke:#666666;stroke-width:0.0462438"
       id="path11660"
       d="m 23.761233,35.192152 c 0.545775,-0.07134 1.056332,-0.28315 1.559304,-0.496015 0.316155,-0.143709 0.601707,-0.332893 0.833976,-0.593422 0.245027,-0.274834 0.422624,-0.600416 0.603772,-0.918038 0.04775,-0.09021 0.0955,-0.180415 0.143249,-0.270621 0,0 -0.543627,-0.309794 -0.543627,-0.309794 v 0 c -0.04387,0.09139 -0.08773,0.182783 -0.131592,0.274176 -0.05672,0.102949 -0.109564,0.208131 -0.17017,0.308845 -0.121042,0.201155 -0.267651,0.417903 -0.427227,0.591657 -0.229795,0.250206 -0.509529,0.435885 -0.81632,0.578162 -0.112706,0.04697 -0.224082,0.09726 -0.338117,0.140896 -0.406506,0.155557 -0.831251,0.276832 -1.268139,0.29654 0,0 0.554891,0.397614 0.554891,0.397614 z" /><path
       style="fill:#666666;fill-opacity:1;stroke:#666666;stroke-width:0.0462438"
       id="path11664"
       d="m 29.274771,33.266163 c 0.316133,-0.211246 0.608522,-0.456391 0.893379,-0.707526 0.0741,-0.07394 0.151955,-0.144307 0.222307,-0.221834 0.16447,-0.181247 0.325432,-0.397853 0.46262,-0.598984 0.156887,-0.230015 0.318995,-0.491923 0.44495,-0.740168 0.07085,-0.139644 0.130862,-0.284526 0.196294,-0.426792 0.195693,-0.468748 0.380409,-0.944627 0.500317,-1.43921 0.03984,-0.164336 0.06874,-0.324487 0.100499,-0.490094 0.01104,-0.06043 0.02206,-0.120866 0.03311,-0.181295 0,0 -0.578493,-0.306065 -0.578493,-0.306065 v 0 c -0.0079,0.0618 -0.01585,0.123601 -0.02378,0.185404 -0.03101,0.21802 -0.03507,0.268814 -0.08169,0.494695 -0.102596,0.497091 -0.259998,0.981392 -0.460532,1.447565 -0.06678,0.139768 -0.128698,0.281964 -0.200339,0.419307 -0.246341,0.472248 -0.555611,0.923673 -0.924469,1.309055 -0.07185,0.07507 -0.15029,0.143552 -0.225432,0.215325 -0.290329,0.24469 -0.590828,0.491087 -0.933989,0.658369 0,0 0.575248,0.382248 0.575248,0.382248 z" /><path
       style="display:inline;fill:#666666;fill-opacity:1;stroke:#666666;stroke-width:0.256052;stroke-dasharray:none"
       id="path11684"
       d="m 34.033296,21.631782 c -0.03476,-0.291403 -0.03505,-0.585761 -0.04715,-0.878693 -0.02123,-0.479473 -0.0829,-0.957676 -0.193642,-1.424986 -0.02577,-0.108729 -0.05774,-0.215893 -0.08661,-0.32384 -0.11612,-0.380806 -0.296159,-0.735061 -0.562051,-1.033252 -0.159908,-0.179328 -0.230813,-0.227804 -0.41381,-0.381724 -0.06862,-0.04949 -0.135951,-0.100822 -0.205862,-0.148479 -0.0586,-0.03995 -0.118226,-0.07854 -0.179509,-0.114235 -0.39569,-0.23049 -0.649968,-0.428881 -1.06249,-0.515913 -0.02519,-0.0016 -0.05038,-0.0033 -0.07556,-0.0049 0,0 0.547822,0.4061 0.547822,0.4061 v 0 c 0.0222,0.0029 0.04442,0.0059 0.06663,0.0088 0.0802,0.01924 0.109696,0.02389 0.191135,0.05513 0.04385,0.01681 0.168356,0.0819 0.129444,0.05562 -0.128686,-0.08693 -0.266491,-0.159534 -0.400196,-0.238526 -0.137609,-0.0813 0.596916,0.352367 0.402704,0.260255 0.187525,0.151503 0.252752,0.193316 0.417758,0.370141 0.271526,0.290967 0.464332,0.636153 0.58536,1.014715 0.02936,0.106745 0.06236,0.212553 0.08807,0.320234 0.109627,0.459118 0.157309,0.931695 0.173123,1.402599 0.0048,0.287833 0.0026,0.575681 0.0065,0.863526 0,0 0.618331,0.3074 0.618331,0.3074 z" /><path
       style="display:inline;fill:#666666;fill-opacity:1;stroke:#666666;stroke-width:0.221097;stroke-dasharray:none"
       id="path11718"
       d="m 28.097133,14.811725 c 0.285519,-0.01207 0.571108,-0.0095 0.856459,0.0043 0.570482,0.04053 1.116312,0.224931 1.654453,0.406483 0.510341,0.178832 1.01619,0.370387 1.518619,0.570319 0.08113,0.03625 0.163863,0.06908 0.243376,0.108737 0.07624,0.03803 0.298935,0.163598 0.223446,0.124105 -0.36522,-0.191056 -0.483931,-0.28489 -0.195771,-0.08008 0,0 0.605989,0.239433 0.605989,0.239433 v 0 c -0.377214,-0.271839 -0.193034,-0.14645 -0.90699,-0.559374 -0.07329,-0.04239 -0.148313,-0.08191 -0.224684,-0.118453 -0.07946,-0.03802 -0.161655,-0.07005 -0.24248,-0.105068 -0.500941,-0.198332 -1.003843,-0.392333 -1.51501,-0.562978 -0.549805,-0.180356 -1.10573,-0.366707 -1.686709,-0.409149 -0.295935,-0.01541 -0.59189,-0.01604 -0.888065,-0.0232 0,0 0.557367,0.404952 0.557367,0.404952 z" /><path
       style="fill:#666666;fill-opacity:1;stroke:#666666;stroke-width:0.116229;stroke-dasharray:none"
       id="path11726"
       d="m 12.207519,18.212267 c -0.07265,0.04705 -0.378482,0.244877 -0.392536,0.255468 -0.227322,0.171265 -0.957175,0.790209 -1.111868,0.918414 -0.604427,0.500929 -0.804792,0.659881 -1.407665,1.147112 0,0 0.413028,0.258735 0.413028,0.258735 v 0 c 0.549146,-0.457082 0.836486,-0.70624 1.411856,-1.143082 0.382013,-0.290042 0.800365,-0.594731 1.216527,-0.842197 0.134854,-0.08019 0.29828,-0.151095 0.444621,-0.217112 0,0 -0.573963,-0.377338 -0.573963,-0.377338 z" /><path
       style="fill:#666666;fill-opacity:1;stroke:#666666;stroke-width:0.0462438"
       id="path11730"
       d="m 10.26595,22.408935 c -0.128775,0.132387 -0.06415,0.06371 -0.233866,0.253928 -0.0663,0.07431 -0.138453,0.14383 -0.198515,0.223262 -0.312406,0.413161 -0.541227,0.883362 -0.776922,1.341639 -0.376931,0.777078 -0.637732,1.604205 -0.807597,2.449831 -0.01894,0.09427 -0.03393,0.18929 -0.0509,0.283934 0,0 0.556527,0.29355 0.556527,0.29355 v 0 c 0.03059,-0.287348 0.03361,-0.363587 0.09082,-0.666772 0.136433,-0.723011 0.364364,-1.425174 0.695035,-2.083516 0.09359,-0.171554 0.181446,-0.346368 0.280774,-0.514669 0.2721,-0.46104 0.593846,-0.899186 1.029676,-1.218022 0,0 -0.585035,-0.363165 -0.585035,-0.363165 z" /><path
       style="fill:#666666;fill-opacity:1;stroke:#666666;stroke-width:0.186141;stroke-dasharray:none"
       id="path11740"
       d="m 10.540139,16.297058 c 0.43889,-0.238706 0.889524,-0.456288 1.34887,-0.652873 0.159056,-0.06807 0.32045,-0.130546 0.480675,-0.195818 0.545599,-0.203642 1.104528,-0.388124 1.684592,-0.462646 0.255046,-0.03277 0.408502,-0.03082 0.661904,-0.03761 0.344098,0.01705 0.712783,0.0085 1.03252,0.160026 0.07879,0.03734 0.310481,0.130727 0.223452,0.135938 -0.112423,0.0067 -0.207726,-0.08711 -0.311589,-0.13066 0.29965,0.27959 0.571703,0.586384 0.86805,0.869282 0,0 0.609678,0.249617 0.609678,0.249617 v 0 C 16.824838,15.95308 16.539917,15.645131 16.24345,15.348279 15.988379,15.180253 15.736431,15.007387 15.478236,14.8442 15.402896,14.79658 15.325511,14.75102 15.243444,14.716244 14.91915,14.578823 14.554367,14.590885 14.21043,14.58363 c -0.247458,0.01247 -0.407359,0.01458 -0.655748,0.05278 -0.573236,0.08816 -1.121542,0.288982 -1.661578,0.492777 -0.162485,0.06438 -0.325527,0.127379 -0.487454,0.193151 -0.447279,0.181676 -0.889362,0.376848 -1.338447,0.554102 -0.03241,0.0128 -0.06555,0.02362 -0.09833,0.03542 0,0 0.571267,0.385193 0.571267,0.385193 z" /><path
       style="fill:#666666;fill-opacity:1;stroke:#666666;stroke-width:0.29101;stroke-dasharray:none"
       id="path11746"
       d="m 22.197664,14.9603 c -0.160982,-0.216743 -0.319208,-0.436099 -0.496577,-0.64 -0.05308,-0.06102 -0.108855,-0.119642 -0.163283,-0.179462 -0.152281,-0.162048 -0.314304,-0.315481 -0.489573,-0.452599 -0.04895,-0.0383 -0.0972,-0.07808 -0.150453,-0.110124 -0.23755,-0.14293 -0.477298,-0.282445 -0.721162,-0.414313 -0.05681,-0.03072 -0.119715,-0.0485 -0.179572,-0.07275 -0.338015,-0.133219 -0.697478,-0.175403 -1.05643,-0.205605 0,0 0.533562,0.39419 0.533562,0.39419 v 0 c 0.35335,0.02666 0.705214,0.07865 1.034863,0.215849 0.186354,0.08321 0.545536,0.251903 -0.219421,-0.157429 -0.05585,-0.02989 0.105542,0.07018 0.156365,0.107983 0.179663,0.133648 0.345815,0.285047 0.500415,0.4468 0.05379,0.05828 0.109369,0.114957 0.161355,0.17485 0.16808,0.193648 0.317503,0.404295 0.458554,0.618053 0,0 0.631357,0.27456 0.631357,0.27456 z" /><path
       style="fill:#666666;fill-opacity:1;stroke:#666666;stroke-width:0.0462438"
       id="path11748"
       d="m 25.974923,16.864358 c -0.06349,-0.179309 -0.133278,-0.356499 -0.188104,-0.538715 -0.06003,-0.231536 -0.105259,-0.466046 -0.170435,-0.696291 -0.101336,-0.311515 -0.205545,-0.621205 -0.287102,-0.938646 -0.05457,-0.226947 -0.101083,-0.456402 -0.17142,-0.679268 -0.03948,-0.125083 -0.07368,-0.21072 -0.11988,-0.333265 -0.09003,-0.244666 -0.192454,-0.483731 -0.308598,-0.716999 -0.05871,-0.123621 -0.128156,-0.241475 -0.198634,-0.358615 -0.06056,-0.10456 -0.139781,-0.195731 -0.214997,-0.289585 0,0 -0.629592,-0.269823 -0.629592,-0.269823 v 0 c 0.07247,0.09498 0.155182,0.181745 0.219186,0.283181 0.07367,0.116235 0.142465,0.235705 0.207648,0.356885 0.12412,0.232889 0.237018,0.470657 0.32922,0.71832 0.126798,0.326913 0.227515,0.661979 0.296312,1.006198 0.03369,0.138167 0.05048,0.213414 0.08971,0.349394 0.05678,0.196809 0.128579,0.388925 0.185553,0.585684 0.06381,0.229204 0.11246,0.461241 0.163139,0.69358 0.05114,0.180771 0.124178,0.353844 0.174739,0.534836 0,0 0.623252,0.293129 0.623252,0.293129 z" /><ellipse
       style="fill:#ffffff;fill-opacity:1;stroke:#666666;stroke-width:0.675129;stroke-dasharray:none;stroke-opacity:1"
       id="path13003"
       cx="17.168972"
       cy="20.993446"
       rx="1.5716469"
       ry="1.3613939" /><ellipse
       style="display:inline;fill:#ffffff;fill-opacity:1;stroke:#666666;stroke-width:0.675129;stroke-dasharray:none;stroke-opacity:1"
       id="path13003-7"
       cx="27.09087"
       cy="21.019394"
       rx="1.5716469"
       ry="1.3613939" /><rect
       style="fill:#cb726a;fill-opacity:1;stroke:#cb726a;stroke-width:0.29271;stroke-dasharray:none;stroke-opacity:1"
       id="rect15401"
       width="3.3703525"
       height="6.4757519"
       x="20.566277"
       y="22.099449" /><path
       style="fill:#666666;fill-opacity:1;stroke:#666666;stroke-width:0.268851;stroke-dasharray:none;stroke-opacity:1"
       id="path16298"
       d="m 20.469587,29.518721 c -0.0014,-0.0246 -0.0039,-0.04918 -0.0042,-0.07382 -0.0011,-0.08736 0.0068,-0.303596 0.0086,-0.364621 0.0041,-0.134918 0.0061,-0.269914 0.01241,-0.404753 0.009,-0.191734 0.06014,-0.975539 0.07061,-1.138988 0.08503,-1.41348 0.110879,-2.829392 0.145315,-4.24459 0.0107,-0.487662 0.02511,-0.975233 0.04046,-1.462779 0,0 -0.53744,-0.260877 -0.53744,-0.260877 v 0 c 0.01074,0.496798 0.01985,0.993643 0.01792,1.49058 -0.0063,1.413045 -0.03314,2.827071 -0.155432,4.236026 -0.05822,0.612423 -0.04667,0.537872 -0.117632,1.115777 -0.03018,0.245762 -0.07,0.491478 -0.09627,0.737736 -0.0025,0.02314 -0.0028,0.04648 -0.0042,0.06972 0,0 0.619925,0.300587 0.619925,0.300587 z" /><path
       style="fill:#666666;fill-opacity:1;stroke:#666666;stroke-width:0.285192;stroke-dasharray:none;stroke-opacity:1"
       id="path16300"
       d="m 20.87245,21.971526 c 0.497516,0.0036 0.989538,0.082 1.479251,0.148567 0.391249,0.06125 0.788885,0.07933 1.183387,0.119506 0.268401,0.03417 0.538355,0.05551 0.809288,0.06807 0,0 -0.622296,-0.382743 -0.622296,-0.382743 v 0 c -0.263859,-0.01016 -0.52644,-0.03318 -0.788516,-0.06046 -0.389232,-0.03695 -0.780093,-0.06241 -1.16745,-0.112366 -0.508228,-0.06262 -1.015536,-0.137559 -1.528527,-0.166915 0,0 0.634863,0.386341 0.634863,0.386341 z" /><path
       style="fill:#666666;fill-opacity:1;stroke:#666666;stroke-width:0.0502914;stroke-dasharray:none;stroke-opacity:1"
       id="path16302"
       d="m 23.896874,21.914038 c 0.03254,0.660363 0.0421,1.321447 0.04315,1.982633 0.01065,1.296053 -0.07836,2.589143 -0.197066,3.877858 -0.06811,0.656887 -0.0341,0.344124 -0.101184,0.938409 0,0 0.530774,0.298316 0.530774,0.298316 v 0 c 0.04121,-0.607893 0.01874,-0.288698 0.06793,-0.95754 0.09808,-1.292215 0.192561,-2.585888 0.196609,-3.883291 0.01766,-0.640685 0.04423,-1.281 0.07025,-1.921326 0,0 -0.610469,-0.335059 -0.610469,-0.335059 z" /><path
       style="fill:#666666;fill-opacity:1;stroke:#666666;stroke-width:0.0428212;stroke-dasharray:none;stroke-opacity:1"
       id="path16312"
       d="m 20.651283,28.619997 c 0.164138,0.03884 0.32659,0.08753 0.492103,0.117811 0.41206,0.07538 0.828635,0.119259 1.243074,0.169039 0.561289,0.05733 1.124884,0.102723 1.688436,0.09817 0,0 -0.444017,-0.393659 -0.444017,-0.393659 v 0 c -0.542234,0.02999 -1.086137,0.0012 -1.62677,-0.05246 -0.607472,-0.07526 -1.220553,-0.148851 -1.806896,-0.369476 0,0 0.45407,0.430572 0.45407,0.430572 z" /></g></svg>
