<?xml version="1.0" encoding="UTF-8" standalone="no"?>
<!-- Created with Inkscape (http://www.inkscape.org/) -->

<svg
   width="160mm"
   height="162mm"
   viewBox="0 0 160 162"
   version="1.1"
   id="svg5"
   xml:space="preserve"
   inkscape:version="1.2.2 (b0a8486541, 2022-12-01)"
   sodipodi:docname="front-sitting.svg"
   xmlns:inkscape="http://www.inkscape.org/namespaces/inkscape"
   xmlns:sodipodi="http://sodipodi.sourceforge.net/DTD/sodipodi-0.dtd"
   xmlns="http://www.w3.org/2000/svg"
   xmlns:svg="http://www.w3.org/2000/svg"><sodipodi:namedview
     id="namedview7"
     pagecolor="#ffffff"
     bordercolor="#000000"
     borderopacity="0.25"
     inkscape:showpageshadow="2"
     inkscape:pageopacity="0.0"
     inkscape:pagecheckerboard="0"
     inkscape:deskcolor="#d1d1d1"
     inkscape:document-units="mm"
     showgrid="false"
     inkscape:zoom="1.5518659"
     inkscape:cx="268.0644"
     inkscape:cy="317.0377"
     inkscape:window-width="1920"
     inkscape:window-height="1051"
     inkscape:window-x="0"
     inkscape:window-y="0"
     inkscape:window-maximized="1"
     inkscape:current-layer="layer3" /><defs
     id="defs2" /><g
     inkscape:groupmode="layer"
     id="layer3"
     inkscape:label="Layer 2"
     style="display:inline"><path
       style="display:inline;fill:#fe9900;fill-opacity:1;stroke-width:0.5;stroke:#666666;stroke-dasharray:none;stroke-opacity:1"
       d="M 32.852192,47.136108 72.978608,33.251875 c 0,0 26.216075,-4.984674 35.722262,4.550668 9.5062,9.535345 20.65894,15.772504 23.09351,42.176058 2.43454,26.403559 -20.0481,40.333879 -20.0481,40.333879 0,0 -19.289157,10.89703 -33.503884,9.26316 C 64.027661,127.94179 39.280702,121.37169 32.526629,106.61272 25.772554,91.853753 25.429448,80.895539 24.780643,69.740038 24.131841,58.584533 32.306307,47.232068 32.852192,47.136108 Z"
       id="path7046" /><path
       style="display:inline;fill:#666666;fill-opacity:1;stroke:#666666;stroke-width:0.2002"
       id="path11658"
       d="m 55.801382,121.93277 c 0.186525,1.13967 0.275616,2.29151 0.406737,3.43812 0.167925,0.98318 0.158243,2.01305 0.470708,2.96936 0.05054,0.15471 0.122541,0.30154 0.183814,0.45231 0.08859,0.13274 0.159545,0.27909 0.265773,0.39818 0.122387,0.13718 0.256964,0.26895 0.414262,0.36412 0.992983,0.60077 1.998911,1.18205 3.028051,1.71852 0.223631,0.11659 0.476943,0.16477 0.719196,0.23487 0.696295,0.20148 0.9108,0.22564 1.62665,0.3637 1.469284,0.2436 2.957923,0.31182 4.444409,0.33867 0.644641,0.006 1.289312,0.004 1.933967,0.006 0.458746,0.001 0.655038,0.017 1.10708,-0.0351 0.173823,-0.02 0.345402,-0.0562 0.518099,-0.0843 0.643153,-0.14257 0.328574,-0.0713 0.943824,-0.21359 0,0 -2.398267,-1.65945 -2.398267,-1.65945 v 0 c -0.598704,0.14221 -0.292562,0.0747 -0.918679,0.20153 -1.162293,0.15392 -2.335723,0.0968 -3.50552,0.0934 -1.463627,-0.0283 -2.932205,-0.0835 -4.375121,-0.35203 -0.660445,-0.1426 -0.977643,-0.19125 -1.616866,-0.40732 -0.245446,-0.083 -0.932632,-0.43662 -0.72383,-0.28324 0.599159,0.44016 1.267148,0.77819 1.908787,1.15372 0.148328,0.0869 -0.298344,-0.17461 -0.4282,-0.28718 -0.113344,-0.0983 -0.196686,-0.22656 -0.29503,-0.33983 -0.06995,-0.13837 -0.15255,-0.27104 -0.209839,-0.41512 -0.369835,-0.93008 -0.357213,-1.97207 -0.525587,-2.94442 -0.122928,-1.12319 -0.234638,-2.24905 -0.302703,-3.3768 0,0 -2.671715,-1.3338 -2.671715,-1.3338 z" /><path
       style="fill:#666666;fill-opacity:1;stroke:#666666;stroke-width:0.2002"
       id="path11660"
       d="m 89.46445,130.1396 c 2.362788,-0.30885 4.573105,-1.22582 6.750589,-2.14736 1.368707,-0.62215 2.604929,-1.44117 3.610475,-2.56906 1.060776,-1.18982 1.829636,-2.59934 2.613866,-3.9744 0.20672,-0.39053 0.41344,-0.78106 0.62016,-1.17158 0,0 -2.35349,-1.34117 -2.35349,-1.34117 v 0 c -0.1899,0.39565 -0.3798,0.79131 -0.56969,1.18697 -0.245569,0.44569 -0.47433,0.90105 -0.736704,1.33706 -0.52402,0.87085 -1.158724,1.8092 -1.849567,2.56142 -0.994833,1.0832 -2.205865,1.88705 -3.534037,2.503 -0.487931,0.20334 -0.970101,0.42106 -1.463785,0.60997 -1.759857,0.67344 -3.598679,1.19847 -5.490066,1.28379 0,0 2.402249,1.72136 2.402249,1.72136 z" /><path
       style="fill:#666666;fill-opacity:1;stroke:#666666;stroke-width:0.2002"
       id="path11664"
       d="m 113.33383,121.80155 c 1.36861,-0.91453 2.63443,-1.97582 3.86764,-3.06304 0.3208,-0.32012 0.65785,-0.62474 0.96242,-0.96037 0.71203,-0.78466 1.40887,-1.7224 2.00279,-2.59314 0.6792,-0.99579 1.381,-2.12965 1.92629,-3.20436 0.30674,-0.60455 0.56653,-1.23178 0.8498,-1.84768 0.8472,-2.02932 1.64688,-4.08951 2.16599,-6.23067 0.17248,-0.71145 0.2976,-1.40478 0.43508,-2.12173 0.0478,-0.26163 0.0955,-0.52326 0.14335,-0.78487 0,0 -2.50443,-1.325027 -2.50443,-1.325027 v 0 c -0.0344,0.267556 -0.0686,0.535097 -0.10295,0.802657 -0.13425,0.94386 -0.15183,1.16376 -0.35364,2.14165 -0.44416,2.15202 -1.12559,4.24867 -1.99375,6.26684 -0.28912,0.60509 -0.55716,1.22069 -0.86731,1.81528 -1.06647,2.04447 -2.40537,3.99879 -4.00224,5.6672 -0.31106,0.325 -0.65064,0.62147 -0.97595,0.93219 -1.2569,1.05932 -2.55783,2.12603 -4.04345,2.85023 0,0 2.49038,1.65484 2.49038,1.65484 z" /><path
       style="display:inline;fill:#666666;fill-opacity:1;stroke:#666666;stroke-width:1.10851;stroke-dasharray:none"
       id="path11684"
       d="m 133.93458,71.433634 c -0.1505,-1.261548 -0.15176,-2.535891 -0.20411,-3.804061 -0.0919,-2.075749 -0.35889,-4.146003 -0.83832,-6.169096 -0.11156,-0.470713 -0.24998,-0.934648 -0.37496,-1.401978 -0.50271,-1.648595 -1.28214,-3.182248 -2.43325,-4.473185 -0.69228,-0.776353 -0.99924,-0.986215 -1.79148,-1.65257 -0.29707,-0.214271 -0.58856,-0.436481 -0.89122,-0.642801 -0.25371,-0.172958 -0.51183,-0.34 -0.77714,-0.494548 -1.71303,-0.997844 -2.81386,-1.856725 -4.59976,-2.233505 -0.10904,-0.0068 -0.21809,-0.01407 -0.32712,-0.02112 0,0 2.37165,1.758101 2.37165,1.758101 v 0 c 0.0961,0.01271 0.1923,0.02542 0.28845,0.03815 0.34721,0.08331 0.4749,0.103444 0.82747,0.238673 0.18983,0.07279 0.72885,0.35458 0.56039,0.24077 -0.55711,-0.376349 -1.1537,-0.690659 -1.73254,-1.032633 -0.59574,-0.351947 2.58419,1.525479 1.7434,1.126702 0.81184,0.655893 1.09422,0.836909 1.80857,1.602425 1.1755,1.259665 2.0102,2.754053 2.53416,4.392935 0.1271,0.462126 0.26999,0.920194 0.38129,1.386367 0.4746,1.987628 0.68103,4.033526 0.74949,6.072175 0.0207,1.246096 0.0114,2.492255 0.0281,3.738404 0,0 2.6769,1.330806 2.6769,1.330806 z" /><path
       style="display:inline;fill:#666666;fill-opacity:1;stroke:#666666;stroke-width:0.95718;stroke-dasharray:none"
       id="path11718"
       d="m 108.23556,41.908038 c 1.23608,-0.05224 2.47246,-0.04095 3.70781,0.0185 2.46975,0.175477 4.83277,0.973778 7.16251,1.759757 2.20938,0.774204 4.39932,1.603493 6.57445,2.469041 0.35121,0.156915 0.7094,0.299056 1.05363,0.470751 0.33006,0.164627 1.29416,0.708253 0.96735,0.537276 -1.58112,-0.827125 -2.09505,-1.233354 -0.84754,-0.346687 0,0 2.62347,1.036561 2.62347,1.036561 v 0 c -1.63305,-1.176855 -0.83569,-0.634017 -3.92657,-2.421658 -0.3173,-0.183514 -0.64208,-0.354611 -0.97271,-0.512814 -0.34402,-0.164589 -0.69984,-0.303241 -1.04975,-0.45486 -2.16869,-0.858626 -4.34587,-1.698502 -6.55883,-2.437265 -2.38023,-0.780802 -4.78696,-1.587557 -7.30215,-1.771297 -1.28117,-0.06671 -2.56243,-0.06946 -3.84464,-0.100442 0,0 2.41297,1.753131 2.41297,1.753131 z" /><path
       style="fill:#666666;fill-opacity:1;stroke:#666666;stroke-width:0.503181;stroke-dasharray:none"
       id="path11726"
       d="m 39.445761,56.629768 c -0.314537,0.203685 -1.638533,1.06013 -1.699379,1.105978 -0.984127,0.741447 -4.143828,3.420999 -4.813532,3.976026 -2.616703,2.168637 -3.484129,2.856778 -6.094104,4.966115 0,0 1.788092,1.12012 1.788092,1.12012 v 0 c 2.377378,-1.978813 3.621341,-3.057475 6.112249,-4.948665 1.653823,-1.255655 3.464963,-2.574724 5.266627,-3.646062 0.583814,-0.347158 1.29132,-0.654128 1.924866,-0.939928 0,0 -2.484819,-1.633584 -2.484819,-1.633584 z" /><path
       style="fill:#666666;fill-opacity:1;stroke:#666666;stroke-width:0.2002"
       id="path11730"
       d="m 31.040263,74.798109 c -0.557497,0.573135 -0.277705,0.275805 -1.01246,1.099312 -0.287026,0.321697 -0.599396,0.622674 -0.859419,0.966556 -1.352477,1.788669 -2.343096,3.824278 -3.363474,5.808261 -1.63182,3.364152 -2.760887,6.944974 -3.496271,10.605887 -0.08198,0.408108 -0.146893,0.819476 -0.220338,1.229213 0,0 2.409335,1.270847 2.409335,1.270847 v 0 c 0.132422,-1.243995 0.14549,-1.574052 0.393171,-2.88661 0.59065,-3.13008 1.577416,-6.169906 3.008966,-9.020023 0.40518,-0.742697 0.785523,-1.499505 1.215538,-2.228121 1.17798,-1.995945 2.570894,-3.89278 4.457702,-5.273096 0,0 -2.53275,-1.572226 -2.53275,-1.572226 z" /><path
       style="fill:#666666;fill-opacity:1;stroke:#666666;stroke-width:0.805847;stroke-dasharray:none"
       id="path11740"
       d="m 32.227289,48.338388 c 1.900055,-1.033416 3.850957,-1.975379 5.839569,-2.826437 0.688592,-0.294697 1.387302,-0.565166 2.080954,-0.847743 2.362023,-0.881613 4.781757,-1.680279 7.292986,-2.002902 1.104153,-0.141852 1.768501,-0.133438 2.865536,-0.162811 1.489679,0.0738 3.085801,0.03682 4.470017,0.692788 0.341082,0.161635 1.344143,0.565945 0.967376,0.588507 -0.486708,0.02915 -0.899295,-0.377104 -1.348943,-0.565657 1.297253,1.21041 2.475036,2.53859 3.75799,3.763319 0,0 2.639438,1.080652 2.639438,1.080652 v 0 c -1.357014,-1.208869 -2.590502,-2.542051 -3.873974,-3.827191 -1.104262,-0.727425 -2.195004,-1.4758 -3.312788,-2.182275 -0.326182,-0.206157 -0.661181,-0.403397 -1.01647,-0.55395 -1.403941,-0.594927 -2.983171,-0.542707 -4.472154,-0.574118 -1.071305,0.054 -1.763551,0.06313 -2.838884,0.2285 -2.48167,0.381645 -4.855416,1.251073 -7.193357,2.133348 -0.703433,0.27873 -1.409278,0.55145 -2.1103,0.836194 -1.936371,0.786518 -3.850252,1.631462 -5.794443,2.398834 -0.140294,0.0554 -0.283798,0.102237 -0.425698,0.153352 0,0 2.473145,1.66759 2.473145,1.66759 z" /><path
       style="fill:#666666;fill-opacity:1;stroke:#666666;stroke-width:1.25985;stroke-dasharray:none"
       id="path11746"
       d="m 82.695403,42.551254 c -0.696928,-0.93833 -1.381928,-1.887973 -2.149798,-2.770707 -0.229791,-0.26417 -0.471257,-0.517957 -0.70689,-0.776935 -0.659258,-0.70154 -1.360694,-1.365789 -2.119476,-1.959406 -0.21192,-0.165788 -0.420795,-0.338035 -0.651345,-0.47675 -1.028407,-0.618778 -2.066331,-1.222769 -3.122073,-1.793655 -0.245943,-0.132992 -0.518275,-0.209976 -0.777412,-0.314965 -1.463344,-0.576737 -3.019543,-0.75936 -4.573526,-0.890114 0,0 2.30991,1.706543 2.30991,1.706543 v 0 c 1.529736,0.115424 3.053034,0.340505 4.480161,0.934459 0.806769,0.360211 2.361751,1.090545 -0.949925,-0.681548 -0.241783,-0.129379 0.456919,0.303809 0.676941,0.467482 0.777803,0.578597 1.497113,1.234035 2.166413,1.934303 0.232848,0.252322 0.473483,0.497673 0.698544,0.756965 0.727655,0.838345 1.374542,1.750284 1.985184,2.675695 0,0 2.733292,1.188633 2.733292,1.188633 z" /><path
       style="fill:#666666;fill-opacity:1;stroke:#666666;stroke-width:0.2002"
       id="path11748"
       d="m 99.048026,50.79436 c -0.274873,-0.77627 -0.576993,-1.543368 -0.814344,-2.332221 -0.259877,-1.002375 -0.455694,-2.017621 -0.737854,-3.014406 -0.438705,-1.34862 -0.889852,-2.689339 -1.242933,-4.063613 -0.236238,-0.982509 -0.43761,-1.975871 -0.742113,-2.94071 -0.170909,-0.541511 -0.318957,-0.912256 -0.518989,-1.442778 -0.389765,-1.059217 -0.833178,-2.094186 -1.335993,-3.104057 -0.254186,-0.535181 -0.554816,-1.0454 -0.859934,-1.552524 -0.262161,-0.452668 -0.605141,-0.847368 -0.930771,-1.253681 0,0 -2.725649,-1.168127 -2.725649,-1.168127 v 0 c 0.313729,0.411174 0.67182,0.786815 0.94891,1.225954 0.31895,0.503209 0.616764,1.020425 0.898956,1.545039 0.537343,1.008229 1.026104,2.037581 1.425267,3.109775 0.548937,1.415281 0.984965,2.865856 1.282802,4.356061 0.145859,0.598157 0.218544,0.923918 0.388392,1.512608 0.245826,0.852029 0.556648,1.683744 0.803298,2.535561 0.276265,0.992277 0.486867,1.996816 0.70627,3.002665 0.221399,0.782602 0.537594,1.531873 0.756483,2.315429 0,0 2.698202,1.269025 2.698202,1.269025 z" /><ellipse
       style="fill:#ffffff;fill-opacity:1;stroke:#666666;stroke-width:2.92279;stroke-dasharray:none;stroke-opacity:1"
       id="path13003"
       cx="60.92503"
       cy="68.670128"
       rx="6.8040218"
       ry="5.8937879" /><ellipse
       style="display:inline;fill:#ffffff;fill-opacity:1;stroke:#666666;stroke-width:2.92279;stroke-dasharray:none;stroke-opacity:1"
       id="path13003-7"
       cx="103.87921"
       cy="68.782471"
       rx="6.8040218"
       ry="5.8937879" /><rect
       style="fill:#cb726a;fill-opacity:1;stroke:#cb726a;stroke-width:1.26721;stroke-dasharray:none;stroke-opacity:1"
       id="rect15401"
       width="14.591033"
       height="28.035021"
       x="75.632744"
       y="73.458267" /><path
       style="fill:#666666;fill-opacity:1;stroke:#666666;stroke-width:1.16392;stroke-dasharray:none;stroke-opacity:1"
       id="path16298"
       d="m 75.214157,105.57801 c -0.0062,-0.1065 -0.01697,-0.21291 -0.01834,-0.31958 -0.0048,-0.37818 0.02928,-1.31434 0.03733,-1.57853 0.01779,-0.58409 0.02623,-1.16852 0.05371,-1.75227 0.03907,-0.83006 0.260339,-4.223334 0.305665,-4.930942 0.368125,-6.119281 0.480024,-12.249087 0.629103,-18.375805 0.04631,-2.111201 0.108688,-4.222012 0.175139,-6.332711 0,0 -2.3267,-1.129395 -2.3267,-1.129395 v 0 c 0.04648,2.150755 0.08593,4.301709 0.07756,6.453063 -0.02739,6.117398 -0.14345,12.239044 -0.672899,18.338735 -0.252054,2.651318 -0.202037,2.328569 -0.509257,4.830455 -0.130645,1.06396 -0.303066,2.12772 -0.416788,3.19383 -0.01072,0.10019 -0.01221,0.20122 -0.01834,0.30184 0,0 2.683797,1.30131 2.683797,1.30131 z" /><path
       style="fill:#666666;fill-opacity:1;stroke:#666666;stroke-width:1.23466;stroke-dasharray:none;stroke-opacity:1"
       id="path16300"
       d="m 76.958246,72.904467 c 2.153859,0.01566 4.283937,0.354982 6.404019,0.64318 1.693807,0.265181 3.415263,0.343434 5.123151,0.517368 1.161972,0.147936 2.330663,0.240324 3.503598,0.2947 0,0 -2.694064,-1.656982 -2.694064,-1.656982 v 0 c -1.142306,-0.04397 -2.279081,-0.143638 -3.413668,-0.261753 -1.685076,-0.159981 -3.377204,-0.270168 -5.05416,-0.48646 -2.200235,-0.271074 -4.39649,-0.595525 -6.617347,-0.722613 0,0 2.748471,1.67256 2.748471,1.67256 z" /><path
       style="fill:#666666;fill-opacity:1;stroke:#666666;stroke-width:0.217723;stroke-dasharray:none;stroke-opacity:1"
       id="path16302"
       d="m 90.051674,72.655585 c 0.140853,2.858866 0.182257,5.720849 0.18682,8.583277 0.04609,5.610911 -0.339258,11.208995 -0.853147,16.788142 -0.294856,2.843816 -0.147617,1.489791 -0.438048,4.062586 0,0 2.297845,1.29148 2.297845,1.29148 v 0 c 0.178407,-2.63171 0.08113,-1.24984 0.294092,-4.145412 0.424618,-5.594297 0.83364,-11.194905 0.851165,-16.811659 0.07644,-2.773676 0.191474,-5.545744 0.304133,-8.317866 0,0 -2.64286,-1.450548 -2.64286,-1.450548 z" /><path
       style="fill:#666666;fill-opacity:1;stroke:#666666;stroke-width:0.185383;stroke-dasharray:none;stroke-opacity:1"
       id="path16312"
       d="m 76.000762,101.68723 c 0.710592,0.16814 1.413882,0.37894 2.130427,0.51003 1.783903,0.32636 3.587352,0.5163 5.381553,0.73181 2.429952,0.24818 4.869881,0.44471 7.309631,0.425 0,0 -1.922253,-1.70424 -1.922253,-1.70424 v 0 c -2.347457,0.12985 -4.702136,0.005 -7.042664,-0.2271 -2.629884,-0.32581 -5.284056,-0.64441 -7.82247,-1.599545 0,0 1.965776,1.864045 1.965776,1.864045 z" /></g></svg>
