<?xml version="1.0" encoding="UTF-8" standalone="no"?>
<!-- Created with Inkscape (http://www.inkscape.org/) -->

<svg
   width="160mm"
   height="162mm"
   viewBox="0 0 160 162"
   version="1.1"
   id="svg5"
   xml:space="preserve"
   inkscape:version="1.2.2 (b0a8486541, 2022-12-01)"
   sodipodi:docname="front-walking-2.svg"
   xmlns:inkscape="http://www.inkscape.org/namespaces/inkscape"
   xmlns:sodipodi="http://sodipodi.sourceforge.net/DTD/sodipodi-0.dtd"
   xmlns="http://www.w3.org/2000/svg"
   xmlns:svg="http://www.w3.org/2000/svg"><sodipodi:namedview
     id="namedview7"
     pagecolor="#ffffff"
     bordercolor="#000000"
     borderopacity="0.25"
     inkscape:showpageshadow="2"
     inkscape:pageopacity="0.0"
     inkscape:pagecheckerboard="0"
     inkscape:deskcolor="#d1d1d1"
     inkscape:document-units="mm"
     showgrid="false"
     inkscape:zoom="1.5518659"
     inkscape:cx="352.8011"
     inkscape:cy="309.94946"
     inkscape:window-width="1920"
     inkscape:window-height="1051"
     inkscape:window-x="0"
     inkscape:window-y="0"
     inkscape:window-maximized="1"
     inkscape:current-layer="layer3" /><defs
     id="defs2" /><g
     inkscape:groupmode="layer"
     id="layer3"
     inkscape:label="Layer 2"
     style="display:inline"><path
       style="display:inline;fill:#fe9900;fill-opacity:1;stroke-width:0.5;stroke:#666666;stroke-opacity:1;stroke-dasharray:none"
       d="M 32.852192,47.136108 72.978608,33.251875 c 0,0 26.216075,-4.984674 35.722262,4.550668 9.5062,9.535345 20.65894,15.772504 23.09351,42.176058 2.43454,26.403559 -20.0481,40.333879 -20.0481,40.333879 0,0 -19.289157,10.89703 -33.503884,9.26316 C 64.027661,127.94179 39.280702,121.37169 32.526629,106.61272 25.772554,91.853753 25.429448,80.895539 24.780643,69.740038 24.131841,58.584533 32.306307,47.232068 32.852192,47.136108 Z"
       id="path7046" /><ellipse
       style="fill:#ffffff;fill-opacity:1;stroke:#666666;stroke-width:2.92279;stroke-dasharray:none;stroke-opacity:1"
       id="path13003"
       cx="60.92503"
       cy="68.670128"
       rx="6.8040218"
       ry="5.8937879" /><ellipse
       style="display:inline;fill:#ffffff;fill-opacity:1;stroke:#666666;stroke-width:2.92279;stroke-dasharray:none;stroke-opacity:1"
       id="path13003-7"
       cx="103.87921"
       cy="68.782471"
       rx="6.8040218"
       ry="5.8937879" /><rect
       style="fill:#cb726a;fill-opacity:1;stroke:#cb726a;stroke-width:1.26721;stroke-dasharray:none;stroke-opacity:1"
       id="rect15401"
       width="14.591033"
       height="28.035021"
       x="75.632744"
       y="73.458267" /><path
       style="fill:#666666;fill-opacity:1;stroke:#666666;stroke-width:1.16392;stroke-dasharray:none;stroke-opacity:1"
       id="path16298"
       d="m 75.214157,105.57801 c -0.0062,-0.1065 -0.01697,-0.21291 -0.01834,-0.31958 -0.0048,-0.37818 0.02928,-1.31434 0.03733,-1.57853 0.01779,-0.58409 0.02623,-1.16852 0.05371,-1.75227 0.03907,-0.83006 0.260339,-4.223334 0.305665,-4.930942 0.368125,-6.119281 0.480024,-12.249087 0.629103,-18.375805 0.04631,-2.111201 0.108688,-4.222012 0.175139,-6.332711 0,0 -2.3267,-1.129395 -2.3267,-1.129395 v 0 c 0.04648,2.150755 0.08593,4.301709 0.07756,6.453063 -0.02739,6.117398 -0.14345,12.239044 -0.672899,18.338735 -0.252054,2.651318 -0.202037,2.328569 -0.509257,4.830455 -0.130645,1.06396 -0.303066,2.12772 -0.416788,3.19383 -0.01072,0.10019 -0.01221,0.20122 -0.01834,0.30184 0,0 2.683797,1.30131 2.683797,1.30131 z" /><path
       style="fill:#666666;fill-opacity:1;stroke:#666666;stroke-width:1.23466;stroke-dasharray:none;stroke-opacity:1"
       id="path16300"
       d="m 76.958246,72.904467 c 2.153859,0.01566 4.283937,0.354982 6.404019,0.64318 1.693807,0.265181 3.415263,0.343434 5.123151,0.517368 1.161972,0.147936 2.330663,0.240324 3.503598,0.2947 0,0 -2.694064,-1.656982 -2.694064,-1.656982 v 0 c -1.142306,-0.04397 -2.279081,-0.143638 -3.413668,-0.261753 -1.685076,-0.159981 -3.377204,-0.270168 -5.05416,-0.48646 -2.200235,-0.271074 -4.39649,-0.595525 -6.617347,-0.722613 0,0 2.748471,1.67256 2.748471,1.67256 z" /><path
       style="fill:#666666;fill-opacity:1;stroke:#666666;stroke-width:0.217723;stroke-dasharray:none;stroke-opacity:1"
       id="path16302"
       d="m 90.051674,72.655585 c 0.140853,2.858866 0.182257,5.720849 0.18682,8.583277 0.04609,5.610911 -0.339258,11.208995 -0.853147,16.788142 -0.294856,2.843816 -0.147617,1.489791 -0.438048,4.062586 0,0 2.297845,1.29148 2.297845,1.29148 v 0 c 0.178407,-2.63171 0.08113,-1.24984 0.294092,-4.145412 0.424618,-5.594297 0.83364,-11.194905 0.851165,-16.811659 0.07644,-2.773676 0.191474,-5.545744 0.304133,-8.317866 0,0 -2.64286,-1.450548 -2.64286,-1.450548 z" /><path
       style="fill:#666666;fill-opacity:1;stroke:#666666;stroke-width:0.185383;stroke-dasharray:none;stroke-opacity:1"
       id="path16312"
       d="m 76.000762,101.68723 c 0.710592,0.16814 1.413882,0.37894 2.130427,0.51003 1.783903,0.32636 3.587352,0.5163 5.381553,0.73181 2.429952,0.24818 4.869881,0.44471 7.309631,0.425 0,0 -1.922253,-1.70424 -1.922253,-1.70424 v 0 c -2.347457,0.12985 -4.702136,0.005 -7.042664,-0.2271 -2.629884,-0.32581 -5.284056,-0.64441 -7.82247,-1.599545 0,0 1.965776,1.864045 1.965776,1.864045 z" /><path
       style="fill:#666666;fill-opacity:1;stroke:#666666;stroke-width:0.165"
       id="path931"
       d="m 86.398435,36.0033 c -2.159908,-0.987555 -4.381646,-1.820318 -6.689206,-2.395649 -0.843058,-0.210193 -1.697519,-0.371668 -2.546276,-0.557503 -3.036822,-0.56373 -6.121456,-0.944674 -9.214636,-0.932088 -1.284526,0.0052 -1.551564,0.0521 -2.753873,0.159859 -1.060207,0.130879 -2.106655,0.381624 -3.113249,0.738367 0,0 3.252483,2.194566 3.252483,2.194566 v 0 c 0.944393,-0.350047 1.917872,-0.626137 2.918701,-0.75796 0.382307,-0.04332 0.763344,-0.0999 1.146924,-0.12995 3.519196,-0.275733 7.057456,0.151122 10.509572,0.818015 0.861145,0.204676 1.729063,0.382698 2.583434,0.614026 2.411849,0.653031 4.744741,1.583185 6.968493,2.718271 0,0 -3.062367,-2.469954 -3.062367,-2.469954 z" /><path
       style="fill:#666666;fill-opacity:1;stroke:#666666;stroke-width:0.165"
       id="path939"
       d="m 59.926243,41.205206 c -1.796939,-0.353883 -3.625903,-0.520557 -5.449946,-0.656513 -2.763051,-0.205944 -4.652007,-0.318876 -7.479855,-0.233741 -1.410824,0.04247 -2.817154,0.180417 -4.225732,0.270627 -3.437313,0.330866 -6.79427,1.136843 -10.040593,2.298001 -0.704181,0.251875 -1.388801,0.5554 -2.083202,0.833101 0,0 2.946691,1.96505 2.946691,1.96505 v 0 c 0.653608,-0.295045 1.294762,-0.619403 1.960827,-0.885139 3.127684,-1.247834 6.39327,-2.064306 9.748845,-2.394189 1.409451,-0.07967 2.816796,-0.218818 4.228354,-0.239006 1.39574,-0.01995 2.792272,0.04055 4.185967,0.118679 1.173253,0.06577 2.342899,0.188275 3.511373,0.312828 1.953123,0.20819 3.906298,0.482788 5.810647,0.974434 0,0 -3.113376,-2.364132 -3.113376,-2.364132 z" /><path
       style="fill:#666666;fill-opacity:1;stroke:#666666;stroke-width:0.165"
       id="path987"
       d="m 122.19346,47.295519 c -0.16374,-0.221718 -0.30989,-0.457575 -0.49122,-0.665154 -1.65284,-1.892033 -3.66502,-3.41299 -5.82444,-4.686038 -5.33562,-3.14551 -4.53426,-2.678586 -8.92079,-4.562528 -2.92905,-1.099974 -5.89949,-2.249543 -9.018563,-2.687426 -0.41179,-0.05781 -0.829156,-0.06442 -1.243732,-0.09662 0,0 3.017782,2.225825 3.017782,2.225825 v 0 c 0.382963,0.02516 0.768203,0.02682 1.148903,0.07546 3.00433,0.383876 5.86924,1.471706 8.68446,2.530565 1.02136,0.447151 2.03,0.92455 3.06407,1.341454 0.0496,0.02 0.10862,-0.07162 0.15436,-0.04389 2.00138,1.213223 3.91447,2.557627 5.41742,4.37239 0.15264,0.184314 0.26293,0.399945 0.3944,0.599917 0,0 3.61735,1.596048 3.61735,1.596048 z" /><path
       style="fill:#666666;fill-opacity:1;stroke:#666666;stroke-width:0.165"
       id="path1081"
       d="m 31.595833,55.449345 c -0.904774,0.09292 -0.544182,0.02328 -1.78445,0.408181 -1.666301,0.517125 -1.972556,0.586483 -3.5736,1.576678 -0.673934,0.416806 -1.359263,0.833036 -1.945299,1.366396 -0.62364,0.567584 -1.104457,1.274553 -1.656685,1.911832 -0.422681,0.719095 -0.905021,1.406308 -1.268043,2.157288 -0.885735,1.832316 -1.351992,3.874328 -1.55341,5.8895 -0.04426,0.44282 -0.04501,0.888913 -0.06752,1.333371 0,0 3.312586,1.695828 3.312586,1.695828 v 0 c -0.0055,-0.445804 -0.03659,-0.89203 -0.01647,-1.337413 0.08992,-1.990617 0.486947,-4.024225 1.341766,-5.836666 0.346334,-0.734312 0.820288,-1.401347 1.230429,-2.10202 0.544666,-0.608165 1.019603,-1.286872 1.634,-1.8245 0.588193,-0.514699 1.266593,-0.921676 1.945953,-1.308142 1.551921,-0.882841 3.225405,-1.416407 4.99556,-1.608064 0.200716,-0.02172 0.403773,0.0021 0.605658,0.003 0,0 -3.200482,-2.325288 -3.200482,-2.325288 z" /><path
       style="fill:#666666;fill-opacity:1;stroke:#666666;stroke-width:0.165"
       id="path1093"
       d="m 31.900586,84.494727 c -0.487949,0.265911 -0.960421,0.492119 -1.365832,0.899453 -1.422561,1.429311 -2.22944,3.398105 -2.616264,5.349243 -0.176646,0.890995 -0.208514,1.80467 -0.312771,2.707008 0.01161,0.998345 -0.02154,1.998215 0.03483,2.995045 0.231978,4.102324 1.164126,8.243934 2.279548,12.191254 0.126178,0.38126 0.252355,0.76252 0.378532,1.14378 0,0 3.39317,1.58129 3.39317,1.58129 v 0 c -0.156001,-0.3884 -0.312002,-0.7768 -0.468,-1.1652 -0.180491,-0.53393 -0.375113,-1.06328 -0.541467,-1.60178 -1.061178,-3.43505 -1.844477,-7.01737 -2.027204,-10.615804 -0.04952,-0.97514 -0.0024,-1.9528 -0.0035,-2.92921 0.114885,-0.873356 0.156242,-1.759578 0.344659,-2.620077 0.410044,-1.872679 1.231048,-3.737734 2.728881,-4.990806 0.484373,-0.40522 0.88065,-0.516023 1.426215,-0.720164 0,0 -3.250803,-2.224032 -3.250803,-2.224032 z" /><path
       style="fill:#666666;fill-opacity:1;stroke:#666666;stroke-width:0.165"
       id="path1143"
       d="m 44.054122,110.99085 c 0.03575,0.24021 0.04139,0.48686 0.10724,0.72061 0.279591,0.99251 0.794377,2.03244 1.312876,2.89909 0.926455,1.54851 2.041099,3.05016 3.238918,4.39592 0.666083,0.74835 1.401517,1.43197 2.102273,2.14795 0.738286,0.61923 1.445996,1.27686 2.214859,1.85769 0.711743,0.53767 1.453121,1.03876 2.220738,1.49311 2.702838,1.59983 5.465442,3.2932 8.525454,4.14625 0.42141,0.11748 0.85542,0.18388 1.283129,0.27582 1.259647,0.12387 0.669213,0.0994 1.770113,0.098 0,0 -3.112625,-2.26121 -3.112625,-2.26121 v 0 c -1.012473,-2.7e-4 -0.468251,0.0237 -1.631434,-0.096 -1.246362,-0.27295 -1.411978,-0.26512 -2.696056,-0.75966 -0.60642,-0.23356 -1.150001,-0.66499 -1.791475,-0.76893 -0.347115,-0.0562 1.156403,0.79919 0.855474,0.61727 -2.443035,-1.47683 -2.259769,-1.46327 -4.519226,-3.30777 -0.697693,-0.7023 -1.432655,-1.36943 -2.093076,-2.10689 -1.686682,-1.88342 -3.543504,-4.4332 -4.21209,-6.92746 -0.05009,-0.18688 -0.05659,-0.3828 -0.08488,-0.5742 0,0 -3.490213,-1.8495 -3.490213,-1.8495 z" /><path
       style="fill:#666666;fill-opacity:1;stroke:#666666;stroke-width:0.165"
       id="path1149"
       d="m 86.129737,125.36899 c 2.074568,0.96697 4.319285,1.80279 6.5577,2.2798 0.950809,0.20262 1.910649,0.38692 2.880133,0.45902 1.06512,0.0792 2.13612,-0.004 3.20418,-0.007 3.38489,-0.32432 6.33463,-1.31561 9.29227,-2.97013 1.46286,-0.81834 2.99891,-1.91971 4.30408,-2.98522 0.48958,-0.39969 0.94485,-0.83966 1.41728,-1.25949 0,0 -3.07191,-1.89706 -3.07191,-1.89706 v 0 c -1.24682,1.22388 -1.62782,1.67658 -3.12311,2.766 -2.48083,1.80746 -5.21558,3.21099 -8.22405,3.90396 -1.07907,0.24855 -2.19124,0.32118 -3.28685,0.48178 -1.07272,-0.0235 -2.15031,0.0343 -3.218163,-0.0704 -0.981916,-0.0963 -1.951802,-0.30354 -2.911893,-0.53082 -2.36988,-0.56102 -4.721074,-1.49591 -6.87035,-2.63928 0,0 3.050683,2.46836 3.050683,2.46836 z" /><path
       style="fill:#666666;fill-opacity:1;stroke:#666666;stroke-width:0.165"
       id="path1153"
       d="m 121.62407,109.85603 c 1.26394,0.4317 2.63219,0.30552 3.88703,-0.0964 0.41395,-0.1326 0.81135,-0.3122 1.21703,-0.46829 0.44057,-0.31632 0.91001,-0.59589 1.32172,-0.94895 2.11537,-1.81402 3.58661,-4.31912 4.56448,-6.89973 0.26294,-0.69388 0.45466,-1.4127 0.68198,-2.119041 0.6528,-2.5858 0.36577,-1.33222 0.87248,-3.7581 0,0 -3.20009,-1.707517 -3.20009,-1.707517 v 0 c -0.42409,2.436137 -0.17083,1.181216 -0.77479,3.761707 -0.22182,0.69539 -0.40727,1.40346 -0.66547,2.08618 -0.95242,2.518391 -2.41723,4.981951 -4.56778,6.661021 -0.4123,0.32191 -0.8843,0.559 -1.32645,0.83851 -0.40046,0.13925 -0.79172,0.30848 -1.20138,0.41774 -1.29317,0.34492 -2.68299,0.33422 -3.9117,-0.22568 0,0 3.10294,2.45858 3.10294,2.45858 z" /><path
       style="fill:#666666;fill-opacity:1;stroke:#666666;stroke-width:0.165"
       id="path1157"
       d="m 129.60232,76.335468 c 0.86926,-0.838546 1.40333,-1.951421 1.806,-3.075156 0.16561,-0.462172 0.3341,-0.926323 0.43861,-1.40602 0.12803,-0.587616 0.1712,-1.190554 0.25681,-1.785832 -0.007,-0.719862 0.0358,-1.441982 -0.0215,-2.15959 -0.2541,-3.178344 -1.21996,-6.421606 -2.45673,-9.348824 -0.23096,-0.546645 -0.49478,-1.07882 -0.74217,-1.618229 0,0 -3.29955,-1.498907 -3.29955,-1.498907 v 0 c 0.71409,1.418963 1.1003,2.100242 1.67536,3.638061 0.8616,2.30411 1.49332,4.749951 1.65248,7.212737 0.0446,0.690637 -0.0119,1.384102 -0.0179,2.076151 -0.0957,0.567875 -0.15136,1.143963 -0.28706,1.703628 -0.11227,0.463016 -0.28037,0.911643 -0.45458,1.355082 -0.41417,1.054246 -0.96841,2.112431 -1.89413,2.801165 0,0 3.34436,2.105734 3.34436,2.105734 z" /></g></svg>
