<?xml version="1.0" encoding="UTF-8" standalone="no"?>
<!-- Created with Inkscape (http://www.inkscape.org/) -->

<svg
   width="160mm"
   height="162mm"
   viewBox="0 0 160 162"
   version="1.1"
   id="svg5"
   xml:space="preserve"
   inkscape:version="1.2.2 (b0a8486541, 2022-12-01)"
   sodipodi:docname="front-walking-1.svg"
   xmlns:inkscape="http://www.inkscape.org/namespaces/inkscape"
   xmlns:sodipodi="http://sodipodi.sourceforge.net/DTD/sodipodi-0.dtd"
   xmlns="http://www.w3.org/2000/svg"
   xmlns:svg="http://www.w3.org/2000/svg"><sodipodi:namedview
     id="namedview7"
     pagecolor="#ffffff"
     bordercolor="#000000"
     borderopacity="0.25"
     inkscape:showpageshadow="2"
     inkscape:pageopacity="0.0"
     inkscape:pagecheckerboard="0"
     inkscape:deskcolor="#d1d1d1"
     inkscape:document-units="mm"
     showgrid="false"
     inkscape:zoom="1.5518659"
     inkscape:cx="220.70206"
     inkscape:cy="293.83982"
     inkscape:window-width="1920"
     inkscape:window-height="1051"
     inkscape:window-x="0"
     inkscape:window-y="0"
     inkscape:window-maximized="1"
     inkscape:current-layer="layer3" /><defs
     id="defs2" /><g
     inkscape:groupmode="layer"
     id="layer3"
     inkscape:label="Layer 2"
     style="display:inline"><path
       style="display:inline;fill:#fe9900;fill-opacity:1;stroke-width:0.5;stroke:#666666;stroke-opacity:1;stroke-dasharray:none"
       d="M 32.852192,47.136108 72.978608,33.251875 c 0,0 26.216075,-4.984674 35.722262,4.550668 9.5062,9.535345 20.65894,15.772504 23.09351,42.176058 2.43454,26.403559 -20.0481,40.333879 -20.0481,40.333879 0,0 -19.289157,10.89703 -33.503884,9.26316 C 64.027661,127.94179 39.280702,121.37169 32.526629,106.61272 25.772554,91.853753 25.429448,80.895539 24.780643,69.740038 24.131841,58.584533 32.306307,47.232068 32.852192,47.136108 Z"
       id="path7046" /><ellipse
       style="fill:#ffffff;fill-opacity:1;stroke:#666666;stroke-width:2.92279;stroke-dasharray:none;stroke-opacity:1"
       id="path13003"
       cx="60.92503"
       cy="68.670128"
       rx="6.8040218"
       ry="5.8937879" /><ellipse
       style="display:inline;fill:#ffffff;fill-opacity:1;stroke:#666666;stroke-width:2.92279;stroke-dasharray:none;stroke-opacity:1"
       id="path13003-7"
       cx="103.87921"
       cy="68.782471"
       rx="6.8040218"
       ry="5.8937879" /><rect
       style="fill:#cb726a;fill-opacity:1;stroke:#cb726a;stroke-width:1.26721;stroke-dasharray:none;stroke-opacity:1"
       id="rect15401"
       width="14.591033"
       height="28.035021"
       x="75.632744"
       y="73.458267" /><path
       style="fill:#666666;fill-opacity:1;stroke:#666666;stroke-width:1.16392;stroke-dasharray:none;stroke-opacity:1"
       id="path16298"
       d="m 75.214157,105.57801 c -0.0062,-0.1065 -0.01697,-0.21291 -0.01834,-0.31958 -0.0048,-0.37818 0.02928,-1.31434 0.03733,-1.57853 0.01779,-0.58409 0.02623,-1.16852 0.05371,-1.75227 0.03907,-0.83006 0.260339,-4.223334 0.305665,-4.930942 0.368125,-6.119281 0.480024,-12.249087 0.629103,-18.375805 0.04631,-2.111201 0.108688,-4.222012 0.175139,-6.332711 0,0 -2.3267,-1.129395 -2.3267,-1.129395 v 0 c 0.04648,2.150755 0.08593,4.301709 0.07756,6.453063 -0.02739,6.117398 -0.14345,12.239044 -0.672899,18.338735 -0.252054,2.651318 -0.202037,2.328569 -0.509257,4.830455 -0.130645,1.06396 -0.303066,2.12772 -0.416788,3.19383 -0.01072,0.10019 -0.01221,0.20122 -0.01834,0.30184 0,0 2.683797,1.30131 2.683797,1.30131 z" /><path
       style="fill:#666666;fill-opacity:1;stroke:#666666;stroke-width:1.23466;stroke-dasharray:none;stroke-opacity:1"
       id="path16300"
       d="m 76.958246,72.904467 c 2.153859,0.01566 4.283937,0.354982 6.404019,0.64318 1.693807,0.265181 3.415263,0.343434 5.123151,0.517368 1.161972,0.147936 2.330663,0.240324 3.503598,0.2947 0,0 -2.694064,-1.656982 -2.694064,-1.656982 v 0 c -1.142306,-0.04397 -2.279081,-0.143638 -3.413668,-0.261753 -1.685076,-0.159981 -3.377204,-0.270168 -5.05416,-0.48646 -2.200235,-0.271074 -4.39649,-0.595525 -6.617347,-0.722613 0,0 2.748471,1.67256 2.748471,1.67256 z" /><path
       style="fill:#666666;fill-opacity:1;stroke:#666666;stroke-width:0.217723;stroke-dasharray:none;stroke-opacity:1"
       id="path16302"
       d="m 90.051674,72.655585 c 0.140853,2.858866 0.182257,5.720849 0.18682,8.583277 0.04609,5.610911 -0.339258,11.208995 -0.853147,16.788142 -0.294856,2.843816 -0.147617,1.489791 -0.438048,4.062586 0,0 2.297845,1.29148 2.297845,1.29148 v 0 c 0.178407,-2.63171 0.08113,-1.24984 0.294092,-4.145412 0.424618,-5.594297 0.83364,-11.194905 0.851165,-16.811659 0.07644,-2.773676 0.191474,-5.545744 0.304133,-8.317866 0,0 -2.64286,-1.450548 -2.64286,-1.450548 z" /><path
       style="fill:#666666;fill-opacity:1;stroke:#666666;stroke-width:0.185383;stroke-dasharray:none;stroke-opacity:1"
       id="path16312"
       d="m 76.000762,101.68723 c 0.710592,0.16814 1.413882,0.37894 2.130427,0.51003 1.783903,0.32636 3.587352,0.5163 5.381553,0.73181 2.429952,0.24818 4.869881,0.44471 7.309631,0.425 0,0 -1.922253,-1.70424 -1.922253,-1.70424 v 0 c -2.347457,0.12985 -4.702136,0.005 -7.042664,-0.2271 -2.629884,-0.32581 -5.284056,-0.64441 -7.82247,-1.599545 0,0 1.965776,1.864045 1.965776,1.864045 z" /><path
       style="fill:#666666;fill-opacity:1;stroke:#666666;stroke-width:0;stroke-dasharray:none"
       id="path522"
       d="m 55.944467,44.045342 c -0.981586,-0.307258 -1.921933,-0.738278 -2.900392,-1.052878 -1.337016,-0.429889 -3.297393,-0.939622 -4.629991,-1.179232 -1.0361,-0.186298 -2.085232,-0.290975 -3.127846,-0.436464 -1.13116,-0.0226 -2.264968,-0.148371 -3.393474,-0.06775 -2.603431,0.185989 -4.75692,0.769967 -7.145952,1.825226 -2.155917,0.952288 -4.284691,2.355247 -6.197195,3.72206 -0.800248,0.571913 -1.561693,1.196261 -2.34254,1.794389 0,0 2.870358,1.804998 2.870358,1.804998 v 0 c 0.74622,-0.610751 1.466572,-1.254554 2.238663,-1.832256 1.88568,-1.410922 3.915862,-2.756307 6.090309,-3.688045 2.379869,-1.019757 4.561281,-1.548503 7.143231,-1.684465 1.133893,-0.05971 2.269382,0.08382 3.404074,0.125733 1.062683,0.172929 2.133237,0.302985 3.188049,0.518787 2.734775,0.559501 5.331169,1.549289 7.917479,2.569586 0,0 -3.114773,-2.419689 -3.114773,-2.419689 z" /><path
       style="fill:#666666;fill-opacity:1;stroke:#666666;stroke-width:0.265;stroke-dasharray:none"
       id="path564"
       d="m 47.227032,113.95062 c -0.323001,1.99433 0.184142,4.1035 1.402921,5.73323 0.459359,0.61425 1.055912,1.1128 1.58387,1.66919 3.252248,2.30572 2.892078,2.18097 7.722695,4.54312 1.297445,0.63444 4.268772,1.59289 5.667095,2.00403 1.958694,0.5759 2.866054,0.75221 4.799557,1.19025 0,0 -2.812849,-2.13883 -2.812849,-2.13883 v 0 c -0.7152,-0.1546 -1.434354,-0.29191 -2.145596,-0.46378 -1.78939,-0.4324 -3.562064,-0.9321 -5.293889,-1.56052 -0.96539,-0.3503 -1.876343,-0.85001 -2.859336,-1.14736 -0.153935,-0.0466 0.442785,0.45612 0.304242,0.37445 -0.737225,-0.43458 -1.414381,-0.96382 -2.121572,-1.44573 -0.51788,-0.51799 -1.103535,-0.97612 -1.553639,-1.55398 -1.155308,-1.48324 -1.672929,-3.47825 -1.221708,-5.30603 0,0 -3.471791,-1.89804 -3.471791,-1.89804 z" /><path
       style="fill:#666666;fill-opacity:1;stroke:#666666;stroke-width:0.065;stroke-dasharray:none"
       id="path584"
       d="m 96.080115,127.25379 c 1.210094,0.27309 2.438005,0.46799 3.679445,0.52403 0.73268,0.0331 1.47143,0.0938 2.20025,0.0118 2.35874,-0.26554 3.33527,-0.80396 5.5732,-1.6494 2.78613,-1.30607 5.30639,-3.07265 7.58109,-5.13609 1.38431,-1.25576 1.99866,-2.01163 3.2002,-3.36313 0,0 -3.05611,-1.83943 -3.05611,-1.83943 v 0 c -1.16703,1.43088 -1.62878,2.08294 -3.02972,3.40127 -2.21159,2.08117 -4.70562,3.81192 -7.48078,5.05807 -0.96496,0.33484 -1.90534,0.75138 -2.89487,1.00453 -0.89894,0.22998 -1.82316,0.37468 -2.74879,0.4393 -0.74869,0.0523 -1.501911,-0.0266 -2.249715,-0.0903 -1.32467,-0.11288 -2.62556,-0.39484 -3.904765,-0.74501 0,0 3.130565,2.38439 3.130565,2.38439 z" /><path
       style="fill:#666666;fill-opacity:1;stroke:#666666;stroke-width:0;stroke-dasharray:none"
       id="path1360"
       d="m 34.725162,92.203774 c -1.108829,0.627447 -2.057437,1.506662 -2.869533,2.484113 -0.440931,0.530709 -0.872334,1.075357 -1.225981,1.667807 -0.895623,1.5004 -1.302753,2.79774 -1.914102,4.419696 -0.18647,0.69909 -0.417198,1.38785 -0.559411,2.09727 -0.346744,1.72969 -0.479097,3.88977 0.632261,5.39932 0.15212,0.20662 0.364456,0.36126 0.546685,0.54189 4.020532,2.27254 2.387791,2.0877 4.401661,2.21933 0,0 -3.118971,-2.33493 -3.118971,-2.33493 v 0 c -1.483191,-0.35334 -0.579353,-0.18678 2.27643,1.5556 -0.209378,-0.15125 -0.447895,-0.26875 -0.628137,-0.45377 -1.277887,-1.31171 -1.26442,-3.56864 -0.987745,-5.23777 0.11689,-0.70518 0.333412,-1.39019 0.50012,-2.08528 0.274884,-0.73702 0.503301,-1.49307 0.824651,-2.21105 1.047652,-2.340706 2.464671,-4.263306 4.700122,-5.569755 0.221406,-0.129395 0.464672,-0.217109 0.69701,-0.325663 0,0 -3.27506,-2.166808 -3.27506,-2.166808 z" /><path
       style="fill:#666666;fill-opacity:1;stroke:#666666;stroke-width:0;stroke-dasharray:none"
       id="path1370"
       d="m 125.08647,105.18557 c 1.01609,0.40473 2.07142,0.80661 3.19097,0.63696 0.32613,-0.0494 0.63659,-0.1731 0.95488,-0.25965 0.32384,-0.1941 0.67913,-0.34342 0.97151,-0.58229 0.95188,-0.77767 1.29006,-1.46337 1.8116,-2.6124 0.85488,-1.88346 1.3464,-3.898328 1.86015,-5.891895 0.12141,-0.532198 0.24281,-1.064397 0.36421,-1.596596 0,0 -3.22461,-1.72707 -3.22461,-1.72707 v 0 c -0.10086,0.538199 -0.20172,1.076399 -0.30258,1.614596 -0.46404,1.974797 -0.92162,3.961817 -1.8365,5.790635 -0.49698,0.99343 -0.94435,1.71904 -1.83289,2.36317 -0.28354,0.20554 -0.62335,0.31936 -0.93502,0.47905 -0.30529,0.0581 -0.60591,0.15166 -0.91585,0.1742 -1.13445,0.0825 -2.19751,-0.40606 -3.20795,-0.84706 0,0 3.10208,2.45835 3.10208,2.45835 z" /><path
       style="fill:#666666;stroke:#666666;stroke-width:0.165"
       id="path233"
       d="m 30.66325,66.450778 c -0.703871,-0.169153 -1.532781,-0.257225 -2.237452,-0.03277 -1.128463,0.359437 -2.220983,1.13061 -3.070531,1.918396 -0.596197,0.552855 -1.098786,1.198777 -1.648178,1.798164 -0.487923,0.7318 -1.046996,1.42087 -1.463769,2.195404 -1.249115,2.321367 -1.829681,4.929563 -2.065091,7.533753 -0.06172,0.682731 -0.05306,1.370005 -0.0796,2.055006 0,0 3.178858,1.627193 3.178858,1.627193 v 0 c -0.0025,-1.826647 -0.07804,-2.578873 0.254768,-4.444693 0.320816,-1.798606 0.801807,-3.413189 1.690859,-5.0218 0.416667,-0.753901 0.979899,-1.416936 1.469849,-2.125403 0.559655,-0.566748 1.06952,-1.187413 1.678961,-1.700247 1.62061,-1.363713 3.35112,-2.133925 5.392071,-1.363398 0,0 -3.10075,-2.439601 -3.10075,-2.439601 z" /><path
       style="fill:#666666;stroke:#666666;stroke-width:0.165"
       id="path247"
       d="m 128.92565,77.00883 c 0.79172,-0.221747 1.60773,-0.555635 2.19999,-1.149884 0.49572,-0.497382 0.59441,-0.803947 0.9176,-1.422207 0.0799,-0.389993 0.20236,-0.773642 0.23973,-1.16998 0.18284,-1.939046 -0.31164,-3.915619 -0.7876,-5.773925 -0.41137,-1.606095 -0.92947,-3.243223 -1.41291,-4.829003 -0.21842,-0.679825 -0.43683,-1.359651 -0.65525,-2.03948 0,0 -3.21281,-1.50836 -3.21281,-1.50836 v 0 c 0.23893,0.686459 0.47787,1.372918 0.7168,2.059374 0.72401,2.313104 1.46931,4.62748 1.8663,7.02579 0.17629,1.065073 0.29514,2.201781 0.16996,3.28561 -0.0412,0.356806 -0.1628,0.699664 -0.2442,1.049496 -0.30137,0.562094 -0.38158,0.828696 -0.85071,1.264351 -0.58631,0.544467 -1.38606,0.827058 -2.16669,0.913828 0,0 3.21979,2.29439 3.21979,2.29439 z" /><path
       style="fill:#666666;stroke:#666666;stroke-width:0.165"
       id="path276"
       d="m 120.23124,52.998951 c 0.0422,-2.399313 -0.51115,-4.818065 -1.33535,-7.061707 -0.26807,-0.729742 -0.60659,-1.43164 -0.90989,-2.147459 -0.43088,-0.699762 -0.83404,-1.417376 -1.29265,-2.099289 -0.4304,-0.639961 -0.89902,-1.253829 -1.37208,-1.862934 -1.18772,-1.529286 -2.43362,-2.895015 -3.89731,-4.155551 0,0 -3.52646,-1.420363 -3.52646,-1.420363 v 0 c 0.25645,0.201115 0.52132,0.39193 0.76935,0.603343 1.77381,1.511943 3.51013,3.522808 4.83219,5.426472 0.45887,0.660744 0.86048,1.359468 1.29072,2.039204 0.3027,0.701755 0.64477,1.387811 0.90812,2.105263 0.78581,2.140805 1.27628,4.470292 1.02885,6.754247 0,0 3.50451,1.818774 3.50451,1.818774 z" /><path
       style="fill:#666666;stroke:#666666;stroke-width:0.165"
       id="path284"
       d="m 93.459323,39.744906 c 0.935439,-0.714915 0.922499,-1.724432 0.178776,-2.637994 -0.305131,-0.374808 -0.698355,-0.668321 -1.04753,-1.002482 -2.679084,-1.823791 -2.783541,-1.970789 -6.834582,-3.95406 -0.852996,-0.417603 -1.754248,-0.73954 -2.666336,-1.004284 -1.801696,-0.522968 -4.729575,-0.998818 -6.589173,-1.172441 -1.060217,-0.09899 -2.127289,-0.100449 -3.190933,-0.150672 -2.307227,-0.02093 -4.62067,0.102595 -6.897182,0.49344 -0.434054,0.07452 -0.861475,0.183557 -1.292212,0.275336 0,0 3.070379,2.124157 3.070379,2.124157 v 0 c 0.39838,-0.103246 0.792416,-0.225012 1.195144,-0.309737 2.174092,-0.45738 4.397327,-0.613347 6.615811,-0.6077 1.046832,0.05053 2.097447,0.04933 3.140501,0.151579 2.09424,0.205296 4.612288,0.659829 6.620737,1.293778 0.929786,0.293479 1.768041,0.856907 2.715467,1.087158 0.344003,0.0836 -1.162794,-0.803522 -0.851866,-0.634252 0.535503,0.291531 1.019683,0.668782 1.529524,1.003171 0.829511,0.719685 2.52112,1.927481 0.97494,2.899955 0,0 3.328535,2.145048 3.328535,2.145048 z" /></g></svg>
