<?xml version="1.0" encoding="UTF-8" standalone="no"?>
<svg xmlns:xlink="http://www.w3.org/1999/xlink" height="67.3px" width="36.65px" xmlns="http://www.w3.org/2000/svg">
  <g transform="matrix(1.0, 0.0, 0.0, 1.0, 17.4, 67.3)">
    <use height="67.3" transform="matrix(1.0, 0.0, 0.0, 1.0, -17.4, -67.3)" width="35.0" xlink:href="#shape0"/>
    <use height="2.5" transform="matrix(1.0, 0.0, 0.0, 1.0, 9.9, -53.35)" width="6.0" xlink:href="#sprite0"/>
    <use height="27.35" transform="matrix(1.0, 0.0, 0.0, 1.0, -16.2, -38.35)" width="35.45" xlink:href="#shape2"/>
  </g>
  <defs>
    <g id="shape0" transform="matrix(1.0, 0.0, 0.0, 1.0, 17.4, 67.3)">
      <path d="M11.7 -62.65 L11.65 -62.7 11.65 -62.95 11.7 -62.65 M-5.2 -1.0 L-6.0 -0.1 -7.3 -1.25 Q-6.7 -1.05 -6.0 -1.25 -5.65 -1.05 -5.2 -1.0 M-8.25 -1.9 L-8.95 -2.3 -8.85 -2.65 -8.45 -2.15 -8.25 -1.9 M-12.95 -57.0 L-13.1 -57.2 -13.15 -57.25 -13.15 -57.35 -12.95 -58.4 -12.8 -57.2 -12.95 -57.0 M-13.0 -60.75 L-13.3 -61.8 -12.85 -64.2 -12.1 -65.9 -11.75 -65.65 Q-12.3 -65.35 -12.45 -64.65 L-12.7 -63.55 -12.8 -62.5 -13.0 -60.75 M-7.55 -63.45 L-6.4 -62.7 -6.1 -62.05 -7.55 -63.45" fill="#e7e0dc" fill-rule="evenodd" stroke="none"/>
      <path d="M6.55 -45.6 L6.85 -45.75 6.5 -45.55 10.35 -47.15 Q12.2 -47.85 13.65 -48.7 15.35 -49.75 16.1 -51.1 L16.8 -52.9 16.95 -52.85 Q16.85 -51.55 17.45 -49.9 15.9 -47.75 15.5 -45.05 13.5 -43.0 14.4 -40.15 L14.3 -38.65 Q14.0 -31.0 15.55 -23.85 15.35 -23.05 15.4 -22.15 L15.35 -19.75 15.15 -19.45 15.0 -17.5 14.95 -17.2 14.4 -16.8 Q13.75 -16.25 12.95 -16.05 12.15 -15.7 11.3 -16.25 10.65 -16.65 10.2 -17.25 9.65 -17.95 10.8 -19.3 11.95 -20.65 11.75 -21.65 L11.65 -22.2 11.55 -23.55 Q11.55 -24.8 11.35 -24.95 11.15 -25.1 10.45 -26.8 9.7 -28.5 8.95 -29.15 L8.7 -29.1 Q8.8 -30.0 8.45 -30.8 7.95 -31.95 8.95 -32.3 9.9 -32.65 10.15 -33.45 10.4 -34.3 10.1 -35.3 L9.5 -37.2 8.7 -38.8 7.65 -39.95 6.3 -41.0 4.75 -41.7 Q3.9 -42.05 1.65 -40.05 -0.65 -38.05 -2.75 -35.4 -3.8 -34.1 -5.05 -33.8 L-6.25 -33.75 Q-7.05 -33.8 -7.5 -34.1 L-7.65 -34.2 -7.95 -34.35 -8.8 -35.05 Q-9.7 -36.45 -4.3 -38.3 2.45 -40.65 -1.45 -41.4 L-6.35 -42.15 -8.2 -42.1 -10.0 -41.95 -11.65 -41.5 -13.4 -40.8 Q-13.35 -43.35 -16.0 -44.0 L-16.4 -44.4 -16.65 -45.2 -17.05 -46.7 -17.15 -48.95 -16.85 -49.9 -15.35 -51.9 -15.3 -50.8 Q-15.15 -48.95 -14.3 -47.3 -13.45 -45.65 -11.6 -44.8 -10.05 -44.1 -8.05 -43.95 L-4.35 -43.85 -0.5 -44.1 3.25 -44.65 6.55 -45.6 M13.95 -14.0 L14.3 -14.1 14.35 -14.1 14.25 -14.0 13.85 -13.95 13.95 -14.0 M13.9 -13.45 L14.25 -13.6 Q16.55 -12.7 15.5 -10.65 L15.35 -9.95 Q14.75 -8.85 13.7 -8.5 L12.3 -8.15 11.8 -8.05 10.4 -8.2 Q10.0 -8.45 10.25 -8.85 L10.65 -9.05 11.05 -9.1 11.0 -9.35 11.05 -9.6 10.2 -9.15 Q10.3 -8.65 9.6 -8.05 L9.2 -8.1 Q7.15 -6.7 4.75 -6.5 L2.95 -6.65 Q2.0 -6.85 1.1 -7.2 L1.05 -7.2 0.45 -7.35 Q-0.35 -7.75 -0.6 -8.45 L-0.8 -8.2 Q-1.55 -7.35 -2.6 -7.1 -2.9 -7.05 -3.0 -7.35 L-3.0 -7.65 Q-4.15 -6.55 -3.8 -4.45 L-3.7 -4.2 -3.9 -3.5 -4.05 -2.7 Q-3.15 -2.5 -3.7 -1.45 -3.85 -1.15 -4.2 -1.1 L-5.2 -1.0 Q-5.65 -1.05 -6.0 -1.25 -6.7 -1.05 -7.3 -1.25 L-8.25 -1.9 -8.45 -2.15 -8.85 -2.65 -9.1 -3.5 -9.2 -5.0 -9.2 -5.95 -9.05 -6.65 Q-9.8 -8.55 -11.75 -9.65 -12.85 -11.5 -14.55 -12.9 L-14.6 -12.95 -14.6 -13.0 -15.2 -14.95 -13.9 -13.65 Q-12.15 -12.15 -10.05 -11.3 -8.0 -10.4 -5.7 -10.05 L-1.95 -9.75 -1.2 -9.8 -0.95 -9.8 1.9 -10.3 2.15 -10.3 4.05 -10.3 6.0 -10.3 7.85 -10.3 9.7 -10.35 11.3 -10.5 12.45 -12.15 13.9 -13.45" fill="#fefbf5" fill-rule="evenodd" stroke="none"/>
      <path d="M11.65 -62.95 L11.65 -62.7 11.7 -62.65 11.8 -62.6 11.85 -62.5 11.9 -62.0 12.25 -61.2 Q12.0 -60.35 12.3 -59.45 11.75 -58.75 12.05 -57.8 L12.0 -57.15 12.6 -56.95 12.65 -56.9 Q13.85 -56.55 14.55 -55.35 L14.6 -55.1 14.6 -55.05 14.75 -54.95 14.85 -54.7 14.85 -54.45 15.65 -53.7 Q16.15 -53.25 16.8 -52.9 L16.1 -51.1 Q15.35 -49.75 13.65 -48.7 12.2 -47.85 10.35 -47.15 L6.5 -45.55 6.85 -45.75 6.55 -45.6 Q7.65 -46.95 6.7 -47.35 L3.95 -48.6 Q2.15 -49.5 1.1 -51.1 0.05 -52.7 -0.3 -54.5 -0.7 -56.3 -0.65 -58.25 L-0.65 -58.5 0.0 -58.8 Q1.45 -58.6 2.55 -59.4 L2.6 -59.45 Q2.8 -59.7 2.65 -59.95 L2.7 -59.95 3.25 -60.8 Q5.1 -62.1 6.35 -64.5 L6.45 -64.7 6.6 -64.8 8.3 -65.7 9.35 -66.55 11.9 -66.95 Q11.55 -65.5 11.55 -64.25 L11.65 -63.4 11.65 -62.95 M14.25 -14.0 L13.9 -13.45 12.45 -12.15 11.3 -10.5 9.7 -10.35 7.85 -10.3 6.0 -10.3 4.05 -10.3 2.15 -10.3 1.9 -10.3 -0.95 -9.8 -1.2 -9.8 -1.95 -9.75 -5.7 -10.05 Q-8.0 -10.4 -10.05 -11.3 -12.15 -12.15 -13.9 -13.65 L-15.2 -14.95 Q-15.85 -17.4 -15.9 -20.0 L-16.2 -22.65 -15.35 -21.4 -12.7 -17.95 Q-11.2 -16.2 -9.05 -14.85 L-5.5 -12.7 Q-3.9 -11.65 -2.85 -11.65 L-0.7 -11.85 2.1 -11.8 5.2 -12.05 Q9.6 -12.75 13.85 -13.95 L14.25 -14.0 M-13.8 -38.65 L-13.6 -39.6 -13.4 -40.8 -11.65 -41.5 -10.0 -41.95 -8.2 -42.1 -6.35 -42.15 -1.45 -41.4 Q2.45 -40.65 -4.3 -38.3 -9.7 -36.45 -8.8 -35.05 L-10.2 -35.95 -11.75 -36.85 -13.05 -37.9 -13.8 -38.65 M-5.05 -33.8 Q-3.8 -34.1 -2.75 -35.4 -0.65 -38.05 1.65 -40.05 3.9 -42.05 4.75 -41.7 L6.3 -41.0 7.65 -39.95 8.7 -38.8 9.5 -37.2 10.1 -35.3 Q10.4 -34.3 10.15 -33.45 9.9 -32.65 8.95 -32.3 7.95 -31.95 8.45 -30.8 8.8 -30.0 8.7 -29.1 6.55 -29.05 6.15 -29.55 L6.1 -29.55 Q5.65 -30.15 5.55 -30.85 5.45 -31.55 4.95 -32.1 4.4 -32.7 -0.3 -26.7 -5.0 -20.7 -8.2 -23.6 -11.4 -26.55 -10.15 -28.15 -8.95 -29.8 -6.1 -28.2 -3.3 -26.6 -3.5 -30.2 L-3.85 -33.85 -5.05 -33.8" fill="#fce6a5" fill-rule="evenodd" stroke="none"/>
      <path d="M-0.65 -58.5 L-0.65 -58.25 Q-0.7 -56.3 -0.3 -54.5 0.05 -52.7 1.1 -51.1 2.15 -49.5 3.95 -48.6 L6.7 -47.35 Q7.65 -46.95 6.55 -45.6 L3.25 -44.65 -0.5 -44.1 -4.35 -43.85 -8.05 -43.95 Q-10.05 -44.1 -11.6 -44.8 -13.45 -45.65 -14.3 -47.3 -15.15 -48.95 -15.3 -50.8 L-15.35 -51.9 -15.15 -52.2 -15.05 -52.35 -15.15 -52.45 -14.9 -52.75 -13.9 -54.3 -12.8 -55.65 -12.6 -56.15 -12.75 -56.55 -12.8 -56.65 -12.95 -57.0 -12.8 -57.2 -12.95 -58.4 -13.0 -60.75 -12.8 -62.5 -12.7 -63.55 -12.45 -64.65 Q-12.15 -65.4 -11.2 -65.55 -9.3 -65.05 -7.8 -63.65 L-7.55 -63.45 -6.1 -62.05 -5.4 -61.35 Q-4.65 -60.65 -4.25 -59.8 -3.85 -59.55 -3.75 -59.0 -2.7 -58.15 -1.7 -58.55 L-0.65 -58.5 M14.95 -17.2 L14.65 -16.35 14.25 -15.65 14.25 -14.95 13.95 -14.2 13.95 -14.0 13.85 -13.95 Q9.6 -12.75 5.2 -12.05 L2.1 -11.8 -0.7 -11.85 -2.85 -11.65 Q-3.9 -11.65 -5.5 -12.7 L-9.05 -14.85 Q-11.2 -16.2 -12.7 -17.95 L-15.35 -21.4 -16.2 -22.65 -16.7 -24.15 -16.4 -26.9 Q-15.95 -30.15 -16.15 -33.15 -15.1 -34.2 -14.55 -35.9 L-14.45 -36.25 -13.8 -38.65 -13.05 -37.9 -11.75 -36.85 -10.2 -35.95 -8.8 -35.05 -7.95 -34.35 -7.65 -34.2 -7.5 -34.1 Q-7.05 -33.8 -6.25 -33.75 L-5.05 -33.8 -3.85 -33.85 -3.5 -30.2 Q-3.3 -26.6 -6.1 -28.2 -8.95 -29.8 -10.15 -28.15 -11.4 -26.55 -8.2 -23.6 -5.0 -20.7 -0.3 -26.7 4.4 -32.7 4.95 -32.1 5.45 -31.55 5.55 -30.85 5.65 -30.15 6.1 -29.55 L6.15 -29.55 Q6.55 -29.05 8.7 -29.1 L8.95 -29.15 Q9.7 -28.5 10.45 -26.8 11.15 -25.1 11.35 -24.95 11.55 -24.8 11.55 -23.55 L11.65 -22.2 11.75 -21.65 Q11.95 -20.65 10.8 -19.3 9.65 -17.95 10.2 -17.25 10.65 -16.65 11.3 -16.25 12.15 -15.7 12.95 -16.05 13.75 -16.25 14.4 -16.8 L14.95 -17.2" fill="#3d3d3d" fill-rule="evenodd" stroke="none"/>
      <path d="M-10.05 -9.6 L-10.05 -2.95 Q-10.05 -1.75 -9.25 -0.9 -8.35 -0.05 -6.45 0.0 -4.55 -0.05 -3.65 -0.9 -2.85 -1.75 -2.85 -2.95 L-2.85 -9.6 -4.4 -9.6 -4.4 -3.0 Q-4.4 -2.3 -4.8 -1.85 -5.35 -1.35 -6.45 -1.3 -7.5 -1.35 -8.1 -1.85 -8.55 -2.3 -8.55 -3.0 L-8.55 -9.6 -10.05 -9.6" fill="#4f1d17" fill-rule="evenodd" stroke="none"/>
      <path d="M13.85 -12.65 L13.85 -14.25 Q14.85 -14.15 15.55 -13.45 16.45 -12.6 16.45 -10.7 16.45 -8.9 15.55 -7.95 14.7 -7.2 13.45 -7.15 L6.85 -7.15 6.85 -8.65 13.4 -8.65 Q14.1 -8.7 14.6 -9.1 15.15 -9.7 15.15 -10.7 15.15 -11.8 14.6 -12.3 L13.85 -12.65" fill="#4f1d17" fill-rule="evenodd" stroke="none"/>
      <path d="M2.25 -58.65 Q3.2 -61.0 4.75 -62.65 L7.6 -65.15 10.2 -66.65 Q11.5 -67.25 11.7 -65.6 L12.05 -62.0 Q12.2 -60.1 11.65 -57.1 M2.0 -58.6 L1.0 -58.65 -0.25 -58.7 -0.65 -58.7 -1.4 -58.7 -3.55 -58.4 Q-4.15 -59.95 -5.7 -61.6 -7.25 -63.25 -8.55 -64.1 -9.9 -65.0 -11.2 -65.6 -12.5 -66.2 -12.65 -64.55 L-13.0 -60.95 Q-13.2 -59.05 -12.6 -56.05 M14.15 -41.25 L14.1 -39.45 14.0 -32.65 Q14.1 -28.8 14.85 -25.15 15.6 -21.55 15.05 -17.7 14.4 -13.95 12.15 -10.8 L9.85 -8.75 8.7 -8.2 M-12.95 -40.8 L-13.3 -40.1 -13.65 -39.45 -15.3 -35.15 Q-16.3 -31.5 -16.3 -27.55 L-15.85 -19.25 Q-15.4 -14.9 -13.7 -11.9 -12.05 -8.95 -8.9 -7.35" fill="none" stroke="#4f1d17" stroke-linecap="round" stroke-linejoin="round" stroke-width="1.0"/>
      <path d="M14.8 -43.7 Q17.6 -46.3 17.6 -49.65 17.6 -53.05 14.8 -55.65 L14.1 -54.9 Q16.55 -52.55 16.55 -49.65 16.55 -46.8 14.1 -44.4 L14.8 -43.7" fill="#4f1d17" fill-rule="evenodd" stroke="none"/>
      <path d="M-14.6 -41.8 L-13.85 -42.5 Q-16.35 -44.9 -16.35 -47.75 -16.35 -50.65 -13.85 -53.0 L-14.6 -53.75 Q-17.4 -51.15 -17.4 -47.75 -17.4 -44.4 -14.6 -41.8" fill="#4f1d17" fill-rule="evenodd" stroke="none"/>
      <path d="M10.3 -42.8 L9.55 -41.25 8.8 -41.25 9.35 -42.7 8.8 -42.7 8.8 -44.15 10.3 -44.15 10.3 -42.8 M13.2 -42.8 L12.45 -41.25 11.7 -41.25 12.25 -42.7 11.7 -42.7 11.7 -44.15 13.2 -44.15 13.2 -42.8" fill="#000000" fill-rule="evenodd" stroke="none"/>
    </g>
    <g id="sprite0" transform="matrix(1.0, 0.0, 0.0, 1.0, 3.0, 1.25)">
      <use height="2.5" transform="matrix(1.0, 0.0, 0.0, 1.0, -2.4, -1.25)" width="4.8" xlink:href="#shape1"/>
    </g>
    <g id="shape1" transform="matrix(1.0, 0.0, 0.0, 1.0, 2.4, 1.25)">
      <path d="M1.9 0.75 Q0.05 -0.4 -1.9 -0.75" fill="none" stroke="#4f1d17" stroke-linecap="round" stroke-linejoin="round" stroke-width="1.0"/>
    </g>
    <g id="shape2" transform="matrix(1.0, 0.0, 0.0, 1.0, 16.2, 38.35)">
      <path d="M-12.15 -24.3 L-12.15 -24.15 -12.25 -22.65 -12.15 -24.3 M-12.3 -16.8 Q-11.75 -15.05 -10.4 -13.85 L-9.9 -13.45 -10.25 -13.65 Q-12.05 -14.8 -12.3 -16.8 M-9.65 -21.7 L-9.6 -22.9 Q-9.4 -24.8 -9.45 -26.8 L-9.45 -26.85 Q-9.1 -24.7 -9.4 -22.55 L-9.6 -21.9 -9.65 -21.7" fill="#e7e0dc" fill-rule="evenodd" stroke="none"/>
      <path d="M-12.95 -35.6 L-14.3 -35.85 -14.55 -35.8 -14.05 -35.95 -12.95 -35.6 M-14.65 -32.35 L-14.5 -32.1 -14.6 -32.3 -14.65 -32.35" fill="#58463f" fill-rule="evenodd" stroke="none"/>
      <path d="M-12.95 -35.6 L-12.75 -35.5 -12.45 -35.2 -11.75 -34.45 -11.75 -34.35 -11.7 -34.3 -11.7 -34.25 -11.55 -34.15 -11.5 -33.9 -11.4 -33.7 -11.35 -33.65 -11.25 -33.55 -11.25 -33.25 -11.25 -33.2 -11.05 -32.85 -10.85 -32.4 Q-10.3 -30.95 -10.0 -29.4 L-9.95 -29.2 -9.65 -27.9 -9.45 -26.85 -9.45 -26.8 Q-9.4 -24.8 -9.6 -22.9 L-9.65 -21.7 -9.7 -21.7 -9.85 -20.9 -9.9 -20.5 -9.75 -19.75 -9.75 -19.55 -9.45 -18.85 -9.1 -18.05 -9.05 -17.9 -8.75 -17.2 -8.8 -17.2 -9.1 -16.85 -9.15 -16.0 Q-9.2 -15.1 -8.75 -14.35 L-9.8 -14.75 Q-10.2 -14.7 -10.3 -14.3 L-10.2 -14.05 -9.4 -13.6 -9.3 -13.15 -9.25 -13.1 -9.9 -13.45 -10.4 -13.85 Q-11.75 -15.05 -12.3 -16.8 L-12.3 -17.0 -12.25 -22.25 -12.25 -22.65 -12.15 -24.15 -12.15 -24.3 Q-11.9 -26.0 -12.35 -27.65 L-12.55 -28.35 -12.75 -28.95 -13.3 -31.05 -13.4 -31.05 -13.5 -31.15 -13.7 -31.15 -14.0 -31.5 -14.35 -32.05 -14.5 -32.1 -14.65 -32.35 -14.65 -32.65 -15.05 -33.2 -15.15 -33.3 -15.55 -34.25 -15.45 -35.3 -15.4 -35.35 -14.55 -35.8 -14.3 -35.85 -12.95 -35.6 M-5.3 -11.65 Q-5.3 -11.5 -5.4 -11.5 L-5.6 -11.55 -5.3 -11.65 M-6.7 -11.95 L-7.2 -12.15 -7.6 -12.3 -7.4 -12.35 Q-7.0 -12.25 -6.7 -11.95" fill="#fefbf5" fill-rule="evenodd" stroke="none"/>
      <path d="M-9.25 -13.1 L-9.3 -13.15 -9.4 -13.6 -10.2 -14.05 -10.3 -14.3 Q-10.2 -14.7 -9.8 -14.75 L-8.75 -14.35 -8.6 -14.15 -7.15 -13.05 -7.05 -12.95 -6.75 -12.85 -5.6 -12.75 -5.5 -12.8 -5.0 -12.1 -5.05 -11.9 -5.3 -11.65 -5.6 -11.55 -6.7 -11.95 Q-7.0 -12.25 -7.4 -12.35 L-7.6 -12.3 -8.05 -12.5 -9.25 -13.1 M-7.6 -12.3 L-7.8 -12.4 -8.05 -12.5 -7.8 -12.4 -7.6 -12.3" fill="#fce6a5" fill-rule="evenodd" stroke="none"/>
      <path d="M-8.75 -14.35 Q-9.2 -15.1 -9.15 -16.0 L-9.1 -16.7 -8.8 -17.05 -8.75 -17.05 -8.6 -17.1 -8.5 -17.05 -7.75 -16.1 -7.65 -16.05 -7.65 -16.0 -7.6 -16.0 -7.55 -16.05 -7.35 -16.1 -7.25 -16.05 Q-6.25 -15.75 -6.3 -15.15 L-6.15 -14.9 -5.8 -13.95 -5.4 -13.85 -5.2 -13.55 -5.5 -12.8 -5.6 -12.75 -6.75 -12.85 -7.05 -12.95 -7.15 -13.05 -8.6 -14.15 -8.75 -14.35" fill="#3d3d3d" fill-rule="evenodd" stroke="none"/>
      <path d="M-12.95 -35.6 L-14.3 -35.85 -14.55 -35.8 Q-16.1 -35.7 -15.6 -34.45 L-15.55 -34.25 -15.15 -33.3 -14.65 -32.35 -14.5 -32.1 -13.95 -31.4 Q-13.15 -30.25 -12.75 -28.95 L-12.55 -28.35 -12.45 -27.9 Q-12.1 -26.1 -12.15 -24.3 L-12.15 -24.15 -12.25 -22.65 -12.5 -20.8 Q-12.9 -18.9 -12.35 -17.05 L-12.3 -16.8 Q-11.75 -15.05 -10.4 -13.85 L-9.9 -13.45 -9.25 -13.1 M-9.65 -21.7 L-9.6 -22.9 Q-9.4 -24.8 -9.45 -26.8 L-9.45 -26.85 Q-9.5 -28.8 -10.0 -30.55 -10.5 -32.4 -11.4 -34.1 -12.0 -35.2 -12.95 -35.6 M-9.65 -21.7 Q-9.7 -20.35 -9.4 -19.1 -9.15 -18.1 -8.5 -17.2 L-7.75 -16.1 M-5.4 -11.5 L-5.6 -11.55 -6.7 -11.95 -7.2 -12.15 -7.6 -12.3 M-8.05 -12.5 L-9.25 -13.1 M-8.05 -12.5 L-7.8 -12.4 -7.6 -12.3" fill="none" stroke="#4f1d17" stroke-linecap="round" stroke-linejoin="round" stroke-width="1.0"/>
      <path d="M11.65 -29.75 L11.6 -29.85 11.55 -30.0 11.25 -30.75 11.2 -30.85 11.15 -30.95 11.15 -31.0 11.0 -31.45 10.9 -31.95 10.85 -32.0 Q10.7 -32.15 10.8 -32.45 L10.85 -32.7 11.0 -34.4 Q11.3 -35.6 11.85 -36.4 L11.9 -36.45 12.0 -36.6 12.15 -36.75 12.2 -36.8 12.25 -36.85 12.45 -37.05 12.55 -37.15 12.95 -37.4 14.3 -37.6 14.9 -37.8 15.25 -37.8 16.4 -37.4 Q17.05 -36.85 17.2 -35.95 L17.25 -35.55 17.75 -35.35 Q18.55 -34.85 18.7 -34.0 18.85 -33.15 18.25 -32.4 L17.95 -32.05 18.25 -31.2 Q18.4 -30.35 17.85 -29.65 L17.25 -29.15 16.85 -28.9 16.5 -28.8 16.45 -28.8 15.6 -28.8 15.05 -29.0 14.9 -28.85 14.05 -28.5 12.85 -28.7 Q12.15 -29.05 11.65 -29.75" fill="#fefbf5" fill-rule="evenodd" stroke="none"/>
      <path d="M12.95 -37.4 L14.3 -37.6 14.9 -37.8 15.25 -37.8 16.4 -37.4 Q17.05 -36.85 17.2 -35.95 L17.25 -35.55 17.75 -35.35 Q18.55 -34.85 18.7 -34.0 18.85 -33.15 18.25 -32.4 L17.95 -32.05 18.25 -31.2 Q18.4 -30.35 17.85 -29.65 L17.25 -29.15 16.85 -28.9 16.5 -28.8 16.45 -28.8 15.6 -28.8 15.05 -29.0 14.9 -28.85 14.05 -28.5 12.85 -28.7 Q12.15 -29.05 11.65 -29.75" fill="none" stroke="#4f1d17" stroke-linecap="round" stroke-linejoin="round" stroke-width="1.0"/>
    </g>
  </defs>
</svg>
