<?xml version="1.0" encoding="UTF-8" standalone="no"?><!DOCTYPE svg PUBLIC "-//W3C//DTD SVG 1.1//EN" "http://www.w3.org/Graphics/SVG/1.1/DTD/svg11.dtd"><svg width="122px" height="223px" version="1.1" xmlns="http://www.w3.org/2000/svg" xmlns:xlink="http://www.w3.org/1999/xlink" xml:space="preserve" xmlns:serif="http://www.serif.com/" style="fill-rule:evenodd;clip-rule:evenodd;stroke-linecap:round;stroke-linejoin:round;stroke-miterlimit:1.5;"><g id="bookshelf"><path d="M121.248,181.622L121.248,20.625L40.749,60.874L40.749,221.871L121.248,181.622Z" style="fill:#ae6e32;"/><g id="shelf"><path d="M121.248,20.625L40.749,60.874L0.5,40.749L80.998,0.5L121.248,20.625Z" style="fill:#ae6e32;"/><path d="M40.749,221.871L0.5,201.746L0.5,40.749L40.749,60.874L40.749,221.871Z" style="fill:#ae6e32;"/><path d="M121.248,181.622L40.749,221.871L0.5,201.746L0.5,40.749L40.749,60.874L40.749,221.871L121.248,181.622Z" style="fill:none;stroke:#000;stroke-width:1px;"/><path d="M121.248,20.625L40.749,60.874L121.248,20.625Z" style="fill:none;stroke:#000;stroke-width:1px;"/><path d="M121.248,181.622L121.248,20.625L80.998,0.5L0.5,40.749" style="fill:none;stroke:#000;stroke-width:1px;"/></g></g></svg>