<?xml version="1.0" encoding="UTF-8" standalone="no"?><!DOCTYPE svg PUBLIC "-//W3C//DTD SVG 1.1//EN" "http://www.w3.org/Graphics/SVG/1.1/DTD/svg11.dtd"><svg width="122px" height="223px" version="1.1" xmlns="http://www.w3.org/2000/svg" xmlns:xlink="http://www.w3.org/1999/xlink" xml:space="preserve" xmlns:serif="http://www.serif.com/" style="fill-rule:evenodd;clip-rule:evenodd;stroke-linecap:round;stroke-linejoin:round;stroke-miterlimit:1.5;"><g id="bookshelf"><g id="shelf"><path d="M121.248,20.625L40.749,60.874L0.5,40.749L80.998,0.5L121.248,20.625Z" style="fill:#ae6e32;"/><path d="M47.691,211.092L46.659,63.829L116.032,30.175C116.156,80.992 116.009,179.002 116.009,179.002L47.691,211.092Z" style="fill:#ae6e32;"/><path d="M121.248,181.622L40.749,221.871L40.749,60.874L121.248,20.625L121.248,181.622ZM47.691,211.092L116.009,179.002C116.009,179.002 116.156,80.992 116.032,30.175L46.659,63.829L47.691,211.092Z" style="fill:#ae6e32;"/><path d="M40.749,221.871L0.5,201.746L0.5,40.749L40.749,60.874L40.749,221.871Z" style="fill:#ae6e32;"/><path d="M121.248,181.622L40.749,221.871L0.5,201.746L0.5,40.749L40.749,60.874L40.749,221.871L121.248,181.622Z" style="fill:none;stroke:#000;stroke-width:1px;"/><path d="M121.248,20.625L40.749,60.874L121.248,20.625Z" style="fill:none;stroke:#000;stroke-width:1px;"/><path d="M121.248,181.622L121.248,20.625L80.998,0.5L0.5,40.749" style="fill:none;stroke:#000;stroke-width:1px;"/><path d="M46.659,213.677L116.009,179.002C116.009,179.002 116.206,79.935 116.081,29.118L46.659,63.829L46.659,213.677Z" style="fill:none;stroke:#000;stroke-width:1px;"/><g id="shelf1" serif:id="shelf"><path d="M116.081,163.912L116.081,158.71L46.771,193.365L46.659,198.623L116.081,163.912Z" style="fill:none;stroke:#000;stroke-width:1px;"/><path d="M116.123,178.945L100.955,171.475L116.081,163.912L116.123,178.945Z" style="fill:none;stroke:#000;stroke-width:1px;"/></g><g id="shelf2" serif:id="shelf"><path d="M116.123,143.366L116.123,138.164L46.813,172.819L46.7,178.077L116.123,143.366Z" style="fill:none;stroke:#000;stroke-width:1px;"/><path d="M115.73,158.792L100.563,151.322L115.689,143.759L115.73,158.792Z" style="fill:none;stroke:#000;stroke-width:1px;"/></g><g id="shelf3" serif:id="shelf"><path d="M116.123,123.41L116.123,118.207L46.813,152.862L46.7,158.121L116.123,123.41Z" style="fill:none;stroke:#000;stroke-width:1px;"/><path d="M115.73,138.536L100.563,131.066L115.689,123.503L115.73,138.536Z" style="fill:none;stroke:#000;stroke-width:1px;"/></g><g id="shelf4" serif:id="shelf"><path d="M116.081,103.546L116.081,98.344L46.771,132.999L46.659,138.257L116.081,103.546Z" style="fill:none;stroke:#000;stroke-width:1px;"/><path d="M116.123,118.579L100.955,111.109L116.081,103.546L116.123,118.579Z" style="fill:none;stroke:#000;stroke-width:1px;"/></g><g id="shelf5" serif:id="shelf"><path d="M116.081,83.29L116.081,78.088L46.771,112.743L46.659,118.001L116.081,83.29Z" style="fill:none;stroke:#000;stroke-width:1px;"/><path d="M116.123,98.323L100.955,90.853L116.081,83.29L116.123,98.323Z" style="fill:none;stroke:#000;stroke-width:1px;"/></g><g id="shelf6" serif:id="shelf"><path d="M116.081,63.034L116.081,57.832L46.771,92.487L46.659,97.745L116.081,63.034Z" style="fill:none;stroke:#000;stroke-width:1px;"/><path d="M116.123,78.067L100.955,70.597L116.081,63.034L116.123,78.067Z" style="fill:none;stroke:#000;stroke-width:1px;"/></g><path d="M115.73,57.656L87.368,43.475" style="fill:none;stroke:#000;stroke-width:1px;"/></g><g id="books"><g id="Books"><g id="big-blue" serif:id="big blue"><path d="M50.777,211.618L46.959,213.527L46.659,198.778L50.777,196.721L50.777,211.618Z" style="fill:#0d1996;"/><path d="M50.777,211.618L46.959,213.527L46.659,198.778L50.777,196.721L50.777,211.618Z" style="fill:none;stroke:#000;stroke-width:1px;"/></g><g id="big-green" serif:id="big green"><path d="M54.847,194.634L54.847,209.583L50.777,211.618L50.777,196.668L54.847,194.634Z" style="fill:#25960d;"/><path d="M54.847,194.634L50.777,196.668L50.777,211.618L54.847,209.583L54.847,194.634Z" style="fill:none;stroke:#000;stroke-width:1px;"/></g><g id="little-brown" serif:id="little brown"><path d="M54.847,198.253L54.847,195.25L58.134,196.653L54.847,198.253Z" style="fill:#fff;"/><path d="M58.134,196.653L58.263,207.875L54.847,209.583L54.847,198.253L58.134,196.653Z" style="fill:#96470d;"/><path d="M58.263,207.875L54.847,209.583L54.847,195.25L58.134,196.653L58.263,207.875Z" style="fill:none;stroke:#000;stroke-width:1px;"/><path d="M54.847,198.253L58.134,196.653" style="fill:none;stroke:#000;stroke-width:1px;"/></g><g id="medium-yellow" serif:id="medium yellow"><path d="M60.211,192.004L61.713,192.755L58.134,194.544L56.836,193.895L60.211,192.004Z" style="fill:#fff;"/><path d="M56.836,193.895L58.134,194.544L58.134,196.277L54.847,195.009L56.836,193.895Z" style="fill:#ffec00;"/><path d="M58.134,194.544L61.713,192.755L61.713,206.15L58.134,207.878L58.134,194.544Z" style="fill:#ffec00;"/><path d="M61.713,206.15L61.713,192.755L58.134,194.544L58.134,207.878L61.713,206.15Z" style="fill:none;stroke:#000;stroke-width:1px;"/><path d="M58.134,194.544L56.63,193.793" style="fill:none;stroke:#000;stroke-width:1px;"/><path d="M61.713,192.755L60.211,192.004" style="fill:none;stroke:#000;stroke-width:1px;"/><path d="M60.211,192.004L54.847,195.009L58.134,196.277" style="fill:none;stroke:#000;stroke-width:1px;"/></g></g><g id="Books1" serif:id="Books"><g id="big-blue1" serif:id="big blue"><path d="M72.263,200.856L68.444,202.766L68.145,188.017L72.263,185.96L72.263,200.856Z" style="fill:#0d1996;"/><path d="M72.263,200.856L68.444,202.766L68.145,188.017L72.263,185.96L72.263,200.856Z" style="fill:none;stroke:#000;stroke-width:1px;"/></g><g id="big-green1" serif:id="big green"><path d="M76.333,183.872L76.333,198.821L72.263,200.856L72.263,185.907L76.333,183.872Z" style="fill:#25960d;"/><path d="M76.333,183.872L72.263,185.907L72.263,200.856L76.333,198.821L76.333,183.872Z" style="fill:none;stroke:#000;stroke-width:1px;"/></g><g id="little-brown1" serif:id="little brown"><path d="M76.333,187.492L76.333,184.489L79.62,185.891L76.333,187.492Z" style="fill:#fff;"/><path d="M79.62,185.891L79.749,197.113L76.333,198.821L76.333,187.492L79.62,185.891Z" style="fill:#96470d;"/><path d="M79.749,197.113L76.333,198.821L76.333,184.489L79.62,185.891L79.749,197.113Z" style="fill:none;stroke:#000;stroke-width:1px;"/><path d="M76.333,187.492L79.62,185.891" style="fill:none;stroke:#000;stroke-width:1px;"/></g><g id="medium-yellow1" serif:id="medium yellow"><path d="M81.697,181.243L83.199,181.993L79.62,183.783L78.322,183.134L81.697,181.243Z" style="fill:#fff;"/><path d="M78.322,183.134L79.62,183.783L79.62,185.515L76.333,184.248L78.322,183.134Z" style="fill:#ffec00;"/><path d="M79.62,183.783L83.199,181.993L83.199,195.389L79.62,197.117L79.62,183.783Z" style="fill:#ffec00;"/><path d="M83.199,195.389L83.199,181.993L79.62,183.783L79.62,197.117L83.199,195.389Z" style="fill:none;stroke:#000;stroke-width:1px;"/><path d="M79.62,183.783L78.116,183.031" style="fill:none;stroke:#000;stroke-width:1px;"/><path d="M83.199,181.993L81.697,181.243" style="fill:none;stroke:#000;stroke-width:1px;"/><path d="M81.697,181.243L76.333,184.248L79.62,185.515" style="fill:none;stroke:#000;stroke-width:1px;"/></g><path d="M68.145,202.616L61.765,199.426L61.713,191.457L68.145,188.601L68.145,202.616Z" style="fill:#0d1996;stroke:#000;stroke-width:1px;"/><g id="Books2" serif:id="Books"><g id="big-blue2" serif:id="big blue"><path d="M87.294,193.341L83.475,195.25L83.176,180.501L87.294,178.444L87.294,193.341Z" style="fill:#ae3e32;stroke:#000;stroke-width:1px;"/></g><g id="big-green2" serif:id="big green"><path d="M91.364,176.357L91.364,191.306L87.294,193.341L87.294,178.392L91.364,176.357Z" style="fill:#a432ae;"/><path d="M91.364,176.357L87.294,178.392L87.294,193.341L91.364,191.306L91.364,176.357Z" style="fill:none;stroke:#000;stroke-width:1px;"/></g><g id="little-brown2" serif:id="little brown"><path d="M91.364,179.977L91.364,176.973L94.65,178.376L91.364,179.977Z" style="fill:#fff;"/><path d="M94.65,178.376L94.78,189.598L91.364,191.306L91.364,179.977L94.65,178.376Z" style="fill:#96470d;"/><g><clipPath id="_clip1"><path d="M94.65,178.376L94.78,189.598L91.364,191.306L91.364,179.977L94.65,178.376Z"/></clipPath><g clip-path="url(#_clip1)"><path d="M94.779,189.539L94.78,189.598L91.364,191.306L91.364,179.977L94.65,178.376L94.65,189.602L94.779,189.539Z" style="fill:#32aaae;"/></g></g><path d="M94.78,189.598L91.364,191.306L91.364,176.973L94.65,178.376L94.78,189.598Z" style="fill:none;stroke:#000;stroke-width:1px;"/><path d="M91.364,179.977L94.65,178.376" style="fill:none;stroke:#000;stroke-width:1px;"/></g><g id="medium-yellow2" serif:id="medium yellow"><path d="M96.728,173.727L98.23,174.478L94.65,176.267L93.352,175.618L96.728,173.727Z" style="fill:#fff;"/><path d="M93.352,175.618L94.65,176.267L94.65,178L91.364,176.732L93.352,175.618Z" style="fill:#ffec00;"/><path d="M94.65,176.267L98.23,174.478L98.23,187.873L94.65,189.602L94.65,176.267Z" style="fill:#ffec00;"/><path d="M98.23,187.873L98.23,174.478L94.65,176.267L94.65,189.602L98.23,187.873Z" style="fill:none;stroke:#000;stroke-width:1px;"/><path d="M94.65,176.267L93.147,175.516" style="fill:none;stroke:#000;stroke-width:1px;"/><path d="M98.23,174.478L96.728,173.727" style="fill:none;stroke:#000;stroke-width:1px;"/><path d="M96.728,173.727L91.364,176.732L94.65,178" style="fill:none;stroke:#000;stroke-width:1px;"/></g></g><g id="Books3" serif:id="Books"><g id="big-blue3" serif:id="big blue"><path d="M101.877,186.05L98.058,187.959L97.759,173.21L101.877,171.153L101.877,186.05Z" style="fill:#0d1996;"/><path d="M101.877,186.05L98.058,187.959L97.759,173.21L101.877,171.153L101.877,186.05Z" style="fill:none;stroke:#000;stroke-width:1px;"/></g><g id="big-green3" serif:id="big green"><path d="M105.946,169.065L105.946,184.015L101.877,186.05L101.877,171.1L105.946,169.065Z" style="fill:#32ae5f;"/><path d="M105.946,169.065L101.877,171.1L101.877,186.05L105.946,184.015L105.946,169.065Z" style="fill:none;stroke:#000;stroke-width:1px;"/></g><g id="little-brown3" serif:id="little brown"><path d="M105.946,172.685L105.946,169.682L109.233,171.084L105.946,172.685Z" style="fill:#fff;"/><path d="M109.233,171.084L109.363,182.307L105.946,184.015L105.946,172.685L109.233,171.084Z" style="fill:#96470d;"/><g><clipPath id="_clip2"><path d="M109.233,171.084L109.363,182.307L105.946,184.015L105.946,172.685L109.233,171.084Z"/></clipPath><g clip-path="url(#_clip2)"><path d="M109.362,182.248L109.363,182.307L105.946,184.015L105.946,172.685L109.233,171.084L109.233,182.31L109.362,182.248Z" style="fill:#ae3259;"/></g></g><path d="M109.363,182.307L105.946,184.015L105.946,169.682L109.233,171.084L109.363,182.307Z" style="fill:none;stroke:#000;stroke-width:1px;"/><path d="M105.946,172.685L109.233,171.084" style="fill:none;stroke:#000;stroke-width:1px;"/></g><g id="medium-yellow3" serif:id="medium yellow"><path d="M111.311,166.436L112.812,167.187L109.233,168.976L107.935,168.327L111.311,166.436Z" style="fill:#fff;"/><path d="M107.935,168.327L109.233,168.976L109.233,170.709L105.946,169.441L107.935,168.327Z" style="fill:#686868;"/><path d="M109.233,168.976L112.812,167.187L112.812,180.582L109.233,182.31L109.233,168.976Z" style="fill:#ffec00;"/><g><clipPath id="_clip3"><path d="M109.233,168.976L112.812,167.187L112.812,180.582L109.233,182.31L109.233,168.976Z"/></clipPath><g clip-path="url(#_clip3)"><path d="M112.812,167.187L112.812,180.582L109.362,182.248L109.233,171.084L109.233,168.976L112.812,167.187Z" style="fill:#686868;"/></g></g><path d="M112.812,180.582L112.812,167.187L109.233,168.976L109.233,182.31L112.812,180.582Z" style="fill:none;stroke:#000;stroke-width:1px;"/><path d="M109.233,168.976L107.729,168.224" style="fill:none;stroke:#000;stroke-width:1px;"/><path d="M112.812,167.187L111.311,166.436" style="fill:none;stroke:#000;stroke-width:1px;"/><path d="M111.311,166.436L105.946,169.441L109.233,170.709" style="fill:none;stroke:#000;stroke-width:1px;"/></g></g></g></g><g id="books1" serif:id="books"><g id="Books4" serif:id="Books"><g id="big-blue4" serif:id="big blue"><path d="M50.819,131.295L47,133.204L46.7,118.455L50.819,116.399L50.819,131.295Z" style="fill:#00e0ff;"/><path d="M50.819,131.295L47,133.204L46.7,118.455L50.819,116.399L50.819,131.295Z" style="fill:none;stroke:#000;stroke-width:1px;"/></g><g id="big-green4" serif:id="big green"><path d="M54.888,114.311L54.888,129.26L50.819,131.295L50.819,116.346L54.888,114.311Z" style="fill:#fb00ff;"/><path d="M54.888,114.311L50.819,116.346L50.819,131.295L54.888,129.26L54.888,114.311Z" style="fill:none;stroke:#000;stroke-width:1px;"/></g><g id="little-brown4" serif:id="little brown"><path d="M54.888,117.931L54.888,114.928L58.175,116.33L54.888,117.931Z" style="fill:#fff;"/><path d="M58.175,116.33L58.305,127.552L54.888,129.26L54.888,117.931L58.175,116.33Z" style="fill:#ff000a;"/><path d="M58.305,127.552L54.888,129.26L54.888,114.928L58.175,116.33L58.305,127.552Z" style="fill:none;stroke:#000;stroke-width:1px;"/><path d="M54.888,117.931L58.175,116.33" style="fill:none;stroke:#000;stroke-width:1px;"/></g><g id="medium-yellow4" serif:id="medium yellow"><path d="M60.253,111.682L61.754,112.432L58.175,114.222L56.877,113.573L60.253,111.682Z" style="fill:#fff;"/><path d="M56.877,113.573L58.175,114.222L58.175,115.954L54.888,114.687L56.877,113.573Z" style="fill:#0600ff;"/><path d="M58.175,114.222L61.754,112.432L61.754,125.827L58.175,127.556L58.175,114.222Z" style="fill:#0600ff;"/><path d="M61.754,125.827L61.754,112.432L58.175,114.222L58.175,127.556L61.754,125.827Z" style="fill:none;stroke:#000;stroke-width:1px;"/><path d="M58.175,114.222L56.671,113.47" style="fill:none;stroke:#000;stroke-width:1px;"/><path d="M61.754,112.432L60.253,111.682" style="fill:none;stroke:#000;stroke-width:1px;"/><path d="M60.253,111.682L54.888,114.687L58.175,115.954" style="fill:none;stroke:#000;stroke-width:1px;"/></g></g><g id="Books5" serif:id="Books"><g id="big-blue5" serif:id="big blue"><path d="M72.304,120.534L68.486,122.443L68.186,107.694L72.304,105.637L72.304,120.534Z" style="fill:#0dff00;"/><path d="M72.304,120.534L68.486,122.443L68.186,107.694L72.304,105.637L72.304,120.534Z" style="fill:none;stroke:#000;stroke-width:1px;"/></g><g id="big-green5" serif:id="big green"><path d="M76.374,103.549L76.374,118.499L72.304,120.534L72.304,105.584L76.374,103.549Z" style="fill:#25960d;"/><path d="M76.374,103.549L72.304,105.584L72.304,120.534L76.374,118.499L76.374,103.549Z" style="fill:none;stroke:#000;stroke-width:1px;"/></g><g id="little-brown5" serif:id="little brown"><path d="M76.374,107.169L76.374,104.166L79.661,105.569L76.374,107.169Z" style="fill:#fff;"/><path d="M79.661,105.569L79.79,116.791L76.374,118.499L76.374,107.169L79.661,105.569Z" style="fill:#ffec00;"/><path d="M79.79,116.791L76.374,118.499L76.374,104.166L79.661,105.569L79.79,116.791Z" style="fill:none;stroke:#000;stroke-width:1px;"/><path d="M76.374,107.169L79.661,105.569" style="fill:none;stroke:#000;stroke-width:1px;"/></g><g id="medium-yellow5" serif:id="medium yellow"><path d="M81.738,100.92L83.24,101.671L79.661,103.46L78.363,102.811L81.738,100.92Z" style="fill:#fff;"/><path d="M78.363,102.811L79.661,103.46L79.661,105.193L76.374,103.925L78.363,102.811Z" style="fill:#ffec00;"/><path d="M79.661,103.46L83.24,101.671L83.24,115.066L79.661,116.794L79.661,103.46Z" style="fill:#ffec00;"/><path d="M83.24,115.066L83.24,101.671L79.661,103.46L79.661,116.794L83.24,115.066Z" style="fill:none;stroke:#000;stroke-width:1px;"/><path d="M79.661,103.46L78.157,102.708" style="fill:none;stroke:#000;stroke-width:1px;"/><path d="M83.24,101.671L81.738,100.92" style="fill:none;stroke:#000;stroke-width:1px;"/><path d="M81.738,100.92L76.374,103.925L79.661,105.193" style="fill:none;stroke:#000;stroke-width:1px;"/></g><path d="M68.186,122.293L61.807,119.103L61.754,111.134L68.186,108.279L68.186,122.293Z" style="fill:#0dff00;stroke:#000;stroke-width:1px;"/><g id="Books6" serif:id="Books"><g id="big-blue6" serif:id="big blue"><path d="M87.335,113.018L83.517,114.928L83.217,100.178L87.335,98.122L87.335,113.018Z" style="fill:#ffec00;stroke:#000;stroke-width:1px;"/></g><g id="big-green6" serif:id="big green"><path d="M91.405,96.034L91.405,110.983L87.335,113.018L87.335,98.069L91.405,96.034Z" style="fill:#ab0025;"/><path d="M91.405,96.034L87.335,98.069L87.335,113.018L91.405,110.983L91.405,96.034Z" style="fill:none;stroke:#000;stroke-width:1px;"/></g><g id="little-brown6" serif:id="little brown"><path d="M91.405,99.654L91.405,96.651L94.692,98.053L91.405,99.654Z" style="fill:#fff;"/><path d="M94.692,98.053L94.821,109.275L91.405,110.983L91.405,99.654L94.692,98.053Z" style="fill:#96470d;"/><g><clipPath id="_clip4"><path d="M94.692,98.053L94.821,109.275L91.405,110.983L91.405,99.654L94.692,98.053Z"/></clipPath><g clip-path="url(#_clip4)"><path d="M94.821,109.217L94.821,109.275L91.405,110.983L91.405,99.654L94.692,98.053L94.692,109.279L94.821,109.217Z" style="fill:#474747;"/></g></g><path d="M94.821,109.275L91.405,110.983L91.405,96.651L94.692,98.053L94.821,109.275Z" style="fill:none;stroke:#000;stroke-width:1px;"/><path d="M91.405,99.654L94.692,98.053" style="fill:none;stroke:#000;stroke-width:1px;"/></g><g id="medium-yellow6" serif:id="medium yellow"><path d="M96.769,93.405L98.271,94.155L94.692,95.945L93.394,95.296L96.769,93.405Z" style="fill:#fff;"/><path d="M93.394,95.296L94.692,95.945L94.692,97.677L91.405,96.41L93.394,95.296Z" style="fill:#ffec00;"/><path d="M94.692,95.945L98.271,94.155L98.271,107.55L94.692,109.279L94.692,95.945Z" style="fill:#ffec00;"/><path d="M98.271,107.55L98.271,94.155L94.692,95.945L94.692,109.279L98.271,107.55Z" style="fill:none;stroke:#000;stroke-width:1px;"/><path d="M94.692,95.945L93.188,95.193" style="fill:none;stroke:#000;stroke-width:1px;"/><path d="M98.271,94.155L96.769,93.405" style="fill:none;stroke:#000;stroke-width:1px;"/><path d="M96.769,93.405L91.405,96.41L94.692,97.677" style="fill:none;stroke:#000;stroke-width:1px;"/></g></g><g id="Books7" serif:id="Books"><g id="big-blue7" serif:id="big blue"><path d="M101.918,105.727L98.099,107.636L97.8,92.887L101.918,90.83L101.918,105.727Z" style="fill:#0d1996;"/><path d="M101.918,105.727L98.099,107.636L97.8,92.887L101.918,90.83L101.918,105.727Z" style="fill:none;stroke:#000;stroke-width:1px;"/></g><g id="big-green7" serif:id="big green"><path d="M105.988,88.743L105.988,103.692L101.918,105.727L101.918,90.778L105.988,88.743Z" style="fill:#ff00eb;"/><path d="M105.988,88.743L101.918,90.778L101.918,105.727L105.988,103.692L105.988,88.743Z" style="fill:none;stroke:#000;stroke-width:1px;"/></g><g id="little-brown7" serif:id="little brown"><path d="M105.988,92.363L105.988,89.359L109.274,90.762L105.988,92.363Z" style="fill:#fff;"/><path d="M109.274,90.762L109.404,101.984L105.988,103.692L105.988,92.363L109.274,90.762Z" style="fill:#96470d;"/><g><clipPath id="_clip5"><path d="M109.274,90.762L109.404,101.984L105.988,103.692L105.988,92.363L109.274,90.762Z"/></clipPath><g clip-path="url(#_clip5)"><path d="M109.403,101.925L109.404,101.984L105.988,103.692L105.988,92.363L109.274,90.762L109.274,101.988L109.403,101.925Z" style="fill:#ae3259;"/></g></g><path d="M109.404,101.984L105.988,103.692L105.988,89.359L109.274,90.762L109.404,101.984Z" style="fill:none;stroke:#000;stroke-width:1px;"/><path d="M105.988,92.363L109.274,90.762" style="fill:none;stroke:#000;stroke-width:1px;"/></g><g id="medium-yellow7" serif:id="medium yellow"><path d="M111.352,86.113L112.853,86.864L109.274,88.654L107.976,88.005L111.352,86.113Z" style="fill:#fff;"/><path d="M107.976,88.005L109.274,88.654L109.274,90.386L105.988,89.119L107.976,88.005Z" style="fill:#1b00ff;"/><path d="M109.274,88.654L112.853,86.864L112.853,100.259L109.274,101.988L109.274,88.654Z" style="fill:#ffec00;"/><g><clipPath id="_clip6"><path d="M109.274,88.654L112.853,86.864L112.853,100.259L109.274,101.988L109.274,88.654Z"/></clipPath><g clip-path="url(#_clip6)"><path d="M112.853,86.864L112.853,100.259L109.403,101.925L109.274,90.762L109.274,88.654L112.853,86.864Z" style="fill:#6000ff;"/></g></g><path d="M112.853,100.259L112.853,86.864L109.274,88.654L109.274,101.988L112.853,100.259Z" style="fill:none;stroke:#000;stroke-width:1px;"/><path d="M109.274,88.654L107.771,87.902" style="fill:none;stroke:#000;stroke-width:1px;"/><path d="M112.853,86.864L111.352,86.113" style="fill:none;stroke:#000;stroke-width:1px;"/><path d="M111.352,86.113L105.988,89.119L109.274,90.386" style="fill:none;stroke:#000;stroke-width:1px;"/></g></g></g></g><g id="books2" serif:id="books"><path d="M67.379,183.061L67.444,171.08L67.459,171.073L70.761,169.421L70.762,181.26L67.379,183.061Z" style="fill:#865200;"/><path d="M67.458,167.77L70.761,169.421L67.459,171.073L67.458,167.77Z" style="fill:#fff;"/><path d="M67.458,167.77L70.762,166.118L70.761,169.421L67.458,167.77Z" style="fill:#630a58;"/><path d="M86.842,173.329L86.852,158.045L89.974,156.484L89.974,171.763L86.842,173.329Z" style="fill:#b4b061;"/><path d="M83.639,174.931L83.64,159.641L86.842,158.04L86.842,173.329L83.639,174.931Z" style="fill:#5d005c;"/><path d="M83.639,162.071L80.036,163.782L80.036,161.573L81.339,160.921L83.639,162.071Z" style="fill:#fff;"/><path d="M80.014,164.831L80.014,163.884L83.639,162.071L83.639,174.931L80.182,176.66L80.014,164.831Z" style="fill:#860015;"/><path d="M83.639,174.931L83.64,159.641L86.842,158.04L86.842,173.329L83.639,174.931Z" style="fill:#098f76;"/><path d="M81.339,160.921L83.64,159.641L83.639,174.931L83.639,162.071L81.339,160.921Z" style="fill:#098f76;"/><path d="M99.243,167.075L99.243,151.806L102.289,150.269L102.289,165.552L99.243,167.075Z" style="fill:#7639c9;"/><path d="M99.243,158.118L99.243,167.102L96.381,168.533L96.381,168.476L96.397,168.468L96.397,159.541L99.243,158.118Z" style="fill:#658d53;"/><path d="M93.507,158.121L96.268,156.74L96.378,156.685L96.397,156.695L96.397,159.541L96.381,168.476L93.507,169.913L93.507,158.121Z" style="fill:#840900;"/><path d="M89.974,156.604L93.507,154.772L93.507,158.121L93.443,169.945L93.507,169.913L93.507,169.962L90.153,171.674L89.974,156.604Z" style="fill:#829d2a;"/><path d="M50.379,191.561L46.659,189.701L46.659,178.057L50.379,176.238L50.379,191.561Z" style="fill:#006e4d;"/><path d="M56.971,177.573L53.95,179.084L54.329,178.864L54.114,176.321L56.971,177.573Z" style="fill:#fff;"/><path d="M61.684,175.217L63.784,174.167L63.784,184.628L61.684,185.704L61.684,175.217Z" style="fill:#bf4040;"/><path d="M54.114,176.321L53.95,174.371L55.103,173.925L59.685,176.216L56.971,177.573L54.114,176.321Z" style="fill:#fff;"/><path d="M74.015,179.724L70.762,181.37L70.762,166.118L74.015,164.492L74.015,179.724Z" style="fill:#630a58;"/><path d="M76.76,178.077L74.015,179.743L74.015,164.42L76.76,163.047L76.76,163.068L76.723,163.087L76.76,178.077Z" style="fill:#0a2863;"/><path d="M67.379,183.061L63.784,184.936L63.784,169.57L67.379,167.752L67.379,183.061Z" style="fill:#860015;"/><path d="M96.397,159.541L96.397,156.695L99.243,158.118L96.397,159.541Z" style="fill:#fff;"/><path d="M96.397,156.676L96.378,156.685L96.268,156.63L96.268,156.74L93.519,158.101L93.519,155.236L96.397,156.676Z" style="fill:#fff;"/><path d="M50.379,191.561L50.379,176.256L53.95,174.453L53.95,189.777L50.379,191.561Z" style="fill:#006d09;stroke:#000;stroke-width:1px;"/><path d="M50.379,191.561L46.659,189.701L46.659,178.057L50.379,176.238L50.381,191.561" style="fill:none;stroke:#000;stroke-width:1px;"/><path d="M55.247,173.838L59.483,171.854L63.513,174.031L59.349,176.249L55.247,173.838Z" style="fill:#fff;"/><path d="M56.85,188.216L56.85,177.634L61.684,175.217L61.684,185.799L56.85,188.216Z" style="fill:#bf4040;"/><path d="M53.95,179.084L56.85,177.634L56.85,188.216L54.016,189.633L53.95,179.084Z" style="fill:#bf4040;"/><path d="M53.95,179.084L63.784,174.167L63.784,184.628" style="fill:none;stroke:#000;stroke-width:1px;"/><path d="M63.784,174.167L59.349,171.787" style="fill:none;stroke:#000;stroke-width:1px;"/><path d="M57.213,172.856L61.753,175.207" style="fill:none;stroke:#000;stroke-width:1px;"/><path d="M55.03,173.889L59.751,176.249" style="fill:none;stroke:#000;stroke-width:1px;"/><path d="M57.041,177.604L53.95,176.249" style="fill:none;stroke:#000;stroke-width:1px;"/><path d="M61.684,175.217L61.684,185.832" style="fill:none;stroke:#000;stroke-width:1px;"/><path d="M59.62,176.249L59.62,186.771" style="fill:none;stroke:#000;stroke-width:1px;"/><path d="M56.85,177.604L56.85,188.216" style="fill:none;stroke:#000;stroke-width:1px;"/><path d="M54.329,178.864L53.95,174.371L59.839,171.542" style="fill:none;stroke:#000;stroke-width:1px;"/><path d="M55.247,173.838L59.349,176.249L63.513,174.031L59.483,171.854L55.247,173.838Z" style="fill:none;stroke:#000;stroke-width:1px;"/><path d="M53.95,189.666L63.784,184.628" style="fill:none;stroke:#000;stroke-width:1px;"/><path d="M54.329,178.864L53.95,179.084L54.016,189.666" style="fill:none;stroke:#000;stroke-width:1px;"/><path d="M63.784,184.936L67.379,183.061L67.379,167.752L63.784,169.57L63.784,184.936Z" style="fill:none;stroke:#000;stroke-width:1px;"/><path d="M67.379,183.061L70.762,181.26L70.762,169.422L67.444,171.08L67.379,183.061Z" style="fill:none;stroke:#000;stroke-width:1px;"/><path d="M70.762,169.422L67.458,167.77L67.458,171.073L70.762,169.422Z" style="fill:none;stroke:#000;stroke-width:1px;"/><path d="M70.762,181.37L70.762,166.118L74.015,164.492L74.015,179.724L70.762,181.37Z" style="fill:none;stroke:#000;stroke-width:1px;"/><path d="M74.015,179.743L74.015,164.42L76.76,163.047L76.76,178.077L74.015,179.743Z" style="fill:none;stroke:#000;stroke-width:1px;"/><path d="M76.76,178.37L76.723,163.087L80.014,161.442L80.014,176.744L76.76,178.37Z" style="fill:#40bf4f;"/><path d="M76.76,178.37L80.014,176.744L80.014,161.442L76.723,163.087L76.76,178.37Z" style="fill:none;stroke:#000;stroke-width:1px;"/><path d="M70.761,169.421L67.458,167.77L70.787,166.106" style="fill:none;stroke:#000;stroke-width:1px;"/><path d="M63.784,174.214L59.337,171.99L63.77,169.774L63.784,174.214Z" style="fill:#860015;"/><path d="M63.784,174.214L59.337,171.99L63.77,169.774L63.784,174.214Z" style="fill:none;stroke:#000;stroke-width:1px;"/><path d="M80.182,176.66L83.639,174.931L83.639,162.071L80,163.89L80.182,176.66Z" style="fill:none;stroke:#000;stroke-width:1px;"/><path d="M83.639,162.071L81.339,160.921L80.036,161.573L80.036,163.782L83.639,162.071Z" style="fill:none;stroke:#000;stroke-width:1px;"/><path d="M83.639,174.931L86.842,173.329L86.842,158.04L83.64,159.641L83.639,174.931Z" style="fill:none;stroke:#000;stroke-width:1px;"/><path d="M86.842,173.329L89.974,171.763L89.974,156.484L86.852,158.045L86.842,173.329Z" style="fill:none;stroke:#000;stroke-width:1px;"/><path d="M81.339,160.921L83.64,159.641" style="fill:none;stroke:#000;stroke-width:1px;"/><path d="M93.507,158.121L96.397,156.676L96.397,168.468L93.443,169.945L93.507,158.121Z" style="fill:none;stroke:#000;stroke-width:1px;"/><path d="M96.397,156.676L93.519,155.236L93.519,158.101L96.397,156.676Z" style="fill:none;stroke:#000;stroke-width:1px;"/><path d="M96.397,159.541L99.243,158.118L99.243,167.102L96.381,168.533L96.397,159.541Z" style="fill:none;stroke:#000;stroke-width:1px;"/><path d="M99.243,158.118L96.268,156.63L96.268,159.545" style="fill:none;stroke:#000;stroke-width:1px;"/><path d="M89.974,156.604L93.507,154.772L93.507,169.962L90.153,171.674L89.974,156.604Z" style="fill:none;stroke:#000;stroke-width:1px;"/><path d="M99.243,151.806L99.243,167.075L102.289,165.552L102.289,150.269L99.243,151.806Z" style="fill:none;stroke:#000;stroke-width:1px;"/><path d="M99.243,151.806L99.243,157.911L93.507,154.772L99.243,151.806Z" style="fill:#7639c9;"/><path d="M99.243,151.806L93.507,154.772L99.243,157.911L99.243,151.806Z" style="fill:none;stroke:#000;stroke-width:1px;"/><path d="M102.331,165.585L102.353,150.446L108.677,147.284L108.677,162.328L102.331,165.585Z" style="fill:#3c3c3c;"/><path d="M102.331,165.585L108.677,162.328L108.677,147.284L102.353,150.446L102.331,165.585Z" style="fill:none;stroke:#000;stroke-width:1px;"/><path d="M108.677,162.328L108.664,147.161L112.07,145.458L112.07,160.661L108.677,162.328Z" style="fill:#ab5da3;"/><path d="M108.677,162.328L112.07,160.661L112.07,145.458L108.664,147.161L108.677,162.328Z" style="fill:none;stroke:#000;stroke-width:1px;"/></g><g id="books3" serif:id="books"><path d="M51.162,151.411L47.442,149.551L47.442,137.907L51.162,136.088L51.162,151.411Z" style="fill:#0005c9;"/><path d="M57.754,137.423L54.732,138.934L55.112,138.714L54.897,136.171L57.754,137.423Z" style="fill:#fff;"/><path d="M62.467,135.067L64.567,134.016L64.567,144.477L62.467,145.553L62.467,135.067Z" style="fill:#bf4040;"/><g><clipPath id="_clip7"><path d="M62.467,135.067L64.567,134.016L64.567,144.477L62.467,145.553L62.467,135.067Z"/></clipPath><g clip-path="url(#_clip7)"><path d="M64.567,144.477L62.467,145.553L62.467,135.067L64.52,134.04L64.567,134.064L64.567,144.477Z" style="fill:#31782e;"/></g></g><path d="M54.897,136.171L54.732,134.221L55.886,133.775L60.468,136.066L57.754,137.423L54.897,136.171Z" style="fill:#fff;"/><path d="M74.798,139.573L71.544,141.219L71.544,125.968L74.798,124.342L74.798,139.573Z" style="fill:#7e2200;"/><path d="M77.543,137.927L74.798,139.593L74.798,124.27L77.543,122.897L77.543,122.918L77.506,122.936L77.543,137.927Z" style="fill:#b6b6b6;"/><path d="M68.162,142.911L64.567,144.786L64.567,129.419L68.162,127.602L68.162,142.911Z" style="fill:#2c2c2c;"/><path d="M68.162,142.911L68.227,130.93L68.241,130.922L71.544,129.271L71.544,141.11L68.162,142.911Z" style="fill:#ff4500;"/><path d="M68.241,127.62L71.544,129.271L68.241,130.922L68.241,127.62Z" style="fill:#fff;"/><path d="M68.241,127.62L71.544,125.968L71.544,129.271L68.241,127.62Z" style="fill:#7e2200;"/><path d="M87.625,133.179L87.635,117.895L90.757,116.334L90.757,131.613L87.625,133.179Z" style="fill:#65c33a;"/><path d="M84.422,134.781L84.423,119.491L87.625,117.89L87.625,133.179L84.422,134.781Z" style="fill:#5d005c;"/><path d="M84.422,121.921L80.819,123.632L80.819,121.422L82.122,120.771L84.422,121.921Z" style="fill:#fff;"/><path d="M80.797,124.681L80.797,123.733L84.422,121.921L84.422,134.781L80.964,136.509L80.797,124.681Z" style="fill:#860015;"/><path d="M84.422,134.781L84.423,119.491L87.625,117.89L87.625,133.179L84.422,134.781Z" style="fill:#098f76;"/><path d="M82.122,120.771L84.423,119.491L84.422,134.781L84.422,121.921L82.122,120.771Z" style="fill:#098f76;"/><path d="M100.026,126.924L100.026,111.656L103.072,110.119L103.072,125.401L100.026,126.924Z" style="fill:#131fc1;"/><path d="M100.026,117.967L100.026,126.951L97.164,128.382L97.164,128.326L97.18,128.318L97.18,119.39L100.026,117.967Z" style="fill:#d4808f;"/><path d="M94.29,117.97L97.051,116.59L97.161,116.535L97.18,116.544L97.18,119.39L97.164,128.326L94.29,129.763L94.29,117.97Z" style="fill:#840900;"/><path d="M90.757,116.453L94.29,114.622L94.29,117.97L94.226,129.795L94.29,129.763L94.29,129.811L90.936,131.524L90.757,116.453Z" style="fill:#007476;"/><path d="M97.18,116.525L97.161,116.535L97.051,116.48L97.051,116.59L94.302,117.951L94.302,115.086L97.18,116.525Z" style="fill:#fff;"/><path d="M97.18,119.39L97.18,116.544L100.026,117.967L97.18,119.39Z" style="fill:#fff;"/><g id="books4" serif:id="books"><path d="M51.162,151.411L51.162,136.106L54.732,134.303L54.732,149.627L51.162,151.411Z" style="fill:#006d09;"/><g><clipPath id="_clip8"><path d="M51.162,151.411L51.162,136.106L54.732,134.303L54.732,149.627L51.162,151.411Z"/></clipPath><g clip-path="url(#_clip8)"><path d="M51.162,136.106L54.732,134.303L54.732,149.627L51.164,151.409L51.162,136.106Z" style="fill:#0005c9;"/></g></g><path d="M51.162,151.411L51.162,136.106L54.732,134.303L54.732,149.627L51.162,151.411Z" style="fill:none;stroke:#000;stroke-width:1px;"/><path d="M51.162,151.411L47.442,149.551L47.442,137.907L51.162,136.088L51.164,151.411" style="fill:none;stroke:#000;stroke-width:1px;"/><path d="M56.03,133.688L60.266,131.704L64.296,133.881L60.132,136.099L56.03,133.688Z" style="fill:#fff;"/><path d="M57.633,148.066L57.633,137.484L62.467,135.067L62.467,145.648L57.633,148.066Z" style="fill:#bf4040;"/><g><clipPath id="_clip9"><path d="M57.633,148.066L57.633,137.484L62.467,135.067L62.467,145.648L57.633,148.066Z"/></clipPath><g clip-path="url(#_clip9)"><path d="M60.403,136.099L60.403,146.611L57.633,148.03L57.633,137.484L60.403,136.099Z" style="fill:#b4b4b4;"/><path d="M62.467,135.067L62.467,145.553L60.403,146.611L60.403,136.099L62.467,135.067Z" style="fill:#31782e;"/></g></g><path d="M54.732,138.934L57.633,137.484L57.633,148.066L54.799,149.483L54.732,138.934Z" style="fill:#bf4040;"/><g><clipPath id="_clip10"><path d="M54.732,138.934L57.633,137.484L57.633,148.066L54.799,149.483L54.732,138.934Z"/></clipPath><g clip-path="url(#_clip10)"><path d="M54.799,149.482L54.732,138.934L57.633,137.484L57.633,148.03L54.799,149.482Z" style="fill:#b4b4b4;"/></g></g><path d="M54.732,138.934L64.567,134.016L64.567,144.477" style="fill:none;stroke:#000;stroke-width:1px;"/><path d="M64.567,134.016L60.132,131.637" style="fill:none;stroke:#000;stroke-width:1px;"/><path d="M57.995,132.705L62.536,135.056" style="fill:none;stroke:#000;stroke-width:1px;"/><path d="M55.813,133.738L60.533,136.099" style="fill:none;stroke:#000;stroke-width:1px;"/><path d="M57.823,137.454L54.732,136.099" style="fill:none;stroke:#000;stroke-width:1px;"/><path d="M62.467,135.067L62.467,145.682" style="fill:none;stroke:#000;stroke-width:1px;"/><path d="M60.403,136.099L60.403,146.621" style="fill:none;stroke:#000;stroke-width:1px;"/><path d="M57.633,137.454L57.633,148.066" style="fill:none;stroke:#000;stroke-width:1px;"/><path d="M55.112,138.714L54.732,134.221L60.622,131.392" style="fill:none;stroke:#000;stroke-width:1px;"/><path d="M56.03,133.688L60.132,136.099L64.296,133.881L60.266,131.704L56.03,133.688Z" style="fill:none;stroke:#000;stroke-width:1px;"/><path d="M54.732,149.516L64.567,144.477" style="fill:none;stroke:#000;stroke-width:1px;"/><path d="M55.112,138.714L54.732,138.934L54.799,149.516" style="fill:none;stroke:#000;stroke-width:1px;"/><path d="M64.567,144.786L68.162,142.911L68.162,127.602L64.567,129.419L64.567,144.786Z" style="fill:none;stroke:#000;stroke-width:1px;"/><path d="M68.162,142.911L71.544,141.11L71.544,129.271L68.227,130.93L68.162,142.911Z" style="fill:none;stroke:#000;stroke-width:1px;"/><path d="M71.544,129.271L68.241,127.62L68.241,130.922L71.544,129.271Z" style="fill:none;stroke:#000;stroke-width:1px;"/><path d="M71.544,141.219L71.544,125.968L74.798,124.342L74.798,139.573L71.544,141.219Z" style="fill:none;stroke:#000;stroke-width:1px;"/><path d="M74.798,139.593L74.798,124.27L77.543,122.897L77.543,137.927L74.798,139.593Z" style="fill:none;stroke:#000;stroke-width:1px;"/><path d="M77.543,138.22L77.506,122.936L80.797,121.291L80.797,136.593L77.543,138.22Z" style="fill:#40bf4f;"/><g><clipPath id="_clip11"><path d="M77.543,138.22L77.506,122.936L80.797,121.291L80.797,136.593L77.543,138.22Z"/></clipPath><g clip-path="url(#_clip11)"><path d="M77.543,122.918L80.797,121.291L80.797,123.733L80.783,123.74L80.797,124.681L80.797,136.593L77.543,138.22L77.543,122.918Z" style="fill:#ffe600;"/></g></g><path d="M77.543,138.22L80.797,136.593L80.797,121.291L77.506,122.936L77.543,138.22Z" style="fill:none;stroke:#000;stroke-width:1px;"/><path d="M71.544,129.271L68.241,127.62L71.57,125.955" style="fill:none;stroke:#000;stroke-width:1px;"/><path d="M64.567,134.064L60.119,131.84L64.553,129.623L64.567,134.064Z" style="fill:#860015;"/><g><clipPath id="_clip12"><path d="M64.567,134.064L60.119,131.84L64.553,129.623L64.567,134.064Z"/></clipPath><g clip-path="url(#_clip12)"><path d="M60.326,131.737L64.553,129.623L64.567,134.016L61.602,132.426L60.326,131.737Z" style="fill:#2c2c2c;"/></g></g><path d="M64.567,134.064L60.119,131.84L64.553,129.623L64.567,134.064Z" style="fill:none;stroke:#000;stroke-width:1px;"/><path d="M80.964,136.509L84.422,134.781L84.422,121.921L80.783,123.74L80.964,136.509Z" style="fill:none;stroke:#000;stroke-width:1px;"/><path d="M84.422,121.921L82.122,120.771L80.819,121.422L80.819,123.632L84.422,121.921Z" style="fill:none;stroke:#000;stroke-width:1px;"/><path d="M84.422,134.781L87.625,133.179L87.625,117.89L84.423,119.491L84.422,134.781Z" style="fill:none;stroke:#000;stroke-width:1px;"/><path d="M87.625,133.179L90.757,131.613L90.757,116.334L87.635,117.895L87.625,133.179Z" style="fill:none;stroke:#000;stroke-width:1px;"/><path d="M82.122,120.771L84.423,119.491" style="fill:none;stroke:#000;stroke-width:1px;"/><path d="M94.29,117.97L97.18,116.525L97.18,128.318L94.226,129.795L94.29,117.97Z" style="fill:none;stroke:#000;stroke-width:1px;"/><path d="M97.18,116.525L94.302,115.086L94.302,117.951L97.18,116.525Z" style="fill:none;stroke:#000;stroke-width:1px;"/><path d="M97.18,119.39L100.026,117.967L100.026,126.951L97.164,128.382L97.18,119.39Z" style="fill:none;stroke:#000;stroke-width:1px;"/><path d="M100.026,117.967L97.051,116.48L97.051,119.395" style="fill:none;stroke:#000;stroke-width:1px;"/><path d="M90.757,116.453L94.29,114.622L94.29,129.811L90.936,131.524L90.757,116.453Z" style="fill:none;stroke:#000;stroke-width:1px;"/><path d="M100.026,111.656L100.026,126.924L103.072,125.401L103.072,110.119L100.026,111.656Z" style="fill:none;stroke:#000;stroke-width:1px;"/><path d="M100.026,111.656L100.026,117.76L94.29,114.622L100.026,111.656Z" style="fill:#131fc1;"/><path d="M100.026,111.656L94.29,114.622L100.026,117.76L100.026,111.656Z" style="fill:none;stroke:#000;stroke-width:1px;"/><path d="M103.114,125.434L103.136,110.295L109.46,107.133L109.46,122.178L103.114,125.434Z" style="fill:#3c3c3c;"/><g><clipPath id="_clip13"><path d="M103.114,125.434L103.136,110.295L109.46,107.133L109.46,122.178L103.114,125.434Z"/></clipPath><g clip-path="url(#_clip13)"><path d="M109.46,122.178L103.114,125.434L103.136,110.295L109.447,107.14L109.46,122.178Z" style="fill:#c113b8;"/></g></g><path d="M103.114,125.434L109.46,122.178L109.46,107.133L103.136,110.295L103.114,125.434Z" style="fill:none;stroke:#000;stroke-width:1px;"/><path d="M109.46,122.178L109.447,107.01L112.853,105.307L112.853,120.511L109.46,122.178Z" style="fill:#ab5da3;"/><g><clipPath id="_clip14"><path d="M109.46,122.178L109.447,107.01L112.853,105.307L112.853,120.511L109.46,122.178Z"/></clipPath><g clip-path="url(#_clip14)"><path d="M109.447,107.14L109.447,107.01L112.853,105.307L112.853,120.511L109.46,122.178L109.46,107.133L109.447,107.14Z" style="fill:#52cc78;"/></g></g><path d="M109.46,122.178L112.853,120.511L112.853,105.307L109.447,107.01L109.46,122.178Z" style="fill:none;stroke:#000;stroke-width:1px;"/></g></g><g id="books5" serif:id="books"><path d="M76.435,147.016L76.435,157.849L73.697,159.215L73.697,159.189L73.715,159.181L73.697,148.435L76.435,147.016Z" style="fill:#598332;"/><path d="M97.274,132.845L100.254,131.355L100.294,132.87L100.294,134.936L97.274,133.426L97.274,132.845Z" style="fill:#a3190c;"/><path d="M67.383,153.224L70.81,151.51L70.81,160.633L70.887,160.594L70.887,160.62L67.36,162.383L67.36,162.373L67.383,162.362L67.383,153.224Z" style="fill:#00cfff;"/><path d="M70.016,146.545L69.915,146.595L73.647,148.461L73.697,148.435L73.697,159.172L70.887,157.767L70.887,151.472L70.81,151.51L70.81,151.504L65.428,148.813L69.99,146.532L70.016,146.545Z" style="fill:#598332;"/><path d="M65.428,148.813L70.767,151.482L67.383,153.115L67.383,151.013L64.235,149.439L65.428,148.813Z" style="fill:#fff;"/><path d="M103.734,144.302L103.734,144.492L100.643,146.038L100.254,131.355L103.734,129.615L103.734,141.293L103.688,144.325L103.734,144.302Z" style="fill:#8e050c;"/><path d="M97.274,136.523L100.254,135.033L100.254,146.042L97.234,147.552L97.234,147.542L97.274,147.521L97.274,136.523Z" style="fill:#5ad5bf;"/><path d="M100.254,135.033L97.28,136.488L97.28,133.546L100.254,135.033Z" style="fill:#fffef4;"/><path d="M94.538,134.213L97.274,132.845L97.274,136.523L97.234,147.542L94.508,148.984L94.508,148.857L94.538,148.872L94.538,134.213Z" style="fill:#c1af04;"/><path d="M87.177,137.893L94.508,134.228L94.508,148.857L87.268,145.237L87.177,137.893Z" style="fill:#c1af04;"/><path d="M82.993,154.742L83.049,140.052L86.155,138.499L86.155,153.161L82.993,154.742Z" style="fill:#73b068;"/><path d="M79.822,156.327L79.903,141.615L82.993,140.071L82.993,154.742L79.822,156.327Z" style="fill:#2a00ff;"/><path d="M76.435,143.253L76.43,146.979L72.707,145.117L76.435,143.253Z" style="fill:#f10;"/><path d="M76.435,157.884L76.435,143.253L79.822,141.641L79.822,156.327L76.435,157.884Z" style="fill:#f10;"/><path d="M106.593,128.186L106.593,128.103L109.483,126.658L109.483,141.457L106.644,142.847L106.644,128.16L106.593,128.186Z" style="fill:#484848;"/><path d="M103.734,129.615L106.593,128.186L106.593,142.863L106.413,142.773L103.749,141.3L103.734,129.615Z" style="fill:#484848;"/><path d="M76.435,147.016L73.697,148.385L70.016,146.545L72.754,145.175L76.435,147.016Z" style="fill:#fff;"/><path d="M67.383,151.013L64.149,152.616L64.149,149.431L64.067,149.472L64.067,149.355L67.383,151.013Z" style="fill:#fff;"/><path d="M67.383,151.013L67.383,153.224L67.36,162.373L64.149,163.979L64.149,152.629L67.383,151.013Z" style="fill:#7519dd;"/><path d="M61.401,165.525L61.401,150.805L64.067,149.472L64.067,152.657L64.149,152.616L64.149,152.629L64.072,164.017L64.149,163.979L64.149,164.107L61.401,165.525Z" style="fill:#717171;"/><path d="M61.401,150.861L61.401,165.525L57.819,163.734L57.819,155.795L57.804,155.787L57.804,155.705L54.758,154.182L61.401,150.861Z" style="fill:#717171;"/><path d="M57.804,155.787L57.804,155.802L54.609,157.4L54.609,154.189L57.804,155.787Z" style="fill:#fff;"/><path d="M54.609,157.4L54.609,157.409L57.804,155.802L57.819,163.734L57.819,167.316L54.589,168.906L54.589,157.41L54.609,157.4Z" style="fill:#1bb5bc;"/><path d="M54.589,157.41L54.541,157.434L54.541,168.93L54.589,168.906L54.589,168.931L51.009,170.687L50.94,156L54.589,154.175L54.589,157.41Z" style="fill:#271bbc;"/><path d="M50.94,170.721L46.689,168.595L46.689,158.165L50.94,156L50.94,170.721Z" style="fill:#271bbc;"/><path d="M50.94,156.001L50.94,170.721L54.589,168.931L54.589,154.175L50.94,156.001Z" style="fill:none;stroke:#000;stroke-width:1px;"/><path d="M50.94,170.721L46.689,168.595L46.689,158.165L50.94,156L51.009,170.721" style="fill:none;stroke:#000;stroke-width:1px;"/><path d="M57.819,167.316L57.819,155.795L54.541,157.434L54.541,168.93L57.819,167.316Z" style="fill:none;stroke:#000;stroke-width:1px;"/><path d="M57.819,155.795L54.609,154.189L54.609,157.409L57.819,155.795Z" style="fill:none;stroke:#000;stroke-width:1px;"/><path d="M61.401,165.525L61.401,150.805L64.149,149.431L64.149,164.107L61.401,165.525Z" style="fill:none;stroke:#000;stroke-width:1px;"/><path d="M57.819,163.734L61.401,165.525L61.401,150.861L54.758,154.182L57.804,155.705L57.819,163.734Z" style="fill:none;stroke:#000;stroke-width:1px;"/><path d="M64.149,152.629L67.383,151.013L67.383,162.362L64.072,164.017L64.149,152.629Z" style="fill:none;stroke:#000;stroke-width:1px;"/><path d="M67.383,151.013L64.067,149.355L64.067,152.657L67.383,151.013Z" style="fill:none;stroke:#000;stroke-width:1px;"/><path d="M67.383,153.224L70.887,151.472L70.887,160.62L67.36,162.383L67.383,153.224Z" style="fill:none;stroke:#000;stroke-width:1px;"/><path d="M70.887,151.472L65.647,148.852" style="fill:none;stroke:#000;stroke-width:1px;"/><path d="M73.697,159.215L73.697,148.385L76.435,147.016L76.435,157.849L73.697,159.215Z" style="fill:none;stroke:#000;stroke-width:1px;"/><path d="M70.887,157.809L70.887,151.466L65.556,148.801" style="fill:none;stroke:#000;stroke-width:1px;"/><path d="M73.697,148.385L69.99,146.532L65.428,148.813L70.81,151.504L70.81,160.633L73.715,159.181L73.697,148.385Z" style="fill:none;stroke:#000;stroke-width:1px;"/><path d="M76.435,147.016L72.754,145.175L69.915,146.595L73.647,148.461L76.435,147.016Z" style="fill:none;stroke:#000;stroke-width:1px;"/><path d="M73.715,159.181L70.767,157.707L70.767,160.718L73.715,159.181Z" style="fill:none;stroke:#000;stroke-width:1px;"/><path d="M65.428,148.813L64.067,149.528L67.383,151.013L67.383,153.115L70.767,151.482L65.725,148.664L65.428,148.813Z" style="fill:none;stroke:#000;stroke-width:1px;"/><path d="M76.435,157.884L76.435,143.253L79.822,141.641L79.822,156.327L76.435,157.884Z" style="fill:none;stroke:#000;stroke-width:1px;"/><path d="M76.435,143.253L72.707,145.117L76.43,146.979L76.435,143.253Z" style="fill:none;stroke:#000;stroke-width:1px;"/><path d="M79.822,156.327L82.993,154.742L82.993,140.071L79.903,141.615L79.822,156.327Z" style="fill:none;stroke:#000;stroke-width:1px;"/><path d="M82.993,154.742L86.155,153.161L86.155,138.499L83.049,140.052L82.993,154.742Z" style="fill:none;stroke:#000;stroke-width:1px;"/><path d="M94.508,148.984L94.508,134.228L97.274,132.845L97.274,147.521L94.508,148.984Z" style="fill:none;stroke:#000;stroke-width:1px;"/><path d="M87.177,145.319L94.508,148.984L87.177,145.319Z" style="fill:none;stroke:#000;stroke-width:1px;"/><path d="M87.177,137.893L87.177,145.249" style="fill:none;stroke:#000;stroke-width:1px;"/><path d="M87.177,137.893L94.538,134.213L94.538,148.872L87.268,145.237L87.177,137.893Z" style="fill:none;stroke:#000;stroke-width:1px;"/><path d="M97.274,136.523L100.254,135.033L100.254,146.042L97.234,147.552L97.274,136.523Z" style="fill:none;stroke:#000;stroke-width:1px;"/><path d="M100.254,135.033L97.28,133.546L97.28,136.488L100.254,135.033Z" style="fill:none;stroke:#000;stroke-width:1px;"/><path d="M100.254,131.355L103.734,129.615L103.734,144.492L100.643,146.038L100.254,131.355Z" style="fill:none;stroke:#000;stroke-width:1px;"/><path d="M106.593,142.872L106.593,128.103L109.483,126.658L109.483,141.457L106.593,142.872Z" style="fill:none;stroke:#000;stroke-width:1px;"/><path d="M103.734,141.293L106.593,142.872L103.688,144.325L103.734,141.293Z" style="fill:none;stroke:#000;stroke-width:1px;"/><path d="M97.274,132.845L100.254,131.355" style="fill:none;stroke:#000;stroke-width:1px;"/><path d="M97.274,132.845L97.274,133.426L100.294,134.936L100.294,131.437L97.339,132.915" style="fill:none;stroke:#000;stroke-width:1px;"/><path d="M103.734,129.615L106.644,128.16L106.644,142.888L103.749,141.441L103.734,129.615Z" style="fill:none;stroke:#000;stroke-width:1px;"/></g><g id="books6" serif:id="books"><path d="M76.479,86.635L76.479,97.468L73.74,98.834L73.74,98.809L73.758,98.8L73.741,88.054L76.479,86.635Z" style="fill:#598332;"/><path d="M97.318,72.464L100.297,70.974L100.337,72.489L100.337,74.555L97.318,73.045L97.318,72.464Z" style="fill:#a3190c;"/><path d="M67.426,92.843L70.853,91.129L70.853,100.252L70.93,100.214L70.93,100.239L67.403,102.002L67.403,101.993L67.426,101.981L67.426,92.843Z" style="fill:#00cfff;"/><g><clipPath id="_clip15"><path d="M67.426,92.843L70.853,91.129L70.853,100.252L70.93,100.214L70.93,100.239L67.403,102.002L67.403,101.993L67.426,101.981L67.426,92.843Z"/></clipPath><g clip-path="url(#_clip15)"><path d="M70.81,100.299L67.403,102.002L67.403,101.993L67.426,101.981L67.426,92.843L70.853,91.129L70.853,97.347L70.81,97.326L70.81,100.299Z" style="fill:#1ae631;"/></g></g><path d="M70.059,86.164L69.958,86.214L73.69,88.08L73.741,88.054L73.74,98.791L70.93,97.386L70.93,91.091L70.853,91.129L70.853,91.123L65.471,88.432L70.033,86.151L70.059,86.164Z" style="fill:#598332;"/><path d="M65.471,88.432L70.81,91.101L67.426,92.734L67.426,90.632L64.279,89.058L65.471,88.432Z" style="fill:#fff;"/><path d="M103.778,83.921L103.778,84.111L100.686,85.657L100.297,70.974L103.778,69.234L103.778,80.912L103.731,83.944L103.778,83.921Z" style="fill:#8e050c;"/><path d="M97.318,76.142L100.297,74.652L100.297,85.661L97.277,87.171L97.277,87.162L97.318,87.14L97.318,76.142Z" style="fill:#5ad5bf;"/><path d="M100.297,74.652L97.323,76.107L97.323,73.165L100.297,74.652Z" style="fill:#fffef4;"/><path d="M94.582,73.832L97.318,72.464L97.318,76.142L97.277,87.162L94.552,88.603L94.552,88.476L94.582,88.491L94.582,73.832Z" style="fill:#729966;"/><path d="M87.221,77.513L94.552,73.847L94.552,88.476L87.311,84.856L87.221,77.513Z" style="fill:#729966;"/><path d="M83.036,94.361L83.093,79.671L86.198,78.118L86.198,92.78L83.036,94.361Z" style="fill:#c33;"/><path d="M79.866,95.946L79.947,81.235L83.036,79.69L83.036,94.361L79.866,95.946Z" style="fill:#2a00ff;"/><path d="M76.479,82.872L76.474,86.598L72.75,84.736L76.479,82.872Z" style="fill:#0d79f2;"/><path d="M76.479,97.503L76.479,82.872L79.866,81.26L79.866,95.946L76.479,97.503Z" style="fill:#0d79f2;"/><path d="M106.636,67.805L106.636,67.722L109.526,66.277L109.526,81.076L106.687,82.467L106.687,67.779L106.636,67.805Z" style="fill:#0df279;"/><path d="M103.778,69.234L106.636,67.805L106.636,82.482L106.457,82.392L103.792,80.92L103.778,69.234Z" style="fill:#0df279;"/><path d="M76.479,86.635L73.74,88.004L70.059,86.164L72.797,84.794L76.479,86.635Z" style="fill:#fff;"/><path d="M67.426,90.632L64.193,92.235L64.193,89.05L64.11,89.091L64.11,88.974L67.426,90.632Z" style="fill:#fff;"/><path d="M67.426,90.632L67.426,92.843L67.403,101.993L64.193,103.598L64.193,92.248L67.426,90.632Z" style="fill:#7519dd;"/><path d="M61.444,105.144L61.444,90.424L64.11,89.091L64.11,92.276L64.193,92.235L64.193,92.248L64.116,103.636L64.193,103.598L64.193,103.726L61.444,105.144Z" style="fill:#f25e0d;"/><path d="M61.444,90.48L61.444,105.144L57.862,103.353L57.862,95.414L57.847,95.406L57.847,95.324L54.801,93.801L61.444,90.48Z" style="fill:#f25e0d;"/><path d="M57.847,95.406L57.847,95.421L54.652,97.019L54.652,93.808L57.847,95.406Z" style="fill:#fff;"/><path d="M54.652,97.019L54.652,97.028L57.847,95.421L57.862,103.353L57.862,106.935L54.632,108.525L54.632,97.029L54.652,97.019Z" style="fill:#1bb5bc;"/><path d="M54.632,108.525L54.632,108.55L51.052,110.306L50.983,95.619L54.632,93.794L54.632,97.029L54.584,97.053L54.584,108.549L54.632,108.525Z" style="fill:#535353;"/><path d="M50.819,130.975L50.819,116.346L54.888,114.311L54.888,128.94L50.819,130.975Z" style="fill:#0011ad;"/><path d="M103.115,124.711L103.136,110.295L109.447,107.14L109.454,115.295L109.46,121.538L103.115,124.711Z" style="fill:#00ad00;"/><path d="M50.983,110.34L46.732,108.214L46.732,97.784L50.983,95.619L50.983,110.34Z" style="fill:#fd00ff;"/><g><clipPath id="_clip16"><path d="M50.983,110.34L46.732,108.214L46.732,97.784L50.983,95.619L50.983,110.34Z"/></clipPath><g clip-path="url(#_clip16)"><path d="M50.983,110.34L46.971,108.334L46.897,97.7L50.983,95.619L50.983,110.34Z" style="fill:#535353;"/></g></g><path d="M50.983,95.62L50.983,110.34L54.632,108.55L54.632,93.794L50.983,95.62Z" style="fill:none;stroke:#000;stroke-width:1px;"/><path d="M50.983,110.34L46.732,108.214L46.732,97.784L50.983,95.619L51.052,110.34" style="fill:none;stroke:#000;stroke-width:1px;"/><path d="M57.862,106.935L57.862,95.414L54.584,97.053L54.584,108.549L57.862,106.935Z" style="fill:none;stroke:#000;stroke-width:1px;"/><path d="M57.862,95.414L54.652,93.808L54.652,97.028L57.862,95.414Z" style="fill:none;stroke:#000;stroke-width:1px;"/><path d="M61.444,105.144L61.444,90.424L64.193,89.05L64.193,103.726L61.444,105.144Z" style="fill:none;stroke:#000;stroke-width:1px;"/><path d="M57.862,103.353L61.444,105.144L61.444,90.48L54.801,93.801L57.847,95.324L57.862,103.353Z" style="fill:none;stroke:#000;stroke-width:1px;"/><path d="M64.193,92.248L67.426,90.632L67.426,101.981L64.116,103.636L64.193,92.248Z" style="fill:none;stroke:#000;stroke-width:1px;"/><path d="M67.426,90.632L64.11,88.974L64.11,92.276L67.426,90.632Z" style="fill:none;stroke:#000;stroke-width:1px;"/><path d="M67.426,92.843L70.93,91.091L70.93,100.239L67.403,102.002L67.426,92.843Z" style="fill:none;stroke:#000;stroke-width:1px;"/><path d="M70.93,91.091L65.69,88.471" style="fill:none;stroke:#000;stroke-width:1px;"/><path d="M73.74,98.834L73.74,88.004L76.479,86.635L76.479,97.468L73.74,98.834Z" style="fill:none;stroke:#000;stroke-width:1px;"/><path d="M70.93,97.428L70.93,91.085L65.6,88.42" style="fill:none;stroke:#000;stroke-width:1px;"/><path d="M73.74,88.004L70.033,86.151L65.471,88.432L70.853,91.123L70.853,100.252L73.758,98.8L73.74,88.004Z" style="fill:none;stroke:#000;stroke-width:1px;"/><path d="M76.479,86.635L72.797,84.794L69.958,86.214L73.69,88.08L76.479,86.635Z" style="fill:none;stroke:#000;stroke-width:1px;"/><path d="M73.758,98.8L70.81,97.326L70.81,100.337L73.758,98.8Z" style="fill:none;stroke:#000;stroke-width:1px;"/><path d="M65.471,88.432L64.11,89.147L67.426,90.632L67.426,92.734L70.81,91.101L65.768,88.284L65.471,88.432Z" style="fill:none;stroke:#000;stroke-width:1px;"/><path d="M76.479,97.503L76.479,82.872L79.866,81.26L79.866,95.946L76.479,97.503Z" style="fill:none;stroke:#000;stroke-width:1px;"/><path d="M76.479,82.872L72.75,84.736L76.474,86.598L76.479,82.872Z" style="fill:none;stroke:#000;stroke-width:1px;"/><path d="M79.866,95.946L83.036,94.361L83.036,79.69L79.947,81.235L79.866,95.946Z" style="fill:none;stroke:#000;stroke-width:1px;"/><path d="M83.036,94.361L86.198,92.78L86.198,78.118L83.093,79.671L83.036,94.361Z" style="fill:none;stroke:#000;stroke-width:1px;"/><path d="M94.552,88.603L94.552,73.847L97.318,72.464L97.318,87.14L94.552,88.603Z" style="fill:none;stroke:#000;stroke-width:1px;"/><path d="M87.221,84.938L94.552,88.603L87.221,84.938Z" style="fill:none;stroke:#000;stroke-width:1px;"/><path d="M87.221,77.513L87.221,84.869" style="fill:none;stroke:#000;stroke-width:1px;"/><path d="M87.221,77.513L94.582,73.832L94.582,88.491L87.311,84.856L87.221,77.513Z" style="fill:none;stroke:#000;stroke-width:1px;"/><path d="M97.318,76.142L100.297,74.652L100.297,85.661L97.277,87.171L97.318,76.142Z" style="fill:none;stroke:#000;stroke-width:1px;"/><path d="M100.297,74.652L97.323,73.165L97.323,76.107L100.297,74.652Z" style="fill:none;stroke:#000;stroke-width:1px;"/><path d="M100.297,70.974L103.778,69.234L103.778,84.111L100.686,85.657L100.297,70.974Z" style="fill:none;stroke:#000;stroke-width:1px;"/><path d="M106.636,82.491L106.636,67.722L109.526,66.277L109.526,81.076L106.636,82.491Z" style="fill:none;stroke:#000;stroke-width:1px;"/><path d="M103.778,80.912L106.636,82.491L103.731,83.944L103.778,80.912Z" style="fill:none;stroke:#000;stroke-width:1px;"/><path d="M97.318,72.464L100.297,70.974" style="fill:none;stroke:#000;stroke-width:1px;"/><path d="M97.318,72.464L97.318,73.045L100.337,74.555L100.337,71.056L97.382,72.534" style="fill:none;stroke:#000;stroke-width:1px;"/><path d="M103.778,69.234L106.687,67.779L106.687,82.508L103.792,81.06L103.778,69.234Z" style="fill:none;stroke:#000;stroke-width:1px;"/></g></g></svg>