<?xml version="1.0" encoding="UTF-8" standalone="no"?><!DOCTYPE svg PUBLIC "-//W3C//DTD SVG 1.1//EN" "http://www.w3.org/Graphics/SVG/1.1/DTD/svg11.dtd"><svg width="122px" height="223px" version="1.1" xmlns="http://www.w3.org/2000/svg" xmlns:xlink="http://www.w3.org/1999/xlink" xml:space="preserve" xmlns:serif="http://www.serif.com/" style="fill-rule:evenodd;clip-rule:evenodd;stroke-linecap:round;stroke-linejoin:round;stroke-miterlimit:1.5;"><g id="bookshelf"><g id="shelf"><path d="M0.5,20.625L80.998,60.874L121.248,40.749L40.749,0.5L0.5,20.625Z" style="fill:#ae6e32;"/><path d="M74.056,211.092L75.088,63.829L5.716,30.175C5.592,80.992 5.739,179.002 5.739,179.002L74.056,211.092Z" style="fill:#ae6e32;"/><path d="M0.5,181.622L80.998,221.871L80.998,60.874L0.5,20.625L0.5,181.622ZM74.056,211.092L5.739,179.002C5.739,179.002 5.592,80.992 5.716,30.175L75.088,63.829L74.056,211.092Z" style="fill:#ae6e32;"/><path d="M80.998,221.871L121.248,201.746L121.248,40.749L80.998,60.874L80.998,221.871Z" style="fill:#ae6e32;"/><path d="M0.5,181.622L80.998,221.871L121.248,201.746L121.248,40.749L80.998,60.874L80.998,221.871L0.5,181.622Z" style="fill:none;stroke:#000;stroke-width:1px;"/><path d="M0.5,20.625L80.998,60.874L0.5,20.625Z" style="fill:none;stroke:#000;stroke-width:1px;"/><path d="M0.5,181.622L0.5,20.625L40.749,0.5L121.248,40.749" style="fill:none;stroke:#000;stroke-width:1px;"/><path d="M75.088,213.677L5.739,179.002C5.739,179.002 5.542,79.935 5.666,29.118L75.088,63.829L75.088,213.677Z" style="fill:none;stroke:#000;stroke-width:1px;"/><g id="shelf1" serif:id="shelf"><path d="M5.666,163.912L5.666,158.71L74.976,193.365L75.088,198.623L5.666,163.912Z" style="fill:none;stroke:#000;stroke-width:1px;"/><path d="M5.625,178.945L20.792,171.475L5.666,163.912L5.625,178.945Z" style="fill:none;stroke:#000;stroke-width:1px;"/></g><g id="shelf2" serif:id="shelf"><path d="M5.625,143.366L5.625,138.164L74.935,172.819L75.047,178.077L5.625,143.366Z" style="fill:none;stroke:#000;stroke-width:1px;"/><path d="M6.018,158.792L21.185,151.322L6.059,143.759L6.018,158.792Z" style="fill:none;stroke:#000;stroke-width:1px;"/></g><g id="shelf3" serif:id="shelf"><path d="M5.625,123.41L5.625,118.207L74.935,152.862L75.047,158.121L5.625,123.41Z" style="fill:none;stroke:#000;stroke-width:1px;"/><path d="M6.018,138.536L21.185,131.066L6.059,123.503L6.018,138.536Z" style="fill:none;stroke:#000;stroke-width:1px;"/></g><g id="shelf4" serif:id="shelf"><path d="M5.666,103.546L5.666,98.344L74.976,132.999L75.088,138.257L5.666,103.546Z" style="fill:none;stroke:#000;stroke-width:1px;"/><path d="M5.625,118.579L20.792,111.109L5.666,103.546L5.625,118.579Z" style="fill:none;stroke:#000;stroke-width:1px;"/></g><g id="shelf5" serif:id="shelf"><path d="M5.666,83.29L5.666,78.088L74.976,112.743L75.088,118.001L5.666,83.29Z" style="fill:none;stroke:#000;stroke-width:1px;"/><path d="M5.625,98.323L20.792,90.853L5.666,83.29L5.625,98.323Z" style="fill:none;stroke:#000;stroke-width:1px;"/></g><g id="shelf6" serif:id="shelf"><path d="M5.666,63.034L5.666,57.832L74.976,92.487L75.088,97.745L5.666,63.034Z" style="fill:none;stroke:#000;stroke-width:1px;"/><path d="M5.625,78.067L20.792,70.597L5.666,63.034L5.625,78.067Z" style="fill:none;stroke:#000;stroke-width:1px;"/></g><path d="M6.018,57.656L34.38,43.475" style="fill:none;stroke:#000;stroke-width:1px;"/></g><g id="books"><g id="Books"><g id="big-blue" serif:id="big blue"><path d="M70.97,211.618L74.789,213.527L75.088,198.778L70.97,196.721L70.97,211.618Z" style="fill:#0d1996;"/><path d="M70.97,211.618L74.789,213.527L75.088,198.778L70.97,196.721L70.97,211.618Z" style="fill:none;stroke:#000;stroke-width:1px;"/></g><g id="big-green" serif:id="big green"><path d="M66.9,194.634L66.9,209.583L70.97,211.618L70.97,196.668L66.9,194.634Z" style="fill:#25960d;"/><path d="M66.9,194.634L70.97,196.668L70.97,211.618L66.9,209.583L66.9,194.634Z" style="fill:none;stroke:#000;stroke-width:1px;"/></g><g id="little-brown" serif:id="little brown"><path d="M66.9,198.253L66.9,195.25L63.614,196.653L66.9,198.253Z" style="fill:#fff;"/><path d="M63.614,196.653L63.484,207.875L66.9,209.583L66.9,198.253L63.614,196.653Z" style="fill:#96470d;"/><path d="M63.484,207.875L66.9,209.583L66.9,195.25L63.614,196.653L63.484,207.875Z" style="fill:none;stroke:#000;stroke-width:1px;"/><path d="M66.9,198.253L63.614,196.653" style="fill:none;stroke:#000;stroke-width:1px;"/></g><g id="medium-yellow" serif:id="medium yellow"><path d="M61.536,192.004L60.035,192.755L63.614,194.544L64.912,193.895L61.536,192.004Z" style="fill:#fff;"/><path d="M64.912,193.895L63.614,194.544L63.614,196.277L66.9,195.009L64.912,193.895Z" style="fill:#ffec00;"/><path d="M63.614,194.544L60.035,192.755L60.035,206.15L63.614,207.878L63.614,194.544Z" style="fill:#ffec00;"/><path d="M60.035,206.15L60.035,192.755L63.614,194.544L63.614,207.878L60.035,206.15Z" style="fill:none;stroke:#000;stroke-width:1px;"/><path d="M63.614,194.544L65.118,193.793" style="fill:none;stroke:#000;stroke-width:1px;"/><path d="M60.035,192.755L61.536,192.004" style="fill:none;stroke:#000;stroke-width:1px;"/><path d="M61.536,192.004L66.9,195.009L63.614,196.277" style="fill:none;stroke:#000;stroke-width:1px;"/></g></g><g id="Books1" serif:id="Books"><g id="big-blue1" serif:id="big blue"><path d="M49.484,200.856L53.303,202.766L53.603,188.017L49.484,185.96L49.484,200.856Z" style="fill:#0d1996;"/><path d="M49.484,200.856L53.303,202.766L53.603,188.017L49.484,185.96L49.484,200.856Z" style="fill:none;stroke:#000;stroke-width:1px;"/></g><g id="big-green1" serif:id="big green"><path d="M45.415,183.872L45.415,198.821L49.484,200.856L49.484,185.907L45.415,183.872Z" style="fill:#25960d;"/><path d="M45.415,183.872L49.484,185.907L49.484,200.856L45.415,198.821L45.415,183.872Z" style="fill:none;stroke:#000;stroke-width:1px;"/></g><g id="little-brown1" serif:id="little brown"><path d="M45.415,187.492L45.415,184.489L42.128,185.891L45.415,187.492Z" style="fill:#fff;"/><path d="M42.128,185.891L41.998,197.113L45.415,198.821L45.415,187.492L42.128,185.891Z" style="fill:#96470d;"/><path d="M41.998,197.113L45.415,198.821L45.415,184.489L42.128,185.891L41.998,197.113Z" style="fill:none;stroke:#000;stroke-width:1px;"/><path d="M45.415,187.492L42.128,185.891" style="fill:none;stroke:#000;stroke-width:1px;"/></g><g id="medium-yellow1" serif:id="medium yellow"><path d="M40.05,181.243L38.549,181.993L42.128,183.783L43.426,183.134L40.05,181.243Z" style="fill:#fff;"/><path d="M43.426,183.134L42.128,183.783L42.128,185.515L45.415,184.248L43.426,183.134Z" style="fill:#ffec00;"/><path d="M42.128,183.783L38.549,181.993L38.549,195.389L42.128,197.117L42.128,183.783Z" style="fill:#ffec00;"/><path d="M38.549,195.389L38.549,181.993L42.128,183.783L42.128,197.117L38.549,195.389Z" style="fill:none;stroke:#000;stroke-width:1px;"/><path d="M42.128,183.783L43.632,183.031" style="fill:none;stroke:#000;stroke-width:1px;"/><path d="M38.549,181.993L40.05,181.243" style="fill:none;stroke:#000;stroke-width:1px;"/><path d="M40.05,181.243L45.415,184.248L42.128,185.515" style="fill:none;stroke:#000;stroke-width:1px;"/></g><path d="M53.603,202.616L59.982,199.426L60.035,191.457L53.603,188.601L53.603,202.616Z" style="fill:#0d1996;stroke:#000;stroke-width:1px;"/><g id="Books2" serif:id="Books"><g id="big-blue2" serif:id="big blue"><path d="M34.454,193.341L38.272,195.25L38.572,180.501L34.454,178.444L34.454,193.341Z" style="fill:#ae3e32;stroke:#000;stroke-width:1px;"/></g><g id="big-green2" serif:id="big green"><path d="M30.384,176.357L30.384,191.306L34.454,193.341L34.454,178.392L30.384,176.357Z" style="fill:#a432ae;"/><path d="M30.384,176.357L34.454,178.392L34.454,193.341L30.384,191.306L30.384,176.357Z" style="fill:none;stroke:#000;stroke-width:1px;"/></g><g id="little-brown2" serif:id="little brown"><path d="M30.384,179.977L30.384,176.973L27.097,178.376L30.384,179.977Z" style="fill:#fff;"/><path d="M27.097,178.376L26.967,189.598L30.384,191.306L30.384,179.977L27.097,178.376Z" style="fill:#96470d;"/><clipPath id="_clip1"><path d="M27.097,178.376L26.967,189.598L30.384,191.306L30.384,179.977L27.097,178.376Z"/></clipPath><g clip-path="url(#_clip1)"><path d="M26.968,189.539L26.967,189.598L30.384,191.306L30.384,179.977L27.097,178.376L27.097,189.602L26.968,189.539Z" style="fill:#32aaae;"/></g><path d="M26.967,189.598L30.384,191.306L30.384,176.973L27.097,178.376L26.967,189.598Z" style="fill:none;stroke:#000;stroke-width:1px;"/><path d="M30.384,179.977L27.097,178.376" style="fill:none;stroke:#000;stroke-width:1px;"/></g><g id="medium-yellow2" serif:id="medium yellow"><path d="M25.02,173.727L23.518,174.478L27.097,176.267L28.395,175.618L25.02,173.727Z" style="fill:#fff;"/><path d="M28.395,175.618L27.097,176.267L27.097,178L30.384,176.732L28.395,175.618Z" style="fill:#ffec00;"/><path d="M27.097,176.267L23.518,174.478L23.518,187.873L27.097,189.602L27.097,176.267Z" style="fill:#ffec00;"/><path d="M23.518,187.873L23.518,174.478L27.097,176.267L27.097,189.602L23.518,187.873Z" style="fill:none;stroke:#000;stroke-width:1px;"/><path d="M27.097,176.267L28.601,175.516" style="fill:none;stroke:#000;stroke-width:1px;"/><path d="M23.518,174.478L25.02,173.727" style="fill:none;stroke:#000;stroke-width:1px;"/><path d="M25.02,173.727L30.384,176.732L27.097,178" style="fill:none;stroke:#000;stroke-width:1px;"/></g></g><g id="Books3" serif:id="Books"><g id="big-blue3" serif:id="big blue"><path d="M19.871,186.05L23.69,187.959L23.989,173.21L19.871,171.153L19.871,186.05Z" style="fill:#0d1996;"/><path d="M19.871,186.05L23.69,187.959L23.989,173.21L19.871,171.153L19.871,186.05Z" style="fill:none;stroke:#000;stroke-width:1px;"/></g><g id="big-green3" serif:id="big green"><path d="M15.801,169.065L15.801,184.015L19.871,186.05L19.871,171.1L15.801,169.065Z" style="fill:#32ae5f;"/><path d="M15.801,169.065L19.871,171.1L19.871,186.05L15.801,184.015L15.801,169.065Z" style="fill:none;stroke:#000;stroke-width:1px;"/></g><g id="little-brown3" serif:id="little brown"><path d="M15.801,172.685L15.801,169.682L12.515,171.084L15.801,172.685Z" style="fill:#fff;"/><path d="M12.515,171.084L12.385,182.307L15.801,184.015L15.801,172.685L12.515,171.084Z" style="fill:#96470d;"/><clipPath id="_clip2"><path d="M12.515,171.084L12.385,182.307L15.801,184.015L15.801,172.685L12.515,171.084Z"/></clipPath><g clip-path="url(#_clip2)"><path d="M12.386,182.248L12.385,182.307L15.801,184.015L15.801,172.685L12.515,171.084L12.515,182.31L12.386,182.248Z" style="fill:#ae3259;"/></g><path d="M12.385,182.307L15.801,184.015L15.801,169.682L12.515,171.084L12.385,182.307Z" style="fill:none;stroke:#000;stroke-width:1px;"/><path d="M15.801,172.685L12.515,171.084" style="fill:none;stroke:#000;stroke-width:1px;"/></g><g id="medium-yellow3" serif:id="medium yellow"><path d="M10.437,166.436L8.936,167.187L12.515,168.976L13.813,168.327L10.437,166.436Z" style="fill:#fff;"/><path d="M13.813,168.327L12.515,168.976L12.515,170.709L15.801,169.441L13.813,168.327Z" style="fill:#686868;"/><path d="M12.515,168.976L8.936,167.187L8.936,180.582L12.515,182.31L12.515,168.976Z" style="fill:#ffec00;"/><clipPath id="_clip3"><path d="M12.515,168.976L8.936,167.187L8.936,180.582L12.515,182.31L12.515,168.976Z"/></clipPath><g clip-path="url(#_clip3)"><path d="M8.936,167.187L8.936,180.582L12.386,182.248L12.515,171.084L12.515,168.976L8.936,167.187Z" style="fill:#686868;"/></g><path d="M8.936,180.582L8.936,167.187L12.515,168.976L12.515,182.31L8.936,180.582Z" style="fill:none;stroke:#000;stroke-width:1px;"/><path d="M12.515,168.976L14.018,168.224" style="fill:none;stroke:#000;stroke-width:1px;"/><path d="M8.936,167.187L10.437,166.436" style="fill:none;stroke:#000;stroke-width:1px;"/><path d="M10.437,166.436L15.801,169.441L12.515,170.709" style="fill:none;stroke:#000;stroke-width:1px;"/></g></g></g></g><g id="books1" serif:id="books"><g id="Books4" serif:id="Books"><g id="big-blue4" serif:id="big blue"><path d="M70.929,131.295L74.748,133.204L75.047,118.455L70.929,116.399L70.929,131.295Z" style="fill:#00e0ff;"/><path d="M70.929,131.295L74.748,133.204L75.047,118.455L70.929,116.399L70.929,131.295Z" style="fill:none;stroke:#000;stroke-width:1px;"/></g><g id="big-green4" serif:id="big green"><path d="M66.859,114.311L66.859,129.26L70.929,131.295L70.929,116.346L66.859,114.311Z" style="fill:#fb00ff;"/><path d="M66.859,114.311L70.929,116.346L70.929,131.295L66.859,129.26L66.859,114.311Z" style="fill:none;stroke:#000;stroke-width:1px;"/></g><g id="little-brown4" serif:id="little brown"><path d="M66.859,117.931L66.859,114.928L63.573,116.33L66.859,117.931Z" style="fill:#fff;"/><path d="M63.573,116.33L63.443,127.552L66.859,129.26L66.859,117.931L63.573,116.33Z" style="fill:#ff000a;"/><path d="M63.443,127.552L66.859,129.26L66.859,114.928L63.573,116.33L63.443,127.552Z" style="fill:none;stroke:#000;stroke-width:1px;"/><path d="M66.859,117.931L63.573,116.33" style="fill:none;stroke:#000;stroke-width:1px;"/></g><g id="medium-yellow4" serif:id="medium yellow"><path d="M61.495,111.682L59.994,112.432L63.573,114.222L64.871,113.573L61.495,111.682Z" style="fill:#fff;"/><path d="M64.871,113.573L63.573,114.222L63.573,115.954L66.859,114.687L64.871,113.573Z" style="fill:#0600ff;"/><path d="M63.573,114.222L59.994,112.432L59.994,125.827L63.573,127.556L63.573,114.222Z" style="fill:#0600ff;"/><path d="M59.994,125.827L59.994,112.432L63.573,114.222L63.573,127.556L59.994,125.827Z" style="fill:none;stroke:#000;stroke-width:1px;"/><path d="M63.573,114.222L65.076,113.47" style="fill:none;stroke:#000;stroke-width:1px;"/><path d="M59.994,112.432L61.495,111.682" style="fill:none;stroke:#000;stroke-width:1px;"/><path d="M61.495,111.682L66.859,114.687L63.573,115.954" style="fill:none;stroke:#000;stroke-width:1px;"/></g></g><g id="Books5" serif:id="Books"><g id="big-blue5" serif:id="big blue"><path d="M49.443,120.534L53.262,122.443L53.561,107.694L49.443,105.637L49.443,120.534Z" style="fill:#0dff00;"/><path d="M49.443,120.534L53.262,122.443L53.561,107.694L49.443,105.637L49.443,120.534Z" style="fill:none;stroke:#000;stroke-width:1px;"/></g><g id="big-green5" serif:id="big green"><path d="M45.373,103.549L45.373,118.499L49.443,120.534L49.443,105.584L45.373,103.549Z" style="fill:#25960d;"/><path d="M45.373,103.549L49.443,105.584L49.443,120.534L45.373,118.499L45.373,103.549Z" style="fill:none;stroke:#000;stroke-width:1px;"/></g><g id="little-brown5" serif:id="little brown"><path d="M45.373,107.169L45.373,104.166L42.087,105.569L45.373,107.169Z" style="fill:#fff;"/><path d="M42.087,105.569L41.957,116.791L45.373,118.499L45.373,107.169L42.087,105.569Z" style="fill:#ffec00;"/><path d="M41.957,116.791L45.373,118.499L45.373,104.166L42.087,105.569L41.957,116.791Z" style="fill:none;stroke:#000;stroke-width:1px;"/><path d="M45.373,107.169L42.087,105.569" style="fill:none;stroke:#000;stroke-width:1px;"/></g><g id="medium-yellow5" serif:id="medium yellow"><path d="M40.009,100.92L38.508,101.671L42.087,103.46L43.385,102.811L40.009,100.92Z" style="fill:#fff;"/><path d="M43.385,102.811L42.087,103.46L42.087,105.193L45.373,103.925L43.385,102.811Z" style="fill:#ffec00;"/><path d="M42.087,103.46L38.508,101.671L38.508,115.066L42.087,116.794L42.087,103.46Z" style="fill:#ffec00;"/><path d="M38.508,115.066L38.508,101.671L42.087,103.46L42.087,116.794L38.508,115.066Z" style="fill:none;stroke:#000;stroke-width:1px;"/><path d="M42.087,103.46L43.591,102.708" style="fill:none;stroke:#000;stroke-width:1px;"/><path d="M38.508,101.671L40.009,100.92" style="fill:none;stroke:#000;stroke-width:1px;"/><path d="M40.009,100.92L45.373,103.925L42.087,105.193" style="fill:none;stroke:#000;stroke-width:1px;"/></g><path d="M53.561,122.293L59.941,119.103L59.994,111.134L53.561,108.279L53.561,122.293Z" style="fill:#0dff00;stroke:#000;stroke-width:1px;"/><g id="Books6" serif:id="Books"><g id="big-blue6" serif:id="big blue"><path d="M34.412,113.018L38.231,114.928L38.53,100.178L34.412,98.122L34.412,113.018Z" style="fill:#ffec00;stroke:#000;stroke-width:1px;"/></g><g id="big-green6" serif:id="big green"><path d="M30.343,96.034L30.343,110.983L34.412,113.018L34.412,98.069L30.343,96.034Z" style="fill:#ab0025;"/><path d="M30.343,96.034L34.412,98.069L34.412,113.018L30.343,110.983L30.343,96.034Z" style="fill:none;stroke:#000;stroke-width:1px;"/></g><g id="little-brown6" serif:id="little brown"><path d="M30.343,99.654L30.343,96.651L27.056,98.053L30.343,99.654Z" style="fill:#fff;"/><path d="M27.056,98.053L26.926,109.275L30.343,110.983L30.343,99.654L27.056,98.053Z" style="fill:#96470d;"/><clipPath id="_clip4"><path d="M27.056,98.053L26.926,109.275L30.343,110.983L30.343,99.654L27.056,98.053Z"/></clipPath><g clip-path="url(#_clip4)"><path d="M26.927,109.217L26.926,109.275L30.343,110.983L30.343,99.654L27.056,98.053L27.056,109.279L26.927,109.217Z" style="fill:#474747;"/></g><path d="M26.926,109.275L30.343,110.983L30.343,96.651L27.056,98.053L26.926,109.275Z" style="fill:none;stroke:#000;stroke-width:1px;"/><path d="M30.343,99.654L27.056,98.053" style="fill:none;stroke:#000;stroke-width:1px;"/></g><g id="medium-yellow6" serif:id="medium yellow"><path d="M24.978,93.405L23.477,94.155L27.056,95.945L28.354,95.296L24.978,93.405Z" style="fill:#fff;"/><path d="M28.354,95.296L27.056,95.945L27.056,97.677L30.343,96.41L28.354,95.296Z" style="fill:#ffec00;"/><path d="M27.056,95.945L23.477,94.155L23.477,107.55L27.056,109.279L27.056,95.945Z" style="fill:#ffec00;"/><path d="M23.477,107.55L23.477,94.155L27.056,95.945L27.056,109.279L23.477,107.55Z" style="fill:none;stroke:#000;stroke-width:1px;"/><path d="M27.056,95.945L28.56,95.193" style="fill:none;stroke:#000;stroke-width:1px;"/><path d="M23.477,94.155L24.978,93.405" style="fill:none;stroke:#000;stroke-width:1px;"/><path d="M24.978,93.405L30.343,96.41L27.056,97.677" style="fill:none;stroke:#000;stroke-width:1px;"/></g></g><g id="Books7" serif:id="Books"><g id="big-blue7" serif:id="big blue"><path d="M19.83,105.727L23.649,107.636L23.948,92.887L19.83,90.83L19.83,105.727Z" style="fill:#0d1996;"/><path d="M19.83,105.727L23.649,107.636L23.948,92.887L19.83,90.83L19.83,105.727Z" style="fill:none;stroke:#000;stroke-width:1px;"/></g><g id="big-green7" serif:id="big green"><path d="M15.76,88.743L15.76,103.692L19.83,105.727L19.83,90.778L15.76,88.743Z" style="fill:#ff00eb;"/><path d="M15.76,88.743L19.83,90.778L19.83,105.727L15.76,103.692L15.76,88.743Z" style="fill:none;stroke:#000;stroke-width:1px;"/></g><g id="little-brown7" serif:id="little brown"><path d="M15.76,92.363L15.76,89.359L12.474,90.762L15.76,92.363Z" style="fill:#fff;"/><path d="M12.474,90.762L12.344,101.984L15.76,103.692L15.76,92.363L12.474,90.762Z" style="fill:#96470d;"/><clipPath id="_clip5"><path d="M12.474,90.762L12.344,101.984L15.76,103.692L15.76,92.363L12.474,90.762Z"/></clipPath><g clip-path="url(#_clip5)"><path d="M12.345,101.925L12.344,101.984L15.76,103.692L15.76,92.363L12.474,90.762L12.474,101.988L12.345,101.925Z" style="fill:#ae3259;"/></g><path d="M12.344,101.984L15.76,103.692L15.76,89.359L12.474,90.762L12.344,101.984Z" style="fill:none;stroke:#000;stroke-width:1px;"/><path d="M15.76,92.363L12.474,90.762" style="fill:none;stroke:#000;stroke-width:1px;"/></g><g id="medium-yellow7" serif:id="medium yellow"><path d="M10.396,86.113L8.894,86.864L12.474,88.654L13.772,88.005L10.396,86.113Z" style="fill:#fff;"/><path d="M13.772,88.005L12.474,88.654L12.474,90.386L15.76,89.119L13.772,88.005Z" style="fill:#1b00ff;"/><path d="M12.474,88.654L8.894,86.864L8.894,100.259L12.474,101.988L12.474,88.654Z" style="fill:#ffec00;"/><clipPath id="_clip6"><path d="M12.474,88.654L8.894,86.864L8.894,100.259L12.474,101.988L12.474,88.654Z"/></clipPath><g clip-path="url(#_clip6)"><path d="M8.894,86.864L8.894,100.259L12.345,101.925L12.474,90.762L12.474,88.654L8.894,86.864Z" style="fill:#6000ff;"/></g><path d="M8.894,100.259L8.894,86.864L12.474,88.654L12.474,101.988L8.894,100.259Z" style="fill:none;stroke:#000;stroke-width:1px;"/><path d="M12.474,88.654L13.977,87.902" style="fill:none;stroke:#000;stroke-width:1px;"/><path d="M8.894,86.864L10.396,86.113" style="fill:none;stroke:#000;stroke-width:1px;"/><path d="M10.396,86.113L15.76,89.119L12.474,90.386" style="fill:none;stroke:#000;stroke-width:1px;"/></g></g></g></g><g id="books2" serif:id="books"><path d="M54.369,183.061L54.304,171.08L54.289,171.073L50.986,169.421L50.986,181.26L54.369,183.061Z" style="fill:#865200;"/><path d="M54.289,167.77L50.986,169.421L54.289,171.073L54.289,167.77Z" style="fill:#fff;"/><path d="M54.289,167.77L50.986,166.118L50.986,169.421L54.289,167.77Z" style="fill:#630a58;"/><path d="M34.906,173.329L34.896,158.045L31.774,156.484L31.774,171.763L34.906,173.329Z" style="fill:#b4b061;"/><path d="M38.109,174.931L38.108,159.641L34.906,158.04L34.906,173.329L38.109,174.931Z" style="fill:#5d005c;"/><path d="M38.109,162.071L41.711,163.782L41.711,161.573L40.408,160.921L38.109,162.071Z" style="fill:#fff;"/><path d="M41.734,164.831L41.734,163.884L38.109,162.071L38.109,174.931L41.566,176.66L41.734,164.831Z" style="fill:#860015;"/><path d="M38.109,174.931L38.108,159.641L34.906,158.04L34.906,173.329L38.109,174.931Z" style="fill:#098f76;"/><path d="M40.408,160.921L38.108,159.641L38.109,174.931L38.109,162.071L40.408,160.921Z" style="fill:#098f76;"/><path d="M22.504,167.075L22.504,151.806L19.458,150.269L19.458,165.552L22.504,167.075Z" style="fill:#7639c9;"/><path d="M22.504,158.118L22.504,167.102L25.367,168.533L25.366,168.476L25.35,168.468L25.35,159.541L22.504,158.118Z" style="fill:#658d53;"/><path d="M28.24,158.121L25.48,156.74L25.369,156.685L25.35,156.695L25.35,159.541L25.366,168.476L28.24,169.913L28.24,158.121Z" style="fill:#840900;"/><path d="M31.774,156.604L28.24,154.772L28.24,158.121L28.305,169.945L28.24,169.913L28.24,169.962L31.595,171.674L31.774,156.604Z" style="fill:#829d2a;"/><path d="M71.369,191.561L75.088,189.701L75.088,178.057L71.369,176.238L71.369,176.256L71.369,191.561Z" style="fill:#006e4d;"/><path d="M64.777,177.573L67.798,179.084L67.419,178.864L67.633,176.321L64.777,177.573Z" style="fill:#fff;"/><path d="M60.063,175.217L57.963,174.167L57.963,184.628L60.063,185.704L60.063,175.217Z" style="fill:#bf4040;"/><path d="M67.633,176.321L67.798,174.371L66.644,173.925L62.062,176.216L64.777,177.573L67.633,176.321Z" style="fill:#fff;"/><path d="M47.733,179.724L50.986,181.37L50.986,166.118L47.733,164.492L47.733,179.724Z" style="fill:#630a58;"/><path d="M44.988,178.077L47.733,179.743L47.733,164.42L44.987,163.047L44.987,163.068L45.024,163.087L44.988,178.077Z" style="fill:#0a2863;"/><path d="M54.369,183.061L57.963,184.936L57.963,169.57L54.369,167.752L54.369,183.061Z" style="fill:#860015;"/><path d="M25.35,159.541L25.35,156.695L22.504,158.118L25.35,159.541Z" style="fill:#fff;"/><path d="M25.35,156.676L25.369,156.685L25.48,156.63L25.48,156.74L28.229,158.101L28.229,155.236L25.35,156.676Z" style="fill:#fff;"/><path d="M71.369,191.561L71.369,176.256L67.798,174.453L67.798,189.777L71.369,191.561Z" style="fill:#006d09;stroke:#000;stroke-width:1px;"/><path d="M71.369,191.561L75.088,189.701L75.088,178.057L71.369,176.238L71.366,191.561" style="fill:none;stroke:#000;stroke-width:1px;"/><path d="M66.5,173.838L62.265,171.854L58.235,174.031L62.399,176.249L66.5,173.838Z" style="fill:#fff;"/><path d="M64.898,188.216L64.898,177.634L60.063,175.217L60.063,185.799L64.898,188.216Z" style="fill:#bf4040;"/><path d="M67.798,179.084L64.898,177.634L64.898,188.216L67.732,189.633L67.798,179.084Z" style="fill:#bf4040;"/><path d="M67.798,179.084L57.963,174.167L57.963,184.628" style="fill:none;stroke:#000;stroke-width:1px;"/><path d="M57.963,174.167L62.399,171.787" style="fill:none;stroke:#000;stroke-width:1px;"/><path d="M64.535,172.856L59.994,175.207" style="fill:none;stroke:#000;stroke-width:1px;"/><path d="M66.717,173.889L61.997,176.249" style="fill:none;stroke:#000;stroke-width:1px;"/><path d="M64.707,177.604L67.798,176.249" style="fill:none;stroke:#000;stroke-width:1px;"/><path d="M60.063,175.217L60.063,185.832" style="fill:none;stroke:#000;stroke-width:1px;"/><path d="M62.127,176.249L62.127,186.771" style="fill:none;stroke:#000;stroke-width:1px;"/><path d="M64.898,177.604L64.898,188.216" style="fill:none;stroke:#000;stroke-width:1px;"/><path d="M67.419,178.864L67.798,174.371L61.908,171.542" style="fill:none;stroke:#000;stroke-width:1px;"/><path d="M66.5,173.838L62.399,176.249L58.235,174.031L62.265,171.854L66.5,173.838Z" style="fill:none;stroke:#000;stroke-width:1px;"/><path d="M67.798,189.666L57.963,184.628" style="fill:none;stroke:#000;stroke-width:1px;"/><path d="M67.419,178.864L67.798,179.084L67.732,189.666" style="fill:none;stroke:#000;stroke-width:1px;"/><path d="M57.963,184.936L54.369,183.061L54.369,167.752L57.963,169.57L57.963,184.936Z" style="fill:none;stroke:#000;stroke-width:1px;"/><path d="M54.369,183.061L50.986,181.26L50.986,169.422L54.304,171.08L54.369,183.061Z" style="fill:none;stroke:#000;stroke-width:1px;"/><path d="M50.986,169.422L54.289,167.77L54.289,171.073L50.986,169.422Z" style="fill:none;stroke:#000;stroke-width:1px;"/><path d="M50.986,181.37L50.986,166.118L47.733,164.492L47.733,179.724L50.986,181.37Z" style="fill:none;stroke:#000;stroke-width:1px;"/><path d="M47.733,179.743L47.733,164.42L44.987,163.047L44.987,178.077L47.733,179.743Z" style="fill:none;stroke:#000;stroke-width:1px;"/><path d="M44.987,178.37L45.024,163.087L41.734,161.442L41.734,176.744L44.987,178.37Z" style="fill:#40bf4f;"/><path d="M44.987,178.37L41.734,176.744L41.734,161.442L45.024,163.087L44.987,178.37Z" style="fill:none;stroke:#000;stroke-width:1px;"/><path d="M50.987,169.421L54.289,167.77L50.961,166.106" style="fill:none;stroke:#000;stroke-width:1px;"/><path d="M57.963,174.214L62.411,171.99L57.978,169.774L57.963,174.214Z" style="fill:#860015;"/><path d="M57.963,174.214L62.411,171.99L57.978,169.774L57.963,174.214Z" style="fill:none;stroke:#000;stroke-width:1px;"/><path d="M41.566,176.66L38.109,174.931L38.109,162.071L41.747,163.89L41.566,176.66Z" style="fill:none;stroke:#000;stroke-width:1px;"/><path d="M38.109,162.071L40.408,160.921L41.711,161.573L41.711,163.782L38.109,162.071Z" style="fill:none;stroke:#000;stroke-width:1px;"/><path d="M38.109,174.931L34.906,173.329L34.906,158.04L38.108,159.641L38.109,174.931Z" style="fill:none;stroke:#000;stroke-width:1px;"/><path d="M34.906,173.329L31.774,171.763L31.774,156.484L34.896,158.045L34.906,173.329Z" style="fill:none;stroke:#000;stroke-width:1px;"/><path d="M40.408,160.921L38.108,159.641" style="fill:none;stroke:#000;stroke-width:1px;"/><path d="M28.24,158.121L25.35,156.676L25.35,168.468L28.305,169.945L28.24,158.121Z" style="fill:none;stroke:#000;stroke-width:1px;"/><path d="M25.35,156.676L28.229,155.236L28.229,158.101L25.35,156.676Z" style="fill:none;stroke:#000;stroke-width:1px;"/><path d="M25.35,159.541L22.504,158.118L22.504,167.102L25.367,168.533L25.35,159.541Z" style="fill:none;stroke:#000;stroke-width:1px;"/><path d="M22.504,158.118L25.48,156.63L25.48,159.545" style="fill:none;stroke:#000;stroke-width:1px;"/><path d="M31.774,156.604L28.24,154.772L28.24,169.962L31.595,171.674L31.774,156.604Z" style="fill:none;stroke:#000;stroke-width:1px;"/><path d="M22.504,151.806L22.504,167.075L19.458,165.552L19.458,150.269L22.504,151.806Z" style="fill:none;stroke:#000;stroke-width:1px;"/><path d="M22.504,151.806L22.504,157.911L28.24,154.772L22.504,151.806Z" style="fill:#7639c9;"/><path d="M22.504,151.806L28.24,154.772L22.504,157.911L22.504,151.806Z" style="fill:none;stroke:#000;stroke-width:1px;"/><path d="M19.416,165.585L19.395,150.446L13.07,147.284L13.07,162.328L19.416,165.585Z" style="fill:#3c3c3c;"/><path d="M19.416,165.585L13.07,162.328L13.07,147.284L19.395,150.446L19.416,165.585Z" style="fill:none;stroke:#000;stroke-width:1px;"/><path d="M13.07,162.328L13.084,147.161L9.677,145.458L9.677,160.661L13.07,162.328Z" style="fill:#ab5da3;"/><path d="M13.07,162.328L9.677,160.661L9.677,145.458L13.084,147.161L13.07,162.328Z" style="fill:none;stroke:#000;stroke-width:1px;"/></g><g id="books3" serif:id="books"><path d="M70.586,151.411L74.305,149.551L74.305,137.907L70.586,136.088L70.586,136.106L70.586,151.411Z" style="fill:#0005c9;"/><path d="M63.994,137.423L67.015,138.934L66.636,138.714L66.851,136.171L63.994,137.423Z" style="fill:#fff;"/><path d="M59.281,135.067L57.18,134.016L57.18,144.477L59.281,145.553L59.281,135.067Z" style="fill:#bf4040;"/><clipPath id="_clip7"><path d="M59.281,135.067L57.18,134.016L57.18,144.477L59.281,145.553L59.281,135.067Z"/></clipPath><g clip-path="url(#_clip7)"><path d="M57.18,144.477L59.281,145.553L59.281,135.067L57.228,134.04L57.18,134.064L57.18,144.477Z" style="fill:#31782e;"/></g><path d="M66.851,136.171L67.015,134.221L65.861,133.775L61.279,136.066L63.994,137.423L66.851,136.171Z" style="fill:#fff;"/><path d="M46.95,139.573L50.203,141.219L50.203,125.968L46.95,124.342L46.95,139.573Z" style="fill:#7e2200;"/><path d="M44.205,137.927L46.95,139.593L46.95,124.27L44.204,122.897L44.204,122.918L44.242,122.936L44.205,137.927Z" style="fill:#b6b6b6;"/><path d="M53.586,142.911L57.18,144.786L57.18,129.419L53.586,127.602L53.586,142.911Z" style="fill:#2c2c2c;"/><path d="M53.586,142.911L53.521,130.93L53.506,130.922L50.203,129.271L50.203,141.11L53.586,142.911Z" style="fill:#ff4500;"/><path d="M53.506,127.62L50.203,129.271L53.506,130.922L53.506,127.62Z" style="fill:#fff;"/><path d="M53.506,127.62L50.203,125.968L50.203,129.271L53.506,127.62Z" style="fill:#7e2200;"/><path d="M34.123,133.179L34.113,117.895L30.991,116.334L30.991,131.613L34.123,133.179Z" style="fill:#65c33a;"/><path d="M37.326,134.781L37.325,119.491L34.123,117.89L34.123,133.179L37.326,134.781Z" style="fill:#5d005c;"/><path d="M37.326,121.921L40.928,123.632L40.928,121.422L39.626,120.771L37.326,121.921Z" style="fill:#fff;"/><path d="M40.951,124.681L40.951,123.733L37.326,121.921L37.326,134.781L40.783,136.509L40.951,124.681Z" style="fill:#860015;"/><path d="M37.326,134.781L37.325,119.491L34.123,117.89L34.123,133.179L37.326,134.781Z" style="fill:#098f76;"/><path d="M39.626,120.771L37.325,119.491L37.326,134.781L37.326,121.921L39.626,120.771Z" style="fill:#098f76;"/><path d="M21.721,126.924L21.721,111.656L18.676,110.119L18.676,125.401L21.721,126.924Z" style="fill:#131fc1;"/><path d="M21.721,117.967L21.721,126.951L24.584,128.382L24.584,128.326L24.567,128.318L24.567,119.39L21.721,117.967Z" style="fill:#d4808f;"/><path d="M27.457,117.97L24.697,116.59L24.587,116.535L24.567,116.544L24.567,119.39L24.584,128.326L27.457,129.763L27.457,117.97Z" style="fill:#840900;"/><path d="M30.991,116.453L27.457,114.622L27.457,117.97L27.522,129.795L27.457,129.763L27.457,129.811L30.812,131.524L30.991,116.453Z" style="fill:#007476;"/><path d="M24.567,116.525L24.587,116.535L24.697,116.48L24.697,116.59L27.446,117.951L27.446,115.086L24.567,116.525Z" style="fill:#fff;"/><path d="M24.567,119.39L24.567,116.544L21.721,117.967L24.567,119.39Z" style="fill:#fff;"/><g id="books4" serif:id="books"><path d="M70.586,151.411L70.586,136.106L67.015,134.303L67.015,149.627L70.586,151.411Z" style="fill:#006d09;"/><clipPath id="_clip8"><path d="M70.586,151.411L70.586,136.106L67.015,134.303L67.015,149.627L70.586,151.411Z"/></clipPath><g clip-path="url(#_clip8)"><path d="M70.586,136.106L67.015,134.303L67.015,149.627L70.584,151.409L70.586,136.106Z" style="fill:#0005c9;"/></g><path d="M70.586,151.411L70.586,136.106L67.015,134.303L67.015,149.627L70.586,151.411Z" style="fill:none;stroke:#000;stroke-width:1px;"/><path d="M70.586,151.411L74.305,149.551L74.305,137.907L70.586,136.088L70.584,151.411" style="fill:none;stroke:#000;stroke-width:1px;"/><path d="M65.718,133.688L61.482,131.704L57.452,133.881L61.616,136.099L65.718,133.688Z" style="fill:#fff;"/><path d="M64.115,148.066L64.115,137.484L59.281,135.067L59.281,145.648L64.115,148.066Z" style="fill:#bf4040;"/><clipPath id="_clip9"><path d="M64.115,148.066L64.115,137.484L59.281,135.067L59.281,145.648L64.115,148.066Z"/></clipPath><g clip-path="url(#_clip9)"><path d="M61.345,136.099L61.345,146.611L64.115,148.03L64.115,137.484L61.345,136.099Z" style="fill:#b4b4b4;"/><path d="M59.281,135.067L59.281,145.553L61.345,146.611L61.345,136.099L59.281,135.067Z" style="fill:#31782e;"/></g><path d="M67.015,138.934L64.115,137.484L64.115,148.066L66.949,149.483L67.015,138.934Z" style="fill:#bf4040;"/><clipPath id="_clip10"><path d="M67.015,138.934L64.115,137.484L64.115,148.066L66.949,149.483L67.015,138.934Z"/></clipPath><g clip-path="url(#_clip10)"><path d="M66.949,149.482L67.015,138.934L64.115,137.484L64.115,148.03L66.949,149.482Z" style="fill:#b4b4b4;"/></g><path d="M67.015,138.934L57.18,134.016L57.18,144.477" style="fill:none;stroke:#000;stroke-width:1px;"/><path d="M57.18,134.016L61.616,131.637" style="fill:none;stroke:#000;stroke-width:1px;"/><path d="M63.752,132.705L59.211,135.056" style="fill:none;stroke:#000;stroke-width:1px;"/><path d="M65.935,133.738L61.214,136.099" style="fill:none;stroke:#000;stroke-width:1px;"/><path d="M63.924,137.454L67.015,136.099" style="fill:none;stroke:#000;stroke-width:1px;"/><path d="M59.281,135.067L59.281,145.682" style="fill:none;stroke:#000;stroke-width:1px;"/><path d="M61.345,136.099L61.345,146.621" style="fill:none;stroke:#000;stroke-width:1px;"/><path d="M64.115,137.454L64.115,148.066" style="fill:none;stroke:#000;stroke-width:1px;"/><path d="M66.636,138.714L67.015,134.221L61.126,131.392" style="fill:none;stroke:#000;stroke-width:1px;"/><path d="M65.718,133.688L61.616,136.099L57.452,133.881L61.482,131.704L65.718,133.688Z" style="fill:none;stroke:#000;stroke-width:1px;"/><path d="M67.015,149.516L57.18,144.477" style="fill:none;stroke:#000;stroke-width:1px;"/><path d="M66.636,138.714L67.015,138.934L66.949,149.516" style="fill:none;stroke:#000;stroke-width:1px;"/><path d="M57.18,144.786L53.586,142.911L53.586,127.602L57.18,129.419L57.18,144.786Z" style="fill:none;stroke:#000;stroke-width:1px;"/><path d="M53.586,142.911L50.203,141.11L50.203,129.271L53.521,130.93L53.586,142.911Z" style="fill:none;stroke:#000;stroke-width:1px;"/><path d="M50.203,129.271L53.506,127.62L53.506,130.922L50.203,129.271Z" style="fill:none;stroke:#000;stroke-width:1px;"/><path d="M50.203,141.219L50.203,125.968L46.95,124.342L46.95,139.573L50.203,141.219Z" style="fill:none;stroke:#000;stroke-width:1px;"/><path d="M46.95,139.593L46.95,124.27L44.204,122.897L44.204,137.927L46.95,139.593Z" style="fill:none;stroke:#000;stroke-width:1px;"/><path d="M44.204,138.22L44.242,122.936L40.951,121.291L40.951,136.593L44.204,138.22Z" style="fill:#40bf4f;"/><clipPath id="_clip11"><path d="M44.204,138.22L44.242,122.936L40.951,121.291L40.951,136.593L44.204,138.22Z"/></clipPath><g clip-path="url(#_clip11)"><path d="M44.204,122.918L40.951,121.291L40.951,123.733L40.964,123.74L40.951,124.681L40.951,136.593L44.204,138.22L44.205,137.927L44.204,122.918Z" style="fill:#ffe600;"/></g><path d="M44.204,138.22L40.951,136.593L40.951,121.291L44.242,122.936L44.204,138.22Z" style="fill:none;stroke:#000;stroke-width:1px;"/><path d="M50.204,129.271L53.506,127.62L50.178,125.955" style="fill:none;stroke:#000;stroke-width:1px;"/><path d="M57.18,134.064L61.628,131.84L57.195,129.623L57.18,134.064Z" style="fill:#860015;"/><clipPath id="_clip12"><path d="M57.18,134.064L61.628,131.84L57.195,129.623L57.18,134.064Z"/></clipPath><g clip-path="url(#_clip12)"><path d="M61.421,131.737L57.195,129.623L57.181,134.016L60.146,132.426L61.421,131.737Z" style="fill:#2c2c2c;"/></g><path d="M57.18,134.064L61.628,131.84L57.195,129.623L57.18,134.064Z" style="fill:none;stroke:#000;stroke-width:1px;"/><path d="M40.783,136.509L37.326,134.781L37.326,121.921L40.964,123.74L40.783,136.509Z" style="fill:none;stroke:#000;stroke-width:1px;"/><path d="M37.326,121.921L39.626,120.771L40.928,121.422L40.928,123.632L37.326,121.921Z" style="fill:none;stroke:#000;stroke-width:1px;"/><path d="M37.326,134.781L34.123,133.179L34.123,117.89L37.325,119.491L37.326,134.781Z" style="fill:none;stroke:#000;stroke-width:1px;"/><path d="M34.123,133.179L30.991,131.613L30.991,116.334L34.113,117.895L34.123,133.179Z" style="fill:none;stroke:#000;stroke-width:1px;"/><path d="M39.626,120.771L37.325,119.491" style="fill:none;stroke:#000;stroke-width:1px;"/><path d="M27.457,117.97L24.567,116.525L24.567,128.318L27.522,129.795L27.457,117.97Z" style="fill:none;stroke:#000;stroke-width:1px;"/><path d="M24.567,116.525L27.446,115.086L27.446,117.951L24.567,116.525Z" style="fill:none;stroke:#000;stroke-width:1px;"/><path d="M24.567,119.39L21.721,117.967L21.721,126.951L24.584,128.382L24.567,119.39Z" style="fill:none;stroke:#000;stroke-width:1px;"/><path d="M21.721,117.967L24.697,116.48L24.697,119.395" style="fill:none;stroke:#000;stroke-width:1px;"/><path d="M30.991,116.453L27.457,114.622L27.457,129.811L30.812,131.524L30.991,116.453Z" style="fill:none;stroke:#000;stroke-width:1px;"/><path d="M21.721,111.656L21.721,126.924L18.676,125.401L18.676,110.119L21.721,111.656Z" style="fill:none;stroke:#000;stroke-width:1px;"/><path d="M21.721,111.656L21.721,117.76L27.457,114.622L21.721,111.656Z" style="fill:#131fc1;"/><path d="M21.721,111.656L27.457,114.622L21.721,117.76L21.721,111.656Z" style="fill:none;stroke:#000;stroke-width:1px;"/><path d="M18.634,125.434L18.612,110.295L12.287,107.133L12.287,122.178L18.634,125.434Z" style="fill:#3c3c3c;"/><clipPath id="_clip13"><path d="M18.634,125.434L18.612,110.295L12.287,107.133L12.287,122.178L18.634,125.434Z"/></clipPath><g clip-path="url(#_clip13)"><path d="M12.287,122.178L18.634,125.434L18.612,110.295L12.301,107.14L12.287,122.178Z" style="fill:#c113b8;"/></g><path d="M18.634,125.434L12.287,122.178L12.287,107.133L18.612,110.295L18.634,125.434Z" style="fill:none;stroke:#000;stroke-width:1px;"/><path d="M12.287,122.178L12.301,107.01L8.894,105.307L8.894,120.511L12.287,122.178Z" style="fill:#ab5da3;"/><clipPath id="_clip14"><path d="M12.287,122.178L12.301,107.01L8.894,105.307L8.894,120.511L12.287,122.178Z"/></clipPath><g clip-path="url(#_clip14)"><path d="M12.301,107.14L12.301,107.01L8.894,105.307L8.894,120.511L12.287,122.178L12.287,107.133L12.301,107.14Z" style="fill:#52cc78;"/></g><path d="M12.287,122.178L8.894,120.511L8.894,105.307L12.301,107.01L12.287,122.178Z" style="fill:none;stroke:#000;stroke-width:1px;"/></g></g><g id="books5" serif:id="books"><path d="M45.312,147.016L45.312,157.849L48.05,159.215L48.05,159.189L48.033,159.181L48.05,148.435L45.312,147.016Z" style="fill:#598332;"/><path d="M24.473,132.845L21.494,131.355L21.454,132.87L21.454,134.936L24.473,133.426L24.473,132.845Z" style="fill:#a3190c;"/><path d="M54.365,153.224L50.937,151.51L50.937,160.633L50.861,160.594L50.861,160.62L54.388,162.383L54.388,162.373L54.365,162.362L54.365,153.224Z" style="fill:#00cfff;"/><path d="M51.732,146.545L51.833,146.595L48.101,148.461L48.05,148.435L48.05,159.172L50.861,157.767L50.861,151.472L50.937,151.51L50.937,151.504L56.32,148.813L51.758,146.532L51.732,146.545Z" style="fill:#598332;"/><path d="M56.32,148.813L50.981,151.482L54.365,153.115L54.365,151.013L57.512,149.439L56.32,148.813Z" style="fill:#fff;"/><path d="M18.013,144.302L18.013,144.492L21.105,146.038L21.494,131.355L18.013,129.615L18.013,141.293L18.06,144.325L18.013,144.302Z" style="fill:#8e050c;"/><path d="M24.473,136.523L21.494,135.033L21.494,146.042L24.514,147.552L24.514,147.542L24.473,147.521L24.473,136.523Z" style="fill:#5ad5bf;"/><path d="M21.494,135.033L24.468,136.488L24.468,133.546L21.494,135.033Z" style="fill:#fffef4;"/><path d="M27.209,134.213L24.473,132.845L24.473,136.523L24.514,147.542L27.239,148.984L27.239,148.857L27.209,148.872L27.209,134.213Z" style="fill:#c1af04;"/><path d="M34.57,137.893L27.239,134.228L27.239,148.857L34.48,145.237L34.57,137.893Z" style="fill:#c1af04;"/><path d="M38.755,154.742L38.698,140.052L35.593,138.499L35.593,153.161L38.755,154.742Z" style="fill:#73b068;"/><path d="M41.925,156.327L41.844,141.615L38.755,140.071L38.755,154.742L41.925,156.327Z" style="fill:#2a00ff;"/><path d="M45.312,143.253L45.317,146.979L49.041,145.117L45.312,143.253Z" style="fill:#f10;"/><path d="M45.312,157.884L45.312,143.253L41.925,141.641L41.925,156.327L45.312,157.884Z" style="fill:#f10;"/><path d="M15.155,128.186L15.155,128.103L12.265,126.658L12.265,141.457L15.104,142.847L15.104,128.16L15.155,128.186Z" style="fill:#484848;"/><path d="M18.013,129.615L15.155,128.186L15.155,142.863L15.334,142.773L17.999,141.3L18.013,129.615Z" style="fill:#484848;"/><path d="M45.312,147.016L48.05,148.385L51.732,146.545L48.994,145.175L45.312,147.016Z" style="fill:#fff;"/><path d="M54.365,151.013L57.598,152.616L57.598,149.431L57.681,149.472L57.681,149.355L54.365,151.013Z" style="fill:#fff;"/><path d="M54.365,151.013L54.365,153.224L54.388,162.373L57.598,163.979L57.598,152.629L54.365,151.013Z" style="fill:#7519dd;"/><path d="M60.347,165.525L60.347,150.805L57.681,149.472L57.681,152.657L57.598,152.616L57.598,152.629L57.675,164.017L57.598,163.979L57.598,164.107L60.347,165.525Z" style="fill:#717171;"/><path d="M60.347,150.861L60.347,165.525L63.929,163.734L63.929,155.795L63.944,155.787L63.944,155.705L66.99,154.182L60.347,150.861Z" style="fill:#717171;"/><path d="M63.944,155.787L63.944,155.802L67.139,157.4L67.139,154.189L63.944,155.787Z" style="fill:#fff;"/><path d="M67.139,157.4L67.139,157.409L63.944,155.802L63.929,163.734L63.929,167.316L67.159,168.906L67.159,157.41L67.139,157.4Z" style="fill:#1bb5bc;"/><path d="M67.159,157.41L67.207,157.434L67.207,168.93L67.159,168.906L67.159,168.931L70.739,170.687L70.807,156L67.159,154.175L67.159,157.41Z" style="fill:#271bbc;"/><path d="M70.807,170.721L75.059,168.595L75.059,158.165L70.807,156L70.807,170.721Z" style="fill:#271bbc;"/><path d="M70.807,156.001L70.807,170.721L67.159,168.931L67.159,154.175L70.807,156.001Z" style="fill:none;stroke:#000;stroke-width:1px;"/><path d="M70.807,170.721L75.059,168.595L75.059,158.165L70.807,156L70.739,170.721" style="fill:none;stroke:#000;stroke-width:1px;"/><path d="M63.929,167.316L63.929,155.795L67.207,157.434L67.207,168.93L63.929,167.316Z" style="fill:none;stroke:#000;stroke-width:1px;"/><path d="M63.929,155.795L67.139,154.189L67.139,157.409L63.929,155.795Z" style="fill:none;stroke:#000;stroke-width:1px;"/><path d="M60.347,165.525L60.347,150.805L57.598,149.431L57.598,164.107L60.347,165.525Z" style="fill:none;stroke:#000;stroke-width:1px;"/><path d="M63.929,163.734L60.347,165.525L60.347,150.861L66.99,154.182L63.944,155.705L63.929,163.734Z" style="fill:none;stroke:#000;stroke-width:1px;"/><path d="M57.598,152.629L54.365,151.013L54.365,162.362L57.675,164.017L57.598,152.629Z" style="fill:none;stroke:#000;stroke-width:1px;"/><path d="M54.365,151.013L57.681,149.355L57.681,152.657L54.365,151.013Z" style="fill:none;stroke:#000;stroke-width:1px;"/><path d="M54.365,153.224L50.861,151.472L50.861,160.62L54.388,162.383L54.365,153.224Z" style="fill:none;stroke:#000;stroke-width:1px;"/><path d="M50.861,151.472L56.101,148.852" style="fill:none;stroke:#000;stroke-width:1px;"/><path d="M48.05,159.215L48.05,148.385L45.312,147.016L45.312,157.849L48.05,159.215Z" style="fill:none;stroke:#000;stroke-width:1px;"/><path d="M50.861,157.809L50.861,151.466L56.191,148.801" style="fill:none;stroke:#000;stroke-width:1px;"/><path d="M48.05,148.385L51.758,146.532L56.32,148.813L50.937,151.504L50.937,160.633L48.033,159.181L48.05,148.385Z" style="fill:none;stroke:#000;stroke-width:1px;"/><path d="M45.312,147.016L48.994,145.175L51.833,146.595L48.101,148.461L45.312,147.016Z" style="fill:none;stroke:#000;stroke-width:1px;"/><path d="M48.033,159.181L50.981,157.707L50.981,160.718L48.033,159.181Z" style="fill:none;stroke:#000;stroke-width:1px;"/><path d="M56.32,148.813L57.681,149.528L54.365,151.013L54.365,153.115L50.981,151.482L56.023,148.664L56.32,148.813Z" style="fill:none;stroke:#000;stroke-width:1px;"/><path d="M45.312,157.884L45.312,143.253L41.925,141.641L41.925,156.327L45.312,157.884Z" style="fill:none;stroke:#000;stroke-width:1px;"/><path d="M45.312,143.253L49.041,145.117L45.317,146.979L45.312,143.253Z" style="fill:none;stroke:#000;stroke-width:1px;"/><path d="M41.925,156.327L38.755,154.742L38.755,140.071L41.844,141.615L41.925,156.327Z" style="fill:none;stroke:#000;stroke-width:1px;"/><path d="M38.755,154.742L35.593,153.161L35.593,138.499L38.698,140.052L38.755,154.742Z" style="fill:none;stroke:#000;stroke-width:1px;"/><path d="M27.239,148.984L27.239,134.228L24.473,132.845L24.473,147.521L27.239,148.984Z" style="fill:none;stroke:#000;stroke-width:1px;"/><path d="M34.57,145.319L27.239,148.984L34.57,145.319Z" style="fill:none;stroke:#000;stroke-width:1px;"/><path d="M34.57,137.893L34.57,145.249" style="fill:none;stroke:#000;stroke-width:1px;"/><path d="M34.57,137.893L27.209,134.213L27.209,148.872L34.48,145.237L34.57,137.893Z" style="fill:none;stroke:#000;stroke-width:1px;"/><path d="M24.473,136.523L21.494,135.033L21.494,146.042L24.514,147.552L24.473,136.523Z" style="fill:none;stroke:#000;stroke-width:1px;"/><path d="M21.494,135.033L24.468,133.546L24.468,136.488L21.494,135.033Z" style="fill:none;stroke:#000;stroke-width:1px;"/><path d="M21.494,131.355L18.013,129.615L18.013,144.492L21.105,146.038L21.494,131.355Z" style="fill:none;stroke:#000;stroke-width:1px;"/><path d="M15.155,142.872L15.155,128.103L12.265,126.658L12.265,141.457L15.155,142.872Z" style="fill:none;stroke:#000;stroke-width:1px;"/><path d="M18.013,141.293L15.155,142.872L18.06,144.325L18.013,141.293Z" style="fill:none;stroke:#000;stroke-width:1px;"/><path d="M24.473,132.845L21.494,131.355" style="fill:none;stroke:#000;stroke-width:1px;"/><path d="M24.473,132.845L24.473,133.426L21.454,134.936L21.454,131.437L24.409,132.915" style="fill:none;stroke:#000;stroke-width:1px;"/><path d="M18.013,129.615L15.104,128.16L15.104,142.888L17.999,141.441L18.013,129.615Z" style="fill:none;stroke:#000;stroke-width:1px;"/></g><g id="books6" serif:id="books"><path d="M45.269,86.635L45.269,97.468L48.007,98.834L48.007,98.809L47.99,98.8L48.007,88.054L45.269,86.635Z" style="fill:#598332;"/><path d="M24.43,72.464L21.451,70.974L21.411,72.489L21.411,74.555L24.43,73.045L24.43,72.464Z" style="fill:#a3190c;"/><path d="M54.322,92.843L50.894,91.129L50.894,100.252L50.818,100.214L50.818,100.239L54.345,102.002L54.345,101.993L54.322,101.981L54.322,92.843Z" style="fill:#00cfff;"/><clipPath id="_clip15"><path d="M54.322,92.843L50.894,91.129L50.894,100.252L50.818,100.214L50.818,100.239L54.345,102.002L54.345,101.993L54.322,101.981L54.322,92.843Z"/></clipPath><g clip-path="url(#_clip15)"><path d="M50.938,100.299L54.345,102.002L54.345,101.993L54.322,101.981L54.322,92.843L50.894,91.129L50.894,97.347L50.938,97.326L50.938,100.299Z" style="fill:#1ae631;"/></g><path d="M51.689,86.164L51.79,86.214L48.058,88.08L48.007,88.054L48.007,98.791L50.818,97.386L50.818,91.091L50.894,91.129L50.894,91.123L56.276,88.432L51.714,86.151L51.689,86.164Z" style="fill:#598332;"/><path d="M56.276,88.432L50.938,91.101L54.322,92.734L54.322,90.632L57.469,89.058L56.276,88.432Z" style="fill:#fff;"/><path d="M17.97,83.921L17.97,84.111L21.062,85.657L21.451,70.974L17.97,69.234L17.97,80.912L18.017,83.944L17.97,83.921Z" style="fill:#8e050c;"/><path d="M24.43,76.142L21.451,74.652L21.451,85.661L24.47,87.171L24.47,87.162L24.43,87.14L24.43,76.142Z" style="fill:#5ad5bf;"/><path d="M21.451,74.652L24.425,76.107L24.425,73.165L21.451,74.652Z" style="fill:#fffef4;"/><path d="M27.166,73.832L24.43,72.464L24.43,76.142L24.47,87.162L27.196,88.603L27.196,88.476L27.166,88.491L27.166,73.832Z" style="fill:#729966;"/><path d="M34.527,77.513L27.196,73.847L27.196,88.476L34.437,84.856L34.527,77.513Z" style="fill:#729966;"/><path d="M38.712,94.361L38.655,79.671L35.55,78.118L35.55,92.78L38.712,94.361Z" style="fill:#c33;"/><path d="M41.882,95.946L41.801,81.235L38.712,79.69L38.712,94.361L41.882,95.946Z" style="fill:#2a00ff;"/><path d="M45.269,82.872L45.274,86.598L48.997,84.736L45.269,82.872Z" style="fill:#0d79f2;"/><path d="M45.269,97.503L45.269,82.872L41.882,81.26L41.882,95.946L45.269,97.503Z" style="fill:#0d79f2;"/><path d="M15.112,67.805L15.112,67.722L12.222,66.277L12.222,81.076L15.061,82.467L15.061,67.779L15.112,67.805Z" style="fill:#0df279;"/><path d="M17.97,69.234L15.112,67.805L15.112,82.482L15.291,82.392L17.956,80.92L17.97,69.234Z" style="fill:#0df279;"/><path d="M45.269,86.635L48.007,88.004L51.689,86.164L48.951,84.794L45.269,86.635Z" style="fill:#fff;"/><path d="M54.322,90.632L57.555,92.235L57.555,89.05L57.638,89.091L57.638,88.974L54.322,90.632Z" style="fill:#fff;"/><path d="M54.322,90.632L54.322,92.843L54.345,101.993L57.555,103.598L57.555,92.248L54.322,90.632Z" style="fill:#7519dd;"/><path d="M60.303,105.144L60.303,90.424L57.638,89.091L57.638,92.276L57.555,92.235L57.555,92.248L57.632,103.636L57.555,103.598L57.555,103.726L60.303,105.144Z" style="fill:#f25e0d;"/><path d="M60.303,90.48L60.303,105.144L63.885,103.353L63.885,95.414L63.901,95.406L63.901,95.324L66.946,93.801L60.303,90.48Z" style="fill:#f25e0d;"/><path d="M63.901,95.406L63.901,95.421L67.096,97.019L67.096,93.808L63.901,95.406Z" style="fill:#fff;"/><path d="M67.096,97.019L67.096,97.028L63.901,95.421L63.885,103.353L63.885,106.935L67.115,108.525L67.115,97.029L67.096,97.019Z" style="fill:#1bb5bc;"/><path d="M67.115,108.525L67.115,108.55L70.696,110.306L70.764,95.619L67.115,93.794L67.115,97.029L67.163,97.053L67.163,108.549L67.115,108.525Z" style="fill:#535353;"/><path d="M70.929,130.975L70.929,116.346L66.859,114.311L66.859,128.94L70.929,130.975Z" style="fill:#0011ad;"/><path d="M18.632,124.711L18.612,110.295L12.301,107.14L12.294,115.295L12.288,121.538L18.632,124.711Z" style="fill:#00ad00;"/><path d="M70.764,110.34L75.016,108.214L75.016,97.784L70.764,95.619L70.764,110.34Z" style="fill:#fd00ff;"/><clipPath id="_clip16"><path d="M70.764,110.34L75.016,108.214L75.016,97.784L70.764,95.619L70.764,110.34Z"/></clipPath><g clip-path="url(#_clip16)"><path d="M70.764,110.34L74.776,108.334L74.851,97.7L70.764,95.619L70.764,110.34Z" style="fill:#535353;"/></g><path d="M70.764,95.62L70.764,110.34L67.115,108.55L67.115,93.794L70.764,95.62Z" style="fill:none;stroke:#000;stroke-width:1px;"/><path d="M70.764,110.34L75.016,108.214L75.016,97.784L70.764,95.619L70.695,110.34" style="fill:none;stroke:#000;stroke-width:1px;"/><path d="M63.885,106.935L63.885,95.414L67.163,97.053L67.163,108.549L63.885,106.935Z" style="fill:none;stroke:#000;stroke-width:1px;"/><path d="M63.885,95.414L67.096,93.808L67.096,97.028L63.885,95.414Z" style="fill:none;stroke:#000;stroke-width:1px;"/><path d="M60.303,105.144L60.303,90.424L57.555,89.05L57.555,103.726L60.303,105.144Z" style="fill:none;stroke:#000;stroke-width:1px;"/><path d="M63.885,103.353L60.303,105.144L60.303,90.48L66.946,93.801L63.901,95.324L63.885,103.353Z" style="fill:none;stroke:#000;stroke-width:1px;"/><path d="M57.555,92.248L54.322,90.632L54.322,101.981L57.632,103.636L57.555,92.248Z" style="fill:none;stroke:#000;stroke-width:1px;"/><path d="M54.322,90.632L57.638,88.974L57.638,92.276L54.322,90.632Z" style="fill:none;stroke:#000;stroke-width:1px;"/><path d="M54.322,92.843L50.818,91.091L50.818,100.239L54.345,102.002L54.322,92.843Z" style="fill:none;stroke:#000;stroke-width:1px;"/><path d="M50.818,91.091L56.058,88.471" style="fill:none;stroke:#000;stroke-width:1px;"/><path d="M48.007,98.834L48.007,88.004L45.269,86.635L45.269,97.468L48.007,98.834Z" style="fill:none;stroke:#000;stroke-width:1px;"/><path d="M50.818,97.428L50.818,91.085L56.148,88.42" style="fill:none;stroke:#000;stroke-width:1px;"/><path d="M48.007,88.004L51.714,86.151L56.276,88.432L50.894,91.123L50.894,100.252L47.99,98.8L48.007,88.004Z" style="fill:none;stroke:#000;stroke-width:1px;"/><path d="M45.269,86.635L48.951,84.794L51.79,86.214L48.058,88.08L45.269,86.635Z" style="fill:none;stroke:#000;stroke-width:1px;"/><path d="M47.99,98.8L50.938,97.326L50.938,100.337L47.99,98.8Z" style="fill:none;stroke:#000;stroke-width:1px;"/><path d="M56.276,88.432L57.638,89.147L54.322,90.632L54.322,92.734L50.938,91.101L55.98,88.284L56.276,88.432Z" style="fill:none;stroke:#000;stroke-width:1px;"/><path d="M45.269,97.503L45.269,82.872L41.882,81.26L41.882,95.946L45.269,97.503Z" style="fill:none;stroke:#000;stroke-width:1px;"/><path d="M45.269,82.872L48.997,84.736L45.274,86.598L45.269,82.872Z" style="fill:none;stroke:#000;stroke-width:1px;"/><path d="M41.882,95.946L38.712,94.361L38.712,79.69L41.801,81.235L41.882,95.946Z" style="fill:none;stroke:#000;stroke-width:1px;"/><path d="M38.712,94.361L35.55,92.78L35.55,78.118L38.655,79.671L38.712,94.361Z" style="fill:none;stroke:#000;stroke-width:1px;"/><path d="M27.196,88.603L27.196,73.847L24.43,72.464L24.43,87.14L27.196,88.603Z" style="fill:none;stroke:#000;stroke-width:1px;"/><path d="M34.527,84.938L27.196,88.603L34.527,84.938Z" style="fill:none;stroke:#000;stroke-width:1px;"/><path d="M34.527,77.513L34.527,84.869" style="fill:none;stroke:#000;stroke-width:1px;"/><path d="M34.527,77.513L27.166,73.832L27.166,88.491L34.437,84.856L34.527,77.513Z" style="fill:none;stroke:#000;stroke-width:1px;"/><path d="M24.43,76.142L21.451,74.652L21.451,85.661L24.47,87.171L24.43,76.142Z" style="fill:none;stroke:#000;stroke-width:1px;"/><path d="M21.451,74.652L24.425,73.165L24.425,76.107L21.451,74.652Z" style="fill:none;stroke:#000;stroke-width:1px;"/><path d="M21.451,70.974L17.97,69.234L17.97,84.111L21.062,85.657L21.451,70.974Z" style="fill:none;stroke:#000;stroke-width:1px;"/><path d="M15.112,82.491L15.112,67.722L12.222,66.277L12.222,81.076L15.112,82.491Z" style="fill:none;stroke:#000;stroke-width:1px;"/><path d="M17.97,80.912L15.112,82.491L18.017,83.944L17.97,80.912Z" style="fill:none;stroke:#000;stroke-width:1px;"/><path d="M24.43,72.464L21.451,70.974" style="fill:none;stroke:#000;stroke-width:1px;"/><path d="M24.43,72.464L24.43,73.045L21.411,74.555L21.411,71.056L24.365,72.534" style="fill:none;stroke:#000;stroke-width:1px;"/><path d="M17.97,69.234L15.061,67.779L15.061,82.508L17.955,81.06L17.97,69.234Z" style="fill:none;stroke:#000;stroke-width:1px;"/></g></g></svg>