<?xml version="1.0" encoding="UTF-8" standalone="no"?>
<svg xmlns:xlink="http://www.w3.org/1999/xlink" height="67.3px" width="36.65px" xmlns="http://www.w3.org/2000/svg">
  <g transform="matrix(1.0, 0.0, 0.0, 1.0, 17.95, 67.3)">
    <use height="67.3" transform="matrix(1.0, 0.0, 0.0, 1.0, -16.3, -67.3)" width="35.0" xlink:href="#shape0"/>
    <use height="2.5" transform="matrix(-1.0, 0.0, 0.0, 1.0, -8.6, -53.35)" width="6.0" xlink:href="#sprite0"/>
    <use height="27.35" transform="matrix(1.0, 0.0, 0.0, 1.0, -17.95, -38.35)" width="35.5" xlink:href="#shape2"/>
  </g>
  <defs>
    <g id="shape0" transform="matrix(1.0, 0.0, 0.0, 1.0, 16.3, 67.3)">
      <path d="M14.35 -60.75 L14.1 -62.5 14.0 -63.55 13.8 -64.65 Q13.6 -65.35 13.05 -65.65 L13.4 -65.9 Q14.0 -65.2 14.15 -64.2 L14.65 -61.8 14.35 -60.75 M8.85 -63.45 L7.45 -62.05 7.75 -62.7 8.85 -63.45 M14.25 -57.0 L14.1 -57.2 14.3 -58.4 14.45 -57.35 14.5 -57.25 14.4 -57.2 14.25 -57.0 M-1.5 -2.2 L-1.45 -1.4 -1.5 -0.45 -2.5 -1.35 Q-2.15 -1.55 -1.8 -1.85 L-1.5 -2.2 M-4.15 -1.1 L-4.35 -1.0 Q-5.15 -1.35 -5.55 -1.75 L-5.35 -1.75 -5.25 -1.8 -5.2 -1.7 Q-4.7 -1.3 -4.2 -1.15 L-4.15 -1.1 M-10.4 -62.65 L-10.35 -62.95 -10.35 -62.7 -10.4 -62.65" fill="#e7e0dc" fill-rule="evenodd" stroke="none"/>
      <path d="M16.5 -50.0 L16.6 -50.8 16.65 -51.9 18.15 -49.9 18.2 -49.7 18.45 -48.95 18.35 -46.7 17.95 -45.2 17.7 -44.4 17.35 -44.0 Q14.65 -43.35 14.75 -40.8 L14.9 -39.6 15.1 -38.8 14.55 -38.05 13.55 -36.0 Q12.9 -34.6 11.95 -33.7 11.0 -32.85 8.75 -32.7 6.5 -32.55 6.55 -32.25 L5.75 -32.35 5.5 -32.4 4.75 -32.9 Q4.6 -33.2 4.8 -34.2 5.0 -35.25 5.55 -35.9 L6.65 -37.05 9.65 -39.1 Q12.1 -40.65 8.55 -40.15 L3.1 -39.75 Q1.25 -39.95 0.5 -38.25 L-0.65 -34.95 -1.05 -33.95 Q-1.45 -32.2 -1.45 -30.15 L-1.3 -26.2 Q-1.1 -24.0 -2.35 -22.8 L-3.75 -21.75 Q-4.9 -21.15 -6.2 -21.5 -7.7 -21.95 -9.25 -22.95 -10.85 -23.9 -12.85 -23.95 L-14.2 -23.8 -14.2 -23.85 Q-12.7 -31.0 -12.95 -38.65 L-13.1 -40.15 Q-12.2 -43.0 -14.15 -45.05 -14.6 -47.75 -16.15 -49.9 -15.55 -51.55 -15.6 -52.85 L-15.5 -52.9 -14.8 -51.1 Q-14.05 -49.75 -12.35 -48.7 -10.9 -47.85 -9.05 -47.15 L-5.15 -45.55 -5.55 -45.75 -5.25 -45.6 -1.95 -44.65 1.8 -44.1 5.65 -43.85 9.35 -43.95 Q11.35 -44.1 12.9 -44.8 14.75 -45.65 15.6 -47.3 16.25 -48.6 16.5 -50.0 M12.3 -9.15 Q11.05 -8.25 10.5 -6.95 L8.8 -6.95 7.95 -6.8 5.05 -6.75 4.5 -6.85 Q4.15 -6.9 3.9 -7.1 2.85 -7.35 2.1 -8.2 L1.95 -8.45 Q1.65 -7.75 0.85 -7.35 L0.3 -7.2 0.1 -7.25 Q-0.55 -6.95 -0.3 -6.65 L-0.25 -6.45 Q-1.2 -5.15 -1.4 -3.55 -0.95 -2.95 -1.5 -2.2 L-1.8 -1.85 Q-2.15 -1.55 -2.5 -1.35 -3.05 -1.05 -3.55 -1.0 L-4.1 -1.05 -4.15 -1.1 -4.2 -1.15 Q-4.7 -1.3 -5.2 -1.7 L-5.25 -1.8 -5.35 -1.75 -5.55 -1.75 -5.85 -1.85 -5.95 -1.95 -6.0 -2.0 -6.05 -2.1 -6.05 -2.25 -6.05 -2.4 -6.05 -2.65 -6.1 -2.7 -6.15 -2.8 -6.25 -2.95 -6.2 -3.1 -7.0 -3.3 -7.35 -4.55 Q-5.65 -7.05 -8.5 -8.9 L-8.85 -9.15 -5.15 -9.3 Q-3.35 -9.45 -1.6 -10.15 -0.05 -10.8 2.05 -10.7 L5.9 -10.35 7.45 -10.1 9.65 -9.7 12.3 -9.15 M-12.95 -14.0 L-13.0 -14.1 -12.95 -14.1 -12.9 -14.05 -12.95 -14.0 M8.85 -29.3 L8.9 -27.75 8.85 -27.2 8.85 -29.3 M11.35 -23.4 L10.65 -23.1 Q9.45 -22.6 11.2 -23.5 L11.55 -23.7 12.0 -23.65 11.35 -23.4" fill="#fefbf5" fill-rule="evenodd" stroke="none"/>
      <path d="M13.8 -64.65 L14.0 -63.55 14.1 -62.5 14.35 -60.75 Q14.15 -59.7 14.3 -58.4 L14.1 -57.2 14.25 -57.0 14.1 -56.65 14.05 -56.55 13.95 -56.15 14.1 -55.65 15.25 -54.3 16.2 -52.75 16.5 -52.45 16.4 -52.35 16.45 -52.2 16.65 -51.9 16.6 -50.8 16.5 -50.0 Q11.4 -54.0 8.35 -55.5 5.3 -57.0 0.85 -58.5 L1.95 -58.5 2.0 -58.5 3.0 -58.55 Q4.0 -58.15 5.1 -59.0 5.15 -59.55 5.6 -59.8 5.95 -60.65 6.7 -61.35 L7.45 -62.05 8.85 -63.45 9.1 -63.65 Q10.6 -65.05 12.55 -65.55 13.45 -65.4 13.8 -64.65 M15.1 -38.8 L15.15 -38.65 15.75 -36.35 15.75 -36.25 15.85 -35.9 Q16.4 -34.2 17.5 -33.15 17.25 -30.45 17.65 -27.5 L17.25 -27.25 14.4 -25.4 11.55 -23.7 11.2 -23.5 Q9.45 -22.6 10.65 -23.1 L11.35 -23.4 Q10.55 -22.5 8.8 -22.75 6.8 -23.05 6.55 -24.9 6.3 -26.8 7.45 -27.2 8.6 -27.6 8.85 -27.2 L8.9 -27.75 8.85 -29.3 Q8.45 -31.7 6.55 -32.25 6.5 -32.55 8.75 -32.7 11.0 -32.85 11.95 -33.7 12.9 -34.6 13.55 -36.0 L14.55 -38.05 15.1 -38.8 M16.35 -14.3 L16.3 -14.0 15.95 -13.0 15.95 -12.95 15.85 -12.9 Q14.15 -11.5 13.05 -9.65 L12.3 -9.15 9.65 -9.7 7.45 -10.1 5.9 -10.35 2.05 -10.7 Q-0.05 -10.8 -1.6 -10.15 -3.35 -9.45 -5.15 -9.3 L-8.85 -9.15 -10.35 -9.85 -10.4 -9.9 -10.5 -10.4 -10.8 -10.65 -11.5 -11.2 Q-12.05 -12.7 -12.95 -14.0 L-12.9 -14.05 -12.6 -14.0 -12.6 -14.2 -12.75 -14.5 -11.0 -14.85 -7.1 -15.05 -3.6 -14.4 -0.1 -13.05 Q1.7 -12.3 3.65 -12.2 L7.6 -12.1 11.35 -12.55 Q13.25 -12.95 14.95 -13.7 L16.35 -14.3 M-0.65 -34.95 L0.5 -38.25 Q1.25 -39.95 3.1 -39.75 L8.55 -40.15 Q12.1 -40.65 9.65 -39.1 L6.65 -37.05 5.55 -35.9 Q5.0 -35.25 4.8 -34.2 4.6 -33.2 4.75 -32.9 L2.6 -33.35 Q1.4 -33.75 -0.65 -34.95" fill="#fce6a5" fill-rule="evenodd" stroke="none"/>
      <path d="M1.95 -58.5 L0.85 -58.5 Q5.3 -57.0 8.35 -55.5 11.4 -54.0 16.5 -50.0 16.25 -48.6 15.6 -47.3 14.75 -45.65 12.9 -44.8 11.35 -44.1 9.35 -43.95 L5.65 -43.85 1.8 -44.1 -1.95 -44.65 -5.25 -45.6 -5.55 -45.75 -5.15 -45.55 -9.05 -47.15 Q-10.9 -47.85 -12.35 -48.7 -14.05 -49.75 -14.8 -51.1 L-15.5 -52.9 -14.3 -53.7 -13.5 -54.45 -13.5 -54.7 -13.4 -54.95 -13.25 -55.05 -13.25 -55.1 -13.2 -55.35 Q-12.55 -56.55 -11.3 -56.9 L-11.25 -56.95 -10.7 -57.15 -10.7 -57.8 Q-10.45 -58.75 -10.95 -59.45 -10.7 -60.35 -10.95 -61.2 L-10.6 -62.0 -10.5 -62.5 -10.45 -62.6 -10.4 -62.65 -10.35 -62.7 -10.35 -62.95 -10.3 -63.4 -10.2 -64.25 -10.55 -66.95 -8.05 -66.55 -7.0 -65.7 -5.3 -64.8 -5.15 -64.7 -5.05 -64.5 Q-3.8 -62.1 -1.9 -60.8 L-1.35 -59.95 Q-1.5 -59.7 -1.25 -59.45 L-1.2 -59.4 Q-0.2 -58.65 1.15 -58.8 L1.3 -58.8 1.95 -58.5 M17.65 -27.5 L17.7 -26.9 17.8 -26.45 18.0 -24.15 17.55 -22.65 Q17.25 -21.4 17.2 -20.0 17.15 -17.4 16.55 -14.95 L16.35 -14.3 14.95 -13.7 Q13.25 -12.95 11.35 -12.55 L7.6 -12.1 3.65 -12.2 Q1.7 -12.3 -0.1 -13.05 L-3.6 -14.4 -7.1 -15.05 -11.0 -14.85 -12.75 -14.5 -12.9 -14.95 -12.95 -15.65 -13.3 -16.35 -13.6 -17.2 -13.65 -17.5 -13.85 -19.45 -14.0 -19.75 -14.05 -20.1 -14.05 -22.15 -14.2 -23.8 -12.85 -23.95 Q-10.85 -23.9 -9.25 -22.95 -7.7 -21.95 -6.2 -21.5 -4.9 -21.15 -3.75 -21.75 L-2.35 -22.8 Q-1.1 -24.0 -1.3 -26.2 L-1.45 -30.15 Q-1.45 -32.2 -1.05 -33.95 L-0.65 -34.95 Q1.4 -33.75 2.6 -33.35 L4.75 -32.9 5.5 -32.4 5.75 -32.35 6.55 -32.25 Q8.45 -31.7 8.85 -29.3 L8.85 -27.2 Q8.6 -27.6 7.45 -27.2 6.3 -26.8 6.55 -24.9 6.8 -23.05 8.8 -22.75 10.55 -22.5 11.35 -23.4 L12.0 -23.65 11.55 -23.7 14.4 -25.4 17.25 -27.25 17.65 -27.5" fill="#3d3d3d" fill-rule="evenodd" stroke="none"/>
      <path d="M-0.2 -9.6 L-0.2 -3.0 Q-0.25 -1.75 -1.0 -0.9 -1.95 0.0 -3.75 0.0 -5.65 0.0 -6.5 -0.9 -7.3 -1.75 -7.3 -3.0 L-7.3 -9.6 -5.75 -9.6 -5.75 -3.05 Q-5.75 -2.35 -5.35 -1.85 -4.85 -1.3 -3.75 -1.3 -2.75 -1.3 -2.15 -1.85 -1.75 -2.35 -1.7 -3.05 L-1.7 -9.6 -0.2 -9.6" fill="#4f1d17" fill-rule="evenodd" stroke="none"/>
      <path d="M-0.7 -58.6 L0.3 -58.65 1.55 -58.7 1.95 -58.7 2.7 -58.7 4.85 -58.4 Q5.45 -59.95 7.0 -61.6 8.55 -63.25 9.85 -64.1 11.2 -65.0 12.5 -65.6 13.8 -66.2 13.95 -64.55 L14.3 -60.95 Q14.5 -59.05 13.9 -56.05 M-0.95 -58.65 Q-1.9 -61.0 -3.45 -62.65 -4.95 -64.3 -6.3 -65.15 L-8.9 -66.65 Q-10.2 -67.25 -10.4 -65.6 L-10.75 -62.0 Q-10.9 -60.1 -10.35 -57.1 M-12.85 -41.25 L-12.8 -39.45 -12.7 -32.65 Q-12.8 -28.8 -13.55 -25.15 -14.3 -21.55 -13.75 -17.7 -13.1 -13.95 -10.85 -10.8 -9.85 -9.55 -8.55 -8.75 L-7.4 -8.2 M14.25 -40.8 L14.6 -40.1 14.95 -39.45 16.6 -35.15 Q17.6 -31.5 17.6 -27.55 L17.15 -19.25 Q16.7 -14.9 15.0 -11.9 13.35 -8.95 10.2 -7.35" fill="none" stroke="#4f1d17" stroke-linecap="round" stroke-linejoin="round" stroke-width="1.0"/>
      <path d="M-13.5 -43.7 Q-16.3 -46.3 -16.3 -49.65 -16.3 -53.05 -13.5 -55.65 L-12.8 -54.9 Q-15.25 -52.55 -15.25 -49.65 -15.25 -46.8 -12.8 -44.4 L-13.5 -43.7" fill="#4f1d17" fill-rule="evenodd" stroke="none"/>
      <path d="M15.9 -41.8 L15.15 -42.5 Q17.65 -44.9 17.65 -47.75 17.65 -50.65 15.15 -53.0 L15.9 -53.75 Q18.7 -51.15 18.7 -47.75 18.7 -44.4 15.9 -41.8" fill="#4f1d17" fill-rule="evenodd" stroke="none"/>
      <path d="M-11.9 -42.8 L-11.15 -41.25 -10.4 -41.25 -10.95 -42.7 -10.4 -42.7 -10.4 -44.15 -11.9 -44.15 -11.9 -42.8 M-9.0 -42.8 L-8.25 -41.25 -7.5 -41.25 -8.05 -42.7 -7.5 -42.7 -7.5 -44.15 -9.0 -44.15 -9.0 -42.8" fill="#000000" fill-rule="evenodd" stroke="none"/>
    </g>
    <g id="sprite0" transform="matrix(1.0, 0.0, 0.0, 1.0, 3.0, 1.25)">
      <use height="2.5" transform="matrix(1.0, 0.0, 0.0, 1.0, -2.4, -1.25)" width="4.8" xlink:href="#shape1"/>
    </g>
    <g id="shape1" transform="matrix(1.0, 0.0, 0.0, 1.0, 2.4, 1.25)">
      <path d="M1.9 0.75 Q0.05 -0.4 -1.9 -0.75" fill="none" stroke="#4f1d17" stroke-linecap="round" stroke-linejoin="round" stroke-width="1.0"/>
    </g>
    <g id="shape2" transform="matrix(1.0, 0.0, 0.0, 1.0, 17.95, 38.35)">
      <path d="M13.45 -24.3 L13.6 -22.65 13.45 -24.15 13.45 -24.3 M13.6 -16.8 Q13.35 -14.8 11.55 -13.65 L11.25 -13.45 11.7 -13.85 Q13.05 -15.05 13.6 -16.8 M11.0 -21.7 L10.9 -21.9 10.7 -22.55 Q10.4 -24.7 10.75 -26.85 L10.75 -26.8 Q10.7 -24.8 10.9 -22.9 L11.0 -21.7" fill="#e7e0dc" fill-rule="evenodd" stroke="none"/>
      <path d="M14.25 -35.6 L15.4 -35.95 15.9 -35.8 15.65 -35.85 14.25 -35.6 M15.95 -32.35 L15.95 -32.3 15.8 -32.1 15.95 -32.35" fill="#58463f" fill-rule="evenodd" stroke="none"/>
      <path d="M14.25 -35.6 L15.65 -35.85 15.9 -35.8 16.75 -35.35 16.8 -35.3 16.85 -34.25 16.45 -33.3 16.4 -33.2 16.0 -32.65 15.95 -32.35 15.8 -32.1 15.7 -32.05 15.35 -31.5 15.05 -31.15 14.8 -31.15 14.75 -31.05 14.65 -31.05 14.05 -28.95 13.9 -28.35 13.7 -27.65 Q13.2 -26.0 13.45 -24.3 L13.45 -24.15 13.6 -22.65 13.6 -22.25 13.65 -17.0 13.6 -16.8 Q13.05 -15.05 11.7 -13.85 L11.25 -13.45 10.55 -13.1 10.6 -13.15 10.75 -13.6 11.5 -14.05 11.6 -14.3 11.1 -14.75 10.1 -14.35 Q10.5 -15.1 10.45 -16.0 L10.4 -16.85 10.1 -17.2 10.05 -17.2 10.35 -17.9 10.4 -18.05 10.75 -18.85 11.05 -19.55 11.05 -19.75 11.2 -20.5 11.15 -20.9 11.0 -21.7 10.9 -22.9 Q10.7 -24.8 10.75 -26.8 L10.75 -26.85 10.95 -27.9 11.25 -29.2 11.3 -29.4 Q11.6 -30.95 12.2 -32.4 L12.35 -32.85 12.55 -33.2 12.55 -33.25 12.55 -33.55 12.65 -33.65 12.7 -33.7 12.8 -33.9 12.85 -34.15 13.0 -34.25 13.0 -34.3 13.05 -34.35 13.05 -34.45 13.8 -35.2 14.1 -35.5 14.25 -35.6 M8.95 -12.3 L8.5 -12.15 8.0 -11.95 Q8.3 -12.25 8.75 -12.35 L8.95 -12.3 M6.9 -11.55 L6.7 -11.5 Q6.6 -11.5 6.65 -11.65 L6.9 -11.55" fill="#fefbf5" fill-rule="evenodd" stroke="none"/>
      <path d="M10.55 -13.1 L9.4 -12.5 9.35 -12.5 Q9.15 -12.35 8.95 -12.3 L9.1 -12.4 9.4 -12.5 9.1 -12.4 8.95 -12.3 8.75 -12.35 Q8.3 -12.25 8.0 -11.95 L6.9 -11.55 6.65 -11.65 6.35 -11.9 6.3 -12.1 6.85 -12.8 6.95 -12.75 8.05 -12.85 8.4 -12.95 8.45 -13.05 9.95 -14.15 10.1 -14.35 11.1 -14.75 11.6 -14.3 11.5 -14.05 10.75 -13.6 10.6 -13.15 10.55 -13.1" fill="#fce6a5" fill-rule="evenodd" stroke="none"/>
      <path d="M6.85 -12.8 Q6.55 -13.05 6.5 -13.55 L6.7 -13.85 7.1 -13.95 7.45 -14.9 7.6 -15.15 Q7.55 -15.75 8.55 -16.05 L8.65 -16.1 8.85 -16.05 8.95 -16.0 9.0 -16.05 9.05 -16.1 9.85 -17.05 9.9 -17.1 10.05 -17.05 10.1 -17.05 10.4 -16.7 10.45 -16.0 Q10.5 -15.1 10.1 -14.35 L9.95 -14.15 8.45 -13.05 8.4 -12.95 8.05 -12.85 6.95 -12.75 6.85 -12.8" fill="#3d3d3d" fill-rule="evenodd" stroke="none"/>
      <path d="M14.25 -35.6 L15.65 -35.85 15.9 -35.8 Q17.4 -35.7 16.95 -34.45 L16.85 -34.25 16.45 -33.3 15.95 -32.35 15.8 -32.1 15.3 -31.4 Q14.45 -30.25 14.05 -28.95 L13.9 -28.35 13.8 -27.9 Q13.4 -26.1 13.45 -24.3 L13.45 -24.15 13.6 -22.65 Q13.65 -21.7 13.85 -20.8 14.2 -18.9 13.7 -17.05 L13.6 -16.8 Q13.05 -15.05 11.7 -13.85 L11.25 -13.45 10.55 -13.1 9.4 -12.5 9.1 -12.4 8.95 -12.3 8.5 -12.15 8.0 -11.95 6.9 -11.55 6.7 -11.5 M9.05 -16.1 L9.85 -17.2 Q10.45 -18.1 10.7 -19.1 L11.0 -21.7 M10.75 -26.85 Q10.8 -28.8 11.3 -30.55 11.8 -32.4 12.7 -34.1 13.3 -35.2 14.25 -35.6 M10.75 -26.85 L10.75 -26.8 Q10.7 -24.8 10.9 -22.9 L11.0 -21.7" fill="none" stroke="#4f1d17" stroke-linecap="round" stroke-linejoin="round" stroke-width="1.0"/>
      <path d="M-11.65 -37.4 L-13.0 -37.6 -13.6 -37.8 -13.95 -37.8 Q-14.55 -37.85 -15.1 -37.4 -15.75 -36.85 -15.9 -35.95 L-15.95 -35.55 -16.45 -35.35 Q-17.25 -34.85 -17.4 -34.0 -17.55 -33.15 -16.95 -32.4 L-16.65 -32.05 -16.95 -31.2 Q-17.1 -30.35 -16.55 -29.65 L-15.95 -29.15 -15.55 -28.9 -15.2 -28.8 -15.15 -28.8 -14.3 -28.8 -13.75 -29.0 -13.6 -28.85 -12.75 -28.5 -11.55 -28.7 Q-10.85 -29.05 -10.35 -29.75 L-10.3 -29.85 -10.25 -30.0 -9.95 -30.75 -9.9 -30.85 -9.85 -30.95 -9.85 -31.0 -9.7 -31.45 -9.6 -31.95 -9.55 -32.0 Q-9.4 -32.15 -9.5 -32.45 L-9.55 -32.7 Q-9.5 -33.55 -9.7 -34.4 -10.0 -35.6 -10.55 -36.4 L-10.6 -36.45 -10.7 -36.6 -10.85 -36.75 -10.9 -36.8 -10.95 -36.85 -11.15 -37.05 -11.25 -37.15 -11.65 -37.4" fill="#fefbf5" fill-rule="evenodd" stroke="none"/>
      <path d="M-11.65 -37.4 L-13.0 -37.6 -13.6 -37.8 -13.95 -37.8 Q-14.55 -37.85 -15.1 -37.4 -15.75 -36.85 -15.9 -35.95 L-15.95 -35.55 -16.45 -35.35 Q-17.25 -34.85 -17.4 -34.0 -17.55 -33.15 -16.95 -32.4 L-16.65 -32.05 -16.95 -31.2 Q-17.1 -30.35 -16.55 -29.65 L-15.95 -29.15 -15.55 -28.9 -15.2 -28.8 -15.15 -28.8 -14.3 -28.8 -13.75 -29.0 -13.6 -28.85 -12.75 -28.5 -11.55 -28.7 Q-10.85 -29.05 -10.35 -29.75" fill="none" stroke="#4f1d17" stroke-linecap="round" stroke-linejoin="round" stroke-width="1.0"/>
    </g>
  </defs>
</svg>
