<?xml version="1.0" encoding="UTF-8" standalone="no"?>
<svg xmlns:xlink="http://www.w3.org/1999/xlink" height="61.05px" width="36.55px" xmlns="http://www.w3.org/2000/svg">
  <g transform="matrix(1.0, 0.0, 0.0, 1.0, 17.9, 70.5)">
    <use height="61.05" transform="matrix(1.0, 0.0, 0.0, 1.0, -16.3, -70.5)" width="34.95" xlink:href="#shape0"/>
    <use height="2.5" transform="matrix(-0.9986, 0.0, 0.0, 1.0, -8.6042, -56.55)" width="6.0" xlink:href="#sprite0"/>
    <use height="27.35" transform="matrix(1.0, 0.0, 0.0, 1.0, -17.9, -41.55)" width="35.4" xlink:href="#shape2"/>
  </g>
  <defs>
    <g id="shape0" transform="matrix(1.0, 0.0, 0.0, 1.0, 16.3, 70.5)">
      <path d="M14.35 -63.95 L14.1 -65.7 14.0 -66.75 13.8 -67.85 Q13.6 -68.55 13.05 -68.85 L13.4 -69.1 Q14.0 -68.4 14.15 -67.4 L14.65 -65.0 14.35 -63.95 M8.85 -66.65 L7.45 -65.25 7.75 -65.9 8.85 -66.65 M14.25 -60.2 L14.1 -60.4 14.3 -61.6 14.45 -60.55 14.5 -60.45 14.4 -60.4 14.25 -60.2 M-10.4 -65.85 L-10.35 -66.15 -10.35 -65.9 -10.4 -65.85" fill="#e7e0dc" fill-rule="evenodd" stroke="none"/>
      <path d="M16.5 -53.2 L16.6 -54.0 16.65 -55.1 18.1 -53.1 18.15 -52.9 18.4 -52.15 18.3 -49.9 17.95 -48.4 17.7 -47.6 17.35 -47.2 Q14.65 -46.55 14.75 -44.0 L14.9 -42.8 15.1 -42.0 14.55 -41.25 13.55 -39.2 Q12.9 -37.8 11.95 -36.9 11.0 -36.05 8.75 -35.9 6.5 -35.75 6.55 -35.45 L5.75 -35.55 5.5 -35.6 4.75 -36.1 Q4.6 -36.4 4.8 -37.4 5.0 -38.45 5.55 -39.1 L6.65 -40.25 9.65 -42.3 Q12.1 -43.85 8.55 -43.35 L3.1 -42.95 Q1.25 -43.15 0.5 -41.45 L-0.65 -38.15 -1.05 -37.15 Q-1.45 -35.4 -1.45 -33.35 L-1.3 -29.4 Q-1.1 -27.2 -2.35 -26.0 L-3.75 -24.95 Q-4.9 -24.35 -6.2 -24.7 -7.7 -25.15 -9.25 -26.15 -10.85 -27.1 -12.85 -27.15 L-14.2 -27.0 -14.2 -27.05 Q-12.7 -34.2 -12.95 -41.85 L-13.1 -43.35 Q-12.2 -46.2 -14.15 -48.25 -14.6 -50.95 -16.15 -53.1 -15.55 -54.75 -15.6 -56.05 L-15.5 -56.1 -14.8 -54.3 Q-14.05 -52.95 -12.35 -51.9 -10.9 -51.05 -9.05 -50.35 L-5.15 -48.75 -5.55 -48.95 -5.25 -48.8 -1.95 -47.85 1.8 -47.3 5.65 -47.05 9.35 -47.15 Q11.35 -47.3 12.9 -48.0 14.75 -48.85 15.6 -50.5 16.25 -51.8 16.5 -53.2 M12.3 -12.35 Q11.15 -11.5 10.6 -10.3 L10.45 -10.3 9.9 -10.1 9.2 -10.05 9.05 -10.05 7.25 -9.9 Q5.45 -9.75 3.7 -9.9 3.4 -9.95 3.3 -10.1 L1.15 -10.1 Q1.05 -9.95 0.8 -9.9 L-0.55 -9.65 Q-2.4 -9.2 -4.2 -9.65 L-4.6 -9.8 -7.15 -10.1 Q-8.4 -10.35 -7.9 -11.35 L-7.75 -11.55 -8.5 -12.1 -8.85 -12.35 -5.15 -12.5 Q-3.35 -12.65 -1.6 -13.35 -0.05 -14.0 2.05 -13.9 L5.9 -13.55 7.45 -13.3 9.65 -12.9 12.3 -12.35 M-9.45 -12.65 L-9.2 -12.25 -9.2 -11.9 Q-9.65 -11.2 -10.6 -11.3 L-13.25 -11.6 Q-13.8 -11.65 -14.1 -12.15 -14.65 -13.1 -14.6 -14.25 L-14.3 -15.6 -13.7 -16.5 -13.25 -16.7 Q-12.6 -16.65 -12.45 -16.05 L-12.45 -15.95 -12.0 -15.6 Q-10.5 -14.3 -9.45 -12.65 M-12.95 -17.2 L-13.0 -17.3 -12.95 -17.3 -12.9 -17.25 -12.95 -17.2 M8.85 -32.5 L8.9 -30.95 8.85 -30.4 8.85 -32.5 M11.35 -26.6 L10.65 -26.3 Q9.45 -25.8 11.2 -26.7 L11.55 -26.9 12.0 -26.85 11.35 -26.6 M1.95 -11.6 L1.95 -11.65 1.9 -11.6 1.95 -11.6" fill="#fefbf5" fill-rule="evenodd" stroke="none"/>
      <path d="M13.8 -67.85 L14.0 -66.75 14.1 -65.7 14.35 -63.95 Q14.15 -62.9 14.3 -61.6 L14.1 -60.4 14.25 -60.2 14.1 -59.85 14.05 -59.75 13.95 -59.35 14.1 -58.85 15.25 -57.5 16.2 -55.95 16.5 -55.65 16.4 -55.55 16.45 -55.4 16.65 -55.1 16.6 -54.0 16.5 -53.2 Q11.4 -57.2 8.35 -58.7 5.3 -60.2 0.85 -61.7 L1.95 -61.7 2.0 -61.7 3.0 -61.75 Q4.0 -61.35 5.1 -62.2 5.15 -62.75 5.6 -63.0 5.95 -63.85 6.7 -64.55 L7.45 -65.25 8.85 -66.65 9.1 -66.85 Q10.6 -68.25 12.55 -68.75 13.45 -68.6 13.8 -67.85 M15.1 -42.0 L15.15 -41.85 15.75 -39.55 15.75 -39.45 15.85 -39.1 Q16.4 -37.4 17.5 -36.35 17.25 -33.65 17.65 -30.7 L17.25 -30.45 14.4 -28.6 11.55 -26.9 11.2 -26.7 Q9.45 -25.8 10.65 -26.3 L11.35 -26.6 Q10.55 -25.7 8.8 -25.95 6.8 -26.25 6.55 -28.1 6.3 -30.0 7.45 -30.4 8.6 -30.8 8.85 -30.4 L8.9 -30.95 8.85 -32.5 Q8.45 -34.9 6.55 -35.45 6.5 -35.75 8.75 -35.9 11.0 -36.05 11.95 -36.9 12.9 -37.8 13.55 -39.2 L14.55 -41.25 15.1 -42.0 M16.35 -17.5 L16.3 -17.2 15.95 -16.2 15.95 -16.15 15.85 -16.1 Q14.15 -14.7 13.05 -12.85 L12.3 -12.35 9.65 -12.9 7.45 -13.3 5.9 -13.55 2.05 -13.9 Q-0.05 -14.0 -1.6 -13.35 -3.35 -12.65 -5.15 -12.5 L-8.85 -12.35 -9.45 -12.65 Q-10.5 -14.3 -12.0 -15.6 L-12.95 -17.2 -12.9 -17.25 -12.6 -17.2 -12.6 -17.4 -12.75 -17.7 -11.0 -18.05 -7.1 -18.25 -3.6 -17.6 -0.1 -16.25 Q1.7 -15.5 3.65 -15.4 L7.6 -15.3 11.35 -15.75 Q13.25 -16.15 14.95 -16.9 L16.35 -17.5 M-0.65 -38.15 L0.5 -41.45 Q1.25 -43.15 3.1 -42.95 L8.55 -43.35 Q12.1 -43.85 9.65 -42.3 L6.65 -40.25 5.55 -39.1 Q5.0 -38.45 4.8 -37.4 4.6 -36.4 4.75 -36.1 L2.6 -36.55 Q1.4 -36.95 -0.65 -38.15" fill="#fce6a5" fill-rule="evenodd" stroke="none"/>
      <path d="M1.95 -61.7 L0.85 -61.7 Q5.3 -60.2 8.35 -58.7 11.4 -57.2 16.5 -53.2 16.25 -51.8 15.6 -50.5 14.75 -48.85 12.9 -48.0 11.35 -47.3 9.35 -47.15 L5.65 -47.05 1.8 -47.3 -1.95 -47.85 -5.25 -48.8 -5.55 -48.95 -5.15 -48.75 -9.05 -50.35 Q-10.9 -51.05 -12.35 -51.9 -14.05 -52.95 -14.8 -54.3 L-15.5 -56.1 -14.3 -56.9 -13.5 -57.65 -13.5 -57.9 -13.4 -58.15 -13.25 -58.25 -13.25 -58.3 -13.2 -58.55 Q-12.55 -59.75 -11.3 -60.1 L-11.25 -60.15 -10.7 -60.35 -10.7 -61.0 Q-10.45 -61.95 -10.95 -62.65 -10.7 -63.55 -10.95 -64.4 L-10.6 -65.2 -10.5 -65.7 -10.45 -65.8 -10.4 -65.85 -10.35 -65.9 -10.35 -66.15 -10.3 -66.6 -10.2 -67.45 -10.55 -70.15 -8.05 -69.75 -7.0 -68.9 -5.3 -68.0 -5.15 -67.9 -5.05 -67.7 Q-3.8 -65.3 -1.9 -64.0 L-1.35 -63.15 Q-1.5 -62.9 -1.25 -62.65 L-1.2 -62.6 Q-0.2 -61.85 1.15 -62.0 L1.3 -62.0 1.95 -61.7 M17.65 -30.7 L17.7 -30.1 17.8 -29.65 18.0 -27.35 17.55 -25.85 Q17.25 -24.6 17.2 -23.2 17.15 -20.6 16.55 -18.15 L16.35 -17.5 14.95 -16.9 Q13.25 -16.15 11.35 -15.75 L7.6 -15.3 3.65 -15.4 Q1.7 -15.5 -0.1 -16.25 L-3.6 -17.6 -7.1 -18.25 -11.0 -18.05 -12.75 -17.7 -12.9 -18.15 -12.95 -18.85 -13.3 -19.55 -13.6 -20.4 -13.65 -20.7 -13.85 -22.65 -14.0 -22.95 -14.05 -23.3 -14.05 -25.35 -14.2 -27.0 -12.85 -27.15 Q-10.85 -27.1 -9.25 -26.15 -7.7 -25.15 -6.2 -24.7 -4.9 -24.35 -3.75 -24.95 L-2.35 -26.0 Q-1.1 -27.2 -1.3 -29.4 L-1.45 -33.35 Q-1.45 -35.4 -1.05 -37.15 L-0.65 -38.15 Q1.4 -36.95 2.6 -36.55 L4.75 -36.1 5.5 -35.6 5.75 -35.55 6.55 -35.45 Q8.45 -34.9 8.85 -32.5 L8.85 -30.4 Q8.6 -30.8 7.45 -30.4 6.3 -30.0 6.55 -28.1 6.8 -26.25 8.8 -25.95 10.55 -25.7 11.35 -26.6 L12.0 -26.85 11.55 -26.9 14.4 -28.6 17.25 -30.45 17.65 -30.7" fill="#3d3d3d" fill-rule="evenodd" stroke="none"/>
      <path d="M-12.4 -17.4 L-12.4 -15.85 -12.5 -15.85 Q-13.2 -15.85 -13.65 -15.45 -14.25 -14.95 -14.2 -13.85 -14.25 -12.85 -13.65 -12.25 -13.2 -11.85 -12.5 -11.8 L-5.9 -11.8 -5.9 -10.3 -12.55 -10.3 Q-13.8 -10.35 -14.6 -11.1 -15.55 -12.05 -15.5 -13.85 -15.55 -15.75 -14.6 -16.6 -13.8 -17.4 -12.55 -17.4 L-12.4 -17.4" fill="#4f1d17" fill-rule="evenodd" stroke="none"/>
      <path d="M-0.7 -61.8 L0.3 -61.85 1.55 -61.9 1.95 -61.9 2.7 -61.9 4.85 -61.6 Q5.45 -63.15 7.0 -64.8 8.55 -66.45 9.85 -67.3 11.2 -68.2 12.5 -68.8 13.8 -69.4 13.95 -67.75 L14.3 -64.15 Q14.5 -62.25 13.9 -59.25 M-0.95 -61.85 Q-1.9 -64.2 -3.45 -65.85 -4.95 -67.5 -6.3 -68.35 L-8.9 -69.85 Q-10.2 -70.45 -10.4 -68.8 L-10.75 -65.2 Q-10.9 -63.3 -10.35 -60.3 M-12.85 -44.45 L-12.8 -42.65 -12.7 -35.85 Q-12.8 -32.0 -13.55 -28.35 -14.3 -24.75 -13.75 -20.9 -13.1 -17.15 -10.85 -14.0 -9.85 -12.75 -8.55 -11.95 L-7.4 -11.4 M14.25 -44.0 L14.6 -43.3 14.95 -42.65 16.6 -38.35 Q17.6 -34.7 17.6 -30.75 L17.15 -22.45 Q16.7 -18.1 15.0 -15.1 13.35 -12.15 10.2 -10.55" fill="none" stroke="#4f1d17" stroke-linecap="round" stroke-linejoin="round" stroke-width="1.0"/>
      <path d="M-13.5 -46.9 Q-16.3 -49.5 -16.3 -52.85 -16.3 -56.25 -13.5 -58.85 L-12.75 -58.1 Q-15.25 -55.75 -15.25 -52.85 -15.25 -50.0 -12.75 -47.6 L-13.5 -46.9" fill="#4f1d17" fill-rule="evenodd" stroke="none"/>
      <path d="M15.85 -45.0 L15.1 -45.7 Q17.6 -48.1 17.6 -50.95 17.6 -53.85 15.1 -56.2 L15.85 -56.95 Q18.65 -54.35 18.65 -50.95 18.65 -47.6 15.85 -45.0" fill="#4f1d17" fill-rule="evenodd" stroke="none"/>
      <path d="M-11.9 -46.0 L-11.15 -44.45 -10.4 -44.45 -10.95 -45.9 -10.4 -45.9 -10.4 -47.35 -11.9 -47.35 -11.9 -46.0 M-9.0 -46.0 L-8.25 -44.45 -7.5 -44.45 -8.05 -45.9 -7.5 -45.9 -7.5 -47.35 -9.0 -47.35 -9.0 -46.0" fill="#000000" fill-rule="evenodd" stroke="none"/>
    </g>
    <g id="sprite0" transform="matrix(1.0, 0.0, 0.0, 1.0, 3.0, 1.25)">
      <use height="2.5" transform="matrix(1.0, 0.0, 0.0, 1.0, -2.4, -1.25)" width="4.8" xlink:href="#shape1"/>
    </g>
    <g id="shape1" transform="matrix(1.0, 0.0, 0.0, 1.0, 2.4, 1.25)">
      <path d="M1.9 0.75 Q0.05 -0.4 -1.9 -0.75" fill="none" stroke="#4f1d17" stroke-linecap="round" stroke-linejoin="round" stroke-width="1.0"/>
    </g>
    <g id="shape2" transform="matrix(1.0, 0.0, 0.0, 1.0, 17.9, 41.55)">
      <path d="M13.45 -27.5 L13.45 -27.35 13.55 -25.85 13.45 -27.5 M13.6 -20.0 Q13.05 -18.25 11.7 -17.05 L11.2 -16.65 11.55 -16.85 Q13.35 -18.0 13.6 -20.0 M10.95 -24.9 L10.9 -26.1 Q10.7 -28.0 10.75 -30.0 L10.75 -30.05 Q10.4 -27.9 10.7 -25.75 L10.9 -25.1 10.95 -24.9" fill="#e7e0dc" fill-rule="evenodd" stroke="none"/>
      <path d="M14.25 -38.8 L15.6 -39.05 15.85 -39.0 15.35 -39.15 14.25 -38.8 M15.95 -35.55 L15.8 -35.3 15.9 -35.5 15.95 -35.55" fill="#58463f" fill-rule="evenodd" stroke="none"/>
      <path d="M14.25 -38.8 L14.05 -38.7 13.75 -38.4 13.05 -37.65 13.05 -37.55 13.0 -37.5 13.0 -37.45 12.85 -37.35 12.8 -37.1 12.7 -36.9 12.65 -36.85 12.55 -36.75 12.55 -36.45 12.55 -36.4 12.35 -36.05 12.15 -35.6 11.3 -32.6 11.25 -32.4 10.95 -31.1 10.75 -30.05 10.75 -30.0 Q10.7 -28.0 10.9 -26.1 L10.95 -24.9 11.0 -24.9 11.15 -24.1 11.2 -23.7 11.05 -22.95 11.05 -22.75 10.75 -22.05 10.4 -21.25 10.35 -21.1 10.05 -20.4 10.1 -20.4 10.4 -20.05 10.45 -19.2 Q10.5 -18.3 10.05 -17.55 L11.1 -17.95 11.6 -17.5 11.5 -17.25 10.7 -16.8 10.6 -16.35 10.55 -16.3 11.2 -16.65 11.7 -17.05 Q13.05 -18.25 13.6 -20.0 L13.6 -20.2 13.55 -25.45 13.55 -25.85 13.45 -27.35 13.45 -27.5 Q13.2 -29.2 13.65 -30.85 L13.85 -31.55 14.05 -32.15 14.6 -34.25 14.7 -34.25 14.8 -34.35 15.0 -34.35 15.3 -34.7 15.65 -35.25 15.8 -35.3 15.95 -35.55 15.95 -35.85 16.35 -36.4 16.45 -36.5 16.85 -37.45 16.75 -38.5 16.7 -38.55 15.85 -39.0 15.6 -39.05 14.25 -38.8 M6.6 -14.85 L6.7 -14.7 6.9 -14.75 6.6 -14.85 M8.0 -15.15 L8.5 -15.35 8.9 -15.5 8.7 -15.55 8.0 -15.15" fill="#fefbf5" fill-rule="evenodd" stroke="none"/>
      <path d="M10.55 -16.3 L10.6 -16.35 10.7 -16.8 11.5 -17.25 11.6 -17.5 11.1 -17.95 10.05 -17.55 9.9 -17.35 8.45 -16.25 8.35 -16.15 8.05 -16.05 6.9 -15.95 6.8 -16.0 6.3 -15.3 6.35 -15.1 6.6 -14.85 6.9 -14.75 8.0 -15.15 8.7 -15.55 8.9 -15.5 Q9.15 -15.55 9.35 -15.7 L10.55 -16.3 M8.9 -15.5 L9.1 -15.6 9.35 -15.7 9.1 -15.6 8.9 -15.5" fill="#fce6a5" fill-rule="evenodd" stroke="none"/>
      <path d="M10.05 -17.55 Q10.5 -18.3 10.45 -19.2 L10.4 -19.9 10.1 -20.25 10.05 -20.25 9.9 -20.3 9.8 -20.25 9.05 -19.3 8.95 -19.25 8.95 -19.2 8.9 -19.2 8.85 -19.25 8.65 -19.3 8.55 -19.25 Q7.55 -18.95 7.6 -18.35 L7.45 -18.1 7.1 -17.15 6.7 -17.05 6.5 -16.75 6.8 -16.0 6.9 -15.95 8.05 -16.05 8.35 -16.15 8.45 -16.25 9.9 -17.35 10.05 -17.55" fill="#3d3d3d" fill-rule="evenodd" stroke="none"/>
      <path d="M14.25 -38.8 L15.6 -39.05 15.85 -39.0 Q17.4 -38.9 16.9 -37.65 L16.85 -37.45 16.45 -36.5 15.95 -35.55 15.8 -35.3 15.25 -34.6 Q14.45 -33.45 14.05 -32.15 L13.85 -31.55 13.75 -31.1 Q13.4 -29.3 13.45 -27.5 L13.45 -27.35 13.55 -25.85 13.8 -24.0 Q14.2 -22.1 13.65 -20.25 L13.6 -20.0 Q13.05 -18.25 11.7 -17.05 L11.2 -16.65 10.55 -16.3 M10.95 -24.9 L10.9 -26.1 Q10.7 -28.0 10.75 -30.0 L10.75 -30.05 Q10.8 -32.0 11.3 -33.75 11.8 -35.6 12.7 -37.3 13.3 -38.4 14.25 -38.8 M10.95 -24.9 Q11.0 -23.55 10.7 -22.3 10.45 -21.3 9.8 -20.4 L9.05 -19.3 M6.7 -14.7 L6.9 -14.75 8.0 -15.15 8.5 -15.35 8.9 -15.5 M9.35 -15.7 L10.55 -16.3 M9.35 -15.7 L9.1 -15.6 8.9 -15.5" fill="none" stroke="#4f1d17" stroke-linecap="round" stroke-linejoin="round" stroke-width="1.0"/>
      <path d="M-11.65 -40.6 L-13.0 -40.8 -13.6 -41.0 -13.95 -41.0 Q-14.55 -41.05 -15.1 -40.6 -15.75 -40.05 -15.9 -39.15 L-15.95 -38.75 -16.45 -38.55 Q-17.2 -38.05 -17.35 -37.2 -17.5 -36.35 -16.9 -35.6 L-16.65 -35.25 -16.9 -34.4 Q-17.05 -33.55 -16.55 -32.85 L-15.95 -32.35 -15.55 -32.1 -15.2 -32.0 -15.15 -32.0 -14.3 -32.0 -13.75 -32.2 -13.6 -32.05 -12.75 -31.7 -11.55 -31.9 Q-10.85 -32.25 -10.35 -32.95 L-10.3 -33.05 -10.25 -33.2 -9.95 -33.95 -9.9 -34.05 -9.85 -34.15 -9.85 -34.2 -9.7 -34.65 -9.6 -35.15 -9.55 -35.2 Q-9.4 -35.35 -9.5 -35.65 L-9.55 -35.9 Q-9.5 -36.75 -9.7 -37.6 -10.0 -38.8 -10.55 -39.6 L-10.6 -39.65 -10.7 -39.8 -10.85 -39.95 -10.9 -40.0 -10.95 -40.05 -11.15 -40.25 -11.25 -40.35 -11.65 -40.6" fill="#fefbf5" fill-rule="evenodd" stroke="none"/>
      <path d="M-11.65 -40.6 L-13.0 -40.8 -13.6 -41.0 -13.95 -41.0 Q-14.55 -41.05 -15.1 -40.6 -15.75 -40.05 -15.9 -39.15 L-15.95 -38.75 -16.45 -38.55 Q-17.2 -38.05 -17.35 -37.2 -17.5 -36.35 -16.9 -35.6 L-16.65 -35.25 -16.9 -34.4 Q-17.05 -33.55 -16.55 -32.85 L-15.95 -32.35 -15.55 -32.1 -15.2 -32.0 -15.15 -32.0 -14.3 -32.0 -13.75 -32.2 -13.6 -32.05 -12.75 -31.7 -11.55 -31.9 Q-10.85 -32.25 -10.35 -32.95" fill="none" stroke="#4f1d17" stroke-linecap="round" stroke-linejoin="round" stroke-width="1.0"/>
    </g>
  </defs>
</svg>
